<?xml version="1.0" encoding="UTF-8"?>
<svg xmlns="http://www.w3.org/2000/svg" xmlns:xlink="http://www.w3.org/1999/xlink" viewBox="0 0 540 540">
  <defs>
    <style>
      .cls-1 {
        isolation: isolate;
      }

      .cls-2 {
        fill: #f7c274;
      }

      .cls-3 {
        fill: #66625f;
        mix-blend-mode: overlay;
      }

      .cls-4 {
        clip-path: url(#clippath);
      }

      .cls-5 {
        fill: none;
      }

      .cls-6 {
        fill: #fcca79;
      }
    </style>
    <clipPath id="clippath">
      <path class="cls-5" d="m83.4,298.83c1.86-13.11,22.16-14.89,114.1-65.4,37.25-20.46,68.03-37.38,102.61-60.22,87.43-57.76,108.39-93.52,130.23-84.79,21.02,8.4,21.54,49.5,22.79,129.88.61,38.95,1.71,108.07,3.5,208.01.3,16.73-15.02,29.45-31.4,26-105.83-22.25-344.87-132.09-341.83-153.49Z"/>
    </clipPath>
  </defs>
  <g class="cls-1">
    <g id="_Layer_" data-name="&amp;lt;Layer&amp;gt;">
      <g class="cls-4">
        <g>
          <path class="cls-6" d="m83.4,298.83c1.86-13.11,22.16-14.89,114.1-65.4,37.25-20.46,68.03-37.38,102.61-60.22,87.43-57.76,108.39-93.52,130.23-84.79,21.02,8.4,21.54,49.5,22.79,129.88.61,38.95,1.71,108.07,3.5,208.01.3,16.73-15.02,29.45-31.4,26-105.83-22.25-344.87-132.09-341.83-153.49Z"/>
          <path class="cls-2" d="m135.25,290.9c-.68-15.2,36.99-36.15,71.98-33.37,27.18,2.17,31.95,17,50.74,13.65,21.87-3.9,22.73-25.3,58.37-62.19,6.3-6.52,22.93-19.78,56.2-46.3,44.62-35.57,50.06-37.97,53.44-35.89,10.38,6.4-17.86,43.4-15.56,104.43.72,19.13,4.85,51.39,13.99,85.53,7.86,29.36,15.54,45.54,6.82,58.92-10.39,15.95-36.25,15.96-41.29,15.96-40.11.01-46.74-31.63-96.92-50.95-33.5-12.9-38.56-1.88-94.62-18.27-32.9-9.62-62.55-18.29-63.15-31.52Z"/>
        </g>
        <path class="cls-3" d="m425.59,88.13c-25.3,16.02-163.66,101.2-188.16,178.6-36.9,116.59,117.53,173.89,130.58,189.73-110.51-47.13-221.03-94.26-331.54-141.38,3.93-23.3,11.51-43.08,20.57-59.73C135.76,110.55,385.92,90.81,425.59,88.13Z"/>
      </g>
    </g>
  </g>
</svg>