<?xml version="1.0" encoding="UTF-8"?>
<svg id="_Layer_" data-name="&amp;lt;Layer&amp;gt;" xmlns="http://www.w3.org/2000/svg" viewBox="0 0 540 540">
  <defs>
    <style>
      .cls-1 {
        fill: #dd7f2a;
      }

      .cls-2 {
        fill: #edd091;
      }

      .cls-3 {
        fill: #ed9d3c;
      }

      .cls-4 {
        fill: #fdeaab;
      }

      .cls-5 {
        fill: #e6b46f;
      }
    </style>
  </defs>
  <g>
    <g>
      <path class="cls-1" d="m379.04,426.55c38.19-6.43,50.6-22.85,36.08-79.98-14.52-57.13-51.49-142.67-29.75-171.43,21.75-28.76,46.14-60.19-1.67-81.43-47.81-21.24-285.22,8.58-315.84,46.89-41.74,52.22,33.03,52.73,42.18,93.63,22.71,101.44-10.97,214.04,32.81,222.25,43.78,8.21,181.59-20.73,236.18-29.93Z"/>
      <path class="cls-3" d="m393.55,425.49c37.14-6.3,49.19-22.5,34.99-78.95-14.2-56.45-50.29-140.98-29.17-169.35,21.12-28.37,44.8-59.39-1.74-80.43-46.54-21.04-277.45,8.09-307.19,45.88-40.54,51.51,32.2,52.12,41.16,92.53,22.23,100.22-10.39,211.38,32.22,219.55,42.6,8.17,176.63-20.23,229.72-29.24Z"/>
      <path class="cls-4" d="m385.63,416.38c34.26-5.77,45.4-20.5,32.38-71.76-13.02-51.26-48.94-142.97-29.43-168.77,19.51-25.8,41.4-54.01-1.5-73.06-42.9-19.06-255.91,7.7-283.38,42.07-37.45,46.85,29.63,47.31,37.85,84.01,20.38,91.02-7.11,207.01,32.17,214.37,39.28,7.37,162.93-18.6,211.91-26.85Z"/>
    </g>
    <g>
      <path class="cls-5" d="m340.91,129.74c14.45-17.86,24.66,12.5,15.4,20.18-9.26,7.68-31.68-.06-15.4-20.18Z"/>
      <path class="cls-5" d="m213.82,389.65c-11.28-1.09-27.1,5.57-15.88,9.75,11.22,4.19,28.42-8.55,15.88-9.75Z"/>
      <path class="cls-5" d="m369.16,380.17c-13.4-12.37-12.1-12.35-5.51.5,6.59,12.85,12.97,6.39,5.51-.5Z"/>
      <path class="cls-5" d="m246.13,235.63c-9.81-2.43-18,6.06-11.52,13.61,6.49,7.56,27.88-9.56,11.52-13.61Z"/>
      <path class="cls-5" d="m156.93,155.91c.28-13.13-33.18,1.64-12.84,12.66,20.34,11.01,12.68-5.32,12.84-12.66Z"/>
      <path class="cls-5" d="m263.55,168.2c-8.59-6.79-22.3,5.61-12.61,10.02,9.69,4.41,27.1,1.44,12.61-10.02Z"/>
      <path class="cls-5" d="m355.41,265.25c-10.17-16.36-51.96.32-36.95,16.18,15.01,15.87,46.96-.09,36.95-16.18Z"/>
      <path class="cls-5" d="m259.72,324.08c-13.08-6.25-23.93,2.22-17.2,12.35,6.72,10.13,30.29-6.1,17.2-12.35Z"/>
      <path class="cls-5" d="m302.15,381.16c-9.33-1.13-23.98,3.97-13.4,11.38,10.58,7.4,23.72-10.13,13.4-11.38Z"/>
      <path class="cls-5" d="m393.84,333.5c-8.94,4.46-21.3,15.48-7.51,17.84,13.79,2.36,17.44-22.79,7.51-17.84Z"/>
      <path class="cls-5" d="m173.21,278.03c6.94-4.85,13.16,12.55,7.88,14.9-5.28,2.36-14.82-10.05-7.88-14.9Z"/>
      <path class="cls-5" d="m163.25,200.07c6.79,1.62,9.28,9.54,5.79,10.77-3.49,1.22-12.59-12.39-5.79-10.77Z"/>
      <path class="cls-5" d="m136.57,184.32c3.7-.15,7.58,4.08,2.09,6.97-5.49,2.89-12.23-6.55-2.09-6.97Z"/>
      <path class="cls-5" d="m309.68,124.66c7.11-1.42,11.21,3.82,6.1,7.36-5.11,3.54-13.21-5.93-6.1-7.36Z"/>
      <path class="cls-5" d="m334.99,184.27c6.02-3.5,14.79,1.05,7.51,6.73-7.29,5.68-13.52-3.23-7.51-6.73Z"/>
      <path class="cls-5" d="m380.38,126.74c8.22,3.33,13.41,7.34,7.51,12.09-5.9,4.75-12.55-14.13-7.51-12.09Z"/>
      <path class="cls-5" d="m227.27,127.38c5.39-3.76,15.11,8.21,7.52,11.98-7.6,3.76-12.91-8.22-7.52-11.98Z"/>
      <path class="cls-5" d="m218.27,263.73c6.03-2.7,14.59-.31,7.29,5.1-7.3,5.42-13.31-2.41-7.29-5.1Z"/>
      <path class="cls-5" d="m259.14,234.45c7.92-.82,11.65,5.16,5.33,8-6.31,2.85-13.25-7.18-5.33-8Z"/>
      <path class="cls-5" d="m276.19,289.63c7.83,1.29,13.54,13.2,4.4,12.79-9.14-.41-12.23-14.08-4.4-12.79Z"/>
      <path class="cls-5" d="m216.47,332.22c8.22-6.97,13.69-2.9,5.77,2.77-7.92,5.68-5.77-2.77-5.77-2.77Z"/>
      <path class="cls-5" d="m246.1,364.41c8.44.67,15.11,6.38,7.9,10.67-7.21,4.29-16.34-11.34-7.9-10.67Z"/>
      <path class="cls-5" d="m353.43,311.62c3.46.12,7.4,5.6.74,8.12s-9.25-8.41-.74-8.12Z"/>
      <path class="cls-5" d="m363.01,233.84c9.4,3.82,17.85,17.74,6.81,15.47-11.04-2.27-16.2-19.29-6.81-15.47Z"/>
      <path class="cls-5" d="m174.27,422.54c2.49-6.96,22.02-.74,14.49,5.9-7.52,6.64-16.98,1.06-14.49-5.9Z"/>
      <path class="cls-5" d="m167.59,328.39c5.52-2.99,17.42,5.29,8.12,9.15s-13.65-6.16-8.12-9.15Z"/>
    </g>
  </g>
  <g>
    <g>
      <path class="cls-1" d="m429.43,421.99c38.19-6.43,50.6-22.85,36.08-79.98-14.52-57.13-51.49-142.67-29.75-171.43s46.14-60.19-1.67-81.43c-47.81-21.24-285.22,8.58-315.84,46.89-41.74,52.22,33.03,52.73,42.18,93.63,22.71,101.44-10.97,214.04,32.81,222.25,43.78,8.21,181.59-20.73,236.18-29.93Z"/>
      <path class="cls-3" d="m443.93,420.93c37.14-6.3,49.19-22.5,34.99-78.95-14.2-56.45-50.29-140.98-29.17-169.35,21.12-28.37,44.8-59.39-1.74-80.43-46.54-21.04-277.45,8.09-307.19,45.88-40.54,51.51,32.2,52.12,41.16,92.53,22.23,100.22-10.39,211.38,32.22,219.55,42.6,8.17,176.63-20.23,229.72-29.24Z"/>
      <path class="cls-4" d="m436.02,411.81c34.26-5.77,45.4-20.5,32.38-71.76-13.02-51.26-48.94-142.97-29.43-168.77,19.51-25.8,41.4-54.01-1.5-73.06-42.9-19.06-255.91,7.7-283.38,42.07-37.45,46.85,29.63,47.31,37.85,84.01,20.38,91.02-7.11,207.01,32.17,214.37,39.28,7.37,162.93-18.6,211.91-26.85Z"/>
      <path class="cls-2" d="m434.66,135.02c13.39-6.99-7.26-17.44-45.8-14.12-38.54,3.32-241.56,20.83-230.27,39.14,11.28,18.31,240.71-6.56,276.07-25.03Z"/>
      <path class="cls-2" d="m423.18,207.94c10.93-5.71-5.93-14.23-37.38-11.52s-197.18,17-187.97,31.95c9.21,14.95,196.49-5.35,225.35-20.43Z"/>
      <path class="cls-2" d="m433.63,282.22c10.93-5.71-5.93-14.24-37.38-11.52-31.46,2.71-197.18,17-187.97,31.95,9.21,14.95,196.49-5.35,225.35-20.43Z"/>
      <path class="cls-2" d="m444.08,356.51c10.93-5.71-5.93-14.24-37.38-11.52-31.46,2.71-197.18,17-187.97,31.95,9.21,14.95,196.49-5.35,225.35-20.43Z"/>
    </g>
    <g>
      <path class="cls-5" d="m391.3,125.17c14.45-17.86,24.66,12.5,15.4,20.18-9.26,7.68-31.68-.06-15.4-20.18Z"/>
      <path class="cls-5" d="m264.21,385.08c-11.28-1.09-27.1,5.57-15.88,9.75,11.22,4.19,28.42-8.55,15.88-9.75Z"/>
      <path class="cls-5" d="m419.54,375.6c-13.4-12.37-12.1-12.35-5.51.5,6.59,12.85,12.97,6.39,5.51-.5Z"/>
      <path class="cls-5" d="m296.52,231.06c-9.81-2.43-18,6.06-11.52,13.61,6.49,7.56,27.88-9.56,11.52-13.61Z"/>
      <path class="cls-5" d="m207.32,151.34c.28-13.13-33.18,1.64-12.84,12.66,20.34,11.01,12.68-5.32,12.84-12.66Z"/>
      <path class="cls-5" d="m313.94,163.63c-8.59-6.79-22.3,5.61-12.61,10.02,9.69,4.41,27.1,1.44,12.61-10.02Z"/>
      <path class="cls-5" d="m405.79,260.68c-10.17-16.36-51.96.32-36.95,16.18,15.01,15.87,46.96-.09,36.95-16.18Z"/>
      <path class="cls-5" d="m310.11,319.52c-13.08-6.25-23.92,2.22-17.2,12.35,6.72,10.13,30.29-6.1,17.2-12.35Z"/>
      <path class="cls-5" d="m352.54,376.59c-9.33-1.13-23.98,3.97-13.4,11.38,10.58,7.4,23.72-10.13,13.4-11.38Z"/>
      <path class="cls-5" d="m444.23,328.94c-8.94,4.46-21.3,15.48-7.51,17.84,13.79,2.36,17.44-22.79,7.51-17.84Z"/>
      <path class="cls-5" d="m223.6,273.47c6.94-4.85,13.16,12.55,7.88,14.9-5.28,2.36-14.82-10.05-7.88-14.9Z"/>
      <path class="cls-5" d="m213.64,195.5c6.79,1.62,9.28,9.54,5.79,10.77-3.49,1.22-12.59-12.39-5.79-10.77Z"/>
      <path class="cls-5" d="m186.96,179.75c3.7-.15,7.58,4.08,2.09,6.97-5.49,2.89-12.23-6.55-2.09-6.97Z"/>
      <path class="cls-5" d="m360.07,120.09c7.11-1.42,11.21,3.82,6.1,7.36-5.11,3.54-13.21-5.93-6.1-7.36Z"/>
      <path class="cls-5" d="m385.38,179.7c6.02-3.5,14.79,1.05,7.51,6.73-7.29,5.68-13.52-3.23-7.51-6.73Z"/>
      <path class="cls-5" d="m430.77,122.17c8.22,3.33,13.41,7.34,7.51,12.09-5.9,4.75-12.55-14.13-7.51-12.09Z"/>
      <path class="cls-5" d="m277.65,122.81c5.39-3.76,15.11,8.21,7.52,11.98-7.6,3.76-12.91-8.22-7.52-11.98Z"/>
      <path class="cls-5" d="m268.66,259.16c6.03-2.7,14.59-.31,7.29,5.1-7.3,5.42-13.31-2.41-7.29-5.1Z"/>
      <path class="cls-5" d="m309.53,229.88c7.92-.82,11.65,5.16,5.33,8-6.31,2.85-13.25-7.18-5.33-8Z"/>
      <path class="cls-5" d="m326.57,285.06c7.83,1.29,13.54,13.2,4.4,12.79-9.14-.41-12.23-14.08-4.4-12.79Z"/>
      <path class="cls-5" d="m266.86,327.66c8.22-6.97,13.69-2.9,5.77,2.77-7.92,5.68-5.77-2.77-5.77-2.77Z"/>
      <path class="cls-5" d="m296.49,359.85c8.44.67,15.11,6.38,7.9,10.67-7.21,4.29-16.34-11.34-7.9-10.67Z"/>
      <path class="cls-5" d="m403.82,307.06c3.46.12,7.4,5.6.74,8.12-6.67,2.52-9.25-8.41-.74-8.12Z"/>
      <path class="cls-5" d="m413.4,229.27c9.4,3.82,17.85,17.74,6.81,15.47-11.04-2.27-16.2-19.29-6.81-15.47Z"/>
      <path class="cls-5" d="m224.66,417.97c2.49-6.96,22.02-.74,14.49,5.9-7.52,6.64-16.98,1.06-14.49-5.9Z"/>
      <path class="cls-5" d="m217.98,323.83c5.52-2.99,17.42,5.29,8.12,9.15-9.29,3.86-13.65-6.16-8.12-9.15Z"/>
    </g>
  </g>
</svg>