<?xml version="1.0" encoding="UTF-8"?>
<svg xmlns="http://www.w3.org/2000/svg" xmlns:xlink="http://www.w3.org/1999/xlink" viewBox="0 0 540 540">
  <defs>
    <style>
      .cls-1 {
        isolation: isolate;
      }

      .cls-2 {
        fill: #f0e1c0;
      }

      .cls-3 {
        clip-path: url(#clippath-1);
      }

      .cls-4 {
        fill: #f4e9cf;
      }

      .cls-5 {
        fill: #d2a584;
        opacity: .2;
      }

      .cls-5, .cls-6, .cls-7, .cls-8 {
        mix-blend-mode: multiply;
      }

      .cls-9 {
        clip-path: url(#clippath);
      }

      .cls-6, .cls-7 {
        fill: #fcd78a;
      }

      .cls-6, .cls-8 {
        opacity: .5;
      }

      .cls-10 {
        fill: none;
      }

      .cls-7 {
        opacity: .25;
      }

      .cls-8 {
        fill: #f0cc83;
      }
    </style>
    <clipPath id="clippath">
      <path class="cls-10" d="m173.85,34.63c14.99,1.09,121.13,10.6,184.29,101.63,57.76,83.23,56.81,201.78-9.16,283.17-75.67,93.35-195.2,86.37-206.72,85.5-3.17-67.01-3.41-141.2,1.4-221.36,5.51-91.76,16.66-175.19,30.18-248.93Z"/>
    </clipPath>
    <clipPath id="clippath-1">
      <path class="cls-10" d="m173.85,34.63c14.99,1.09,121.13,10.6,184.29,101.63,57.76,83.23,56.81,201.78-9.16,283.17-75.67,93.35-195.2,86.37-206.72,85.5-3.17-67.01-3.41-141.2,1.4-221.36,5.51-91.76,16.66-175.19,30.18-248.93Z"/>
    </clipPath>
  </defs>
  <g class="cls-1">
    <g id="_Layer_" data-name="&amp;lt;Layer&amp;gt;">
      <g>
        <path class="cls-2" d="m173.85,34.63c14.99,1.09,121.13,10.6,184.29,101.63,57.76,83.23,56.81,201.78-9.16,283.17-75.67,93.35-195.2,86.37-206.72,85.5-3.17-67.01-3.41-141.2,1.4-221.36,5.51-91.76,16.66-175.19,30.18-248.93Z"/>
        <path class="cls-8" d="m370.45,190.86c-2.1-9.02-16.08-5.77-13.98,3.25,2.1,9.02,16.08,5.77,13.98-3.25Z"/>
        <path class="cls-8" d="m350.42,216.86c8.92-16.39-38.78-83.15-48.44-71.47-11.86,14.36,16.3,36.46,18.51,48.85,2.43,13.63-22.06,18.28-17.22,31.99,3.27,9.26,40.16,3.47,47.14-9.37Z"/>
        <path class="cls-8" d="m341.38,396.57c-2.1-9.02-16.08-5.77-13.98,3.25,2.1,9.02,16.08,5.77,13.98-3.25Z"/>
        <g class="cls-9">
          <path class="cls-5" d="m142.27,504.92c15.2-2.3,119.41-19.82,178.22-116.54,45.54-74.89,49.47-173.58,2.04-252.38C269,47.08,175.87,26.36,159.7,23.04c-5.81,160.63-11.62,321.25-17.43,481.88Z"/>
        </g>
        <g>
          <path class="cls-4" d="m142.27,504.92s167.47-53.01,186.11-220.73c16.41-147.61-154.53-249.57-154.53-249.57-8.38,45.81-15.65,94.24-21.27,145.13-13.14,118.83-14.81,228.14-10.31,325.16Z"/>
          <path class="cls-6" d="m236.44,341.19c10.94-2.71,6.07-30.67-5.54-30.1-9.36.46-8.23,33.51,5.54,30.1Z"/>
          <path class="cls-7" d="m140.02,405.68c5.09,3.22,29.65,18.18,48.95,8.34,10.27-5.24,18.59-14.77,20.42-31.65,4.18-38.63-4.2-98.94,21.68-99.87,18.17-.66,20.14,65.46,43.43,41,18.45-19.38,19.32-103.46-13.64-139.93-9.22-10.21-14.42-13.22-17.45-11.98-11.46,4.71-5.17,41.79-16.04,46.36-8.73,3.67-28.57-14.72-69.72-80.18-5.38,40.97-9.85,84.53-12.95,130.48-3.26,48.3-4.65,94.22-4.69,137.43Z"/>
          <path class="cls-8" d="m177.85,363.78c2.58-4.74-6.11-14.15-8-16.2-10.05-10.89-23.02-13.53-28.5-14.31-.16,4.5-.31,9.02-.44,13.57-.14,4.89-.27,9.75-.38,14.58,27.94,7.64,35.55,5.63,37.32,2.37Z"/>
          <path class="cls-8" d="m239.96,257.79c7.85-6.49,14.2-14.81,17.12-22.32,2.93-7.53-2-16.66-11.91-14.35-5.32,1.24-8.96,6.08-11.7,10.81-2.74,4.73-5.28,9.92-9.89,12.87-3.92,2.51-8.48,2.01-12.46-.08-12.21-6.43-6.42-17.57-12.01-27.78-4.54-8.3-11.93-11.57-15.44-.63-5.19,16.22,4.52,44.13,20.57,50.93,11.43,4.84,24.98-.58,35.72-9.45Z"/>
          <path class="cls-8" d="m223.22,185.66c10.93-7.19-.23-24.15-11.16-16.96-10.94,7.2.23,24.15,11.16,16.96Z"/>
          <path class="cls-8" d="m244.58,156.28c7.61-5.01-.16-16.81-7.77-11.8-7.61,5.01.16,16.81,7.77,11.8Z"/>
          <path class="cls-8" d="m204.23,128.4c6.77-4.45-.14-14.94-6.9-10.49-6.76,4.45.14,14.94,6.9,10.49Z"/>
        </g>
        <g class="cls-3">
          <path class="cls-5" d="m135.28,191.97c-1.93,12.36-21.44,153.03,82.43,248.82,69.01,63.64,151.21,69.41,175.55,70.22-6.03,8.35-68.58,92.15-164.86,88.54-100.25-3.76-168.96-99.74-183.18-184.71-21.68-129.49,85.57-219.23,90.06-222.87Z"/>
        </g>
      </g>
    </g>
  </g>
</svg>