<?xml version="1.0" encoding="UTF-8"?>
<svg id="_Layer_" data-name="&amp;lt;Layer&amp;gt;" xmlns="http://www.w3.org/2000/svg" xmlns:xlink="http://www.w3.org/1999/xlink" viewBox="0 0 540 540">
  <defs>
    <style>
      .cls-1 {
        fill: #fff;
      }

      .cls-2 {
        fill: #fbd155;
      }

      .cls-3 {
        fill: #fee881;
      }

      .cls-4 {
        fill: #54b086;
      }

      .cls-4, .cls-5, .cls-6 {
        fill-rule: evenodd;
      }

      .cls-5 {
        fill: #4da37c;
      }

      .cls-7 {
        fill: #4b9e78;
      }

      .cls-8 {
        fill: #fdc359;
      }

      .cls-9 {
        clip-path: url(#clippath);
      }

      .cls-10 {
        clip-rule: evenodd;
        fill: none;
      }

      .cls-11 {
        fill: #fdb228;
      }

      .cls-12 {
        fill: #358797;
      }

      .cls-6 {
        fill: #438e6c;
      }
    </style>
    <clipPath id="clippath">
      <path class="cls-10" d="m269.47,111.4c-109.7,0-243.15,54.3-198.63,130.24,0,23.82,25.66,43.61,67.12,58.17.02-.02.04-.04.07-.06,33.02,13.2,81.21,21.52,134.9,21.52,69.72,0,130.18-14.03,160.16-34.55,22.08-12.81,35.02-28.34,35.02-45.08,54.5-83.79-88.93-130.24-198.63-130.24Z"/>
    </clipPath>
  </defs>
  <g>
    <path class="cls-7" d="m478.98,236.2l-35.79-4.59-173.72,7.45-173.72-7.45-35.79,4.59s-.43,33.86,8.08,60.03c8.51,26.17,50.26,132.36,200.7,132.36.25,0,.48,0,.73,0,.24,0,.48,0,.73,0,150.44,0,192.2-106.19,200.7-132.36,8.51-26.17,8.08-60.03,8.08-60.03Z"/>
    <path class="cls-6" d="m195.12,312.67c-48.65-2.81-95-20.89-132.01-51.47,13.76,94.45,98.63,164.01,197.47,161.85-42.05-21.54-67.52-64.49-65.46-110.37"/>
    <path class="cls-5" d="m342.92,312.67c48.65-2.81,95-20.89,132.01-51.47-13.76,94.45-98.63,164-197.47,161.85,42.05-21.54,67.52-64.49,65.46-110.37"/>
    <path class="cls-4" d="m269.47,152.76c-115.71,0-209.51,39.63-209.51,88.52,0,48.89,93.8,88.52,209.51,88.52,115.71,0,209.51-39.63,209.51-88.52,0-48.89-93.8-88.52-209.51-88.52"/>
    <path class="cls-6" d="m269.47,162.15c-109.7,0-198.63,35.59-198.63,79.49,0,23.82,25.66,43.61,67.12,58.17,4.79-5.04,12.34-6.64,20.15-6.64h3.01c6.61-5.41,15.98-7.57,24.97-5.03.58.11,1.16.23,1.74.37,1.61.2,3.22.54,4.81,1.03,1.53.47,2.96.93,4.46,1.49,1.88.35,3.57.73,5.36,1.38l2.89.27c1.14.11,2.27.28,3.39.52l11.16,2.43c2.3.5,4.66,1.34,6.91,2.03,2.9.6,5.87,1.08,8.63,2.1l3.35,1.24,7.72.84c.95.1,1.89.26,2.83.46l5.63,1.2h2.93c3.49,0,6.97.64,10.23,1.93,7.33,1.68,13.44,6.22,16.88,12.27-.4-12.07,8.84-22.61,21.69-24.66,1.81-.38,3.62-.57,5.42-.59,1.4-.38,2.8-.76,4.23-1.01l2.64-.46c1.6-.46,3.13-.92,4.79-1.2l3.06-.53,3.92-.99.85-.26c1.78-.55,3.57-.91,5.36-1.1,1.19-.35,2.4-.61,3.6-.79,1.01-.28,2.02-.5,3.04-.67,2.44-.61,4.89-.87,7.31-.83h.25c14.28,0,25.89,10.61,26.16,23.79,54.64-14.16,90.8-38.77,90.8-66.77,0-43.9-88.93-79.49-198.63-79.49"/>
    <path class="cls-6" d="m272.92,193.54c-99.54,0-180.24,28.59-180.24,63.86,0,35.27,80.7,63.86,180.24,63.86s180.24-28.59,180.24-63.86-80.7-63.86-180.24-63.86"/>
    <path class="cls-1" d="m476.3,272.34c-16.04,42.16-102.53,74.37-206.83,74.37s-190.8-32.21-206.84-74.37c1.19,7.93,2.92,16.24,5.4,23.89.57,1.76,1.3,3.89,2.19,6.31,27.33,35.46,106.2,61.08,199.24,61.08s171.91-25.63,199.24-61.08c.89-2.42,1.62-4.55,2.19-6.31,2.49-7.65,4.21-15.96,5.4-23.89Z"/>
  </g>
  <g class="cls-9">
    <g id="pasta_1" data-name="pasta 1">
      <ellipse class="cls-12" cx="280.62" cy="276.16" rx="32.65" ry="94.36" transform="translate(-5.69 546.42) rotate(-87.89)"/>
      <path class="cls-8" d="m83.71,264.26c13.31-18.5,45.47-57.52,101.17-77.85,56.4-20.58,104.28-10.09,143.71-1.45,37.52,8.22,65.29,14.73,85.42,39.77,23.49,29.23,30.63,76.32,14.33,88.85-6.09,4.68-13.61,3.12-26.98,1.16-27.24-4-55.13-2.39-82.34-6.63-83.17-12.94-106.97,14.98-168.55-5.5-17.46-5.81-41.15-16.57-66.77-38.37Z"/>
      <g>
        <path class="cls-3" d="m170.17,278.04c-.02.11-.04.22-.07.33,0,0,0,0,0,0-.29.71-.57,1.42-.86,2.13-37.7-5.34-65.39-9.26-65.61-9.29-.15-.02-.29-.06-.29-.06-.09-.02-.19-.05-.28-.08-1.28-.44-4.14-1.6-6.42-4.14-.12-.13-.23-.26-.35-.4-.3-.36-.59-.75-.86-1.17-.91-1.41-1.43-2.83-1.67-4.19-.02-.12-.04-.24-.06-.36-.28-1.84-.08-3.54.25-4.93.03-.11.06-.23.08-.34.09-.34.19-.66.28-.95.4-1.18,1.71-1.92,3.08-1.72,21.44,3.06,42.88,6.12,64.32,9.18.53.07,1.05.15,1.58.23.56.08,1.08.31,1.49.66,1.6,1.39,3.26,4.02,4.37,7.2,1.07,3.06,1.39,5.94,1.02,7.89Z"/>
        <g>
          <path class="cls-11" d="m164.55,266.53l-.06.34-70.54-10.98c.03-.11.06-.23.08-.34l70.52,10.98Z"/>
          <path class="cls-11" d="m167.73,272.34l-.06.34-73.9-11.51c-.02-.12-.04-.24-.06-.36l74.03,11.53Z"/>
          <path class="cls-11" d="m170.9,278.15l-.06.34-.74-.12-73.46-11.44c-.12-.13-.23-.26-.35-.4l73.88,11.5.73.11Z"/>
        </g>
        <path class="cls-2" d="m169.28,280.49s-.02,0-.03,0c-.47.11-.98.03-1.51-.21-1.94-.88-4.18-3.93-5.57-7.82-1.69-4.72-1.52-9.01.32-9.93.1-.05.21-.09.33-.13.6-.16,1.29.01,2,.45,1.82,1.12,3.83,3.98,5.11,7.57,1.79,4.99,1.5,9.5-.65,10.06Z"/>
      </g>
      <g>
        <path class="cls-3" d="m202.79,300.12c0,.11,0,.23-.02.34,0,0,0,0,0,0-.17.75-.33,1.49-.5,2.24-38.06.92-66.03,1.6-66.25,1.61-.15,0-.29,0-.29,0-.1,0-.19-.02-.29-.03-1.34-.22-4.35-.9-7.01-3.03-.14-.11-.27-.22-.41-.34-.36-.31-.71-.65-1.04-1.01-1.13-1.24-1.87-2.56-2.34-3.86-.04-.11-.08-.23-.12-.34-.57-1.77-.66-3.48-.56-4.9,0-.12.02-.23.03-.35.03-.35.08-.68.13-.98.2-1.23,1.37-2.17,2.76-2.21,21.65-.5,43.3-1,64.95-1.5.53-.01,1.06-.03,1.59-.04.57-.01,1.12.12,1.58.4,1.81,1.11,3.87,3.43,5.49,6.39,1.55,2.84,2.34,5.63,2.3,7.61Z"/>
        <g>
          <path class="cls-11" d="m195.36,289.69v.34s-71.39.74-71.39.74c0-.12.02-.23.03-.35l71.36-.74Z"/>
          <path class="cls-11" d="m199.45,294.9v.34s-74.8.78-74.8.78c-.04-.11-.08-.23-.12-.34l74.91-.78Z"/>
          <path class="cls-11" d="m203.53,300.11v.34s-.76,0-.76,0l-74.34.77c-.14-.11-.27-.22-.41-.34l74.76-.78h.74Z"/>
        </g>
        <path class="cls-2" d="m202.31,302.68s-.02,0-.03.01c-.44.19-.96.19-1.53.04-2.06-.55-4.77-3.19-6.78-6.8-2.44-4.38-2.98-8.64-1.32-9.85.09-.07.2-.13.3-.18.57-.25,1.27-.2,2.05.12,1.98.81,4.43,3.3,6.28,6.63,2.58,4.63,3.04,9.12,1.01,10.03Z"/>
      </g>
      <g>
        <path class="cls-3" d="m192.58,245.89c0,.11,0,.23-.02.34,0,0,0,0,0,0-.17.75-.33,1.49-.5,2.24-38.06.92-66.03,1.6-66.25,1.61-.15,0-.29,0-.29,0-.1,0-.19-.02-.29-.03-1.34-.22-4.35-.9-7.01-3.03-.14-.11-.27-.22-.41-.34-.36-.31-.71-.65-1.04-1.01-1.13-1.24-1.87-2.56-2.34-3.86-.04-.11-.08-.23-.12-.34-.57-1.77-.66-3.48-.56-4.9,0-.12.02-.23.03-.35.03-.35.08-.68.13-.98.2-1.23,1.37-2.17,2.76-2.21,21.65-.5,43.3-1,64.95-1.5.53-.01,1.06-.03,1.59-.04.57-.01,1.12.12,1.58.4,1.81,1.11,3.87,3.43,5.49,6.39,1.55,2.84,2.34,5.63,2.3,7.61Z"/>
        <g>
          <path class="cls-11" d="m185.15,235.46v.34s-71.39.74-71.39.74c0-.12.02-.23.03-.35l71.36-.74Z"/>
          <path class="cls-11" d="m189.24,240.67v.34s-74.8.78-74.8.78c-.04-.11-.08-.23-.12-.34l74.91-.78Z"/>
          <path class="cls-11" d="m193.32,245.88v.34s-.76,0-.76,0l-74.34.77c-.14-.11-.27-.22-.41-.34l74.76-.78h.74Z"/>
        </g>
        <path class="cls-2" d="m192.1,248.45s-.02,0-.03.01c-.44.19-.96.19-1.53.04-2.06-.55-4.77-3.19-6.78-6.8-2.44-4.38-2.98-8.64-1.32-9.85.09-.07.2-.13.3-.18.57-.25,1.27-.2,2.05.12,1.98.81,4.43,3.3,6.28,6.63,2.58,4.63,3.04,9.12,1.01,10.03Z"/>
      </g>
      <g>
        <path class="cls-3" d="m237.94,263.14c.02.11.03.23.04.34,0,0,0,0,0,0-.04.77-.07,1.53-.11,2.29-37.36,7.32-64.81,12.7-65.03,12.74-.15.03-.29.04-.29.04-.1,0-.19.01-.29.01-1.35,0-4.44-.15-7.43-1.81-.16-.08-.31-.17-.46-.27-.41-.24-.81-.52-1.2-.82-1.32-1.03-2.27-2.21-2.95-3.41-.06-.11-.12-.21-.17-.32-.86-1.64-1.24-3.32-1.38-4.73-.01-.12-.02-.23-.03-.35-.03-.35-.04-.68-.04-.99-.01-1.25.98-2.37,2.35-2.64,21.26-4.14,42.51-8.28,63.77-12.41.52-.1,1.04-.2,1.56-.3.56-.11,1.13-.07,1.63.13,1.97.79,4.39,2.73,6.49,5.37,2.01,2.54,3.26,5.16,3.55,7.12Z"/>
        <g>
          <path class="cls-11" d="m228.86,254.12l.05.34-70.24,12.76c-.01-.12-.02-.23-.03-.35l70.22-12.75Z"/>
          <path class="cls-11" d="m233.77,258.56l.05.34-73.59,13.36c-.06-.11-.12-.21-.17-.32l73.71-13.38Z"/>
          <path class="cls-11" d="m238.67,263.01l.05.34-.74.13-73.15,13.28c-.16-.08-.31-.17-.46-.27l73.56-13.36.73-.13Z"/>
        </g>
        <path class="cls-2" d="m237.9,265.75s-.02.01-.03.01c-.4.26-.91.35-1.5.3-2.12-.2-5.23-2.34-7.83-5.56-3.15-3.91-4.39-8.01-2.96-9.49.08-.08.17-.16.27-.23.52-.35,1.22-.41,2.04-.23,2.09.46,4.92,2.51,7.31,5.48,3.32,4.13,4.53,8.48,2.69,9.72Z"/>
      </g>
      <g>
        <path class="cls-3" d="m241.47,285.49c0,.11,0,.23,0,.34,0,0,0,0,0,0-.14.74-.28,1.49-.42,2.23-34.57.47-59.97.82-60.17.82-.13,0-.27-.01-.27-.01-.09,0-.17-.02-.26-.04-1.22-.24-3.96-.95-6.41-3.11-.13-.11-.25-.22-.37-.34-.33-.31-.65-.65-.96-1.02-1.04-1.25-1.73-2.58-2.17-3.88-.04-.11-.08-.23-.11-.35-.54-1.77-.64-3.49-.57-4.9,0-.12.01-.23.02-.34.03-.35.06-.68.1-.98.17-1.23,1.22-2.16,2.48-2.17,19.66-.24,39.33-.49,58.99-.73.48,0,.96-.01,1.45-.02.51,0,1.02.14,1.44.42,1.66,1.13,3.56,3.47,5.06,6.44,1.45,2.86,2.2,5.65,2.18,7.63Z"/>
        <g>
          <path class="cls-11" d="m234.6,274.99v.34s-64.85-.1-64.85-.1c0-.12.01-.23.02-.34l64.82.1Z"/>
          <path class="cls-11" d="m238.37,280.24v.34s-67.94-.1-67.94-.1c-.04-.11-.08-.23-.11-.35l68.05.11Z"/>
          <path class="cls-11" d="m242.15,285.49v.34s-.68,0-.68,0l-67.53-.1c-.13-.11-.25-.22-.37-.34l67.91.11h.67Z"/>
        </g>
        <path class="cls-2" d="m241.07,288.05s-.02,0-.03.01c-.4.18-.87.18-1.39.02-1.87-.58-4.37-3.24-6.24-6.87-2.27-4.4-2.81-8.66-1.31-9.85.08-.07.18-.13.27-.17.51-.25,1.16-.18,1.86.14,1.81.83,4.06,3.35,5.79,6.69,2.4,4.66,2.87,9.14,1.04,10.03Z"/>
      </g>
      <g>
        <path class="cls-3" d="m207.16,261.97c0,.11,0,.23,0,.34,0,0,0,0,0,0-.14.74-.28,1.49-.42,2.23-34.57.47-59.97.82-60.17.82-.13,0-.27-.01-.27-.01-.09,0-.17-.02-.26-.04-1.22-.24-3.96-.95-6.41-3.11-.13-.11-.25-.22-.37-.34-.33-.31-.65-.65-.96-1.02-1.04-1.25-1.73-2.58-2.17-3.88-.04-.11-.08-.23-.11-.35-.54-1.77-.64-3.49-.57-4.9,0-.12.01-.23.02-.35.03-.35.06-.68.1-.98.17-1.23,1.22-2.16,2.48-2.17,19.66-.24,39.33-.49,58.99-.73.48,0,.96-.01,1.45-.02.51,0,1.02.14,1.44.42,1.66,1.13,3.56,3.47,5.06,6.44,1.45,2.86,2.2,5.65,2.18,7.63Z"/>
        <g>
          <path class="cls-11" d="m200.28,251.47v.34s-64.85-.1-64.85-.1c0-.12.01-.23.02-.35l64.82.1Z"/>
          <path class="cls-11" d="m204.06,256.72v.34s-67.94-.1-67.94-.1c-.04-.11-.08-.23-.11-.35l68.05.11Z"/>
          <path class="cls-11" d="m207.83,261.97v.34s-.68,0-.68,0l-67.53-.1c-.13-.11-.25-.22-.37-.34l67.91.11h.67Z"/>
        </g>
        <path class="cls-2" d="m206.75,264.52s-.02,0-.03,0c-.4.18-.87.18-1.39.02-1.87-.58-4.37-3.24-6.24-6.87-2.27-4.4-2.81-8.66-1.31-9.85.09-.07.18-.13.27-.17.51-.25,1.15-.18,1.86.14,1.81.83,4.06,3.35,5.79,6.69,2.4,4.66,2.87,9.14,1.04,10.03Z"/>
      </g>
      <g>
        <path class="cls-3" d="m243,224.51c0,.11,0,.23,0,.34,0,0,0,0,0,0-.14.74-.28,1.49-.42,2.23-34.57.47-59.97.82-60.17.82-.13,0-.27-.01-.27-.01-.09,0-.17-.02-.26-.04-1.22-.24-3.96-.95-6.41-3.11-.13-.11-.25-.22-.37-.34-.33-.31-.65-.65-.96-1.02-1.04-1.25-1.73-2.58-2.17-3.88-.04-.11-.08-.23-.11-.35-.54-1.77-.64-3.49-.57-4.9,0-.12.01-.23.02-.34.03-.35.06-.68.1-.98.17-1.23,1.22-2.16,2.48-2.17,19.66-.24,39.33-.49,58.99-.73.48,0,.96-.01,1.45-.02.51,0,1.02.14,1.44.42,1.66,1.13,3.56,3.47,5.06,6.44,1.45,2.86,2.2,5.65,2.18,7.63Z"/>
        <g>
          <path class="cls-11" d="m236.13,214.01v.34s-64.85-.1-64.85-.1c0-.12.01-.23.02-.34l64.82.1Z"/>
          <path class="cls-11" d="m239.9,219.26v.34s-67.94-.1-67.94-.1c-.04-.11-.08-.23-.11-.35l68.05.11Z"/>
          <path class="cls-11" d="m243.68,224.51v.34s-.68,0-.68,0l-67.53-.1c-.13-.11-.25-.22-.37-.34l67.91.11h.67Z"/>
        </g>
        <path class="cls-2" d="m242.6,227.07s-.02,0-.03.01c-.4.18-.87.18-1.39.02-1.87-.58-4.37-3.24-6.24-6.87-2.27-4.4-2.81-8.66-1.31-9.85.08-.07.18-.13.27-.17.51-.25,1.15-.18,1.86.14,1.81.83,4.06,3.35,5.79,6.69,2.4,4.66,2.87,9.14,1.04,10.03Z"/>
      </g>
      <g>
        <path class="cls-3" d="m425.51,208.2c.02.11.03.23.04.33,0,0,0,0,0,0-.04.76-.07,1.51-.11,2.27-34.16,5.33-59.25,9.25-59.45,9.28-.13.02-.27.03-.27.03-.09,0-.18,0-.26,0-1.24-.06-4.06-.38-6.78-2.18-.14-.09-.28-.19-.42-.29-.37-.26-.74-.56-1.09-.88-1.21-1.09-2.07-2.31-2.69-3.54-.06-.11-.11-.22-.16-.33-.79-1.68-1.13-3.36-1.25-4.77-.01-.12-.02-.23-.03-.34-.02-.35-.03-.68-.04-.98,0-1.24.9-2.31,2.15-2.5,19.43-3.01,38.87-6.02,58.3-9.02.48-.07.95-.15,1.43-.22.51-.08,1.03,0,1.49.22,1.8.88,4.01,2.93,5.92,5.67,1.83,2.63,2.97,5.29,3.23,7.25Z"/>
        <g>
          <path class="cls-11" d="m417.23,198.78l.05.34-64.21,9.03c-.01-.12-.02-.23-.03-.34l64.19-9.03Z"/>
          <path class="cls-11" d="m421.7,203.44l.05.34-67.27,9.46c-.06-.11-.11-.22-.16-.33l67.39-9.47Z"/>
          <path class="cls-11" d="m426.17,208.11l.05.34-.67.1-66.87,9.4c-.14-.09-.28-.19-.42-.29l67.25-9.45.67-.09Z"/>
        </g>
        <path class="cls-2" d="m425.46,210.79s-.02,0-.02.01c-.37.24-.83.3-1.37.22-1.94-.31-4.78-2.59-7.14-5.92-2.87-4.04-4-8.18-2.69-9.57.07-.08.16-.15.25-.21.47-.32,1.12-.34,1.87-.12,1.91.57,4.49,2.74,6.67,5.81,3.03,4.27,4.12,8.65,2.44,9.78Z"/>
      </g>
      <g>
        <path class="cls-3" d="m358.18,203.57c.02.11.03.23.04.33,0,0,0,0,0,0-.04.76-.07,1.51-.11,2.27-34.16,5.33-59.25,9.25-59.45,9.28-.13.02-.27.03-.27.03-.09,0-.18,0-.26,0-1.24-.06-4.06-.38-6.78-2.18-.14-.09-.28-.19-.42-.29-.37-.26-.74-.55-1.09-.88-1.21-1.09-2.07-2.31-2.69-3.54-.06-.11-.11-.22-.16-.33-.78-1.68-1.13-3.36-1.25-4.77-.01-.12-.02-.23-.03-.34-.02-.35-.03-.68-.04-.98,0-1.24.9-2.31,2.15-2.5,19.43-3.01,38.87-6.02,58.3-9.02.48-.07.95-.15,1.43-.22.51-.08,1.03,0,1.49.22,1.8.88,4.01,2.93,5.92,5.67,1.83,2.63,2.97,5.29,3.23,7.25Z"/>
        <g>
          <path class="cls-11" d="m349.9,194.14l.05.34-64.21,9.03c-.01-.12-.02-.23-.03-.34l64.19-9.03Z"/>
          <path class="cls-11" d="m354.37,198.81l.05.34-67.27,9.46c-.06-.11-.11-.22-.16-.33l67.39-9.47Z"/>
          <path class="cls-11" d="m358.85,203.47l.05.34-.67.1-66.87,9.4c-.14-.09-.28-.19-.42-.29l67.25-9.45.67-.09Z"/>
        </g>
        <path class="cls-2" d="m358.13,206.15s-.02,0-.02.01c-.37.24-.83.3-1.37.22-1.94-.31-4.78-2.59-7.14-5.92-2.87-4.04-4-8.18-2.69-9.57.07-.08.16-.15.25-.21.47-.32,1.12-.34,1.87-.12,1.91.57,4.49,2.74,6.67,5.81,3.03,4.27,4.12,8.65,2.44,9.78Z"/>
      </g>
      <g>
        <path class="cls-3" d="m306.86,193.06c.02.11.03.23.04.33,0,0,0,0,0,0-.04.76-.07,1.51-.11,2.27-34.16,5.33-59.25,9.25-59.45,9.28-.13.02-.27.03-.27.03-.09,0-.18,0-.26,0-1.24-.06-4.06-.38-6.78-2.18-.14-.09-.28-.19-.42-.29-.37-.26-.74-.55-1.09-.88-1.21-1.09-2.07-2.31-2.69-3.54-.06-.11-.11-.22-.16-.33-.79-1.68-1.13-3.36-1.25-4.77-.01-.12-.02-.23-.03-.34-.02-.35-.03-.68-.04-.98,0-1.24.9-2.31,2.15-2.5,19.43-3.01,38.87-6.02,58.3-9.02.48-.07.95-.15,1.43-.22.51-.08,1.03,0,1.49.22,1.8.88,4.01,2.93,5.92,5.67,1.83,2.63,2.97,5.29,3.23,7.25Z"/>
        <g>
          <path class="cls-11" d="m298.58,183.63l.05.34-64.21,9.03c-.01-.12-.02-.23-.03-.34l64.19-9.03Z"/>
          <path class="cls-11" d="m303.06,188.3l.05.34-67.27,9.46c-.06-.11-.11-.22-.16-.33l67.39-9.47Z"/>
          <path class="cls-11" d="m307.53,192.96l.05.34-.67.1-66.87,9.4c-.14-.09-.28-.19-.42-.29l67.25-9.45.67-.09Z"/>
        </g>
        <path class="cls-2" d="m306.82,195.64s-.02,0-.02.01c-.37.24-.83.3-1.37.22-1.94-.31-4.78-2.59-7.14-5.92-2.87-4.04-4-8.18-2.69-9.57.07-.08.16-.15.25-.21.47-.32,1.12-.35,1.87-.12,1.91.57,4.49,2.74,6.67,5.81,3.03,4.27,4.12,8.65,2.44,9.78Z"/>
      </g>
      <g>
        <path class="cls-3" d="m335.13,283.66c-.03.11-.06.22-.09.33,0,0,0,0,0,0-.33.69-.66,1.38-.99,2.07-37.28-7.72-64.67-13.4-64.89-13.44-.14-.03-.28-.07-.28-.07-.09-.03-.18-.06-.27-.1-1.25-.52-4.03-1.86-6.15-4.54-.11-.14-.22-.28-.32-.42-.28-.38-.54-.79-.79-1.22-.82-1.46-1.24-2.91-1.4-4.29-.01-.12-.03-.24-.04-.36-.16-1.85.15-3.54.56-4.9.03-.11.07-.22.11-.33.11-.33.23-.64.34-.93.47-1.15,1.83-1.81,3.18-1.52,21.2,4.42,42.4,8.83,63.6,13.26.52.11,1.04.22,1.56.33.55.11,1.06.37,1.45.75,1.51,1.49,2.99,4.22,3.9,7.46.87,3.12,1.01,6.02.51,7.94Z"/>
        <g>
          <path class="cls-11" d="m330.26,271.82l-.08.33-69.7-15.45c.03-.11.07-.22.11-.33l69.68,15.44Z"/>
          <path class="cls-11" d="m333.06,277.82l-.08.33-73.02-16.18c-.01-.12-.03-.24-.04-.36l73.14,16.21Z"/>
          <path class="cls-11" d="m335.86,283.82l-.08.33-.73-.16-72.58-16.09c-.11-.14-.22-.28-.32-.42l73,16.18.72.16Z"/>
        </g>
        <path class="cls-2" d="m334.08,286.05s-.02,0-.03,0c-.47.08-.98-.03-1.5-.31-1.88-1.01-3.92-4.18-5.06-8.16-1.39-4.82-.95-9.09.95-9.89.11-.05.22-.08.34-.1.61-.12,1.29.09,1.97.58,1.75,1.23,3.56,4.22,4.62,7.88,1.46,5.1.89,9.57-1.28,10Z"/>
      </g>
      <g>
        <path class="cls-3" d="m266.58,260.32c-.04.11-.09.21-.13.31,0,0,0,0,0,0-.39.64-.78,1.27-1.18,1.91-27.81-11.92-48.25-20.67-48.41-20.74-.11-.05-.21-.11-.21-.11-.07-.04-.13-.08-.19-.13-.88-.65-2.81-2.29-3.95-5.17-.06-.15-.12-.3-.17-.45-.15-.41-.27-.84-.38-1.29-.36-1.53-.41-3-.28-4.36.01-.12.03-.24.04-.36.23-1.83.8-3.45,1.39-4.73.05-.11.1-.21.15-.31.15-.31.3-.6.45-.87.59-1.08,1.78-1.56,2.8-1.12,15.81,6.8,31.62,13.6,47.43,20.41.39.17.77.33,1.16.5.41.18.76.49.99.91.9,1.64,1.54,4.48,1.63,7.77.08,3.16-.37,6.01-1.13,7.83Z"/>
        <g>
          <path class="cls-11" d="m265.03,248.16l-.13.32-51.8-23.27c.05-.11.1-.21.15-.31l51.79,23.26Z"/>
          <path class="cls-11" d="m266.07,254.36l-.13.32-54.27-24.37c.01-.12.03-.24.04-.36l54.36,24.42Z"/>
          <path class="cls-11" d="m267.11,260.56l-.13.32-.54-.24-53.94-24.23c-.06-.15-.12-.3-.17-.45l54.25,24.37.54.24Z"/>
        </g>
        <path class="cls-2" d="m265.29,262.54s-.02,0-.02,0c-.39.03-.76-.14-1.12-.48-1.28-1.2-2.27-4.56-2.41-8.58-.16-4.88,1.01-9.01,2.65-9.58.09-.03.19-.05.29-.06.5-.05.99.24,1.44.8,1.13,1.41,1.99,4.55,2.11,8.26.17,5.16-1.15,9.48-2.94,9.64Z"/>
      </g>
      <g>
        <path class="cls-3" d="m292.01,296.23c-.04.11-.08.21-.12.32,0,0,0,0,0,0-.36.66-.72,1.32-1.07,1.97-29.15-10.37-50.56-17.99-50.73-18.05-.11-.04-.22-.09-.22-.09-.07-.03-.14-.07-.21-.12-.94-.61-3.02-2.14-4.37-4.94-.07-.14-.14-.29-.2-.44-.18-.4-.34-.82-.47-1.27-.47-1.51-.62-2.97-.57-4.34,0-.12,0-.24.02-.36.12-1.84.58-3.49,1.1-4.81.04-.11.09-.22.13-.32.13-.32.27-.62.4-.89.53-1.11,1.72-1.66,2.78-1.27,16.57,5.92,33.14,11.85,49.72,17.77.41.14.81.29,1.22.44.43.15.81.45,1.07.85,1.03,1.58,1.87,4.39,2.17,7.67.29,3.15.02,6.03-.63,7.89Z"/>
        <g>
          <path class="cls-11" d="m289.62,284.16l-.11.32-54.36-20.39c.04-.11.09-.22.13-.32l54.34,20.38Z"/>
          <path class="cls-11" d="m291.1,290.3l-.11.32-56.95-21.36c0-.12,0-.24.02-.36l57.05,21.39Z"/>
          <path class="cls-11" d="m292.57,296.44l-.11.32-.57-.21-56.61-21.23c-.07-.14-.14-.29-.2-.44l56.93,21.35.56.21Z"/>
        </g>
        <path class="cls-2" d="m290.84,298.51s-.02,0-.02,0c-.39.05-.79-.1-1.17-.41-1.39-1.13-2.62-4.43-3.02-8.44-.49-4.87.43-9.06,2.07-9.72.09-.04.19-.06.29-.08.51-.07,1.03.19,1.52.72,1.25,1.35,2.33,4.44,2.7,8.14.51,5.15-.54,9.54-2.36,9.8Z"/>
      </g>
      <g>
        <path class="cls-3" d="m327.53,305.08c0,.11,0,.23,0,.34,0,0,0,0,0,0-.1.74-.2,1.48-.3,2.21-28.5-.31-49.44-.54-49.6-.54-.11,0-.22-.02-.22-.02-.07,0-.14-.02-.22-.04-1.01-.26-3.29-1.04-5.36-3.25-.11-.11-.21-.23-.32-.35-.28-.32-.55-.67-.81-1.04-.89-1.27-1.48-2.61-1.88-3.92-.04-.12-.07-.23-.1-.35-.49-1.78-.61-3.49-.58-4.9,0-.12,0-.23,0-.34.01-.35.04-.67.06-.97.11-1.22.96-2.12,1.99-2.11,16.21.2,32.42.4,48.64.6.4,0,.79,0,1.19.02.42,0,.84.16,1.2.45,1.39,1.16,3.01,3.54,4.32,6.54,1.26,2.88,1.94,5.69,1.97,7.66Z"/>
        <g>
          <path class="cls-11" d="m321.62,294.45v.34s-53.48-1.56-53.48-1.56c0-.12,0-.23,0-.34l53.47,1.56Z"/>
          <path class="cls-11" d="m324.85,299.77v.34s-56.03-1.64-56.03-1.64c-.04-.12-.07-.23-.1-.35l56.13,1.64Z"/>
          <path class="cls-11" d="m328.08,305.09v.34s-.56-.02-.56-.02l-55.7-1.63c-.11-.11-.21-.23-.32-.35l56.01,1.64.55.02Z"/>
        </g>
        <path class="cls-2" d="m327.25,307.61s-.01,0-.02,0c-.32.17-.71.16-1.14-.01-1.56-.62-3.67-3.33-5.3-6.99-1.97-4.44-2.51-8.7-1.31-9.85.07-.07.14-.12.22-.17.42-.24.95-.16,1.54.18,1.51.87,3.42,3.43,4.92,6.81,2.08,4.7,2.57,9.18,1.08,10.02Z"/>
      </g>
      <g>
        <path class="cls-3" d="m332.71,320.35c0,.11,0,.23,0,.34,0,0,0,0,0,0-.1.74-.2,1.48-.3,2.21-28.5-.31-49.44-.54-49.6-.54-.11,0-.22-.02-.22-.02-.07,0-.14-.02-.22-.04-1.01-.26-3.29-1.04-5.36-3.24-.11-.11-.21-.23-.32-.35-.28-.32-.55-.67-.81-1.04-.89-1.27-1.48-2.61-1.88-3.92-.04-.12-.07-.23-.1-.35-.49-1.78-.61-3.49-.58-4.9,0-.12,0-.23,0-.34.01-.35.04-.67.06-.97.11-1.22.96-2.12,1.99-2.11,16.21.2,32.42.4,48.64.6.4,0,.79,0,1.19.02.42,0,.84.16,1.2.45,1.39,1.16,3.01,3.54,4.32,6.54,1.26,2.88,1.94,5.68,1.97,7.66Z"/>
        <g>
          <path class="cls-11" d="m326.8,309.72v.34s-53.48-1.56-53.48-1.56c0-.12,0-.23,0-.34l53.47,1.56Z"/>
          <path class="cls-11" d="m330.03,315.04v.34s-56.03-1.64-56.03-1.64c-.04-.12-.07-.23-.1-.35l56.13,1.64Z"/>
          <path class="cls-11" d="m333.26,320.36v.34s-.56-.02-.56-.02l-55.7-1.63c-.11-.11-.21-.23-.32-.35l56.01,1.64.55.02Z"/>
        </g>
        <path class="cls-2" d="m332.43,322.89s-.01,0-.02,0c-.32.17-.71.16-1.14-.01-1.56-.62-3.67-3.33-5.3-6.99-1.97-4.44-2.51-8.7-1.31-9.85.07-.07.14-.12.22-.17.42-.24.95-.16,1.54.18,1.51.87,3.42,3.43,4.92,6.81,2.08,4.7,2.57,9.18,1.08,10.02Z"/>
      </g>
      <g>
        <path class="cls-3" d="m281.59,305.18c0,.11,0,.23-.02.34,0,0,0,0,0,0-.17.75-.33,1.49-.5,2.24-38.06.92-66.03,1.6-66.25,1.61-.15,0-.29,0-.29,0-.1,0-.19-.02-.29-.03-1.34-.22-4.35-.9-7.01-3.03-.14-.11-.27-.22-.41-.34-.36-.31-.71-.65-1.04-1.01-1.13-1.24-1.87-2.56-2.34-3.86-.04-.11-.08-.23-.12-.34-.57-1.77-.66-3.48-.56-4.9,0-.12.02-.23.03-.35.03-.35.08-.68.13-.98.2-1.23,1.37-2.17,2.76-2.21,21.65-.5,43.3-1,64.95-1.5.53-.01,1.06-.03,1.59-.04.57-.01,1.12.12,1.58.4,1.81,1.11,3.87,3.43,5.49,6.39,1.55,2.84,2.34,5.63,2.3,7.61Z"/>
        <g>
          <path class="cls-11" d="m274.16,294.75v.34s-71.39.74-71.39.74c0-.12.02-.23.03-.35l71.36-.74Z"/>
          <path class="cls-11" d="m278.25,299.96v.34s-74.8.78-74.8.78c-.04-.11-.08-.23-.12-.34l74.91-.78Z"/>
          <path class="cls-11" d="m282.33,305.17v.34s-.76,0-.76,0l-74.34.77c-.14-.11-.27-.22-.41-.34l74.76-.78h.74Z"/>
        </g>
        <path class="cls-2" d="m281.11,307.74s-.02,0-.03.01c-.44.19-.96.19-1.53.04-2.06-.55-4.77-3.19-6.78-6.8-2.44-4.38-2.98-8.64-1.32-9.85.09-.07.2-.13.3-.18.57-.25,1.27-.2,2.05.12,1.98.81,4.43,3.3,6.28,6.63,2.58,4.63,3.04,9.12,1.01,10.03Z"/>
      </g>
      <g>
        <path class="cls-3" d="m261.74,327.4c-.03.11-.07.22-.11.32,0,0,0,0,0,0-.37.67-.73,1.34-1.1,2.01-36.83-9.64-63.89-16.72-64.11-16.78-.14-.04-.28-.09-.28-.09-.09-.03-.18-.07-.27-.11-1.22-.58-3.93-2.07-5.9-4.85-.1-.14-.2-.29-.3-.44-.26-.4-.5-.82-.72-1.26-.74-1.5-1.09-2.97-1.18-4.35,0-.12-.02-.24-.02-.36-.06-1.86.33-3.53.81-4.86.04-.11.08-.22.12-.32.13-.33.26-.63.39-.91.53-1.13,1.92-1.71,3.26-1.36,20.95,5.51,41.89,11.01,62.83,16.53.51.13,1.03.27,1.54.41.55.14,1.04.43,1.41.83,1.43,1.57,2.77,4.37,3.51,7.66.71,3.16.7,6.06.1,7.95Z"/>
        <g>
          <path class="cls-11" d="m257.48,315.32l-.1.33-68.81-19.03c.04-.11.08-.22.12-.32l68.79,19.02Z"/>
          <path class="cls-11" d="m259.97,321.46l-.1.33-72.09-19.94c0-.12-.02-.24-.02-.36l72.21,19.97Z"/>
          <path class="cls-11" d="m262.45,327.59l-.1.33-.72-.2-71.65-19.82c-.1-.14-.2-.29-.3-.44l72.06,19.93.71.2Z"/>
        </g>
        <path class="cls-2" d="m260.57,329.73s-.02,0-.03,0c-.48.06-.97-.08-1.48-.39-1.82-1.1-3.7-4.38-4.63-8.41-1.14-4.89-.48-9.13,1.46-9.83.11-.04.22-.07.34-.09.62-.09,1.28.16,1.94.68,1.68,1.32,3.34,4.4,4.2,8.11,1.2,5.17.39,9.61-1.8,9.92Z"/>
      </g>
      <g>
        <path class="cls-3" d="m218.99,317.39c0,.11-.02.23-.04.34,0,0,0,0,0,0-.22.73-.45,1.46-.67,2.19-38.02-2.03-65.95-3.52-66.17-3.53-.15,0-.29-.03-.29-.03-.1-.01-.19-.03-.28-.06-1.31-.33-4.27-1.23-6.76-3.57-.13-.12-.26-.24-.38-.37-.33-.34-.66-.7-.96-1.09-1.03-1.32-1.67-2.69-2.03-4.03-.03-.12-.06-.24-.09-.35-.43-1.81-.39-3.52-.18-4.93.02-.12.04-.23.05-.34.06-.35.13-.67.2-.97.29-1.21,1.53-2.06,2.92-1.99,21.63,1.18,43.25,2.35,64.87,3.54.53.03,1.06.06,1.59.09.57.03,1.11.21,1.55.53,1.72,1.25,3.59,3.72,4.98,6.79,1.33,2.96,1.9,5.8,1.7,7.77Z"/>
        <g>
          <path class="cls-11" d="m212.39,306.42l-.03.34-71.23-4.78c.02-.12.04-.23.05-.34l71.21,4.78Z"/>
          <path class="cls-11" d="m216.06,311.93l-.03.34-74.63-5.01c-.03-.12-.06-.24-.09-.35l74.75,5.02Z"/>
          <path class="cls-11" d="m219.73,317.44l-.03.34-.75-.05-74.18-4.98c-.13-.12-.26-.24-.38-.37l74.6,5.01.74.05Z"/>
        </g>
        <path class="cls-2" d="m218.31,319.91s-.02,0-.03,0c-.45.15-.97.12-1.53-.08-2.01-.71-4.5-3.55-6.23-7.3-2.1-4.56-2.3-8.84-.55-9.92.1-.06.21-.11.32-.15.59-.21,1.29-.1,2.04.28,1.91.96,4.16,3.64,5.75,7.1,2.21,4.82,2.32,9.33.23,10.08Z"/>
      </g>
      <g>
        <path class="cls-3" d="m245.83,204.05c0,.11,0,.23-.02.34,0,0,0,0,0,0-.17.75-.33,1.49-.5,2.24-38.06.92-66.03,1.6-66.25,1.61-.15,0-.29,0-.29,0-.1,0-.19-.02-.29-.03-1.34-.22-4.35-.9-7.01-3.03-.14-.11-.27-.22-.41-.34-.36-.31-.71-.65-1.04-1.01-1.13-1.24-1.87-2.56-2.34-3.86-.04-.11-.08-.23-.12-.34-.57-1.77-.66-3.48-.56-4.9,0-.12.02-.23.03-.35.03-.35.08-.68.13-.98.2-1.23,1.37-2.17,2.76-2.21,21.65-.5,43.3-1,64.95-1.5.53-.01,1.06-.03,1.59-.04.57-.01,1.12.12,1.58.4,1.81,1.11,3.87,3.43,5.49,6.39,1.55,2.84,2.34,5.63,2.3,7.61Z"/>
        <g>
          <path class="cls-11" d="m238.4,193.62v.34s-71.39.74-71.39.74c0-.12.02-.23.03-.35l71.36-.74Z"/>
          <path class="cls-11" d="m242.48,198.83v.34s-74.8.78-74.8.78c-.04-.11-.08-.23-.12-.34l74.91-.78Z"/>
          <path class="cls-11" d="m246.57,204.04v.34s-.76,0-.76,0l-74.34.77c-.14-.11-.27-.22-.41-.34l74.76-.78h.74Z"/>
        </g>
        <path class="cls-2" d="m245.34,206.61s-.02,0-.03.01c-.44.19-.96.19-1.53.04-2.06-.55-4.77-3.19-6.78-6.8-2.44-4.38-2.98-8.64-1.32-9.85.09-.07.2-.13.3-.18.57-.25,1.27-.2,2.05.12,1.98.81,4.43,3.3,6.28,6.63,2.58,4.63,3.04,9.12,1.01,10.03Z"/>
      </g>
      <g>
        <path class="cls-3" d="m217.95,173.17c.08.07.15.14.22.21,0,0,0,0,0,0,.41.54.82,1.07,1.23,1.6-19.47,21.08-33.77,36.56-33.88,36.69-.08.08-.16.15-.16.15-.06.05-.11.09-.17.13-.85.59-2.9,1.81-5.73,1.97-.15,0-.29.02-.44.02-.4,0-.8,0-1.23-.04-1.42-.13-2.69-.52-3.81-1.04-.1-.05-.2-.09-.29-.14-1.48-.75-2.67-1.72-3.57-2.62-.07-.07-.15-.15-.22-.22-.22-.23-.41-.45-.59-.65-.72-.84-.73-2.04-.02-2.8,11.09-11.97,22.18-23.95,33.27-35.92.27-.29.54-.59.82-.88.29-.31.67-.53,1.1-.61,1.7-.32,4.33-.04,7.16.85,2.72.86,5,2.1,6.3,3.3Z"/>
        <g>
          <path class="cls-11" d="m207.07,170.95l.23.21-37.17,38.94c-.07-.07-.15-.15-.22-.22l37.16-38.93Z"/>
          <path class="cls-11" d="m212.7,171.86l.23.21-38.94,40.8c-.1-.05-.2-.09-.29-.14l39.01-40.87Z"/>
          <path class="cls-11" d="m218.34,172.76l.23.21-.39.41-38.71,40.55c-.15,0-.29.02-.44.02l38.93-40.78.39-.4Z"/>
        </g>
        <path class="cls-2" d="m219.41,174.96s0,.01,0,.02c-.11.35-.38.63-.78.85-1.46.78-4.64.67-8.12-.4-4.22-1.3-7.34-3.55-7.27-5.17,0-.09.02-.18.04-.27.13-.46.54-.81,1.16-1.04,1.58-.59,4.54-.42,7.74.57,4.46,1.37,7.69,3.81,7.23,5.44Z"/>
      </g>
      <g>
        <path class="cls-3" d="m170.82,199.22c.05.1.09.21.13.31,0,0,0,0,0,0,.2.72.4,1.44.6,2.15-26.58,11.2-46.1,19.43-46.26,19.5-.1.04-.21.07-.21.07-.07.02-.14.04-.22.05-1.04.16-3.46.37-6.25-.82-.14-.06-.29-.13-.43-.2-.39-.18-.78-.39-1.17-.63-1.33-.81-2.41-1.8-3.29-2.84-.08-.09-.16-.19-.23-.28-1.15-1.44-1.94-2.96-2.47-4.27-.04-.11-.09-.22-.13-.32-.12-.32-.23-.63-.33-.92-.38-1.16.05-2.33,1.02-2.74,15.13-6.35,30.26-12.7,45.39-19.05.37-.16.74-.31,1.11-.47.4-.17.85-.19,1.29-.07,1.75.51,4.2,2.04,6.6,4.26,2.31,2.14,4.05,4.44,4.85,6.24Z"/>
        <g>
          <path class="cls-11" d="m161.14,191.84l.14.31-50.26,20.12c-.04-.11-.09-.22-.13-.32l50.25-20.12Z"/>
          <path class="cls-11" d="m166.24,195.43l.14.31-52.66,21.08c-.08-.09-.16-.19-.23-.28l52.75-21.12Z"/>
          <path class="cls-11" d="m171.34,199.01l.14.31-.53.21-52.34,20.95c-.14-.06-.29-.13-.43-.2l52.64-21.07.52-.21Z"/>
        </g>
        <path class="cls-2" d="m171.57,201.66s-.01.01-.02.02c-.23.29-.6.44-1.07.45-1.69.06-4.73-1.58-7.68-4.28-3.59-3.29-5.77-6.98-5.11-8.52.04-.09.08-.17.14-.24.29-.38.82-.53,1.5-.45,1.75.19,4.54,1.77,7.26,4.27,3.79,3.47,6.02,7.4,4.97,8.77Z"/>
      </g>
      <g>
        <path class="cls-3" d="m183.98,225.19c.03.11.05.22.07.33,0,0,0,0,0,0,.05.75.09,1.49.14,2.23-28.46,5.61-49.38,9.73-49.54,9.76-.11.02-.22.03-.22.03-.07,0-.15,0-.22,0-1.06-.05-3.48-.33-5.98-2.07-.13-.09-.26-.18-.38-.28-.34-.25-.68-.54-1.02-.85-1.14-1.06-2-2.25-2.65-3.45-.06-.11-.12-.21-.17-.32-.84-1.64-1.3-3.29-1.55-4.68-.02-.11-.04-.23-.06-.34-.06-.34-.1-.67-.13-.97-.13-1.22.53-2.28,1.57-2.48,16.2-3.17,32.39-6.33,48.59-9.5.4-.08.79-.16,1.19-.23.42-.08.87-.02,1.29.2,1.62.85,3.71,2.84,5.61,5.51,1.83,2.57,3.07,5.17,3.49,7.1Z"/>
        <g>
          <path class="cls-11" d="m175.98,216.01l.07.34-53.61,9.56c-.02-.11-.04-.23-.06-.34l53.6-9.56Z"/>
          <path class="cls-11" d="m180.26,220.55l.07.34-56.17,10.02c-.06-.11-.12-.21-.17-.32l56.26-10.03Z"/>
          <path class="cls-11" d="m184.54,225.09l.07.34-.56.1-55.83,9.96c-.13-.09-.26-.18-.38-.28l56.15-10.01.56-.1Z"/>
        </g>
        <path class="cls-2" d="m184.21,227.74s-.01,0-.02.01c-.29.24-.68.31-1.14.23-1.68-.28-4.33-2.5-6.67-5.75-2.85-3.95-4.24-8.01-3.27-9.39.05-.08.12-.15.19-.21.37-.32.91-.35,1.57-.14,1.68.54,4.1,2.65,6.26,5.65,3.01,4.17,4.39,8.47,3.08,9.6Z"/>
      </g>
      <g>
        <path class="cls-3" d="m415.26,244.04c0,.11,0,.23-.02.34,0,0,0,0,0,0-.17.75-.33,1.49-.5,2.24-38.06.92-66.03,1.6-66.25,1.61-.15,0-.29,0-.29,0-.1,0-.19-.02-.29-.03-1.34-.22-4.35-.9-7.01-3.03-.14-.11-.27-.22-.41-.34-.36-.31-.71-.65-1.04-1.01-1.13-1.24-1.87-2.56-2.34-3.86-.04-.11-.08-.23-.12-.34-.57-1.77-.66-3.48-.56-4.9,0-.12.02-.23.03-.35.03-.35.08-.68.13-.98.2-1.23,1.37-2.17,2.76-2.21,21.65-.5,43.3-1,64.95-1.5.53-.01,1.06-.03,1.59-.04.57-.01,1.12.12,1.58.4,1.81,1.11,3.87,3.43,5.49,6.39,1.55,2.84,2.34,5.63,2.3,7.61Z"/>
        <g>
          <path class="cls-11" d="m407.83,233.62v.34s-71.39.74-71.39.74c0-.12.02-.23.03-.35l71.36-.74Z"/>
          <path class="cls-11" d="m411.91,238.83v.34s-74.8.78-74.8.78c-.04-.11-.08-.23-.12-.34l74.91-.78Z"/>
          <path class="cls-11" d="m416,244.03v.34s-.76,0-.76,0l-74.34.77c-.14-.11-.27-.22-.41-.34l74.76-.78h.74Z"/>
        </g>
        <path class="cls-2" d="m414.77,246.61s-.02,0-.03.01c-.44.19-.96.19-1.53.04-2.06-.55-4.77-3.19-6.78-6.8-2.44-4.38-2.98-8.64-1.32-9.85.09-.07.2-.13.3-.18.57-.25,1.27-.2,2.05.12,1.98.81,4.43,3.3,6.28,6.63,2.58,4.63,3.04,9.12,1.01,10.03Z"/>
      </g>
      <g>
        <path class="cls-3" d="m416.72,262.77c0,.11,0,.23-.01.34,0,0,0,0,0,0-.17.75-.33,1.49-.5,2.24-38.06.92-66.03,1.6-66.25,1.61-.15,0-.29,0-.29,0-.1,0-.19-.02-.29-.03-1.34-.22-4.35-.9-7.01-3.03-.14-.11-.27-.22-.41-.34-.36-.31-.71-.65-1.04-1.01-1.13-1.24-1.87-2.56-2.34-3.86-.04-.11-.08-.23-.12-.34-.57-1.77-.66-3.48-.56-4.9,0-.12.02-.23.03-.35.03-.35.08-.68.13-.98.2-1.23,1.37-2.17,2.76-2.21,21.65-.5,43.3-1,64.95-1.5.53-.01,1.06-.03,1.59-.04.57-.01,1.12.12,1.58.4,1.81,1.11,3.87,3.43,5.49,6.39,1.55,2.84,2.34,5.63,2.3,7.61Z"/>
        <g>
          <path class="cls-11" d="m409.29,252.34v.34s-71.39.74-71.39.74c0-.12.02-.23.03-.35l71.36-.74Z"/>
          <path class="cls-11" d="m413.38,257.55v.34s-74.8.78-74.8.78c-.04-.11-.08-.23-.12-.34l74.91-.78Z"/>
          <path class="cls-11" d="m417.46,262.76v.34s-.76,0-.76,0l-74.34.77c-.14-.11-.27-.22-.41-.34l74.76-.78h.74Z"/>
        </g>
        <path class="cls-2" d="m416.24,265.33s-.02,0-.03.01c-.44.19-.96.19-1.53.04-2.06-.55-4.77-3.19-6.78-6.8-2.44-4.38-2.98-8.64-1.32-9.85.09-.07.2-.13.31-.18.57-.25,1.27-.2,2.05.12,1.98.81,4.43,3.3,6.28,6.63,2.58,4.63,3.04,9.12,1.01,10.03Z"/>
      </g>
      <g>
        <path class="cls-3" d="m451.91,246.81c0,.11,0,.23,0,.34,0,0,0,0,0,0-.13.74-.25,1.48-.38,2.22-32.3.18-56.03.31-56.22.31-.13,0-.25-.01-.25-.01-.08,0-.16-.02-.24-.04-1.14-.25-3.71-.98-6.01-3.16-.12-.11-.24-.23-.35-.35-.31-.31-.61-.66-.9-1.03-.98-1.26-1.64-2.59-2.06-3.89-.04-.11-.07-.23-.11-.35-.52-1.77-.63-3.49-.57-4.9,0-.12.01-.23.02-.34.02-.35.05-.68.09-.98.14-1.22,1.12-2.14,2.3-2.15,18.37-.08,36.74-.16,55.12-.23.45,0,.9,0,1.35,0,.48,0,.95.14,1.35.43,1.56,1.14,3.35,3.5,4.79,6.48,1.38,2.87,2.1,5.66,2.1,7.64Z"/>
        <g>
          <path class="cls-11" d="m445.4,236.26v.34s-60.59-.65-60.59-.65c0-.12.01-.23.02-.34l60.58.65Z"/>
          <path class="cls-11" d="m448.97,241.54v.34s-63.48-.68-63.48-.68c-.04-.11-.07-.23-.11-.35l63.59.68Z"/>
          <path class="cls-11" d="m452.54,246.81v.34s-.64,0-.64,0l-63.1-.67c-.12-.11-.24-.23-.35-.35l63.46.68h.63Z"/>
        </g>
        <path class="cls-2" d="m451.55,249.36s-.02,0-.02,0c-.37.18-.81.18-1.3,0-1.76-.59-4.11-3.27-5.89-6.91-2.16-4.42-2.7-8.67-1.31-9.85.08-.07.16-.12.26-.17.48-.24,1.08-.17,1.74.16,1.7.84,3.82,3.38,5.46,6.74,2.28,4.67,2.75,9.16,1.06,10.02Z"/>
      </g>
      <g>
        <path class="cls-3" d="m362.42,302.57c-.01.11-.02.23-.03.33,0,0,0,0,0,0,.04.74.07,1.48.1,2.22,26.93,1.48,46.72,2.57,46.88,2.58.1,0,.21,0,.21,0,.07,0,.14-.02.21-.03.97-.2,3.19-.83,5.32-2.9.11-.11.22-.22.33-.33.29-.3.57-.63.85-.99.94-1.21,1.61-2.5,2.09-3.78.04-.11.08-.23.12-.34.6-1.74.85-3.44.94-4.84,0-.12.01-.23.02-.34.02-.35.02-.67.02-.97,0-1.22-.73-2.17-1.71-2.22-15.32-.82-30.64-1.64-45.97-2.45-.38-.02-.75-.04-1.13-.06-.4-.02-.81.11-1.17.38-1.41,1.07-3.13,3.34-4.61,6.24-1.42,2.79-2.29,5.54-2.47,7.5Z"/>
        <g>
          <path class="cls-11" d="m368.85,292.36l-.03.34,50.62,1.8c0-.12.01-.23.02-.34l-50.61-1.8Z"/>
          <path class="cls-11" d="m365.37,297.46l-.03.34,53.03,1.89c.04-.11.08-.23.12-.34l-53.12-1.89Z"/>
          <path class="cls-11" d="m361.89,302.55l-.03.34.53.02,52.72,1.87c.11-.11.22-.22.33-.33l-53.02-1.88-.52-.02Z"/>
        </g>
        <path class="cls-2" d="m362.48,305.12s.01,0,.02.01c.29.19.66.21,1.08.06,1.52-.52,3.74-3.08,5.57-6.63,2.22-4.3,3.07-8.5,2.03-9.73-.06-.07-.13-.13-.2-.18-.38-.26-.88-.22-1.47.09-1.5.77-3.51,3.2-5.2,6.47-2.35,4.55-3.16,8.98-1.83,9.91Z"/>
      </g>
      <g>
        <path class="cls-3" d="m296.54,223.9c-.06.1-.11.2-.16.3,0,0,0,0,0,0-.26.7-.52,1.39-.78,2.08,24.14,12.03,41.88,20.86,42.02,20.93.09.05.19.08.19.08.07.02.13.04.2.06.97.2,3.25.5,6.03-.55.14-.05.29-.11.43-.17.38-.16.78-.35,1.17-.57,1.34-.74,2.47-1.66,3.41-2.65.08-.09.17-.18.25-.26,1.24-1.36,2.15-2.82,2.78-4.07.05-.1.1-.21.15-.31.15-.31.29-.61.4-.89.48-1.12.19-2.28-.69-2.72-13.75-6.82-27.49-13.64-41.24-20.46-.34-.17-.67-.33-1.01-.5-.36-.18-.78-.22-1.22-.12-1.72.42-4.19,1.82-6.7,3.91-2.41,2-4.3,4.18-5.24,5.91Z"/>
        <g>
          <path class="cls-11" d="m306.49,217.08l-.17.3,45.77,21.7c.05-.1.1-.21.15-.31l-45.75-21.69Z"/>
          <path class="cls-11" d="m301.28,220.38l-.17.3,47.95,22.74c.08-.09.17-.18.25-.26l-48.03-22.77Z"/>
          <path class="cls-11" d="m296.07,223.68l-.17.3.48.23,47.66,22.6c.14-.05.29-.11.43-.17l-47.93-22.73-.47-.23Z"/>
        </g>
        <path class="cls-2" d="m295.59,226.26s0,.01.01.02c.19.29.52.45.97.48,1.6.13,4.65-1.35,7.73-3.88,3.74-3.07,6.19-6.59,5.71-8.13-.03-.09-.06-.17-.11-.24-.24-.39-.72-.55-1.38-.5-1.68.11-4.49,1.55-7.33,3.88-3.95,3.25-6.46,7-5.6,8.38Z"/>
      </g>
      <g>
        <path class="cls-3" d="m279.47,239.07c-.06.1-.11.2-.16.3,0,0,0,0,0,0-.26.7-.52,1.39-.78,2.08,24.14,12.03,41.88,20.86,42.02,20.93.09.05.19.08.19.08.07.02.13.04.2.06.97.2,3.25.5,6.03-.55.14-.05.29-.11.43-.17.38-.16.78-.35,1.17-.57,1.34-.74,2.47-1.66,3.41-2.65.08-.09.17-.18.25-.26,1.24-1.36,2.15-2.82,2.78-4.07.05-.1.1-.21.15-.31.15-.31.29-.61.4-.89.48-1.12.19-2.28-.69-2.72-13.75-6.82-27.49-13.64-41.24-20.46-.34-.17-.67-.33-1.01-.5-.36-.18-.78-.22-1.22-.12-1.72.42-4.19,1.82-6.7,3.91-2.41,2-4.29,4.18-5.24,5.91Z"/>
        <g>
          <path class="cls-11" d="m289.41,232.24l-.17.3,45.77,21.7c.05-.1.1-.21.15-.31l-45.75-21.69Z"/>
          <path class="cls-11" d="m284.2,235.55l-.17.3,47.95,22.74c.08-.09.17-.18.25-.26l-48.03-22.77Z"/>
          <path class="cls-11" d="m278.99,238.85l-.17.3.48.23,47.66,22.6c.14-.05.29-.11.43-.17l-47.93-22.73-.47-.23Z"/>
        </g>
        <path class="cls-2" d="m278.51,241.43s0,.01.01.02c.19.29.52.45.97.48,1.6.13,4.65-1.35,7.73-3.88,3.74-3.07,6.19-6.59,5.71-8.13-.03-.09-.06-.17-.11-.24-.24-.39-.72-.55-1.38-.5-1.68.11-4.49,1.55-7.33,3.88-3.95,3.25-6.46,7-5.6,8.38Z"/>
      </g>
      <g>
        <path class="cls-3" d="m285.35,167.03c-.04.07-.07.15-.11.22,0,0,0,0,0,0-.16.52-.32,1.03-.48,1.55,21.09,11.26,36.58,19.53,36.71,19.6.08.04.17.08.17.08.06.02.11.04.17.06.83.23,2.75.65,4.98.06.12-.03.23-.06.34-.1.31-.09.62-.21.93-.34,1.06-.46,1.92-1.08,2.63-1.77.06-.06.12-.12.18-.18.92-.95,1.56-2.01,1.99-2.92.04-.08.07-.15.1-.23.1-.23.19-.45.26-.65.31-.83-.03-1.75-.8-2.16-12.01-6.39-24.01-12.78-36.02-19.16-.29-.16-.59-.31-.88-.47-.31-.17-.67-.24-1.03-.19-1.4.19-3.35,1.07-5.27,2.48-1.84,1.35-3.24,2.89-3.89,4.14Z"/>
        <g>
          <path class="cls-11" d="m293.08,162.56l-.11.22,39.89,20.5c.04-.08.07-.15.1-.23l-39.88-20.49Z"/>
          <path class="cls-11" d="m289.01,164.69l-.11.22,41.79,21.47c.06-.06.12-.12.18-.18l-41.86-21.51Z"/>
          <path class="cls-11" d="m284.93,166.82l-.11.22.42.22,41.54,21.34c.12-.03.23-.06.34-.1l-41.78-21.46-.41-.21Z"/>
        </g>
        <path class="cls-2" d="m284.74,168.78s0,0,.01.01c.18.24.47.39.85.45,1.35.23,3.77-.67,6.13-2.37,2.87-2.07,4.62-4.6,4.1-5.83-.03-.07-.07-.14-.11-.2-.23-.32-.65-.48-1.19-.5-1.39-.05-3.62.84-5.79,2.41-3.03,2.19-4.82,4.89-3.99,6.02Z"/>
      </g>
      <g>
        <path class="cls-3" d="m255.16,197.24c-.06.1-.11.2-.16.3,0,0,0,0,0,0-.26.7-.52,1.39-.78,2.08,24.14,12.03,41.88,20.86,42.02,20.93.09.05.19.08.19.08.07.02.13.04.2.06.97.2,3.25.5,6.03-.55.14-.05.29-.11.43-.17.38-.16.78-.35,1.17-.57,1.34-.74,2.47-1.66,3.41-2.65.08-.09.17-.18.25-.26,1.24-1.36,2.15-2.82,2.78-4.07.05-.1.1-.21.15-.31.15-.31.29-.61.4-.89.48-1.12.19-2.28-.69-2.72-13.75-6.82-27.49-13.64-41.24-20.46-.34-.17-.67-.33-1.01-.5-.36-.18-.78-.22-1.22-.12-1.72.42-4.19,1.82-6.7,3.91-2.41,2-4.29,4.18-5.24,5.91Z"/>
        <g>
          <path class="cls-11" d="m265.1,190.42l-.17.3,45.77,21.7c.05-.1.1-.21.15-.31l-45.75-21.69Z"/>
          <path class="cls-11" d="m259.89,193.72l-.17.3,47.95,22.74c.08-.09.17-.18.25-.26l-48.03-22.77Z"/>
          <path class="cls-11" d="m254.68,197.02l-.17.3.48.23,47.66,22.6c.14-.05.29-.11.43-.17l-47.93-22.73-.47-.23Z"/>
        </g>
        <path class="cls-2" d="m254.2,199.61s0,.01.01.02c.19.29.52.45.97.48,1.6.13,4.65-1.35,7.73-3.88,3.74-3.07,6.19-6.59,5.71-8.13-.03-.09-.06-.17-.11-.24-.24-.39-.72-.55-1.38-.5-1.68.11-4.49,1.55-7.33,3.88-3.95,3.25-6.46,7-5.6,8.38Z"/>
      </g>
      <g>
        <path class="cls-3" d="m311.27,291.95c-.06.1-.11.2-.16.3,0,0,0,0,0,0-.26.7-.52,1.39-.78,2.08,24.14,12.03,41.88,20.86,42.02,20.93.09.05.19.08.19.08.07.02.13.04.2.06.97.2,3.25.5,6.03-.55.14-.05.29-.11.43-.17.38-.16.78-.35,1.17-.57,1.34-.74,2.47-1.66,3.41-2.65.08-.09.17-.18.25-.26,1.24-1.36,2.15-2.82,2.78-4.07.05-.1.1-.21.15-.31.15-.31.29-.61.4-.89.48-1.12.19-2.28-.69-2.72-13.75-6.82-27.49-13.64-41.24-20.46-.34-.17-.67-.33-1.01-.5-.36-.18-.79-.22-1.22-.12-1.72.42-4.19,1.82-6.7,3.91-2.41,2-4.29,4.18-5.24,5.91Z"/>
        <g>
          <path class="cls-11" d="m321.22,285.12l-.17.3,45.77,21.7c.05-.1.1-.21.15-.31l-45.75-21.69Z"/>
          <path class="cls-11" d="m316,288.42l-.17.3,47.95,22.74c.08-.09.17-.18.25-.26l-48.03-22.77Z"/>
          <path class="cls-11" d="m310.79,291.72l-.17.3.48.23,47.66,22.6c.14-.05.29-.11.43-.17l-47.93-22.73-.47-.23Z"/>
        </g>
        <path class="cls-2" d="m310.31,294.31s0,.01.01.02c.19.29.52.45.97.48,1.6.13,4.65-1.35,7.73-3.88,3.74-3.07,6.19-6.59,5.71-8.13-.03-.09-.06-.17-.11-.24-.24-.39-.72-.55-1.38-.5-1.68.11-4.49,1.55-7.33,3.88-3.95,3.25-6.46,7-5.6,8.38Z"/>
      </g>
      <g>
        <path class="cls-3" d="m341.43,324.73c.03.11.06.22.09.32,0,0,0,0,0,0,.29.69.57,1.37.86,2.06,25.83-7.78,44.8-13.5,44.95-13.55.1-.03.2-.07.2-.07.06-.03.12-.06.19-.1.85-.52,2.72-1.86,4.01-4.53.07-.14.13-.28.19-.42.17-.38.33-.79.46-1.22.47-1.46.66-2.9.67-4.27,0-.12,0-.24,0-.36-.03-1.84-.37-3.52-.76-4.87-.03-.11-.07-.22-.1-.33-.1-.33-.21-.64-.31-.92-.42-1.15-1.43-1.79-2.37-1.51-14.68,4.45-29.37,8.9-44.05,13.36-.36.11-.72.22-1.08.33-.38.12-.73.37-.97.75-.96,1.49-1.81,4.2-2.2,7.44-.38,3.11-.26,5.99.23,7.89Z"/>
        <g>
          <path class="cls-11" d="m344,312.94l.08.33,48.2-15.55c-.03-.11-.07-.22-.1-.33l-48.19,15.55Z"/>
          <path class="cls-11" d="m342.47,318.91l.08.33,50.5-16.3c0-.12,0-.24,0-.36l-50.59,16.32Z"/>
          <path class="cls-11" d="m340.93,324.89l.08.33.51-.16,50.2-16.2c.07-.14.13-.28.19-.42l-50.49,16.29-.5.16Z"/>
        </g>
        <path class="cls-2" d="m342.36,327.1s.01,0,.02,0c.34.08.69-.03,1.04-.31,1.25-1.01,2.46-4.17,2.97-8.13.62-4.8,0-9.04-1.41-9.84-.08-.05-.16-.08-.25-.1-.44-.12-.9.1-1.35.58-1.14,1.23-2.21,4.21-2.68,7.85-.66,5.07.09,9.52,1.66,9.94Z"/>
      </g>
      <g>
        <path class="cls-3" d="m409.21,317.17c.03.11.06.22.09.32,0,0,0,0,0,0,.29.69.57,1.37.86,2.06,25.83-7.78,44.8-13.5,44.95-13.55.1-.03.2-.07.2-.07.06-.03.12-.06.19-.1.85-.52,2.72-1.86,4.01-4.53.07-.14.13-.28.19-.42.17-.38.33-.79.46-1.22.47-1.46.66-2.9.67-4.27,0-.12,0-.24,0-.36-.03-1.84-.37-3.52-.76-4.87-.03-.11-.07-.22-.1-.33-.1-.33-.21-.64-.31-.92-.42-1.15-1.43-1.79-2.37-1.51-14.68,4.45-29.37,8.9-44.05,13.36-.36.11-.72.22-1.08.33-.38.12-.73.37-.97.75-.96,1.49-1.81,4.2-2.2,7.44-.38,3.11-.26,5.99.23,7.89Z"/>
        <g>
          <path class="cls-11" d="m411.78,305.38l.08.33,48.2-15.55c-.03-.11-.07-.22-.1-.33l-48.19,15.55Z"/>
          <path class="cls-11" d="m410.25,311.36l.08.33,50.5-16.3c0-.12,0-.24,0-.36l-50.59,16.32Z"/>
          <path class="cls-11" d="m408.71,317.33l.08.33.51-.16,50.2-16.2c.07-.14.13-.28.19-.42l-50.49,16.29-.5.16Z"/>
        </g>
        <path class="cls-2" d="m410.14,319.54s.01,0,.02,0c.34.08.69-.03,1.04-.31,1.25-1.01,2.46-4.17,2.97-8.13.62-4.8,0-9.04-1.41-9.84-.08-.05-.16-.08-.25-.1-.44-.12-.9.1-1.35.58-1.14,1.23-2.21,4.21-2.68,7.85-.66,5.07.09,9.52,1.66,9.94Z"/>
      </g>
      <g>
        <path class="cls-3" d="m326.88,277.44c-.06.1-.11.2-.16.3,0,0,0,0,0,0-.26.7-.52,1.39-.78,2.08,24.14,12.03,41.88,20.86,42.02,20.93.09.05.19.08.19.08.07.02.13.04.2.06.97.2,3.25.5,6.03-.55.14-.05.29-.11.43-.17.38-.16.78-.35,1.17-.57,1.34-.74,2.47-1.66,3.41-2.65.08-.09.17-.18.25-.26,1.24-1.36,2.15-2.82,2.78-4.07.05-.1.1-.21.15-.31.15-.31.29-.61.4-.89.48-1.12.19-2.28-.69-2.72-13.75-6.82-27.49-13.64-41.24-20.46-.34-.17-.67-.33-1.01-.5-.36-.18-.78-.22-1.22-.12-1.72.42-4.19,1.82-6.7,3.91-2.41,2-4.29,4.18-5.24,5.91Z"/>
        <g>
          <path class="cls-11" d="m336.83,270.61l-.17.3,45.77,21.7c.05-.1.1-.21.15-.31l-45.75-21.69Z"/>
          <path class="cls-11" d="m331.62,273.92l-.17.3,47.95,22.74c.08-.09.17-.18.25-.26l-48.03-22.77Z"/>
          <path class="cls-11" d="m326.41,277.22l-.17.3.48.23,47.66,22.6c.14-.05.29-.11.43-.17l-47.93-22.73-.47-.23Z"/>
        </g>
        <path class="cls-2" d="m325.93,279.8s0,.01.01.02c.19.29.52.45.97.48,1.6.13,4.65-1.35,7.73-3.88,3.74-3.07,6.19-6.59,5.71-8.13-.03-.09-.06-.17-.11-.24-.24-.39-.72-.55-1.38-.5-1.68.11-4.49,1.55-7.33,3.88-3.95,3.25-6.46,7-5.6,8.38Z"/>
      </g>
      <g>
        <path class="cls-3" d="m424.79,230.01c-.03.11-.06.22-.09.33,0,0,0,0,0,0-.33.69-.65,1.38-.98,2.07-37.33-7.5-64.75-13.02-64.97-13.06-.15-.03-.28-.07-.28-.07-.09-.03-.18-.06-.27-.1-1.25-.51-4.04-1.84-6.17-4.51-.11-.14-.22-.28-.32-.42-.28-.38-.55-.79-.79-1.22-.83-1.46-1.26-2.91-1.43-4.28-.02-.12-.03-.24-.04-.36-.17-1.85.12-3.54.53-4.9.03-.11.07-.22.1-.33.11-.33.22-.65.34-.93.47-1.16,1.82-1.82,3.18-1.54,21.23,4.29,42.45,8.59,63.68,12.88.52.1,1.04.21,1.56.32.56.11,1.07.37,1.45.74,1.52,1.48,3.02,4.2,3.94,7.44.89,3.12,1.04,6.01.56,7.93Z"/>
        <g>
          <path class="cls-11" d="m419.84,218.2l-.08.34-69.79-15.04c.03-.11.07-.22.1-.33l69.77,15.03Z"/>
          <path class="cls-11" d="m422.68,224.19l-.08.34-73.12-15.75c-.02-.12-.03-.24-.04-.36l73.24,15.78Z"/>
          <path class="cls-11" d="m425.51,230.17l-.08.34-.73-.16-72.68-15.66c-.11-.14-.22-.28-.32-.42l73.09,15.75.72.16Z"/>
        </g>
        <path class="cls-2" d="m423.75,232.41s-.02,0-.03,0c-.47.09-.98-.02-1.5-.3-1.88-.99-3.94-4.16-5.11-8.13-1.42-4.81-1-9.08.89-9.9.11-.05.22-.08.34-.11.61-.12,1.29.09,1.97.57,1.75,1.22,3.59,4.2,4.66,7.85,1.49,5.09.95,9.57-1.23,10.01Z"/>
      </g>
      <g>
        <path class="cls-3" d="m393.66,236.76c-.03.11-.06.22-.09.33,0,0,0,0,0,0-.33.69-.65,1.38-.98,2.07-37.33-7.5-64.75-13.02-64.97-13.06-.15-.03-.28-.07-.28-.07-.09-.03-.18-.06-.27-.1-1.25-.51-4.04-1.84-6.17-4.51-.11-.14-.22-.28-.32-.42-.28-.38-.55-.79-.79-1.22-.83-1.46-1.26-2.91-1.43-4.28-.02-.12-.03-.24-.04-.36-.17-1.85.12-3.54.53-4.9.03-.11.07-.22.1-.33.11-.33.22-.65.34-.93.47-1.16,1.82-1.82,3.18-1.54,21.23,4.29,42.45,8.59,63.68,12.88.52.1,1.04.21,1.56.32.56.11,1.07.37,1.45.74,1.52,1.48,3.02,4.2,3.94,7.44.89,3.12,1.04,6.01.56,7.93Z"/>
        <g>
          <path class="cls-11" d="m388.72,224.95l-.08.34-69.79-15.04c.03-.11.07-.22.1-.33l69.77,15.03Z"/>
          <path class="cls-11" d="m391.55,230.94l-.08.34-73.12-15.75c-.02-.12-.03-.24-.04-.36l73.24,15.78Z"/>
          <path class="cls-11" d="m394.39,236.92l-.08.33-.73-.16-72.68-15.66c-.11-.14-.22-.28-.32-.42l73.09,15.75.72.16Z"/>
        </g>
        <path class="cls-2" d="m392.62,239.16s-.02,0-.03,0c-.47.09-.98-.02-1.5-.3-1.88-.99-3.94-4.16-5.11-8.13-1.42-4.81-1-9.08.89-9.9.11-.05.22-.08.34-.11.61-.12,1.29.09,1.97.57,1.75,1.22,3.59,4.2,4.66,7.85,1.49,5.09.95,9.57-1.23,10.01Z"/>
      </g>
      <g>
        <path class="cls-3" d="m446.8,292.16c0,.08-.01.17-.03.25,0,0,0,0,0,0-.19.56-.38,1.12-.57,1.67-37.93,1.96-65.8,3.39-66.02,3.4-.15,0-.29,0-.29,0-.1,0-.19,0-.29-.02-1.32-.12-4.3-.52-6.88-2.01-.13-.08-.27-.15-.39-.24-.35-.22-.68-.45-1-.71-1.08-.88-1.78-1.83-2.2-2.78-.04-.08-.07-.17-.11-.25-.51-1.29-.54-2.56-.4-3.61.01-.09.03-.17.04-.26.04-.26.1-.51.16-.73.24-.92,1.44-1.66,2.82-1.72,21.57-1.09,43.15-2.19,64.72-3.28.53-.03,1.06-.05,1.59-.08.56-.03,1.11.05,1.56.25,1.77.76,3.74,2.41,5.25,4.54,1.45,2.05,2.15,4.09,2.03,5.56Z"/>
        <g>
          <path class="cls-11" d="m439.75,284.69l-.02.26-71.1,2.94c.01-.09.03-.17.04-.26l71.08-2.94Z"/>
          <path class="cls-11" d="m443.65,288.41l-.02.26-74.49,3.08c-.04-.08-.07-.17-.11-.25l74.62-3.08Z"/>
          <path class="cls-11" d="m447.54,292.12l-.02.26-.75.03-74.05,3.06c-.13-.08-.27-.15-.39-.24l74.47-3.08.74-.03Z"/>
        </g>
        <path class="cls-2" d="m446.23,294.07s-.02,0-.03,0c-.44.15-.96.18-1.52.08-2.03-.34-4.64-2.2-6.52-4.8-2.29-3.16-2.68-6.29-.98-7.25.1-.05.2-.1.31-.14.57-.21,1.28-.19,2.04.02,1.95.53,4.3,2.3,6.03,4.7,2.41,3.34,2.72,6.65.67,7.39Z"/>
      </g>
      <g>
        <path class="cls-3" d="m440.03,268.17c0,.08,0,.17-.01.25,0,0,0,0,0,0-.12.55-.23,1.1-.35,1.65-27.35.59-47.43,1.03-47.59,1.03-.11,0-.21,0-.21,0-.07,0-.14-.01-.21-.03-.96-.17-3.13-.67-5.05-2.25-.1-.08-.2-.16-.29-.25-.26-.23-.51-.48-.75-.75-.82-.91-1.35-1.88-1.69-2.84-.03-.08-.06-.17-.09-.25-.42-1.3-.48-2.56-.41-3.6,0-.09.01-.17.02-.25.02-.26.05-.5.09-.72.14-.91.98-1.6,1.98-1.62,15.55-.32,31.11-.64,46.66-.96.38,0,.76-.02,1.14-.02.41,0,.81.09,1.14.3,1.3.82,2.79,2.53,3.96,4.71,1.12,2.1,1.7,4.15,1.67,5.6Z"/>
        <g>
          <path class="cls-11" d="m434.67,260.48v.25s-51.29.39-51.29.39c0-.09.01-.17.02-.25l51.27-.39Z"/>
          <path class="cls-11" d="m437.61,264.32v.25s-53.74.41-53.74.41c-.03-.08-.06-.17-.09-.25l53.82-.41Z"/>
          <path class="cls-11" d="m440.56,268.16v.25s-.54,0-.54,0l-53.41.4c-.1-.08-.2-.16-.29-.25l53.71-.4h.53Z"/>
        </g>
        <path class="cls-2" d="m439.69,270.05s-.01,0-.02,0c-.32.14-.69.14-1.1.03-1.48-.41-3.43-2.35-4.88-5.01-1.76-3.23-2.16-6.36-.97-7.25.07-.05.14-.09.22-.13.41-.19.91-.14,1.47.09,1.43.6,3.19,2.44,4.53,4.89,1.86,3.41,2.2,6.72.75,7.38Z"/>
      </g>
      <g>
        <path class="cls-3" d="m464.78,259.03c0,.08,0,.17-.01.25,0,0,0,0,0,0-.12.55-.23,1.1-.35,1.65-27.35.59-47.43,1.03-47.59,1.03-.11,0-.21,0-.21,0-.07,0-.14-.01-.21-.03-.96-.17-3.13-.67-5.05-2.25-.1-.08-.2-.16-.29-.25-.26-.23-.51-.48-.75-.75-.82-.91-1.35-1.88-1.69-2.84-.03-.08-.06-.17-.09-.25-.42-1.3-.48-2.56-.41-3.6,0-.09.01-.17.02-.25.02-.26.05-.5.09-.72.14-.91.98-1.6,1.98-1.62,15.55-.32,31.11-.64,46.66-.96.38,0,.76-.02,1.14-.02.41,0,.81.09,1.14.3,1.3.82,2.79,2.53,3.96,4.71,1.12,2.1,1.7,4.15,1.67,5.6Z"/>
        <g>
          <path class="cls-11" d="m459.42,251.34v.25s-51.29.39-51.29.39c0-.09.01-.17.02-.25l51.27-.39Z"/>
          <path class="cls-11" d="m462.37,255.18v.25s-53.74.41-53.74.41c-.03-.08-.06-.17-.09-.25l53.82-.41Z"/>
          <path class="cls-11" d="m465.31,259.02v.25s-.54,0-.54,0l-53.41.4c-.1-.08-.2-.16-.29-.25l53.71-.4h.53Z"/>
        </g>
        <path class="cls-2" d="m464.44,260.91s-.01,0-.02,0c-.32.14-.69.14-1.1.03-1.48-.41-3.43-2.35-4.88-5.01-1.77-3.23-2.16-6.36-.97-7.25.07-.05.14-.09.22-.13.41-.19.91-.14,1.47.09,1.42.6,3.19,2.44,4.53,4.89,1.86,3.41,2.2,6.72.75,7.38Z"/>
      </g>
      <g>
        <path class="cls-3" d="m445.13,288.81c-.03.08-.07.15-.11.22,0,0,0,0,0,0-.33.46-.65.91-.98,1.37-25.28-10.43-43.86-18.1-44.01-18.16-.1-.04-.19-.09-.19-.09-.06-.03-.12-.07-.18-.11-.81-.54-2.59-1.87-3.72-4.08-.06-.11-.12-.23-.17-.35-.15-.31-.28-.64-.39-.99-.38-1.16-.48-2.27-.4-3.28,0-.09.01-.18.02-.27.14-1.36.59-2.54,1.07-3.47.04-.08.08-.15.12-.23.12-.23.25-.44.37-.63.49-.77,1.54-1.07,2.46-.69,14.37,5.95,28.75,11.9,43.12,17.86.35.15.7.29,1.06.44.38.16.7.41.92.73.87,1.27,1.54,3.44,1.73,5.9.19,2.37-.11,4.48-.72,5.8Z"/>
        <g>
          <path class="cls-11" d="m443.3,279.62l-.11.23-47.13-20.23c.04-.08.08-.15.12-.23l47.11,20.23Z"/>
          <path class="cls-11" d="m444.46,284.32l-.11.23-49.38-21.2c0-.09.01-.18.02-.27l49.46,21.23Z"/>
          <path class="cls-11" d="m445.62,289.02l-.11.23-.5-.21-49.08-21.07c-.06-.11-.12-.23-.17-.35l49.36,21.19.49.21Z"/>
        </g>
        <path class="cls-2" d="m444.06,290.4s-.01,0-.02,0c-.34,0-.69-.15-1.02-.42-1.19-.97-2.2-3.53-2.46-6.55-.32-3.67.57-6.69,2.02-7.03.08-.02.17-.03.25-.03.45,0,.9.24,1.31.67,1.07,1.12,1.94,3.51,2.19,6.3.34,3.87-.68,7.03-2.27,7.06Z"/>
      </g>
      <g>
        <path class="cls-3" d="m427.01,293.21c-.03.08-.07.15-.11.22,0,0,0,0,0,0-.33.46-.65.91-.98,1.37-25.28-10.43-43.86-18.1-44.01-18.16-.1-.04-.19-.09-.19-.09-.06-.03-.12-.07-.18-.11-.81-.54-2.59-1.87-3.72-4.08-.06-.11-.12-.23-.17-.35-.15-.31-.28-.64-.39-.99-.38-1.16-.48-2.27-.4-3.28,0-.09.01-.18.02-.27.14-1.36.59-2.54,1.07-3.47.04-.08.08-.15.12-.23.12-.23.25-.44.37-.63.49-.77,1.54-1.07,2.46-.69,14.37,5.95,28.75,11.9,43.12,17.86.35.15.7.29,1.06.44.38.16.7.41.92.73.87,1.27,1.54,3.44,1.73,5.9.19,2.37-.11,4.48-.72,5.8Z"/>
        <g>
          <path class="cls-11" d="m425.19,284.02l-.11.23-47.13-20.23c.04-.08.08-.15.12-.23l47.11,20.23Z"/>
          <path class="cls-11" d="m426.35,288.72l-.11.23-49.38-21.2c0-.09.01-.18.02-.27l49.46,21.23Z"/>
          <path class="cls-11" d="m427.5,293.42l-.11.23-.5-.21-49.08-21.07c-.06-.11-.12-.23-.17-.35l49.36,21.19.49.21Z"/>
        </g>
        <path class="cls-2" d="m425.94,294.8s-.01,0-.02,0c-.34,0-.69-.15-1.02-.42-1.19-.97-2.2-3.53-2.46-6.55-.32-3.67.57-6.69,2.02-7.03.08-.02.17-.03.25-.03.45,0,.9.24,1.31.67,1.07,1.12,1.94,3.51,2.19,6.3.34,3.87-.68,7.03-2.27,7.06Z"/>
      </g>
      <g>
        <path class="cls-3" d="m399.82,290.77c-.03.08-.07.15-.11.22,0,0,0,0,0,0-.33.46-.65.91-.98,1.37-25.28-10.43-43.86-18.1-44.01-18.16-.1-.04-.19-.09-.19-.09-.06-.03-.12-.07-.18-.11-.81-.54-2.59-1.87-3.72-4.08-.06-.11-.12-.23-.17-.35-.15-.31-.28-.64-.39-.99-.38-1.16-.48-2.27-.4-3.28,0-.09.01-.18.02-.27.14-1.36.59-2.54,1.07-3.47.04-.08.08-.15.12-.23.12-.23.25-.44.37-.63.49-.77,1.54-1.07,2.46-.69,14.37,5.95,28.75,11.9,43.12,17.86.35.15.7.29,1.06.44.38.16.7.41.92.73.87,1.27,1.54,3.44,1.73,5.9.19,2.37-.11,4.48-.72,5.8Z"/>
        <g>
          <path class="cls-11" d="m397.99,281.58l-.11.23-47.13-20.23c.04-.08.08-.15.12-.23l47.11,20.23Z"/>
          <path class="cls-11" d="m399.15,286.28l-.11.23-49.38-21.2c0-.09.01-.18.02-.27l49.46,21.23Z"/>
          <path class="cls-11" d="m400.31,290.98l-.11.23-.5-.21-49.08-21.07c-.06-.11-.12-.23-.17-.35l49.36,21.19.49.21Z"/>
        </g>
        <path class="cls-2" d="m398.75,292.36s-.01,0-.02,0c-.34,0-.69-.15-1.02-.42-1.19-.97-2.2-3.53-2.46-6.55-.32-3.67.57-6.69,2.02-7.03.08-.02.17-.03.25-.03.45,0,.9.24,1.31.67,1.07,1.12,1.94,3.51,2.19,6.3.34,3.87-.68,7.03-2.27,7.06Z"/>
      </g>
      <g>
        <path class="cls-3" d="m278.7,249.03s-.09.08-.13.12c-.07.07-.16.14-.24.21-.77.67-2.08,1.7-3.81,2.64-.1.05-.2.1-.3.16-.01,0-.02.01-.03.02-1.89.98-3.86.82-4.93-.35l-31.12-34.13c-.81-.88-1-2.23-.52-3.65.13-.38.29-.79.48-1.21.05-.1.1-.21.15-.32.58-1.2,1.45-2.53,2.73-3.81.08-.08.15-.15.23-.23.09-.09.18-.17.27-.26,1.19-1.09,2.41-1.85,3.54-2.39.1-.05.21-.1.31-.14.84-.37,1.62-.62,2.31-.79,1.46-.35,2.79-.03,3.6.85l31.11,34.13c1.08,1.18,1.04,3.17-.12,4.97-.12.19-.25.39-.39.59-.06.09-.12.18-.19.27-.75,1.05-1.72,2.2-2.95,3.32Z"/>
        <g>
          <path class="cls-11" d="m281.65,245.71l-36.62-39.89c.1-.05.21-.1.31-.14l36.5,39.76c-.06.09-.12.18-.19.27Z"/>
          <path class="cls-11" d="m278.57,249.15c-.07.07-.16.14-.24.21l-37.34-40.67c.08-.08.15-.15.23-.23l37.35,40.68Z"/>
          <path class="cls-11" d="m274.51,252.01c-.1.05-.2.1-.3.16l-36.11-39.33c.05-.1.1-.21.15-.32l36.26,39.5Z"/>
        </g>
      </g>
      <g>
        <path class="cls-3" d="m167.01,256.27c-.02.05-.04.11-.06.17-.03.09-.07.2-.11.3-.36.95-1.01,2.49-2.09,4.14-.06.09-.12.19-.18.28,0,0-.01.02-.02.03-1.2,1.76-3,2.56-4.5,2.04l-43.63-15.16c-1.13-.39-1.94-1.49-2.2-2.96-.07-.39-.12-.83-.16-1.3,0-.11-.02-.23-.02-.35-.06-1.33.06-2.91.58-4.66.03-.1.06-.21.1-.31.04-.12.08-.24.12-.36.53-1.53,1.23-2.78,1.97-3.79.07-.09.14-.18.2-.27.56-.73,1.13-1.32,1.65-1.79,1.11-1,2.43-1.36,3.57-.97l43.63,15.16c1.51.53,2.42,2.29,2.27,4.43-.02.23-.04.46-.06.7-.01.11-.02.22-.04.33-.16,1.29-.46,2.75-1.01,4.32Z"/>
        <g>
          <path class="cls-11" d="m168.02,251.95l-51.21-17.59c.07-.09.14-.18.2-.27l51.05,17.53c-.01.11-.02.22-.04.33Z"/>
          <path class="cls-11" d="m166.95,256.44c-.03.09-.07.2-.11.3l-52.21-17.93c.03-.1.06-.21.1-.31l52.23,17.94Z"/>
          <path class="cls-11" d="m164.75,260.89c-.06.09-.12.19-.18.28l-50.5-17.35c0-.11-.02-.23-.02-.35l50.71,17.42Z"/>
        </g>
      </g>
      <g>
        <path class="cls-3" d="m145.85,284.93c-.02.05-.04.11-.06.17-.03.09-.07.2-.11.3-.36.95-1.01,2.49-2.09,4.14-.06.09-.12.19-.18.28,0,0-.01.02-.02.03-1.2,1.76-3,2.56-4.5,2.04l-43.63-15.16c-1.13-.39-1.94-1.49-2.2-2.96-.07-.39-.12-.83-.16-1.3,0-.11-.02-.23-.02-.35-.06-1.33.06-2.91.58-4.66.03-.1.06-.21.1-.31.04-.12.08-.24.12-.36.53-1.53,1.23-2.78,1.97-3.79.07-.09.14-.18.2-.27.56-.73,1.13-1.32,1.65-1.79,1.11-1,2.43-1.36,3.57-.97l43.63,15.16c1.51.53,2.42,2.29,2.27,4.43-.02.23-.04.46-.06.7-.01.11-.02.22-.04.33-.16,1.29-.46,2.75-1.01,4.32Z"/>
        <g>
          <path class="cls-11" d="m146.86,280.61l-51.21-17.59c.07-.09.14-.18.2-.27l51.05,17.53c-.01.11-.02.22-.04.33Z"/>
          <path class="cls-11" d="m145.79,285.1c-.03.09-.07.2-.11.3l-52.21-17.93c.03-.1.06-.21.1-.31l52.23,17.94Z"/>
          <path class="cls-11" d="m143.59,289.55c-.06.09-.12.19-.18.28l-50.5-17.35c0-.11-.02-.23-.02-.35l50.71,17.42Z"/>
        </g>
      </g>
      <g>
        <path class="cls-3" d="m114.62,294.55c-.02.05-.04.11-.06.17-.03.09-.07.2-.11.3-.36.95-1.01,2.49-2.09,4.14-.06.09-.12.19-.18.28,0,0-.01.02-.02.03-1.2,1.76-3,2.56-4.5,2.04l-43.63-15.16c-1.13-.39-1.94-1.49-2.2-2.96-.07-.39-.12-.83-.16-1.3,0-.11-.02-.23-.02-.35-.06-1.33.06-2.91.58-4.66.03-.1.06-.21.1-.31.04-.12.08-.24.12-.36.53-1.53,1.23-2.78,1.97-3.79.07-.09.14-.18.2-.27.56-.73,1.13-1.32,1.65-1.79,1.11-1,2.43-1.36,3.57-.97l43.63,15.16c1.51.53,2.42,2.29,2.27,4.43-.02.23-.04.46-.06.7-.01.11-.02.22-.04.33-.16,1.29-.46,2.75-1.01,4.32Z"/>
        <g>
          <path class="cls-11" d="m115.63,290.23l-51.21-17.59c.07-.09.14-.18.2-.27l51.05,17.53c-.01.11-.02.22-.04.33Z"/>
          <path class="cls-11" d="m114.56,294.72c-.03.09-.07.2-.11.3l-52.21-17.93c.03-.1.06-.21.1-.31l52.23,17.94Z"/>
          <path class="cls-11" d="m112.36,299.17c-.06.09-.12.19-.18.28l-50.5-17.35c0-.11-.02-.23-.02-.35l50.71,17.42Z"/>
        </g>
      </g>
      <g>
        <path class="cls-3" d="m309.56,177.6c.01.06.02.11.04.18.02.1.04.2.06.32.19,1,.44,2.65.38,4.62,0,.11,0,.22-.01.33,0,.01,0,.02,0,.03-.1,2.13-1.22,3.75-2.77,4.09l-45.12,9.86c-1.17.26-2.43-.25-3.42-1.38-.26-.3-.54-.64-.81-1.02-.07-.09-.13-.19-.2-.29-.74-1.1-1.46-2.52-1.93-4.28-.03-.1-.06-.21-.08-.32-.03-.12-.06-.24-.09-.37-.35-1.58-.4-3.01-.3-4.26,0-.11.02-.23.03-.34.1-.91.27-1.72.47-2.39.43-1.44,1.37-2.43,2.54-2.69l45.12-9.86c1.57-.34,3.26.69,4.25,2.6.1.2.21.41.31.63.05.1.09.2.14.3.54,1.18,1.04,2.59,1.39,4.21Z"/>
        <g>
          <path class="cls-11" d="m308.17,173.39l-52.86,11.74c0-.11.02-.23.03-.34l52.69-11.7c.05.1.09.2.14.3Z"/>
          <path class="cls-11" d="m309.6,177.78c.02.1.04.2.06.32l-53.89,11.97c-.03-.1-.06-.21-.08-.32l53.91-11.98Z"/>
          <path class="cls-11" d="m310.05,182.72c0,.11,0,.22-.01.33l-52.13,11.58c-.07-.09-.13-.19-.2-.29l52.34-11.63Z"/>
        </g>
      </g>
      <g>
        <path class="cls-3" d="m264.85,169.49c.01.06.02.11.04.18.02.1.04.2.06.32.19,1,.44,2.65.38,4.62,0,.11,0,.22-.01.33,0,.01,0,.02,0,.03-.1,2.13-1.22,3.75-2.77,4.09l-45.12,9.86c-1.17.26-2.43-.25-3.42-1.38-.26-.3-.54-.64-.81-1.02-.07-.09-.13-.19-.2-.29-.74-1.1-1.46-2.52-1.93-4.28-.03-.1-.06-.21-.08-.32-.03-.12-.06-.24-.09-.37-.35-1.58-.4-3.01-.3-4.26,0-.11.02-.23.03-.34.1-.91.27-1.72.47-2.39.43-1.44,1.37-2.43,2.54-2.69l45.12-9.86c1.57-.34,3.26.69,4.25,2.6.1.2.21.41.31.63.05.1.09.2.14.3.54,1.18,1.04,2.59,1.39,4.21Z"/>
        <g>
          <path class="cls-11" d="m263.46,165.28l-52.86,11.74c0-.11.02-.23.03-.34l52.69-11.7c.05.1.09.2.14.3Z"/>
          <path class="cls-11" d="m264.89,169.67c.02.1.04.2.06.32l-53.89,11.97c-.03-.1-.06-.21-.08-.32l53.91-11.98Z"/>
          <path class="cls-11" d="m265.33,174.61c0,.11,0,.22-.01.33l-52.13,11.58c-.07-.09-.13-.19-.2-.29l52.34-11.63Z"/>
        </g>
      </g>
      <g>
        <path class="cls-3" d="m373.43,184.98c.01.06.02.11.04.18.02.1.04.2.06.32.19,1,.44,2.65.38,4.62,0,.11,0,.22-.01.33,0,.01,0,.02,0,.03-.1,2.13-1.22,3.75-2.77,4.09l-45.12,9.86c-1.17.26-2.43-.25-3.42-1.38-.26-.3-.54-.64-.81-1.02-.07-.09-.13-.19-.2-.29-.74-1.1-1.46-2.52-1.93-4.28-.03-.1-.06-.21-.08-.32-.03-.12-.06-.24-.09-.37-.34-1.58-.4-3.01-.3-4.26,0-.11.02-.23.03-.34.1-.91.27-1.72.47-2.39.43-1.44,1.37-2.43,2.54-2.69l45.12-9.86c1.57-.34,3.26.69,4.25,2.6.1.2.21.41.31.63.05.1.09.2.14.3.54,1.18,1.04,2.59,1.39,4.21Z"/>
        <g>
          <path class="cls-11" d="m372.03,180.77l-52.86,11.74c0-.11.02-.23.03-.34l52.69-11.7c.05.1.09.2.14.3Z"/>
          <path class="cls-11" d="m373.47,185.16c.02.1.04.2.06.32l-53.89,11.97c-.03-.1-.06-.21-.08-.32l53.91-11.98Z"/>
          <path class="cls-11" d="m373.91,190.1c0,.11,0,.22-.01.33l-52.13,11.58c-.07-.09-.13-.19-.2-.29l52.34-11.63Z"/>
        </g>
      </g>
      <g>
        <path class="cls-3" d="m363.57,179.59c.01.06.02.11.04.18.02.1.04.2.06.32.19,1,.44,2.65.38,4.62,0,.11,0,.22-.01.33,0,.01,0,.02,0,.03-.1,2.13-1.22,3.75-2.77,4.09l-45.12,9.86c-1.17.26-2.43-.25-3.42-1.38-.26-.3-.54-.64-.81-1.02-.07-.09-.13-.19-.2-.29-.74-1.1-1.46-2.52-1.93-4.28-.03-.1-.06-.21-.08-.32-.03-.12-.06-.24-.09-.37-.35-1.58-.4-3.01-.3-4.26,0-.11.02-.23.03-.34.1-.91.27-1.72.47-2.39.43-1.44,1.37-2.43,2.54-2.69l45.12-9.86c1.57-.34,3.26.69,4.25,2.6.1.2.21.41.31.63.05.1.09.2.14.3.54,1.18,1.04,2.59,1.39,4.21Z"/>
        <g>
          <path class="cls-11" d="m362.18,175.38l-52.86,11.74c0-.11.02-.23.03-.34l52.69-11.7c.05.1.09.2.14.3Z"/>
          <path class="cls-11" d="m363.61,179.77c.02.1.04.2.06.32l-53.89,11.97c-.03-.1-.06-.21-.08-.32l53.91-11.98Z"/>
          <path class="cls-11" d="m364.06,184.71c0,.11,0,.22-.01.33l-52.13,11.58c-.07-.09-.13-.19-.2-.29l52.34-11.63Z"/>
        </g>
      </g>
      <g>
        <path class="cls-3" d="m409.28,186.3c.01.06.02.11.04.18.02.1.04.2.06.32.19,1,.44,2.65.38,4.62,0,.11,0,.22-.01.33,0,.01,0,.02,0,.03-.1,2.13-1.22,3.75-2.77,4.09l-45.12,9.86c-1.17.26-2.43-.25-3.42-1.38-.26-.3-.54-.64-.81-1.02-.07-.09-.13-.19-.2-.29-.74-1.1-1.46-2.52-1.93-4.28-.03-.1-.06-.21-.08-.32-.03-.12-.06-.24-.09-.37-.35-1.58-.4-3.01-.3-4.26,0-.11.02-.23.03-.34.1-.91.27-1.72.47-2.39.43-1.44,1.37-2.43,2.54-2.69l45.12-9.86c1.57-.34,3.26.69,4.25,2.6.1.2.21.41.31.63.05.1.09.2.14.3.54,1.18,1.04,2.59,1.39,4.21Z"/>
        <g>
          <path class="cls-11" d="m407.89,182.09l-52.86,11.74c0-.11.02-.23.03-.34l52.69-11.7c.05.1.09.2.14.3Z"/>
          <path class="cls-11" d="m409.32,186.48c.02.1.04.2.06.32l-53.89,11.97c-.03-.1-.06-.21-.08-.32l53.91-11.98Z"/>
          <path class="cls-11" d="m409.77,191.42c0,.11,0,.22-.01.33l-52.13,11.58c-.07-.09-.13-.19-.2-.29l52.34-11.63Z"/>
        </g>
      </g>
      <g>
        <path class="cls-3" d="m119.07,221.87s.07.09.11.15c.06.08.12.17.19.26.59.83,1.49,2.23,2.26,4.05.04.1.09.21.13.31,0,.01,0,.02.01.03.79,1.98.44,3.92-.83,4.87l-36.99,27.66c-.96.72-2.32.78-3.68.16-.36-.16-.75-.36-1.16-.6-.1-.06-.2-.12-.3-.18-1.13-.69-2.37-1.68-3.53-3.09-.07-.08-.14-.17-.2-.25-.08-.1-.15-.2-.23-.3-.97-1.29-1.61-2.58-2.03-3.75-.04-.11-.08-.21-.11-.32-.29-.87-.46-1.68-.56-2.37-.21-1.49.24-2.78,1.2-3.5l36.99-27.65c1.28-.96,3.26-.72,4.94.6.18.14.36.29.55.45.08.07.17.14.25.22.98.85,2.02,1.92,3.01,3.26Z"/>
        <g>
          <path class="cls-11" d="m116.06,218.61l-43.25,32.58c-.04-.11-.08-.21-.11-.32l43.11-32.47c.08.07.17.14.25.22Z"/>
          <path class="cls-11" d="m119.18,222.02c.06.08.12.17.19.26l-44.1,33.21c-.07-.08-.14-.17-.2-.25l44.11-33.22Z"/>
          <path class="cls-11" d="m121.63,226.33c.04.1.09.21.13.31l-42.65,32.13c-.1-.06-.2-.12-.3-.18l42.83-32.25Z"/>
        </g>
      </g>
    </g>
  </g>
</svg>