<?xml version="1.0" encoding="UTF-8"?>
<svg id="_Layer_" data-name="&amp;lt;Layer&amp;gt;" xmlns="http://www.w3.org/2000/svg" viewBox="0 0 540 540">
  <defs>
    <style>
      .cls-1 {
        fill: #d1b343;
      }

      .cls-1, .cls-2 {
        opacity: .5;
      }

      .cls-3 {
        fill: #a3530c;
      }

      .cls-3, .cls-4 {
        isolation: isolate;
        opacity: .68;
      }

      .cls-5 {
        fill: #efe079;
        opacity: .25;
      }

      .cls-6 {
        fill: #dbbc45;
      }

      .cls-7 {
        fill: #e5c449;
      }

      .cls-4 {
        fill: #cc9225;
      }
    </style>
  </defs>
  <g>
    <path class="cls-6" d="m182.23,210.08c-.04-52.05,50.21-64.37,94.78-73.6,26.4-5.46,57.48-21.42,91.62-31.1,63.09-17.88,107.11,23.37,116.05,63.46,13.01,58.3-38.53,125.96-124.86,134.14-92.99,8.81-177.55-39.34-177.59-92.9Z"/>
    <path class="cls-1" d="m336.63,258.06c72.05-6.83,124.65-46.89,146.68-94.44.52,1.74.98,3.48,1.36,5.21,13.01,58.3-38.53,125.96-124.86,134.14-80.31,7.61-154.33-27.27-173.04-71.43,40.39,20.57,93.9,31.82,149.85,26.51Z"/>
    <path class="cls-5" d="m397.39,133.35c-4.3-9.89-53.6,2.87-92.29,12.87-40.21,10.4-73.93,19.12-73.33,27.79.7,10.16,48.7,21.78,93.17,10.02,41.49-10.98,76.48-41.4,72.44-50.67Z"/>
    <g class="cls-2">
      <path class="cls-4" d="m341.46,154.74c2.03-2.31,1.81-5.83-.5-7.86s-5.83-1.81-7.86.5-1.81,5.83.5,7.86,5.83,1.81,7.86-.5Z"/>
      <path class="cls-4" d="m420.89,129.86c2.03-2.31,1.81-5.83-.5-7.86-2.31-2.03-5.83-1.81-7.86.5-2.03,2.31-1.81,5.83.5,7.86s5.83,1.81,7.86-.5Z"/>
      <path class="cls-3" d="m290.69,260.91c2.31,2.03,5.83,1.81,7.86-.5,2.03-2.31,1.81-5.83-.5-7.86s-5.83-1.81-7.86.5c-2.03,2.31-1.81,5.83.5,7.86Z"/>
      <path class="cls-3" d="m347.52,262.52c2.31,2.03,5.83,1.81,7.86-.5s1.81-5.83-.5-7.86-5.83-1.81-7.86.5c-2.03,2.31-1.81,5.83.5,7.86Z"/>
      <path class="cls-3" d="m420.14,237.95c2.31,2.03,5.83,1.81,7.86-.5,2.03-2.31,1.81-5.83-.5-7.86-2.31-2.03-5.83-1.81-7.86.5-2.03,2.31-1.81,5.83.5,7.86Z"/>
      <path class="cls-4" d="m372.53,193.23c2.31,2.03,5.83,1.81,7.86-.5,2.03-2.31,1.81-5.83-.5-7.86-2.31-2.03-5.83-1.81-7.86.5-2.03,2.31-1.8,5.84.5,7.86Z"/>
      <path class="cls-3" d="m446.56,166.9c2.31,2.03,5.83,1.81,7.86-.5,2.03-2.31,1.81-5.83-.5-7.86-2.31-2.03-5.83-1.81-7.86.5-2.03,2.31-1.81,5.83.5,7.86Z"/>
      <path class="cls-4" d="m231.94,243.72c2.31,2.03,5.83,1.81,7.86-.5,2.03-2.31,1.81-5.83-.5-7.86-2.31-2.03-5.83-1.81-7.86.5-2.03,2.31-1.81,5.83.5,7.86Z"/>
      <path class="cls-4" d="m220.06,191.31c2.31,2.03,5.83,1.81,7.86-.5,2.03-2.31,1.81-5.83-.5-7.86-2.31-2.03-5.83-1.81-7.86.5-2.03,2.31-1.81,5.83.5,7.86Z"/>
      <path class="cls-4" d="m277.85,191.57c2.31,2.03,5.83,1.81,7.86-.5,2.03-2.31,1.81-5.83-.5-7.86-2.31-2.03-5.83-1.81-7.86.5-2.03,2.31-1.81,5.83.5,7.86Z"/>
    </g>
  </g>
  <g>
    <path class="cls-7" d="m189.46,434.85c-98.85-17.27-152.15-100-131.86-166.07,13.95-45.43,68.47-89.02,139.63-62.67,38.5,14.26,72.91,35.5,102.87,44.19,50.57,14.68,107.41,33.46,102.65,93.5-4.9,61.78-106.82,109.66-213.29,91.05Z"/>
    <path class="cls-1" d="m220.28,385.14c-82.5-14.42-139.54-65.41-160.64-122.26-.76,1.96-1.44,3.92-2.05,5.89-20.3,66.07,33.01,148.8,131.86,166.07,91.95,16.07,180.5-17.45,206.1-66.69-48.46,20.06-111.2,28.18-175.27,16.98Z"/>
    <path class="cls-5" d="m161.51,235.76c5.86-11.01,61.58,8.17,105.29,23.23,45.44,15.65,83.54,28.77,82.06,38.71-1.73,11.66-58.16,20.7-108.39,3.1-46.86-16.43-84.47-54.7-78.97-65.03Z"/>
    <g class="cls-2">
      <path class="cls-4" d="m233.12,266.8c2.85-2.14,3.43-6.18,1.29-9.03s-6.18-3.43-9.03-1.29c-2.85,2.14-3.43,6.18-1.29,9.03,2.14,2.85,6.18,3.43,9.03,1.29Z"/>
      <path class="cls-4" d="m143.74,230.88c2.85-2.14,3.43-6.18,1.29-9.03-2.14-2.85-6.18-3.43-9.03-1.29s-3.43,6.18-1.29,9.03c2.14,2.85,6.18,3.43,9.03,1.29Z"/>
      <path class="cls-3" d="m274.31,383.56c-2.14-2.85-6.18-3.43-9.03-1.29s-3.43,6.18-1.29,9.03c2.14,2.85,6.18,3.43,9.03,1.29s3.43-6.18,1.29-9.03Z"/>
      <path class="cls-3" d="m208.6,380.26c-2.14-2.85-6.18-3.43-9.03-1.29-2.85,2.14-3.43,6.18-1.29,9.03,2.14,2.85,6.18,3.43,9.03,1.29,2.85-2.14,3.43-6.18,1.29-9.03Z"/>
      <path class="cls-3" d="m127.07,345.33c-2.14-2.85-6.18-3.43-9.03-1.29-2.85,2.14-3.43,6.18-1.29,9.03,2.14,2.85,6.18,3.43,9.03,1.29,2.85-2.14,3.43-6.18,1.29-9.03Z"/>
      <path class="cls-4" d="m186.05,298.07c-2.14-2.85-6.18-3.43-9.03-1.29-2.85,2.14-3.43,6.18-1.29,9.03s6.18,3.43,9.03,1.29c2.84-2.13,3.43-6.18,1.29-9.03Z"/>
      <path class="cls-3" d="m103.04,260.97c-2.14-2.85-6.18-3.43-9.03-1.29-2.85,2.14-3.43,6.18-1.29,9.03,2.14,2.85,6.18,3.43,9.03,1.29,2.85-2.14,3.43-6.18,1.29-9.03Z"/>
      <path class="cls-4" d="m343.64,369.07c-2.14-2.85-6.18-3.43-9.03-1.29-2.85,2.14-3.43,6.18-1.29,9.03,2.14,2.85,6.18,3.43,9.03,1.29,2.85-2.14,3.43-6.18,1.29-9.03Z"/>
      <path class="cls-4" d="m362.1,309.69c-2.14-2.85-6.18-3.43-9.03-1.29-2.85,2.14-3.43,6.18-1.29,9.03,2.14,2.85,6.18,3.43,9.03,1.29,2.85-2.14,3.43-6.18,1.29-9.03Z"/>
      <path class="cls-4" d="m295.42,304.74c-2.14-2.85-6.18-3.43-9.03-1.29s-3.43,6.18-1.29,9.03c2.14,2.85,6.18,3.43,9.03,1.29,2.85-2.14,3.43-6.18,1.29-9.03Z"/>
    </g>
  </g>
</svg>