<?xml version="1.0" encoding="UTF-8"?>
<svg xmlns="http://www.w3.org/2000/svg" xmlns:xlink="http://www.w3.org/1999/xlink" viewBox="0 0 540 540">
  <defs>
    <style>
      .cls-1 {
        fill: url(#linear-gradient-2);
      }

      .cls-2, .cls-3, .cls-4, .cls-5 {
        fill: #fff;
      }

      .cls-3 {
        opacity: .25;
      }

      .cls-3, .cls-4, .cls-6, .cls-5 {
        mix-blend-mode: overlay;
      }

      .cls-7, .cls-5 {
        opacity: .5;
      }

      .cls-8 {
        fill: url(#linear-gradient-6);
      }

      .cls-9 {
        isolation: isolate;
      }

      .cls-10 {
        fill: #5cabdb;
      }

      .cls-10, .cls-11, .cls-12, .cls-13 {
        fill-rule: evenodd;
      }

      .cls-11 {
        fill: #2485c2;
      }

      .cls-6 {
        fill: #f0e2bf;
      }

      .cls-12 {
        fill: #409bd4;
      }

      .cls-14 {
        fill: url(#linear-gradient-5);
      }

      .cls-15 {
        clip-path: url(#clippath);
      }

      .cls-16 {
        clip-rule: evenodd;
        fill: none;
      }

      .cls-17 {
        fill: #884722;
        mix-blend-mode: multiply;
        opacity: .2;
      }

      .cls-18 {
        fill: url(#linear-gradient-7);
      }

      .cls-19 {
        fill: url(#linear-gradient-9);
      }

      .cls-20 {
        fill: url(#linear-gradient-3);
      }

      .cls-21 {
        fill: url(#linear-gradient);
      }

      .cls-22 {
        fill: #2792d4;
      }

      .cls-23 {
        fill: url(#linear-gradient-4);
      }

      .cls-13 {
        fill: #d44827;
      }

      .cls-24 {
        fill: url(#linear-gradient-8);
      }
    </style>
    <clipPath id="clippath">
      <path class="cls-16" d="m269.47,110.84c-109.9,0-243.58,54.4-198.99,130.47,0,23.86,25.7,43.68,67.24,58.28.02-.02.04-.04.07-.06,33.08,13.22,81.36,21.56,135.14,21.56,69.84,0,130.41-14.05,160.45-34.61,22.12-12.83,35.08-28.39,35.08-45.16,54.6-83.94-89.09-130.47-198.99-130.47Z"/>
    </clipPath>
    <linearGradient id="linear-gradient" x1="-743.53" y1="2644.94" x2="-691.65" y2="2581.44" gradientTransform="translate(-985.88 -2167.96) rotate(-43.32)" gradientUnits="userSpaceOnUse">
      <stop offset="0" stop-color="#f2d9c5"/>
      <stop offset=".3" stop-color="#f3decc"/>
      <stop offset=".77" stop-color="#f5eee2"/>
      <stop offset=".92" stop-color="#f7f5eb"/>
    </linearGradient>
    <linearGradient id="linear-gradient-2" x1="-95.02" y1="1964.66" x2="-148.82" y2="2076.32" gradientTransform="translate(-19.98 2242.09) rotate(13.94) scale(1 -1)" xlink:href="#linear-gradient"/>
    <linearGradient id="linear-gradient-3" x1="-6954.25" y1="2551.95" x2="-7053.59" y2="2477.84" gradientTransform="translate(-6584.44 2803.63) rotate(140.25) scale(1 -1)" xlink:href="#linear-gradient"/>
    <linearGradient id="linear-gradient-4" x1="-7765.21" y1="-198.41" x2="-7864.56" y2="-272.52" gradientTransform="translate(-7463.4 335.25) rotate(-178.63) scale(1 -1)" xlink:href="#linear-gradient"/>
    <linearGradient id="linear-gradient-5" x1="-7393.84" y1="-377.01" x2="-7451.94" y2="-267.53" gradientTransform="translate(-6834.82 2673.24) rotate(158.52)" xlink:href="#linear-gradient"/>
    <linearGradient id="linear-gradient-6" x1="-756.86" y1="-1920.77" x2="-822.14" y2="-2026.13" gradientTransform="translate(-253.43 2368.72) rotate(32.21)" xlink:href="#linear-gradient"/>
    <linearGradient id="linear-gradient-7" x1="-7620.22" y1="-189.25" x2="-7719.56" y2="-263.36" gradientTransform="translate(-7463.4 335.25) rotate(-178.63) scale(1 -1)" xlink:href="#linear-gradient"/>
    <linearGradient id="linear-gradient-8" x1="-7720.62" y1="-178.78" x2="-7749.82" y2="-299.24" gradientTransform="translate(-7463.4 335.25) rotate(-178.63) scale(1 -1)" xlink:href="#linear-gradient"/>
    <linearGradient id="linear-gradient-9" x1="-6838.86" y1="2520.41" x2="-6938.2" y2="2446.29" gradientTransform="translate(-6584.44 2803.63) rotate(140.25) scale(1 -1)" xlink:href="#linear-gradient"/>
  </defs>
  <g class="cls-9">
    <g id="_Layer_" data-name="&amp;lt;Layer&amp;gt;">
      <g>
        <g>
          <path class="cls-22" d="m479.35,235.86l-35.86-4.6-174.03,7.46-174.03-7.46-35.86,4.6s-.43,33.92,8.09,60.14c8.52,26.22,50.35,132.6,201.06,132.6.25,0,.48,0,.73,0,.24,0,.48,0,.73,0,150.71,0,192.54-106.38,201.06-132.6,8.52-26.22,8.09-60.14,8.09-60.14Z"/>
          <path class="cls-11" d="m194.99,312.47c-48.73-2.82-95.17-20.92-132.25-51.56,13.79,94.62,98.81,164.3,197.82,162.14-42.12-21.58-67.64-64.6-65.57-110.57"/>
          <path class="cls-12" d="m343.05,312.47c48.73-2.82,95.17-20.92,132.25-51.56-13.79,94.62-98.81,164.3-197.82,162.14,42.12-21.58,67.64-64.6,65.57-110.57"/>
          <path class="cls-10" d="m269.47,152.27c-115.92,0-209.89,39.7-209.89,88.68,0,48.97,93.97,88.68,209.89,88.68,115.92,0,209.89-39.7,209.89-88.68,0-48.97-93.97-88.68-209.89-88.68"/>
          <path class="cls-11" d="m269.47,161.67c-109.9,0-198.99,35.65-198.99,79.63,0,23.86,25.7,43.68,67.24,58.28,4.8-5.05,12.36-6.65,20.19-6.65h3.02c6.62-5.42,16.01-7.59,25.01-5.04.58.11,1.16.23,1.74.37,1.61.2,3.22.54,4.82,1.04,1.54.48,2.97.93,4.47,1.49,1.89.35,3.57.73,5.37,1.38l2.89.27c1.14.11,2.28.28,3.39.53l11.18,2.44c2.3.5,4.67,1.34,6.92,2.03,2.9.6,5.88,1.08,8.65,2.11l3.35,1.24,7.73.84c.95.1,1.9.26,2.83.46l5.64,1.21h2.93c3.49,0,6.98.64,10.25,1.93,7.34,1.68,13.47,6.23,16.91,12.29-.4-12.09,8.86-22.65,21.73-24.71,1.81-.38,3.63-.57,5.43-.6,1.4-.38,2.8-.76,4.23-1.01l2.65-.46c1.6-.46,3.14-.92,4.8-1.21l3.07-.53,3.93-.99.85-.26c1.78-.55,3.58-.91,5.37-1.1,1.2-.35,2.4-.61,3.61-.79,1.01-.28,2.03-.5,3.04-.67,2.44-.61,4.9-.88,7.32-.83h.25c14.31,0,25.94,10.63,26.21,23.83,54.74-14.19,90.96-38.84,90.96-66.89,0-43.98-89.09-79.63-198.99-79.63"/>
          <path class="cls-13" d="m272.93,193.12c-99.72,0-180.56,28.64-180.56,63.98s80.84,63.98,180.56,63.98c99.72,0,180.56-28.64,180.56-63.98s-80.84-63.98-180.56-63.98"/>
          <path class="cls-2" d="m476.67,272.07c-16.06,42.23-102.71,74.5-207.2,74.5s-191.14-32.26-207.2-74.5c1.2,7.94,2.92,16.27,5.41,23.93.57,1.76,1.3,3.89,2.2,6.32,27.38,35.52,106.39,61.19,199.6,61.19s172.21-25.67,199.59-61.19c.9-2.43,1.62-4.56,2.2-6.32,2.49-7.67,4.22-15.99,5.41-23.93Z"/>
        </g>
        <g class="cls-15">
          <g>
            <path class="cls-21" d="m304.26,176.05c-2.51-.36-5.29-6.81-6.08-9.02-.67-1.86-.58-3.96-2.17-5.41-3.26-2.95-5.58,3.47-7.25,5.61-1.13-2.62-2.3-9.44-6.51-8.32-3.39.9-4.82,6.79-6.61,9.3-1.25-3.32-1.63-8.34-5.76-6.44-2.07.96-2.77,2.68-5.37,2.85-2.02.14-3.96-1.03-6-.62-2.09.42-2.78,1.37-3.37,3.42-.26.9-1.29,7.56-.72,7.93-6.36-4.17-10.8.56-9.58,6.59-4.81-2.97-14.15-6.96-10.89,8.14-1.13,2.1-2.26,4.17-2.79,6.5-2.71-.2-6.31-1.71-7.16,1.18-.59,2.02,1.41,5.78,5.64,8.6-4.52,1.28-7.8,3.97-7.65,7.5.17,3.86,2.32,4.5,5.78,5.86-8.64,2.38-1.89,10.37,3.29,11.82-2.99,1.84-9.75,3.56-6.83,8.53,1.28,2.18,4.49,1.17,6.29.57,4.42-1.48,3.87,1.2,4.98,4.73-1.36.36-3.3,2.15-4.64,4.11-1.46,2.13-1.43,4.74.43,6.63,1.68,1.7,4.05,1.34,6.3.22-.44,1.07-.73,2.19-.88,3.33-.27,1.97.11,5.57,2.29,6.44,2.32.93,4.02-1.24,5.01-3.03,2.37,2.76,5.83.85,8.01-1.26.24.65,1.08,4.17,5.34,4.92-2.32,2.4-3.78,5.78-2,8.93,1.95,3.45,5.02-.61,6.65-3.08-.9,1.36,6.12,7.97,7.23,8.51,8.47,4.04,1.38-9.44,6.53-9.57,3.27-.08,6.18,3.64,9.45,2.86,3.68-.87,4.05-5.61,3.73-8.62,1.55,1.11,3.21,1.88,4.87,2.06.05,1.52,1.03,4.59,2.34,5.78,3.54,3.2,8.96-5.92,10.53-10.17,3.17,2.74,8.4,2.71,11.45-.59,2.09-2.25,2.24-6.08,1.34-9.46,1.54.49,3.15.72,4.77.51,2.65-.36,5.49-2.18,6.23-4.89.58-2.1-.78-3.41-2.71-4.25,1.64-1.22,2.87-2.98,3.09-4.85.09-.84-.12-1.9-.54-2.99,1.21.46,2.56.59,3.83.43,2.65-.35,4.18-1.68,5.49-3.92,1.05-1.82,1.28-3.46.16-5.27-.58-.93-1.3-1.83-2.09-2.67,4.5,1.38,9.74-.46,8.65-5.78-.85-4.16-6.62-8.86-10.17-10.62,2.57-1.13,8.32-3.07,9.05-6.21,1.22-5.24-6.68-5.76-9.98-3.92-.18-.98-1.65-4.54-2.18-5.43,1.68-1.48,3.37-3.15,3.84-4.34,1-2.5-1.22-4.86-2.09-5.3-2.36-1.18-7.53,2.6-9.11,4.22-1.09-1.15-1.41-1.51-2.58-2.43,1.02-2.82,3.21-8.54.69-11.2-2.34-2.47-5-.37-7.54,2.7.73-2.91.02-5.06-2.93-5.22-2.71-.15-6.6,4.46-9.09,4.1Z"/>
            <path class="cls-1" d="m386.67,277.27c-2.01,1.54-1.27,8.53-.87,10.84.33,1.95,1.44,3.74.76,5.78-1.39,4.17-6.56-.29-9.07-1.33.3,2.83,2.63,9.36-1.59,10.45-3.4.88-7.53-3.55-10.32-4.86.54,3.51,2.67,8.07-1.86,8.44-2.28.18-3.73-.97-6.08.15-1.83.87-2.95,2.84-4.93,3.48-2.03.66-3.1.17-4.61-1.33-.67-.66-4.83-5.95-4.52-6.56-3.49,6.75-9.69,4.81-11.58-1.05-2.74,4.95-8.91,13-13.48-1.75-2.02-1.28-4.01-2.53-5.62-4.3-2.26,1.51-4.66,4.58-6.82,2.48-1.51-1.47-1.61-5.72.7-10.26-4.57,1.1-8.74.37-10.34-2.78-1.74-3.45-.19-5.06,2.16-7.94-8.69,2.16-6.74-8.11-2.93-11.91-3.5-.13-10.24,1.68-10.13-4.08.04-2.53,3.34-3.22,5.2-3.58,4.57-.88,2.78-2.95,2.01-6.56-1.36.36-3.93-.25-6.06-1.3-2.32-1.14-3.57-3.43-2.88-5.99.62-2.31,2.87-3.16,5.38-3.28-.91-.71-1.71-1.55-2.4-2.47-1.2-1.59-2.63-4.91-1.16-6.73,1.56-1.95,4.11-.89,5.86.19.72-3.57,4.66-3.6,7.6-2.83-.12-.69-1.11-4.16,2.24-6.9-3.2-.95-6.13-3.18-6.12-6.8,0-3.96,4.67-1.94,7.3-.58-1.45-.75,1.42-9.95,2.12-10.96,5.39-7.68,5.84,7.55,10.39,5.14,2.89-1.53,3.6-6.2,6.83-7.13,3.64-1.04,6.28,2.9,7.48,5.69.81-1.73,1.88-3.21,3.23-4.18-.7-1.35-1.35-4.5-.79-6.19,1.52-4.53,10.71.77,14.16,3.69,1.42-3.94,5.99-6.48,10.27-5.1,2.93.94,4.94,4.2,5.81,7.59,1.1-1.18,2.39-2.18,3.91-2.78,2.48-.99,5.85-.79,7.83,1.2,1.54,1.55.99,3.35-.27,5.03,2.02.26,3.96,1.19,5.07,2.71.49.68.83,1.71,1,2.87.83-.99,1.94-1.77,3.12-2.25,2.48-.99,4.47-.59,6.7.72,1.81,1.07,2.82,2.39,2.73,4.52-.05,1.09-.24,2.23-.51,3.35,3.24-3.41,8.71-4.38,10.37.79,1.3,4.04-1.42,10.96-3.65,14.25,2.8-.27,8.76-1.41,10.93.97,3.63,3.97-2.99,8.3-6.78,8.31.32.94.79,4.76.77,5.8,2.19.47,4.48,1.1,5.48,1.9,2.1,1.68,1.32,4.83.78,5.64-1.47,2.19-7.83,1.43-10.01.79-.38,1.54-.48,2-1.06,3.38,2.27,1.96,6.99,5.87,6.09,9.42-.83,3.3-4.17,2.77-7.9,1.34,2.06,2.18,2.5,4.4,0,5.99-2.29,1.46-7.94-.65-9.94.89Z"/>
            <path class="cls-20" d="m363.39,270.41c-.06-2.53-6.12-6.07-8.22-7.12-1.77-.89-3.86-1.05-5.11-2.81-2.54-3.59,4.12-5.12,6.45-6.52-2.46-1.43-9.09-3.42-7.48-7.47,1.31-3.26,7.32-3.96,10.03-5.44-3.14-1.64-8.09-2.63-5.7-6.49,1.21-1.94,2.99-2.43,3.48-4.98.38-1.99-.54-4.05.11-6.04.67-2.03,1.7-2.6,3.8-2.93.92-.15,7.66-.37,7.96.24-3.37-6.81,1.86-10.66,7.7-8.71-2.37-5.14-5.2-14.88,9.4-9.83,2.22-.87,4.41-1.74,6.79-1.99.13-2.72-.93-6.47,2.04-6.97,2.08-.35,5.56,2.09,7.85,6.64,1.82-4.33,4.88-7.26,8.36-6.69,3.81.64,4.19,2.84,5.12,6.45,3.4-8.29,10.52-.63,11.34,4.69,2.18-2.74,4.71-9.25,9.29-5.75,2.01,1.53.62,4.6-.19,6.32-2,4.21.73,3.99,4.1,5.51.52-1.31,2.53-3.02,4.64-4.11,2.29-1.19,4.88-.85,6.53,1.22,1.49,1.87.84,4.18-.54,6.28,1.11-.31,2.27-.46,3.41-.47,1.99-.03,5.51.78,6.11,3.05.65,2.42-1.72,3.84-3.62,4.61,2.45,2.69.14,5.89-2.22,7.8.62.31,4.01,1.57,4.24,5.89,2.67-2.02,6.19-3.06,9.1-.91,3.19,2.35-1.21,4.91-3.86,6.23,1.46-.73,7.18,7.03,7.57,8.2,2.99,8.89-9.54.23-10.29,5.33-.48,3.24,2.87,6.57,1.7,9.73-1.31,3.55-6.05,3.34-9.01,2.66.92,1.68,1.48,3.42,1.46,5.08,1.5.23,4.43,1.58,5.45,3.02,2.75,3.9-6.96,8.18-11.36,9.23,2.34,3.48,1.68,8.66-1.97,11.3-2.49,1.8-6.31,1.49-9.55.19.3,1.59.34,3.21-.07,4.8-.67,2.59-2.83,5.18-5.6,5.6-2.15.32-3.29-1.18-3.89-3.2-1.4,1.48-3.3,2.49-5.19,2.48-.84,0-1.87-.35-2.9-.89.31,1.25.28,2.61-.04,3.85-.67,2.59-2.17,3.95-4.55,4.97-1.93.82-3.59.86-5.25-.48-.85-.68-1.66-1.51-2.4-2.4.83,4.63-1.63,9.62-6.78,7.89-4.03-1.35-7.99-7.64-9.32-11.38-1.44,2.42-4.05,7.89-7.25,8.24-5.35.58-4.91-7.32-2.69-10.38-.95-.3-4.31-2.18-5.13-2.82-1.67,1.48-3.54,2.96-4.77,3.29-2.6.69-4.68-1.8-5.01-2.71-.89-2.48,3.49-7.16,5.28-8.53-1.01-1.22-1.33-1.58-2.1-2.86-2.92.67-8.86,2.16-11.2-.66-2.17-2.62.24-5.01,3.59-7.16-2.98.37-5.03-.59-4.83-3.54.18-2.71,5.23-6.02,5.17-8.53Z"/>
            <path class="cls-5" d="m390.12,283.72c2.49,1.33,5.18,1.01,7.48-.34,2.13,1.28,4.51,2.1,6.96,2.48.24,1.39.84,2.88,1.27,4.11.86,2.48,2.1,5.83,4.57,7.15,5.15,2.76,6.62-5.38,6.91-9.76,1.36.21,2.9-.11,4.08-.58,2.74-1.08,5.18-3.14,7.35-5.12.12.2.23.39.34.57,1.2,2.02,2.68,4.18,5.11,4.72,2.77.63,4.36-2.74,5.02-4.79,1.02-3.16.3-6.24-.84-9.16,1.71.11,3.57-.25,4.69-1.61,1.41-1.68,1.21-4,.64-5.97-.42-1.47-1-2.85-1.8-4.06,1.21.2,2.43.21,3.57,0,3.42-.65,7.04-4.48,4.67-7.93-1.73-2.52-5.55-3.35-8.33-3.94-.21-.05-.42-.09-.64-.14,3.44-1.77,6.09-4.63,3.41-8.21-1.47-1.96-4.08-2.81-6.84-2.95,2.26-1.75,4.17-3.89,5.6-6.42,1.7-3,1.38-8.02-1.52-10.2-4.36-3.28-10.85,2.43-14.37,6.21-3.41-3.94-8.47-9.37-13.52-5.51-3.68,2.82-3.26,8-1.73,12.17-4.65.28-8.61,2.21-9.39,7.71-.11.78.34,1.68,1.12,1.95,2.11.73,4.09.81,6.09.42-1.81,1.69-3.55,3.48-5.04,5.44-2.1-2.69-5.5-5.88-7.76-2.27-1.43,2.26-1.11,5.51-.2,8.41-.36-.04-.71-.08-1.05-.11-2.92-.29-5.69.35-7.05,3.14-1.66,3.4.77,7.1,3.78,10-3.36,1.4-6.35,3.74-6.62,7.4-.2,2.78,1.62,5.87,4.04,7.17Z"/>
            <path class="cls-23" d="m312.91,266.72c1.62-1.94-.62-8.6-1.51-10.77-.75-1.83-2.22-3.34-2-5.47.45-4.38,6.47-1.15,9.15-.67-.91-2.7-4.6-8.56-.72-10.54,3.13-1.59,8.12,1.83,11.14,2.5-1.29-3.31-4.36-7.3-.03-8.64,2.18-.67,3.85.14,5.9-1.46,1.6-1.25,2.26-3.41,4.05-4.47,1.84-1.09,2.99-.84,4.79.29.79.5,6.01,4.76,5.84,5.42,1.94-7.35,8.41-6.81,11.53-1.5,1.59-5.42,5.87-14.63,13.54-1.22,2.25.81,4.47,1.59,6.42,2.97,1.88-1.96,3.55-5.49,6.12-3.91,1.79,1.11,2.81,5.24,1.55,10.16,4.22-2.07,8.45-2.26,10.7.47,2.45,2.98,1.29,4.9-.38,8.22,8.01-4,8.34,6.45,5.46,10.99,3.45-.63,9.63-3.87,10.78,1.78.51,2.47-2.56,3.87-4.3,4.63-4.27,1.85-2.07,3.48-.54,6.84,1.25-.65,3.89-.61,6.2-.05,2.51.61,4.23,2.57,4.11,5.22-.11,2.39-2.12,3.71-4.54,4.38,1.04.5,2.01,1.14,2.88,1.89,1.52,1.29,3.64,4.22,2.6,6.32-1.1,2.24-3.82,1.76-5.76,1.09.08,3.64-3.77,4.53-6.8,4.42.26.64,1.99,3.82-.68,7.22,3.34.23,6.68,1.77,7.46,5.3.85,3.87-4.14,2.91-7,2.15,1.58.41.78,10.02.31,11.16-3.59,8.67-7.34-6.1-11.25-2.76-2.49,2.12-2.16,6.84-5.12,8.44-3.32,1.81-6.76-1.46-8.54-3.92-.41,1.87-1.13,3.55-2.25,4.79.97,1.16,2.3,4.1,2.12,5.86-.49,4.75-10.62,1.58-14.63-.52-.53,4.16-4.43,7.63-8.91,7.22-3.06-.28-5.74-3.03-7.32-6.14-.82,1.39-1.86,2.64-3.21,3.57-2.21,1.51-5.54,2.04-7.9.53-1.83-1.17-1.7-3.05-.83-4.97-2.03.19-4.12-.3-5.54-1.55-.63-.56-1.18-1.49-1.6-2.58-.59,1.15-1.51,2.15-2.56,2.88-2.2,1.51-4.23,1.55-6.7.75-2-.65-3.27-1.72-3.64-3.82-.19-1.08-.25-2.23-.23-3.39-2.42,4.04-7.55,6.17-10.29,1.48-2.15-3.66-1-11.01.46-14.7-2.67.87-8.24,3.28-10.88,1.43-4.41-3.08,1.12-8.75,4.8-9.59-.52-.85-1.81-4.48-2.01-5.49-2.23.02-4.61-.09-5.76-.66-2.41-1.19-2.34-4.43-1.99-5.34.96-2.45,7.34-3.1,9.59-2.95.04-1.58.04-2.06.3-3.53-2.64-1.42-8.09-4.21-8-7.86.09-3.4,3.47-3.62,7.42-3.03-2.49-1.68-3.4-3.75-1.31-5.84,1.92-1.92,7.89-1.09,9.51-3.03Z"/>
            <path class="cls-14" d="m157.87,269.27c2.19,1.27,2.38,8.29,2.29,10.63-.07,1.98-.94,3.9,0,5.83,1.93,3.95,6.47-1.15,8.82-2.51.07,2.85-1.38,9.62,2.95,10.15,3.48.42,7-4.51,9.6-6.18-.07,3.55-1.59,8.35,2.95,8.12,2.28-.12,3.57-1.45,6.04-.65,1.93.62,3.29,2.43,5.34,2.81,2.1.39,3.1-.24,4.4-1.92.57-.74,4.01-6.54,3.62-7.1,4.35,6.23,10.24,3.5,11.34-2.56,3.36,4.55,10.54,11.72,13.14-3.51,1.83-1.53,3.65-3.03,5.01-5,2.44,1.2,5.22,3.93,7.09,1.57,1.3-1.66.84-5.88-2.04-10.08,4.67.49,8.71-.78,9.89-4.11,1.28-3.64-.48-5.04-3.19-7.59,8.9,1,5.61-8.92,1.35-12.19,3.45-.59,10.37.32,9.51-5.38-.38-2.5-3.73-2.76-5.63-2.87-4.65-.27-3.14-2.56-2.86-6.24,1.4.18,3.87-.77,5.84-2.09,2.15-1.44,3.09-3.87,2.07-6.31-.92-2.21-3.26-2.75-5.76-2.55.8-.83,1.49-1.77,2.06-2.76.98-1.73,1.96-5.21.27-6.83-1.81-1.73-4.19-.34-5.78.95-1.18-3.44-5.1-2.96-7.91-1.81.02-.69.55-4.27-3.13-6.55,3.05-1.37,5.66-3.96,5.18-7.54-.53-3.92-4.89-1.31-7.32.38,1.34-.93-2.71-9.67-3.54-10.58-6.35-6.9-4.8,8.25-9.62,6.46-3.07-1.14-4.38-5.68-7.71-6.17-3.74-.56-5.84,3.7-6.67,6.62-1.03-1.61-2.28-2.94-3.75-3.72.52-1.43.75-4.64-.03-6.24-2.1-4.29-10.52,2.16-13.56,5.52-1.92-3.72-6.79-5.64-10.85-3.71-2.78,1.32-4.35,4.81-4.76,8.28-1.25-1.03-2.65-1.84-4.24-2.25-2.59-.66-5.9-.01-7.6,2.22-1.32,1.73-.54,3.45.93,4.95-1.97.52-3.77,1.7-4.67,3.36-.4.74-.6,1.81-.61,2.97-.95-.87-2.16-1.5-3.39-1.82-2.59-.66-4.51,0-6.55,1.6-1.65,1.3-2.48,2.74-2.11,4.84.19,1.08.53,2.18.95,3.26-3.66-2.96-9.21-3.2-10.18,2.14-.76,4.18,2.85,10.68,5.49,13.64-2.81.1-8.87-.25-10.71,2.4-3.08,4.41,4.06,7.83,7.81,7.35-.2.98-.16,4.83,0,5.85-2.1.75-4.3,1.67-5.18,2.6-1.86,1.95-.68,4.97-.03,5.69,1.75,1.97,7.95.39,10.02-.52.58,1.47.74,1.92,1.49,3.22-2,2.24-6.16,6.73-4.81,10.13,1.25,3.16,4.5,2.2,8.01.3-1.76,2.43-1.9,4.69.78,5.93,2.46,1.15,7.79-1.69,9.97-.42Z"/>
            <path class="cls-8" d="m180.04,259.42c-.27-2.52,5.27-6.82,7.22-8.14,1.64-1.11,3.69-1.55,4.69-3.45,2.04-3.89-4.75-4.54-7.25-5.62,2.25-1.74,8.57-4.59,6.43-8.38-1.72-3.06-7.77-2.97-10.66-4.08,2.9-2.04,7.67-3.67,4.8-7.19-1.45-1.77-3.29-2.02-4.11-4.48-.64-1.92,0-4.09-.9-5.97-.93-1.92-2.02-2.35-4.16-2.41-.94-.03-7.64.64-7.86,1.28,2.45-7.2-3.24-10.32-8.78-7.62,1.67-5.4,3.2-15.44-10.6-8.51-2.32-.57-4.6-1.14-6.99-1.08-.48-2.68.08-6.54-2.93-6.64-2.11-.07-5.24,2.81-6.91,7.61-2.37-4.06-5.79-6.56-9.17-5.53-3.69,1.13-3.78,3.37-4.23,7.06-4.46-7.77-10.51.76-10.62,6.13-2.52-2.43-5.88-8.55-9.96-4.48-1.79,1.78-.01,4.64,1.02,6.24,2.53,3.91-.2,4.05-3.34,6-.69-1.23-2.91-2.66-5.14-3.47-2.43-.88-4.95-.2-6.31,2.07-1.23,2.05-.29,4.26,1.36,6.15-1.14-.16-2.31-.16-3.44-.02-1.98.24-5.36,1.5-5.66,3.82-.32,2.48,2.21,3.58,4.19,4.1-2.08,2.99.63,5.86,3.22,7.44-.57.39-3.77,2.08-3.43,6.4-2.91-1.65-6.54-2.22-9.14.29-2.85,2.75,1.84,4.71,4.64,5.67-1.54-.53-6.19,7.91-6.43,9.12-1.8,9.21,9.49-1.02,10.9,3.93.9,3.15-1.98,6.89-.41,9.87,1.77,3.35,6.44,2.52,9.28,1.45-.69,1.78-1.02,3.58-.78,5.23-1.45.43-4.18,2.14-5.01,3.71-2.22,4.23,7.97,7.2,12.47,7.66-1.86,3.76-.53,8.81,3.43,10.94,2.71,1.46,6.45.65,9.49-1.07-.09,1.61.08,3.23.7,4.75,1.01,2.48,3.48,4.77,6.29,4.82,2.18.04,3.1-1.61,3.44-3.68,1.59,1.28,3.6,2.03,5.47,1.78.83-.12,1.81-.59,2.76-1.27-.14,1.28.06,2.63.54,3.81,1,2.48,2.67,3.63,5.16,4.33,2.02.56,3.67.38,5.15-1.16.75-.79,1.44-1.71,2.06-2.69-.22,4.7,2.88,9.32,7.75,6.93,3.82-1.86,6.92-8.62,7.75-12.5,1.74,2.21,5.05,7.29,8.27,7.21,5.38-.13,3.91-7.9,1.3-10.65.9-.42,3.98-2.73,4.71-3.46,1.85,1.25,3.89,2.47,5.16,2.64,2.67.35,4.4-2.4,4.61-3.34.56-2.58-4.4-6.64-6.36-7.77.84-1.34,1.11-1.74,1.71-3.11,2.99.28,9.07.97,11.01-2.13,1.81-2.88-.89-4.93-4.5-6.63,3-.02,4.91-1.25,4.32-4.14-.54-2.66-5.97-5.28-6.24-7.78Z"/>
            <path class="cls-5" d="m161.25,235.12c-1.14-2.82-3.59-4.41-6.41-4.89-.87-2.53-2.27-4.85-4.04-6.86.76-1.31,1.3-2.96,1.79-4.27,1-2.65,2.29-6.27,1.16-9.07-2.35-5.84-9.19-.12-12.46,3.29-.98-1.11-2.47-1.91-3.78-2.34-3.01-1.01-6.45-.99-9.62-.85.04-.25.08-.49.11-.71.4-2.5.67-5.31-.96-7.44-1.86-2.44-5.5-.74-7.46.5-3.03,1.91-4.56,4.95-5.64,8.15-1.34-1.27-3.12-2.26-4.99-1.91-2.33.42-3.76,2.47-4.66,4.5-.67,1.5-1.14,3.05-1.32,4.6-.86-1.01-1.87-1.86-2.95-2.46-3.28-1.82-8.91-1.16-9.35,3.33-.31,3.28,2.27,6.6,4.17,9.01.14.18.29.36.43.55-4.07-.91-8.24-.37-8.49,4.43-.14,2.63,1.44,5.14,3.62,7.16-3.07-.12-6.14.34-9.07,1.44-3.48,1.3-6.68,5.67-5.79,9.48,1.34,5.72,10.65,5.49,16.17,4.79.1,5.61.53,13.6,7.37,13.9,4.99.22,8.22-4.36,9.84-8.86,4.04,2.98,8.65,4.12,13.09.11.63-.56.88-1.63.42-2.38-1.24-2.06-2.82-3.5-4.74-4.56,2.67-.14,5.34-.43,7.93-1.02-.12,3.67.48,8.66,4.85,7.24,2.74-.88,4.73-3.78,5.98-6.81.27.28.53.56.79.82,2.21,2.25,4.94,3.64,8,2.27,3.72-1.67,4.27-6.4,3.79-10.88,3.74,1.16,7.84,1.3,10.59-1.55,2.09-2.16,2.72-5.97,1.61-8.72Z"/>
            <path class="cls-5" d="m164.38,258.2c.86-3.22-3.34-7.07-7.31-8.08,1.48-.81,5.06-3.81,3.61-6.38-1.23-2.17-6.3-3.27-9.03-1.56,2.73-1.71,5.24-5.47,2.19-8.21-1.74-1.56-6.35-1.04-7.49.63-1.08-.62-1.58-.73-2.9-1.02.19-2.38-.32-8.94-5.41-8.15-2.78.43-3.76,4.25-4.41,6.3-.63-.08-2.34.32-2.34.32-.96-2.41-3.95-6.2-7.78-4-1.78,1.02-1.58,3.59-1.42,6.12-4.85-5.88-14.41,0-8.47,7.72-1.19,1.23-1.44,2.51-1.61,3.05.06-.09-5.34-.53-5.84-.47-2.04.25-4.48.83-6.02,2.3-4.45,4.27.66,7.63,4.39,9.2-2.25,1.38-5.58,3.43-5.93,6.29-.51,4.22,5.8,4.98,8.89,4.92-.25,0,.87,6.47,1,7.13.55,2.82,1.87,5.28,4.55,6.58,3.47,1.69,7.56.39,10.34-2.16,1.61,3.07,4.2,5.49,7.59,5.67,5.71.29,9.83-7.94,9.81-13.5.52.66,1.06,1.26,1.56,1.75,2.52,2.43,6.22,3.02,8.93.48,2.78-2.61,2.98-7.27,2.98-11.22,4.32.54,8.91.8,10.12-3.71Z"/>
            <path class="cls-17" d="m152.32,219.84c.09-.27.17-.53.24-.79-.29.47-.4.78-.24.79Z"/>
            <path class="cls-4" d="m126.51,263.85c-1.01-.96-2-1.61-3.31-2.1-.76-.29-1.61-.4-2.42-.24-6.31,1.23,1.33,11.15,5.49,7.35,1.35-1.23,1.63-3.68.23-5.01Z"/>
            <g>
              <path class="cls-4" d="m152.36,252.23c.45-1.24.6-2.64.48-3.84-.11-1.1-1.22-2.07-2.21-2.37-1.07-.33-2.28-.06-3.1.7-1.62,1.49-3.41,5.12-2.21,7.22.56,1,1.63,1.81,2.83,1.79,2.15-.04,3.52-1.6,4.21-3.51Z"/>
              <path class="cls-2" d="m117.55,213.12c-1.32-.19-2.71-.06-3.86.3-1.06.33-1.78,1.61-1.87,2.64-.1,1.11.4,2.24,1.31,2.89,1.79,1.28,5.7,2.3,7.52.71.87-.76,1.44-1.97,1.17-3.14-.47-2.1-2.28-3.13-4.28-3.41Z"/>
              <path class="cls-6" d="m146.63,249.97c.06-.12.1-.24.16-.36-.18.4-.23.51-.16.36Z"/>
            </g>
            <path class="cls-5" d="m128.37,291.17c-.77-.88-1.73-1.27-2.79-1.71-1.07-.45-2.08-.57-3.24-.4-1.83.27-2.82,2.34-2.3,4.02.85,2.8,6.89,5,8.69,2.14.81-1.29.63-2.93-.36-4.06Z"/>
            <path class="cls-4" d="m139.54,209.5c-.85-1.14-2.19-2.08-3.36-2.43-.69-.21-1.45-.14-2.1.19-1.28.66-1.98,2.47-1.19,3.77.61,1,1.34,1.77,2.15,2.58,1.17,1.18,3.05,1.36,4.33.2,1.46-1.34,1.16-2.97.17-4.31Z"/>
            <path class="cls-5" d="m180.58,248.04c.07-1.3-.08-2.83-1.07-3.78-4.27-4.11-9.08,5.21-5.94,8.69.82.91,2.19,1.38,3.39,1.07,2.76-.72,3.48-3.47,3.61-5.98Z"/>
            <path class="cls-18" d="m167.74,272.4c1.62-1.94-.62-8.6-1.51-10.77-.75-1.83-2.22-3.34-2-5.47.45-4.38,6.47-1.15,9.15-.67-.91-2.7-4.6-8.56-.72-10.54,3.13-1.59,8.12,1.83,11.14,2.5-1.29-3.31-4.36-7.3-.03-8.64,2.18-.67,3.85.14,5.9-1.46,1.6-1.25,2.26-3.41,4.05-4.47,1.84-1.09,2.99-.84,4.79.29.79.5,6.01,4.76,5.84,5.42,1.94-7.35,8.41-6.81,11.53-1.5,1.59-5.42,5.87-14.63,13.54-1.22,2.25.81,4.47,1.59,6.42,2.97,1.88-1.96,3.55-5.49,6.12-3.91,1.79,1.11,2.81,5.24,1.55,10.16,4.22-2.07,8.45-2.26,10.7.47,2.45,2.98,1.29,4.9-.38,8.22,8.01-4,8.34,6.45,5.46,10.99,3.45-.63,9.63-3.87,10.78,1.78.51,2.47-2.56,3.87-4.3,4.63-4.27,1.85-2.07,3.48-.54,6.84,1.25-.65,3.89-.61,6.2-.05,2.51.61,4.23,2.57,4.11,5.22-.11,2.39-2.12,3.71-4.54,4.38,1.04.5,2.01,1.14,2.88,1.89,1.52,1.29,3.64,4.22,2.6,6.32-1.1,2.24-3.82,1.76-5.76,1.09.08,3.64-3.77,4.53-6.8,4.42.26.64,1.99,3.82-.68,7.22,3.34.23,6.68,1.77,7.46,5.3.85,3.87-4.14,2.91-7,2.15,1.58.41.78,10.02.31,11.16-3.59,8.67-7.34-6.1-11.25-2.76-2.49,2.12-2.16,6.84-5.12,8.44-3.32,1.81-6.76-1.46-8.54-3.92-.41,1.87-1.13,3.55-2.25,4.79.97,1.16,2.3,4.1,2.12,5.86-.49,4.75-10.62,1.58-14.63-.52-.53,4.16-4.43,7.63-8.91,7.22-3.06-.28-5.74-3.03-7.32-6.14-.82,1.39-1.86,2.64-3.21,3.57-2.21,1.51-5.54,2.04-7.9.53-1.83-1.17-1.7-3.05-.83-4.97-2.03.19-4.12-.3-5.54-1.55-.63-.56-1.18-1.49-1.6-2.58-.59,1.15-1.51,2.15-2.56,2.88-2.2,1.51-4.23,1.55-6.7.75-2-.65-3.27-1.72-3.64-3.82-.19-1.08-.25-2.23-.23-3.39-2.42,4.04-7.55,6.17-10.29,1.48-2.15-3.66-1-11.01.46-14.7-2.67.87-8.24,3.28-10.88,1.43-4.41-3.08,1.12-8.75,4.8-9.59-.52-.85-1.81-4.48-2.01-5.49-2.23.02-4.61-.09-5.76-.66-2.41-1.19-2.34-4.43-1.99-5.34.96-2.45,7.34-3.1,9.59-2.95.04-1.58.04-2.06.3-3.53-2.64-1.42-8.09-4.21-8-7.86.09-3.4,3.47-3.62,7.42-3.03-2.49-1.68-3.4-3.75-1.31-5.84,1.92-1.92,7.89-1.09,9.51-3.03Z"/>
            <path class="cls-5" d="m338.89,253.67c-1.66,2.27-1.72,4.99-.71,7.45-1.57,1.92-2.72,4.17-3.43,6.55-1.41.04-2.97.43-4.24.68-2.58.51-6.06,1.26-7.72,3.52-3.45,4.71,4.4,7.31,8.69,8.21-.39,1.31-.29,2.88,0,4.12.68,2.87,2.38,5.57,4.04,8-.21.09-.42.18-.62.26-2.17.91-4.51,2.07-5.39,4.39-1.01,2.65,2.11,4.7,4.04,5.64,2.99,1.45,6.13,1.17,9.19.45-.35,1.68-.25,3.57.93,4.87,1.47,1.63,3.79,1.75,5.82,1.47,1.51-.21,2.96-.59,4.27-1.21-.37,1.17-.55,2.38-.5,3.53.17,3.48,3.45,7.6,7.2,5.74,2.74-1.36,4.09-5.02,5.06-7.7.08-.2.15-.4.23-.61,1.27,3.65,3.73,6.68,7.65,4.52,2.14-1.18,3.35-3.65,3.88-6.36,1.41,2.48,3.27,4.67,5.57,6.45,2.73,2.11,7.74,2.49,10.31-.07,3.86-3.86-.88-11.08-4.14-15.1,4.38-2.82,10.47-7.07,7.35-12.62-2.27-4.04-7.46-4.35-11.8-3.42.37-4.65-.98-8.84-6.32-10.37-.75-.22-1.71.1-2.09.83-1.01,1.98-1.38,3.94-1.27,5.97-1.42-2.03-2.95-4-4.68-5.76,2.96-1.7,6.59-4.62,3.34-7.37-2.04-1.73-5.3-1.88-8.3-1.38.09-.35.18-.69.26-1.03.69-2.85.45-5.68-2.12-7.42-3.14-2.12-7.14-.23-10.43,2.34-.92-3.52-2.81-6.81-6.4-7.59-2.72-.59-6.04.78-7.66,3Z"/>
            <path class="cls-5" d="m355.56,239.91c-2.96.89-3.94,6.09-2.79,9.72-1.36-.77-5.48-2.12-6.79.27-1.11,2.03.5,6.57,3.19,7.89-2.69-1.32-6.88-1.46-7.54,2.29-.38,2.14,2.29,5.52,4.16,5.59.04,1.15.19,1.6.62,2.79-1.97,1.02-6.89,4.63-3.78,8.25,1.7,1.98,5.19.89,7.13.4.25.54,1.4,1.69,1.4,1.69-1.43,1.93-2.96,6.15.66,8.09,1.68.9,3.6-.51,5.52-1.88-2.26,6.7,7.06,11.36,10.23,2.9,1.55.33,2.68-.09,3.19-.22-.1,0,2.19,4.47,2.49,4.83,1.2,1.49,2.85,3.13,4.76,3.62,5.54,1.42,5.69-4.26,5.1-7.96,2.19,1.1,5.44,2.72,7.86,1.6,3.58-1.66,1.09-7.01-.47-9.41.12.2,4.67-3.85,5.13-4.28,1.96-1.81,3.25-4.06,2.97-6.81-.36-3.56-3.39-6.15-6.77-7.09,1.63-2.78,2.27-6,.75-8.76-2.56-4.64-11.07-3.86-15.45-1.12.27-.73.48-1.45.61-2.08.68-3.18-.66-6.39-3.99-7.28-3.42-.91-7.19,1.21-10.31,3.14-1.68-3.67-3.73-7.42-7.87-6.16Z"/>
            <path class="cls-24" d="m235.52,238.73c1.62-1.94-.62-8.6-1.51-10.77-.75-1.83-2.22-3.34-2-5.47.45-4.38,6.47-1.15,9.15-.67-.91-2.7-4.6-8.56-.72-10.54,3.13-1.59,8.12,1.83,11.14,2.5-1.29-3.31-4.36-7.3-.03-8.64,2.18-.67,3.85.14,5.9-1.46,1.6-1.25,2.26-3.41,4.05-4.47,1.84-1.09,2.99-.84,4.79.29.79.5,6.01,4.76,5.84,5.42,1.94-7.35,8.41-6.81,11.53-1.5,1.59-5.42,5.87-14.63,13.54-1.22,2.25.81,4.47,1.59,6.42,2.97,1.88-1.96,3.55-5.49,6.12-3.91,1.79,1.11,2.81,5.24,1.55,10.16,4.22-2.07,8.45-2.26,10.7.47,2.45,2.98,1.29,4.9-.38,8.22,8.01-4,8.34,6.45,5.46,10.99,3.45-.63,9.63-3.87,10.78,1.78.51,2.47-2.56,3.87-4.3,4.63-4.27,1.85-2.07,3.48-.54,6.84,1.25-.65,3.89-.61,6.2-.05,2.51.61,4.23,2.57,4.11,5.22-.11,2.39-2.12,3.71-4.54,4.38,1.04.5,2.01,1.14,2.88,1.89,1.52,1.29,3.64,4.22,2.6,6.32-1.1,2.24-3.82,1.76-5.76,1.09.08,3.64-3.77,4.53-6.8,4.42.26.64,1.99,3.82-.68,7.22,3.34.23,6.68,1.77,7.46,5.3.85,3.87-4.14,2.91-7,2.15,1.58.41.78,10.02.31,11.16-3.59,8.67-7.34-6.1-11.25-2.76-2.49,2.12-2.16,6.84-5.12,8.44-3.32,1.81-6.76-1.46-8.54-3.92-.41,1.87-1.13,3.55-2.25,4.79.97,1.16,2.3,4.1,2.12,5.86-.49,4.75-10.62,1.58-14.63-.52-.53,4.16-4.43,7.63-8.91,7.22-3.06-.28-5.74-3.03-7.32-6.14-.82,1.39-1.86,2.64-3.21,3.57-2.21,1.51-5.54,2.04-7.9.53-1.83-1.17-1.7-3.05-.83-4.97-2.03.19-4.12-.3-5.54-1.55-.63-.56-1.18-1.49-1.6-2.58-.59,1.15-1.51,2.15-2.56,2.88-2.2,1.51-4.23,1.55-6.7.75-2-.65-3.27-1.72-3.64-3.82-.19-1.08-.25-2.23-.23-3.39-2.42,4.04-7.55,6.17-10.29,1.48-2.15-3.66-1-11.01.46-14.7-2.67.87-8.24,3.28-10.88,1.43-4.41-3.08,1.12-8.75,4.8-9.59-.52-.85-1.81-4.48-2.01-5.49-2.23.02-4.61-.09-5.76-.66-2.41-1.19-2.34-4.43-1.99-5.34.96-2.45,7.34-3.1,9.59-2.95.04-1.58.04-2.06.3-3.53-2.64-1.42-8.09-4.21-8-7.86.09-3.4,3.47-3.62,7.42-3.03-2.49-1.68-3.4-3.75-1.31-5.84,1.92-1.92,7.89-1.09,9.51-3.03Z"/>
            <path class="cls-19" d="m254.51,319.95c-.06-2.53-6.12-6.07-8.22-7.12-1.77-.89-3.86-1.05-5.11-2.81-2.54-3.59,4.12-5.12,6.45-6.52-2.46-1.43-9.09-3.42-7.48-7.47,1.31-3.26,7.32-3.96,10.03-5.44-3.14-1.64-8.09-2.63-5.7-6.49,1.21-1.94,2.99-2.43,3.48-4.98.38-1.99-.54-4.05.11-6.04.67-2.03,1.7-2.6,3.8-2.93.92-.15,7.66-.37,7.96.24-3.37-6.81,1.86-10.66,7.7-8.71-2.37-5.14-5.2-14.88,9.4-9.83,2.22-.87,4.41-1.74,6.79-1.99.13-2.72-.93-6.47,2.04-6.97,2.08-.35,5.56,2.09,7.85,6.64,1.82-4.33,4.88-7.26,8.36-6.69,3.81.64,4.19,2.84,5.12,6.45,3.4-8.29,10.52-.63,11.34,4.69,2.18-2.74,4.71-9.25,9.29-5.75,2.01,1.53.62,4.6-.19,6.32-2,4.21.73,3.99,4.1,5.51.52-1.31,2.53-3.02,4.64-4.11,2.29-1.19,4.88-.85,6.53,1.22,1.49,1.87.84,4.18-.54,6.28,1.11-.31,2.27-.46,3.41-.47,1.99-.03,5.51.78,6.11,3.05.65,2.42-1.72,3.84-3.62,4.61,2.45,2.69.14,5.89-2.22,7.8.62.31,4.01,1.57,4.24,5.89,2.67-2.02,6.19-3.06,9.1-.91,3.19,2.35-1.21,4.91-3.86,6.23,1.46-.73,7.18,7.03,7.57,8.2,2.99,8.89-9.54.23-10.29,5.33-.48,3.24,2.87,6.57,1.7,9.73-1.31,3.55-6.05,3.34-9.01,2.66.92,1.68,1.48,3.42,1.46,5.08,1.5.23,4.43,1.58,5.45,3.02,2.75,3.9-6.96,8.18-11.36,9.23,2.34,3.48,1.68,8.66-1.97,11.3-2.49,1.8-6.31,1.49-9.55.19.3,1.59.34,3.21-.07,4.8-.67,2.59-2.83,5.18-5.6,5.6-2.15.32-3.29-1.18-3.89-3.2-1.4,1.48-3.3,2.49-5.19,2.48-.84,0-1.87-.35-2.9-.89.31,1.25.28,2.61-.04,3.85-.67,2.59-2.17,3.95-4.55,4.97-1.93.82-3.59.86-5.25-.48-.85-.68-1.66-1.51-2.4-2.4.83,4.63-1.63,9.62-6.78,7.89-4.03-1.35-7.99-7.64-9.32-11.38-1.44,2.42-4.05,7.89-7.25,8.24-5.35.58-4.91-7.32-2.69-10.38-.95-.3-4.31-2.18-5.13-2.82-1.67,1.48-3.54,2.96-4.77,3.29-2.6.69-4.68-1.8-5.01-2.71-.89-2.48,3.49-7.16,5.28-8.53-1.01-1.22-1.33-1.58-2.1-2.86-2.92.67-8.86,2.16-11.2-.66-2.17-2.62.24-5.01,3.59-7.16-2.98.37-5.03-.59-4.83-3.54.18-2.71,5.23-6.02,5.17-8.53Z"/>
            <path class="cls-5" d="m204.37,322.92c2.78-.47,4.72-2.37,5.71-4.83,2.47-.28,4.85-1.09,7.03-2.29,1.04.96,2.42,1.77,3.51,2.48,2.2,1.44,5.22,3.33,7.98,2.87,5.76-.96,1.95-8.3-.49-11.95,1.2-.66,2.22-1.86,2.88-2.95,1.52-2.53,2.19-5.65,2.69-8.54.22.08.43.17.62.24,2.18.86,4.67,1.67,6.93.62,2.58-1.19,1.77-4.83,1.04-6.86-1.12-3.13-3.57-5.12-6.26-6.74,1.42-.96,2.67-2.38,2.73-4.14.08-2.19-1.49-3.9-3.14-5.12-1.23-.91-2.53-1.65-3.91-2.12,1.08-.58,2.06-1.32,2.82-2.18,2.31-2.61,2.84-7.85-1.15-9.14-2.91-.94-6.44.74-9,1.97-.19.09-.39.19-.59.28,1.64-3.5,1.99-7.39-2.32-8.58-2.36-.65-4.95.27-7.21,1.84.72-2.76.92-5.63.51-8.5-.49-3.42-3.8-7.19-7.43-7.15-5.46.07-7.1,8.55-7.58,13.69-5.1-1.04-12.43-2.24-14.07,3.9-1.2,4.48,2.3,8.32,6.06,10.69-3.51,3.07-5.47,7.01-2.72,11.84.38.69,1.3,1.12,2.08.86,2.11-.71,3.74-1.86,5.08-3.39-.4,2.45-.68,4.92-.67,7.39-3.3-.85-7.94-1.3-7.54,2.94.25,2.66,2.48,5.04,4.98,6.78-.31.19-.61.37-.9.55-2.48,1.55-4.29,3.75-3.66,6.79.77,3.71,4.95,5.15,9.1,5.61-1.8,3.16-2.75,6.84-.72,9.9,1.54,2.33,4.87,3.66,7.58,3.2Z"/>
            <path class="cls-5" d="m182.83,321.13c2.75,1.43,7.08-1.61,8.79-5.01.44,1.51,2.44,5.35,5.06,4.55,2.21-.68,4.23-5.05,3.22-7.87,1,2.82,3.9,5.85,7,3.63,1.77-1.27,2.22-5.55.93-6.91.78-.85.98-1.28,1.5-2.42,2.12.65,8.17,1.5,8.47-3.27.17-2.61-3.1-4.26-4.82-5.26.2-.56.18-2.18.18-2.18,2.37-.38,6.41-2.34,5.18-6.25-.57-1.82-2.94-2.15-5.26-2.51,6.3-3.22,2.88-13.06-5.3-9.22-.88-1.32-1.98-1.81-2.44-2.07.07.07,1.55-4.73,1.59-5.2.18-1.9.15-4.23-.88-5.91-2.98-4.89-7.05-.93-9.21,2.14-.8-2.32-1.99-5.74-4.51-6.63-3.72-1.31-5.68,4.26-6.24,7.07.05-.23-6.03-.51-6.66-.52-2.66-.07-5.16.64-6.88,2.8-2.23,2.81-1.86,6.77-.11,9.8-3.11.85-5.82,2.71-6.66,5.75-1.41,5.11,5.23,10.49,10.27,11.59-.7.33-1.35.7-1.9,1.06-2.71,1.8-3.98,5.03-2.23,7.99,1.81,3.04,5.99,4.15,9.57,4.95-1.35,3.8-2.51,7.92,1.33,9.91Z"/>
            <path class="cls-4" d="m179.39,285.41c1.16-.78,2-1.6,2.76-2.78.44-.68.74-1.49.76-2.31.16-6.42-11.17-1.1-8.36,3.78.91,1.58,3.24,2.38,4.84,1.31Z"/>
            <g>
              <path class="cls-4" d="m185.16,313.16c1.12.71,2.45,1.15,3.64,1.3,1.1.13,2.28-.74,2.79-1.64.55-.98.55-2.21-.02-3.18-1.11-1.9-4.26-4.43-6.58-3.72-1.1.33-2.12,1.2-2.35,2.38-.43,2.11.8,3.79,2.52,4.86Z"/>
              <path class="cls-2" d="m230.86,287.6c.47-1.25.64-2.63.54-3.83-.09-1.11-1.19-2.09-2.18-2.4-1.06-.34-2.28-.09-3.11.66-1.64,1.47-3.48,5.07-2.32,7.19.55,1.01,1.61,1.83,2.81,1.82,2.15,0,3.55-1.55,4.25-3.44Z"/>
              <path class="cls-6" d="m188.61,308.05c.1.08.22.15.32.24-.35-.26-.45-.34-.32-.24Z"/>
            </g>
            <path class="cls-4" d="m382.97,263.08c-.28,1.36-.31,2.55-.04,3.92.16.8.51,1.58,1.07,2.18,4.37,4.71,8.77-7.01,3.35-8.54-1.76-.5-3.99.56-4.38,2.44Z"/>
            <g>
              <path class="cls-4" d="m359.46,247.25c-1.29.27-2.56.88-3.52,1.61-.88.67-1.11,2.12-.85,3.12.29,1.08,1.15,1.97,2.23,2.26,2.12.59,6.14.2,7.3-1.93.55-1,.67-2.34.02-3.35-1.17-1.81-3.22-2.15-5.2-1.72Z"/>
              <path class="cls-2" d="m344.59,297.45c.53,1.22,1.38,2.33,2.29,3.12.84.73,2.31.66,3.23.2,1-.5,1.69-1.52,1.76-2.64.15-2.2-1.05-6.06-3.36-6.77-1.1-.34-2.43-.19-3.28.66-1.54,1.51-1.46,3.59-.64,5.43Z"/>
              <path class="cls-6" d="m360.56,253.31c-.13.01-.26.04-.39.05.44-.06.56-.07.39-.05Z"/>
            </g>
            <path class="cls-5" d="m152.31,281.33c1.03-.56,1.61-1.42,2.27-2.35.67-.95,1-1.91,1.08-3.08.13-1.85-1.67-3.26-3.43-3.11-2.91.23-6.37,5.64-3.97,8.02,1.08,1.07,2.73,1.25,4.05.52Z"/>
            <path class="cls-4" d="m229.65,309.86c1.3-.58,2.5-1.69,3.1-2.76.36-.63.45-1.39.26-2.09-.37-1.39-1.98-2.46-3.42-1.97-1.11.38-2.01.92-2.99,1.54-1.41.89-1.98,2.69-1.13,4.18.99,1.72,2.65,1.77,4.17,1.1Z"/>
            <path class="cls-5" d="m261.12,308.79c.87,2.68,3.04,4.32,5.62,4.94.64,2.4,1.79,4.64,3.3,6.61-.79,1.17-1.39,2.66-1.93,3.84-1.1,2.39-2.52,5.66-1.66,8.32,1.8,5.56,8.5.71,11.75-2.25.83,1.09,2.17,1.92,3.34,2.41,2.72,1.13,5.91,1.33,8.85,1.4-.05.23-.1.45-.15.65-.53,2.29-.96,4.87.41,6.94,1.56,2.37,5.04,1.04,6.94.02,2.93-1.57,4.54-4.29,5.74-7.18,1.16,1.26,2.75,2.29,4.5,2.09,2.18-.24,3.64-2.05,4.6-3.86.72-1.35,1.26-2.75,1.52-4.18.73.99,1.61,1.84,2.57,2.47,2.92,1.9,8.18,1.65,8.87-2.48.5-3.02-1.68-6.26-3.28-8.61-.12-.18-.24-.36-.36-.54,3.71,1.11,7.6.88,8.14-3.56.3-2.43-1-4.85-2.89-6.86,2.84.31,5.7.08,8.49-.75,3.31-.98,6.55-4.82,5.97-8.4-.87-5.39-9.51-5.77-14.66-5.48.27-5.2.39-12.63-5.93-13.34-4.61-.52-7.89,3.51-9.68,7.57-3.55-3.02-7.74-4.37-12.11-.95-.62.48-.92,1.45-.55,2.18,1.02,1.98,2.39,3.42,4.1,4.52-2.48-.04-4.97.05-7.41.43.35-3.39.11-8.05-4.02-7.02-2.59.64-4.62,3.2-5.97,5.92-.23-.28-.45-.55-.68-.81-1.9-2.23-4.34-3.69-7.26-2.62-3.55,1.31-4.37,5.65-4.21,9.83-3.39-1.32-7.17-1.71-9.9.75-2.07,1.86-2.9,5.35-2.05,7.97Z"/>
            <path class="cls-3" d="m395.66,218.47c-3.02.68-4.36,5.8-3.47,9.5-1.31-.87-5.32-2.5-6.8-.21-1.25,1.95.04,6.59,2.63,8.09-2.59-1.5-6.76-1.94-7.69,1.75-.53,2.11,1.89,5.67,3.75,5.87-.04,1.15.08,1.61.42,2.82-2.04.88-7.2,4.13-4.35,7.96,1.55,2.1,5.12,1.25,7.08.9.21.55,1.28,1.78,1.28,1.78-1.56,1.83-3.38,5.93.08,8.12,1.61,1.02,3.63-.26,5.64-1.48-2.72,6.53,6.24,11.83,10,3.61,1.53.44,2.68.1,3.2,0-.1,0,1.87,4.61,2.14,5,1.09,1.57,2.62,3.33,4.49,3.94,5.43,1.81,5.98-3.84,5.65-7.58,2.11,1.25,5.23,3.1,7.72,2.15,3.69-1.4,1.58-6.92.2-9.42.11.2,4.93-3.51,5.42-3.9,2.08-1.67,3.53-3.82,3.44-6.58-.11-3.58-2.95-6.37-6.25-7.55,1.82-2.65,2.69-5.82,1.37-8.68-2.23-4.81-10.77-4.63-15.33-2.21.32-.71.58-1.41.76-2.04.91-3.12-.21-6.42-3.47-7.54-3.34-1.15-7.25.7-10.5,2.41-1.42-3.78-3.2-7.67-7.42-6.7Z"/>
            <path class="cls-5" d="m259.71,287.22c-1.01,2.93,2.63,6.76,6.25,7.95-1.43.65-4.93,3.21-3.75,5.67,1,2.09,5.62,3.43,8.26,2.03-2.64,1.41-5.2,4.72-2.55,7.46,1.51,1.56,5.82,1.37,6.97-.1.96.64,1.41.78,2.62,1.13-.33,2.19-.28,8.3,4.48,7.89,2.6-.22,3.76-3.69,4.49-5.55.58.12,2.19-.15,2.19-.15.73,2.29,3.26,6,6.95,4.2,1.72-.83,1.69-3.22,1.71-5.58,4.12,5.75,13.34.92,8.33-6.6,1.18-1.07,1.5-2.23,1.69-2.72-.06.08,4.91.84,5.38.81,1.91-.1,4.2-.48,5.72-1.75,4.39-3.67-.12-7.11-3.48-8.8,2.18-1.13,5.39-2.82,5.89-5.44.75-3.87-5.05-4.99-7.91-5.12.23.02-.39-6.04-.47-6.66-.32-2.65-1.39-5.01-3.79-6.39-3.1-1.79-6.97-.84-9.71,1.34-1.3-2.95-3.54-5.35-6.66-5.73-5.26-.64-9.61,6.72-9.95,11.87-.43-.65-.9-1.24-1.33-1.72-2.18-2.41-5.57-3.2-8.24-1.02-2.74,2.24-3.22,6.53-3.48,10.2-3.96-.78-8.2-1.32-9.6,2.78Z"/>
            <path class="cls-4" d="m294.53,278.54c.94,1.03,1.88,1.74,3.16,2.32.74.34,1.58.51,2.39.41,6.38-.79-.56-11.21-4.97-7.71-1.43,1.14-1.88,3.56-.58,4.98Z"/>
            <g>
              <path class="cls-4" d="m267.94,288.34c-.54,1.21-.78,2.59-.75,3.8.03,1.11,1.07,2.15,2.04,2.51,1.05.4,2.27.22,3.14-.49,1.72-1.37,3.75-4.87,2.71-7.05-.49-1.04-1.5-1.92-2.7-1.98-2.15-.11-3.63,1.35-4.44,3.21Z"/>
              <path class="cls-2" d="m299.96,329.77c1.3.28,2.7.24,3.87-.03,1.08-.25,1.89-1.48,2.05-2.51.18-1.1-.25-2.26-1.11-2.98-1.69-1.41-5.53-2.69-7.46-1.23-.92.69-1.57,1.86-1.39,3.05.32,2.13,2.06,3.28,4.03,3.7Z"/>
              <path class="cls-6" d="m273.5,291c-.07.11-.12.24-.19.35.21-.39.27-.5.19-.35Z"/>
            </g>
            <path class="cls-5" d="m294.57,251.16c.7.94,1.64,1.39,2.66,1.9,1.04.52,2.04.71,3.2.62,1.85-.14,2.97-2.13,2.57-3.85-.66-2.85-6.52-5.46-8.52-2.74-.9,1.23-.83,2.88.08,4.08Z"/>
            <path class="cls-4" d="m277.77,331.86c.76,1.2,2.04,2.22,3.19,2.66.67.26,1.44.24,2.11-.05,1.32-.57,2.14-2.32,1.45-3.68-.54-1.04-1.21-1.85-1.97-2.73-1.09-1.26-2.95-1.56-4.3-.5-1.55,1.24-1.36,2.88-.47,4.29Z"/>
            <path class="cls-3" d="m248.83,269.33c2.75,1.43,7.08-1.61,8.79-5.01.44,1.51,2.44,5.35,5.06,4.55,2.21-.68,4.23-5.05,3.22-7.87,1,2.82,3.9,5.85,7,3.63,1.77-1.27,2.22-5.55.93-6.91.78-.85.98-1.28,1.5-2.42,2.12.65,8.17,1.5,8.47-3.27.17-2.61-3.1-4.26-4.82-5.26.2-.56.18-2.18.18-2.18,2.37-.38,6.41-2.34,5.18-6.25-.57-1.82-2.94-2.15-5.26-2.51,6.3-3.22,2.88-13.06-5.3-9.22-.88-1.32-1.98-1.81-2.44-2.07.07.07,1.55-4.73,1.59-5.2.18-1.9.15-4.23-.88-5.91-2.98-4.89-7.05-.93-9.21,2.14-.8-2.32-1.99-5.74-4.51-6.63-3.72-1.31-5.68,4.26-6.24,7.07.05-.23-6.03-.51-6.66-.52-2.66-.07-5.16.64-6.88,2.8-2.23,2.81-1.86,6.77-.11,9.8-3.11.85-5.82,2.71-6.66,5.75-1.41,5.11,5.23,10.49,10.27,11.59-.7.33-1.35.7-1.9,1.06-2.71,1.8-3.98,5.03-2.23,7.99,1.81,3.04,5.99,4.15,9.57,4.95-1.35,3.8-2.51,7.92,1.33,9.91Z"/>
            <g class="cls-7">
              <path class="cls-5" d="m198.14,209.97c-.77-.88-1.73-1.27-2.79-1.71-1.07-.45-2.08-.57-3.24-.4-1.83.27-2.82,2.34-2.3,4.02.85,2.8,6.89,5,8.69,2.14.81-1.29.63-2.93-.36-4.06Z"/>
              <path class="cls-4" d="m249.15,204.21c1.16-.78,2-1.6,2.76-2.78.44-.68.74-1.49.76-2.31.16-6.42-11.17-1.1-8.36,3.78.91,1.58,3.24,2.38,4.84,1.31Z"/>
              <g>
                <path class="cls-4" d="m254.92,231.96c1.12.71,2.45,1.15,3.64,1.3,1.1.13,2.28-.74,2.79-1.64.55-.98.55-2.21-.02-3.18-1.11-1.9-4.26-4.43-6.58-3.72-1.1.33-2.12,1.2-2.35,2.38-.43,2.11.8,3.79,2.52,4.86Z"/>
                <path class="cls-2" d="m300.62,206.4c.47-1.25.64-2.63.54-3.83-.09-1.11-1.19-2.09-2.18-2.4-1.06-.34-2.28-.09-3.11.66-1.64,1.47-3.48,5.07-2.32,7.19.55,1.01,1.61,1.83,2.81,1.82,2.15,0,3.55-1.55,4.25-3.44Z"/>
                <path class="cls-6" d="m258.37,226.85c.1.08.22.15.32.24-.35-.26-.45-.34-.32-.24Z"/>
              </g>
              <path class="cls-5" d="m222.08,200.14c1.03-.56,1.61-1.42,2.27-2.35.67-.95,1-1.91,1.08-3.08.13-1.85-1.67-3.26-3.43-3.11-2.91.23-6.37,5.64-3.97,8.02,1.08,1.07,2.73,1.25,4.05.52Z"/>
              <path class="cls-4" d="m299.41,228.66c1.3-.58,2.5-1.69,3.1-2.76.36-.63.45-1.39.26-2.09-.37-1.39-1.98-2.46-3.42-1.97-1.11.38-2.01.92-2.99,1.54-1.41.89-1.98,2.69-1.13,4.18.99,1.72,2.65,1.77,4.17,1.1Z"/>
            </g>
            <g>
              <path class="cls-4" d="m335.25,230.19c1.06.79,2.35,1.34,3.53,1.58,1.09.22,2.33-.56,2.91-1.42.62-.93.72-2.16.23-3.17-.96-1.98-3.91-4.75-6.27-4.22-1.12.25-2.2,1.04-2.53,2.19-.59,2.07.51,3.84,2.13,5.04Z"/>
              <path class="cls-2" d="m382.79,208.24c.56-1.21.84-2.58.83-3.78,0-1.11-1.02-2.17-1.99-2.56-1.04-.42-2.26-.27-3.15.42-1.75,1.34-3.86,4.79-2.86,6.99.47,1.05,1.46,1.95,2.66,2.03,2.15.16,3.66-1.27,4.51-3.1Z"/>
              <path class="cls-6" d="m339.08,225.36c.1.09.2.17.3.26-.33-.29-.42-.37-.3-.26Z"/>
            </g>
            <path class="cls-4" d="m401.6,258.33c.15-1.38.07-2.56-.34-3.9-.24-.78-.66-1.53-1.27-2.07-4.8-4.27-8.06,7.82-2.52,8.82,1.8.33,3.91-.94,4.13-2.85Z"/>
            <g>
              <path class="cls-4" d="m426.51,271.85c1.26-.4,2.46-1.12,3.35-1.94.81-.75.91-2.22.54-3.19-.39-1.05-1.33-1.85-2.44-2.04-2.17-.38-6.13.39-7.09,2.62-.46,1.05-.45,2.39.3,3.33,1.33,1.69,3.41,1.83,5.34,1.22Z"/>
              <path class="cls-2" d="m436.52,220.45c-.65-1.16-1.6-2.19-2.58-2.89-.9-.64-2.36-.44-3.24.11-.95.59-1.54,1.68-1.5,2.8.06,2.2,1.63,5.93,4,6.41,1.13.23,2.44-.05,3.21-.97,1.39-1.65,1.11-3.71.12-5.47Z"/>
              <path class="cls-6" d="m424.84,265.92c.13-.03.26-.07.39-.09-.43.1-.55.12-.39.09Z"/>
            </g>
          </g>
        </g>
      </g>
    </g>
  </g>
</svg>