<?xml version="1.0" encoding="UTF-8"?>
<svg xmlns="http://www.w3.org/2000/svg" xmlns:xlink="http://www.w3.org/1999/xlink" viewBox="0 0 540 540">
  <defs>
    <style>
      .cls-1 {
        fill: #c4a48d;
      }

      .cls-2 {
        fill: #e2c7b3;
      }

      .cls-3 {
        isolation: isolate;
      }

      .cls-4 {
        fill: #d3b6a3;
      }

      .cls-5 {
        fill: #af8a71;
      }

      .cls-6 {
        fill: #66625f;
        mix-blend-mode: overlay;
      }

      .cls-7 {
        clip-path: url(#clippath);
      }

      .cls-8 {
        fill: none;
      }

      .cls-9 {
        fill: #d6b6a1;
      }
    </style>
    <clipPath id="clippath">
      <path class="cls-8" d="m66.58,302.89c1.9-13.36,22.58-15.17,116.25-66.63,37.95-20.85,69.32-38.08,104.54-61.36,89.08-58.85,110.43-95.28,132.68-86.39,21.42,8.56,21.94,50.44,23.22,132.34.62,39.69,1.75,110.11,3.57,211.94.31,17.05-15.3,30-31.99,26.5-107.83-22.67-351.37-134.59-348.28-156.39Z"/>
    </clipPath>
  </defs>
  <g class="cls-3">
    <g id="_Layer_" data-name="&amp;lt;Layer&amp;gt;">
      <g>
        <g>
          <path class="cls-9" d="m93.17,298.31c1.9-13.36,22.58-15.17,116.26-66.63,37.95-20.85,69.32-38.08,104.54-61.36,89.08-58.85,110.43-95.28,132.68-86.39,21.42,8.56,21.94,50.44,23.22,132.34.62,39.69,1.75,110.11,3.57,211.94.31,17.05-15.3,30-31.99,26.5-107.83-22.67-351.37-134.59-348.28-156.39Z"/>
          <path class="cls-2" d="m390.24,97.52c2.69-2.3,23.13-16.33,35.92-17.27,12.85-.94,22.16,4.41,25.14,6.29-6.54-3.73-14.39-1.9-17.85,3.29-2.56,3.83-2.5,9.15.05,13.57-.69-2.01-3.09-8.14-9.52-12.11-9.91-6.11-32.67,5.76-33.73,6.23Z"/>
          <path class="cls-1" d="m441.76,90.62c3.6,8.92,8.51,22.61,12.11,39.78,7.99,38.11,2.37,59.04.17,101.03-2.8,53.43,4.57,52.8,4.16,136.1-.14,28.61-1.13,52.01-1.93,67.24"/>
          <g>
            <path class="cls-2" d="m66.58,302.89c1.9-13.36,22.58-15.17,116.25-66.63,37.95-20.85,69.32-38.08,104.54-61.36,89.08-58.85,110.43-95.28,132.68-86.39,21.42,8.56,21.94,50.44,23.22,132.34.62,39.69,1.75,110.11,3.57,211.94.31,17.05-15.3,30-31.99,26.5-107.83-22.67-351.37-134.59-348.28-156.39Z"/>
            <path class="cls-4" d="m119.41,294.81c-.7-15.48,37.69-36.84,73.34-34,27.69,2.21,32.55,17.32,51.7,13.91,22.29-3.98,23.15-25.78,59.47-63.37,6.42-6.64,23.37-20.15,57.26-47.18,45.46-36.24,51.01-38.69,54.45-36.57,10.58,6.52-18.2,44.22-15.85,106.41.73,19.49,4.94,52.36,14.25,87.14,8.01,29.92,15.83,46.4,6.95,60.04-10.58,16.25-36.94,16.26-42.07,16.26-40.86.01-47.62-32.23-98.75-51.91-34.14-13.14-39.28-1.91-96.41-18.61-33.52-9.8-63.74-18.63-64.34-32.12Z"/>
            <path class="cls-5" d="m229.7,247.8c-6.29,3.29-10.29,7.07-14.37,10.93-8.07,7.63-15.79,14.92-14.09,20.24,1.83,5.73,12.38,2.3,27,9.86,15.02,7.77,16.24,17.77,24.45,17.24,9.65-.62,19.86-15.21,17.38-25.46-2.41-9.97-15.66-11.07-16.31-20.26-.59-8.24,9.71-12.62,7.91-16.45-2.16-4.58-19.04-2.87-31.97,3.9Z"/>
            <path class="cls-5" d="m363.8,145.5c-4.81,2.9-10.23,7.88-9.17,10.6,1.03,2.67,7.21.35,10.79,4.04,4.9,5.06-1.49,14.74,2.21,17.82,3.7,3.08,15.46-2.06,21.59-10.98,4.34-6.31,8.09-17.76,2.73-23.85-6.41-7.3-21.34-1.75-28.15,2.35Z"/>
            <path class="cls-5" d="m331.07,173.65c-1.88.94-1.38,12.4,4.72,14.56,6.47,2.29,14.17-7.67,13.15-9.55-.69-1.27-5.11,1.62-10.76-.43-4.59-1.67-5.99-5.13-7.11-4.57Z"/>
            <path class="cls-5" d="m381.24,274.09c-6.22-.43-11.64,5.06-13.73,9.98-2.23,5.26.43,7.28-.69,16.4-1.18,9.58-4.71,12.15-3.01,14.54,3.17,4.45,20.52,2.67,27.96-8.56,4.69-7.08,4.64-16.7.64-23.62-1.07-1.85-4.79-8.29-11.18-8.74Z"/>
            <path class="cls-5" d="m285.93,247.38c-4.15-1.46-10.72,5.64-9.47,9.02,1.13,3.07,9.42,4.92,12.23.98,2.24-3.14.29-8.92-2.76-10Z"/>
            <path class="cls-5" d="m139,291.98c-8.21-3.93-24.92,6.29-24.74,15.19.08,4,3.52,4.76,15.03,15.79,11.55,11.07,12.19,14.24,16.56,14.62,10.47.91,22.98-15.92,19.68-23.43-2.28-5.21-10.65-2.52-18.46-10.76-5.28-5.57-3.98-9.45-8.07-11.4Z"/>
            <path class="cls-5" d="m246.53,360.2c-1.44,1.37-2.73,3.75-2.18,5.89.97,3.72,7.15,5.04,11.01,4.93,6.14-.17,12.98-4.12,12.66-7.21-.45-4.39-15.62-9.2-21.5-3.61Z"/>
            <path class="cls-5" d="m359.83,363.3c-3.9-5.13-18.08-4.65-23.67,2.28-5.28,6.53.38,14.74-5.64,21.22-4.37,4.71-9.86,3.06-10.36,5.46-1.11,5.33,24.2,22.39,44.77,14.34,6.82-2.67,15.82-9.15,15.11-15.12-.9-7.6-16.88-9.04-19.2-20.48-.78-3.84.66-5.49-1.01-7.7Z"/>
          </g>
        </g>
        <g class="cls-7">
          <path class="cls-6" d="m435.54,80.63c-25.78,16.33-166.75,103.11-191.71,181.97-37.6,118.79,119.75,177.17,133.05,193.31-112.6-48.02-225.2-96.04-337.8-144.05,4-23.74,11.73-43.89,20.95-60.86C140.24,103.48,395.12,83.36,435.54,80.63Z"/>
        </g>
      </g>
    </g>
  </g>
</svg>