<?xml version="1.0" encoding="UTF-8"?>
<svg xmlns="http://www.w3.org/2000/svg" xmlns:xlink="http://www.w3.org/1999/xlink" viewBox="0 0 540 540">
  <defs>
    <style>
      .cls-1 {
        fill: #fff;
      }

      .cls-2 {
        fill: #d65d5b;
      }

      .cls-3 {
        isolation: isolate;
      }

      .cls-4 {
        fill: #c4544e;
      }

      .cls-5 {
        clip-path: url(#clippath-1);
      }

      .cls-6 {
        fill: #c9c9c9;
        opacity: .53;
      }

      .cls-6, .cls-7 {
        mix-blend-mode: overlay;
      }

      .cls-7 {
        fill: #515151;
      }

      .cls-8 {
        fill: none;
      }
    </style>
    <clipPath id="clippath-1">
      <circle class="cls-8" cx="267.03" cy="270" r="166.61"/>
    </clipPath>
  </defs>
  <g class="cls-3">
    <g id="_Layer_" data-name="&amp;lt;Layer&amp;gt;">
      <g>
        <g>
          <circle class="cls-4" cx="267.27" cy="270" r="166.61"/>
          <path class="cls-2" d="m405.97,284.65c0,73.35-83.83,123.32-157.18,123.32s-126.61-77.79-126.61-151.13,71.5-133,144.85-133,138.94,87.46,138.94,160.81Z"/>
          <g>
            <path class="cls-1" d="m197.75,276.57c-11.32,8.75-28.17,6.5-34.51-7.13-3.94-8.47-5.02-20.42,3.48-26.89,5.28-4.02,14.29-6.52,20.26-5.13,7.45,1.74,5.24,13.74-2.53,11.31-11.06-3.46-9.62,9.79-8.09,13.65,2.34,5.92,7.96,12.46,15.3,4.69,6.4-6.78,13.34,3.91,6.1,9.51Z"/>
            <path class="cls-1" d="m220.73,263.31c-.61-7.44-1.98-9.28-4.39-8.65-2.41.64-3.38,2.36.1,10.44,2.53,5.87-7.5,11.17-11.94,5.67-2.76-3.41-4.87-9.17-6.33-15.38-1.74-7.4-5.06-14.42-4.47-17.74,1.22-6.77,11.88-8.44,14.16-3.35,1.26,2.83,2.38,5.77,3.16,9.12.89,3.86,1.91,4.47,3.59,4.13,2.22-.44,3.43-1.38,2.49-5.72-.51-2.37-.96-4.18-1.74-8.24-1.48-7.66,13.36-9.41,14.93-2.28,2.36,10.76,5.21,23.13,3.51,33.53-.75,4.58-12.32,7.52-13.07-1.54Z"/>
            <path class="cls-1" d="m238.95,262c-3.75-10.21-6.95-26.01-3.55-33.23,3.14-6.66,21.55-6.62,30.43-4.04,5.28,1.97,3.13,9.65-2.25,10.14-5.34.49-13.29-2.37-14.01-.2-.47,1.41-.34,5.35.25,6.33.32.54,6.32-.81,11.08-.18,3.54.46,3.58,6.37.31,7.66-4.88,1.93-10.61.24-10.75,1.55-.23,2.15.41,4.41.76,4.85,1.04,1.29,6.2-1.18,11.6-1.17,5.39.02,7.54,7.78.63,10.25-6.91,2.48-21.89,5.15-24.5-1.97Z"/>
            <path class="cls-1" d="m271.37,260.22c-2.22-10.65-3.07-26.74,1.35-33.39,4.08-6.13,22.3-3.4,30.71.45,4.95,2.72,1.69,10.01-3.72,9.7-5.37-.3-12.82-4.29-13.85-2.24-.67,1.33-1.12,5.25-.67,6.29.24.58,6.37.12,11,1.44,3.44.98,2.62,6.82-.82,7.62-5.12,1.19-10.54-1.32-10.87-.04-.54,2.09-.24,4.42.04,4.91.84,1.43,6.31-.27,11.65.54,5.34.81,6.34,8.8-.87,10.23-7.21,1.44-22.41,1.9-23.95-5.52Z"/>
            <path class="cls-1" d="m325.29,228.21c6.82.67,9.97,3.32,11.89,5.06,6.52,5.9-2.74,13.42-6.7,9.42-4.18-4.23-8.02-4.07-8.57.26-.54,4.33,9.57,4.28,13.54,12.19,4.99,9.93-4.83,19.37-14.77,17.9-11.47-1.7-16.54-7.48-17.97-9.71-2.81-4.38,2.39-12.85,7.93-8.62,6.76,5.17,10.63,9.09,11.99,6.36,2.1-4.2-16.07-7.25-15.27-18.3.85-11.8,11.52-15.19,17.93-14.56Z"/>
            <path class="cls-1" d="m336.7,271.34c1-10.83,4.97-26.5,11.17-31.5,5.8-4.67,22.65,3.51,29.68,9.74,4.02,4.12-1.31,10.08-6.48,8.14-5.14-1.93-11.2-8-12.8-6.36-1.04,1.07-2.63,4.68-2.51,5.81.06.63,6.15,2.05,10.27,4.72,3.06,1.98.54,7.32-3.04,7.04-5.33-.43-9.85-4.46-10.55-3.34-1.14,1.84-1.54,4.15-1.41,4.7.39,1.62,6.21,1.66,11.17,4.06,4.96,2.41,3.58,10.35-3.87,9.52-7.44-.83-22.31-4.97-21.61-12.53Z"/>
          </g>
          <path class="cls-6" d="m318.51,124.24c-17.47-1.91-39.73,3.31-42.32,13.3-1.33,5.14,2.63,11.2,32.64,36.27,43.14,36.02,51.37,46.5,58.82,60.54,13.82,26.03,2.28,39.18,13.72,43.44,7.92,2.95,20.66-5.55,26.6-15.72,22.04-37.73-30.3-131.35-89.47-137.83Z"/>
          <circle class="cls-6" cx="383" cy="307.91" r="15.72"/>
          <g class="cls-5">
            <path class="cls-7" d="m419.27,116.59c.18,6.27-127.35-21.76-202.32,14.51-16.67,8.06-78.55,48.11-82.92,126.96-4.4,79.35,56.07,129.92,62.87,135.42,66.77,53.97,146.58,33.67,154.76,31.44-11.08,18.5-28.57,40.27-55.62,53.2-78.31,37.42-202.19-15.8-249.07-113.65C5.3,277.46,29.73,166.08,105.01,105.72c100.38-80.48,313.99,1.65,314.26,10.87Z"/>
          </g>
        </g>
        <rect class="cls-4" x="428.17" y="255.3" width="11.41" height="37.94" rx="5.71" ry="5.71"/>
      </g>
    </g>
  </g>
</svg>