<?xml version="1.0" encoding="UTF-8"?>
<svg xmlns="http://www.w3.org/2000/svg" xmlns:xlink="http://www.w3.org/1999/xlink" viewBox="0 0 540 540">
  <defs>
    <style>
      .cls-1 {
        clip-path: url(#clippath-2);
      }

      .cls-2 {
        isolation: isolate;
      }

      .cls-3 {
        fill: #8ec4ed;
      }

      .cls-4 {
        fill: #8dc4a4;
      }

      .cls-5 {
        clip-path: url(#clippath-1);
      }

      .cls-6 {
        fill: #ffead9;
      }

      .cls-7 {
        fill: none;
      }

      .cls-8 {
        fill: #b0e1ff;
      }

      .cls-9 {
        clip-path: url(#clippath-3);
      }

      .cls-10 {
        fill: #ffe7a4;
      }

      .cls-11 {
        fill: #4f4f4f;
        mix-blend-mode: overlay;
        opacity: .96;
      }
    </style>
    <clipPath id="clippath-1">
      <path class="cls-7" d="m374.32,356.02l-53.34,4.55c-42.58,3.63-59.39,3.63-101.96,0l-53.34-4.55-13-145.13,48.54,4.31c42.63,3.79,85.51,3.93,128.17.44l57.94-4.75-13,145.13Z"/>
    </clipPath>
    <clipPath id="clippath-2">
      <path class="cls-7" d="m385.57,406.18l-43.22,13.02c-52.1,15.69-107.86,14.3-159.12-3.98l-42.52-15.16-23.09-260.03,303.99,7.6-36.05,258.55Z"/>
    </clipPath>
    <clipPath id="clippath-3">
      <path class="cls-7" d="m465.72,132.88c0,12.65-87.63,22.91-195.72,22.91-108.09,0-195.72-10.26-195.72-22.91s87.63-22.91,195.72-22.91,195.72,10.26,195.72,22.91Z"/>
    </clipPath>
  </defs>
  <g class="cls-2">
    <g id="_Layer_" data-name="&amp;lt;Layer&amp;gt;">
      <g>
        <path class="cls-6" d="m385.57,406.18l-43.22,13.02c-52.1,15.69-107.86,14.3-159.12-3.98l-42.52-15.16-23.09-260.03,303.99,7.6-36.05,258.55Z"/>
        <g>
          <path class="cls-4" d="m374.32,356.02l-53.34,4.55c-42.58,3.63-59.39,3.63-101.96,0l-53.34-4.55-13-145.13,48.54,4.31c42.63,3.79,85.51,3.93,128.17.44l57.94-4.75-13,145.13Z"/>
          <g class="cls-5">
            <path class="cls-8" d="m72.7,332.21c23.27-21.01,56.6-45.6,100.91-63.5,120.38-48.63,232.66-11.9,267.59,1.13-2.65-23.81-5.29-47.62-7.94-71.43-113.39.38-226.77.76-340.16,1.13-6.8,44.22-13.61,88.44-20.41,132.66Z"/>
          </g>
          <g class="cls-1">
            <path class="cls-11" d="m169.7,126.64c.5,30.21,1.58,71.65,4.07,121.02,4.62,91.61,9,109.02,22.38,126,9.81,12.45,48.52,55.2,171.47,61.92-21.58,7.59-68.13,21.12-128.04,16.01-77.11-6.58-127.69-39.88-144.77-52.21,2.81-93.35,5.61-186.7,8.42-280.05,22.16,2.44,44.32,4.87,66.47,7.31Z"/>
          </g>
          <g>
            <path class="cls-10" d="m196.38,311.79c-12.96,2.68-23.26-5.97-21.35-19.64,1.52-10.84,6.66-16.92,12.79-18.05,4.52-.83,10.6.51,13.9,3.58,4.13,3.84-.95,12.55-5.17,7.89-6.02-6.64-9.69,3.72-10.19,7.21-.76,5.36.74,12.77,8.83,9.49,7.06-2.86,8.86,7.94,1.18,9.53Z"/>
            <path class="cls-10" d="m207.93,279.19c1.61-2.28,10.35-1.41,9.35,3.72-.85,4.34-6.02,22.91-1.75,22.5,4.58-.44,5.45-19.27,4.88-22.91-.57-3.64,8.03-6.75,9.75-.89,2.49,8.51,1.78,21.06-2.95,27.97-5.35,7.81-22.31,6.91-24.12-4.33-1.74-10.85,3.23-23.79,4.84-26.07Z"/>
            <path class="cls-10" d="m245.39,278.44c4.68-.54,7.14.96,8.7,1.99,5.33,3.48.34,11.68-3.11,9.13-3.65-2.69-6.3-1.97-6.14,1.72.17,3.7,7.27,1.9,11.99,7.49,5.95,7.05.93,17.29-8.26,17.79-10.18.56-15.15-3.99-16.54-5.76-2.74-3.46.8-11,5.64-8.09,5.9,3.55,9.76,6.06,10.39,3.55.97-3.87-13.76-3.85-14-13.26-.26-10.05,6.93-14.06,11.33-14.57Z"/>
            <path class="cls-10" d="m267.84,289.64s-3.7,1.48-6.81.79c-3.1-.69-4.2-7.8-.35-9.31,4.6-1.8,17.39-.8,23.12-.45,5.73.34,5.33,6.13,4.2,8.68-1.13,2.55-8.05.3-9.01.31-.97,0,.23,16.35-.85,22.26-1.08,5.91-7.54,4.7-9.3,2.9s-2.13-5.14-2.31-8.94c-.18-3.79.77-14.26,1.32-16.23h0Z"/>
            <path class="cls-10" d="m305.16,310.78c-.5-3.43-.6-8.94-3.56-8.93-2.95,0-2.4,5.97-4.26,10.59-2.37,5.87-11.67,4.39-11.75-.35-.06-3.9,2.47-8.05,3.57-13.24,1.38-6.49,1.49-21.98,12.37-20.78,10.83,1.19,14.63,20.32,15.26,31.1.4,6.88-10.69,8.1-11.63,1.61Zm-3.44-22.75c-.92-.23-1.92,7.3-1.15,7.74.78.45,2.52.43,2.7-.53.18-.96-.4-6.93-1.55-7.21Z"/>
            <path class="cls-10" d="m345.23,305.05c2.26,3.48-1.87,9.72-6.47,8.36-4.87-1.44-8.47-7.72-9.38-10.73.43,1.46,1.62,4.96,1.01,8.28-.89,4.85-9.91,5.38-11.35,1.24-1.81-5.2-.6-10.09-.83-15.36-.19-4.57-1.3-8.29-1.52-12.08-.4-6.96,7.62-7.89,14.07-7.73,6.65.16,11.35,5.11,12.7,9.62,2.43,8.18-1.26,12.24-4.5,12.47,0,0,3.71,2,6.27,5.93Zm-14.27-18.07c-.7-.63-1.72-1.06-2.39.19-.51.95.32,4.77.49,5.73.29,1.64,3.08,2.26,3.83-.95.45-1.94-.51-3.69-1.93-4.97Z"/>
            <path class="cls-10" d="m346.83,296.08c-1.24-5.67-2.55-15.84-1.27-17.88,1.28-2.04,5.03-4.79,13.19-4.24,8.83.59,14.44,9.64,15.16,19.54.47,6.45-.82,11.47-4.33,14.98-4.96,4.94-18.09,5.15-20.57,2.01-1.38-1.75-.52-6.85-2.17-14.41Zm10.83-1.12c.33,3.62.42,6.95,1.61,7.85,1.19.89,3.89-1.59,2.92-9.35-.78-6.19-3.06-10.29-5.48-10-.8.1.61,7.89.95,11.51Z"/>
          </g>
        </g>
        <g>
          <path class="cls-3" d="m465.72,132.88c0,12.65-87.63,22.91-195.72,22.91-108.09,0-195.72-10.26-195.72-22.91s87.63-22.91,195.72-22.91,195.72,10.26,195.72,22.91Z"/>
          <path class="cls-3" d="m324.74,149.08c.03,2.35,20.19.71,36.11,14.91,5.48,4.89,5.6,7.32,10.78,10.11,14.42,7.79,35.41.81,36.11-5.32.42-3.65-6.61-4.8-8.62-11.71-1.7-5.85,1.29-12.04,4.85-17.04-62.18,3.94-79.25,6.89-79.22,9.05Z"/>
          <path class="cls-10" d="m363.19,155.13c.36-1.74,6.67-.86,23.35,0,8.07,6.4,13.42,9.89,12.23,11.82-2.61,4.22-36.47-7.59-35.58-11.82Z"/>
          <g class="cls-9">
            <path class="cls-11" d="m273.96,91.26c-86.36,9.49-130.02,21.67-130.96,36.57-.64,10.1,18.35,21.44,56.98,34.02-66.89,5.7-141.07,6.46-149.67-19.56-4.52-13.67,10.67-29.87,16.16-35.72,57.94-61.78,189.72-21.03,207.5-15.31Z"/>
          </g>
        </g>
      </g>
    </g>
  </g>
</svg>