<?xml version="1.0" encoding="UTF-8"?>
<svg xmlns="http://www.w3.org/2000/svg" xmlns:xlink="http://www.w3.org/1999/xlink" viewBox="0 0 540 540">
  <defs>
    <style>
      .cls-1 {
        fill: #b2afad;
      }

      .cls-2 {
        fill: #fff;
      }

      .cls-3 {
        stroke-width: 3px;
      }

      .cls-3, .cls-4 {
        fill: #c9c9c9;
        stroke: #b2afad;
        stroke-miterlimit: 10;
      }

      .cls-5 {
        clip-path: url(#clippath-2);
      }

      .cls-6 {
        isolation: isolate;
      }

      .cls-7 {
        fill: #727272;
        mix-blend-mode: overlay;
      }

      .cls-8 {
        fill: #65aa81;
      }

      .cls-9 {
        clip-path: url(#clippath-1);
      }

      .cls-10 {
        fill: #9accab;
        opacity: .57;
      }

      .cls-11 {
        fill: #f9efac;
      }

      .cls-12 {
        clip-path: url(#clippath);
      }

      .cls-13 {
        fill: none;
      }

      .cls-4 {
        stroke-width: 5px;
      }
    </style>
    <clipPath id="clippath">
      <path class="cls-13" d="m360.48,434.66h0c-60.13,6.65-120.82,6.65-180.95,0h0V114.6h0c60.13,6.65,120.82,6.65,180.95,0h0s0,320.06,0,320.06Z"/>
    </clipPath>
    <clipPath id="clippath-1">
      <path class="cls-13" d="m360.48,434.66h0c-60.13,6.65-120.82,6.65-180.95,0h0V114.6h0c60.13,6.65,120.82,6.65,180.95,0h0s0,320.06,0,320.06Z"/>
    </clipPath>
    <clipPath id="clippath-2">
      <path class="cls-13" d="m360.48,434.66h0c-60.13,6.65-120.82,6.65-180.95,0h0V114.6h0c60.13,6.65,120.82,6.65,180.95,0h0s0,320.06,0,320.06Z"/>
    </clipPath>
  </defs>
  <g class="cls-6">
    <g id="_Layer_" data-name="&amp;lt;Layer&amp;gt;">
      <g>
        <g>
          <path class="cls-8" d="m360.48,434.66h0c-60.13,6.65-120.82,6.65-180.95,0h0V114.6h0c60.13,6.65,120.82,6.65,180.95,0h0s0,320.06,0,320.06Z"/>
          <ellipse class="cls-4" cx="270" cy="112.6" rx="90.48" ry="12.24"/>
          <g class="cls-12">
            <path class="cls-11" d="m134.74,285.74c15.48-24.19,40.32-56.52,78.24-86.17,64.51-50.45,131.2-65.24,165.54-70.3-.38-9.07-.76-18.14-1.13-27.21-74.46,1.13-148.91,2.27-223.37,3.4-6.43,60.09-12.85,120.19-19.28,180.28Z"/>
          </g>
          <g>
            <path class="cls-2" d="m206.5,253.72c-.18-1.86-1.67-4.79-1.67-4.79-.63.59-.18,5.47-.24,6.31-.16,2.23-3.85,3.1-5.13,1.68-1.19-1.33-2.79-5.35-3.55-5.11,0,0,.09,2.62,1.22,5.05,1.34,2.91-3.21,5.75-5.52,3.07-1.43-1.66-2.23-4.64-3.07-7.74-1.01-3.68-1.92-6.83-1.62-9.24.38-3.01,4.21-3.68,6.74-2.22,2.98,1.71,5.7,5.64,5.7,5.64,0,0,.41-4.44,1.7-7.13,1.84-3.82,5.24-4.56,7.35-1.45,2.5,3.68,4.9,13.42,4.53,16.3-.31,2.44-6.02,4.17-6.45-.37Z"/>
            <path class="cls-2" d="m224.76,250.13c-.57-1.96-1.1-5.18-2.85-4.91-1.75.28-.87,3.71-1.46,6.57-.75,3.65-6.07,3.82-6.71,1.1-.53-2.24.41-4.95.46-8.08.06-3.92-2.66-11.93,5.58-13.47,7.12-1.33,10.84,12.07,11.59,17.04.61,4.05-5.51,5.46-6.6,1.74Zm-4.01-12.98c-.6-.04-.53,4.45-.01,4.63.51.18,1.57.01,1.59-.56.03-.57-.83-4.01-1.58-4.07Z"/>
            <path class="cls-2" d="m232.99,249.2c-2.33-4.3-2.68-15.03-2.21-17.49.46-2.46,5.78-2.93,6.53.3.75,3.23.61,12.51,1.14,13.13.54.62,3.08-1.02,5.67-1.23,2.59-.2,4.07,3.93.78,5.45-3.29,1.52-10.07,3.22-11.91-.17Z"/>
            <path class="cls-2" d="m244.83,234.86c-1.98-.18-3.24-4.26-.87-5.43,2.84-1.4,11.21-1.44,14.93-1.34,3.72.1,3.46,3.56,2.77,5.07-.7,1.51-5.05.31-5.65.34-.61.03.56,9.64.11,13.15-.45,3.51-4.12,3.04-5.21,2.06-1.09-.98-1.49-2.92-1.8-5.14-.31-2.22-.32-8.43-.07-9.62,0,0-2.22,1.08-4.2.9Z"/>
            <path class="cls-2" d="m273.18,239.17c-.34-3.41-.45-9.47.53-10.57.98-1.1,3.68-2.48,8.86-1.31,5.6,1.27,7.83,7.31,6.94,13.1-.57,3.77-1.96,6.49-4.32,8.11-3.33,2.29-10.57,1.27-11.76-.74-.66-1.12.2-4.05-.26-8.6Zm6.56.23c-.15,2.14-.4,4.09.2,4.72s2.41-.54,2.65-5.15c.2-3.68-.77-6.31-2.3-6.37-.51-.02-.4,4.65-.55,6.8Z"/>
            <path class="cls-2" d="m305.79,247.05c.78,2.32-2.4,5.29-4.77,3.92-2.51-1.45-3.85-5.47-4.04-7.32.09.9.37,3.05-.34,4.91-1.04,2.71-6.08,2.15-6.54-.39-.58-3.19.53-5.94.86-9.04.29-2.69-.06-4.95.14-7.19.37-4.1,5.65-3.88,9.76-2.97,4.23.93,6.47,4.51,6.61,7.29.26,5.04-2.53,6.81-4.45,6.51,0,0,1.9,1.66,2.78,4.28Zm-6.04-12.31c-.36-.45-.94-.82-1.5-.18-.43.49-.35,2.8-.36,3.38-.01.99,1.58,1.67,2.43-.09.51-1.07.15-2.2-.57-3.11Z"/>
            <path class="cls-2" d="m307.04,249.01c-.02-3.77,1.94-14.69,2.8-16.46,1.23-2.54,6.81-1.49,6.81,1.17,0,2.66-.77,4.32-1.64,8.7-.62,3.11-.76,5.34-1.18,7.64-.64,3.42-6.76,3.17-6.78-1.06Z"/>
            <path class="cls-2" d="m323.3,252.81c-.45-1.53-1.14-4.44-1.3-3.86-.33,1.17-.36,1.74-.64,2.93-.87,3.82-6.59,2.18-6.11-1.45.76-5.81,2.33-14.01,3.94-16.46,1.36-2.07,5.22-.82,6.06.45,1.36,2.04.7,8.84,1.15,9.04s.29-4.32,1.9-7.4c1.05-2.01,6.04-1.55,6.41,1.59.26,2.2-.91,5.23-1.91,8.27-1.19,3.62-2.06,8.12-3.35,9.15-1.89,1.51-5.21.88-6.14-2.27Z"/>
            <path class="cls-2" d="m332.18,255.5c-.01-3.24,1.93-6.39,2.8-9.37.76-2.59.69-4.63.8-6.31.32-4.7,6.74-2.8,7.46.1.51,2.06-1.58,6.5-1.58,6.5,0,0,3.98-5.69,6.57-6.15,3.79-.67,5.7,4.9,3.45,6.64-2.25,1.75-5.67,3.97-5.67,3.97,0,0,.75,2.54,1.84,4.82,1.9,4-3.07,6.47-5.23,4.25-2.94-3.01-2.31-7.02-2.51-8.2-.11.67-.71,3.31-1.85,5.19-1.5,2.49-6.07,1.13-6.08-1.45Z"/>
          </g>
          <g class="cls-9">
            <path class="cls-10" d="m138.7,308.99c6.38,7.75,44.98,53.15,103.18,53.29,63.36.15,124.64-53.4,139.46-131.53,1.13,20.41,2.27,40.82,3.4,61.23-9.33,22.11-25.94,52.69-55.56,80.5-74.49,69.95-171.19,66.03-192.76,64.63.76-42.71,1.51-85.42,2.27-128.13Z"/>
          </g>
        </g>
        <g class="cls-5">
          <path class="cls-7" d="m193.7,91.85c.94,104.5,1.89,209.01,2.83,313.51,8.47,6.13,18.46,12.25,30.05,17.57,44.69,20.54,87.55,17.6,110.96,13.93-2.97,5.37-5.94,10.75-8.91,16.12-57.83-.94-115.65-1.89-173.48-2.83,5.67-119.62,11.34-239.24,17.01-358.87,7.18.19,14.36.38,21.54.57Z"/>
        </g>
        <path class="cls-3" d="m310.67,107.72c-3.35-4.32-81.41-5.83-81.41-5.83,0,0-17.57-.31-20.53,7.15-3.57,8.98,17.77,8.42,17.77,8.42,0,0,87.9-4.94,84.18-9.74Z"/>
        <ellipse class="cls-3" cx="233" cy="109.88" rx="13.04" ry="2.72"/>
        <path class="cls-1" d="m180.35,117.45c28.64,3.87,57.35,6.06,86.26,6.31,31.09.27,62.02-2.59,92.86-6.21,3.73-.44,3.77-6.34,0-5.9-30.2,3.54-60.47,6.38-90.91,6.22-29.01-.15-57.89-2.23-86.64-6.12-3.71-.5-5.32,5.18-1.57,5.69h0Z"/>
      </g>
    </g>
  </g>
</svg>