<?xml version="1.0" encoding="UTF-8"?>
<svg xmlns="http://www.w3.org/2000/svg" xmlns:xlink="http://www.w3.org/1999/xlink" viewBox="0 0 540 540">
  <defs>
    <style>
      .cls-1 {
        fill: #fff;
      }

      .cls-2, .cls-3 {
        fill: #9db6fc;
      }

      .cls-4 {
        fill: #8ca6e0;
      }

      .cls-5 {
        clip-path: url(#clippath-2);
      }

      .cls-6 {
        isolation: isolate;
      }

      .cls-7 {
        clip-path: url(#clippath-1);
      }

      .cls-8 {
        fill: #bababa;
      }

      .cls-8, .cls-9 {
        mix-blend-mode: overlay;
      }

      .cls-10 {
        clip-path: url(#clippath);
      }

      .cls-11 {
        fill: none;
      }

      .cls-12 {
        clip-path: url(#clippath-3);
      }

      .cls-13 {
        fill: #4f4540;
      }

      .cls-14 {
        fill: #fce3cd;
      }

      .cls-15 {
        fill: #ffeedc;
      }

      .cls-3 {
        font-family: OmpalumpaRegular, Ompalumpa;
        font-size: 44px;
      }

      .cls-9 {
        fill: #595959;
      }
    </style>
    <clipPath id="clippath">
      <path class="cls-11" d="m336.33,467.01h-132.66c-27.24,0-49.32-22.08-49.32-49.32v-169.91c0-28.84,9.21-56.92,26.29-80.16l13.71-18.66h151.31l13.71,18.66c17.08,23.24,26.29,51.32,26.29,80.16v169.91c0,27.24-22.08,49.32-49.32,49.32Z"/>
    </clipPath>
    <clipPath id="clippath-1">
      <path class="cls-11" d="m349.37,137.62l-22.2,1.98c-38.04,3.4-76.31,3.4-114.35,0l-22.2-1.98v-48.19c0-9.08,7.36-16.44,16.44-16.44h125.86c9.08,0,16.44,7.36,16.44,16.44v48.19Z"/>
    </clipPath>
    <clipPath id="clippath-2">
      <path class="cls-11" d="m350.35,137.62l-22.2,1.98c-38.04,3.4-76.31,3.4-114.35,0l-22.2-1.98v-48.19c0-9.08,7.36-16.44,16.44-16.44h125.86c9.08,0,16.44,7.36,16.44,16.44v48.19Z"/>
    </clipPath>
    <clipPath id="clippath-3">
      <path class="cls-11" d="m385.65,372.82l-66.39,5.74c-32.78,2.83-65.75,2.83-98.53,0l-66.39-5.74v-128.4l66.39,5.74c32.78,2.83,65.75,2.83,98.53,0l66.39-5.74v128.4Z"/>
    </clipPath>
  </defs>
  <g class="cls-6">
    <g id="_Layer_" data-name="&amp;lt;Layer&amp;gt;">
      <g>
        <path class="cls-15" d="m336.33,467.01h-132.66c-27.24,0-49.32-22.08-49.32-49.32v-169.91c0-28.84,9.21-56.92,26.29-80.16l13.71-18.66h151.31l13.71,18.66c17.08,23.24,26.29,51.32,26.29,80.16v169.91c0,27.24-22.08,49.32-49.32,49.32Z"/>
        <path class="cls-1" d="m385.65,372.82l-66.39,5.74c-32.78,2.83-65.75,2.83-98.53,0l-66.39-5.74v-128.4l66.39,5.74c32.78,2.83,65.75,2.83,98.53,0l66.39-5.74v128.4Z"/>
        <g class="cls-10">
          <path class="cls-9" d="m234,115.8c.05,28.02-7.43,46.24-14.46,57.83-7.76,12.8-15.84,18.92-23.81,35.72-7.03,14.82-9.48,28.48-10.45,37.75.37,58.85.73,117.7,1.1,176.55,1.21,6.63,4.03,16.26,11.06,25.51,19.03,25.05,51.79,24.77,56.13,24.66h-102.9c-8.22-68.03-16.44-136.06-24.66-204.09-14.25-50.06-.48-101.36,34.87-130.11,28.26-22.98,61.07-24.04,73.13-23.81Z"/>
        </g>
        <path class="cls-14" d="m346.25,151.8l-8.69.74c-44.96,3.84-90.17,3.84-135.13,0l-8.69-.74c-3.9,0-7.09-3.19-7.09-7.09h0c0-3.9,3.19-7.09,7.09-7.09h152.5c3.9,0,7.09,3.19,7.09,7.09h0c0,3.9-3.19,7.09-7.09,7.09Z"/>
        <path class="cls-2" d="m350.35,137.62l-22.2,1.98c-38.04,3.4-76.31,3.4-114.35,0l-22.2-1.98v-48.19c0-9.08,7.36-16.44,16.44-16.44h125.86c9.08,0,16.44,7.36,16.44,16.44v48.19Z"/>
        <g class="cls-7">
          <path class="cls-9" d="m233.91,27.83c1.27,8.5-26.24,27.29-45.07,35.72-4.82,2.16-15.56,6.54-20.41,17.01-1.71,3.69-2.11,6.89-2.55,12.76-.62,8.23-1.17,19.77-.85,34.02-17.57-2.55-35.15-5.1-52.72-7.65-13.7-31.87-9.67-66.75,10.2-88.44,36.57-39.9,109.48-16.25,111.4-3.4Z"/>
        </g>
        <g>
          <rect class="cls-4" x="206.66" y="87.73" width="7.65" height="47.62" rx="3.83" ry="3.83"/>
          <rect class="cls-4" x="226.66" y="87.73" width="7.65" height="47.62" rx="3.83" ry="3.83"/>
          <rect class="cls-4" x="246.66" y="87.73" width="7.65" height="47.62" rx="3.83" ry="3.83"/>
          <rect class="cls-4" x="266.66" y="87.73" width="7.65" height="47.62" rx="3.83" ry="3.83"/>
          <rect class="cls-4" x="286.66" y="87.73" width="7.65" height="47.62" rx="3.83" ry="3.83"/>
          <rect class="cls-4" x="306.66" y="87.73" width="7.65" height="47.62" rx="3.83" ry="3.83"/>
          <rect class="cls-4" x="327.66" y="87.73" width="7.65" height="47.62" rx="3.83" ry="3.83"/>
        </g>
        <g class="cls-5">
          <path class="cls-9" d="m220.86,112.38c-.03,10.1.77,19.28.84,19.55.25,12.35-.05-2.5.2,9.85-14.74-1.64-29.48-3.28-44.22-4.91-9.86-23.03-5.7-49.11,10.2-65.39,20.26-20.72,56.67-22.58,82.39-1.13l-23.63,5.29c-13.41,4.96-25.75,22.45-25.79,36.75Z"/>
        </g>
        <path class="cls-8" d="m319.89,167.67c-5.29,1.86-8.07,9.04-8.5,14.46-1.2,14.91,15.06,20.14,26.36,37.42,14.47,22.13,2.23,35.6,13.61,92.69,2.36,11.85,6.48,32.55,10.2,32.31,5-.31,6.11-38.19,6.8-62.08,1.66-56.85-3.81-70.25-6.8-76.54-10.06-21.14-30.39-42.23-41.67-38.27Z"/>
        <circle class="cls-1" cx="270.98" cy="316.34" r="52.86"/>
        <path class="cls-13" d="m213.02,287.33c11.83-8.78,12.71-12.62,12.94-14.14.07-.44.72-5.31-2.24-9.44-4.92-6.87-16.29-6.81-23.61-3.99-8.2,3.16-17.21,12.05-15.64,22.18.99,6.41,6.2,13.16,12.59,13.96,3.78.48,7.84-2.54,15.96-8.56Z"/>
        <text class="cls-3" transform="translate(221.88 328.22)"><tspan x="0" y="0">MILK</tspan></text>
        <g class="cls-12">
          <path class="cls-13" d="m137.22,276.56c10.75-1.45,27.59,13.36,61.29,42.98,22.83,20.07,27.98,26.86,27.54,35.06-.66,12.49-13.53,14.63-27.41,34.67-17.19,24.82-10.49,40.34-20.62,45.11-20.35,9.57-83.01-36.37-82.03-91.74.51-28.69,18.16-62.96,41.23-66.08Z"/>
          <path class="cls-13" d="m316.77,223.16c-1.04,2.46-1.06,13.95-1.1,36.94-.04,21.64.44,25.17,2.8,29.39,6.78,12.13,23.84,20.56,37.42,17.01,14.86-3.89,12.4-18.71,30.61-29.76,18.99-11.53,32.17-1.8,43.37-12.76,10.92-10.68,11.91-33.17,3.4-46.77-20.79-33.22-104.24-23.1-116.5,5.95Z"/>
          <path class="cls-13" d="m346.16,342.31c-27.64-12.02-35.33-9.65-38.27-8.5-.86.33-10.14,4.13-14.46,13.61-7.16,15.74,4.55,35.83,17.01,45.92,13.96,11.31,38.92,18.22,55.28,5.1,10.35-8.3,16.99-24.42,11.91-36.57-3.01-7.19-12.49-11.31-31.46-19.56Z"/>
        </g>
      </g>
    </g>
  </g>
</svg>