<?xml version="1.0" encoding="UTF-8"?>
<svg xmlns="http://www.w3.org/2000/svg" xmlns:xlink="http://www.w3.org/1999/xlink" viewBox="0 0 540 540">
  <defs>
    <style>
      .cls-1 {
        fill: #fff;
      }

      .cls-2 {
        fill: #f2b299;
      }

      .cls-3 {
        clip-path: url(#clippath-2);
      }

      .cls-4 {
        isolation: isolate;
      }

      .cls-5 {
        fill: #cff0f9;
      }

      .cls-6 {
        fill: #bfe3ef;
      }

      .cls-7 {
        fill: #7a5f4f;
        font-family: OmpalumpaRegular, Ompalumpa;
        font-size: 44px;
      }

      .cls-8 {
        clip-path: url(#clippath-1);
      }

      .cls-9 {
        fill: #bababa;
      }

      .cls-9, .cls-10, .cls-11 {
        mix-blend-mode: overlay;
      }

      .cls-12 {
        clip-path: url(#clippath);
      }

      .cls-13 {
        fill: none;
      }

      .cls-14 {
        clip-path: url(#clippath-3);
      }

      .cls-15 {
        fill: #f7d5c6;
      }

      .cls-16 {
        fill: #fce3cd;
      }

      .cls-17 {
        fill: #ffeedc;
      }

      .cls-18 {
        letter-spacing: -.04em;
      }

      .cls-10 {
        fill: #4c4c4c;
      }

      .cls-11 {
        fill: #595959;
      }
    </style>
    <clipPath id="clippath">
      <path class="cls-13" d="m336.33,467.01h-132.66c-27.24,0-49.32-22.08-49.32-49.32v-169.91c0-28.84,9.21-56.92,26.29-80.16l13.71-18.66h151.31l13.71,18.66c17.08,23.24,26.29,51.32,26.29,80.16v169.91c0,27.24-22.08,49.32-49.32,49.32Z"/>
    </clipPath>
    <clipPath id="clippath-1">
      <path class="cls-13" d="m349.37,137.62l-22.2,1.98c-38.04,3.4-76.31,3.4-114.35,0l-22.2-1.98v-48.19c0-9.08,7.36-16.44,16.44-16.44h125.86c9.08,0,16.44,7.36,16.44,16.44v48.19Z"/>
    </clipPath>
    <clipPath id="clippath-2">
      <path class="cls-13" d="m350.35,137.62l-22.2,1.98c-38.04,3.4-76.31,3.4-114.35,0l-22.2-1.98v-48.19c0-9.08,7.36-16.44,16.44-16.44h125.86c9.08,0,16.44,7.36,16.44,16.44v48.19Z"/>
    </clipPath>
    <clipPath id="clippath-3">
      <path class="cls-13" d="m385.65,372.82l-66.39,5.74c-32.78,2.83-65.75,2.83-98.53,0l-66.39-5.74v-128.4l66.39,5.74c32.78,2.83,65.75,2.83,98.53,0l66.39-5.74v128.4Z"/>
    </clipPath>
  </defs>
  <g class="cls-4">
    <g id="_Layer_" data-name="&amp;lt;Layer&amp;gt;">
      <g>
        <path class="cls-17" d="m336.33,467.01h-132.66c-27.24,0-49.32-22.08-49.32-49.32v-169.91c0-28.84,9.21-56.92,26.29-80.16l13.71-18.66h151.31l13.71,18.66c17.08,23.24,26.29,51.32,26.29,80.16v169.91c0,27.24-22.08,49.32-49.32,49.32Z"/>
        <path class="cls-1" d="m385.65,372.82l-66.39,5.74c-32.78,2.83-65.75,2.83-98.53,0l-66.39-5.74v-128.4l66.39,5.74c32.78,2.83,65.75,2.83,98.53,0l66.39-5.74v128.4Z"/>
        <g class="cls-12">
          <path class="cls-10" d="m234,115.8c.05,28.02-7.43,46.24-14.46,57.83-7.76,12.8-15.84,18.92-23.81,35.72-7.03,14.82-9.48,28.48-10.45,37.75.37,58.85.73,117.7,1.1,176.55,1.21,6.63,4.03,16.26,11.06,25.51,19.03,25.05,51.79,24.77,56.13,24.66h-102.9c-8.22-68.03-16.44-136.06-24.66-204.09-14.25-50.06-.48-101.36,34.87-130.11,28.26-22.98,61.07-24.04,73.13-23.81Z"/>
        </g>
        <path class="cls-16" d="m346.25,151.8l-8.69.74c-44.96,3.84-90.17,3.84-135.13,0l-8.69-.74c-3.9,0-7.09-3.19-7.09-7.09h0c0-3.9,3.19-7.09,7.09-7.09h152.5c3.9,0,7.09,3.19,7.09,7.09h0c0,3.9-3.19,7.09-7.09,7.09Z"/>
        <path class="cls-6" d="m350.35,137.62l-22.2,1.98c-38.04,3.4-76.31,3.4-114.35,0l-22.2-1.98v-48.19c0-9.08,7.36-16.44,16.44-16.44h125.86c9.08,0,16.44,7.36,16.44,16.44v48.19Z"/>
        <g class="cls-8">
          <path class="cls-11" d="m233.91,27.83c1.27,8.5-26.24,27.29-45.07,35.72-4.82,2.16-15.56,6.54-20.41,17.01-1.71,3.69-2.11,6.89-2.55,12.76-.62,8.23-1.17,19.77-.85,34.02-17.57-2.55-35.15-5.1-52.72-7.65-13.7-31.87-9.67-66.75,10.2-88.44,36.57-39.9,109.48-16.25,111.4-3.4Z"/>
        </g>
        <g>
          <rect class="cls-5" x="206.66" y="87.73" width="7.65" height="47.62" rx="3.83" ry="3.83"/>
          <rect class="cls-5" x="226.66" y="87.73" width="7.65" height="47.62" rx="3.83" ry="3.83"/>
          <rect class="cls-5" x="246.66" y="87.73" width="7.65" height="47.62" rx="3.83" ry="3.83"/>
          <rect class="cls-5" x="266.66" y="87.73" width="7.65" height="47.62" rx="3.83" ry="3.83"/>
          <rect class="cls-5" x="286.66" y="87.73" width="7.65" height="47.62" rx="3.83" ry="3.83"/>
          <rect class="cls-5" x="306.66" y="87.73" width="7.65" height="47.62" rx="3.83" ry="3.83"/>
          <rect class="cls-5" x="327.66" y="87.73" width="7.65" height="47.62" rx="3.83" ry="3.83"/>
        </g>
        <g class="cls-3">
          <path class="cls-11" d="m213.84,112.76c-.03,10.1.77,19.28.84,19.55.25,12.35-.05-2.5.2,9.85-14.74-1.64-29.48-3.28-44.22-4.91-9.86-23.03-5.7-49.11,10.2-65.39,20.26-20.72,56.67-22.58,82.39-1.13l-23.63,5.29c-13.41,4.96-25.75,22.45-25.79,36.75Z"/>
        </g>
        <path class="cls-9" d="m319.89,167.67c-5.29,1.86-8.07,9.04-8.5,14.46-1.2,14.91,15.06,20.14,26.36,37.42,14.47,22.13,2.23,35.6,13.61,92.69,2.36,11.85,6.48,32.55,10.2,32.31,5-.31,6.11-38.19,6.8-62.08,1.66-56.85-3.81-70.25-6.8-76.54-10.06-21.14-30.39-42.23-41.67-38.27Z"/>
        <g class="cls-14">
          <path class="cls-15" d="m118.11,328.86c24.74-14.2,43.39-15.39,56.13-13.61,2.47.35,3.1.58,32.31,8.5,32.38,8.78,34.28,9.23,38.27,9.35,19.09.61,25.12-7.9,45.07-12.76,14.36-3.5,36.17-7.03,56.98,2.55,11.56,5.32,14.33,10.97,25.51,12.76,12.74,2.03,24.27-2.89,32.31-7.65.85,17.57,1.7,35.15,2.55,52.72-34.33,8.86-78.12,16.93-129.26,18.71-60.11,2.09-111.24-5.18-149.67-13.61-3.4-18.99-6.8-37.98-10.2-56.98Z"/>
        </g>
        <path class="cls-2" d="m204.47,309.31c-6.44,14.07-12.08,23.4-15.1,29.91-.3-.18-.6-.38-.9-.58-5.68-4-6.93-11.24-6.9-19.94,0-1.75,1.28-3.29,1.37-5.14.08-1.71-1.04-3.73-.94-5.51.62-10.82,1.62-17.32,6.29-23.9,1.14-1.6,2.05-5.85,3.74-7.11,8.65-6.45,19.89-4.15,24.47-3.06-.42,2.35-.92,4.87-1.52,7.43-2.33,9.91-5.29,16.5-10.52,27.9Z"/>
        <path class="cls-2" d="m229.66,316.65c-.54.87-2.43,1.45-2.96,2.29-.8,1.27-.23,2.79-1.03,3.99-2.26,3.39-4.59,6.48-7.34,9.1-1.03.98-3.46,1.01-4.62,1.85-1.96,1.41-2.8,3.51-5.27,4.46-1.66.64-7.55,2.91-13.68,2.54.61-3.75,1.55-7.88,2.97-12.23,3.56-10.85,7.72-15.7,11.86-24.6,3.11-6.7,6.58-16.45,7.9-29.74,3.09.94,5.84,5.27,10.39,8.63,3.75,2.77,9.52,4.1,10.7,9.06,1.75,7.41-2.08,13.6-8.92,24.64Z"/>
        <text class="cls-7" transform="translate(186.66 324.43)"><tspan x="0" y="0">O</tspan><tspan class="cls-18" x="25.48" y="0">A</tspan><tspan x="48.62" y="0">T MILK</tspan></text>
      </g>
    </g>
  </g>
</svg>