<?xml version="1.0" encoding="UTF-8"?>
<svg id="_Layer_" data-name="&amp;lt;Layer&amp;gt;" xmlns="http://www.w3.org/2000/svg" viewBox="0 0 540 540">
  <defs>
    <style>
      .cls-1 {
        fill: #f4e2d7;
      }

      .cls-2 {
        fill: #fff0e6;
      }

      .cls-3 {
        fill: #fce9de;
      }
    </style>
  </defs>
  <g>
    <rect class="cls-2" x="270.48" y="190.86" width="108.69" height="108.69" transform="translate(649.66 490.41) rotate(-180)"/>
    <polygon class="cls-1" points="244.05 283.79 270.48 299.55 270.48 190.86 242.63 181.36 244.05 283.79"/>
    <path class="cls-3" d="m379.17,190.86c-36.23,0-72.46,0-108.69,0-9.28-3.17-18.57-6.33-27.85-9.5,35.56,0,71.12,0,106.69,0,9.95,3.17,19.9,6.33,29.85,9.5Z"/>
  </g>
  <g>
    <rect class="cls-2" x="140.67" y="208.38" width="108.69" height="108.69" transform="translate(390.03 525.46) rotate(-180)"/>
    <polygon class="cls-1" points="114.24 301.32 140.67 317.07 140.67 208.38 112.82 198.88 114.24 301.32"/>
    <path class="cls-3" d="m249.36,208.38c-36.23,0-72.46,0-108.69,0-9.28-3.17-18.57-6.33-27.85-9.5,35.56,0,71.12,0,106.69,0,9.95,3.17,19.9,6.33,29.85,9.5Z"/>
  </g>
  <g>
    <rect class="cls-2" x="318.49" y="249.95" width="108.69" height="108.69" transform="translate(745.67 608.59) rotate(-180)"/>
    <polygon class="cls-1" points="292.06 342.89 318.49 358.64 318.49 249.95 290.64 240.45 292.06 342.89"/>
    <path class="cls-3" d="m427.18,249.95c-36.23,0-72.46,0-108.69,0-9.28-3.17-18.57-6.33-27.85-9.5,35.56,0,71.12,0,106.69,0,9.95,3.17,19.9,6.33,29.85,9.5Z"/>
  </g>
</svg>