<?xml version="1.0" encoding="UTF-8"?>
<svg xmlns="http://www.w3.org/2000/svg" xmlns:xlink="http://www.w3.org/1999/xlink" viewBox="0 0 540 540">
  <defs>
    <style>
      .cls-1 {
        clip-path: url(#clippath-2);
      }

      .cls-2 {
        isolation: isolate;
      }

      .cls-3 {
        fill: #fc8b8b;
      }

      .cls-4 {
        fill: #fff;
        font-family: OmpalumpaRegular, Ompalumpa;
        font-size: 53.8px;
      }

      .cls-5 {
        clip-path: url(#clippath-1);
      }

      .cls-6 {
        clip-path: url(#clippath);
      }

      .cls-7 {
        fill: none;
      }

      .cls-8 {
        fill: #ffc299;
        stroke: #f4aa73;
        stroke-miterlimit: 10;
        stroke-width: 9.3px;
      }

      .cls-9 {
        letter-spacing: 0em;
      }

      .cls-10 {
        fill: #4f4f4f;
        mix-blend-mode: overlay;
        opacity: .96;
      }

      .cls-11 {
        fill: #f9d1cf;
      }
    </style>
    <clipPath id="clippath">
      <path class="cls-7" d="m385.57,406.18l-43.22,13.02c-52.1,15.69-107.86,14.3-159.12-3.98l-42.52-15.16-23.09-260.03,303.99,7.6-36.05,258.55Z"/>
    </clipPath>
    <clipPath id="clippath-1">
      <path class="cls-7" d="m385.57,406.18l-43.22,13.02c-52.1,15.69-107.86,14.3-159.12-3.98l-42.52-15.16-23.09-260.03,303.99,7.6-36.05,258.55Z"/>
    </clipPath>
    <clipPath id="clippath-2">
      <path class="cls-7" d="m465.72,132.88c0,12.65-87.63,22.91-195.72,22.91-108.09,0-195.72-10.26-195.72-22.91,0-12.65,87.63-22.91,195.72-22.91,108.09,0,195.72,10.26,195.72,22.91Z"/>
    </clipPath>
  </defs>
  <g class="cls-2">
    <g id="_Layer_" data-name="&amp;lt;Layer&amp;gt;">
      <g>
        <g>
          <g>
            <path class="cls-11" d="m385.57,406.18l-43.22,13.02c-52.1,15.69-107.86,14.3-159.12-3.98l-42.52-15.16-23.09-260.03,303.99,7.6-36.05,258.55Z"/>
            <g class="cls-6">
              <path class="cls-8" d="m364.31,300.96c-1.06,42.5-38.08,79.86-87.09,83.81-54.68,4.41-102.83-33.65-101.54-85.48,1.3-51.83,51.33-89.02,105.76-83.64,48.79,4.82,83.92,42.82,82.86,85.32Z"/>
            </g>
          </g>
          <g class="cls-5">
            <path class="cls-10" d="m155.88,126.3c.25,30.2.89,71.64,2.63,120.99,3.22,91.58,6.62,108.96,17.2,125.87,7.76,12.4,38.39,54.94,136.35,61.04-17.24,7.7-54.4,21.46-102.12,16.66-61.42-6.18-101.56-39.23-115.11-51.47,2.71-93.35,5.42-186.71,8.13-280.06,17.65,2.32,35.29,4.65,52.94,6.97Z"/>
          </g>
          <path class="cls-3" d="m465.72,132.88c0,12.65-87.63,22.91-195.72,22.91-108.09,0-195.72-10.26-195.72-22.91,0-12.65,87.63-22.91,195.72-22.91,108.09,0,195.72,10.26,195.72,22.91Z"/>
        </g>
        <text class="cls-4" transform="translate(169.51 317.39)"><tspan class="cls-9" x="0" y="0">Y</tspan><tspan x="26.36" y="0">OGHURT</tspan></text>
        <g class="cls-1">
          <path class="cls-10" d="m281.37,92.9c-86.36,9.49-130.02,21.67-130.96,36.57-.64,10.1,18.35,21.44,56.98,34.02-66.89,5.7-141.07,6.46-149.67-19.56-4.52-13.67,10.67-29.87,16.16-35.72,57.94-61.78,189.72-21.03,207.5-15.31Z"/>
        </g>
        <path class="cls-3" d="m323.53,153.83c.03,2.35,20.19.71,36.11,14.91,5.48,4.89,5.6,7.32,10.78,10.11,14.42,7.79,35.41.81,36.11-5.32.42-3.65-6.61-4.8-8.62-11.71-1.7-5.85,1.29-12.04,4.85-17.04-62.18,3.94-79.25,6.89-79.22,9.05Z"/>
      </g>
    </g>
  </g>
</svg>