<?xml version="1.0" encoding="UTF-8"?>
<svg xmlns="http://www.w3.org/2000/svg" xmlns:xlink="http://www.w3.org/1999/xlink" viewBox="0 0 540 540">
  <defs>
    <style>
      .cls-1 {
        isolation: isolate;
      }

      .cls-2 {
        fill: #f4c2c1;
      }

      .cls-3 {
        fill: #4f4f4e;
        mix-blend-mode: overlay;
        opacity: .49;
      }

      .cls-4 {
        fill: #f4aeae;
      }

      .cls-5 {
        clip-path: url(#clippath);
      }

      .cls-6 {
        fill: #f9bb60;
      }

      .cls-7 {
        fill: none;
      }

      .cls-8 {
        fill: #ffe771;
      }

      .cls-9 {
        fill: #fcca79;
      }

      .cls-10 {
        fill: #efa94b;
      }
    </style>
    <clipPath id="clippath">
      <ellipse class="cls-7" cx="266.08" cy="187.12" rx="80.6" ry="34.09"/>
    </clipPath>
  </defs>
  <g class="cls-1">
    <g id="_Layer_" data-name="&amp;lt;Layer&amp;gt;">
      <g>
        <g>
          <path class="cls-6" d="m406.14,231.87c-.3.86,0,.03-.03.03-7.75,10.58-17.98,49.92-27,69.22-9.31,19.91-201.93,11.76-221.03-7.6-9.63-9.77-21.49-55.6-25.15-62.56-10.32-19.61,18.25-57.78,130.48-62.24,91.55-3.62,150.99,39.83,142.72,63.16Z"/>
          <path class="cls-10" d="m406.1,231.91c-7.75,10.58-17.98,49.92-27,69.22-9.31,19.91-201.93,11.76-221.03-7.6-9.63-9.77-12.69-23.39-14.98-35.59,1.56-10.88,2.65-18.42,2.65-18.42,0,0,28.43,23.05,97.51,29.64,65.92,6.29,143.09-19.84,162.85-37.24Z"/>
          <path class="cls-2" d="m394.21,244.65c1.78-1.84,4.83,1.08,5.89-.75,2.69-4.63,5.81-12.55,6.22-11.54.42,1-3.68,16.09-4.01,17.36-9.12,34.89-29.01,109.25-38.04,129.82-.92,2.2-1.78,3.79-2.45,4.63-1.12,1.42-2.36,2.91-3.79,4.46l-.13.14c-2.84,3.08-6.47,6.35-11.32,9.5-1.94,1.28-4.08,2.53-6.47,3.75l-.13.07c-3.16,1.62-6.73,3.14-10.81,4.56-.1.07-.19.1-.32.1-2.87,1.01-5.96,1.96-9.34,2.84-3.32.84-6.89,1.62-10.71,2.3-3.16.61-6.47,1.12-10.01,1.52-.03,0-.1,0-.22.03-7.33.95-15.52,1.55-24.7,1.83-.54.03-1.12.03-1.66.03h-.19c-13.83.27-25.98-.91-36.56-3.04l-.64-.14c-.1,0-.22-.03-.32-.07-6.5-1.32-12.4-3.01-17.72-4.9l-.83-.3-5.39-2.1-.38-.17c-5.77-2.47-10.74-5.14-15.05-7.81-.54-.34-1.05-.68-1.56-1.01h-.03l-2.9-1.99c-3.54-2.47-6.5-4.9-8.89-7.1v-.03c-.13-.1-.22-.2-.35-.3l-.29-.27c-1.18-1.08-2.2-2.13-3.09-3.08-.83-.88-1.53-1.66-2.14-2.37-6.34-7.4-27.57-89.02-37.49-128.29-.77-3.01-1.47-5.77-2.09-8.23-.52-2.06-4.28-13.23-4.18-15.02.07-1.18,2.71,3.58,5.07,8.11,1.13,2.16,2.53,1.07,5.35.95,3.34-.14,3.96,2.43,5.27,6.5l3.44,11.68c.87,2.68,3.61,4.11,6.15,3.22l5.91-2.08c2.54-.9,5.29.55,6.15,3.24l3.81,11.9c.93,2.91,4.02,4.32,6.65,3.04,4.83-2.36,13.39-7.26,15.24-4.15.45.71,2.58,4.93,3,5.74,1.79,3.14,3.51,6.46,4.37,8.11.16.27.26.51.35.71.1.14.16.27.22.41l13.4-9.69c2.11-1.53,4.98-1.07,6.57,1.06l8.63,11.54c1.58,2.11,4.43,2.58,6.54,1.08l13.46-9.59c1.93-1.38,4.52-1.11,6.17.63l8.71,9.24c1.94,2.05,5.08,2.01,6.97-.09l11.1-12.33c1.91-2.12,5.1-2.14,7.03-.03l9.08,9.93c1.98,2.17,5.28,2.08,7.16-.19l8.66-10.45c1.66-2,4.49-2.34,6.52-.77l9.11,7c2.22,1.71,5.34,1.13,6.89-1.27l6.19-9.61c1.51-2.34,4.51-2.96,6.73-1.39l8.13,5.74c2.29,1.62,5.39.91,6.84-1.57l6.51-11.08c1.33-2.25,4.05-3.08,6.29-1.9l2.68,1.4c2.75,1.44,6.06-.14,6.86-3.28l3.55-13.87c.23-.89.68-1.71,1.31-2.35h0Z"/>
          <path class="cls-3" d="m364.06,379.09c-.92,2.2-1.79,3.79-2.45,4.63-1.12,1.42-2.36,2.91-3.79,4.46l-.13.14c-2.84,3.08-6.47,6.35-11.32,9.5-1.94,1.28-4.08,2.53-6.47,3.75l-.13.07c-3.16,1.62-6.73,3.14-10.81,4.56l-.32.14v-.03c-2.87,1.01-5.96,1.96-9.34,2.84-3.32.84-6.89,1.62-10.71,2.3-3.16.61-6.47,1.12-10.01,1.52-.03,0-.1,0-.22.03-7.33.95-15.52,1.55-24.7,1.83-.54.03-1.12.03-1.66.03h-.19c-13.83.27-25.98-.91-36.56-3.04l-.64-.14-.32-.03v-.03c-6.5-1.32-12.4-3.01-17.72-4.9l-.83-.3-5.39-2.1-.38-.17c-5.77-2.47-10.74-5.14-15.05-7.81l.03.1-1.59-1.12h-.03l-2.9-1.99c-3.54-2.47-6.5-4.9-8.89-7.1l-.35-.34-.29-.27c-1.18-1.08-2.2-2.13-3.09-3.08-.83-.88-1.53-1.66-2.14-2.37-6.34-7.4-27.57-89.02-37.49-128.29,3.6,10.75,9.63,24.98,19.51,41,.13.2.22.37.35.57l.03.07c1.05,1.69,2.14,3.38,3.28,5.1.1.14.19.3.29.44l.03.03c4.81,7.3,10.42,14.87,16.96,22.64.1.1.16.2.29.3v.03c1.37,1.66,2.81,3.28,4.27,4.93.1.1.19.2.26.3l.03.03c4.91,5.54,10.26,11.09,16.19,16.73.92.88,1.85,1.76,2.81,2.6.1.07.16.17.26.2,2.55,2.33,5.16,4.56,7.81,6.66.06.07.16.1.22.17,6.12,4.87,12.43,9.13,18.87,12.91,3.51,2.1,7.04,4.02,10.58,5.78,5.67,2.81,11.38,5.27,17.05,7.37,4.75,1.76,9.5,3.28,14.18,4.6,4.49,1.25,8.93,2.3,13.29,3.18,5.13,1.05,10.2,1.79,15.08,2.33,3.54.41,7.01.68,10.39.84,3.98.2,7.87.24,11.57.14,3.12-.07,6.12-.24,8.99-.51,4.18-.37,8.1-.95,11.7-1.69,2.17-.44,4.21-.95,6.12-1.52,4.18-1.18,7.71-2.64,10.52-4.26,2.04-1.18,3.7-2.43,4.94-3.79Z"/>
          <path class="cls-4" d="m216.41,406.65l-.83-.3-5.39-2.1-.38-.17s-7.86-101.58-7.89-102.91c-.17-10.81.88-14.6,1.14-12.3l7.32,64.62,6.02,53.16Z"/>
          <path class="cls-4" d="m194.96,396.43l-1.59-1.12h-.03l-2.9-1.99-11.79-71.58s-4.62-38.39-4.63-39.2c-.06-3.92.87-4.57.99-3.83l8.2,48.31,11.73,69.32.03.1Z"/>
          <path class="cls-4" d="m181.54,386.19v.03l-.35-.34-.29-.27h0c-2.02-2.01-3.43-4.6-4.07-7.45l-19.13-85.29-11.95-53.37,6.67,20.54c.14.43.26.88.37,1.32l8.58,37.25,20.18,87.57Z"/>
          <path class="cls-4" d="m195.15,396.26l-1.59-1.12h-.03l-2.9-1.99-11.7-71.07c1.37,1.66,2.81,3.28,4.27,4.93.1.1.19.2.26.3l.03.03,11.63,68.81.03.1Z"/>
          <path class="cls-4" d="m272,414.85h-.19c-1.1-.02-6.54-.16-10.16-.27-1.9-.05-3.43-1.65-3.5-3.66-.2-5.54-.51-17.09-.87-31.16-.8-30.68-1.8-73.4-2.23-92.2-.08-3.45,3.85-5.21,6.15-2.78l7.68,8.15c.66.7,1.04,1.64,1.05,2.63l1.54,88.8.54,30.48Z"/>
          <path class="cls-4" d="m303.14,290.61c.69.76,1.06,1.77,1.01,2.82-.44,10.1-2.83,64.64-4.33,96.45-.64,13.62-1.15,23.05-1.24,23.08-.03,0-.1,0-.22.03-1.2.11-6.57.53-10.4.84-2.13.17-3.92-1.66-3.86-3.92l.64-22.36,2.93-104.53c.09-3.37,3.97-4.97,6.18-2.54l9.27,10.14Z"/>
          <path class="cls-4" d="m334.31,285.13c1.08.83,1.64,2.23,1.45,3.64l-13.97,102.08-2.12,15.62c-.22,1.6-1.36,2.88-2.85,3.2l-3.52.76c-2.35.5-4.5-1.52-4.3-4.06l1.23-15.65,8.56-110.35c.23-2.96,3.43-4.52,5.7-2.78l9.83,7.55Z"/>
          <path class="cls-4" d="m362.09,278.36c1.23.87,1.83,2.44,1.53,3.96l-21.14,106.33-2.58,12.91-.13.07-10.81,4.56-.32.14v-.03c.1-.57.89-6.66,2.14-15.95,4.12-30.66,12.97-96.45,16.01-116.3.42-2.74,3.37-4.11,5.55-2.57l9.75,6.89Z"/>
          <path class="cls-4" d="m384.96,265.11c1.53.8,2.32,2.63,1.89,4.38l-27.73,113.39-1.31,5.31-.13.14-3.38,2.83c-2.66,2.23-6.49-.31-5.75-3.82.01-.07.03-.13.04-.2,5.85-28.04,21.54-102.93,25.91-122.3.54-2.38,3.02-3.62,5.09-2.53l5.35,2.8Z"/>
          <path class="cls-4" d="m242.89,408.3c.18,2.45-1.84,4.44-4.13,4.07l-3.52-.56-.64-.14-.32-.03v-.03l-4.65-44.98-8.24-79.84c-.39-3.81,4.16-5.79,6.4-2.79l5.81,7.77c.44.59.71,1.32.77,2.07l5.84,78.57,2.67,35.9Z"/>
          <path class="cls-9" d="m353.47,247.18c-1.37.17-2.63.69-3.97.96-1.36.28-2.68.7-4.02,1.09-2.51.73-4.92,1.85-7.36,2.78-2.46.94-4.92,1.85-7.38,2.81-2.56,1-5.31,2.04-7.35,4.01-.27.26-.41.58-.51.92-.5-.71-1.28-1.26-2.38-1.4-5.92-.73-11.91-.64-17.82-1.47-6.08-.86-11.78-.84-17.91-.54-12.19.58-24.43.82-36.62.35-24.3-.93-48.33-2.7-72.2-7.75-2.91-.62-3.99,3.61-1.22,4.69,6.13,2.39,12.05,4.9,18.41,6.74,5.75,1.67,11.5,3.36,17.3,4.86,12.22,3.15,24.43,5.89,36.97,7.17,12.43,1.27,24.88,1.88,37.37,1.44,12.47-.44,25.03-3.91,36.55-9.01,1.28-.56,1.96-1.61,2.13-2.69.25.26.54.47.9.57,2.7.7,5.64.12,8.3-.51,2.64-.63,5.21-1.42,7.78-2.32,2.7-.94,5.46-1.86,7.98-3.24,1.22-.67,2.43-1.32,3.56-2.15,1.13-.83,2.36-1.42,3.41-2.38,1.69-1.54.41-5.21-1.92-4.92Z"/>
        </g>
        <ellipse class="cls-8" cx="266.08" cy="187.12" rx="80.6" ry="34.09"/>
        <g class="cls-5">
          <path class="cls-3" d="m171.72,157.61c7.88,10.51,31.53,39.13,73.27,50.88,62.12,17.49,112.79-16.9,119.9-21.9-16.92,42.42-59.9,68.42-104.12,63.62-47.1-5.11-84.99-44.01-89.05-92.61Z"/>
        </g>
      </g>
    </g>
  </g>
</svg>