<?xml version="1.0" encoding="UTF-8"?>
<svg xmlns="http://www.w3.org/2000/svg" xmlns:xlink="http://www.w3.org/1999/xlink" viewBox="0 0 540 540">
  <defs>
    <style>
      .cls-1 {
        fill: #f9998a;
      }

      .cls-2 {
        fill: #fff;
      }

      .cls-3 {
        isolation: isolate;
      }

      .cls-4 {
        fill: #f7b87f;
      }

      .cls-5 {
        fill: #4f4f4e;
        mix-blend-mode: overlay;
        opacity: .49;
      }

      .cls-6 {
        clip-path: url(#clippath);
      }

      .cls-7 {
        fill: none;
      }

      .cls-8 {
        fill: #ed8772;
      }
    </style>
    <clipPath id="clippath">
      <path class="cls-7" d="m403.32,407.95l18.05,23.32H118.63l18.05-23.32-7.18-104.01c-1.85-26.95-1.75-54,.3-80.94l6.91-90.42h.39l-18.47-23.86h302.74l-18.47,23.86h.39l6.99,93.59c2.01,26.9,2.06,53.9.17,80.8l-7.13,100.98Z"/>
    </clipPath>
  </defs>
  <g class="cls-3">
    <g id="_Layer_" data-name="&amp;lt;Layer&amp;gt;">
      <g>
        <g>
          <polygon class="cls-8" points="402.37 133.28 137.63 133.28 118.63 108.72 421.37 108.72 402.37 133.28"/>
          <polygon class="cls-8" points="137.63 406.72 402.37 406.72 421.37 431.28 118.63 431.28 137.63 406.72"/>
          <path class="cls-8" d="m403.29,408.45H136.71l-7.21-104.5c-1.86-26.95-1.76-54.01.3-80.95l6.91-90.42h266.58l6.99,93.59c2.01,26.89,2.06,53.9.17,80.8l-7.15,101.47Z"/>
        </g>
        <path class="cls-1" d="m388.1,390.15h-236.2l-6.39-92.59c-1.65-23.88-1.56-47.85.27-71.72l5.29-69.27,237.03-10.84,6.19,82.93c1.78,23.83,1.83,47.76.15,71.59l-6.34,89.91Z"/>
        <g class="cls-6">
          <path class="cls-5" d="m355.29,406.12c-84.47-.57-135.55,3.58-220.02,3.01-9.07,11.62-26.28,18.6-35.35,30.22,112.25-.28,232.64,4.08,344.89,3.8-9.35-11.91-18.71-23.81-28.06-35.72,6.8-103.18,13.61-206.36,20.41-309.54-110.83,1.13-221.67,2.27-332.5,3.4,10.69,9.61,21.39,19.21,32.08,28.82,78.88-.82,146.64,4.49,225.52,3.67,0,0,15.75,119.34,15.75,141.69s-22.71,130.65-22.71,130.65Z"/>
        </g>
        <circle class="cls-4" cx="270" cy="255.32" r="75.97"/>
        <g>
          <path class="cls-2" d="m207.81,277.59c-13.97,9.19-27.95-3.01-31.19-16.84-2.15-9.17-3.07-23.26,6.26-29.12,5.02-3.15,13.49-3.83,18.75-.97,6.57,3.57,3.5,16.83-3.34,12.3-9.73-6.45-9.78,8.75-8.81,13.49,1.49,7.27,6.01,16.18,13.61,8.98,6.63-6.29,12.06,7.33,4.72,12.16Z"/>
          <path class="cls-2" d="m242.74,262.98c2.51,4.89-2.06,13.15-7.1,11.2-5.33-2.07-9.81-10.53-11.09-14.62.61,1.98,2.19,6.74,1.78,11.29-.6,6.66-10.19,7.84-12.38,2.34-2.74-6.92-2.13-13.69-3.13-20.85-.86-6.21-2.74-11.16-3.54-16.31-1.47-9.44,8.97-11.64,17.43-11.62,8.72.01,14.74,7.05,16.29,13.29,2.81,11.31-1.71,16.67-5.49,16.92,0,0,4.38,2.84,7.21,8.36Zm-17.3-24.96c-.91-.85-2.22-1.4-2.97.34-.58,1.33.72,6.51.99,7.82.47,2.24,3.84,3.01,4.6-1.4.47-2.67-.78-5.06-2.62-6.77Z"/>
          <path class="cls-2" d="m245.97,266.83c-2.2-12.3-3.69-26.78-2.02-38.71.85-6.07,12.64-6.65,13.76-.61,1.12,6.04.32,10.18.49,20.56.12,7.37.77,12.49.91,17.92.2,8.07-11.46,10.26-13.14.83Z"/>
          <path class="cls-2" d="m276.01,221.71c6.13-.89,9.36,1.25,11.37,2.69,6.83,4.9.11,15.98-4.15,12.48-4.5-3.71-7.87-2.61-7.58,2.45.29,5.06,9.38,2.52,14.39,10.29,5.71,8.86.97,22.96-9.91,24.27-10.51,1.27-16.61-4.7-18.31-6.97-3.33-4.46,0-15.19,5.76-11.56,7.05,4.44,11.32,7.88,12.04,4.43,1.12-5.31-15.92-4.57-17.05-17.41-1.22-13.72,7.69-19.85,13.44-20.68Z"/>
          <path class="cls-2" d="m294.14,265.94c.52-11.95-2.15-30.79,3.98-38.27,5.77-7.04,27.03-3.65,30.01,8.65,2.52,10.4-2.7,17.96-6.87,21.01-5.81,4.25-13.06,2.89-13.23,3.43-.39,1.22-.58,3.44-1.01,7.16-1.06,9.06-13.36,9.15-12.87-1.99Zm15.03-18.27c.71.66,1.34,1.11,4.03-.36,1.7-.93,2.3-2.71,1.55-6.55-.92-4.74-3.64-4.39-4.49-3.53-1.81,1.83-1.8,9.78-1.08,10.44Z"/>
          <path class="cls-2" d="m347.29,229.69c6.22.24,9.03,2.94,10.76,4.72,5.87,6.07-2.79,15.74-6.37,11.51-3.79-4.47-7.31-4-7.94,1.03-.63,5.03,8.81,4.18,12.37,12.75,4.07,9.79-3.23,22.77-14.2,22.06-10.64-.68-15.56-7.64-16.83-10.18-2.48-4.99,2.74-14.94,7.78-10.32,6.16,5.64,9.76,9.8,11.1,6.54,2.06-5.02-14.9-7.38-13.7-20.22,1.28-13.72,11.18-18.12,17.02-17.9Z"/>
        </g>
      </g>
    </g>
  </g>
</svg>