<?xml version="1.0" encoding="UTF-8"?>
<svg xmlns="http://www.w3.org/2000/svg" xmlns:xlink="http://www.w3.org/1999/xlink" viewBox="0 0 540 540">
  <defs>
    <style>
      .cls-1 {
        fill: #fff;
      }

      .cls-2 {
        isolation: isolate;
      }

      .cls-3 {
        fill: #65aa81;
      }

      .cls-4 {
        fill: #f7b87f;
      }

      .cls-5 {
        fill: #4f4f4e;
        mix-blend-mode: overlay;
        opacity: .49;
      }

      .cls-6 {
        clip-path: url(#clippath);
      }

      .cls-7 {
        fill: #75ba91;
      }
    </style>
    <clipPath id="clippath">
      <path class="cls-5" d="m403.32,407.95l18.05,23.32H118.63l18.05-23.32-7.18-104.01c-1.85-26.95-1.75-54,.3-80.94l6.91-90.42h.39l-18.47-23.86h302.74l-18.47,23.86h.39l6.99,93.59c2.01,26.9,2.06,53.9.17,80.8l-7.13,100.98Z"/>
    </clipPath>
  </defs>
  <g class="cls-2">
    <g id="_Layer_" data-name="&amp;lt;Layer&amp;gt;">
      <g>
        <g>
          <g>
            <polygon class="cls-7" points="402.37 133.28 137.63 133.28 118.63 108.72 421.37 108.72 402.37 133.28"/>
            <polygon class="cls-7" points="137.63 406.72 402.37 406.72 421.37 431.28 118.63 431.28 137.63 406.72"/>
            <path class="cls-3" d="m403.29,408.45H136.71l-7.21-104.5c-1.86-26.95-1.76-54.01.3-80.95l6.91-90.42h266.58l6.99,93.59c2.01,26.89,2.06,53.9.17,80.8l-7.15,101.47Z"/>
          </g>
          <path class="cls-7" d="m388.1,390.15h-236.2l-6.39-92.59c-1.65-23.88-1.56-47.85.27-71.72l5.29-69.27,237.03-10.84,6.19,82.93c1.78,23.83,1.83,47.76.15,71.59l-6.34,89.91Z"/>
          <g>
            <path class="cls-5" d="m403.32,407.95l18.05,23.32H118.63l18.05-23.32-7.18-104.01c-1.85-26.95-1.75-54,.3-80.94l6.91-90.42h.39l-18.47-23.86h302.74l-18.47,23.86h.39l6.99,93.59c2.01,26.9,2.06,53.9.17,80.8l-7.13,100.98Z"/>
            <g class="cls-6">
              <path class="cls-5" d="m355.29,406.12c-36.17-.52-72.85-1.34-110.04-2.48-39.26-1.21-77.93-2.75-116.01-4.58-1.1,5.37-3.88,15.32-11.64,25.18-6.25,7.93-13.19,12.59-17.67,15.11,112.25-.28,232.64,4.08,344.89,3.8-9.35-11.91-18.71-23.81-28.06-35.72,6.8-103.18,13.61-206.36,20.41-309.54-110.83,1.13-221.67,2.27-332.5,3.4,8.45,12.5,16.9,25,25.35,37.51,37.9.85,77.38.92,118.3,0,39.41-.88,77.42-2.62,113.95-5.01,8.97,34.12,17.86,82.93,15.75,141.69-1.94,53.96-12.51,98.59-22.71,130.65Z"/>
            </g>
          </g>
          <circle class="cls-4" cx="270" cy="255.32" r="75.97"/>
        </g>
        <g>
          <path class="cls-1" d="m178.13,256.76c-2.46-8.65-6.4-16.63-4.48-20.93,1.72-3.86,17.34-8.93,22.75-2.15,3.96,4.96,2.02,9.9-.31,12.42-3.25,3.51-8.82,4.46-8.83,4.79-.03.73.29,1.92.73,3.96,1.09,4.95-8.14,7.95-9.85,1.92Zm7.27-12.96c.65.18,1.19.28,2.8-1.09,1.02-.86,1.06-1.93-.25-3.75-1.63-2.26-3.47-1.47-3.89-.84-.91,1.36.7,5.5,1.35,5.68Z"/>
          <path class="cls-1" d="m203.07,252.5c-3.49-5.41-4.12-19.28-3.48-22.5.64-3.22,8.38-4.19,9.54-.06,1.16,4.13,1.12,16.16,1.92,16.93.8.77,4.52-1.54,8.33-1.97,3.81-.44,6.1,4.81,1.27,7-4.83,2.19-14.82,4.88-17.58.62Z"/>
          <path class="cls-1" d="m239.59,247.08c-.51-2.6-.75-6.81-3.35-6.66-2.6.15-1.89,4.67-3.24,8.3-1.72,4.61-9.53,4.24-9.99.65-.38-2.95,1.46-6.34,2.07-10.38.76-5.05-.91-16.64,10.34-16.7,10.03-.05,13.56,14.73,14.09,23.33.32,5.2-8.96,6.37-9.93,1.46Zm-3.7-17.2c-.86-.13-1.5,5.66-.78,5.96.71.3,2.27.2,2.41-.53.13-.74-.55-5.27-1.62-5.43Z"/>
          <path class="cls-1" d="m263.39,246.8c-1.18-1.77-3.17-5.21-3.21-4.43-.07,1.57.09,2.29.11,3.88.08,5.06-8.67,4.82-9.24.11-.91-7.52-1.46-18.29-.02-21.87,1.22-3.03,7.09-2.67,8.72-1.35,2.62,2.13,4.06,10.87,4.77,10.97.71.1-1.09-5.51.11-9.87.78-2.84,7.96-3.83,9.58,0,1.14,2.68.56,6.84.22,10.97-.4,4.91-.03,10.82-1.5,12.51-2.15,2.49-7.11,2.73-9.56-.93Z"/>
          <path class="cls-1" d="m277.93,230c-2.85-.54-3.99-5.97-.36-7.1,4.35-1.36,16.5-.1,21.9.63,5.39.73,4.49,5.12,3.25,6.95-1.25,1.83-7.4-.41-8.29-.47-.89-.06-.7,12.45-1.92,16.89-1.22,4.44-6.54,3.25-7.99,1.82s-1.71-3.97-1.8-6.87c-.09-2.9.92-10.86,1.47-12.35,0,0-3.41,1.04-6.26.5Z"/>
          <path class="cls-1" d="m315.54,248.64c.02-2.65.65-6.82-1.93-7.2-2.58-.38-2.8,4.19-4.86,7.47-2.62,4.17-10.19,2.21-9.91-1.39.23-2.97,2.72-5.91,4.13-9.74,1.77-4.79,2.48-16.48,13.52-14.25,9.84,1.99,10.3,17.17,9.08,25.71-.74,5.15-10.08,4.42-10.04-.6Zm-.13-17.59c-.81-.3-2.62,5.24-1.98,5.68.64.44,2.19.66,2.47-.03.28-.69.53-5.27-.49-5.64Z"/>
          <path class="cls-1" d="m327.14,250.32c-.14-4.89,2.41-19,3.61-21.26,1.73-3.26,9.88-1.76,9.96,1.69.09,3.45-.98,5.58-2.09,11.25-.79,4.02-.92,6.91-1.46,9.88-.81,4.42-9.86,3.92-10.02-1.56Z"/>
          <path class="cls-1" d="m351.21,255.74c-.74-2-1.87-5.82-2.09-5.06-.44,1.51-.46,2.25-.81,3.8-1.11,4.93-9.61,2.63-9.04-2.08.9-7.53,2.9-18.12,5.15-21.26,1.9-2.66,7.56-.91,8.84.76,2.06,2.69,1.4,11.52,2.07,11.79.67.27.24-5.61,2.44-9.57,1.43-2.58,8.69-1.82,9.38,2.28.48,2.87-1.07,6.78-2.38,10.71-1.55,4.68-2.59,10.51-4.42,11.8-2.69,1.9-7.61.96-9.13-3.18Z"/>
          <path class="cls-1" d="m229.71,300.62c-7.66,3.81-17.27,2.53-19.55-9.96-1.51-8.23.97-13.92,5.65-16.13,3.45-1.62,8.7-1.86,11.93-.18,4.03,2.1,1.53,9.45-2.65,6.8-5.96-3.77-6.72,4.7-6.35,7.37.57,4.09,3.09,9.15,8.43,5.24,4.65-3.41,7.75,4.27,2.55,6.85Z"/>
          <path class="cls-1" d="m253.44,292.81c1.57,2.74-1.65,7.31-4.98,6.19-3.53-1.19-6.23-5.95-6.95-8.24.34,1.11,1.24,3.77.82,6.31-.62,3.7-7.11,4.27-8.33,1.17-1.54-3.89-.85-7.66-1.22-11.67-.32-3.48-1.34-6.26-1.65-9.14-.58-5.29,6.11-6.35,11.49-6.25,5.55.1,9.26,4.06,10.15,7.54,1.62,6.32-1.43,9.27-3.92,9.38,0,0,2.81,1.61,4.58,4.7Zm-10.72-14.04c-.56-.48-1.39-.8-1.92.16-.41.73.27,3.63.41,4.37.24,1.25,2.41,1.71,3.03-.73.37-1.48-.37-2.82-1.51-3.79Z"/>
          <path class="cls-1" d="m255.51,294.97c-.99-4.77-1.33-19.1-.7-21.56.9-3.53,8.14-3.64,8.82-.28.68,3.36.14,5.66.18,11.44.03,4.1.42,6.95.48,9.97.08,4.49-7.67,5.76-8.77.42Z"/>
          <path class="cls-1" d="m275.32,269.92c3.9-.5,5.98.67,7.28,1.46,4.41,2.7.25,8.89-2.54,6.96-2.95-2.05-5.1-1.43-4.89,1.38.21,2.82,5.88,1.35,9.47,5.68,4.52,5.47.39,13.08-6.28,13.54-7.39.51-11.16-2.61-12.29-3.87-2.2-2.49.05-8.45,3.85-6.42,4.64,2.47,7.52,4.37,7.97,2.45.69-2.96-10.53-2.53-11.22-9.68-.74-7.64,4.98-11.03,8.64-11.5Z"/>
          <path class="cls-1" d="m287.63,294.47c.27-8.98-.86-17.76,1.88-21.32,2.45-3.19,16.82-3.53,19.45,4.5,1.93,5.88-1.05,10.05-3.67,11.8-3.65,2.44-8.49,1.74-8.59,2.05-.22.68-.28,1.92-.46,4-.44,5.05-8.8,5.25-8.61-1.02Zm9.46-10.28c.48.36.91.61,2.61-.24,1.07-.53,1.4-1.54.81-3.66-.74-2.63-2.47-2.41-3-1.92-1.12,1.04-.9,5.46-.42,5.82Z"/>
          <path class="cls-1" d="m320.86,273.62c3.94.01,5.85,1.45,7.04,2.41,4.04,3.26-.92,8.85-3.43,6.56-2.66-2.42-4.89-2.09-5.04.73-.16,2.82,5.67,2.11,8.67,6.88,3.78,6.02-1.33,13.02-8.02,12.6-7.42-.47-10.75-4.05-11.7-5.46-1.86-2.75,1.16-8.37,4.67-5.86,4.29,3.06,6.9,5.32,7.6,3.48,1.08-2.84-10.14-3.89-9.88-11.07.27-7.67,6.39-10.28,10.09-10.27Z"/>
        </g>
      </g>
    </g>
  </g>
</svg>