<?xml version="1.0" encoding="UTF-8"?>
<svg xmlns="http://www.w3.org/2000/svg" xmlns:xlink="http://www.w3.org/1999/xlink" viewBox="0 0 540 540">
  <defs>
    <style>
      .cls-1 {
        fill: #4d632b;
      }

      .cls-2 {
        mix-blend-mode: overlay;
        opacity: .53;
      }

      .cls-3 {
        isolation: isolate;
      }

      .cls-4 {
        fill: #c9c9c9;
      }

      .cls-5 {
        fill: url(#radial-gradient);
      }

      .cls-6 {
        fill: #b9d839;
      }

      .cls-7 {
        fill: url(#radial-gradient-2);
      }

      .cls-8 {
        fill: url(#linear-gradient);
      }

      .cls-9 {
        fill: #328200;
        opacity: .4;
      }
    </style>
    <linearGradient id="linear-gradient" x1="151.33" y1="195.49" x2="283.84" y2="427.38" gradientUnits="userSpaceOnUse">
      <stop offset="0" stop-color="#a27e2b"/>
      <stop offset="1" stop-color="#8b6821"/>
    </linearGradient>
    <radialGradient id="radial-gradient" cx="296.21" cy="263.86" fx="296.21" fy="263.86" r="161.99" gradientUnits="userSpaceOnUse">
      <stop offset=".01" stop-color="#d9df43"/>
      <stop offset="1" stop-color="#b8bd00"/>
    </radialGradient>
    <radialGradient id="radial-gradient-2" cx="309.76" cy="260.06" fx="309.76" fy="260.06" r="143.72" gradientUnits="userSpaceOnUse">
      <stop offset="0" stop-color="#ecf7a2"/>
      <stop offset=".29" stop-color="#ebf69f"/>
      <stop offset=".47" stop-color="#e8f496"/>
      <stop offset=".62" stop-color="#e2f288"/>
      <stop offset=".75" stop-color="#dbee73"/>
      <stop offset=".88" stop-color="#d1e959"/>
      <stop offset=".99" stop-color="#c6e338"/>
      <stop offset="1" stop-color="#c5e335"/>
    </radialGradient>
  </defs>
  <g class="cls-3">
    <g id="_Layer_" data-name="&amp;lt;Layer&amp;gt;">
      <g>
        <g>
          <path class="cls-8" d="m238.13,106.64s-103.74,28.29-140.68,122.61c-36.94,94.31,36.94,207.49,124.96,213.78,88.03,6.29,150.9-25.94,165.05-44.8L238.13,106.64Z"/>
          <path class="cls-5" d="m146.04,197.24c16.02-57.67,84.55-104.68,153.83-100.84,64.01,3.55,162.27,115.11,151.63,218.61-8.1,78.76-118.24,133.24-185.48,111.88-62.56-19.87-149.42-123.66-119.98-229.65Z"/>
          <path class="cls-6" d="m158.48,199.8c15.22-54.91,73.21-95.09,141.58-91.3,63.16,3.5,149.44,96.34,138.94,198.48-7.99,77.72-105.75,126.5-169.48,108.04-72.05-20.87-138.57-115.88-111.04-215.22Z"/>
          <path class="cls-6" d="m300.06,108.5c-68.37-3.79-126.37,36.39-141.58,91.3-27.53,99.34,38.99,194.34,111.04,215.22,63.74,18.46,161.49-30.32,169.48-108.04,10.5-102.14-75.77-194.98-138.94-198.48Zm128.15,195.18c-9.58,71.59-97.66,114.47-156.58,97.41-66.6-19.29-127.94-113.73-106.34-201.87,11.95-48.74,89.51-88.74,134.77-85.86,58.36,3.71,140.45,98.37,128.15,190.32Z"/>
          <g>
            <path class="cls-9" d="m392.43,210.46c-5.05-8.35-42.45,8.29-66.3,25.51,22.19-19.87,50.42-70.36,42.73-76.84-7.5-6.32-41.4,32.79-52.83,60.04,8.63-26.48,15.43-64.57,5.26-68.92-10.13-4.33-18.67,30.08-20.32,59.56-2.66-30.27-13.12-70.62-23.22-70.49-10.74.14-1.29,45.28,7.65,75.79-10.5-29.16-31.61-64.77-40.41-60.28-9.04,4.61,8.84,41.32,26.17,66.58-20.44-23.55-59.17-51.66-65.52-42.83-6.08,8.45,28.63,37.35,53.03,55.22-24.94-16.36-66.04-27.74-68.3-17.09-2.34,11.06,35.74,30.21,67.2,34.84-27.15-5.62-69.33.89-67.42,12.86,1.93,12.05,40.6,13.32,70.27,4.69-23.69,9.17-70.33,36.97-64.74,47.6,5.74,10.92,54.41-15.89,74.8-31.6-18.18,19.56-42.7,56.09-33.75,64.54,8.47,7.99,33.03-22.54,45.71-46.8-8.19,26.68-17.16,67.9-7.01,72.25,10.39,4.45,20.4-37.7,22.53-67.07,2.51,30.29,13.22,78.68,23.37,78.56,10.81-.14.66-53.31-8.36-83.84,12.38,29.34,40.85,80.34,49.88,75.73,9.06-4.62-18.17-56-36.19-82.45,20.76,24.77,46.52,49.36,52.78,40.67,6.33-8.8-19.35-34.34-44.31-53.27,25.92,14.75,76.82,36.14,79.22,24.77,2.35-11.09-45.82-32.4-73.26-39.79,27.49,2.55,78.69-.84,76.81-12.53-1.86-11.6-52.32-10.12-78.6-5.75,23.62-8.26,59.22-29.6,53.13-39.66Z"/>
            <path class="cls-1" d="m267.17,200.21c-5.06,3.01,4.48,17.62,8.62,15.39,3.04-1.63-2.87-18.81-8.62-15.39Z"/>
            <path class="cls-1" d="m327.58,314.4c-3.19,3.98,4.37,24.36,10.75,20.99,6.26-3.31-7.77-24.68-10.75-20.99Z"/>
            <path class="cls-1" d="m347.34,280.24c-.27,3.68,16.31,14.37,18.64,8.72,2.75-6.66-18.2-14.75-18.64-8.72Z"/>
            <path class="cls-1" d="m329.69,219.51c-5.61-4.01,2.09-18.65,8.36-15.14,6.27,3.51-3.65,18.51-8.36,15.14Z"/>
            <path class="cls-1" d="m242.8,289.22c3.72,4.68-17.68,20.77-21.71,13.06-3.2-6.14,18.62-16.94,21.71-13.06Z"/>
            <path class="cls-1" d="m345.42,258.86c-1.92-4.92,22.15-7.7,21.85.39-.16,4.35-19.39,5.91-21.85-.39Z"/>
            <path class="cls-1" d="m373.57,257.9c-1.34-5.44,10.2-7.12,10.99.07.57,5.11-9.33,6.68-10.99-.07Z"/>
            <path class="cls-1" d="m311.44,200.44c-4.75-1.49-3.47-20.92,3.44-19.65,6.91,1.27,1.85,21.3-3.44,19.65Z"/>
            <path class="cls-1" d="m231.35,262.23c-1.1-6.65,16.2-6.8,16.82-1.5.61,5.19-15.73,8.07-16.82,1.5Z"/>
            <path class="cls-1" d="m342.04,339.4c-6.27,2.27-1.89,10.04,3.31,8.29,5.21-1.74,2.34-10.34-3.31-8.29Z"/>
            <path class="cls-1" d="m260.49,317.3c-6.7-4.46,5.42-18.81,10.06-15.1,3.79,3.03-3.84,19.25-10.06,15.1Z"/>
          </g>
          <path class="cls-7" d="m382.65,193.77c2.89-2.45.12-2.9-2.11-1.81-2.2,1.07-4.02,2.9-5.99,4.31-3.3,2.37-6.57,4.77-9.82,7.21-6.35,4.76-12.61,9.64-18.79,14.61-5.33,4.29-10.6,8.64-15.83,13.06-2.98,2.52-9.44,9.21-13.63,5.78-1.34-1.1-1.83-2.98-1.68-4.71.23-2.62,1.36-5.72,2.23-8.21,1.09-3.08,2.21-6.16,3.36-9.22,2.36-6.28,4.86-12.52,7.48-18.7,2.74-6.48,5.85-14.62,8.61-21.05,2.76-6.43,3.8-11.56,7.45-16.97.58-.86,1.21-1.95.71-2.86-1.86-3.38-6.45,5.84-6.98,6.87-2.01,3.9-3.62,7.99-5.53,11.94-3.12,6.46-6.08,12.99-8.87,19.59-2.58,6.09-5.02,12.25-7.31,18.45-1.94,5.24-3.17,11.58-6.25,16.26-.56.85-1.41,1.56-2.41,1.71-1,.15-2.06-.31-2.64-1.13-.42-.6-.41-1.16-.46-1.84-.54-6.6-.13-13.63-.3-20.31-.18-7.15-.37-14.29-.55-21.44,0-14.59-1.43-28.84-2.01-43.34-.05-1.18-.23-2.58-1.29-3.09-1.09-.53-2.45.36-2.87,1.5-.43,1.14-.2,2.4.01,3.6,1.33,7.56,2.27,15.81,1.47,23.49-.71,6.8-.04,34.69.14,41.84.09,3.57.18,7.14.26,10.71.07,2.8.81,6.59-.12,9.27-.5,1.45-1.86,2.72-3.38,2.6-2.92-.22-4.53-5.78-5.44-8.13-9.68-25.1-18.76-50.65-28.8-75.47-.21-.53-.46-1.1-.97-1.38-2.14-1.17-.94,4.51-.79,5.3.49,2.47,1.2,4.9,1.94,7.3,1.15,3.72,2.44,7.4,3.83,11.04,3.62,9.53,7.06,19.12,10.49,28.72,3.83,10.73,8.91,21.05,11.72,32.05.38,1.48,1.66,6.73-1.74,4.96-4.89-2.55-8.43-8.68-11.75-12.9-3.89-4.95-7.65-10-11.15-15.23-8.35-12.47-17.04-24.46-25.95-36.52-2.36-3.19-4.88-6.33-7.08-9.64-.34-.5-1.33-2.83-1.92-3.01-1.94-.59-1.77,1.57-1.16,2.7,2.09,3.87,4.19,7.73,6.28,11.6,6.56,12.11,15.37,22.37,23.64,33.37,4.26,5.66,8.52,11.32,12.77,16.98,2.13,2.83,4.25,5.66,6.37,8.5,1.67,2.23,4.55,4.93,5.15,7.75.21.97-.02,2.1-.81,2.71-.6.46-1.42.54-2.16.39-4.17-.84-7.82-5.49-11.25-7.79-4.64-3.11-9.28-6.2-13.95-9.26-9-5.89-18.26-11.77-27.36-17.24-3.16-1.9-6.4-3.73-9.59-5.55-.75-.43-5.96-3.04-4.73-.23.32.72.92,1.27,1.51,1.79,9.17,8.14,19.96,14.32,30.18,20.98,5.51,3.59,10.98,7.25,16.43,10.94,2.72,1.85,5.44,3.7,8.16,5.56,2.21,1.51,5.21,2.99,6.62,5.38.47.8.66,1.84.25,2.67-1.09,2.21-4.96.37-6.64,0-3.3-.73-6.61-1.42-9.92-2.09-6.63-1.34-13.28-2.57-19.94-3.71-6.74-1.15-13.51-2.21-20.28-3.18-2.9,0-6.51-1.03-9.34-1.69-3.03-.71-5.25-.69-8.43-.36-4.05.42-.07,2.18,1.66,2.56,7.14,1.57,14.16,3.32,21.41,4.48,3.4.54,6.81.88,10.03,2.08,6.91,2.58,14.99,3.08,22.25,4.53,5.15,1.03,11.34,1.65,15.94,4.36,1.34.79,2.43,2.21,2.38,3.78-.05,1.55-1.22,2.89-2.6,3.59-2.3,1.17-5.55,1.71-8.08,2.28-3.19.71-6.37,1.44-9.55,2.17-6.36,1.47-12.71,2.98-19.06,4.51-8.32,2-16.63,4.03-24.95,6.03-1.84.44-18.31,2.85-15.66,6.62.61.87,1.92.72,2.95.47,7.36-1.78,14.43-4.67,21.97-5.72,14.66-2.06,29.5-5.46,44.05-8.74,4.16-.94,14.4-5.19,15.62,1.88.86,4.99-7.97,10.32-11.08,13.02-5.28,4.58-10.57,9.16-15.85,13.75-4.36,4.99-10.51,9.12-15.52,13.46-3.6,3.12-7.52,5.88-10.85,9.3-1.39,1.42-3.84,3.66-4.49,5.55-1.48,4.28,3.38.74,4.49-.36,9.42-9.38,20.66-16.18,30.71-24.89,3.93-3.4,8.14-6.84,11.71-10.59,3.4-3.57,7.48-8.15,12.24-9.84,9.88-3.5,1.91,13.3.5,16.43-2.16,4.8-4.36,9.59-6.59,14.36-5.9,12.64-24.85,53.07-21.53,55.13,3.11,1.93,9.65-22.34,18.61-37.03,3.63-5.95,6.02-12.58,8.95-18.9,1.46-3.16,2.91-6.33,4.35-9.51,1.33-2.94,2.37-6.57,4.19-9.22,2.04-2.95,7.25-5.32,8.53-.78,1.86,6.63-.11,27.67-.74,40.08-.72,14.24-1.12,51.24,2.47,49.13,1.26-.74,1.49-25.03,2.35-42.48.35-7.15.73-14.31,1.09-21.46.31-6.07-.49-13.67,1.61-19.44.44-1.22,1.4-2.33,2.67-2.6,1.33-.28,2.72.44,3.61,1.48,3.8,4.44,5.02,12.05,6.84,17.48,3.3,9.85,7.33,19.61,10.11,29.52,3.05,10.88,12.78,34.63,14.66,33.28,1.84-.69-4.56-14.88-6.48-21.71-2.03-7.24-4.21-14.44-6.48-21.62-2.1-6.62-4.27-13.22-6.48-19.81-2.09-6.25-5.09-12.71-6.59-19.1-.29-1.26-.14-2.71-.17-4,0-.39-.02-.8.09-1.18.28-.97,1.32-1.58,2.33-1.56,2.14.03,4.23,2.75,5.6,4.24,2.28,2.48,4.08,5.59,6.05,8.32,4.15,5.77,8.33,11.52,12.51,17.26,4.71,6.47,9.44,12.92,14.51,19.11,1.71,2.09,13.86,17.38,15.57,16.45,2.45-1.33-1.79-5.45-2.71-6.48-2.32-2.56-4.02-5.81-6.07-8.61-5.65-7.76-11.32-15.5-16.97-23.26-4.17-5.72-8.32-11.44-12.45-17.18-1.93-2.68-4.15-5.32-5.72-8.22-1.03-1.9-3.3-4.54-2.01-6.79.11-.18.23-.34.37-.49.78-.82,2.06-.99,3.16-.71,2.38.61,4.77,2.75,6.8,4.09,2.53,1.67,5.07,3.33,7.6,4.99,5.19,3.39,10.39,6.77,15.57,10.18,5.54,3.65,10.79,8.1,16.58,11.19,3.34,1.78,6.58,3.63,10.09,5.04.84.34,2.28,1.75,3.12.77.45-.53.4-1.35.06-1.96-1.64-2.94-5.73-4.95-8.41-6.82-6.77-4.71-13.66-9.22-20.52-13.79-5.29-3.47-10.6-6.92-15.9-10.38-4.73-3.09-9.84-5.86-12.67-10.97-.64-1.16-1.14-2.58-.59-3.79.41-.88,1.31-1.45,2.26-1.69,2.56-.65,5.46.2,8,.59,3.11.49,6.22.97,9.32,1.45,6.22.97,12.43,1.93,18.65,2.9,7.27,1.13,14.55,2.28,21.82,3.45,4.84.78,9.73,1.04,14.63,1.15,1.65.04,4.85.75,6.17-.46,3.2-2.93-2.92-3.27-4.37-3.39-1.61-.13-3.23-.24-4.82-.6-4.4-.99-8.98-1.47-13.43-2.18-8.96-1.43-17.92-2.83-26.89-4.22-7.03-1.09-14.07-2.18-21.1-3.28-3.29-.52-14.14-1.04-15.14-5.46-.31-1.38.52-2.82,1.67-3.65,2.16-1.56,5.48-2.28,8-3.01,3.1-.89,6.21-1.77,9.32-2.64,6.35-1.77,12.71-3.49,19.1-5.15,6.99-1.81,13.91-3.87,20.8-6.01,6.27-1.95,14.26-2.83,19.85-6.35-.7-1.73-3.3-1.05-4.68-.76-13.37,2.77-26.77,5.36-39.98,8.83-7.94,2.08-15.86,4.26-23.75,6.52-3.47.99-7.77,2.99-11.44,2.75-1.15-.08-2.35-.69-2.77-1.76-.47-1.18.11-2.52.78-3.59,2.36-3.74,6.26-6.89,9.6-9.72,12.11-10.27,24.87-20.02,36.73-30.4,4.47-3.91,8.92-7.86,13.45-11.71Z"/>
        </g>
        <g class="cls-2">
          <path class="cls-4" d="m184.94,176.09c-4.12,6.5-7.15,13.63-8.99,21.1-1.9,7.74,10.04,11.04,11.94,3.29,1.61-6.54,4.14-12.46,7.74-18.14,4.28-6.75-6.43-12.97-10.7-6.25Z"/>
          <path class="cls-4" d="m179.98,223.16c-1.07-1.07-2.84-1.88-4.38-1.81-1.6.07-3.26.6-4.38,1.81-1.11,1.21-1.81,2.7-1.81,4.38v2.8c0,1.59.69,3.26,1.81,4.38,1.07,1.07,2.84,1.88,4.38,1.81,1.6-.07,3.26-.6,4.38-1.81,1.11-1.21,1.81-2.7,1.81-4.38v-2.8c0-1.59-.69-3.26-1.81-4.38Z"/>
        </g>
      </g>
    </g>
  </g>
</svg>