<?xml version="1.0" encoding="UTF-8"?>
<svg xmlns="http://www.w3.org/2000/svg" xmlns:xlink="http://www.w3.org/1999/xlink" viewBox="0 0 540 540">
  <defs>
    <style>
      .cls-1 {
        fill: #86ac20;
      }

      .cls-2 {
        isolation: isolate;
      }

      .cls-3 {
        fill: #ea5639;
      }

      .cls-4 {
        fill: #c9c9c9;
        opacity: .53;
      }

      .cls-4, .cls-5 {
        mix-blend-mode: overlay;
      }

      .cls-5 {
        fill: #515151;
      }

      .cls-6 {
        clip-path: url(#clippath);
      }

      .cls-7 {
        fill: #a8c833;
      }

      .cls-8 {
        fill: none;
      }

      .cls-9 {
        fill: #75961c;
      }

      .cls-10 {
        fill: #e64219;
      }
    </style>
    <clipPath id="clippath">
      <path class="cls-8" d="m266.94,159.91c-61.96-11.14-120.14,8.84-147.4,67.67-23.67,51.33-4.96,200.95,160.87,197.64,151.59-2.86,170.53-117.11,170.67-154.14.05-37.3-29.09-152.25-184.14-111.17Z"/>
    </clipPath>
  </defs>
  <g class="cls-2">
    <g id="_Layer_" data-name="&amp;lt;Layer&amp;gt;">
      <g>
        <g>
          <g>
            <path class="cls-10" d="m266.94,159.91c-61.96-11.14-120.14,8.84-147.4,67.67-23.67,51.33-4.96,200.95,160.87,197.64,151.59-2.86,170.53-117.11,170.67-154.14.05-37.3-29.09-152.25-184.14-111.17Z"/>
            <path class="cls-3" d="m412.68,273.26c-23.7-87.67-182.04-143.62-244.24-84.47-42.88,40.78-44.58,140.55,15.27,194.37,65.52,58.93,173.57,34.68,213.71-25.44,2.63-3.94,26.88-41.5,15.27-84.47Z"/>
            <g class="cls-6">
              <path class="cls-5" d="m300.74,118.58c-99.69,20.29-159.23,108.65-147.56,180.13,13.36,81.83,121.9,152.84,235.08,112.96-12.39,20.8-50.46,78.4-116.01,92.61-111.29,24.12-251.89-87.67-242.2-209.64,8.45-106.38,129.9-203.8,270.7-176.06Z"/>
            </g>
            <path class="cls-4" d="m136.08,270.21c4.3.48,6.41-2.47,9.27-9.51,1.76-4.51,5.99-25.42-3.92-26.61-10.19-1.03-15.17,17.33-15.64,20.38-.55,3.49-.61,14.7,10.29,15.74Z"/>
            <g>
              <path class="cls-7" d="m147.16,160.11c13.36.19,42.71-7.07,57.61-11.96,15.04-5.01,24.7-3.22,46.81,12.3-17.07-31.32-48.83-22.71-62.94-25.97,43.4-12.62,70.85-9.95,81.15,21-4.5-26.13-.89-54.46,4.12-66.63.44-1.06,4.63.59,6.52-2.63,2.27-3.88,15.58-2.42,14.55,1.85-13.7,20.07-13.82,49.3-14.31,67.08,6.24-10.61,14.64-19.47,28.81-25.44,24.12-10.15,56.45,7.7,61.52,7.66-44.07,1.12-68.56,8.99-77.17,26.54,6.03,1.35,43.95-24.08,78.38-15.57,19.88,4.92,25.1,11.99,30.26,17.93-37.3-12.81-70.98-2.77-94.3,2.15.58,0,1.14.01,1.71.03,22.01-.23,34.97,10.65,38.75,16.85,4.05,6.08,3.09,18.65,1.23,23.22-7.09-30.42-35.13-23.99-48.11-23.47-9.9.31-20.29-1.94-24.73-5.8-25.48,1.5-43.56,19.99-41.4,29.26,2.35,9.23-3.29,16.79-7.95,20.16,3.38-3.55,2.3-21.58-.76-31.49-2.57-8.12-4.1-21,8.42-25.83,2.15-.89,4.72-1.5,7.79-1.75-15.09-9.41-35.25-8.44-47.72-4.17-12.19,3.89-37.25.52-48.25-5.32-.17-.09.15.05,0,0Z"/>
              <path class="cls-9" d="m276.82,162.93c2.62-.87,6.46.77,4.28,3.57-2.18,2.81-6.7,2.39-10.54,1.11-3.84-1.28-1.05-4.09,1.94-4.38,2.99-.3,4.33-.3,4.33-.3Z"/>
              <path class="cls-1" d="m296.03,87.36c-5.28,11.65-17.11,47.4-15.35,76.63-.48,4.49-8.29,4.51-9.63,1.86-3.53-13.28-7.7-53.45,2.87-76.99,6.15-4.26,22.11-1.5,22.11-1.5Z"/>
              <path class="cls-1" d="m282.48,83c-2.43.45-13.76,6.19-7.47,9.43,6.63,2.83,18.46.04,20.36-3.75,2.67-5.08-4.05-7.56-12.89-5.69Z"/>
            </g>
          </g>
          <path class="cls-4" d="m385.2,181.67c-11.71,1.18-21.82,17.72-23.41,31.55-1.33,11.56,3.65,18.19,11.19,34.6,19.59,42.63,15.36,61.78,27.48,65.13,11.19,3.09,26.83-9.93,33.85-23.56,21.06-40.9-23.56-110.3-49.11-107.72Z"/>
        </g>
        <path class="cls-4" d="m423.88,331.27c-4.31-6.89-18.22-7.36-26.46-1.02-5,3.85-10.37,12.09-7.12,19.34,3.31,7.38,13.52,9.17,20.35,7.12,11-3.3,17.91-17.96,13.23-25.44Z"/>
      </g>
    </g>
  </g>
</svg>