<?xml version="1.0" encoding="UTF-8"?>
<svg xmlns="http://www.w3.org/2000/svg" xmlns:xlink="http://www.w3.org/1999/xlink" viewBox="0 0 540 540">
  <defs>
    <style>
      .cls-1 {
        opacity: .28;
      }

      .cls-1, .cls-2 {
        fill: #595959;
        mix-blend-mode: overlay;
      }

      .cls-3 {
        fill: #ddbfab;
      }

      .cls-4 {
        clip-path: url(#clippath-2);
      }

      .cls-5 {
        fill: #e2c7b3;
      }

      .cls-6 {
        isolation: isolate;
      }

      .cls-7 {
        fill: #f2d1c0;
      }

      .cls-8 {
        clip-path: url(#clippath-1);
      }

      .cls-9 {
        fill: #a55858;
      }

      .cls-10 {
        fill: #ad6c5a;
      }

      .cls-11 {
        fill: #c99375;
      }

      .cls-12 {
        fill: none;
      }
    </style>
    <clipPath id="clippath-1">
      <path class="cls-12" d="m50.32,189.78l28.21,230.51,35.53,15.14h347.3s28.2-230.37,28.2-230.37c3.07-25.2-9.74-49.57-32-61.31-.02.02-.02,0-.03,0-.43-.23-.87-.46-1.32-.68-.5-.26-1.02-.52-1.57-.76-.49-.23-.99-.44-1.49-.65-30.56-12.85-102.6-7.84-187.29-16.36-83.08-8.35-144.63-29.95-174.15-16.3-24,11.08-44.6,54.54-41.39,80.78Z"/>
    </clipPath>
    <clipPath id="clippath-2">
      <path class="cls-12" d="m489.56,205.06l-28.21,230.36H114.06l-35.52-15.14-28.22-230.5c-3.22-26.24,17.38-69.71,41.38-80.79,29.54-13.64,91.09,7.95,174.16,16.29,84.27,8.47,156.02,3.56,186.83,16.17.67.27,1.32.55,1.95.84.52.24,1.03.49,1.52.73.23.11.48.23.7.36.25.13.51.27.75.4,22.23,11.73,35.02,36.09,31.95,61.27Z"/>
    </clipPath>
  </defs>
  <g class="cls-6">
    <g id="_Layer_" data-name="&amp;lt;Layer&amp;gt;">
      <g>
        <path class="cls-11" d="m489.56,205.06l-28.21,230.36H114.06l-35.52-15.14-28.22-230.5c-3.22-26.24,17.38-69.71,41.38-80.79,29.54-13.64,91.09,7.95,174.16,16.29,84.27,8.47,156.02,3.56,186.83,16.17.67.27,1.32.55,1.95.84.52.24,1.03.49,1.52.73.23.11.48.23.7.36.25.13.51.27.75.4,22.23,11.73,35.02,36.09,31.95,61.27Z"/>
        <g>
          <g>
            <g>
              <path class="cls-11" d="m114.06,435.42h347.3s28.2-230.37,28.2-230.37c3.22-26.28-10.87-51.67-34.91-62.76-29.65-13.67-67.16,6.79-153.26-1.87-83.08-8.35-144.62-29.94-174.16-16.3-24,11.08-44.6,54.55-41.38,80.79l28.22,230.51Z"/>
              <g>
                <path class="cls-5" d="m166.86,410.66h241.1c14.54,0,26.8-10.85,28.56-25.28l21.21-173.28c2.22-18.1-6.82-35.81-22.9-44.42-23.57-12.62-66.94,8.72-147.08,6.98-94.45-2.05-128.48-15.56-147.37-7.32-23.58,10.29-25.55,26.36-23.31,44.64l21.22,173.39c1.77,14.43,14.02,25.28,28.56,25.28Z"/>
                <path class="cls-7" d="m166.86,410.33c58.33.13,127.04-1.89,185.37-2.47,17.79-.19,37.05-.12,54.77-.11,3.82.06,7.66-.55,11.19-2.07,7.06-2.88,12.6-9.13,14.83-16.41.82-2.52,1.08-5.22,1.45-7.85,1.41-10.44,5.37-39.25,6.84-50.1,5.09-37.19,10.8-79.85,15.12-116.99.78-5.46.82-11.01-.39-16.41-3.26-15.84-16.36-30.25-32.78-32.13-5.46-.7-10.97-.43-16.45.04-16.62,1.7-33.28,5.15-49.93,7.38-50.37,7.36-101.52,4.42-151.97-.47-11.16-1.11-22.34-2.53-33.47-3.63-9.36-.74-18.84-1.97-27.82.76-5.99,2.26-11.95,5.71-16.23,10.21-11.69,11.76-6.84,30.82-5.46,45.57,1.05,8.36,2.76,25.14,3.7,33.5,4.47,41.79,8.47,83.93,13.18,125.72,1.23,14.19,13.81,25.53,28.05,25.46h0Zm0,.66c-14.65.19-27.59-11.44-29.19-25.98-5.49-41.69-11.8-83.54-17.53-125.18-1.67-12-4.03-29.78-5.59-41.76-2.25-14.46-3.35-31.17,7.81-42.66,4.81-5.15,10.65-8.56,16.78-11.34,4.93-2.12,10.52-2.78,15.75-2.85,17.13.09,33.87,3.02,50.74,4.72,33.36,3.68,66.92,6.01,100.49,5.82,22.36-.19,44.65-2.51,66.81-5.51,11.13-1.46,22.25-3.2,33.59-4,7.15-.46,14.46-.53,21.47,1.21,9.89,2.63,18.25,9.62,23.75,18.1,5.54,8.43,8.08,18.76,7.19,28.79-4.66,38.62-10,82.57-14,121.41-1.21,10.87-4.27,39.7-5.45,50.26-.27,2.84-.62,5.95-1.4,8.73-2.46,8.91-9.13,16.52-17.64,20.17-4.21,1.89-8.84,2.73-13.44,2.65-17.7.13-36.98-.05-54.77-.11-58.33-.58-127.04-2.6-185.37-2.47h0Z"/>
              </g>
              <path class="cls-3" d="m286.54,195.22c26.09-.87,51.63,13.05,53.77-2.73,1.9-14.02,29.73-9,53.91-1.84,30.91,9.15,46.45,13.86,50.76,20.11,7.65,11.1,2.56,24.76-5.08,45.25-9.54,25.61-18.1,26.42-18.27,41.9-.16,14.15,6.95,16.42,8.12,36.87.86,15.1-2.32,26.08-3.05,28.49-3.09,10.25-7.67,25.46-21.32,34.36-8.07,5.26-18.62,7.86-59.9,5.03-54.63-3.75-52.19-9.41-77.15-8.38-40.38,1.66-50.53,16.62-80.2,10.06-6.56-1.45-24.77-5.48-35.53-18.44-16.49-19.85,4.9-36.07-3.05-73.75-5.76-27.28-18.86-27.71-20.3-52.8-.43-7.4-2.06-35.77,20.3-54.47,10.51-8.79,27.99-12,62.94-18.44,9.99-1.84,29.08,10.26,74.03,8.76Z"/>
              <path class="cls-9" d="m381.77,210.26c10.71,4.75,22.67,15.99,20.1,23.76-2.18,6.59-14.71,10.35-23.76,7.31-8.22-2.76-7.81-9.21-18.28-16.45-11.87-8.2-21.93,5.48-21.93-9.14s23.81-14.38,43.86-5.48Z"/>
              <path class="cls-10" d="m296.78,279.89c7.58-6.61,21.15-6.8,25.59,0,3.52,5.4.3,13.68-3.66,18.28-6.83,7.94-21,10.83-26.5,4.57-4.8-5.46-2.18-16.96,4.57-22.85Z"/>
              <path class="cls-9" d="m190.78,230.54c6.17.03,12.37,6.59,11.88,12.79-.4,5.05-5.1,8.06-8.22,10.05-6.85,4.38-17.94,6.98-21.02,2.74-3.25-4.47,4.02-14.44,5.48-16.45,3.31-4.54,6.68-9.17,11.88-9.14Z"/>
            </g>
            <path class="cls-10" d="m232.11,342.63c6.92,3.81,9.9,14.97,5.56,21.64-3.53,5.43-10.66,5.93-15.39,6.26-10.38.73-24.46-3.14-25.33-9.78-.92-7.01,13.34-13.76,16.21-15.12,6.5-3.08,13.12-6.21,18.95-2.99Z"/>
            <path class="cls-9" d="m343.39,334.72c1.81-.97,4.32-.82,13.71,4.57,13.82,7.93,20.73,11.89,20.1,15.53-.89,5.23-15.7,9.46-26.5,4.57-1.67-.76-7.78-3.52-10.05-10.05-1.79-5.13-1.18-12.51,2.74-14.62Z"/>
          </g>
          <g class="cls-8">
            <path class="cls-2" d="m322.66,87.74c-.5,14.6-76.95,4.35-141.88,64.86-28.62,26.68-41.88,54.87-44.59,60.81-18.32,40.15-14.09,70.34-14.19,135.8-.05,31.49-1.11,77.32-6.08,133.78-25-6.08-50-12.16-75-18.24C19.72,426.08-48.68,290.41,2.41,158.68c8.06-20.77,21-53.01,52.7-79.05,98.04-80.53,268.3-13.78,267.55,8.11Z"/>
          </g>
        </g>
        <g class="cls-4">
          <path class="cls-1" d="m69.05,93.14c5.37,1.55-23.25,58.3-2.13,70.54,8.75,5.07,15.01,5.74,20.55,4.07,9.36-2.82,18.47,4.97,16.98,14.63-1.6,10.35-3.2,22.16-4.59,35.13-11.52,107.61,32.91,186.66,14.88,192.38-2.43.77-9.33,1.59-27.64-20.2C25.6,316.47,19.28,206.87,47.8,129.27c8.22-22.37,17.55-37.21,21.26-36.14Z"/>
        </g>
      </g>
    </g>
  </g>
</svg>