<?xml version="1.0" encoding="UTF-8"?>
<svg xmlns="http://www.w3.org/2000/svg" viewBox="0 0 540 540">
  <defs>
    <style>
      .cls-1 {
        fill: #fff;
      }

      .cls-2 {
        fill: #ea5959;
      }

      .cls-3 {
        mix-blend-mode: overlay;
      }

      .cls-3, .cls-4 {
        fill: #ffa9a9;
      }

      .cls-5 {
        isolation: isolate;
      }

      .cls-6 {
        fill: #f79f9f;
      }

      .cls-7 {
        fill: #ffe6e6;
      }

      .cls-8 {
        fill: #f47171;
      }
    </style>
  </defs>
  <g class="cls-5">
    <g id="_Layer_" data-name="&amp;lt;Layer&amp;gt;">
      <g>
        <g>
          <g>
            <path class="cls-8" d="m323.85,410.18h-107.7c-36.6,0-67.21-25.14-70.74-58.1l-19.92-185.86h289.03l-19.92,185.86c-3.53,32.96-34.15,58.1-70.74,58.1Z"/>
            <path class="cls-4" d="m358.95,297.54c-5.54-.91-8.51,9.55-28.91,38.33-12.92,18.23-16.93,21.38-15.56,23.96,3.74,7.07,44.18,2.67,53.36-23.96,5.56-16.1-1.43-37.1-8.89-38.33Z"/>
          </g>
          <path class="cls-2" d="m149.89,208.87c12.36-13.93,43.39-10.29,63,0,16.72,8.77,20.8,20.09,34.84,19.96,12.64-.12,15.96-9.37,32.61-14.37,15.29-4.6,23.99-.25,38.54.8,44.14,3.19,65.95-29.42,77.82-19.17,9.52,8.22-4.16,29.44-9.64,81.45-5.66,53.78,5.27,66.11-7.41,82.25-10.38,13.22-35.09,16.53-84.49,23.16-14.82,1.99-27.56,3.65-45.21,3.99-41.87.8-62.81,1.2-76.34-11.98-12.17-11.86-7.35-23.03-15.56-79.06-8.76-59.74-18.41-75.48-8.15-87.04Z"/>
          <path class="cls-3" d="m358.95,297.54c-5.54-.91-8.51,9.55-28.91,38.33-12.92,18.23-16.93,21.38-15.56,23.96,3.74,7.07,44.18,2.67,53.36-23.96,5.56-16.1-1.43-37.1-8.89-38.33Z"/>
        </g>
        <g>
          <path class="cls-1" d="m169.64,247.38c3.93-1.06,6.23-.11,7.68.55,4.94,2.24,1.6,9.51-1.58,7.84-3.36-1.77-5.51-.83-4.89,2.17.61,3,6.31.63,10.75,4.72,5.6,5.16,2.5,14.01-4.63,15.48-7.9,1.63-12.39-1.29-13.75-2.52-2.67-2.41-.99-9.09,3.31-7.39,5.25,2.07,8.6,3.68,8.81,1.55.31-3.28-11.54-1.32-13.15-8.93-1.72-8.13,3.76-12.47,7.46-13.47Z"/>
          <path class="cls-1" d="m198.68,274.13c-.32-.76-.23,1.44-4.06,2.17-4.68.89-8.61-2.6-9.45-7.87-.7-4.43-1.19-8.71-.32-11.66,1.4-4.75,8.64-3.54,8.26.94-.52,6.16,1.04,12.55,3.7,11.03,2.17-1.24,1.28-5.66.2-10.79-1.32-6.25,6.43-6.47,7.89-3.36,1.73,3.68.74,7.84,2.23,16.94.83,5.07-7.4,5.13-8.46,2.6Z"/>
          <path class="cls-1" d="m229.56,254.32c-.77,5.09.15,12,.1,14.96-.02,1.33.69,4.87-.23,8.56-1.48,5.91-11.25,6.6-14.96,4.39-3.46-2.06-1.29-7.65,1.96-6.39,1.58.61,4.89.31,5.17-1.42.11-.65.11-2.55.11-2.55,0,0-.48,1.95-4.24,2.44-7.2.93-8.71-4.82-9.6-9.64-.88-4.83-.3-13.23,6.44-14.14,6.04-.82,6.64,1.56,6.64,1.56,0,0-.06-.18.15-.8.73-2.08,9.22-2.07,8.45,3.03Zm-8.58,4.47c-.12-.89-1.7-2.18-3.51-1.51-1.4.51-1.7,3.74-1.47,5.67.31,2.59.73,3.4,2.05,4.05,1.31.64,3.18-.94,3.18-.94.41-1.07-.18-6.74-.25-7.26Z"/>
          <path class="cls-1" d="m245.41,272.06c-.26-.6-.22-.78-.22-.78,0,0-.39,2.38-6.31,2.16-6.61-.25-8.16-8.47-7.84-13.37.32-4.9,2.94-10.35,8.66-10.61,3.89-.18,4.57,2.53,4.57,2.53,0,0-.11-.66.02-1.27.56-2.74,7.88-3.01,8.21.81.26,2.95-.15,11.86.93,16.89,1.08,5.04-7.14,5.67-8.02,3.65Zm-1.13-14.72s-2.03-1.41-3.29-.65c-1.27.77-1.61,1.62-1.67,4.23-.04,1.93.57,5.12,2,5.5,1.85.49,3.29-.92,3.33-1.82.03-.53.13-6.23-.37-7.26Z"/>
          <path class="cls-1" d="m269.51,257.44c-1.89-.78-3.7-1.37-4.69-.91-2.28,1.06-1.71,5.55-1.04,10.74.82,6.33-6.7,6.01-7.95,2.82-1.48-3.78-.27-7.87-1.27-17.04-.56-5.1,7.91-4.65,8.79-2.05.26.78.33-1.62,4.33-1.84,3-.16,5.78,1.04,7.06,3.01,1.81,2.78-1.24,6.91-5.22,5.27Z"/>
          <path class="cls-1" d="m290.19,262.34c-1.71.4-10.67.26-12.76-.2-2.57-.57-2.54-5.66.05-6.13,2.3-.42,9.46-.13,12.14.19,3.74.44,2.28,5.75.58,6.14Z"/>
          <path class="cls-1" d="m309.14,261.6c-3.42.37-5.64-.5-6.2.18s-.2,4.05-1.04,7.77c-1.13,4.95-8.11,4.27-8.25-.27-.1-3.18.59-5.94.55-10.96-.02-3.57-1.27-10.16-.15-13.26,1.53-4.23,13.35-1.02,17.81-.64,4.03.34,3.61,7.93-.35,7.39-2.78-.38-6.52-1.28-7.79-1.07-1.28.21-1.31,2.67-.82,3.64.47.94,2.47.87,6.07,1.03,3.06.14,3.59,5.81.17,6.18Z"/>
          <path class="cls-1" d="m329.06,259.45c-1.83-.91-3.6-1.62-4.62-1.23-2.35.9-2.09,5.41-1.77,10.65.39,6.37-7.1,5.54-8.13,2.27-1.22-3.87.27-7.87-.1-17.09-.21-5.13,8.21-4.1,8.91-1.44.21.8.44-1.59,4.45-1.54,3.01.04,5.7,1.44,6.84,3.48,1.61,2.9-1.71,6.81-5.58,4.9Z"/>
          <path class="cls-1" d="m353.38,275.56c-3.06,1.44-8.08,1.39-11.52.2-4.66-1.61-7.71-6.16-7.18-13.17.75-10,9.03-12.98,18.17-8.54,5.67,2.75,4.88,11.91-.7,12.48-5.68.59-8.85-.38-8.85-.38.09,2.28,2.59,4.32,7.05,2.23,4.2-1.97,6.85,5.37,3.02,7.17Zm-9.08-15.01c.4.62,3.78.71,4.27.07.46-.6-.39-1.73-2.07-1.85-1.64-.11-2.86.76-2.2,1.78Z"/>
          <path class="cls-1" d="m375.5,278.01c-3.1,1.36-8.12,1.18-11.52-.1-4.62-1.73-7.55-6.36-6.85-13.35,1.01-9.97,9.37-12.74,18.4-8.07,5.6,2.9,4.57,12.03-1.02,12.46-5.69.44-8.84-.61-8.84-.61.03,2.28,2.48,4.39,7,2.41,4.25-1.86,6.71,5.55,2.84,7.25Zm-8.69-15.24c.39.64,3.76.81,4.27.18.48-.59-.34-1.74-2.02-1.9-1.64-.15-2.88.69-2.25,1.72Z"/>
        </g>
        <path class="cls-3" d="m201.27,143.68c5.32,50.17,4.39,90.79,2.22,120.15-2.43,32.95-6.96,59.12,11.12,79.42,13.04,14.64,32.4,20.11,46.69,22.4-26.97,6.99-60.92,11.83-77.82-4.07-15.6-14.67-8.14-38.98-6.67-71.28,1.36-29.87-2.15-72.04-24.46-124.22,16.31-7.47,32.61-14.93,48.92-22.4Z"/>
        <ellipse class="cls-7" cx="270" cy="161.84" rx="168.77" ry="32.03"/>
        <path class="cls-7" d="m302.32,185.84c.03,2.35,20.19.71,36.11,14.91,5.48,4.89,5.6,7.32,10.78,10.11,14.42,7.79,35.41.81,36.11-5.32.42-3.65-6.61-4.8-8.62-11.71-1.7-5.85,1.29-12.04,4.85-17.04-62.18,3.94-79.25,6.89-79.22,9.05Z"/>
        <path class="cls-6" d="m338.89,186.51c.36-1.99,6.67-2.99,23.35-2,8.07,7.35,13.42,13.36,12.23,15.57-2.61,4.85-36.47-8.72-35.58-13.58Z"/>
      </g>
    </g>
  </g>
</svg>