<?xml version="1.0" encoding="UTF-8"?>
<svg xmlns="http://www.w3.org/2000/svg" xmlns:xlink="http://www.w3.org/1999/xlink" viewBox="0 0 540 540">
  <defs>
    <style>
      .cls-1 {
        isolation: isolate;
      }

      .cls-2 {
        fill: #d1a684;
      }

      .cls-3 {
        fill: #d8b593;
      }

      .cls-4 {
        fill: #686665;
        mix-blend-mode: overlay;
      }

      .cls-5 {
        clip-path: url(#clippath);
      }

      .cls-6 {
        fill: none;
      }
    </style>
    <clipPath id="clippath">
      <path class="cls-6" d="m280.87,118.14c-10.5-.84-18.59-.11-25.01.49-7.31.69-13.26,1.7-17.16,2.45-14.33,2.76-13.32,4.37-35.31,10.3-5.01,1.35-9.83,2.55-15.69,5.88-2.99,1.7-5.32,3.42-9.32,6.38-3.94,2.91-7.14,5.27-10.79,8.83-3.59,3.49-3.04,3.68-7.85,8.83-5.87,6.29-6.7,6.02-10.79,10.79-2.09,2.43-4.01,5.22-7.85,10.79-5.98,8.67-4.81,7.81-7.85,11.77-4.64,6.06-6.59,7.05-7.85,11.28-.56,1.89-.29,2.09-1.47,7.36-.82,3.65-1.25,4.9-1.96,7.85-.94,3.92-1.41,6.82-1.96,10.3-2.22,13.9-3.62,22.66-2.94,33.35.63,9.89,2.28,9.56,2.94,21.58.29,5.29.15,8.54.98,15.2.39,3.15.92,6.19,1.96,12.26.84,4.88,1.27,7.38,1.96,10.3.42,1.79,1.36,5.56,2.94,10.3,2.14,6.4,3.21,9.6,5.39,13.24,2.77,4.62,3.64,3.96,7.85,10.3,2.89,4.36,2.87,5.27,5.39,8.83.31.44,3.36,4.69,7.85,8.83,8.12,7.48,11.33,5.7,20.11,12.75,5.6,4.5,4.7,5.55,11.77,11.28,6.11,4.95,11.25,7.78,12.26,8.34,4.01,2.19,9.25,4.52,20.6,7.36,3.58.9,14.01,3.4,31.39,5.39,23.37,2.68,30.64,1.14,33.35.49,2.91-.69,6.51-2.1,13.73-4.9,14.37-5.59,15.62-7.47,28.44-12.26,4.94-1.85,8.41-2.93,15.69-5.89,7.4-3,9.92-4.35,12.26-5.88,2.57-1.68,5.18-4.09,10.3-8.83,4.76-4.41,5.52-5.33,11.77-11.28,7.05-6.72,7.5-6.91,10.79-10.3,4.05-4.17,6.86-7.48,8.83-9.81,5.14-6.08,7.71-9.12,9.32-12.26,2.44-4.78,1.42-5.35,4.41-12.26,2.6-6,3.65-6.23,5.89-11.28,1.84-4.16,2.7-8.17,4.41-16.18,1.14-5.34,2.28-10.76,2.94-18.15.52-5.8.51-10.23.49-13.24-.02-4.07-.07-9.63-.98-16.67-.91-6.98-1.52-6.59-2.45-13.73-1.15-8.82-.21-9.5-1.47-15.69-.34-1.68-1.5-6.98-4.41-13.24-2.2-4.74-3.8-6.57-7.85-12.75-2.32-3.54-4.98-8.08-10.3-17.16-8.5-14.51-8.82-16.05-12.26-19.13-2.67-2.39-2.44-1.42-13.73-8.34-9.92-6.07-10.51-7.07-15.69-9.81-6-3.17-6.43-2.48-17.16-6.87-14.68-6-15.36-7.9-25.99-11.28-1.75-.56-7.69-2.4-15.69-3.92-7.27-1.38-12.85-1.85-14.22-1.96Z"/>
    </clipPath>
  </defs>
  <g class="cls-1">
    <g id="_Layer_" data-name="&amp;lt;Layer&amp;gt;">
      <g>
        <g>
          <path class="cls-2" d="m280.87,118.14c-10.5-.84-18.59-.11-25.01.49-7.31.69-13.26,1.7-17.16,2.45-14.33,2.76-13.32,4.37-35.31,10.3-5.01,1.35-9.83,2.55-15.69,5.88-2.99,1.7-5.32,3.42-9.32,6.38-3.94,2.91-7.14,5.27-10.79,8.83-3.59,3.49-3.04,3.68-7.85,8.83-5.87,6.29-6.7,6.02-10.79,10.79-2.09,2.43-4.01,5.22-7.85,10.79-5.98,8.67-4.81,7.81-7.85,11.77-4.64,6.06-6.59,7.05-7.85,11.28-.56,1.89-.29,2.09-1.47,7.36-.82,3.65-1.25,4.9-1.96,7.85-.94,3.92-1.41,6.82-1.96,10.3-2.22,13.9-3.62,22.66-2.94,33.35.63,9.89,2.28,9.56,2.94,21.58.29,5.29.15,8.54.98,15.2.39,3.15.92,6.19,1.96,12.26.84,4.88,1.27,7.38,1.96,10.3.42,1.79,1.36,5.56,2.94,10.3,2.14,6.4,3.21,9.6,5.39,13.24,2.77,4.62,3.64,3.96,7.85,10.3,2.89,4.36,2.87,5.27,5.39,8.83.31.44,3.36,4.69,7.85,8.83,8.12,7.48,11.33,5.7,20.11,12.75,5.6,4.5,4.7,5.55,11.77,11.28,6.11,4.95,11.25,7.78,12.26,8.34,4.01,2.19,9.25,4.52,20.6,7.36,3.58.9,14.01,3.4,31.39,5.39,23.37,2.68,30.64,1.14,33.35.49,2.91-.69,6.51-2.1,13.73-4.9,14.37-5.59,15.62-7.47,28.44-12.26,4.94-1.85,8.41-2.93,15.69-5.89,7.4-3,9.92-4.35,12.26-5.88,2.57-1.68,5.18-4.09,10.3-8.83,4.76-4.41,5.52-5.33,11.77-11.28,7.05-6.72,7.5-6.91,10.79-10.3,4.05-4.17,6.86-7.48,8.83-9.81,5.14-6.08,7.71-9.12,9.32-12.26,2.44-4.78,1.42-5.35,4.41-12.26,2.6-6,3.65-6.23,5.89-11.28,1.84-4.16,2.7-8.17,4.41-16.18,1.14-5.34,2.28-10.76,2.94-18.15.52-5.8.51-10.23.49-13.24-.02-4.07-.07-9.63-.98-16.67-.91-6.98-1.52-6.59-2.45-13.73-1.15-8.82-.21-9.5-1.47-15.69-.34-1.68-1.5-6.98-4.41-13.24-2.2-4.74-3.8-6.57-7.85-12.75-2.32-3.54-4.98-8.08-10.3-17.16-8.5-14.51-8.82-16.05-12.26-19.13-2.67-2.39-2.44-1.42-13.73-8.34-9.92-6.07-10.51-7.07-15.69-9.81-6-3.17-6.43-2.48-17.16-6.87-14.68-6-15.36-7.9-25.99-11.28-1.75-.56-7.69-2.4-15.69-3.92-7.27-1.38-12.85-1.85-14.22-1.96Z"/>
          <g>
            <path class="cls-3" d="m246.05,125.98c-7.88,1-18.59,2.45-31.39,7.85-6.88,2.9-11.76,5.85-19.13,10.3-10.94,6.61-16.54,9.99-23.05,16.18-4.95,4.71-8.86,9.84-16.67,20.11-4.63,6.09-6.96,9.61-8.34,11.77-3.41,5.34-3.13,5.67-7.85,13.73-6,10.26-7.41,11.37-8.34,15.69-.96,4.49-.12,6.42,0,11.77.22,10.21-2.56,16.91-3.92,22.07-2.75,10.43-.86,19.87,2.94,38.74,6.64,33.01,11.45,56.89,29.92,71.11,4.09,3.15,6.96,4.37,23.05,15.69,8.3,5.84,11.92,8.6,19.13,13.24,9.3,5.99,13.96,8.99,18.15,10.79,10.88,4.67,14.3,1.99,38.74,4.41,19.77,1.96,22.08,4.16,30.41,1.96,7.26-1.92,6.61-3.89,21.09-10.79,14.04-6.69,16.98-5.95,25.99-11.28,3.24-1.92,6.29-4.03,18.15-14.71,18.38-16.55,27.58-24.83,33.35-32.86,3.41-4.74,10.06-14.13,14.71-27.46,2.25-6.45,3.86-13.31,4.41-15.69,1.58-6.75,1.1-6.44,3.43-18.15,1.99-9.98,2.63-11.66,2.45-15.69-.24-5.42-1.65-8.41-2.94-12.75-3.76-12.64-.74-17.44-2.45-27.46-1.52-8.94-6.41-15.44-16.18-28.44-8.84-11.77-16.95-19.05-27.95-28.93-8.48-7.61-12.85-11.5-19.62-15.2-9.22-5.05-13.17-4.7-24.52-8.83-20.25-7.36-18.47-12.4-32.86-16.67-13.39-3.97-24.75-2.53-40.7-.49Z"/>
            <g>
              <g>
                <path class="cls-2" d="m218.59,184.26c-1.15-1.38-6.46.58-9.89,3.77-3.04,2.83-5.43,7.37-4.26,8.64,1.17,1.28,5.89-.85,8.95-3.41,3.41-2.86,6.36-7.62,5.2-8.99Z"/>
                <path class="cls-2" d="m239.16,173.07c.24-1.78-4.79-4.37-9.46-4.75-4.14-.34-9.1.98-9.25,2.69-.15,1.73,4.61,3.77,8.56,4.3,4.42.58,9.91-.46,10.15-2.24Z"/>
                <path class="cls-2" d="m221.62,200.96c-1.75.06-3.43,5.3-3.04,9.84.34,4.03,2.39,8.58,4.06,8.44,1.68-.13,2.88-5.02,2.75-8.9-.15-4.33-2.03-9.44-3.77-9.38Z"/>
                <path class="cls-2" d="m201.14,226.45c1.64.6,5.16-3.64,6.49-7.99,1.18-3.86.98-8.85-.62-9.35-1.61-.5-4.55,3.59-5.87,7.23-1.48,4.07-1.64,9.51,0,10.11Z"/>
                <path class="cls-2" d="m190.08,245.43c.67,1.62,6.16,1.34,10.28-.61,3.65-1.74,7.19-5.26,6.47-6.77-.72-1.53-5.72-.93-9.3.56-4,1.66-8.12,5.22-7.45,6.83Z"/>
                <path class="cls-2" d="m191.13,211.76c1.48-.93.31-6.3-2.3-10.04-2.31-3.31-6.37-6.22-7.75-5.27-1.39.96.02,5.79,2.08,9.08,2.3,3.68,6.48,7.15,7.96,6.23Z"/>
                <path class="cls-2" d="m282.06,177.94c-1.15-1.38-6.46.58-9.89,3.77-3.04,2.83-5.43,7.37-4.26,8.64,1.17,1.28,5.89-.85,8.95-3.41,3.41-2.86,6.36-7.62,5.2-8.99Z"/>
                <path class="cls-2" d="m301.68,166.75c.24-1.78-4.79-4.37-9.46-4.75-4.14-.34-9.1.98-9.25,2.69-.15,1.73,4.61,3.77,8.56,4.3,4.42.58,9.91-.46,10.15-2.24Z"/>
                <path class="cls-2" d="m283.4,196.16c-1.8.06-3.52,5.44-3.13,10.11.35,4.14,2.46,8.81,4.18,8.68,1.73-.14,2.96-5.16,2.83-9.15-.15-4.45-2.08-9.7-3.88-9.64Z"/>
                <path class="cls-2" d="m262.36,222.36c1.69.61,5.3-3.74,6.67-8.22,1.22-3.97,1-9.1-.64-9.61-1.66-.52-4.68,3.69-6.04,7.43-1.52,4.19-1.69,9.78,0,10.39Z"/>
                <path class="cls-2" d="m250.99,241.87c.69,1.66,6.34,1.38,10.57-.63,3.75-1.78,7.39-5.4,6.65-6.96-.74-1.57-5.88-.96-9.56.57-4.12,1.71-8.35,5.36-7.66,7.02Z"/>
                <path class="cls-2" d="m252.07,207.26c1.53-.95.32-6.48-2.36-10.32-2.38-3.41-6.55-6.4-7.96-5.42-1.43.99.02,5.95,2.14,9.34,2.36,3.78,6.66,7.35,8.19,6.4Z"/>
                <path class="cls-2" d="m263.03,170.84c1.5-.99.17-6.48-2.59-10.26-2.45-3.35-6.69-6.24-8.08-5.24-1.41,1.02.16,5.95,2.35,9.29,2.45,3.72,6.83,7.2,8.33,6.21Z"/>
                <path class="cls-2" d="m196.58,178.84c1.77-.31,2.74-5.88,1.71-10.45-.92-4.05-3.65-8.39-5.33-8.02-1.7.37-2.23,5.52-1.55,9.45.76,4.39,3.4,9.32,5.16,9.02Z"/>
                <path class="cls-2" d="m221.88,157.48c1.46,1.06,6.12-2.14,8.68-6.06,2.26-3.48,3.47-8.47,2.03-9.41-1.45-.95-5.51,2.26-7.85,5.49-2.61,3.61-4.31,8.94-2.86,9.99Z"/>
              </g>
              <g>
                <path class="cls-2" d="m273.29,285.9c1.76-.35,2.61-5.94,1.47-10.48-1.01-4.03-3.84-8.31-5.51-7.9-1.69.41-2.1,5.57-1.33,9.48.86,4.37,3.61,9.24,5.37,8.9Z"/>
                <path class="cls-2" d="m273.17,309.31c1.45,1.07,6.14-2.09,8.72-6,2.29-3.46,3.53-8.44,2.1-9.4-1.44-.96-5.53,2.22-7.89,5.43-2.64,3.59-4.38,8.9-2.93,9.97Z"/>
                <path class="cls-2" d="m257.19,280.5c.79-1.56-2.99-5.56-7.15-7.41-3.69-1.64-8.67-2.04-9.36-.51-.69,1.54,3.01,4.95,6.47,6.7,3.87,1.96,9.25,2.77,10.04,1.22Z"/>
                <path class="cls-2" d="m244.73,250.27c-1.32,1.15.7,6.27,3.87,9.54,2.81,2.9,7.28,5.12,8.49,3.96,1.22-1.17-.95-5.72-3.51-8.63-2.86-3.26-7.54-6.02-8.86-4.87Z"/>
                <path class="cls-2" d="m233.43,231.43c-1.74-.19-4.15,4.75-4.42,9.3-.24,4.03,1.14,8.83,2.81,8.94,1.69.11,3.57-4.56,4-8.42.47-4.31-.66-9.63-2.39-9.82Z"/>
                <path class="cls-2" d="m262.42,248.58c.1,1.75,5.37,3.31,9.9,2.83,4.02-.43,8.52-2.58,8.35-4.25-.17-1.68-5.09-2.77-8.96-2.56-4.33.24-9.39,2.23-9.3,3.98Z"/>
                <path class="cls-2" d="m248.22,344.55c1.76-.35,2.61-5.94,1.47-10.48-1.01-4.03-3.84-8.31-5.51-7.9-1.69.41-2.1,5.57-1.33,9.48.86,4.37,3.61,9.24,5.37,8.9Z"/>
                <path class="cls-2" d="m248.57,367.13c1.45,1.07,6.14-2.09,8.72-6,2.29-3.46,3.53-8.44,2.1-9.4-1.44-.96-5.53,2.22-7.89,5.43-2.64,3.59-4.38,8.9-2.93,9.97Z"/>
                <path class="cls-2" d="m231.61,336.95c.81-1.6-3.07-5.71-7.35-7.61-3.79-1.69-8.91-2.09-9.62-.52-.71,1.58,3.1,5.09,6.65,6.89,3.97,2.01,9.5,2.85,10.32,1.25Z"/>
                <path class="cls-2" d="m236.99,304.14c.1,1.8,5.52,3.4,10.18,2.91,4.13-.44,8.76-2.65,8.58-4.36-.18-1.73-5.23-2.85-9.21-2.63-4.45.25-9.65,2.29-9.55,4.09Z"/>
                <path class="cls-2" d="m263.61,331.31c.14,1.79,5.6,3.28,10.24,2.67,4.12-.53,8.7-2.85,8.48-4.56-.21-1.72-5.29-2.73-9.27-2.42-4.44.35-9.6,2.51-9.46,4.3Z"/>
                <path class="cls-2" d="m288.64,269.23c-.59,1.7,3.83,5.23,8.33,6.53,3.99,1.15,9.11.85,9.6-.8.49-1.67-3.76-4.61-7.54-5.91-4.21-1.45-9.8-1.52-10.39.18Z"/>
                <path class="cls-2" d="m295.16,301.69c-1.63.77-1.08,6.39,1.13,10.52,1.96,3.66,5.75,7.12,7.27,6.32,1.53-.81.68-5.92-1.02-9.52-1.9-4.03-5.75-8.08-7.38-7.32Z"/>
              </g>
              <g>
                <path class="cls-2" d="m362.47,234.38c1.76-.35,2.61-5.94,1.47-10.48-1.01-4.03-3.84-8.31-5.51-7.9-1.69.41-2.1,5.57-1.33,9.48.86,4.37,3.61,9.24,5.37,8.9Z"/>
                <path class="cls-2" d="m362.35,257.79c1.45,1.07,6.14-2.09,8.72-6,2.29-3.46,3.53-8.44,2.1-9.4-1.44-.96-5.53,2.22-7.89,5.43-2.64,3.59-4.38,8.9-2.93,9.97Z"/>
                <path class="cls-2" d="m346.38,228.98c.79-1.56-2.99-5.56-7.15-7.41-3.69-1.64-8.67-2.04-9.36-.51-.69,1.54,3.01,4.95,6.47,6.7,3.87,1.96,9.25,2.77,10.04,1.22Z"/>
                <path class="cls-2" d="m333.91,198.75c-1.32,1.15.7,6.27,3.87,9.54,2.81,2.9,7.28,5.12,8.49,3.96,1.22-1.17-.95-5.72-3.51-8.63-2.86-3.26-7.54-6.02-8.86-4.87Z"/>
                <path class="cls-2" d="m322.62,179.91c-1.74-.19-4.15,4.75-4.42,9.3-.24,4.03,1.14,8.83,2.81,8.94,1.69.11,3.57-4.56,4-8.42.47-4.31-.66-9.63-2.39-9.82Z"/>
                <path class="cls-2" d="m351.61,197.06c.1,1.75,5.37,3.31,9.9,2.83,4.02-.43,8.52-2.58,8.35-4.25-.17-1.68-5.09-2.77-8.96-2.56-4.33.24-9.39,2.23-9.3,3.98Z"/>
                <path class="cls-2" d="m337.41,293.03c1.76-.35,2.61-5.94,1.47-10.48-1.01-4.03-3.84-8.31-5.51-7.9-1.69.41-2.1,5.57-1.33,9.48.86,4.37,3.61,9.24,5.37,8.9Z"/>
                <path class="cls-2" d="m337.75,315.61c1.45,1.07,6.14-2.09,8.72-6,2.29-3.46,3.53-8.44,2.1-9.4-1.44-.96-5.53,2.22-7.89,5.43-2.64,3.59-4.38,8.9-2.93,9.97Z"/>
                <path class="cls-2" d="m320.8,285.42c.81-1.6-3.07-5.71-7.35-7.61-3.79-1.69-8.91-2.09-9.62-.52-.71,1.58,3.1,5.09,6.65,6.89,3.97,2.01,9.5,2.85,10.32,1.25Z"/>
                <path class="cls-2" d="m307.99,254.36c-1.35,1.18.72,6.44,3.98,9.81,2.89,2.98,7.48,5.26,8.73,4.07,1.25-1.2-.98-5.87-3.6-8.87-2.94-3.35-7.75-6.19-9.11-5.01Z"/>
                <path class="cls-2" d="m296.38,234.99c-1.79-.2-4.27,4.88-4.54,9.56-.24,4.15,1.17,9.08,2.89,9.19,1.73.11,3.67-4.69,4.11-8.65.49-4.43-.67-9.9-2.46-10.1Z"/>
                <path class="cls-2" d="m326.18,252.62c.1,1.8,5.52,3.4,10.18,2.91,4.13-.44,8.76-2.65,8.58-4.36-.18-1.73-5.23-2.85-9.21-2.63-4.45.25-9.65,2.29-9.55,4.09Z"/>
                <path class="cls-2" d="m352.8,279.78c.14,1.79,5.6,3.28,10.24,2.67,4.12-.53,8.7-2.85,8.48-4.56-.21-1.72-5.29-2.73-9.27-2.42-4.44.35-9.6,2.51-9.46,4.3Z"/>
                <path class="cls-2" d="m377.82,217.71c-.59,1.7,3.83,5.23,8.33,6.53,3.99,1.15,9.11.85,9.6-.8.49-1.67-3.76-4.61-7.54-5.91-4.21-1.45-9.8-1.52-10.39.18Z"/>
                <path class="cls-2" d="m384.35,250.17c-1.63.77-1.08,6.39,1.13,10.52,1.96,3.66,5.75,7.12,7.27,6.32,1.53-.81.68-5.92-1.02-9.52-1.9-4.03-5.75-8.08-7.38-7.32Z"/>
                <path class="cls-2" d="m301.22,208.92c-.99,1.44,2.24,5.9,6.13,8.28,3.45,2.11,8.33,3.15,9.21,1.72.89-1.44-2.34-5.3-5.54-7.49-3.58-2.45-8.81-3.96-9.79-2.51Z"/>
                <path class="cls-2" d="m276.15,132.49c-1.59.72-1.14,6.21.96,10.25,1.86,3.59,5.49,7.01,6.99,6.24,1.5-.77.74-5.75-.87-9.28-1.79-3.95-5.49-7.94-7.08-7.22Z"/>
                <path class="cls-2" d="m314.08,158.2c-.14,1.74,4.88,4,9.44,4.12,4.04.11,8.79-1.42,8.84-3.1.05-1.69-4.67-3.43-8.54-3.73-4.32-.34-9.61.96-9.74,2.7Z"/>
                <path class="cls-2" d="m353.01,163.72c-1.71.38-2.39,5.84-1.16,10.23,1.08,3.89,3.94,7.98,5.56,7.54,1.63-.44,1.9-5.47,1.05-9.26-.95-4.23-3.74-8.9-5.45-8.52Z"/>
                <path class="cls-2" d="m381.15,294.12c-1.21,1.33,1.47,6.32,5.1,9.27,3.22,2.62,8.05,4.35,9.14,3.02,1.1-1.34-1.66-5.72-4.62-8.39-3.31-2.98-8.43-5.24-9.63-3.91Z"/>
              </g>
              <g>
                <path class="cls-2" d="m172.71,304.98c-1.73-.51-2.05-6.15-.5-10.57,1.37-3.92,4.58-7.92,6.21-7.36,1.64.57,1.58,5.74.46,9.57-1.26,4.27-4.44,8.87-6.16,8.37Z"/>
                <path class="cls-2" d="m170.69,328.3c-1.54.93-5.92-2.64-8.14-6.77-1.96-3.66-2.74-8.73-1.23-9.55,1.53-.83,5.3,2.71,7.36,6.13,2.3,3.82,3.54,9.27,2.01,10.2Z"/>
                <path class="cls-2" d="m189.23,301.07c-.65-1.63,3.48-5.26,7.8-6.72,3.83-1.3,8.82-1.24,9.36.35.55,1.6-3.45,4.65-7.06,6.08-4.03,1.6-9.46,1.92-10.11.29Z"/>
                <path class="cls-2" d="m204.41,272.11c1.21,1.27-1.27,6.18-4.73,9.15-3.07,2.63-7.72,4.44-8.82,3.17-1.11-1.28,1.47-5.6,4.28-8.28,3.14-2.99,8.06-5.31,9.27-4.04Z"/>
                <path class="cls-2" d="m217.38,254.38c1.75-.03,3.7,5.11,3.55,9.67-.13,4.04-1.94,8.69-3.62,8.64-1.69-.05-3.14-4.87-3.21-8.75-.08-4.33,1.53-9.53,3.28-9.56Z"/>
                <path class="cls-2" d="m186.94,268.81c-.26,1.73-5.65,2.81-10.12,1.91-3.96-.79-8.25-3.35-7.93-4.99.32-1.66,5.32-2.3,9.16-1.73,4.29.64,9.15,3.08,8.89,4.81Z"/>
                <path class="cls-2" d="m192.31,365.68c-1.73-.51-2.05-6.15-.5-10.57,1.37-3.92,4.58-7.92,6.21-7.36,1.64.57,1.58,5.74.46,9.57-1.26,4.27-4.44,8.87-6.16,8.37Z"/>
                <path class="cls-2" d="m189.9,388.13c-1.54.93-5.92-2.64-8.14-6.77-1.96-3.66-2.74-8.73-1.23-9.55,1.53-.83,5.3,2.71,7.36,6.13,2.3,3.82,3.54,9.27,2.01,10.2Z"/>
                <path class="cls-2" d="m209.54,359.62c-.66-1.67,3.58-5.41,8.02-6.91,3.93-1.33,9.06-1.27,9.62.36.57,1.64-3.55,4.78-7.25,6.25-4.14,1.64-9.72,1.97-10.39.3Z"/>
                <path class="cls-2" d="m239.19,352.66c1.68.65,1.54,6.3-.36,10.58-1.69,3.79-5.22,7.52-6.79,6.83-1.59-.7-1.11-5.85.33-9.57,1.6-4.16,5.15-8.48,6.83-7.84Z"/>
                <path class="cls-2" d="m238.47,311.63c1.8-.03,3.8,5.25,3.65,9.94-.14,4.15-2,8.93-3.72,8.88-1.74-.05-3.23-5-3.3-8.99-.08-4.46,1.58-9.8,3.37-9.83Z"/>
                <path class="cls-2" d="m207.19,326.46c-.26,1.78-5.81,2.88-10.4,1.96-4.07-.82-8.48-3.44-8.15-5.13.33-1.7,5.47-2.36,9.41-1.78,4.41.65,9.4,3.17,9.14,4.94Z"/>
                <path class="cls-2" d="m178.19,351.08c-.3,1.77-5.87,2.75-10.44,1.73-4.05-.91-8.4-3.63-8.03-5.31.37-1.7,5.52-2.24,9.45-1.56,4.39.75,9.33,3.38,9.03,5.15Z"/>
                <path class="cls-2" d="m158.95,286.98c.43,1.75-4.29,4.86-8.89,5.74-4.08.78-9.15.01-9.48-1.67-.34-1.7,4.17-4.25,8.04-5.2,4.33-1.06,9.9-.62,10.33,1.13Z"/>
                <path class="cls-2" d="m149.48,318.7c1.55.91.49,6.47-2.09,10.38-2.29,3.47-6.37,6.57-7.82,5.63-1.45-.95-.13-5.95,1.89-9.39,2.26-3.84,6.47-7.52,8.02-6.61Z"/>
                <path class="cls-2" d="m227.9,295.46c1.19,1.28-1.35,6.16-4.85,9.09-3.1,2.59-7.78,4.34-8.86,3.06-1.09-1.29,1.54-5.59,4.39-8.22,3.18-2.95,8.13-5.2,9.32-3.92Z"/>
              </g>
              <g>
                <path class="cls-2" d="m338.28,370.62c1.1,1.42,6.48-.32,10.04-3.37,3.15-2.7,5.72-7.14,4.61-8.46-1.12-1.32-5.92.61-9.08,3.05-3.53,2.72-6.66,7.36-5.56,8.78Z"/>
                <path class="cls-2" d="m317.28,380.97c-.31,1.77,4.61,4.56,9.26,5.12,4.12.5,9.13-.61,9.35-2.32.22-1.72-4.45-3.96-8.38-4.64-4.39-.76-9.92.06-10.23,1.83Z"/>
                <path class="cls-2" d="m335.93,353.81c1.75.01,3.64-5.15,3.44-9.71-.18-4.04-2.05-8.66-3.72-8.6-1.69.07-3.08,4.9-3.11,8.78-.03,4.34,1.65,9.51,3.39,9.52Z"/>
                <path class="cls-2" d="m357.41,329.16c-1.62-.66-5.3,3.43-6.81,7.73-1.34,3.81-1.33,8.8.24,9.37,1.59.57,4.69-3.4,6.16-6.99,1.64-4.01,2.02-9.44.4-10.1Z"/>
                <path class="cls-2" d="m369.23,310.64c-.6-1.64-6.1-1.59-10.3.2-3.72,1.59-7.39,4.96-6.74,6.51.66,1.56,5.68,1.16,9.32-.18,4.07-1.5,8.32-4.89,7.72-6.53Z"/>
                <path class="cls-2" d="m321.06,306.97c-1.51-.4-4.81,3.99-6.12,8.28-1.16,3.8-1.04,8.53.42,8.85,1.48.31,4.25-3.88,5.53-7.5,1.43-4.04,1.67-9.23.16-9.63Z"/>
                <path class="cls-2" d="m274.61,374.39c1.1,1.42,6.48-.32,10.04-3.37,3.15-2.7,5.72-7.14,4.61-8.46-1.12-1.32-5.92.61-9.08,3.05-3.53,2.72-6.66,7.36-5.56,8.78Z"/>
                <path class="cls-2" d="m254.56,384.77c-.31,1.77,4.61,4.56,9.26,5.12,4.12.5,9.13-.61,9.35-2.32.22-1.72-4.45-3.96-8.38-4.64-4.39-.76-9.92.06-10.23,1.83Z"/>
                <path class="cls-2" d="m274,356.12c1.8.01,3.74-5.3,3.53-9.98-.18-4.15-2.1-8.91-3.82-8.84-1.73.07-3.17,5.04-3.19,9.03-.03,4.46,1.69,9.78,3.49,9.79Z"/>
                <path class="cls-2" d="m305.75,346.29c-1.56.89-.58,6.46,1.94,10.41,2.24,3.5,6.28,6.65,7.74,5.73,1.47-.93.22-5.95-1.76-9.41-2.21-3.87-6.36-7.61-7.92-6.72Z"/>
                <path class="cls-2" d="m293.33,382.24c-1.54.93-.43,6.47,2.18,10.36,2.32,3.45,6.43,6.51,7.87,5.56,1.45-.96.08-5.95-1.97-9.37-2.3-3.82-6.53-7.47-8.07-6.54Z"/>
                <path class="cls-2" d="m295.44,320.93c-1.78.23-2.98,5.76-2.13,10.37.75,4.08,3.31,8.53,5,8.23,1.71-.31,2.45-5.43,1.92-9.38-.58-4.42-3.02-9.45-4.8-9.22Z"/>
                <path class="cls-2" d="m241.16,376.58c-1.41-1.11-6.2,1.89-8.91,5.71-2.4,3.39-3.8,8.32-2.41,9.32,1.41,1.01,5.6-2.03,8.06-5.17,2.76-3.5,4.67-8.76,3.26-9.87Z"/>
              </g>
              <g>
                <path class="cls-2" d="m174.19,241.35c.01,1.75-5.15,3.64-9.71,3.44-4.04-.18-8.66-2.05-8.6-3.72.07-1.69,4.9-3.08,8.78-3.11,4.34-.03,9.51,1.65,9.52,3.39Z"/>
                <path class="cls-2" d="m149.55,262.82c-.66-1.62,3.43-5.3,7.73-6.81,3.81-1.34,8.8-1.33,9.37.24.57,1.59-3.4,4.69-6.99,6.16-4.01,1.64-9.44,2.02-10.1.4Z"/>
                <path class="cls-2" d="m131.03,274.64c-1.64-.6-1.59-6.1.2-10.3,1.59-3.72,4.96-7.39,6.51-6.74,1.56.66,1.16,5.68-.18,9.32-1.5,4.07-4.89,8.32-6.53,7.72Z"/>
                <path class="cls-2" d="m127.35,226.48c-.4-1.51,3.99-4.81,8.28-6.12,3.8-1.16,8.53-1.04,8.85.42.31,1.48-3.88,4.25-7.5,5.53-4.04,1.43-9.23,1.67-9.63.16Z"/>
                <path class="cls-2" d="m176.51,179.42c.01,1.8-5.3,3.74-9.98,3.53-4.15-.18-8.91-2.1-8.84-3.82.07-1.73,5.04-3.17,9.03-3.19,4.46-.03,9.78,1.69,9.79,3.49Z"/>
                <path class="cls-2" d="m166.68,211.17c.89-1.56,6.46-.58,10.41,1.94,3.5,2.24,6.65,6.28,5.73,7.74-.93,1.47-5.95.22-9.41-1.76-3.87-2.21-7.61-6.36-6.72-7.92Z"/>
                <path class="cls-2" d="m141.31,200.86c.23-1.78,5.76-2.98,10.37-2.13,4.08.75,8.53,3.31,8.23,5-.31,1.71-5.43,2.45-9.38,1.92-4.42-.58-9.45-3.02-9.22-4.8Z"/>
                <path class="cls-2" d="m196.96,146.57c-1.11-1.41,1.89-6.2,5.71-8.91,3.39-2.4,8.32-3.8,9.32-2.41,1.01,1.41-2.03,5.6-5.17,8.06-3.5,2.76-8.76,4.67-9.87,3.26Z"/>
              </g>
            </g>
          </g>
        </g>
        <g class="cls-5">
          <path class="cls-4" d="m254.39,108.82c3.28,6.54-66.76,25.55-98.63,91.19-1.8,3.71-44.1,94.69,12.8,165.29,50.88,63.13,135.29,53.15,140.26,52.47-7.93,6.74-20.02,15.36-36.29,21.09-57.2,20.15-132.82-7.06-171.64-63.26-42.49-61.52-28.24-139.46,3.92-187.83,49.32-74.16,145.85-86.39,149.58-78.96Z"/>
        </g>
      </g>
    </g>
  </g>
</svg>