<?xml version="1.0" encoding="UTF-8"?>
<svg xmlns="http://www.w3.org/2000/svg" xmlns:xlink="http://www.w3.org/1999/xlink" viewBox="0 0 540 540">
  <defs>
    <style>
      .cls-1 {
        fill: #f2d8c0;
      }

      .cls-2 {
        isolation: isolate;
      }

      .cls-3 {
        fill: #dba983;
      }

      .cls-4 {
        clip-path: url(#clippath);
      }

      .cls-5 {
        fill: none;
      }

      .cls-6 {
        fill: #e0bda0;
      }

      .cls-7 {
        fill: #595959;
        mix-blend-mode: overlay;
      }
    </style>
    <clipPath id="clippath">
      <path class="cls-5" d="m412.29,202.89c8.71,17.12,13.94,35.19,13.94,67.11,0,11.89-1.33,23.47-3.84,34.6-.9,3.98-7.68,5.28-8.88,9.14-1.8,5.81,1.79,14.09-.65,19.59-13.57,30.56-36.65,55.96-65.49,72.43-10.96,6.26-21.17,4.51-33.59,7.98-13.42,3.76-29.16,12.49-43.78,12.49-33.74,0-64.98-10.7-90.52-28.88-9-6.41-13.13-17.31-20.57-25.44-7.25-7.92-17.86-13.03-23.37-22.32-9.07-15.29-15.61-32.27-19.03-50.34-.99-5.21,3.57-10.47,3.12-15.85-.37-4.4-5.85-8.91-5.85-13.41,0-28.96,7.88-56.09,21.62-79.34,3.2-5.42,9.88-7.93,13.7-12.91,3.44-4.49,13.2-20.41,17.1-24.49,17.24-18.07,29.53-23.1,53.71-31.28,5.89-1.99,17.45.39,23.63-.89,10.32-2.15,15.52-7.31,26.48-7.31,19.33,0,47.66,10.76,69.21,21.53,26.11,13.05,44.4,27.19,52.07,36.22l8.62,20.58,12.38,10.79Z"/>
    </clipPath>
  </defs>
  <g class="cls-2">
    <g id="_Layer_" data-name="&amp;lt;Layer&amp;gt;">
      <g>
        <g>
          <path class="cls-1" d="m412.29,202.89c8.71,17.12,13.94,35.19,13.94,67.11,0,11.89-1.33,23.47-3.84,34.6-.9,3.98-7.68,5.28-8.88,9.14-1.8,5.81,1.79,14.09-.65,19.59-13.57,30.56-36.65,55.96-65.49,72.43-10.96,6.26-21.17,4.51-33.59,7.98-13.42,3.76-29.16,12.49-43.78,12.49-33.74,0-64.98-10.7-90.52-28.88-9-6.41-13.13-17.31-20.57-25.44-7.25-7.92-17.86-13.03-23.37-22.32-9.07-15.29-15.61-32.27-19.03-50.34-.99-5.21,3.57-10.47,3.12-15.85-.37-4.4-5.85-8.91-5.85-13.41,0-28.96,7.88-56.09,21.62-79.34,3.2-5.42,9.88-7.93,13.7-12.91,3.44-4.49,13.2-20.41,17.1-24.49,17.24-18.07,29.53-23.1,53.71-31.28,5.89-1.99,17.45.39,23.63-.89,10.32-2.15,15.52-7.31,26.48-7.31,19.33,0,47.66,10.76,69.21,21.53,26.11,13.05,44.4,27.19,52.07,36.22l8.62,20.58,12.38,10.79Z"/>
          <g>
            <path class="cls-3" d="m210.12,151.95c-4.1.46-6.44,8.42-6.5,13.97-.07,6.39,2.84,14.57,6.61,14.84,4.35.31,10.61-9.89,8.66-18.63-1.11-4.98-5.14-10.59-8.77-10.18Z"/>
            <path class="cls-3" d="m233.09,153.18c-3.3-2.47-8.45-.31-12.31,3.69-4.43,4.61-7.93,12.55-5.37,15.33,2.95,3.21,14.5.09,19.08-7.61,2.61-4.39,1.52-9.21-1.41-11.41Z"/>
            <path class="cls-3" d="m227.31,206.9c-3.3-2.47-10.46,1.71-14.31,5.71-4.43,4.61-7.93,12.55-5.37,15.33,2.95,3.21,14.5.09,19.08-7.61,2.61-4.39,3.53-11.23.6-13.43Z"/>
            <path class="cls-3" d="m244.19,217.87c-1.17-3.95-9.41-4.88-14.89-3.98-6.31,1.04-13.86,5.33-13.47,9.08.45,4.34,11.58,8.74,19.85,5.3,4.72-1.96,9.54-6.89,8.5-10.41Z"/>
            <path class="cls-3" d="m252.34,188.03c-1.17-3.95-9.41-4.88-14.89-3.98-6.31,1.04-13.86,5.33-13.47,9.08.45,4.34,11.58,8.74,19.85,5.3,4.72-1.96,9.54-6.89,8.5-10.41Z"/>
            <path class="cls-3" d="m283.18,257.14c-3.66-1.9-12.37.84-15.52,5.43-3.61,5.27-3.41,16.25-.43,18.57,3.44,2.68,14.32-2.31,17.57-10.66,1.85-4.76,1.63-11.66-1.62-13.34Z"/>
            <path class="cls-3" d="m252.55,190.58c-3.15-.84-7.01,4.36-8.54,8.45-1.76,4.7-1.81,11.58.9,12.87,3.13,1.48,10.48-4.24,11.38-11.27.52-4-.95-9.31-3.74-10.05Z"/>
            <path class="cls-3" d="m282.66,219.78c.61-4.08-6.46-8.4-11.81-9.9-6.16-1.72-14.81-1.03-16.04,2.53-1.43,4.12,6.8,12.81,15.75,13.2,5.1.22,11.56-2.21,12.11-5.83Z"/>
            <path class="cls-3" d="m283.62,244.68c2.82-3.01,2.56-12.14-1-16.41-4.09-4.91-14.71-7.7-17.75-5.47-3.52,2.58-1.68,14.41,5.47,19.8,4.08,3.08,10.77,4.74,13.28,2.07Z"/>
            <path class="cls-3" d="m285.21,208.64c3.69-1.84,3.16-10.11,1.31-15.35-2.13-6.03-7.67-12.71-11.3-11.67-4.2,1.2-10.81,11.39-5.97,18.93,2.75,4.3,12.69,9.73,15.97,8.09Z"/>
          </g>
          <g>
            <path class="cls-3" d="m321.24,191.76c-4.1.46-6.44,8.42-6.5,13.97-.07,6.39,2.84,14.57,6.61,14.84,4.35.31,10.61-9.89,8.66-18.63-1.11-4.98-5.14-10.59-8.77-10.18Z"/>
            <path class="cls-3" d="m344.21,192.99c-3.3-2.47-8.45-.31-12.31,3.69-4.43,4.61-7.93,12.55-5.37,15.33,2.95,3.21,14.5.09,19.08-7.61,2.61-4.39,1.52-9.21-1.41-11.41Z"/>
            <path class="cls-3" d="m338.43,246.71c-3.3-2.47-10.46,1.71-14.31,5.71-4.43,4.61-7.93,12.55-5.37,15.33,2.95,3.21,14.5.09,19.08-7.61,2.61-4.39,3.53-11.23.6-13.43Z"/>
            <path class="cls-3" d="m355.31,257.68c-1.17-3.95-9.41-4.88-14.89-3.98-6.31,1.04-13.86,5.33-13.47,9.08.45,4.34,11.58,8.74,19.85,5.3,4.72-1.96,9.54-6.89,8.5-10.41Z"/>
            <path class="cls-3" d="m363.47,227.85c-1.17-3.95-9.41-4.88-14.89-3.98-6.31,1.04-13.86,5.33-13.47,9.08.45,4.34,11.58,8.74,19.85,5.3,4.72-1.96,9.54-6.89,8.5-10.41Z"/>
            <path class="cls-3" d="m394.3,296.95c-3.66-1.9-12.37.84-15.52,5.43-3.61,5.27-3.41,16.25-.43,18.57,3.44,2.68,14.32-2.31,17.57-10.66,1.85-4.76,1.63-11.66-1.62-13.34Z"/>
            <path class="cls-3" d="m363.68,230.4c-3.15-.84-7.01,4.36-8.54,8.45-1.76,4.7-1.81,11.58.9,12.87,3.13,1.48,10.48-4.24,11.38-11.27.52-4-.95-9.31-3.74-10.05Z"/>
            <path class="cls-3" d="m393.79,259.6c.61-4.08-6.46-8.4-11.81-9.9-6.16-1.72-14.81-1.03-16.04,2.53-1.43,4.12,6.8,12.81,15.75,13.2,5.1.22,11.56-2.21,12.11-5.83Z"/>
            <path class="cls-3" d="m394.74,284.5c2.82-3.01,2.56-12.14-1-16.41-4.09-4.91-14.71-7.7-17.75-5.47-3.52,2.58-1.68,14.41,5.47,19.8,4.08,3.08,10.77,4.74,13.28,2.07Z"/>
            <path class="cls-3" d="m396.33,248.45c3.69-1.84,3.16-10.11,1.31-15.35-2.13-6.03-7.67-12.71-11.3-11.67-4.2,1.2-10.81,11.39-5.97,18.93,2.75,4.3,12.69,9.73,15.97,8.09Z"/>
          </g>
          <g>
            <path class="cls-3" d="m179.59,264.13c-4.1.46-6.44,8.42-6.5,13.97-.07,6.39,2.84,14.57,6.61,14.84,4.35.31,10.61-9.89,8.66-18.63-1.11-4.98-5.14-10.59-8.77-10.18Z"/>
            <path class="cls-3" d="m202.56,265.36c-3.3-2.47-8.45-.31-12.31,3.69-4.43,4.61-7.93,12.55-5.37,15.33,2.95,3.21,14.5.09,19.08-7.61,2.61-4.39,1.52-9.21-1.41-11.41Z"/>
            <path class="cls-3" d="m196.78,319.09c-3.3-2.47-10.46,1.71-14.31,5.71-4.43,4.61-7.93,12.55-5.37,15.33,2.95,3.21,14.5.09,19.08-7.61,2.61-4.39,3.53-11.23.6-13.43Z"/>
            <path class="cls-3" d="m213.66,330.05c-1.17-3.95-9.41-4.88-14.89-3.98-6.31,1.04-13.86,5.33-13.47,9.08.45,4.34,11.58,8.74,19.85,5.3,4.72-1.96,9.54-6.89,8.5-10.41Z"/>
            <path class="cls-3" d="m221.82,300.22c-1.17-3.95-9.41-4.88-14.89-3.98-6.31,1.04-13.86,5.33-13.47,9.08.45,4.34,11.58,8.74,19.85,5.3,4.72-1.96,9.54-6.89,8.5-10.41Z"/>
            <path class="cls-3" d="m252.65,369.33c-3.66-1.9-12.37.84-15.52,5.43-3.61,5.27-3.41,16.25-.43,18.57,3.44,2.68,14.32-2.31,17.57-10.66,1.85-4.76,1.63-11.66-1.62-13.34Z"/>
            <path class="cls-3" d="m222.03,302.77c-3.15-.84-7.01,4.36-8.54,8.45-1.76,4.7-1.81,11.58.9,12.87,3.13,1.48,10.48-4.24,11.38-11.27.52-4-.95-9.31-3.74-10.05Z"/>
            <path class="cls-3" d="m252.14,331.97c.61-4.08-6.46-8.4-11.81-9.9-6.16-1.72-14.81-1.03-16.04,2.53-1.43,4.12,6.8,12.81,15.75,13.2,5.1.22,11.56-2.21,12.11-5.83Z"/>
            <path class="cls-3" d="m253.09,356.87c2.82-3.01,2.56-12.14-1-16.41-4.09-4.91-14.71-7.7-17.75-5.47-3.52,2.58-1.68,14.41,5.47,19.8,4.08,3.08,10.77,4.74,13.28,2.07Z"/>
            <path class="cls-3" d="m254.68,320.82c3.69-1.84,3.16-10.11,1.31-15.35-2.13-6.03-7.67-12.71-11.3-11.67-4.2,1.2-10.81,11.39-5.97,18.93,2.75,4.3,12.69,9.73,15.97,8.09Z"/>
          </g>
          <g>
            <path class="cls-3" d="m137.43,198.76c-4.1.46-6.44,8.42-6.5,13.97-.07,6.39,2.84,14.57,6.61,14.84,4.35.31,10.61-9.89,8.66-18.63-1.11-4.98-5.14-10.59-8.77-10.18Z"/>
            <path class="cls-3" d="m160.4,199.99c-3.3-2.47-8.45-.31-12.31,3.69-4.43,4.61-7.93,12.55-5.37,15.33,2.95,3.21,14.5.09,19.08-7.61,2.61-4.39,1.52-9.21-1.41-11.41Z"/>
            <path class="cls-3" d="m154.61,253.71c-3.3-2.47-10.46,1.71-14.31,5.71-4.43,4.61-7.93,12.55-5.37,15.33,2.95,3.21,14.5.09,19.08-7.61,2.61-4.39,3.53-11.23.6-13.43Z"/>
            <path class="cls-3" d="m171.49,264.68c-1.17-3.95-9.41-4.88-14.89-3.98-6.31,1.04-13.86,5.33-13.47,9.08.45,4.34,11.58,8.74,19.85,5.3,4.72-1.96,9.54-6.89,8.5-10.41Z"/>
            <path class="cls-3" d="m179.65,234.84c-1.17-3.95-9.41-4.88-14.89-3.98-6.31,1.04-13.86,5.33-13.47,9.08.45,4.34,11.58,8.74,19.85,5.3,4.72-1.96,9.54-6.89,8.5-10.41Z"/>
            <path class="cls-3" d="m210.49,303.95c-3.66-1.9-12.37.84-15.52,5.43-3.61,5.27-3.41,16.25-.43,18.57,3.44,2.68,14.32-2.31,17.57-10.66,1.85-4.76,1.63-11.66-1.62-13.34Z"/>
            <path class="cls-3" d="m179.86,237.39c-3.15-.84-7.01,4.36-8.54,8.45-1.76,4.7-1.81,11.58.9,12.87,3.13,1.48,10.48-4.24,11.38-11.27.52-4-.95-9.31-3.74-10.05Z"/>
            <path class="cls-3" d="m209.97,266.59c.61-4.08-6.46-8.4-11.81-9.9-6.16-1.72-14.81-1.03-16.04,2.53-1.43,4.12,6.8,12.81,15.75,13.2,5.1.22,11.56-2.21,12.11-5.83Z"/>
            <path class="cls-3" d="m210.93,291.49c2.82-3.01,2.56-12.14-1-16.41-4.09-4.91-14.71-7.7-17.75-5.47-3.52,2.58-1.68,14.41,5.47,19.8,4.08,3.08,10.77,4.74,13.28,2.07Z"/>
            <path class="cls-3" d="m212.52,255.45c3.69-1.84,3.16-10.11,1.31-15.35-2.13-6.03-7.67-12.71-11.3-11.67-4.2,1.2-10.81,11.39-5.97,18.93,2.75,4.3,12.69,9.73,15.97,8.09Z"/>
          </g>
          <g>
            <path class="cls-6" d="m200.88,174.66c-3.96,1.14-4.95,9.37-4.09,14.86,1,6.32,5.22,13.89,8.98,13.53,4.34-.42,8.82-11.51,5.45-19.81-1.92-4.73-6.82-9.59-10.34-8.58Z"/>
            <path class="cls-6" d="m223.74,172.06c-3.66-1.89-8.39,1.09-11.52,5.68-3.61,5.28-5.73,13.69-2.75,16.01,3.45,2.68,14.32-2.32,17.55-10.68,1.84-4.76-.03-9.33-3.28-11.01Z"/>
            <path class="cls-6" d="m226.95,226c-3.66-1.89-10.03,3.42-13.17,8.01-3.61,5.28-5.73,13.69-2.75,16.01,3.45,2.68,14.32-2.32,17.55-10.68,1.84-4.76,1.62-11.66-1.64-13.34Z"/>
            <path class="cls-6" d="m245.42,234.01c-1.81-3.71-10.09-3.25-15.34-1.45-6.05,2.08-12.78,7.55-11.77,11.19,1.16,4.21,12.87,6.69,20.45,1.93,4.32-2.72,8.26-8.38,6.66-11.67Z"/>
            <path class="cls-6" d="m248.51,203.23c-1.81-3.71-10.09-3.25-15.34-1.45-6.05,2.08-12.78,7.55-11.77,11.19,1.16,4.21,12.87,6.69,20.45,1.93,4.32-2.72,8.26-8.38,6.66-11.67Z"/>
            <path class="cls-6" d="m268.3,277.79c-3.95,1.19-4.83,9.43-3.89,14.91,1.08,6.3,5.41,13.82,9.16,13.41,4.34-.47,8.67-11.63,5.18-19.88-1.99-4.7-6.95-9.5-10.46-8.44Z"/>
            <path class="cls-6" d="m290.39,266.26c-3.93-1.26-12.06,2.89-14.4,7.93-2.69,5.8-.66,16.59,2.66,18.38,3.84,2.07,13.74-4.65,15.55-13.42,1.03-5-.33-11.77-3.82-12.89Z"/>
            <path class="cls-6" d="m257.14,280.27c-3.24-2.54-10.49,1.48-14.43,5.4-4.53,4.51-8.2,12.37-5.7,15.21,2.88,3.28,14.92,4.89,19.66-2.71,2.71-4.33,3.36-15.63.47-17.89Z"/>
            <path class="cls-6" d="m249.14,205.71c-3.24-.3-6.18,5.46-7.02,9.75-.96,4.93.14,11.72,3.02,12.54,3.33.94,9.63-5.93,9.35-13-.16-4.03-2.48-9.02-5.36-9.29Z"/>
            <path class="cls-6" d="m283.68,229.51c-.07-4.12-7.76-7.21-13.29-7.8-6.36-.68-14.77,1.44-15.4,5.16-.72,4.3,8.83,11.51,17.72,10.4,5.07-.63,11.03-4.1,10.97-7.76Z"/>
            <path class="cls-6" d="m288.76,253.9c2.28-3.43.51-12.39-3.71-16.01-4.85-4.17-15.78-5.16-18.41-2.45-3.04,3.13.73,14.49,8.68,18.62,4.53,2.36,11.41,2.89,13.44-.16Z"/>
            <path class="cls-6" d="m284.34,218.1c3.33-2.43,1.44-10.5-1.26-15.36-3.1-5.59-9.67-11.26-13.08-9.63-3.94,1.88-8.77,13.02-2.75,19.66,3.43,3.78,14.13,7.49,17.09,5.33Z"/>
          </g>
          <g>
            <path class="cls-6" d="m397.3,193.48c-.01-4.12-7.67-7.32-13.18-7.98-6.35-.76-14.79,1.24-15.47,4.95-.78,4.29,8.67,11.63,17.58,10.64,5.08-.56,11.09-3.95,11.07-7.61Z"/>
            <path class="cls-6" d="m393.58,216.18c2.82-3.01,1.23-8.37-2.33-12.64-4.1-4.91-11.61-9.24-14.65-7.01-3.51,2.59-1.66,14.41,5.49,19.8,4.08,3.07,8.99,2.52,11.49-.16Z"/>
            <path class="cls-6" d="m340.8,204.59c2.82-3.01-.56-10.58-4.12-14.85-4.1-4.91-11.61-9.24-14.65-7.01-3.51,2.59-1.66,14.41,5.49,19.8,4.08,3.07,10.78,4.73,13.28,2.06Z"/>
            <path class="cls-6" d="m328.06,220.17c4.06-.73,5.88-8.82,5.57-14.37-.35-6.38-3.79-14.35-7.56-14.38-4.36-.03-9.95,10.56-7.43,19.16,1.43,4.9,5.82,10.23,9.42,9.59Z"/>
            <path class="cls-6" d="m356.84,231.53c4.06-.73,5.88-8.82,5.57-14.37-.35-6.38-3.79-14.35-7.56-14.38-4.36-.03-9.95,10.56-7.43,19.16,1.43,4.9,5.82,10.23,9.42,9.59Z"/>
            <path class="cls-6" d="m354.28,231.46c1.18-3.04-3.57-7.44-7.47-9.41-4.48-2.26-11.32-3.06-12.89-.51-1.82,2.95,3.08,10.88,9.96,12.54,3.92.95,9.35.07,10.4-2.63Z"/>
            <path class="cls-6" d="m295.56,216.02c-4.08.56-6.24,8.56-6.17,14.12.08,6.39,3.18,14.5,6.95,14.68,4.36.21,10.38-10.13,8.22-18.83-1.23-4.96-5.38-10.47-9.01-9.97Z"/>
            <path class="cls-6" d="m318.56,216.71c-3.36-2.4-8.46-.12-12.22,3.98-4.32,4.71-7.63,12.73-5.01,15.45,3.03,3.14,14.5-.25,18.9-8.06,2.51-4.45,1.31-9.24-1.67-11.37Z"/>
            <path class="cls-6" d="m314.03,270.55c-3.36-2.4-10.42,1.95-14.17,6.04-4.32,4.71-7.63,12.73-5.01,15.45,3.03,3.14,14.5-.25,18.9-8.06,2.51-4.45,3.26-11.31.28-13.44Z"/>
            <path class="cls-6" d="m331.16,281.12c-1.26-3.93-9.52-4.66-14.98-3.63-6.28,1.19-13.73,5.65-13.25,9.39.55,4.33,11.78,8.46,19.97,4.83,4.67-2.07,9.38-7.12,8.26-10.6Z"/>
            <path class="cls-6" d="m338.62,251.1c-1.26-3.93-9.52-4.66-14.98-3.63-6.28,1.19-13.73,5.65-13.25,9.39.55,4.33,11.78,8.46,19.97,4.83,4.67-2.07,9.38-7.12,8.26-10.6Z"/>
            <path class="cls-6" d="m347.55,327.73c-4.08.61-6.12,8.65-5.98,14.2.17,6.39,3.38,14.45,7.15,14.58,4.36.15,10.24-10.27,7.97-18.94-1.29-4.94-5.52-10.4-9.14-9.85Z"/>
            <path class="cls-6" d="m371.06,319.47c-3.7-1.81-12.35,1.13-15.38,5.79-3.49,5.36-3.03,16.32,0,18.57,3.51,2.6,14.26-2.64,17.31-11.06,1.74-4.8,1.36-11.69-1.93-13.3Z"/>
            <path class="cls-6" d="m336.15,328.58c-2.85-2.98-10.6-.04-15.06,3.28-5.13,3.81-9.88,11.07-7.82,14.24,2.39,3.65,14.07,6.97,19.85.13,3.3-3.9,5.56-14.99,3.03-17.64Z"/>
            <path class="cls-6" d="m338.89,253.65c-3.17-.76-6.9,4.52-8.34,8.65-1.65,4.74-1.54,11.62,1.2,12.84,3.16,1.41,10.38-4.49,11.12-11.53.42-4.01-1.17-9.28-3.98-9.96Z"/>
          </g>
          <g>
            <path class="cls-6" d="m151.38,231.18c-3.96,1.14-4.95,9.37-4.09,14.86,1,6.32,5.22,13.89,8.98,13.53,4.34-.42,8.82-11.51,5.45-19.81-1.92-4.73-6.82-9.59-10.34-8.58Z"/>
            <path class="cls-6" d="m174.23,228.58c-3.66-1.89-8.39,1.09-11.52,5.68-3.61,5.28-5.73,13.69-2.75,16.01,3.45,2.68,14.32-2.32,17.55-10.68,1.84-4.76-.03-9.33-3.28-11.01Z"/>
            <path class="cls-6" d="m177.45,282.51c-3.66-1.89-10.03,3.42-13.17,8.01-3.61,5.28-5.73,13.69-2.75,16.01,3.45,2.68,14.32-2.32,17.55-10.68,1.84-4.76,1.62-11.66-1.64-13.34Z"/>
            <path class="cls-6" d="m195.91,290.53c-1.81-3.71-10.09-3.25-15.34-1.45-6.05,2.08-12.78,7.55-11.77,11.19,1.16,4.21,12.87,6.69,20.45,1.93,4.32-2.72,8.26-8.38,6.66-11.67Z"/>
            <path class="cls-6" d="m199.01,259.75c-1.81-3.71-10.09-3.25-15.34-1.45-6.05,2.08-12.78,7.55-11.77,11.19,1.16,4.21,12.87,6.69,20.45,1.93,4.32-2.72,8.26-8.38,6.66-11.67Z"/>
            <path class="cls-6" d="m218.8,334.31c-3.95,1.19-4.83,9.43-3.89,14.91,1.08,6.3,5.41,13.82,9.16,13.41,4.34-.47,8.67-11.63,5.18-19.88-1.99-4.7-6.95-9.5-10.46-8.44Z"/>
            <path class="cls-6" d="m240.89,322.78c-3.93-1.26-12.06,2.89-14.4,7.93-2.69,5.8-.66,16.59,2.66,18.38,3.84,2.07,13.74-4.65,15.55-13.42,1.03-5-.33-11.77-3.82-12.89Z"/>
            <path class="cls-6" d="m207.64,336.78c-3.24-2.54-10.49,1.48-14.43,5.4-4.53,4.51-8.2,12.37-5.7,15.21,2.88,3.28,14.92,4.89,19.66-2.71,2.71-4.33,3.36-15.63.47-17.89Z"/>
            <path class="cls-6" d="m199.64,262.23c-3.24-.3-6.18,5.46-7.02,9.75-.96,4.93.14,11.72,3.02,12.54,3.33.94,9.63-5.93,9.35-13-.16-4.03-2.48-9.02-5.36-9.29Z"/>
            <path class="cls-6" d="m234.18,286.03c-.07-4.12-7.76-7.21-13.29-7.8-6.36-.68-14.77,1.44-15.4,5.16-.72,4.3,8.83,11.51,17.72,10.4,5.07-.63,11.03-4.1,10.97-7.76Z"/>
            <path class="cls-6" d="m239.25,310.42c2.28-3.43.51-12.39-3.71-16.01-4.85-4.17-15.78-5.16-18.41-2.45-3.04,3.13.73,14.49,8.68,18.62,4.53,2.36,11.41,2.89,13.44-.16Z"/>
            <path class="cls-6" d="m234.84,274.61c3.33-2.43,1.44-10.5-1.26-15.36-3.1-5.59-9.67-11.26-13.08-9.63-3.94,1.88-8.77,13.02-2.75,19.66,3.43,3.78,14.13,7.49,17.09,5.33Z"/>
          </g>
          <g>
            <path class="cls-6" d="m331.43,302.43c-1.68-3.77-9.97-3.6-15.28-1.98-6.11,1.87-13.03,7.11-12.15,10.78,1.02,4.24,12.63,7.13,20.38,2.63,4.42-2.56,8.55-8.09,7.06-11.44Z"/>
            <path class="cls-6" d="m337.19,324.7c1.36-3.89-2.25-8.15-7.23-10.62-5.73-2.84-14.36-3.77-16.24-.49-2.17,3.79,4.3,13.85,13.02,15.89,4.97,1.16,9.24-1.33,10.45-4.78Z"/>
            <path class="cls-6" d="m284.23,335.41c1.36-3.89-4.78-9.46-9.76-11.92-5.73-2.84-14.36-3.77-16.24-.49-2.17,3.79,4.3,13.85,13.02,15.89,4.97,1.16,11.77-.03,12.98-3.48Z"/>
            <path class="cls-6" d="m278.87,354.81c3.42-2.31,1.82-10.44-.7-15.39-2.9-5.7-9.26-11.6-12.72-10.1-4,1.74-4.84,13.68.94,20.52,3.29,3.9,9.45,7.01,12.49,4.97Z"/>
            <path class="cls-6" d="m309.78,353.58c3.42-2.31,1.82-10.44-.7-15.39-2.9-5.7-9.26-11.6-12.72-10.1-4,1.74-4.84,13.68.94,20.52,3.29,3.9,9.45,7.01,12.49,4.97Z"/>
            <path class="cls-6" d="m238.7,383.57c-1.73-3.74-10.02-3.46-15.31-1.77-6.09,1.95-12.93,7.28-12,10.94,1.07,4.23,12.72,6.96,20.41,2.36,4.38-2.62,8.44-8.21,6.9-11.53Z"/>
            <path class="cls-6" d="m253.2,403.84c.7-4.06-4.54-11.54-9.86-13.15-6.12-1.85-16.52,1.66-17.83,5.2-1.52,4.09,6.52,12.96,15.46,13.53,5.1.33,11.61-1.97,12.23-5.57Z"/>
            <path class="cls-6" d="m234.7,372.86c2.07-3.57-2.93-10.19-7.35-13.54-5.1-3.86-13.4-6.39-15.85-3.53-2.84,3.31-2.76,15.45,5.42,19.09,4.67,2.08,15.95,1.14,17.79-2.02Z"/>
            <path class="cls-6" d="m307.41,354.55c-.15-3.25-6.27-5.36-10.63-5.59-5.02-.26-11.59,1.77-12,4.74-.47,3.43,7.21,8.71,14.18,7.45,3.97-.72,8.58-3.72,8.45-6.6Z"/>
            <path class="cls-6" d="m288.66,392.07c4.07-.64,6.06-8.69,5.87-14.25-.22-6.39-3.48-14.43-7.26-14.53-4.36-.12-10.16,10.35-7.83,19,1.33,4.93,5.6,10.35,9.22,9.78Z"/>
            <path class="cls-6" d="m265.21,400.5c3.72,1.78,12.34-1.22,15.34-5.9,3.45-5.38,2.91-16.35-.14-18.57-3.52-2.57-14.24,2.75-17.23,11.19-1.7,4.81-1.27,11.7,2.03,13.28Z"/>
            <path class="cls-6" d="m300.05,391.13c2.87,2.96,10.6-.04,15.03-3.39,5.1-3.85,9.8-11.15,7.71-14.29-2.41-3.64-14.12-6.87-19.85.02-3.27,3.92-5.44,15.03-2.9,17.66Z"/>
          </g>
          <g>
            <path class="cls-6" d="m195.8,173.32c-1.06,3.99,5.5,9.06,10.66,11.13,5.93,2.38,14.61,2.64,16.22-.77,1.87-3.94-5.36-13.48-14.21-14.84-5.05-.77-11.73.94-12.67,4.48Z"/>
            <path class="cls-6" d="m205.29,152.37c-3.5,2.18-3.36,7.76-1.03,12.81,2.68,5.8,8.81,11.94,12.33,10.57,4.07-1.59,5.35-13.48-.16-20.55-3.14-4.03-8.03-4.76-11.14-2.83Z"/>
            <path class="cls-6" d="m253.24,177.27c-3.5,2.18-2.21,10.36.12,15.41,2.68,5.8,8.81,11.94,12.33,10.57,4.07-1.59,5.35-13.48-.16-20.55-3.14-4.03-9.18-7.37-12.29-5.44Z"/>
            <path class="cls-6" d="m269.6,165.53c-4.11-.35-7.97,6.99-9.11,12.43-1.32,6.26-.07,14.84,3.57,15.85,4.21,1.16,12.35-7.61,12.15-16.57-.11-5.11-2.96-11.39-6.61-11.7Z"/>
            <path class="cls-6" d="m244.76,147.09c-4.11-.35-7.97,6.99-9.11,12.43-1.32,6.26-.07,14.84,3.57,15.85,4.21,1.16,12.35-7.61,12.15-16.57-.11-5.11-2.96-11.39-6.61-11.7Z"/>
            <path class="cls-6" d="m318.92,168.35c-1,4,5.62,8.98,10.81,10.98,5.96,2.3,14.64,2.45,16.21-.99,1.82-3.97-5.54-13.41-14.41-14.65-5.06-.71-11.72,1.1-12.61,4.65Z"/>
            <path class="cls-6" d="m320.35,143.47c-3.1,2.72-3.71,11.84-.58,16.43,3.6,5.28,13.9,9.08,17.14,7.15,3.75-2.23,3.05-14.18-3.55-20.24-3.76-3.45-10.27-5.75-13.02-3.33Z"/>
            <path class="cls-6" d="m315.32,179.19c-3.85,1.48-4.11,9.77-2.77,15.16,1.54,6.2,6.42,13.38,10.13,12.7,4.29-.79,11.85-10.3,7.76-18.27-2.33-4.54-11.7-10.9-15.12-9.59Z"/>
            <path class="cls-6" d="m247.21,147.82c-1.92,2.63,1.52,8.11,4.77,11.02,3.74,3.35,10.13,5.89,12.31,3.84,2.52-2.38-.15-11.3-6.36-14.7-3.54-1.93-9.02-2.5-10.72-.16Z"/>
            <path class="cls-6" d="m285.36,130.38c-3.57-2.05-10.17,2.96-13.51,7.41-3.84,5.11-6.34,13.42-3.47,15.87,3.32,2.83,14.41-1.68,18.02-9.88,2.06-4.67,2.14-11.58-1.04-13.4Z"/>
            <path class="cls-6" d="m308.9,138.53c-1.78-3.72-10.38-6.79-15.65-5.03-6.06,2.03-12.52,10.9-11.54,14.55,1.13,4.22,12.81,6.8,20.44,2.1,4.35-2.68,8.33-8.31,6.75-11.62Z"/>
            <path class="cls-6" d="m275.9,123.96c-.38-4.11-8.28-6.62-13.83-6.8-6.39-.2-14.63,2.53-14.98,6.29-.4,4.35,6.68,14.2,15.47,12.44,5.01-1,13.67-8.29,13.34-11.93Z"/>
          </g>
          <g>
            <path class="cls-6" d="m375.09,219.84c-3.87-1.43-9.53,4.63-12.08,9.57-2.93,5.68-4.01,14.29-.76,16.22,3.75,2.23,13.92-4.07,16.11-12.75,1.25-4.95.17-11.77-3.27-13.04Z"/>
            <path class="cls-6" d="m395.06,231.25c-1.84-3.69-7.41-4.08-12.65-2.23-6.03,2.12-12.72,7.65-11.68,11.28,1.2,4.2,12.92,6.59,20.47,1.77,4.3-2.75,5.5-7.54,3.87-10.82Z"/>
            <path class="cls-6" d="m365.76,276.65c-1.84-3.69-10.11-3.17-15.35-1.33-6.03,2.12-12.72,7.65-11.68,11.28,1.2,4.2,12.92,6.59,20.47,1.77,4.3-2.75,8.2-8.45,6.57-11.73Z"/>
            <path class="cls-6" d="m375.92,294.03c.73-4.06-6.21-8.59-11.52-10.24-6.1-1.9-14.77-1.47-16.11,2.06-1.55,4.08,6.42,13.01,15.35,13.65,5.09.37,11.62-1.87,12.27-5.48Z"/>
            <path class="cls-6" d="m396.61,271.04c.73-4.06-6.21-8.59-11.52-10.24-6.1-1.9-14.77-1.47-16.11,2.06-1.55,4.08,6.42,13.01,15.35,13.65,5.09.37,11.62-1.87,12.27-5.48Z"/>
            <path class="cls-6" d="m393.11,346.63c-2.42-3.34-11.43-4.81-16.3-2.12-5.6,3.09-10.34,12.99-8.72,16.4,1.87,3.94,13.83,4.37,20.48-1.63,3.79-3.42,6.69-9.68,4.54-12.65Z"/>
            <path class="cls-6" d="m395.65,273.41c-2.43-2.16-8.22.75-11.42,3.71-3.69,3.41-6.82,9.54-4.98,11.9,2.13,2.73,11.27.91,15.23-4.95,2.26-3.34,3.33-8.74,1.17-10.66Z"/>
            <path class="cls-6" d="m409.43,313.03c2.38-3.37-2-10.41-6.1-14.15-4.73-4.3-12.76-7.57-15.47-4.94-3.13,3.04.32,14.5,8.14,18.86,4.46,2.49,11.32,3.22,13.44.23Z"/>
            <path class="cls-6" d="m399.11,335.7c3.87-1.42,7.74-9.69,6.48-15.11-1.45-6.23-9.68-13.49-13.4-12.86-4.3.73-7.97,12.12-4.01,20.15,2.26,4.58,7.5,9.08,10.93,7.82Z"/>
            <path class="cls-6" d="m416.72,304.21c4.12.01,7.37-7.62,8.06-13.13.8-6.34-1.14-14.8-4.85-15.5-4.29-.81-14.77,5.32-13.84,14.23.53,5.08,6.97,14.39,10.63,14.4Z"/>
          </g>
          <g>
            <path class="cls-6" d="m149.74,321.83c3.41,2.31,10.36-2.21,14.02-6.4,4.21-4.82,7.31-12.92,4.62-15.57-3.11-3.07-14.49.62-18.69,8.53-2.39,4.51-2.98,11.39.05,13.44Z"/>
            <path class="cls-6" d="m133.08,305.97c.9,4.02,6.22,5.73,11.75,5.2,6.36-.62,14.18-4.39,14.04-8.16-.16-4.36-10.97-9.49-19.45-6.62-4.84,1.64-7.14,6.01-6.34,9.58Z"/>
            <path class="cls-6" d="m172.39,268.9c.9,4.02,9.06,5.5,14.59,4.96,6.36-.62,14.18-4.39,14.04-8.16-.16-4.36-10.97-9.49-19.45-6.62-4.84,1.64-9.98,6.24-9.18,9.81Z"/>
            <path class="cls-6" d="m166.7,249.59c-1.68,3.76,3.97,9.82,8.73,12.7,5.47,3.31,13.99,4.96,16.14,1.85,2.48-3.59-3.12-14.17-11.64-16.93-4.86-1.58-11.73-.96-13.23,2.38Z"/>
            <path class="cls-6" d="m141.1,266.97c-1.68,3.76,3.97,9.82,8.73,12.7,5.47,3.31,13.99,4.96,16.14,1.85,2.48-3.59-3.12-14.17-11.64-16.93-4.86-1.58-11.73-.96-13.23,2.38Z"/>
            <path class="cls-6" d="m162.59,194.41c1.55,3.82,9.95,7.4,15.32,5.96,6.17-1.66,13.15-10.13,12.39-13.83-.87-4.28-12.38-7.56-20.28-3.32-4.5,2.41-8.82,7.8-7.44,11.19Z"/>
            <path class="cls-6" d="m142.6,264.89c1.85,2.68,8.16,1.24,11.98-.87,4.4-2.43,8.9-7.63,7.68-10.36-1.41-3.16-10.72-3.58-15.97,1.16-2.99,2.71-5.33,7.69-3.69,10.07Z"/>
            <path class="cls-6" d="m138.7,223.13c-3.12,2.7-.55,10.58,2.54,15.2,3.56,5.31,10.58,10.41,13.84,8.5,3.77-2.2,3.16-14.16-3.39-20.26-3.73-3.48-10.22-5.83-12.99-3.44Z"/>
            <path class="cls-6" d="m154.15,203.59c-4.1.45-9.83,7.56-9.91,13.12-.08,6.39,6.17,15.41,9.93,15.69,4.35.32,10.64-9.86,8.72-18.6-1.1-4.99-5.11-10.61-8.74-10.21Z"/>
            <path class="cls-6" d="m129.52,229.95c-4-1-8.98,5.63-10.97,10.82-2.3,5.97-2.43,14.64,1,16.21,3.97,1.81,15.61-1.63,16.84-10.5.7-5.06-3.32-15.64-6.87-16.53Z"/>
          </g>
          <g>
            <path class="cls-6" d="m350.29,179.7c-4.01-.98-8.94,5.68-10.91,10.88-2.26,5.98-2.35,14.66,1.09,16.21,3.98,1.79,13.37-5.63,14.55-14.51.67-5.06-1.17-11.71-4.73-12.58Z"/>
            <path class="cls-6" d="m371.43,188.76c-2.25-3.46-7.83-3.21-12.82-.77-5.75,2.8-11.76,9.05-10.32,12.54,1.67,4.03,13.59,5.08,20.54-.58,3.96-3.22,4.6-8.12,2.61-11.19Z"/>
            <path class="cls-6" d="m347.51,237.21c-2.25-3.46-10.41-2-15.4.43-5.75,2.8-11.76,9.05-10.32,12.54,1.67,4.03,13.59,5.08,20.54-.58,3.96-3.22,7.18-9.33,5.19-12.4Z"/>
            <path class="cls-6" d="m359.58,253.32c.27-4.11-7.15-7.82-12.61-8.86-6.28-1.19-14.84.23-15.77,3.89-1.07,4.23,7.86,12.19,16.81,11.81,5.1-.22,11.33-3.19,11.57-6.84Z"/>
            <path class="cls-6" d="m377.51,228.11c.27-4.11-7.15-7.82-12.61-8.86-6.28-1.19-14.84.23-15.77,3.89-1.07,4.23,7.86,12.19,16.81,11.81,5.1-.22,11.33-3.19,11.57-6.84Z"/>
            <path class="cls-6" d="m357.76,302.68c-4.02-.92-8.87,5.8-10.76,11.03-2.18,6.01-2.15,14.69,1.31,16.19,4,1.74,13.29-5.81,14.35-14.7.6-5.07-1.33-11.7-4.9-12.51Z"/>
            <path class="cls-6" d="m382.66,303.61c-2.78-3.04-11.91-3.47-16.44-.25-5.21,3.71-8.79,14.08-6.8,17.29,2.31,3.7,14.24,2.77,20.16-3.95,3.38-3.83,5.54-10.38,3.07-13.08Z"/>
            <path class="cls-6" d="m346.84,299.3c-1.56-3.82-9.85-3.92-15.21-2.46-6.17,1.67-13.25,6.69-12.49,10.38.88,4.27,10.54,11.64,18.42,7.39,4.5-2.42,10.66-11.92,9.28-15.31Z"/>
            <path class="cls-6" d="m376.83,230.58c-2.67-1.87-8.08,1.68-10.92,4.99-3.27,3.81-5.69,10.25-3.59,12.39,2.43,2.47,11.3-.38,14.57-6.66,1.86-3.58,2.31-9.06-.05-10.73Z"/>
            <path class="cls-6" d="m395.04,268.36c1.98-3.62-3.17-10.11-7.68-13.36-5.19-3.74-13.55-6.07-15.94-3.15-2.76,3.38,1.97,14.37,10.24,17.81,4.71,1.96,11.62,1.9,13.38-1.31Z"/>
            <path class="cls-6" d="m387.37,292.07c3.68-1.85,6.58-10.51,4.71-15.75-2.15-6.02-11.15-12.3-14.78-11.25-4.19,1.21-6.54,12.95-1.69,20.48,2.77,4.29,8.48,8.16,11.75,6.52Z"/>
            <path class="cls-6" d="m401.27,258.77c4.1-.46,6.45-8.41,6.51-13.96.07-6.39-2.82-14.57-6.59-14.85-4.35-.32-14.07,6.97-12.13,15.71,1.11,4.99,8.56,13.5,12.2,13.1Z"/>
          </g>
          <g>
            <path class="cls-1" d="m165.45,216.03c-3.03,2.8-.22,10.59,3.02,15.11,3.73,5.2,10.91,10.07,14.1,8.06,3.69-2.32,2.71-14.25-4.03-20.15-3.84-3.36-10.4-5.51-13.1-3.02Z"/>
            <path class="cls-1" d="m184.71,203.43c-4.12-.04-7,4.75-7.74,10.25-.85,6.34,1.03,14.81,4.73,15.54,4.28.84,11.75-8.51,10.89-17.42-.49-5.08-4.22-8.33-7.88-8.37Z"/>
            <path class="cls-1" d="m211.81,250.18c-4.12-.04-7.43,7.56-8.17,13.07-.85,6.34,1.03,14.81,4.73,15.54,4.28.84,11.75-8.51,10.89-17.42-.49-5.08-3.79-11.14-7.46-11.18Z"/>
            <path class="cls-1" d="m231.9,249.04c-3.28-2.5-10.47,1.62-14.36,5.6-4.47,4.57-8.02,12.49-5.49,15.29,2.93,3.24,14.5.2,19.14-7.46,2.64-4.37,3.62-11.2.7-13.42Z"/>
            <path class="cls-1" d="m220.84,220.16c-3.28-2.5-10.47,1.62-14.36,5.6-4.47,4.57-8.02,12.49-5.49,15.29,2.93,3.24,14.5.2,19.14-7.46,2.64-4.37,3.62-11.2.7-13.42Z"/>
            <path class="cls-1" d="m272.01,277.88c-2.99,2.84-.07,10.6,3.23,15.07,3.8,5.14,11.04,9.92,14.21,7.87,3.66-2.37,2.52-14.28-4.3-20.09-3.89-3.31-10.48-5.36-13.13-2.85Z"/>
            <path class="cls-1" d="m286.57,257.66c-4.07.64-9.48,8-9.3,13.55.2,6.39,6.86,15.12,10.63,15.23,4.36.13,10.19-10.33,7.87-18.98-1.32-4.93-5.58-10.36-9.2-9.8Z"/>
            <path class="cls-1" d="m263.15,285.11c-4.04-.82-8.71,6.03-10.47,11.3-2.03,6.06-1.77,14.74,1.73,16.15,4.05,1.63,15.52-2.33,16.35-11.25.47-5.08-4.02-15.48-7.61-16.2Z"/>
            <path class="cls-1" d="m222.52,222.09c-3.03,1.18-3.07,7.66-1.89,11.86,1.36,4.84,5.39,10.41,8.33,9.85,3.4-.65,5.94-9.62,2.52-15.82-1.95-3.53-6.27-6.94-8.96-5.89Z"/>
            <path class="cls-1" d="m264.07,227.84c-1.91-3.65-10.18-2.96-15.38-1-5.98,2.25-12.55,7.92-11.44,11.53,1.29,4.17,13.06,6.32,20.5,1.33,4.24-2.84,8.02-8.62,6.31-11.86Z"/>
            <path class="cls-1" d="m279.56,247.35c.5-4.09-5.11-11.3-10.5-12.64-6.2-1.54-16.42,2.48-17.55,6.08-1.31,4.16,7.16,12.61,16.12,12.74,5.11.07,11.49-2.55,11.93-6.18Z"/>
            <path class="cls-1" d="m259.53,217.34c1.89-3.67-3.43-10.03-8.02-13.16-5.28-3.6-13.7-5.71-16.01-2.73-2.67,3.45-1.98,15.57,6.37,18.8,4.76,1.84,15.99.34,17.66-2.91Z"/>
          </g>
          <g>
            <path class="cls-1" d="m352.61,142.15c-1.87-3.68-10.14-3.09-15.36-1.21-6.01,2.17-12.66,7.75-11.6,11.37,1.23,4.19,12.97,6.49,20.48,1.61,4.28-2.78,8.13-8.51,6.47-11.78Z"/>
            <path class="cls-1" d="m359.48,164.11c1.17-3.95-2.66-8.03-7.76-10.24-5.87-2.55-14.53-3.04-16.24.32-1.98,3.89,4.99,13.62,13.8,15.22,5.02.91,9.16-1.79,10.2-5.3Z"/>
            <path class="cls-1" d="m307.12,177.45c1.17-3.95-5.25-9.2-10.35-11.42-5.87-2.55-14.53-3.04-16.24.32-1.98,3.89,4.99,13.62,13.8,15.22,5.02.91,11.76-.62,12.79-4.13Z"/>
            <path class="cls-1" d="m302.74,197.1c3.3-2.47,1.29-10.52-1.47-15.34-3.18-5.55-9.83-11.12-13.21-9.45-3.91,1.94-4.14,13.9,1.97,20.45,3.48,3.73,9.79,6.53,12.72,4.33Z"/>
            <path class="cls-1" d="m333.55,194.32c3.3-2.47,1.29-10.52-1.47-15.34-3.18-5.55-9.83-11.12-13.21-9.45-3.91,1.94-4.14,13.9,1.97,20.45,3.48,3.73,9.79,6.53,12.72,4.33Z"/>
            <path class="cls-1" d="m331.23,195.41c-.31-3.24-6.53-5.04-10.9-5.05-5.02,0-11.48,2.35-11.74,5.34-.3,3.45,7.64,8.34,14.53,6.73,3.93-.92,8.39-4.14,8.11-7.02Z"/>
            <path class="cls-1" d="m271.84,207.99c-3.4,2.33-1.73,10.46.83,15.39,2.95,5.67,9.36,11.52,12.81,9.99,3.99-1.77,4.72-13.71-1.11-20.52-3.32-3.88-9.51-6.94-12.53-4.86Z"/>
            <path class="cls-1" d="m292.69,198.27c-4.07-.63-7.61,3.7-9.13,9.04-1.75,6.15-1.1,14.8,2.46,16.05,4.12,1.45,12.84-6.74,13.27-15.69.24-5.1-2.98-8.84-6.6-9.41Z"/>
            <path class="cls-1" d="m312.83,248.41c-4.07-.63-8.43,6.42-9.95,11.77-1.75,6.15-1.1,14.8,2.46,16.05,4.12,1.45,12.84-6.74,13.27-15.69.24-5.1-2.16-11.57-5.78-12.13Z"/>
            <path class="cls-1" d="m332.89,250.16c-2.89-2.94-10.6.11-15.01,3.49-5.08,3.89-9.73,11.21-7.62,14.34,2.44,3.62,14.33,2.27,20.01-4.65,3.24-3.95,5.18-10.57,2.62-13.18Z"/>
            <path class="cls-1" d="m326.06,219.99c-2.89-2.94-10.6.11-15.01,3.49-5.08,3.89-9.73,11.21-7.62,14.34,2.44,3.62,14.33,2.27,20.01-4.65,3.24-3.95,5.18-10.57,2.62-13.18Z"/>
            <path class="cls-1" d="m368.46,284.44c-3.37,2.38-1.59,10.48,1.04,15.37,3.02,5.63,9.51,11.4,12.94,9.82,3.96-1.83,4.54-13.78-1.39-20.5-3.38-3.83-9.6-6.81-12.59-4.69Z"/>
            <path class="cls-1" d="m385.76,266.5c-4.12.05-10.53,6.56-11.14,12.08-.71,6.35,4.63,15.94,8.35,16.59,4.3.75,11.56-8.77,10.5-17.66-.6-5.07-4.04-11.06-7.7-11.01Z"/>
            <path class="cls-1" d="m358.66,290.32c-3.88-1.39-9.48,4.73-11.98,9.69-2.87,5.71-3.86,14.33-.59,16.23,3.77,2.19,15.7-.09,17.79-8.8,1.19-4.97-1.77-15.89-5.22-17.12Z"/>
            <path class="cls-1" d="m327.45,222.14c-3.17.74-4.13,7.14-3.56,11.47.66,4.98,3.85,11.07,6.84,10.94,3.46-.16,7.25-8.67,4.75-15.29-1.43-3.78-5.21-7.77-8.03-7.11Z"/>
          </g>
          <g>
            <path class="cls-1" d="m146.61,288.76c-3.03,2.8-.22,10.59,3.02,15.11,3.73,5.2,10.91,10.07,14.1,8.06,3.69-2.32,2.71-14.25-4.03-20.15-3.84-3.36-10.4-5.51-13.1-3.02Z"/>
            <path class="cls-1" d="m165.86,276.17c-4.12-.04-7,4.75-7.74,10.25-.85,6.34,1.03,14.81,4.73,15.54,4.28.84,11.75-8.51,10.89-17.42-.49-5.08-4.22-8.33-7.88-8.37Z"/>
            <path class="cls-1" d="m192.96,322.91c-4.12-.04-7.43,7.56-8.17,13.07-.85,6.34,1.03,14.81,4.73,15.54,4.28.84,11.75-8.51,10.89-17.42-.49-5.08-3.79-11.14-7.46-11.18Z"/>
            <path class="cls-1" d="m213.06,321.78c-3.28-2.5-10.47,1.62-14.36,5.6-4.47,4.57-8.02,12.49-5.49,15.29,2.93,3.24,14.5.2,19.14-7.46,2.64-4.37,3.62-11.2.7-13.42Z"/>
            <path class="cls-1" d="m202,292.89c-3.28-2.5-10.47,1.62-14.36,5.6-4.47,4.57-8.02,12.49-5.49,15.29,2.93,3.24,14.5.2,19.14-7.46,2.64-4.37,3.62-11.2.7-13.42Z"/>
            <path class="cls-1" d="m253.17,350.62c-2.99,2.84-.07,10.6,3.23,15.07,3.8,5.14,11.04,9.92,14.21,7.87,3.66-2.37,2.52-14.28-4.3-20.09-3.89-3.31-10.48-5.36-13.13-2.85Z"/>
            <path class="cls-1" d="m267.73,330.39c-4.07.64-9.48,8-9.3,13.55.2,6.39,6.86,15.12,10.63,15.23,4.36.13,10.19-10.33,7.87-18.98-1.32-4.93-5.58-10.36-9.2-9.8Z"/>
            <path class="cls-1" d="m244.31,357.84c-4.04-.82-8.71,6.03-10.47,11.3-2.03,6.06-1.77,14.74,1.73,16.15,4.05,1.63,15.52-2.33,16.35-11.25.47-5.08-4.02-15.48-7.61-16.2Z"/>
            <path class="cls-1" d="m203.68,294.82c-3.03,1.18-3.07,7.66-1.89,11.86,1.36,4.84,5.39,10.41,8.33,9.85,3.4-.65,5.94-9.62,2.52-15.82-1.95-3.53-6.27-6.94-8.96-5.89Z"/>
            <path class="cls-1" d="m245.22,300.57c-1.91-3.65-10.18-2.96-15.38-1-5.98,2.25-12.55,7.92-11.44,11.53,1.29,4.17,13.06,6.32,20.5,1.33,4.24-2.84,8.02-8.62,6.31-11.86Z"/>
            <path class="cls-1" d="m260.72,320.08c.5-4.09-5.11-11.3-10.5-12.64-6.2-1.54-16.42,2.48-17.55,6.08-1.31,4.16,7.16,12.61,16.12,12.74,5.11.07,11.49-2.55,11.93-6.18Z"/>
            <path class="cls-1" d="m240.69,290.07c1.89-3.67-3.43-10.03-8.02-13.16-5.28-3.6-13.7-5.71-16.01-2.73-2.67,3.45-1.98,15.57,6.37,18.8,4.76,1.84,15.99.34,17.66-2.91Z"/>
          </g>
          <g>
            <path class="cls-1" d="m339.48,271.54c-3.19-2.61-10.52,1.26-14.54,5.1-4.62,4.41-8.45,12.2-6.01,15.09,2.82,3.33,14.49.7,19.39-6.8,2.79-4.27,4-11.07,1.17-13.39Z"/>
            <path class="cls-1" d="m354.64,288.85c-.53-4.09-5.68-6.27-11.23-6.24-6.39.04-14.52,3.08-14.73,6.85-.24,4.36,10.06,10.45,18.77,8.35,4.96-1.19,7.66-5.34,7.19-8.97Z"/>
            <path class="cls-1" d="m312.12,322.2c-.53-4.09-8.52-6.3-14.08-6.26-6.39.04-14.52,3.08-14.73,6.85-.24,4.36,10.06,10.45,18.77,8.35,4.96-1.19,10.51-5.31,10.03-8.94Z"/>
            <path class="cls-1" d="m316.05,341.95c2.02-3.6-3.07-10.14-7.54-13.44-5.15-3.79-13.48-6.21-15.9-3.31-2.8,3.35,1.82,14.39,10.06,17.92,4.69,2.01,11.6,2.02,13.39-1.17Z"/>
            <path class="cls-1" d="m343.11,326.96c2.02-3.6-3.07-10.14-7.54-13.44-5.15-3.79-13.48-6.21-15.9-3.31-2.8,3.35,1.82,14.39,10.06,17.92,4.69,2.01,11.6,2.02,13.39-1.17Z"/>
            <path class="cls-1" d="m293.08,385.68c-3.23-2.57-10.5,1.4-14.47,5.29-4.56,4.48-8.28,12.32-5.81,15.17,2.86,3.3,14.5.51,19.29-7.06,2.74-4.31,3.85-11.12.99-13.4Z"/>
            <path class="cls-1" d="m315.14,397.28c-1.2-3.94-9.24-8.27-14.72-7.32-6.3,1.09-14.02,8.9-13.6,12.65.48,4.34,11.65,8.65,19.89,5.14,4.7-2,9.49-6.97,8.42-10.47Z"/>
            <path class="cls-1" d="m284.7,377.92c.25-4.12-7.19-7.79-12.65-8.79-6.29-1.16-14.84.3-15.75,3.97-1.05,4.24,4.47,15.05,13.42,14.62,5.1-.24,14.76-6.14,14.98-9.8Z"/>
            <path class="cls-1" d="m341.43,328.9c-1.6-2.84-8.01-1.97-12.01-.22-4.6,2.02-9.56,6.79-8.59,9.62,1.12,3.28,10.35,4.54,16.01.29,3.23-2.42,6-7.18,4.58-9.7Z"/>
            <path class="cls-1" d="m341.54,370.84c3.35-2.4,1.51-10.49-1.15-15.37-3.06-5.61-9.59-11.33-13.01-9.72-3.95,1.85-4.43,13.81,1.54,20.49,3.4,3.81,9.65,6.74,12.63,4.6Z"/>
            <path class="cls-1" d="m324.37,388.9c4.12-.08,10.48-6.64,11.05-12.16.66-6.36-4.75-15.91-8.47-16.53-4.31-.72-11.49,8.85-10.37,17.74.64,5.07,4.12,11.03,7.78,10.96Z"/>
            <path class="cls-1" d="m351.29,364.88c3.89,1.36,9.45-4.8,11.91-9.78,2.83-5.73,3.75-14.36.47-16.24-3.79-2.17-15.7.21-17.73,8.93-1.16,4.97,1.89,15.88,5.35,17.08Z"/>
          </g>
          <g>
            <path class="cls-1" d="m160.32,217.11c.85,4.04,8.98,5.62,14.52,5.16,6.37-.53,14.24-4.2,14.15-7.97-.1-4.36-10.84-9.64-19.36-6.88-4.86,1.57-10.06,6.11-9.31,9.69Z"/>
            <path class="cls-1" d="m159.38,194.12c-2.15,3.52.48,8.45,4.83,11.91,5,3.98,13.24,6.71,15.77,3.91,2.92-3.24-1.28-14.45-9.37-18.28-4.61-2.19-9.31-.65-11.22,2.47Z"/>
            <path class="cls-1" d="m213.41,194.84c-2.15,3.52,2.68,10.25,7.03,13.71,5,3.98,13.24,6.71,15.77,3.91,2.92-3.24-1.28-14.45-9.37-18.28-4.61-2.19-11.51-2.46-13.42.66Z"/>
            <path class="cls-1" d="m222.74,177c-3.83,1.53-3.98,9.82-2.56,15.2,1.63,6.18,6.6,13.29,10.31,12.55,4.28-.85,7.61-12.35,3.41-20.26-2.39-4.51-7.76-8.85-11.16-7.49Z"/>
            <path class="cls-1" d="m192.27,171.68c-3.83,1.53-3.98,9.82-2.56,15.2,1.63,6.18,6.6,13.29,10.31,12.55,4.28-.85,7.61-12.35,3.41-20.26-2.39-4.51-7.76-8.85-11.16-7.49Z"/>
            <path class="cls-1" d="m268.07,157.36c.9,4.02,9.06,5.5,14.59,4.96,6.36-.62,14.18-4.39,14.04-8.16-.16-4.36-10.97-9.49-19.45-6.61-4.84,1.64-9.98,6.24-9.18,9.82Z"/>
            <path class="cls-1" d="m258.18,134.49c-1.54,3.82,2,12.24,6.86,14.94,5.59,3.1,16.5,1.87,18.53-1.32,2.35-3.68-3.64-14.04-12.26-16.49-4.91-1.4-11.76-.53-13.13,2.87Z"/>
            <path class="cls-1" d="m269.73,168.67c-2.77,3.05.71,10.57,4.33,14.79,4.17,4.85,11.74,9.08,14.75,6.79,3.48-2.64,5.96-14.52-1.27-19.81-4.12-3.01-15.35-4.48-17.81-1.77Z"/>
            <path class="cls-1" d="m194.79,171.23c-.54,3.21,5,6.57,9.21,7.71,4.85,1.31,11.7.71,12.73-2.1,1.18-3.25-5.21-10.03-12.29-10.27-4.03-.14-9.18,1.82-9.65,4.67Z"/>
            <path class="cls-1" d="m221.03,138.51c-4.12-.23-7.76,7.22-8.75,12.69-1.14,6.29.36,14.84,4.03,15.74,4.24,1.04,12.12-7.97,11.66-16.92-.26-5.1-3.29-11.3-6.94-11.51Z"/>
            <path class="cls-1" d="m245.74,135.22c-3.26-2.53-12.32-1.41-16.24,2.53-4.51,4.53-6.29,15.36-3.78,18.19,2.9,3.26,14.5.32,19.2-7.3,2.68-4.35,3.71-11.17.82-13.41Z"/>
            <path class="cls-1" d="m209.7,137.03c-2.18-3.5-10.37-2.2-15.41.14-5.8,2.69-11.93,8.83-10.56,12.35,1.59,4.06,12.35,9.69,19.41,4.17,4.02-3.15,8.49-13.55,6.56-16.66Z"/>
          </g>
          <g>
            <path class="cls-1" d="m185.87,370.49c4.09.53,8.27-6.63,9.65-12.01,1.59-6.19.73-14.83-2.87-15.99-4.15-1.34-12.67,7.06-12.87,16.02-.11,5.11,2.45,11.51,6.08,11.98Z"/>
            <path class="cls-1" d="m163.86,363.8c2.61,3.19,8.13,2.33,12.83-.64,5.41-3.41,10.7-10.29,8.88-13.6-2.1-3.83-14.06-3.56-20.35,2.82-3.58,3.64-3.68,8.58-1.36,11.41Z"/>
            <path class="cls-1" d="m182.33,313.02c2.61,3.19,10.56.85,15.26-2.12,5.41-3.41,10.7-10.29,8.88-13.6-2.1-3.83-14.06-3.56-20.35,2.82-3.58,3.64-6.11,10.06-3.79,12.89Z"/>
            <path class="cls-1" d="m168.57,298.33c.19,4.12,7.96,6.99,13.5,7.42,6.37.5,14.73-1.85,15.25-5.59.6-4.32-9.15-11.25-18-9.9-5.05.77-10.91,4.41-10.75,8.07Z"/>
            <path class="cls-1" d="m153.51,325.35c.19,4.12,7.96,6.99,13.5,7.42,6.37.5,14.73-1.85,15.25-5.59.6-4.32-9.15-11.25-18-9.9-5.05.77-10.91,4.41-10.75,8.07Z"/>
            <path class="cls-1" d="m140.11,250.87c3.1,2.72,12.22,2.14,16.36-1.56,4.77-4.26,7.2-14.96,4.86-17.93-2.7-3.43-14.46-1.19-19.61,6.14-2.94,4.18-4.37,10.93-1.62,13.34Z"/>
            <path class="cls-1" d="m153.91,322.82c2.85,1.57,7.85-2.56,10.31-6.16,2.84-4.15,4.53-10.81,2.21-12.71-2.68-2.19-11.19,1.61-13.75,8.21-1.46,3.76-1.3,9.26,1.23,10.65Z"/>
            <path class="cls-1" d="m131.67,287.26c-1.57,3.81,4.26,9.7,9.1,12.44,5.57,3.15,14.13,4.55,16.18,1.38,2.37-3.66-3.53-14.07-12.13-16.58-4.9-1.43-11.75-.62-13.15,2.77Z"/>
            <path class="cls-1" d="m136.7,262.86c-3.46,2.24-5.39,11.17-2.96,16.17,2.8,5.75,12.43,11,15.92,9.56,4.03-1.67,5.08-13.59-.57-20.54-3.22-3.96-9.33-7.18-12.4-5.19Z"/>
            <path class="cls-1" d="m126.53,297.47c-4.02.9-5.49,9.06-4.94,14.59.63,6.36,4.4,14.17,8.18,14.03,4.36-.16,13.22-8.47,10.33-16.95-1.65-4.83-9.99-12.48-13.56-11.68Z"/>
          </g>
        </g>
        <g class="cls-4">
          <path class="cls-7" d="m246.04,100.18c2.88,5.9-38.69,18.88-71.52,62.45-5.96,7.92-73.48,100.5-27.2,184.34,27.87,50.49,87.14,79.93,151.1,77.56-10.59,8.52-26.15,18.33-46.34,22.16-63.58,12.05-131.5-43.09-159.16-103.76-24.91-54.63-23.54-127.68,18.13-180.31,48.13-60.79,131.08-70.44,134.98-62.45Z"/>
        </g>
      </g>
    </g>
  </g>
</svg>