<?xml version="1.0" encoding="UTF-8"?>
<svg xmlns="http://www.w3.org/2000/svg" xmlns:xlink="http://www.w3.org/1999/xlink" viewBox="0 0 540 540">
  <defs>
    <style>
      .cls-1 {
        clip-path: url(#clippath-11);
      }

      .cls-2 {
        clip-path: url(#clippath-2);
      }

      .cls-3 {
        isolation: isolate;
      }

      .cls-4 {
        clip-path: url(#clippath-6);
      }

      .cls-5 {
        clip-path: url(#clippath-7);
      }

      .cls-6 {
        clip-path: url(#clippath-1);
      }

      .cls-7 {
        clip-path: url(#clippath-4);
      }

      .cls-8 {
        fill: #b7b7b7;
        mix-blend-mode: soft-light;
      }

      .cls-9 {
        fill: #f4e9cf;
      }

      .cls-10 {
        clip-path: url(#clippath-9);
      }

      .cls-11 {
        clip-path: url(#clippath);
      }

      .cls-12 {
        fill: none;
      }

      .cls-13 {
        clip-path: url(#clippath-3);
      }

      .cls-14 {
        clip-path: url(#clippath-8);
      }

      .cls-15 {
        clip-path: url(#clippath-5);
      }

      .cls-16 {
        fill: #fcd78a;
        mix-blend-mode: multiply;
        opacity: .25;
      }

      .cls-17 {
        clip-path: url(#clippath-10);
      }
    </style>
    <clipPath id="clippath">
      <path class="cls-12" d="m213.08,258.01c2.51.33,7.11.58,12.21-1.38,10.24-3.95,14.04-13.6,14.86-15.88,3.93-10.97-.67-20.45-1.54-22.16-5.79-11.38-19.11-15.5-25-16.27-3.95-.51-6.96.22-10.96-1.88-3.1-1.63-4.93-2.59-7.09-1.95-2.41.72-3.19,3.24-4.76,5.83-3.47,5.72-7.81,7.06-10.97,9.69-7.91,6.57-9.91,23.84-2.68,35.83,5.65,9.36,18.14,17.51,28.24,13.96,3.59-1.26,6.09-3.72,7.7-5.79Z"/>
    </clipPath>
    <clipPath id="clippath-1">
      <path class="cls-12" d="m139.3,304.08c2.51.33,7.11.58,12.21-1.38,10.24-3.95,14.04-13.6,14.86-15.88,3.93-10.97-.67-20.45-1.54-22.16-5.79-11.38-19.11-15.5-25-16.27-3.95-.51-6.96.22-10.96-1.88-3.1-1.63-4.93-2.59-7.09-1.95-2.41.72-3.19,3.24-4.76,5.83-3.47,5.72-7.81,7.06-10.97,9.69-7.91,6.57-9.91,23.84-2.68,35.83,5.65,9.36,18.14,17.51,28.24,13.96,3.59-1.26,6.09-3.72,7.7-5.79Z"/>
    </clipPath>
    <clipPath id="clippath-2">
      <path class="cls-12" d="m186.48,323.75c2.51.33,7.11.58,12.21-1.38,10.24-3.95,14.04-13.6,14.86-15.88,3.93-10.97-.67-20.45-1.54-22.16-5.79-11.38-19.11-15.5-25-16.27-3.95-.51-6.96.22-10.96-1.88-3.1-1.63-4.93-2.59-7.09-1.95-2.41.72-3.19,3.24-4.76,5.83-3.47,5.72-7.81,7.06-10.97,9.69-7.91,6.57-9.91,23.84-2.68,35.83,5.65,9.36,18.14,17.51,28.24,13.96,3.59-1.26,6.09-3.72,7.7-5.79Z"/>
    </clipPath>
    <clipPath id="clippath-3">
      <path class="cls-12" d="m253.34,286.96c2.51.33,7.11.58,12.21-1.38,10.24-3.95,14.04-13.6,14.86-15.88,3.93-10.97-.67-20.45-1.54-22.16-5.79-11.38-19.11-15.5-25-16.27-3.95-.51-6.96.22-10.96-1.88-3.1-1.63-4.93-2.59-7.09-1.95-2.41.72-3.19,3.24-4.76,5.83-3.47,5.72-7.81,7.06-10.97,9.69-7.91,6.57-9.91,23.84-2.68,35.83,5.65,9.36,18.14,17.51,28.24,13.96,3.59-1.26,6.09-3.72,7.7-5.79Z"/>
    </clipPath>
    <clipPath id="clippath-4">
      <path class="cls-12" d="m380.5,235.63c1.9,1.68,5.58,4.46,10.9,5.67,10.7,2.44,19.24-3.44,21.2-4.88,9.38-6.91,10.86-17.34,11.1-19.25,1.55-12.68-7.2-23.53-11.65-27.46-2.99-2.63-5.9-3.7-8.04-7.68-1.66-3.09-2.64-4.9-4.79-5.57-2.4-.75-4.45.9-7.21,2.18-6.07,2.81-10.42,1.49-14.51,1.91-10.23,1.03-21.54,14.24-22.23,28.23-.54,10.92,5.27,24.65,15.63,27.35,3.69.96,7.13.31,9.62-.5Z"/>
    </clipPath>
    <clipPath id="clippath-5">
      <path class="cls-12" d="m293.58,232.64c1.9,1.68,5.58,4.46,10.9,5.67,10.7,2.44,19.24-3.44,21.2-4.88,9.38-6.91,10.86-17.34,11.1-19.25,1.55-12.68-7.2-23.53-11.65-27.46-2.99-2.63-5.9-3.7-8.04-7.68-1.66-3.09-2.64-4.9-4.79-5.57-2.4-.75-4.45.9-7.21,2.18-6.07,2.81-10.42,1.49-14.51,1.91-10.23,1.03-21.54,14.24-22.23,28.23-.54,10.92,5.27,24.65,15.63,27.35,3.69.96,7.13.31,9.62-.5Z"/>
    </clipPath>
    <clipPath id="clippath-6">
      <path class="cls-12" d="m321.72,275.3c1.9,1.68,5.58,4.46,10.9,5.67,10.7,2.44,19.24-3.44,21.2-4.88,9.38-6.91,10.86-17.34,11.1-19.25,1.55-12.68-7.2-23.53-11.65-27.46-2.99-2.63-5.9-3.7-8.04-7.68-1.66-3.09-2.64-4.9-4.79-5.57-2.4-.75-4.45.9-7.21,2.18-6.07,2.81-10.42,1.49-14.51,1.91-10.23,1.03-21.54,14.24-22.23,28.23-.54,10.92,5.27,24.65,15.63,27.35,3.69.96,7.13.31,9.62-.5Z"/>
    </clipPath>
    <clipPath id="clippath-7">
      <path class="cls-12" d="m397.73,282.12c1.9,1.68,5.58,4.46,10.9,5.67,10.7,2.44,19.24-3.44,21.2-4.88,9.38-6.91,10.86-17.34,11.1-19.25,1.55-12.68-7.2-23.53-11.65-27.46-2.99-2.63-5.9-3.7-8.04-7.68-1.66-3.09-2.64-4.9-4.79-5.57-2.4-.75-4.45.9-7.21,2.18-6.07,2.81-10.42,1.49-14.51,1.91-10.23,1.03-21.54,14.24-22.23,28.23-.54,10.92,5.27,24.65,15.63,27.35,3.69.96,7.13.31,9.62-.5Z"/>
    </clipPath>
    <clipPath id="clippath-8">
      <path class="cls-12" d="m305.92,308.4c2.3,1.05,6.63,2.65,12.08,2.26,10.95-.77,17.42-8.88,18.87-10.82,6.97-9.33,5.36-19.75,5.03-21.64-2.2-12.58-13.72-20.43-19.12-22.9-3.63-1.65-6.72-1.83-9.92-5.01-2.49-2.47-3.95-3.93-6.21-3.94-2.52-.02-4,2.16-6.27,4.18-5,4.45-9.54,4.45-13.33,6.04-9.49,3.96-16.48,19.88-13.08,33.46,2.65,10.61,12.2,22.06,22.9,21.64,3.81-.15,6.91-1.77,9.06-3.27Z"/>
    </clipPath>
    <clipPath id="clippath-9">
      <path class="cls-12" d="m221.87,330.77c2.3,1.05,6.63,2.65,12.08,2.26,10.95-.77,17.42-8.88,18.87-10.82,6.97-9.33,5.36-19.75,5.03-21.64-2.2-12.58-13.72-20.43-19.12-22.9-3.63-1.65-6.72-1.83-9.92-5.01-2.49-2.47-3.95-3.93-6.21-3.94-2.52-.02-4,2.16-6.27,4.18-5,4.45-9.54,4.45-13.33,6.04-9.49,3.96-16.48,19.88-13.08,33.46,2.65,10.61,12.2,22.06,22.9,21.64,3.81-.15,6.91-1.77,9.06-3.27Z"/>
    </clipPath>
    <clipPath id="clippath-10">
      <path class="cls-12" d="m261.18,363.43c2.3,1.05,6.63,2.65,12.08,2.26,10.95-.77,17.42-8.88,18.87-10.82,6.97-9.33,5.36-19.75,5.03-21.64-2.2-12.58-13.72-20.43-19.12-22.9-3.63-1.65-6.72-1.83-9.92-5.01-2.49-2.47-3.95-3.93-6.21-3.94-2.52-.02-4,2.16-6.27,4.18-5,4.45-9.54,4.45-13.33,6.04-9.49,3.96-16.48,19.88-13.08,33.46,2.65,10.61,12.2,22.06,22.9,21.64,3.81-.15,6.91-1.77,9.06-3.27Z"/>
    </clipPath>
    <clipPath id="clippath-11">
      <path class="cls-12" d="m335.9,347.89c2.3,1.05,6.63,2.65,12.08,2.26,10.95-.77,17.42-8.88,18.87-10.82,6.97-9.33,5.36-19.75,5.03-21.64-2.2-12.58-13.72-20.43-19.12-22.9-3.63-1.65-6.72-1.83-9.92-5.01-2.49-2.47-3.95-3.93-6.21-3.94-2.52-.02-4,2.16-6.27,4.18-5,4.45-9.54,4.45-13.33,6.04-9.49,3.96-16.48,19.88-13.08,33.46,2.65,10.61,12.2,22.06,22.9,21.64,3.81-.15,6.91-1.77,9.06-3.27Z"/>
    </clipPath>
  </defs>
  <g class="cls-3">
    <g id="_Layer_" data-name="&amp;lt;Layer&amp;gt;">
      <g>
        <g>
          <g>
            <g>
              <path class="cls-9" d="m213.08,258.01c2.51.33,7.11.58,12.21-1.38,10.24-3.95,14.04-13.6,14.86-15.88,3.93-10.97-.67-20.45-1.54-22.16-5.79-11.38-19.11-15.5-25-16.27-3.95-.51-6.96.22-10.96-1.88-3.1-1.63-4.93-2.59-7.09-1.95-2.41.72-3.19,3.24-4.76,5.83-3.47,5.72-7.81,7.06-10.97,9.69-7.91,6.57-9.91,23.84-2.68,35.83,5.65,9.36,18.14,17.51,28.24,13.96,3.59-1.26,6.09-3.72,7.7-5.79Z"/>
              <g class="cls-11">
                <path class="cls-16" d="m249.82,225.99c-20.92,23.96-29.25,27.3-32.92,25.56-1.11-.53-3.78-2.47-6.53-1.61-2.65.82-3.65,3.7-4.5,5-2.14,3.28-9.05,5.36-29.84.24,7.91,19.32,26.05,30.81,42.14,28.79,21.25-2.67,39.9-29.03,31.65-57.98Z"/>
                <path class="cls-16" d="m191.12,194.33c3.87,1.65,6.08,6.66,8.68,12.53,2.56,5.8,4.12,12.51,2.83,13.13-1.47.7-4.24-7.54-10.09-8.48-6.23-1-12.7,6.8-15.37,11.24-9.19,15.29.08,34.97,1.68,38.23-14.77-10.02-22.41-26.24-19.05-40.61,3.92-16.8,22.55-29.78,31.33-26.03Z"/>
              </g>
            </g>
            <path class="cls-8" d="m207.79,205.93c-1.13,1.13-1.68,3.29-.84,4.6,1.29,2.01,4.78.3,10.42,1.46,5.89,1.22,8.63,4.44,9.2,3.77.69-.81-2.82-6.08-8.35-8.85-.87-.44-7.6-3.82-10.43-.98Z"/>
          </g>
          <g>
            <g>
              <path class="cls-9" d="m139.3,304.08c2.51.33,7.11.58,12.21-1.38,10.24-3.95,14.04-13.6,14.86-15.88,3.93-10.97-.67-20.45-1.54-22.16-5.79-11.38-19.11-15.5-25-16.27-3.95-.51-6.96.22-10.96-1.88-3.1-1.63-4.93-2.59-7.09-1.95-2.41.72-3.19,3.24-4.76,5.83-3.47,5.72-7.81,7.06-10.97,9.69-7.91,6.57-9.91,23.84-2.68,35.83,5.65,9.36,18.14,17.51,28.24,13.96,3.59-1.26,6.09-3.72,7.7-5.79Z"/>
              <g class="cls-6">
                <path class="cls-16" d="m176.05,272.06c-20.92,23.96-29.25,27.3-32.92,25.56-1.11-.53-3.78-2.47-6.53-1.61-2.65.82-3.65,3.7-4.5,5-2.14,3.28-9.05,5.36-29.84.24,7.91,19.32,26.05,30.81,42.14,28.79,21.25-2.67,39.9-29.03,31.65-57.98Z"/>
                <path class="cls-16" d="m117.34,240.39c3.87,1.65,6.08,6.66,8.68,12.53,2.56,5.8,4.12,12.51,2.83,13.13-1.47.7-4.24-7.54-10.09-8.48-6.23-1-12.7,6.8-15.37,11.24-9.19,15.29.08,34.97,1.68,38.23-14.77-10.02-22.41-26.24-19.05-40.61,3.92-16.8,22.55-29.78,31.33-26.03Z"/>
              </g>
            </g>
            <path class="cls-8" d="m134.02,252c-1.13,1.13-1.68,3.29-.84,4.6,1.29,2.01,4.78.3,10.42,1.46,5.89,1.22,8.63,4.44,9.2,3.77.69-.81-2.82-6.08-8.35-8.85-.87-.44-7.6-3.82-10.43-.98Z"/>
          </g>
          <g>
            <g>
              <path class="cls-9" d="m186.48,323.75c2.51.33,7.11.58,12.21-1.38,10.24-3.95,14.04-13.6,14.86-15.88,3.93-10.97-.67-20.45-1.54-22.16-5.79-11.38-19.11-15.5-25-16.27-3.95-.51-6.96.22-10.96-1.88-3.1-1.63-4.93-2.59-7.09-1.95-2.41.72-3.19,3.24-4.76,5.83-3.47,5.72-7.81,7.06-10.97,9.69-7.91,6.57-9.91,23.84-2.68,35.83,5.65,9.36,18.14,17.51,28.24,13.96,3.59-1.26,6.09-3.72,7.7-5.79Z"/>
              <g class="cls-2">
                <path class="cls-16" d="m223.22,291.73c-20.92,23.96-29.25,27.3-32.92,25.56-1.11-.53-3.78-2.47-6.53-1.61-2.65.82-3.65,3.7-4.5,5-2.14,3.28-9.05,5.36-29.84.24,7.91,19.32,26.05,30.81,42.14,28.79,21.25-2.67,39.9-29.03,31.65-57.98Z"/>
                <path class="cls-16" d="m164.52,260.07c3.87,1.65,6.08,6.66,8.68,12.53,2.56,5.8,4.12,12.51,2.83,13.13-1.47.7-4.24-7.54-10.09-8.48-6.23-1-12.7,6.8-15.37,11.24-9.19,15.29.08,34.97,1.68,38.23-14.77-10.02-22.41-26.24-19.05-40.61,3.92-16.8,22.55-29.78,31.33-26.03Z"/>
              </g>
            </g>
            <path class="cls-8" d="m181.19,271.67c-1.13,1.13-1.68,3.29-.84,4.6,1.29,2.01,4.78.3,10.42,1.46,5.89,1.22,8.63,4.44,9.2,3.77.69-.81-2.82-6.08-8.35-8.85-.87-.44-7.6-3.82-10.43-.98Z"/>
          </g>
          <g>
            <g>
              <path class="cls-9" d="m253.34,286.96c2.51.33,7.11.58,12.21-1.38,10.24-3.95,14.04-13.6,14.86-15.88,3.93-10.97-.67-20.45-1.54-22.16-5.79-11.38-19.11-15.5-25-16.27-3.95-.51-6.96.22-10.96-1.88-3.1-1.63-4.93-2.59-7.09-1.95-2.41.72-3.19,3.24-4.76,5.83-3.47,5.72-7.81,7.06-10.97,9.69-7.91,6.57-9.91,23.84-2.68,35.83,5.65,9.36,18.14,17.51,28.24,13.96,3.59-1.26,6.09-3.72,7.7-5.79Z"/>
              <g class="cls-13">
                <path class="cls-16" d="m290.08,254.94c-20.92,23.96-29.25,27.3-32.92,25.56-1.11-.53-3.78-2.47-6.53-1.61-2.65.82-3.65,3.7-4.5,5-2.14,3.28-9.05,5.36-29.84.24,7.91,19.32,26.05,30.81,42.14,28.79,21.25-2.67,39.9-29.03,31.65-57.98Z"/>
                <path class="cls-16" d="m231.37,223.27c3.87,1.65,6.08,6.66,8.68,12.53,2.56,5.8,4.12,12.51,2.83,13.13-1.47.7-4.24-7.54-10.09-8.48-6.23-1-12.7,6.8-15.37,11.24-9.19,15.29.08,34.97,1.68,38.23-14.77-10.02-22.41-26.24-19.05-40.61,3.92-16.8,22.55-29.78,31.33-26.03Z"/>
              </g>
            </g>
            <path class="cls-8" d="m248.05,234.88c-1.13,1.13-1.68,3.29-.84,4.6,1.29,2.01,4.78.3,10.42,1.46,5.89,1.22,8.63,4.44,9.2,3.77.69-.81-2.82-6.08-8.35-8.85-.87-.44-7.6-3.82-10.43-.98Z"/>
          </g>
        </g>
        <g>
          <g>
            <g>
              <path class="cls-9" d="m380.5,235.63c1.9,1.68,5.58,4.46,10.9,5.67,10.7,2.44,19.24-3.44,21.2-4.88,9.38-6.91,10.86-17.34,11.1-19.25,1.55-12.68-7.2-23.53-11.65-27.46-2.99-2.63-5.9-3.7-8.04-7.68-1.66-3.09-2.64-4.9-4.79-5.57-2.4-.75-4.45.9-7.21,2.18-6.07,2.81-10.42,1.49-14.51,1.91-10.23,1.03-21.54,14.24-22.23,28.23-.54,10.92,5.27,24.65,15.63,27.35,3.69.96,7.13.31,9.62-.5Z"/>
              <g class="cls-7">
                <path class="cls-16" d="m428.87,229.59c-30.73,8.19-39.51,6.31-41.58,2.81-.63-1.06-1.76-4.16-4.51-4.98-2.65-.79-5.1,1.03-6.52,1.64-3.61,1.53-10.5-.61-24.89-16.47-4.23,20.44,4.4,40.11,18.88,47.42,19.12,9.65,49.31-1.8,58.63-30.42Z"/>
                <path class="cls-16" d="m397.85,170.53c2.29,3.53,1.33,8.92.2,15.24-1.11,6.24-3.56,12.68-4.99,12.47-1.61-.24.7-8.62-3.63-12.67-4.61-4.31-14.33-1.45-19.02.74-16.16,7.54-19.46,29.05-19.96,32.65-6.66-16.57-3.93-34.28,6.88-44.33,12.64-11.75,35.34-12.1,40.53-4.1Z"/>
              </g>
            </g>
            <path class="cls-8" d="m405.2,189.47c-1.56.31-3.23,1.79-3.26,3.35-.05,2.39,3.8,2.92,7.83,7.03,4.2,4.3,4.68,8.5,5.53,8.26,1.02-.29,1.05-6.62-1.98-12.01-.48-.85-4.17-7.41-8.11-6.64Z"/>
          </g>
          <g>
            <g>
              <path class="cls-9" d="m293.58,232.64c1.9,1.68,5.58,4.46,10.9,5.67,10.7,2.44,19.24-3.44,21.2-4.88,9.38-6.91,10.86-17.34,11.1-19.25,1.55-12.68-7.2-23.53-11.65-27.46-2.99-2.63-5.9-3.7-8.04-7.68-1.66-3.09-2.64-4.9-4.79-5.57-2.4-.75-4.45.9-7.21,2.18-6.07,2.81-10.42,1.49-14.51,1.91-10.23,1.03-21.54,14.24-22.23,28.23-.54,10.92,5.27,24.65,15.63,27.35,3.69.96,7.13.31,9.62-.5Z"/>
              <g class="cls-15">
                <path class="cls-16" d="m341.94,226.6c-30.73,8.19-39.51,6.31-41.58,2.81-.63-1.06-1.76-4.16-4.51-4.98-2.65-.79-5.1,1.03-6.52,1.64-3.61,1.53-10.5-.61-24.89-16.47-4.23,20.44,4.4,40.11,18.88,47.42,19.12,9.65,49.31-1.8,58.63-30.42Z"/>
                <path class="cls-16" d="m310.93,167.54c2.29,3.53,1.33,8.92.2,15.24-1.11,6.24-3.56,12.68-4.99,12.47-1.61-.24.7-8.62-3.63-12.67-4.61-4.31-14.33-1.45-19.02.74-16.16,7.54-19.46,29.05-19.96,32.65-6.66-16.57-3.93-34.28,6.88-44.33,12.64-11.75,35.34-12.1,40.53-4.1Z"/>
              </g>
            </g>
            <path class="cls-8" d="m318.28,186.48c-1.56.31-3.23,1.79-3.26,3.35-.05,2.39,3.8,2.92,7.83,7.03,4.2,4.3,4.68,8.5,5.53,8.26,1.02-.29,1.05-6.62-1.98-12.01-.48-.85-4.17-7.41-8.11-6.64Z"/>
          </g>
          <g>
            <g>
              <path class="cls-9" d="m321.72,275.3c1.9,1.68,5.58,4.46,10.9,5.67,10.7,2.44,19.24-3.44,21.2-4.88,9.38-6.91,10.86-17.34,11.1-19.25,1.55-12.68-7.2-23.53-11.65-27.46-2.99-2.63-5.9-3.7-8.04-7.68-1.66-3.09-2.64-4.9-4.79-5.57-2.4-.75-4.45.9-7.21,2.18-6.07,2.81-10.42,1.49-14.51,1.91-10.23,1.03-21.54,14.24-22.23,28.23-.54,10.92,5.27,24.65,15.63,27.35,3.69.96,7.13.31,9.62-.5Z"/>
              <g class="cls-4">
                <path class="cls-16" d="m370.09,269.26c-30.73,8.19-39.51,6.31-41.58,2.81-.63-1.06-1.76-4.16-4.51-4.98-2.65-.79-5.1,1.03-6.52,1.64-3.61,1.53-10.5-.61-24.89-16.47-4.23,20.44,4.4,40.11,18.88,47.42,19.12,9.65,49.31-1.8,58.63-30.42Z"/>
                <path class="cls-16" d="m339.07,210.21c2.29,3.53,1.33,8.92.2,15.24-1.11,6.24-3.56,12.68-4.99,12.47-1.61-.24.7-8.62-3.63-12.67-4.61-4.31-14.33-1.45-19.02.74-16.16,7.54-19.46,29.05-19.96,32.65-6.66-16.57-3.93-34.28,6.88-44.33,12.64-11.75,35.34-12.1,40.53-4.1Z"/>
              </g>
            </g>
            <path class="cls-8" d="m346.42,229.15c-1.56.31-3.23,1.79-3.26,3.35-.05,2.39,3.8,2.92,7.83,7.03,4.2,4.3,4.68,8.5,5.53,8.26,1.02-.29,1.05-6.62-1.98-12.01-.48-.85-4.17-7.41-8.11-6.64Z"/>
          </g>
          <g>
            <g>
              <path class="cls-9" d="m397.73,282.12c1.9,1.68,5.58,4.46,10.9,5.67,10.7,2.44,19.24-3.44,21.2-4.88,9.38-6.91,10.86-17.34,11.1-19.25,1.55-12.68-7.2-23.53-11.65-27.46-2.99-2.63-5.9-3.7-8.04-7.68-1.66-3.09-2.64-4.9-4.79-5.57-2.4-.75-4.45.9-7.21,2.18-6.07,2.81-10.42,1.49-14.51,1.91-10.23,1.03-21.54,14.24-22.23,28.23-.54,10.92,5.27,24.65,15.63,27.35,3.69.96,7.13.31,9.62-.5Z"/>
              <g class="cls-5">
                <path class="cls-16" d="m446.1,276.08c-30.73,8.19-39.51,6.31-41.58,2.81-.63-1.06-1.76-4.16-4.51-4.98-2.65-.79-5.1,1.03-6.52,1.64-3.61,1.53-10.5-.61-24.89-16.47-4.23,20.44,4.4,40.11,18.88,47.42,19.12,9.65,49.31-1.8,58.63-30.42Z"/>
                <path class="cls-16" d="m415.08,217.03c2.29,3.53,1.33,8.92.2,15.24-1.11,6.24-3.56,12.68-4.99,12.47-1.61-.24.7-8.62-3.63-12.67-4.61-4.31-14.33-1.45-19.02.74-16.16,7.54-19.46,29.05-19.96,32.65-6.66-16.57-3.93-34.28,6.88-44.33,12.64-11.75,35.34-12.1,40.53-4.1Z"/>
              </g>
            </g>
            <path class="cls-8" d="m422.43,235.97c-1.56.31-3.23,1.79-3.26,3.35-.05,2.39,3.8,2.92,7.83,7.03,4.2,4.3,4.68,8.5,5.53,8.26,1.02-.29,1.05-6.62-1.98-12.01-.48-.85-4.17-7.41-8.11-6.64Z"/>
          </g>
        </g>
        <g>
          <g>
            <g>
              <path class="cls-9" d="m305.92,308.4c2.3,1.05,6.63,2.65,12.08,2.26,10.95-.77,17.42-8.88,18.87-10.82,6.97-9.33,5.36-19.75,5.03-21.64-2.2-12.58-13.72-20.43-19.12-22.9-3.63-1.65-6.72-1.83-9.92-5.01-2.49-2.47-3.95-3.93-6.21-3.94-2.52-.02-4,2.16-6.27,4.18-5,4.45-9.54,4.45-13.33,6.04-9.49,3.96-16.48,19.88-13.08,33.46,2.65,10.61,12.2,22.06,22.9,21.64,3.81-.15,6.91-1.77,9.06-3.27Z"/>
              <g class="cls-14">
                <path class="cls-16" d="m350.44,288.59c-27.03,16.76-35.98,17.5-38.98,14.76-.91-.83-2.89-3.47-5.77-3.46-2.77.01-4.58,2.47-5.77,3.46-3.01,2.51-10.22,2.46-28.6-8.53,1.89,20.79,15.85,37.1,31.83,39.9,21.1,3.69,46.66-16.03,47.28-46.13Z"/>
                <path class="cls-16" d="m303.63,241.08c3.21,2.71,3.86,8.15,4.61,14.53.75,6.29.27,13.17-1.15,13.38-1.61.24-1.83-8.45-7.15-11.07-5.66-2.78-14.13,2.77-17.99,6.23-13.28,11.91-10.19,33.45-9.63,37.04-11.18-13.92-13.71-31.66-6.29-44.42,8.68-14.91,30.3-21.84,37.59-15.68Z"/>
              </g>
            </g>
            <path class="cls-8" d="m316.16,257.07c-1.41.75-2.57,2.65-2.15,4.15.65,2.3,4.48,1.69,9.53,4.46,5.27,2.89,6.95,6.78,7.69,6.3.89-.57-.91-6.64-5.38-10.92-.71-.68-6.15-5.88-9.69-4Z"/>
          </g>
          <g>
            <g>
              <path class="cls-9" d="m221.87,330.77c2.3,1.05,6.63,2.65,12.08,2.26,10.95-.77,17.42-8.88,18.87-10.82,6.97-9.33,5.36-19.75,5.03-21.64-2.2-12.58-13.72-20.43-19.12-22.9-3.63-1.65-6.72-1.83-9.92-5.01-2.49-2.47-3.95-3.93-6.21-3.94-2.52-.02-4,2.16-6.27,4.18-5,4.45-9.54,4.45-13.33,6.04-9.49,3.96-16.48,19.88-13.08,33.46,2.65,10.61,12.2,22.06,22.9,21.64,3.81-.15,6.91-1.77,9.06-3.27Z"/>
              <g class="cls-10">
                <path class="cls-16" d="m266.39,310.95c-27.03,16.76-35.98,17.5-38.98,14.76-.91-.83-2.89-3.47-5.77-3.46-2.77.01-4.58,2.47-5.77,3.46-3.01,2.51-10.22,2.46-28.6-8.53,1.89,20.79,15.85,37.1,31.83,39.9,21.1,3.69,46.66-16.03,47.28-46.13Z"/>
                <path class="cls-16" d="m219.58,263.44c3.21,2.71,3.86,8.15,4.61,14.53.75,6.29.27,13.17-1.15,13.38-1.61.24-1.83-8.45-7.15-11.07-5.66-2.78-14.13,2.77-17.99,6.23-13.28,11.91-10.19,33.45-9.63,37.04-11.18-13.92-13.71-31.66-6.29-44.42,8.68-14.91,30.3-21.84,37.59-15.68Z"/>
              </g>
            </g>
            <path class="cls-8" d="m232.11,279.43c-1.41.75-2.57,2.65-2.15,4.15.65,2.3,4.48,1.69,9.53,4.46,5.27,2.89,6.95,6.78,7.69,6.3.89-.57-.91-6.64-5.38-10.92-.71-.68-6.15-5.88-9.69-4Z"/>
          </g>
          <g>
            <g>
              <path class="cls-9" d="m261.18,363.43c2.3,1.05,6.63,2.65,12.08,2.26,10.95-.77,17.42-8.88,18.87-10.82,6.97-9.33,5.36-19.75,5.03-21.64-2.2-12.58-13.72-20.43-19.12-22.9-3.63-1.65-6.72-1.83-9.92-5.01-2.49-2.47-3.95-3.93-6.21-3.94-2.52-.02-4,2.16-6.27,4.18-5,4.45-9.54,4.45-13.33,6.04-9.49,3.96-16.48,19.88-13.08,33.46,2.65,10.61,12.2,22.06,22.9,21.64,3.81-.15,6.91-1.77,9.06-3.27Z"/>
              <g class="cls-17">
                <path class="cls-16" d="m305.71,343.61c-27.03,16.76-35.98,17.5-38.98,14.76-.91-.83-2.89-3.47-5.77-3.46-2.77.01-4.58,2.47-5.77,3.46-3.01,2.51-10.22,2.46-28.6-8.53,1.89,20.79,15.85,37.1,31.83,39.9,21.1,3.69,46.66-16.03,47.28-46.13Z"/>
                <path class="cls-16" d="m258.89,296.1c3.21,2.71,3.86,8.15,4.61,14.53.75,6.29.27,13.17-1.15,13.38-1.61.24-1.83-8.45-7.15-11.07-5.66-2.78-14.13,2.77-17.99,6.23-13.28,11.91-10.19,33.45-9.63,37.04-11.18-13.92-13.71-31.66-6.29-44.42,8.68-14.91,30.3-21.84,37.59-15.68Z"/>
              </g>
            </g>
            <path class="cls-8" d="m271.42,312.09c-1.41.75-2.57,2.65-2.15,4.15.65,2.3,4.48,1.69,9.53,4.46,5.27,2.89,6.95,6.78,7.69,6.3.89-.57-.91-6.64-5.38-10.92-.71-.68-6.15-5.88-9.69-4Z"/>
          </g>
          <g>
            <g>
              <path class="cls-9" d="m335.9,347.89c2.3,1.05,6.63,2.65,12.08,2.26,10.95-.77,17.42-8.88,18.87-10.82,6.97-9.33,5.36-19.75,5.03-21.64-2.2-12.58-13.72-20.43-19.12-22.9-3.63-1.65-6.72-1.83-9.92-5.01-2.49-2.47-3.95-3.93-6.21-3.94-2.52-.02-4,2.16-6.27,4.18-5,4.45-9.54,4.45-13.33,6.04-9.49,3.96-16.48,19.88-13.08,33.46,2.65,10.61,12.2,22.06,22.9,21.64,3.81-.15,6.91-1.77,9.06-3.27Z"/>
              <g class="cls-1">
                <path class="cls-16" d="m380.43,328.08c-27.03,16.76-35.98,17.5-38.98,14.76-.91-.83-2.89-3.47-5.77-3.46-2.77.01-4.58,2.47-5.77,3.46-3.01,2.51-10.22,2.46-28.6-8.53,1.89,20.79,15.85,37.1,31.83,39.9,21.1,3.69,46.66-16.03,47.28-46.13Z"/>
                <path class="cls-16" d="m333.61,280.57c3.21,2.71,3.86,8.15,4.61,14.53.75,6.29.27,13.17-1.15,13.38-1.61.24-1.83-8.45-7.15-11.07-5.66-2.78-14.13,2.77-17.99,6.23-13.28,11.91-10.19,33.45-9.63,37.04-11.18-13.92-13.71-31.66-6.29-44.42,8.68-14.91,30.3-21.84,37.59-15.68Z"/>
              </g>
            </g>
            <path class="cls-8" d="m346.14,296.56c-1.41.75-2.57,2.65-2.15,4.15.65,2.3,4.48,1.69,9.53,4.46,5.27,2.89,6.95,6.78,7.69,6.3.89-.57-.91-6.64-5.38-10.92-.71-.68-6.15-5.88-9.69-4Z"/>
          </g>
        </g>
      </g>
    </g>
  </g>
</svg>