<?xml version="1.0" encoding="UTF-8"?>
<svg id="_Layer_" data-name="&amp;lt;Layer&amp;gt;" xmlns="http://www.w3.org/2000/svg" xmlns:xlink="http://www.w3.org/1999/xlink" viewBox="0 0 540 540">
  <defs>
    <style>
      .cls-1 {
        clip-path: url(#clippath-1);
      }

      .cls-2 {
        fill: #f8b983;
      }

      .cls-3 {
        clip-path: url(#clippath);
      }

      .cls-4 {
        fill: none;
      }

      .cls-5 {
        fill: #eba468;
      }
    </style>
    <clipPath id="clippath">
      <path class="cls-4" d="m309.91,129.24c-9.79-7.23-19.17-11.78-28.44-13.78-3.6-.78-7.17-1.19-10.75-1.2h-.21c-6.4-.02-12.81,1.18-19.34,3.62-6.52,2.44-13.13,6.13-19.95,11.11-9.42,6.88-17.93,15.04-25.78,24.77-8.67,10.75-16.54,23.42-23.92,38.47-18.61,37.98-27.77,78.11-27.24,119.29.65,49.82,29.25,92.01,72.86,107.49,6.6,2.35,13.92,4.18,21.7,5.44,4.71.76,9.43.91,14.01,1.05,1.99.06,3.85.13,5.72.23h.25s.24,0,.24,0h.58s.44,0,.44,0h.27s.27,0,.27,0c1.89-.09,3.79-.15,5.81-.19,4.56-.11,9.28-.23,14-.96,7.79-1.21,15.12-3,21.74-5.3,26.11-9.07,46.91-27.73,59.64-51.89.55-1.02,1.07-2.05,1.56-3.09.07-.14.13-.28.21-.42,1.9-3.91,3.6-7.97,5.06-12.15.15-.4.28-.81.41-1.22.86-2.53,1.66-5.11,2.35-7.72,2.6-9.7,4.09-19.94,4.29-30.54.81-41.17-8.11-81.36-26.49-119.46-13.86-28.74-29.52-48.92-49.29-63.55Z"/>
    </clipPath>
    <clipPath id="clippath-1">
      <path class="cls-4" d="m309.91,129.24c-9.79-7.23-19.17-11.78-28.44-13.78-3.6-.78-7.17-1.19-10.75-1.2h-.21c-6.4-.02-12.81,1.18-19.34,3.62-6.52,2.44-13.13,6.13-19.95,11.11-9.42,6.88-17.93,15.04-25.78,24.77-8.67,10.75-16.54,23.42-23.92,38.47-18.61,37.98-27.77,78.11-27.24,119.29.65,49.82,29.25,92.01,72.86,107.49,6.6,2.35,13.92,4.18,21.7,5.44,4.71.76,9.43.91,14.01,1.05,1.99.06,3.85.13,5.72.23h.25s.24,0,.24,0h.58s.44,0,.44,0h.27s.27,0,.27,0c1.89-.09,3.79-.15,5.81-.19,4.56-.11,9.28-.23,14-.96,7.79-1.21,15.12-3,21.74-5.3,26.11-9.07,46.91-27.73,59.64-51.89.55-1.02,1.07-2.05,1.56-3.09.07-.14.13-.28.21-.42,1.9-3.91,3.6-7.97,5.06-12.15.15-.4.28-.81.41-1.22.86-2.53,1.66-5.11,2.35-7.72,2.6-9.7,4.09-19.94,4.29-30.54.81-41.17-8.11-81.36-26.49-119.46-13.86-28.74-29.52-48.92-49.29-63.55Z"/>
    </clipPath>
  </defs>
  <g>
    <path class="cls-2" d="m309.91,129.24c-9.79-7.23-19.17-11.78-28.44-13.78-3.6-.78-7.17-1.19-10.75-1.2h-.21c-6.4-.02-12.81,1.18-19.34,3.62-6.52,2.44-13.13,6.13-19.95,11.11-9.42,6.88-17.93,15.04-25.78,24.77-8.67,10.75-16.54,23.42-23.92,38.47-18.61,37.98-27.77,78.11-27.24,119.29.65,49.82,29.25,92.01,72.86,107.49,6.6,2.35,13.92,4.18,21.7,5.44,4.71.76,9.43.91,14.01,1.05,1.99.06,3.85.13,5.72.23h.25s.24,0,.24,0h.58s.44,0,.44,0h.27s.27,0,.27,0c1.89-.09,3.79-.15,5.81-.19,4.56-.11,9.28-.23,14-.96,7.79-1.21,15.12-3,21.74-5.3,26.11-9.07,46.91-27.73,59.64-51.89.55-1.02,1.07-2.05,1.56-3.09.07-.14.13-.28.21-.42,1.9-3.91,3.6-7.97,5.06-12.15.15-.4.28-.81.41-1.22.86-2.53,1.66-5.11,2.35-7.72,2.6-9.7,4.09-19.94,4.29-30.54.81-41.17-8.11-81.36-26.49-119.46-13.86-28.74-29.52-48.92-49.29-63.55Z"/>
    <g class="cls-3">
      <path class="cls-5" d="m262.8,93.5c-14.03,17.1-79.18,100.02-60.3,200.73,4.61,24.61,14,74.68,58.77,105.33,35.09,24.02,73.2,23.3,88.54,22.13-11.68,10.07-68.36,56.92-138.15,45.8-90.96-14.49-158.21-120.11-139.67-218.29,16.19-85.75,95.26-152.32,190.81-155.7Z"/>
    </g>
  </g>
  <g>
    <path class="cls-2" d="m309.91,129.24c-9.79-7.23-19.17-11.78-28.44-13.78-3.6-.78-7.17-1.19-10.75-1.2h-.21c-6.4-.02-12.81,1.18-19.34,3.62-6.52,2.44-13.13,6.13-19.95,11.11-9.42,6.88-17.93,15.04-25.78,24.77-8.67,10.75-16.54,23.42-23.92,38.47-18.61,37.98-27.77,78.11-27.24,119.29.65,49.82,29.25,92.01,72.86,107.49,6.6,2.35,13.92,4.18,21.7,5.44,4.71.76,9.43.91,14.01,1.05,1.99.06,3.85.13,5.72.23h.25s.24,0,.24,0h.58s.44,0,.44,0h.27s.27,0,.27,0c1.89-.09,3.79-.15,5.81-.19,4.56-.11,9.28-.23,14-.96,7.79-1.21,15.12-3,21.74-5.3,26.11-9.07,46.91-27.73,59.64-51.89.55-1.02,1.07-2.05,1.56-3.09.07-.14.13-.28.21-.42,1.9-3.91,3.6-7.97,5.06-12.15.15-.4.28-.81.41-1.22.86-2.53,1.66-5.11,2.35-7.72,2.6-9.7,4.09-19.94,4.29-30.54.81-41.17-8.11-81.36-26.49-119.46-13.86-28.74-29.52-48.92-49.29-63.55Z"/>
    <g class="cls-1">
      <path class="cls-5" d="m262.8,93.5c-14.03,17.1-79.18,100.02-60.3,200.73,4.61,24.61,14,74.68,58.77,105.33,35.09,24.02,73.2,23.3,88.54,22.13-11.68,10.07-68.36,56.92-138.15,45.8-90.96-14.49-158.21-120.11-139.67-218.29,16.19-85.75,95.26-152.32,190.81-155.7Z"/>
    </g>
  </g>
</svg>