<?xml version="1.0" encoding="UTF-8"?>
<svg xmlns="http://www.w3.org/2000/svg" xmlns:xlink="http://www.w3.org/1999/xlink" viewBox="0 0 540 540">
  <defs>
    <style>
      .cls-1 {
        fill: #fff;
      }

      .cls-2 {
        fill: #fcd78a;
        opacity: .25;
      }

      .cls-2, .cls-3, .cls-4, .cls-5, .cls-6, .cls-7 {
        fill-rule: evenodd;
      }

      .cls-2, .cls-7 {
        mix-blend-mode: multiply;
      }

      .cls-8 {
        isolation: isolate;
      }

      .cls-3 {
        fill: #5cabdb;
      }

      .cls-4 {
        fill: #2485c2;
      }

      .cls-5 {
        fill: #409bd4;
      }

      .cls-9 {
        clip-path: url(#clippath);
      }

      .cls-10 {
        clip-rule: evenodd;
        fill: none;
      }

      .cls-6 {
        fill: #f4e9cf;
      }

      .cls-7 {
        fill: #d2a584;
        opacity: .2;
      }

      .cls-11 {
        fill: #2792d4;
      }
    </style>
    <clipPath id="clippath">
      <path class="cls-10" d="m89.43,252.06c-3.34-20.24,13.53-43.89,27.88-55.77,12.76-10.56,19.57-8.54,56.67-21.59,45.53-16.01,39.61-20.33,66.56-26.98,32.89-8.12,56.92-5.53,62.07-18.89,1.89-4.9.5-10.03-.9-13.49,5.19-.11,20.7.24,34.54,11.25,6.76,5.38,10.81,11.45,13.13,15.73,17.71,21.32,35.46,31.99,49.47,37.78,17.22,7.11,25.67,5.56,36,14.23,16.67,13.99,22.72,41.7,18.15,59.8-14.94,59.24-155.69,63.24-171.97,63.56-76.6,1.52-184.13-20.35-191.6-65.63Z"/>
    </clipPath>
  </defs>
  <g class="cls-8">
    <g id="_Layer_" data-name="&amp;lt;Layer&amp;gt;">
      <g>
        <g>
          <path class="cls-11" d="m478.72,233.01l-35.66-4.57-173.07,7.42-173.07-7.42-35.66,4.57s-.43,33.73,8.05,59.8c8.48,26.07,50.07,131.87,199.95,131.87.24,0,.48,0,.72,0,.24,0,.48,0,.72,0,149.88,0,191.48-105.79,199.95-131.87,8.48-26.07,8.05-59.8,8.05-59.8Z"/>
          <path class="cls-4" d="m195.94,309.19c-48.46-2.8-94.65-20.81-131.52-51.28,13.71,94.09,98.26,163.39,196.73,161.24-41.89-21.46-67.26-64.24-65.21-109.96"/>
          <path class="cls-5" d="m343.18,309.19c48.46-2.8,94.65-20.81,131.52-51.28-13.71,94.09-98.26,163.39-196.73,161.24,41.89-21.46,67.26-64.24,65.21-109.96"/>
          <path class="cls-3" d="m270,149.88c-115.28,0-208.73,39.48-208.73,88.19,0,48.7,93.45,88.19,208.73,88.19,115.28,0,208.73-39.48,208.73-88.19,0-48.7-93.45-88.19-208.73-88.19"/>
          <path class="cls-4" d="m270,159.23c-109.29,0-197.89,35.46-197.89,79.19,0,23.73,25.56,43.44,66.87,57.96,4.78-5.02,12.29-6.61,20.08-6.61h3c6.58-5.39,15.92-7.54,24.87-5.01.58.11,1.16.23,1.73.37,1.6.2,3.2.54,4.79,1.03,1.53.47,2.95.93,4.45,1.48,1.88.35,3.55.72,5.34,1.37l2.88.27c1.14.11,2.26.28,3.38.52l11.12,2.42c2.29.5,4.64,1.33,6.88,2.02,2.89.59,5.85,1.08,8.6,2.1l3.33,1.24,7.69.84c.95.1,1.89.25,2.81.45l5.61,1.2h2.92c3.47,0,6.94.64,10.19,1.92,7.3,1.67,13.39,6.2,16.81,12.23-.4-12.02,8.81-22.53,21.61-24.57,1.8-.38,3.61-.57,5.4-.59,1.39-.37,2.79-.76,4.21-1l2.63-.46c1.6-.46,3.12-.91,4.77-1.2l3.05-.53,3.9-.99.85-.26c1.77-.55,3.56-.91,5.34-1.09,1.19-.34,2.39-.61,3.59-.79,1-.28,2.01-.5,3.03-.66,2.43-.61,4.87-.87,7.28-.83h.25c14.23,0,25.79,10.57,26.06,23.7,54.44-14.11,90.46-38.63,90.46-66.52,0-43.74-88.6-79.19-197.89-79.19"/>
          <path class="cls-6" d="m273.44,190.5c-99.17,0-179.56,28.49-179.56,63.62,0,35.14,80.39,63.63,179.56,63.63,99.17,0,179.56-28.49,179.56-63.63,0-35.14-80.39-63.62-179.56-63.62"/>
          <path class="cls-1" d="m476.06,269.01c-15.98,42-102.14,74.09-206.06,74.09s-190.08-32.09-206.06-74.09c1.19,7.9,2.91,16.18,5.38,23.8.57,1.75,1.29,3.87,2.18,6.28,27.23,35.32,105.8,60.86,198.49,60.86s171.26-25.53,198.49-60.85c.89-2.41,1.61-4.53,2.18-6.28,2.48-7.62,4.19-15.9,5.38-23.8Z"/>
        </g>
        <path class="cls-6" d="m89.43,252.06c-3.34-20.24,13.53-43.89,27.88-55.77,12.76-10.56,19.57-8.54,56.67-21.59,45.53-16.01,39.61-20.33,66.56-26.98,32.89-8.12,56.92-5.53,62.07-18.89,1.89-4.9.5-10.03-.9-13.49,5.19-.11,20.7.24,34.54,11.25,6.76,5.38,10.81,11.45,13.13,15.73,17.71,21.32,35.46,31.99,49.47,37.78,17.22,7.11,25.67,5.56,36,14.23,16.67,13.99,22.72,41.7,18.15,59.8-14.94,59.24-155.69,63.24-171.97,63.56-76.6,1.52-184.13-20.35-191.6-65.63Z"/>
        <g class="cls-9">
          <g>
            <path class="cls-2" d="m146.1,239.47c20.2,13.94,61.29,37.84,115.14,37.78,84.03-.09,167.7-58.49,162.02-89.43-2.45-13.32-21.84-23.64-37.92-23.26-29.22.69-42.06,36.61-66.53,58.72-24.56,22.18-71.89,40.46-172.7,16.19Z"/>
            <path class="cls-7" d="m204.56,127.93c-88.48,56.68-94.04,90.08-90.85,106.14,13.36,67.26,228.67,75.09,290.54,76.46-77.87,78.71-183.53,106.46-265.38,70.2C79.14,354.27,1.36,280.1,25.56,207.98c18.78-55.97,94.05-95.96,179-80.05Z"/>
          </g>
          <path class="cls-2" d="m281.92,128.83c4.47,5.55,11.04,18.47,25.19,22.44,9.16,2.57,17.81.34,23.38-1.75,1.71,11.99,2.41,31.33-9.26,43.27-16.43,16.8-47.64,8.98-85.04-.91-36.77-9.72-96.47-25.51-95.49-44.16,1.33-25.38,114.81-51.64,141.22-18.89Z"/>
        </g>
      </g>
    </g>
  </g>
</svg>