<?xml version="1.0" encoding="UTF-8"?>
<svg id="_Layer_" data-name="&amp;lt;Layer&amp;gt;" xmlns="http://www.w3.org/2000/svg" viewBox="0 0 540 540">
  <defs>
    <style>
      .cls-1 {
        fill: #f4e2d7;
      }

      .cls-2 {
        fill: #fff0e6;
      }

      .cls-3 {
        fill: #fce9de;
      }
    </style>
  </defs>
  <g>
    <g>
      <path class="cls-2" d="m290.17,396.81c1.71,1.44,6.19,4.83,12.9,5.59,8.23.94,14.3-2.69,16.03-3.82,5.32-1.21,13.27-2.3,22.5-.6,5.83,1.07,5.39,2.01,10.32,2.89,11.81,2.1,17.03-3.42,33.07-4.07,4.25-.17,7.97-.16,10.91-.09,1.78.04,3.35-1.14,3.83-2.85,1.45-5.27,2.73-11.84,3.07-19.44.31-6.88-.24-12.92-1.02-17.81.6-2.96,1.16-7.77,0-13.48-.79-3.87-2.13-6.96-3.31-9.16.83-1.41,1.95-3.58,2.8-6.36,1.87-6.11.43-8.59,1.02-15.27.86-9.83,4.88-12.21,2.8-17.3-1.39-3.4-4.09-5.58-6.23-6.92-8.61-1.77-15.67-2.28-20.5-2.42-5.47-.16-9.02.13-24.41,1.19-8.12.56-14.54.99-18.06,1.23-1.54-.41-4.13-1-7.38-1.23-8.33-.58-10.98,1.92-19.12,1.23-4.26-.36-4.53-1.13-8.87-1.23-4.37-.09-7.97.61-10.35,1.23v108.69Z"/>
      <path class="cls-1" d="m262.66,378.45c.54,1.56,1.72,2.81,3.24,3.49,3.93,1.75,6.62,3.8,8.42,5.46,3.19,2.93,4.43,5.4,8.14,7.38,2.91,1.55,5.76,1.95,7.71,2.04,1.57-3.43,3.26-8.52,2.72-14.51-.41-4.56-1.84-6.51-2.54-10.43-1.51-8.43,2.24-15.27,3.82-19.08,3-7.24,4.7-19.19-1.78-39.69.3-2.97.45-6.4.25-10.18-.3-5.84-1.34-10.84-2.46-14.8-4.26-4.02-8.08-5.47-10.77-6.06-3-.65-5.04-.33-9.67-1.27-3.24-.66-5.8-1.54-7.42-2.17-.16,4.2-.31,8.4-.47,12.6-1.07,2.82-2.32,7.04-2.54,12.21-.2,4.63.59,6.16,2.29,15.52,2.25,12.38,3.34,18.68,2.04,23.92-.4,1.62-1.08,3.67-1.27,6.87-.27,4.44.56,8.1,1.27,10.43-.95,2.03-2.53,6.13-2.29,11.45.12,2.7.69,5.01,1.32,6.83Z"/>
      <path class="cls-3" d="m398.86,288.13h-108.69c-4.39-2.63-8.15-3.61-10.77-4.02-4.4-.69-7.28-.03-11.45-1.78-2.62-1.1-4.49-2.61-5.64-3.69,3.03-.88,7.71-2.01,13.52-2.41,4.54-.31,5.78.09,15.01.51,5.44.25,12.68.56,20.86.25,5.75-.22,10.44-.68,13.51-1.04,1.59-.94,4.79-2.54,9.13-2.77,5.33-.29,9.31,1.63,10.94,2.54,2.68-.84,8.03-2.11,14.5-.76,4.06.84,7.17,2.42,9.2,3.68l29.85,9.5Z"/>
    </g>
    <path class="cls-3" d="m388.3,358.41c-2.66-2.97-8.23-3.2-11.31-.94-3.49,2.55-1.08,6.31-4.32,12.29-3.84,7.07-10.11,7.14-10.17,11.31-.05,3.97,5.57,8.53,9.51,7.67,3.45-.75,2.67-5.01,8.08-12.26,5.15-6.91,10-8.59,9.91-13.52,0-.43-.09-2.74-1.71-4.55Z"/>
    <path class="cls-3" d="m361.16,361.87c-.29-1.37-10.28-3.13-13.4,2.04-1.26,2.09-1.75,5.89.51,7.63,2,1.54,5.35.84,6.78-.85,1.11-1.31.35-2.36,1.36-4.41,1.59-3.22,4.92-3.59,4.75-4.41Z"/>
    <path class="cls-3" d="m313.33,297.59c-6.8-1.89-7.22-2.22-8.31-1.87-3.1,1-5.63,5.54-4.75,8.99,1.1,4.28,6.84,4.45,7.29,8.31.37,3.18-3.32,4.75-2.54,6.95.88,2.5,6.85,3.96,10.35,1.7,2.07-1.34,2.62-5.02,3.73-12.38,1.05-6.98.55-8.73-.51-9.84-.62-.65-1.07-.7-5.26-1.87Z"/>
    <path class="cls-3" d="m334.87,333.21c.89-.62,3.61,4.24,7.97,4.07,3.31-.13,3.62-2.99,7.12-3.9,6.02-1.56,10.12,5.59,14.59,3.73,3.59-1.49,3.06-6.99,5.77-7.29,2.51-.29,6.09,4.09,5.26,6.95-.65,2.25-3.74,2.58-13.91,4.75-15.31,3.26-17.82,4.54-21.2,2.54-5.09-3.01-6.57-10.17-5.6-10.86Z"/>
    <path class="cls-3" d="m368.11,319.98c-1.05-2.79,0-6.58,2.71-8.31,3.66-2.33,9-.08,10.86,3.73,1.13,2.33,1.17,5.7-.68,7.63-3.14,3.28-11.08,1.75-12.89-3.05Z"/>
    <path class="cls-3" d="m317.82,357.38c-3.93-2.26-12.05.85-14.12,6.49-1.93,5.25,2.26,10.32,5.72,14.5,2.76,3.33,7.37,8.91,14.12,8.78,5.06-.1,10.68-3.38,10.69-6.49,0-3.36-6.58-3.16-11.07-9.54-4.41-6.28-1.64-11.61-5.34-13.74Z"/>
  </g>
  <g>
    <g>
      <path class="cls-2" d="m288.28,261.12c1.71,1.44,6.19,4.83,12.9,5.59,8.23.94,14.3-2.69,16.03-3.82,5.32-1.21,13.27-2.3,22.5-.6,5.83,1.07,5.39,2.01,10.32,2.89,11.81,2.1,17.03-3.42,33.07-4.07,4.25-.17,7.97-.16,10.91-.09,1.78.04,3.35-1.14,3.83-2.85,1.45-5.27,2.73-11.84,3.07-19.44.31-6.88-.24-12.92-1.02-17.81.6-2.96,1.16-7.77,0-13.48-.79-3.87-2.13-6.96-3.31-9.16.83-1.41,1.95-3.58,2.8-6.36,1.87-6.11.43-8.59,1.02-15.27.86-9.83,4.88-12.21,2.8-17.3-1.39-3.4-4.09-5.58-6.23-6.92-8.61-1.77-15.67-2.28-20.5-2.42-5.47-.16-9.02.13-24.41,1.19-8.12.56-14.54.99-18.06,1.23-1.54-.41-4.13-1-7.38-1.23-8.33-.58-10.98,1.92-19.12,1.23-4.26-.36-4.53-1.13-8.87-1.23-4.37-.09-7.97.61-10.35,1.23v108.69Z"/>
      <path class="cls-1" d="m260.77,242.76c.54,1.56,1.72,2.81,3.24,3.49,3.93,1.75,6.62,3.8,8.42,5.46,3.19,2.93,4.43,5.4,8.14,7.38,2.91,1.55,5.76,1.95,7.71,2.04,1.57-3.43,3.26-8.52,2.72-14.51-.41-4.56-1.84-6.51-2.54-10.43-1.51-8.43,2.24-15.27,3.82-19.08,3-7.24,4.7-19.19-1.78-39.69.3-2.97.45-6.4.25-10.18-.3-5.84-1.34-10.84-2.46-14.8-4.26-4.02-8.08-5.47-10.77-6.06-3-.65-5.04-.33-9.67-1.27-3.24-.66-5.8-1.54-7.42-2.17-.16,4.2-.31,8.4-.47,12.6-1.07,2.82-2.32,7.04-2.54,12.21-.2,4.63.59,6.16,2.29,15.52,2.25,12.38,3.34,18.68,2.04,23.92-.4,1.62-1.08,3.67-1.27,6.87-.27,4.44.56,8.1,1.27,10.43-.95,2.03-2.53,6.13-2.29,11.45.12,2.7.69,5.01,1.32,6.83Z"/>
      <path class="cls-3" d="m396.97,152.43h-108.69c-4.39-2.63-8.15-3.61-10.77-4.02-4.4-.69-7.28-.03-11.45-1.78-2.62-1.1-4.49-2.61-5.64-3.69,3.03-.88,7.71-2.01,13.52-2.41,4.54-.31,5.78.09,15.01.51,5.44.25,12.68.56,20.86.25,5.75-.22,10.44-.68,13.51-1.04,1.59-.94,4.79-2.54,9.13-2.77,5.33-.29,9.31,1.63,10.94,2.54,2.68-.84,8.03-2.11,14.5-.76,4.06.84,7.17,2.42,9.2,3.68l29.85,9.5Z"/>
    </g>
    <path class="cls-3" d="m386.41,222.71c-2.66-2.97-8.23-3.2-11.31-.94-3.49,2.55-1.08,6.31-4.32,12.29-3.84,7.07-10.11,7.14-10.17,11.31-.05,3.97,5.57,8.53,9.51,7.67,3.45-.75,2.67-5.01,8.08-12.26,5.15-6.91,10-8.59,9.91-13.52,0-.43-.09-2.74-1.71-4.55Z"/>
    <path class="cls-3" d="m359.27,226.18c-.29-1.37-10.28-3.13-13.4,2.04-1.26,2.09-1.75,5.89.51,7.63,2,1.54,5.35.84,6.78-.85,1.11-1.31.35-2.36,1.36-4.41,1.59-3.22,4.92-3.59,4.75-4.41Z"/>
    <path class="cls-3" d="m311.44,161.89c-6.8-1.89-7.22-2.22-8.31-1.87-3.1,1-5.63,5.54-4.75,8.99,1.1,4.28,6.84,4.45,7.29,8.31.37,3.18-3.32,4.75-2.54,6.95.88,2.5,6.85,3.96,10.35,1.7,2.07-1.34,2.62-5.02,3.73-12.38,1.05-6.98.55-8.73-.51-9.84-.62-.65-1.07-.7-5.26-1.87Z"/>
    <path class="cls-3" d="m332.98,197.51c.89-.62,3.61,4.24,7.97,4.07,3.31-.13,3.62-2.99,7.12-3.9,6.02-1.56,10.12,5.59,14.59,3.73,3.59-1.49,3.06-6.99,5.77-7.29,2.51-.29,6.09,4.09,5.26,6.95-.65,2.25-3.74,2.58-13.91,4.75-15.31,3.26-17.82,4.54-21.2,2.54-5.09-3.01-6.57-10.17-5.6-10.86Z"/>
    <path class="cls-3" d="m366.22,184.28c-1.05-2.79,0-6.58,2.71-8.31,3.66-2.33,9-.08,10.86,3.73,1.13,2.33,1.17,5.7-.68,7.63-3.14,3.28-11.08,1.75-12.89-3.05Z"/>
    <path class="cls-3" d="m315.93,221.68c-3.93-2.26-12.05.85-14.12,6.49-1.93,5.25,2.26,10.32,5.72,14.5,2.76,3.33,7.37,8.91,14.12,8.78,5.06-.1,10.68-3.38,10.69-6.49,0-3.36-6.58-3.16-11.07-9.54-4.41-6.28-1.64-11.61-5.34-13.74Z"/>
  </g>
  <g>
    <g>
      <path class="cls-2" d="m165.22,325.83c1.71,1.44,6.19,4.83,12.9,5.59,8.23.94,14.3-2.69,16.03-3.82,5.32-1.21,13.27-2.3,22.5-.6,5.83,1.07,5.39,2.01,10.32,2.89,11.81,2.1,17.03-3.42,33.07-4.07,4.25-.17,7.97-.16,10.91-.09,1.78.04,3.35-1.14,3.83-2.85,1.45-5.27,2.73-11.84,3.07-19.44.31-6.88-.24-12.92-1.02-17.81.6-2.96,1.16-7.77,0-13.48-.79-3.87-2.13-6.96-3.31-9.16.83-1.41,1.95-3.58,2.8-6.36,1.87-6.11.43-8.59,1.02-15.27.86-9.83,4.88-12.21,2.8-17.3-1.39-3.4-4.09-5.58-6.23-6.92-8.61-1.77-15.67-2.28-20.5-2.42-5.47-.16-9.02.13-24.41,1.19-8.12.56-14.54.99-18.06,1.23-1.54-.41-4.13-1-7.38-1.23-8.33-.58-10.98,1.92-19.12,1.23-4.26-.36-4.53-1.13-8.87-1.23-4.37-.09-7.97.61-10.35,1.23v108.69Z"/>
      <path class="cls-1" d="m137.7,307.47c.54,1.56,1.72,2.81,3.24,3.49,3.93,1.75,6.62,3.8,8.42,5.46,3.19,2.93,4.43,5.4,8.14,7.38,2.91,1.55,5.76,1.95,7.71,2.04,1.57-3.43,3.26-8.52,2.72-14.51-.41-4.56-1.84-6.51-2.54-10.43-1.51-8.43,2.24-15.27,3.82-19.08,3-7.24,4.7-19.19-1.78-39.69.3-2.97.45-6.4.25-10.18-.3-5.84-1.34-10.84-2.46-14.8-4.26-4.02-8.08-5.47-10.77-6.06-3-.65-5.04-.33-9.67-1.27-3.24-.66-5.8-1.54-7.42-2.17-.16,4.2-.31,8.4-.47,12.6-1.07,2.82-2.32,7.04-2.54,12.21-.2,4.63.59,6.16,2.29,15.52,2.25,12.38,3.34,18.68,2.04,23.92-.4,1.62-1.08,3.67-1.27,6.87-.27,4.44.56,8.1,1.27,10.43-.95,2.03-2.53,6.13-2.29,11.45.12,2.7.69,5.01,1.32,6.83Z"/>
      <path class="cls-3" d="m273.9,217.15h-108.69c-4.39-2.63-8.15-3.61-10.77-4.02-4.4-.69-7.28-.03-11.45-1.78-2.62-1.1-4.49-2.61-5.64-3.69,3.03-.88,7.71-2.01,13.52-2.41,4.54-.31,5.78.09,15.01.51,5.44.25,12.68.56,20.86.25,5.75-.22,10.44-.68,13.51-1.04,1.59-.94,4.79-2.54,9.13-2.77,5.33-.29,9.31,1.63,10.94,2.54,2.68-.84,8.03-2.11,14.5-.76,4.06.84,7.17,2.42,9.2,3.68l29.85,9.5Z"/>
    </g>
    <path class="cls-3" d="m263.35,287.43c-2.66-2.97-8.23-3.2-11.31-.94-3.49,2.55-1.08,6.31-4.32,12.29-3.84,7.07-10.11,7.14-10.17,11.31-.05,3.97,5.57,8.53,9.51,7.67,3.45-.75,2.67-5.01,8.08-12.26,5.15-6.91,10-8.59,9.91-13.52,0-.43-.09-2.74-1.71-4.55Z"/>
    <path class="cls-3" d="m236.2,290.89c-.29-1.37-10.28-3.13-13.4,2.04-1.26,2.09-1.75,5.89.51,7.63,2,1.54,5.35.84,6.78-.85,1.11-1.31.35-2.36,1.36-4.41,1.59-3.22,4.92-3.59,4.75-4.41Z"/>
    <path class="cls-3" d="m188.37,226.61c-6.8-1.89-7.22-2.22-8.31-1.87-3.1,1-5.63,5.54-4.75,8.99,1.1,4.28,6.84,4.45,7.29,8.31.37,3.18-3.32,4.75-2.54,6.95.88,2.5,6.85,3.96,10.35,1.7,2.07-1.34,2.62-5.02,3.73-12.38,1.05-6.98.55-8.73-.51-9.84-.62-.65-1.07-.7-5.26-1.87Z"/>
    <path class="cls-3" d="m209.91,262.23c.89-.62,3.61,4.24,7.97,4.07,3.31-.13,3.62-2.99,7.12-3.9,6.02-1.56,10.12,5.59,14.59,3.73,3.59-1.49,3.06-6.99,5.77-7.29,2.51-.29,6.09,4.09,5.26,6.95-.65,2.25-3.74,2.58-13.91,4.75-15.31,3.26-17.82,4.54-21.2,2.54-5.09-3.01-6.57-10.17-5.6-10.86Z"/>
    <path class="cls-3" d="m243.16,249c-1.05-2.79,0-6.58,2.71-8.31,3.66-2.33,9-.08,10.86,3.73,1.13,2.33,1.17,5.7-.68,7.63-3.14,3.28-11.08,1.75-12.89-3.05Z"/>
    <path class="cls-3" d="m192.87,286.39c-3.93-2.26-12.05.85-14.12,6.49-1.93,5.25,2.26,10.32,5.72,14.5,2.76,3.33,7.37,8.91,14.12,8.78,5.06-.1,10.68-3.38,10.69-6.49,0-3.36-6.58-3.16-11.07-9.54-4.41-6.28-1.64-11.61-5.34-13.74Z"/>
  </g>
</svg>