<svg xmlns="http://www.w3.org/2000/svg" viewBox="0 0 133.47412 118.80124"><defs><style>.cls-1{fill:#7ac9d6;}</style></defs><g id="Layer_2" data-name="Layer 2"><g id="sound"><path class="cls-1" d="M78.09684,0a10.27833,10.27833,0,0,0-1.39373.09612,9.78443,9.78443,0,0,0-5.20417,2.36179v.00686L39.07931,31.27994H15.81847A15.89919,15.89919,0,0,0,0,47.09841V71.70492A15.89919,15.89919,0,0,0,15.81847,87.52339H39.07931l32.41963,28.81516a9.84078,9.84078,0,0,0,16.38146-7.35312V9.8179A9.99174,9.99174,0,0,0,82.07205.83762,9.77671,9.77671,0,0,0,78.09684,0Zm40.56229,17.15041a5.27335,5.27335,0,0,0-4.66178,7.77879c12.16007,23.28738,12.16007,45.65753,0,68.94491a5.27335,5.27335,0,1,0,9.27176,5.02667q.04088-.07536.07926-.15205c13.501-25.85533,13.501-52.83882,0-78.69415A5.27336,5.27336,0,0,0,118.65913,17.15042Zm-16.11369,17.631a5.27334,5.27334,0,0,0-4.5382,7.53163c5.331,11.66506,5.32359,22.57171-.02746,34.239a5.27335,5.27335,0,1,0,9.56035,4.45337l.0241-.05248a50.26414,50.26414,0,0,0,.03433-43.02707A5.27336,5.27336,0,0,0,102.54544,34.78142Z"/></g></g></svg>