<svg xmlns="http://www.w3.org/2000/svg" viewBox="0 0 144.20087 118.80124"><defs><style>.cls-1{fill:#7ac9d6;}</style></defs><g id="Layer_2" data-name="Layer 2"><g id="mute"><path class="cls-1" d="M78.09684,0a10.27833,10.27833,0,0,0-1.39373.09612,9.78443,9.78443,0,0,0-5.20417,2.36179v.00686L39.07932,31.27994H15.81847A15.89919,15.89919,0,0,0,0,47.09841V71.70492A15.89919,15.89919,0,0,0,15.81847,87.52339H39.07932l32.41962,28.81516a9.84078,9.84078,0,0,0,16.38146-7.35312V9.8179A9.99174,9.99174,0,0,0,82.07205.83762,9.77671,9.77671,0,0,0,78.09684,0ZM138.803,38.23485a5.27337,5.27337,0,0,0-3.68,1.62029L123.03255,51.94556,110.94213,39.85514a5.27282,5.27282,0,1,0-7.4561,7.45611l12.09042,12.09042L103.486,71.49209a5.27335,5.27335,0,1,0,7.30446,7.60775q.07735-.07428.15164-.15165l12.09042-12.09042L135.123,78.94819a5.27335,5.27335,0,1,0,7.60775-7.30446q-.07428-.07735-.15164-.15164L130.48866,59.40167l12.09042-12.09042a5.27335,5.27335,0,0,0-3.77611-9.0764Z"/></g></g></svg>