<?xml version="1.0" encoding="UTF-8"?>
<svg xmlns="http://www.w3.org/2000/svg" viewBox="0 0 1920 1143">
  <defs>
    <style>
      .cls-1 {
        fill: #b78383;
      }

      .cls-2 {
        fill: #966969;
      }

      .cls-3 {
        fill: #fcf2eb;
      }

      .cls-4 {
        fill: #af7e7e;
      }

      .cls-5 {
        fill: #a37575;
      }

      .cls-6 {
        fill: #eecbb8;
      }

      .cls-7 {
        fill: #fcece1;
      }

      .cls-8 {
        fill: #a37171;
      }

      .cls-9 {
        fill: #916565;
      }

      .cls-10 {
        fill: #edcdba;
      }

      .cls-11 {
        fill: #f8ddca;
      }

      .cls-12 {
        fill: #9c7070;
      }

      .cls-13 {
        fill: #f1d6c4;
      }

      .cls-14 {
        fill: #c99393;
      }

      .cls-15 {
        fill: #e0d4cb;
      }
    </style>
  </defs>
  <g id="Layer_3" data-name="Layer 3">
    <rect class="cls-3" width="1920" height="1143"/>
    <path class="cls-15" d="m721.93,1143h1198.07v-372.32h-919.77s-163.41,218.91-278.3,372.32Z"/>
  </g>
  <g id="BK_GROUND">
    <g>
      <rect class="cls-11" y="389.3" width="1920" height="392.45"/>
      <ellipse class="cls-6" cx="165.49" cy="490.84" rx="20.09" ry="20.5"/>
      <path class="cls-6" d="m483.57,718.4h-247.86v-273.54h247.86v273.54Zm-238.23-9.63h228.6v-254.28h-228.6v254.28Z"/>
      <ellipse class="cls-6" cx="285.57" cy="490.84" rx="20.09" ry="20.5"/>
      <rect class="cls-13" y="746.81" width="1920" height="34.93"/>
      <rect class="cls-10" y="368.87" width="1920" height="42.73"/>
      <polygon class="cls-6" points="205.72 454.49 205.72 708.77 0 708.77 0 718.4 215.35 718.4 215.35 444.87 0 444.87 0 454.49 205.72 454.49"/>
      <rect class="cls-7" x="2.46" y="121.84" width="1917.54" height="264.2"/>
      <polygon class="cls-3" points="117.52 265.87 117.52 384.49 126.87 384.49 126.87 265.87 257.52 265.87 257.52 384.49 266.87 384.49 266.87 265.87 397.52 265.87 397.52 384.49 406.87 384.49 406.87 265.87 537.52 265.87 537.52 384.49 546.87 384.49 546.87 265.87 677.52 265.87 677.52 384.49 686.87 384.49 686.87 265.87 817.52 265.87 817.52 384.49 826.87 384.49 826.87 265.87 957.52 265.87 957.52 384.49 966.87 384.49 966.87 265.87 1097.3 265.87 1097.3 384.49 1106.65 384.49 1106.65 265.87 1237.3 265.87 1237.3 384.49 1246.65 384.49 1246.65 265.87 1377.3 265.87 1377.3 384.49 1386.65 384.49 1386.65 265.87 1517.3 265.87 1517.3 384.49 1526.65 384.49 1526.65 265.87 1657.3 265.87 1657.3 384.49 1666.65 384.49 1666.65 265.87 1797.3 265.87 1797.3 384.49 1806.65 384.49 1806.65 265.87 1920 265.87 1920 257.87 1806.65 257.87 1806.65 92.56 1797.3 92.56 1797.3 257.87 1666.65 257.87 1666.65 92.56 1657.3 92.56 1657.3 257.87 1526.65 257.87 1526.65 92.56 1517.3 92.56 1517.3 257.87 1386.65 257.87 1386.65 92.56 1377.3 92.56 1377.3 257.87 1246.65 257.87 1246.65 92.56 1237.3 92.56 1237.3 257.87 1106.65 257.87 1106.65 92.56 1097.3 92.56 1097.3 257.87 966.87 257.87 966.87 92.56 957.52 92.56 957.52 257.87 826.87 257.87 826.87 92.56 817.52 92.56 817.52 257.87 686.87 257.87 686.87 92.56 677.52 92.56 677.52 257.87 546.87 257.87 546.87 92.56 537.52 92.56 537.52 257.87 406.87 257.87 406.87 92.56 397.52 92.56 397.52 257.87 266.87 257.87 266.87 92.56 257.52 92.56 257.52 257.87 126.87 257.87 126.87 92.56 117.52 92.56 117.52 257.87 0 257.87 0 265.87 117.52 265.87"/>
    </g>
  </g>
  <g id="table">
    <rect class="cls-12" x="946.81" y="980.61" width="46.45" height="162.39"/>
    <polygon class="cls-9" points="944.24 978.05 944.24 1143 949.37 1143 949.37 983.18 990.69 983.18 990.69 1143 995.82 1143 995.82 978.05 944.24 978.05"/>
    <rect class="cls-5" x="976.91" y="970.1" width="943.09" height="133.8"/>
    <polygon class="cls-2" points="974.35 1106.46 1920 1106.46 1920 1101.33 979.48 1101.33 979.48 972.66 1920 972.66 1920 967.53 974.35 967.53 974.35 1106.46"/>
    <rect class="cls-4" x="774.94" y="980.61" width="171.87" height="162.39"/>
    <rect class="cls-8" x="774.94" y="980.61" width="171.87" height="90.58"/>
    <polygon class="cls-8" points="772.37 978.05 772.37 1143 777.5 1143 777.5 983.18 944.24 983.18 944.24 1143 949.37 1143 949.37 978.05 772.37 978.05"/>
  </g>
  <g id="Layer_4" data-name="Layer 4">
    <g>
      <polygon class="cls-14" points="677.77 926.55 1920 926.55 1920 553.79 989.43 553.79 677.77 926.55"/>
      <rect class="cls-4" x="674.91" y="931.56" width="1245.09" height="113.8"/>
      <polygon class="cls-1" points="672.29 929.11 1920 929.11 1920 923.99 683.26 923.99 990.63 556.35 1920 556.35 1920 551.22 988.23 551.22 672.29 929.11"/>
      <polygon class="cls-8" points="672.34 1047.93 1920 1047.93 1920 1042.8 677.47 1042.8 677.47 934.13 1920 934.13 1920 929 672.34 929 672.34 1047.93"/>
    </g>
  </g>
</svg>