<?xml version="1.0" encoding="UTF-8"?>
<svg id="protein" xmlns="http://www.w3.org/2000/svg" viewBox="0 0 514.74 143.16">
  <defs>
    <style>
      .cls-1 {
        fill: #fff;
      }

      .cls-2 {
        isolation: isolate;
        opacity: .05;
      }

      .cls-3 {
        fill: #7ac9d6;
      }
    </style>
  </defs>
  <path class="cls-2" d="m77.94,50.76L3.76,81.35l87.25,24.21,3.96,29.46,395.29,2.39,10.13-123.81c-125.87-.07-307.79,2.36-423.05,3.37l.59,33.79h0Z"/>
  <path class="cls-1" d="m87.94,40.76L13.76,71.35l87.25,24.21,3.96,29.46,395.29,2.39,10.13-123.81L87.35,6.96l.59,33.79Z"/>
  <g>
    <path class="cls-3" d="m155.01,61.7c-.11-1.51-.01-2.91.29-4.2.31-1.29.75-2.37,1.32-3.26.57-.88,1.25-1.64,2.04-2.29.78-.64,1.56-1.13,2.33-1.47.77-.34,1.52-.57,2.25-.71.64-.14,1.31-.19,2-.15.69.04,1.24.09,1.66.15s.86.18,1.32.38c.46.2.81.36,1.05.48.24.13.52.29.86.48,1.57.95,2.18,2.37,1.85,4.24-.25,1.37-.87,2.38-1.85,3.02-.78.48-1.51.48-2.18,0-1.46-1.01-2.63-1.37-3.53-1.07-.9.29-1.29,1.17-1.18,2.62.06.53.29.95.71,1.26.42.31.97.55,1.66.73.69.18,1.41.37,2.16.57.76.2,1.58.55,2.48,1.07.9.52,1.69,1.17,2.39,1.95,1.12,1.32,1.79,2.79,2,4.41.21,1.62.01,3.12-.59,4.49-.6,1.37-1.55,2.56-2.83,3.57-1.29,1.01-2.76,1.58-4.41,1.72-1.76.17-3.41.14-4.94-.08s-2.79-.59-3.8-1.11-1.81-.99-2.39-1.43c-.59-.43-1.06-.86-1.43-1.28-.42-.5-.69-1.13-.8-1.89-.11-.76-.06-1.48.15-2.16.21-.69.52-1.32.94-1.89.42-.57.95-.92,1.58-1.05s1.31,0,2.04.4c3.28,1.79,5.28,2.81,6.01,3.07,1.15.39,1.81.18,1.97-.63.11-.48-.07-.91-.55-1.3-.48-.39-1.11-.73-1.91-1.01-.8-.28-1.68-.64-2.65-1.07s-1.88-.9-2.73-1.39c-.85-.49-1.6-1.19-2.23-2.1-.63-.91-.99-1.94-1.07-3.09Z"/>
    <path class="cls-3" d="m197.05,67.62c0,.87-.02,1.66-.06,2.37-.04.71-.15,1.49-.34,2.33-.18.84-.43,1.59-.76,2.25-.32.66-.78,1.3-1.37,1.93s-1.28,1.15-2.08,1.57c-.8.42-1.79.76-2.98,1.01s-2.54.38-4.05.38-2.81-.19-3.99-.57c-1.18-.38-2.13-.87-2.88-1.47-.74-.6-1.37-1.34-1.87-2.21-.5-.87-.88-1.75-1.11-2.65-.24-.9-.39-1.87-.44-2.92-.06-1.05-.06-2,0-2.86.06-.85.15-1.73.29-2.62.42-2.8,1.51-4.86,3.28-6.17,1.76-1.32,4.21-1.97,7.35-1.97,1.76,0,3.31.24,4.64.71,1.33.48,2.38,1.07,3.15,1.79.77.71,1.4,1.61,1.89,2.69.49,1.08.82,2.11.99,3.11.17.99.28,2.09.34,3.3Zm-10.92,5.38c.64,0,1.22-.36,1.72-1.09.5-.73.83-1.62.99-2.67.15-1.05.19-2.09.11-3.13-.08-1.04-.39-1.92-.9-2.67-.52-.74-1.18-1.11-2-1.11-.59,0-1.12.37-1.6,1.11-.48.74-.79,1.63-.95,2.67-.15,1.04-.2,2.08-.13,3.13.07,1.05.34,1.94.82,2.67.48.73,1.12,1.09,1.93,1.09Z"/>
    <path class="cls-3" d="m227.2,65.35c.03.53.08,1.34.17,2.44.08,1.09.14,1.9.17,2.44.03.53.04,1.2.04,2s-.06,1.5-.17,2.1c-.11.6-.28,1.15-.5,1.66-.39,1.04-1.03,1.79-1.91,2.27-.88.48-1.74.64-2.58.5s-1.58-.55-2.21-1.24c-.63-.69-.95-1.55-.95-2.58,0-.7.01-1.52.04-2.46.03-.94.05-1.75.06-2.44.01-.69.03-1.41.04-2.16.01-.76,0-1.39-.02-1.89-.03-.5-.08-.96-.15-1.37-.07-.41-.18-.67-.34-.8-.15-.13-.36-.13-.61-.02-.62.36-1.02.89-1.2,1.58-.18.69-.26,1.66-.23,2.92.14,1.9.2,3.33.17,4.28-.06,1.34-.27,2.48-.63,3.4-.42,1.04-1.06,1.79-1.93,2.27-.87.48-1.72.64-2.56.5s-1.58-.55-2.21-1.24c-.63-.69-.95-1.55-.95-2.58,0-.7,0-1.52.02-2.46.01-.94.03-1.75.06-2.44.03-.69.05-1.41.06-2.16.01-.76,0-1.39-.02-1.89-.03-.5-.08-.96-.17-1.37-.08-.41-.2-.67-.36-.8-.15-.13-.34-.13-.57-.02-.5.31-.88.76-1.13,1.37s-.39,1.41-.4,2.44c-.01,1.02.01,1.97.08,2.86.07.88.2,2.08.4,3.59.14,1.15,0,2.11-.4,2.9-.41.78-.97,1.3-1.68,1.53s-1.46.34-2.23.31c-.77-.03-1.48-.24-2.12-.63-.64-.39-1.08-.9-1.3-1.51-.39-1.04-.62-2.32-.67-3.86-.06-1.54-.05-3.23.02-5.08.07-1.85-.04-4.28-.32-7.31-.08-1.15.26-2.04,1.03-2.69.77-.64,1.67-.99,2.69-1.03s2,.1,2.94.44c.94.34,1.5.81,1.7,1.43.06.08.1.13.13.15.03.01.08-.02.15-.1.07-.08.16-.19.27-.31.11-.13.27-.26.46-.4.2-.14.43-.28.69-.42.27-.14.61-.27,1.03-.4s.88-.22,1.39-.27c1.85-.17,3.28.36,4.28,1.6,0-.14.04-.08.13.17l.08.13c.08.06.18.03.29-.08.11-.11.29-.27.55-.48.25-.21.57-.41.94-.61s.94-.36,1.68-.5c.74-.14,1.6-.21,2.58-.21,2.16.06,3.67.8,4.56,2.23.88,1.43,1.41,3.54,1.58,6.34Z"/>
    <path class="cls-3" d="m246.31,71.02c.73.31,1.28.78,1.66,1.41.38.63.53,1.32.44,2.06-.08.74-.34,1.47-.78,2.18-.43.71-1.12,1.34-2.06,1.89-.94.55-2.05.9-3.34,1.07-1.43.2-2.75.2-3.97,0-1.22-.2-2.34-.68-3.36-1.45-1.02-.77-1.73-1.8-2.12-3.09-.08-.25-.15-.52-.21-.8-.06-.28-.09-.59-.11-.92s-.03-.64-.04-.92c-.01-.28,0-.64.02-1.07.03-.43.05-.78.06-1.05.01-.27.05-.65.11-1.15.06-.5.09-.87.1-1.09s.06-.61.13-1.16c.07-.55.12-.92.15-1.11,0-.17-.06-.27-.17-.31-.11-.04-.28-.05-.5-.02-.22.03-.47.06-.74.08-.27.03-.57.03-.9,0-.34-.03-.66-.1-.97-.21-.76-.31-1.27-.97-1.53-1.97-.27-1.01-.29-1.97-.06-2.88.22-.91.56-1.46,1.01-1.66.59-.2,1.24-.3,1.95-.31.71-.01,1.26-.02,1.64-.02s.55-.11.53-.34c0-.56,0-1.04-.02-1.43-.01-.39-.03-.63-.04-.71-.01-.08-.02-.21-.02-.38s0-.34.02-.52c.01-.18.04-.54.06-1.07.06-.81.35-1.51.88-2.1.53-.59,1.17-.97,1.91-1.13.74-.17,1.5-.19,2.27-.06.77.13,1.45.48,2.04,1.07.59.59.95,1.33,1.09,2.23.11.7.14,1.42.08,2.16-.06.74-.12,1.25-.19,1.53-.07.28-.04.6.11.97.17.2.36.31.59.36.22.04.59.08,1.11.1.52.03,1.01.08,1.49.17.59.11,1.06.41,1.43.9.36.49.56,1.03.59,1.62.03.59-.03,1.17-.17,1.74-.14.57-.42,1.04-.84,1.41-.42.36-.9.52-1.43.46-1.04-.14-1.83-.21-2.37-.21s-.85.17-.9.5c-.08.45-.15,1.18-.21,2.21-.06,1.02-.04,2.09.06,3.19.1,1.11.3,1.74.61,1.91.28.14.54.13.78-.04.24-.17.44-.42.61-.76s.4-.66.69-.97c.29-.31.66-.51,1.09-.61.43-.1,1.01,0,1.74.31Z"/>
    <path class="cls-3" d="m256.16,55.15c-.8.67-1.77,1.01-2.92,1.01s-2.13-.34-2.94-1.01c-.81-.67-1.22-1.49-1.22-2.46s.41-1.79,1.22-2.48c.81-.69,1.79-1.03,2.94-1.03s2.12.34,2.92,1.03c.8.69,1.2,1.51,1.2,2.48s-.4,1.78-1.2,2.46Zm.95,5.25c.36,1.34.59,3.46.67,6.36s-.06,5.64-.42,8.21c-.28,1.74-1.13,2.88-2.56,3.44s-2.77.47-4.03-.27c-1.26-.74-1.79-1.85-1.6-3.34.28-2.27.32-4.62.13-7.06,0-.2-.03-.62-.08-1.28-.06-.66-.09-1.12-.1-1.39-.01-.27-.02-.68-.02-1.24s.03-1.11.08-1.64c.06-.53.14-1.13.25-1.81.14-.84.57-1.5,1.3-1.97.73-.48,1.52-.72,2.37-.73s1.67.22,2.46.69c.78.48,1.3,1.15,1.55,2.02Z"/>
    <path class="cls-3" d="m288.23,65.35c.03.53.08,1.34.17,2.44.08,1.09.14,1.9.17,2.44.03.53.04,1.2.04,2s-.06,1.5-.17,2.1c-.11.6-.28,1.15-.5,1.66-.39,1.04-1.03,1.79-1.91,2.27-.88.48-1.74.64-2.58.5s-1.58-.55-2.21-1.24c-.63-.69-.95-1.55-.95-2.58,0-.7.01-1.52.04-2.46.03-.94.05-1.75.06-2.44.01-.69.03-1.41.04-2.16.01-.76,0-1.39-.02-1.89-.03-.5-.08-.96-.15-1.37-.07-.41-.18-.67-.34-.8-.15-.13-.36-.13-.61-.02-.62.36-1.02.89-1.2,1.58-.18.69-.26,1.66-.23,2.92.14,1.9.2,3.33.17,4.28-.06,1.34-.27,2.48-.63,3.4-.42,1.04-1.06,1.79-1.93,2.27-.87.48-1.72.64-2.56.5s-1.58-.55-2.21-1.24c-.63-.69-.95-1.55-.95-2.58,0-.7,0-1.52.02-2.46.01-.94.03-1.75.06-2.44.03-.69.05-1.41.06-2.16.01-.76,0-1.39-.02-1.89-.03-.5-.08-.96-.17-1.37-.08-.41-.2-.67-.36-.8-.15-.13-.34-.13-.57-.02-.5.31-.88.76-1.13,1.37s-.39,1.41-.4,2.44c-.01,1.02.01,1.97.08,2.86.07.88.2,2.08.4,3.59.14,1.15,0,2.11-.4,2.9-.41.78-.97,1.3-1.68,1.53s-1.46.34-2.23.31c-.77-.03-1.48-.24-2.12-.63-.64-.39-1.08-.9-1.3-1.51-.39-1.04-.62-2.32-.67-3.86-.06-1.54-.05-3.23.02-5.08.07-1.85-.04-4.28-.32-7.31-.08-1.15.26-2.04,1.03-2.69.77-.64,1.67-.99,2.69-1.03s2,.1,2.94.44c.94.34,1.5.81,1.7,1.43.06.08.1.13.13.15.03.01.08-.02.15-.1.07-.08.16-.19.27-.31.11-.13.27-.26.46-.4.2-.14.43-.28.69-.42.27-.14.61-.27,1.03-.4s.88-.22,1.39-.27c1.85-.17,3.28.36,4.28,1.6,0-.14.04-.08.13.17l.08.13c.08.06.18.03.29-.08.11-.11.29-.27.55-.48.25-.21.57-.41.94-.61s.94-.36,1.68-.5c.74-.14,1.6-.21,2.58-.21,2.16.06,3.67.8,4.56,2.23.88,1.43,1.41,3.54,1.58,6.34Z"/>
    <path class="cls-3" d="m304.4,71.69c1.18-.7,2.28-.62,3.32.23,1.04.85,1.56,1.92,1.57,3.19.01,1.27-.47,2.32-1.45,3.13-1.34.81-3.07,1.32-5.17,1.53-2.1.21-3.96.09-5.59-.36-2.35-.62-4.22-1.95-5.61-4.01-1.39-2.06-2.08-4.71-2.08-7.96,0-2.35.43-4.35,1.28-6.01.85-1.65,2.01-2.88,3.46-3.67,1.46-.8,3.16-1.2,5.1-1.2s4.01.42,6.2,1.26c1.04.42,1.9,1.07,2.6,1.95.7.88,1.15,1.84,1.36,2.88.21,1.04.25,2.05.11,3.04-.14.99-.53,1.87-1.18,2.62-.64.76-1.46,1.23-2.44,1.43-1.54.34-3,.53-4.37.59-1.37.06-2.37.04-2.98-.04l-.88-.13c.06.56.26,1.06.61,1.49.35.43.8.76,1.34.99.55.22,1.24.26,2.08.1.84-.15,1.74-.51,2.69-1.07Zm-4.37-8.82c-.78.03-1.38.24-1.79.63-.41.39-.44.81-.1,1.26.2.28.85.39,1.97.31,1.12-.07,1.78-.27,1.97-.61.11-.2.11-.42-.02-.67s-.38-.47-.76-.65-.81-.27-1.28-.27Z"/>
    <path class="cls-3" d="m328.17,68.71c1.06,1.01,1.69,2.15,1.89,3.42.2,1.27.02,2.45-.53,3.53-.55,1.08-1.43,2.01-2.65,2.79-1.22.78-2.61,1.25-4.18,1.39-1.34.08-2.62.06-3.84-.06s-2.24-.31-3.07-.55c-.83-.24-1.6-.54-2.33-.9-.73-.36-1.27-.68-1.62-.95-.35-.27-.67-.52-.95-.78-.5-.48-.77-1.09-.8-1.85-.03-.76.15-1.43.53-2.04.38-.6.9-1.06,1.57-1.36.67-.31,1.47-.25,2.39.17.78.36,1.44.66,1.97.88.53.22,1.06.43,1.58.61.52.18.94.3,1.26.36s.62.08.88.06c.27-.01.48-.09.63-.23.15-.14.26-.34.31-.59.11-.42-.13-.77-.71-1.05-.59-.28-1.34-.53-2.27-.76-.92-.22-1.87-.5-2.83-.82-.97-.32-1.81-.84-2.54-1.55-.73-.71-1.15-1.59-1.26-2.62-.14-1.43.02-2.73.48-3.91.46-1.18,1.11-2.11,1.95-2.81.84-.7,1.71-1.25,2.62-1.64.91-.39,1.8-.66,2.67-.8,2.35-.31,4.51.03,6.47,1.01,1.51.76,2.09,1.86,1.72,3.32-.25,1.09-.85,1.86-1.81,2.31-.7.34-1.36.32-1.97-.04-1.37-.78-2.48-1.06-3.32-.84-.84.22-1.2.9-1.09,2.02.06.5.39.89,1.01,1.16.62.27,1.34.46,2.16.57.83.11,1.79.39,2.88.82,1.09.43,2.02,1.02,2.77,1.74Z"/>
    <path class="cls-3" d="m356.31,56.49c-.31.17-.51.64-.61,1.41-.1.77-.13,1.47-.08,2.1.04.63.1,1.2.19,1.7.06.34.4.5,1.03.5s1.46-.07,2.5-.21c.9-.11,1.58.31,2.06,1.26.48.95.57,1.96.27,3.02-.29,1.06-.93,1.67-1.91,1.81-.48.08-.9.14-1.28.17s-.66.04-.84.02c-.18-.01-.34-.03-.46-.04s-.21-.01-.25,0-.08.04-.13.06-.12.1-.23.21c-.08.14-.12.39-.11.76.01.36.06.81.13,1.32.07.52.12,1.17.15,1.95.03.78-.03,1.69-.17,2.73-.14,1.12-.64,1.98-1.49,2.58-.85.6-1.76.89-2.73.86s-1.85-.35-2.67-.97c-.81-.62-1.25-1.44-1.3-2.48-.03-.59-.05-1.11-.06-1.55-.01-.45-.01-.81,0-1.09.01-.28.03-.75.04-1.41.01-.66.02-1.29.02-1.91.03-.22-.15-.34-.53-.36-.38-.01-.92-.02-1.64-.02s-1.37-.11-1.95-.34c-.45-.17-.78-.71-1.01-1.64-.22-.92-.2-1.88.06-2.88.27-.99.78-1.64,1.53-1.95.31-.14.63-.22.97-.25.34-.03.64-.02.9.02.27.04.51.08.74.1.22.03.39.01.5-.04.11-.06.17-.15.17-.29-.06-.5-.15-1.22-.29-2.14-.14-.92-.22-1.57-.25-1.95-.03-.38-.02-.85.02-1.43.04-.57.15-1.13.32-1.66.39-1.29,1.1-2.32,2.12-3.09,1.02-.77,2.14-1.25,3.36-1.45,1.22-.2,2.54-.21,3.97-.04,2.58.34,4.44,1.46,5.59,3.36.92,1.46,1.06,2.77.42,3.95-.39.73-1.04,1.18-1.93,1.34-.7.14-1.31.17-1.83.08-.52-.08-.9-.23-1.16-.44s-.48-.44-.69-.69c-.21-.25-.36-.48-.44-.69s-.22-.35-.42-.42c-.2-.07-.39-.03-.59.1Z"/>
    <path class="cls-3" d="m384.87,67.62c0,.87-.02,1.66-.06,2.37-.04.71-.15,1.49-.34,2.33-.18.84-.43,1.59-.76,2.25-.32.66-.78,1.3-1.37,1.93s-1.28,1.15-2.08,1.57c-.8.42-1.79.76-2.98,1.01s-2.54.38-4.05.38-2.81-.19-3.99-.57c-1.18-.38-2.13-.87-2.88-1.47-.74-.6-1.37-1.34-1.87-2.21-.5-.87-.88-1.75-1.11-2.65-.24-.9-.39-1.87-.44-2.92-.06-1.05-.06-2,0-2.86.06-.85.15-1.73.29-2.62.42-2.8,1.51-4.86,3.28-6.17,1.76-1.32,4.21-1.97,7.35-1.97,1.76,0,3.31.24,4.64.71,1.33.48,2.38,1.07,3.15,1.79.77.71,1.4,1.61,1.89,2.69.49,1.08.82,2.11.99,3.11.17.99.28,2.09.34,3.3Zm-10.92,5.38c.64,0,1.22-.36,1.72-1.09.5-.73.83-1.62.99-2.67.15-1.05.19-2.09.11-3.13-.08-1.04-.39-1.92-.9-2.67-.52-.74-1.18-1.11-2-1.11-.59,0-1.12.37-1.6,1.11-.48.74-.79,1.63-.95,2.67-.15,1.04-.2,2.08-.13,3.13.07,1.05.34,1.94.82,2.67.48.73,1.12,1.09,1.93,1.09Z"/>
    <path class="cls-3" d="m407.59,67.62c0,.87-.02,1.66-.06,2.37-.04.71-.15,1.49-.34,2.33-.18.84-.43,1.59-.76,2.25-.32.66-.78,1.3-1.37,1.93s-1.28,1.15-2.08,1.57c-.8.42-1.79.76-2.98,1.01s-2.54.38-4.05.38-2.81-.19-3.99-.57c-1.18-.38-2.13-.87-2.88-1.47-.74-.6-1.37-1.34-1.87-2.21-.5-.87-.88-1.75-1.11-2.65-.24-.9-.39-1.87-.44-2.92-.06-1.05-.06-2,0-2.86.06-.85.15-1.73.29-2.62.42-2.8,1.51-4.86,3.28-6.17,1.76-1.32,4.21-1.97,7.35-1.97,1.76,0,3.31.24,4.64.71,1.33.48,2.38,1.07,3.15,1.79.77.71,1.4,1.61,1.89,2.69.49,1.08.82,2.11.99,3.11.17.99.28,2.09.34,3.3Zm-10.92,5.38c.64,0,1.22-.36,1.72-1.09.5-.73.83-1.62.99-2.67.15-1.05.19-2.09.11-3.13-.08-1.04-.39-1.92-.9-2.67-.52-.74-1.18-1.11-2-1.11-.59,0-1.12.37-1.6,1.11-.48.74-.79,1.63-.95,2.67-.15,1.04-.2,2.08-.13,3.13.07,1.05.34,1.94.82,2.67.48.73,1.12,1.09,1.93,1.09Z"/>
    <path class="cls-3" d="m428.8,75.18c.11.92-.04,1.72-.46,2.39s-.98,1.15-1.68,1.43c-.7.28-1.42.46-2.14.55-.73.08-1.39.02-2-.19-.6-.21-.97-.5-1.11-.86l-.17-.76c-.03.06-.06.13-.11.23-.04.1-.19.27-.44.53-.25.25-.57.46-.94.63s-.97.31-1.76.42c-.8.11-1.71.13-2.75.04-1.2-.08-2.26-.45-3.17-1.09s-1.6-1.43-2.08-2.37c-.48-.94-.87-1.98-1.18-3.13-.31-1.15-.46-2.27-.46-3.36s.03-2.13.08-3.11c.11-1.2.37-2.37.78-3.49.41-1.12.94-2.16,1.6-3.11.66-.95,1.5-1.71,2.54-2.29,1.04-.57,2.18-.88,3.44-.9.64,0,1.23.08,1.76.25.53.17.94.38,1.22.63s.51.5.69.76c.18.25.3.48.36.67l.08.25-.21-6.09c.06-.87.37-1.58.95-2.14.57-.56,1.25-.88,2.04-.97.78-.08,1.55-.03,2.31.15.76.18,1.39.57,1.89,1.18.5.6.73,1.32.67,2.16-.06.62-.1,1.54-.13,2.77-.03,1.23-.05,2.71-.06,4.43-.01,1.72-.01,3.44,0,5.15.01,1.71.06,3.41.13,5.1.07,1.69.17,3.07.32,4.14Zm-7.9-3.82c.03-.34.06-.94.08-1.81.03-.87.03-1.87,0-3-.03-1.13-.11-1.84-.25-2.12-.06-.06-.12-.11-.19-.17-.07-.06-.24-.16-.5-.31-.27-.15-.51-.26-.74-.31-.22-.06-.5-.1-.82-.13-.32-.03-.58.03-.78.17-.59.36-.99.81-1.22,1.34-.22.53-.38,1.41-.46,2.65-.06,1.09.06,2.21.36,3.34.29,1.13.74,1.8,1.32,1.99.78.22,1.5.13,2.14-.29.64-.42.99-.87,1.05-1.34Z"/>
    <path class="cls-3" d="m447.62,68.71c1.06,1.01,1.69,2.15,1.89,3.42.2,1.27.02,2.45-.53,3.53-.55,1.08-1.43,2.01-2.65,2.79-1.22.78-2.61,1.25-4.18,1.39-1.34.08-2.62.06-3.84-.06s-2.24-.31-3.07-.55c-.83-.24-1.6-.54-2.33-.9-.73-.36-1.27-.68-1.62-.95-.35-.27-.67-.52-.95-.78-.5-.48-.77-1.09-.8-1.85-.03-.76.15-1.43.53-2.04.38-.6.9-1.06,1.57-1.36.67-.31,1.47-.25,2.39.17.78.36,1.44.66,1.97.88.53.22,1.06.43,1.58.61.52.18.94.3,1.26.36s.62.08.88.06c.27-.01.48-.09.63-.23.15-.14.26-.34.31-.59.11-.42-.13-.77-.71-1.05-.59-.28-1.34-.53-2.27-.76-.92-.22-1.87-.5-2.83-.82-.97-.32-1.81-.84-2.54-1.55-.73-.71-1.15-1.59-1.26-2.62-.14-1.43.02-2.73.48-3.91.46-1.18,1.11-2.11,1.95-2.81.84-.7,1.71-1.25,2.62-1.64.91-.39,1.8-.66,2.67-.8,2.35-.31,4.51.03,6.47,1.01,1.51.76,2.09,1.86,1.72,3.32-.25,1.09-.85,1.86-1.81,2.31-.7.34-1.36.32-1.97-.04-1.37-.78-2.48-1.06-3.32-.84-.84.22-1.2.9-1.09,2.02.06.5.39.89,1.01,1.16.62.27,1.34.46,2.16.57.83.11,1.79.39,2.88.82,1.09.43,2.02,1.02,2.77,1.74Z"/>
  </g>
</svg>