<?xml version="1.0" encoding="UTF-8"?>
<svg id="protein" xmlns="http://www.w3.org/2000/svg" viewBox="0 0 514.74 143.16">
  <defs>
    <style>
      .cls-1 {
        fill: #fff;
      }

      .cls-2 {
        isolation: isolate;
        opacity: .05;
      }

      .cls-3 {
        fill: #7ac9d6;
      }
    </style>
  </defs>
  <path class="cls-2" d="m77.94,50.76L3.76,81.35l87.25,24.21,3.96,29.46,395.29,2.39,10.13-123.81c-125.87-.07-307.79,2.36-423.05,3.37l.59,33.79h0Z"/>
  <path class="cls-1" d="m87.94,40.76L13.76,71.35l87.25,24.21,3.96,29.46,395.29,2.39,10.13-123.81L87.35,6.96l.59,33.79Z"/>
  <g>
    <path class="cls-3" d="m221.83,64.22c-.08.42-.2,1.04-.36,1.87-.15.83-.3,1.57-.44,2.23-.14.66-.32,1.44-.53,2.33s-.44,1.69-.69,2.39c-.25.7-.55,1.44-.88,2.23-.34.78-.73,1.46-1.18,2.02-.45.56-.95,1.08-1.49,1.55s-1.18.84-1.91,1.09c-.73.25-1.51.38-2.35.38-1.01,0-1.95-.27-2.81-.82-.87-.55-1.6-1.24-2.21-2.08-.6-.84-1.17-1.92-1.7-3.23-.53-1.32-.96-2.58-1.28-3.78-.32-1.2-.64-2.62-.95-4.24-.31-1.62-.53-2.98-.67-4.07-.14-1.09-.3-2.37-.48-3.84-.18-1.47-.32-2.48-.4-3.04-.17-1.01-.06-1.89.32-2.65.38-.76.92-1.27,1.64-1.55.71-.28,1.46-.4,2.25-.36.78.04,1.56.34,2.33.88.77.55,1.37,1.28,1.79,2.21.67,1.51,1.24,3.77,1.7,6.78.46,3.01.75,5.64.86,7.88l.17,3.36c.03-.36.06-.85.11-1.47.04-.62.15-1.78.31-3.51s.37-3.32.61-4.81c.24-1.48.57-3.05.99-4.7.42-1.65.88-2.95,1.39-3.91.53-1.04,1.32-1.79,2.35-2.27,1.04-.48,2.04-.66,3-.55.97.11,1.82.46,2.56,1.05.74.59,1.11,1.34,1.11,2.27,0,.87-.19,1.86-.57,2.98-.38,1.12-.84,2.37-1.39,3.74-.55,1.37-.95,2.59-1.2,3.65Z"/>
    <path class="cls-3" d="m238.29,71.69c1.18-.7,2.28-.62,3.32.23,1.04.85,1.56,1.92,1.57,3.19.01,1.27-.47,2.32-1.45,3.13-1.34.81-3.07,1.32-5.17,1.53-2.1.21-3.96.09-5.59-.36-2.35-.62-4.22-1.95-5.61-4.01-1.39-2.06-2.08-4.71-2.08-7.96,0-2.35.43-4.35,1.28-6.01.85-1.65,2.01-2.88,3.46-3.67,1.46-.8,3.16-1.2,5.1-1.2s4.01.42,6.2,1.26c1.04.42,1.9,1.07,2.6,1.95.7.88,1.15,1.84,1.36,2.88.21,1.04.25,2.05.11,3.04-.14.99-.53,1.87-1.18,2.62-.64.76-1.46,1.23-2.44,1.43-1.54.34-3,.53-4.37.59-1.37.06-2.37.04-2.98-.04l-.88-.13c.06.56.26,1.06.61,1.49.35.43.8.76,1.34.99.55.22,1.24.26,2.08.1.84-.15,1.74-.51,2.69-1.07Zm-4.37-8.82c-.78.03-1.38.24-1.79.63-.41.39-.44.81-.1,1.26.2.28.85.39,1.97.31,1.12-.07,1.78-.27,1.97-.61.11-.2.11-.42-.02-.67s-.38-.47-.76-.65-.81-.27-1.28-.27Z"/>
    <path class="cls-3" d="m257.38,57.67c.15-.39.55-.69,1.18-.88.63-.2,1.34-.26,2.12-.19.78.07,1.54.25,2.27.55.73.29,1.29.78,1.7,1.45s.53,1.46.36,2.35c-.25,1.43-.42,3.17-.5,5.23s-.1,3.78-.04,5.17c.06,1.39.06,2.68,0,3.88,0,.22,0,.67.02,1.32.01.66.03,1.3.04,1.93.01.63-.04,1.41-.15,2.33-.11.92-.28,1.78-.5,2.56-.39,1.32-1.22,2.38-2.48,3.19-1.26.81-2.62,1.31-4.09,1.49s-2.93.16-4.39-.06c-1.46-.22-2.6-.64-3.44-1.26-.95-.81-1.45-1.75-1.49-2.81-.04-1.06.33-1.96,1.11-2.69.78-.73,1.65-.88,2.6-.46.5.25,1.11.39,1.83.42.71.03,1.39-.08,2.02-.34.63-.25,1-.63,1.11-1.13l.25-2.39s-.06.08-.1.17-.15.24-.34.46c-.18.22-.41.43-.69.61s-.69.36-1.22.52c-.53.17-1.12.27-1.76.29-1.32.11-2.46-.02-3.44-.4-.98-.38-1.75-.86-2.31-1.45-.56-.59-1.04-1.38-1.43-2.37-.39-.99-.66-1.88-.8-2.67-.14-.78-.27-1.75-.38-2.9-.06-.95-.08-1.98-.08-3.09s.15-2.23.46-3.38c.31-1.15.7-2.19,1.18-3.13.48-.94,1.17-1.72,2.08-2.35.91-.63,1.97-.99,3.17-1.07,1.04-.08,1.95-.08,2.75.02.8.1,1.39.25,1.79.44.39.2.71.4.95.61.24.21.38.39.44.52l.08.25c-.06-.11,0-.36.15-.76Zm-.65,14.07c.14-.31.22-1.02.25-2.14.03-1.12.03-2.11,0-2.98-.03-.87-.06-1.47-.08-1.81-.06-.5-.41-.97-1.05-1.39s-1.36-.5-2.14-.25c-.59.2-1.03.85-1.32,1.97-.29,1.12-.41,2.23-.36,3.32.08,1.26.24,2.16.46,2.69.22.53.63.97,1.22,1.3.45.2.9.24,1.34.13.45-.11.84-.28,1.18-.5l.5-.34Z"/>
    <path class="cls-3" d="m281.01,71.69c1.18-.7,2.28-.62,3.32.23,1.04.85,1.56,1.92,1.57,3.19.01,1.27-.47,2.32-1.45,3.13-1.34.81-3.07,1.32-5.17,1.53-2.1.21-3.96.09-5.59-.36-2.35-.62-4.22-1.95-5.61-4.01-1.39-2.06-2.08-4.71-2.08-7.96,0-2.35.43-4.35,1.28-6.01.85-1.65,2.01-2.88,3.46-3.67,1.46-.8,3.16-1.2,5.1-1.2s4.01.42,6.2,1.26c1.04.42,1.9,1.07,2.6,1.95.7.88,1.15,1.84,1.36,2.88.21,1.04.25,2.05.11,3.04-.14.99-.53,1.87-1.18,2.62-.64.76-1.46,1.23-2.44,1.43-1.54.34-3,.53-4.37.59-1.37.06-2.37.04-2.98-.04l-.88-.13c.06.56.26,1.06.61,1.49.35.43.8.76,1.34.99.55.22,1.24.26,2.08.1.84-.15,1.74-.51,2.69-1.07Zm-4.37-8.82c-.78.03-1.38.24-1.79.63-.41.39-.44.81-.1,1.26.2.28.85.39,1.97.31,1.12-.07,1.78-.27,1.97-.61.11-.2.11-.42-.02-.67s-.38-.47-.76-.65-.81-.27-1.28-.27Z"/>
    <path class="cls-3" d="m304.86,71.02c.73.31,1.28.78,1.66,1.41.38.63.53,1.32.44,2.06-.08.74-.34,1.47-.78,2.18-.43.71-1.12,1.34-2.06,1.89-.94.55-2.05.9-3.34,1.07-1.43.2-2.75.2-3.97,0-1.22-.2-2.34-.68-3.36-1.45-1.02-.77-1.73-1.8-2.12-3.09-.08-.25-.15-.52-.21-.8-.06-.28-.09-.59-.11-.92s-.03-.64-.04-.92c-.01-.28,0-.64.02-1.07.03-.43.05-.78.06-1.05.01-.27.05-.65.11-1.15.06-.5.09-.87.1-1.09s.06-.61.13-1.16c.07-.55.12-.92.15-1.11,0-.17-.06-.27-.17-.31-.11-.04-.28-.05-.5-.02-.22.03-.47.06-.74.08-.27.03-.57.03-.9,0-.34-.03-.66-.1-.97-.21-.76-.31-1.27-.97-1.53-1.97-.27-1.01-.29-1.97-.06-2.88.22-.91.56-1.46,1.01-1.66.59-.2,1.24-.3,1.95-.31.71-.01,1.26-.02,1.64-.02s.55-.11.53-.34c0-.56,0-1.04-.02-1.43-.01-.39-.03-.63-.04-.71-.01-.08-.02-.21-.02-.38s0-.34.02-.52c.01-.18.04-.54.06-1.07.06-.81.35-1.51.88-2.1.53-.59,1.17-.97,1.91-1.13.74-.17,1.5-.19,2.27-.06.77.13,1.45.48,2.04,1.07.59.59.95,1.33,1.09,2.23.11.7.14,1.42.08,2.16-.06.74-.12,1.25-.19,1.53-.07.28-.04.6.11.97.17.2.36.31.59.36.22.04.59.08,1.11.1.52.03,1.01.08,1.49.17.59.11,1.06.41,1.43.9.36.49.56,1.03.59,1.62.03.59-.03,1.17-.17,1.74-.14.57-.42,1.04-.84,1.41-.42.36-.9.52-1.43.46-1.04-.14-1.83-.21-2.37-.21s-.85.17-.9.5c-.08.45-.15,1.18-.21,2.21-.06,1.02-.04,2.09.06,3.19.1,1.11.3,1.74.61,1.91.28.14.54.13.78-.04.24-.17.44-.42.61-.76s.4-.66.69-.97c.29-.31.66-.51,1.09-.61.43-.1,1.01,0,1.74.31Z"/>
    <path class="cls-3" d="m328,75.14c.17.92.05,1.72-.36,2.39s-.97,1.15-1.7,1.43c-.73.28-1.48.46-2.27.55s-1.49.02-2.12-.19-1.01-.5-1.15-.86l-.17-.76c-.03.06-.06.13-.11.23-.04.1-.19.27-.44.53-.25.25-.57.46-.94.63s-.97.31-1.76.42c-.8.11-1.71.13-2.75.04-1.2-.08-2.26-.45-3.17-1.09s-1.6-1.43-2.08-2.37c-.48-.94-.87-1.97-1.18-3.11-.31-1.13-.46-2.25-.46-3.36s.03-2.15.08-3.13c.11-1.2.37-2.37.78-3.49.41-1.12.94-2.16,1.6-3.11.66-.95,1.5-1.71,2.54-2.29,1.04-.57,2.18-.88,3.44-.9.64,0,1.23.08,1.76.25.53.17.94.38,1.22.63s.51.5.69.76c.18.25.3.48.36.67l.08.25c-.06-.42-.04-.83.04-1.22.11-.5.44-.92.99-1.26s1.17-.52,1.87-.57c.7-.04,1.39,0,2.08.15.69.14,1.27.44,1.76.9.49.46.76,1.04.82,1.74.06,1.26.06,2.72,0,4.37-.06,1.65-.04,3.67.04,6.07s.25,4.29.5,5.69Zm-8.11-3.82c0-.2.01-.59.04-1.18.03-.59.05-1.28.06-2.08.01-.8,0-1.55-.04-2.27-.04-.71-.12-1.18-.23-1.41-.06-.06-.12-.11-.19-.17-.07-.06-.24-.15-.5-.29-.27-.14-.51-.24-.74-.29-.22-.06-.5-.1-.82-.15-.32-.04-.58.02-.78.19-.39.22-.7.48-.92.78-.22.29-.39.69-.5,1.18-.11.49-.2,1.15-.25,1.99-.03.67,0,1.38.1,2.12.1.74.29,1.43.57,2.06.28.63.63,1.02,1.05,1.15.76.22,1.46.13,2.1-.27.64-.41.99-.86,1.05-1.36Z"/>
    <path class="cls-3" d="m349.93,66.53c.03.67.06,1.39.08,2.16.03.77-.02,1.57-.15,2.39-.13.83-.28,1.62-.46,2.39-.18.77-.47,1.51-.86,2.23-.39.71-.83,1.34-1.3,1.89-.48.55-1.07,1-1.79,1.37-.71.36-1.51.57-2.37.63-1.04.08-1.95.08-2.75-.02s-1.39-.25-1.79-.46c-.39-.21-.71-.41-.95-.61-.24-.2-.38-.38-.44-.55l-.08-.21c.06.11,0,.36-.15.74-.15.38-.52.67-1.09.88-.57.21-1.23.28-1.95.21-.73-.07-1.44-.25-2.12-.55-.69-.29-1.25-.78-1.68-1.45-.43-.67-.62-1.47-.57-2.39.14-2.69.17-6.48.08-11.38-.08-4.9-.18-8.3-.29-10.21-.03-.62.1-1.17.38-1.66.28-.49.65-.87,1.11-1.15.46-.28.99-.49,1.58-.63.59-.14,1.18-.17,1.79-.08.6.08,1.15.24,1.66.46.5.22.92.57,1.26,1.05.34.48.52,1.02.55,1.64l-.21,6.09c.03-.08.06-.18.1-.29.04-.11.15-.31.34-.61.18-.29.41-.55.69-.78.28-.22.69-.43,1.22-.61.53-.18,1.12-.27,1.76-.27,1.26.03,2.41.33,3.44.9,1.04.57,1.88,1.34,2.54,2.29.66.95,1.19,1.99,1.6,3.11.41,1.12.68,2.28.82,3.49Zm-9.32,6.47c.62-.2,1.1-.77,1.45-1.72.35-.95.5-1.92.44-2.9-.14-2.83-.77-4.4-1.89-4.7-.39-.08-.74-.1-1.05-.06-.31.04-.59.13-.84.27-.25.14-.46.28-.63.42-.17.14-.29.28-.38.42l-.13.17c-.14.28-.22.95-.25,2-.03,1.05-.03,1.97,0,2.75.03.78.06,1.36.08,1.72.06.48.41.92,1.05,1.34.64.42,1.36.52,2.14.29Z"/>
    <path class="cls-3" d="m358.96,52.83c.34,1.99.57,3.75.69,5.27.13,1.53.17,3.67.15,6.45,0,.34,0,1-.02,2-.01.99-.02,1.68-.02,2.06s-.01.97-.04,1.76c-.03.8-.06,1.42-.08,1.87-.03.45-.08.97-.15,1.55-.07.59-.15,1.13-.23,1.64-.2,1.09-.69,1.94-1.49,2.54-.8.6-1.63.9-2.5.88-.87-.01-1.67-.35-2.42-1.01-.74-.66-1.18-1.56-1.32-2.71-.31-2.88-.43-7.01-.36-12.37.07-5.36.27-8.67.61-9.93.22-.87.71-1.54,1.45-2.02.74-.48,1.51-.71,2.31-.69.8.01,1.53.26,2.21.73.67.48,1.08,1.13,1.22,1.97Z"/>
    <path class="cls-3" d="m375.88,71.69c1.18-.7,2.28-.62,3.32.23,1.04.85,1.56,1.92,1.57,3.19.01,1.27-.47,2.32-1.45,3.13-1.34.81-3.07,1.32-5.17,1.53-2.1.21-3.96.09-5.59-.36-2.35-.62-4.22-1.95-5.61-4.01-1.39-2.06-2.08-4.71-2.08-7.96,0-2.35.43-4.35,1.28-6.01.85-1.65,2.01-2.88,3.46-3.67,1.46-.8,3.16-1.2,5.1-1.2s4.01.42,6.2,1.26c1.04.42,1.9,1.07,2.6,1.95.7.88,1.15,1.84,1.36,2.88.21,1.04.25,2.05.11,3.04-.14.99-.53,1.87-1.18,2.62-.64.76-1.46,1.23-2.44,1.43-1.54.34-3,.53-4.37.59-1.37.06-2.37.04-2.98-.04l-.88-.13c.06.56.26,1.06.61,1.49.35.43.8.76,1.34.99.55.22,1.24.26,2.08.1.84-.15,1.74-.51,2.69-1.07Zm-4.37-8.82c-.78.03-1.38.24-1.79.63-.41.39-.44.81-.1,1.26.2.28.85.39,1.97.31,1.12-.07,1.78-.27,1.97-.61.11-.2.11-.42-.02-.67s-.38-.47-.76-.65-.81-.27-1.28-.27Z"/>
    <path class="cls-3" d="m399.65,68.71c1.06,1.01,1.69,2.15,1.89,3.42.2,1.27.02,2.45-.53,3.53-.55,1.08-1.43,2.01-2.65,2.79-1.22.78-2.61,1.25-4.18,1.39-1.34.08-2.62.06-3.84-.06s-2.24-.31-3.07-.55c-.83-.24-1.6-.54-2.33-.9-.73-.36-1.27-.68-1.62-.95-.35-.27-.67-.52-.95-.78-.5-.48-.77-1.09-.8-1.85-.03-.76.15-1.43.53-2.04.38-.6.9-1.06,1.57-1.36.67-.31,1.47-.25,2.39.17.78.36,1.44.66,1.97.88.53.22,1.06.43,1.58.61.52.18.94.3,1.26.36s.62.08.88.06c.27-.01.48-.09.63-.23.15-.14.26-.34.31-.59.11-.42-.13-.77-.71-1.05-.59-.28-1.34-.53-2.27-.76-.92-.22-1.87-.5-2.83-.82-.97-.32-1.81-.84-2.54-1.55-.73-.71-1.15-1.59-1.26-2.62-.14-1.43.02-2.73.48-3.91.46-1.18,1.11-2.11,1.95-2.81.84-.7,1.71-1.25,2.62-1.64.91-.39,1.8-.66,2.67-.8,2.35-.31,4.51.03,6.47,1.01,1.51.76,2.09,1.86,1.72,3.32-.25,1.09-.85,1.86-1.81,2.31-.7.34-1.36.32-1.97-.04-1.37-.78-2.48-1.06-3.32-.84-.84.22-1.2.9-1.09,2.02.06.5.39.89,1.01,1.16.62.27,1.34.46,2.16.57.83.11,1.79.39,2.88.82,1.09.43,2.02,1.02,2.77,1.74Z"/>
  </g>
</svg>