<?xml version="1.0" encoding="UTF-8"?>
<svg id="protein" xmlns="http://www.w3.org/2000/svg" viewBox="0 0 514.74 143.16">
  <defs>
    <style>
      .cls-1 {
        fill: #fff;
      }

      .cls-2 {
        isolation: isolate;
        opacity: .05;
      }

      .cls-3 {
        fill: #7ac9d6;
      }
    </style>
  </defs>
  <path class="cls-2" d="m77.94,50.76L3.76,81.35l87.25,24.21,3.96,29.46,395.29,2.39,10.13-123.81c-125.87-.07-307.79,2.36-423.05,3.37l.59,33.79h0Z"/>
  <path class="cls-1" d="m87.94,40.76L13.76,71.35l87.25,24.21,3.96,29.46,395.29,2.39,10.13-123.81L87.35,6.96l.59,33.79Z"/>
  <g>
    <path class="cls-3" d="m141.97,77.03c-.22.62-.67,1.12-1.32,1.51s-1.39.6-2.18.63c-.8.03-1.56-.08-2.29-.31-.73-.24-1.31-.75-1.74-1.53-.43-.78-.58-1.75-.44-2.9.28-2.46.3-4.14.06-5.02-.24-.88-.75-1.31-1.53-1.28-.56.03-.97.2-1.24.52-.27.32-.45.99-.55,2-.1,1.01.04,2.45.4,4.33.14.81,0,1.55-.4,2.23s-.97,1.16-1.7,1.45c-.73.29-1.49.46-2.27.5-.78.04-1.53-.16-2.25-.61-.71-.45-1.24-1.09-1.58-1.93-.95-2.44-1.29-6.13-1.01-11.09.11-1.82.14-3.49.08-5-.06-1.51-.06-2.95-.02-4.33.04-1.37.19-2.35.44-2.94.34-.78.81-1.42,1.43-1.91.62-.49,1.27-.77,1.95-.84.69-.07,1.36-.01,2.02.17.66.18,1.22.53,1.7,1.05.48.52.77,1.13.88,1.83.36,2.41.53,4.56.5,6.47,0,.87.06,1.54.19,2.02.13.48.29.79.48.95.2.15.48.25.84.27.73,0,1.26-.22,1.6-.65.34-.43.5-1.35.5-2.75-.03-3.08-.03-4.97,0-5.67,0-.98.28-1.79.84-2.44.56-.64,1.24-1.02,2.04-1.13.8-.11,1.6-.07,2.42.13.81.2,1.51.63,2.1,1.3.59.67.9,1.47.92,2.39.28,3.78.36,8.07.23,12.87-.13,4.8-.5,8.04-1.11,9.72Z"/>
    <path class="cls-3" d="m159.19,71.69c1.18-.7,2.28-.62,3.32.23,1.04.85,1.56,1.92,1.57,3.19.01,1.27-.47,2.32-1.45,3.13-1.34.81-3.07,1.32-5.17,1.53-2.1.21-3.96.09-5.59-.36-2.35-.62-4.22-1.95-5.61-4.01-1.39-2.06-2.08-4.71-2.08-7.96,0-2.35.43-4.35,1.28-6.01.85-1.65,2.01-2.88,3.46-3.67,1.46-.8,3.16-1.2,5.1-1.2s4.01.42,6.2,1.26c1.04.42,1.9,1.07,2.6,1.95.7.88,1.15,1.84,1.36,2.88.21,1.04.25,2.05.11,3.04-.14.99-.53,1.87-1.18,2.62-.64.76-1.46,1.23-2.44,1.43-1.54.34-3,.53-4.37.59-1.37.06-2.37.04-2.98-.04l-.88-.13c.06.56.26,1.06.61,1.49.35.43.8.76,1.34.99.55.22,1.24.26,2.08.1.84-.15,1.74-.51,2.69-1.07Zm-4.37-8.82c-.78.03-1.38.24-1.79.63-.41.39-.44.81-.1,1.26.2.28.85.39,1.97.31,1.12-.07,1.78-.27,1.97-.61.11-.2.11-.42-.02-.67s-.38-.47-.76-.65-.81-.27-1.28-.27Z"/>
    <path class="cls-3" d="m185.86,75.14c.17.92.05,1.72-.36,2.39s-.97,1.15-1.7,1.43c-.73.28-1.48.46-2.27.55s-1.49.02-2.12-.19-1.01-.5-1.15-.86l-.17-.76c-.03.06-.06.13-.11.23-.04.1-.19.27-.44.53-.25.25-.57.46-.94.63s-.97.31-1.76.42c-.8.11-1.71.13-2.75.04-1.2-.08-2.26-.45-3.17-1.09s-1.6-1.43-2.08-2.37c-.48-.94-.87-1.97-1.18-3.11-.31-1.13-.46-2.25-.46-3.36s.03-2.15.08-3.13c.11-1.2.37-2.37.78-3.49.41-1.12.94-2.16,1.6-3.11.66-.95,1.5-1.71,2.54-2.29,1.04-.57,2.18-.88,3.44-.9.64,0,1.23.08,1.76.25.53.17.94.38,1.22.63s.51.5.69.76c.18.25.3.48.36.67l.08.25c-.06-.42-.04-.83.04-1.22.11-.5.44-.92.99-1.26s1.17-.52,1.87-.57c.7-.04,1.39,0,2.08.15.69.14,1.27.44,1.76.9.49.46.76,1.04.82,1.74.06,1.26.06,2.72,0,4.37-.06,1.65-.04,3.67.04,6.07s.25,4.29.5,5.69Zm-8.11-3.82c0-.2.01-.59.04-1.18.03-.59.05-1.28.06-2.08.01-.8,0-1.55-.04-2.27-.04-.71-.12-1.18-.23-1.41-.06-.06-.12-.11-.19-.17-.07-.06-.24-.15-.5-.29-.27-.14-.51-.24-.74-.29-.22-.06-.5-.1-.82-.15-.32-.04-.58.02-.78.19-.39.22-.7.48-.92.78-.22.29-.39.69-.5,1.18-.11.49-.2,1.15-.25,1.99-.03.67,0,1.38.1,2.12.1.74.29,1.43.57,2.06.28.63.63,1.02,1.05,1.15.76.22,1.46.13,2.1-.27.64-.41.99-.86,1.05-1.36Z"/>
    <path class="cls-3" d="m195.1,52.83c.34,1.99.57,3.75.69,5.27.13,1.53.17,3.67.15,6.45,0,.34,0,1-.02,2-.01.99-.02,1.68-.02,2.06s-.01.97-.04,1.76c-.03.8-.06,1.42-.08,1.87-.03.45-.08.97-.15,1.55-.07.59-.15,1.13-.23,1.64-.2,1.09-.69,1.94-1.49,2.54-.8.6-1.63.9-2.5.88-.87-.01-1.67-.35-2.42-1.01-.74-.66-1.18-1.56-1.32-2.71-.31-2.88-.43-7.01-.36-12.37.07-5.36.27-8.67.61-9.93.22-.87.71-1.54,1.45-2.02.74-.48,1.51-.71,2.31-.69.8.01,1.53.26,2.21.73.67.48,1.08,1.13,1.22,1.97Z"/>
    <path class="cls-3" d="m214.96,71.02c.73.31,1.28.78,1.66,1.41.38.63.53,1.32.44,2.06-.08.74-.34,1.47-.78,2.18-.43.71-1.12,1.34-2.06,1.89-.94.55-2.05.9-3.34,1.07-1.43.2-2.75.2-3.97,0-1.22-.2-2.34-.68-3.36-1.45-1.02-.77-1.73-1.8-2.12-3.09-.08-.25-.15-.52-.21-.8-.06-.28-.09-.59-.11-.92s-.03-.64-.04-.92c-.01-.28,0-.64.02-1.07.03-.43.05-.78.06-1.05.01-.27.05-.65.11-1.15.06-.5.09-.87.1-1.09s.06-.61.13-1.16c.07-.55.12-.92.15-1.11,0-.17-.06-.27-.17-.31-.11-.04-.28-.05-.5-.02-.22.03-.47.06-.74.08-.27.03-.57.03-.9,0-.34-.03-.66-.1-.97-.21-.76-.31-1.27-.97-1.53-1.97-.27-1.01-.29-1.97-.06-2.88.22-.91.56-1.46,1.01-1.66.59-.2,1.24-.3,1.95-.31.71-.01,1.26-.02,1.64-.02s.55-.11.53-.34c0-.56,0-1.04-.02-1.43-.01-.39-.03-.63-.04-.71-.01-.08-.02-.21-.02-.38s0-.34.02-.52c.01-.18.04-.54.06-1.07.06-.81.35-1.51.88-2.1.53-.59,1.17-.97,1.91-1.13.74-.17,1.5-.19,2.27-.06.77.13,1.45.48,2.04,1.07.59.59.95,1.33,1.09,2.23.11.7.14,1.42.08,2.16-.06.74-.12,1.25-.19,1.53-.07.28-.04.6.11.97.17.2.36.31.59.36.22.04.59.08,1.11.1.52.03,1.01.08,1.49.17.59.11,1.06.41,1.43.9.36.49.56,1.03.59,1.62.03.59-.03,1.17-.17,1.74-.14.57-.42,1.04-.84,1.41-.42.36-.9.52-1.43.46-1.04-.14-1.83-.21-2.37-.21s-.85.17-.9.5c-.08.45-.15,1.18-.21,2.21-.06,1.02-.04,2.09.06,3.19.1,1.11.3,1.74.61,1.91.28.14.54.13.78-.04.24-.17.44-.42.61-.76s.4-.66.69-.97c.29-.31.66-.51,1.09-.61.43-.1,1.01,0,1.74.31Z"/>
    <path class="cls-3" d="m238.27,65.14c.28,4.96-.06,8.65-1.01,11.09-.31.84-.79,1.48-1.45,1.93-.66.45-1.34.65-2.04.61s-1.37-.21-2-.5c-.63-.29-1.12-.78-1.47-1.45-.35-.67-.46-1.4-.32-2.18.62-3.61.57-6.58-.13-8.9-.53-1.76-1.33-2.39-2.39-1.89-.25.11-.48.27-.67.48-.2.21-.35.49-.46.84-.11.35-.2.69-.27,1.01-.07.32-.11.76-.13,1.3-.01.55-.01,1.02,0,1.43.01.41.05.95.11,1.64.06.69.11,1.25.17,1.7.06.45.13,1.06.21,1.85.14,1.12.01,2.07-.38,2.86-.39.78-.93,1.3-1.62,1.55-.69.25-1.4.36-2.14.31s-1.43-.26-2.06-.65c-.63-.39-1.06-.9-1.28-1.51-.62-1.65-.99-4.89-1.13-9.7-.14-4.82-.07-9.1.21-12.85.06-.95.37-1.76.95-2.44.57-.67,1.25-1.11,2.04-1.3.78-.2,1.56-.24,2.33-.13.77.11,1.43.49,1.97,1.13.55.64.83,1.47.86,2.48,0,.59,0,1.18-.02,1.76-.01.59-.04,1.04-.06,1.34-.03.31-.04.6-.02.88.01.28.04.52.06.71.03.11.06.17.1.17s.1-.04.17-.13.15-.18.25-.29c.1-.11.25-.24.44-.4.2-.15.42-.3.67-.44s.59-.27,1.01-.4.87-.2,1.34-.23c2.21-.22,4.08.46,5.61,2.06,1.53,1.6,2.37,3.68,2.54,6.26Z"/>
    <path class="cls-3" d="m259.52,61.74c-.08.48-.15,1.81-.21,3.99-.06,2.18-.03,4.33.08,6.43.2,1.15.25,2.95.17,5.42-.08,2.46-.35,4.47-.8,6.01-.39,1.32-1.22,2.38-2.48,3.19-1.26.81-2.62,1.31-4.09,1.49s-2.93.15-4.39-.08c-1.46-.24-2.6-.65-3.44-1.24-.95-.81-1.45-1.75-1.49-2.81-.04-1.06.33-1.96,1.11-2.69.78-.73,1.65-.88,2.6-.46.42.2.87.34,1.34.44.48.1.97.15,1.49.15s.97-.14,1.36-.42c.39-.28.64-.69.76-1.22.03-.14.06-.46.08-.97.03-.5.04-.77.04-.8-.03-.11-.06-.17-.1-.17s-.1.03-.17.08c-.07.06-.15.14-.25.25-.1.11-.25.23-.44.36s-.42.25-.67.38-.58.25-.99.36c-.41.11-.86.2-1.36.25-1.46.14-2.79-.11-3.99-.76-1.2-.64-2.17-1.61-2.9-2.9-.73-1.29-1.13-2.77-1.22-4.45-.31-5.32-.06-9.02.76-11.09.31-.84.8-1.48,1.47-1.93.67-.45,1.37-.65,2.1-.61.73.04,1.41.21,2.06.5s1.15.78,1.51,1.45c.36.67.48,1.4.34,2.18-.28,1.74-.48,3.21-.59,4.43-.11,1.22-.13,2.44-.06,3.67.07,1.23.37,2.08.9,2.54.53.46,1.29.51,2.27.15.7-.25,1.11-.76,1.22-1.51.17-1.04.15-3.04-.04-6.03-.2-2.98-.22-4.82-.08-5.52.11-.59.5-1.06,1.16-1.43.66-.36,1.41-.55,2.25-.57s1.65.08,2.44.29,1.4.64,1.85,1.28c.45.64.59,1.43.42,2.35Z"/>
    <path class="cls-3" d="m294.34,75.14c.17.92.05,1.72-.36,2.39s-.97,1.15-1.7,1.43c-.73.28-1.48.46-2.27.55s-1.49.02-2.12-.19-1.01-.5-1.15-.86l-.17-.76c-.03.06-.06.13-.11.23-.04.1-.19.27-.44.53-.25.25-.57.46-.94.63s-.97.31-1.76.42c-.8.11-1.71.13-2.75.04-1.2-.08-2.26-.45-3.17-1.09s-1.6-1.43-2.08-2.37c-.48-.94-.87-1.97-1.18-3.11-.31-1.13-.46-2.25-.46-3.36s.03-2.15.08-3.13c.11-1.2.37-2.37.78-3.49.41-1.12.94-2.16,1.6-3.11.66-.95,1.5-1.71,2.54-2.29,1.04-.57,2.18-.88,3.44-.9.64,0,1.23.08,1.76.25.53.17.94.38,1.22.63s.51.5.69.76c.18.25.3.48.36.67l.08.25c-.06-.42-.04-.83.04-1.22.11-.5.44-.92.99-1.26s1.17-.52,1.87-.57c.7-.04,1.39,0,2.08.15.69.14,1.27.44,1.76.9.49.46.76,1.04.82,1.74.06,1.26.06,2.72,0,4.37-.06,1.65-.04,3.67.04,6.07s.25,4.29.5,5.69Zm-8.11-3.82c0-.2.01-.59.04-1.18.03-.59.05-1.28.06-2.08.01-.8,0-1.55-.04-2.27-.04-.71-.12-1.18-.23-1.41-.06-.06-.12-.11-.19-.17-.07-.06-.24-.15-.5-.29-.27-.14-.51-.24-.74-.29-.22-.06-.5-.1-.82-.15-.32-.04-.58.02-.78.19-.39.22-.7.48-.92.78-.22.29-.39.69-.5,1.18-.11.49-.2,1.15-.25,1.99-.03.67,0,1.38.1,2.12.1.74.29,1.43.57,2.06.28.63.63,1.02,1.05,1.15.76.22,1.46.13,2.1-.27.64-.41.99-.86,1.05-1.36Z"/>
    <path class="cls-3" d="m303.58,52.83c.34,1.99.57,3.75.69,5.27.13,1.53.17,3.67.15,6.45,0,.34,0,1-.02,2-.01.99-.02,1.68-.02,2.06s-.01.97-.04,1.76c-.03.8-.06,1.42-.08,1.87-.03.45-.08.97-.15,1.55-.07.59-.15,1.13-.23,1.64-.2,1.09-.69,1.94-1.49,2.54-.8.6-1.63.9-2.5.88-.87-.01-1.67-.35-2.42-1.01-.74-.66-1.18-1.56-1.32-2.71-.31-2.88-.43-7.01-.36-12.37.07-5.36.27-8.67.61-9.93.22-.87.71-1.54,1.45-2.02.74-.48,1.51-.71,2.31-.69.8.01,1.53.26,2.21.73.67.48,1.08,1.13,1.22,1.97Z"/>
    <path class="cls-3" d="m323.45,71.02c.73.31,1.28.78,1.66,1.41.38.63.53,1.32.44,2.06-.08.74-.34,1.47-.78,2.18-.43.71-1.12,1.34-2.06,1.89-.94.55-2.05.9-3.34,1.07-1.43.2-2.75.2-3.97,0-1.22-.2-2.34-.68-3.36-1.45-1.02-.77-1.73-1.8-2.12-3.09-.08-.25-.15-.52-.21-.8-.06-.28-.09-.59-.11-.92s-.03-.64-.04-.92c-.01-.28,0-.64.02-1.07.03-.43.05-.78.06-1.05.01-.27.05-.65.11-1.15.06-.5.09-.87.1-1.09s.06-.61.13-1.16c.07-.55.12-.92.15-1.11,0-.17-.06-.27-.17-.31-.11-.04-.28-.05-.5-.02-.22.03-.47.06-.74.08-.27.03-.57.03-.9,0-.34-.03-.66-.1-.97-.21-.76-.31-1.27-.97-1.53-1.97-.27-1.01-.29-1.97-.06-2.88.22-.91.56-1.46,1.01-1.66.59-.2,1.24-.3,1.95-.31.71-.01,1.26-.02,1.64-.02s.55-.11.53-.34c0-.56,0-1.04-.02-1.43-.01-.39-.03-.63-.04-.71-.01-.08-.02-.21-.02-.38s0-.34.02-.52c.01-.18.04-.54.06-1.07.06-.81.35-1.51.88-2.1.53-.59,1.17-.97,1.91-1.13.74-.17,1.5-.19,2.27-.06.77.13,1.45.48,2.04,1.07.59.59.95,1.33,1.09,2.23.11.7.14,1.42.08,2.16-.06.74-.12,1.25-.19,1.53-.07.28-.04.6.11.97.17.2.36.31.59.36.22.04.59.08,1.11.1.52.03,1.01.08,1.49.17.59.11,1.06.41,1.43.9.36.49.56,1.03.59,1.62.03.59-.03,1.17-.17,1.74-.14.57-.42,1.04-.84,1.41-.42.36-.9.52-1.43.46-1.04-.14-1.83-.21-2.37-.21s-.85.17-.9.5c-.08.45-.15,1.18-.21,2.21-.06,1.02-.04,2.09.06,3.19.1,1.11.3,1.74.61,1.91.28.14.54.13.78-.04.24-.17.44-.42.61-.76s.4-.66.69-.97c.29-.31.66-.51,1.09-.61.43-.1,1.01,0,1.74.31Z"/>
    <path class="cls-3" d="m340.83,71.69c1.18-.7,2.28-.62,3.32.23,1.04.85,1.56,1.92,1.57,3.19.01,1.27-.47,2.32-1.45,3.13-1.34.81-3.07,1.32-5.17,1.53-2.1.21-3.96.09-5.59-.36-2.35-.62-4.22-1.95-5.61-4.01-1.39-2.06-2.08-4.71-2.08-7.96,0-2.35.43-4.35,1.28-6.01.85-1.65,2.01-2.88,3.46-3.67,1.46-.8,3.16-1.2,5.1-1.2s4.01.42,6.2,1.26c1.04.42,1.9,1.07,2.6,1.95.7.88,1.15,1.84,1.36,2.88.21,1.04.25,2.05.11,3.04-.14.99-.53,1.87-1.18,2.62-.64.76-1.46,1.23-2.44,1.43-1.54.34-3,.53-4.37.59-1.37.06-2.37.04-2.98-.04l-.88-.13c.06.56.26,1.06.61,1.49.35.43.8.76,1.34.99.55.22,1.24.26,2.08.1.84-.15,1.74-.51,2.69-1.07Zm-4.37-8.82c-.78.03-1.38.24-1.79.63-.41.39-.44.81-.1,1.26.2.28.85.39,1.97.31,1.12-.07,1.78-.27,1.97-.61.11-.2.11-.42-.02-.67s-.38-.47-.76-.65-.81-.27-1.28-.27Z"/>
    <path class="cls-3" d="m365.7,59.81c.39.64.55,1.35.46,2.12-.08.77-.37,1.43-.86,1.97-.49.55-1.11.94-1.87,1.18-.76.24-1.61.16-2.56-.23-2.18-.95-3.63-1.25-4.33-.88-.34.14-.62.37-.86.69-.24.32-.4.76-.48,1.3s-.15,1.07-.19,1.57c-.04.5-.03,1.19.04,2.06.07.87.13,1.59.19,2.16.06.57.14,1.38.25,2.42.14,1.15.01,2.11-.38,2.9-.39.78-.93,1.3-1.62,1.55-.69.25-1.4.36-2.14.31s-1.43-.26-2.06-.65-1.06-.9-1.28-1.51c-.39-1.04-.61-2.32-.65-3.86-.04-1.54-.03-3.23.04-5.08.07-1.85-.04-4.28-.32-7.31-.08-1.15.25-2.04,1.01-2.69.76-.64,1.62-.99,2.6-1.03.98-.04,1.93.1,2.86.44.92.34,1.47.81,1.64,1.43l.13.13c.2-.17.34-.31.42-.44s.23-.27.44-.42c.21-.15.43-.3.67-.44.24-.14.57-.27.99-.38.42-.11.87-.17,1.34-.17,1.37-.08,2.65.13,3.84.65,1.19.52,2.08,1.25,2.67,2.2Z"/>
    <path class="cls-3" d="m386.86,65.14c.31,5.29.06,8.99-.76,11.09-.34.84-.84,1.48-1.51,1.93-.67.45-1.37.65-2.08.61s-1.4-.21-2.06-.5c-.66-.29-1.16-.78-1.51-1.45-.35-.67-.47-1.41-.36-2.23.62-3.61.57-6.57-.13-8.86-.56-1.74-1.36-2.38-2.39-1.93-.34.17-.62.41-.86.73-.24.32-.4.76-.48,1.3s-.15,1.07-.19,1.57c-.04.5-.03,1.19.04,2.06.07.87.13,1.59.19,2.16.06.57.14,1.38.25,2.42.14,1.15.01,2.11-.38,2.9-.39.78-.93,1.3-1.62,1.53-.69.24-1.4.34-2.14.31s-1.43-.24-2.06-.63c-.63-.39-1.06-.9-1.28-1.51-.39-1.04-.61-2.32-.65-3.86-.04-1.54-.03-3.23.04-5.08.07-1.85-.04-4.28-.32-7.31-.08-1.15.25-2.04,1.01-2.69s1.62-.99,2.6-1.03c.98-.04,1.93.1,2.86.44.92.34,1.47.81,1.64,1.43.06.17.17.15.34-.04.87-.95,2.08-1.53,3.65-1.72,2.21-.22,4.09.47,5.63,2.08,1.54,1.61,2.38,3.7,2.52,6.28Z"/>
    <path class="cls-3" d="m408.62,75.14c.17.92.05,1.72-.36,2.39s-.97,1.15-1.7,1.43c-.73.28-1.48.46-2.27.55s-1.49.02-2.12-.19-1.01-.5-1.15-.86l-.17-.76c-.03.06-.06.13-.11.23-.04.1-.19.27-.44.53-.25.25-.57.46-.94.63s-.97.31-1.76.42c-.8.11-1.71.13-2.75.04-1.2-.08-2.26-.45-3.17-1.09s-1.6-1.43-2.08-2.37c-.48-.94-.87-1.97-1.18-3.11-.31-1.13-.46-2.25-.46-3.36s.03-2.15.08-3.13c.11-1.2.37-2.37.78-3.49.41-1.12.94-2.16,1.6-3.11.66-.95,1.5-1.71,2.54-2.29,1.04-.57,2.18-.88,3.44-.9.64,0,1.23.08,1.76.25.53.17.94.38,1.22.63s.51.5.69.76c.18.25.3.48.36.67l.08.25c-.06-.42-.04-.83.04-1.22.11-.5.44-.92.99-1.26s1.17-.52,1.87-.57c.7-.04,1.39,0,2.08.15.69.14,1.27.44,1.76.9.49.46.76,1.04.82,1.74.06,1.26.06,2.72,0,4.37-.06,1.65-.04,3.67.04,6.07s.25,4.29.5,5.69Zm-8.11-3.82c0-.2.01-.59.04-1.18.03-.59.05-1.28.06-2.08.01-.8,0-1.55-.04-2.27-.04-.71-.12-1.18-.23-1.41-.06-.06-.12-.11-.19-.17-.07-.06-.24-.15-.5-.29-.27-.14-.51-.24-.74-.29-.22-.06-.5-.1-.82-.15-.32-.04-.58.02-.78.19-.39.22-.7.48-.92.78-.22.29-.39.69-.5,1.18-.11.49-.2,1.15-.25,1.99-.03.67,0,1.38.1,2.12.1.74.29,1.43.57,2.06.28.63.63,1.02,1.05,1.15.76.22,1.46.13,2.1-.27.64-.41.99-.86,1.05-1.36Z"/>
    <path class="cls-3" d="m427.52,71.02c.73.31,1.28.78,1.66,1.41.38.63.53,1.32.44,2.06-.08.74-.34,1.47-.78,2.18-.43.71-1.12,1.34-2.06,1.89-.94.55-2.05.9-3.34,1.07-1.43.2-2.75.2-3.97,0-1.22-.2-2.34-.68-3.36-1.45-1.02-.77-1.73-1.8-2.12-3.09-.08-.25-.15-.52-.21-.8-.06-.28-.09-.59-.11-.92s-.03-.64-.04-.92c-.01-.28,0-.64.02-1.07.03-.43.05-.78.06-1.05.01-.27.05-.65.11-1.15.06-.5.09-.87.1-1.09s.06-.61.13-1.16c.07-.55.12-.92.15-1.11,0-.17-.06-.27-.17-.31-.11-.04-.28-.05-.5-.02-.22.03-.47.06-.74.08-.27.03-.57.03-.9,0-.34-.03-.66-.1-.97-.21-.76-.31-1.27-.97-1.53-1.97-.27-1.01-.29-1.97-.06-2.88.22-.91.56-1.46,1.01-1.66.59-.2,1.24-.3,1.95-.31.71-.01,1.26-.02,1.64-.02s.55-.11.53-.34c0-.56,0-1.04-.02-1.43-.01-.39-.03-.63-.04-.71-.01-.08-.02-.21-.02-.38s0-.34.02-.52c.01-.18.04-.54.06-1.07.06-.81.35-1.51.88-2.1.53-.59,1.17-.97,1.91-1.13.74-.17,1.5-.19,2.27-.06.77.13,1.45.48,2.04,1.07.59.59.95,1.33,1.09,2.23.11.7.14,1.42.08,2.16-.06.74-.12,1.25-.19,1.53-.07.28-.04.6.11.97.17.2.36.31.59.36.22.04.59.08,1.11.1.52.03,1.01.08,1.49.17.59.11,1.06.41,1.43.9.36.49.56,1.03.59,1.62.03.59-.03,1.17-.17,1.74-.14.57-.42,1.04-.84,1.41-.42.36-.9.52-1.43.46-1.04-.14-1.83-.21-2.37-.21s-.85.17-.9.5c-.08.45-.15,1.18-.21,2.21-.06,1.02-.04,2.09.06,3.19.1,1.11.3,1.74.61,1.91.28.14.54.13.78-.04.24-.17.44-.42.61-.76s.4-.66.69-.97c.29-.31.66-.51,1.09-.61.43-.1,1.01,0,1.74.31Z"/>
    <path class="cls-3" d="m437.37,55.15c-.8.67-1.77,1.01-2.92,1.01s-2.13-.34-2.94-1.01c-.81-.67-1.22-1.49-1.22-2.46s.41-1.79,1.22-2.48c.81-.69,1.79-1.03,2.94-1.03s2.12.34,2.92,1.03c.8.69,1.2,1.51,1.2,2.48s-.4,1.78-1.2,2.46Zm.95,5.25c.36,1.34.59,3.46.67,6.36s-.06,5.64-.42,8.21c-.28,1.74-1.13,2.88-2.56,3.44s-2.77.47-4.03-.27c-1.26-.74-1.79-1.85-1.6-3.34.28-2.27.32-4.62.13-7.06,0-.2-.03-.62-.08-1.28-.06-.66-.09-1.12-.1-1.39-.01-.27-.02-.68-.02-1.24s.03-1.11.08-1.64c.06-.53.14-1.13.25-1.81.14-.84.57-1.5,1.3-1.97.73-.48,1.52-.72,2.37-.73s1.67.22,2.46.69c.78.48,1.3,1.15,1.55,2.02Z"/>
    <path class="cls-3" d="m452.93,59.51c.5-.76,1.22-1.31,2.16-1.66s1.84-.48,2.71-.4,1.64.34,2.31.78c.67.43,1.01.97,1.01,1.62,0,.87-.43,2.34-1.28,4.41-.85,2.07-1.38,3.42-1.57,4.03-.08.34-.21.85-.38,1.55-.17.7-.31,1.32-.44,1.85-.13.53-.32,1.17-.59,1.91-.27.74-.53,1.38-.8,1.91-.27.53-.62,1.09-1.05,1.68-.43.59-.91,1.07-1.43,1.45-.52.38-1.13.69-1.85.92s-1.51.36-2.37.36-1.74-.21-2.52-.63-1.46-.96-2.02-1.62c-.56-.66-1.08-1.48-1.55-2.48-.48-.99-.86-1.96-1.16-2.9-.29-.94-.57-2.02-.84-3.23-.27-1.22-.47-2.25-.61-3.11-.14-.85-.29-1.81-.46-2.88-.17-1.06-.29-1.81-.38-2.23-.14-.76-.04-1.41.32-1.95.35-.55.85-.92,1.49-1.11.64-.2,1.32-.27,2.04-.23s1.41.26,2.1.65c.69.39,1.22.91,1.62,1.55.62,1.09,1.13,2.81,1.55,5.15.42,2.34.67,4.39.76,6.15l.17,2.69c0-.31.02-.71.06-1.2.04-.49.15-1.41.32-2.75.17-1.34.36-2.59.57-3.74.21-1.15.5-2.36.88-3.63.38-1.27.79-2.25,1.24-2.92Z"/>
    <path class="cls-3" d="m476.24,71.69c1.18-.7,2.28-.62,3.32.23,1.04.85,1.56,1.92,1.57,3.19.01,1.27-.47,2.32-1.45,3.13-1.34.81-3.07,1.32-5.17,1.53-2.1.21-3.96.09-5.59-.36-2.35-.62-4.22-1.95-5.61-4.01-1.39-2.06-2.08-4.71-2.08-7.96,0-2.35.43-4.35,1.28-6.01.85-1.65,2.01-2.88,3.46-3.67,1.46-.8,3.16-1.2,5.1-1.2s4.01.42,6.2,1.26c1.04.42,1.9,1.07,2.6,1.95.7.88,1.15,1.84,1.36,2.88.21,1.04.25,2.05.11,3.04-.14.99-.53,1.87-1.18,2.62-.64.76-1.46,1.23-2.44,1.43-1.54.34-3,.53-4.37.59-1.37.06-2.37.04-2.98-.04l-.88-.13c.06.56.26,1.06.61,1.49.35.43.8.76,1.34.99.55.22,1.24.26,2.08.1.84-.15,1.74-.51,2.69-1.07Zm-4.37-8.82c-.78.03-1.38.24-1.79.63-.41.39-.44.81-.1,1.26.2.28.85.39,1.97.31,1.12-.07,1.78-.27,1.97-.61.11-.2.11-.42-.02-.67s-.38-.47-.76-.65-.81-.27-1.28-.27Z"/>
  </g>
</svg>