<?xml version="1.0" encoding="UTF-8"?>
<svg id="protein" xmlns="http://www.w3.org/2000/svg" viewBox="0 0 514.74 143.16">
  <defs>
    <style>
      .cls-1 {
        fill: #fff;
      }

      .cls-2 {
        isolation: isolate;
        opacity: .05;
      }

      .cls-3 {
        fill: #7ac9d6;
      }
    </style>
  </defs>
  <path class="cls-2" d="m77.94,50.76L3.76,81.35l87.25,24.21,3.96,29.46,395.29,2.39,10.13-123.81c-125.87-.07-307.79,2.36-423.05,3.37l.59,33.79h0Z"/>
  <path class="cls-1" d="m87.94,40.76L13.76,71.35l87.25,24.21,3.96,29.46,395.29,2.39,10.13-123.81L87.35,6.96l.59,33.79Z"/>
  <g>
    <path class="cls-3" d="m255.68,77.61c-.25-.42-.38-1.18-.38-2.29s.04-2.39.11-3.84c.07-1.46,0-3.23-.23-5.33-.31-2.21-.45-4.95-.42-8.21.03-3.26.31-5.23.84-5.9.76-.95,2.02-1.69,3.78-2.21s4.06-.51,6.89.02c2.18.45,4.05,1.53,5.59,3.23,1.54,1.71,2.64,3.75,3.3,6.11.66,2.37.89,4.88.69,7.54-.34,5.21-1.92,8.95-4.75,11.21-1.32,1.06-3.12,1.73-5.4,2-2.28.27-4.39.17-6.32-.29s-3.16-1.14-3.7-2.04Zm8.11-20.5c-.2,0-.32.51-.36,1.53-.04,1.02-.04,2.39,0,4.12.04,1.72.05,2.86.02,3.42-.08,1.4-.11,2.72-.06,3.95.04,1.23.23,2.02.57,2.35.31.31.69.3,1.16-.02.46-.32.9-1.1,1.3-2.33.41-1.23.61-2.79.61-4.66,0-1.62-.14-3.07-.42-4.35-.28-1.27-.67-2.26-1.15-2.96-.49-.7-1.04-1.05-1.66-1.05Z"/>
    <path class="cls-3" d="m297.22,75.14c.17.92.05,1.72-.36,2.39s-.97,1.15-1.7,1.43c-.73.28-1.48.46-2.27.55s-1.49.02-2.12-.19-1.01-.5-1.15-.86l-.17-.76c-.03.06-.06.13-.11.23-.04.1-.19.27-.44.53-.25.25-.57.46-.94.63s-.97.31-1.76.42c-.8.11-1.71.13-2.75.04-1.2-.08-2.26-.45-3.17-1.09s-1.6-1.43-2.08-2.37c-.48-.94-.87-1.97-1.18-3.11-.31-1.13-.46-2.25-.46-3.36s.03-2.15.08-3.13c.11-1.2.37-2.37.78-3.49.41-1.12.94-2.16,1.6-3.11.66-.95,1.5-1.71,2.54-2.29,1.04-.57,2.18-.88,3.44-.9.64,0,1.23.08,1.76.25.53.17.94.38,1.22.63s.51.5.69.76c.18.25.3.48.36.67l.08.25c-.06-.42-.04-.83.04-1.22.11-.5.44-.92.99-1.26s1.17-.52,1.87-.57c.7-.04,1.39,0,2.08.15.69.14,1.27.44,1.76.9.49.46.76,1.04.82,1.74.06,1.26.06,2.72,0,4.37-.06,1.65-.04,3.67.04,6.07s.25,4.29.5,5.69Zm-8.11-3.82c0-.2.01-.59.04-1.18.03-.59.05-1.28.06-2.08.01-.8,0-1.55-.04-2.27-.04-.71-.12-1.18-.23-1.41-.06-.06-.12-.11-.19-.17-.07-.06-.24-.15-.5-.29-.27-.14-.51-.24-.74-.29-.22-.06-.5-.1-.82-.15-.32-.04-.58.02-.78.19-.39.22-.7.48-.92.78-.22.29-.39.69-.5,1.18-.11.49-.2,1.15-.25,1.99-.03.67,0,1.38.1,2.12.1.74.29,1.43.57,2.06.28.63.63,1.02,1.05,1.15.76.22,1.46.13,2.1-.27.64-.41.99-.86,1.05-1.36Z"/>
    <path class="cls-3" d="m305.64,55.15c-.8.67-1.77,1.01-2.92,1.01s-2.13-.34-2.94-1.01c-.81-.67-1.22-1.49-1.22-2.46s.41-1.79,1.22-2.48c.81-.69,1.79-1.03,2.94-1.03s2.12.34,2.92,1.03c.8.69,1.2,1.51,1.2,2.48s-.4,1.78-1.2,2.46Zm.95,5.25c.36,1.34.59,3.46.67,6.36s-.06,5.64-.42,8.21c-.28,1.74-1.13,2.88-2.56,3.44s-2.77.47-4.03-.27c-1.26-.74-1.79-1.85-1.6-3.34.28-2.27.32-4.62.13-7.06,0-.2-.03-.62-.08-1.28-.06-.66-.09-1.12-.1-1.39-.01-.27-.02-.68-.02-1.24s.03-1.11.08-1.64c.06-.53.14-1.13.25-1.81.14-.84.57-1.5,1.3-1.97.73-.48,1.52-.72,2.37-.73s1.67.22,2.46.69c.78.48,1.3,1.15,1.55,2.02Z"/>
    <path class="cls-3" d="m327.16,59.81c.39.64.55,1.35.46,2.12-.08.77-.37,1.43-.86,1.97-.49.55-1.11.94-1.87,1.18-.76.24-1.61.16-2.56-.23-2.18-.95-3.63-1.25-4.33-.88-.34.14-.62.37-.86.69-.24.32-.4.76-.48,1.3s-.15,1.07-.19,1.57c-.04.5-.03,1.19.04,2.06.07.87.13,1.59.19,2.16.06.57.14,1.38.25,2.42.14,1.15.01,2.11-.38,2.9-.39.78-.93,1.3-1.62,1.55-.69.25-1.4.36-2.14.31s-1.43-.26-2.06-.65-1.06-.9-1.28-1.51c-.39-1.04-.61-2.32-.65-3.86-.04-1.54-.03-3.23.04-5.08.07-1.85-.04-4.28-.32-7.31-.08-1.15.25-2.04,1.01-2.69.76-.64,1.62-.99,2.6-1.03.98-.04,1.93.1,2.86.44.92.34,1.47.81,1.64,1.43l.13.13c.2-.17.34-.31.42-.44s.23-.27.44-.42c.21-.15.43-.3.67-.44.24-.14.57-.27.99-.38.42-.11.87-.17,1.34-.17,1.37-.08,2.65.13,3.84.65,1.19.52,2.08,1.25,2.67,2.2Z"/>
    <path class="cls-3" d="m348.08,61.74c-.08.48-.15,1.81-.21,3.99-.06,2.18-.03,4.33.08,6.43.2,1.15.25,2.95.17,5.42-.08,2.46-.35,4.47-.8,6.01-.39,1.32-1.22,2.38-2.48,3.19-1.26.81-2.62,1.31-4.09,1.49s-2.93.15-4.39-.08c-1.46-.24-2.6-.65-3.44-1.24-.95-.81-1.45-1.75-1.49-2.81-.04-1.06.33-1.96,1.11-2.69.78-.73,1.65-.88,2.6-.46.42.2.87.34,1.34.44.48.1.97.15,1.49.15s.97-.14,1.36-.42c.39-.28.64-.69.76-1.22.03-.14.06-.46.08-.97.03-.5.04-.77.04-.8-.03-.11-.06-.17-.1-.17s-.1.03-.17.08c-.07.06-.15.14-.25.25-.1.11-.25.23-.44.36s-.42.25-.67.38-.58.25-.99.36c-.41.11-.86.2-1.36.25-1.46.14-2.79-.11-3.99-.76-1.2-.64-2.17-1.61-2.9-2.9-.73-1.29-1.13-2.77-1.22-4.45-.31-5.32-.06-9.02.76-11.09.31-.84.8-1.48,1.47-1.93.67-.45,1.37-.65,2.1-.61.73.04,1.41.21,2.06.5s1.15.78,1.51,1.45c.36.67.48,1.4.34,2.18-.28,1.74-.48,3.21-.59,4.43-.11,1.22-.13,2.44-.06,3.67.07,1.23.37,2.08.9,2.54.53.46,1.29.51,2.27.15.7-.25,1.11-.76,1.22-1.51.17-1.04.15-3.04-.04-6.03-.2-2.98-.22-4.82-.08-5.52.11-.59.5-1.06,1.16-1.43.66-.36,1.41-.55,2.25-.57s1.65.08,2.44.29,1.4.64,1.85,1.28c.45.64.59,1.43.42,2.35Z"/>
  </g>
</svg>