<?xml version="1.0" encoding="UTF-8"?>
<svg id="protein" xmlns="http://www.w3.org/2000/svg" viewBox="0 0 514.74 143.16">
  <defs>
    <style>
      .cls-1 {
        fill: #fff;
      }

      .cls-2 {
        isolation: isolate;
        opacity: .05;
      }

      .cls-3 {
        fill: #7ac9d6;
      }
    </style>
  </defs>
  <path class="cls-2" d="m77.94,50.76L3.76,81.35l87.25,24.21,3.96,29.46,395.29,2.39,10.13-123.81c-125.87-.07-307.79,2.36-423.05,3.37l.59,33.79h0Z"/>
  <path class="cls-1" d="m87.94,40.76L13.76,71.35l87.25,24.21,3.96,29.46,395.29,2.39,10.13-123.81L87.35,6.96l.59,33.79Z"/>
  <g>
    <path class="cls-3" d="m243.08,75.18c0,.98-.29,1.83-.88,2.56-.59.73-1.31,1.19-2.16,1.39-.85.2-1.71.22-2.56.06-.85-.15-1.58-.63-2.18-1.43-.6-.8-.92-1.81-.95-3.04-.06-1.65-.17-3.88-.34-6.7s-.28-5-.34-6.57c-.06-1.57.01-3.21.21-4.94.2-1.72.57-3.03,1.13-3.93.42-.67,1.23-1.27,2.44-1.79,1.2-.52,2.59-.83,4.16-.94,1.57-.11,3.14-.04,4.72.21s3.06.85,4.43,1.78c1.37.94,2.38,2.16,3.02,3.68.59,1.37.93,2.73,1.03,4.07.1,1.34-.01,2.55-.34,3.61-.32,1.06-.74,2-1.24,2.79s-1.08,1.49-1.72,2.08c-.98.84-2.16,1.48-3.53,1.91-1.37.43-2.51.7-3.4.8-.9.1-1.36.17-1.39.23-.06.34-.1,1.72-.13,4.16Zm-.13-17.77c-.45.62-.62,1.72-.53,3.32.1,1.6.29,2.51.57,2.73.22.11.41.19.55.23.14.04.38.01.71-.08.34-.1.76-.31,1.26-.65.53-.34.83-.79.9-1.37.07-.57-.08-1.39-.44-2.46-.17-.5-.37-.92-.61-1.24-.24-.32-.48-.55-.71-.67-.24-.13-.47-.2-.69-.21-.22-.01-.42.02-.59.1s-.31.18-.42.29Z"/>
    <path class="cls-3" d="m274.03,59.81c.39.64.55,1.35.46,2.12-.08.77-.37,1.43-.86,1.97-.49.55-1.11.94-1.87,1.18-.76.24-1.61.16-2.56-.23-2.18-.95-3.63-1.25-4.33-.88-.34.14-.62.37-.86.69-.24.32-.4.76-.48,1.3s-.15,1.07-.19,1.57c-.04.5-.03,1.19.04,2.06.07.87.13,1.59.19,2.16.06.57.14,1.38.25,2.42.14,1.15.01,2.11-.38,2.9-.39.78-.93,1.3-1.62,1.55-.69.25-1.4.36-2.14.31s-1.43-.26-2.06-.65-1.06-.9-1.28-1.51c-.39-1.04-.61-2.32-.65-3.86-.04-1.54-.03-3.23.04-5.08.07-1.85-.04-4.28-.32-7.31-.08-1.15.25-2.04,1.01-2.69.76-.64,1.62-.99,2.6-1.03.98-.04,1.93.1,2.86.44.92.34,1.47.81,1.64,1.43l.13.13c.2-.17.34-.31.42-.44s.23-.27.44-.42c.21-.15.43-.3.67-.44.24-.14.57-.27.99-.38.42-.11.87-.17,1.34-.17,1.37-.08,2.65.13,3.84.65,1.19.52,2.08,1.25,2.67,2.2Z"/>
    <path class="cls-3" d="m296.67,67.62c0,.87-.02,1.66-.06,2.37-.04.71-.15,1.49-.34,2.33-.18.84-.43,1.59-.76,2.25-.32.66-.78,1.3-1.37,1.93s-1.28,1.15-2.08,1.57c-.8.42-1.79.76-2.98,1.01s-2.54.38-4.05.38-2.81-.19-3.99-.57c-1.18-.38-2.13-.87-2.88-1.47-.74-.6-1.37-1.34-1.87-2.21-.5-.87-.88-1.75-1.11-2.65-.24-.9-.39-1.87-.44-2.92-.06-1.05-.06-2,0-2.86.06-.85.15-1.73.29-2.62.42-2.8,1.51-4.86,3.28-6.17,1.76-1.32,4.21-1.97,7.35-1.97,1.76,0,3.31.24,4.64.71,1.33.48,2.38,1.07,3.15,1.79.77.71,1.4,1.61,1.89,2.69.49,1.08.82,2.11.99,3.11.17.99.28,2.09.34,3.3Zm-10.92,5.38c.64,0,1.22-.36,1.72-1.09.5-.73.83-1.62.99-2.67.15-1.05.19-2.09.11-3.13-.08-1.04-.39-1.92-.9-2.67-.52-.74-1.18-1.11-2-1.11-.59,0-1.12.37-1.6,1.11-.48.74-.79,1.63-.95,2.67-.15,1.04-.2,2.08-.13,3.13.07,1.05.34,1.94.82,2.67.48.73,1.12,1.09,1.93,1.09Z"/>
    <path class="cls-3" d="m315.28,71.02c.73.31,1.28.78,1.66,1.41.38.63.53,1.32.44,2.06-.08.74-.34,1.47-.78,2.18-.43.71-1.12,1.34-2.06,1.89-.94.55-2.05.9-3.34,1.07-1.43.2-2.75.2-3.97,0-1.22-.2-2.34-.68-3.36-1.45-1.02-.77-1.73-1.8-2.12-3.09-.08-.25-.15-.52-.21-.8-.06-.28-.09-.59-.11-.92s-.03-.64-.04-.92c-.01-.28,0-.64.02-1.07.03-.43.05-.78.06-1.05.01-.27.05-.65.11-1.15.06-.5.09-.87.1-1.09s.06-.61.13-1.16c.07-.55.12-.92.15-1.11,0-.17-.06-.27-.17-.31-.11-.04-.28-.05-.5-.02-.22.03-.47.06-.74.08-.27.03-.57.03-.9,0-.34-.03-.66-.1-.97-.21-.76-.31-1.27-.97-1.53-1.97-.27-1.01-.29-1.97-.06-2.88.22-.91.56-1.46,1.01-1.66.59-.2,1.24-.3,1.95-.31.71-.01,1.26-.02,1.64-.02s.55-.11.53-.34c0-.56,0-1.04-.02-1.43-.01-.39-.03-.63-.04-.71-.01-.08-.02-.21-.02-.38s0-.34.02-.52c.01-.18.04-.54.06-1.07.06-.81.35-1.51.88-2.1.53-.59,1.17-.97,1.91-1.13.74-.17,1.5-.19,2.27-.06.77.13,1.45.48,2.04,1.07.59.59.95,1.33,1.09,2.23.11.7.14,1.42.08,2.16-.06.74-.12,1.25-.19,1.53-.07.28-.04.6.11.97.17.2.36.31.59.36.22.04.59.08,1.11.1.52.03,1.01.08,1.49.17.59.11,1.06.41,1.43.9.36.49.56,1.03.59,1.62.03.59-.03,1.17-.17,1.74-.14.57-.42,1.04-.84,1.41-.42.36-.9.52-1.43.46-1.04-.14-1.83-.21-2.37-.21s-.85.17-.9.5c-.08.45-.15,1.18-.21,2.21-.06,1.02-.04,2.09.06,3.19.1,1.11.3,1.74.61,1.91.28.14.54.13.78-.04.24-.17.44-.42.61-.76s.4-.66.69-.97c.29-.31.66-.51,1.09-.61.43-.1,1.01,0,1.74.31Z"/>
    <path class="cls-3" d="m332.67,71.69c1.18-.7,2.28-.62,3.32.23,1.04.85,1.56,1.92,1.57,3.19.01,1.27-.47,2.32-1.45,3.13-1.34.81-3.07,1.32-5.17,1.53-2.1.21-3.96.09-5.59-.36-2.35-.62-4.22-1.95-5.61-4.01-1.39-2.06-2.08-4.71-2.08-7.96,0-2.35.43-4.35,1.28-6.01.85-1.65,2.01-2.88,3.46-3.67,1.46-.8,3.16-1.2,5.1-1.2s4.01.42,6.2,1.26c1.04.42,1.9,1.07,2.6,1.95.7.88,1.15,1.84,1.36,2.88.21,1.04.25,2.05.11,3.04-.14.99-.53,1.87-1.18,2.62-.64.76-1.46,1.23-2.44,1.43-1.54.34-3,.53-4.37.59-1.37.06-2.37.04-2.98-.04l-.88-.13c.06.56.26,1.06.61,1.49.35.43.8.76,1.34.99.55.22,1.24.26,2.08.1.84-.15,1.74-.51,2.69-1.07Zm-4.37-8.82c-.78.03-1.38.24-1.79.63-.41.39-.44.81-.1,1.26.2.28.85.39,1.97.31,1.12-.07,1.78-.27,1.97-.61.11-.2.11-.42-.02-.67s-.38-.47-.76-.65-.81-.27-1.28-.27Z"/>
    <path class="cls-3" d="m346.04,55.15c-.8.67-1.77,1.01-2.92,1.01s-2.13-.34-2.94-1.01c-.81-.67-1.22-1.49-1.22-2.46s.41-1.79,1.22-2.48c.81-.69,1.79-1.03,2.94-1.03s2.12.34,2.92,1.03c.8.69,1.2,1.51,1.2,2.48s-.4,1.78-1.2,2.46Zm.95,5.25c.36,1.34.59,3.46.67,6.36s-.06,5.64-.42,8.21c-.28,1.74-1.13,2.88-2.56,3.44s-2.77.47-4.03-.27c-1.26-.74-1.79-1.85-1.6-3.34.28-2.27.32-4.62.13-7.06,0-.2-.03-.62-.08-1.28-.06-.66-.09-1.12-.1-1.39-.01-.27-.02-.68-.02-1.24s.03-1.11.08-1.64c.06-.53.14-1.13.25-1.81.14-.84.57-1.5,1.3-1.97.73-.48,1.52-.72,2.37-.73s1.67.22,2.46.69c.78.48,1.3,1.15,1.55,2.02Z"/>
    <path class="cls-3" d="m369.2,65.14c.31,5.29.06,8.99-.76,11.09-.34.84-.84,1.48-1.51,1.93-.67.45-1.37.65-2.08.61s-1.4-.21-2.06-.5c-.66-.29-1.16-.78-1.51-1.45-.35-.67-.47-1.41-.36-2.23.62-3.61.57-6.57-.13-8.86-.56-1.74-1.36-2.38-2.39-1.93-.34.17-.62.41-.86.73-.24.32-.4.76-.48,1.3s-.15,1.07-.19,1.57c-.04.5-.03,1.19.04,2.06.07.87.13,1.59.19,2.16.06.57.14,1.38.25,2.42.14,1.15.01,2.11-.38,2.9-.39.78-.93,1.3-1.62,1.53-.69.24-1.4.34-2.14.31s-1.43-.24-2.06-.63c-.63-.39-1.06-.9-1.28-1.51-.39-1.04-.61-2.32-.65-3.86-.04-1.54-.03-3.23.04-5.08.07-1.85-.04-4.28-.32-7.31-.08-1.15.25-2.04,1.01-2.69s1.62-.99,2.6-1.03c.98-.04,1.93.1,2.86.44.92.34,1.47.81,1.64,1.43.06.17.17.15.34-.04.87-.95,2.08-1.53,3.65-1.72,2.21-.22,4.09.47,5.63,2.08,1.54,1.61,2.38,3.7,2.52,6.28Z"/>
  </g>
</svg>