<?xml version="1.0" encoding="UTF-8"?>
<svg id="protein" xmlns="http://www.w3.org/2000/svg" viewBox="0 0 514.74 143.16">
  <defs>
    <style>
      .cls-1 {
        fill: #fff;
      }

      .cls-2 {
        isolation: isolate;
        opacity: .05;
      }

      .cls-3 {
        fill: #7ac9d6;
      }
    </style>
  </defs>
  <path class="cls-2" d="m77.94,50.76L3.76,81.35l87.25,24.21,3.96,29.46,395.29,2.39,10.13-123.81c-125.87-.07-307.79,2.36-423.05,3.37l.59,33.79h0Z"/>
  <path class="cls-1" d="m87.94,40.76L13.76,71.35l87.25,24.21,3.96,29.46,395.29,2.39,10.13-123.81L87.35,6.96l.59,33.79Z"/>
  <g>
    <path class="cls-3" d="m180.58,71.57c1.68-.95,3.02-.84,4.03.34.9.98,1.16,2.21.8,3.7-.39,1.62-1.44,2.73-3.15,3.32-1.68.62-3.35.96-5.02,1.03-1.67.07-3.27-.15-4.81-.67-1.54-.52-2.91-1.32-4.1-2.42s-2.13-2.6-2.83-4.52c-.7-1.92-1.05-4.15-1.05-6.7,0-4.2.72-7.63,2.16-10.29,1.44-2.66,3.37-4.38,5.78-5.17,1.68-.56,3.61-.71,5.8-.44,2.18.27,3.96.93,5.33,1.99,1.26.95,1.75,2.31,1.47,4.07-.22,1.51-.85,2.55-1.89,3.11-.95.53-1.92.35-2.9-.55-.98-.9-1.89-1.36-2.73-1.39-.84-.03-1.52.25-2.04.84-.52.59-.96,1.34-1.32,2.27-.36.92-.62,1.81-.78,2.65-.15.84-.25,1.58-.27,2.23,0,.9.07,1.77.21,2.62.14.85.39,1.67.76,2.46.36.78.83,1.4,1.39,1.85.56.45,1.29.66,2.18.63.9-.03,1.89-.35,2.98-.97Z"/>
    <path class="cls-3" d="m206.67,75.14c.17.92.05,1.72-.36,2.39s-.97,1.15-1.7,1.43c-.73.28-1.48.46-2.27.55s-1.49.02-2.12-.19-1.01-.5-1.15-.86l-.17-.76c-.03.06-.06.13-.11.23-.04.1-.19.27-.44.53-.25.25-.57.46-.94.63s-.97.31-1.76.42c-.8.11-1.71.13-2.75.04-1.2-.08-2.26-.45-3.17-1.09s-1.6-1.43-2.08-2.37c-.48-.94-.87-1.97-1.18-3.11-.31-1.13-.46-2.25-.46-3.36s.03-2.15.08-3.13c.11-1.2.37-2.37.78-3.49.41-1.12.94-2.16,1.6-3.11.66-.95,1.5-1.71,2.54-2.29,1.04-.57,2.18-.88,3.44-.9.64,0,1.23.08,1.76.25.53.17.94.38,1.22.63s.51.5.69.76c.18.25.3.48.36.67l.08.25c-.06-.42-.04-.83.04-1.22.11-.5.44-.92.99-1.26s1.17-.52,1.87-.57c.7-.04,1.39,0,2.08.15.69.14,1.27.44,1.76.9.49.46.76,1.04.82,1.74.06,1.26.06,2.72,0,4.37-.06,1.65-.04,3.67.04,6.07s.25,4.29.5,5.69Zm-8.11-3.82c0-.2.01-.59.04-1.18.03-.59.05-1.28.06-2.08.01-.8,0-1.55-.04-2.27-.04-.71-.12-1.18-.23-1.41-.06-.06-.12-.11-.19-.17-.07-.06-.24-.15-.5-.29-.27-.14-.51-.24-.74-.29-.22-.06-.5-.1-.82-.15-.32-.04-.58.02-.78.19-.39.22-.7.48-.92.78-.22.29-.39.69-.5,1.18-.11.49-.2,1.15-.25,1.99-.03.67,0,1.38.1,2.12.1.74.29,1.43.57,2.06.28.63.63,1.02,1.05,1.15.76.22,1.46.13,2.1-.27.64-.41.99-.86,1.05-1.36Z"/>
    <path class="cls-3" d="m226.58,59.81c.39.64.55,1.35.46,2.12-.08.77-.37,1.43-.86,1.97-.49.55-1.11.94-1.87,1.18-.76.24-1.61.16-2.56-.23-2.18-.95-3.63-1.25-4.33-.88-.34.14-.62.37-.86.69-.24.32-.4.76-.48,1.3s-.15,1.07-.19,1.57c-.04.5-.03,1.19.04,2.06.07.87.13,1.59.19,2.16.06.57.14,1.38.25,2.42.14,1.15.01,2.11-.38,2.9-.39.78-.93,1.3-1.62,1.55-.69.25-1.4.36-2.14.31s-1.43-.26-2.06-.65-1.06-.9-1.28-1.51c-.39-1.04-.61-2.32-.65-3.86-.04-1.54-.03-3.23.04-5.08.07-1.85-.04-4.28-.32-7.31-.08-1.15.25-2.04,1.01-2.69.76-.64,1.62-.99,2.6-1.03.98-.04,1.93.1,2.86.44.92.34,1.47.81,1.64,1.43l.13.13c.2-.17.34-.31.42-.44s.23-.27.44-.42c.21-.15.43-.3.67-.44.24-.14.57-.27.99-.38.42-.11.87-.17,1.34-.17,1.37-.08,2.65.13,3.84.65,1.19.52,2.08,1.25,2.67,2.2Z"/>
    <path class="cls-3" d="m248.12,66.53c.03.67.06,1.39.08,2.16.03.77-.02,1.57-.15,2.39-.13.83-.28,1.62-.46,2.39-.18.77-.47,1.51-.86,2.23-.39.71-.83,1.34-1.3,1.89-.48.55-1.07,1-1.79,1.37-.71.36-1.51.57-2.37.63-1.04.08-1.95.08-2.75-.02s-1.39-.25-1.79-.46c-.39-.21-.71-.41-.95-.61-.24-.2-.38-.38-.44-.55l-.08-.21c.06.11,0,.36-.15.74-.15.38-.52.67-1.09.88-.57.21-1.23.28-1.95.21-.73-.07-1.44-.25-2.12-.55-.69-.29-1.25-.78-1.68-1.45-.43-.67-.62-1.47-.57-2.39.14-2.69.17-6.48.08-11.38-.08-4.9-.18-8.3-.29-10.21-.03-.62.1-1.17.38-1.66.28-.49.65-.87,1.11-1.15.46-.28.99-.49,1.58-.63.59-.14,1.18-.17,1.79-.08.6.08,1.15.24,1.66.46.5.22.92.57,1.26,1.05.34.48.52,1.02.55,1.64l-.21,6.09c.03-.08.06-.18.1-.29.04-.11.15-.31.34-.61.18-.29.41-.55.69-.78.28-.22.69-.43,1.22-.61.53-.18,1.12-.27,1.76-.27,1.26.03,2.41.33,3.44.9,1.04.57,1.88,1.34,2.54,2.29.66.95,1.19,1.99,1.6,3.11.41,1.12.68,2.28.82,3.49Zm-9.32,6.47c.62-.2,1.1-.77,1.45-1.72.35-.95.5-1.92.44-2.9-.14-2.83-.77-4.4-1.89-4.7-.39-.08-.74-.1-1.05-.06-.31.04-.59.13-.84.27-.25.14-.46.28-.63.42-.17.14-.29.28-.38.42l-.13.17c-.14.28-.22.95-.25,2-.03,1.05-.03,1.97,0,2.75.03.78.06,1.36.08,1.72.06.48.41.92,1.05,1.34.64.42,1.36.52,2.14.29Z"/>
    <path class="cls-3" d="m270.93,67.62c0,.87-.02,1.66-.06,2.37-.04.71-.15,1.49-.34,2.33-.18.84-.43,1.59-.76,2.25-.32.66-.78,1.3-1.37,1.93s-1.28,1.15-2.08,1.57c-.8.42-1.79.76-2.98,1.01s-2.54.38-4.05.38-2.81-.19-3.99-.57c-1.18-.38-2.13-.87-2.88-1.47-.74-.6-1.37-1.34-1.87-2.21-.5-.87-.88-1.75-1.11-2.65-.24-.9-.39-1.87-.44-2.92-.06-1.05-.06-2,0-2.86.06-.85.15-1.73.29-2.62.42-2.8,1.51-4.86,3.28-6.17,1.76-1.32,4.21-1.97,7.35-1.97,1.76,0,3.31.24,4.64.71,1.33.48,2.38,1.07,3.15,1.79.77.71,1.4,1.61,1.89,2.69.49,1.08.82,2.11.99,3.11.17.99.28,2.09.34,3.3Zm-10.92,5.38c.64,0,1.22-.36,1.72-1.09.5-.73.83-1.62.99-2.67.15-1.05.19-2.09.11-3.13-.08-1.04-.39-1.92-.9-2.67-.52-.74-1.18-1.11-2-1.11-.59,0-1.12.37-1.6,1.11-.48.74-.79,1.63-.95,2.67-.15,1.04-.2,2.08-.13,3.13.07,1.05.34,1.94.82,2.67.48.73,1.12,1.09,1.93,1.09Z"/>
    <path class="cls-3" d="m292.51,65.14c.28,4.96-.06,8.65-1.01,11.09-.31.84-.79,1.48-1.45,1.93-.66.45-1.34.65-2.04.61s-1.37-.21-2-.5c-.63-.29-1.12-.78-1.47-1.45-.35-.67-.46-1.4-.32-2.18.62-3.61.57-6.58-.13-8.9-.53-1.76-1.33-2.39-2.39-1.89-.25.11-.48.27-.67.48-.2.21-.35.49-.46.84-.11.35-.2.69-.27,1.01-.07.32-.11.76-.13,1.3-.01.55-.01,1.02,0,1.43.01.41.05.95.11,1.64.06.69.11,1.25.17,1.7.06.45.13,1.06.21,1.85.14,1.12.01,2.07-.38,2.86-.39.78-.93,1.3-1.62,1.55-.69.25-1.4.36-2.14.31s-1.43-.26-2.06-.65c-.63-.39-1.06-.9-1.28-1.51-.62-1.65-.99-4.89-1.13-9.7-.14-4.82-.07-9.1.21-12.85.06-.95.37-1.76.95-2.44.57-.67,1.25-1.11,2.04-1.3.78-.2,1.56-.24,2.33-.13.77.11,1.43.49,1.97,1.13.55.64.83,1.47.86,2.48,0,.59,0,1.18-.02,1.76-.01.59-.04,1.04-.06,1.34-.03.31-.04.6-.02.88.01.28.04.52.06.71.03.11.06.17.1.17s.1-.04.17-.13.15-.18.25-.29c.1-.11.25-.24.44-.4.2-.15.42-.3.67-.44s.59-.27,1.01-.4.87-.2,1.34-.23c2.21-.22,4.08.46,5.61,2.06,1.53,1.6,2.37,3.68,2.54,6.26Z"/>
    <path class="cls-3" d="m313.77,61.74c-.08.48-.15,1.81-.21,3.99-.06,2.18-.03,4.33.08,6.43.2,1.15.25,2.95.17,5.42-.08,2.46-.35,4.47-.8,6.01-.39,1.32-1.22,2.38-2.48,3.19-1.26.81-2.62,1.31-4.09,1.49s-2.93.15-4.39-.08c-1.46-.24-2.6-.65-3.44-1.24-.95-.81-1.45-1.75-1.49-2.81-.04-1.06.33-1.96,1.11-2.69.78-.73,1.65-.88,2.6-.46.42.2.87.34,1.34.44.48.1.97.15,1.49.15s.97-.14,1.36-.42c.39-.28.64-.69.76-1.22.03-.14.06-.46.08-.97.03-.5.04-.77.04-.8-.03-.11-.06-.17-.1-.17s-.1.03-.17.08c-.07.06-.15.14-.25.25-.1.11-.25.23-.44.36s-.42.25-.67.38-.58.25-.99.36c-.41.11-.86.2-1.36.25-1.46.14-2.79-.11-3.99-.76-1.2-.64-2.17-1.61-2.9-2.9-.73-1.29-1.13-2.77-1.22-4.45-.31-5.32-.06-9.02.76-11.09.31-.84.8-1.48,1.47-1.93.67-.45,1.37-.65,2.1-.61.73.04,1.41.21,2.06.5s1.15.78,1.51,1.45c.36.67.48,1.4.34,2.18-.28,1.74-.48,3.21-.59,4.43-.11,1.22-.13,2.44-.06,3.67.07,1.23.37,2.08.9,2.54.53.46,1.29.51,2.27.15.7-.25,1.11-.76,1.22-1.51.17-1.04.15-3.04-.04-6.03-.2-2.98-.22-4.82-.08-5.52.11-.59.5-1.06,1.16-1.43.66-.36,1.41-.55,2.25-.57s1.65.08,2.44.29,1.4.64,1.85,1.28c.45.64.59,1.43.42,2.35Z"/>
    <path class="cls-3" d="m335.44,75.18c.11.92-.04,1.72-.46,2.39s-.98,1.15-1.68,1.43c-.7.28-1.42.46-2.14.55-.73.08-1.39.02-2-.19-.6-.21-.97-.5-1.11-.86l-.17-.76c-.03.06-.06.13-.11.23-.04.1-.19.27-.44.53-.25.25-.57.46-.94.63s-.97.31-1.76.42c-.8.11-1.71.13-2.75.04-1.2-.08-2.26-.45-3.17-1.09s-1.6-1.43-2.08-2.37c-.48-.94-.87-1.98-1.18-3.13-.31-1.15-.46-2.27-.46-3.36s.03-2.13.08-3.11c.11-1.2.37-2.37.78-3.49.41-1.12.94-2.16,1.6-3.11.66-.95,1.5-1.71,2.54-2.29,1.04-.57,2.18-.88,3.44-.9.64,0,1.23.08,1.76.25.53.17.94.38,1.22.63s.51.5.69.76c.18.25.3.48.36.67l.08.25-.21-6.09c.06-.87.37-1.58.95-2.14.57-.56,1.25-.88,2.04-.97.78-.08,1.55-.03,2.31.15.76.18,1.39.57,1.89,1.18.5.6.73,1.32.67,2.16-.06.62-.1,1.54-.13,2.77-.03,1.23-.05,2.71-.06,4.43-.01,1.72-.01,3.44,0,5.15.01,1.71.06,3.41.13,5.1.07,1.69.17,3.07.32,4.14Zm-7.9-3.82c.03-.34.06-.94.08-1.81.03-.87.03-1.87,0-3-.03-1.13-.11-1.84-.25-2.12-.06-.06-.12-.11-.19-.17-.07-.06-.24-.16-.5-.31-.27-.15-.51-.26-.74-.31-.22-.06-.5-.1-.82-.13-.32-.03-.58.03-.78.17-.59.36-.99.81-1.22,1.34-.22.53-.38,1.41-.46,2.65-.06,1.09.06,2.21.36,3.34.29,1.13.74,1.8,1.32,1.99.78.22,1.5.13,2.14-.29.64-.42.99-.87,1.05-1.34Z"/>
    <path class="cls-3" d="m355.34,59.81c.39.64.55,1.35.46,2.12-.08.77-.37,1.43-.86,1.97-.49.55-1.11.94-1.87,1.18-.76.24-1.61.16-2.56-.23-2.18-.95-3.63-1.25-4.33-.88-.34.14-.62.37-.86.69-.24.32-.4.76-.48,1.3s-.15,1.07-.19,1.57c-.04.5-.03,1.19.04,2.06.07.87.13,1.59.19,2.16.06.57.14,1.38.25,2.42.14,1.15.01,2.11-.38,2.9-.39.78-.93,1.3-1.62,1.55-.69.25-1.4.36-2.14.31s-1.43-.26-2.06-.65-1.06-.9-1.28-1.51c-.39-1.04-.61-2.32-.65-3.86-.04-1.54-.03-3.23.04-5.08.07-1.85-.04-4.28-.32-7.31-.08-1.15.25-2.04,1.01-2.69.76-.64,1.62-.99,2.6-1.03.98-.04,1.93.1,2.86.44.92.34,1.47.81,1.64,1.43l.13.13c.2-.17.34-.31.42-.44s.23-.27.44-.42c.21-.15.43-.3.67-.44.24-.14.57-.27.99-.38.42-.11.87-.17,1.34-.17,1.37-.08,2.65.13,3.84.65,1.19.52,2.08,1.25,2.67,2.2Z"/>
    <path class="cls-3" d="m376.68,75.14c.17.92.05,1.72-.36,2.39s-.97,1.15-1.7,1.43c-.73.28-1.48.46-2.27.55s-1.49.02-2.12-.19-1.01-.5-1.15-.86l-.17-.76c-.03.06-.06.13-.11.23-.04.1-.19.27-.44.53-.25.25-.57.46-.94.63s-.97.31-1.76.42c-.8.11-1.71.13-2.75.04-1.2-.08-2.26-.45-3.17-1.09s-1.6-1.43-2.08-2.37c-.48-.94-.87-1.97-1.18-3.11-.31-1.13-.46-2.25-.46-3.36s.03-2.15.08-3.13c.11-1.2.37-2.37.78-3.49.41-1.12.94-2.16,1.6-3.11.66-.95,1.5-1.71,2.54-2.29,1.04-.57,2.18-.88,3.44-.9.64,0,1.23.08,1.76.25.53.17.94.38,1.22.63s.51.5.69.76c.18.25.3.48.36.67l.08.25c-.06-.42-.04-.83.04-1.22.11-.5.44-.92.99-1.26s1.17-.52,1.87-.57c.7-.04,1.39,0,2.08.15.69.14,1.27.44,1.76.9.49.46.76,1.04.82,1.74.06,1.26.06,2.72,0,4.37-.06,1.65-.04,3.67.04,6.07s.25,4.29.5,5.69Zm-8.11-3.82c0-.2.01-.59.04-1.18.03-.59.05-1.28.06-2.08.01-.8,0-1.55-.04-2.27-.04-.71-.12-1.18-.23-1.41-.06-.06-.12-.11-.19-.17-.07-.06-.24-.15-.5-.29-.27-.14-.51-.24-.74-.29-.22-.06-.5-.1-.82-.15-.32-.04-.58.02-.78.19-.39.22-.7.48-.92.78-.22.29-.39.69-.5,1.18-.11.49-.2,1.15-.25,1.99-.03.67,0,1.38.1,2.12.1.74.29,1.43.57,2.06.28.63.63,1.02,1.05,1.15.76.22,1.46.13,2.1-.27.64-.41.99-.86,1.05-1.36Z"/>
    <path class="cls-3" d="m395.58,71.02c.73.31,1.28.78,1.66,1.41.38.63.53,1.32.44,2.06-.08.74-.34,1.47-.78,2.18-.43.71-1.12,1.34-2.06,1.89-.94.55-2.05.9-3.34,1.07-1.43.2-2.75.2-3.97,0-1.22-.2-2.34-.68-3.36-1.45-1.02-.77-1.73-1.8-2.12-3.09-.08-.25-.15-.52-.21-.8-.06-.28-.09-.59-.11-.92s-.03-.64-.04-.92c-.01-.28,0-.64.02-1.07.03-.43.05-.78.06-1.05.01-.27.05-.65.11-1.15.06-.5.09-.87.1-1.09s.06-.61.13-1.16c.07-.55.12-.92.15-1.11,0-.17-.06-.27-.17-.31-.11-.04-.28-.05-.5-.02-.22.03-.47.06-.74.08-.27.03-.57.03-.9,0-.34-.03-.66-.1-.97-.21-.76-.31-1.27-.97-1.53-1.97-.27-1.01-.29-1.97-.06-2.88.22-.91.56-1.46,1.01-1.66.59-.2,1.24-.3,1.95-.31.71-.01,1.26-.02,1.64-.02s.55-.11.53-.34c0-.56,0-1.04-.02-1.43-.01-.39-.03-.63-.04-.71-.01-.08-.02-.21-.02-.38s0-.34.02-.52c.01-.18.04-.54.06-1.07.06-.81.35-1.51.88-2.1.53-.59,1.17-.97,1.91-1.13.74-.17,1.5-.19,2.27-.06.77.13,1.45.48,2.04,1.07.59.59.95,1.33,1.09,2.23.11.7.14,1.42.08,2.16-.06.74-.12,1.25-.19,1.53-.07.28-.04.6.11.97.17.2.36.31.59.36.22.04.59.08,1.11.1.52.03,1.01.08,1.49.17.59.11,1.06.41,1.43.9.36.49.56,1.03.59,1.62.03.59-.03,1.17-.17,1.74-.14.57-.42,1.04-.84,1.41-.42.36-.9.52-1.43.46-1.04-.14-1.83-.21-2.37-.21s-.85.17-.9.5c-.08.45-.15,1.18-.21,2.21-.06,1.02-.04,2.09.06,3.19.1,1.11.3,1.74.61,1.91.28.14.54.13.78-.04.24-.17.44-.42.61-.76s.4-.66.69-.97c.29-.31.66-.51,1.09-.61.43-.1,1.01,0,1.74.31Z"/>
    <path class="cls-3" d="m412.97,71.69c1.18-.7,2.28-.62,3.32.23,1.04.85,1.56,1.92,1.57,3.19.01,1.27-.47,2.32-1.45,3.13-1.34.81-3.07,1.32-5.17,1.53-2.1.21-3.96.09-5.59-.36-2.35-.62-4.22-1.95-5.61-4.01-1.39-2.06-2.08-4.71-2.08-7.96,0-2.35.43-4.35,1.28-6.01.85-1.65,2.01-2.88,3.46-3.67,1.46-.8,3.16-1.2,5.1-1.2s4.01.42,6.2,1.26c1.04.42,1.9,1.07,2.6,1.95.7.88,1.15,1.84,1.36,2.88.21,1.04.25,2.05.11,3.04-.14.99-.53,1.87-1.18,2.62-.64.76-1.46,1.23-2.44,1.43-1.54.34-3,.53-4.37.59-1.37.06-2.37.04-2.98-.04l-.88-.13c.06.56.26,1.06.61,1.49.35.43.8.76,1.34.99.55.22,1.24.26,2.08.1.84-.15,1.74-.51,2.69-1.07Zm-4.37-8.82c-.78.03-1.38.24-1.79.63-.41.39-.44.81-.1,1.26.2.28.85.39,1.97.31,1.12-.07,1.78-.27,1.97-.61.11-.2.11-.42-.02-.67s-.38-.47-.76-.65-.81-.27-1.28-.27Z"/>
    <path class="cls-3" d="m436.74,68.71c1.06,1.01,1.69,2.15,1.89,3.42.2,1.27.02,2.45-.53,3.53-.55,1.08-1.43,2.01-2.65,2.79-1.22.78-2.61,1.25-4.18,1.39-1.34.08-2.62.06-3.84-.06-1.22-.13-2.24-.31-3.07-.55-.83-.24-1.6-.54-2.33-.9-.73-.36-1.27-.68-1.62-.95-.35-.27-.67-.52-.95-.78-.5-.48-.77-1.09-.8-1.85-.03-.76.15-1.43.53-2.04.38-.6.9-1.06,1.57-1.36.67-.31,1.47-.25,2.39.17.78.36,1.44.66,1.97.88.53.22,1.06.43,1.58.61.52.18.94.3,1.26.36s.62.08.88.06c.27-.01.48-.09.63-.23.15-.14.26-.34.31-.59.11-.42-.13-.77-.71-1.05-.59-.28-1.34-.53-2.27-.76-.93-.22-1.87-.5-2.84-.82-.97-.32-1.81-.84-2.54-1.55-.73-.71-1.15-1.59-1.26-2.62-.14-1.43.02-2.73.48-3.91.46-1.18,1.11-2.11,1.95-2.81.84-.7,1.71-1.25,2.62-1.64.91-.39,1.8-.66,2.67-.8,2.35-.31,4.51.03,6.47,1.01,1.51.76,2.09,1.86,1.72,3.32-.25,1.09-.85,1.86-1.81,2.31-.7.34-1.36.32-1.97-.04-1.37-.78-2.48-1.06-3.32-.84-.84.22-1.2.9-1.09,2.02.06.5.39.89,1.01,1.16.62.27,1.34.46,2.16.57.83.11,1.79.39,2.88.82,1.09.43,2.02,1.02,2.77,1.74Z"/>
  </g>
</svg>