<?xml version="1.0" encoding="UTF-8"?>
<svg id="protein" xmlns="http://www.w3.org/2000/svg" viewBox="0 0 514.74 143.16">
  <defs>
    <style>
      .cls-1 {
        fill: #fff;
      }

      .cls-2 {
        isolation: isolate;
        opacity: .05;
      }

      .cls-3 {
        fill: #7ac9d6;
      }
    </style>
  </defs>
  <path class="cls-2" d="m77.94,50.76L3.76,81.35l87.25,24.21,3.96,29.46,395.29,2.39,10.13-123.81c-125.87-.07-307.79,2.36-423.05,3.37l.59,33.79h0Z"/>
  <path class="cls-1" d="m87.94,40.76L13.76,71.35l87.25,24.21,3.96,29.46,395.29,2.39,10.13-123.81L87.35,6.96l.59,33.79Z"/>
  <g>
    <path class="cls-3" d="m271.07,62.07c.67,0,1.23.28,1.68.84.45.56.71,1.19.8,1.89.08.7-.06,1.37-.42,2.02-.36.64-.91,1.02-1.64,1.13-1.09.17-2.02.23-2.79.19-.77-.04-1.42-.06-1.95-.06s-.87.09-1.01.27c-.14.18-.22.63-.25,1.34-.03.71-.06,1.66-.11,2.83-.04,1.18-.16,2.27-.36,3.28-.2,1.12-.71,1.98-1.53,2.58-.83.6-1.69.89-2.58.86-.9-.03-1.71-.35-2.44-.97-.73-.62-1.12-1.44-1.18-2.48-.06-.95-.02-2.51.11-4.68.13-2.17.16-4.1.1-5.77,0-.67-.08-1.67-.23-2.98-.15-1.32-.29-2.5-.4-3.55-.11-1.05-.17-2.16-.17-3.34s.11-2.1.34-2.77c.25-.78.83-1.36,1.74-1.72.91-.36,2.04-.55,3.4-.55s2.67.06,3.93.19,2.61.29,4.05.48c1.44.2,2.47.31,3.09.34,1.15.06,1.96.69,2.44,1.91.48,1.22.48,2.41,0,3.57-.48,1.16-1.29,1.69-2.44,1.58-.62-.06-1.49-.17-2.62-.34s-2.09-.29-2.88-.36c-.78-.07-1.34-.08-1.68-.02-.53.14-.85.65-.95,1.53-.1.88,0,1.55.32,2,.17.34.57.55,1.2.63.63.08,1.71.13,3.25.13h1.18Z"/>
    <path class="cls-3" d="m294.63,59.81c.39.64.55,1.35.46,2.12-.08.77-.37,1.43-.86,1.97-.49.55-1.11.94-1.87,1.18-.76.24-1.61.16-2.56-.23-2.18-.95-3.63-1.25-4.33-.88-.34.14-.62.37-.86.69-.24.32-.4.76-.48,1.3s-.15,1.07-.19,1.57c-.04.5-.03,1.19.04,2.06.07.87.13,1.59.19,2.16.06.57.14,1.38.25,2.42.14,1.15.01,2.11-.38,2.9-.39.78-.93,1.3-1.62,1.55-.69.25-1.4.36-2.14.31s-1.43-.26-2.06-.65-1.06-.9-1.28-1.51c-.39-1.04-.61-2.32-.65-3.86-.04-1.54-.03-3.23.04-5.08.07-1.85-.04-4.28-.32-7.31-.08-1.15.25-2.04,1.01-2.69.76-.64,1.62-.99,2.6-1.03.98-.04,1.93.1,2.86.44.92.34,1.47.81,1.64,1.43l.13.13c.2-.17.34-.31.42-.44s.23-.27.44-.42c.21-.15.43-.3.67-.44.24-.14.57-.27.99-.38.42-.11.87-.17,1.34-.17,1.37-.08,2.65.13,3.84.65,1.19.52,2.08,1.25,2.67,2.2Z"/>
    <path class="cls-3" d="m315.8,76.06c.11,1.15-.21,2.04-.97,2.69s-1.63.99-2.62,1.03c-.99.04-1.95-.1-2.86-.44s-1.46-.81-1.66-1.43c-.03-.11-.06-.17-.1-.17s-.1.04-.17.13c-.07.08-.15.18-.25.29-.1.11-.25.25-.44.4s-.42.3-.67.44c-.25.14-.58.27-.99.4s-.86.2-1.36.23c-2.21.22-4.08-.46-5.61-2.06-1.53-1.6-2.36-3.68-2.5-6.26-.31-5.32-.06-9.02.76-11.09.31-.84.8-1.48,1.47-1.93.67-.45,1.37-.65,2.1-.61.73.04,1.41.21,2.06.5s1.15.78,1.51,1.45c.36.67.48,1.4.34,2.18-.62,3.61-.57,6.58.13,8.9.56,1.76,1.36,2.39,2.39,1.89.36-.14.66-.38.88-.71s.38-.78.48-1.32c.1-.55.16-1.06.19-1.55.03-.49.01-1.17-.04-2.04-.06-.87-.11-1.59-.17-2.16-.06-.57-.15-1.39-.29-2.46-.14-1.12-.01-2.07.38-2.86.39-.78.93-1.3,1.62-1.55.69-.25,1.4-.36,2.14-.31.74.04,1.43.26,2.06.65.63.39,1.06.9,1.28,1.51.39,1.04.62,2.32.67,3.86.06,1.54.05,3.23-.02,5.08-.07,1.85.02,4.28.27,7.31Z"/>
    <path class="cls-3" d="m324.22,55.15c-.8.67-1.77,1.01-2.92,1.01s-2.13-.34-2.94-1.01c-.81-.67-1.22-1.49-1.22-2.46s.41-1.79,1.22-2.48c.81-.69,1.79-1.03,2.94-1.03s2.12.34,2.92,1.03c.8.69,1.2,1.51,1.2,2.48s-.4,1.78-1.2,2.46Zm.95,5.25c.36,1.34.59,3.46.67,6.36s-.06,5.64-.42,8.21c-.28,1.74-1.13,2.88-2.56,3.44s-2.77.47-4.03-.27c-1.26-.74-1.79-1.85-1.6-3.34.28-2.27.32-4.62.13-7.06,0-.2-.03-.62-.08-1.28-.06-.66-.09-1.12-.1-1.39-.01-.27-.02-.68-.02-1.24s.03-1.11.08-1.64c.06-.53.14-1.13.25-1.81.14-.84.57-1.5,1.3-1.97.73-.48,1.52-.72,2.37-.73s1.67.22,2.46.69c.78.48,1.3,1.15,1.55,2.02Z"/>
    <path class="cls-3" d="m344.74,71.02c.73.31,1.28.78,1.66,1.41.38.63.53,1.32.44,2.06-.08.74-.34,1.47-.78,2.18-.43.71-1.12,1.34-2.06,1.89-.94.55-2.05.9-3.34,1.07-1.43.2-2.75.2-3.97,0-1.22-.2-2.34-.68-3.36-1.45-1.02-.77-1.73-1.8-2.12-3.09-.08-.25-.15-.52-.21-.8-.06-.28-.09-.59-.11-.92s-.03-.64-.04-.92c-.01-.28,0-.64.02-1.07.03-.43.05-.78.06-1.05.01-.27.05-.65.11-1.15.06-.5.09-.87.1-1.09s.06-.61.13-1.16c.07-.55.12-.92.15-1.11,0-.17-.06-.27-.17-.31-.11-.04-.28-.05-.5-.02-.22.03-.47.06-.74.08-.27.03-.57.03-.9,0-.34-.03-.66-.1-.97-.21-.76-.31-1.27-.97-1.53-1.97-.27-1.01-.29-1.97-.06-2.88.22-.91.56-1.46,1.01-1.66.59-.2,1.24-.3,1.95-.31.71-.01,1.26-.02,1.64-.02s.55-.11.53-.34c0-.56,0-1.04-.02-1.43-.01-.39-.03-.63-.04-.71-.01-.08-.02-.21-.02-.38s0-.34.02-.52c.01-.18.04-.54.06-1.07.06-.81.35-1.51.88-2.1.53-.59,1.17-.97,1.91-1.13.74-.17,1.5-.19,2.27-.06.77.13,1.45.48,2.04,1.07.59.59.95,1.33,1.09,2.23.11.7.14,1.42.08,2.16-.06.74-.12,1.25-.19,1.53-.07.28-.04.6.11.97.17.2.36.31.59.36.22.04.59.08,1.11.1.52.03,1.01.08,1.49.17.59.11,1.06.41,1.43.9.36.49.56,1.03.59,1.62.03.59-.03,1.17-.17,1.74-.14.57-.42,1.04-.84,1.41-.42.36-.9.52-1.43.46-1.04-.14-1.83-.21-2.37-.21s-.85.17-.9.5c-.08.45-.15,1.18-.21,2.21-.06,1.02-.04,2.09.06,3.19.1,1.11.3,1.74.61,1.91.28.14.54.13.78-.04.24-.17.44-.42.61-.76s.4-.66.69-.97c.29-.31.66-.51,1.09-.61.43-.1,1.01,0,1.74.31Z"/>
  </g>
</svg>