<?xml version="1.0" encoding="UTF-8"?>
<svg id="hero_2-success" xmlns="http://www.w3.org/2000/svg" xmlns:xlink="http://www.w3.org/1999/xlink" viewBox="0 0 531.84 755">
  <defs>
    <style>
      .cls-1 {
        stroke: #e27d9f;
        stroke-width: 1.66px;
      }

      .cls-1, .cls-2, .cls-3, .cls-4, .cls-5, .cls-6, .cls-7, .cls-8, .cls-9, .cls-10, .cls-11, .cls-12, .cls-13 {
        stroke-miterlimit: 10;
      }

      .cls-1, .cls-5, .cls-8 {
        fill: #ffe9e1;
      }

      .cls-14 {
        fill: #fff;
      }

      .cls-2 {
        fill: #ffcd8a;
        stroke: #f4be7d;
      }

      .cls-2, .cls-4, .cls-8 {
        stroke-width: 2px;
      }

      .cls-15 {
        fill: #bc6464;
      }

      .cls-15, .cls-3 {
        opacity: .4;
      }

      .cls-16 {
        fill: #8e5552;
      }

      .cls-17 {
        fill: #b56f6f;
        opacity: .51;
      }

      .cls-3 {
        stroke: #ffd9e5;
        stroke-linecap: round;
      }

      .cls-3, .cls-18, .cls-9, .cls-12, .cls-13 {
        fill: none;
      }

      .cls-3, .cls-9 {
        stroke-width: 3px;
      }

      .cls-19 {
        fill: #a36c6c;
        opacity: .2;
      }

      .cls-20 {
        fill: #352727;
      }

      .cls-4, .cls-21, .cls-11 {
        fill: #ffa6bd;
      }

      .cls-4, .cls-11 {
        stroke: #ef8ba8;
      }

      .cls-5 {
        stroke-width: 2.45px;
      }

      .cls-5, .cls-8 {
        stroke: #e8cac1;
      }

      .cls-6 {
        stroke-width: 2.38px;
      }

      .cls-6, .cls-7 {
        fill: #c98d85;
      }

      .cls-6, .cls-7, .cls-9, .cls-12 {
        stroke: #b2746f;
      }

      .cls-7, .cls-12 {
        stroke-width: 2.16px;
      }

      .cls-22 {
        clip-path: url(#clippath);
      }

      .cls-23, .cls-10 {
        fill: #fff4f3;
      }

      .cls-24 {
        fill: #ce8680;
      }

      .cls-10 {
        stroke: #a86865;
        stroke-width: 2.18px;
      }

      .cls-11 {
        stroke-width: 2.54px;
      }

      .cls-13 {
        stroke: #d8759b;
        stroke-width: 2.97px;
      }
    </style>
    <clipPath id="clippath">
      <path class="cls-18" d="m335.62,240.76c2.85,56.04-42.81,113.92-102.61,116.96-59.8,3.04-111.11-49.9-113.96-105.94s43.83-93.94,103.63-96.99c59.8-3.04,110.09,29.93,112.94,85.96Z"/>
    </clipPath>
  </defs>
  <path class="cls-6" d="m57.92,354.34c.6-4.34-1.73-8.72-5.51-15.82-1.91-3.59-3.73-7.01-5.29-6.75-1.33.22-2.64,3.14-2.93,14.06-2.49-1.04-6.74-2.4-11.99-2.05-3.02.2-9.3,1.18-9.56,3.27-.14,1.1,1.3,3.27,12.89,7.12-2.11-.39-5.85-.78-10.06.61-3.22,1.07-7.92,3.59-7.58,5.34.22,1.16,2.73,2.37,13.27,2.39-2.31.17-6.15.75-10.25,2.98-1.9,1.03-5.24,2.85-4.97,4,.26,1.12,3.97,1.93,20.12.2,11.86-1.8,20.86-8.15,21.86-15.38Z"/>
  <ellipse class="cls-19" cx="252.24" cy="728.77" rx="134.13" ry="11.82"/>
  <path class="cls-4" d="m288.67,698.04l-31.73,1.61-7.23-142.1-5.38.27,7.23,142.1-31.73,1.61-71.24-245.39c-5.78-42.82,22.34-81.45,65.09-83.66l47.71-2.43c43.21-2.2,78.98,33.19,77.24,76.41l-49.96,251.55Z"/>
  <path class="cls-4" d="m189.02,398.99s-11.49,46.95-39.75,29.27c-27.22-17.03-76.8-43.59-102.95-57.04l14.71-30.19c48.77,17.81,119.91,41.12,119.91,41.12,0,0,11.57,2.71,8.09,16.85Z"/>
  <rect class="cls-18" x="248.32" y="557.6" width="5.39" height="157.04" transform="translate(-32.01 13.58) rotate(-2.91)"/>
  <g>
    <path class="cls-1" d="m294.76,692.23l-6.26,17.53c4.81,2.97,10.35,5.39,15.83,12.18,2,2.48,3.65,4.92,5.03,7.21-9.66.93-17.98,1.35-26.16,1.21-6.04-.1-18.71-.59-27.85-5.96.05-7.88.07-32.92.07-32.92l39.35.76Z"/>
    <path class="cls-13" d="m296.89,713.58c-1.41-.68-5.09-2.21-9.76-1.46-6.58,1.05-10.17,5.83-10.89,6.82"/>
    <path class="cls-13" d="m290.93,709.07c-1.41-.68-5.09-2.21-9.76-1.46-6.58,1.05-10.17,5.83-10.89,6.82"/>
  </g>
  <g>
    <path class="cls-1" d="m214.45,693.05l5.98,17.63c-4.86,2.89-10.44,5.22-16.02,11.93-2.04,2.45-3.73,4.86-5.14,7.13,9.65,1.08,17.96,1.63,26.14,1.62,6.04,0,18.72-.29,27.94-5.52.07-7.88.45-32.92.45-32.92l-39.36.14Z"/>
    <path class="cls-13" d="m211.99,714.35c1.42-.66,5.12-2.13,9.78-1.31,6.56,1.16,10.08,5.99,10.78,6.99"/>
    <path class="cls-13" d="m218.02,709.94c1.42-.66,5.12-2.13,9.78-1.31,6.56,1.16,10.08,5.99,10.78,6.99"/>
  </g>
  <circle class="cls-1" cx="240.5" cy="448.64" r="42.71"/>
  <path class="cls-8" d="m256.03,419.36c-5.8-2.16-11.64.54-19.43,4.13-10.46,4.82-22.11,10.2-24.78,22.47-2.46,11.27,3.47,24.6,14.09,29.92,15.2,7.62,34.53-3.89,40.69-18.57,6.01-14.32.4-33.87-10.57-37.96Z"/>
  <circle class="cls-2" cx="244.9" cy="451.38" r="10.18"/>
  <path class="cls-14" d="m240.54,444.48c-1,.49-1.85,1.36-2.37,2.33-.49.92-.75,1.92-.8,2.96-.04.84.77,1.65,1.61,1.61.91-.04,1.57-.71,1.61-1.61,0-.16.02-.31.04-.47l-.06.43c.06-.45.18-.88.35-1.3l-.16.39c.15-.36.35-.69.59-1.01l-.25.33c.21-.26.44-.5.7-.7l-.33.25c.22-.17.45-.31.69-.43.35-.17.64-.6.74-.96.11-.39.06-.9-.16-1.24s-.55-.65-.96-.74c-.44-.1-.84-.04-1.24.16h0Z"/>
  <g>
    <path class="cls-6" d="m374.13,533.98c-1.97,4.28-1.33,9.71-.3,18.51.52,4.45,1.02,8.7,2.5,9.02,1.26.27,3.4-2.24,7.26-13.46,1.89,2.03,5.23,5.07,10.04,6.71,2.77.94,8.7,2.34,9.63.26.49-1.09-.08-3.89-9.17-12.32,1.75,1.21,4.98,3.05,9.2,3.22,3.24.12,8.27-.69,8.55-2.64.18-1.29-1.65-3.5-11.08-7.56,2.12.71,5.75,1.58,10.15.83,2.04-.34,5.63-.95,5.77-2.25.14-1.26-2.91-3.52-17.93-7.92-11.2-2.67-21.35.46-24.63,7.58Z"/>
    <path class="cls-4" d="m334.47,418.91c10.05,27.06,11.14,29.99,31.03,61.91,10.62,17.05,21.48,31.97,31.95,44.91-8.08,6.03-17.53,13.09-25.61,19.12-8.4-7.11-9.89-9.63-19.81-19.99-16.56-17.31-18.97-25.1-23.02-33.91"/>
  </g>
  <path class="cls-5" d="m125.02,206.27c-5.03,10.63-9.49,23.79-11.06,39.16-6.29,61.32,38.51,107,47.33,115.67,19.43-27.29,38.85-54.58,58.28-81.87-14.25-27.09-28.49-54.18-42.74-81.27-17.27,2.77-34.53,5.54-51.8,8.31Z"/>
  <path class="cls-5" d="m323.08,196.19c6.08,10.06,11.85,22.71,14.98,37.84,12.49,60.37-27.44,110.36-35.34,119.87-22.1-25.18-44.19-50.35-66.29-75.53,11.42-28.4,22.84-56.79,34.27-85.19,17.46,1,34.92,2.01,52.38,3.01Z"/>
  <g>
    <path class="cls-7" d="m140.25,280.63c-2.42.06-10.7.56-17.23,6.95-1.69,1.65-5.24,5.13-5.87,10.21-1.25,10.01,9.22,22.79,18.64,20.79,5.54-1.17,9.9-7.28,11.4-14.65-2.31-7.77-4.63-15.54-6.94-23.3Z"/>
    <path class="cls-12" d="m145.51,302.42c-2.89-5.06-8.05-7.83-12.82-7.02-3.43.58-5.64,2.84-6.52,3.85"/>
  </g>
  <g>
    <path class="cls-7" d="m317.45,271.62c2.42-.19,10.7-.53,17.85,5.17,1.85,1.47,5.73,4.57,6.88,9.56,2.26,9.83-6.85,23.6-16.43,22.57-5.63-.61-10.58-6.24-12.83-13.41,1.51-7.96,3.03-15.92,4.54-23.89Z"/>
    <path class="cls-12" d="m314.43,293.83c2.36-5.32,7.21-8.61,12.05-8.29,3.47.23,5.9,2.25,6.87,3.17"/>
  </g>
  <polyline class="cls-11" points="207.8 374.11 206.17 341.92 259.65 339.2 261.28 371.39"/>
  <path class="cls-24" d="m335.62,240.76c2.85,56.04-42.81,113.92-102.61,116.96-59.8,3.04-111.11-49.9-113.96-105.94s43.83-93.94,103.63-96.99c59.8-3.04,110.09,29.93,112.94,85.96Z"/>
  <ellipse class="cls-15" cx="164.77" cy="311.87" rx="14.95" ry="9.05" transform="translate(-5.2 2.8) rotate(-.96)"/>
  <ellipse class="cls-15" cx="298.75" cy="304.68" rx="14.95" ry="9.05" transform="translate(-5.06 5.04) rotate(-.96)"/>
  <g class="cls-22">
    <path class="cls-17" d="m157.35,150.13c-6.14,9.88-33.9,64.21-22.66,117.58,16.16,76.77,94.65,92.96,99.33,94.63-34.13,6.15-68.26,12.29-102.4,18.44-16.5-52.71-32.99-105.42-49.49-158.13,25.07-24.17,50.14-48.34,75.21-72.52Z"/>
  </g>
  <path class="cls-9" d="m335.62,240.76c2.85,56.04-42.81,113.92-102.61,116.96-59.8,3.04-111.11-49.9-113.96-105.94s43.83-93.94,103.63-96.99c59.8-3.04,110.09,29.93,112.94,85.96Z"/>
  <g>
    <g>
      <path class="cls-23" d="m208.03,260.25c5,16.18-5.71,33.86-23.93,39.5-18.22,5.63-32.43-4.34-37.43-20.52-5-16.18,1.09-32.44,19.31-38.07,18.22-5.63,37.04,2.91,42.05,19.09Z"/>
      <circle class="cls-20" cx="182.17" cy="265.29" r="15.93"/>
      <polygon class="cls-23" points="177.24 265.9 152.76 273.4 165.53 279.96 177.24 265.9"/>
    </g>
    <path class="cls-16" d="m146.67,279.23c5.32,15.36,19.76,23.27,35.54,20.18,4.9-.93,9.62-2.96,13.89-5.84-3.65,3.64-8.37,6.31-13.49,7.63-16.21,4.42-33.24-4.97-35.94-21.97h0Z"/>
    <path class="cls-16" d="m145.02,269.79c-3.01-17.99,13.22-31.72,30.18-32.38,8.33-.25,17.08,1.87,23.6,7.27,6.44,5.22,10.33,13.41,10.38,21.6-1.74-7.82-6.07-14.78-12.28-19.12-19.63-13.23-50.93-3.12-51.88,22.63h0Z"/>
  </g>
  <g>
    <g>
      <path class="cls-23" d="m247.96,258.22c-3.34,16.6,9.12,33.11,27.81,36.86,18.7,3.76,31.82-7.61,35.16-24.21,3.34-16.6-4.38-32.16-23.08-35.91-18.7-3.76-36.55,6.66-39.89,23.26Z"/>
      <circle class="cls-20" cx="273.92" cy="260.62" r="15.93"/>
      <polygon class="cls-23" points="268.99 261.23 250.76 266.82 257.28 275.29 268.99 261.23"/>
    </g>
    <path class="cls-16" d="m310.93,270.87c-.96,17.19-16.95,28.26-33.52,25.51-5.22-.79-10.19-2.97-14.19-6.22,4.54,2.42,9.44,3.97,14.41,4.4,16.01,1.48,29.58-7.87,33.3-23.68h0Z"/>
    <path class="cls-16" d="m311.61,261.31c-3.56-25.53-35.72-32.4-53.91-17.25-5.74,4.95-9.34,12.31-10.27,20.27-.78-8.15,2.26-16.69,8.14-22.54,5.94-6.03,14.42-9.03,22.74-9.62,16.94-1.07,34.48,10.95,33.31,29.15h0Z"/>
  </g>
  <path class="cls-16" d="m143.27,241.38c6.01-12.88,23.5-19.65,36.72-14.64-6.33,2.83-12.26,4.65-18.46,7.14-6.24,2.4-11.77,5.07-18.26,7.5h0Z"/>
  <path class="cls-16" d="m307.48,233.03c-6.7-1.76-12.48-3.86-18.93-5.61-6.42-1.85-12.5-3.05-19.09-5.23,12.64-6.33,30.73-1.37,38.02,10.84h0Z"/>
  <g>
    <path class="cls-5" d="m111.27,269.46c12.04-18.96,23.08-29.23,36.7-47.45,19.98,10.76,27.95,13.85,48.18,26.71,20.7-17.93,28.72-25.81,50.49-45.67,17.44,16.58,17.9,16.55,33.32,34.31,14.07-10.5,15.51-12.51,29.38-20.78,11.65,14.5,23.31,29.01,34.96,43.51.97-19.25-.13-47.93-11.71-79.54-14.63-39.92-56.71-113.72-111.55-110.69-63.36,3.51-95.7,106.93-99.8,120.05-11.21,35.85-11.8,58.31-9.99,79.54Z"/>
    <path class="cls-5" d="m130.84,162.1c9.46-5.75,7.93-3.96,17.39-9.71,7.82.88,15.64,1.75,23.46,2.63,9.09-12.42,18.18-24.84,27.27-37.26"/>
    <line class="cls-5" x1="182.72" y1="139.94" x2="196.12" y2="144.14"/>
  </g>
  <path class="cls-10" d="m261.14,299.01c-8.97-7.03-20.93,4.08-31.26,4.61s-23.35-9.32-31.56-1.41c-8.21,7.91,5.44,28.13,32.85,26.74s38.94-22.9,29.97-29.94Z"/>
  <path class="cls-21" d="m172.1,520.51l37.64-12-10.29-59.62,4.35-56.91-11.54-13.87c-24.81,7.56-41.14,35.04-43.13,60.82l22.96,81.58Z"/>
  <path class="cls-3" d="m188.57,387.16c-9.52,5.43-18.71,12.87-23.52,22.72"/>
</svg>