<?xml version="1.0" encoding="UTF-8"?>
<svg id="hero-head-3" xmlns="http://www.w3.org/2000/svg" viewBox="0 0 301 357.96">
  <defs>
    <style>
      .cls-1 {
        fill: #ce9976;
      }

      .cls-2 {
        fill: #8e5552;
      }

      .cls-3 {
        fill: #fdffff;
        stroke: #7ac9d6;
        stroke-width: 8.74px;
      }

      .cls-3, .cls-4, .cls-5, .cls-6, .cls-7, .cls-8, .cls-9 {
        stroke-miterlimit: 10;
      }

      .cls-4 {
        stroke: #d8aa68;
        stroke-width: 1.76px;
      }

      .cls-4, .cls-5, .cls-6, .cls-10 {
        fill: none;
      }

      .cls-5 {
        stroke: #8e5552;
      }

      .cls-5, .cls-6, .cls-9 {
        stroke-width: 2.65px;
      }

      .cls-11 {
        fill: #ffda9f;
      }

      .cls-12, .cls-8 {
        fill: #e5b28f;
      }

      .cls-13 {
        fill: #352727;
      }

      .cls-14 {
        fill: #e0aa6e;
      }

      .cls-15 {
        fill: #d8aa68;
      }

      .cls-16, .cls-17 {
        opacity: .4;
      }

      .cls-6, .cls-9 {
        stroke: #d17d6f;
      }

      .cls-18, .cls-7 {
        fill: #ffdc8d;
      }

      .cls-7 {
        stroke: #efbb7b;
        stroke-width: 1.72px;
      }

      .cls-19 {
        fill: #fff4f3;
      }

      .cls-20 {
        fill: #f4c887;
      }

      .cls-21, .cls-9 {
        fill: #e59883;
      }

      .cls-22 {
        fill: #b2746f;
      }

      .cls-23 {
        fill: #ffe8d9;
      }

      .cls-8 {
        stroke: #ce9976;
        stroke-width: 3.53px;
      }

      .cls-24 {
        fill: #d88d7a;
      }

      .cls-17 {
        fill: #fff0e3;
      }

      .cls-25 {
        fill: #efbb7b;
      }

      .cls-26 {
        fill: #e38d81;
      }
    </style>
  </defs>
  <circle class="cls-3" cx="150.5" cy="207.46" r="146.13"/>
  <g>
    <g>
      <path class="cls-12" d="m251.73,195.51c.35,1.77.66,3.54.92,5.32.03.24.18,1.42.21,1.72.12,1.06.22,2.13.3,3.2.35,4.4.42,8.81.35,13.22-.19,11.93-1.25,23.85-2.21,35.74-1.51,18.84-3.09,37.7-4.38,56.58,5.15-4.78,9.94-9.94,14.33-15.43.93-12.22,1.94-24.43,2.92-36.63,1.71-21.19,4.46-42.95.9-64.09-5.37-31.85-22.36-61.38-43.34-85.49-5.6-6.44-14.93,2.96-9.36,9.36,18.94,21.77,33.65,48.02,39.35,76.51Z"/>
      <path class="cls-1" d="m250,195.86c.36,1.79.66,3.55.91,5.24h0l.03.21c.02.2.04.38.06.54.05.37.1.75.11.9.12,1.05.21,2.09.3,3.14.31,3.91.42,8.18.34,13.05-.17,10.59-1.04,21.36-1.89,31.78l-.31,3.85c-.32,3.94-.64,7.89-.96,11.83-1.24,15.34-2.51,30.94-3.56,46.61,1.28-1.15,2.55-2.32,3.79-3.52,1-14.39,2.15-28.71,3.3-42.81.32-3.95.64-7.89.96-11.83l.31-3.85c.85-10.47,1.73-21.3,1.9-32.01.08-4.99-.03-9.37-.35-13.39-.09-1.08-.19-2.17-.31-3.25-.02-.16-.07-.56-.12-.95-.02-.18-.04-.35-.06-.49h.01c-.26-1.85-.59-3.79-.99-5.75-5.39-26.88-19.13-53.62-39.75-77.32-1.58-1.81-1.42-3.64-1-4.85.63-1.83,2.26-3.34,3.96-3.67,1.39-.27,2.64.23,3.73,1.48,16.22,18.64,36.83,48.45,42.93,84.62,3.04,18.03,1.41,36.78-.17,54.91-.25,2.92-.51,5.84-.74,8.75l-.72,8.86c-.81,10-1.63,20.12-2.39,30.29,1.34-1.6,2.64-3.23,3.91-4.89.65-8.43,1.33-16.81,2-25.11l.72-8.86c.23-2.9.49-5.81.74-8.72,1.6-18.35,3.25-37.33.14-55.8-6.23-36.99-27.23-67.37-43.75-86.35-1.92-2.21-4.43-3.14-7.07-2.63-2.97.58-5.57,2.93-6.63,5.99-1,2.91-.39,5.94,1.67,8.31,20.22,23.24,33.69,49.41,38.95,75.69Z"/>
      <path class="cls-12" d="m240.52,200.38c2.83,25.53-1.11,51.68-3.67,77.06-1.53,15.18-3.06,30.38-4.36,45.6,5.01-3.56,9.77-7.44,14.27-11.6.86-9.29,1.78-18.56,2.7-27.83,2.62-26.31,6.88-53.33,4.62-79.81-2.54-29.74-14.58-58.38-31.32-82.86-4.78-6.99-16.25-.38-11.42,6.68,14.69,21.49,26.31,46.91,29.18,72.78Z"/>
      <path class="cls-1" d="m235.93,190.26c.36,1.79.66,3.55.91,5.24h0l.03.21c.02.2.04.38.06.54.05.37.1.75.11.9.12,1.05.21,2.09.3,3.14.31,3.91.42,8.18.34,13.05-.17,10.59-1.05,21.36-1.89,31.78l-.31,3.85c-.32,3.94-.64,7.89-.96,11.83-1.7,21.01-3.43,42.52-4.63,64.04,1.24-.84,2.47-1.7,3.68-2.58,1.18-20.56,2.84-41.09,4.47-61.18.32-3.95.64-7.89.96-11.84l.31-3.85c.85-10.47,1.73-21.3,1.9-32.01.08-4.99-.03-9.37-.35-13.39-.09-1.09-.19-2.17-.31-3.26-.02-.16-.07-.56-.12-.96-.02-.17-.04-.35-.06-.48h.01c-.26-1.85-.59-3.79-.99-5.75-5.39-26.88-19.13-53.62-39.75-77.32-1.58-1.82-1.42-3.64-1-4.85.63-1.83,2.26-3.34,3.96-3.67,1.38-.27,2.64.23,3.73,1.48,16.22,18.64,36.83,48.45,42.93,84.62,3.04,18.03,1.41,36.78-.17,54.91-.25,2.92-.51,5.84-.74,8.75l-.72,8.86c-1.38,17.03-2.78,34.38-3.89,51.8,1.27-1.11,2.52-2.24,3.75-3.4,1.06-16.18,2.37-32.28,3.66-48.12l.72-8.87c.23-2.9.49-5.81.74-8.72,1.6-18.36,3.25-37.33.14-55.81-6.23-36.98-27.23-67.37-43.75-86.35-1.92-2.21-4.43-3.14-7.07-2.63-2.97.58-5.57,2.93-6.63,5.99-1,2.91-.39,5.94,1.67,8.31,20.22,23.24,33.69,49.41,38.95,75.69Z"/>
      <path class="cls-12" d="m237.66,189.91c.35,1.77.66,3.54.92,5.32.03.24.18,1.43.21,1.72.12,1.06.22,2.13.3,3.2.35,4.4.42,8.81.35,13.22-.19,11.93-1.25,23.85-2.21,35.74-1.99,24.8-4.1,49.62-5.5,74.47,1.13-.8,2.25-1.61,3.36-2.44.13-.09.25-.19.38-.28,1.11-.83,2.2-1.68,3.29-2.55.07-.06.14-.11.21-.17,2.27-1.82,4.48-3.71,6.64-5.66,0,0,0,0,0,0,1.27-19.64,2.91-39.26,4.49-58.85,1.71-21.19,4.46-42.95.9-64.09-5.37-31.85-22.36-61.38-43.34-85.49-5.6-6.44-14.93,2.96-9.36,9.36,18.94,21.77,33.65,48.02,39.35,76.51Z"/>
      <path class="cls-1" d="m238.77,200.57c2.35,21.17-.04,43.04-2.34,64.19-.46,4.18-.91,8.35-1.33,12.5v.13c-1.57,15.46-3.15,31.17-4.48,46.96,1.27-.87,2.53-1.77,3.77-2.68,1.28-14.77,2.75-29.45,4.21-43.93v-.13c.43-4.14.88-8.3,1.34-12.47,2.33-21.34,4.73-43.41,2.34-64.96-3.33-30.04-17.87-56.59-29.48-73.58-.94-1.37-1.1-2.71-.5-3.97.75-1.56,2.62-2.75,4.56-2.9.12,0,.25-.01.39-.01,1.1,0,2.79.35,4.06,2.2,17.96,26.27,28.68,54.63,31.02,82.02,1.81,21.18-.62,43-2.97,64.1-.56,5.05-1.14,10.28-1.65,15.39-.96,9.58-1.95,19.55-2.89,29.77,1.31-1.17,2.61-2.37,3.88-3.59.83-8.84,1.69-17.49,2.52-25.83.51-5.09,1.09-10.3,1.65-15.35,2.37-21.27,4.81-43.26,2.97-64.79-2.39-27.99-13.32-56.94-31.62-83.71-1.77-2.6-4.56-3.96-7.63-3.72-3.23.25-6.16,2.17-7.47,4.89-1.16,2.41-.89,5.07.77,7.49,11.38,16.65,25.63,42.65,28.88,71.98Z"/>
      <path class="cls-12" d="m226.46,194.78c2.83,25.53-1.11,51.68-3.67,77.06-2.03,20.19-4.06,40.41-5.56,60.67,4.8-2.57,9.43-5.41,13.88-8.5,1.25-15.36,2.77-30.7,4.29-46.01,2.62-26.31,6.88-53.33,4.62-79.81-2.54-29.74-14.58-58.38-31.32-82.86-4.78-6.99-16.25-.38-11.42,6.68,14.69,21.49,26.31,46.91,29.18,72.78Z"/>
      <path class="cls-1" d="m224.7,194.97c2.35,21.17-.04,43.04-2.34,64.19-.46,4.18-.91,8.35-1.34,12.59-2.04,20.27-4.12,40.97-5.64,61.73,1.24-.64,2.47-1.31,3.69-1.98,1.5-19.98,3.5-39.91,5.47-59.48.42-4.14.87-8.3,1.33-12.47,2.33-21.34,4.73-43.41,2.34-64.96-3.33-30.05-17.87-56.59-29.48-73.58-.94-1.37-1.11-2.71-.5-3.97.75-1.56,2.62-2.75,4.56-2.9.12,0,.25-.01.39-.01,1.1,0,2.79.35,4.06,2.2,17.96,26.27,28.68,54.64,31.02,82.02,1.81,21.18-.62,43-2.97,64.1-.56,5.05-1.14,10.28-1.65,15.39-1.5,15.03-3.1,31.05-4.41,47.47,1.27-.85,2.52-1.72,3.75-2.61,1.27-15.38,2.76-30.38,4.17-44.51.51-5.09,1.09-10.3,1.65-15.35,2.37-21.27,4.81-43.27,2.97-64.79-2.39-27.99-13.32-56.93-31.62-83.71-1.77-2.59-4.56-3.94-7.63-3.72-3.23.25-6.16,2.17-7.47,4.89-1.16,2.41-.89,5.07.77,7.49,11.38,16.65,25.63,42.65,28.88,71.97Z"/>
      <path class="cls-12" d="m215.01,198.87c-.19,28.4-5.74,56.74-8.65,84.93-1.91,18.5-3.49,37.1-4.31,55.72,4.64-1.82,9.15-3.87,13.54-6.14.7-13.13,1.76-26.25,2.99-39.31,2.78-29.51,8.32-58.98,9.5-88.61,1.3-32.61-5.78-65.65-17.3-96.03-2.99-7.89-15.79-4.47-12.76,3.52,10.34,27.29,17.17,56.62,16.98,85.92Z"/>
      <path class="cls-12" d="m200.94,193.26c-.19,28.4-5.74,56.74-8.65,84.93-2.26,21.93-4.07,44.01-4.67,66.09,4.55-1.24,9-2.69,13.36-4.36.61-17.2,1.92-34.38,3.53-51.47,2.78-29.51,8.32-58.98,9.5-88.61,1.3-32.61-5.78-65.65-17.3-96.03-2.99-7.89-15.79-4.47-12.76,3.52,10.34,27.29,17.17,56.62,16.98,85.92Z"/>
      <path class="cls-1" d="m199.18,193.25c-.13,18.97-2.7,38.25-5.2,56.91-1.22,9.13-2.48,18.58-3.44,27.86-1.96,19-4.04,42.23-4.69,66.74,1.19-.31,2.37-.62,3.55-.96.68-24.01,2.72-46.76,4.65-65.42.95-9.23,2.21-18.64,3.43-27.75,2.51-18.76,5.1-38.16,5.23-57.35.18-27.04-5.57-56.17-17.09-86.56h0c-1.32-3.49,1.5-4.87,2.39-5.21,2.52-.95,5.86-.25,7.07,2.94,12.6,33.24,18.38,65.31,17.18,95.33-.72,18.08-3.12,36.43-5.43,54.17-1.47,11.25-2.99,22.88-4.06,34.34-1.43,15.19-2.9,33.19-3.55,52.3,1.2-.44,2.39-.89,3.57-1.36.67-18.47,2.1-35.87,3.49-50.61,1.07-11.4,2.59-23,4.05-34.22,2.33-17.82,4.73-36.25,5.46-54.49,1.22-30.5-4.64-63.04-17.41-96.73-1.95-5.14-7.44-6.57-11.62-4.99-4.19,1.59-6.02,5.6-4.44,9.76,11.37,29.99,17.04,58.68,16.86,85.29Z"/>
      <path class="cls-1" d="m213.25,198.85c-.13,18.97-2.7,38.25-5.2,56.91-1.22,9.13-2.48,18.58-3.44,27.86-1.69,16.36-3.46,35.85-4.34,56.59,1.21-.45,2.4-.93,3.59-1.42.9-20.07,2.61-38.93,4.25-54.82.95-9.23,2.21-18.64,3.43-27.75,2.51-18.76,5.1-38.16,5.23-57.35.18-27.04-5.57-56.17-17.09-86.56-.57-1.51-.44-2.8.41-3.84.89-1.1,2.51-1.76,4.15-1.76.32,0,.63.02.94.08,1.08.18,3.04.83,3.96,3.25,12.6,33.24,18.38,65.31,17.18,95.33-.72,18.08-3.12,36.42-5.43,54.17-1.47,11.25-2.99,22.88-4.06,34.34-1.13,11.99-2.28,25.74-3.04,40.4,1.22-.61,2.43-1.24,3.63-1.88.75-13.83,1.85-26.8,2.93-38.19,1.07-11.4,2.59-23,4.05-34.22,2.33-17.82,4.73-36.25,5.46-54.49,1.22-30.5-4.64-63.04-17.41-96.73-1.13-2.98-3.57-4.98-6.69-5.49-3.22-.52-6.51.63-8.4,2.93-1.65,2.02-2,4.62-.97,7.32,11.37,29.99,17.04,58.68,16.86,85.29Z"/>
    </g>
    <path class="cls-18" d="m150.5,349.23c25.79,0,49.99-6.93,70.85-19.02-14.94-17.18-35.52-27.92-58.5-27.92h-26.42c-22.69,0-43.04,10.46-57.93,27.26,21.11,12.5,45.73,19.68,72,19.68Z"/>
    <path class="cls-25" d="m79.3,330.01c.05-.05.09-.11.14-.16,15.38-17.19,35.62-26.66,56.99-26.66h26.42c21.38,0,41.62,9.47,56.99,26.66.24.27.48.55.72.83.53-.3,1.06-.61,1.59-.92-.32-.37-.64-.74-.96-1.11-15.72-17.58-36.44-27.26-58.33-27.26h-26.42c-21.89,0-42.61,9.68-58.33,27.26-.13.14-.25.29-.37.43.52.31,1.05.62,1.57.93Z"/>
    <g>
      <path class="cls-11" d="m274.65,147.72c-5.33,1.74-10.65,3.47-15.98,5.21.27,4.72.53,9.46.8,14.18-5.13.92-10.25,1.83-15.37,2.73-1.49,4.18-2.99,8.35-4.49,12.53-21.83-6.33-37.47-21.53-39.45-38.94-.45-3.97-.47-10.49,2.89-18.53.21-.73,1.48-5.64-1.59-10.14-2.02-2.96-4.85-4.18-6.17-4.62-1.18-.74-3.92-2.13-7.5-1.79-5.42.52-8.38,4.63-8.82,5.25-4.03,7.73-9.06,11.87-12.4,14.07-14.66,9.61-36.35,7.29-55.16-5.45,2.25-3.82,4.5-7.64,6.75-11.47-2.57-4.52-5.14-9.04-7.71-13.57,3.8-2.81,7.61-5.64,11.42-8.45-2.07-5.21-4.14-10.41-6.21-15.62,4.06-1.78,8.11-3.56,12.17-5.34-1.29-5.49-2.59-10.97-3.87-16.45,4.4-1.53,8.8-3.05,13.19-4.59-.72-5.12-1.45-10.25-2.17-15.38,4.61-.41,9.23-.83,13.83-1.24-.57-5.06-1.14-10.11-1.72-15.17,4.68.44,9.35.89,14.02,1.33,2-5.05,3.99-10.09,5.99-15.14,5.71,2.21,15.65,6.99,24.37,16.95,5.8,6.63,14.18,16.21,13.91,28.63-.2,9.19-5.04,14.66-1.69,21.86,1.79,3.86,5.03,6.23,7.51,7.64,2.68,1.01,6.56,1.99,10.68.9,7.68-2.03,8.79-9.24,15.73-15.27,9.37-8.14,22.1-7.82,30.91-7.6,13.23.34,23.25,4.93,28.61,7.91-2.6,4.76-5.21,9.52-7.81,14.28,3.33,3.31,6.66,6.62,9.97,9.93-4.25,2.79-8.5,5.58-12.77,8.37,2.64,3.81,5.26,7.62,7.9,11.43-4.41,2.73-8.81,5.44-13.22,8.16,1.64,4.36,3.28,8.72,4.91,13.08-5.05,2.51-10.09,5.02-15.13,7.53,1.22,4.26,2.45,8.51,3.67,12.77Z"/>
      <path class="cls-10" d="m274.65,147.72c-5.33,1.74-10.65,3.47-15.98,5.21.27,4.72.53,9.46.8,14.18-5.13.92-10.25,1.83-15.37,2.73-1.49,4.18-2.99,8.35-4.49,12.53-21.83-6.33-37.47-21.53-39.45-38.94-.45-3.97-.47-10.49,2.89-18.53.21-.73,1.48-5.64-1.59-10.14-2.02-2.96-4.85-4.18-6.17-4.62-1.18-.74-3.92-2.13-7.5-1.79-5.42.52-8.38,4.63-8.82,5.25-4.03,7.73-9.06,11.87-12.4,14.07-14.66,9.61-36.35,7.29-55.16-5.45,2.25-3.82,4.5-7.64,6.75-11.47-2.57-4.52-5.14-9.04-7.71-13.57,3.8-2.81,7.61-5.64,11.42-8.45-2.07-5.21-4.14-10.41-6.21-15.62,4.06-1.78,8.11-3.56,12.17-5.34-1.29-5.49-2.59-10.97-3.87-16.45,4.4-1.53,8.8-3.05,13.19-4.59-.72-5.12-1.45-10.25-2.17-15.38,4.61-.41,9.23-.83,13.83-1.24-.57-5.06-1.14-10.11-1.72-15.17,4.68.44,9.35.89,14.02,1.33,2-5.05,3.99-10.09,5.99-15.14,5.71,2.21,15.65,6.99,24.37,16.95,5.8,6.63,14.18,16.21,13.91,28.63-.2,9.19-5.04,14.66-1.69,21.86,1.79,3.86,5.03,6.23,7.51,7.64,2.68,1.01,6.56,1.99,10.68.9,7.68-2.03,8.79-9.24,15.73-15.27,9.37-8.14,22.1-7.82,30.91-7.6,13.23.34,23.25,4.93,28.61,7.91-2.6,4.76-5.21,9.52-7.81,14.28,3.33,3.31,6.66,6.62,9.97,9.93-4.25,2.79-8.5,5.58-12.77,8.37,2.64,3.81,5.26,7.62,7.9,11.43-4.41,2.73-8.81,5.44-13.22,8.16,1.64,4.36,3.28,8.72,4.91,13.08-5.05,2.51-10.09,5.02-15.13,7.53,1.22,4.26,2.45,8.51,3.67,12.77Z"/>
      <path class="cls-20" d="m223.43,164.28c-2.08-5.57-5.33-6.25-9.74-13.78-1.14-1.95-4.33-7.72-5.75-15.22-2.26-11.99,2.49-15.23-.84-21.75-3.26-6.39-11.19-9.83-17.26-10.31-6.57-.51-7.77,2.71-14.12,1.84-7.3-.99-15.08-6.52-14.76-11.71.24-3.84,4.83-6.41,5.35-6.7,3.16-1.72,8.39-2.85,32.41,7.84,17.21,7.66,25.82,11.49,29.79,16.56,3.36,4.28,7.01,10.97,11,10.32,1.63-.27,3.41-1.79,4.24-3.54,1.04-2.22-.04-3.55.31-5.38,1.13-5.86,14.94-5.93,15.27-9.78.17-2.05-3.55-4.36-6.84-5.05-5.01-1.05-9.35,1.61-11.12,2.51-11.54,5.9-28.9-3.68-50.5-15.6-16.12-8.89-19.07-13.42-19.68-17.71-.62-4.38.98-10.07,4.05-10.99,1.88-.57,4.4.63,10.02,6.91,12.13,13.54,10.39,19.09,17.44,23.77,8.59,5.71,21.92,4.63,28.55-1.28,2.8-2.49,1.83-3.55,6.23-9.77,1.77-2.5,6.61-9.24,14.69-14.83,4.34-3.01,8.73-5.06,12.8-6.48-8.45-.09-19.18.57-27.35,7.67-6.94,6.03-8.06,13.24-15.73,15.27-4.12,1.09-8,.11-10.68-.9-2.49-1.41-5.72-3.78-7.51-7.64-3.34-7.2,1.49-12.67,1.69-21.86.27-12.41-8.11-22-13.91-28.63-7.12-8.13-15.05-12.81-20.83-15.46-.34,2.38-.68,4.75-1.02,7.13-.67,5.09-1.34,10.18-2.01,15.26-5.15-1.06-10.29-2.13-15.44-3.19.32,5.06.65,10.13.97,15.19-5.36-1.95-10.71-3.9-16.07-5.85-.7.06-1.4.13-2.1.19.72,5.13,1.44,10.26,2.17,15.38-4.39,1.53-8.79,3.06-13.19,4.59,1.28,5.48,2.58,10.96,3.87,16.45-4.06,1.78-8.11,3.56-12.17,5.34,2.07,5.21,4.14,10.41,6.21,15.62-3.8,2.81-7.61,5.64-11.42,8.45,2.57,4.53,5.14,9.05,7.71,13.57-2.25,3.82-4.5,7.64-6.75,11.47,18.82,12.75,40.5,15.06,55.16,5.45,3.34-2.19,8.37-6.34,12.4-14.07.44-.62,3.4-4.74,8.82-5.25,3.58-.34,6.32,1.05,7.5,1.79,1.32.44,4.15,1.66,6.17,4.62,3.07,4.5,1.8,9.41,1.59,10.14-3.36,8.04-3.34,14.56-2.89,18.53,1.48,12.97,10.53,24.72,24.08,32.48.91-5.21.17-9-.81-11.63Z"/>
      <path class="cls-4" d="m274.65,147.72c-5.33,1.74-10.65,3.47-15.98,5.21.27,4.72.53,9.46.8,14.18-5.13.92-10.25,1.83-15.37,2.73-1.49,4.18-2.99,8.35-4.49,12.53-21.83-6.33-37.47-21.53-39.45-38.94-.45-3.97-.47-10.49,2.89-18.53.21-.73,1.48-5.64-1.59-10.14-2.02-2.96-4.85-4.18-6.17-4.62-1.18-.74-3.92-2.13-7.5-1.79-5.42.52-8.38,4.63-8.82,5.25-4.03,7.73-9.06,11.87-12.4,14.07-14.66,9.61-36.35,7.29-55.16-5.45,2.25-3.82,4.5-7.64,6.75-11.47-2.57-4.52-5.14-9.04-7.71-13.57,3.8-2.81,7.61-5.64,11.42-8.45-2.07-5.21-4.14-10.41-6.21-15.62,4.06-1.78,8.11-3.56,12.17-5.34-1.29-5.49-2.59-10.97-3.87-16.45,4.4-1.53,8.8-3.05,13.19-4.59-.72-5.12-1.45-10.25-2.17-15.38,4.61-.41,9.23-.83,13.83-1.24-.57-5.06-1.14-10.11-1.72-15.17,4.68.44,9.35.89,14.02,1.33,2-5.05,3.99-10.09,5.99-15.14,5.71,2.21,15.65,6.99,24.37,16.95,5.8,6.63,14.18,16.21,13.91,28.63-.2,9.19-5.04,14.66-1.69,21.86,1.79,3.86,5.03,6.23,7.51,7.64,2.68,1.01,6.56,1.99,10.68.9,7.68-2.03,8.79-9.24,15.73-15.27,9.37-8.14,22.1-7.82,30.91-7.6,13.23.34,23.25,4.93,28.61,7.91-2.6,4.76-5.21,9.52-7.81,14.28,3.33,3.31,6.66,6.62,9.97,9.93-4.25,2.79-8.5,5.58-12.77,8.37,2.64,3.81,5.26,7.62,7.9,11.43-4.41,2.73-8.81,5.44-13.22,8.16,1.64,4.36,3.28,8.72,4.91,13.08-5.05,2.51-10.09,5.02-15.13,7.53,1.22,4.26,2.45,8.51,3.67,12.77Z"/>
      <g>
        <path class="cls-15" d="m175.51,66.78c18.45,16.31,40.99,26.53,65.4,29.77-24.69.6-49.64-10.74-65.4-29.77h0Z"/>
        <path class="cls-15" d="m188.55,65.59c4.25,12.94,15.62,22.58,29.52,22.15,4.48-.06,8.93-.96,13.18-2.48-3.86,2.57-8.43,4.07-13.06,4.54-14.63,1.76-28.31-9.64-29.64-24.21h0Z"/>
        <path class="cls-15" d="m165.53,89.93c24.7-.04,49.37,11.9,64.69,31.28-18.08-16.7-40.35-27.51-64.69-31.28h0Z"/>
        <path class="cls-15" d="m172.95,100.72c12.06-8.3,29.56-5.05,37.56,7.32,2.6,3.86,4.36,8.34,4.85,12.95-1.54-4.24-3.7-8.24-6.51-11.72-8.55-10.97-23.23-13.55-35.9-8.55h0Z"/>
      </g>
    </g>
    <g>
      <path class="cls-9" d="m65.86,215.01c-2.14-.06-9.45.01-15.49,5.35-1.56,1.38-4.84,4.28-5.63,8.73-1.55,8.76,7.1,20.49,15.49,19.15,4.93-.79,9.04-5.97,10.7-12.39-1.69-6.95-3.38-13.89-5.07-20.84Z"/>
      <path class="cls-9" d="m69.52,234.44c-2.32-4.58-6.74-7.26-10.98-6.76-3.05.36-5.1,2.25-5.91,3.1"/>
    </g>
    <g>
      <path class="cls-9" d="m231.2,215.01c2.14-.06,9.45.01,15.49,5.35,1.56,1.38,4.84,4.28,5.63,8.73,1.55,8.76-7.1,20.49-15.49,19.15-4.93-.79-9.04-5.97-10.7-12.39,1.69-6.95,3.38-13.89,5.07-20.84Z"/>
      <path class="cls-9" d="m227.54,234.44c2.32-4.58,6.74-7.26,10.98-6.76,3.05.36,5.1,2.25,5.91,3.1"/>
    </g>
    <polyline class="cls-7" points="124.53 304.81 124.53 271.04 172.53 271.04 172.53 304.81"/>
    <g class="cls-16">
      <path class="cls-22" d="m72.36,163.36c-7.12-20.27,8.44-38.11,26.74-44.76,17.46-6.42,36.88-6.07,53.87,1.04-17.06,2.77-33.7,4.51-49.47,10.49-16.38,6.17-27.44,15.72-31.15,33.23h0Z"/>
    </g>
    <path class="cls-8" d="m233.69,198.46c1.14-.97,9.54-8.38,9.33-20.67-.2-12.27-8.83-19.4-10-20.34.54-2.4,2.98-14.44-4.41-26.39-7-11.31-17.98-14.71-20.52-15.43-1.78-3.42-6.4-11.12-15.75-16.53-12.19-7.06-24.18-5.44-27.64-4.84-3.26-1.72-8.15-3.77-14.36-4.49-12.63-1.47-22.38,3.52-26.07,5.67-4.09-.38-13-.6-22.27,4.33-16.49,8.77-20.18,26.43-20.67,29.01-2.05.79-9.63,4.02-12.67,11.67-3.78,9.5.91,22.16,12.34,29.34,1.92-2.06,36.07-37.53,85.35-27.67,47.91,9.59,66.11,53.22,67.35,56.34Z"/>
    <path class="cls-21" d="m239.46,207.97c0,50.22-40.71,81.75-90.93,81.75s-90.93-31.53-90.93-81.75,40.71-100.11,90.93-100.11,90.93,49.89,90.93,100.11Z"/>
    <path class="cls-24" d="m73.33,244.47c-9.33-18-10.31-46.68-7.03-60.35,6-24.98,20.63-45.49,32.12-58.38-24.59,18.97-40.82,50.54-40.82,82.23,0,49.71,39.9,81.1,89.41,81.73-13.8-1.76-55.39-9.94-73.69-45.24Z"/>
    <path class="cls-6" d="m239.46,207.97c0,50.22-40.71,81.75-90.93,81.75s-90.93-31.53-90.93-81.75,40.71-100.11,90.93-100.11,90.93,49.89,90.93,100.11Z"/>
    <path class="cls-5" d="m65.99,193.79c3.56,1.44,7.11,2.89,10.67,4.33"/>
    <path class="cls-5" d="m224.85,193.79c-3.56,1.44-7.11,2.89-10.67,4.33"/>
    <g>
      <g>
        <path class="cls-19" d="m128.23,197.46c3.68,14.48-6.55,29.58-22.85,33.72-16.3,4.15-28.37-5.28-32.06-19.76-3.68-14.48,2.42-28.53,18.72-32.67,16.3-4.15,32.5,4.23,36.18,18.71Z"/>
        <circle class="cls-13" cx="105.23" cy="200.74" r="14.05"/>
        <polygon class="cls-19" points="100.86 201.06 78.95 206.57 89.91 212.92 100.86 201.06"/>
      </g>
      <path class="cls-2" d="m73.33,211.43c3.96,13.74,16.41,21.41,30.4,19.37,4.36-.6,8.61-2.18,12.5-4.52-3.38,3.04-7.66,5.18-12.23,6.12-14.44,3.19-29.1-5.9-30.68-20.97h0Z"/>
      <path class="cls-2" d="m72.3,203.04c-1.41-11.51,6.49-21.53,17.1-25.26,10.41-3.77,23.05-1.89,31.4,5.55,5.44,4.89,8.5,12.28,8.18,19.49-1.18-6.97-4.68-13.29-9.96-17.39-16.56-12.56-44.86-4.94-46.72,17.61h0Z"/>
    </g>
    <g>
      <g>
        <path class="cls-19" d="m163.5,197.46c-3.68,14.48,6.55,29.58,22.85,33.72,16.3,4.15,28.37-5.28,32.06-19.76,3.68-14.48-2.42-28.53-18.72-32.67-16.3-4.15-32.5,4.23-36.18,18.71Z"/>
        <circle class="cls-13" cx="186.26" cy="200.74" r="14.05"/>
        <polygon class="cls-19" points="181.89 201.06 165.59 205.16 170.95 212.92 181.89 201.06"/>
      </g>
      <path class="cls-2" d="m218.41,211.43c-1.59,15.07-16.24,24.15-30.68,20.97-4.57-.93-8.84-3.07-12.22-6.12,3.89,2.34,8.14,3.92,12.5,4.52,14,2.04,26.44-5.64,30.4-19.37h0Z"/>
      <path class="cls-2" d="m219.44,203.04c-1.82-22.53-30.2-30.18-46.72-17.61-5.28,4.1-8.78,10.43-9.96,17.39-.32-7.21,2.74-14.6,8.18-19.49,8.34-7.44,20.98-9.32,31.4-5.55,10.6,3.72,18.52,13.76,17.1,25.26h0Z"/>
    </g>
    <ellipse class="cls-26" cx="87.99" cy="240.68" rx="7.98" ry="13.19" transform="translate(-155.55 320.41) rotate(-88.05)"/>
    <ellipse class="cls-26" cx="206.34" cy="240.35" rx="7.98" ry="13.19" transform="translate(-40.91 438.37) rotate(-88.05)"/>
    <path class="cls-2" d="m121.32,245.34c17.81,7.44,36.46,4.85,51.68-7-11.34,16.07-36.47,19.51-51.68,7h0Z"/>
    <g>
      <path class="cls-12" d="m145.47,95.83c-10.14,3.77-17.7,12.16-20.98,22.39-2.61,8.13,10.16,11.61,12.76,3.52h0c.74-2.3,1.28-3.5,3.07-6.06,2.47-3.52,6.01-6.26,10.11-7.59,6.48-2.11,14-.59,19.65,3.1"/>
      <path class="cls-1" d="m145.47,95.83c-8.73,4.22-15.26,11.51-18.58,20.33-.52,1.5-1.32,3.19-1.04,4.76,1.1,4.9,8.84,4.9,9.9-.14,5.21-14.84,22.21-19.11,34.33-9.59-12.45-6.54-26.95-2.62-31.31,11.4-2.45,7.91-15,6.95-16.22-1.19-.32-2.32.64-4.35,1.48-6.39,3.85-9.12,11.98-16.72,21.44-19.17h0Z"/>
    </g>
    <g>
      <path class="cls-12" d="m194.46,111.08c-4.19,7.16-8.22,6.31-14.52,3.14-7.14-3.59-13.59,7.09-6.41,10.71h0c13.21,6.65,25.63,5.55,33.18-7.35"/>
      <path class="cls-1" d="m194.46,111.08c-2.28,5.51-6.31,7.72-12.02,5.55-1.45-.43-2.78-1.24-4.21-1.6-5.05-1.09-9.04,6.65-3.26,8.63,11.97,6.03,23.42,5.29,31.74-6.07-6.17,14.1-20.62,15.64-33.27,9.25-6.55-2.58-5.95-10.89-.12-13.92,2.12-1.16,4.8-1.13,6.91-.01,6.17,3.52,9.6,4.45,14.23-1.82h0Z"/>
    </g>
    <g>
      <path class="cls-12" d="m205.67,117.46c-2.21,7.63-7.79,12.81-14.16,12.47-2.18-.12-4.08,1.37-4.25,4.48-.14,2.61,1.59,6.06,3.75,6.18h0c10.09.54,18.69-6.44,22.26-18.76"/>
      <path class="cls-1" d="m205.67,117.46c-1.01,6.92-6.56,14.06-14.19,13.86-3.92-.03-3.09,6.71-.37,7.7,10.75.65,18.27-7.74,22.15-17.18-1.64,10.89-10.21,20.87-22.03,20.34-5.61-.19-7.5-9.9-2.98-12.77,1.14-.8,2.51-.94,3.82-.84,6.46.28,11.26-5.57,13.59-11.11h0Z"/>
    </g>
    <g>
      <path class="cls-12" d="m192.31,103.84c-14.89-6.63-34.77-6.05-42.06,11.04-1.41,3.31-.96,7.05,2.37,9.05,2.77,1.66,7.65.91,9.05-2.37h0c4.26-9.99,14.89-10.33,23.95-6.29"/>
      <path class="cls-1" d="m192.31,103.84c-14.35-5.08-33.86-4.35-40.42,11.71-2.5,5.3,2.55,9.56,7.33,6.7,1.11-.77,1.44-2.15,2.16-3.26,5.27-8.71,16.41-8.28,24.26-3.72-8.75-3-19.06-2.6-22.7,7.13-2.13,4.46-8.82,5.29-12.38,2.14-6.85-6.24.37-16.17,5.94-20.59,10.4-7.78,25.05-6.05,35.81-.1h0Z"/>
    </g>
    <path class="cls-2" d="m92.66,164.12c9.8-7.03,25.48-3.55,31.34,7-9.47-6.47-20.01-8.83-31.34-7h0Z"/>
    <path class="cls-2" d="m194.69,159.59c-11.33-1.83-21.86.53-31.34,7,5.86-10.55,21.54-14.03,31.34-7h0Z"/>
    <path class="cls-17" d="m86.83,334.1c4.12-4.84,9.92-9.17,17.33-12.91.65-.33.91-1.12.58-1.78-.33-.65-1.13-.91-1.78-.58-7.96,4.02-14.17,8.72-18.55,14.02.8.42,1.61.84,2.41,1.25Z"/>
    <path class="cls-23" d="m150.5,349.23c7.55,0,14.97-.6,22.21-1.74-6.55-6.81-15.74-11.05-25.94-11.05-9.61,0-18.33,3.78-24.79,9.91,9.21,1.89,18.75,2.88,28.52,2.88Z"/>
    <path class="cls-14" d="m123.06,346.56c6.25-5.74,14.58-9.24,23.71-9.24,9.7,0,18.49,3.96,24.85,10.34.71-.11,1.42-.21,2.12-.33-6.74-7.23-16.33-11.77-26.97-11.77-10.04,0-19.16,4.04-25.81,10.58.7.15,1.4.29,2.1.43Z"/>
  </g>
</svg>