<?xml version="1.0" encoding="UTF-8"?>
<svg id="hero_1-success" xmlns="http://www.w3.org/2000/svg" xmlns:xlink="http://www.w3.org/1999/xlink" viewBox="0 0 531.84 755">
  <defs>
    <style>
      .cls-1 {
        fill: #ed8383;
      }

      .cls-1, .cls-2, .cls-3, .cls-4, .cls-5, .cls-6, .cls-7, .cls-8, .cls-9, .cls-10, .cls-11, .cls-12, .cls-13, .cls-14, .cls-15 {
        stroke-miterlimit: 10;
      }

      .cls-1, .cls-4, .cls-9, .cls-11, .cls-14, .cls-15 {
        stroke-width: 1.66px;
      }

      .cls-1, .cls-5, .cls-6 {
        stroke: #bc5757;
      }

      .cls-16, .cls-4 {
        fill: #8dd39c;
      }

      .cls-17 {
        fill: #5a8c63;
      }

      .cls-18 {
        fill: #fff;
        opacity: .3;
      }

      .cls-19, .cls-3 {
        fill: #fca69a;
      }

      .cls-2, .cls-3 {
        stroke: #c15f5f;
      }

      .cls-2, .cls-5, .cls-7, .cls-10, .cls-20, .cls-12, .cls-15 {
        fill: none;
      }

      .cls-2, .cls-10 {
        stroke-width: 2.66px;
      }

      .cls-3 {
        stroke-width: 2px;
      }

      .cls-4, .cls-8, .cls-9, .cls-11, .cls-13, .cls-15 {
        stroke: #5a8c63;
      }

      .cls-5 {
        stroke-width: 3.79px;
      }

      .cls-21 {
        fill: #a36c6c;
        opacity: .2;
      }

      .cls-22, .cls-6, .cls-23 {
        fill: #db6a6a;
      }

      .cls-22, .cls-12 {
        opacity: .4;
      }

      .cls-6 {
        stroke-width: 4.15px;
      }

      .cls-7 {
        stroke: #c6867d;
        stroke-width: 2.56px;
      }

      .cls-8 {
        stroke-width: 3.64px;
      }

      .cls-8, .cls-9, .cls-13, .cls-24 {
        fill: #6cbc80;
      }

      .cls-25 {
        fill: #a14b4b;
      }

      .cls-26 {
        fill: #ef8e8e;
        opacity: .51;
      }

      .cls-10 {
        stroke: #db8686;
      }

      .cls-27 {
        clip-path: url(#clippath);
      }

      .cls-28 {
        fill: #fff4f3;
      }

      .cls-11, .cls-14 {
        fill: #ffe9e1;
      }

      .cls-12 {
        stroke: #ffe9e1;
        stroke-linecap: round;
        stroke-width: 3px;
      }

      .cls-13 {
        stroke-width: 3.38px;
      }

      .cls-14 {
        stroke: #b78383;
      }

      .cls-29 {
        fill: #dbcfa0;
      }

      .cls-30 {
        fill: #bc5757;
      }

      .cls-31 {
        fill: #aa4949;
      }
    </style>
    <clipPath id="clippath">
      <path class="cls-20" d="m335.75,269.96c-1.92,56.24-49.29,106.95-105.53,105.03-56.24-1.92-100.05-55.74-98.13-111.98,1.92-56.24,48.84-93.61,105.08-91.69,56.24,1.92,100.5,42.4,98.58,98.64Z"/>
    </clipPath>
  </defs>
  <g>
    <polygon class="cls-16" points="288.17 534.77 180.69 533.01 176.84 506.02 292.49 506.02 288.17 534.77"/>
    <line class="cls-9" x1="165.01" y1="433.24" x2="177.16" y2="517.38"/>
    <line class="cls-9" x1="303" y1="433.24" x2="290.85" y2="517.38"/>
    <polyline class="cls-15" points="290.66 517.35 263.94 703.91 235.41 720.86 235.36 550.07 232.85 550.07 232.6 720.86 204.07 703.91 177.35 517.35"/>
    <path class="cls-6" d="m228.42,139.37c-12.35-.97-45.13-1.85-76.54,18.71-2.79,1.83-45.51,30.75-52.72,82.2-7.56,53.9,31.74,76.15,30.61,142.3-.66,38.59-24.42,52.54-14.74,66.9,15.77,23.41,81.5,5.55,112.25-6.24,20.62-7.91,74.45-29.45,110.55-87.31,11.96-19.17,36.55-58.58,30.05-110.55-1.93-15.41-7.39-59-45.92-87.31-40.02-29.4-85.83-20.36-93.54-18.71Z"/>
    <ellipse class="cls-21" cx="234.91" cy="729.08" rx="134.13" ry="11.82"/>
    <g>
      <path class="cls-4" d="m276.39,410.05s33.64-10.5,41.38,19.6c1.45,5.62,7.45,27.08,13.2,46.86,3.96,13.61-9.43,25.84-22.63,20.65-24.27-9.54-53.59-20.41-60.95-21.05l2.51-20.88c10.42-.17,35.36,4.81,48.44,7.01"/>
      <path class="cls-3" d="m252.19,458.92c-1.45-3.82-5.32-6.36-11.58-10.47-3.17-2.08-6.19-4.06-7.34-3.15-.98.78-.75,3.75,3.9,12.81-2.5.27-6.59,1.05-10.72,3.69-2.38,1.52-7.08,5.12-6.35,6.96.38.96,2.53,2.09,13.72.06-1.9.62-5.14,1.98-7.95,5-2.16,2.32-4.87,6.48-3.81,7.76.7.85,3.29.72,11.92-3.99-1.81,1.17-4.69,3.37-7.05,7.02-1.09,1.69-3.01,4.68-2.27,5.5.71.8,4.11-.2,16.54-8.84,8.89-6.78,13.41-16,10.99-22.36Z"/>
      <path class="cls-4" d="m191.74,409.76s-33.64-10.5-41.38,19.6c-1.45,5.62-7.45,27.08-13.2,46.86-3.96,13.61,9.43,25.84,22.63,20.65,24.27-9.54,53.59-20.41,60.95-21.05l-2.51-20.88c-10.42-.17-35.36,4.81-48.44,7.01"/>
      <polyline class="cls-4" points="231.99 505.87 290.66 518.2 263.94 704.76 235.41 721.72 235.36 550.92 232.85 550.92 232.6 721.72 204.07 704.76 177.35 518.2 236.02 505.87"/>
      <path class="cls-13" d="m213.67,146.29s-37.69-41.11-78.12-12.33c-22.62,16.11,78.12,12.33,78.12,12.33Z"/>
      <path class="cls-23" d="m122.55,253.81c11.93-5.99,26.84-12.31,44.5-17.34,20.11-5.72,38.18-8.17,52.75-9.14,2.04-10.53,4.08-21.05,6.12-31.58,3.33,9.7,6.65,19.4,9.98,29.09,12.99-1.06,28.72-1.29,46.39.67,23.64,2.62,43.35,8.34,58.23,13.9-2.27-11.26-7.75-30.05-22.5-47.21-3.96-4.61-8.39-8.86-13.19-12.72-32.03-25.72-80.85-33.89-121.24-13.68-18.14,9.08-30.99,22.1-40.06,35.36-16.47,24.09-20.45,49-20.97,52.63Z"/>
      <polyline class="cls-16" points="173.96 493.07 178.8 523.04 289.74 524.64 293.93 494.83"/>
      <path class="cls-4" d="m316.39,425.18c-8.66-31.97-67.62-42.72-62.04-41.8v-15.76h-40.68v15.76s-53.13,8.91-62.04,41.8"/>
      <path class="cls-8" d="m204.59,146.12c2.27-33.44,40.37-52.84,47.81-57.96-1.15-2.48-11.17-16.9-12.32-19.38-7.13,4.82-18.53,13.91-27.74,28.92-12.87,20.97-13.97,37.29-13.92,46.37"/>
      <g>
        <g>
          <ellipse class="cls-29" cx="346.47" cy="290.05" rx="5.74" ry="2.03" transform="translate(19.47 601.89) rotate(-83.57)"/>
          <ellipse class="cls-29" cx="360.88" cy="259.18" rx="2.03" ry="5.74"/>
          <ellipse class="cls-29" cx="356.8" cy="307.53" rx="5.74" ry="2.03" transform="translate(11.27 627.67) rotate(-83.57)"/>
          <ellipse class="cls-29" cx="311.44" cy="361.21" rx="5.74" ry="2.03" transform="translate(-147.3 491.68) rotate(-65.11)"/>
          <ellipse class="cls-29" cx="340.62" cy="334.75" rx="5.74" ry="2.03" transform="translate(-75.9 568.39) rotate(-73.79)"/>
          <ellipse class="cls-29" cx="305.88" cy="387.39" rx="5.74" ry="2.03" transform="translate(-174.27 501.8) rotate(-65.11)"/>
        </g>
        <g>
          <ellipse class="cls-29" cx="123.81" cy="290.05" rx="2.03" ry="5.74" transform="translate(-31.68 15.68) rotate(-6.43)"/>
          <ellipse class="cls-29" cx="110.95" cy="242.22" rx="5.74" ry="2.03" transform="translate(-147.7 306.11) rotate(-79.27)"/>
          <path class="cls-29" d="m150.36,365.39c0,3.17.91,5.74,2.03,5.74s2.03-2.57,2.03-5.74-.91-5.74-2.03-5.74-2.03,2.57-2.03,5.74Z"/>
          <ellipse class="cls-29" cx="134.8" cy="332.72" rx="2.03" ry="5.74" transform="translate(-87.52 50.85) rotate(-16.21)"/>
          <ellipse class="cls-29" cx="162.54" cy="393.65" rx="5.74" ry="2.03" transform="translate(-257.76 462.46) rotate(-76.86)"/>
          <ellipse class="cls-29" cx="185.69" cy="374.74" rx="2.03" ry="5.74"/>
          <ellipse class="cls-29" cx="137.8" cy="419.26" rx="5.74" ry="2.03" transform="translate(-301.81 458.17) rotate(-76.86)"/>
        </g>
      </g>
      <g>
        <circle class="cls-23" cx="194.35" cy="326.79" r="1.83"/>
        <circle class="cls-23" cx="197" cy="320.31" r="1.56"/>
        <circle class="cls-23" cx="186.4" cy="327.21" r="1.56"/>
        <circle class="cls-23" cx="273.19" cy="326.41" r="1.83"/>
        <circle class="cls-23" cx="270.54" cy="319.93" r="1.56"/>
        <circle class="cls-23" cx="281.14" cy="326.83" r="1.56"/>
      </g>
      <g>
        <path class="cls-19" d="m335.75,269.96c-1.92,56.24-49.29,106.95-105.53,105.03-56.24-1.92-100.05-55.74-98.13-111.98,1.92-56.24,48.84-93.61,105.08-91.69,56.24,1.92,100.5,42.4,98.58,98.64Z"/>
        <path class="cls-20" d="m286.33,210.21c-33.35,5.98-69.95,15.47-108.3,30.37-8.88,3.45-17.46,7.04-25.73,10.72,2.67,13.86,5.34,27.72,8,41.58"/>
        <ellipse class="cls-22" cx="176.71" cy="328.89" rx="9.05" ry="14.95" transform="translate(-158.02 494.27) rotate(-88.05)"/>
        <ellipse class="cls-22" cx="290.87" cy="329.51" rx="9.05" ry="14.95" transform="translate(-48.36 608.98) rotate(-88.05)"/>
        <g class="cls-27">
          <path class="cls-26" d="m283.19,212.83c-40.23,10.21-93.48,25.99-133.71,36.2-1.53,10.83-.03,28.08,3.8,48.46,3.59,19.13,12.4,41.44,35.81,59.19,16.08,12.19,42.79,17.49,55.78,17.62-12.18,3.72-41.72,7.13-68.45-5.67-40.37-19.33-62.94-75.01-48.3-135,20.37-34.5,56.52-54.81,93.09-51.91,34.13,2.71,55.98,24.64,61.99,31.11Z"/>
        </g>
        <path class="cls-31" d="m164.68,244.86c10.57-8.8,27.29-11.04,39.59-4.69-6.81.66-13.19.93-19.85,1.77-6.66.76-12.96,2.08-19.75,2.91h0Z"/>
        <path class="cls-31" d="m150.51,293.11c-.69-9.11,9.69-13.8,17.08-15.84,11.22-2.97,23.47-2.54,34.36,1.55,5.93,2.39,12.68,7.12,12.81,14.15-1.74-6.38-8-9.51-13.8-11.36-12.03-3.28-25.15-3.4-37.15.02-5.73,1.79-12.38,4.8-13.3,11.48h0Z"/>
        <path class="cls-31" d="m317.32,293.11c-.92-6.69-7.58-9.69-13.3-11.48-12-3.42-25.12-3.29-37.15-.02-5.8,1.85-12.06,4.98-13.8,11.36.13-7.03,6.88-11.76,12.81-14.15,10.89-4.1,23.14-4.53,34.36-1.55,7.39,2.04,17.77,6.73,17.08,15.84h0Z"/>
        <path class="cls-28" d="m262.73,327.11c-7.88-6.85-19.34,2.76-28.81,2.76s-20.93-9.61-28.81-2.76c-7.88,6.85,3.67,26,28.81,26s36.69-19.14,28.81-26Z"/>
        <path class="cls-31" d="m303.15,244.86c-6.79-.83-13.09-2.15-19.75-2.91-6.65-.85-13.04-1.11-19.85-1.77,12.3-6.35,29.02-4.12,39.59,4.69h0Z"/>
        <path class="cls-7" d="m262.73,327.11c-7.88-6.85-19.34,2.76-28.81,2.76s-20.93-9.61-28.81-2.76c-7.88,6.85,3.67,26,28.81,26s36.69-19.14,28.81-26Z"/>
        <path class="cls-10" d="m262.73,327.11c-7.88-6.85-19.34,2.76-28.81,2.76s-20.93-9.61-28.81-2.76c-7.88,6.85,3.67,26,28.81,26s36.69-19.14,28.81-26Z"/>
        <path class="cls-2" d="m335.75,269.96c-1.92,56.24-49.29,106.95-105.53,105.03-56.24-1.92-100.05-55.74-98.13-111.98,1.92-56.24,48.84-93.61,105.08-91.69,56.24,1.92,100.5,42.4,98.58,98.64Z"/>
      </g>
      <path class="cls-23" d="m122.55,253.81c11.93-5.99,26.84-12.31,44.5-17.34,20.11-5.72,38.18-8.17,52.75-9.14,2.04-10.53,4.08-21.05,6.12-31.58,3.33,9.7,6.65,19.4,9.98,29.09,12.99-1.06,28.72-1.29,46.39.67,23.64,2.62,43.35,8.34,58.23,13.9-2.27-11.26-7.75-30.05-22.5-47.21-3.96-4.61-8.39-8.86-13.19-12.72-32.03-25.72-80.85-33.89-121.24-13.68-18.14,9.08-30.99,22.1-40.06,35.36-16.47,24.09-20.45,49-20.97,52.63Z"/>
      <g>
        <path class="cls-23" d="m143.53,201.18c-16.47,24.09-20.45,49-20.97,52.63,11.93-5.99,26.84-12.31,44.5-17.34,20.11-5.72,38.18-8.17,52.75-9.14,2.04-10.53,4.08-21.05,6.12-31.58,3.33,9.7,6.65,19.4,9.98,29.09,12.99-1.06,28.72-1.29,46.39.67,23.64,2.62,43.35,8.34,58.23,13.9-2.27-11.26-7.75-30.05-22.5-47.21"/>
        <path class="cls-30" d="m143.53,201.18c-9.99,16.03-16.8,34.16-19.52,52.84,0,0-2.12-1.53-2.12-1.53,7.54-3.93,15.25-7.57,23.18-10.69,23.76-9.48,49.03-15.27,74.56-17.03,0,0-2.35,2.08-2.35,2.08l6.04-31.59,1.89-9.86c2.12,6.23,10.85,31.9,13.13,38.62,0,0-2.65-1.73-2.65-1.73,8.94-.71,17.92-.91,26.88-.57,26.83.92,53.5,6.51,78.44,16.39,0,0-1.87,1.59-1.87,1.59-1.57-8.58-4.04-17-7.58-24.99-3.49-8.05-8.1-15.6-13.55-22.49,12.66,13.7,20.75,31.15,24.42,49.38-9.09-3.29-18.38-6.07-27.77-8.3-25.66-6.14-52.28-8.08-78.56-5.87,0,0-1.99.16-1.99.16l-.66-1.9-10.05-29.07,5.12-.36-6.2,31.56-.38,1.95-1.97.13c-25.09,1.59-49.94,6.77-73.54,15.44-8.76,3.23-17.4,6.91-25.8,11.03.89-5.69,2.16-11.36,3.87-16.81,4.2-13.71,10.58-26.8,19.03-38.38h0Z"/>
      </g>
      <path class="cls-13" d="m185.56,142.41c-34.22,4.05-62.93,17.1-78.1,56.13-3.73,9.59,46.6-4.41,103.59-40.17,6.57,4.87,16.76,11.76,30.15,18.22,3.54,1.71,48.93,23.3,56.68,13.04,1.48-1.96,4.97-9.56-19.31-39.65,13.91,15.67,76.15,32.25,78.15,27.49,2.07-4.93-90.97-81.71-151.61-36.49"/>
      <path class="cls-12" d="m182.75,399.9c-9.79,4.94-19.34,11.91-24.65,21.5"/>
      <path class="cls-3" d="m215.94,458.63c1.45-3.82,5.32-6.36,11.58-10.47,3.17-2.08,6.19-4.06,7.34-3.15.98.78.75,3.75-3.9,12.81,2.5.27,6.59,1.05,10.72,3.69,2.38,1.52,7.08,5.12,6.35,6.96-.38.96-2.53,2.09-13.72.06,1.9.62,5.14,1.98,7.95,5,2.16,2.32,4.87,6.48,3.81,7.76-.7.85-3.29.72-11.92-3.99,1.81,1.17,4.69,3.37,7.05,7.02,1.09,1.69,3.01,4.68,2.27,5.5-.71.8-4.11-.2-16.54-8.84-8.89-6.78-13.41-16-10.99-22.36Z"/>
      <path class="cls-3" d="m252.66,458.63c-1.45-3.82-5.32-6.36-11.58-10.47-3.17-2.08-6.19-4.06-7.34-3.15-.98.78-.75,3.75,3.9,12.81-2.5.27-6.59,1.05-10.72,3.69-2.38,1.52-7.08,5.12-6.35,6.96.38.96,2.53,2.09,13.72.06-1.9.62-5.14,1.98-7.95,5-2.16,2.32-4.87,6.48-3.81,7.76.7.85,3.29.72,11.92-3.99-1.81,1.17-4.69,3.37-7.05,7.02-1.09,1.69-3.01,4.68-2.27,5.5.71.8,4.11-.2,16.54-8.84,8.89-6.78,13.41-16,10.99-22.36Z"/>
      <path class="cls-3" d="m215.47,458.92c1.45-3.82,5.32-6.36,11.58-10.47,3.17-2.08,6.19-4.06,7.34-3.15.98.78.75,3.75-3.9,12.81,2.5.27,6.59,1.05,10.72,3.69,2.38,1.52,7.08,5.12,6.35,6.96-.38.96-2.53,2.09-13.72.06,1.9.62,5.14,1.98,7.95,5,2.16,2.32,4.87,6.48,3.81,7.76-.7.85-3.29.72-11.92-3.99,1.81,1.17,4.69,3.37,7.05,7.02,1.09,1.69,3.01,4.68,2.27,5.5-.71.8-4.11-.2-16.54-8.84-8.89-6.78-13.41-16-10.99-22.36Z"/>
    </g>
    <g>
      <circle class="cls-22" cx="214.46" cy="301.13" r="2.09"/>
      <circle class="cls-22" cx="208.82" cy="310.36" r="2.09"/>
      <circle class="cls-22" cx="220.62" cy="304.89" r="2.09"/>
    </g>
    <g>
      <circle class="cls-22" cx="253.98" cy="301.13" r="2.09"/>
      <circle class="cls-22" cx="259.62" cy="310.36" r="2.09"/>
      <circle class="cls-22" cx="247.82" cy="304.89" r="2.09"/>
    </g>
    <polygon class="cls-16" points="292.49 506.02 176.84 506.02 163.3 418.19 303 418.19 292.49 506.02"/>
    <circle class="cls-11" cx="233.86" cy="448.73" r="40.09"/>
    <g>
      <g>
        <path class="cls-24" d="m247.93,427c-.01.09-.03.18-.04.28h0c-.01.09-.03.19-.05.29-.18,1.06-.52,2.26-1.1,3.5-.05.11-.11.23-.17.34-.03.06-.06.11-.09.17-.06.11-.12.23-.18.34-.19.34-.4.68-.64,1.03-.04.06-.08.11-.12.17-.2.29-.42.57-.65.85-.28.34-.59.68-.92,1.01-2.3,2.3-4.83,3.33-6.92,3.77-.55.12-1.08.19-1.55.24-.49.05-.93.06-1.31.06-.2,0-.38,0-.54-.01-.16,0-.34.01-.54.01-.38,0-.82-.02-1.31-.06-.48-.05-1-.12-1.55-.24-.26-.06-.53-.12-.8-.19-.21-.06-.41-.12-.62-.19-.07-.02-.14-.05-.21-.07-.14-.05-.28-.1-.43-.15-.65-.25-1.31-.56-1.98-.95-.07-.04-.15-.09-.22-.13-.15-.09-.3-.18-.45-.28-.15-.1-.3-.2-.45-.31-.15-.11-.3-.22-.44-.33-.44-.35-.88-.73-1.31-1.16-5.1-5.1-3.97-11.32-3.97-11.32,0,0,.58-.11,1.54-.11.12,0,.25,0,.39,0,.06,0,.12,0,.19,0,.08,0,.15,0,.23.01.06,0,.12,0,.19.01.01,0,.02,0,.04,0,.06,0,.12,0,.18.02.25.02.51.05.78.09.06,0,.12.02.18.03.77.12,1.63.33,2.53.65.24.09.49.18.74.29.05.02.1.04.15.07.1.04.2.09.3.14t0,0c.1.05.2.1.3.15.05.03.1.05.15.08.1.05.2.11.3.16t0,0c.1.06.2.11.3.17,0,0,0,0,0,0,.1.06.2.12.3.18,0,0,0,0,0,0,.15.1.3.2.46.3.05.03.1.07.15.11.25.18.51.37.76.57h0c.85-2.05,2.04-3.52,2.93-4.42.03-.03.05-.05.07-.07.07-.07.14-.14.21-.21.54-.51.9-.77.9-.77,0,0,.12.09.34.26.03.03.06.05.1.08.05.04.1.09.16.14.04.03.08.07.12.11.04.04.08.08.13.12.04.04.09.08.14.13.9.87,2.23,2.41,3.14,4.64h0c.15-.12.3-.24.46-.35.05-.04.1-.08.15-.11.15-.11.31-.22.46-.32.26-.17.51-.33.77-.47.1-.06.2-.11.3-.17.66-.35,1.31-.63,1.95-.85.19-.07.39-.13.58-.19.1-.03.2-.06.29-.08.09-.03.18-.05.27-.07.42-.11.83-.19,1.22-.25.07-.01.14-.02.21-.03.26-.04.51-.07.75-.09.07,0,.14-.01.2-.02,0,0,.01,0,.02,0,.07,0,.14-.01.2-.01.08,0,.15,0,.22-.01.07,0,.13,0,.2,0,.13,0,.26,0,.38,0,.96,0,1.54.11,1.54.11,0,0,.25,1.37-.02,3.35Z"/>
        <path class="cls-17" d="m247.95,423.65s-.58-.11-1.54-.11c-.12,0-.25,0-.38,0-.06,0-.13,0-.2,0-.07,0-.15,0-.22.01-.07,0-.13,0-.2.01,0,0-.01,0-.02,0-.07,0-.14,0-.2.02-.24.02-.49.05-.75.09-.07,0-.14.02-.21.03-.39.06-.8.14-1.22.25-.09.02-.18.05-.27.07-.1.03-.19.06-.29.08-.19.06-.38.12-.58.19-.63.22-1.29.5-1.95.85-.1.05-.2.11-.3.17-.25.14-.51.3-.77.47-.15.1-.31.21-.46.32-.05.04-.1.07-.15.11-.15.11-.3.23-.46.35-.92-2.22-2.25-3.77-3.14-4.64-.05-.04-.09-.09-.14-.13-.04-.04-.09-.08-.13-.12-.04-.04-.08-.07-.12-.11-.06-.05-.11-.1-.16-.14-.03-.03-.07-.06-.1-.08-.21-.17-.34-.26-.34-.26,0,0-.37.26-.9.77-.07.06-.14.13-.21.21-.02.02-.05.05-.07.07-.88.9-2.08,2.37-2.93,4.42-.25-.2-.51-.39-.76-.57-.05-.04-.1-.07-.15-.11-.15-.1-.31-.2-.46-.3,0,0,0,0,0,0-.1-.06-.2-.13-.3-.18,0,0,0,0,0,0-.1-.06-.2-.12-.3-.17t0,0c-.1-.06-.2-.11-.3-.16-.05-.03-.1-.05-.15-.08-.1-.05-.2-.1-.3-.15t0,0c-.1-.05-.2-.09-.3-.14-.05-.02-.1-.04-.15-.07-.25-.11-.5-.2-.74-.29-.9-.32-1.75-.53-2.53-.65-.06,0-.12-.02-.18-.03-.27-.04-.53-.07-.78-.09-.06,0-.12-.01-.18-.02-.01,0-.02,0-.04,0-.06,0-.13,0-.19-.01-.08,0-.16,0-.23-.01-.06,0-.13,0-.19,0-.13,0-.26,0-.39,0-.96,0-1.54.11-1.54.11,0,0-1.13,6.22,3.97,11.32.43.43.87.82,1.31,1.16.15.12.3.23.44.33.15.11.3.21.45.31.15.1.3.19.45.28.07.05.15.09.22.13.67.39,1.33.7,1.98.95.14.05.29.11.43.15.07.03.14.05.21.07.21.07.42.13.62.19.27.07.54.14.8.19.55.12,1.08.19,1.55.24.49.05.93.06,1.31.06.2,0,.38,0,.54-.01.16,0,.34.01.54.01.38,0,.82-.02,1.31-.06.48-.05,1-.12,1.55-.24,2.08-.44,4.61-1.47,6.92-3.77h0c.33-.33.64-.67.92-1.01.23-.28.45-.57.65-.85.04-.06.08-.11.12-.17.24-.34.45-.69.64-1.03.06-.11.13-.23.18-.34.03-.06.06-.11.09-.17.06-.11.11-.23.17-.34.58-1.24.92-2.44,1.1-3.5.02-.1.03-.19.05-.28h0c.01-.09.03-.19.04-.28.26-1.98.02-3.35.02-3.35Zm-14.39,14.19c-.13,0-.28,0-.44,0-.17,0-.36,0-.56-.01-.45-.02-.96-.07-1.52-.16-.46-.08-.96-.19-1.48-.34-1.69-.5-3.61-1.44-5.37-3.21-1.91-1.91-3.1-4.2-3.55-6.82-.18-1.04-.19-1.93-.17-2.55.13,0,.28,0,.44,0,1.8,0,5.14.41,8.2,3.05.25.21.49.44.73.68.08.08.17.17.25.25,1.4,1.47,2.39,3.17,2.95,5.06.15.49.26.99.35,1.51.18,1.04.19,1.93.17,2.55Zm2.72-.17c-.56.09-1.07.14-1.52.16.03-.93-.03-2.38-.48-4.05-.16-.58-.36-1.18-.62-1.8-.61-1.44-1.55-2.95-2.97-4.37-.06-.06-.13-.13-.19-.19.37-.99.87-1.94,1.5-2.83.6-.86,1.21-1.49,1.66-1.91.45.42,1.06,1.06,1.66,1.91.63.9,1.13,1.84,1.51,2.84.16.42.3.86.41,1.3.26,1.02.39,2.09.39,3.2,0,2.06-.45,3.98-1.34,5.74Zm10.4-10.37c-.44,2.62-1.64,4.91-3.55,6.82-1.77,1.77-3.69,2.72-5.38,3.21.63-1.49,1.07-3.29,1.07-5.4,0-1.54-.24-2.92-.61-4.14,3.06-2.63,6.4-3.05,8.2-3.05.16,0,.3,0,.44,0,.02.61,0,1.5-.17,2.55Z"/>
        <path class="cls-23" d="m254.46,448.87c0,11.38-12.4,27.47-20.6,27.47-7.4,0-20.6-16.09-20.6-27.47s9.02-15.73,20.4-15.73,20.8,4.35,20.8,15.73Z"/>
        <g>
          <circle class="cls-29" cx="233.66" cy="443.34" r="1.8"/>
          <circle class="cls-29" cx="243.85" cy="443.34" r="1.8"/>
          <circle class="cls-29" cx="225.86" cy="446.94" r="1.8"/>
          <circle class="cls-29" cx="239.06" cy="448.14" r="1.8"/>
          <circle class="cls-29" cx="248.65" cy="448.14" r="1.8"/>
          <circle class="cls-29" cx="224.66" cy="454.14" r="1.8"/>
          <circle class="cls-29" cx="233.66" cy="454.14" r="1.8"/>
          <circle class="cls-29" cx="243.85" cy="454.14" r="1.8"/>
          <circle class="cls-29" cx="229.46" cy="461.34" r="1.8"/>
          <circle class="cls-29" cx="239.06" cy="461.34" r="1.8"/>
          <circle class="cls-29" cx="233.66" cy="467.34" r="1.8"/>
        </g>
        <path class="cls-30" d="m247.95,459.34c-.09-.04-.18-.06-.27-.06-.22,0-.43.12-.54.33-.69,1.37-1.49,2.71-2.37,3.97-.19.27-.12.65.15.84.1.07.22.11.34.11.19,0,.37-.09.49-.25.7-1.01,1.36-2.06,1.95-3.15h0s0,0,0,0h0s0,0,0,0h0s0,0,0,0c0-.01.01-.02.02-.03,0,0,0,0,0,0,0,0,0,0,0,0h0s0,0,0,0c0,0,0,0,0,0,0,0,0,0,0,0,0,0,0,0,0,0,0,0,0,0,0,0,0,0,0,0,0,0,0,0,0,0,0,0,0,0,0,0,0,0,0,0,0,0,0,0,0,0,0,0,0,0,0,0,0,0,0,0,0,0,0,0,0,0,0,0,0,0,0,0,0,0,0,0,0,0,0,0,0,0,0,0,0,0,0,0,0,0,0,0,0,0,0,0,0,0,0,0,0,0t0,0s0,0,0,0c0,0,0,0,0,0,0,0,0,0,0,0t0,0s0,0,0,0c0,0,0,0,0,0,0,0,0-.01,0-.02t0,0s0,0,0,0h0s0,0,0,0c0,0,0,0,0,0,0,0,0,0,0,0,0,0,0,0,0,0,0,0,0,0,0,0t0,0s0,0,0,0h0s0-.02.01-.03c0,0,0,0,0,0,0,0,0,0,0,0h0s0,0,0,0h0s0,0,0,0c.12-.23.24-.45.35-.68.15-.3.03-.66-.27-.81Zm-3.72,5.99c-.11-.09-.25-.14-.38-.14-.17,0-.35.07-.46.22l-.04.04c-.21.26-.17.63.08.84.11.09.25.14.38.14.17,0,.34-.07.46-.22.01-.02.03-.03.04-.05.21-.26.17-.63-.08-.84Zm-1.56,1.83c-.12-.11-.27-.17-.42-.17s-.31.06-.43.18c-1.15,1.17-2.32,2.14-3.48,2.86-.28.18-.37.55-.19.83.11.18.31.28.51.28.11,0,.22-.03.32-.09.2-.13.4-.26.6-.4h0s.02-.01.02-.02c0,0,0,0,0,0,0,0,.02-.01.02-.02h0s0,0,0,0h0s.01-.01.02-.02t0,0s.01,0,.02-.02c0,0,0,0,0,0,0,0,.01-.01.02-.02h0s0,0,0,0c0,0,.01,0,.02-.01,0,0,0,0,0,0,0,0,0,0,0,0,0,0,.01,0,.02-.01t0,0s0,0,0,0c0,0,0,0,0,0,0,0,0,0,0,0,0,0,0,0,.01,0h0s0,0,0,0c0,0,0,0,0,0,0,0,0,0,0,0,0,0,0,0,0,0,0,0,.01,0,.02-.01,0,0,0,0,0,0,0,0,0,0,0,0,0,0,0,0,0,0,0,0,0,0,0,0h0s0,0,.01,0c0,0,0,0,0,0,0,0,0,0,0,0,0,0,0,0,0,0h0s0,0,0,0h0s0,0,0,0h0s0,0,0,0c0,0,0,0,0,0,0,0,0,0,0,0t0,0s0,0,.01-.01t0,0s0,0,0,0h0s0,0,0,0h0s.01,0,.02-.01t0,0s0,0,0,0h0s0,0,.01-.01c0,0,0,0,0,0,0,0,0,0,0,0t0,0s0,0,0,0c0,0,0,0,0,0,0,0,0,0,.01,0t0,0s0,0,0,0c0,0,0,0,0,0,0,0,0,0,0,0h0s0,0,0,0c0,0,0,0,0,0h0s0,0,0,0c0,0,0,0,0,0h0s0,0,0,0c0,0,0,0,0,0,0,0,0,0,0,0,0,0,0,0,0,0h0s0,0,0,0c0,0,0,0,0,0,0,0,0,0,0,0h0s0,0,0,0c0,0,0,0,0,0,0,0,0,0,0,0,0,0,0,0,0,0h0s0,0,0,0c0,0,0,0,0,0,0,0,0,0,0,0,0,0,0,0,0,0,0,0,0,0,0,0,0,0,0,0,0,0t0,0s0,0,.01,0c0,0,0,0,0,0,0,0,0,0,0,0,0,0,0,0,0,0s0,0,0,0c0,0,0,0,0,0,0,0,0,0,0,0,0,0,0,0,0,0t0,0s0,0,0,0c0,0,0,0,0,0,0,0,0,0,0,0,0,0,0,0,0,0h0s0,0,0,0h0s0,0,0,0c0,0,0,0,0,0,0,0,0,0,0,0h0s0,0,0,0c0,0,0,0,0,0,0,0,0,0,0,0,0,0,0,0,0,0,0,0,0,0,0,0,0,0,0,0,0,0,0,0,0,0,0,0,0,0,0,0,0,0,0,0,0,0,0,0,0,0,0,0,0,0,0,0,0,0,0,0,0,0,0,0,0,0,0,0,0,0,0,0,0,0,0,0,0,0t0,0s0,0,0,0c0,0,0,0,0,0,0,0,0,0,0,0t0,0s0,0,0,0c0,0,0,0,0,0,0,0,0,0,0,0t0,0s0,0,0,0c0,0,0,0,0,0s0,0,0,0,0,0,0,0c0,0,0,0,0,0,0,0,0,0,0,0,0,0,0,0,0,0s0,0,0,0,0,0,0,0c0,0,0,0,0,0,0,0,0,0,0,0,0,0,0,0,0,0,0,0,0,0,0,0t0,0s0,0,0,0,0,0,0,0c0,0,0,0,0,0h0s0,0,0,0,0,0,0,0c0,0,0,0,0,0,0,0,0,0,0,0,0,0,0,0,0,0s0,0,0,0c0,0,0,0,0,0,0,0,0,0,0,0,0,0,0,0,0,0t0,0s0,0,0,0c0,0,0,0,0,0,0,0,0,0,0,0h0s0,0,0,0c0,0,0,0,0,0,0,0,0,0,0,0,0,0,0,0,0,0t0,0s0,0,0,0c0,0,0,0,0,0,0,0,0,0,0,0,0,0,0,0,0,0,0,0,0,0,0,0s0,0,0,0,0,0,0,0c0,0,0,0,0,0,0,0,0,0,0,0,0,0,0,0,0,0h0s0,0,0,0c0,0,0,0,0,0s0,0,0,0,0,0,0,0c0,0,0,0,0,0,0,0,0,0,0,0,0,0,0,0,0,0h0s0,0,0,0c0,0,0,0,0,0h0s0,0,0,0c0,0,0,0,0,0,0,0,0,0,0,0,0,0,0,0,0,0s0,0,0,0h0s0,0,0,0c0,0,0,0,0,0,0,0,0,0,0,0h0s0,0,0,0c0,0,0,0,0,0,0,0,0,0,0,0s0,0,0,0h0s0,0,0,0c0,0,0,0,0,0,0,0,0,0,0,0s0,0,0,0c0,0,0,0,0,0t0,0s0,0,0,0t0,0s0,0,0,0c0,0,0,0,0,0h0s0,0,0,0c0,0,0,0,0,0,0,0,0,0,0,0,0,0,0,0,0,0h0s0,0,0,0h0s0,0,0,0,0,0,0,0c0,0,0,0,0,0,0,0,0,0,0,0,0,0,0,0,0,0s0,0,0,0c0,0,0,0,0,0,0,0,0,0,0,0s0,0,0,0c0,0,0,0,0,0s0,0,0,0t0,0h0s0,0,0,0c0,0,0,0,0,0h0s0,0,0,0c0,0,0,0,0,0,0,0,0,0,0,0,0,0,0,0,0,0h0s0,0,0,0c0,0,0,0,0,0,0,0,0,0,0,0,0,0,0,0,0,0h0s0,0,0,0c0,0,0,0,0,0,0,0,0,0,0,0s0,0,0,0h0s0,0,0,0c0,0,0,0,0,0,0,0,0,0,0,0,0,0,0,0,0,0t0,0s0,0,0,0c0,0,0,0,0,0s0,0,0,0,0,0,0,0h0s0,0,0,0,0,0,0,0c0,0,0,0,0,0,0,0,0,0,0,0,0,0,0,0,0,0s0,0,0,0c0,0,0,0,0,0h0s0,0,0,0c0,0,0,0,0,0s0,0,0,0c0,0,0,0,0,0h0s0,0,0,0c0,0,0,0,0,0,0,0,0,0,0,0s0,0,0,0h0s0,0,0,0c0,0,0,0,0,0t0,0s0,0,0,0c0,0,0,0,0,0h0s0,0,0,0h0s0,0,0,0c0,0,0,0,0,0,0,0,0,0,0,0,0,0,0,0,0,0h0s0,0,0,0c0,0,0,0,0,0s0,0,0,0c0,0,0,0,0,0,0,0,0,0,0,0,0,0,0,0,0,0h0s0,0,0,0c0,0,0,0,0,0,0,0,0,0,0,0,0,0,0,0,0,0h0s0,0,0,0c0,0,0,0,0,0,0,0,0,0,0,0s0,0,0,0c0,0,0,0,0,0,0,0,0,0,0,0,0,0,0,0,0,0t0,0s0,0,0,0c0,0,0,0,0,0,0,0,0,0,0,0,0,0,0,0,0,0s0,0,0,0h0s0,0,0,0c0,0,0,0,0,0,0,0,0,0,0,0,0,0,0,0,0,0h0s0,0,0,0c0,0,0,0,0,0,0,0,0,0,0,0,0,0,0,0,0,0,0,0,0,0,0,0h0s0,0,0,0c0,0,0,0,0,0h0s0,0,0,0c0,0,0,0,0,0,0,0,0,0,0,0,0,0,0,0,0,0h0s0,0,0,0c0,0,0,0,0,0t0,0s0,0,0,0h0s0,0,0,0c0,0,0,0,0,0,0,0,0,0,0,0,0,0,0,0,0,0,0,0,0,0,0,0t0,0s0,0,0,0h0s0,0,0,0,0,0,0,0c0,0,0,0,0,0,0,0,0,0,0,0,0,0,0,0,0,0,0,0,0,0,0,0,0,0,0,0,0,0h0s0,0,0,0c0,0,0,0,0,0,0,0,0,0,0,0,0,0,0,0,0,0,0,0,0,0,0,0,0,0,0,0,0,0,0,0,0,0,0,0s0,0,0,0c0,0,0,0,0,0,0,0,0,0,0,0h0s0,0,0,0c0,0,0,0,0,0,0,0,0,0,0,0,0,0,0,0,0,0s0,0,0,0h0s0,0,0,0,0,0,0,0c0,0,0,0,0,0,0,0,0,0,0,0,0,0,0,0,0,0h0s0,0,0,0h0s0,0,0,0c0,0,0,0,0,0,0,0,0,0,0,0,0,0,0,0,0,0,0,0,0,0,0,0,0,0,0,0,0,0s0,0,0,0c0,0,0,0,0,0,0,0,0,0,0,0,0,0,0,0,0,0,0,0,0,0,0,0h0s0,0,0,0t0,0s0,0,0,0t0,0s0,0,0,0c0,0,0,0,0,0s0,0,0,0,0,0,0,0c0,0,0,0,0,0h0s0,0,0,0c0,0,0,0,0,0,0,0,0,0,0,0h0s0,0,0,0c0,0,0,0,0,0,0,0,0,0,0,0,0,0,0,0,0,0,0,0,0,0,0,0,0,0,0,0,0,0,0,0,0,0,0,0,0,0,0,0,0,0h0s0,0,0,0c0,0,0,0,0,0,0,0,0,0,0,0h0s0,0,0,0h0s0,0,0,0h0s0,0,0,0h0s0,0,0,0h0s0,0,0,0c0,0,0,0,0,0,0,0,0,0,0,0,0,0,0,0,0,0,0,0,0,0,0,0s0,0,0,0c0,0,0,0,0,0h0s0,0,0,0h0s0,0,0,0c0,0,0,0,0,0t0,0s0,0,0,0h0s0,0,0,0c0,0,0,0,0,0,0,0,0,0,0,0,0,0,0,0,0,0,0,0,0,0,0,0h0s0,0,0,0c0,0,0,0,0,0s0,0,0,0c0,0,0,0,0,0,0,0,0,0,0,0,0,0,0,0,0,0,0,0,0,0,0,0h0s0,0,0,0c0,0,0,0,0,0,0,0,0,0,0,0,0,0,0,0,0,0,0,0,0,0,0,0h0s0,0,0,0c0,0,0,0,0,0h0s0,0,0,0c0,0,0,0,0,0,0,0,0,0,0,0,0,0,0,0,0,0t0,0s0,0,0,0h0s0,0,0,0c0,0,0,0,0,0s0,0,0,0c0,0,0,0,0,0,0,0,0,0,0,0,0,0,0,0,0,0,0,0,0,0,0,0t0,0s0,0,0,0h0s0,0,0,0c0,0,0,0,0,0,0,0,0,0,0,0,0,0,0,0,0,0,0,0,0,0,0,0,0,0,0,0,0,0,0,0,0,0,0,0,0,0,0,0,0,0h0s0,0,0,0c0,0,0,0,0,0,0,0,0,0,0,0,0,0,0,0,0,0h0s0,0,0,0h0s0,0,0,0h0s0,0,0,0t0,0s0,0,0,0,0,0,0,0h0s0,0,0,0,0,0,0,0c0,0,0,0,0,0h0s0,0,0,0c0,0,0,0,0,0,0,0,0,0,0,0,0,0,0,0,0,0h0s0,0,0,0c0,0,0,0,0,0h0s0-.01.01-.02c0,0,0,0,0,0,0,0,0,0,0,0,0,0,0,0,0,0h0s0,0,0,0c0,0,0,0,0,0h0s0,0,0,0,0,0,0,0c0,0,0,0,0,0h0s0-.01.01-.01c0,0,0,0,0,0,0,0,0,0,0,0,0,0,0,0,0,0h0s0,0,0,0c0,0,0,0,0,0h0s0,0,0,0c0,0,0,0,0,0h0s0,0,0,0c0,0,0,0,0,0h0s0,0,.01-.01c0,0,0,0,0,0,0,0,0,0,0,0,0,0,0,0,0,0h0s0,0,0,0c0,0,0,0,0,0,0,0,0,0,0,0h0s0,0,0,0c0,0,0,0,0,0,0,0,0,0,0,0t0,0s.01,0,.01-.01c0,0,0,0,0,0,0,0,0,0,0,0,0,0,0,0,0,0,0,0,.01,0,.02-.01h.01s0-.01,0-.01c0,0,0,0,.01-.01,0,0,0,0,0,0,0,0,0,0,0,0t0,0s0,0,0,0h0s0,0,0-.01h0s0,0,0,0c0,0,0,0,0,0,0,0,0,0,0,0t0,0s0,0,.02-.01c0,0,0,0,0,0h0s0,0,0,0h0s0,0,.01-.01c0,0,0,0,0,0h0s0,0,0,0h0s0,0,0,0c0,0,0,0,.01-.01,0,0,0,0,0,0,0,0,0,0,0,0t0,0s.01-.01.02-.02h0s0,0,0,0c0,0,.01-.01.02-.02,0,0,0,0,0,0h0s.01-.01.02-.02h0s.01-.02.02-.03h0s.01-.01.02-.02h0s0,0,0,0c0,0,.01-.01.02-.02,0,0,0,0,0,0h0s.01-.01.02-.02h0c.16-.16.33-.32.49-.48.23-.24.23-.62,0-.85Z"/>
        <path class="cls-18" d="m218.06,451.51c-.66,0-1.19-.53-1.19-1.19,0-5.69,2.75-9.79,7.95-11.85.61-.24,1.3.06,1.54.67s-.06,1.3-.67,1.54c-4.28,1.69-6.45,4.93-6.45,9.63,0,.66-.53,1.19-1.19,1.19Z"/>
      </g>
      <path class="cls-25" d="m233.66,434.34c5.82,0,10.66,1.17,14,3.4,3.72,2.47,5.6,6.21,5.6,11.13,0,2.54-.68,5.52-1.97,8.63-1.22,2.94-2.95,5.93-5.01,8.64-2.03,2.68-4.26,4.94-6.45,6.53-2.21,1.61-4.28,2.46-5.97,2.46-1.51,0-3.46-.85-5.63-2.46-2.18-1.62-4.43-3.88-6.5-6.55-2.13-2.74-3.92-5.73-5.19-8.65-1.36-3.12-2.08-6.1-2.08-8.61,0-4.94,1.82-8.69,5.41-11.14,3.25-2.22,8.02-3.39,13.79-3.39m0-1.2c-11.38,0-20.4,4.35-20.4,15.73s13.2,27.47,20.6,27.47c8.2,0,20.6-16.09,20.6-27.47s-9.43-15.73-20.8-15.73h0Z"/>
    </g>
    <g>
      <path class="cls-14" d="m269.18,675.46l-5.36,34.08c4.35,2.59,9.36,4.68,14.36,10.69,1.83,2.19,3.34,4.36,4.61,6.39-8.65.97-16.1,1.46-23.44,1.45-5.42,0-16.78-.26-25.05-4.95-.06-7.07-.41-41.84-.41-41.84l35.29-5.82Z"/>
      <path class="cls-5" d="m271.39,712.83c-1.28-.59-4.59-1.91-8.77-1.17-5.88,1.04-9.04,5.37-9.66,6.27"/>
      <path class="cls-5" d="m265.98,708.87c-1.28-.59-4.59-1.91-8.77-1.17-5.88,1.04-9.04,5.37-9.66,6.27"/>
    </g>
    <path class="cls-1" d="m234.17,709.68c3.01,1.81,6.1,3.88,9.22,6.29,4.75,3.66,9.65,8.31,13.13,12.07-5.95-.15-15.19-.93-22.22-4.91-.02-2.29-.07-7.48-.13-13.45Z"/>
    <g>
      <g>
        <path class="cls-14" d="m199.04,675.46l5.36,34.08c-4.35,2.59-9.36,4.68-14.36,10.69-1.83,2.19-3.34,4.36-4.61,6.39,8.65.97,16.1,1.46,23.44,1.45,5.42,0,16.78-.26,25.05-4.95.06-7.07.41-41.84.41-41.84l-35.29-5.82Z"/>
        <path class="cls-5" d="m196.83,712.83c1.28-.59,4.59-1.91,8.77-1.17,5.88,1.04,9.04,5.37,9.66,6.27"/>
        <path class="cls-5" d="m202.24,708.87c1.28-.59,4.59-1.91,8.77-1.17,5.88,1.04,9.04,5.37,9.66,6.27"/>
      </g>
      <path class="cls-1" d="m234.05,709.68c-3.01,1.81-6.1,3.88-9.22,6.29-4.75,3.66-9.65,8.31-13.13,12.07,5.95-.15,15.19-.93,22.22-4.91.02-2.29.07-7.48.13-13.45Z"/>
    </g>
    <g>
      <line class="cls-16" x1="172.11" y1="479.58" x2="182.25" y2="548.72"/>
      <path class="cls-17" d="m172.11,479.58c4.5,22.88,7.89,45.93,10.14,69.14-4.51-22.88-7.89-45.93-10.14-69.14h0Z"/>
    </g>
    <g>
      <line class="cls-16" x1="296.25" y1="479.58" x2="286.11" y2="548.72"/>
      <path class="cls-17" d="m296.25,479.58c-2.26,23.21-5.63,46.26-10.14,69.14,2.25-23.21,5.64-46.26,10.14-69.14h0Z"/>
    </g>
  </g>
  <g>
    <path class="cls-3" d="m260.82,462.88c.85-6.92-11.37-20.4-12.83-20.2-1.24.17-2.28,3.07.31,11.86-2.29-1.04-6.2-2.44-11.1-2.27-2.82.1-8.7.81-9.01,2.76-.16,1.02,1.11,3.09,11.79,7.03-1.95-.43-5.43-.91-9.39.26-3.04.9-7.49,3.1-7.23,4.74.17,1.08,2.47,2.29,12.29,2.63-2.15.09-5.75.51-9.64,2.46-1.8.9-4.97,2.49-4.76,3.58.21,1.05,8.39,1.33,23.49.22,11.1-1.31,15.26-6.32,16.08-13.08Z"/>
    <path class="cls-3" d="m207.36,462.88c-.85-6.92,11.37-20.4,12.83-20.2,1.24.17,2.28,3.07-.31,11.86,2.29-1.04,6.2-2.44,11.1-2.27,2.82.1,8.7.81,9.01,2.76.16,1.02-1.11,3.09-11.79,7.03,1.95-.43,5.43-.91,9.39.26,3.04.9,7.49,3.1,7.23,4.74-.17,1.08-2.47,2.29-12.29,2.63,2.15.09,5.75.51,9.64,2.46,1.8.9,4.97,2.49,4.76,3.58-.21,1.05-8.39,1.33-23.49.22-11.1-1.31-15.26-6.32-16.08-13.08Z"/>
    <path class="cls-16" d="m320.54,439.37h-29.99l11.43,24c-13.08-2.2-32.82-7.03-42.11-8.77l-5.61,21.48c6.97,2.13,29.86,11.25,54.13,20.79,13.19,5.19,26.58-7.04,22.63-20.65-3.87-13.3-7.84-27.35-10.48-36.85Z"/>
    <path class="cls-16" d="m164.95,462.86l11.85-23.48h-29.16c-2.63,9.49-6.61,23.54-10.48,36.85-3.96,13.61,9.43,25.84,22.63,20.65,24.27-9.54,47.16-18.66,54.13-20.79l-5.61-21.48c-9.29,1.74-30.27,6.05-43.35,8.26Z"/>
    <path class="cls-17" d="m208.15,453.78c-3.03.57-7.31,1.41-12.16,2.37-9.97,1.96-22.38,4.41-31.18,5.89l.28,1.64c8.82-1.49,21.25-3.93,31.23-5.9,4.45-.88,8.42-1.66,11.38-2.22l5.22,19.97c-6.6,2.13-23.46,8.77-42.87,16.42l-10.56,4.15c-5.8,2.28-12.27,1.09-16.88-3.12-4.61-4.21-6.39-10.54-4.65-16.53,3.82-13.15,7.87-27.45,10.54-37.08h-1.72c-2.67,9.6-6.65,23.66-10.41,36.61-1.92,6.61.04,13.59,5.12,18.22,3.37,3.08,7.65,4.69,12.02,4.69,2.21,0,4.44-.41,6.59-1.26l10.56-4.16c20.17-7.94,37.6-14.8,43.51-16.61l.76-.23-6.01-23-.76.14Z"/>
    <polygon class="cls-17" points="165.73 439.37 169.21 461.94 170.85 461.69 167.41 439.37 165.73 439.37"/>
    <path class="cls-17" d="m321.4,439.37h-1.72c2.67,9.62,6.72,23.92,10.54,37.08,1.74,5.99-.04,12.33-4.65,16.53-4.61,4.2-11.07,5.4-16.88,3.12l-10.55-4.15c-19.42-7.65-36.29-14.29-42.88-16.42l5.22-19.97c3.7.72,8.9,1.87,14.38,3.08,8.97,1.98,19.14,4.23,26.98,5.55l.28-1.64c-7.8-1.31-17.94-3.56-26.9-5.54-5.89-1.3-11.44-2.53-15.19-3.23l-.76-.14-6.01,23,.76.23c5.91,1.81,23.34,8.67,43.52,16.62l10.55,4.15c2.15.84,4.38,1.26,6.59,1.26,4.37,0,8.64-1.61,12.02-4.69,5.08-4.63,7.04-11.62,5.12-18.22-3.77-12.96-7.75-27.01-10.41-36.61Z"/>
    <polygon class="cls-17" points="303.85 439.37 300.34 462.34 298.69 462.09 302.18 439.37 303.85 439.37"/>
  </g>
</svg>