<svg xmlns="http://www.w3.org/2000/svg" xmlns:xlink="http://www.w3.org/1999/xlink" viewBox="0 0 294.31754 674.83632"><defs><style>.cls-1,.cls-22,.cls-23,.cls-24,.cls-25,.cls-32,.cls-4{fill:none;}.cls-2,.cls-9{fill:#8dd39c;}.cls-10,.cls-12,.cls-27,.cls-3{fill:#6cbc80;}.cls-10,.cls-12,.cls-26,.cls-3,.cls-4,.cls-9{stroke:#5a8c63;}.cls-10,.cls-12,.cls-22,.cls-23,.cls-24,.cls-25,.cls-26,.cls-3,.cls-31,.cls-32,.cls-33,.cls-4,.cls-5,.cls-7,.cls-8,.cls-9{stroke-miterlimit:10;}.cls-26,.cls-3,.cls-31,.cls-33,.cls-4,.cls-9{stroke-width:1.65956px;}.cls-11,.cls-15,.cls-5{fill:#db6a6a;}.cls-32,.cls-33,.cls-5{stroke:#bc5757;}.cls-5{stroke-width:4.14591px;}.cls-6{fill:#a36c6c;opacity:0.2;}.cls-14,.cls-7{fill:#fca69a;}.cls-24,.cls-7{stroke:#c15f5f;}.cls-7{stroke-width:2px;}.cls-8{fill:#fcc7be;stroke:#dd9f97;stroke-width:1.63419px;}.cls-10{stroke-width:3.37741px;}.cls-12{stroke-width:3.64221px;}.cls-13{fill:#dbcfa0;}.cls-15,.cls-25{opacity:0.4;}.cls-16{clip-path:url(#clip-path);}.cls-17{fill:#ef8e8e;opacity:0.51;}.cls-18{fill:#fff4f3;}.cls-19{fill:#352727;}.cls-20{fill:#bc5757;}.cls-21{fill:#aa4949;}.cls-22{stroke:#c6867d;stroke-width:2.55533px;}.cls-23{stroke:#db8686;}.cls-23,.cls-24{stroke-width:2.65529px;}.cls-25{stroke:#ffe9e1;stroke-linecap:round;stroke-width:3px;}.cls-26,.cls-31{fill:#ffe9e1;}.cls-28{fill:#5a8c63;}.cls-29{fill:#fff;opacity:0.3;}.cls-30{fill:#a14b4b;}.cls-31{stroke:#b78383;}.cls-32{stroke-width:3.78646px;}.cls-33{fill:#ed8383;}</style><clipPath id="clip-path"><path class="cls-1" d="M248.9014,203.89668c-1.919,56.24017-49.29386,106.946-105.534,105.02706-56.24019-1.919-100.04862-55.73612-98.12964-111.97629s48.83868-93.60631,105.07887-91.68733C206.55677,107.17909,250.82037,147.65652,248.9014,203.89668Z"/></clipPath></defs><g id="Layer_2" data-name="Layer 2"><g id="hero_1-success"><polygon class="cls-2" points="201.32 468.7 93.839 466.948 89.996 439.951 205.644 439.951 201.32 468.7"/><line class="cls-3" x1="78.1683" y1="367.1713" x2="90.31009" y2="451.31176"/><line class="cls-3" x1="216.14926" y1="367.1713" x2="204.00747" y2="451.31176"/><polyline class="cls-4" points="203.815 451.284 177.091 637.839 148.568 654.799 148.512 484.006 146.007 484.004 145.75 654.799 117.227 637.839 90.503 451.284"/><path class="cls-5" d="M141.57755,73.30894c-12.35058-.96979-45.13086-1.85444-76.5354,18.70867-2.78857,1.82589-45.50781,30.75119-52.72436,82.20471C4.75846,228.11975,44.06,250.36813,42.9318,316.52154c-.6582,38.5911-24.41553,52.53867-14.74,66.89762,15.77173,23.40588,81.50293,5.55493,112.252-6.23621,20.62134-7.90759,74.44849-29.44659,110.551-87.3071,11.96021-19.16818,36.5542-58.58435,30.04736-110.55118-1.9292-15.40786-7.3872-58.99957-45.92138-87.30706C195.101,62.61873,149.288,71.6573,141.57755,73.30894Z"/><ellipse class="cls-6" cx="148.06234" cy="663.016" rx="134.13489" ry="11.82032"/><path class="cls-7" d="M42.59258,481.68581c2.0306,3.54806,1.53928,8.14348.74262,15.59486-.40284,3.76805-.78681,7.35933-2.22786,7.67367-1.22418.267-3.37406-1.79523-7.42609-11.13919a24.76093,24.76093,0,0,1-9.654,5.9409c-2.67994.87278-8.451,2.218-9.40643.49507-.50314-.90726-.012-3.28033,8.66381-10.64412a18.83432,18.83432,0,0,1-8.91138,2.97045c-3.16113.19668-8.10076-.34833-8.41623-1.98028-.20851-1.07873,1.53246-2.99913,10.64409-6.68352a23.5997,23.5997,0,0,1-9.90147.99016c-2.00177-.23217-5.52491-.64081-5.69339-1.73276-.16277-1.055,2.75963-3.0464,17.32762-7.17859C29.21492,473.42241,39.21255,475.7799,42.59258,481.68581Z"/><path class="cls-8" d="M104.89249,343.69583s-32.89132-11.30639-41.11415,17.47351S39.62378,454.961,26.26169,474.4902l17.73047,11.30638c27.49509-32.37738,57.81677-109.20944,57.81677-109.20944S118.25458,349.863,104.89249,343.69583Z"/><path class="cls-9" d="M104.89249,343.69583s-33.63937-10.4966-41.381,19.59686C56.05433,392.28042,39.62378,454.961,26.26169,474.4902l17.73047,11.30638c27.49509-32.37738,57.81677-109.20944,57.81677-109.20944S118.25458,349.863,104.89249,343.69583Z"/><polyline class="cls-9" points="145.142 439.8 203.815 452.134 177.091 638.69 148.568 655.649 148.512 484.857 146.007 484.854 145.75 655.649 117.227 638.69 90.503 452.134 149.176 439.8"/><path class="cls-8" d="M189.42506,343.69583s32.89131-11.30639,41.11414,17.47351S254.69376,454.961,268.05585,474.4902l-17.73047,11.30638c-27.49508-32.37738-57.81676-109.20944-57.81676-109.20944S176.063,349.863,189.42506,343.69583Z"/><path class="cls-7" d="M251.725,481.68581c-2.03059,3.54806-1.53928,8.14348-.74262,15.59486.40284,3.76805.78681,7.35933,2.22786,7.67367,1.22418.267,3.37407-1.79523,7.4261-11.13919a24.7608,24.7608,0,0,0,9.654,5.9409c2.67994.87278,8.451,2.218,9.40643.49507.50314-.90726.012-3.28033-8.66381-10.64412a18.83432,18.83432,0,0,0,8.91138,2.97045c3.16113.19668,8.10076-.34833,8.41624-1.98028.2085-1.07873-1.53247-2.99913-10.6441-6.68352a23.59973,23.59973,0,0,0,9.90148.99016c2.00176-.23217,5.5249-.64081,5.69338-1.73276.16278-1.055-2.75963-3.0464-17.32762-7.17859C265.10262,473.42241,255.105,475.7799,251.725,481.68581Z"/><path class="cls-9" d="M189.42506,343.69583s33.27742-9.94855,41.50025,18.83135,23.76845,92.4338,37.13054,111.963l-17.73047,11.30638c-27.49508-32.37738-57.81676-109.20944-57.81676-109.20944S176.063,349.863,189.42506,343.69583Z"/><path class="cls-10" d="M126.82,80.2227s-37.688-41.11414-78.11687-12.33424C26.079,83.99377,126.82,80.2227,126.82,80.2227Z"/><path class="cls-11" d="M35.70766,187.74243a253.664,253.664,0,0,1,97.24692-26.47131q3.06126-15.789,6.12256-31.578,4.9886,14.54736,9.97718,29.09471a241.95753,241.95753,0,0,1,104.62009,14.56879c-2.27348-11.26086-7.75072-30.04822-22.50438-47.20827A99.71437,99.71437,0,0,0,217.97773,113.43C185.94456,87.70752,137.12466,79.53833,96.74259,99.75234a105.515,105.515,0,0,0-40.0601,35.357A133.37052,133.37052,0,0,0,35.70766,187.74243Z"/><polyline class="cls-2" points="87.114 427 91.953 456.979 202.892 458.579 207.084 428.767"/><path class="cls-9" d="M229.53914,359.11361c-8.65926-31.9727-67.62374-42.718-62.04163-41.79939V301.55379H126.82v15.76043s-53.13359,8.90811-62.04162,41.79939"/><path class="cls-12" d="M117.74066,80.05139c2.26507-33.44488,40.372-52.83892,47.80726-57.96186C164.39731,19.60678,154.37967,5.18979,153.22906,2.707a94.88235,94.88235,0,0,0-27.73778,28.91573C112.6259,52.596,111.522,68.91232,111.57353,77.99568"/><ellipse class="cls-13" cx="259.6279" cy="223.98674" rx="5.74114" ry="2.02628" transform="translate(7.9925 456.91662) rotate(-83.57439)"/><ellipse class="cls-13" cx="274.03324" cy="193.11528" rx="2.02628" ry="5.74114"/><ellipse class="cls-13" cx="269.95171" cy="241.46282" rx="5.74114" ry="2.02628" transform="translate(-0.20535 482.69586) rotate(-83.57439)"/><ellipse class="cls-13" cx="224.59011" cy="295.14231" rx="5.74114" ry="2.02628" transform="translate(-137.66585 374.64274) rotate(-65.10835)"/><ellipse class="cls-13" cx="253.77384" cy="268.68132" rx="5.74114" ry="2.02628" transform="translate(-75.06546 437.36899) rotate(-73.79128)"/><ellipse class="cls-13" cx="219.03155" cy="321.32746" rx="5.74114" ry="2.02628" transform="translate(-164.63748 384.76426) rotate(-65.10835)"/><ellipse class="cls-13" cx="36.96338" cy="223.98674" rx="2.02628" ry="5.74114" transform="translate(-24.83483 5.54377) rotate(-6.42561)"/><ellipse class="cls-13" cx="24.09982" cy="176.1557" rx="5.74114" ry="2.02628" transform="translate(-153.46215 167.02449) rotate(-79.26587)"/><ellipse class="cls-13" cx="65.53778" cy="299.32314" rx="2.02628" ry="5.74114"/><ellipse class="cls-13" cx="47.95658" cy="266.6585" rx="2.02628" ry="5.74114" transform="matrix(0.96025, -0.27914, 0.27914, 0.96025, -72.52811, 23.98582)"/><ellipse class="cls-13" cx="75.68948" cy="327.58912" rx="5.74114" ry="2.02628" transform="translate(-260.52915 326.83924) rotate(-76.86232)"/><ellipse class="cls-13" cx="98.84511" cy="308.66939" rx="2.02628" ry="5.74114"/><ellipse class="cls-13" cx="50.95757" cy="353.19923" rx="5.74114" ry="2.02628" transform="translate(-304.57951 322.5438) rotate(-76.86232)"/><circle class="cls-11" cx="107.50708" cy="260.72795" r="1.82813"/><circle class="cls-11" cx="110.15369" cy="254.24614" r="1.56041"/><circle class="cls-11" cx="99.55273" cy="261.1483" r="1.56041"/><circle class="cls-11" cx="186.34276" cy="260.34661" r="1.82813"/><circle class="cls-11" cx="183.69615" cy="253.86479" r="1.56041"/><circle class="cls-11" cx="194.29712" cy="260.76695" r="1.56041"/><path class="cls-14" d="M248.9014,203.89668c-1.919,56.24017-49.29386,106.946-105.534,105.02706-56.24019-1.919-100.04862-55.73612-98.12964-111.97629s48.83868-93.60631,105.07887-91.68733C206.55677,107.17909,250.82037,147.65652,248.9014,203.89668Z"/><path class="cls-1" d="M199.48193,144.14232A582.61861,582.61861,0,0,0,91.18035,174.511q-13.32364,5.17552-25.73245,10.71823,4.00146,20.79236,8.003,41.58473"/><ellipse class="cls-15" cx="89.85889" cy="262.82112" rx="9.04889" ry="14.94877" transform="translate(-175.87368 343.66518) rotate(-88.04576)"/><ellipse class="cls-15" cx="204.02785" cy="263.44334" rx="9.04889" ry="14.94877" transform="translate(-66.21991 458.36874) rotate(-88.04576)"/><g class="cls-16"><path class="cls-17" d="M196.3403,146.76192c-40.23433,10.21039-93.4797,25.98629-133.714,36.19669-1.53394,10.83212-.02651,28.08169,3.79622,48.46408,3.58816,19.13178,12.40059,41.43808,35.80726,59.1862,16.07928,12.19214,42.794,17.4925,55.77728,17.62464-12.18172,3.716-41.71846,7.133-68.45019-5.66672-40.37052-19.33034-62.94178-75.01056-48.30135-135.005,20.36687-34.50036,56.52361-54.81106,93.09157-51.9058C168.47276,118.36725,190.3308,140.29383,196.3403,146.76192Z"/></g><path class="cls-18" d="M127.07735,210.72652c4.17492,16.41253-7.42185,33.52834-25.9021,38.22924s-32.166-5.98372-36.3409-22.39625,2.74192-32.3379,21.22218-37.03879S122.90243,194.314,127.07735,210.72652Z"/><circle class="cls-19" cx="100.99512" cy="214.44324" r="15.93173"/><polygon class="cls-18" points="96.042 214.802 71.21 221.049 83.636 228.246 96.042 214.802"/><path class="cls-20" d="M64.83435,226.5595c4.63774,15.53572,18.55609,24.11894,34.45252,21.883a37.93238,37.93238,0,0,0,14.18384-5.04474,29.50079,29.50079,0,0,1-13.84589,7.0101c-16.44018,3.64639-33.07968-6.67315-34.79047-23.84839Z"/><path class="cls-21" d="M63.66706,217.04775c-2.60006-18.27935,14.66153-31.6406,31.78505-31.35951,8.456.14409,17.21057,2.81252,23.47516,8.68192a28.16045,28.16045,0,0,1,8.99,22.42723,32.0373,32.0373,0,0,0-11.571-19.38691,33.75557,33.75557,0,0,0-15.37673-6.16154c-17.31232-2.81172-35.3678,7.40276-37.30247,25.79881Z"/><path class="cls-21" d="M77.83319,178.7954c10.57059-8.80282,27.29213-11.03944,39.59386-4.68764-6.80819.66041-13.19338.92691-19.84537,1.774-6.6613.76383-12.95579,2.08383-19.74849,2.91363Z"/><path class="cls-18" d="M167.06121,210.72652c-4.17492,16.41253,7.42184,33.52834,25.9021,38.22924s32.166-5.98372,36.34089-22.39625-2.74192-32.3379-21.22217-37.03879S171.23613,194.314,167.06121,210.72652Z"/><circle class="cls-19" cx="192.86341" cy="214.44324" r="15.93173"/><polygon class="cls-18" points="187.91 214.802 169.422 219.453 175.505 228.246 187.91 214.802"/><path class="cls-20" d="M229.3042,226.5595c-1.71512,17.18374-18.35225,27.49211-34.79061,23.84819a29.49878,29.49878,0,0,1-13.84574-7.0099,37.93582,37.93582,0,0,0,14.184,5.045c15.89821,2.23792,29.81928-6.355,34.45239-21.88324Z"/><path class="cls-21" d="M230.4715,217.04775c-1.93866-18.402-19.98942-28.6083-37.30265-25.79877a33.75553,33.75553,0,0,0-15.37653,6.16155,32.03691,32.03691,0,0,0-11.571,19.38686,28.162,28.162,0,0,1,8.99-22.42715c6.26473-5.86967,15.019-8.53764,23.47526-8.68224,17.12-.28463,34.39,13.08874,31.78493,31.35975Z"/><path class="cls-18" d="M175.884,261.04006c-7.88022-6.85231-19.33641,2.76055-28.81468,2.76055s-20.93454-9.61286-28.81476-2.76055c-7.88021,6.85239,3.66721,25.99522,28.81476,25.99522S183.76423,267.89245,175.884,261.04006Z"/><path class="cls-21" d="M216.30536,178.7954c-6.7912-.82955-13.08826-2.14992-19.74848-2.91364-6.65308-.84722-13.03567-1.11349-19.84539-1.77364,12.301-6.35165,29.02194-4.11637,39.59387,4.68728Z"/><path class="cls-22" d="M175.884,261.04006c-7.88022-6.85231-19.33641,2.76055-28.81468,2.76055s-20.93454-9.61286-28.81476-2.76055c-7.88021,6.85239,3.66721,25.99522,28.81476,25.99522S183.76423,267.89245,175.884,261.04006Z"/><path class="cls-23" d="M175.884,261.04006c-7.88022-6.85231-19.33641,2.76055-28.81468,2.76055s-20.93454-9.61286-28.81476-2.76055c-7.88021,6.85239,3.66721,25.99522,28.81476,25.99522S183.76423,267.89245,175.884,261.04006Z"/><path class="cls-24" d="M248.9014,203.89668c-1.919,56.24017-49.29386,106.946-105.534,105.02706-56.24019-1.919-100.04862-55.73612-98.12964-111.97629s48.83868-93.60631,105.07887-91.68733C206.55677,107.17909,250.82037,147.65652,248.9014,203.89668Z"/><path class="cls-11" d="M35.70766,187.74243a253.664,253.664,0,0,1,97.24692-26.47131q3.06126-15.789,6.12256-31.578,4.9886,14.54736,9.97718,29.09471a241.95753,241.95753,0,0,1,104.62009,14.56879c-2.27348-11.26086-7.75072-30.04822-22.50438-47.20827A99.71437,99.71437,0,0,0,217.97773,113.43C185.94456,87.70752,137.12466,79.53833,96.74259,99.75234a105.515,105.515,0,0,0-40.0601,35.357A133.37052,133.37052,0,0,0,35.70766,187.74243Z"/><path class="cls-11" d="M56.68249,135.10933a133.37052,133.37052,0,0,0-20.97483,52.6331,253.664,253.664,0,0,1,97.24692-26.47131q3.06126-15.789,6.12256-31.578,4.9886,14.54736,9.97718,29.09471a241.95753,241.95753,0,0,1,104.62009,14.56879c-2.27348-11.26086-7.75072-30.04822-22.50438-47.20827"/><path class="cls-20" d="M56.6825,135.10934A137.96512,137.96512,0,0,0,37.167,187.95194L35.04572,186.425a242.63656,242.63656,0,0,1,23.1781-10.69412,247.44555,247.44555,0,0,1,74.56134-17.025l-2.35437,2.07582,6.04034-31.59378,1.88514-9.8598c2.11592,6.23136,10.84925,31.89787,13.13433,38.62413l-2.64587-1.73149a229.58846,229.58846,0,0,1,26.877-.57249,235.42672,235.42672,0,0,1,78.44451,16.39291l-1.86847,1.59324a111.359,111.359,0,0,0-7.57633-24.99156,101.50058,101.50058,0,0,0-13.5514-22.49456c12.66286,13.69572,20.74636,31.14827,24.42273,49.376a254.57025,254.57025,0,0,0-27.77249-8.30121,248.5547,248.5547,0,0,0-78.5562-5.86829l-1.99084.16334-.65528-1.895-10.05175-29.06894,5.11688-.35577-6.20471,31.56192-.38251,1.94589-1.972.1301A261.40746,261.40746,0,0,0,59.5821,179.27715a273.86532,273.86532,0,0,0-25.80023,11.02646,114.69254,114.69254,0,0,1,3.87349-16.81024,129.57287,129.57287,0,0,1,19.02714-38.384Z"/><path class="cls-10" d="M98.71263,76.34634c-34.2198,4.0529-62.929,17.10383-78.10414,56.12558-3.7276,9.58527,46.60172-4.40823,103.58652-40.16652a187.20567,187.20567,0,0,0,30.14729,18.21509c3.54384,1.70813,48.92649,23.29705,56.67587,13.043,1.47978-1.95806,4.97159-9.55533-19.30539-39.65209,13.90936,15.66924,76.15216,32.25033,78.1502,27.48955,2.07093-4.93447-90.965-81.71435-151.6084-36.4888"/><path class="cls-25" d="M95.89992,333.833c-9.78611,4.94335-19.34017,11.90589-24.6468,21.49685"/><circle class="cls-15" cx="127.61523" cy="235.06199" r="2.08568"/><circle class="cls-15" cx="121.97671" cy="244.29275" r="2.08568"/><circle class="cls-15" cx="133.76908" cy="238.82101" r="2.08568"/><circle class="cls-15" cx="167.13055" cy="235.06199" r="2.08568"/><circle class="cls-15" cx="172.76908" cy="244.29275" r="2.08568"/><circle class="cls-15" cx="160.97671" cy="238.82101" r="2.08568"/><polygon class="cls-2" points="205.644 439.951 89.996 439.951 76.453 352.123 216.149 352.123 205.644 439.951"/><circle class="cls-26" cx="147.01304" cy="382.66129" r="40.08629"/><path class="cls-27" d="M161.08606,360.93137q-.018.13678-.03961.27715v.0012q-.02157.14038-.04677.28435a13.75331,13.75331,0,0,1-1.1038,3.501q-.07922.16918-.16559.33835c-.02879.05759-.05758.114-.08758.17037-.06.114-.12118.228-.18477.34194q-.28793.51109-.63827,1.027c-.0384.05639-.078.114-.1188.17037q-.30234.42833-.65268.85185-.4211.50931-.91782,1.00662a13.67657,13.67657,0,0,1-6.91677,3.77453,13.83482,13.83482,0,0,1-1.55373.23875c-.48591.0468-.925.06359-1.30536.06359-.19676,0-.37793-.0048-.5411-.012-.16318.0072-.34435.012-.54111.012-.38272,0-.82425-.01679-1.31255-.06359a14.1491,14.1491,0,0,1-1.55494-.24c-.26036-.05518-.52791-.12-.80026-.19436q-.30774-.08458-.62268-.18717c-.0696-.02159-.14037-.04559-.21237-.07078-.14156-.04919-.28314-.10078-.42713-.15478a13.59342,13.59342,0,0,1-1.97724-.94543c-.07437-.04319-.14877-.08638-.222-.132-.14877-.09119-.29754-.18477-.44631-.28315s-.29636-.20037-.44514-.30714c-.14757-.10679-.29634-.21837-.44391-.33355a14.33349,14.33349,0,0,1-1.31256-1.165,13.63169,13.63169,0,0,1-3.9701-11.31758,9.56541,9.56541,0,0,1,1.54054-.10558c.12238,0,.25075.0012.38512.006.06119.0012.12358.00359.18838.0072.07557.0024.15357.006.23275.012.06119.0024.12358.0072.18717.012l.036.0024c.06.0048.12118.0096.18357.0156.24715.0216.5075.05159.77746.09238.05758.0072.11639.0168.17517.0264a13.731,13.731,0,0,1,2.52554.64908c.24355.08879.49071.18477.74028.29155.05038.02159.10078.04319.15117.066.09958.04439.19916.09.29995.138h.0012q.15114.072.30235.14758c.05038.02519.102.05039.15236.078.10078.05279.20277.10678.30355.16316h.0012c.102.0564.20277.114.30473.174h.00121c.10079.06.20277.12239.30475.18477h.0012q.22856.144.45832.29874c.05038.0336.102.06959.15356.10559.25436.17876.50873.36953.76066.5735l.00121-.0012a13.92717,13.92717,0,0,1,2.92748-4.42l.07318-.07318c.072-.07319.14278-.14038.21-.20516a8.71046,8.71046,0,0,1,.90465-.76907s.12478.08758.33594.26155c.03.0252.06239.05159.096.08039.05039.0432.10438.09.16076.14038.0384.03359.078.06959.11878.10678.042.03719.084.07678.12719.11758.04439.04079.08878.084.13557.12838a13.87879,13.87879,0,0,1,3.14345,4.636v.00119q.22676-.18355.45591-.35393c.0516-.03839.102-.07559.15358-.11158.15236-.11038.30593-.216.45831-.31674q.38332-.25377.76548-.47032c.102-.05759.20395-.114.30475-.16917a13.52784,13.52784,0,0,1,1.94725-.85425q.29153-.10078.57587-.18716c.09959-.0288.198-.05759.294-.084.09116-.0252.18114-.048.27112-.07079.42473-.10918.83388-.19076,1.22261-.25315.06957-.012.138-.0216.20636-.0312.26154-.03839.51231-.06719.75227-.08878.06836-.0072.13676-.012.20395-.0168l.018-.00119c.0696-.006.13679-.01081.204-.0144.0756-.00481.1488-.0084.222-.0108.066-.00361.132-.006.19558-.0072.13316-.0048.26154-.006.38272-.006a9.56541,9.56541,0,0,1,1.54054.10558A11.90243,11.90243,0,0,1,161.08606,360.93137Z"/><path class="cls-28" d="M161.10167,357.584a9.56541,9.56541,0,0,0-1.54054-.10558c-.12118,0-.24956.0012-.38272.006-.06359.0012-.12959.00359-.19558.0072-.07317.0024-.14637.006-.222.0108-.06717.00359-.13436.00839-.204.0144l-.018.00119c-.06719.0048-.13559.0096-.20395.0168-.24.02159-.49073.05039-.75227.08878-.0684.0096-.13679.0192-.20636.0312-.38873.06239-.79788.144-1.22261.25315-.09.0228-.18.04559-.27112.07079-.096.0264-.19438.05519-.294.084q-.28432.08457-.57587.18716a13.52784,13.52784,0,0,0-1.94725.85425c-.102.054-.20279.11038-.30475.16917q-.38155.216-.76548.47032-.23037.15117-.45831.31674c-.0516.036-.102.07319-.15358.11158q-.22857.16917-.45591.35274a13.87879,13.87879,0,0,0-3.14345-4.636c-.04679-.0444-.09118-.08759-.13557-.12838-.0432-.0408-.08518-.08039-.12719-.11758-.04077-.03719-.08038-.07319-.11878-.10678-.05638-.05039-.11037-.09718-.16076-.14038-.03359-.0288-.066-.05519-.096-.08039-.21116-.174-.33594-.26155-.33594-.26155a8.71046,8.71046,0,0,0-.90465.76907c-.06718.06358-.138.132-.21.20516l-.07318.07318a13.92717,13.92717,0,0,0-2.92748,4.42q-.37971-.306-.76187-.5723c-.05159-.036-.10318-.072-.15356-.10559q-.23036-.15657-.45832-.29874h-.0012c-.102-.06479-.20276-.126-.30475-.18477h-.00121c-.102-.06119-.20275-.11877-.30473-.174h-.0012c-.10078-.05758-.20157-.11158-.30355-.16316-.0504-.0276-.102-.0528-.15236-.078q-.15118-.07738-.30235-.14758h-.0012c-.09959-.048-.20037-.09478-.29995-.138-.05039-.0228-.10079-.0444-.15117-.066q-.37255-.16017-.74028-.29155a13.731,13.731,0,0,0-2.52554-.64908c-.05878-.0096-.11759-.0192-.17517-.0264-.27-.04079-.53031-.07078-.77746-.09238-.06239-.006-.12358-.0108-.18357-.0156l-.036-.0024c-.06359-.0048-.126-.0096-.18717-.012-.07918-.006-.15718-.00959-.23275-.012-.0648-.00361-.12719-.006-.18838-.0072-.13437-.0048-.26274-.006-.38512-.006a9.56541,9.56541,0,0,0-1.54054.10558,13.63169,13.63169,0,0,0,3.9701,11.31758,14.33349,14.33349,0,0,0,1.31256,1.165c.14757.11518.29634.22676.44391.33355.14878.10677.29636.20876.44514.30714s.29754.19316.44631.28315c.07319.04559.14759.08878.222.132a13.41211,13.41211,0,0,0,1.97724.94543c.144.054.28557.10559.42713.15478.072.02519.14277.04919.21237.07078.21.06959.41752.13078.62268.18717.27235.07439.5399.13918.80026.19436a14.1491,14.1491,0,0,0,1.55494.24c.4883.0468.92983.06359,1.31255.06359.19676,0,.37793-.0048.54111-.012.16317.0072.34434.012.5411.012.38033,0,.81945-.01679,1.30536-.06359a13.83482,13.83482,0,0,0,1.55373-.23875,13.67657,13.67657,0,0,0,6.91677-3.77453h.0012q.49671-.49671.91662-1.00662.351-.42293.65268-.85185c.0408-.05639.0804-.114.1188-.17037.23516-.34313.44632-.68508.63827-1.027.06359-.114.126-.228.18477-.34194.03-.05639.05879-.11278.08758-.17037q.08639-.16917.16559-.33835a13.75331,13.75331,0,0,0,1.1038-3.501q.02517-.144.04677-.28435v-.0012q.02163-.14037.03961-.27715A11.90243,11.90243,0,0,0,161.10167,357.584Zm-14.39146,14.18627c-.13436.0048-.27953.0084-.43791.0084-.17276,0-.35873-.0036-.5579-.0132a12.53683,12.53683,0,0,1-1.52253-.16317,12.79006,12.79006,0,0,1-1.47573-.33954,12.65458,12.65458,0,0,1-9.08838-12.57615c.13317-.00481.27955-.0084.43793-.0084a12.56282,12.56282,0,0,1,8.19574,3.04505c.246.21236.49069.43792.73305.68028.084.084.16679.16917.24716.25435a12.38094,12.38094,0,0,1,2.94789,5.0607,12.89874,12.89874,0,0,1,.34912,1.50573A12.49854,12.49854,0,0,1,146.71021,371.77024Zm2.71754-.16677a12.67159,12.67159,0,0,1-1.51655.162,13.8719,13.8719,0,0,0-.47511-4.04688,13.67466,13.67466,0,0,0-.62268-1.79848,13.81794,13.81794,0,0,0-2.97067-4.366q-.09718-.09719-.19437-.19076a12.70926,12.70926,0,0,1,3.16144-4.744,12.71909,12.71909,0,0,1,3.16383,4.74875,11.83393,11.83393,0,0,1,.40553,1.29577,12.961,12.961,0,0,1,.38993,3.201A12.53482,12.53482,0,0,1,149.42775,371.60347Zm10.39973-10.37095a12.77806,12.77806,0,0,1-8.92521,10.03261,13.85791,13.85791,0,0,0,1.06662-5.40024,14.00754,14.00754,0,0,0-.60951-4.13686,12.56687,12.56687,0,0,1,8.20175-3.04985c.15718,0,.30355.00359.43671.0084A12.482,12.482,0,0,1,159.82748,361.23252Z"/><path class="cls-11" d="M167.61262,382.80285c0,11.37684-12.40431,27.46612-20.59958,27.46612-7.40195,0-20.59959-16.08928-20.59959-27.46612s9.01952-15.72617,20.39636-15.72617S167.61262,371.426,167.61262,382.80285Z"/><circle class="cls-13" cx="146.80981" cy="377.27486" r="1.79968"/><circle class="cls-13" cx="157.00799" cy="377.27486" r="1.79968"/><circle class="cls-13" cx="139.0112" cy="380.87421" r="1.79968"/><circle class="cls-13" cx="152.20884" cy="382.074" r="1.79968"/><circle class="cls-13" cx="161.80713" cy="382.074" r="1.79968"/><circle class="cls-13" cx="137.81141" cy="388.07293" r="1.79968"/><circle class="cls-13" cx="146.80981" cy="388.07293" r="1.79968"/><circle class="cls-13" cx="157.00799" cy="388.07293" r="1.79968"/><circle class="cls-13" cx="142.61056" cy="395.27164" r="1.79968"/><circle class="cls-13" cx="152.20884" cy="395.27164" r="1.79968"/><circle class="cls-13" cx="146.80981" cy="401.27057" r="1.79968"/><path class="cls-20" d="M161.10407,393.2788a.59192.59192,0,0,0-.26995-.06479.59982.59982,0,0,0-.53633.33114,32.31393,32.31393,0,0,1-2.36958,3.96769.59983.59983,0,0,0,.98145.68988,33.432,33.432,0,0,0,1.95322-3.15184v-.0012l.00361-.006.0012-.0012.0036-.006v-.0012l.0036-.0072c.006-.012.01321-.02279.01922-.03479l.00117-.0024.0024-.0048.0024-.0024.00241-.00479.0012-.00361.0024-.00479.0024-.00241.0024-.00479.0012-.0036.00241-.0036.0024-.0048.0024-.0036.00357-.0072.0024-.0036.00121-.0048.0024-.00359.0024-.00361.0024-.0036.0024-.0048.0012-.00359.00241-.0048.0024-.0024.0024-.0048.0012-.0036.0036-.0048.00118-.0024.0024-.006.00123-.0024.00837-.01559.00121-.00241.0036-.006.0012-.0012.0024-.006.0024-.0024.00241-.006.0012-.0024.00357-.006.00123-.0024.00357-.006v-.0012l.01321-.02519.00481-.0084.0036-.0072.0012-.0012.0036-.0072v-.0012l.00478-.0072c.12-.22676.23876-.45351.35276-.68268A.59859.59859,0,0,0,161.10407,393.2788Zm-3.72414,5.99053a.601.601,0,0,0-.84465.084l-.0372.0444a.6.6,0,0,0,.925.76426c.01441-.0168.02759-.0336.0408-.05039A.59936.59936,0,0,0,157.37993,399.26933Zm-1.56452,1.82847a.60266.60266,0,0,0-.84946.0096,19.09283,19.09283,0,0,1-3.47818,2.85909.60008.60008,0,0,0,.63469,1.01861q.30234-.189.6035-.39592v-.0012a.15481.15481,0,0,0,.02279-.0156l.006-.0036.02279-.01559.0012-.00121.0048-.00359h.00121l.02158-.0156.0012-.0012.02279-.0156.006-.0036a.15371.15371,0,0,1,.02279-.01559v-.0012l.006-.00361.01679-.012.006-.0036.0012-.0012.02042-.0144.00237-.0024.0048-.0024.00121-.0012.0048-.00359.01081-.0072.0012-.0012.0048-.00361.0012-.0012.00481-.00239.00117-.0012.01561-.0108.0012-.0012.00481-.0036.0024-.0012.00357-.0036h.00123l.01078-.0084.00481-.0024.0012-.0024.0048-.00239.0012-.00121.0048-.0036h.00118l.0096-.0072.0012-.0012.00481-.00359.0024-.0012.0036-.0036.00241-.0012.01438-.0108.0024-.0012.0036-.0024.0024-.0024.00481-.0024v-.0012l.01678-.0108.0012-.0012.00481-.0036.0012-.00119.01438-.01081.0024-.0012.00361-.00359.0024-.0012.0048-.0024.0012-.0024.01441-.0096.00241-.0024.00477-.0024.0012-.0012.0048-.0036.00121-.0012.0084-.006.0024-.0012.00358-.00359.0024-.00121.0048-.0036.0012-.0012.00481-.0036.00961-.00719.0024-.0012.00477-.0036.00123-.0012.00478-.0036.0024-.0012.00841-.0072h.0012l.0036-.0036.0024-.0012.00481-.0036.0024-.0012.00357-.0036.0024-.0012.00721-.0048.0024-.0024.0036-.00239.00361-.00241.0036-.0024.00237-.0024.01321-.00959.0024-.0024.00481-.00241.0024-.00239.0036-.0024.0024-.0024.006-.0048.0036-.0024.00361-.0024.0036-.0024.0036-.0024.0024-.0024.00361-.0024.0024-.0024.00717-.0048.00241-.0024.0036-.00239.0036-.0024.00361-.00241.0036-.00359.0024-.0012.006-.00481.00363-.00239.00357-.0036.0024-.00121.00361-.00359.0036-.0024.0036-.0024.006-.0036.0024-.0024.00357-.0036.0036-.0024.00361-.0024.0024-.0024.0036-.0024.00361-.0024.006-.0048.0024-.0024.00478-.00239.0024-.0024.0036-.00241.0024-.00239.00361-.0024.006-.0048.0036-.0024.00361-.0024.0036-.0024.0024-.0024.00358-.0036.0036-.0024.0048-.0036.00481-.0024.0024-.0036.0036-.0024.00357-.00239.00241-.00241.0036-.0024.0048-.00359.00481-.00361.0036-.00239.0024-.0024.0036-.0024.00361-.00241.00357-.00239.0024-.0024.006-.0048.0036-.0024.0036-.0036.00361-.0024.0024-.0024.0036-.0024.00478-.0036.0036-.0024.0048-.0036.0024-.0024.00361-.0024.0036-.00239.0024-.00241.0036-.00359.00241-.0012.00717-.006.00361-.0024.0024-.0024.0036-.00241.0036-.00239.00361-.0024.0048-.0036.0036-.0036.00358-.0024.0036-.0024.0036-.0036.0024-.0024.00361-.0024.0036-.0024.0048-.00359.00481-.00361.0024-.0024.00357-.00239.0024-.00241.00481-.00359.0024-.0012.006-.006.0024-.0012.00477-.0036.0024-.00241.00361-.00239.0036-.0024.0036-.0036.0024-.0012.006-.0048.0036-.0024.0036-.0036.00241-.00239.00357-.00241.0036-.0024.006-.00479.0012-.00121.0048-.0036.0024-.00239.00481-.00361.00237-.0012.00481-.00479.0024-.0012.006-.0048.0024-.0012.00481-.0036.0024-.0024.0036-.0036.0024-.0024.00481-.0036.00237-.0012.006-.0048.0024-.0024.0048-.00359.0024-.00241.00361-.0024.0024-.00239.00477-.00361.00481-.00359.0036-.0024.0036-.00241.0024-.00359.00361-.0024.0036-.0024.0036-.0024.006-.0048.00237-.0024.0036-.0036.00361-.0024.0036-.0024.0024-.0024.0048-.00359.00241-.00121.006-.0048.0024-.00239.00361-.00361.0036-.0024.0036-.00239.0024-.00241.006-.00479.0024-.0024.0048-.0036.00241-.0024.00357-.0024.0036-.0024.00361-.0036.0024-.0024.006-.0048.0024-.0012.00478-.0036.0024-.0024.0048-.0036.00241-.00239.0036-.00241.0048-.00359.00361-.00361.0036-.0024.0036-.00359.0024-.0024.00358-.00241.0036-.00239.006-.0048.0024-.0024.0036-.0036.0036-.0024.00361-.0024.00237-.0024.0048-.0036.0024-.0024.006-.00479.0024-.00241.0036-.0024.00361-.00239.0036-.00361.0024-.0024.006-.00359.0012-.0012.006-.0048.0024-.0024.00361-.00361.0036-.00239.0036-.0036.00241-.0012.006-.0048.00357-.0036.00361-.0024.0024-.0024.0036-.0036.0036-.0024.00361-.0024.0024-.00239.006-.00481.00361-.00239.0036-.00361.0024-.0024.00481-.00359.0024-.0012.0048-.0048.0012-.0012.006-.0048.0024-.0024.00477-.0036.00241-.0024.0048-.0036.0024-.0012.006-.006.0024-.0012.00357-.00359.0024-.00241.00481-.0036.0024-.00239.0048-.00361.0012-.0012.00721-.006.0024-.0012.0036-.00359.00358-.0024.0036-.0036.0024-.0024.006-.0048.0012-.0012.006-.0036.00241-.0024.0036-.0036.00237-.0024.0048-.0036.00241-.0024.006-.0048.0012-.0012.006-.00479.0024-.0012.0036-.00361.0024-.00239.00481-.0036.00237-.00241.006-.00479.0024-.0024.0048-.0036.0024-.0012.00361-.0048.0024-.0012.006-.0048.00237-.0024.00481-.0036.006-.006.00361-.0024.0036-.00359.0024-.00121.006-.006.0024-.0012.0048-.0048.0024-.0012.00361-.0036.0024-.0024.006-.0036.0012-.0024.006-.0048.0024-.0024.00478-.0036.0024-.0024.0036-.00359.0024-.00121.00721-.006.0012-.0012.00477-.00361.00241-.0024.0048-.00359.0024-.00241.0036-.00359.00241-.0024.006-.0048.0024-.0024.00481-.0036.0024-.0024.00477-.0036.0012-.0012.006-.0048.0012-.0012.006-.006.0036-.0012.0036-.0036.00237-.0024.00364-.00359.00357-.0024.006-.00481.0012-.00239.00481-.00361.0024-.00239.0048-.0036.00241-.00241.0048-.00359.00117-.0012.00721-.006.0012-.0012.0048-.0048.0024-.0024.00361-.0024.0036-.00239.00477-.00481.00123-.0012.006-.006.0024-.0012.00481-.00359.0024-.00241.0036-.00359.0036-.0024.006-.006.00123-.0012.00477-.0036.00241-.0024.0048-.0036.0024-.0024.0036-.0036.00241-.0024.006-.0048.00363-.0024.00358-.0036.0024-.0024.0036-.00359.00361-.0024.0036-.00361.0048-.00359.0036-.00361.00241-.00239.00357-.0036.0036-.00241.00361-.00359.0024-.0024.006-.0048.00361-.0024.0036-.0036.00237-.0024.00363-.0036.00358-.0024.0036-.0036.0024-.0012.006-.006.0024-.00239.0048-.0036.0024-.00241.00358-.00239.0024-.0036.0048-.0036.00361-.0036.0048-.0036.0024-.0024.00361-.0024.0036-.0036.0036-.0036.0024-.0024.006-.0048.0024-.0012.0048-.0048.00241-.0024.0036-.00359.0024-.00241.00478-.00359.0024-.0024.006-.0048.0024-.0024.00361-.0036.0036-.0024.0036-.0036.0024-.0024.00481-.0048.00357-.0024.0036-.0036.00361-.0024.0036-.0036.0024-.0024.00361-.0036.0036-.00239.006-.00481.0024-.00359.00358-.00241.0036-.00359.0024-.0024.00361-.00241.0036-.00359.0048-.0048.00361-.0024.00357-.0036.00363-.0024.00237-.0036.00361-.0024.0036-.0036.0024-.0024.006-.0048.0036-.0036.0036-.00239.0024-.00361.00358-.0024.0024-.00239.006-.006.00361-.0024.0036-.0036.0024-.0024.0036-.0036.00358-.0024.00363-.0024.00357-.0036.00361-.0036.0048-.0048.0024-.0024.00361-.0024.0036-.00359.0024-.0024.0036-.00361.00241-.00239.00717-.006.0024-.00239.00361-.0036.0024-.0024.0036-.0024.0036-.0036.01319-.012.0024-.0012.0036-.0036.0024-.0024.0036-.0036.00241-.00239.00837-.0072.00123-.0012.00358-.00361.0024-.00239.0048-.0036.0012-.00121.01439-.01319.00123-.0024.00477-.0036.0024-.0012.00361-.0036.0012-.0024.00961-.0084h.0012l.0036-.00479.00237-.0012.00363-.00361.00238-.00239.0048-.0036v-.00121l.01081-.0096.0048-.00359.0012-.0024.00478-.0036.00123-.0012.00477-.0048.0012-.0012.00841-.0072.0024-.0024.00361-.0036.0024-.00119.00357-.00481.00123-.0012a.07545.07545,0,0,0,.01438-.01319l.00241-.00121.0036-.00479.0024-.0012.01558-.0144.01081-.0108h.0012l.01439-.0144.0024-.00119.0036-.00481.0024-.0012.0036-.00359.00121-.0012.0096-.0096h.00117l.00364-.0048.00237-.0012.0048-.0036.0012-.0024.01562-.0144.00477-.0048.00123-.00119.00478-.00481h.0012l.01441-.01439.0024-.0012.00357-.0036.00241-.0024.0036-.0036.0024-.0024.01441-.01319.0012-.00121.00361-.0048.00237-.00119.02042-.0192.0012-.00121.0048-.00479.01678-.0156.00481-.0048.0012-.0012.02159-.02039.006-.006.02159-.02039v-.0012l.02159-.0204h.00123l.00477-.006.02282-.0204.0048-.006h.00118l.02161-.0204v-.0012q.24474-.23755.48712-.48351A.60146.60146,0,0,0,155.81541,401.0978Z"/><path class="cls-29" d="M131.21259,385.44529a1.19029,1.19029,0,0,1-1.19029-1.19035c0-5.6919,2.74943-9.78816,7.95115-11.846a1.19033,1.19033,0,1,1,.87571,2.21374c-4.2774,1.69218-6.44627,4.93295-6.44627,9.63227A1.1903,1.1903,0,0,1,131.21259,385.44529Z"/><path class="cls-30" d="M146.80981,368.27646c5.81574,0,10.65823,1.17447,14.004,3.39644,3.71527,2.46738,5.59907,6.212,5.59907,11.12995a23.19437,23.19437,0,0,1-1.97446,8.631,39.92816,39.92816,0,0,1-5.00858,8.64378,32.1457,32.1457,0,0,1-6.447,6.52977,10.83851,10.83851,0,0,1-5.96979,2.46179c-1.51045,0-3.45646-.84938-5.62763-2.45631a34.5942,34.5942,0,0,1-6.5-6.54617,41.23812,41.23812,0,0,1-5.19409-8.65151,22.30237,22.30237,0,0,1-2.07808-8.61234c0-4.94168,1.81966-8.68918,5.4084-11.13841,3.24767-2.21643,8.01554-3.388,13.78818-3.388m0-1.19978c-11.37683,0-20.39636,4.34933-20.39636,15.72617S139.61109,410.269,147.013,410.269c8.19528,0,20.59959-16.08928,20.59959-27.46612s-9.426-15.72617-20.80281-15.72617Z"/><path class="cls-31" d="M182.33561,609.39332l-5.36445,34.07686c4.354,2.59239,9.35823,4.68232,14.36471,10.69418a56.39009,56.39009,0,0,1,4.60722,6.39461,204.00083,204.00083,0,0,1-23.43644,1.4512c-5.41937-.008-16.7821-.2636-25.05382-4.95014-.06424-7.0665-.40686-41.84221-.40686-41.84221Z"/><path class="cls-32" d="M184.54594,646.76714a14.92061,14.92061,0,0,0-8.77268-1.17394,15.33537,15.33537,0,0,0-9.66389,6.27089"/><path class="cls-32" d="M179.13573,642.80887a14.92061,14.92061,0,0,0-8.77268-1.17394,15.33533,15.33533,0,0,0-9.66389,6.27089"/><path class="cls-33" d="M147.32407,643.61451a95.62277,95.62277,0,0,1,9.219,6.2867,114.08547,114.08547,0,0,1,13.12823,12.07164c-5.94968-.15072-15.19271-.9322-22.21851-4.91286C147.432,654.77413,147.38209,649.58413,147.32407,643.61451Z"/><path class="cls-31" d="M112.193,609.39332l5.36445,34.07686c-4.354,2.59239-9.35823,4.68232-14.36471,10.69418A56.39149,56.39149,0,0,0,98.5855,660.559a204.00113,204.00113,0,0,0,23.43645,1.4512c5.41937-.008,16.78209-.2636,25.05382-4.95014.06424-7.0665.40686-41.84221.40686-41.84221Z"/><path class="cls-32" d="M109.98266,646.76714a14.92061,14.92061,0,0,1,8.77268-1.17394,15.33537,15.33537,0,0,1,9.66389,6.27089"/><path class="cls-32" d="M115.39287,642.80887a14.92061,14.92061,0,0,1,8.77268-1.17394,15.33533,15.33533,0,0,1,9.66389,6.27089"/><path class="cls-33" d="M147.20453,643.61451a95.62153,95.62153,0,0,0-9.219,6.2867,114.08464,114.08464,0,0,0-13.12823,12.07164c5.94968-.15072,15.19271-.9322,22.21851-4.91286C147.09659,654.77413,147.14651,649.58413,147.20453,643.61451Z"/><line class="cls-2" x1="85.26083" y1="413.516" x2="95.4021" y2="482.65547"/><path class="cls-28" d="M85.26081,413.516q6.7566,34.32021,10.14147,69.13944-6.77084-34.318-10.14147-69.13944Z"/><line class="cls-2" x1="209.4021" y1="413.516" x2="199.26083" y2="482.65547"/><path class="cls-28" d="M209.4021,413.516q-3.384,34.81488-10.14111,69.1395,3.36991-34.81676,10.14111-69.1395Z"/></g></g></svg>