<svg xmlns="http://www.w3.org/2000/svg" xmlns:xlink="http://www.w3.org/1999/xlink" viewBox="0 0 342.74187 671.45364"><defs><style>.cls-1,.cls-13,.cls-19,.cls-23,.cls-4,.cls-6{fill:none;}.cls-2{fill:#a36c6c;opacity:0.2;}.cls-14,.cls-3{fill:#ffa6bd;stroke:#ef8ba8;}.cls-10,.cls-11,.cls-12,.cls-13,.cls-14,.cls-19,.cls-23,.cls-3,.cls-4,.cls-5,.cls-6,.cls-7,.cls-8{stroke-miterlimit:10;}.cls-3,.cls-7,.cls-8{stroke-width:2px;}.cls-4{stroke:#ffd9e5;stroke-linecap:round;}.cls-19,.cls-4{stroke-width:3px;}.cls-16,.cls-4{opacity:0.4;}.cls-11,.cls-5,.cls-7{fill:#ffe9e1;}.cls-5{stroke:#e27d9f;stroke-width:1.65956px;}.cls-6{stroke:#d8759b;stroke-width:2.97481px;}.cls-11,.cls-7{stroke:#e8cac1;}.cls-8{fill:#ffcd8a;stroke:#f4be7d;}.cls-9{fill:#fff;}.cls-10,.cls-12{fill:#c98d85;}.cls-10,.cls-12,.cls-13,.cls-19{stroke:#b2746f;}.cls-10{stroke-width:2.37757px;}.cls-11{stroke-width:2.45498px;}.cls-12,.cls-13{stroke-width:2.15885px;}.cls-14{stroke-width:2.53888px;}.cls-15{fill:#ce8680;}.cls-16{fill:#bc6464;}.cls-17{clip-path:url(#clip-path);}.cls-18{fill:#b56f6f;opacity:0.51;}.cls-20{fill:#fff4f3;}.cls-21{fill:#352727;}.cls-22{fill:#8e5552;}.cls-23{stroke:#a86865;stroke-width:4px;}</style><clipPath id="clip-path"><path class="cls-1" d="M275.49728,177.72162c0,56.10816-48.54414,111.59281-108.42638,111.59281S58.64452,233.82978,58.64452,177.72162,107.18867,86.12881,167.0709,86.12881,275.49728,121.61346,275.49728,177.72162Z"/></clipPath></defs><g id="Layer_2" data-name="Layer 2"><g id="hero_2-success"><ellipse class="cls-2" cx="168.58293" cy="659.63332" rx="134.13489" ry="11.82032"/><path class="cls-3" d="M205.36991,632.0255h-31.77v-142.28H168.21v142.28H136.44l-62.68-248.69c-3.59753-43.061,30.454-80.21344,73.26-80.24h47.7699a73.56119,73.56119,0,0,1,73.26,80.24Z"/><rect class="cls-1" x="168.21" y="489.74555" width="5.38989" height="157.03998"/><path class="cls-4" d="M121.19959,316.454c-9.78612,4.94335-19.34018,11.9059-24.64681,21.49685"/><path class="cls-5" d="M211.01392,624.05168l-5.98286,17.62946c4.85593,2.89124,10.437,5.2221,16.02066,11.927a62.89209,62.89209,0,0,1,5.13835,7.13177,227.51768,227.51768,0,0,1-26.13818,1.6185c-6.04411-.00887-18.71672-.294-27.942-5.52079-.07165-7.88111-.45377-32.92112-.45377-32.92112Z"/><path class="cls-6" d="M213.47906,645.35817a16.64071,16.64071,0,0,0-9.784-1.30926,17.10313,17.10313,0,0,0-10.77793,6.99379"/><path class="cls-6" d="M207.44517,640.94359a16.64081,16.64081,0,0,0-9.784-1.30926,17.10321,17.10321,0,0,0-10.77794,6.99379"/><path class="cls-5" d="M130.796,623.915l5.98286,17.62946c-4.85593,2.89124-10.437,5.2221-16.02066,11.927a62.88979,62.88979,0,0,0-5.13834,7.13177,227.51738,227.51738,0,0,0,26.13817,1.6185c6.04411-.00887,18.71672-.294,27.942-5.52079.07164-7.88111.45376-32.92112.45376-32.92112Z"/><path class="cls-6" d="M128.33084,645.22154a16.64073,16.64073,0,0,1,9.784-1.30926,17.1031,17.1031,0,0,1,10.77793,6.99379"/><path class="cls-6" d="M134.36474,640.807a16.64079,16.64079,0,0,1,9.784-1.30926,17.10321,17.10321,0,0,1,10.77793,6.99379"/><circle class="cls-5" cx="169.93664" cy="380.491" r="42.71438"/><path class="cls-7" d="M186.936,352.04485c-5.67821-2.45083-11.64722-.057-19.61487,3.13835-10.68777,4.28622-22.59515,9.06152-25.89157,21.184-3.02679,11.131,2.21635,24.74206,12.55351,30.59917,14.79148,8.381,34.688-2.1312,41.58337-16.47646C202.29319,376.49538,197.68819,356.68573,186.936,352.04485Z"/><circle class="cls-8" cx="174.18587" cy="383.4551" r="10.18164"/><path class="cls-9" d="M170.11511,376.37665a5.536,5.536,0,0,0-2.47881,2.26991,6.92678,6.92678,0,0,0-.8881,2.90273,1.61569,1.61569,0,0,0,.47256,1.14085,1.61339,1.61339,0,0,0,2.2817,0,1.83364,1.83364,0,0,0,.47256-1.14085q.00927-.09416.02152-.18792l-.05763.42891a5.35716,5.35716,0,0,1,.35918-1.32991l-.16265.38541a4.77633,4.77633,0,0,1,.60367-1.03485l-.25228.32653a4.36352,4.36352,0,0,1,.71789-.71813l-.32653.25227a4.0231,4.0231,0,0,1,.86556-.50869,1.611,1.611,0,0,0,.74145-.96422,1.64887,1.64887,0,0,0-.16264-1.24322,1.6285,1.6285,0,0,0-.96422-.74146l-.42891-.05763a1.606,1.606,0,0,0-.81432.22027Z"/><path class="cls-10" d="M43.68314,472.5129c2.18627,4.16987,1.82568,9.626,1.241,18.47312-.29565,4.47384-.57746,8.73779-2.04155,9.136-1.24374.33823-3.50613-2.06821-7.9387-13.07274A24.865,24.865,0,0,1,25.254,494.263c-2.71388,1.08214-8.57448,2.77915-9.60482.75376-.54259-1.06655-.1136-3.88833,8.532-12.77137a17.46721,17.46721,0,0,1-9.02211,3.67932c-3.22687.28922-8.29553-.26919-8.66856-2.19812-.24655-1.275,1.47468-3.58239,10.67953-8.11158A20.96557,20.96557,0,0,1,7.07424,476.9644c-2.05441-.2397-5.6702-.66161-5.87622-1.953-.199-1.24769,2.72826-3.6602,17.4996-8.817C29.74646,462.95474,40.044,465.57194,43.68314,472.5129Z"/><path class="cls-3" d="M77.14927,354.82335a366.25667,366.25667,0,0,1-27.54834,64.16156,443.63018,443.63018,0,0,1-29.62447,46.48017c8.37509,5.61026,18.1733,12.18232,26.54839,17.79258,8.02786-7.52752,9.39172-10.11552,18.76624-20.96956,15.66055-18.13219,17.66655-26.02954,21.262-35.0398"/><path class="cls-10" d="M299.05873,472.5129c-2.18627,4.16987-1.82568,9.626-1.241,18.47312.29565,4.47384.57746,8.73779,2.04154,9.136,1.24375.33823,3.50614-2.06821,7.93871-13.07274a24.865,24.865,0,0,0,9.68983,7.2137c2.71388,1.08214,8.57448,2.77915,9.60482.75376.54259-1.06655.1136-3.88833-8.532-12.77137a17.46721,17.46721,0,0,0,9.02211,3.67932c3.22686.28922,8.29552-.26919,8.66856-2.19812.24655-1.275-1.47468-3.58239-10.67954-8.11158a20.96564,20.96564,0,0,0,10.09583,1.34944c2.0544-.2397,5.67019-.66161,5.87621-1.953.199-1.24769-2.72825-3.6602-17.49959-8.817C312.99541,462.95474,302.69789,465.57194,299.05873,472.5129Z"/><path class="cls-3" d="M265.29283,355.57733c8.66361,27.53353,9.60456,30.51428,27.848,63.40761a449.39923,449.39923,0,0,0,29.62456,46.48014c-8.3751,5.61026-18.1733,12.18232-26.54839,17.79258-8.02787-7.52752-9.39172-10.11552-18.76624-20.96956-15.66056-18.13219-17.66655-26.02954-21.262-35.0398"/><path class="cls-11" d="M66.92691,132.56481A120.13063,120.13063,0,0,0,53.88755,171.116C44.48609,232.04,86.9047,279.93538,95.27338,289.03725q31.18107-39.40159,62.36221-78.80316-19.2756-41.66927-38.55121-83.33857Q93.00564,129.73018,66.92691,132.56481Z"/><path class="cls-11" d="M265.24433,132.56481A120.13038,120.13038,0,0,1,278.2837,171.116c9.40146,60.924-33.01715,108.8194-41.38583,117.92127q-31.18109-39.40159-62.36222-78.80316,19.27561-41.66927,38.55121-83.33857Q239.16561,129.73018,265.24433,132.56481Z"/><path class="cls-12" d="M78.35406,207.61063c-2.4223-.065-10.71169.0134-17.55955,6.066-1.76936,1.56388-5.4905,4.85285-6.38529,9.89721-1.76189,9.93252,8.04538,23.22587,17.55955,21.71,5.592-.891,10.25292-6.76563,12.132-14.0476Q81.22745,219.42341,78.35406,207.61063Z"/><path class="cls-13" d="M82.5045,229.63988c-2.62656-5.19674-7.63967-8.22847-12.45132-7.66237a11.33881,11.33881,0,0,0-6.70455,3.51191"/><path class="cls-12" d="M255.78775,207.61063c2.4223-.065,10.71168.0134,17.55954,6.066,1.76936,1.56388,5.4905,4.85285,6.3853,9.89721,1.76189,9.93252-8.04538,23.22587-17.55956,21.71-5.592-.891-10.25292-6.76563-12.132-14.0476Z"/><path class="cls-13" d="M251.63731,229.63988c2.62656-5.19674,7.63966-8.22847,12.45131-7.66237a11.33881,11.33881,0,0,1,6.70456,3.51191"/><polyline class="cls-14" points="141.07 304.397 141.07 272.171 194.619 272.171 194.619 304.397"/><path class="cls-15" d="M275.49728,177.72162c0,56.10816-48.54414,111.59281-108.42638,111.59281S58.64452,233.82978,58.64452,177.72162,107.18867,86.12881,167.0709,86.12881,275.49728,121.61346,275.49728,177.72162Z"/><ellipse class="cls-16" cx="101.25679" cy="240.05572" rx="9.04889" ry="14.94877" transform="translate(-142.1123 333.06738) rotate(-88.04576)"/><ellipse class="cls-16" cx="235.42575" cy="239.67794" rx="9.04889" ry="14.94877" transform="translate(-12.14114 466.79341) rotate(-88.04576)"/><g class="cls-17"><path class="cls-18" d="M102.06076,78.1396c-6.63733,9.55335-37.11624,62.40721-28.611,116.27907C85.684,271.91,163.25754,292.06905,167.84433,293.9709L64.6434,307.179Q43.95048,226.95851,23.25766,146.738,62.65921,112.4388,102.06076,78.1396Z"/></g><path class="cls-19" d="M275.49728,177.72162c0,56.10816-48.54414,111.59281-108.42638,111.59281S58.64452,233.82978,58.64452,177.72162,107.18867,86.12881,167.0709,86.12881,275.49728,121.61346,275.49728,177.72162Z"/><path class="cls-20" d="M147.079,190.70194c4.17492,16.41253-7.42184,33.52835-25.9021,38.22924s-32.166-5.98372-36.34089-22.39625,2.74192-32.3379,21.22217-37.03879S142.90405,174.2894,147.079,190.70194Z"/><circle class="cls-21" cx="120.99675" cy="194.41867" r="15.93173"/><polygon class="cls-20" points="116.043 194.778 91.212 201.024 103.638 208.222 116.043 194.778"/><path class="cls-22" d="M84.836,206.53494c4.53237,15.61263,18.55384,24.24778,34.46576,21.96a37.50167,37.50167,0,0,0,14.17065-5.12175,29.74714,29.74714,0,0,1-13.85913,6.93308c-16.41722,3.59092-32.94759-6.65756-34.77728-23.77136Z"/><path class="cls-22" d="M83.66867,197.02316c-2.08941-18.12449,14.8101-31.008,31.78347-30.80375,8.3362.1719,16.95831,2.73661,23.19629,8.45652a28.49356,28.49356,0,0,1,9.27049,22.09687,31.53259,31.53259,0,0,0-11.29066-19.71723c-18.93607-14.21051-50.70132-5.70467-52.95959,19.96759Z"/><path class="cls-20" d="M187.06283,190.70194c-4.17492,16.41253,7.42185,33.52835,25.9021,38.22924s32.166-5.98372,36.3409-22.39625-2.74192-32.3379-21.22218-37.03879S191.23775,174.2894,187.06283,190.70194Z"/><circle class="cls-21" cx="212.86503" cy="194.41867" r="15.93173"/><polygon class="cls-20" points="207.912 194.778 189.424 199.428 195.506 208.222 207.912 194.778"/><path class="cls-22" d="M249.30588,206.53494c-1.83434,17.12244-18.36163,27.35947-34.77744,23.77116a29.7447,29.7447,0,0,1-13.85892-6.93288,37.504,37.504,0,0,0,14.17066,5.12195c15.91341,2.28994,29.93806-6.35529,34.4657-21.96023Z"/><path class="cls-22" d="M250.47311,197.02316c-2.25988-25.67873-34.03077-34.17461-52.95968-19.96761A31.53229,31.53229,0,0,0,186.223,196.77279a28.4941,28.4941,0,0,1,9.27039-22.0968c6.23817-5.72015,14.85992-8.2844,23.19639-8.45682,16.96952-.208,33.87817,12.68815,31.78334,30.804Z"/><path class="cls-22" d="M83.36789,168.56481c6.6589-12.55745,24.472-18.43416,37.41728-12.75617-6.46517,2.50722-12.48027,4.01813-18.79811,6.19271-6.35253,2.0753-12.01268,4.46868-18.61917,6.56346Z"/><path class="cls-22" d="M247.78525,168.56481c-6.60426-2.09382-12.26835-4.48864-18.61917-6.56345-6.31968-2.17521-12.33046-3.68474-18.79822-6.19239,12.94358-5.67791,30.75776.19729,37.41739,12.75584Z"/><path class="cls-11" d="M49.9812,194.97636C62.97133,176.651,74.514,166.962,89.04928,149.45464c19.40225,11.76375,27.20836,15.25391,46.76524,29.12255,21.58114-16.85312,29.99418-24.31764,52.74838-43.04055,16.57006,17.44353,17.03883,17.44353,31.53491,35.95873,14.58556-9.7713,16.12662-11.705,30.40015-19.25711l32.70727,45.23344a201.37992,201.37992,0,0,0-7.65489-80.02843C262.96376,76.83079,224.69123.98455,169.77362,1.22807,106.32064,1.50944,68.7614,103.15715,63.9969,116.05148,50.97666,151.28857,49.25253,173.68619,49.9812,194.97636Z"/><path class="cls-11" d="M74.98211,88.747c9.74259-5.25792,8.11883-3.5568,17.86142-8.81472q11.64682,1.907,23.29364,3.81391L145.268,47.92086"/><line class="cls-11" x1="127.91845" y1="69.25743" x2="141.09256" y2="74.13307"/><path class="cls-23" d="M152.0525,234.61205a18.27787,18.27787,0,0,0,14.03937,13.03936c8.02655,1.46128,15.69708-3.9624,18.27564-13.03936"/></g></g></svg>