<?xml version="1.0" encoding="UTF-8"?>
<svg id="hero_3-success" xmlns="http://www.w3.org/2000/svg" xmlns:xlink="http://www.w3.org/1999/xlink" viewBox="0 0 531.84 755">
  <defs>
    <style>
      .cls-1 {
        fill: #ce9976;
      }

      .cls-2 {
        fill: #efc592;
      }

      .cls-3 {
        fill: #8e5552;
      }

      .cls-4 {
        stroke: #8e5552;
      }

      .cls-4, .cls-5, .cls-6, .cls-7, .cls-8, .cls-9, .cls-10, .cls-11, .cls-12, .cls-13, .cls-14 {
        stroke-miterlimit: 10;
      }

      .cls-4, .cls-6, .cls-8, .cls-10 {
        stroke-width: 3px;
      }

      .cls-4, .cls-6, .cls-15, .cls-10, .cls-12, .cls-14 {
        fill: none;
      }

      .cls-16 {
        fill: #ffda9f;
      }

      .cls-5 {
        stroke-width: 1.95px;
      }

      .cls-5, .cls-7 {
        stroke: #efbb7b;
      }

      .cls-5, .cls-7, .cls-17 {
        fill: #ffdc8d;
      }

      .cls-6, .cls-8, .cls-13 {
        stroke: #d17d6f;
      }

      .cls-18 {
        fill: #a36c6c;
        opacity: .2;
      }

      .cls-19 {
        fill: #ffce76;
      }

      .cls-20, .cls-9 {
        fill: #e5b28f;
      }

      .cls-21 {
        fill: #352727;
      }

      .cls-22 {
        clip-path: url(#clippath-1);
      }

      .cls-23 {
        fill: #d8aa68;
      }

      .cls-24, .cls-25, .cls-10 {
        opacity: .4;
      }

      .cls-25 {
        fill: #e07e7e;
      }

      .cls-7 {
        stroke-width: 2.04px;
      }

      .cls-26 {
        fill: #c67e6d;
        opacity: .42;
      }

      .cls-27 {
        clip-path: url(#clippath);
      }

      .cls-8, .cls-28, .cls-13 {
        fill: #e59883;
      }

      .cls-29 {
        fill: #fff4f3;
      }

      .cls-9 {
        stroke: #ce9976;
        stroke-width: 4px;
      }

      .cls-30 {
        fill: #f4c887;
      }

      .cls-31 {
        fill: #b2746f;
      }

      .cls-10 {
        stroke: #fff0e3;
        stroke-linecap: round;
      }

      .cls-11 {
        fill: #ffe8d9;
        stroke: #e0aa6e;
      }

      .cls-11, .cls-12, .cls-13 {
        stroke-width: 2px;
      }

      .cls-32 {
        fill: #606060;
      }

      .cls-12 {
        stroke: #d8aa68;
      }

      .cls-14 {
        stroke: #ce9965;
        stroke-width: 3.27px;
      }
    </style>
    <clipPath id="clippath">
      <path class="cls-15" d="m103.2,198.06c6.22,1.31,12.43,2.62,18.64,3.93.27,5.36.55,10.72.82,16.08,5.89.41,11.77.81,17.66,1.21,2.19,4.53,4.39,9.05,6.59,13.57,23.84-9.78,39.62-28.82,39.73-48.69.03-4.53-.74-11.88-5.51-20.54-.32-.8-2.35-6.18.56-11.62,1.92-3.59,4.96-5.31,6.4-5.96,1.24-.98,4.16-2.88,8.23-2.93,6.17-.07,10.01,4.2,10.58,4.85,5.48,8.22,11.65,12.28,15.69,14.35,17.69,9.05,41.85,3.81,61.51-12.85-3-4.04-6-8.07-9.01-12.1,2.35-5.41,4.7-10.81,7.05-16.23-4.63-2.71-9.27-5.43-13.9-8.14,1.7-6.12,3.4-12.24,5.1-18.36-4.79-1.51-9.58-3.03-14.37-4.54.79-6.34,1.59-12.68,2.37-19.02-5.15-1.19-10.29-2.37-15.43-3.57.19-5.86.39-11.73.57-17.6-5.24.1-10.5.19-15.74.29.03-5.77.06-11.54.1-17.31-5.22,1.06-10.43,2.14-15.64,3.2-2.86-5.44-5.73-10.89-8.59-16.33-6.17,3.19-16.79,9.78-25.41,22.06-5.73,8.17-14.01,20-12.2,33.95,1.34,10.34,7.46,15.91,4.56,24.43-1.55,4.57-4.91,7.63-7.54,9.52-2.9,1.47-7.15,3.04-11.93,2.31-8.9-1.36-11.03-9.35-19.59-15.3-11.56-8.04-25.86-6.13-35.76-4.81-14.87,1.99-25.61,8.38-31.28,12.39,3.51,5.05,7.03,10.1,10.54,15.15-3.35,4.14-6.7,8.27-10.04,12.41,5.13,2.63,10.26,5.25,15.41,7.89-2.51,4.61-5,9.23-7.51,13.85,5.3,2.54,10.59,5.07,15.89,7.59-1.31,5.12-2.63,10.22-3.95,15.34,5.99,2.22,11.98,4.43,17.97,6.65-.86,4.94-1.72,9.89-2.59,14.84Z"/>
    </clipPath>
    <clipPath id="clippath-1">
      <path class="cls-15" d="m150.19,261.69c6.1,56.6,55.82,87.19,112.42,81.09,56.6-6.1,98.66-46.58,92.56-103.19s-58.05-107.89-114.65-101.79c-56.6,6.1-96.43,67.28-90.33,123.89Z"/>
    </clipPath>
  </defs>
  <ellipse class="cls-18" cx="251.51" cy="728.77" rx="134.13" ry="11.82"/>
  <g>
    <path class="cls-9" d="m185.64,160.46c-16.65,24.36-29.83,53.18-33.08,82.5-3.21,28.94,1.26,58.59,4.16,87.37,3.86,38.34,7.73,76.8,8.74,115.34.62,23.84.25,48.22-5.12,71.57-5.58,24.29-18.06,45.88-35.1,64-6.63,7.05-17.22-3.57-10.61-10.61,8.59-9.13,16-19.33,21.71-30.5,2.13-4.17,3.22-6.68,4.56-10.23,1.53-4.08,2.84-8.24,3.95-12.46,5.72-21.8,6.14-44.48,5.71-67.35-.71-37.68-4.4-75.3-8.14-112.78-2.97-29.82-7.8-60.45-5.24-90.48,2.88-33.71,16.53-66.18,35.51-93.94,5.41-7.92,18.42-.43,12.95,7.57h0Z"/>
    <path class="cls-9" d="m184.47,150.72c-21.48,24.68-38.14,54.44-44.61,86.73-.43,2.12-.8,4.26-1.1,6.4.2-1.41-.13,1.11-.18,1.58-.13,1.21-.25,2.42-.34,3.63-.39,4.99-.47,9.99-.39,14.99.22,13.53,1.42,27.04,2.5,40.52,3.2,39.88,6.71,79.81,7.75,119.82.62,23.76.63,48.15-4.69,71.45-6.08,26.64-21.2,50.63-40.28,69.92-6.8,6.87-17.4-3.73-10.61-10.61,11.12-11.24,20.51-24.03,27.58-38.19.86-1.73,1.68-3.49,2.47-5.25.18-.39.35-.79.52-1.18-.57,1.33-.12.27,0,0,.45-1.11.89-2.22,1.3-3.34,1.45-3.9,2.69-7.87,3.73-11.89,5.46-21.22,5.54-43.8,5.09-66.49-.79-39.77-4.24-79.48-7.44-119.12-1.94-24.02-5.06-48.69-1.02-72.66,6.09-36.11,25.34-69.58,49.13-96.91,6.35-7.3,16.92,3.35,10.61,10.61h0Z"/>
    <path class="cls-9" d="m200.73,143.84c-11.73,30.93-19.47,64.19-19.25,97.41.21,32.2,6.51,64.32,9.8,96.28,3.82,37.05,6.51,74.46,5.22,111.72-.63,18.2-2.1,36.7-6.51,54.43-6.72,27.02-20.33,52.74-36.51,75.22-2.38,3.31-6.5,4.83-10.26,2.69-3.27-1.86-5.05-6.98-2.69-10.26,14.92-20.74,27.52-44.04,34.25-68.79,4.43-16.28,5.61-30.01,6.45-47.02,1.74-35.44-.49-71.07-3.81-106.35-3.15-33.45-9.43-66.86-10.77-100.45-1.47-36.97,6.55-74.43,19.61-108.87,3.39-8.94,17.9-5.06,14.46,3.99h0Z"/>
    <path class="cls-9" d="m201.58,154.11c-16.65,24.36-29.83,53.18-33.08,82.5-3.21,28.94,1.26,58.59,4.16,87.37,3.86,38.34,7.73,76.8,8.74,115.34.62,23.84.25,48.22-5.12,71.57-5.58,24.29-18.06,45.88-35.1,64-6.63,7.05-17.22-3.57-10.61-10.61,8.59-9.13,16-19.33,21.71-30.5,2.13-4.17,3.22-6.68,4.56-10.23,1.53-4.08,2.84-8.24,3.95-12.46,5.72-21.8,6.14-44.48,5.71-67.35-.71-37.68-4.4-75.3-8.14-112.78-2.97-29.82-7.8-60.45-5.24-90.48,2.88-33.71,16.53-66.18,35.51-93.94,5.41-7.92,18.42-.43,12.95,7.57h0Z"/>
    <path class="cls-9" d="m200.41,144.37c-21.48,24.68-38.14,54.44-44.61,86.73-.43,2.12-.8,4.26-1.1,6.4.2-1.41-.13,1.11-.18,1.58-.13,1.21-.25,2.42-.34,3.63-.39,4.99-.47,9.99-.39,14.99.22,13.53,1.42,27.04,2.5,40.52,3.2,39.88,6.71,79.81,7.75,119.82.62,23.76.63,48.15-4.69,71.45-6.08,26.64-21.2,50.63-40.28,69.92-6.8,6.87-17.4-3.73-10.61-10.61,11.12-11.24,20.51-24.03,27.58-38.19.86-1.73,1.68-3.49,2.47-5.25.18-.39.35-.79.52-1.18-.57,1.33-.12.27,0,0,.45-1.11.89-2.22,1.3-3.34,1.45-3.9,2.69-7.87,3.73-11.89,5.46-21.22,5.54-43.8,5.09-66.49-.79-39.77-4.24-79.48-7.44-119.12-1.94-24.02-5.06-48.69-1.02-72.66,6.09-36.11,25.34-69.58,49.13-96.91,6.35-7.3,16.92,3.35,10.61,10.61h0Z"/>
    <path class="cls-9" d="m216.67,137.49c-11.73,30.93-19.47,64.19-19.25,97.41.21,32.2,6.51,64.32,9.8,96.28,3.82,37.05,6.51,74.46,5.22,111.72-.63,18.2-2.1,36.7-6.51,54.43-6.72,27.02-20.33,52.74-36.51,75.22-2.38,3.31-6.5,4.83-10.26,2.69-3.27-1.86-5.05-6.98-2.69-10.26,14.92-20.74,27.52-44.04,34.25-68.79,4.43-16.28,5.61-30.01,6.45-47.02,1.74-35.44-.49-71.07-3.81-106.35-3.15-33.45-9.43-66.86-10.77-100.45-1.47-36.97,6.55-74.43,19.61-108.87,3.39-8.94,17.9-5.06,14.46,3.99h0Z"/>
  </g>
  <path class="cls-7" d="m366.51,481.86l-64.08,215.39h-41.85v-141.6h-5.03v141.6h-41.85l-64.08-215.39c-7.31-65.4,36.61-123.36,93.47-123.36h29.95c56.86,0,100.78,57.96,93.47,123.36Z"/>
  <circle class="cls-11" cx="254.81" cy="437.99" r="40.79"/>
  <g>
    <path class="cls-32" d="m270.71,443.97s.02.02.03.03c0,0,.01,0,.02,0-.02-.01-.03-.02-.05-.03Z"/>
    <path class="cls-32" d="m270.8,444.04s0-.02-.04-.03c0,0,0,0,0,0,0,0,0,0,0,0,.01,0,.02.02.04.03Z"/>
    <path class="cls-16" d="m261.52,439.72c-.8-.69-1.49-1.5-2.11-2.36-.09.02-.17.04-.26.06-1.83.4-3.68.74-5.54.94.7,1.55,1.88,2.88,3.35,3.75,1.58.93,3.46,1.33,4.94,2.41-.04.03-.07.06-.11.09.25-.05.5-.09.75-.14.19-.04.39-.08.58-.12.05,0,.09-.02.14-.03,0,0,.01,0,.02,0,0,0,.01,0,.02,0,.08-.02.15-.03.23-.05.75-.16,1.49-.32,2.23-.51,1.01-.26,1.99-.65,3.01-.86.99-.21,2.37-.42,3.06.54.19.27.1.62-.15.81-.25.19-.64.1-.81-.15,0,0-.01-.02-.02-.03-.01-.01-.02-.02-.03-.03,0,0-.02-.01-.06-.04-.03-.02-.06-.03-.1-.05-.13-.02-.06-.02,0,0,0,0,0,0,0,0,0,0,.02,0,.03,0-.02,0-.05-.01-.07-.02-.05-.01-.1-.02-.15-.03-.05,0-.1-.02-.16-.02-.01,0-.03,0-.05,0-.24,0-.48.01-.73.05-.14.02-.28.05-.42.07-.03,0-.05.01-.08.02-.06.01-.12.03-.19.04-.28.07-.57.15-.85.23-.5.15-1,.31-1.5.46-.15.04-.3.09-.46.13.08.11.17.22.25.32.09.11.18.22.27.32.05.06.1.12.15.17.02.02.03.03.05.05,0,0,0,0,0,0,.42.45.87.87,1.35,1.25.13.1.25.19.38.28.07.05.14.1.22.15.02.01.08.04.09.06,0,0,.01,0,.02.01.28.17.58.33.88.47.23.11.47.22.72.3.08-.14.15-.28.23-.42.35-.65.72-1.3,1.05-1.96.2-.39.37-.79.52-1.21,0,0,0,0,0,0,0-.02.01-.04.02-.07.01-.05.03-.09.04-.14.03-.1.05-.21.07-.31.02-.1.03-.21.04-.32,0-.04,0-.14,0-.04,0-.06,0-.11,0-.17,0-.1,0-.2-.02-.31,0-.05-.01-.09-.02-.14,0,0,0,0,0-.01,0,0,0-.01,0-.02-.03-.1-.06-.2-.1-.3,0-.02-.05-.08-.05-.11,0,0,0-.02-.02-.03-.03-.05-.06-.1-.1-.14,0-.01-.02-.02-.03-.03-.04-.04-.15-.14-.16-.15-.03-.03-.07-.05-.1-.08,0,0,0,0,0,0,0,0,0,0,0,0-.06-.03-.13-.07-.2-.1-.01,0-.11-.05-.17-.08,0,0,0,0-.02,0-.02,0-.04-.01-.05-.02-.04-.01-.07-.02-.11-.03-.17-.04-.34-.07-.51-.09-.08,0-.16-.01-.24-.02-.02,0-.03,0-.05,0-.05,0-.1,0-.15,0-.18,0-.36,0-.54,0-.77.02-1.53.11-2.3.08-.79-.03-1.57-.13-2.33-.35-1.34-.4-2.57-1.09-3.63-2Z"/>
    <path class="cls-32" d="m263.39,439.67s.02.01.03.02c-.02-.01-.11-.07-.03-.02Z"/>
    <path class="cls-32" d="m276.07,451.77s-.02-.01-.05-.02c0,0-.01,0-.02,0,.02,0,.04.01.05.02,0,0,0,0,0,0Z"/>
    <path class="cls-32" d="m268.79,447.48s.02.01.03.02c-.02-.01-.11-.07-.03-.02Z"/>
    <path class="cls-32" d="m253,420.86s.02,0,.03.01c0,0,0,0,.01,0-.01,0-.03-.01-.04-.02Z"/>
    <path class="cls-32" d="m259.98,428.4s0-.02-.04-.03c0,0,0,0,0,0,0,0,0,0,0,0,.01,0,.02.02.04.03Z"/>
    <path class="cls-32" d="m253.04,420.87s.04.02.06.03c-.01,0-.04-.02-.06-.03Z"/>
    <path class="cls-16" d="m266.92,447.53c-.8-.69-1.49-1.5-2.11-2.36-.07.02-.14.03-.21.05-1.84.41-3.71.78-5.58,1,.64,1.76,1.92,3.29,3.56,4.21,1.31.73,2.87,1.12,3.98,2.07.2-.03.4-.06.59-.1.36-.06.71-.13,1.07-.19.21-.04.41-.08.62-.12.08-.02.16-.03.24-.05,0,0,.01,0,.02,0,0,0,.02,0,.03,0,.05-.01.1-.02.15-.03.2-.04.4-.09.6-.13,0,0,0,0,.01,0,.05-.02.11-.03.16-.03.43-.09.86-.19,1.29-.31,1.02-.28,2.02-.65,3.06-.87.94-.19,2.21-.31,2.84.58.19.27.1.62-.15.81-.25.19-.64.1-.81-.15,0,0-.01-.02-.02-.03-.01-.01-.02-.02-.03-.03,0,0-.03-.02-.06-.04-.02-.01-.05-.02-.07-.04,0,0-.01,0-.08-.03-.03,0-.06-.01-.09-.02-.05,0-.1-.02-.15-.02-.02,0-.03,0-.05,0-.06.02-.09,0-.08,0-.03,0-.06,0-.08,0-.06,0-.12,0-.18,0-.11,0-.23.02-.34.03-.14.02-.28.04-.42.07-.04,0-.24.06-.05,0-.07.02-.13.03-.2.04-.27.06-.54.14-.81.21-.49.14-.98.3-1.47.45-.41.13-.83.23-1.25.32.04.09.08.18.12.28.02.04.13.24.02.05.02.04.04.09.07.13.05.09.11.19.16.28.13.21.28.42.44.62.03.03.05.06.08.09,0,0,.01.01.02.02.04.04.08.08.12.12.1.1.2.19.3.28.12.1.25.2.38.3.02.02.11.07.12.08.06.04.12.07.18.11.27.15.56.28.85.38.07.03.26.08.06.02.06.02.12.04.19.06.15.04.3.09.45.13.47.13.95.26,1.42.38.09-.16.18-.33.27-.49.35-.65.72-1.3,1.05-1.96.2-.39.37-.79.52-1.21,0,0,0,0,0,0,0-.02.01-.04.02-.07.01-.05.03-.09.04-.14.03-.1.05-.21.07-.31.02-.1.03-.21.04-.32,0-.04,0-.14,0-.04,0-.06,0-.11,0-.17,0-.1,0-.2-.02-.31,0-.05-.01-.09-.02-.14,0,0,0,0,0-.01,0,0,0-.01,0-.02-.03-.1-.06-.2-.1-.3,0-.02-.05-.08-.05-.11,0,0,0-.02-.02-.03-.03-.05-.06-.1-.1-.14,0-.01-.02-.02-.03-.03-.04-.04-.15-.14-.16-.15-.03-.03-.07-.05-.1-.08,0,0,0,0,0,0,0,0,0,0,0,0-.06-.03-.13-.07-.2-.1-.01,0-.11-.05-.17-.08,0,0,0,0-.02,0-.02,0-.04-.01-.05-.02-.04-.01-.07-.02-.11-.03-.17-.04-.34-.07-.51-.09-.08,0-.16-.01-.24-.02-.02,0-.03,0-.05,0-.05,0-.1,0-.15,0-.18,0-.36,0-.54,0-.77.02-1.53.11-2.3.08-.79-.03-1.57-.13-2.33-.35-1.34-.4-2.57-1.09-3.63-2Z"/>
    <path class="cls-16" d="m248.63,421.79c-.26.09-.52.18-.78.27-.61.22-1.24.42-1.88.6.26.62.45.7,5.01,4.83.3.27.62.64.48,1.01-.07.19-.21.29-.39.35.57-.08,1.15-.17,1.72-.27.2-.04.41-.08.61-.12.08-.02.16-.03.24-.05.01,0,.09-.02.09-.02.03,0,.06-.01.09-.02.37-.08.75-.16,1.12-.26,1.01-.26,1.99-.65,3.01-.86.99-.21,2.37-.42,3.06.54.19.27.1.62-.15.81-.25.19-.64.1-.81-.15,0,0-.01-.02-.02-.03-.01-.01-.02-.02-.03-.03,0,0-.02-.01-.06-.04-.03-.02-.06-.03-.1-.05-.13-.02-.06-.03,0,0,0,0,0,0,0,0,0,0,.02,0,.03,0-.02,0-.05-.01-.07-.02-.05-.01-.1-.02-.15-.03-.05,0-.1-.02-.16-.02,0,0-.01,0-.02,0,.04,0,.04.02-.05,0-.24,0-.47.02-.71.05-.14.02-.28.05-.42.07-.03,0-.06.01-.09.02-.07.02-.14.03-.2.05-.27.07-.54.14-.81.22-.5.15-1,.31-1.5.46-.15.04-.3.09-.46.13.09.12.18.23.27.35.09.11.18.22.27.32.05.06.1.12.15.17.02.02.03.03.05.05,0,0,0,0,0,0,.42.45.87.87,1.35,1.25.13.1.25.19.38.28.07.05.14.1.22.15.02.01.08.04.09.06,0,0,.01,0,.02.01.28.17.58.33.88.47.21.1.44.2.67.28.26-.47.53-.95.79-1.42.22-.4.45-.8.65-1.22.1-.21.19-.41.28-.63.04-.11.08-.22.12-.33,0,0,0,0,0,0,0-.02.01-.05.02-.07.01-.05.03-.09.04-.14.06-.21.1-.43.11-.65,0-.03,0-.14,0-.02,0-.02,0-.05,0-.07,0-.05,0-.1,0-.14,0-.1-.01-.2-.03-.3,0-.04-.01-.08-.02-.11-.01-.07,0,.03,0,.04,0-.03-.03-.1-.03-.13-.03-.09-.06-.18-.1-.27,0,0,0,0,0,0,0,0-.01-.02-.02-.04,0,0-.01-.02-.01-.02-.03-.04-.05-.09-.08-.13,0,0-.06-.07-.08-.09,0,0-.02-.02-.02-.02-.07-.07-.14-.12-.22-.18,0,0-.02,0-.03-.02-.03-.02-.05-.03-.08-.05-.08-.04-.16-.07-.24-.11,0,0-.04-.02-.07-.03,0,0,0,0,0,0-.02,0-.04-.01-.05-.02-.17-.05-.34-.08-.52-.1-.09-.01-.19-.02-.28-.03,0,0-.01,0-.02,0-.04,0-.1,0-.14,0-.79-.02-1.57.07-2.35.09-.84.02-1.69-.06-2.51-.26-1.43-.35-2.75-1.06-3.88-2.01-.83-.7-1.55-1.52-2.19-2.4Z"/>
    <path class="cls-32" d="m255.43,418.4s.02.02.04.04c-.02-.02-.03-.04-.04-.04Z"/>
    <path class="cls-32" d="m272.08,442.58s0,0,0,0c0,0,0,0,0,0Z"/>
    <path class="cls-32" d="m255.95,419.46s0-.03-.01-.06c0,0,.01.06.01.06Z"/>
    <path class="cls-32" d="m261.42,427.18c-.03-.06-.03-.05-.02-.03,0,.01.01.02.02.03Z"/>
    <path class="cls-32" d="m264.81,436.07s0,0,.01,0c0,0,0,0,.01,0-.01,0-.02,0-.03,0Z"/>
    <path class="cls-32" d="m265.96,434.33s.05.02.07.02c-.04-.01-.06-.02-.07-.02Z"/>
    <path class="cls-32" d="m264.85,436.08s0,0,0,0c.01,0,.02,0,.04,0,0,0-.02,0-.03,0Z"/>
    <path class="cls-32" d="m265.4,436.23s0-.02-.04-.03c0,0,0,0,0,0,0,0,0,0,0,0,.01,0,.02.02.04.03Z"/>
    <path class="cls-32" d="m265.31,436.17s.02.02.03.03c0,0,.01,0,.02,0-.02-.01-.03-.02-.05-.03Z"/>
    <path class="cls-32" d="m266.68,434.77s0,0,0,0c0,0,0,0,0,0Z"/>
    <path class="cls-16" d="m256.12,431.92c-.81-.7-1.51-1.52-2.13-2.39-.12.02-.24.05-.36.07-1.42.29-2.86.5-4.3.61,0,.08.02.17.04.25.13.5.47.91.82,1.3,1.81,1.98,3.96,3.64,6.33,4.9-.09.05-.17.11-.26.15.66-.11,1.31-.24,1.96-.37,0,0,.01,0,.02,0,.02,0,.04,0,.06-.01.05,0,.09-.02.14-.03.09-.02.19-.04.28-.06.17-.04.34-.08.52-.11.37-.08.75-.17,1.12-.26,1.01-.26,1.99-.65,3.01-.86.99-.21,2.37-.42,3.06.54.19.27.1.62-.15.81-.25.19-.64.1-.81-.15,0,0-.01-.02-.02-.03-.01-.01-.02-.02-.03-.03,0,0-.02-.01-.06-.04-.03-.02-.06-.03-.1-.05-.13-.02-.06-.02,0,0,0,0,0,0,0,0,0,0,.02,0,.03,0-.02,0-.05-.01-.07-.02-.05-.01-.1-.02-.15-.03-.05,0-.1-.02-.16-.02,0,0-.01,0-.02,0,.04,0,.04.02-.05,0-.24,0-.47.02-.71.05-.14.02-.28.05-.42.07-.03,0-.06.01-.09.02-.07.02-.14.03-.2.05-.27.07-.54.14-.81.22-.5.15-1,.31-1.5.46-.15.04-.3.09-.46.13.08.11.17.22.25.32.09.11.18.22.27.32.05.06.1.12.15.17.02.02.03.03.05.05,0,0,0,0,0,0,.42.45.87.87,1.35,1.25.13.1.25.19.38.28.07.05.14.1.22.15.02.01.08.04.09.06,0,0,.01,0,.02.01.28.17.58.33.88.47.23.11.47.22.72.3.08-.14.15-.28.23-.42.35-.65.72-1.3,1.05-1.96.2-.39.37-.79.52-1.21,0,0,0,0,0,0,0-.02.01-.04.02-.07.01-.05.03-.09.04-.14.03-.1.05-.21.07-.31.02-.1.03-.21.04-.32,0-.04,0-.14,0-.04,0-.06,0-.11,0-.17,0-.1,0-.2-.02-.31,0-.05-.01-.09-.02-.14,0,0,0,0,0-.01,0,0,0-.01,0-.02-.03-.1-.06-.2-.1-.3,0-.02-.05-.08-.05-.11,0,0,0-.02-.02-.03-.03-.05-.06-.1-.1-.14,0-.01-.02-.02-.03-.03-.04-.04-.15-.14-.16-.15-.03-.03-.07-.05-.1-.08,0,0,0,0,0,0,0,0,0,0,0,0-.06-.03-.13-.07-.2-.1-.01,0-.11-.05-.17-.08,0,0,0,0-.02,0-.02,0-.04-.01-.05-.02-.04-.01-.07-.02-.11-.03-.17-.04-.34-.07-.51-.09-.08,0-.16-.01-.24-.02-.02,0-.03,0-.05,0-.05,0-.1,0-.15,0-.18,0-.36,0-.54,0-.77.02-1.53.11-2.3.08-.79-.03-1.57-.13-2.33-.35-1.34-.4-2.57-1.09-3.63-2Z"/>
    <path class="cls-32" d="m259.4,428.24s0,0,.01,0c0,0,0,0,.01,0-.01,0-.02,0-.03,0Z"/>
    <polygon class="cls-32" points="261.42 427.18 261.42 427.18 261.42 427.18 261.42 427.18"/>
    <path class="cls-32" d="m259.43,428.24s0,0,0,0c.01,0,.02,0,.04,0,0,0-.02,0-.03,0Z"/>
    <path class="cls-32" d="m259.89,428.33s.02.02.03.03c0,0,.01,0,.02,0-.02-.01-.03-.02-.05-.03Z"/>
    <path class="cls-32" d="m257.99,431.87s.02.01.03.02c-.02-.01-.11-.07-.03-.02Z"/>
    <path class="cls-32" d="m260.54,426.5s.02,0,.04.01c-.02,0-.03-.01-.04-.01Z"/>
    <path class="cls-32" d="m271.36,442.14s.05.02.07.02c-.04-.01-.06-.02-.07-.02Z"/>
    <path class="cls-32" d="m276.76,449.94s.05.02.07.02c-.04-.01-.06-.02-.07-.02Z"/>
    <path class="cls-32" d="m275.67,451.69s-.05,0-.05,0c.03,0,.05,0,.08,0,0,0-.02,0-.03,0Z"/>
    <path class="cls-32" d="m277.48,450.39s0,0,0,0c0,0,0,0,0,0Z"/>
    <path class="cls-16" d="m280.29,459.33s.01-.01.02-.02c.03-.03.05-.06.08-.1,0,0,0,0,0,0,0,0,0,0,0-.01-.02-.03-.05-.06-.07-.08-.06-.06-.13-.12-.2-.17-.05-.04-.27-.17-.07-.05-.06-.03-.12-.07-.17-.1-.14-.08-.29-.15-.44-.22-.34-.16-.68-.29-1.03-.41-.2-.07-.39-.14-.59-.2-.02,0-.05-.02-.07-.02-.04-.01-.08-.03-.12-.04-.1-.03-.21-.06-.31-.09-.79-.24-1.58-.45-2.38-.66-.67-.18-1.35-.34-2-.6-1.14-.46-2.11-1.31-2.74-2.36-.2-.34-.4-.7-.54-1.08-1.91.41-3.85.75-5.8.92,1.25,3.65,5.09,5.71,8.6,7.39.89-.1,1.78-.23,2.66-.38.2-.04.4-.07.6-.11.1-.02.19-.04.29-.06.01,0,.02,0,.04,0,.04,0,.08-.02.12-.02.36-.08.72-.16,1.07-.25.61-.16,1.21-.33,1.79-.56.23-.09.46-.19.68-.3.01,0,.03-.01.04-.02.05-.03.09-.05.14-.08.08-.05.16-.1.24-.15.04-.03.08-.06.12-.1.01,0,.02-.02.04-.03Z"/>
    <polygon class="cls-32" points="275.71 451.69 275.7 451.69 275.7 451.69 275.71 451.69"/>
    <path class="cls-32" d="m276.11,451.78s.02.02.03.03c0,0,.01,0,.02,0-.02-.01-.04-.02-.05-.04Z"/>
    <path class="cls-32" d="m280.33,459.3s-.03.02-.04.03c0,0,0,0,0,0,.01-.01.03-.02.04-.03Z"/>
    <path class="cls-32" d="m280.3,459.11s0,0,0,0h0Z"/>
    <path class="cls-32" d="m280.29,459.33s-.03.02-.04.03c-.06.05,0,0,.04-.03Z"/>
    <path class="cls-16" d="m266.65,462.83c-.44.35-.76.89-.69,1.45.07.52.45.95.6,1.45.11.37.06.76-.1,1.1.12-.11.23-.22.34-.34,1.12-1.13,2.12-2.4,3.04-3.71-.43.02-.85.04-1.28.05-.64.01-1.28.01-1.92,0Z"/>
    <path class="cls-32" d="m275.97,451.73s.01,0,.02.01c0,0,0,0,.01,0-.01,0-.02,0-.03-.01Z"/>
    <path class="cls-16" d="m244.46,416.53s-.02-.01-.04-.02c-.67-.16-1.34-.36-1.97-.63.05.17.11.36.2.61.77,1.98,2.64,2.07,3.79,3.67.16.22.28.54.13.77-.08.12-.22.19-.34.28-.08.06-.14.13-.2.21,1.05-.32,2.08-.7,3.13-1.04.6-.19,1.2-.37,1.81-.51.47-.11.95-.2,1.43-.22.73-.02,1.47.15,1.91.77.19.27.1.62-.15.81-.25.19-.64.1-.81-.15-.01-.02-.03-.04-.04-.05-.03-.03-.06-.06-.1-.08-.02,0-.03-.02-.05-.03-.02-.01-.04-.02-.06-.03.02,0,0,0-.08-.03,0,0,0,0,0,0-.04,0-.07-.02-.11-.02-.07-.01-.14-.02-.21-.03,0,0,0,0,0,0,0,0,0,0,0,0-.04,0-.08,0-.12,0-.09,0-.18,0-.27.01-.22.02-.43.05-.64.08-.07.01-.14.03-.21.04-.02,0-.04,0-.05.01-.13.03-.26.06-.38.09-.31.08-.63.17-.94.26-.09.03-.18.06-.28.09.1.13.2.26.3.38.1.12.19.23.29.35.05.06.1.11.15.17.03.03.05.06.08.09.44.47.92.91,1.44,1.29.13.1.27.19.41.29.03.02.05.03.08.05,0,0,.04.03.04.03.07.04.14.09.21.13.31.18.64.34.97.49.09.04.18.08.28.11.08-.12.16-.24.23-.36.02-.03.04-.06.06-.09,0,0,0-.01.02-.03,0-.01.01-.02.02-.02.02-.03.04-.06.06-.09.06-.09.11-.18.17-.27.12-.19.23-.39.35-.59.22-.39.42-.79.6-1.2.08-.19.15-.38.22-.57,0,0,.03-.1.04-.13.01-.05.03-.09.04-.14.02-.09.05-.19.07-.28.04-.2.07-.4.09-.6,0-.03,0-.13,0-.13,0-.03,0-.06,0-.09,0-.09,0-.18,0-.27,0-.1-.01-.21-.03-.31,0-.04-.01-.09-.02-.13,0-.02,0-.04-.01-.06,0-.02,0-.02,0-.02-.04-.13-.15-.43-.16-.46,0-.02-.02-.04-.03-.06-.02-.02-.05-.08-.06-.11-.05-.08-.11-.17-.17-.24,0,0-.04-.05-.06-.08,0,0,0,0,0,0-.02-.02-.03-.03-.05-.05-.07-.07-.14-.14-.22-.2-.08-.06-.16-.12-.24-.18-.04-.03-.12-.07-.03-.02-.05-.03-.09-.06-.14-.08-.18-.1-.37-.19-.56-.26-.09-.04-.18-.07-.27-.1-.02,0-.05-.02-.07-.02-.06-.02-.11-.03-.17-.05-.21-.05-.42-.1-.64-.13-.22-.03-.44-.06-.66-.08-.11-.01-.22-.02-.34-.03-.03,0-.06,0-.09,0-.05,0-.1,0-.15,0-.46-.02-.91-.02-1.37-.02-.95,0-1.9-.04-2.85-.13-.9-.09-1.79-.23-2.67-.43-.08-.02-.16-.04-.24-.06-.08,0-.16-.01-.24-.05Z"/>
    <path class="cls-32" d="m241.99,409.48s-.03.01-.03.02c0,0,.02,0,.03-.02Z"/>
    <path class="cls-16" d="m240.52,411.98s0,.03,0,.05c0,.04,0,.09,0,.13,0,.14.02.28.04.41,0,0,0,.01,0,.02,0,.02.01.04.01.05.01.04.02.08.04.12.03.09.06.18.1.26,0,.01.01.03.02.04.02.03.04.07.05.1.05.08.1.16.15.23.06.08.12.16.19.24,0,0,.02.02.03.03.03.03.05.05.08.08.15.14.3.27.47.39.08.06.16.11.25.17.02.01.03.02.05.03.04.02.08.05.12.07.18.1.37.2.56.29.2.09.4.18.61.25.1.04.2.07.3.11.03.01.06.02.09.03,0,0,.01,0,.02,0,0,0,.02,0,.02,0,.02,0,.05.01.07.02.21.06.41.12.62.17.11-.24.21-.48.3-.73.03-.08.06-.16.08-.24.01-.03.02-.06.03-.09,0,0,0,0,0-.02.05-.17.1-.35.14-.53.09-.37.15-.75.18-1.13,0,0,0-.04,0-.06,0,0,0,0,0,0,0-.05,0-.1,0-.15,0-.09,0-.19,0-.28,0-.19-.02-.38-.05-.57,0-.03-.04-.1,0-.04-.01-.04-.02-.08-.03-.13-.02-.09-.05-.17-.08-.25-.03-.09-.07-.18-.11-.27-.02-.03-.03-.07-.05-.1,0,0-.01-.02-.02-.04-.09-.14-.17-.29-.27-.43-.06-.08-.11-.15-.18-.22,0,0,0,0-.01-.01-.03-.03-.06-.06-.09-.09-.12-.12-.26-.23-.4-.33,0,0-.02-.01-.03-.02-.02,0-.05-.02-.06-.03-.01,0-.03-.02-.03-.02-.07-.04-.15-.08-.23-.11-.04-.02-.09-.04-.13-.05-.01,0-.02,0-.03-.01-.07-.02-.13-.04-.2-.05-.08-.02-.16-.02-.24-.03-.02,0-.04,0-.05,0-.04,0-.07,0-.11,0-.06,0-.11,0-.17.02-.03,0-.06,0-.1.01,0,0,0,0-.01,0-.02,0-.04.01-.05.01-.02,0-.05.01-.07.02-.05.02-.1.03-.16.05-.06.02-.12.05-.17.07,0,0-.01,0-.02,0,0,0,0,0,0,0-.09.06-.19.11-.28.17-.1.07-.19.14-.28.22-.03.03-.07.06-.1.09-.02.02-.04.04-.05.05-.17.17-.33.35-.49.54-.24.3-.47.61-.7.92.23.07.43.28.43.52Z"/>
    <path class="cls-32" d="m243.8,409.57s-.03-.02-.03,0c.02.01.04.03.06.03-.01,0-.02-.01-.03-.02Z"/>
    <polygon class="cls-32" points="243.83 409.6 243.83 409.6 243.83 409.6 243.83 409.6"/>
    <path class="cls-32" d="m276.2,451.85s0-.01-.03-.03c0,0,0,0-.01,0,0,0,0,0,0,0,.01,0,.02.02.04.03Z"/>
    <path class="cls-19" d="m239.72,432.05s0,0,0,0c0,0,0,0,0,0Z"/>
    <path class="cls-2" d="m259.01,446.22c-.86.1-1.72.18-2.58.21-2.15.09-4.32-.07-6.36-.78-.07-.02-.14-.05-.21-.08.11.37.23.73.37,1.08.09.23.18.46.29.68.05.11.1.22.16.33,0,.02.02.04.03.05.02.04.04.08.07.12.22.4.46.79.72,1.16.13.18.26.35.4.52.06.08.13.15.2.23.11.11.06.07.03.03,0,0,0,0,.01.01.04.04.08.08.11.12.3.31.62.6.96.86.17.13.34.25.51.37.05.04.11.07.16.11-.17-.12,0,0,.04.02.09.05.18.11.26.16.39.22.79.41,1.21.58.22.09.44.17.66.24.05.02.25.08.06.02.06.02.12.04.17.05.11.03.21.06.32.09.99.27,2.01.42,3.03.5.08,0,.16.01.25.02.03,0,.07,0,.1,0,.13,0,.26.01.39.02.28,0,.57.01.85.01.62,0,1.25-.03,1.87-.07,1.15-.08,2.3-.22,3.45-.4-1.11-.95-2.67-1.34-3.98-2.07-1.64-.91-2.92-2.44-3.56-4.21Z"/>
    <path class="cls-19" d="m252.08,449.75s.02.02.03.03c0,0-.01-.01-.02-.02,0,0,0,0-.01-.01Z"/>
    <path class="cls-19" d="m252.11,449.78s0,0,.01.01c0,0,0,0-.01-.01,0,0,0,0,0,0Z"/>
    <path class="cls-19" d="m233.03,415.12s0,0,.01,0c.02,0,.06,0,.07,0,.03,0,.06,0,.09,0,.04,0,.08,0,.13,0-.12-.01-.24-.02-.36-.02-.07,0-.15,0-.22,0,.06,0,.12,0,.18,0,.03,0,.06,0,.09,0Z"/>
    <path class="cls-19" d="m238.54,428.59s0,.02.01.03c0-.01,0-.02-.01-.03,0,0,0,0,0,0Z"/>
    <path class="cls-2" d="m256.96,442.11c-1.47-.86-2.65-2.2-3.35-3.75-.95.1-1.89.16-2.84.18-2.22.03-4.48-.19-6.56-.99.15.42.3.84.48,1.26.1.24.21.47.32.71.03.06.06.12.09.18.01.02.02.05.04.07.06.11.12.22.18.33.23.41.49.81.76,1.2.14.19.28.38.44.56.08.09.16.18.24.27,0,0,0,0,0,0,0,0,0,0,0,0,.04.04.08.08.11.12.31.32.64.62.98.89.17.14.35.26.53.39.04.03.08.05.12.08.14.08.06.04.02.01,0,0-.01,0-.02-.01,0,0,0,0-.01,0,.02.01.05.03.07.04.09.06.18.11.28.17.39.22.79.42,1.2.58.21.08.42.16.63.23.03.01.06.02.09.03.05.01.1.03.15.04.11.03.22.06.33.09.96.26,1.95.39,2.95.46.04,0,.09,0,.13,0,0,0,0,0,0,0,0,0,0,0,0,0-.04,0-.15-.01,0,0,.06,0,.13,0,.19,0,.14,0,.27,0,.41.01.28,0,.55,0,.83,0,.6-.01,1.2-.04,1.79-.09,1.33-.11,2.65-.3,3.96-.53.1-.02.2-.04.3-.06.04-.03.08-.06.11-.09-1.48-1.08-3.36-1.48-4.94-2.41Z"/>
    <polygon class="cls-19" points="238.54 428.58 238.54 428.58 238.54 428.58 238.54 428.58"/>
    <path class="cls-19" d="m257.87,458.02s-.02-.03-.03-.06c0,0,.02.04.03.06Z"/>
    <path class="cls-19" d="m265.25,467.63s.03,0,0,0c0,0-.02,0-.02,0,0,0,.01,0,.02,0Z"/>
    <path class="cls-2" d="m251.46,428.5c.14-.37-.19-.75-.48-1.01-4.56-4.13-4.75-4.22-5.01-4.83-1.78.49-3.65.75-5.46.44-1.97-.34-3.73-1.47-4.95-3.04-.56-.72-.8-1.65-.57-2.55.22-.86.74-1.61,1.32-2.28.09-.11.19-.22.29-.32-.45.3-.92.58-1.42.83-.46.23-.93.43-1.45.52-.25.04-.49.03-.74.02-.07,0-.14,0-.21-.01,0,0,0,0,0,0-.02,0-.04,0-.05,0-.11,0-.22,0-.32,0-.06,0-.12.01-.18.02,0,0,0,0,0,0-.02,0-.03.01-.04.01-.03,0-.05.02-.08.03-.06.04-.13.08-.19.13,0,0-.03.03-.05.04-.01,0-.02.02-.02.02-.05.06-.1.12-.15.18,0,0,0,0,0,0,0,0,0,0,0,0,.04.07.06.13.07.21,0,.02,0,.03.01.05.04.31.1.62.16.93,0,.05.02.1.03.15,0,.01,0,.03,0,.04,0,.06.03.13.04.18.03.14.06.27.1.4.07.3.16.6.25.89.17.56.37,1.11.61,1.64.06.14.12.28.19.41.02.05.05.1.08.16.02.04.14.26.04.08.14.25.27.5.41.74.28.47.59.92.92,1.35.16.21.33.41.51.61.03.03.06.06.09.1,0,0,0,0-.01-.01,0,0,0,0,0,0-.03-.03-.1-.12,0,0,.04.05.09.09.13.14.09.09.18.19.28.28.38.38.79.73,1.21,1.05.21.16.42.31.64.46.06.04.13.08.19.13.13.08.03.02,0,0,0,0,0,0,0,0,0,0,0,0-.01,0,.03.02.06.04.08.05.08.05.16.1.24.15.09.02.17.07.24.14.43.24.86.46,1.31.66.26.12.53.22.8.33.14.05.29.1.43.15.06.02.11.04.17.06.03.01.07.02.1.03.57.18,1.14.32,1.72.44.61.13,1.22.22,1.84.29.33.04.65.07.98.09.09,0,.17.01.26.02.03,0,.07,0,.1,0,0,0,0,0,.01,0,.16,0,.32.01.49.02,1.4.04,2.8-.04,4.2-.2.17-.02.35-.04.52-.07.18-.06.32-.16.39-.35Z"/>
    <path class="cls-19" d="m238.34,421.04s0,0,0,0c.02.01.05.03.04.02,0,0-.01,0-.02,0,0,0-.02-.01-.03-.02Z"/>
    <path class="cls-19" d="m238.29,421.01s.03.02.05.03c0,0,0,0,0,0-.01,0-.02-.01-.04-.02Z"/>
    <path class="cls-19" d="m265.21,467.64s0,0,.02,0c0,0-.01,0-.02,0,0,0,0,0,0,0Z"/>
    <path class="cls-19" d="m236.25,418.99s.03.05.03.05c-.01-.03-.03-.05-.05-.07,0,0,0,.02.01.03Z"/>
    <path class="cls-2" d="m246.56,420.93c.16-.23.03-.54-.13-.77-1.15-1.6-3.02-1.69-3.79-3.67-.1-.25-.15-.44-.2-.61-.03-.01-.06-.03-.1-.04-1.11-.48-2.2-1.27-2.71-2.35-.31.34-.65.65-.97.97-.63.61-1.26,1.22-1.8,1.91-.13.16-.24.34-.36.51.13-.17,0,0-.02.04-.02.04-.05.08-.07.12-.04.08-.09.16-.13.25-.04.09-.08.18-.11.27,0,.01-.02.05-.03.07,0,.02-.01.05-.02.06-.02.09-.04.18-.06.28,0,.04-.01.08-.01.12,0,.01,0,.02,0,.04,0,.09,0,.17,0,.26,0,.04,0,.08.01.12,0,.01,0,.03,0,.04.02.09.05.17.08.26.01.04.03.08.05.12,0,.01.01.03.02.04.03.05.05.07.05.08.04.06.07.13.11.19.06.09.13.18.2.26.04.05.08.1.12.14.03.04.19.2.04.05.08.08.16.17.24.25.33.33.68.64,1.05.91.09.07.19.13.28.19.03.02.05.03.05.03.04.03.09.05.13.08.19.11.39.22.6.31.2.09.41.17.62.25.03.01.06.02.09.03.04.01.08.03.12.04.11.03.22.06.34.09.23.05.46.1.69.13.13.02.25.03.38.05.06,0,.13.01.19.02.03,0,.1,0,.12,0,.52,0,1.03,0,1.54-.05.29-.03.58-.07.88-.12.16-.03.32-.06.48-.09,0,0,.02,0,.03,0,.04,0,.07-.02.11-.02.07-.01.14-.03.21-.05.38-.09.76-.19,1.13-.3.05-.08.12-.15.2-.21.12-.09.26-.15.34-.28Z"/>
    <path class="cls-19" d="m265.07,467.65s.03,0,0,0c-.01,0-.03,0-.03,0,0,0,.02,0,.03,0Z"/>
    <path class="cls-2" d="m266.57,465.73c-.15-.5-.53-.93-.6-1.45-.07-.56.24-1.1.69-1.45-1.15-.03-2.29-.12-3.42-.29-.03,0-.07-.01-.1-.02.06.47.12.95.19,1.42.02.15.05.29.08.44,0,0,0,.04.01.07,0,.02.01.05.01.06.02.08.03.15.05.23.07.29.15.59.25.87.08.25.18.5.29.74.03.07.07.14.1.21,0,0,0,0,0,0,.01.02.02.04.03.06.06.11.13.23.19.34.07.12.15.23.23.34.02.03.04.05.06.08,0,0,.02.03.03.04,0,0,0,0,0,0,.02.02.05.05.07.07.03.03.06.05.09.07,0,0,0,0,0,0,0,0,.05.03.09.04.01,0,.03,0,.04.01.01,0,.03,0,.04,0,.01,0,.03,0,.04,0,0,0,.03,0,.04,0,.04,0,.09,0,.1,0,.01,0,.03,0,.04,0,0,0,.03,0,.04-.01.07-.02.21-.07.23-.07.04-.02.08-.04.13-.06.02-.01.04-.02.05-.03.09-.05.17-.11.25-.17.09-.06.17-.13.25-.2.04-.03.08-.07.12-.1,0,0,0,0,0,0,0,0,.01-.01.03-.02.05-.05.1-.09.15-.14.16-.34.21-.73.1-1.1Z"/>
    <path class="cls-19" d="m265.87,461.64s0,0,0,0c0,0-.02,0-.03,0,0,0,.01,0,.02,0Z"/>
    <path class="cls-19" d="m264.93,467.62s0,0,0,0c0,0,0,0-.01,0-.03,0-.05,0,0,0Z"/>
    <path class="cls-19" d="m264.97,467.63s0,0,0,0c0,0-.02,0-.02,0,.01,0,.03.01.03,0Z"/>
    <path class="cls-19" d="m265.03,467.64s0,0,.01,0c0,0,0,0,0,0,0,0,0,0,0,0Z"/>
    <path class="cls-19" d="m236.22,418.94s0,.01.01.02c0,0,0,0,0,0,0,0,0,0-.01-.01Z"/>
    <path class="cls-19" d="m265.92,461.64s-.02,0-.03,0c0,0-.01,0-.02,0,.02,0,.03,0,.05,0Z"/>
    <path class="cls-2" d="m250.18,431.75c-.35-.38-.7-.79-.82-1.3-.02-.08-.03-.17-.04-.25-1.44.11-2.88.11-4.32,0-2.22-.18-4.45-.69-6.47-1.66,0,.01,0,.03,0,.04.05.09.03.08.01.03,0,.02,0,.05.01.07.03.13.06.26.09.39.07.29.15.57.23.86.16.52.34,1.04.56,1.54.06.13.11.25.17.38.02.05.05.09.07.14,0,.01.01.03.02.04-.02-.04-.05-.1.01.02.12.22.24.45.37.66.25.41.53.81.84,1.18.07.09.16.17.23.26-.13-.17,0-.01.03.03.04.04.08.08.12.12.17.17.34.33.52.49.17.15.35.29.53.43.1.07.2.15.3.22.05.03.09.06.14.1.05.03.22.12.04.03.2.1.39.24.59.35.2.11.41.21.63.31.22.1.45.2.68.28.12.05.25.09.37.13.05.02.1.03.15.05.02,0,.04.01.06.02,1.01.31,2.07.49,3.12.59.15.01.3.03.45.04.07,0,.14,0,.21.01.16,0,.04,0,0,0,0,0,0,0,0,0,0,0,0,0,0,0,.04,0,.07,0,.11,0,.29.01.58.02.87.02.62,0,1.24-.01,1.86-.05,1.36-.08,2.72-.25,4.07-.47.08-.01.16-.03.24-.04.09-.05.18-.1.26-.15-2.37-1.26-4.52-2.92-6.33-4.9Z"/>
    <path class="cls-2" d="m263.85,454.02c-.64.06-1.28.1-1.93.11-1.59.04-3.19-.05-4.75-.37-.01.09-.02.18-.03.27,0,.07-.01.14-.02.22,0,.03,0,.06,0,.09,0,.17,0,.35,0,.52,0,.4.04.8.11,1.19,0,.06.02.12.03.18,0,.05.06.23,0,.05.03.1.05.2.07.3.06.23.13.46.21.69.08.23.18.46.29.68,0,.02.02.04.03.05,0,.01,0,.02.01.03,0,0,0,.01,0,0,.03.06.06.12.1.18.06.11.12.21.19.31.15.24.32.47.5.69.05.06.1.12.16.19,0,0,0,0,.01.01.02.02.03.04.05.05.11.11.22.22.33.33.1.09.2.18.31.26.06.04.12.09.18.13.02.02.05.03.07.05.25.15.5.28.77.4.15.06.3.12.45.18.08.03.16.06.24.08.04.01.07.02.11.04,0,0,.01,0,.02,0,.34.1.68.19,1.02.27.77.17,1.56.28,2.35.36.21.02.43.04.64.05.11,0,.22.02.33.02.05,0,.1,0,.15,0,0,0,0,0,.01,0-.03,0-.05,0,.04,0,.44.02.88.03,1.32.04.9,0,1.8-.01,2.7-.06.85-.05,1.7-.12,2.55-.21-3.52-1.67-7.35-3.73-8.6-7.39Z"/>
    <path class="cls-19" d="m239.72,432.05s.01.02.02.04c0,0,0-.01-.01-.02,0,0,0,0,0,0,0,0,0,0,0,0Z"/>
    <path d="m261.42,427.18s0,0,0,0c0,0-.01-.02-.02-.03,0,.01.01.03.02.04Z"/>
    <path d="m259.83,428.31s0,0,0,0c-.06-.02-.13-.02,0,0Z"/>
    <path d="m259.46,428.25s-.02,0-.04,0c0,0,0,0-.01,0,.09.03.09,0,.05,0Z"/>
    <path d="m259.95,428.37s0,0,0,0c0,0-.01,0-.02,0,.03.03.05.04.06.04-.01-.01-.02-.02-.04-.03Z"/>
    <path d="m235.14,424.63s0,0,0,0c-.11-.12-.03-.04,0,0Z"/>
    <path d="m237.59,426.69s0,0,0,0c.03.02.13.08,0,0Z"/>
    <path d="m265.37,436.2s0,0,0,0c0,0-.01,0-.02,0,.03.03.05.04.06.04-.01-.01-.02-.02-.04-.03Z"/>
    <path d="m264.88,436.08s-.02,0-.04,0c0,0,0,0-.01,0,.09.03.09,0,.05,0Z"/>
    <path d="m265.24,436.15s0,0,0,0c-.06-.02-.13-.02,0,0Z"/>
    <path d="m238.54,428.58s0,0,0,0c0,0,0,.02.01.03.02.04.04.06-.01-.03Z"/>
    <path d="m249.1,437.35s0,0,0,0c.04,0,.16,0,0,0Z"/>
    <path d="m239.71,432.04s0,0,0,0c0,0,0,0,0,0,0,0,0,0,0,0-.06-.12-.03-.06-.01-.02Z"/>
    <path d="m270.64,443.95s0,0,0,0c-.06-.02-.13-.02,0,0Z"/>
    <path d="m270.77,444.01s0,0,0,0c0,0-.01,0-.02,0,.03.03.05.04.06.04-.01-.01-.02-.02-.04-.03Z"/>
    <path d="m248.5,443.62s.01,0,.02.01c.04.02.12.07-.02-.01Z"/>
    <path d="m254.3,445.26s0,0,0,0c-.16-.01-.04,0,0,0Z"/>
    <path d="m275.7,451.69s0,0,0,0c-.02,0-.05,0-.08,0,0,0,.02.01.08,0Z"/>
    <path d="m276.07,451.77s0,0,0,0c-.02,0-.04-.01-.05-.02,0,0,0,0-.01,0,.06.03.08.03.08.03Z"/>
    <path d="m276.16,451.82s0,0,0,0c0,0-.01,0-.02,0,.03.03.05.04.06.04-.01-.01-.02-.02-.04-.03Z"/>
    <path d="m252.09,449.76s.01.01.02.02c0,0,0,0,.01.01.03.03.08.07-.03-.03Z"/>
    <path d="m243.83,409.6s0,0,0,0c-.01,0-.04-.02-.06-.03,0,.01.04.03.06.03Z"/>
    <path d="m253.11,420.9s-.04-.02-.06-.03c0,0,0,0-.01,0,.08.04.09.04.08.03Z"/>
    <path d="m236.23,418.96s0,0,0,0c.02.02.03.05.05.07,0,0-.01-.03-.05-.08Z"/>
    <path d="m238.34,421.04s.02.01.03.02c0,0,.01,0,.02,0,0,0-.02-.01-.05-.03,0,0,0,0,0,0Z"/>
    <path class="cls-23" d="m281.51,458.9c-.08-.29-.28-.53-.5-.72-.51-.45-1.2-.73-1.83-.97-.74-.28-1.49-.51-2.24-.72.32-.57.62-1.15.93-1.73.44-.8.86-1.63,1.03-2.54.17-.91.05-1.93-.59-2.64-.53-.58-1.29-.84-2.05-.91-.79-.08-1.58-.01-2.36.03-.39.02-.78.04-1.17.02,0,0-.03,0-.05,0,0,0,0,0-.01,0-.05,0-.09,0-.14,0-.11,0-.21-.02-.32-.03-.19-.02-.38-.05-.57-.08-.02,0-.04,0-.06-.01.3-.54.59-1.09.88-1.64.44-.8.86-1.63,1.03-2.54.17-.91.05-1.93-.59-2.64-.53-.58-1.29-.84-2.05-.91-.79-.08-1.58-.01-2.36.03-.39.02-.78.04-1.17.02,0,0-.03,0-.05,0,0,0,0,0-.01,0-.05,0-.09,0-.14,0-.11,0-.21-.02-.32-.03-.19-.02-.38-.05-.57-.08-.02,0-.04,0-.06-.01.3-.54.59-1.09.88-1.64.44-.8.86-1.63,1.03-2.54.17-.91.05-1.93-.59-2.64-.53-.58-1.29-.84-2.05-.91-.79-.08-1.58-.01-2.36.03-.39.02-.78.04-1.17.02,0,0-.03,0-.05,0,0,0,0,0-.01,0-.05,0-.09,0-.14,0-.11,0-.21-.02-.32-.03-.19-.02-.38-.05-.57-.08-.04,0-.08-.02-.12-.02.14-.26.29-.52.43-.78.43-.77.89-1.54,1.21-2.37.35-.91.54-1.94.2-2.88-.32-.88-1.07-1.41-1.95-1.62-.78-.19-1.61-.14-2.4-.1-.4.02-.79.05-1.19.06-.11,0-.22,0-.33,0-.05,0-.09,0-.14,0-.02,0-.05,0-.07,0,0,0-.01,0-.02,0-.2-.01-.4-.03-.6-.06-.22-.03-.44-.07-.66-.11.87-1.34,1.72-2.77,1.92-4.38.11-.88,0-1.77-.43-2.55-.44-.78-1.23-1.32-2.05-1.62-1.78-.67-3.71-.47-5.57-.55-.06,0-.12,0-.18,0-.02,0-.05,0-.07,0-.12,0-.25-.02-.37-.02-.23-.02-.46-.04-.68-.06-.46-.05-.92-.11-1.37-.18-.28-.05-.56-.1-.83-.15.03-.07.06-.13.08-.2.29-.71.51-1.45.61-2.21.11-.86.1-1.77-.23-2.59-.31-.77-.83-1.48-1.53-1.93-.79-.51-1.72-.68-2.62-.38-1.01.34-1.74,1.19-2.36,2.01-.31.41-.6.84-.92,1.24-.34.42-.71.82-1.1,1.2-.05.04-.09.09-.14.13,0,0,0,0,0,0-.02.02-.04.04-.06.05-.1.09-.2.18-.31.27-.21.17-.42.34-.64.5-.44.32-.9.61-1.38.87-.06.03-.11.06-.17.09,0,0-.01,0-.02.01-.03.01-.05.03-.08.04-.12.06-.24.11-.35.17-.11.05-.22.09-.33.13-.06.02-.11.04-.17.06-.03,0-.06.02-.1.03,0,0-.06.01-.08.02,0,0-.01,0-.02,0-.03,0-.07.01-.1.01-.06,0-.11.01-.17.01-.01,0-.02,0-.04,0-.04,0-.08,0-.13,0-.03,0-.06,0-.09,0,0,0-.05,0-.07,0,0,0-.01,0-.01,0-.03,0-.06,0-.09,0-.06,0-.12,0-.18,0-.03,0-.06,0-.08,0-.12,0-.25,0-.37,0-.44.03-.85.19-1.18.48-.35.31-.65.7-.65,1.19,0,.16.05.31.13.44.36,2.37,1.13,4.68,2.47,6.67,1.08,1.6,2.51,2.94,4.15,3.95.34,2.16,1,4.31,2.27,6.11.86,1.22,1.98,2.21,3.26,2.94.58,2.01,1.42,4,2.76,5.62.83,1,1.84,1.84,2.97,2.46.43,1.88,1.18,3.72,2.42,5.22,1.19,1.44,2.75,2.49,4.51,3.1.21.07.41.14.62.2-.02.13-.03.26-.04.4-.07.78-.06,1.56.08,2.33.18,1.06.55,2.08,1.14,2.99.52.81,1.19,1.54,2.01,2.05.57.36,1.19.6,1.83.8.29.09.59.17.88.24.13,1.14.27,2.29.6,3.39.17.58.4,1.13.69,1.66.28.52.65,1.1,1.22,1.33,1.05.44,2.05-.28,2.79-.96.76-.71,1.46-1.5,2.11-2.31.7-.87,1.36-1.77,1.98-2.7.9-.08,1.8-.18,2.7-.31,1.55-.23,3.1-.52,4.6-.99.52-.17,1.04-.35,1.54-.6.42-.21.87-.46,1.15-.85.22-.31.31-.66.21-1.03Zm-1.22.21s0,0,0,0h0Zm-2.81-8.72s0,0,0,0c0,0,0,0,0,0Zm-.66-.43s-.07-.02-.07-.02c0,0,.03,0,.07.02Zm-3.95-.08c.77.03,1.53-.06,2.3-.08.18,0,.36,0,.54,0,.05,0,.1,0,.15,0,.01,0,.03,0,.05,0,.08,0,.16.01.24.02.17.02.34.05.51.09.04,0,.07.02.11.03.02,0,.04.01.05.02,0,0,.01,0,.02,0,.07.03.16.07.17.08.07.03.13.07.2.1,0,0,0,0,0,0,0,0,0,0,0,0,.03.03.07.05.1.08.02.01.12.12.16.15,0,.01.02.02.03.03.04.05.07.09.1.14,0,0,.01.02.02.03,0,.03.05.09.05.11.04.1.07.2.1.3,0,0,0,.01,0,.02,0,0,0,0,0,.01,0,.05.01.09.02.14.01.1.02.2.02.31,0,.06,0,.11,0,.17,0-.1,0,0,0,.04,0,.11-.02.21-.04.32-.02.1-.04.21-.07.31-.01.05-.03.09-.04.14,0,.02-.01.04-.02.07,0,0,0,0,0,0-.15.41-.32.81-.52,1.21-.34.66-.71,1.3-1.05,1.96-.09.17-.18.33-.27.49-.47-.13-.95-.25-1.42-.38-.15-.04-.3-.08-.45-.13-.06-.02-.12-.04-.19-.06.2.06.02,0-.06-.02-.29-.1-.58-.23-.85-.38-.06-.03-.12-.07-.18-.11-.02-.01-.1-.07-.12-.08-.13-.09-.26-.19-.38-.3-.1-.09-.21-.18-.3-.28-.04-.04-.08-.08-.12-.12,0,0-.01-.02-.02-.02-.03-.03-.05-.06-.08-.09-.16-.2-.31-.4-.44-.62-.06-.09-.11-.19-.16-.28-.02-.04-.04-.09-.07-.13.1.19,0,0-.02-.05-.04-.09-.08-.18-.12-.28.42-.1.84-.2,1.25-.32.49-.15.98-.31,1.47-.45.27-.08.54-.15.81-.21.07-.02.14-.03.2-.04-.18.05.01,0,.05,0,.14-.03.28-.05.42-.07.11-.01.23-.03.34-.03.06,0,.12,0,.18,0,.02,0,.05,0,.08,0,0,0,.02,0,.05,0,0,0,.02,0,.03,0,0,0,0,0,.01,0,0,0,0,0,0,0,.02,0,.03,0,.05,0,.05,0,.1.01.15.02.03,0,.06.01.09.02,0,0-.01,0-.02-.01.01,0,.02,0,.03.01,0,0,.01,0,.02,0,.02,0,.04.01.05.02.02.01.05.02.07.04,0,0-.02-.02-.03-.03.02.01.03.02.05.04,0,0,0,0,.01,0,.03.01.05.04.03.03.01,0,.02.02.03.03,0,0,.01.02.02.03.18.25.56.34.81.15.25-.19.34-.55.15-.81-.63-.89-1.9-.78-2.84-.58-1.04.21-2.04.58-3.06.87-.42.12-.86.22-1.29.31-.06,0-.11.01-.16.03,0,0,0,0-.01,0-.2.04-.4.09-.6.13-.05.01-.1.02-.15.03-.01,0-.02,0-.03,0,0,0-.01,0-.02,0-.08.02-.16.03-.24.05-.21.04-.41.08-.62.12-.35.07-.71.13-1.07.19-.2.03-.4.07-.59.1-1.14.18-2.29.32-3.45.4-.62.04-1.25.07-1.87.07-.28,0-.57,0-.85-.01-.13,0-.26,0-.39-.02-.03,0-.07,0-.1,0-.08,0-.16-.01-.25-.02-1.02-.08-2.04-.23-3.03-.5-.11-.03-.22-.06-.32-.09-.06-.02-.12-.04-.17-.05.19.06,0,0-.06-.02-.22-.07-.44-.16-.66-.24-.41-.17-.82-.36-1.21-.58-.09-.05-.18-.1-.26-.16-.04-.03-.21-.15-.04-.02-.05-.04-.11-.07-.16-.11-.18-.12-.35-.24-.51-.37-.34-.26-.66-.55-.96-.86-.04-.04-.08-.08-.11-.12,0,0,0,0-.01-.01,0,0,0,0-.01-.01,0,0,0,0,0,0,0-.01-.02-.02-.03-.03,0,0,0,0,.01.01-.07-.08-.13-.15-.2-.23-.14-.17-.27-.34-.4-.52-.27-.37-.51-.76-.72-1.16-.02-.04-.04-.08-.07-.12,0-.02-.02-.04-.03-.05-.05-.11-.11-.22-.16-.33-.1-.22-.2-.45-.29-.68-.14-.36-.26-.72-.37-1.08.07.03.14.05.21.08,2.04.71,4.22.86,6.36.78.86-.03,1.72-.11,2.58-.21,1.88-.22,3.74-.59,5.58-1,.07-.02.14-.03.21-.05.62.86,1.31,1.66,2.11,2.36,1.06.92,2.28,1.61,3.63,2,.76.22,1.54.33,2.33.35Zm-4.05-2.39s-.02-.01-.03-.02c-.08-.05.01,0,.03.02Zm3.27-4.91s0,0,0,0c0,0,0,0,0,0Zm-.66-.43s-.07-.02-.07-.02c0,0,.03,0,.07.02Zm-3.95-.08c.77.03,1.53-.06,2.3-.08.18,0,.36,0,.54,0,.05,0,.1,0,.15,0,.01,0,.03,0,.05,0,.08,0,.16.01.24.02.17.02.34.05.51.09.04,0,.07.02.11.03.02,0,.04.01.05.02,0,0,.01,0,.02,0,.07.03.16.07.17.08.07.03.13.07.2.1,0,0,0,0,0,0,0,0,0,0,0,0,.03.03.07.05.1.08.02.01.12.12.16.15,0,.01.02.02.03.03.04.05.07.09.1.14,0,0,.01.02.02.03,0,.03.05.09.05.11.04.1.07.2.1.3,0,0,0,.01,0,.02,0,0,0,0,0,.01,0,.05.01.09.02.14.01.1.02.2.02.31,0,.06,0,.11,0,.17,0-.1,0,0,0,.04,0,.11-.02.21-.04.32-.02.1-.04.21-.07.31-.01.05-.03.09-.04.14,0,.02-.01.04-.02.07,0,0,0,0,0,0-.15.41-.32.81-.52,1.21-.34.66-.71,1.3-1.05,1.96-.07.14-.15.28-.23.42-.24-.09-.49-.2-.72-.3-.3-.14-.59-.3-.88-.47,0,0-.01,0-.02-.01-.01-.02-.07-.05-.09-.06-.07-.05-.14-.1-.22-.15-.13-.09-.26-.19-.38-.28-.49-.38-.93-.8-1.35-1.25,0,0,0,0,0,0-.02-.02-.03-.03-.05-.05-.05-.06-.1-.12-.15-.17-.09-.11-.18-.21-.27-.32-.09-.11-.17-.21-.25-.32.15-.04.3-.08.46-.13.5-.15,1-.31,1.5-.46.28-.08.56-.16.85-.23.06-.01.12-.03.19-.04.03,0,.05-.01.08-.02.14-.03.28-.05.42-.07.24-.03.48-.05.73-.05.02,0,.03,0,.05,0,.05,0,.1.01.16.02.05,0,.1.02.15.03.02,0,.05.02.07.02-.01,0-.02,0-.03,0,.03.01.07.03.1.05,0,0-.02-.02-.03-.03.01.01.03.02.05.03,0,0,0,0,0,0,.03.01.05.04.04.03.01,0,.02.02.03.03,0,0,.01.02.02.03.18.25.56.34.81.15.25-.19.34-.55.15-.81-.68-.96-2.06-.75-3.06-.54-1.02.22-2,.61-3.01.86-.74.19-1.49.35-2.23.51-.08.02-.15.03-.23.05,0,0-.01,0-.02,0,0,0,0,0-.02,0-.05,0-.09.02-.14.03-.19.04-.39.08-.58.12-.25.05-.5.09-.75.14-.1.02-.2.04-.3.06-1.31.23-2.63.42-3.96.53-.6.05-1.19.08-1.79.09-.28,0-.55,0-.83,0-.14,0-.27,0-.41-.01-.06,0-.13,0-.19,0,0,0,0,0,0,0-.04,0-.09,0-.13,0-.99-.06-1.98-.2-2.95-.46-.11-.03-.22-.06-.33-.09-.05-.01-.1-.03-.15-.04-.03-.01-.06-.02-.09-.03-.21-.07-.42-.15-.63-.23-.41-.17-.82-.36-1.2-.58-.09-.05-.19-.11-.28-.17-.02-.01-.05-.03-.07-.04,0,0,0,0,.01,0-.04-.03-.08-.05-.12-.08-.18-.12-.36-.25-.53-.39-.35-.27-.68-.57-.98-.89-.04-.04-.08-.08-.11-.12,0,0,0,0,0,0,0,0,0,0,0,0-.08-.09-.16-.18-.24-.27-.15-.18-.3-.37-.44-.56-.28-.38-.53-.78-.76-1.2-.06-.11-.12-.22-.18-.33-.01-.02-.02-.05-.04-.07-.03-.06-.06-.12-.09-.18-.11-.23-.22-.47-.32-.71-.18-.41-.34-.83-.48-1.26,2.08.8,4.34,1.02,6.56.99.95-.01,1.9-.08,2.84-.18,1.86-.2,3.72-.54,5.54-.94.09-.02.17-.04.26-.06.62.86,1.31,1.66,2.11,2.36,1.06.92,2.28,1.61,3.63,2,.76.22,1.54.33,2.33.35Zm-4.05-2.39s-.02-.01-.03-.02c-.08-.05.01,0,.03.02Zm3.27-4.91s0,0,0,0c0,0,0,0,0,0Zm-.66-.43s-.07-.02-.07-.02c0,0,.03,0,.07.02Zm-3.95-.08c.77.03,1.53-.06,2.3-.08.18,0,.36,0,.54,0,.05,0,.1,0,.15,0,.01,0,.03,0,.05,0,.08,0,.16.01.24.02.17.02.34.05.51.09.04,0,.07.02.11.03.02,0,.04.01.05.02,0,0,.01,0,.02,0,.07.03.16.07.17.08.07.03.13.07.2.1,0,0,0,0,0,0,0,0,0,0,0,0,.03.03.07.05.1.08.02.01.12.12.16.15,0,.01.02.02.03.03.04.05.07.09.1.14,0,0,.01.02.02.03,0,.03.05.09.05.11.04.1.07.2.1.3,0,0,0,.01,0,.02,0,0,0,0,0,.01,0,.05.01.09.02.14.01.1.02.2.02.31,0,.06,0,.11,0,.17,0-.1,0,0,0,.04,0,.11-.02.21-.04.32-.02.1-.04.21-.07.31-.01.05-.03.09-.04.14,0,.02-.01.04-.02.07,0,0,0,0,0,0-.15.41-.32.81-.52,1.21-.34.66-.71,1.3-1.05,1.96-.07.14-.15.28-.23.42-.24-.09-.49-.2-.72-.3-.3-.14-.59-.3-.88-.47,0,0-.01,0-.02-.01-.01-.02-.07-.05-.09-.06-.07-.05-.14-.1-.22-.15-.13-.09-.26-.19-.38-.28-.49-.38-.93-.8-1.35-1.25,0,0,0,0,0,0-.02-.02-.03-.03-.05-.05-.05-.06-.1-.12-.15-.17-.09-.11-.18-.21-.27-.32-.09-.11-.17-.21-.25-.32.15-.04.3-.08.46-.13.5-.15,1-.31,1.5-.46.27-.08.54-.16.81-.22.07-.02.14-.03.2-.05.03,0,.06-.01.09-.02.14-.03.28-.05.42-.07.23-.03.47-.05.71-.05,0,0,0,0-.01,0,0,0,.02,0,.03,0,0,0,0,0,0,0,.01,0,.02,0,.03,0,0,0,.01,0,.02,0,.05,0,.1.01.16.02.05,0,.1.02.15.03.02,0,.05.02.07.02-.01,0-.02,0-.03,0,.03.01.07.03.1.05,0,0-.02-.02-.03-.03.01.01.03.02.05.03,0,0,0,0,0,0,.03.01.05.04.04.03.01,0,.02.02.03.03,0,0,.01.02.02.03.18.25.56.34.81.15.25-.19.34-.55.15-.81-.68-.96-2.06-.75-3.06-.54-1.02.22-2,.61-3.01.86-.37.09-.74.18-1.12.26-.17.04-.34.08-.52.11-.09.02-.19.04-.28.06-.05,0-.09.02-.14.03-.02,0-.04,0-.06.01,0,0-.01,0-.02,0-.65.13-1.31.26-1.96.37-.08.01-.16.03-.24.04-1.35.22-2.71.39-4.07.47-.62.04-1.24.06-1.86.05-.29,0-.58,0-.87-.02-.04,0-.07,0-.11,0,0,0,0,0,0,0-.07,0-.14,0-.21-.01-.15-.01-.3-.02-.45-.04-1.06-.1-2.11-.28-3.12-.59-.02,0-.04-.01-.06-.02-.05-.02-.1-.03-.15-.05-.12-.04-.25-.09-.37-.13-.23-.09-.46-.18-.68-.28-.21-.1-.42-.2-.63-.31-.2-.11-.39-.24-.59-.35.18.09,0,0-.04-.03-.05-.03-.09-.06-.14-.1-.1-.07-.2-.14-.3-.22-.18-.14-.36-.28-.53-.43-.18-.16-.35-.32-.52-.49-.04-.04-.08-.08-.12-.12-.04-.04-.16-.2-.03-.03-.07-.09-.15-.17-.23-.26-.31-.37-.59-.76-.84-1.18-.13-.22-.26-.44-.37-.66,0,0,0,.01.01.02,0-.01-.01-.02-.02-.04,0,0,0,0,0,0,0-.01-.01-.03-.02-.04-.02-.05-.05-.09-.07-.14-.06-.12-.12-.25-.17-.38-.22-.5-.41-1.02-.56-1.54-.09-.28-.16-.57-.23-.86-.03-.13-.06-.26-.09-.39,0-.02,0-.05-.01-.07,0-.01,0-.02-.01-.03,0,0,0,0,0,0,0,0,0,0,0,0,0,0,0,0,0,0,0-.01,0-.03,0-.04,2.02.97,4.25,1.48,6.47,1.66,1.44.12,2.88.11,4.32,0,1.44-.11,2.88-.32,4.3-.61.12-.02.24-.05.36-.07.62.87,1.33,1.69,2.13,2.39,1.06.92,2.28,1.61,3.63,2,.76.22,1.54.33,2.33.35Zm-4.05-2.39s-.02-.01-.03-.02c-.08-.05.01,0,.03.02Zm2.56-5.38s-.04-.01-.04-.01c0,0,.02,0,.04.01Zm-5.88-.32c.82.2,1.67.28,2.51.26.78-.02,1.57-.11,2.35-.09.04,0,.1.01.14,0,0,0,.01,0,.02,0,.09,0,.19.02.28.03.17.02.35.05.52.1.02,0,.04.01.05.02,0,0,0,0,0,0,.03.01.06.02.07.03.08.03.16.07.24.11.03.01.05.03.08.05.01,0,.02.01.03.02.08.06.15.11.22.18,0,0,.02.02.02.02.02.02.07.09.08.09.03.04.06.08.08.13,0,0,0,.01.01.02,0-.02-.01-.03.02.03,0,0,0,0,0,0,0,0,0,0,0,0,0,0,0,0,0,0,.04.09.07.18.1.27,0,.03.04.1.03.13,0,0-.02-.1,0-.04,0,.04.01.08.02.11.01.1.02.2.03.3,0,.05,0,.1,0,.14,0,.02,0,.05,0,.07,0-.12,0,0,0,.02-.02.22-.06.44-.11.65-.01.05-.03.09-.04.14,0,.02-.01.05-.02.07,0,0,0,0,0,0-.04.11-.08.22-.12.33-.08.21-.18.42-.28.63-.2.41-.43.82-.65,1.22-.26.47-.53.95-.79,1.42-.23-.08-.45-.18-.67-.28-.3-.14-.59-.3-.88-.47,0,0-.01,0-.02-.01-.01-.02-.07-.05-.09-.06-.07-.05-.14-.1-.22-.15-.13-.09-.26-.19-.38-.28-.49-.38-.93-.8-1.35-1.25,0,0,0,0,0,0-.02-.02-.03-.03-.05-.05-.05-.06-.1-.12-.15-.17-.09-.11-.18-.21-.27-.32-.09-.11-.18-.23-.27-.35.15-.04.31-.08.46-.13.5-.15,1-.31,1.5-.46.27-.08.54-.16.81-.22.07-.02.14-.03.2-.05.03,0,.06-.01.09-.02.14-.03.28-.05.42-.07.23-.03.47-.05.71-.05,0,0,0,0-.01,0,0,0,.02,0,.03,0,0,0,0,0,0,0,.01,0,.02,0,.03,0,0,0,.01,0,.02,0,.05,0,.1.01.16.02.05,0,.1.02.15.03.02,0,.05.02.07.02-.01,0-.02,0-.03,0,.03.01.07.03.1.05,0,0-.02-.02-.03-.03.01.01.03.02.05.03,0,0,0,0,0,0,.03.01.05.04.04.03.01,0,.02.02.03.03,0,0,.01.02.02.03.18.25.56.34.81.15.25-.19.34-.55.15-.81-.68-.96-2.06-.75-3.06-.54-1.02.22-2,.61-3.01.86-.37.09-.74.18-1.12.26-.03,0-.06.01-.09.02,0,0-.08.02-.09.02-.08.02-.16.03-.24.05-.2.04-.41.08-.61.12-.57.1-1.14.19-1.72.27-.17.02-.35.05-.52.07-1.39.16-2.8.24-4.2.2-.16,0-.32-.01-.49-.02,0,0,0,0-.01,0-.03,0-.07,0-.1,0-.09,0-.17-.01-.26-.02-.33-.02-.65-.05-.98-.09-.62-.07-1.23-.17-1.84-.29-.58-.12-1.15-.27-1.72-.44-.03-.01-.07-.02-.1-.03-.06-.02-.11-.04-.17-.06-.14-.05-.29-.1-.43-.15-.27-.1-.54-.21-.8-.33-.45-.2-.89-.42-1.31-.66-.07-.06-.15-.11-.24-.14-.08-.05-.16-.1-.24-.15-.03-.02-.06-.04-.08-.05,0,0,0,0,.01,0-.06-.04-.13-.08-.19-.13-.22-.15-.43-.3-.64-.46-.43-.32-.83-.68-1.21-1.05-.09-.09-.19-.19-.28-.28-.04-.05-.09-.09-.13-.14,0,0,0,0,.01.01-.03-.03-.06-.07-.09-.1-.17-.2-.34-.4-.51-.61-.34-.43-.64-.88-.92-1.35-.15-.24-.28-.5-.41-.74.1.18-.02-.03-.04-.08-.03-.05-.05-.1-.08-.16-.06-.14-.13-.27-.19-.41-.23-.53-.44-1.08-.61-1.64-.09-.3-.17-.59-.25-.89-.03-.13-.07-.27-.1-.4-.01-.06-.03-.12-.04-.18,0-.01,0-.03,0-.04-.01-.05-.02-.1-.03-.15-.06-.31-.11-.62-.16-.93,0-.02,0-.03-.01-.05-.01-.07-.03-.14-.07-.21,0,0,0,0,0,0,0,0,0,0,0,0,.05-.06.09-.12.15-.18,0,0,.01-.01.02-.02.02-.02.04-.04.05-.04.06-.05.13-.08.19-.13.02-.01.05-.02.08-.03.01,0,.03,0,.04-.01,0,0,0,0,0,0,.06,0,.12-.02.18-.02.11,0,.22,0,.32,0,.02,0,.04,0,.05,0,0,0,0,0,0,0,.07,0,.14,0,.21.01.25.01.5.02.74-.02.51-.09.98-.29,1.45-.52.49-.25.96-.53,1.42-.83-.1.11-.2.21-.29.32-.58.67-1.09,1.41-1.32,2.28-.23.89.01,1.83.57,2.55,1.23,1.57,2.99,2.69,4.95,3.04,1.81.32,3.68.05,5.46-.44.64-.18,1.27-.38,1.88-.6.26-.09.52-.18.78-.27.64.88,1.36,1.7,2.19,2.4,1.13.95,2.44,1.65,3.88,2.01Zm1.26-6.73s-.01-.06-.01-.06c.01.04.02.06.01.06Zm-.49-1.02s-.04-.04-.04-.04c0,0,.02.02.04.04Zm-7.85-1.38c.95.1,1.9.13,2.85.13.46,0,.91,0,1.37.02.05,0,.1,0,.15,0,.03,0,.06,0,.09,0,.11,0,.22.02.34.03.22.02.44.05.66.08.21.03.43.08.64.13.06.01.11.03.17.05.02,0,.05.02.07.02.09.03.18.06.27.1.19.08.38.16.56.26.05.03.09.06.14.08-.09-.05-.01,0,.03.02.08.06.16.12.24.18.08.06.15.13.22.2.02.02.03.03.05.05,0,0,0,0,0,0,.03.03.06.07.06.08.06.08.12.16.17.24.01.02.04.09.06.11,0,.02.02.04.03.06.01.03.12.33.16.46,0,0,0,0,0,.02,0,.02,0,.04.01.06,0,.04.01.09.02.13.01.1.02.21.03.31,0,.09,0,.18,0,.27,0,.03,0,.06,0,.09,0,0,0,.1,0,.13-.02.2-.05.4-.09.6-.02.09-.04.19-.07.28-.01.05-.03.09-.04.14,0,.02-.04.12-.04.13-.07.19-.14.38-.22.57-.17.41-.38.81-.6,1.2-.11.2-.23.39-.35.59-.06.09-.11.18-.17.27-.02.03-.04.06-.06.09,0,0,0,.01-.02.02,0,.01-.02.02-.02.03-.02.03-.04.06-.06.09-.08.12-.16.24-.23.36-.09-.04-.19-.07-.28-.11-.33-.14-.66-.3-.97-.49-.07-.04-.14-.08-.21-.13,0,0-.04-.03-.04-.03-.03-.02-.05-.03-.08-.05-.14-.09-.27-.19-.41-.29-.52-.39-1-.82-1.44-1.29-.03-.03-.05-.06-.08-.09-.05-.06-.1-.11-.15-.17-.1-.11-.2-.23-.29-.35-.1-.13-.2-.25-.3-.38.09-.03.18-.06.28-.09.31-.09.62-.18.94-.26.13-.03.25-.06.38-.09.02,0,.04,0,.05-.01.07-.01.14-.03.21-.04.21-.04.43-.07.64-.08.09,0,.18-.01.27-.01.04,0,.08,0,.12,0,0,0,0,0,0,0,0,0,0,0,0,0,.07,0,.14.02.21.03.04,0,.07.01.11.02,0,0,0,0,0,0,0,0-.02,0-.03-.01.01,0,.03.01.04.02.02,0,.05.02.06.03.02,0,.04.02.06.03.02,0,.03.02.05.03.03.03.07.05.1.08.01.02.03.04.04.05.18.25.56.34.81.15.25-.19.34-.54.15-.81-.44-.63-1.18-.8-1.91-.77-.48.01-.96.11-1.43.22-.61.14-1.21.32-1.81.51-1.05.34-2.08.73-3.13,1.04-.37.11-.75.21-1.13.3-.07.02-.14.03-.21.05-.04,0-.07.02-.11.02-.01,0-.02,0-.03,0-.16.03-.32.06-.48.09-.29.05-.58.09-.88.12-.51.05-1.02.06-1.54.05-.02,0-.1,0-.12,0-.07,0-.13-.01-.19-.02-.13-.01-.25-.03-.38-.05-.23-.03-.46-.08-.69-.13-.11-.03-.23-.06-.34-.09-.04-.01-.08-.02-.12-.04-.03-.01-.06-.02-.09-.03-.21-.07-.41-.15-.62-.25-.2-.09-.4-.2-.6-.31-.05-.03-.09-.05-.13-.08,0,0-.02-.01-.04-.02,0,0,0,0,0,0-.02-.01-.03-.02-.05-.03.02,0,.03.02.04.02-.09-.06-.19-.13-.28-.19-.38-.27-.73-.58-1.05-.91-.08-.08-.16-.17-.24-.25.15.15,0-.01-.04-.05-.04-.05-.08-.1-.12-.14-.07-.08-.14-.17-.2-.26-.04-.06-.08-.13-.11-.19,0,0-.02-.01-.03-.05,0,0,0-.02-.01-.03,0,0,0-.01-.01-.02,0,0,0,0,.01.01,0-.01-.01-.03-.02-.04-.02-.04-.03-.08-.05-.12-.03-.09-.06-.17-.08-.26,0-.01,0-.03,0-.04,0-.04-.01-.08-.01-.12,0-.09,0-.17,0-.26,0-.01,0-.02,0-.04,0-.04,0-.08.01-.12.01-.09.03-.19.06-.28,0,0,.01-.04.02-.06,0-.03.02-.06.03-.07.03-.09.07-.18.11-.27.04-.08.08-.17.13-.25.02-.04.05-.08.07-.12.03-.05.15-.21.02-.04.12-.17.23-.34.36-.51.54-.69,1.17-1.3,1.8-1.91.32-.31.66-.63.97-.97.51,1.08,1.6,1.87,2.71,2.35.03.01.06.03.1.04.64.27,1.3.47,1.97.63.01,0,.02.01.04.02.08.03.17.05.24.05.08.02.16.04.24.06.88.2,1.77.34,2.67.43Zm-5.62-7.59s-.03.02-.03.02c0,0,.02-.01.03-.02Zm-.72.53s.03-.03.05-.05c.03-.03.07-.06.1-.09.09-.08.19-.15.28-.22.09-.06.19-.12.28-.17,0,0,0,0,0,0,0,0,.02,0,.02,0,.06-.03.11-.05.17-.07.05-.02.1-.04.16-.05.02,0,.05-.01.07-.02,0,0,.03,0,.05-.01,0,0,0,0,.01,0,.03,0,.06-.01.1-.01.06,0,.11-.01.17-.02.04,0,.07,0,.11,0,0,0,.03,0,.05,0,.08.01.16.02.24.03.07.01.14.03.2.05.01,0,.02,0,.03.01.04.02.09.03.13.05.08.03.15.07.23.11,0,0,.02.01.03.02,0,0,0,0,.03,0,.01,0,.02.01.03.02,0,0,0,0,0,0,0,0,0,0,0,0,0,0,.02.01.03.02.14.1.27.21.4.33.03.03.06.06.09.09,0,0,0,0,.01.01.06.07.12.15.18.22.1.14.18.28.27.43,0,.01.02.03.02.04.02.03.03.07.05.1.04.09.07.18.11.27.03.08.06.17.08.25.01.04.02.08.03.13-.03-.06,0,0,0,.04.03.19.05.38.05.57,0,.09,0,.19,0,.28,0,.05,0,.1,0,.15,0,0,0,0,0,0,0,.02,0,.05,0,.06-.03.38-.09.76-.18,1.13-.04.18-.09.35-.14.53,0,0,0,.01,0,.02-.01.03-.02.06-.03.09-.03.08-.05.16-.08.24-.09.25-.19.49-.3.73-.21-.05-.41-.11-.62-.17-.02,0-.05-.01-.07-.02,0,0-.01,0-.02,0-.01,0-.02,0-.02,0-.03-.01-.06-.02-.09-.03-.1-.03-.2-.07-.3-.11-.21-.08-.41-.16-.61-.25-.19-.09-.37-.18-.56-.29-.04-.02-.08-.05-.12-.07-.02-.01-.03-.02-.05-.03-.08-.06-.17-.11-.25-.17-.16-.12-.32-.25-.47-.39-.03-.03-.05-.05-.08-.08,0-.01-.02-.02-.03-.03-.07-.08-.13-.16-.19-.24-.05-.08-.11-.15-.15-.23-.02-.03-.03-.07-.05-.1,0-.01-.01-.03-.02-.04-.04-.09-.07-.17-.1-.26-.01-.04-.03-.08-.04-.12,0,0,0-.03-.01-.05,0,0,0,0,0-.02-.02-.14-.03-.28-.04-.41,0-.04,0-.09,0-.13,0-.02,0-.03,0-.05,0-.24-.2-.45-.43-.52.23-.31.45-.62.7-.92.15-.19.32-.37.49-.54Zm16.57,47.95s.02.05.03.06c-.01-.02-.03-.05-.03-.06Zm8.97,8.53c-.11.11-.23.23-.34.34-.05.05-.1.1-.15.14-.01.01-.02.02-.03.02,0,0,0,0,0,0-.04.03-.08.07-.12.1-.08.07-.17.13-.25.2-.08.06-.17.11-.25.17-.02.01-.04.02-.05.03-.04.02-.08.04-.13.06-.01,0-.15.05-.23.07.02,0,.04,0,0,0,0,0-.01,0-.02,0-.01,0-.02,0-.02,0,0,0,0,0,0,0-.01,0-.03,0-.04,0,0,0-.06,0-.1,0,.02,0,.04.01,0,0,0,0-.02,0-.03,0,0,0-.01,0-.01,0,0,0,0,0,0,0-.01,0-.03,0-.04,0-.01,0-.03,0-.04,0,0,0,0,0,0,0,0,0-.01,0-.03,0,0,0,0,0,0,0-.05-.01-.03,0,0,0-.04-.02-.09-.04-.09-.04,0,0,0,0,0,0-.03-.02-.06-.05-.09-.07-.02-.02-.05-.04-.07-.07,0,0,0,0,0,0-.01-.01-.03-.04-.03-.04-.02-.03-.04-.05-.06-.08-.08-.11-.16-.22-.23-.34-.07-.11-.13-.22-.19-.34-.01-.02-.02-.04-.03-.06,0,0,0,0,0,0-.03-.07-.07-.14-.1-.21-.11-.24-.21-.49-.29-.74-.1-.29-.18-.58-.25-.87-.02-.08-.04-.15-.05-.23,0,0,0-.04-.01-.06,0-.03-.01-.08-.01-.07-.03-.15-.05-.29-.08-.44-.08-.47-.14-.94-.19-1.42.03,0,.07.01.1.02,1.13.18,2.27.26,3.42.29.64.02,1.28.02,1.92,0,.43,0,.85-.03,1.28-.05-.92,1.31-1.92,2.57-3.04,3.71Zm13.08-6.89s-.09.05-.14.08c-.01,0-.03.01-.04.02-.22.11-.45.21-.68.3-.58.23-1.18.4-1.79.56-.36.09-.71.18-1.07.25-.04,0-.08.02-.12.02-.01,0-.02,0-.04,0-.1.02-.19.04-.29.06-.2.04-.4.08-.6.11-.88.16-1.77.28-2.66.38-.85.09-1.7.17-2.55.21-.9.05-1.8.07-2.7.06-.44,0-.88-.02-1.32-.04,0,0,.02,0,.03,0-.02,0-.03,0-.05,0,0,0,0,0,0,0,0,0-.01,0-.02,0,0,0,0,0-.01,0-.05,0-.1,0-.15,0-.11,0-.22-.01-.33-.02-.21-.02-.43-.03-.64-.05-.79-.08-1.57-.19-2.35-.36-.34-.08-.69-.16-1.02-.27,0,0-.01,0-.02,0-.04-.01-.07-.02-.11-.04-.08-.03-.16-.05-.24-.08-.15-.06-.3-.12-.45-.18-.27-.12-.52-.25-.77-.4-.02-.02-.05-.03-.07-.05-.06-.04-.12-.08-.18-.13-.11-.08-.21-.17-.31-.26-.11-.11-.22-.21-.33-.33-.02-.02-.03-.04-.05-.05,0,0,0-.01-.01-.01-.05-.06-.11-.12-.16-.19-.18-.22-.35-.45-.5-.69-.07-.1-.13-.21-.19-.31-.03-.06-.07-.12-.1-.18,0,0,0,0,0,0,0,0,0-.01-.01-.03,0-.02-.02-.04-.03-.05-.11-.22-.2-.45-.29-.68-.08-.23-.15-.46-.21-.69-.03-.1-.04-.2-.07-.3.05.18,0,0,0-.05-.01-.06-.02-.12-.03-.18-.06-.39-.1-.79-.11-1.19,0-.17,0-.35,0-.52,0-.03,0-.06,0-.09,0-.07.01-.14.02-.22,0-.09.02-.18.03-.27,1.56.33,3.16.41,4.75.37.64-.02,1.29-.06,1.93-.11,1.95-.17,3.88-.51,5.8-.92.14.38.33.74.54,1.08.63,1.05,1.6,1.91,2.74,2.36.64.26,1.33.42,2,.6.8.21,1.59.42,2.38.66.1.03.21.06.31.09.04.01.08.03.12.04.02,0,.05.02.07.02.2.06.39.13.59.2.35.12.69.26,1.03.41.15.07.3.14.44.22.06.03.12.07.17.1-.2-.12.02.01.07.05.07.05.13.11.2.17.02.02.05.06.07.08,0,0,0,0,0,.01,0,0,0,0,0,0-.03.03-.05.06-.08.1,0,0-.01.01-.02.02.01,0,.02-.02.04-.03-.01.01-.03.02-.04.03-.04.04-.1.08-.04.03-.04.03-.08.06-.12.1-.08.05-.16.1-.24.15Z"/>
    <path d="m280.29,459.33s0,0,0,0c-.02.01-.03.03-.04.03.01-.01.03-.02.04-.03Z"/>
    <path d="m265.85,461.64s.02,0,.03,0c0,0,.01,0,.02,0-.09,0-.07,0-.04,0Z"/>
    <path d="m265.04,467.64s0,0,0,0c0,0,.02,0,.03,0-.01,0-.03,0-.04,0Z"/>
    <path d="m264.94,467.62s.02,0,.02,0c0,0-.02,0-.04-.01,0,0,0,0,.01,0Z"/>
    <path d="m265.22,467.63s.01,0,.02,0c0,0,.01,0,.02,0-.02,0-.04,0-.04.01Z"/>
  </g>
  <path class="cls-10" d="m205.83,378.59c-9.79,4.94-19.34,11.91-24.65,21.5"/>
  <g>
    <path class="cls-13" d="m125.96,534.65c2.19,4.17,1.83,9.63,1.24,18.47-.3,4.47-.58,8.74-2.04,9.14-1.24.34-3.51-2.07-7.94-13.07-1.78,2.12-4.97,5.33-9.69,7.21-2.71,1.08-8.57,2.78-9.6.75-.54-1.07-.11-3.89,8.53-12.77-1.69,1.3-4.82,3.3-9.02,3.68-3.23.29-8.3-.27-8.67-2.2-.25-1.28,1.47-3.58,10.68-8.11-2.08.82-5.66,1.87-10.1,1.35-2.05-.24-5.67-.66-5.88-1.95-.2-1.25,2.73-3.66,17.5-8.82,11.05-3.24,21.35-.62,24.99,6.32Z"/>
    <path class="cls-7" d="m157.87,421.06c.08-.3-7.67,26.92-25.98,60.06-9.72,17.58-19.83,33.02-29.62,46.48,8.38,5.61,18.17,12.18,26.55,17.79,8.03-7.53,10.09-9.55,18.77-20.97,12.66-16.68,6.33-7.83,12.66-16.68"/>
  </g>
  <path class="cls-13" d="m428.77,409.34c2.93-3.69,8.06-5.57,16.39-8.62,4.21-1.54,8.22-3.01,9.18-1.83.81,1-.47,4.04-8.74,12.55,2.66.77,6.89,2.38,10.52,5.94,2.09,2.04,6.01,6.71,4.58,8.48-.76.93-3.51,1.68-15.13-2.63,1.87,1.02,4.97,3.07,7.02,6.76,1.57,2.83,3.11,7.69,1.5,8.82-1.07.74-3.87.1-11.74-6.48,1.59,1.57,4,4.42,5.32,8.68.61,1.98,1.69,5.45.59,6.16-1.06.69-4.45-1.01-15.15-12.43-7.44-8.79-9.21-19.27-4.34-25.4Z"/>
  <path class="cls-7" d="m312.35,368.42c2.42,1.03,30.65,14.63,67.35,23.91,19.47,4.93,37.66,8.1,54.17,10.16-1.63,9.95-3.53,21.59-5.16,31.54-13.68.49-57.86-3.9-68.65-5.32"/>
  <g>
    <path class="cls-11" d="m192.83,729.28c10.61,1.19,22.73,2.38,31.72,2.37,6.65,0,20.59-.32,30.73-6.07.08-8.67.79-47.32.79-47.32h-49.93l6.52,28.13s-6.38,1.24-11.62,7.96c-5.25,6.72-8.22,14.94-8.22,14.94Z"/>
    <path class="cls-14" d="m203.45,710.51c1.57-.72,5.64-2.34,10.76-1.44,7.22,1.27,11.08,6.58,11.85,7.69"/>
    <path class="cls-14" d="m210.09,705.66c1.57-.72,5.64-2.34,10.76-1.44,7.22,1.27,11.08,6.58,11.85,7.69"/>
  </g>
  <g>
    <path class="cls-11" d="m323.09,729.28c-10.61,1.19-22.73,2.38-31.72,2.37-6.65,0-20.59-.32-30.73-6.07-.08-8.67-.79-47.32-.79-47.32h49.93s-6.52,28.13-6.52,28.13c0,0,6.38,1.24,11.62,7.96s8.22,14.94,8.22,14.94Z"/>
    <path class="cls-14" d="m312.47,710.51c-1.57-.72-5.64-2.34-10.76-1.44-7.22,1.27-11.08,6.58-11.85,7.69"/>
    <path class="cls-14" d="m305.83,705.66c-1.57-.72-5.64-2.34-10.76-1.44-7.22,1.27-11.08,6.58-11.85,7.69"/>
  </g>
  <polyline class="cls-5" points="284.06 360.36 284.06 323.07 229.63 323.07 229.63 360.36"/>
  <g>
    <g>
      <g>
        <path class="cls-16" d="m103.2,198.06c6.22,1.31,12.43,2.62,18.64,3.93.27,5.36.55,10.72.82,16.08,5.89.41,11.77.81,17.66,1.21,2.19,4.53,4.39,9.05,6.59,13.57,23.84-9.78,39.62-28.82,39.73-48.69.03-4.53-.74-11.88-5.51-20.54-.32-.8-2.35-6.18.56-11.62,1.92-3.59,4.96-5.31,6.4-5.96,1.24-.98,4.16-2.88,8.23-2.93,6.17-.07,10.01,4.2,10.58,4.85,5.48,8.22,11.65,12.28,15.69,14.35,17.69,9.05,41.85,3.81,61.51-12.85-3-4.04-6-8.07-9.01-12.1,2.35-5.41,4.7-10.81,7.05-16.23-4.63-2.71-9.27-5.43-13.9-8.14,1.7-6.12,3.4-12.24,5.1-18.36-4.79-1.51-9.58-3.03-14.37-4.54.79-6.34,1.59-12.68,2.37-19.02-5.15-1.19-10.29-2.37-15.43-3.57.19-5.86.39-11.73.57-17.6-5.24.1-10.5.19-15.74.29.03-5.77.06-11.54.1-17.31-5.22,1.06-10.43,2.14-15.64,3.2-2.86-5.44-5.73-10.89-8.59-16.33-6.17,3.19-16.79,9.78-25.41,22.06-5.73,8.17-14.01,20-12.2,33.95,1.34,10.34,7.46,15.91,4.56,24.43-1.55,4.57-4.91,7.63-7.54,9.52-2.9,1.47-7.15,3.04-11.93,2.31-8.9-1.36-11.03-9.35-19.59-15.3-11.56-8.04-25.86-6.13-35.76-4.81-14.87,1.99-25.61,8.38-31.28,12.39,3.51,5.05,7.03,10.1,10.54,15.15-3.35,4.14-6.7,8.27-10.04,12.41,5.13,2.63,10.26,5.25,15.41,7.89-2.51,4.61-5,9.23-7.51,13.85,5.3,2.54,10.59,5.07,15.89,7.59-1.31,5.12-2.63,10.22-3.95,15.34,5.99,2.22,11.98,4.43,17.97,6.65-.86,4.94-1.72,9.89-2.59,14.84Z"/>
        <g class="cls-27">
          <path class="cls-30" d="m209.99,94.33c-.17,4.91-2.94,10.37-20.03,22.35-22.9,16.06-41.3,28.96-55.03,23.71-2.11-.81-7.33-3.27-12.84-1.48-3.62,1.17-7.54,4.23-7.09,6.52.83,4.3,16.41,2.7,18.4,9.16.62,2.02-.44,3.65,1.01,6.02,1.14,1.87,3.33,3.37,5.21,3.47,4.57.25,7.88-7.73,11.14-12.96,3.87-6.2,13.1-11.56,31.57-22.28,25.78-14.97,31.8-14.33,35.58-12.78.62.25,6.11,2.59,6.85,6.9.99,5.82-7.1,12.99-15.21,15-7.05,1.74-8.8-1.74-16.14-.36-6.79,1.27-15.3,6.12-18.2,13.72-2.96,7.75,2.79,10.84,1.7,24.62-.68,8.62-3.58,15.51-4.63,17.85-4.06,9.02-7.63,10.19-9.3,16.71-1.03,4.02-1.36,10.16,2.57,18.78,12.21-14.35,24.42-28.7,36.64-43.05,35.87-11.33,71.73-22.66,107.6-34-14.79-29.19-29.59-58.38-44.38-87.58-5.28-5.78-10.57-11.56-15.85-17.35-7.61,3.74-15.21,7.48-22.82,11.21-.25-5.75-.5-11.49-.75-17.24-5.67,1.83-11.34,3.65-17.02,5.48-1.37-5.65-2.74-11.31-4.12-16.96-1.17-4.6-2.34-9.19-3.51-13.79-29.01,13.57-36.47,26.36-37.39,35.99-1.14,11.93,7.32,23.42,2.84,42.51-1.26,5.36-3.15,9.64-6.42,10.54-3.43.94-6.73-2.3-11.7-6.16,0,0-9.81-7.62-20.56-12.72-6.51-3.09-17.21-4.54-35.31,3.77,6.83.49,15.92,2.2,25.19,7.25,9.79,5.32,16.07,12.33,18.36,14.93,5.71,6.47,4.75,7.79,8.2,10.26,8.19,5.86,23.35,5.45,32.34-2.02,7.38-6.14,4.75-12.18,16.77-28.91,5.57-7.76,8.26-9.41,10.45-9,3.57.67,6.07,6.88,5.9,11.89Z"/>
        </g>
      </g>
      <path class="cls-12" d="m103.2,198.06c6.22,1.31,12.43,2.62,18.64,3.93.27,5.36.55,10.72.82,16.08,5.89.41,11.77.81,17.66,1.21,2.19,4.53,4.39,9.05,6.59,13.57,23.84-9.78,39.62-28.82,39.73-48.69.03-4.53-.74-11.88-5.51-20.54-.32-.8-2.35-6.18.56-11.62,1.92-3.59,4.96-5.31,6.4-5.96,1.24-.98,4.16-2.88,8.23-2.93,6.17-.07,10.01,4.2,10.58,4.85,5.48,8.22,11.65,12.28,15.69,14.35,17.69,9.05,41.85,3.81,61.51-12.85-3-4.04-6-8.07-9.01-12.1,2.35-5.41,4.7-10.81,7.05-16.23-4.63-2.71-9.27-5.43-13.9-8.14,1.7-6.12,3.4-12.24,5.1-18.36-4.79-1.51-9.58-3.03-14.37-4.54.79-6.34,1.59-12.68,2.37-19.02-5.15-1.19-10.29-2.37-15.43-3.57.19-5.86.39-11.73.57-17.6-5.24.1-10.5.19-15.74.29.03-5.77.06-11.54.1-17.31-5.22,1.06-10.43,2.14-15.64,3.2-2.86-5.44-5.73-10.89-8.59-16.33-6.17,3.19-16.79,9.78-25.41,22.06-5.73,8.17-14.01,20-12.2,33.95,1.34,10.34,7.46,15.91,4.56,24.43-1.55,4.57-4.91,7.63-7.54,9.52-2.9,1.47-7.15,3.04-11.93,2.31-8.9-1.36-11.03-9.35-19.59-15.3-11.56-8.04-25.86-6.13-35.76-4.81-14.87,1.99-25.61,8.38-31.28,12.39,3.51,5.05,7.03,10.1,10.54,15.15-3.35,4.14-6.7,8.27-10.04,12.41,5.13,2.63,10.26,5.25,15.41,7.89-2.51,4.61-5,9.23-7.51,13.85,5.3,2.54,10.59,5.07,15.89,7.59-1.31,5.12-2.63,10.22-3.95,15.34,5.99,2.22,11.98,4.43,17.97,6.65-.86,4.94-1.72,9.89-2.59,14.84Z"/>
      <g>
        <path class="cls-23" d="m205.12,94.78c-15.45,23.36-42.19,39.17-70.09,41.5,27.11-6.61,51.28-20.87,70.09-41.5h0Z"/>
        <path class="cls-23" d="m190.27,95.02c.24,16.64-13.71,31.06-30.47,30.89-5.27.04-10.61-1.11-15.27-3.53,4.97,1.2,10.1,1.67,15.16,1.19,15.8-1.25,27.3-13.37,30.58-28.55h0Z"/>
        <path class="cls-23" d="m219.17,119.66c-26.97,7.2-50.76,22.09-69.11,43.11,14.91-23.7,41.26-40.15,69.11-43.11h0Z"/>
        <path class="cls-23" d="m212.13,132.73c-14.94-4.09-31.08.57-39.42,14-2.75,4.27-4.69,9.04-5.92,14,0-5.26,1.44-10.52,3.9-15.18,7.56-14.95,26.8-20.7,41.45-12.82h0Z"/>
      </g>
    </g>
    <g>
      <path class="cls-8" d="m346.71,248.53c2.4-.32,10.65-1.13,18.11,4.15,1.93,1.37,5.98,4.24,7.41,9.16,2.82,9.69-5.51,23.95-15.13,23.47-5.66-.29-10.92-5.63-13.57-12.67,1.06-8.04,2.12-16.07,3.18-24.11Z"/>
      <path class="cls-8" d="m344.94,270.88c2.05-5.45,6.71-9,11.56-8.95,3.48.03,6.02,1.91,7.04,2.77"/>
    </g>
    <g>
      <path class="cls-8" d="m160.36,268.62c-2.42.2-10.65,1.16-16.81,7.91-1.59,1.74-4.94,5.41-5.29,10.52-.69,10.06,10.49,22.23,19.79,19.7,5.46-1.49,9.47-7.83,10.56-15.27-2.75-7.62-5.5-15.25-8.25-22.87Z"/>
      <path class="cls-8" d="m166.84,290.07c-3.17-4.89-8.48-7.36-13.2-6.28-3.39.77-5.47,3.15-6.29,4.21"/>
    </g>
    <g class="cls-24">
      <path class="cls-31" d="m333.11,191.1c-2.44-6.76-5.57-13.21-10.49-18.36-14.48-14.7-36.09-17.73-56.15-19.6-9.81-.82-19.53-.9-29.54-1.53,8.99-5.15,18.97-8.06,29.21-9.47,15.5-2.05,32.5-.08,46.5,7.85,14.64,8.04,24.71,24.3,20.47,41.1h0Z"/>
    </g>
    <path class="cls-9" d="m155.54,250.27c-1.4-.96-11.77-8.29-13.03-22.16-1.26-13.86,7.59-22.94,8.8-24.14-.9-2.64-5.12-15.92,1.76-30.28,6.52-13.6,18.48-18.77,21.25-19.88,1.6-4.07,5.87-13.31,15.74-20.54,12.89-9.44,26.59-9.07,30.57-8.82,3.46-2.34,8.73-5.24,15.64-6.81,14.06-3.19,25.65,1.25,30.07,3.23,4.56-.92,14.58-2.26,25.63,2.18,19.65,7.88,25.95,27.34,26.82,30.18,2.4.65,11.34,3.36,15.7,11.61,5.41,10.25,1.67,25.09-10.34,34.57-2.41-2.09-45.21-37.92-99.56-20.82-52.84,16.63-68.05,68.02-69.06,71.69Z"/>
    <g>
      <path class="cls-28" d="m150.19,261.69c6.1,56.6,55.82,87.19,112.42,81.09,56.6-6.1,98.66-46.58,92.56-103.19s-58.05-107.89-114.65-101.79c-56.6,6.1-96.43,67.28-90.33,123.89Z"/>
      <g class="cls-22">
        <path class="cls-26" d="m284.29,139.84c11.88,8.34,44.29,35.03,58.18,73.93,5.36,15.01,7.74,47.45-.59,68.88-19.02,48.91-78.09,60.23-82.38,60.96,4.37,4.09,8.74,8.18,13.11,12.27,3.66.24,66.16,3.27,99.36-44.54,31.73-45.71,16.92-109.41-19.61-143.1-25.05-23.11-55.21-27.37-68.07-28.4Z"/>
      </g>
      <path class="cls-6" d="m150.19,261.69c6.1,56.6,55.82,87.19,112.42,81.09,56.6-6.1,98.66-46.58,92.56-103.19s-58.05-107.89-114.65-101.79c-56.6,6.1-96.43,67.28-90.33,123.89Z"/>
    </g>
    <path class="cls-4" d="m343.99,224.64c-3.83,2.06-7.67,4.12-11.5,6.18"/>
    <path class="cls-4" d="m164.93,243.94c4.18,1.2,8.37,2.39,12.55,3.59"/>
    <g>
      <g>
        <path class="cls-29" d="m274.28,236.33c-2.39,16.77,10.97,32.54,29.85,35.23,18.88,2.69,31.34-9.4,33.73-26.16,2.39-16.77-6.19-31.86-25.07-34.55s-36.12,8.71-38.51,25.48Z"/>
        <circle class="cls-21" cx="300.91" cy="237.2" r="15.93"/>
        <polygon class="cls-29" points="296.02 238.09 277.29 245.01 285.13 252.78 296.02 238.09"/>
      </g>
      <path class="cls-3" d="m337.86,245.4c.01,17.22-15.32,29.17-32.03,27.36-5.26-.5-10.34-2.39-14.52-5.41,4.67,2.16,9.65,3.43,14.64,3.57,16.07.57,29.08-9.53,31.91-25.53h0Z"/>
      <path class="cls-3" d="m338,235.82c-5-25.29-37.5-30.33-54.79-14.18-5.45,5.26-8.63,12.82-9.11,20.81-1.24-8.09,1.31-16.79,6.85-22.96,5.59-6.36,13.89-9.83,22.16-10.89,16.85-2.03,35.04,8.98,34.9,27.22h0Z"/>
    </g>
    <g>
      <path class="cls-29" d="m234.52,240.62c5.91,15.87-3.79,34.13-21.66,40.78-17.87,6.65-32.62-2.5-38.53-18.37-5.91-15.87-.74-32.45,17.13-39.1,17.87-6.65,37.15.82,43.06,16.69Z"/>
      <circle class="cls-21" cx="205.78" cy="250.18" r="15.93"/>
      <polygon class="cls-29" points="200.89 251.06 183.01 257.67 190 265.76 200.89 251.06"/>
      <path class="cls-3" d="m174.34,263.03c6.18,15.04,21.05,22.12,36.62,18.14,4.84-1.2,9.44-3.5,13.54-6.61-3.44,3.84-8,6.77-13.04,8.38-15.94,5.33-33.47-3.09-37.12-19.91h0Z"/>
      <path class="cls-3" d="m172.16,253.7c-4.02-17.8,11.4-32.42,28.3-34.03,8.31-.72,17.15.9,23.97,5.92,6.73,4.85,11.07,12.81,11.59,20.98-2.18-7.71-6.89-14.41-13.34-18.39-20.34-12.1-51.03-.23-50.51,25.53h0Z"/>
    </g>
    <ellipse class="cls-25" cx="324.89" cy="280.16" rx="14.95" ry="9.05" transform="translate(-36.26 48.61) rotate(-8.11)"/>
    <ellipse class="cls-25" cx="191.46" cy="294.16" rx="14.95" ry="9.05" transform="translate(-39.57 29.94) rotate(-8.11)"/>
    <path class="cls-3" d="m287.88,289.46c-11.64,11.81-30.99,14.72-45.95,7.86-5.01-2.24-9.59-5.43-13.15-9.48,4.62,2.74,9.35,5,14.27,6.54,14.94,4.95,31.1,2.57,44.82-4.93h0Z"/>
    <g>
      <path class="cls-20" d="m242.5,123.87c11.89,3.01,21.42,11.55,26.37,22.69,3.93,8.84-10.05,14.32-13.95,5.51h0c-1.11-2.51-1.87-3.79-4.2-6.46-3.21-3.67-7.54-6.32-12.32-7.33-7.56-1.59-15.85,1.04-21.77,5.89"/>
      <path class="cls-1" d="m242.5,123.87c10.96,1.62,21.05,9.19,26.49,19,1.2,2.19,2.52,4.37,2.44,7.02-.65,9.84-15.07,11.95-18.5,2.52-6.96-14.71-23.36-16.9-36.31-8.25,12.6-12.23,32.14-9.45,39.86,6.63,1.85,5.57,10.51,4.61,11.18-1.04.13-1.8-.98-3.61-1.75-5.23-4.81-9.54-13.06-16.96-23.41-20.66h0Z"/>
    </g>
    <g>
      <path class="cls-20" d="m189.14,147.02c5.6,7.57,10.03,6.11,16.75,1.77,7.61-4.92,16.18,6.34,8.52,11.29h0c-14.08,9.1-28.21,9.37-38.29-4.25"/>
      <path class="cls-1" d="m189.14,147.02c5.63,6.11,9.37,5.34,15.67.72,2.35-1.79,5.62-2.38,8.38-1.22,6.93,2.75,8.67,11.96,1.55,15.7-13.42,8.75-30.01,8.72-38.63-6.38,10.81,11.83,23.7,11.21,36.51,2.99,6.24-2.96.85-11.16-4.72-9.33-.51.18-1.05.43-1.52.72-7.04,4.32-12.85,4.74-17.25-3.19h0Z"/>
    </g>
    <g>
      <path class="cls-20" d="m177.28,155.57c3.42,8.33,10.33,13.5,17.48,12.34,2.44-.39,4.76,1.05,5.33,4.54.48,2.92-1.06,7.03-3.47,7.42h0c-11.31,1.83-21.85-4.99-27.37-18.44"/>
      <path class="cls-1" d="m177.28,155.57c3.16,5.67,8.78,11.38,15.64,10.97,1.83-.18,3.71-.63,5.44.38,5.44,2.66,4.48,13.88-1.81,14.75-13.3,2.02-24.11-8.15-27.3-20.25,5.56,10.21,15.07,18.77,27.15,16.64,2.84-1.61,2.94-9.09-1.44-8.6-8.59,1.13-15.65-6.17-17.67-13.89h0Z"/>
    </g>
    <g>
      <path class="cls-20" d="m190.68,138.6c15.98-9.29,38.46-11.04,48.75,7.34,1.99,3.56,1.94,7.83-1.58,10.49-2.92,2.2-8.51,1.95-10.49-1.58h0c-6.02-10.74-18.04-9.84-27.76-4.18"/>
      <path class="cls-1" d="m190.68,138.6c11.41-8.02,27.7-11.74,40.38-4.25,6.79,4.21,16.16,14.74,9.2,22.49-3.88,4.27-12.04,3.75-14.67-1.65-3.72-7.22-12.05-8.92-19.55-6.83-2.19.55-4.34,1.35-6.45,2.3,3.83-2.68,8.25-4.65,13-5.07,5.57-.6,11.39,1.8,14.8,6.33.66.84,1.22,1.9,1.9,2.68,1.48,1.54,4.07,1.71,6.09,1,8.66-4.11-1.38-14.99-6.31-18.04-11.53-7.27-26.56-4.38-38.39,1.04h0Z"/>
    </g>
    <path class="cls-3" d="m310.32,194.43c-13.1-.66-24.48,3.21-34.47,11.7,5.33-12.6,22.57-18.43,34.47-11.7h0Z"/>
    <path class="cls-3" d="m194.77,201.72c10.19-9.11,28.28-7.09,36.17,4.08-11.58-6.16-23.52-7.52-36.17-4.08h0Z"/>
  </g>
  <path class="cls-17" d="m303.84,379.74c.68.1,26.89-2.58,22.55-4.1-7.39-2.58-22.84-10.97-28.94-12.42-2.6-.62-2.13,15.26-2.13,15.26l8.52,1.26Z"/>
</svg>