<?xml version="1.0" encoding="UTF-8"?>
<svg id="hero-head-2" xmlns="http://www.w3.org/2000/svg" xmlns:xlink="http://www.w3.org/1999/xlink" viewBox="0 0 301 357.96">
  <defs>
    <style>
      .cls-1 {
        stroke: #ef8ba8;
        stroke-width: 2.2px;
      }

      .cls-1, .cls-2, .cls-3, .cls-4, .cls-5, .cls-6, .cls-7, .cls-8 {
        stroke-miterlimit: 10;
      }

      .cls-1, .cls-9 {
        fill: #ffa6bd;
      }

      .cls-10 {
        fill: #ef8ba8;
      }

      .cls-11 {
        fill: #bc6464;
      }

      .cls-11, .cls-7 {
        opacity: .4;
      }

      .cls-12 {
        fill: #8e5552;
      }

      .cls-2 {
        fill: #fdffff;
        stroke: #7ac9d6;
        stroke-width: 8.74px;
      }

      .cls-13 {
        fill: #b56f6f;
        opacity: .51;
      }

      .cls-14 {
        fill: #352727;
      }

      .cls-15 {
        fill: #e8cac1;
      }

      .cls-3 {
        stroke: #a86865;
        stroke-width: 3.46px;
      }

      .cls-3, .cls-16, .cls-6, .cls-7, .cls-8 {
        fill: none;
      }

      .cls-17 {
        fill: #e27d9f;
      }

      .cls-4 {
        stroke: #e8cac1;
        stroke-width: 2.13px;
      }

      .cls-4, .cls-18 {
        fill: #ffe9e1;
      }

      .cls-5 {
        fill: #c98d85;
      }

      .cls-5, .cls-6, .cls-8 {
        stroke: #b2746f;
      }

      .cls-5, .cls-8 {
        stroke-width: 1.87px;
      }

      .cls-19 {
        clip-path: url(#clippath);
      }

      .cls-20 {
        fill: #fff4f3;
      }

      .cls-21 {
        fill: #ce8680;
      }

      .cls-6, .cls-7 {
        stroke-width: 2.6px;
      }

      .cls-7 {
        stroke: #ffd9e5;
        stroke-linecap: round;
      }
    </style>
    <clipPath id="clippath">
      <path class="cls-16" d="m241.32,199.39c0,48.59-42.04,96.65-93.91,96.65s-93.91-48.05-93.91-96.65,42.04-79.33,93.91-79.33,93.91,30.73,93.91,79.33Z"/>
    </clipPath>
  </defs>
  <circle class="cls-2" cx="150.5" cy="207.46" r="146.13"/>
  <g>
    <path class="cls-9" d="m150.5,349.23c26.5,0,51.33-7.31,72.57-20.02-11.52-15.94-30.26-26.43-51.65-26.43h-41.37c-21.29.01-40.06,10.64-51.61,26.73,21.13,12.52,45.77,19.72,72.06,19.72Z"/>
    <path class="cls-4" d="m60.68,160.28c-4.82,8.97-9.25,20.16-11.29,33.39-8.14,52.77,28.6,94.25,35.84,102.13,18-22.75,36.01-45.5,54.01-68.25-11.13-24.06-22.26-48.12-33.39-72.18-15.06,1.64-30.12,3.27-45.17,4.91Z"/>
    <path class="cls-18" d="m150.5,349.23c9.61,0,18.99-.96,28.07-2.79-6.78-8.31-17.11-13.62-28.67-13.62s-21.71,5.22-28.5,13.41c9.4,1.97,19.13,3.01,29.1,3.01Z"/>
    <path class="cls-10" d="m79.2,329.95c1.48-2.07,3.08-4.06,4.82-5.95,11.88-12.92,28.66-20.34,46.03-20.35h41.37c17.62,0,34.54,7.46,46.42,20.47,1.61,1.76,3.1,3.62,4.49,5.54.5-.29.99-.6,1.49-.9-1.45-2.01-3.01-3.96-4.69-5.81-12.21-13.37-29.59-21.04-47.69-21.04h-41.37c-17.86.01-35.1,7.63-47.31,20.91-1.82,1.98-3.49,4.07-5.04,6.24.5.3.99.59,1.49.89Z"/>
    <path class="cls-4" d="m232.44,160.28c4.82,8.97,9.25,20.16,11.29,33.39,8.14,52.77-28.6,94.25-35.84,102.13-18-22.75-36.01-45.5-54.01-68.25,11.13-24.06,22.26-48.12,33.39-72.18,15.06,1.64,30.12,3.27,45.17,4.91Z"/>
    <g>
      <path class="cls-5" d="m70.58,225.27c-2.1-.06-9.28.01-15.21,5.25-1.53,1.35-4.76,4.2-5.53,8.57-1.53,8.6,6.97,20.12,15.21,18.8,4.84-.77,8.88-5.86,10.51-12.17-1.66-6.82-3.32-13.64-4.98-20.46Z"/>
      <path class="cls-8" d="m74.17,244.35c-2.27-4.5-6.62-7.13-10.78-6.64-2.99.35-5,2.2-5.81,3.04"/>
    </g>
    <g>
      <path class="cls-5" d="m224.25,225.27c2.1-.06,9.28.01,15.21,5.25,1.53,1.35,4.76,4.2,5.53,8.57,1.53,8.6-6.97,20.12-15.21,18.8-4.84-.77-8.88-5.86-10.51-12.17,1.66-6.82,3.32-13.64,4.98-20.46Z"/>
      <path class="cls-8" d="m220.65,244.35c2.27-4.5,6.62-7.13,10.78-6.64,2.99.35,5,2.2,5.81,3.04"/>
    </g>
    <polyline class="cls-1" points="124.89 305.1 124.89 281.19 171.27 281.19 171.27 305.1"/>
    <path class="cls-7" d="m107.68,314.34c-8.48,4.28-16.75,10.31-21.35,18.62"/>
    <path class="cls-21" d="m241.32,199.39c0,48.59-42.04,96.65-93.91,96.65s-93.91-48.05-93.91-96.65,42.04-79.33,93.91-79.33,93.91,30.73,93.91,79.33Z"/>
    <ellipse class="cls-11" cx="90.41" cy="253.37" rx="7.84" ry="12.95" transform="translate(-165.9 335.09) rotate(-88.05)"/>
    <ellipse class="cls-11" cx="206.61" cy="253.05" rx="7.84" ry="12.95" transform="translate(-53.33 450.91) rotate(-88.05)"/>
    <g class="cls-19">
      <path class="cls-13" d="m91.11,113.14c-5.75,8.27-32.15,54.05-24.78,100.71,10.6,67.11,77.78,84.57,81.75,86.22-29.79,3.81-59.59,7.63-89.38,11.44-11.95-46.32-23.9-92.64-35.84-138.96,22.75-19.8,45.5-39.61,68.25-59.41Z"/>
    </g>
    <path class="cls-6" d="m241.32,199.39c0,48.59-42.04,96.65-93.91,96.65s-93.91-48.05-93.91-96.65,42.04-79.33,93.91-79.33,93.91,30.73,93.91,79.33Z"/>
    <g>
      <g>
        <path class="cls-20" d="m130.1,210.63c3.62,14.21-6.43,29.04-22.43,33.11-16.01,4.07-27.86-5.18-31.47-19.4-3.62-14.21,2.37-28.01,18.38-32.08,16.01-4.07,31.91,4.15,35.53,18.37Z"/>
        <circle class="cls-14" cx="107.51" cy="213.85" r="13.8"/>
        <polygon class="cls-20" points="103.22 214.16 81.71 219.57 92.47 225.8 103.22 214.16"/>
      </g>
      <path class="cls-12" d="m76.19,224.34c3.89,13.49,16.11,21.02,29.85,19.02,4.28-.59,8.45-2.14,12.27-4.44-3.32,2.99-7.52,5.09-12,6-14.18,3.13-28.57-5.8-30.12-20.59h0Z"/>
      <path class="cls-12" d="m75.18,216.1c-1.38-11.3,6.38-21.14,16.79-24.8,10.23-3.7,22.63-1.85,30.83,5.45,5.46,4.89,8.34,12.2,8.03,19.14-1.16-6.84-4.6-13.05-9.78-17.08-16.22-12.34-44.08-4.82-45.87,17.29h0Z"/>
    </g>
    <g>
      <g>
        <path class="cls-20" d="m164.73,210.63c-3.62,14.21,6.43,29.04,22.43,33.11,16.01,4.07,27.86-5.18,31.47-19.4,3.62-14.21-2.37-28.01-18.38-32.08-16.01-4.07-31.91,4.15-35.53,18.37Z"/>
        <circle class="cls-14" cx="187.07" cy="213.85" r="13.8"/>
        <polygon class="cls-20" points="182.78 214.16 166.77 218.19 172.04 225.8 182.78 214.16"/>
      </g>
      <path class="cls-12" d="m218.64,224.34c-1.56,14.8-15.94,23.71-30.12,20.59-4.48-.92-8.68-3.02-12-6,3.82,2.3,7.99,3.85,12.27,4.44,13.74,2,25.96-5.53,29.85-19.02h0Z"/>
      <path class="cls-12" d="m219.65,216.1c-1.79-22.12-29.65-29.63-45.87-17.29-5.18,4.02-8.62,10.24-9.78,17.08-.31-6.94,2.57-14.24,8.03-19.14,8.19-7.3,20.6-9.15,30.83-5.45,10.41,3.65,18.18,13.51,16.79,24.8h0Z"/>
    </g>
    <path class="cls-12" d="m74.92,191.46c5.82-10.9,21.14-15.95,32.41-11.05-5.6,2.17-10.81,3.48-16.28,5.36-5.5,1.8-10.41,3.87-16.13,5.68h0Z"/>
    <path class="cls-12" d="m217.32,191.46c-5.72-1.82-10.63-3.88-16.13-5.68-5.47-1.88-10.68-3.2-16.28-5.36,11.27-4.91,26.59.15,32.41,11.05h0Z"/>
    <g>
      <path class="cls-4" d="m46,214.33c11.25-15.87,21.25-24.26,33.84-39.43,16.8,10.19,23.56,13.21,40.5,25.22,18.69-14.6,25.98-21.06,45.68-37.28,14.35,15.11,14.76,15.11,27.31,31.14,12.63-8.46,13.97-10.14,26.33-16.68,9.44,13.06,18.88,26.12,28.33,39.18,1.69-16.61,2-41.46-6.63-69.31-10.9-35.17-44.05-100.86-91.61-100.65-54.96.24-87.49,88.28-91.61,99.45-11.28,30.52-12.77,49.92-12.14,68.36Z"/>
      <path class="cls-4" d="m67.66,122.33c8.44-4.55,7.03-3.08,15.47-7.63,6.72,1.1,13.45,2.2,20.17,3.3,8.41-10.34,16.82-20.69,25.23-31.03"/>
      <line class="cls-4" x1="113.5" y1="105.45" x2="124.91" y2="109.67"/>
    </g>
    <path class="cls-3" d="m134.41,248.66c1.43,5.84,6.76,10.31,12.16,11.29,6.95,1.27,13.6-3.43,15.83-11.29"/>
    <path class="cls-17" d="m122.22,346.39c6.66-7.86,16.59-12.86,27.68-12.86s21.19,5.09,27.85,13.06c.53-.1,1.06-.21,1.59-.32-6.92-8.64-17.54-14.18-29.44-14.18s-22.34,5.45-29.26,13.96c.53.11,1.06.23,1.59.34Z"/>
    <path class="cls-18" d="m150.5,349.23c6.16,0,12.23-.4,18.18-1.17-1.2-1.25-2.56-2.24-4.06-2.89-4.92-2.12-10.09-.05-16.99,2.72-.99.4-2,.8-3,1.22,1.95.08,3.91.12,5.87.12Z"/>
    <path class="cls-15" d="m146.76,349.17c.4-.16.8-.32,1.19-.48,4.89-1.96,8.8-3.53,12.32-3.53,1.39,0,2.71.24,4.01.8,1.18.51,2.29,1.27,3.31,2.24.71-.09,1.42-.18,2.13-.28-1.41-1.58-3.01-2.8-4.75-3.55-5.25-2.27-10.72-.07-17.65,2.71-1.54.62-3.11,1.25-4.67,1.92,1.37.08,2.74.13,4.12.17Z"/>
  </g>
</svg>