<?xml version="1.0" encoding="utf-8"?>
<!-- Generator: Adobe Illustrator 27.3.0, SVG Export Plug-In . SVG Version: 6.00 Build 0)  -->
<svg version="1.1" id="Layer_1" xmlns="http://www.w3.org/2000/svg" xmlns:xlink="http://www.w3.org/1999/xlink" x="0px" y="0px"
	 viewBox="0 0 257.8 533.5" style="enable-background:new 0 0 257.8 533.5;" xml:space="preserve">
<style type="text/css">
	.st0{opacity:0.2;fill:#A36C6C;enable-background:new    ;}
	.st1{fill:#E5B28F;stroke:#CE9976;stroke-width:2.9314;stroke-miterlimit:10;}
	.st2{fill:#FFDA9F;}
	.st3{clip-path:url(#SVGID_00000080907951745651114960000014578521157230038206_);}
	.st4{fill:#F4C887;}
	.st5{fill:none;stroke:#D8AA68;stroke-width:1.4657;stroke-miterlimit:10;}
	.st6{fill:#D8AA68;}
	.st7{fill:#E59883;stroke:#D17D6F;stroke-width:2.1986;stroke-miterlimit:10;}
	.st8{fill:#FFDC8D;stroke:#EFBB7B;stroke-width:1.4942;stroke-miterlimit:10;}
	.st9{fill:#FFDC8D;stroke:#EFBB7B;stroke-width:1.4261;stroke-miterlimit:10;}
	.st10{opacity:0.4;}
	.st11{fill:#B2746F;}
	.st12{fill:#E59883;}
	.st13{clip-path:url(#SVGID_00000119824180998370636340000003040321387126199739_);}
	.st14{opacity:0.42;fill:#C67E6D;enable-background:new    ;}
	.st15{fill:none;stroke:#D17D6F;stroke-width:2.1986;stroke-miterlimit:10;}
	.st16{fill:none;stroke:#8E5552;stroke-width:2.1986;stroke-miterlimit:10;}
	.st17{fill:#FFF4F3;}
	.st18{fill:#352727;}
	.st19{fill:#8E5552;}
	.st20{opacity:0.4;fill:#E07E7E;enable-background:new    ;}
	.st21{fill:#E5B28F;}
	.st22{fill:#CE9976;}
	.st23{fill:#FFE8D9;stroke:#E0AA6E;stroke-width:1.4731;stroke-miterlimit:10;}
	.st24{fill:#606060;}
	.st25{fill:#FFCE76;}
	.st26{fill:#EFC592;}
	
		.st27{opacity:0.4;fill:none;stroke:#FFF0E3;stroke-width:2.1986;stroke-linecap:round;stroke-miterlimit:10;enable-background:new    ;}
	.st28{fill:#E59883;stroke:#D17D6F;stroke-width:1.4657;stroke-miterlimit:10;}
	.st29{fill:#FFE8D9;stroke:#E0AA6E;stroke-width:1.4657;stroke-miterlimit:10;}
	.st30{fill:none;stroke:#CE9965;stroke-width:2.3979;stroke-miterlimit:10;}
</style>
<g>
	<ellipse class="st0" cx="123.7" cy="524.7" rx="98.2" ry="8.8"/>
	<path class="st1" d="M179.9,108.2c12.2,17.9,21.9,39,24.2,60.5c2.4,21.2-0.9,42.9-3,64c-2.8,28.1-5.7,56.3-6.4,84.5
		c-0.5,17.5-0.2,35.3,3.8,52.5c4.1,17.8,13.2,33.6,25.7,46.9c4.9,5.2,12.6-2.6,7.8-7.8c-6.3-6.7-11.7-14.2-15.9-22.4
		c-1.3-2.4-2.4-4.9-3.3-7.5c-1.1-3-2.1-6-2.9-9.1c-4.2-16-4.5-32.6-4.2-49.4c0.5-27.6,3.2-55.2,6-82.6c2.2-21.9,5.7-44.3,3.8-66.3
		c-2.1-24.7-12.1-48.5-26-68.8C185.5,96.9,175.9,102.4,179.9,108.2L179.9,108.2z"/>
	<path class="st1" d="M180.8,101.1c15.7,18.1,28,39.9,32.7,63.6c0.3,1.6,0.6,3.1,0.8,4.7c-0.1-1,0.1,0.8,0.1,1.2
		c0.1,0.9,0.2,1.8,0.3,2.7c0.3,3.7,0.3,7.3,0.3,11c-0.2,9.9-1,19.8-1.8,29.7c-2.3,29.2-4.9,58.5-5.7,87.8
		c-0.5,17.4-0.5,35.3,3.4,52.4c4.5,19.5,15.5,37.1,29.5,51.2c5,5,12.8-2.7,7.8-7.8c-8.2-8.2-15-17.6-20.2-28
		c-0.6-1.3-1.2-2.6-1.8-3.8c-0.1-0.3-0.3-0.6-0.4-0.9c0.4,1,0.1,0.2,0,0c-0.3-0.8-0.6-1.6-1-2.4c-1.1-2.9-2-5.8-2.7-8.7
		c-4-15.5-4.1-32.1-3.7-48.7c0.6-29.1,3.1-58.3,5.5-87.3c1.4-17.6,3.7-35.7,0.7-53.2c-4.5-26.5-18.6-51-36-71
		C183.9,88,176.2,95.8,180.8,101.1L180.8,101.1z"/>
	<path class="st1" d="M168.9,96c8.6,22.7,14.3,47,14.1,71.4c-0.2,23.6-4.8,47.1-7.2,70.6c-2.8,27.2-4.8,54.6-3.8,81.9
		c0.5,13.3,1.5,26.9,4.8,39.9c4.9,19.8,14.9,38.7,26.8,55.1c1.7,2.4,4.8,3.5,7.5,2c2.4-1.4,3.7-5.1,2-7.5
		c-10.9-15.2-20.2-32.3-25.1-50.4c-3.2-11.9-4.1-22-4.7-34.5c-1.3-26,0.4-52.1,2.8-77.9c2.3-24.5,6.9-49,7.9-73.6
		c1.1-27.1-4.8-54.5-14.4-79.8C177,86.6,166.4,89.4,168.9,96L168.9,96z"/>
	<path class="st1" d="M168.3,103.6c12.2,17.9,21.9,39,24.2,60.5c2.4,21.2-0.9,42.9-3,64c-2.8,28.1-5.7,56.3-6.4,84.5
		c-0.5,17.5-0.2,35.3,3.8,52.5c4.1,17.8,13.2,33.6,25.7,46.9c4.9,5.2,12.6-2.6,7.8-7.8c-6.3-6.7-11.7-14.2-15.9-22.4
		c-1.3-2.4-2.4-4.9-3.3-7.5c-1.1-3-2.1-6-2.9-9.1c-4.2-16-4.5-32.6-4.2-49.4c0.5-27.6,3.2-55.2,6-82.6c2.2-21.9,5.7-44.3,3.8-66.3
		c-2.1-24.7-12.1-48.5-26-68.8C173.8,92.2,164.3,97.7,168.3,103.6L168.3,103.6z"/>
	<path class="st1" d="M169.1,96.4c15.7,18.1,28,39.9,32.7,63.6c0.3,1.6,0.6,3.1,0.8,4.7c-0.1-1,0.1,0.8,0.1,1.2
		c0.1,0.9,0.2,1.8,0.3,2.7c0.3,3.7,0.3,7.3,0.3,11c-0.2,9.9-1,19.8-1.8,29.7c-2.3,29.2-4.9,58.5-5.7,87.8
		c-0.5,17.4-0.5,35.3,3.4,52.4c4.5,19.5,15.5,37.1,29.5,51.2c5,5,12.8-2.7,7.8-7.8c-8.2-8.2-15-17.6-20.2-28
		c-0.6-1.3-1.2-2.6-1.8-3.8c-0.1-0.3-0.3-0.6-0.4-0.9c0.4,1,0.1,0.2,0,0c-0.3-0.8-0.6-1.6-1-2.4c-1.1-2.9-2-5.8-2.7-8.7
		c-4-15.5-4.1-32.1-3.7-48.7c0.6-29.1,3.1-58.3,5.5-87.3c1.4-17.6,3.7-35.7,0.7-53.2c-4.5-26.5-18.6-51-36-71
		C172.2,83.3,164.5,91.1,169.1,96.4L169.1,96.4z"/>
	<path class="st1" d="M157.2,91.4c8.6,22.7,14.3,47,14.1,71.4c-0.2,23.6-4.8,47.1-7.2,70.6c-2.8,27.2-4.8,54.6-3.8,81.9
		c0.5,13.3,1.5,26.9,4.8,39.9c4.9,19.8,14.9,38.7,26.8,55.1c1.7,2.4,4.8,3.5,7.5,2c2.4-1.4,3.7-5.1,2-7.5
		c-10.9-15.2-20.2-32.3-25.1-50.4c-3.2-11.9-4.1-22-4.7-34.5c-1.3-26,0.4-52.1,2.8-77.9c2.3-24.5,6.9-49,7.9-73.6
		c1.1-27.1-4.8-54.5-14.4-79.8C165.3,81.9,154.7,84.8,157.2,91.4L157.2,91.4z"/>
	<path class="st2" d="M232.5,124.9c-4.4,1.4-8.9,2.9-13.3,4.3c0.2,3.9,0.4,7.9,0.7,11.8c-4.3,0.8-8.5,1.5-12.8,2.3
		c-1.2,3.5-2.5,6.9-3.7,10.4c-18.1-5.3-31.1-17.9-32.8-32.4c-0.5-5.3,0.3-10.6,2.4-15.4c0.8-2.9,0.3-5.9-1.3-8.4
		c-1.2-1.8-3-3.1-5.1-3.8c-1.9-1.2-4-1.7-6.2-1.5c-2.9,0.4-5.6,1.9-7.3,4.4c-2.4,4.7-5.9,8.8-10.3,11.7c-12.2,8-30.2,6.1-45.8-4.5
		c1.9-3.2,3.7-6.4,5.6-9.5c-2.1-3.8-4.3-7.5-6.4-11.3c3.2-2.3,6.3-4.7,9.5-7c-1.7-4.3-3.4-8.7-5.2-13c3.4-1.5,6.7-3,10.1-4.4
		c-1.1-4.6-2.1-9.1-3.2-13.7c3.7-1.3,7.3-2.5,11-3.8c-0.6-4.3-1.2-8.5-1.8-12.8c3.8-0.3,7.7-0.7,11.5-1c-0.5-4.2-0.9-8.4-1.4-12.6
		c3.9,0.4,7.8,0.7,11.6,1.1c1.7-4.2,3.3-8.4,5-12.6c7.8,3,14.7,7.8,20.2,14.1c4.8,5.5,11.8,13.5,11.6,23.8
		c-0.2,7.6-4.2,12.2-1.4,18.2c1.4,2.7,3.6,4.9,6.2,6.3c2.8,1.2,5.9,1.4,8.9,0.7c6.4-1.7,7.3-7.7,13.1-12.7
		c7.8-6.8,18.4-6.5,25.7-6.3c8.3,0.2,16.5,2.5,23.8,6.6c-2.2,4-4.3,7.9-6.5,11.9c2.8,2.8,5.5,5.5,8.3,8.3c-3.5,2.3-7.1,4.6-10.6,7
		c2.2,3.2,4.4,6.3,6.6,9.5c-3.7,2.3-7.3,4.5-11,6.8c1.4,3.6,2.7,7.2,4.1,10.9c-4.2,2.1-8.4,4.2-12.6,6.3
		C230.5,117.9,231.5,121.4,232.5,124.9z"/>
	<g>
		<defs>
			<path id="SVGID_1_" d="M232.5,124.9c-4.4,1.4-8.9,2.9-13.3,4.3c0.2,3.9,0.4,7.9,0.7,11.8c-4.3,0.8-8.5,1.5-12.8,2.3
				c-1.2,3.5-2.5,6.9-3.7,10.4c-18.1-5.3-31.1-17.9-32.8-32.4c-0.5-5.3,0.3-10.6,2.4-15.4c0.8-2.9,0.3-5.9-1.3-8.4
				c-1.2-1.8-3-3.1-5.1-3.8c-1.9-1.2-4-1.7-6.2-1.5c-2.9,0.4-5.6,1.9-7.3,4.4c-2.4,4.7-5.9,8.8-10.3,11.7c-12.2,8-30.2,6.1-45.8-4.5
				c1.9-3.2,3.7-6.4,5.6-9.5c-2.1-3.8-4.3-7.5-6.4-11.3c3.2-2.3,6.3-4.7,9.5-7c-1.7-4.3-3.4-8.7-5.2-13c3.4-1.5,6.7-3,10.1-4.4
				c-1.1-4.6-2.1-9.1-3.2-13.7c3.7-1.3,7.3-2.5,11-3.8c-0.6-4.3-1.2-8.5-1.8-12.8c3.8-0.3,7.7-0.7,11.5-1c-0.5-4.2-0.9-8.4-1.4-12.6
				c3.9,0.4,7.8,0.7,11.6,1.1c1.7-4.2,3.3-8.4,5-12.6c7.8,3,14.7,7.8,20.2,14.1c4.8,5.5,11.8,13.5,11.6,23.8
				c-0.2,7.6-4.2,12.2-1.4,18.2c1.4,2.7,3.6,4.9,6.2,6.3c2.8,1.2,5.9,1.4,8.9,0.7c6.4-1.7,7.3-7.7,13.1-12.7
				c7.8-6.8,18.4-6.5,25.7-6.3c8.3,0.2,16.5,2.5,23.8,6.6c-2.2,4-4.3,7.9-6.5,11.9c2.8,2.8,5.5,5.5,8.3,8.3c-3.5,2.3-7.1,4.6-10.6,7
				c2.2,3.2,4.4,6.3,6.6,9.5c-3.7,2.3-7.3,4.5-11,6.8c1.4,3.6,2.7,7.2,4.1,10.9c-4.2,2.1-8.4,4.2-12.6,6.3
				C230.5,117.9,231.5,121.4,232.5,124.9z"/>
		</defs>
		<clipPath id="SVGID_00000173127929577900438670000003842614359877566891_">
			<use xlink:href="#SVGID_1_"  style="overflow:visible;"/>
		</clipPath>
		<g style="clip-path:url(#SVGID_00000173127929577900438670000003842614359877566891_);">
			<path class="st4" d="M146.6,57.7c0.5,3.6,3,7.3,16.4,14.7c17.9,9.9,32.4,17.9,42,13c1.5-0.8,5.1-3,9.2-2.1
				c2.7,0.6,5.8,2.5,5.7,4.2c-0.3,3.2-11.7,3.3-12.7,8.1c-0.3,1.5,0.6,2.6-0.3,4.5c-0.7,1.5-2,2.5-3.5,2.9c-3.3,0.5-6.3-5-9.1-8.6
				c-3.3-4.2-10.5-7.4-24.8-13.8c-20-8.9-24.3-7.9-26.9-6.5c-0.4,0.2-4.2,2.4-4.4,5.6c-0.3,4.3,6.2,8.9,12.3,9.7
				c5.3,0.7,6.3-2,11.7-1.5c5,0.4,11.6,3.3,14.3,8.6c2.8,5.4-1.2,8.1,0.7,18.1c0.9,4.5,2.5,8.7,4.8,12.6c3.7,6.3,6.4,6.8,8.1,11.4
				c1.1,2.8,1.8,7.3-0.4,13.9l-30.1-28.5c-27-5.4-54-10.9-81.1-16.3c8.5-22.4,17-44.9,25.5-67.3c3.4-4.6,6.8-9.3,10.2-13.9l17.5,6.4
				c-0.3-4.2-0.5-8.4-0.8-12.6l12.8,2.7c0.6-4.2,1.1-8.5,1.7-12.7c0.5-3.4,1-6.9,1.5-10.3c22.2,7.6,28.6,16.3,30.1,23.3
				c1.8,8.6-3.5,17.6,1.3,31.2c1.3,3.8,3.1,6.8,5.5,7.2c2.6,0.4,4.7-2.2,8-5.4c4.3-4.1,9-7.7,14-10.9c4.5-2.8,12.2-4.7,26,0
				c-6.4,1.1-12.4,3.6-17.8,7.3c-4.8,3.4-8.9,7.5-12.2,12.3c-3.6,5.2-2.8,6-5.2,8.1c-5.5,4.9-16.6,5.8-23.7,1.1
				c-5.9-3.9-4.4-8.5-14.5-19.7c-4.7-5.2-6.8-6.2-8.3-5.7C147.4,49.4,146.1,54.1,146.6,57.7z"/>
		</g>
	</g>
	<path class="st5" d="M232.5,124.9c-4.4,1.4-8.9,2.9-13.3,4.3c0.2,3.9,0.4,7.9,0.7,11.8c-4.3,0.8-8.5,1.5-12.8,2.3
		c-1.2,3.5-2.5,6.9-3.7,10.4c-18.1-5.3-31.1-17.9-32.8-32.4c-0.5-5.3,0.3-10.6,2.4-15.4c0.8-2.9,0.3-5.9-1.3-8.4
		c-1.2-1.8-3-3.1-5.1-3.8c-1.9-1.2-4-1.7-6.2-1.5c-2.9,0.4-5.6,1.9-7.3,4.4c-2.4,4.7-5.9,8.8-10.3,11.7c-12.2,8-30.2,6.1-45.8-4.5
		c1.9-3.2,3.7-6.4,5.6-9.5c-2.1-3.8-4.3-7.5-6.4-11.3c3.2-2.3,6.3-4.7,9.5-7c-1.7-4.3-3.4-8.7-5.2-13c3.4-1.5,6.7-3,10.1-4.4
		c-1.1-4.6-2.1-9.1-3.2-13.7c3.7-1.3,7.3-2.5,11-3.8c-0.6-4.3-1.2-8.5-1.8-12.8c3.8-0.3,7.7-0.7,11.5-1c-0.5-4.2-0.9-8.4-1.4-12.6
		c3.9,0.4,7.8,0.7,11.6,1.1c1.7-4.2,3.3-8.4,5-12.6c7.8,3,14.7,7.8,20.2,14.1c4.8,5.5,11.8,13.5,11.6,23.8
		c-0.2,7.6-4.2,12.2-1.4,18.2c1.4,2.7,3.6,4.9,6.2,6.3c2.8,1.2,5.9,1.4,8.9,0.7c6.4-1.7,7.3-7.7,13.1-12.7
		c7.8-6.8,18.4-6.5,25.7-6.3c8.3,0.2,16.5,2.5,23.8,6.6c-2.2,4-4.3,7.9-6.5,11.9c2.8,2.8,5.5,5.5,8.3,8.3c-3.5,2.3-7.1,4.6-10.6,7
		c2.2,3.2,4.4,6.3,6.6,9.5c-3.7,2.3-7.3,4.5-11,6.8c1.4,3.6,2.7,7.2,4.1,10.9c-4.2,2.1-8.4,4.2-12.6,6.3
		C230.5,117.9,231.5,121.4,232.5,124.9z"/>
	<path class="st6" d="M150.2,57.7c15.2,13.5,34.2,22.1,54.3,24.7C183.6,82.8,163.7,73.7,150.2,57.7z"/>
	<path class="st6" d="M161,56.7c3.5,10.7,13,18.8,24.5,18.4c3.7-0.1,7.4-0.8,10.9-2.1c-1.6,1.1-3.3,1.9-5.2,2.5
		c-11.7,4.3-24.7-1.7-29-13.4C161.6,60.4,161.2,58.6,161,56.7z"/>
	<path class="st6" d="M141.9,76.9c20.9,0.2,40.6,9.7,53.7,26C180.7,89.1,162,80,141.9,76.9z"/>
	<path class="st6" d="M148,85.9c10.4-6.9,24.4-4.1,31.4,6.2c1,1.6,1.9,3.2,2.5,5c0.7,1.8,1.2,3.7,1.4,5.6c-1.3-3.5-3.1-6.8-5.4-9.7
		C170.9,83.9,158.5,81.7,148,85.9L148,85.9z"/>
	<path class="st7" d="M59.1,180.8c-4.7-0.2-9.3,1.4-12.9,4.4c-1.3,1.1-4,3.6-4.7,7.3c-1.3,7.3,5.9,17,12.9,15.9
		c4.1-0.7,7.5-5,8.9-10.3L59.1,180.8z"/>
	<path class="st7" d="M62.1,197c-1.9-3.8-5.6-6-9.1-5.6c-1.9,0.3-3.6,1.2-4.9,2.6"/>
	<path class="st7" d="M196.4,180.8c4.7-0.2,9.3,1.4,12.9,4.4c1.3,1.1,4,3.6,4.7,7.3c1.3,7.3-5.9,17-12.9,15.9
		c-4.1-0.7-7.5-5-8.9-10.3L196.4,180.8z"/>
	<path class="st7" d="M193.4,197c1.9-3.8,5.6-6,9.1-5.6c1.9,0.3,3.6,1.2,4.9,2.6"/>
	<path class="st8" d="M208,344l-47,158h-30.7V397.9h-3.7V502H95.9l-47-158c-5.4-48,26.8-90.5,68.6-90.5h22
		C181.2,253.5,213.4,296.1,208,344z"/>
	<polyline class="st9" points="108.3,255 108.3,227.2 147.9,227.2 147.9,255 	"/>
	<g class="st10">
		<path class="st11" d="M64.5,137.9c-5.9-16.8,7.1-31.7,22.2-37.1c14.5-5.4,30.5-5.1,44.7,0.8c-15,2.4-29.6,4-43.4,9.6
			C75.7,116.5,67.3,124.3,64.5,137.9L64.5,137.9z"/>
	</g>
	<path class="st1" d="M198.5,167.1c9.3-7.9,10.4-21.8,2.5-31.1c-0.9-1.1-1.9-2.1-3-2.9c3.5-15.2-5.7-30.5-20.7-34.7
		c-3-5.7-7.5-10.5-13.1-13.7c-7-4-15.1-5.4-23-4c-3.7-2-7.8-3.2-11.9-3.7c-7.5-0.8-15.1,0.9-21.7,4.7c-6.4-0.6-12.8,0.6-18.5,3.6
		c-13.7,7.3-16.8,22-17.2,24.1c-1.7,0.7-8,3.3-10.5,9.7c-3.1,7.9,0.8,18.4,10.2,24.4c1.6-1.7,30-31.2,70.9-23
		C182.4,128.2,197.5,164.5,198.5,167.1z"/>
	<path class="st12" d="M203.3,175c0,41.7-33.8,67.9-75.5,67.9S52.2,216.7,52.2,175S86,91.8,127.8,91.8S203.3,133.3,203.3,175z"/>
	<g>
		<defs>
			<path id="SVGID_00000132782280332147691340000012894935147630043532_" d="M203.3,175c0,41.7-33.8,67.9-75.5,67.9
				S52.2,216.7,52.2,175S86,91.8,127.8,91.8S203.3,133.3,203.3,175z"/>
		</defs>
		<clipPath id="SVGID_00000142859508129200587850000015668153996480115860_">
			<use xlink:href="#SVGID_00000132782280332147691340000012894935147630043532_"  style="overflow:visible;"/>
		</clipPath>
		<g style="clip-path:url(#SVGID_00000142859508129200587850000015668153996480115860_);">
			<path class="st14" d="M96,96.7c-8,7-29.5,29-36.6,58.4c-2.7,11.4-1.9,35.2,5.8,50.1c17.7,34.1,61.6,37.7,64.8,37.9
				c-2.9,3.3-5.7,6.6-8.6,10c-2.7,0.5-48,7.6-75.9-24.7c-26.7-30.8-20.9-78.4,3-105.8C65.1,104,86.7,98.5,96,96.7z"/>
		</g>
	</g>
	<path class="st15" d="M203.3,175c0,41.7-33.8,67.9-75.5,67.9S52.2,216.7,52.2,175S86,91.8,127.8,91.8S203.3,133.3,203.3,175z"/>
	<path class="st16" d="M59.2,163.2l8.9,3.6"/>
	<path class="st16" d="M191.2,163.2l-8.9,3.6"/>
	<path class="st17" d="M110.9,166.3c3.1,12-5.4,24.6-19,28s-23.6-4.4-26.6-16.4s2-23.7,15.6-27.1S107.8,154.2,110.9,166.3z"/>
	<circle class="st18" cx="91.4" cy="169.3" r="11.7"/>
	<polygon class="st17" points="88.2,169.2 70,173.8 79.1,179.1 	"/>
	<path class="st19" d="M65.3,177.9c3.2,11.4,13.7,17.8,25.3,16.1c3.7-0.5,7.2-1.8,10.4-3.8c-2.9,2.6-6.4,4.3-10.2,5.1
		C78.8,197.9,66.6,190.4,65.3,177.9L65.3,177.9z"/>
	<path class="st19" d="M64.4,170.9c-1.9-21.1,26.2-29.2,40.3-16.4c4.5,4.1,7,10.1,6.8,16.2c-0.9-5.7-3.8-10.8-8.3-14.4
		C89.6,145.8,65.9,152.2,64.4,170.9L64.4,170.9z"/>
	<path class="st17" d="M140.2,166.3c-3.1,12,5.4,24.6,19,28s23.6-4.4,26.6-16.4s-2-23.7-15.6-27.1S143.3,154.2,140.2,166.3z"/>
	<circle class="st18" cx="158.9" cy="169.3" r="11.7"/>
	<polygon class="st17" points="155.5,169.2 141.9,172.7 146.4,179.1 	"/>
	<path class="st19" d="M185.8,177.9c-1.3,12.5-13.5,20.1-25.5,17.4c-3.8-0.8-7.3-2.5-10.2-5.1c3.2,1.9,6.7,3.2,10.4,3.8
		C172.1,195.7,182.6,189.2,185.8,177.9L185.8,177.9z"/>
	<path class="st19" d="M186.7,170.9c-1.5-18.7-25.1-25.1-38.8-14.6c-4.5,3.6-7.4,8.8-8.3,14.4c-0.2-6.1,2.3-12.1,6.8-16.2
		C160.5,141.7,188.5,149.8,186.7,170.9L186.7,170.9z"/>
	
		<ellipse transform="matrix(3.336401e-02 -0.9994 0.9994 3.336401e-02 -127.1951 272.9755)" class="st20" cx="77.5" cy="202.2" rx="6.6" ry="11"/>
	
		<ellipse transform="matrix(3.336401e-02 -0.9994 0.9994 3.336401e-02 -32.269 371.1234)" class="st20" cx="175.7" cy="202.2" rx="6.6" ry="11"/>
	<path class="st19" d="M105.2,206c14.3,6.2,30.8,4,42.9-5.8C138.7,213.6,117.7,216.4,105.2,206z"/>
	<path class="st21" d="M125.2,81.8c-8.4,3.2-14.8,10.1-17.4,18.6c-2.2,6.8,8.4,9.6,10.6,2.9l0,0c0.5-1.8,1.4-3.5,2.6-5
		c2-3,5-5.2,8.4-6.3c5.4-1.8,11.6-0.5,16.3,2.6"/>
	<path class="st22" d="M125.2,81.8c-5.7,2.7-10.4,7.2-13.5,12.7c-1.2,2.5-2.9,5.3-2.8,8.1c0.4,2.4,3.5,3.6,5.6,2.8
		c2.1-0.6,2.5-2.9,3.3-4.7c5.2-11,18.5-13.5,27.8-6.1c-10.3-5.4-22.4-2.1-26,9.5c-0.7,2-2.2,3.5-4.1,4.2c-3.9,1.3-8.8-0.9-9.3-5.2
		c-0.2-3.5,1.9-6.8,3.6-9.7C113.3,87.7,118.8,83.6,125.2,81.8z"/>
	<path class="st21" d="M165.9,94.5c-3.5,6-6.8,5.2-12.1,2.6c-5.9-3-11.3,5.9-5.3,8.9l0,0c11,5.5,21.3,4.6,27.6-6.1"/>
	<path class="st22" d="M165.9,94.5c-2.4,5.8-6.5,6.4-11.9,3.9c-0.5-0.2-1.1-0.4-1.6-0.6c-3.1-0.8-6.4,3.2-4.5,5.9
		c0.5,0.5,1.1,1,1.8,1.2c2.2,1.1,4.5,2,7,2.5c7.7,2,14.8-1.2,19.4-7.6c-5.1,11.7-17.2,13-27.6,7.7c-5.4-2.2-5-9-0.1-11.6
		c1.8-1,3.9-1,5.7,0C159.2,98.9,162.1,99.7,165.9,94.5L165.9,94.5z"/>
	<path class="st21" d="M175.2,99.8c-1.8,6.3-6.5,10.6-11.8,10.4c-1.8-0.1-3.4,1.1-3.5,3.7c-0.1,2.2,1.3,5,3.1,5.1l0,0
		c8.4,0.4,15.5-5.4,18.5-15.6"/>
	<path class="st22" d="M175.2,99.8c-0.8,5.7-5.4,11.7-11.8,11.5c-3.2,0-2.6,5.4-0.4,6.4c8.9,0.6,15.3-6.4,18.5-14.3
		c-1.3,9-8.5,17.4-18.3,16.9c-4.7-0.2-6.2-8.2-2.5-10.6c0.9-0.6,2.1-0.8,3.2-0.7C169.3,109.2,173.3,104.5,175.2,99.8L175.2,99.8z"/>
	<path class="st21" d="M164.1,88.5c-12.4-5.5-28.9-5-34.9,9.2c-1.2,2.8-0.8,5.9,2,7.5c2.3,1.4,6.4,0.8,7.5-2l0,0
		c3.5-8.3,12.4-8.6,19.9-5.2"/>
	<path class="st22" d="M164.1,88.5c-11.9-4.3-28.2-3.5-33.6,9.7c-2.1,4.4,2.1,8,6.1,5.6c0.9-0.6,1.2-1.8,1.8-2.7
		c4.3-7.2,13.7-6.9,20.2-3.1c-5.9-2.1-13.8-2.4-17.5,3.3c-0.4,0.6-0.8,1.3-1.1,2c-1.1,3.1-4.7,4.4-7.7,3.8c-2.1-0.5-3.9-2-4.7-4
		c-1.9-5.2,2.9-11.4,6.8-14.5C143,82.1,155.4,83.6,164.1,88.5L164.1,88.5z"/>
	<path class="st19" d="M81.3,138.6c8.1-5.8,21.2-2.9,26,5.8C99.8,139.1,90.5,137,81.3,138.6z"/>
	<path class="st19" d="M166.1,134.8c-9.1-1.6-18.5,0.5-26,5.8C144.9,131.9,158,129,166.1,134.8z"/>
	<circle class="st23" cx="126.6" cy="311.4" r="30"/>
	<path class="st24" d="M138,316L138,316L138,316C138,316,138,316,138,316z"/>
	<path class="st24" d="M138,316C138,316,138,316,138,316L138,316L138,316L138,316z"/>
	<path class="st2" d="M131.2,312.9c-0.6-0.5-1.1-1.1-1.5-1.7l-0.2,0c-1.3,0.3-2.7,0.5-4.1,0.7c0.5,1.1,1.4,2.1,2.5,2.7
		c1.2,0.7,2.5,1,3.6,1.8c0,0-0.1,0-0.1,0.1c0.2,0,0.4-0.1,0.6-0.1c0.1,0,0.3-0.1,0.4-0.1l0.1,0l0,0l0,0l0.2,0
		c0.5-0.1,1.1-0.2,1.6-0.4c0.7-0.2,1.5-0.5,2.2-0.6c0.7-0.2,1.7-0.3,2.2,0.4c0.1,0.2,0.1,0.5-0.1,0.6c-0.2,0.1-0.5,0.1-0.6-0.1l0,0
		l0,0l0,0c0,0,0,0,0,0c0,0,0,0-0.1,0c-0.1,0,0,0,0,0l0,0l0,0c0,0,0,0-0.1,0c0,0-0.1,0-0.1,0c0,0-0.1,0-0.1,0l0,0c-0.2,0-0.4,0-0.5,0
		c-0.1,0-0.2,0-0.3,0.1l-0.1,0c0,0-0.1,0-0.1,0c-0.2,0.1-0.4,0.1-0.6,0.2c-0.4,0.1-0.7,0.2-1.1,0.3c-0.1,0-0.2,0.1-0.3,0.1
		c0.1,0.1,0.1,0.2,0.2,0.2c0.1,0.1,0.1,0.2,0.2,0.2c0,0,0.1,0.1,0.1,0.1l0,0l0,0c0.3,0.3,0.6,0.6,1,0.9c0.1,0.1,0.2,0.1,0.3,0.2
		c0.1,0,0.1,0.1,0.2,0.1c0,0,0.1,0,0.1,0l0,0c0.2,0.1,0.4,0.2,0.6,0.3c0.2,0.1,0.3,0.2,0.5,0.2c0.1-0.1,0.1-0.2,0.2-0.3
		c0.3-0.5,0.5-1,0.8-1.4c0.1-0.3,0.3-0.6,0.4-0.9l0,0l0,0c0,0,0-0.1,0-0.1c0-0.1,0-0.2,0.1-0.2c0-0.1,0-0.2,0-0.2c0,0,0-0.1,0,0
		c0,0,0-0.1,0-0.1c0-0.1,0-0.1,0-0.2c0,0,0-0.1,0-0.1l0,0l0,0c0-0.1,0-0.1-0.1-0.2c0,0,0-0.1,0-0.1l0,0c0,0,0-0.1-0.1-0.1l0,0
		c0,0-0.1-0.1-0.1-0.1c0,0,0,0-0.1-0.1l0,0l0,0c0,0-0.1-0.1-0.1-0.1c0,0-0.1,0-0.1-0.1l0,0l0,0c0,0-0.1,0-0.1,0
		c-0.1,0-0.2-0.1-0.4-0.1c-0.1,0-0.1,0-0.2,0c0,0,0,0,0,0c0,0-0.1,0-0.1,0c-0.1,0-0.3,0-0.4,0c-0.6,0-1.1,0.1-1.7,0.1
		c-0.6,0-1.2-0.1-1.7-0.3C132.9,314.1,132,313.6,131.2,312.9z"/>
	<path class="st24" d="M132.6,312.8L132.6,312.8C132.6,312.8,132.5,312.8,132.6,312.8z"/>
	<path class="st24" d="M141.9,321.7C141.9,321.7,141.9,321.7,141.9,321.7L141.9,321.7C141.8,321.7,141.9,321.7,141.9,321.7
		L141.9,321.7z"/>
	<path class="st24" d="M136.5,318.6L136.5,318.6C136.6,318.6,136.5,318.5,136.5,318.6z"/>
	<path class="st24" d="M125,299.1L125,299.1L125,299.1L125,299.1z"/>
	<path class="st24" d="M130.1,304.6C130.1,304.6,130.1,304.6,130.1,304.6L130.1,304.6L130.1,304.6L130.1,304.6z"/>
	<path class="st24" d="M125,299.1L125,299.1C125,299.1,125,299.1,125,299.1z"/>
	<path class="st2" d="M135.2,318.6c-0.6-0.5-1.1-1.1-1.5-1.7l-0.2,0c-1.4,0.3-2.7,0.6-4.1,0.7c0.5,1.3,1.4,2.4,2.6,3.1
		c1,0.4,2,0.9,2.9,1.5c0.1,0,0.3,0,0.4-0.1c0.3,0,0.5-0.1,0.8-0.1c0.2,0,0.3-0.1,0.5-0.1c0.1,0,0.1,0,0.2,0l0,0l0,0l0.1,0
		c0.1,0,0.3-0.1,0.4-0.1l0,0c0,0,0.1,0,0.1,0c0.3-0.1,0.6-0.1,0.9-0.2c0.8-0.2,1.5-0.5,2.2-0.6c0.7-0.1,1.6-0.2,2.1,0.4
		c0.1,0.2,0.1,0.5-0.1,0.6c-0.2,0.1-0.5,0.1-0.6-0.1l0,0l0,0l0,0c0,0,0,0,0,0c0,0,0,0-0.1,0c0,0,0,0-0.1,0c0,0,0,0-0.1,0
		c0,0-0.1,0-0.1,0l0,0c0,0-0.1,0-0.1,0c0,0,0,0-0.1,0c0,0-0.1,0-0.1,0c-0.1,0-0.2,0-0.2,0c-0.1,0-0.2,0-0.3,0c0,0-0.2,0,0,0
		c0,0-0.1,0-0.1,0c-0.2,0-0.4,0.1-0.6,0.2c-0.4,0.1-0.7,0.2-1.1,0.3c-0.3,0.1-0.6,0.2-0.9,0.2c0,0.1,0.1,0.1,0.1,0.2
		c0,0,0.1,0.2,0,0c0,0,0,0.1,0,0.1c0,0.1,0.1,0.1,0.1,0.2c0.1,0.2,0.2,0.3,0.3,0.5c0,0,0,0,0.1,0.1l0,0c0,0,0.1,0.1,0.1,0.1
		c0.1,0.1,0.1,0.1,0.2,0.2c0.1,0.1,0.2,0.1,0.3,0.2c0,0,0.1,0.1,0.1,0.1c0,0,0.1,0.1,0.1,0.1c0.2,0.1,0.4,0.2,0.6,0.3
		c0.1,0,0.2,0.1,0,0c0,0,0.1,0,0.1,0c0.1,0,0.2,0.1,0.3,0.1c0.3,0.1,0.7,0.2,1,0.3c0.1-0.1,0.1-0.2,0.2-0.4c0.3-0.5,0.5-1,0.8-1.4
		c0.1-0.3,0.3-0.6,0.4-0.9l0,0l0,0c0,0,0-0.1,0-0.1c0-0.1,0-0.2,0.1-0.2c0-0.1,0-0.2,0-0.2c0,0,0-0.1,0,0c0,0,0-0.1,0-0.1
		c0-0.1,0-0.1,0-0.2c0,0,0-0.1,0-0.1l0,0l0,0c0-0.1,0-0.1-0.1-0.2c0,0,0-0.1,0-0.1l0,0c0,0,0-0.1-0.1-0.1l0,0c0,0-0.1-0.1-0.1-0.1
		c0,0,0,0-0.1-0.1l0,0l0,0c0,0-0.1-0.1-0.1-0.1c0,0-0.1,0-0.1-0.1l0,0l0,0c0,0-0.1,0-0.1,0c-0.1,0-0.2-0.1-0.4-0.1
		c-0.1,0-0.1,0-0.2,0c0,0,0,0,0,0c0,0-0.1,0-0.1,0c-0.1,0-0.3,0-0.4,0c-0.6,0-1.1,0.1-1.7,0.1c-0.6,0-1.2-0.1-1.7-0.3
		C136.8,319.8,135.9,319.3,135.2,318.6z"/>
	<path class="st2" d="M121.8,299.7c-0.2,0.1-0.4,0.1-0.6,0.2c-0.4,0.2-0.9,0.3-1.4,0.4c0.2,0.5,0.3,0.5,3.7,3.5
		c0.2,0.2,0.5,0.5,0.4,0.7c0,0.1-0.2,0.2-0.3,0.3c0.4-0.1,0.8-0.1,1.3-0.2c0.1,0,0.3-0.1,0.4-0.1c0.1,0,0.1,0,0.2,0l0.1,0l0.1,0
		c0.3-0.1,0.5-0.1,0.8-0.2c0.7-0.2,1.5-0.5,2.2-0.6c0.7-0.2,1.7-0.3,2.2,0.4c0.1,0.2,0.1,0.5-0.1,0.6c-0.2,0.1-0.5,0.1-0.6-0.1l0,0
		l0,0c0,0,0,0,0,0c0,0,0,0-0.1,0c-0.1,0,0,0,0,0l0,0l0,0c0,0,0,0-0.1,0c0,0-0.1,0-0.1,0c0,0-0.1,0-0.1,0l0,0c0,0,0,0,0,0
		c-0.2,0-0.3,0-0.5,0c-0.1,0-0.2,0-0.3,0.1l-0.1,0c0,0-0.1,0-0.1,0c-0.2,0-0.4,0.1-0.6,0.2c-0.4,0.1-0.7,0.2-1.1,0.3
		c-0.1,0-0.2,0.1-0.3,0.1c0.1,0.1,0.1,0.2,0.2,0.3c0.1,0.1,0.1,0.2,0.2,0.2c0,0,0.1,0.1,0.1,0.1l0,0l0,0c0.3,0.3,0.6,0.6,1,0.9
		c0.1,0.1,0.2,0.1,0.3,0.2c0.1,0,0.1,0.1,0.2,0.1c0,0,0.1,0,0.1,0l0,0c0.2,0.1,0.4,0.2,0.6,0.3c0.2,0.1,0.3,0.1,0.5,0.2
		c0.2-0.3,0.4-0.7,0.6-1c0.2-0.3,0.3-0.6,0.5-0.9c0.1-0.2,0.1-0.3,0.2-0.5c0-0.1,0.1-0.2,0.1-0.2l0,0l0,0c0,0,0-0.1,0-0.1
		c0-0.2,0.1-0.3,0.1-0.5c0,0,0-0.1,0,0l0-0.1c0,0,0-0.1,0-0.1c0-0.1,0-0.1,0-0.2c0,0,0-0.1,0-0.1c0-0.1,0,0,0,0c0,0,0-0.1,0-0.1
		c0-0.1,0-0.1-0.1-0.2l0,0c0,0,0,0,0,0l0,0c0,0,0-0.1-0.1-0.1c0,0,0-0.1-0.1-0.1l0,0c-0.1,0-0.1-0.1-0.2-0.1l0,0c0,0,0,0-0.1,0
		c-0.1,0-0.1-0.1-0.2-0.1l0,0l0,0l0,0c-0.1,0-0.3-0.1-0.4-0.1c-0.1,0-0.1,0-0.2,0l0,0c0,0-0.1,0-0.1,0c-0.6,0-1.1,0.1-1.7,0.1
		c-1.7,0.1-3.4-0.5-4.7-1.7C122.8,301,122.2,300.4,121.8,299.7z"/>
	<path class="st24" d="M126.8,297.3L126.8,297.3C126.8,297.3,126.8,297.3,126.8,297.3z"/>
	<path class="st24" d="M139,315L139,315L139,315z"/>
	<path class="st24" d="M127.1,298C127.1,298,127.1,298,127.1,298L127.1,298z"/>
	<path class="st24" d="M131.1,303.7C131.1,303.6,131.1,303.6,131.1,303.7L131.1,303.7z"/>
	<path class="st24" d="M133.6,310.2L133.6,310.2L133.6,310.2C133.6,310.2,133.6,310.2,133.6,310.2z"/>
	<path class="st24" d="M134.5,308.9L134.5,308.9C134.5,308.9,134.5,308.9,134.5,308.9z"/>
	<path class="st24" d="M133.7,310.2L133.7,310.2L133.7,310.2L133.7,310.2z"/>
	<path class="st24" d="M134.1,310.3C134.1,310.3,134.1,310.3,134.1,310.3L134.1,310.3L134.1,310.3L134.1,310.3z"/>
	<path class="st24" d="M134,310.3L134,310.3L134,310.3C134,310.3,134,310.3,134,310.3z"/>
	<path class="st24" d="M135,309.3L135,309.3L135,309.3z"/>
	<path class="st2" d="M127.3,307.2c-0.6-0.5-1.1-1.1-1.6-1.8c-0.1,0-0.2,0-0.3,0.1c-1,0.2-2.1,0.4-3.2,0.4c0,0.1,0,0.1,0,0.2
		c0.1,0.4,0.3,0.7,0.6,0.9c1.3,1.5,2.9,2.7,4.6,3.6c-0.1,0-0.1,0.1-0.2,0.1c0.5-0.1,1-0.2,1.4-0.3l0,0l0,0l0.1,0c0.1,0,0.1,0,0.2,0
		c0.1,0,0.3-0.1,0.4-0.1c0.3-0.1,0.5-0.1,0.8-0.2c0.7-0.2,1.5-0.5,2.2-0.6c0.7-0.2,1.7-0.3,2.2,0.4c0.1,0.2,0.1,0.5-0.1,0.6
		c-0.2,0.1-0.5,0.1-0.6-0.1l0,0l0,0c0,0,0,0,0,0c0,0,0,0-0.1,0c-0.1,0,0,0,0,0l0,0l0,0c0,0,0,0-0.1,0c0,0-0.1,0-0.1,0
		c0,0-0.1,0-0.1,0l0,0c0,0,0,0,0,0c-0.2,0-0.3,0-0.5,0c-0.1,0-0.2,0-0.3,0.1l-0.1,0c0,0-0.1,0-0.1,0c-0.2,0-0.4,0.1-0.6,0.2
		c-0.4,0.1-0.7,0.2-1.1,0.3c-0.1,0-0.2,0.1-0.3,0.1c0.1,0.1,0.1,0.2,0.2,0.2c0.1,0.1,0.1,0.2,0.2,0.2c0,0,0.1,0.1,0.1,0.1l0,0l0,0
		c0.3,0.3,0.6,0.6,1,0.9c0.1,0.1,0.2,0.1,0.3,0.2c0.1,0,0.1,0.1,0.2,0.1c0,0,0.1,0,0.1,0l0,0c0.2,0.1,0.4,0.2,0.6,0.3
		c0.2,0.1,0.3,0.2,0.5,0.2c0.1-0.1,0.1-0.2,0.2-0.3c0.3-0.5,0.5-1,0.8-1.4c0.1-0.3,0.3-0.6,0.4-0.9l0,0l0,0c0,0,0-0.1,0-0.1
		c0-0.1,0-0.2,0.1-0.2c0-0.1,0-0.2,0-0.2c0,0,0-0.1,0,0c0,0,0-0.1,0-0.1c0-0.1,0-0.1,0-0.2c0,0,0-0.1,0-0.1l0,0l0,0
		c0-0.1,0-0.1-0.1-0.2c0,0,0-0.1,0-0.1l0,0c0,0,0-0.1-0.1-0.1l0,0c0,0-0.1-0.1-0.1-0.1c0,0,0,0-0.1-0.1l0,0l0,0c0,0-0.1-0.1-0.1-0.1
		c0,0-0.1,0-0.1-0.1l0,0l0,0c0,0-0.1,0-0.1,0c-0.1,0-0.2-0.1-0.4-0.1c-0.1,0-0.1,0-0.2,0c0,0,0,0,0,0c0,0-0.1,0-0.1,0
		c-0.1,0-0.3,0-0.4,0c-0.6,0-1.1,0.1-1.7,0.1c-0.6,0-1.2-0.1-1.7-0.3C128.9,308.3,128,307.8,127.3,307.2z"/>
	<path class="st24" d="M129.7,304.5L129.7,304.5L129.7,304.5C129.7,304.5,129.7,304.5,129.7,304.5z"/>
	<polygon class="st24" points="131.1,303.7 131.1,303.7 131.1,303.7 	"/>
	<path class="st24" d="M129.7,304.5L129.7,304.5L129.7,304.5L129.7,304.5z"/>
	<path class="st24" d="M130,304.5L130,304.5L130,304.5C130.1,304.6,130,304.5,130,304.5z"/>
	<path class="st24" d="M128.6,307.1L128.6,307.1C128.6,307.1,128.6,307.1,128.6,307.1z"/>
	<path class="st24" d="M130.5,303.2L130.5,303.2C130.5,303.2,130.5,303.2,130.5,303.2z"/>
	<path class="st24" d="M138.4,314.7L138.4,314.7C138.5,314.7,138.4,314.7,138.4,314.7z"/>
	<path class="st24" d="M142.4,320.4L142.4,320.4C142.4,320.4,142.4,320.4,142.4,320.4z"/>
	<path class="st24" d="M141.6,321.7C141.6,321.6,141.6,321.7,141.6,321.7C141.6,321.7,141.6,321.7,141.6,321.7L141.6,321.7z"/>
	<path class="st24" d="M142.9,320.7L142.9,320.7L142.9,320.7z"/>
	<path class="st2" d="M145,327.2L145,327.2C145,327.2,145,327.2,145,327.2L145,327.2L145,327.2c0-0.1,0-0.1,0-0.2
		c0,0-0.1-0.1-0.1-0.1c0,0-0.2-0.1-0.1,0c0,0-0.1-0.1-0.1-0.1c-0.1-0.1-0.2-0.1-0.3-0.2c-0.2-0.1-0.5-0.2-0.8-0.3
		c-0.1-0.1-0.3-0.1-0.4-0.1l-0.1,0l-0.1,0c-0.1,0-0.2,0-0.2-0.1c-0.6-0.2-1.2-0.3-1.7-0.5c-0.5-0.1-1-0.3-1.5-0.4
		c-0.8-0.3-1.5-1-2-1.7c-0.2-0.3-0.3-0.5-0.4-0.8c-1.4,0.3-2.8,0.5-4.2,0.7c0.9,2.7,3.7,4.2,6.3,5.4c0.7-0.1,1.3-0.2,1.9-0.3
		c0.1,0,0.3-0.1,0.4-0.1c0.1,0,0.1,0,0.2,0l0,0l0.1,0c0.3-0.1,0.5-0.1,0.8-0.2c0.4-0.1,0.9-0.2,1.3-0.4c0.2-0.1,0.3-0.1,0.5-0.2l0,0
		c0,0,0.1,0,0.1-0.1c0.1,0,0.1-0.1,0.2-0.1C144.9,327.3,144.9,327.3,145,327.2L145,327.2z"/>
	<polygon class="st24" points="141.6,321.7 141.6,321.7 141.6,321.7 	"/>
	<path class="st24" d="M141.9,321.7L141.9,321.7L141.9,321.7C141.9,321.7,141.9,321.7,141.9,321.7z"/>
	<path class="st24" d="M145,327.2L145,327.2L145,327.2L145,327.2z"/>
	<path class="st24" d="M145,327.1C145,327.1,145,327.1,145,327.1z"/>
	<path class="st24" d="M145,327.2L145,327.2C144.9,327.3,144.9,327.3,145,327.2z"/>
	<path class="st2" d="M135,329.8c-0.3,0.2-0.5,0.6-0.5,1.1c0.1,0.4,0.3,0.7,0.4,1.1c0.1,0.3,0.1,0.6-0.1,0.8
		c0.1-0.1,0.2-0.2,0.3-0.2c0.8-0.8,1.6-1.7,2.2-2.7c-0.3,0-0.6,0-0.9,0C135.9,329.8,135.4,329.8,135,329.8z"/>
	<path class="st24" d="M141.8,321.7L141.8,321.7L141.8,321.7C141.8,321.7,141.8,321.7,141.8,321.7z"/>
	<path class="st2" d="M118.7,295.8L118.7,295.8c-0.5-0.1-1-0.3-1.5-0.5c0,0.1,0.1,0.3,0.1,0.4c0.6,1.5,1.9,1.5,2.8,2.7
		c0.1,0.2,0.2,0.4,0.1,0.6c-0.1,0.1-0.2,0.1-0.2,0.2c-0.1,0-0.1,0.1-0.1,0.2c0.8-0.2,1.5-0.5,2.3-0.8c0.4-0.1,0.9-0.3,1.3-0.4
		c0.3-0.1,0.7-0.1,1.1-0.2c0.5-0.1,1.1,0.2,1.4,0.6c0.1,0.2,0.1,0.5-0.1,0.6s-0.5,0.1-0.6-0.1l0,0c0,0,0,0,0,0c0,0,0,0-0.1-0.1
		c0,0,0,0,0,0c0,0,0,0,0,0c0,0,0,0-0.1,0l0,0c0,0-0.1,0-0.1,0c-0.1,0-0.1,0-0.2,0l0,0h0c0,0-0.1,0-0.1,0c-0.1,0-0.1,0-0.2,0
		c-0.2,0-0.3,0-0.5,0.1c-0.1,0-0.1,0-0.2,0l0,0c-0.1,0-0.2,0-0.3,0.1c-0.2,0.1-0.5,0.1-0.7,0.2c-0.1,0-0.1,0-0.2,0.1
		c0.1,0.1,0.1,0.2,0.2,0.3c0.1,0.1,0.1,0.2,0.2,0.3c0,0,0.1,0.1,0.1,0.1l0.1,0.1c0.3,0.3,0.7,0.7,1.1,0.9c0.1,0.1,0.2,0.1,0.3,0.2
		l0.1,0c0,0,0,0,0,0c0.1,0,0.1,0.1,0.2,0.1c0.2,0.1,0.5,0.3,0.7,0.4c0.1,0,0.1,0.1,0.2,0.1c0.1-0.1,0.1-0.2,0.2-0.3l0-0.1l0,0l0,0
		l0-0.1c0-0.1,0.1-0.1,0.1-0.2c0.1-0.1,0.2-0.3,0.3-0.4c0.2-0.3,0.3-0.6,0.4-0.9c0.1-0.1,0.1-0.3,0.2-0.4c0,0,0-0.1,0-0.1
		c0,0,0-0.1,0-0.1c0-0.1,0-0.1,0-0.2c0-0.1,0.1-0.3,0.1-0.4c0,0,0-0.1,0-0.1c0,0,0,0,0-0.1c0-0.1,0-0.1,0-0.2c0-0.1,0-0.2,0-0.2
		c0,0,0-0.1,0-0.1l0,0l0,0c0-0.1-0.1-0.3-0.1-0.3l0,0c0,0,0-0.1,0-0.1c0-0.1-0.1-0.1-0.1-0.2c0,0,0,0,0-0.1l0,0l0,0
		c-0.1-0.1-0.1-0.1-0.2-0.1c-0.1,0-0.1-0.1-0.2-0.1c0,0-0.1-0.1,0,0c0,0-0.1,0-0.1-0.1c-0.1-0.1-0.3-0.1-0.4-0.2
		c-0.1,0-0.1,0-0.2-0.1l-0.1,0c0,0-0.1,0-0.1,0c-0.2,0-0.3-0.1-0.5-0.1c-0.2,0-0.3,0-0.5-0.1c-0.1,0-0.2,0-0.2,0l-0.1,0l-0.1,0
		c-0.3,0-0.7,0-1,0c-0.7,0-1.4,0-2.1-0.1c-0.7-0.1-1.3-0.2-2-0.3c-0.1,0-0.1,0-0.2,0C118.8,295.9,118.8,295.9,118.7,295.8z"/>
	<path class="st24" d="M116.9,290.7C116.9,290.7,116.9,290.7,116.9,290.7L116.9,290.7z"/>
	<path class="st2" d="M115.6,292.6C115.6,292.6,115.6,292.6,115.6,292.6c0,0.1,0,0.1,0,0.1c0,0.1,0,0.2,0,0.3l0,0l0,0
		c0,0,0,0.1,0,0.1c0,0.1,0,0.1,0.1,0.2l0,0c0,0,0,0,0,0.1c0,0.1,0.1,0.1,0.1,0.2c0,0.1,0.1,0.1,0.1,0.2l0,0c0,0,0,0,0.1,0.1
		c0.1,0.1,0.2,0.2,0.3,0.3c0.1,0,0.1,0.1,0.2,0.1l0,0c0,0,0.1,0,0.1,0.1c0.1,0.1,0.3,0.1,0.4,0.2c0.1,0.1,0.3,0.1,0.4,0.2
		c0.1,0,0.1,0.1,0.2,0.1l0.1,0l0,0l0,0l0.1,0c0.2,0,0.3,0.1,0.5,0.1c0.1-0.2,0.2-0.4,0.2-0.5c0-0.1,0-0.1,0.1-0.2l0-0.1l0,0
		c0-0.1,0.1-0.3,0.1-0.4c0.1-0.3,0.1-0.5,0.1-0.8l0,0v0c0,0,0-0.1,0-0.1c0-0.1,0-0.1,0-0.2c0-0.1,0-0.3,0-0.4c0,0,0-0.1,0,0
		c0,0,0-0.1,0-0.1c0-0.1,0-0.1-0.1-0.2c0-0.1,0-0.1-0.1-0.2c0,0,0-0.1,0-0.1l0,0c-0.1-0.1-0.1-0.2-0.2-0.3c0-0.1-0.1-0.1-0.1-0.2
		l0,0c0,0,0,0-0.1-0.1c-0.1-0.1-0.2-0.2-0.3-0.2l0,0c0,0,0,0,0,0l0,0c-0.1,0-0.1-0.1-0.2-0.1c0,0-0.1,0-0.1,0l0,0c0,0-0.1,0-0.1,0
		c-0.1,0-0.1,0-0.2,0c0,0,0,0,0,0c0,0-0.1,0-0.1,0c0,0-0.1,0-0.1,0c0,0,0,0-0.1,0l0,0l0,0l0,0c0,0-0.1,0-0.1,0c0,0-0.1,0-0.1,0.1
		l0,0l0,0c-0.1,0-0.1,0.1-0.2,0.1c-0.1,0-0.1,0.1-0.2,0.2c0,0-0.1,0-0.1,0.1l0,0c-0.1,0.1-0.2,0.3-0.4,0.4c-0.2,0.2-0.3,0.4-0.5,0.7
		C115.5,292.2,115.6,292.4,115.6,292.6z"/>
	<path class="st24" d="M118.2,290.8C118.2,290.8,118.2,290.8,118.2,290.8C118.2,290.8,118.2,290.8,118.2,290.8L118.2,290.8z"/>
	<polygon class="st24" points="118.3,290.8 118.3,290.8 118.3,290.8 	"/>
	<path class="st24" d="M142,321.8C142,321.8,142,321.8,142,321.8L142,321.8L142,321.8C142,321.8,142,321.8,142,321.8z"/>
	<path class="st25" d="M115.2,307.3L115.2,307.3L115.2,307.3z"/>
	<path class="st26" d="M129.4,317.6c-0.6,0.1-1.3,0.1-1.9,0.2c-1.6,0.1-3.2-0.1-4.7-0.6c-0.1,0-0.1,0-0.2-0.1
		c0.1,0.3,0.2,0.5,0.3,0.8c0.1,0.2,0.1,0.3,0.2,0.5c0,0.1,0.1,0.2,0.1,0.2l0,0c0,0,0,0.1,0,0.1c0.2,0.3,0.3,0.6,0.5,0.9
		c0.1,0.1,0.2,0.3,0.3,0.4c0,0.1,0.1,0.1,0.1,0.2c0.1,0.1,0,0,0,0l0,0c0,0,0.1,0.1,0.1,0.1c0.2,0.2,0.5,0.4,0.7,0.6
		c0.1,0.1,0.2,0.2,0.4,0.3c0,0,0.1,0.1,0.1,0.1c-0.1-0.1,0,0,0,0c0.1,0,0.1,0.1,0.2,0.1c0.3,0.2,0.6,0.3,0.9,0.4
		c0.2,0.1,0.3,0.1,0.5,0.2c0,0,0.2,0.1,0,0c0,0,0.1,0,0.1,0c0.1,0,0.2,0,0.2,0.1c0.7,0.2,1.5,0.3,2.2,0.4c0.1,0,0.1,0,0.2,0l0.1,0
		c0.1,0,0.2,0,0.3,0c0.2,0,0.4,0,0.6,0c0.5,0,0.9,0,1.4-0.1c0.8-0.1,1.7-0.2,2.5-0.3c-0.9-0.6-1.9-1.1-2.9-1.5
		C130.8,320,129.9,318.9,129.4,317.6z"/>
	<path class="st25" d="M124.3,320.2L124.3,320.2L124.3,320.2L124.3,320.2z"/>
	<polygon class="st25" points="124.3,320.3 124.3,320.3 124.3,320.3 	"/>
	<path class="st25" d="M110.3,294.9L110.3,294.9L110.3,294.9l0.1,0c0,0,0.1,0,0.1,0C110.5,294.8,110.4,294.8,110.3,294.9
		c-0.1,0-0.1,0-0.2,0C110.2,294.8,110.2,294.8,110.3,294.9L110.3,294.9z"/>
	<path class="st25" d="M114.4,304.7C114.4,304.7,114.4,304.7,114.4,304.7C114.4,304.7,114.4,304.7,114.4,304.7L114.4,304.7z"/>
	<path class="st26" d="M127.9,314.6c-1.1-0.6-1.9-1.6-2.5-2.7c-0.7,0.1-1.4,0.1-2.1,0.1c-1.6,0.1-3.3-0.2-4.8-0.7
		c0.1,0.3,0.2,0.6,0.4,0.9c0.1,0.2,0.2,0.3,0.2,0.5c0,0,0,0.1,0.1,0.1l0,0.1c0,0.1,0.1,0.2,0.1,0.2c0.2,0.3,0.4,0.6,0.6,0.9
		c0.1,0.1,0.2,0.3,0.3,0.4c0.1,0.1,0.1,0.1,0.2,0.2l0,0l0,0c0,0,0.1,0.1,0.1,0.1c0.2,0.2,0.5,0.5,0.7,0.7c0.1,0.1,0.3,0.2,0.4,0.3
		c0,0,0.1,0,0.1,0.1c0.1,0.1,0,0,0,0l0,0l0,0c0,0,0,0,0.1,0c0.1,0,0.1,0.1,0.2,0.1c0.3,0.2,0.6,0.3,0.9,0.4c0.2,0.1,0.3,0.1,0.5,0.2
		l0.1,0c0,0,0.1,0,0.1,0c0.1,0,0.2,0,0.2,0.1c0.7,0.2,1.4,0.3,2.2,0.3c0,0,0.1,0,0.1,0l0,0l0,0c0,0-0.1,0,0,0c0,0,0.1,0,0.1,0
		c0.1,0,0.2,0,0.3,0c0.2,0,0.4,0,0.6,0c0.4,0,0.9,0,1.3-0.1c1-0.1,1.9-0.2,2.9-0.4c0.1,0,0.1,0,0.2,0c0,0,0.1,0,0.1-0.1
		C130.4,315.6,129,315.3,127.9,314.6z"/>
	<polygon class="st25" points="114.4,304.7 114.4,304.7 114.4,304.7 	"/>
	<path class="st25" d="M128.5,326.3L128.5,326.3C128.5,326.3,128.5,326.3,128.5,326.3z"/>
	<path class="st25" d="M134,333.3C134,333.3,134,333.3,134,333.3L134,333.3L134,333.3z"/>
	<path class="st26" d="M123.8,304.7c0.1-0.3-0.1-0.5-0.4-0.7c-3.3-3-3.5-3.1-3.7-3.5c-1.3,0.4-2.7,0.5-4,0.3
		c-1.4-0.3-2.7-1.1-3.6-2.2c-0.4-0.5-0.6-1.2-0.4-1.9c0.2-0.6,0.5-1.2,1-1.7c0.1-0.1,0.1-0.2,0.2-0.2c-0.3,0.2-0.7,0.4-1,0.6
		c-0.3,0.2-0.7,0.3-1.1,0.4c-0.2,0-0.4,0-0.5,0c-0.1,0-0.1,0-0.2,0l0,0l0,0c-0.1,0-0.2,0-0.2,0c0,0-0.1,0-0.1,0l0,0l0,0
		c0,0,0,0-0.1,0c0,0-0.1,0.1-0.1,0.1l0,0l0,0c0,0-0.1,0.1-0.1,0.1l0,0l0,0c0,0,0,0.1,0.1,0.2c0,0,0,0,0,0c0,0.2,0.1,0.5,0.1,0.7
		l0,0.1c0,0,0,0,0,0c0,0,0,0.1,0,0.1c0,0.1,0,0.2,0.1,0.3c0.1,0.2,0.1,0.4,0.2,0.7c0.1,0.4,0.3,0.8,0.4,1.2c0,0.1,0.1,0.2,0.1,0.3
		c0,0,0,0.1,0.1,0.1c0,0,0.1,0.2,0,0.1c0.1,0.2,0.2,0.4,0.3,0.5c0.2,0.3,0.4,0.7,0.7,1c0.1,0.2,0.2,0.3,0.4,0.4c0,0,0,0,0.1,0.1l0,0
		l0,0c0,0-0.1-0.1,0,0c0,0,0.1,0.1,0.1,0.1c0.1,0.1,0.1,0.1,0.2,0.2c0.3,0.3,0.6,0.5,0.9,0.8c0.2,0.1,0.3,0.2,0.5,0.3
		c0,0,0.1,0.1,0.1,0.1c0.1,0.1,0,0,0,0l0,0l0,0c0,0,0,0,0.1,0c0.1,0,0.1,0.1,0.2,0.1c0.1,0,0.1,0.1,0.2,0.1c0.3,0.2,0.6,0.3,1,0.5
		c0.2,0.1,0.4,0.2,0.6,0.2c0.1,0,0.2,0.1,0.3,0.1c0,0,0.1,0,0.1,0l0.1,0c0.4,0.1,0.8,0.2,1.3,0.3c0.4,0.1,0.9,0.2,1.3,0.2
		c0.2,0,0.5,0,0.7,0.1c0.1,0,0.1,0,0.2,0c0,0,0,0,0.1,0l0,0c0.1,0,0.2,0,0.4,0c1,0,2.1,0,3.1-0.1c0.1,0,0.3,0,0.4,0
		C123.7,304.9,123.8,304.8,123.8,304.7z"/>
	<path class="st25" d="M114.2,299.2L114.2,299.2C114.2,299.2,114.3,299.2,114.2,299.2L114.2,299.2L114.2,299.2z"/>
	<path class="st25" d="M114.2,299.2L114.2,299.2L114.2,299.2L114.2,299.2z"/>
	<path class="st25" d="M133.9,333.3L133.9,333.3L133.9,333.3L133.9,333.3z"/>
	<path class="st25" d="M112.7,297.7C112.7,297.7,112.7,297.7,112.7,297.7C112.7,297.7,112.7,297.7,112.7,297.7L112.7,297.7z"/>
	<path class="st26" d="M120.3,299.1c0.1-0.2,0-0.4-0.1-0.6c-0.8-1.2-2.2-1.2-2.8-2.7c-0.1-0.2-0.1-0.3-0.1-0.4c0,0,0,0-0.1,0
		c-0.8-0.3-1.5-0.9-2-1.7c-0.2,0.2-0.5,0.5-0.7,0.7c-0.5,0.4-0.9,0.9-1.3,1.4c-0.1,0.1-0.2,0.2-0.3,0.4c0.1-0.1,0,0,0,0
		c0,0,0,0.1-0.1,0.1c0,0.1-0.1,0.1-0.1,0.2c0,0.1-0.1,0.1-0.1,0.2l0,0.1l0,0c0,0.1,0,0.1,0,0.2c0,0,0,0.1,0,0.1l0,0
		c0,0.1,0,0.1,0,0.2c0,0,0,0.1,0,0.1l0,0c0,0.1,0,0.1,0.1,0.2c0,0,0,0.1,0,0.1l0,0c0,0,0,0,0,0.1c0,0,0.1,0.1,0.1,0.1
		c0,0.1,0.1,0.1,0.1,0.2c0,0,0.1,0.1,0.1,0.1c0,0,0.1,0.1,0,0c0.1,0.1,0.1,0.1,0.2,0.2c0.2,0.2,0.5,0.5,0.8,0.7
		c0.1,0,0.1,0.1,0.2,0.1l0,0c0,0,0.1,0,0.1,0.1c0.1,0.1,0.3,0.2,0.4,0.2c0.1,0.1,0.3,0.1,0.5,0.2l0.1,0c0,0,0.1,0,0.1,0
		c0.1,0,0.2,0,0.2,0.1c0.2,0,0.3,0.1,0.5,0.1c0.1,0,0.2,0,0.3,0c0,0,0.1,0,0.1,0c0,0,0.1,0,0.1,0c0.4,0,0.8,0,1.1,0
		c0.2,0,0.4-0.1,0.6-0.1c0.1,0,0.2,0,0.3-0.1l0,0c0,0,0.1,0,0.1,0c0.1,0,0.1,0,0.2,0c0.3-0.1,0.6-0.1,0.8-0.2c0-0.1,0.1-0.1,0.1-0.2
		C120.1,299.3,120.2,299.2,120.3,299.1z"/>
	<path class="st25" d="M133.8,333.3C133.9,333.4,133.8,333.3,133.8,333.3L133.8,333.3L133.8,333.3z"/>
	<path class="st26" d="M134.9,332c-0.2-0.3-0.3-0.7-0.4-1.1c0-0.4,0.2-0.8,0.5-1.1c-0.8,0-1.7-0.1-2.5-0.2c0,0,0,0-0.1,0
		c0,0.3,0.1,0.7,0.1,1c0,0.1,0,0.2,0.1,0.3l0,0.1l0,0c0,0.1,0,0.1,0,0.2c0.1,0.2,0.1,0.4,0.2,0.6c0.1,0.2,0.1,0.4,0.2,0.5
		c0,0.1,0,0.1,0.1,0.2l0,0l0,0c0,0.1,0.1,0.2,0.1,0.2c0.1,0.1,0.1,0.2,0.2,0.2c0,0,0,0,0,0.1l0,0l0,0c0,0,0,0,0.1,0c0,0,0,0,0.1,0.1
		l0,0c0,0,0,0,0.1,0c0,0,0,0,0,0l0,0l0,0c0,0,0,0,0,0c0,0,0.1,0,0.1,0l0,0c0,0,0,0,0,0c0.1,0,0.2,0,0.2-0.1c0,0,0.1,0,0.1,0l0,0
		c0.1,0,0.1-0.1,0.2-0.1c0.1,0,0.1-0.1,0.2-0.1c0,0,0.1,0,0.1-0.1l0,0l0,0c0,0,0.1-0.1,0.1-0.1C135,332.6,135,332.3,134.9,332z"/>
	<path class="st25" d="M134.4,328.9L134.4,328.9L134.4,328.9L134.4,328.9z"/>
	<path class="st25" d="M133.7,333.3L133.7,333.3L133.7,333.3C133.7,333.3,133.7,333.3,133.7,333.3z"/>
	<path class="st25" d="M133.7,333.3L133.7,333.3L133.7,333.3L133.7,333.3z"/>
	<path class="st25" d="M133.8,333.3L133.8,333.3L133.8,333.3L133.8,333.3z"/>
	<path class="st25" d="M112.7,297.7L112.7,297.7L112.7,297.7L112.7,297.7z"/>
	<path class="st25" d="M134.4,328.9L134.4,328.9L134.4,328.9L134.4,328.9z"/>
	<path class="st26" d="M122.9,307.3c-0.3-0.3-0.5-0.6-0.6-0.9c0-0.1,0-0.1,0-0.2c-1.1,0.1-2.1,0.1-3.2,0c-1.6-0.1-3.2-0.5-4.7-1.2
		l0,0c0,0.1,0,0.1,0,0c0,0,0,0,0,0.1c0,0.1,0,0.2,0.1,0.3c0.1,0.2,0.1,0.4,0.2,0.6c0.1,0.4,0.3,0.8,0.4,1.1c0,0.1,0.1,0.2,0.1,0.3
		c0,0,0,0.1,0.1,0.1l0,0c0,0,0-0.1,0,0c0.1,0.2,0.2,0.3,0.3,0.5c0.2,0.3,0.4,0.6,0.6,0.9c0.1,0.1,0.1,0.1,0.2,0.2c-0.1-0.1,0,0,0,0
		c0,0,0.1,0.1,0.1,0.1c0.1,0.1,0.2,0.2,0.4,0.4c0.1,0.1,0.3,0.2,0.4,0.3c0.1,0.1,0.1,0.1,0.2,0.2c0,0,0.1,0,0.1,0.1c0,0,0.2,0.1,0,0
		c0.1,0.1,0.3,0.2,0.4,0.3c0.2,0.1,0.3,0.2,0.5,0.2c0.2,0.1,0.3,0.1,0.5,0.2c0.1,0,0.2,0.1,0.3,0.1c0,0,0.1,0,0.1,0l0,0
		c0.7,0.2,1.5,0.4,2.3,0.4c0.1,0,0.2,0,0.3,0c0.1,0,0.1,0,0.2,0c0.1,0,0,0,0,0l0,0h0c0,0,0.1,0,0.1,0c0.2,0,0.4,0,0.6,0
		c0.5,0,0.9,0,1.4,0c1-0.1,2-0.2,3-0.3c0.1,0,0.1,0,0.2,0c0.1,0,0.1-0.1,0.2-0.1C125.8,310,124.2,308.8,122.9,307.3z"/>
	<path class="st26" d="M132.9,323.4c-0.5,0-0.9,0.1-1.4,0.1c-1.2,0-2.3,0-3.5-0.3c0,0.1,0,0.1,0,0.2c0,0.1,0,0.1,0,0.2l0,0.1
		c0,0.1,0,0.3,0,0.4c0,0.3,0,0.6,0.1,0.9c0,0,0,0.1,0,0.1c0,0,0,0.2,0,0c0,0.1,0,0.1,0.1,0.2c0,0.2,0.1,0.3,0.2,0.5
		c0.1,0.2,0.1,0.3,0.2,0.5l0,0l0,0l0,0c0,0,0,0.1,0.1,0.1c0,0.1,0.1,0.2,0.1,0.2c0.1,0.2,0.2,0.3,0.4,0.5c0,0,0.1,0.1,0.1,0.1l0,0
		c0,0,0,0,0,0c0.1,0.1,0.2,0.2,0.2,0.2c0.1,0.1,0.1,0.1,0.2,0.2c0,0,0.1,0.1,0.1,0.1l0.1,0c0.2,0.1,0.4,0.2,0.6,0.3
		c0.1,0,0.2,0.1,0.3,0.1c0.1,0,0.1,0,0.2,0.1l0.1,0l0,0c0.2,0.1,0.5,0.1,0.8,0.2c0.6,0.1,1.1,0.2,1.7,0.3c0.2,0,0.3,0,0.5,0
		c0.1,0,0.2,0,0.2,0l0.1,0l0,0c0,0,0,0,0,0c0.3,0,0.6,0,1,0c0.7,0,1.3,0,2,0c0.6,0,1.2-0.1,1.9-0.2
		C136.7,327.5,133.8,326,132.9,323.4z"/>
	<path class="st25" d="M115.2,307.3L115.2,307.3L115.2,307.3L115.2,307.3L115.2,307.3z"/>
	<path d="M131.1,303.7L131.1,303.7L131.1,303.7C131.1,303.7,131.1,303.7,131.1,303.7z"/>
	<path d="M130,304.5L130,304.5C129.9,304.5,129.9,304.5,130,304.5z"/>
	<path d="M129.7,304.5L129.7,304.5L129.7,304.5C129.7,304.5,129.7,304.5,129.7,304.5z"/>
	<path d="M130.1,304.6L130.1,304.6L130.1,304.6C130.1,304.6,130.1,304.6,130.1,304.6L130.1,304.6z"/>
	<path d="M111.9,301.8L111.9,301.8C111.8,301.7,111.9,301.8,111.9,301.8z"/>
	<path d="M113.7,303.3L113.7,303.3C113.7,303.3,113.8,303.4,113.7,303.3z"/>
	<path d="M134,310.3L134,310.3L134,310.3C134,310.3,134,310.3,134,310.3L134,310.3z"/>
	<path d="M133.7,310.2L133.7,310.2L133.7,310.2C133.7,310.2,133.7,310.2,133.7,310.2z"/>
	<path d="M133.9,310.3L133.9,310.3C133.9,310.2,133.9,310.2,133.9,310.3z"/>
	<path d="M114.4,304.7L114.4,304.7C114.4,304.7,114.4,304.7,114.4,304.7C114.4,304.8,114.4,304.8,114.4,304.7z"/>
	<path d="M122.1,311.1L122.1,311.1C122.1,311.1,122.2,311.1,122.1,311.1z"/>
	<path d="M115.2,307.3L115.2,307.3L115.2,307.3L115.2,307.3C115.2,307.2,115.2,307.2,115.2,307.3z"/>
	<path d="M137.9,316L137.9,316C137.9,316,137.8,316,137.9,316z"/>
	<path d="M138,316L138,316L138,316C138,316,138,316,138,316L138,316z"/>
	<path d="M121.7,315.7L121.7,315.7C121.7,315.8,121.8,315.8,121.7,315.7z"/>
	<path d="M125.9,316.9L125.9,316.9C125.8,316.9,125.9,316.9,125.9,316.9z"/>
	<path d="M141.6,321.7L141.6,321.7C141.6,321.7,141.6,321.7,141.6,321.7C141.5,321.7,141.6,321.7,141.6,321.7z"/>
	<path d="M141.9,321.7L141.9,321.7C141.9,321.7,141.8,321.7,141.9,321.7L141.9,321.7C141.9,321.7,141.9,321.7,141.9,321.7z"/>
	<path d="M142,321.7L142,321.7L142,321.7C141.9,321.7,142,321.8,142,321.7C142,321.8,142,321.8,142,321.7z"/>
	<path d="M124.3,320.2L124.3,320.2L124.3,320.2C124.4,320.3,124.4,320.3,124.3,320.2z"/>
	<path d="M118.3,290.8L118.3,290.8C118.2,290.8,118.2,290.8,118.3,290.8C118.2,290.8,118.2,290.8,118.3,290.8z"/>
	<path d="M125.1,299.1L125.1,299.1L125.1,299.1C125.1,299.1,125.1,299.1,125.1,299.1z"/>
	<path d="M112.7,297.7L112.7,297.7C112.7,297.7,112.7,297.7,112.7,297.7C112.7,297.7,112.7,297.7,112.7,297.7z"/>
	<path d="M114.2,299.2L114.2,299.2L114.2,299.2L114.2,299.2L114.2,299.2z"/>
	<path class="st6" d="M145.9,326.9c-0.1-0.2-0.2-0.4-0.4-0.5c-0.4-0.3-0.9-0.6-1.3-0.7c-0.5-0.2-1.1-0.4-1.6-0.5
		c0.2-0.4,0.5-0.8,0.7-1.3c0.3-0.6,0.6-1.2,0.8-1.9c0.2-0.7,0-1.4-0.4-1.9c-0.4-0.4-0.9-0.6-1.5-0.7c-0.6,0-1.2,0-1.7,0
		c-0.3,0-0.6,0-0.9,0l0,0l0,0c0,0-0.1,0-0.1,0c-0.1,0-0.2,0-0.2,0c-0.1,0-0.3,0-0.4-0.1l0,0c0.2-0.4,0.4-0.8,0.6-1.2
		c0.3-0.6,0.6-1.2,0.8-1.9c0.2-0.7,0-1.4-0.4-1.9c-0.4-0.4-0.9-0.6-1.5-0.7c-0.6,0-1.2,0-1.7,0c-0.3,0-0.6,0-0.9,0l0,0l0,0
		c0,0-0.1,0-0.1,0c-0.1,0-0.2,0-0.2,0c-0.1,0-0.3,0-0.4-0.1l0,0c0.2-0.4,0.4-0.8,0.6-1.2c0.3-0.6,0.6-1.2,0.8-1.9
		c0.2-0.7,0-1.4-0.4-1.9c-0.4-0.4-0.9-0.6-1.5-0.7c-0.6,0-1.2,0-1.7,0c-0.3,0-0.6,0-0.9,0l0,0l0,0c0,0-0.1,0-0.1,0
		c-0.1,0-0.2,0-0.2,0c-0.1,0-0.3,0-0.4-0.1c0,0-0.1,0-0.1,0l0.3-0.6c0.3-0.6,0.6-1.1,0.9-1.7c0.3-0.7,0.4-1.4,0.1-2.1
		c-0.2-0.6-0.8-1.1-1.4-1.2c-0.6-0.1-1.2-0.1-1.8-0.1c-0.3,0-0.6,0-0.9,0c-0.1,0-0.2,0-0.2,0c0,0-0.1,0-0.1,0l-0.1,0l0,0
		c-0.1,0-0.3,0-0.4,0c-0.2,0-0.3,0-0.5-0.1c0.7-0.9,1.2-2,1.4-3.2c0.1-0.6,0-1.3-0.3-1.9c-0.3-0.6-0.9-1-1.5-1.2
		c-1.3-0.3-2.7-0.5-4.1-0.4c0,0-0.1,0-0.1,0l-0.1,0c-0.1,0-0.2,0-0.3,0c-0.2,0-0.3,0-0.5,0c-0.3,0-0.7-0.1-1-0.1
		c-0.2,0-0.4-0.1-0.6-0.1c0,0,0-0.1,0.1-0.1c0.2-0.5,0.4-1.1,0.4-1.6c0.1-0.6,0-1.3-0.2-1.9c-0.2-0.6-0.6-1.1-1.1-1.4
		c-0.6-0.4-1.3-0.5-1.9-0.3c-0.7,0.3-1.3,0.8-1.7,1.5c-0.2,0.3-0.4,0.6-0.7,0.9c-0.2,0.3-0.5,0.6-0.8,0.9c0,0-0.1,0.1-0.1,0.1l0,0
		l0,0c-0.1,0.1-0.1,0.1-0.2,0.2c-0.2,0.1-0.3,0.2-0.5,0.4c-0.3,0.2-0.7,0.4-1,0.6c0,0-0.1,0-0.1,0.1l0,0l-0.1,0
		c-0.1,0-0.2,0.1-0.3,0.1c-0.1,0-0.2,0.1-0.2,0.1c0,0-0.1,0-0.1,0c0,0,0,0-0.1,0l-0.1,0l0,0c0,0,0,0-0.1,0c0,0-0.1,0-0.1-0.3h0
		c0,0.3-0.1,0.3-0.1,0.7h-0.1c0-0.5,0-0.5-0.1-0.5l0,0l-0.1,0c0,0-0.1,0-0.1,0l-0.1,0c-0.1,0-0.2,0-0.3,0c-0.3,0-0.6,0.1-0.9,0.4
		c-0.3,0.2-0.5,0.5-0.5,0.9c0,0.1,0,0.2,0.1,0.3c0.2,1.7,0.9,3.4,1.8,4.9c0.8,1.2,1.8,2.2,3,2.9c0.2,1.6,0.8,3.1,1.7,4.5
		c0.6,0.9,1.4,1.6,2.4,2.2c0.4,1.5,1.1,2.9,2,4.1c0.6,0.7,1.3,1.3,2.2,1.8c0.3,1.4,0.9,2.7,1.8,3.8c0.9,1,2,1.8,3.3,2.3
		c0.2,0.1,0.3,0.1,0.5,0.1c0,0.1,0,0.2,0,0.3c-0.1,0.6,0,1.1,0.1,1.7c0.1,0.8,0.4,1.5,0.8,2.2c0.4,0.6,0.9,1.1,1.5,1.5
		c0.4,0.3,0.9,0.5,1.3,0.6c0.2,0.1,0.4,0.1,0.6,0.2c0.1,0.8,0.2,1.7,0.4,2.5c0.1,0.4,0.3,0.8,0.5,1.2c0.2,0.4,0.5,0.8,0.9,1
		c0.8,0.2,1.6-0.1,2-0.7c0.6-0.5,1.1-1.1,1.5-1.7c0.5-0.6,1-1.3,1.5-2c0.7-0.1,1.3-0.1,2-0.2c1.1-0.2,2.3-0.4,3.4-0.7
		c0.4-0.1,0.8-0.3,1.1-0.4c0.3-0.1,0.6-0.4,0.8-0.6C145.9,327.5,145.9,327.2,145.9,326.9z M145,327.1C145,327.1,145,327.1,145,327.1
		z M142.9,320.7L142.9,320.7L142.9,320.7z M142.4,320.4L142.4,320.4C142.4,320.4,142.4,320.4,142.4,320.4L142.4,320.4z M139.9,320.3
		c0.6,0,1.1,0,1.7-0.1c0.1,0,0.3,0,0.4,0c0,0,0.1,0,0.1,0c0,0,0,0,0,0c0.1,0,0.1,0,0.2,0c0.1,0,0.2,0,0.4,0.1c0,0,0.1,0,0.1,0l0,0
		l0,0c0,0,0.1,0.1,0.1,0.1c0,0,0.1,0,0.1,0.1l0,0l0,0c0,0,0.1,0,0.1,0.1c0,0,0.1,0.1,0.1,0.1l0,0c0,0,0.1,0.1,0.1,0.1l0,0
		c0,0,0,0.1,0,0.1c0,0.1,0.1,0.1,0.1,0.2l0,0l0,0c0,0,0,0.1,0,0.1c0,0.1,0,0.1,0,0.2c0,0,0,0.1,0,0.1c0-0.1,0,0,0,0
		c0,0.1,0,0.2,0,0.2c0,0.1,0,0.2-0.1,0.2c0,0,0,0.1,0,0.1l0,0l0,0c-0.1,0.3-0.2,0.6-0.4,0.9c-0.2,0.5-0.5,1-0.8,1.4
		c-0.1,0.1-0.1,0.2-0.2,0.4c-0.3-0.1-0.7-0.2-1-0.3c-0.1,0-0.2-0.1-0.3-0.1c0,0-0.1,0-0.1,0c0.1,0,0,0,0,0c-0.2-0.1-0.4-0.2-0.6-0.3
		c0,0-0.1-0.1-0.1-0.1c0,0-0.1-0.1-0.1-0.1c-0.1-0.1-0.2-0.1-0.3-0.2c-0.1-0.1-0.2-0.1-0.2-0.2c0,0-0.1-0.1-0.1-0.1l0,0
		c0,0,0,0-0.1-0.1c-0.1-0.1-0.2-0.3-0.3-0.5c0-0.1-0.1-0.1-0.1-0.2c0,0,0-0.1,0-0.1c0.1,0.1,0,0,0,0c0-0.1-0.1-0.1-0.1-0.2
		c0.3-0.1,0.6-0.1,0.9-0.2c0.4-0.1,0.7-0.2,1.1-0.3c0.2-0.1,0.4-0.1,0.6-0.2c0,0,0.1,0,0.1,0c-0.1,0,0,0,0,0c0.1,0,0.2,0,0.3,0
		c0.1,0,0.2,0,0.2,0c0,0,0.1,0,0.1,0c0,0,0,0,0.1,0c0,0,0,0,0,0l0,0l0,0l0,0l0,0c0,0,0.1,0,0.1,0c0,0,0,0,0.1,0l0,0c0,0,0,0,0,0l0,0
		c0,0,0,0,0,0c0,0,0,0,0.1,0l0,0c0,0,0,0,0,0l0,0c0,0,0,0,0,0l0,0l0,0c0.1,0.2,0.4,0.2,0.6,0.1c0.2-0.1,0.2-0.4,0.1-0.6
		c-0.5-0.7-1.4-0.6-2.1-0.4c-0.8,0.2-1.5,0.4-2.2,0.6c-0.3,0.1-0.6,0.2-0.9,0.2c0,0-0.1,0-0.1,0l0,0c-0.1,0-0.3,0.1-0.4,0.1l-0.1,0
		l0,0l0,0c-0.1,0-0.1,0-0.2,0c-0.2,0-0.3,0.1-0.5,0.1c-0.3,0-0.5,0.1-0.8,0.1c-0.1,0-0.3,0-0.4,0.1c-0.8,0.1-1.7,0.2-2.5,0.3
		c-0.5,0-0.9,0.1-1.4,0.1c-0.2,0-0.4,0-0.6,0c-0.1,0-0.2,0-0.3,0l-0.1,0c-0.1,0-0.1,0-0.2,0c-0.8-0.1-1.5-0.2-2.2-0.4
		c-0.1,0-0.2,0-0.2-0.1c0,0-0.1,0-0.1,0c0.1,0,0,0,0,0c-0.2-0.1-0.3-0.1-0.5-0.2c-0.3-0.1-0.6-0.3-0.9-0.4c-0.1,0-0.1-0.1-0.2-0.1
		c0,0-0.2-0.1,0,0c0,0-0.1-0.1-0.1-0.1c-0.1-0.1-0.3-0.2-0.4-0.3c-0.2-0.2-0.5-0.4-0.7-0.6c0,0-0.1-0.1-0.1-0.1l0,0l0,0l0,0l0,0l0,0
		c0-0.1-0.1-0.1-0.1-0.2c-0.1-0.1-0.2-0.3-0.3-0.4c-0.2-0.3-0.4-0.6-0.5-0.9c0,0,0-0.1,0-0.1l0,0c0-0.1-0.1-0.2-0.1-0.2
		c-0.1-0.2-0.1-0.3-0.2-0.5c-0.1-0.3-0.2-0.5-0.3-0.8c0.1,0,0.1,0,0.2,0.1c1.5,0.5,3.1,0.7,4.7,0.6c0.6,0,1.3-0.1,1.9-0.2
		c1.4-0.2,2.7-0.4,4.1-0.7l0.2,0c0.4,0.6,1,1.2,1.5,1.7c0.8,0.7,1.7,1.2,2.7,1.5C138.7,320.2,139.3,320.3,139.9,320.3L139.9,320.3z
		 M136.6,318.6L136.6,318.6C136.5,318.5,136.6,318.6,136.6,318.6L136.6,318.6z M139,315L139,315L139,315z M138.5,314.7L138.5,314.7
		C138.4,314.7,138.5,314.7,138.5,314.7L138.5,314.7z M135.5,314.6c0.6,0,1.1,0,1.7-0.1c0.1,0,0.3,0,0.4,0c0,0,0.1,0,0.1,0
		c0,0,0,0,0,0c0.1,0,0.1,0,0.2,0c0.1,0,0.2,0,0.4,0.1c0,0,0.1,0,0.1,0l0,0l0,0c0,0,0.1,0.1,0.1,0.1c0,0,0.1,0,0.1,0.1l0,0l0,0
		c0,0,0.1,0,0.1,0.1c0,0,0.1,0.1,0.1,0.1l0,0c0,0,0.1,0.1,0.1,0.1l0,0c0,0,0,0.1,0,0.1c0,0.1,0.1,0.1,0.1,0.2l0,0l0,0
		c0,0,0,0.1,0,0.1c0,0.1,0,0.1,0,0.2c0,0,0,0.1,0,0.1c0-0.1,0,0,0,0c0,0.1,0,0.2,0,0.2c0,0.1,0,0.2-0.1,0.2c0,0,0,0.1,0,0.1l0,0l0,0
		c-0.1,0.3-0.2,0.6-0.4,0.9c-0.2,0.5-0.5,1-0.8,1.4c-0.1,0.1-0.1,0.2-0.2,0.3c-0.2-0.1-0.4-0.1-0.5-0.2c-0.2-0.1-0.4-0.2-0.6-0.3
		l0,0c0,0-0.1,0-0.1,0c-0.1,0-0.1-0.1-0.2-0.1c-0.1-0.1-0.2-0.1-0.3-0.2c-0.4-0.3-0.7-0.6-1-0.9l0,0l0,0c0,0-0.1-0.1-0.1-0.1
		c-0.1-0.1-0.1-0.2-0.2-0.2c-0.1-0.1-0.1-0.2-0.2-0.2c0.1,0,0.2-0.1,0.3-0.1c0.4-0.1,0.7-0.2,1.1-0.3c0.2-0.1,0.4-0.1,0.6-0.2
		c0,0,0.1,0,0.1,0l0.1,0c0.1,0,0.2,0,0.3-0.1c0.2,0,0.4,0,0.5,0l0,0c0,0,0.1,0,0.1,0c0,0,0.1,0,0.1,0c0,0,0,0,0.1,0l0,0
		c0,0,0,0,0.1,0l0,0c0,0,0,0,0,0l0,0c0,0,0,0,0,0l0,0l0,0c0.1,0.2,0.4,0.2,0.6,0.1c0.2-0.1,0.2-0.4,0.1-0.6
		c-0.5-0.7-1.5-0.6-2.2-0.4c-0.8,0.2-1.5,0.4-2.2,0.6c-0.5,0.1-1.1,0.3-1.6,0.4l-0.2,0l0,0l0,0l-0.1,0c-0.1,0-0.3,0.1-0.4,0.1
		c-0.2,0-0.4,0.1-0.6,0.1c-0.1,0-0.1,0-0.2,0c-1,0.2-1.9,0.3-2.9,0.4c-0.4,0-0.9,0.1-1.3,0.1c-0.2,0-0.4,0-0.6,0c-0.1,0-0.2,0-0.3,0
		c0,0-0.1,0-0.1,0l0,0c0,0-0.1,0-0.1,0c-0.7,0-1.5-0.2-2.2-0.3c-0.1,0-0.2,0-0.2-0.1c0,0-0.1,0-0.1,0l-0.1,0
		c-0.2-0.1-0.3-0.1-0.5-0.2c-0.3-0.1-0.6-0.3-0.9-0.4c-0.1,0-0.1-0.1-0.2-0.1c0,0,0,0-0.1,0l0,0c0,0-0.1,0-0.1-0.1
		c-0.1-0.1-0.3-0.2-0.4-0.3c-0.3-0.2-0.5-0.4-0.7-0.7c0,0-0.1-0.1-0.1-0.1l0,0l0,0c-0.1-0.1-0.1-0.1-0.2-0.2
		c-0.1-0.1-0.2-0.3-0.3-0.4c-0.2-0.3-0.4-0.6-0.6-0.9c0-0.1-0.1-0.2-0.1-0.2l0-0.1c0,0,0-0.1-0.1-0.1c-0.1-0.2-0.2-0.3-0.2-0.5
		c-0.1-0.3-0.2-0.6-0.4-0.9c1.5,0.5,3.2,0.8,4.8,0.7c0.7,0,1.4-0.1,2.1-0.1c1.4-0.2,2.8-0.4,4.3-0.7l0,0c0.4,0.6,1,1.2,1.5,1.7
		c0.8,0.7,1.7,1.2,2.7,1.5C134.3,314.5,134.9,314.6,135.5,314.6L135.5,314.6z M132.6,312.9L132.6,312.9
		C132.5,312.8,132.6,312.8,132.6,312.9L132.6,312.9z M135,309.3L135,309.3L135,309.3z M134.5,308.9L134.5,308.9
		C134.5,308.9,134.5,308.9,134.5,308.9L134.5,308.9z M131.6,308.9c0.6,0,1.1,0,1.7-0.1c0.1,0,0.3,0,0.4,0c0,0,0.1,0,0.1,0
		c0,0,0,0,0,0c0.1,0,0.1,0,0.2,0c0.1,0,0.2,0,0.4,0.1c0,0,0.1,0,0.1,0l0,0l0,0c0,0,0.1,0.1,0.1,0.1c0,0,0.1,0,0.1,0.1l0,0l0,0
		c0,0,0.1,0,0.1,0.1c0,0,0.1,0.1,0.1,0.1l0,0c0,0,0.1,0.1,0.1,0.1l0,0c0,0,0,0.1,0,0.1c0,0.1,0.1,0.1,0.1,0.2l0,0l0,0
		c0,0,0,0.1,0,0.1c0,0.1,0,0.1,0.2,0.2v0.1c-0.2-0.1-0.2,0-0.2,0c0,0.1,0,0.2,0,0.2c0,0.1,0,0.2-0.1,0.2c0,0,0,0.1,0,0.1l0,0l0,0
		c-0.1,0.3-0.2,0.6-0.4,0.9c-0.2,0.5-0.5,1-0.8,1.4c-0.1,0.1-0.1,0.2-0.2,0.3c-0.2-0.1-0.4-0.1-0.5-0.2c-0.2-0.1-0.4-0.2-0.6-0.3
		l0,0c0,0-0.1,0-0.1,0c-0.1,0-0.1-0.1-0.2-0.1c-0.1-0.1-0.2-0.1-0.3-0.2c-0.4-0.3-0.7-0.6-1-0.9l0,0l0,0c0,0-0.1-0.1-0.1-0.1
		c-0.1-0.1-0.1-0.2-0.2-0.2c-0.1-0.1-0.1-0.2-0.2-0.2c0.1,0,0.2-0.1,0.3-0.1c0.4-0.1,0.7-0.2,1.1-0.3c0.2-0.1,0.4-0.1,0.6-0.2
		c0,0,0.1,0,0.1,0l0.1,0c0.1,0,0.2,0,0.3-0.1c0.2,0,0.3,0,0.5,0l0,0c0,0,0,0,0,0l0,0c0,0,0,0,0-0.2h0c0,0.2,0.1,0.2,0.1,0.3
		c0,0,0.1,0,0.1,0c0,0,0,0,0.1,0l0,0c0,0,0,0,0.1,0l0,0c0,0,0,0,0,0l0,0c0,0,0,0,0,0l0,0l0,0c0.1,0.2,0.4,0.2,0.6,0.1
		c0.2-0.1,0.2-0.4,0.1-0.6c-0.5-0.7-1.5-0.6-2.2-0.4c-0.8,0.2-1.5,0.4-2.2,0.6c-0.3,0.1-0.5,0.1-0.8,0.2c-0.1,0-0.3,0.1-0.4,0.1
		c-0.1,0-0.1,0-0.2,0l-0.1,0l0,0l0,0c-0.5,0.1-1,0.2-1.4,0.3c-0.1,0-0.1,0-0.2,0c-1,0.2-2,0.3-3,0.3c-0.5,0-0.9,0-1.4,0
		c-0.2,0-0.4,0-0.6,0c0,0-0.1,0-0.1-0.4h0c-0.1,0.4-0.1,0.4-0.2,0.4c-0.1,0-0.2,0-0.3,0c-0.8-0.1-1.5-0.2-2.3-0.4l0,0
		c0,0-0.1,0-0.1,0c-0.1,0-0.2-0.1-0.3-0.1c-0.2-0.1-0.3-0.1-0.5-0.2c-0.2-0.1-0.3-0.1-0.5-0.2c-0.1-0.1-0.3-0.2-0.4-0.3
		c0.1,0.1,0,0,0,0c0,0-0.1,0-0.1-0.1c-0.1-0.1-0.1-0.1-0.2-0.2c-0.1-0.1-0.3-0.2-0.4-0.3c-0.1-0.1-0.3-0.2-0.4-0.4
		c0,0-0.1-0.1-0.1-0.1c0,0-0.1-0.1,0,0c0-0.1-0.1-0.1-0.2-0.2c-0.2-0.3-0.4-0.6-0.6-0.9c-0.1-0.2-0.2-0.3-0.3-0.5l0,0l0,0l0,0l0,0
		c0,0,0-0.1-0.1-0.1c0-0.1-0.1-0.2-0.1-0.3c-0.2-0.4-0.3-0.7-0.4-1.1c-0.1-0.2-0.1-0.4-0.2-0.6c0-0.1,0-0.2-0.1-0.3c0,0,0,0,0-0.1
		c0,0,0,0,0,0l0,0l0,0l0,0l0,0c1.5,0.7,3.1,1.1,4.7,1.2c1.1,0.1,2.1,0.1,3.2,0c1.1-0.1,2.1-0.2,3.2-0.4c0.1,0,0.2,0,0.3-0.1
		c0.5,0.6,1,1.2,1.6,1.8c0.8,0.7,1.7,1.2,2.7,1.5C130.5,308.8,131,308.9,131.6,308.9L131.6,308.9z M128.6,307.1L128.6,307.1
		C128.6,307.1,128.6,307.1,128.6,307.1L128.6,307.1z M130.5,303.2L130.5,303.2C130.5,303.2,130.5,303.2,130.5,303.2L130.5,303.2z
		 M126.2,302.6c0.6,0.1,1.2,0.2,1.8,0.2c0.6,0,1.1-0.1,1.7-0.1c0,0,0.1,0,0.1,0l0,0c0.1,0,0.1,0,0.2,0c0.1,0,0.3,0,0.4,0.1l0,0l0,0
		l0,0c0.1,0,0.1,0,0.2,0.1c0,0,0,0,0.1,0l0,0c0.1,0,0.1,0.1,0.2,0.1l0,0c0,0,0.1,0.1,0.1,0.1c0,0,0,0.1,0.1,0.1l0,0c0,0,0,0,0,0l0,0
		l0,0l0,0c0,0.1,0.1,0.1,0.1,0.2c0,0,0,0.1,0,0.1c0,0,0-0.1,0,0c0,0,0,0.1,0,0.1c0,0.1,0,0.1,0,0.2c0,0,0,0.1,0,0.1l0,0.1
		c0-0.1,0,0,0,0c0,0.2,0,0.3-0.1,0.5c0,0,0,0.1,0,0.1l0,0l0,0c0,0.1-0.1,0.2-0.1,0.2c-0.1,0.2-0.1,0.3-0.2,0.5
		c-0.1,0.3-0.3,0.6-0.5,0.9c-0.2,0.3-0.4,0.7-0.6,1c-0.2-0.1-0.3-0.1-0.5-0.2c-0.2-0.1-0.4-0.2-0.6-0.3l0,0c0,0-0.1,0-0.1,0
		c-0.1,0-0.1-0.1-0.2-0.1c-0.1-0.1-0.2-0.1-0.3-0.2c-0.4-0.3-0.7-0.6-1-0.9l0,0l0,0c0,0-0.1-0.1-0.1-0.1c-0.1-0.1-0.1-0.2-0.2-0.2
		c-0.1-0.1-0.1-0.2-0.2-0.3c0.1,0,0.2-0.1,0.3-0.1c0.4-0.1,0.7-0.2,1.1-0.3c0.2-0.1,0.4-0.1,0.6-0.2c0,0,0.1,0,0.1,0l0.1,0
		c0.1,0,0.2,0,0.3-0.1c0.2,0,0.3,0,0.5,0l0,0c0,0,0,0,0,0l0,0l0,0l0,0c0,0,0.1,0,0.1,0c0,0,0.1,0,0.1,0c0,0,0,0,0.1,0l0,0
		c0,0,0,0,0.1,0l0,0c0,0,0,0,0,0l0,0c0,0,0,0,0,0l0,0l0,0c0.1,0.2,0.4,0.2,0.6,0.1c0.2-0.1,0.2-0.4,0.1-0.6
		c-0.5-0.7-1.5-0.6-2.2-0.4c-0.8,0.2-1.5,0.4-2.2,0.6c-0.3,0.1-0.5,0.1-0.8,0.2l-0.1,0l-0.1,0c-0.1,0-0.1,0-0.2,0
		c-0.1,0-0.3,0.1-0.4,0.1c-0.4,0.1-0.8,0.1-1.3,0.2c-0.1,0-0.3,0-0.4,0c-1,0.1-2,0.2-3.1,0.1c-0.1,0-0.2,0-0.4,0l0,0c0,0,0,0-0.1,0
		c-0.1,0-0.1,0-0.2,0c-0.2,0-0.5,0-0.7-0.1c-0.5-0.1-0.9-0.1-1.3-0.2c-0.4-0.1-0.8-0.2-1.3-0.3l-0.1,0c0,0-0.1,0-0.1,0
		c-0.1,0-0.2-0.1-0.3-0.1c-0.2-0.1-0.4-0.2-0.6-0.2c-0.3-0.1-0.6-0.3-1-0.5c0,0-0.1-0.1-0.2-0.1c-0.1,0-0.1-0.1-0.2-0.1
		c0,0,0,0-0.1,0l0,0c0,0-0.1-0.1-0.1-0.1c-0.2-0.1-0.3-0.2-0.5-0.3c-0.3-0.2-0.6-0.5-0.9-0.8c-0.1-0.1-0.1-0.1-0.2-0.2
		c0,0-0.1-0.1-0.1-0.1l0,0c0,0,0,0-0.1-0.1c-0.1-0.1-0.3-0.3-0.4-0.4c-0.2-0.3-0.5-0.6-0.7-1c-0.1-0.2-0.2-0.4-0.3-0.5
		c0.1,0.1,0,0,0-0.1c0,0,0-0.1-0.1-0.1c0-0.1-0.1-0.2-0.1-0.3c-0.2-0.4-0.3-0.8-0.4-1.2c-0.1-0.2-0.1-0.4-0.2-0.7
		c0-0.1,0-0.2-0.1-0.3c0,0,0-0.1,0-0.1c0,0,0,0,0,0l0-0.1c0-0.2-0.1-0.5-0.1-0.7c0,0,0,0,0,0c0-0.1,0-0.1-0.1-0.2l0,0l0,0
		c0,0,0.1-0.1,0.1-0.1l0,0l0,0c0,0,0.1-0.1,0.1-0.1c0,0,0,0,0.1,0l0,0l0,0c0,0,0.1,0,0.1,0c0.1,0,0.2,0,0.2,0l0,0l0,0
		c0.1,0,0.1,0,0.2,0c0.2,0,0.4,0,0.5,0c0.4-0.1,0.7-0.2,1.1-0.4c0.4-0.2,0.7-0.4,1-0.6c-0.1,0.1-0.1,0.2-0.2,0.2
		c-0.5,0.5-0.9,1.2-1,1.9c-0.1,0.6,0.1,1.2,0.5,1.6c0.9,1.2,2.2,2,3.6,2.2c1.3,0.2,2.7,0.1,4-0.3c0.5-0.1,0.9-0.3,1.4-0.4l0.9,0.3
		c0.4,0.5,0.8,0.9,1.2,1.3C124.2,301.8,125.2,302.3,126.2,302.6L126.2,302.6z M127.1,298L127.1,298C127.1,298,127.1,298,127.1,298
		L127.1,298z M126.8,297.3L126.8,297.3C126.8,297.3,126.8,297.3,126.8,297.3L126.8,297.3z M121,296.2c0.7,0.1,1.4,0.1,2.1,0.1
		c0.3,0,0.7,0,1,0l0.1,0l0.1,0c0.1,0,0.2,0,0.2,0c0.2,0,0.3,0,0.5,0.1c0.2,0,0.3,0.1,0.5,0.1c0,0,0.1,0,0.1,0l0.1,0
		c0.1,0,0.1,0,0.2,0.1c0.1,0.1,0.3,0.1,0.4,0.2c0,0,0.1,0,0.1,0.1c-0.1,0,0,0,0,0c0.1,0,0.1,0.1,0.2,0.1c0.1,0,0.1,0.1,0.2,0.1l0,0
		l0,0c0,0,0,0.1,0,0.1c0,0.1,0.1,0.1,0.1,0.2c0,0,0,0.1,0,0.1l0,0c0,0,0.1,0.2,0.1,0.3l0,0l0,0c0,0,0,0.1,0,0.1c0,0.1,0,0.2,0,0.2
		c0,0.1,0,0.1,0,0.2c0,0,0,0,0,0.1c0,0,0,0.1,0,0.1c0,0.1,0,0.3-0.1,0.4c0,0.1,0,0.1,0,0.2c0,0,0,0.1,0,0.1c0,0,0,0.1,0,0.1
		c0,0.1-0.1,0.3-0.2,0.4c-0.1,0.3-0.3,0.6-0.4,0.9c-0.1,0.1-0.2,0.3-0.3,0.4c0,0.1-0.1,0.1-0.1,0.2l0,0.1l0,0l0,0l0,0.1
		c-0.1,0.1-0.1,0.2-0.2,0.3c-0.1,0-0.1-0.1-0.2-0.1c-0.2-0.1-0.5-0.2-0.7-0.4c-0.1,0-0.1-0.1-0.2-0.1c0,0,0,0,0,0l-0.1,0
		c-0.1-0.1-0.2-0.1-0.3-0.2c-0.4-0.3-0.7-0.6-1.1-0.9l-0.1-0.1c0,0-0.1-0.1-0.1-0.1c-0.1-0.1-0.1-0.2-0.2-0.3
		c-0.1-0.1-0.1-0.2-0.2-0.3c0.1,0,0.1,0,0.2-0.1c0.2-0.1,0.5-0.1,0.7-0.2c0.1,0,0.2,0,0.3-0.1l0,0c0.1,0,0.1,0,0.2,0
		c0.2,0,0.3,0,0.5-0.1c0.1,0,0.1,0,0.2,0c0,0,0.1,0,0.1,0h0l0,0c0.1,0,0.1,0,0.2,0c0,0,0.1,0,0.1,0l0,0l0,0l0,0c0,0,0,0,0,0
		c0,0,0,0,0,0c0,0,0,0,0,0c0,0,0,0,0.1,0.1c0,0,0,0,0,0c0.1,0.2,0.4,0.2,0.6,0.1s0.2-0.4,0.1-0.6c-0.3-0.4-0.9-0.6-1.4-0.6
		c-0.4,0-0.7,0.1-1.1,0.2c-0.4,0.1-0.9,0.2-1.3,0.4c-0.8,0.2-1.5,0.5-2.3,0.8c-0.3,0.1-0.5,0.2-0.8,0.2c-0.1,0-0.1,0-0.2,0
		c0,0-0.1,0-0.1,0l0,0c-0.1,0-0.2,0-0.3,0.1c-0.2,0-0.4,0.1-0.6,0.1c-0.4,0-0.8,0-1.1,0c0,0-0.1,0-0.1,0c0,0-0.1,0-0.1,0
		c-0.1,0-0.2,0-0.3,0c-0.2,0-0.3-0.1-0.5-0.1c-0.1,0-0.2,0-0.2-0.1c0,0-0.1,0-0.1,0l-0.1,0c-0.2-0.1-0.3-0.1-0.5-0.2
		c-0.1-0.1-0.3-0.1-0.4-0.2c0,0-0.1,0-0.1-0.1c0,0,0,0,0,0l0,0l0,0l0,0c-0.1,0-0.1-0.1-0.2-0.1c-0.3-0.2-0.5-0.4-0.8-0.7
		c-0.1-0.1-0.1-0.1-0.2-0.2c0.1,0.1,0,0,0,0c0,0-0.1-0.1-0.1-0.1c-0.1-0.1-0.1-0.1-0.1-0.2c0,0-0.1-0.1-0.1-0.1c0,0,0,0,0,0l0,0l0,0
		l0,0l0,0c0,0,0-0.1,0-0.1c0-0.1,0-0.1-0.1-0.2l0,0c0,0,0-0.1,0-0.1c0-0.1,0-0.1,0-0.2l0,0c0,0,0-0.1,0-0.1c0-0.1,0-0.1,0-0.2l0,0
		l0-0.1c0-0.1,0.1-0.1,0.1-0.2c0-0.1,0.1-0.1,0.1-0.2c0,0,0-0.1,0.1-0.1c0,0,0.1-0.2,0,0c0.1-0.1,0.2-0.3,0.3-0.4
		c0.4-0.5,0.8-1,1.3-1.4c0.2-0.2,0.5-0.5,0.7-0.7c0.4,0.8,1.1,1.4,2,1.7c0,0,0,0,0.1,0c0.5,0.2,1,0.3,1.4,0.5l0,0c0.1,0,0.1,0,0.2,0
		c0.1,0,0.1,0,0.2,0C119.7,296.1,120.4,296.2,121,296.2L121,296.2z M116.9,290.7L116.9,290.7C116.9,290.7,116.9,290.7,116.9,290.7
		L116.9,290.7z M116.2,291.1L116.2,291.1c0.1-0.1,0.1-0.1,0.1-0.1c0.1-0.1,0.1-0.1,0.2-0.2c0.1,0,0.1-0.1,0.2-0.1l0,0l0,0
		c0,0,0.1,0,0.1-0.1c0,0,0.1,0,0.1,0l0,0l0,0l0,0c0,0,0,0,0.1,0c0,0,0.1,0,0.1,0c0,0,0.1,0,0.1,0c0,0,0,0,0,0c0.1,0,0.1,0,0.2,0
		c0.1,0,0.1,0,0.1,0l0,0c0,0,0.1,0,0.1,0c0.1,0,0.1,0.1,0.2,0.1l0,0c0,0,0,0,0,0l0,0l0,0l0,0l0,0c0.1,0.1,0.2,0.2,0.3,0.2
		c0,0,0,0,0.1,0.1l0,0c0,0.1,0.1,0.1,0.1,0.2c0.1,0.1,0.1,0.2,0.2,0.3l0,0c0,0,0,0.1,0,0.1c0,0.1,0.1,0.1,0.1,0.2
		c0,0.1,0,0.1,0.1,0.2c0,0,0,0.1,0,0.1c0,0,0,0,0,0c0,0.1,0,0.3,0,0.4c0,0.1,0,0.1,0,0.2c0,0,0,0.1,0,0.1l0,0l0,0
		c0,0.3-0.1,0.6-0.1,0.8c0,0.1-0.1,0.3-0.1,0.4l0,0l0,0.1c0,0.1,0,0.1-0.1,0.2c-0.1,0.2-0.1,0.4-0.2,0.5c-0.2,0-0.3-0.1-0.5-0.1
		l-0.1,0l0,0l0,0l-0.1,0c-0.1,0-0.1-0.1-0.2-0.1c-0.2-0.1-0.3-0.1-0.4-0.2c-0.1-0.1-0.3-0.1-0.4-0.2c0,0-0.1,0-0.1-0.1l0,0
		c-0.1,0-0.1-0.1-0.2-0.1c-0.1-0.1-0.2-0.2-0.3-0.3c0,0,0,0-0.1-0.1l0,0c0-0.1-0.1-0.1-0.1-0.2c0-0.1-0.1-0.1-0.1-0.2
		c0,0,0-0.1,0-0.1l0,0c0-0.1-0.1-0.1-0.1-0.2c0,0,0-0.1,0-0.1l0,0l0,0c0-0.1,0-0.2,0-0.3c0,0,0-0.1,0-0.1c0,0,0,0,0,0
		c0-0.2-0.1-0.3-0.3-0.4c0.2-0.2,0.3-0.5,0.5-0.7C115.9,291.4,116.1,291.2,116.2,291.1z M128.5,326.2L128.5,326.2
		C128.5,326.3,128.5,326.3,128.5,326.2L128.5,326.2z M135.1,332.6c-0.1,0.1-0.2,0.2-0.3,0.2c0,0-0.1,0.1-0.1,0.1l0,0l0,0
		c0,0-0.1,0.1-0.1,0.1c-0.1,0.1-0.1,0.1-0.2,0.1c-0.1,0-0.1,0.1-0.2,0.1l0,0c0,0-0.1,0-0.1,0c0,0-0.1,0-0.2,0.1c0,0,0,0,0,0l0,0l0,0
		l0,0l0,0c0,0,0,0-0.1,0c0,0,0,0,0,0l0,0l0,0l0,0l0,0l0,0l0,0l0,0l0,0c0,0,0,0,0,0c0,0-0.1,0-0.1,0l0,0c0,0,0,0-0.1-0.1
		c0,0,0,0-0.1,0l0,0l0,0c0,0,0,0,0-0.1c-0.1-0.1-0.1-0.2-0.2-0.2c0-0.1-0.1-0.2-0.1-0.2l0,0l0,0c0-0.1,0-0.1-0.1-0.2
		c-0.1-0.2-0.2-0.4-0.2-0.5c-0.1-0.2-0.1-0.4-0.2-0.6c0-0.1,0-0.1,0-0.2l0,0l0-0.1c0-0.1,0-0.2-0.1-0.3c-0.1-0.3-0.1-0.7-0.1-1
		c0,0,0,0,0.1,0c0.8,0.1,1.7,0.2,2.5,0.2c0.5,0,0.9,0,1.4,0c0.3,0,0.6,0,0.9,0C136.7,330.8,135.9,331.7,135.1,332.6z M144.7,327.5
		c0,0-0.1,0-0.1,0.1l0,0c-0.2,0.1-0.3,0.2-0.5,0.2c-0.4,0.2-0.9,0.3-1.3,0.4c-0.3,0.1-0.5,0.1-0.8,0.2l-0.1,0l0,0
		c-0.1,0-0.1,0-0.2,0c-0.1,0-0.3,0.1-0.4,0.1c-0.6,0.1-1.3,0.2-1.9,0.3c-0.6,0.1-1.2,0.1-1.9,0.2c-0.7,0-1.3,0.1-2,0
		c-0.3,0-0.6,0-1,0l0,0l0,0l0,0l0,0l0,0l-0.1,0c-0.1,0-0.2,0-0.2,0c-0.2,0-0.3,0-0.5,0c-0.6-0.1-1.2-0.1-1.7-0.3
		c-0.3-0.1-0.5-0.1-0.8-0.2l0,0l-0.1,0c-0.1,0-0.1,0-0.2-0.1c-0.1,0-0.2-0.1-0.3-0.1c-0.2-0.1-0.4-0.2-0.6-0.3l-0.1,0
		c0,0-0.1-0.1-0.1-0.1c-0.1-0.1-0.2-0.1-0.2-0.2c-0.1-0.1-0.2-0.2-0.2-0.2c0,0,0,0,0,0l0,0c0,0-0.1-0.1-0.1-0.1
		c-0.1-0.2-0.3-0.3-0.4-0.5c0-0.1-0.1-0.2-0.1-0.2c0,0,0-0.1-0.1-0.1l0,0l0,0l0,0c-0.1-0.2-0.1-0.3-0.2-0.5
		c-0.1-0.2-0.1-0.3-0.2-0.5c0-0.1,0-0.1-0.1-0.2c0,0.1,0,0,0,0c0,0,0-0.1,0-0.1c0-0.3-0.1-0.6-0.1-0.9c0-0.1,0-0.3,0-0.4l0-0.1
		c0-0.1,0-0.1,0-0.2c0-0.1,0-0.1,0-0.2c1.1,0.2,2.3,0.3,3.5,0.3c0.5,0,0.9,0,1.4-0.1c1.4-0.1,2.8-0.4,4.2-0.7
		c0.1,0.3,0.2,0.5,0.4,0.8c0.5,0.8,1.2,1.4,2,1.7c0.5,0.2,1,0.3,1.5,0.4c0.6,0.2,1.2,0.3,1.7,0.5c0.1,0,0.2,0,0.2,0.1l0.1,0l0.1,0
		c0.1,0,0.3,0.1,0.4,0.1c0.3,0.1,0.5,0.2,0.8,0.3c0.1,0.1,0.2,0.1,0.3,0.2c0,0,0.1,0.1,0.1,0.1c-0.1-0.1,0,0,0.1,0
		c0.1,0,0.1,0.1,0.1,0.1c0,0,0,0,0.1,0.1l0,0l0,0c0,0,0,0-0.1,0.1l0,0l0,0l0,0c0,0-0.1,0.1,0,0c0,0-0.1,0-0.1,0.1
		C144.8,327.4,144.7,327.4,144.7,327.5L144.7,327.5z"/>
	<path d="M145,327.2L145,327.2L145,327.2L145,327.2z"/>
	<path d="M134.4,328.9L134.4,328.9L134.4,328.9C134.4,328.9,134.4,328.9,134.4,328.9z"/>
	<path d="M133.8,333.3L133.8,333.3L133.8,333.3C133.8,333.3,133.8,333.3,133.8,333.3z"/>
	<path d="M133.7,333.3L133.7,333.3C133.7,333.3,133.7,333.3,133.7,333.3L133.7,333.3z"/>
	<path d="M133.9,333.3L133.9,333.3L133.9,333.3C133.9,333.3,133.9,333.3,133.9,333.3z"/>
	<path class="st27" d="M90.4,268.1c-7.2,3.6-14.2,8.7-18.1,15.8"/>
	<path class="st28" d="M31.9,382.4c1.6,3.1,1.3,7.1,0.9,13.5c-0.2,3.3-0.4,6.4-1.5,6.7c-0.9,0.2-2.6-1.5-5.8-9.6
		c-1.9,2.3-4.3,4.1-7.1,5.3c-2,0.8-6.3,2-7,0.6c-0.4-0.8-0.1-2.8,6.3-9.4c-1.9,1.5-4.2,2.4-6.6,2.7c-2.4,0.2-6.1-0.2-6.4-1.6
		c-0.2-0.9,1.1-2.6,7.8-5.9c-2.3,0.9-4.9,1.3-7.4,1c-1.5-0.2-4.2-0.5-4.3-1.4c-0.1-0.9,2-2.7,12.8-6.5
		C21.7,375.4,29.2,377.4,31.9,382.4z"/>
	<path class="st8" d="M55.3,299.2c-4.8,15.3-11.2,30-19,44c-6.5,11.8-13.8,23.2-21.7,34.1c6.1,4.1,13.3,8.9,19.5,13
		c5.9-5.5,7.4-7,13.8-15.4c9.3-12.2,4.6-5.7,9.3-12.2"/>
	<path class="st28" d="M225.9,382.4c-1.6,3.1-1.3,7.1-0.9,13.5c0.2,3.3,0.4,6.4,1.5,6.7c0.9,0.2,2.6-1.5,5.8-9.6
		c1.9,2.3,4.3,4.1,7.1,5.3c2,0.8,6.3,2,7,0.6c0.4-0.8,0.1-2.8-6.3-9.4c1.9,1.5,4.2,2.4,6.6,2.7c2.4,0.2,6.1-0.2,6.4-1.6
		c0.2-0.9-1.1-2.6-7.8-5.9c2.3,0.9,4.9,1.3,7.4,1c1.5-0.2,4.2-0.5,4.3-1.4c0.1-0.9-2-2.7-12.8-6.5
		C236.1,375.4,228.6,377.4,225.9,382.4z"/>
	<path class="st8" d="M202.5,299.2c4.8,15.3,11.2,30,19,44c6.5,11.8,13.8,23.2,21.7,34.1c-6.1,4.1-13.3,8.9-19.5,13
		c-5.9-5.5-7.4-7-13.8-15.4c-9.3-12.2-4.6-5.7-9.3-12.2"/>
	<path class="st29" d="M80.9,524.7c7.7,1,15.5,1.6,23.2,1.7c4.9,0,15.1-0.2,22.5-4.5c0.1-6.4,0.6-34.7,0.6-34.7H90.6l4.8,20.6
		c-3.4,0.9-6.4,3-8.5,5.8C84.4,517.1,82.4,520.8,80.9,524.7z"/>
	<path class="st30" d="M88.7,511.3c2.5-1.1,5.2-1.5,7.9-1.1c3.5,0.7,6.6,2.7,8.7,5.6"/>
	<path class="st30" d="M93.5,507.8c2.5-1.1,5.2-1.5,7.9-1.1c3.5,0.7,6.6,2.7,8.7,5.6"/>
	<path class="st29" d="M176.3,524.7c-7.7,1-15.5,1.6-23.2,1.7c-4.9,0-15.1-0.2-22.5-4.5c-0.1-6.4-0.6-34.7-0.6-34.7h36.6l-4.8,20.6
		c3.4,0.9,6.4,3,8.5,5.8C172.8,517.1,174.8,520.8,176.3,524.7z"/>
	<path class="st30" d="M168.6,511.3c-2.5-1.1-5.2-1.5-7.9-1.1c-3.5,0.7-6.6,2.7-8.7,5.6"/>
	<path class="st30" d="M163.7,507.8c-2.5-1.1-5.2-1.5-7.9-1.1c-3.5,0.7-6.6,2.7-8.7,5.6"/>
</g>
</svg>
