<svg xmlns="http://www.w3.org/2000/svg" viewBox="0 0 279.43332 521.17822"><defs><style>.cls-1{fill:#fff;}</style></defs><g id="Layer_2" data-name="Layer 2"><g id="selection_state" data-name="selection state"><path class="cls-1" d="M269.35646,346.91357a70.094,70.094,0,0,0-9.02539-3.957,316.36541,316.36541,0,0,1-18.25683-29.07617c-12.64014-22.791-13.01172-23.97168-19.21826-43.69531L210.29982,230.294c32.00977-44.34229,28.14795-108.5752,20.09327-134.56495C219.36184,60.13428,187.66506,0,138.74514,0c-.08643,0-.17823,0-.26514.00049C98.61965.17725,71.62648,39.48779,56.001,72.43457l-.21045.46191c-31.12549,71.38184-24.71,130.01563,18.06543,165.10108l1.61474,1.32471a69.39727,69.39727,0,0,0-20.34033,34.09228A259.34158,259.34158,0,0,1,37.34914,313.8999a311.1477,311.1477,0,0,1-18.2456,29.05567,70.19392,70.19392,0,0,0-9.02588,3.958C-.46531,352.7085-.34764,361.19873.19143,364.57373a15.052,15.052,0,0,0,4.42236,8.68945,15.90352,15.90352,0,0,0,6.88086,8.7793,17.52576,17.52576,0,0,0,.731,1.63281c1.11328,2.18848,7.144,12.19043,22.41259,7.80469A15.93146,15.93146,0,0,0,49.481,395.09326c10.81836-2.93457,12.0625-13.46777,12.47509-19.28027,2.58789-2.64356,4.35547-4.76953,6.564-7.42578.63183-.76075,1.30469-1.56934,2.06006-2.46778L93.38381,456.395l-4.30957.01367,6.20215,18.27539c-15.29688.63281-28.56934,1.59863-38.81006,2.833a120.922,120.922,0,0,0-15.9502,2.76855c-14.04638,3.72657-16.14355,12.39454-16.14355,17.23047,0,2.52344.79785,11.10157,11.06445,15.52246a44.74735,44.74735,0,0,0,8.60108,2.53418,207.65154,207.65154,0,0,0,22.80957,3.01075c18.98974,1.67285,44.14306,2.59472,70.82617,2.59472s51.83594-.92187,70.82617-2.59472a207.63476,207.63476,0,0,0,22.80957-3.01075,44.747,44.747,0,0,0,8.60107-2.53418c10.26661-4.42089,11.06446-12.999,11.06446-15.52246,0-4.78515-2.0459-13.37207-15.74707-17.124a113.06219,113.06219,0,0,0-15.2417-2.73926c-9.59766-1.20117-22.084-2.16308-36.52783-2.82031l6.2163-18.31641-4.33447-.01562,22.98731-91.20508c.97509,1.15332,1.81152,2.15918,2.58593,3.0918,2.2085,2.65625,3.97608,4.78222,6.56446,7.42578.41162,5.81152,1.65381,16.34668,12.4624,19.27734a15.93582,15.93582,0,0,0,14.855-3.61035c15.26611,4.3877,21.2998-5.61621,22.41211-7.80273a17.43353,17.43353,0,0,0,.731-1.63477,15.90744,15.90744,0,0,0,6.88134-8.7793,15.06737,15.06737,0,0,0,4.42286-8.69043C279.78078,361.19287,279.89455,352.70557,269.35646,346.91357Zm-244.52972,9.9206-.68317-1.54853a7.97645,7.97645,0,0,1,2.4939.89093Q25.684,356.51661,24.82674,356.83417Zm229.78021-.00006q-.86379-.32007-1.82647-.66321a7.693,7.693,0,0,1,2.51251-.89209Z"/></g></g></svg>