<?xml version="1.0" encoding="UTF-8"?>
<svg id="hero-head-4" xmlns="http://www.w3.org/2000/svg" viewBox="0 0 301 357.96">
  <defs>
    <style>
      .cls-1 {
        stroke-width: 2.39px;
      }

      .cls-1, .cls-2, .cls-3, .cls-4, .cls-5, .cls-6, .cls-7, .cls-8, .cls-9, .cls-10 {
        stroke-miterlimit: 10;
      }

      .cls-1, .cls-3, .cls-11, .cls-10 {
        fill: none;
      }

      .cls-1, .cls-4, .cls-6 {
        stroke: #69a5b5;
      }

      .cls-12 {
        fill: #fff;
      }

      .cls-2 {
        fill: #fdffff;
        stroke: #7ac9d6;
        stroke-width: 8.74px;
      }

      .cls-13 {
        fill: #92cfdd;
      }

      .cls-14 {
        fill: #69a5b5;
      }

      .cls-15 {
        fill: #8aa6c1;
      }

      .cls-16 {
        fill: #b78c74;
      }

      .cls-3 {
        opacity: .4;
        stroke: #b9effc;
        stroke-linecap: round;
      }

      .cls-3, .cls-5, .cls-7, .cls-8, .cls-10 {
        stroke-width: 2.64px;
      }

      .cls-17, .cls-6 {
        fill: #8cc8dd;
      }

      .cls-18 {
        fill: #7ec6d6;
      }

      .cls-19 {
        fill: #f8cabb;
      }

      .cls-4 {
        fill: #a5dfef;
        stroke-width: 1.82px;
      }

      .cls-20, .cls-7 {
        fill: #f9d6bd;
      }

      .cls-21 {
        fill: #352727;
      }

      .cls-5 {
        fill: #ffe8d9;
        stroke: #efceb9;
      }

      .cls-6 {
        stroke-width: 1.76px;
      }

      .cls-7, .cls-8, .cls-9, .cls-10 {
        stroke: #eabea0;
      }

      .cls-22, .cls-8 {
        fill: #f0ccb1;
      }

      .cls-9 {
        stroke-width: 2.32px;
      }

      .cls-9, .cls-23 {
        fill: #fff4f3;
      }

      .cls-24 {
        fill: #e1eaf9;
      }

      .cls-25 {
        fill: #8ad5ea;
      }

      .cls-26 {
        fill: #d4e2fc;
      }
    </style>
  </defs>
  <circle class="cls-2" cx="150.5" cy="207.46" r="146.13"/>
  <g>
    <path class="cls-17" d="m150.5,349.23c26.97,0,52.21-7.58,73.7-20.71-.23-.9-.46-1.78-.68-2.62-1.07-4.15-2.67-7.46-4.6-10.12-8.87-17.65-27.13-29.88-48.39-29.88h-47.54c-21.96,0-40.71,13.04-49.22,31.63-1.22,2.01-2.25,4.36-3.06,7.06,22.74,15.54,50.22,24.64,79.78,24.64Z"/>
    <path class="cls-14" d="m71.59,325.18c.76-2.62,1.77-5.02,3.04-7.14l.05-.1c8.64-18.86,27.6-31.05,48.31-31.05h47.54c20.21,0,38.41,11.24,47.5,29.33l.08.14c1.98,2.72,3.47,6.01,4.44,9.78.25.96.5,1.94.75,2.92.6-.36,1.19-.72,1.78-1.09-.21-.82-.41-1.6-.6-2.33-1.02-3.98-2.61-7.48-4.71-10.39-9.44-18.73-28.3-30.36-49.25-30.36h-47.54c-21.47,0-41.13,12.62-50.11,32.16-1.25,2.08-2.26,4.41-3.04,6.93.58.4,1.15.8,1.73,1.19Z"/>
    <path class="cls-5" d="m58.53,178.45c-2.11-9.19-11.63-32.09-7.19-52.55,3.65-16.81,17.99-46.4,48.8-57.27,17.91-6.32,31.95-.79,46.12-13.3,2.13-1.88,4.27-8.25,10.61-14.5,5.92-5.84,9.27-6.43,10.64-6.57,5.12-.53,10.52,2.27,13.15,6.47,3.9,6.25,1.93,16.04-5.84,22.09,8.64,2.47,20.8,4.31,31.08-1.67,7.32-4.25,8.88-9.68,14.63-10.02,8.87-.53,20.83,11.49,20.27,25.01-.46,11.1-9.26,21.11-21.59,23.73,4.19,3.17,10.4,6.75,17.92,6.67,9.53-.11,13.82-6.01,19.81-4.04,6.9,2.27,9.99,12.99,10.36,19.36.89,15.53-12.95,31.44-34.08,41.54-59.86.71-114.82,14.35-174.68,15.05Z"/>
    <polyline class="cls-6" points="124.05 288.69 124.05 255.03 171.9 255.03 171.9 288.69"/>
    <g>
      <path class="cls-8" d="m67.61,194.39c-2.13-.06-9.42.01-15.44,5.33-1.56,1.37-4.83,4.27-5.61,8.7-1.55,8.73,7.07,20.42,15.44,19.09,4.92-.78,9.01-5.95,10.67-12.35-1.68-6.92-3.37-13.85-5.05-20.77Z"/>
      <path class="cls-7" d="m71.26,213.76c-2.31-4.57-6.72-7.23-10.95-6.74-3.04.36-5.08,2.24-5.89,3.09"/>
    </g>
    <g>
      <path class="cls-7" d="m232.4,194.39c2.13-.06,9.42.01,15.44,5.33,1.56,1.37,4.83,4.27,5.61,8.7,1.55,8.73-7.07,20.42-15.44,19.09-4.92-.78-9.01-5.95-10.67-12.35,1.68-6.92,3.37-13.85,5.05-20.77Z"/>
      <path class="cls-7" d="m228.75,213.76c2.31-4.57,6.72-7.23,10.95-6.74,3.04.36,5.08,2.24,5.89,3.09"/>
    </g>
    <g>
      <path class="cls-20" d="m241.76,195.54c0,50.81-41.19,74.42-92,74.42s-92-23.61-92-74.42,41.19-109.59,92-109.59,92,58.77,92,109.59Z"/>
      <path class="cls-22" d="m71.26,221.07c-15.05-40.77,7.17-100.42,54.99-130.88-39.43,14.36-68.5,62.66-68.5,105.35s31.05,67.72,72.48,73.18c-20.21-5.45-48.05-18.06-58.97-47.65Z"/>
    </g>
    <path class="cls-10" d="m241.76,195.54c0,50.81-41.19,74.42-92,74.42s-92-23.61-92-74.42,41.19-109.59,92-109.59,92,58.77,92,109.59Z"/>
    <path class="cls-5" d="m138.12,101.65c4.53,4.91,13.15,12.85,26.2,17.23,3.88,1.3,29.01,9.74,40.18-2.76,6.23-6.97,7.1-19.31,2.58-22.85-4.69-3.68-12.76,4.03-19.95.33-2.42-1.25-4.1-3.46-5.27-6.1"/>
    <g>
      <g>
        <g>
          <g>
            <path class="cls-23" d="m132.18,176.86c3.67,14.43-6.53,29.48-22.77,33.61s-28.28-5.26-31.95-19.69c-3.67-14.43,2.41-28.43,18.66-32.56,16.25-4.13,32.39,4.21,36.06,18.64Z"/>
            <circle class="cls-21" cx="109.25" cy="180.12" r="14.01"/>
            <polygon class="cls-23" points="104.89 180.44 83.06 185.93 93.99 192.26 104.89 180.44"/>
          </g>
          <path class="cls-16" d="m77.46,190.78c3.95,13.7,16.35,21.34,30.3,19.31,4.35-.59,8.58-2.17,12.46-4.5-3.37,3.03-7.63,5.16-12.18,6.1-14.39,3.18-29-5.89-30.58-20.9h0Z"/>
          <path class="cls-16" d="m76.43,182.41c-1.41-11.47,6.47-21.46,17.05-25.18,10.38-3.76,22.98-1.88,31.29,5.53,5.54,4.97,8.46,12.38,8.15,19.43-1.18-6.94-4.67-13.25-9.93-17.34-16.51-12.52-44.71-4.92-46.56,17.56h0Z"/>
        </g>
        <g>
          <g>
            <path class="cls-23" d="m167.33,176.86c-3.67,14.43,6.53,29.48,22.77,33.61,16.25,4.13,28.28-5.26,31.95-19.69,3.67-14.43-2.41-28.43-18.66-32.56-16.25-4.13-32.39,4.21-36.06,18.64Z"/>
            <circle class="cls-21" cx="190.02" cy="180.12" r="14.01"/>
            <polygon class="cls-23" points="185.66 180.44 169.41 184.53 174.76 192.26 185.66 180.44"/>
          </g>
          <path class="cls-16" d="m222.06,190.78c-1.58,15.02-16.18,24.07-30.58,20.9-4.55-.93-8.81-3.06-12.18-6.1,3.88,2.33,8.11,3.91,12.46,4.5,13.95,2.03,26.36-5.62,30.3-19.31h0Z"/>
          <path class="cls-16" d="m223.08,182.41c-1.82-22.45-30.1-30.08-46.56-17.56-5.26,4.09-8.75,10.39-9.93,17.33-.31-7.04,2.61-14.46,8.15-19.43,8.32-7.41,20.91-9.29,31.29-5.53,10.57,3.71,18.46,13.71,17.05,25.18h0Z"/>
        </g>
      </g>
      <path class="cls-9" d="m183.2,217.82c-9.15-7.95-22.44,3.2-33.44,3.2s-24.3-11.16-33.44-3.2c-9.15,7.95,4.26,30.17,33.44,30.17s42.59-22.22,33.44-30.17Z"/>
      <ellipse class="cls-19" cx="90.78" cy="224.53" rx="7.96" ry="13.14" transform="translate(-136.72 307.6) rotate(-88.05)"/>
      <ellipse class="cls-19" cx="208.74" cy="225.08" rx="7.96" ry="13.14" transform="translate(-23.33 426.02) rotate(-88.05)"/>
      <g>
        <path class="cls-16" d="m87.39,149.77c5.2-14.23,23.6-20.85,36.4-12.24,4.08,2.67,7.33,6.43,9.21,10.74-3.1-3.49-6.66-6.37-10.58-8.36-12.42-6.38-26.91-.95-35.02,9.86h0Z"/>
        <path class="cls-16" d="m166.52,149.77c5.2-14.23,23.6-20.85,36.4-12.24,4.08,2.67,7.33,6.43,9.21,10.74-3.1-3.49-6.66-6.37-10.58-8.36-12.42-6.38-26.91-.95-35.02,9.86h0Z"/>
      </g>
    </g>
    <g>
      <path class="cls-23" d="m150.5,349.23c11.49,0,22.66-1.38,33.37-3.97-4.28-13.51-16.7-23.74-31.29-22.64-14.61,1.1-27.11,10.75-31.35,23.57,9.45,1.99,19.24,3.05,29.28,3.05Z"/>
      <g>
        <path class="cls-24" d="m150.5,349.23c2.79,0,5.56-.08,8.31-.24v-4.4h-20.07v4.16c3.88.32,7.8.48,11.76.48Z"/>
        <path class="cls-26" d="m166.41,348.33v-5.21l-4.09-5.61-3.5,6.26.04,5.21c2.54-.15,5.06-.37,7.56-.65Z"/>
        <g>
          <polyline class="cls-26" points="158.81 343.77 139.3 343.77 142.78 337.26 161.6 337.26"/>
          <polygon class="cls-15" points="158.81 344.65 137.83 344.65 142.26 336.38 161.6 336.38 161.6 338.14 143.31 338.14 140.76 342.89 158.81 342.89 158.81 344.65"/>
        </g>
        <g>
          <path class="cls-24" d="m162.48,337.05l-19.7.21-.03-2.25c-.02-1.28,1.02-2.34,2.3-2.34h15.13c1.27,0,2.3,1.03,2.3,2.3v2.07Z"/>
          <path class="cls-15" d="m141.92,338.15l-.04-3.12c-.01-.86.31-1.67.92-2.28.6-.61,1.41-.95,2.27-.95h15.13c1.75,0,3.18,1.43,3.18,3.18v2.94l-21.45.23Zm3.14-4.59c-.38,0-.75.15-1.01.42-.27.27-.42.64-.41,1.02l.02,1.37,17.96-.19v-1.2c0-.79-.64-1.42-1.42-1.42h-15.13Z"/>
        </g>
        <circle class="cls-12" cx="141.6" cy="346.68" r=".93"/>
        <g>
          <path class="cls-15" d="m159.68,348.93v-4.35h-1.74v4.44c.58-.03,1.16-.06,1.74-.1Z"/>
          <path class="cls-15" d="m139.61,348.81v-4.22h-1.74v4.08c.58.05,1.16.1,1.74.14Z"/>
        </g>
        <path class="cls-15" d="m159.73,348.92l-.03-4.93,2.72-4.86,3.12,4.27v5.02c.59-.06,1.17-.13,1.76-.2v-5.4l-5.07-6.95-4.28,7.66.04,5.48c.59-.03,1.17-.06,1.76-.1Z"/>
      </g>
      <path class="cls-14" d="m122.36,346.42c4.08-12.24,15.96-21.57,30.3-22.65.68-.05,1.36-.08,2.04-.08,6.98,0,13.71,2.7,19.13,7.73,4.17,3.86,7.22,8.75,8.92,14.1.75-.18,1.51-.36,2.26-.55-1.81-5.79-5.1-11.08-9.6-15.26-6.42-5.96-14.56-8.89-22.92-8.26-15.38,1.16-28.12,11.25-32.41,24.48.76.17,1.52.33,2.29.49Z"/>
    </g>
    <path class="cls-3" d="m106.63,296.29c-8.6,4.35-17,10.47-21.67,18.9"/>
    <g>
      <path class="cls-4" d="m205.48,82.22c-49.32,22.69-101.48,40.44-154.39,52.55l-14.79-43.45c-2.79-8.19,2.11-17.26,10.95-20.27l122.41-41.66c8.83-3.01,18.25,1.19,21.04,9.38l14.79,43.45Z"/>
      <path class="cls-25" d="m38.22,79.68c-1.95,3.6-2.32,7.63-1.06,11.35l14.52,42.67c9.84-2.26,19.64-4.72,29.4-7.36,0,0-5.07-11.3-9.29-24.01s-6.03-28.91,13.81-41.67l6.81-4.02-44.87,15.27c-4.05,1.38-7.36,4.13-9.32,7.76Z"/>
      <g>
        <path class="cls-18" d="m68.74,126.48c-2.05.7-4.25-.29-4.9-2.18l-12.26-36.04c-.65-1.9.5-4.02,2.55-4.72,2.05-.7,4.25.29,4.9,2.18l12.26,36.04c.65,1.9-.5,4.02-2.55,4.72Z"/>
        <path class="cls-13" d="m88.2,119.85c-2.05.7-4.25-.29-4.9-2.18l-12.26-36.04c-.65-1.9.5-4.02,2.55-4.72,2.05-.7,4.25.29,4.9,2.18l12.26,36.04c.65,1.9-.5,4.02-2.55,4.72Z"/>
        <path class="cls-13" d="m107.65,113.23c-2.05.7-4.25-.29-4.9-2.18l-12.26-36.04c-.65-1.9.5-4.02,2.55-4.72,2.05-.7,4.25.29,4.9,2.18l12.26,36.04c.65,1.9-.5,4.02-2.55,4.72Z"/>
        <path class="cls-13" d="m127.1,106.61c-2.05.7-4.25-.29-4.9-2.18l-12.26-36.04c-.65-1.9.5-4.02,2.55-4.72,2.05-.7,4.25.29,4.9,2.18l12.26,36.04c.65,1.9-.5,4.02-2.55,4.72Z"/>
        <path class="cls-13" d="m146.55,99.99c-2.05.7-4.25-.29-4.9-2.18l-12.26-36.04c-.65-1.9.5-4.02,2.55-4.72,2.05-.7,4.25.29,4.9,2.18l12.26,36.04c.65,1.9-.5,4.02-2.55,4.72Z"/>
        <path class="cls-13" d="m166.01,93.37c-2.05.7-4.25-.29-4.9-2.18l-12.26-36.04c-.65-1.9.5-4.02,2.55-4.72,2.05-.7,4.25.29,4.9,2.18l12.26,36.04c.65,1.9-.5,4.02-2.55,4.72Z"/>
        <path class="cls-13" d="m186.43,86.42c-2.05.7-4.25-.29-4.9-2.18l-12.26-36.04c-.65-1.9.5-4.02,2.55-4.72,2.05-.7,4.25.29,4.9,2.18l12.26,36.04c.65,1.9-.5,4.02-2.55,4.72Z"/>
      </g>
      <path class="cls-11" d="m205.48,82.22c-49.32,22.69-101.48,40.44-154.39,52.55l-14.79-43.45c-2.79-8.19,2.11-17.26,10.95-20.27l122.41-41.66c8.83-3.01,18.25,1.19,21.04,9.38l14.79,43.45Z"/>
      <path class="cls-1" d="m205.48,82.22c-49.32,22.69-101.48,40.44-154.39,52.55l-14.79-43.45c-2.79-8.19,2.11-17.26,10.95-20.27l122.41-41.66c8.83-3.01,18.25,1.19,21.04,9.38l14.79,43.45Z"/>
    </g>
    <path class="cls-11" d="m241.76,195.54c0,50.81-41.19,74.42-92,74.42s-92-23.61-92-74.42,41.19-109.59,92-109.59,92,58.77,92,109.59Z"/>
  </g>
</svg>