<?xml version="1.0" encoding="utf-8"?>
<!-- Generator: Adobe Illustrator 27.3.1, SVG Export Plug-In . SVG Version: 6.00 Build 0)  -->
<svg version="1.1" id="Layer_1" xmlns="http://www.w3.org/2000/svg" xmlns:xlink="http://www.w3.org/1999/xlink" x="0px" y="0px"
	 viewBox="0 0 228.3 496.8" style="enable-background:new 0 0 228.3 496.8;" xml:space="preserve">
<style type="text/css">
	.st0{opacity:0.2;fill:#A36C6C;enable-background:new    ;}
	.st1{fill:#FFE8D9;stroke:#EFCEB9;stroke-width:2.1986;stroke-miterlimit:10;}
	.st2{fill:#8CC8DD;stroke:#69A5B5;stroke-width:1.5211;stroke-miterlimit:10;}
	.st3{fill:#8CC8DD;stroke:#69A5B5;stroke-width:1.4657;stroke-miterlimit:10;}
	.st4{fill:#FFF4F3;}
	.st5{clip-path:url(#SVGID_00000137812178156986604510000008362249612427958432_);}
	.st6{fill:#A5DAF2;stroke:#8DC5D8;stroke-width:0.8474;stroke-miterlimit:10;}
	.st7{fill:none;stroke:#69A5B5;stroke-width:1.4657;stroke-miterlimit:10;}
	.st8{fill:none;stroke:#8CC4E0;stroke-width:1.8749;stroke-miterlimit:10;}
	.st9{clip-path:url(#SVGID_00000154416445038369868690000001814638463077869460_);}
	.st10{fill:#F9D6BD;stroke:#EABEA0;stroke-width:1.5725;stroke-miterlimit:10;}
	.st11{fill:#8CC8DD;stroke:#69A5B5;stroke-width:1.632;stroke-miterlimit:10;}
	.st12{fill:#8CC8DD;}
	.st13{fill:#F9D6BD;stroke:#EABEA0;stroke-width:2.1986;stroke-miterlimit:10;}
	.st14{fill:#F9D6BD;}
	.st15{clip-path:url(#SVGID_00000055664786820979885630000015647223659649339555_);}
	.st16{opacity:0.38;fill:#E2BA9F;enable-background:new    ;}
	.st17{fill:none;stroke:#EABEA0;stroke-width:2.1986;stroke-miterlimit:10;}
	.st18{fill:#352727;}
	.st19{fill:#B78C74;}
	.st20{fill:#FFF4F3;stroke:#EABEA0;stroke-width:1.9349;stroke-miterlimit:10;}
	.st21{opacity:0.4;fill:#F7BABA;enable-background:new    ;}
	.st22{fill:#FFF4F3;stroke:#69A5B5;stroke-width:1.9349;stroke-miterlimit:10;}
	.st23{fill:#E1EAF9;stroke:#8AA6C1;stroke-width:1.4472;stroke-miterlimit:10;}
	.st24{fill:#D4E2FC;stroke:#8AA6C1;stroke-width:1.4657;stroke-miterlimit:10;}
	.st25{fill:#E1EAF9;stroke:#8AA6C1;stroke-width:1.4657;stroke-miterlimit:10;}
	.st26{fill:#FFFFFF;}
	
		.st27{opacity:0.4;fill:none;stroke:#B9EFFC;stroke-width:2.1986;stroke-linecap:round;stroke-miterlimit:10;enable-background:new    ;}
	.st28{fill:#A5DFEF;stroke:#69A5B5;stroke-width:1.5147;stroke-miterlimit:10;}
	.st29{fill:#8AD5EA;}
	.st30{fill:#7EC6D6;}
	.st31{fill:#92CFDD;}
	.st32{fill:none;}
	.st33{fill:none;stroke:#69A5B5;stroke-width:1.9876;stroke-miterlimit:10;}
</style>
<g>
	<g id="Layer_2_00000179633901790315005120000011132104605803621303_">
		<g id="instruction_character">
			<ellipse class="st0" cx="114.1" cy="488.2" rx="81.6" ry="8.7"/>
			<path class="st1" d="M39.1,123.9c-1.8-7.7-8.7-24.6-5-41.6c3-14,15-38.7,40.7-47.7c14.9-5.3,26.6-0.7,38.4-11.1
				c1.8-1.6,3.6-6.9,8.8-12.1c4.9-4.9,7.7-5.4,8.9-5.5c4.4-0.3,8.6,1.7,11,5.4c3.2,5.2,1.6,13.4-4.9,18.4c7.2,2.1,17.3,3.6,25.9-1.4
				c6.1-3.5,7.4-8.1,12.2-8.4c7.4-0.4,17.4,9.6,16.9,20.8c-0.4,9.2-7.7,17.6-18,19.8c3.5,2.6,8.7,5.6,14.9,5.6
				c7.9-0.1,11.5-5,16.5-3.4c5.7,1.9,8.3,10.8,8.6,16.1c0.7,12.9-10.8,26.2-28.4,34.6C135.8,114.1,89,123.3,39.1,123.9z"/>
			<path class="st2" d="M178.5,263.3l-41.2,204.3h-21.6V353.2h-4v114.5H90L48.8,263.3c-1.4-24.9,17.5-46.2,42.4-47.7
				c0.9-0.1,1.7-0.1,2.6-0.1h39.6c24.9,0,45.1,20.2,45.1,45.1C178.6,261.6,178.5,262.5,178.5,263.3z"/>
			<polyline class="st3" points="94.7,217.9 94.7,189.9 134.6,189.9 134.6,217.9 			"/>
			<path class="st4" d="M138.6,466.9l-3.2,11.1c3.1,1.8,6.6,3.3,10.1,7.5c1.2,1.4,2.3,2.9,3.2,4.5c-5.5,0.7-11,1-16.5,1
				c-3.8,0-11.8-0.2-17.6-3.5c0-5-0.3-20.7-0.3-20.7L138.6,466.9z"/>
			<g>
				<defs>
					<path id="SVGID_1_" d="M138.6,466.9l-3.2,11.1c3.1,1.8,6.6,3.3,10.1,7.5c1.2,1.4,2.3,2.9,3.2,4.5c-5.5,0.7-11,1-16.5,1
						c-3.8,0-11.8-0.2-17.6-3.5c0-5-0.3-20.7-0.3-20.7L138.6,466.9z"/>
				</defs>
				<clipPath id="SVGID_00000114038778580294292580000016406168298454362761_">
					<use xlink:href="#SVGID_1_"  style="overflow:visible;"/>
				</clipPath>
				<g style="clip-path:url(#SVGID_00000114038778580294292580000016406168298454362761_);">
					<path class="st6" d="M108.8,480.9c3.3-0.2,6.6,0.3,9.6,1.7c4.5,2.1,8,5.8,10,10.3l-13.6-1.5
						C112.9,487.9,110.9,484.4,108.8,480.9z"/>
				</g>
			</g>
			<path class="st7" d="M138.6,466.9l-3.2,11.1c3.1,1.8,6.6,3.3,10.1,7.5c1.2,1.4,2.3,2.9,3.2,4.5c-5.5,0.7-11,1-16.5,1
				c-3.8,0-11.8-0.2-17.6-3.5c0-5-0.3-20.7-0.3-20.7L138.6,466.9z"/>
			<path class="st8" d="M140.8,480.3c-1.9-0.9-4.1-1.2-6.2-0.8c-2.8,0.5-5.2,2.1-6.8,4.4"/>
			<path class="st8" d="M137,477.6c-1.9-0.9-4.1-1.2-6.2-0.8c-2.8,0.5-5.2,2.1-6.8,4.4"/>
			<path class="st4" d="M88.7,466.9l3.2,11.1c-3.1,1.8-6.6,3.3-10.1,7.5c-1.2,1.4-2.3,2.9-3.2,4.5c5.5,0.7,11,1,16.5,1
				c3.8,0,11.8-0.2,17.6-3.5c0-5,0.3-20.7,0.3-20.7L88.7,466.9z"/>
			<g>
				<defs>
					<path id="SVGID_00000002373219661859065050000017153926062971443116_" d="M88.7,466.9l3.2,11.1c-3.1,1.8-6.6,3.3-10.1,7.5
						c-1.2,1.4-2.3,2.9-3.2,4.5c5.5,0.7,11,1,16.5,1c3.8,0,11.8-0.2,17.6-3.5c0-5,0.3-20.7,0.3-20.7L88.7,466.9z"/>
				</defs>
				<clipPath id="SVGID_00000092445065246754367340000009788671329801203373_">
					<use xlink:href="#SVGID_00000002373219661859065050000017153926062971443116_"  style="overflow:visible;"/>
				</clipPath>
				<g style="clip-path:url(#SVGID_00000092445065246754367340000009788671329801203373_);">
					<path class="st6" d="M118.4,480.9c-3.3-0.2-6.6,0.3-9.6,1.7c-4.5,2.1-8,5.8-10,10.3l13.6-1.5
						C114.4,487.9,116.4,484.4,118.4,480.9z"/>
				</g>
			</g>
			<path class="st7" d="M88.7,466.9l3.2,11.1c-3.1,1.8-6.6,3.3-10.1,7.5c-1.2,1.4-2.3,2.9-3.2,4.5c5.5,0.7,11,1,16.5,1
				c3.8,0,11.8-0.2,17.6-3.5c0-5,0.3-20.7,0.3-20.7L88.7,466.9z"/>
			<path class="st8" d="M86.5,480.3c1.9-0.9,4.1-1.2,6.2-0.8c2.8,0.5,5.2,2.1,6.8,4.4"/>
			<path class="st8" d="M90.3,477.6c1.9-0.9,4.1-1.2,6.2-0.8c2.8,0.5,5.2,2.1,6.8,4.4"/>
			<path class="st10" d="M33.5,342c1.6,2.8,1.2,6.4,0.6,12.3c-0.3,3-0.6,5.8-1.8,6c-1,0.2-2.7-1.4-5.8-8.8c-2.1,2.1-4.7,3.7-7.6,4.7
				c-2.1,0.7-6.6,1.7-7.4,0.4c-0.4-0.7,0-2.6,6.8-8.4c-2.1,1.4-4.5,2.2-7,2.3c-2.5,0.2-6.4-0.3-6.6-1.6c-0.2-0.8,1.2-2.4,8.4-5.3
				c-2.5,0.8-5.2,1.1-7.8,0.8c-1.6-0.2-4.3-0.5-4.5-1.4c-0.1-0.8,2.2-2.4,13.6-5.6C23,335.5,30.8,337.4,33.5,342z"/>
			<path class="st11" d="M82.5,233.6c0,0-26.4-8.3-32.5,15.4c-5.9,22.8-18.8,72.1-29.3,87.4l13.9,8.9C56.2,319.8,80,259.4,80,259.4
				S93,238.4,82.5,233.6z"/>
			<path class="st12" d="M63.2,321.2l28-7.4l-5.3-44l5.3-41.5l-12.3-8.4c-14,2.5-28.8,20.9-27.7,35.1l2.4,38.5L63.2,321.2z"/>
			<path class="st10" d="M194.8,342c-1.6,2.8-1.2,6.4-0.6,12.3c0.3,3,0.6,5.8,1.8,6c1,0.2,2.7-1.4,5.8-8.8c2.1,2.1,4.7,3.7,7.6,4.7
				c2.1,0.7,6.6,1.7,7.4,0.4c0.4-0.7,0-2.6-6.8-8.4c2.1,1.4,4.5,2.2,7,2.3c2.5,0.2,6.4-0.3,6.6-1.6c0.2-0.8-1.2-2.4-8.4-5.3
				c2.5,0.8,5.2,1.1,7.8,0.8c1.6-0.2,4.3-0.5,4.5-1.4c0.1-0.8-2.2-2.4-13.6-5.6C205.3,335.5,197.5,337.4,194.8,342z"/>
			<path class="st11" d="M145.1,233.6c0,0,26.4-8.3,32.5,15.4c5.9,22.8,18.8,72.1,29.3,87.4l-13.9,8.9
				c-21.6-25.5-45.5-85.9-45.5-85.9S134.6,238.4,145.1,233.6z"/>
			<path class="st12" d="M164.4,321.2l-28-7.4l5.3-44l-5.3-41.5l12.3-8.4c14,2.5,28.8,20.9,27.7,35.1l-2.4,38.5L164.4,321.2z"/>
			<path class="st13" d="M47.7,139.3c-4.7-0.2-9.3,1.4-12.9,4.4c-1.3,1.1-4,3.6-4.7,7.3c-1.3,7.3,5.9,17,12.9,15.9
				c4.1-0.7,7.5-5,8.9-10.3L47.7,139.3z"/>
			<path class="st13" d="M50.7,155.5c-1.9-3.8-5.6-6-9.1-5.6c-1.9,0.3-3.6,1.2-4.9,2.6"/>
			<path class="st13" d="M185,139.3c4.7-0.2,9.3,1.4,12.9,4.4c1.3,1.1,4,3.6,4.7,7.3c1.3,7.3-5.9,17-12.9,15.9
				c-4.1-0.7-7.5-5-8.9-10.3L185,139.3z"/>
			<path class="st13" d="M182,155.5c1.9-3.8,5.6-6,9.1-5.6c1.9,0.3,3.6,1.2,4.9,2.6"/>
			<path class="st14" d="M192.8,140.3c0,42.4-34.3,62-76.7,62s-76.7-19.7-76.7-62S73.8,49,116.1,49S192.8,98,192.8,140.3z"/>
			<g>
				<defs>
					<path id="SVGID_00000170974711988363024180000011225787285316135073_" d="M192.8,140.3c0,42.4-34.3,62-76.7,62
						s-76.7-19.7-76.7-62S73.8,49,116.1,49S192.8,98,192.8,140.3z"/>
				</defs>
				<clipPath id="SVGID_00000107549693121578702270000016879892199792011696_">
					<use xlink:href="#SVGID_00000170974711988363024180000011225787285316135073_"  style="overflow:visible;"/>
				</clipPath>
				<g style="clip-path:url(#SVGID_00000107549693121578702270000016879892199792011696_);">
					<path class="st16" d="M113.9,43.6c-51.7,20.5-77.5,79.4-63.2,118c14.6,39.6,65.6,42.7,68.2,43.2c-4.9,2.3-35.5,16.4-66.1,2.1
						C19.5,191.3,8,152.2,11.3,124.6C16.4,82.5,58.7,45.9,113.9,43.6z"/>
				</g>
			</g>
			<path class="st17" d="M192.8,140.3c0,42.4-34.3,62-76.7,62s-76.7-19.7-76.7-62S73.8,49,116.1,49S192.8,98,192.8,140.3z"/>
			<path class="st1" d="M106.4,62c6,6.5,13.5,11.5,21.8,14.4c3.2,1.1,24.2,8.1,33.5-2.3c5.2-5.8,5.9-16.1,2.2-19
				c-3.9-3.1-10.6,3.4-16.6,0.3c-2-1.1-3.6-2.9-4.4-5.1"/>
			<path class="st4" d="M101.5,124.7c3.1,12-5.4,24.6-19,28s-23.6-4.4-26.6-16.4s2-23.7,15.6-27.1S98.4,112.7,101.5,124.7z"/>
			<circle class="st18" cx="82.4" cy="127.5" r="11.7"/>
			<polygon class="st4" points="78.7,127.7 60.5,132.3 69.6,137.6 			"/>
			<path class="st19" d="M55.9,136.3c3.2,11.4,13.7,17.8,25.3,16.1c3.7-0.5,7.2-1.8,10.4-3.8c-2.9,2.6-6.4,4.3-10.2,5.1
				C69.4,156.4,57.2,148.8,55.9,136.3L55.9,136.3z"/>
			<path class="st19" d="M55,129.4c-1.9-21.1,26.2-29.2,40.3-16.4c4.5,4.1,7,10.1,6.8,16.2c-0.9-5.7-3.8-10.8-8.3-14.4
				C80.2,104.3,56.5,110.7,55,129.4z"/>
			<path class="st4" d="M130.8,124.7c-3.1,12,5.4,24.6,19,28s23.6-4.4,26.6-16.4s-2-23.7-15.6-27.1S133.8,112.7,130.8,124.7z"/>
			<circle class="st18" cx="149.7" cy="127.5" r="11.7"/>
			<polygon class="st4" points="146.1,127.7 132.5,131.1 137,137.6 			"/>
			<path class="st19" d="M176.4,136.3c-1.3,12.5-13.5,20.1-25.5,17.4c-3.8-0.8-7.3-2.5-10.2-5.1c3.2,1.9,6.7,3.2,10.4,3.8
				C162.7,154.2,173.2,147.7,176.4,136.3L176.4,136.3z"/>
			<path class="st19" d="M177.3,129.4c-1.5-18.7-25.1-25.1-38.8-14.6c-4.5,3.6-7.4,8.8-8.3,14.4c-0.2-6.1,2.3-12.1,6.8-16.2
				C151.1,100.2,179.1,108.2,177.3,129.4z"/>
			<path class="st20" d="M144,158.9c-7.6-6.6-18.7,2.7-27.9,2.7s-20.3-9.3-27.9-2.7c-7.6,6.6,3.5,25.1,27.9,25.1
				S151.6,165.5,144,158.9z"/>
			
				<ellipse transform="matrix(3.410115e-02 -0.9994 0.9994 3.410115e-02 -99.6855 225.794)" class="st21" cx="67" cy="164.5" rx="6.6" ry="11"/>
			
				<ellipse transform="matrix(3.410129e-02 -0.9994 0.9994 3.410129e-02 -5.1679 324.5037)" class="st21" cx="165.3" cy="164.9" rx="6.6" ry="11"/>
			<path class="st19" d="M64.1,102.1C68.4,90.3,83.9,84.8,94.5,92c3.4,2.2,6,5.3,7.7,9c-2.5-2.9-5.5-5.2-8.8-7
				C83.1,88.6,70.8,93.2,64.1,102.1z"/>
			<path class="st19" d="M130.1,102.1c4.3-11.9,19.7-17.4,30.3-10.2c3.4,2.2,6,5.3,7.7,9c-2.5-2.9-5.5-5.2-8.8-7
				C149,88.6,136.8,93.2,130.1,102.1z"/>
			<path class="st22" d="M145.9,273.6c0,15.1-12.3,27.4-27.4,27.4c-15.1,0-27.4-12.3-27.4-27.4c0.1-14.4,12.4-26.3,27.4-27.4
				C133.6,245.1,145.9,258.5,145.9,273.6z"/>
			<polyline class="st23" points="123.7,264.5 123.7,290.8 107,290.8 107,264.5 			"/>
			<polyline class="st24" points="123.7,263.9 107.4,263.9 110.3,258.4 126,258.4 			"/>
			<path class="st25" d="M126.7,258.3l-16.4,0.2l0-1.9c0-1.1,0.8-1.9,1.9-1.9c0,0,0,0,0,0h12.6c1.1,0,1.9,0.9,1.9,1.9L126.7,258.3z"
				/>
			<polygon class="st24" points="130,263.3 130,290.8 123.9,290.8 123.7,263.9 126.6,258.6 			"/>
			<path class="st26" d="M110,274.3l0.1-5.3l0-0.8c0-0.4-0.4-0.7-0.8-0.7c-0.4,0-0.7,0.3-0.7,0.7l-0.1,5.3l0,0.8
				c0,0.4,0.4,0.7,0.8,0.7C109.6,275,109.9,274.7,110,274.3L110,274.3z"/>
			<circle class="st26" cx="109.3" cy="266.3" r="0.8"/>
			<path class="st27" d="M80.2,224.3C73,227.9,66,233,62.1,240"/>
			<g>
				<path class="st28" d="M161,46C120,64.9,76.6,79.6,32.6,89.7L20.4,53.6c-2.3-6.8,1.8-14.3,9.1-16.8L131.2,2.1
					c7.3-2.5,15.2,1,17.5,7.8L161,46L161,46z"/>
				<path class="st29" d="M21.9,43.9c-1.6,3-1.9,6.3-0.9,9.4l12.1,35.5c8.2-1.9,16.3-3.9,24.4-6.1c0,0-4.2-9.4-7.7-20
					c-3.5-10.6-5-24,11.5-34.6l5.7-3.3L29.7,37.4C26.3,38.6,23.6,40.9,21.9,43.9L21.9,43.9L21.9,43.9z"/>
				<g>
					<path class="st30" d="M47.3,82.8c-1.7,0.6-3.5-0.2-4.1-1.8L33.1,51c-0.5-1.6,0.4-3.3,2.1-3.9c1.7-0.6,3.5,0.2,4.1,1.8l10.2,30
						C50,80.5,49,82.2,47.3,82.8z"/>
					<path class="st31" d="M63.5,77.3c-1.7,0.6-3.5-0.2-4.1-1.8l-10.2-30c-0.5-1.6,0.4-3.3,2.1-3.9c1.7-0.6,3.5,0.2,4.1,1.8l10.2,30
						C66.2,74.9,65.2,76.7,63.5,77.3z"/>
					<path class="st31" d="M79.7,71.8c-1.7,0.6-3.5-0.2-4.1-1.8L65.4,40c-0.5-1.6,0.4-3.3,2.1-3.9s3.5,0.2,4.1,1.8l10.2,30
						C82.3,69.4,81.4,71.2,79.7,71.8z"/>
					<path class="st31" d="M95.8,66.3c-1.7,0.6-3.5-0.2-4.1-1.8l-10.2-30c-0.5-1.6,0.4-3.3,2.1-3.9c1.7-0.6,3.5,0.2,4.1,1.8l10.2,30
						C98.5,63.9,97.5,65.7,95.8,66.3z"/>
					<path class="st31" d="M112,60.8c-1.7,0.6-3.5-0.2-4.1-1.8L97.7,29c-0.5-1.6,0.4-3.3,2.1-3.9c1.7-0.6,3.5,0.2,4.1,1.8l10.2,30
						C114.7,58.4,113.7,60.2,112,60.8L112,60.8z"/>
					<path class="st31" d="M128.2,55.3c-1.7,0.6-3.5-0.2-4.1-1.8l-10.2-30c-0.5-1.6,0.4-3.3,2.1-3.9c1.7-0.6,3.5,0.2,4.1,1.8
						l10.2,30C130.8,52.9,129.9,54.7,128.2,55.3z"/>
					<path class="st31" d="M145.2,49.5c-1.7,0.6-3.5-0.2-4.1-1.8l-10.2-30c-0.5-1.6,0.4-3.3,2.1-3.9s3.5,0.2,4.1,1.8l10.2,30
						C147.8,47.2,146.9,48.9,145.2,49.5z"/>
				</g>
				<path class="st32" d="M161,46C120,64.9,76.6,79.6,32.6,89.7L20.4,53.6c-2.3-6.8,1.8-14.3,9.1-16.8L131.2,2.1
					c7.3-2.5,15.2,1,17.5,7.8L161,46L161,46z"/>
				<path class="st33" d="M161,46C120,64.9,76.6,79.6,32.6,89.7L20.4,53.6c-2.3-6.8,1.8-14.3,9.1-16.8L131.2,2.1
					c7.3-2.5,15.2,1,17.5,7.8L161,46L161,46z"/>
			</g>
		</g>
	</g>
</g>
</svg>
