<svg xmlns="http://www.w3.org/2000/svg" viewBox="0 0 256.69361 525.83647"><defs><style>.cls-1{fill:#fff;}</style></defs><g id="Layer_2" data-name="Layer 2"><g id="selection_state" data-name="selection state"><path class="cls-1" d="M245.422,341.64409a99.455,99.455,0,0,0-13.249-4.49609l-.64746-.168c-.30371-.07129-.60742-.14063-.91113-.20606-.72754-1.50683-1.52247-3.2871-2.39063-5.38964l.67188-3.751-1.73438,1.10644c-4.752-12.12792-11.4668-33.19531-20.80859-69.50781a40.10645,40.10645,0,0,0-5.47852-12.44482,60.09849,60.09849,0,0,0-23.54-24.3291c14.18457-6.15186,25.48047-15.34375,33.16016-27.085a26.53063,26.53063,0,0,0,12.42285-7.312c6.88086-7.00293,10.18555-16.82177,8.624-25.62451-1.56933-8.852-7.55078-14.13769-9.51269-15.87158q-.16846-.14941-.33985-.29639a105.38861,105.38861,0,0,0-1.92773-13.0664c15.75293-11.251,24.38477-26.07764,23.52441-41.15918-.626-10.95948-5.958-25.27-18.92285-29.53321a21.58071,21.58071,0,0,0-3.97949-.90673,34.08963,34.08963,0,0,0,.82813-6.19385,36.56656,36.56656,0,0,0-11.18848-27.41992c-6.28418-6.17237-14.13379-9.46436-21.58594-9.01807a21.45759,21.45759,0,0,0-8.87793,2.478l-.90039-2.64551A27.71454,27.71454,0,0,0,163.68962,2.52837,29.52059,29.52059,0,0,0,142.09,1.61626L63.40739,28.39556c-15.86425,1.99023-29.39257,9.106-38.13964,20.85986-8.44434,11.34668-11.45606,25.92871-8.709,42.17041,2.34863,13.88232,8.86231,28.88867,19.39356,44.70215a62.04838,62.04838,0,0,0-3.4043,14.147c-4.33594,35.71924,5.91894,52.01123,43.88769,69.73047a12.99432,12.99432,0,0,1,2.98731,1.90527,60.26319,60.26319,0,0,0-25.71777,27.10352A41.27576,41.27576,0,0,0,49.60661,259.233C37.65056,305.70952,29.99919,327.20854,25.256,336.95952l-.08594.02051-.64941.168a99.45581,99.45581,0,0,0-13.249,4.49609c-12.02148,5.44336-11.54,15.04981-11.10449,17.873A14.64232,14.64232,0,0,0,4.91228,368.565a16.0441,16.0441,0,0,0,7.10644,8.2334c.20606.46582.40137.8457.55762,1.127,1.99414,3.59473,8.12207,11.21,22.94531,7.25684a16.355,16.355,0,0,0,14.20313,3.82129c11.69433-2.5586,12.97754-14.57129,13.46093-19.09082.14454-1.35157.28614-2.68067.39747-3.99414l1.9707.00976L85.72771,465.98491l-2.7168.00879,3.90039,13.68848c-10.45019.63476-19.585,1.50781-26.88184,2.57715a87.972,87.972,0,0,0-13.79882,2.92382c-12.60254,4.0586-14.48438,12.38672-14.48438,16.99024,0,6.1416,3.08106,14.23633,17.76074,17.9209a149.12859,149.12859,0,0,0,19.55567,3.12109c15.92187,1.69043,36.97656,2.62109,59.28418,2.62109s43.36133-.93066,59.2832-2.62109a149.10012,149.10012,0,0,0,19.55566-3.12109c14.67969-3.68457,17.76075-11.7793,17.76075-17.9209,0-4.625-1.90039-12.98731-14.62989-17.03613a90.09831,90.09831,0,0,0-14.03027-2.93262c-7.47461-1.0791-16.82129-1.9541-27.49609-2.582L172.674,465.9937l-2.7168-.00879,19.99023-99.14551,3.2334-.11132c.09766,1.03808.21094,2.09863.32715,3.19336.48438,4.51855,1.77051,16.52246,13.4668,19.084a16.34716,16.34716,0,0,0,14.19629-3.82422c14.82031,3.9502,20.95214-3.66211,22.94336-7.25195.15722-.28223.35253-.66309.55957-1.13086a16.05058,16.05058,0,0,0,7.10254-8.22559,14.60013,14.60013,0,0,0,4.748-9.04785C256.96208,356.70757,257.45427,347.09233,245.422,341.64409Zm-13.70019,8.19531-.35742.98926-1.03467,1.40265c-.61548-.182-1.26587-.37042-1.9458-.56433A11.36884,11.36884,0,0,1,231.72185,349.8394ZM28.30864,351.6671c-.67993.19385-1.33.38227-1.94543.56421l-1.03589-1.4046-.35645-.98731A11.378,11.378,0,0,1,28.30864,351.6671Z"/></g></g></svg>