<svg xmlns="http://www.w3.org/2000/svg" xmlns:xlink="http://www.w3.org/1999/xlink" viewBox="0 0 215.69204 494.55709"><defs><style>.cls-1,.cls-22,.cls-23,.cls-24,.cls-25,.cls-32,.cls-4{fill:none;}.cls-2,.cls-9{fill:#8dd39c;}.cls-10,.cls-12,.cls-27,.cls-3{fill:#6cbc80;}.cls-10,.cls-12,.cls-26,.cls-3,.cls-4,.cls-9{stroke:#5a8c63;}.cls-10,.cls-12,.cls-22,.cls-23,.cls-24,.cls-25,.cls-26,.cls-3,.cls-31,.cls-32,.cls-33,.cls-4,.cls-5,.cls-7,.cls-8,.cls-9{stroke-miterlimit:10;}.cls-26,.cls-3,.cls-31,.cls-33,.cls-4,.cls-9{stroke-width:1.21621px;}.cls-11,.cls-15,.cls-5{fill:#db6a6a;}.cls-32,.cls-33,.cls-5{stroke:#bc5757;}.cls-5{stroke-width:3.03835px;}.cls-6{fill:#a36c6c;opacity:0.2;}.cls-14,.cls-7{fill:#fca69a;}.cls-24,.cls-7{stroke:#c15f5f;}.cls-7{stroke-width:1.46571px;}.cls-8{fill:#fcc7be;stroke:#dd9f97;stroke-width:1.19762px;}.cls-10{stroke-width:2.47515px;}.cls-12{stroke-width:2.66921px;}.cls-13{fill:#dbcfa0;}.cls-15,.cls-25{opacity:0.4;}.cls-16{clip-path:url(#clip-path);}.cls-17{fill:#ef8e8e;opacity:0.51;}.cls-18{fill:#fff4f3;}.cls-19{fill:#352727;}.cls-20{fill:#bc5757;}.cls-21{fill:#aa4949;}.cls-22{stroke:#c6867d;stroke-width:1.87268px;}.cls-23{stroke:#db8686;}.cls-23,.cls-24{stroke-width:1.94594px;}.cls-25{stroke:#ffe9e1;stroke-linecap:round;stroke-width:2.19856px;}.cls-26,.cls-31{fill:#ffe9e1;}.cls-28{fill:#5a8c63;}.cls-29{fill:#fff;opacity:0.3;}.cls-30{fill:#a14b4b;}.cls-31{stroke:#b78383;}.cls-32{stroke-width:2.77493px;}.cls-33{fill:#ed8383;}</style><clipPath id="clip-path"><path class="cls-1" d="M182.4086,149.42668c-1.40633,41.21588-36.12524,78.37592-77.3411,76.96959S31.74638,185.54978,33.15271,144.3339s35.79167-68.59984,77.00756-67.19351S183.81493,108.2108,182.4086,149.42668Z"/></clipPath></defs><g id="Layer_2" data-name="Layer 2"><g id="instruction_character" data-name="instruction character"><polygon class="cls-2" points="147.538 343.489 68.771 342.205 65.954 322.42 150.707 322.42 147.538 343.489"/><line class="cls-3" x1="57.28602" y1="269.08328" x2="66.18419" y2="330.74602"/><line class="cls-3" x1="158.40604" y1="269.08328" x2="149.50787" y2="330.74602"/><polyline class="cls-4" points="149.367 330.726 129.782 467.444 108.879 479.873 108.838 354.706 107.002 354.705 106.813 479.873 85.91 467.444 66.325 330.726"/><path class="cls-5" d="M103.7558,53.72482c-9.05119-.71072-33.07437-1.359-56.08934,13.71073-2.04362,1.33812-33.35062,22.53616-38.63931,60.24412-5.53989,39.499,23.26242,55.80384,22.43563,104.28469-.48237,28.28167-17.893,38.50321-10.80227,49.02624,11.55838,17.15311,59.72982,4.071,82.26439-4.57024,15.11245-5.79511,54.55993-21.58008,81.01786-63.98343,8.76509-14.04749,26.78892-42.93383,22.02035-81.018-1.41382-11.29173-5.41375-43.23812-33.65371-63.98341C142.98071,45.89044,109.40644,52.5144,103.7558,53.72482Z"/><ellipse class="cls-6" cx="108.5082" cy="485.89451" rx="98.30141" ry="8.66258"/><path class="cls-7" d="M31.21418,353.0058c1.48813,2.60021,1.12807,5.968.54423,11.42876-.29522,2.76144-.57661,5.39333-1.6327,5.62369-.89714.19567-2.4727-1.31565-5.44225-8.16341a18.1461,18.1461,0,0,1-7.07494,4.35382c-1.964.63962-6.19335,1.62545-6.89355.36281-.36873-.66489-.00883-2.404,6.34932-7.80059a13.803,13.803,0,0,1-6.53075,2.17691c-2.31666.14413-5.93668-.25528-6.16788-1.45126-.15281-.79055,1.12307-2.19793,7.80057-4.89806a17.295,17.295,0,0,1-7.25634.72565c-1.467-.17015-4.04895-.46962-4.17242-1.26986-.1193-.77315,2.0224-2.23257,12.69863-5.26087C21.4103,346.94992,28.73711,348.67762,31.21418,353.0058Z"/><path class="cls-8" d="M76.871,251.87916s-24.10456-8.28594-30.1307,12.80555S29.03848,333.42037,19.246,347.73245l12.99386,8.28594c20.14991-23.72792,42.3713-80.03467,42.3713-80.03467S86.66345,256.39877,76.871,251.87916Z"/><path class="cls-9" d="M76.871,251.87916s-24.65278-7.69248-30.32626,14.36166c-5.465,21.2438-17.50623,67.17955-27.2987,81.49163l12.99386,8.28594c20.14991-23.72792,42.3713-80.03467,42.3713-80.03467S86.66345,256.39877,76.871,251.87916Z"/><polyline class="cls-9" points="106.368 322.31 149.367 331.349 129.782 468.067 108.879 480.496 108.838 355.33 107.002 355.328 106.813 480.496 85.91 468.067 66.325 331.349 109.324 322.31"/><path class="cls-8" d="M138.82107,251.87916s24.10456-8.28594,30.1307,12.80555,17.70179,68.73566,27.49427,83.04774l-12.99387,8.28594c-20.1499-23.72792-42.37129-80.03467-42.37129-80.03467S129.0286,256.39877,138.82107,251.87916Z"/><path class="cls-7" d="M184.47787,353.0058c-1.48814,2.60021-1.12808,5.968-.54424,11.42876.29522,2.76144.57662,5.39333,1.6327,5.62369.89715.19567,2.4727-1.31565,5.44225-8.16341a18.14618,18.14618,0,0,0,7.07494,4.35382c1.964.63962,6.19335,1.62545,6.89355.36281.36874-.66489.00883-2.404-6.34931-7.80059a13.80291,13.80291,0,0,0,6.53075,2.17691c2.31665.14413,5.93668-.25528,6.16788-1.45126.1528-.79055-1.12308-2.19793-7.80058-4.89806a17.295,17.295,0,0,0,7.25634.72565c1.467-.17015,4.049-.46962,4.17243-1.26986.11929-.77315-2.02241-2.23257-12.69863-5.26087C194.28175,346.94992,186.95494,348.67762,184.47787,353.0058Z"/><path class="cls-9" d="M138.82107,251.87916s24.38753-7.29084,30.41367,13.80065,17.41882,67.74056,27.2113,82.05264l-12.99387,8.28594c-20.1499-23.72792-42.37129-80.03467-42.37129-80.03467S129.0286,256.39877,138.82107,251.87916Z"/><path class="cls-10" d="M92.94068,58.7916S65.32087,28.6609,35.69235,49.75239C19.11214,61.55524,92.94068,58.7916,92.94068,58.7916Z"/><path class="cls-11" d="M26.16853,137.588a185.89891,185.89891,0,0,1,71.26788-19.39962q2.24346-11.57106,4.487-23.14212l7.31183,21.32219a177.31954,177.31954,0,0,1,76.67134,10.67682A76.01357,76.01357,0,0,0,169.41409,92.4484a73.07577,73.07577,0,0,0-9.668-9.32067C136.27038,64.27689,100.49248,58.29005,70.89828,73.104A77.32728,77.32728,0,0,0,41.54,99.01553,97.74144,97.74144,0,0,0,26.16853,137.588Z"/><polyline class="cls-2" points="63.842 312.929 67.388 334.899 148.69 336.072 151.762 314.224"/><path class="cls-9" d="M168.21887,263.17816c-6.346-23.43135-49.55838-31.30608-45.4675-30.63289V220.99516H92.94066v11.55011s-38.93921,6.52836-45.4675,30.63289"/><path class="cls-12" d="M86.28681,58.66605c1.66-24.51024,29.58684-38.72326,35.03579-42.47763-.84323-1.8195-8.18471-12.38506-9.02794-14.20456a69.5352,69.5352,0,0,0-20.32777,21.191C82.53844,38.5452,81.72943,50.50273,81.76721,57.15952"/><ellipse class="cls-13" cx="190.26957" cy="164.14977" rx="4.20742" ry="1.48497" transform="translate(5.85735 334.85357) rotate(-83.57439)"/><ellipse class="cls-13" cx="200.8266" cy="141.52548" rx="1.48497" ry="4.20742"/><ellipse class="cls-13" cx="197.83543" cy="176.9572" rx="4.20742" ry="1.48497" transform="translate(-0.15049 353.74601) rotate(-83.57439)"/><ellipse class="cls-13" cx="164.59196" cy="216.29648" rx="4.20742" ry="1.48497" transform="translate(-100.88909 274.55876) rotate(-65.10835)"/><ellipse class="cls-13" cx="185.9794" cy="196.90442" rx="4.20742" ry="1.48497" transform="translate(-55.01209 320.528) rotate(-73.79128)"/><ellipse class="cls-13" cx="160.51834" cy="235.48639" rx="4.20742" ry="1.48497" transform="translate(-120.65538 281.97636) rotate(-65.10835)"/><ellipse class="cls-13" cx="27.08879" cy="164.14977" rx="1.48497" ry="4.20742" transform="translate(-18.20033 4.06278) rotate(-6.42561)"/><ellipse class="cls-13" cx="17.66167" cy="129.09656" rx="4.20742" ry="1.48497" transform="matrix(0.18625, -0.9825, 0.9825, 0.18625, -112.46548, 122.40471)"/><ellipse class="cls-13" cx="48.02968" cy="219.36042" rx="1.48497" ry="4.20742"/><ellipse class="cls-13" cx="35.14521" cy="195.42198" rx="1.48497" ry="4.20742" transform="translate(-53.15258 17.57813) rotate(-16.20872)"/><ellipse class="cls-13" cx="55.4694" cy="240.07528" rx="4.20742" ry="1.48497" transform="translate(-190.93005 239.52573) rotate(-76.86232)"/><ellipse class="cls-13" cx="72.43912" cy="226.20987" rx="1.48497" ry="4.20742"/><ellipse class="cls-13" cx="37.3445" cy="258.84378" rx="4.20742" ry="1.48497" transform="translate(-223.21258 236.37779) rotate(-76.86232)"/><circle class="cls-11" cx="78.78709" cy="191.07575" r="1.33976"/><circle class="cls-11" cx="80.72667" cy="186.32552" r="1.14355"/><circle class="cls-11" cx="72.9577" cy="191.38381" r="1.14355"/><circle class="cls-11" cx="136.5622" cy="190.79628" r="1.33976"/><circle class="cls-11" cx="134.62262" cy="186.04605" r="1.14355"/><circle class="cls-11" cx="142.39159" cy="191.10433" r="1.14355"/><path class="cls-14" d="M182.4086,149.42668c-1.40633,41.21588-36.12524,78.37592-77.3411,76.96959S31.74638,185.54978,33.15271,144.3339s35.79167-68.59984,77.00756-67.19351S183.81493,108.2108,182.4086,149.42668Z"/><path class="cls-1" d="M146.19131,105.6354A426.97548,426.97548,0,0,0,66.822,127.8912q-9.7643,3.7929-18.85815,7.8549,2.9325,15.23778,5.865,30.47558"/><ellipse class="cls-15" cx="65.85352" cy="192.60974" rx="6.63152" ry="10.95528" transform="translate(-128.88988 251.8567) rotate(-88.04576)"/><ellipse class="cls-15" cx="149.5228" cy="193.06574" rx="6.63152" ry="10.95528" transform="translate(-48.52958 335.91776) rotate(-88.04576)"/><g class="cls-16"><path class="cls-17" d="M143.889,107.55519c-29.48593,7.48273-68.50706,19.04418-97.993,26.52692-1.12415,7.93837-.01942,20.5798,2.78208,35.51714,2.6296,14.02082,9.08784,30.3681,26.24153,43.37489,11.78378,8.93507,31.36179,12.81946,40.87665,12.9163-8.92744,2.72329-30.57358,5.22748-50.164-4.15288C36.04644,207.57123,19.505,166.76571,30.2343,122.7985,45.16025,97.51474,71.65789,82.62995,98.45691,84.75908,123.46609,86.746,139.48485,102.815,143.889,107.55519Z"/></g><path class="cls-18" d="M93.12925,154.432c3.05961,12.028-5.43913,24.57142-18.98248,28.01649s-23.573-4.3852-26.6326-16.4132,2.00943-23.699,15.55278-27.14406S90.06964,142.404,93.12925,154.432Z"/><circle class="cls-19" cx="74.01477" cy="157.15578" r="11.67565"/><polygon class="cls-18" points="70.385 157.419 52.187 161.997 61.293 167.271 70.385 157.419"/><path class="cls-20" d="M47.51414,166.03524c3.303,11.30661,13.72126,17.72633,25.24876,16.037a27.797,27.797,0,0,0,10.39464-3.697,21.62,21.62,0,0,1-10.147,5.13739c-11.97478,2.70647-24.30107-4.94857-25.49643-17.47742Z"/><path class="cls-21" d="M46.65873,159.06451c-1.4876-9.56462,5.25247-18.24678,14.07841-21.34782,8.76307-3.24926,19.44322-1.60263,26.41933,4.72833a20.60629,20.60629,0,0,1,6.58829,16.436,23.4784,23.4784,0,0,0-8.47986-14.20777c-13.675-10.103-36.66776-3.97336-38.60617,14.39127Z"/><path class="cls-21" d="M57.04042,131.03109c7.86078-6.47693,19.88368-8.08861,29.01655-3.43541-4.98927.483-9.66892.67981-14.54374,1.30012-4.88159.56035-9.49511,1.52593-14.47281,2.13529Z"/><path class="cls-18" d="M122.43162,154.432c-3.05961,12.028,5.43914,24.57142,18.98248,28.01649s23.573-4.3852,26.6326-16.4132-2.00943-23.699-15.55277-27.14406S125.49123,142.404,122.43162,154.432Z"/><circle class="cls-19" cx="141.34089" cy="157.15578" r="11.67565"/><polygon class="cls-18" points="137.711 157.419 124.162 160.827 128.619 167.271 137.711 157.419"/><path class="cls-20" d="M168.04673,166.03524c-1.19884,12.53487-13.52206,20.1818-25.49652,17.47723a21.61807,21.61807,0,0,1-10.14688-5.1372,27.8011,27.8011,0,0,0,10.39478,3.69721c11.52772,1.6908,21.949-4.7356,25.24862-16.03724Z"/><path class="cls-21" d="M168.90214,159.06451c-1.94083-18.3694-24.93364-24.49181-38.6063-14.39117a23.4784,23.4784,0,0,0-8.47973,14.20767,20.60571,20.60571,0,0,1,6.58835-16.43585c6.97637-6.33134,17.65575-7.97741,26.41942-4.72877,8.82138,3.0973,15.57,11.78964,14.07826,21.34812Z"/><path class="cls-18" d="M128.89746,191.30448c-5.775-5.02175-14.17078,2.02308-21.117,2.02308s-15.342-7.04483-21.117-2.02308c-5.775,5.02181,2.68753,19.05072,21.117,19.05072S134.67251,196.32629,128.89746,191.30448Z"/><path class="cls-21" d="M158.52046,131.03109c-4.97661-.60917-9.592-1.575-14.47282-2.1353-4.87563-.6204-9.55335-.817-14.54376-1.2998,9.13295-4.65337,21.1553-3.042,29.01658,3.4351Z"/><path class="cls-22" d="M128.89746,191.30448c-5.775-5.02175-14.17078,2.02308-21.117,2.02308s-15.342-7.04483-21.117-2.02308c-5.775,5.02181,2.68753,19.05072,21.117,19.05072S134.67251,196.32629,128.89746,191.30448Z"/><path class="cls-23" d="M128.89746,191.30448c-5.775-5.02175-14.17078,2.02308-21.117,2.02308s-15.342-7.04483-21.117-2.02308c-5.775,5.02181,2.68753,19.05072,21.117,19.05072S134.67251,196.32629,128.89746,191.30448Z"/><path class="cls-24" d="M182.4086,149.42668c-1.40633,41.21588-36.12524,78.37592-77.3411,76.96959S31.74638,185.54978,33.15271,144.3339s35.79167-68.59984,77.00756-67.19351S183.81493,108.2108,182.4086,149.42668Z"/><path class="cls-11" d="M26.16853,137.588a185.89891,185.89891,0,0,1,71.26788-19.39962q2.24346-11.57106,4.487-23.14212l7.31183,21.32219a177.31954,177.31954,0,0,1,76.67134,10.67682A76.01357,76.01357,0,0,0,169.41409,92.4484a73.07577,73.07577,0,0,0-9.668-9.32067C136.27038,64.27689,100.49248,58.29005,70.89828,73.104A77.32728,77.32728,0,0,0,41.54,99.01553,97.74144,97.74144,0,0,0,26.16853,137.588Z"/><path class="cls-11" d="M41.54,99.01553A97.74144,97.74144,0,0,0,26.16853,137.588a185.89891,185.89891,0,0,1,71.26788-19.39962q2.24346-11.57106,4.487-23.14212l7.31183,21.32219a177.31954,177.31954,0,0,1,76.67134,10.67682A76.01357,76.01357,0,0,0,169.41409,92.4484"/><path class="cls-20" d="M41.54005,99.01553a101.2871,101.2871,0,0,0-12.27869,28.601,90.88281,90.88281,0,0,0-2.02331,10.125l-1.5546-1.119a180.73014,180.73014,0,0,1,34.71812-13.88078,182.64657,182.64657,0,0,1,36.91064-6.43327l-1.72538,1.52121,4.42673-23.1536,1.3815-7.22583c1.548,4.55682,7.95284,23.38357,9.62555,28.30586l-1.939-1.2689c3.27618-.25318,6.5585-.42941,9.84335-.50562a173.33493,173.33493,0,0,1,67.342,12.09972l-1.36931,1.16756a81.81941,81.81941,0,0,0-5.52594-18.3276,75.62,75.62,0,0,0-9.95763-16.47283,73.21672,73.21672,0,0,1,6.0482,7.59138,78.63638,78.63638,0,0,1,11.84984,28.59394l-1.76625-.62452a183.30958,183.30958,0,0,0-56.86822-10.37443,194.8172,194.8172,0,0,0-20.74772.73464l-.48022-1.3888-7.36649-21.30326,3.74991-.26074L99.286,118.54684l-.28036,1.42609a192.78529,192.78529,0,0,0-74.24781,19.49166,95.0248,95.0248,0,0,1,16.7822-40.44906Z"/><path class="cls-10" d="M72.342,55.95079C47.26388,58.921,26.2242,68.48541,15.103,97.08269c-2.73179,7.02461,34.1523-3.23059,75.91389-29.43623a137.19421,137.19421,0,0,0,22.09359,13.349c2.59712,1.25181,35.856,17.07335,41.53518,9.55861,1.08447-1.435,3.64346-7.00267-14.14805-29.05923,10.19354,11.48327,55.80849,23.63481,57.27276,20.14585,1.51769-3.61626-66.66417-59.88477-111.10695-26.741"/><path class="cls-25" d="M70.28073,244.65113c-7.17181,3.62276-14.17354,8.7253-18.06254,15.75407"/><circle class="cls-15" cx="93.52344" cy="172.26632" r="1.5285"/><circle class="cls-15" cx="89.39122" cy="179.03113" r="1.5285"/><circle class="cls-15" cx="98.03332" cy="175.02114" r="1.5285"/><circle class="cls-15" cx="122.48244" cy="172.26632" r="1.5285"/><circle class="cls-15" cx="126.61466" cy="179.03113" r="1.5285"/><circle class="cls-15" cx="117.97256" cy="175.02114" r="1.5285"/><polygon class="cls-2" points="150.707 322.42 65.954 322.42 56.029 258.055 158.406 258.055 150.707 322.42"/><circle class="cls-26" cx="107.73922" cy="280.43519" r="29.37743"/><path class="cls-27" d="M118.0527,264.51031q-.01317.10024-.029.20312v.00088q-.01581.10287-.03428.20838a10.07862,10.07862,0,0,1-.80893,2.56571q-.05805.124-.12135.248c-.0211.04221-.0422.08353-.06418.12486-.044.08353-.08881.16706-.13541.25059q-.211.37456-.46776.75266c-.02814.04132-.05716.08353-.08707.12485q-.22156.31391-.47831.62428-.30861.37324-.67264.73771a10.02294,10.02294,0,0,1-5.069,2.76618,10.13656,10.13656,0,0,1-1.13866.175c-.3561.03429-.67792.04661-.95664.04661-.1442,0-.277-.00352-.39655-.0088-.11959.00528-.25236.0088-.39655.0088-.28048,0-.60406-.01232-.96191-.04661a10.37048,10.37048,0,0,1-1.13954-.17585c-.19081-.04044-.38688-.08793-.58648-.14244q-.22552-.062-.45634-.13717c-.051-.01582-.10286-.03341-.15563-.05187-.10375-.03606-.2075-.07386-.313-.11343a9.96173,9.96173,0,0,1-1.449-.69287c-.0545-.03165-.109-.0633-.16266-.09671-.109-.06683-.21806-.13541-.32708-.20751s-.21719-.14684-.32622-.22509c-.10815-.07826-.21718-.16-.32532-.24444a10.50188,10.50188,0,0,1-.96192-.85377,9.99007,9.99007,0,0,1-2.90951-8.29414,7.00967,7.00967,0,0,1,1.129-.07738c.08969,0,.18376.00088.28224.0044.04485.00088.09057.00263.13805.00527.05539.00176.11255.0044.17058.00879.04484.00176.09056.00528.13717.0088l.02637.00175c.044.00352.08881.007.13453.01143.18112.01584.37193.03782.56976.06771.04221.00527.0853.01231.12839.01935a10.06217,10.06217,0,0,1,1.85085.47568c.17848.06506.35962.1354.54251.21366.03692.01583.07386.03165.11079.04836.073.03253.14595.06594.21982.10112h.00088q.11076.05275.22158.10815c.03692.01846.07472.03693.11165.05715.07386.03869.14861.07826.22246.11958h.00088c.07474.04133.1486.08353.22333.12749h.00088c.07387.044.1486.08969.22334.13541h.00088q.16751.10551.33588.21894c.03693.02462.07473.051.11254.07737.18641.131.37282.27082.55746.4203l.00088-.00088a10.20643,10.20643,0,0,1,2.14541-3.23923l.05364-.05364c.05276-.05363.10464-.10287.15387-.15035a6.38314,6.38314,0,0,1,.663-.56361s.09145.06418.2462.19168c.022.01846.04573.0378.07034.05891.03693.03165.07649.06595.11782.10287.02814.02462.05716.051.087.07826.03079.02726.06156.05627.09321.08617.03253.02989.06507.06155.09936.09408a10.17124,10.17124,0,0,1,2.30369,3.3975v.00087q.16618-.13452.33411-.25938c.03782-.02814.07474-.05539.11255-.08178.11166-.08089.22421-.15826.33588-.23212q.28092-.186.561-.34468c.07473-.0422.14948-.08352.22334-.124a9.91385,9.91385,0,0,1,1.427-.626q.21364-.07386.422-.13717c.073-.0211.14509-.0422.21543-.06155.06681-.01846.13275-.03517.1987-.05187.31126-.08.61111-.13981.896-.18553.051-.00879.10111-.01583.15123-.02286.19168-.02813.37545-.04924.5513-.06507.05011-.00527.10023-.00879.14948-.01231l.01318-.00087c.051-.0044.10024-.00792.14947-.01055.0554-.00352.109-.00616.16267-.00792.04836-.00264.09673-.00439.14333-.00527.09759-.00352.19168-.0044.28048-.0044a7.00951,7.00951,0,0,1,1.129.07738A8.72225,8.72225,0,0,1,118.0527,264.51031Z"/><path class="cls-28" d="M118.06414,262.05716a7.00951,7.00951,0,0,0-1.129-.07738c-.0888,0-.18289.00088-.28048.0044-.0466.00088-.095.00263-.14333.00527-.05362.00176-.10727.0044-.16267.00792-.04923.00263-.09847.00615-.14947.01055l-.01318.00087c-.04925.00352-.09937.007-.14948.01231-.17585.01583-.35962.03694-.5513.06507-.05012.007-.10025.01407-.15123.02286-.28488.04572-.58473.10551-.896.18553-.066.0167-.13189.03341-.1987.05187-.07034.01935-.14245.04045-.21543.06155q-.20836.062-.422.13717a9.91385,9.91385,0,0,0-1.427.626c-.07474.03957-.14861.08089-.22334.124q-.27961.15828-.561.34468-.16882.11079-.33588.23212c-.03781.02639-.07473.05364-.11255.08178q-.16749.124-.33411.25851a10.17124,10.17124,0,0,0-2.30369-3.3975c-.03429-.03253-.06683-.06419-.09936-.09408-.03165-.0299-.06242-.05891-.09321-.08617-.02988-.02726-.0589-.05364-.087-.07826-.04133-.03692-.08089-.07122-.11782-.10287-.02461-.02111-.04836-.04045-.07034-.05891-.15475-.1275-.2462-.19168-.2462-.19168a6.38314,6.38314,0,0,0-.663.56361c-.04923.0466-.10111.09672-.15387.15035l-.05364.05364a10.20643,10.20643,0,0,0-2.14541,3.23923q-.27828-.22422-.55834-.41942c-.03781-.02637-.07561-.05275-.11254-.07737q-.16882-.11475-.33588-.21894h-.00088c-.07474-.04748-.14859-.09232-.22334-.13541h-.00088c-.07473-.04484-.14859-.087-.22333-.12749h-.00088c-.07385-.0422-.14772-.08177-.22246-.11958-.03693-.02022-.07473-.03869-.11165-.05715q-.1108-.05672-.22158-.10815h-.00088c-.073-.03518-.14684-.06946-.21982-.10112-.03693-.01671-.07387-.03253-.11079-.04836q-.273-.11739-.54251-.21366a10.06217,10.06217,0,0,0-1.85085-.47568c-.04309-.007-.08618-.01408-.12839-.01935-.19783-.02989-.38864-.05187-.56976-.06771-.04572-.00439-.09057-.00791-.13453-.01143l-.02637-.00175c-.04661-.00352-.09233-.007-.13717-.0088-.058-.00439-.11519-.007-.17058-.00879-.04748-.00264-.0932-.00439-.13805-.00527-.09848-.00352-.19255-.0044-.28224-.0044a7.00967,7.00967,0,0,0-1.129.07738,9.99007,9.99007,0,0,0,2.90951,8.29414,10.50188,10.50188,0,0,0,.96192.85377c.10814.08441.21717.16618.32532.24444.109.07825.21719.153.32622.22509s.218.14156.32708.20751c.05364.03341.10816.06506.16266.09671a9.82878,9.82878,0,0,0,1.449.69287c.10552.03957.20927.07737.313.11343.05277.01846.10463.036.15563.05187.15388.051.306.09584.45634.13717.1996.05451.39567.102.58648.14244a10.37048,10.37048,0,0,0,1.13954.17585c.35785.03429.68143.04661.96191.04661.14419,0,.277-.00352.39655-.0088.11958.00528.25235.0088.39655.0088.27872,0,.60054-.01232.95664-.04661a10.13656,10.13656,0,0,0,1.13866-.175,10.02294,10.02294,0,0,0,5.069-2.76618h.00088q.364-.364.67176-.73771.2572-.30994.47831-.62428c.02991-.04132.05893-.08353.08707-.12485.17234-.25147.32709-.50207.46776-.75266.0466-.08353.09233-.16706.13541-.25059.022-.04133.04308-.08265.06418-.12486q.06332-.124.12135-.248a10.07862,10.07862,0,0,0,.80893-2.56571q.01845-.10551.03428-.20838v-.00088q.01584-.10289.029-.20312A8.72225,8.72225,0,0,0,118.06414,262.05716ZM107.5173,272.45363c-.09847.00352-.20486.00616-.32093.00616-.12661,0-.2629-.00264-.40886-.00968a9.18572,9.18572,0,0,1-1.1158-.11958,9.37168,9.37168,0,0,1-1.08149-.24883,9.27395,9.27395,0,0,1-6.66046-9.21649c.09759-.00352.20486-.00616.32093-.00616a9.20675,9.20675,0,0,1,6.00629,2.23158c.18025.15563.35961.32093.53722.49855.06156.06155.12223.124.18114.1864a9.07351,9.07351,0,0,1,2.16037,3.70876,9.45634,9.45634,0,0,1,.25586,1.10348A9.16031,9.16031,0,0,1,107.5173,272.45363Zm1.99155-.12222a9.28427,9.28427,0,0,1-1.11141.1187,10.166,10.166,0,0,0-.34818-2.96577,10.02088,10.02088,0,0,0-.45634-1.318,10.12647,10.12647,0,0,0-2.17707-3.19967q-.07122-.07121-.14244-.1398a9.31442,9.31442,0,0,1,2.31687-3.47663,9.32115,9.32115,0,0,1,2.31863,3.48015,8.67359,8.67359,0,0,1,.2972.94961,9.49858,9.49858,0,0,1,.28576,2.34589A9.18617,9.18617,0,0,1,109.50885,272.33141Zm7.6215-7.6004a9.36447,9.36447,0,0,1-6.54088,7.35245,10.156,10.156,0,0,0,.78167-3.95759,10.26566,10.26566,0,0,0-.44668-3.03172,9.20967,9.20967,0,0,1,6.01069-2.2351c.11519,0,.22246.00264.32005.00616A9.148,9.148,0,0,1,117.13035,264.731Z"/><path class="cls-11" d="M122.83573,280.53893c0,8.33758-9.09057,20.12868-15.09651,20.12868-5.42455,0-15.09651-11.7911-15.09651-20.12868s6.61-11.525,14.94757-11.525S122.83573,272.20136,122.83573,280.53893Z"/><circle class="cls-13" cx="107.59028" cy="276.48772" r="1.3189"/><circle class="cls-13" cx="115.06407" cy="276.48772" r="1.3189"/><circle class="cls-13" cx="101.87503" cy="279.12552" r="1.3189"/><circle class="cls-13" cx="111.54699" cy="280.00479" r="1.3189"/><circle class="cls-13" cx="118.58114" cy="280.00479" r="1.3189"/><circle class="cls-13" cx="100.99577" cy="284.40114" r="1.3189"/><circle class="cls-13" cx="107.59028" cy="284.40114" r="1.3189"/><circle class="cls-13" cx="115.06407" cy="284.40114" r="1.3189"/><circle class="cls-13" cx="104.51284" cy="289.67675" r="1.3189"/><circle class="cls-13" cx="111.54699" cy="289.67675" r="1.3189"/><circle class="cls-13" cx="107.59028" cy="294.07309" r="1.3189"/><path class="cls-20" d="M118.0659,288.21629a.43375.43375,0,0,0-.19783-.04749.43957.43957,0,0,0-.39305.24268,23.68191,23.68191,0,0,1-1.73656,2.90774.43959.43959,0,0,0,.71926.50558,24.50256,24.50256,0,0,0,1.43143-2.30984v-.00088l.00264-.00439.00088-.00088.00264-.0044v-.00088l.00264-.00527.01408-.0255.00086-.00176.00176-.00352.00176-.00176.00176-.00351.00088-.00264.00176-.00352.00176-.00176.00176-.00351.00088-.00264.00176-.00264.00176-.00352.00176-.00263.00262-.00528.00176-.00264.00088-.00351.00176-.00264.00176-.00264.00176-.00264.00176-.00351.00088-.00264.00176-.00352.00176-.00176.00176-.00352.00088-.00263.00264-.00352.00086-.00176.00176-.0044.0009-.00175.00614-.01143.00088-.00176.00264-.0044.00088-.00088.00177-.00439.00176-.00176.00176-.0044.00088-.00176.00261-.00439.00091-.00176.00262-.0044v-.00088l.00968-.01846.00352-.00616.00264-.00527.00088-.00088.00264-.00528v-.00088l.0035-.00527c.08792-.16619.175-.33236.25852-.50031A.43867.43867,0,0,0,118.0659,288.21629Zm-2.72925,4.39019a.44043.44043,0,0,0-.619.06154l-.02726.03254a.43968.43968,0,0,0,.67791.56009c.01056-.01231.02022-.02462.0299-.03693A.43923.43923,0,0,0,115.33665,292.60648Zm-1.14657,1.34a.44165.44165,0,0,0-.62253.007,13.99222,13.99222,0,0,1-2.549,2.09529.43978.43978,0,0,0,.46514.7465q.22156-.13848.44227-.29016v-.00088l.0167-.01143.0044-.00264.0167-.01143.00088-.00088.00353-.00263h.00088l.01582-.01143.00088-.00088.0167-.01143.0044-.00264.0167-.01143v-.00088l.0044-.00264.0123-.00879.0044-.00264.00088-.00088.015-.01055.00174-.00176.00352-.00176.00088-.00088.00352-.00263.00792-.00528.00088-.00088.00352-.00264.00088-.00088.00353-.00175.00085-.00088.01145-.00792.00088-.00088.00352-.00263.00176-.00088.00262-.00264h.0009l.0079-.00616.00352-.00176.00088-.00176.00352-.00175.00088-.00088.00352-.00264h.00086l.007-.00528.00088-.00088.00352-.00263.00176-.00088.00264-.00264.00176-.00088.01054-.00791.00176-.00088.00264-.00176.00176-.00176.00352-.00176v-.00088l.0123-.00791.00088-.00088.00352-.00264.00088-.00087.01054-.00792.00176-.00088.00264-.00263.00176-.00089.00352-.00176.00088-.00175.01057-.007.00176-.00176.00349-.00176.00088-.00087.00353-.00264.00088-.00088.00616-.0044.00176-.00088.00262-.00263.00176-.00088.00352-.00264.00088-.00088.00352-.00264.007-.00527.00176-.00088.0035-.00264.0009-.00088.0035-.00264.00176-.00088.00616-.00527h.00088l.00264-.00264.00176-.00088.00352-.00264.00176-.00087.00262-.00264.00176-.00089.00528-.00351.00176-.00176.00264-.00176.00264-.00176.00264-.00176.00174-.00176.00968-.007.00176-.00176.00352-.00176.00176-.00175.00264-.00176.00176-.00176.00438-.00352.00264-.00176.00264-.00175.00264-.00176.00264-.00176.00176-.00176.00264-.00176.00177-.00176.00525-.00351.00176-.00176.00265-.00176.00264-.00176.00264-.00176.00264-.00263.00176-.00088.00438-.00352.00266-.00176.00262-.00264.00176-.00088.00264-.00264.00264-.00176.00264-.00175.0044-.00264.00176-.00176.00262-.00264.00264-.00176.00264-.00176.00176-.00175.00264-.00176.00264-.00176.0044-.00352.00176-.00176.0035-.00175.00176-.00176.00264-.00176.00176-.00176.00264-.00176.0044-.00351.00264-.00176.00264-.00176.00264-.00176.00176-.00176.00262-.00264.00264-.00175.00352-.00264.00352-.00176.00176-.00264.00264-.00176.00262-.00175.00176-.00177.00264-.00176.00352-.00263.00352-.00264.00264-.00176.00176-.00176.00265-.00176.00264-.00176.00261-.00175.00176-.00176.00441-.00352.00264-.00176.00264-.00263.00264-.00176.00176-.00176.00264-.00176.0035-.00264.00264-.00176.00352-.00263.00176-.00176.00264-.00176.00264-.00176.00176-.00176.00264-.00263.00176-.00088.00526-.0044.00264-.00176.00176-.00176.00264-.00176.00264-.00175.00264-.00176.00352-.00264.00264-.00264.00262-.00176.00264-.00176.00264-.00264.00176-.00175.00264-.00176.00264-.00176.00352-.00264.00352-.00264.00176-.00176.00262-.00175.00176-.00176.00352-.00264.00176-.00088.0044-.00439.00176-.00088.0035-.00264.00176-.00176.00264-.00176.00264-.00176.00264-.00263.00176-.00088.00441-.00352.00264-.00176.00264-.00264.00176-.00175.00262-.00176.00264-.00176.0044-.00352.00088-.00088.00352-.00264.00176-.00176.00352-.00264.00174-.00088.00352-.00351.00176-.00088.0044-.00352.00176-.00088.00352-.00264.00176-.00175.00264-.00264.00176-.00176.00352-.00264.00174-.00088.0044-.00351.00176-.00176.00352-.00264.00176-.00176.00264-.00176.00176-.00175.0035-.00264.00352-.00264.00264-.00176.00264-.00176.00176-.00263.00264-.00176.00264-.00176.00264-.00176.0044-.00352.00174-.00175.00264-.00265.00264-.00176.00264-.00175.00176-.00176.00352-.00264.00176-.00088.00438-.00352.00176-.00175.00264-.00264.00264-.00176.00264-.00176.00177-.00176.0044-.00351.00176-.00176.00352-.00264.00176-.00176.00262-.00176.00264-.00175.00264-.00264.00176-.00176.0044-.00352.00176-.00088.0035-.00263.00176-.00176.00352-.00264.00176-.00176.00264-.00176.00352-.00263.00264-.00264.00264-.00177.00264-.00263.00176-.00176.00262-.00176.00264-.00176.0044-.00352.00176-.00175.00264-.00264.00264-.00176.00264-.00176.00174-.00176.00352-.00263.00176-.00176.0044-.00352.00176-.00176.00264-.00176.00264-.00175.00264-.00264.00176-.00176.00438-.00264.00088-.00088.0044-.00351.00176-.00176.00264-.00264.00264-.00176.00264-.00264.00176-.00088.00441-.00351.00261-.00264.00264-.00176.00176-.00176.00265-.00264.00264-.00176.00264-.00176.00176-.00175.00438-.00352.00264-.00176.00264-.00264.00176-.00176.00352-.00263.00176-.00088.00352-.00352.00088-.00088.0044-.00352.00176-.00175.0035-.00264.00176-.00176.00352-.00264.00176-.00088.0044-.00439.00176-.00088.00262-.00264.00176-.00176.00352-.00264.00176-.00175.00352-.00264.00088-.00088.00528-.0044.00176-.00088.00264-.00264.00262-.00176.00264-.00263.00176-.00176.0044-.00352.00088-.00088.0044-.00264.00176-.00175.00264-.00264.00174-.00176.00352-.00264.00176-.00176.0044-.00351.00088-.00088.0044-.00352.00176-.00088.00264-.00264.00177-.00175.00352-.00264.00173-.00176.00441-.00352.00176-.00176.00352-.00263.00176-.00088.00264-.00352.00176-.00088.0044-.00352.00174-.00175.00352-.00265.0044-.00439.00264-.00176.00264-.00264.00176-.00088.00438-.00439.00176-.00088.00352-.00352.00176-.00088.00264-.00264.00176-.00175.0044-.00264.00088-.00176.0044-.00352.00176-.00176.0035-.00263.00176-.00176.00264-.00264.00176-.00088.00528-.00439.00088-.00088.0035-.00264.00176-.00176.00352-.00264.00176-.00176.00264-.00263.00176-.00176.0044-.00352.00176-.00176.00352-.00264.00176-.00176.0035-.00264.00088-.00088.0044-.00351.00088-.00088.0044-.0044.00264-.00088.00265-.00263.00173-.00176.00267-.00264.00261-.00176.00441-.00352.00088-.00175.00352-.00264.00176-.00176.00352-.00264.00176-.00176.00352-.00263.00086-.00088.00528-.0044.00088-.00088.00352-.00351.00176-.00176.00264-.00176.00264-.00176.0035-.00352.0009-.00088.00438-.0044.00176-.00088.00352-.00263.00176-.00176.00264-.00264.00264-.00176.00438-.00439.0009-.00088.0035-.00264.00176-.00176.00352-.00264.00176-.00175.00264-.00264.00176-.00176.00438-.00352.00266-.00176.00262-.00263.00176-.00176.00264-.00264.00264-.00176.00264-.00264.00352-.00263.00264-.00264.00176-.00176.00262-.00264.00264-.00176.00264-.00264.00176-.00176.0044-.00351.00265-.00176.00264-.00264.00173-.00176.00267-.00264.00262-.00175.00264-.00264.00176-.00088.0044-.0044.00176-.00175.00352-.00264.00176-.00176.00262-.00176.00176-.00264.00352-.00263.00264-.00264.00352-.00264.00176-.00176.00264-.00176.00264-.00263.00264-.00264.00176-.00176.00438-.00352.00176-.00088.00352-.00351.00176-.00177.00264-.00263.00176-.00176.0035-.00264.00176-.00176.0044-.00351.00176-.00176.00264-.00264.00264-.00176.00264-.00264.00176-.00176.00352-.00351.00262-.00176.00264-.00264.00264-.00176.00264-.00263.00176-.00176.00264-.00264.00264-.00176.0044-.00352.00176-.00263.00262-.00176.00264-.00264.00176-.00176.00264-.00176.00264-.00263.00353-.00352.00264-.00176.00261-.00264.00267-.00176.00174-.00264.00264-.00176.00264-.00263.00176-.00176.0044-.00352.00264-.00264.00264-.00175.00176-.00264.00262-.00176.00176-.00176.0044-.00439.00264-.00176.00264-.00264.00176-.00176.00264-.00264.00262-.00176.00266-.00175.00262-.00264.00264-.00264.00352-.00352.00176-.00175.00264-.00176.00264-.00264.00176-.00176.00264-.00264.00176-.00175.00526-.00441.00176-.00175.00264-.00264.00176-.00176.00264-.00176.00264-.00264.00966-.00879.00176-.00088.00264-.00263.00176-.00176.00264-.00264.00176-.00176.00614-.00527.00091-.00088.00261-.00264.00176-.00176.00352-.00264.00089-.00088.01054-.00967.0009-.00176.0035-.00263.00176-.00088.00264-.00265.00088-.00175.007-.00616h.00088l.00264-.00351.00174-.00088.00266-.00264.00174-.00176.00352-.00264V295.203l.00792-.007.00352-.00264.00088-.00176.0035-.00263.0009-.00088.0035-.00352.00088-.00088.00616-.00527.00176-.00176.00264-.00264.00176-.00088.00262-.00352.0009-.00088.01054-.00967.00176-.00088.00264-.00352.00176-.00088.01142-.01055.00792-.00791h.00088l.01054-.01055.00176-.00088.00264-.00352.00177-.00088.00264-.00263.00088-.00088.007-.007h.00086l.00266-.00351.00174-.00088.00352-.00264.00088-.00176.01144-.01055.0035-.00352.0009-.00088.0035-.00352h.00088l.01056-.01055.00176-.00088.00262-.00263.00176-.00176.00264-.00264.00176-.00176.01056-.00967.00088-.00088.00264-.00352.00174-.00087.015-.01408.00088-.00088.00352-.00351.0123-.01143.00352-.00352.00088-.00088.01583-.01494.0044-.0044.01582-.01495V294.977l.01582-.01495h.0009l.0035-.00439.01672-.01495.00352-.0044h.00086l.01584-.01494v-.00088q.17936-.1741.357-.35435A.44078.44078,0,0,0,114.19008,293.94648Z"/><path class="cls-29" d="M96.15979,282.47546a.87231.87231,0,0,1-.87232-.87236,8.7091,8.7091,0,0,1,5.82705-8.6814.87234.87234,0,1,1,.64176,1.62235,6.99581,6.99581,0,0,0-4.72418,7.059A.87231.87231,0,0,1,96.15979,282.47546Z"/><path class="cls-30" d="M107.59028,269.8932c4.26209,0,7.81094.86072,10.26287,2.4891a9.17866,9.17866,0,0,1,4.1033,8.15663,16.99812,16.99812,0,0,1-1.447,6.32527,29.26115,29.26115,0,0,1-3.67056,6.33463,23.558,23.558,0,0,1-4.7247,4.78538,7.943,7.943,0,0,1-4.375,1.80413,7.61824,7.61824,0,0,1-4.12424-1.80012,25.35258,25.35258,0,0,1-4.76356-4.79739,30.22155,30.22155,0,0,1-3.80651-6.3403,16.3444,16.3444,0,0,1-1.52293-6.3116c0-3.62153,1.33354-6.3679,3.96357-8.16283,2.38007-1.62432,5.87423-2.4829,10.10473-2.4829m0-.87927c-8.33756,0-14.94757,3.18743-14.94757,11.525s9.672,20.12868,15.09651,20.12868c6.00594,0,15.0965-11.7911,15.0965-20.12868s-6.90786-11.525-15.24544-11.525Z"/><path class="cls-31" d="M133.62554,446.59686l-3.93136,24.97339c3.19085,1.89985,6.85822,3.43147,10.52725,7.83729a41.32671,41.32671,0,0,1,3.37642,4.68632,149.50263,149.50263,0,0,1-17.17551,1.06352c-3.97161-.00583-12.29884-.19318-18.36082-3.62774-.04708-5.17871-.29816-30.66426-.29816-30.66426Z"/><path class="cls-32" d="M135.24539,473.98645a10.93459,10.93459,0,0,0-6.4291-.86032,11.23854,11.23854,0,0,0-7.08223,4.59565"/><path class="cls-32" d="M131.28049,471.08561a10.93459,10.93459,0,0,0-6.4291-.86032,11.23858,11.23858,0,0,0-7.08223,4.59565"/><path class="cls-33" d="M107.96716,471.676a70.07684,70.07684,0,0,1,6.75622,4.60724,83.60852,83.60852,0,0,1,9.62109,8.84676c-4.36025-.11046-11.13405-.68317-16.28294-3.60042C108.04626,479.85441,108.00968,476.05089,107.96716,471.676Z"/><path class="cls-31" d="M82.22118,446.59686l3.93136,24.97339c-3.19085,1.89985-6.85822,3.43147-10.52725,7.83729a41.32547,41.32547,0,0,0-3.37642,4.68632,149.50263,149.50263,0,0,0,17.17551,1.06352c3.97161-.00583,12.29884-.19318,18.36081-3.62774.04708-5.17871.29817-30.66426.29817-30.66426Z"/><path class="cls-32" d="M80.60133,473.98645a10.93459,10.93459,0,0,1,6.4291-.86032,11.23854,11.23854,0,0,1,7.08223,4.59565"/><path class="cls-32" d="M84.56622,471.08561a10.93465,10.93465,0,0,1,6.42911-.86032,11.23858,11.23858,0,0,1,7.08223,4.59565"/><path class="cls-33" d="M107.87956,471.676a70.07684,70.07684,0,0,0-6.75622,4.60724A83.60852,83.60852,0,0,0,91.50225,485.13c4.36025-.11046,11.13405-.68317,16.28294-3.60042C107.80046,479.85441,107.837,476.05089,107.87956,471.676Z"/><line class="cls-2" x1="62.48382" y1="303.04722" x2="69.91589" y2="353.71641"/><path class="cls-28" d="M62.48381,303.04721c3.28248,16.69344,5.78908,33.73549,7.43221,50.66917-3.28936-16.69226-5.78238-33.7363-7.43221-50.66917Z"/><line class="cls-2" x1="153.46135" y1="303.04722" x2="146.02927" y2="353.71641"/><path class="cls-28" d="M153.46135,303.04721c-1.64975,16.93294-4.14289,33.977-7.432,50.6692,1.6429-16.93376,4.14947-33.97582,7.432-50.6692Z"/></g></g></svg>