<svg xmlns="http://www.w3.org/2000/svg" xmlns:xlink="http://www.w3.org/1999/xlink" viewBox="0 0 257.79181 533.49421"><defs><style>.cls-1,.cls-17,.cls-18,.cls-29,.cls-32,.cls-7{fill:none;}.cls-2{fill:#a36c6c;opacity:0.2;}.cls-23,.cls-3{fill:#e5b28f;}.cls-3{stroke:#ce9976;stroke-width:2.93142px;}.cls-10,.cls-11,.cls-17,.cls-18,.cls-25,.cls-29,.cls-3,.cls-30,.cls-31,.cls-32,.cls-7,.cls-9{stroke-miterlimit:10;}.cls-4{fill:#ffda9f;}.cls-5{clip-path:url(#clip-path);}.cls-6{fill:#f4c887;}.cls-7{stroke:#d8aa68;}.cls-30,.cls-31,.cls-7{stroke-width:1.46571px;}.cls-8{fill:#d8aa68;}.cls-14,.cls-30,.cls-9{fill:#e59883;}.cls-17,.cls-30,.cls-9{stroke:#d17d6f;}.cls-17,.cls-18,.cls-29,.cls-9{stroke-width:2.19856px;}.cls-10,.cls-11{fill:#ffdc8d;stroke:#efbb7b;}.cls-10{stroke-width:1.49418px;}.cls-11{stroke-width:1.42606px;}.cls-12,.cls-22,.cls-29{opacity:0.4;}.cls-13{fill:#b2746f;}.cls-15{clip-path:url(#clip-path-2);}.cls-16{fill:#c67e6d;opacity:0.42;}.cls-18{stroke:#8e5552;}.cls-19{fill:#fff4f3;}.cls-20{fill:#352727;}.cls-21{fill:#8e5552;}.cls-22{fill:#e07e7e;}.cls-24{fill:#ce9976;}.cls-25,.cls-31{fill:#ffe8d9;stroke:#e0aa6e;}.cls-25{stroke-width:1.47311px;}.cls-26{fill:#606060;}.cls-27{fill:#ffce76;}.cls-28{fill:#efc592;}.cls-29{stroke:#fff0e3;stroke-linecap:round;}.cls-32{stroke:#ce9965;stroke-width:2.3979px;}</style><clipPath id="clip-path" transform="translate(0 2.20947)"><path class="cls-1" d="M232.5469,122.728q-6.63909,2.16675-13.27492,4.327.33354,5.888.664,11.78265-6.38914,1.1426-12.772,2.272-1.86192,5.20992-3.73394,10.407c-18.13608-5.25607-31.12842-17.88568-32.77386-32.35509a30.44165,30.44165,0,0,1,2.4-15.3963,10.44542,10.44542,0,0,0-1.32455-8.42543,10.09788,10.09788,0,0,0-5.128-3.83922A10.1053,10.1053,0,0,0,160.37346,90.01a10.502,10.502,0,0,0-7.3268,4.36577,30.45362,30.45362,0,0,1-10.30155,11.68846c-12.18063,7.9815-30.19763,6.05989-45.83072-4.5303q2.80736-4.76628,5.61154-9.52593-3.209-5.63437-6.40816-11.27232,4.74183-3.5064,9.48675-7.0194-2.57625-6.49107-5.15555-12.97551,5.0592-2.216,10.11173-4.43514-1.61124-6.83971-3.21894-13.66961,5.48492-1.907,10.96-3.81038-.90159-6.38532-1.8-12.7772,5.74092-.51174,11.49161-1.0271-.70787-6.30648-1.42854-12.60282,5.82627.54828,11.64954,1.1032,2.48909-6.28771,4.9782-12.5755a51.74285,51.74285,0,0,1,20.24431,14.08166c4.81544,5.50583,11.78048,13.46951,11.5554,23.78254-.16718,7.63635-4.18491,12.17869-1.40659,18.16153a14.60218,14.60218,0,0,0,6.24284,6.34567,14.622,14.622,0,0,0,8.877.74935c6.37725-1.68657,7.30328-7.6797,13.06987-12.68851,7.78838-6.76394,18.36474-6.49627,25.677-6.31115a51.74251,51.74251,0,0,1,23.76841,6.57141q-3.24533,5.93292-6.4908,11.86571,4.14519,4.13094,8.28688,8.252-5.2983,3.476-10.60634,6.95542,3.28524,4.74736,6.56066,9.49817-5.492,3.39726-10.98449,6.778,2.03857,5.43737,4.08027,10.86808-6.29032,3.13182-12.571,6.26014Q231.01468,117.419,232.5469,122.728Z"/></clipPath><clipPath id="clip-path-2" transform="translate(0 2.20947)"><path class="cls-1" d="M203.30667,172.78516c0,41.72228-33.82259,67.91679-75.54487,67.91679s-75.54487-26.19451-75.54487-67.91679S86.03952,89.61221,127.7618,89.61221,203.30667,131.06288,203.30667,172.78516Z"/></clipPath></defs><g id="Layer_2" data-name="Layer 2"><g id="instruction_character" data-name="instruction character"><ellipse class="cls-2" cx="123.69239" cy="524.69995" rx="98.20255" ry="8.79426"/><path class="cls-3" d="M179.94556,106.01513c12.203,17.85374,21.85858,38.97337,24.24406,60.46282,2.35452,21.21058-.92555,42.93541-3.04785,64.026-2.82732,28.09674-5.66564,56.28015-6.40262,84.52575-.45593,17.474-.183,35.33533,3.75155,52.452,4.09233,17.80289,13.23539,33.6217,25.72244,46.90017,4.85668,5.16449,12.61918-2.61988,7.7731-7.7731a97.52105,97.52105,0,0,1-15.9082-22.35,64.53275,64.53275,0,0,1-3.33931-7.49854A92.59592,92.59592,0,0,1,209.846,367.63c-4.18853-15.97755-4.503-32.59787-4.18736-49.359.52-27.61355,3.2233-55.18581,5.96282-82.64964,2.18-21.85449,5.71579-44.30358,3.83857-66.30965-2.10765-24.70724-12.116-48.49874-26.02248-68.84481-3.96811-5.8056-13.49813-.313-9.492,5.54829Z" transform="translate(0 2.20947)"/><path class="cls-3" d="M180.8055,98.87285c15.73961,18.08829,27.95472,39.89954,32.69545,63.56156.31188,1.55666.584,3.12183.80648,4.69383-.14618-1.03307.09619.81148.134,1.15464q.14626,1.32676.25069,2.65773c.28872,3.65347.34693,7.32124.28749,10.98445-.16086,9.91391-1.04181,19.81709-1.8336,29.69531-2.34274,29.22746-4.91782,58.49-5.68243,87.81261-.454,17.411-.46311,35.28629,3.43571,52.36105,4.45757,19.5218,15.53973,37.10367,29.51768,51.24053,4.98149,5.03813,12.75433-2.73523,7.7731-7.7731a109.27593,109.27593,0,0,1-20.20959-27.98866c-.63335-1.2692-1.23007-2.55465-1.81078-3.84862-.12907-.28759-.25366-.57773-.37757-.86763.41615.97364.08471.1977.00453.00083q-.49506-1.2155-.95532-2.44448a86.77253,86.77253,0,0,1-2.72993-8.71722c-3.999-15.54973-4.06117-32.10142-3.72961-48.72806.5812-29.14594,3.1106-58.25012,5.45489-87.294,1.421-17.60533,3.70824-35.68224.74691-53.24928-4.4606-26.46085-18.57317-50.99151-36.005-71.02454-4.65235-5.34657-12.4,2.45575-7.7731,7.7731Z" transform="translate(0 2.20947)"/><path class="cls-3" d="M168.88843,93.83451c8.59346,22.67007,14.26712,47.04253,14.106,71.38481-.15615,23.59553-4.76779,47.1406-7.18277,70.56188-2.79968,27.15216-4.77344,54.56593-3.82786,81.87767.46173,13.33611,1.538,26.89873,4.76735,39.88668,4.92281,19.79867,14.90129,38.65067,26.75458,55.12606,1.74658,2.42764,4.76577,3.53931,7.52014,1.97184,2.39517-1.363,3.70024-5.11777,1.97184-7.52013-10.9334-15.19679-20.165-32.2742-25.10347-50.413-3.24767-11.92857-4.11267-21.99208-4.7259-34.4598-1.2774-25.97127.36053-52.08461,2.7946-77.93918,2.30791-24.51445,6.91286-48.99825,7.895-73.61606,1.08085-27.0907-4.803-54.54625-14.36943-79.78309-2.48348-6.55158-13.11457-3.71087-10.60015,2.92233Z" transform="translate(0 2.20947)"/><path class="cls-3" d="M168.25986,101.36168c12.203,17.85374,21.85858,38.97337,24.24406,60.46282,2.35451,21.21058-.92555,42.93541-3.04785,64.026-2.82732,28.09674-5.66564,56.28015-6.40262,84.52575-.45594,17.474-.183,35.33533,3.75155,52.452,4.09233,17.8029,13.23538,33.6217,25.72244,46.90017,4.85668,5.16449,12.61918-2.61988,7.7731-7.7731a97.52105,97.52105,0,0,1-15.9082-22.35,64.531,64.531,0,0,1-3.33931-7.49854,92.59326,92.59326,0,0,1-2.89274-9.13026c-4.18853-15.97755-4.503-32.59787-4.18736-49.359.52-27.61355,3.2233-55.18581,5.96282-82.64964,2.18-21.85449,5.71579-44.30358,3.83857-66.30965-2.10765-24.70724-12.116-48.49874-26.02248-68.8448-3.96811-5.80561-13.49813-.313-9.492,5.54828Z" transform="translate(0 2.20947)"/><path class="cls-3" d="M169.1198,94.2194c15.73961,18.08829,27.95472,39.89954,32.69544,63.56156.31188,1.55666.58405,3.12184.80649,4.69383-.14618-1.03307.09618.81148.134,1.15464q.14626,1.32676.25069,2.65773c.28872,3.65347.34693,7.32124.28749,10.98445-.16086,9.91391-1.04181,19.81709-1.8336,29.69532-2.34274,29.22745-4.91782,58.49-5.68243,87.8126-.454,17.411-.46312,35.28629,3.4357,52.361,4.45758,19.5218,15.53973,37.10367,29.51768,51.24053,4.9815,5.03813,12.75434-2.73523,7.7731-7.7731a109.27613,109.27613,0,0,1-20.20958-27.98866c-.63335-1.2692-1.23007-2.55465-1.81078-3.84862-.12907-.28759-.25366-.57773-.37757-.86763.41615.97364.08471.1977.00452.00083q-.495-1.2155-.95531-2.44448a86.77315,86.77315,0,0,1-2.72993-8.71721c-3.999-15.54974-4.06117-32.10143-3.72961-48.72807.5812-29.14594,3.1106-58.25012,5.45489-87.294,1.421-17.60533,3.70824-35.68224.74691-53.24928-4.4606-26.46085-18.57317-50.99151-36.005-71.02454-4.65235-5.34657-12.4,2.45575-7.7731,7.7731Z" transform="translate(0 2.20947)"/><path class="cls-3" d="M157.20273,89.18106c8.59346,22.67007,14.26712,47.04253,14.106,71.38481-.15615,23.59553-4.76779,47.1406-7.18277,70.56188-2.79968,27.15216-4.77344,54.56593-3.82786,81.87767.46173,13.33611,1.538,26.89873,4.76735,39.88668,4.92281,19.79867,14.90129,38.65067,26.75458,55.12606,1.74658,2.42764,4.76577,3.53931,7.52013,1.97184,2.39518-1.363,3.70024-5.11777,1.97185-7.52013-10.9334-15.19679-20.165-32.2742-25.10347-50.413-3.24767-11.92857-4.11267-21.99208-4.7259-34.4598-1.2774-25.97127.36053-52.08461,2.7946-77.93918,2.3079-24.51445,6.91285-48.99825,7.895-73.61606,1.08085-27.09069-4.803-54.54625-14.36943-79.78309-2.48348-6.55157-13.11457-3.71087-10.60015,2.92233Z" transform="translate(0 2.20947)"/><path class="cls-4" d="M232.5469,122.728q-6.63909,2.16675-13.27492,4.327.33354,5.888.664,11.78265-6.38914,1.1426-12.772,2.272-1.86192,5.20992-3.73394,10.407c-18.13608-5.25607-31.12842-17.88568-32.77386-32.35509a30.44165,30.44165,0,0,1,2.4-15.3963,10.44542,10.44542,0,0,0-1.32455-8.42543,10.09788,10.09788,0,0,0-5.128-3.83922A10.1053,10.1053,0,0,0,160.37346,90.01a10.502,10.502,0,0,0-7.3268,4.36577,30.45362,30.45362,0,0,1-10.30155,11.68846c-12.18063,7.9815-30.19763,6.05989-45.83072-4.5303q2.80736-4.76628,5.61154-9.52593-3.209-5.63437-6.40816-11.27232,4.74183-3.5064,9.48675-7.0194-2.57625-6.49107-5.15555-12.97551,5.0592-2.216,10.11173-4.43514-1.61124-6.83971-3.21894-13.66961,5.48492-1.907,10.96-3.81038-.90159-6.38532-1.8-12.7772,5.74092-.51174,11.49161-1.0271-.70787-6.30648-1.42854-12.60282,5.82627.54828,11.64954,1.1032,2.48909-6.28771,4.9782-12.5755a51.74285,51.74285,0,0,1,20.24431,14.08166c4.81544,5.50583,11.78048,13.46951,11.5554,23.78254-.16718,7.63635-4.18491,12.17869-1.40659,18.16153a14.60218,14.60218,0,0,0,6.24284,6.34567,14.622,14.622,0,0,0,8.877.74935c6.37725-1.68657,7.30328-7.6797,13.06987-12.68851,7.78838-6.76394,18.36474-6.49627,25.677-6.31115a51.74251,51.74251,0,0,1,23.76841,6.57141q-3.24533,5.93292-6.4908,11.86571,4.14519,4.13094,8.28688,8.252-5.2983,3.476-10.60634,6.95542,3.28524,4.74736,6.56066,9.49817-5.492,3.39726-10.98449,6.778,2.03857,5.43737,4.08027,10.86808-6.29032,3.13182-12.571,6.26014Q231.01468,117.419,232.5469,122.728Z" transform="translate(0 2.20947)"/><g class="cls-5"><path class="cls-6" d="M146.58561,55.53672c.50609,3.56257,2.95919,7.32307,16.35069,14.70978,17.9473,9.89967,32.36976,17.855,41.95636,12.95691,1.47417-.75323,5.08145-2.95869,9.24119-2.08879,2.7282.57052,5.82457,2.49119,5.68044,4.19538-.27036,3.19715-11.7447,3.25253-12.68437,8.12218-.29272,1.51714.60589,2.62621-.26048,4.46723a5.34054,5.34054,0,0,1-3.5202,2.9376c-3.31175.544-6.34724-5.017-9.13492-8.57008-3.30438-4.21168-10.45387-7.39349-24.75283-13.75707-19.95994-8.883-24.29808-7.9437-26.92676-6.51617-.42988.23347-4.24929,2.3706-4.44611,5.56276-.26617,4.3173,6.19617,8.90724,12.26156,9.7313,5.2766.71689,6.27333-1.95694,11.73329-1.5313,5.04609.39337,11.62676,3.25659,14.339,8.56438,2.76761,5.41621-1.18184,8.1156.69795,18.07344a40.72392,40.72392,0,0,0,4.77566,12.64377c3.666,6.25661,6.36242,6.8218,8.09134,11.446,1.06372,2.845,1.78678,7.295-.39757,13.88779L159.5136,121.87816q-40.53583-8.1598-81.07163-16.3196,12.73014-33.64872,25.46024-67.29745,5.09325-6.94188,10.18653-13.88376l17.50621,6.379q-.405-6.30931-.80988-12.61861l12.82878,2.65434q.83337-6.34016,1.66677-12.68029.73887-5.16064,1.4777-10.3213c22.20145,7.61239,28.64154,16.34109,30.07052,23.28959,1.76974,8.60557-3.497,17.64019,1.27247,31.19353,1.33949,3.80642,3.05138,6.778,5.50676,7.17353,2.57409.41469,4.724-2.20164,8.04345-5.40452a94.1276,94.1276,0,0,1,13.97869-10.88043c4.49936-2.76212,12.18086-4.65583,26.02031-.02847a45.38267,45.38267,0,0,0-17.78616,7.258,49.68621,49.68621,0,0,0-12.208,12.32326c-3.64884,5.16517-2.8486,6.04651-5.17213,8.11655-5.51124,4.91005-16.58664,5.80779-23.72258,1.06631-5.85891-3.893-4.41395-8.49892-14.489-19.74993-4.66841-5.21329-6.757-6.21036-8.321-5.74044C147.40057,47.174,146.06859,51.897,146.58561,55.53672Z" transform="translate(0 2.20947)"/></g><path class="cls-7" d="M232.5469,122.728q-6.63909,2.16675-13.27492,4.327.33354,5.888.664,11.78265-6.38914,1.1426-12.772,2.272-1.86192,5.20992-3.73394,10.407c-18.13608-5.25607-31.12842-17.88568-32.77386-32.35509a30.44165,30.44165,0,0,1,2.4-15.3963,10.44542,10.44542,0,0,0-1.32455-8.42543,10.09788,10.09788,0,0,0-5.128-3.83922A10.1053,10.1053,0,0,0,160.37346,90.01a10.502,10.502,0,0,0-7.3268,4.36577,30.45362,30.45362,0,0,1-10.30155,11.68846c-12.18063,7.9815-30.19763,6.05989-45.83072-4.5303q2.80736-4.76628,5.61154-9.52593-3.209-5.63437-6.40816-11.27232,4.74183-3.5064,9.48675-7.0194-2.57625-6.49107-5.15555-12.97551,5.0592-2.216,10.11173-4.43514-1.61124-6.83971-3.21894-13.66961,5.48492-1.907,10.96-3.81038-.90159-6.38532-1.8-12.7772,5.74092-.51174,11.49161-1.0271-.70787-6.30648-1.42854-12.60282,5.82627.54828,11.64954,1.1032,2.48909-6.28771,4.9782-12.5755a51.74285,51.74285,0,0,1,20.24431,14.08166c4.81544,5.50583,11.78048,13.46951,11.5554,23.78254-.16718,7.63635-4.18491,12.17869-1.40659,18.16153a14.60218,14.60218,0,0,0,6.24284,6.34567,14.622,14.622,0,0,0,8.877.74935c6.37725-1.68657,7.30328-7.6797,13.06987-12.68851,7.78838-6.76394,18.36474-6.49627,25.677-6.31115a51.74251,51.74251,0,0,1,23.76841,6.57141q-3.24533,5.93292-6.4908,11.86571,4.14519,4.13094,8.28688,8.252-5.2983,3.476-10.60634,6.95542,3.28524,4.74736,6.56066,9.49817-5.492,3.39726-10.98449,6.778,2.03857,5.43737,4.08027,10.86808-6.29032,3.13182-12.571,6.26014Q231.01468,117.419,232.5469,122.728Z" transform="translate(0 2.20947)"/><path class="cls-8" d="M150.17306,55.48478A101.86063,101.86063,0,0,0,204.504,80.21441a69.64986,69.64986,0,0,1-54.33093-24.72963Z" transform="translate(0 2.20947)"/><path class="cls-8" d="M161.011,54.49158c3.49847,10.72977,13.02147,18.78376,24.52431,18.40021a34.216,34.216,0,0,0,10.94908-2.06021,21.906,21.906,0,0,1-5.16346,2.52646A22.61343,22.61343,0,0,1,161.011,54.49158Z" transform="translate(0 2.20947)"/><path class="cls-8" d="M141.88607,74.71064a69.65153,69.65153,0,0,1,53.74249,25.98356,101.86463,101.86463,0,0,0-53.74249-25.98356Z" transform="translate(0 2.20947)"/><path class="cls-8" d="M148.04842,83.68122a22.61266,22.61266,0,0,1,33.88122,11.25569,21.89576,21.89576,0,0,1,1.35682,5.58583,34.22353,34.22353,0,0,0-5.4126-9.73825c-7.01081-9.07478-19.38545-11.275-29.82544-7.10327Z" transform="translate(0 2.20947)"/><path class="cls-9" d="M59.081,178.628a18.90117,18.90117,0,0,0-12.8686,4.44549c-1.29669,1.1461-4.02374,3.55644-4.6795,7.25323-1.29121,7.27909,5.8961,17.02119,12.86861,15.91025,4.09811-.653,7.5139-4.95823,8.891-10.29485Z" transform="translate(0 2.20947)"/><path class="cls-9" d="M62.12263,194.77227c-1.92489-3.80846-5.59877-6.03027-9.125-5.6154a8.3097,8.3097,0,0,0-4.91347,2.57371" transform="translate(0 2.20947)"/><path class="cls-9" d="M196.44265,178.628a18.90119,18.90119,0,0,1,12.8686,4.44549c1.29668,1.1461,4.02373,3.55644,4.67949,7.25323,1.29121,7.27909-5.8961,17.02119-12.8686,15.91025-4.09812-.653-7.51391-4.95823-8.891-10.29485Z" transform="translate(0 2.20947)"/><path class="cls-9" d="M193.401,194.77227c1.92489-3.80846,5.59876-6.03027,9.125-5.6154a8.3097,8.3097,0,0,1,4.91347,2.57371" transform="translate(0 2.20947)"/><path class="cls-10" d="M208.00141,341.80587,161.0054,499.772H130.28808V395.70659h-3.66427V499.772H95.93121L48.9352,341.80587c-5.36112-47.9641,26.84961-90.47169,68.55048-90.47169h21.96521C181.1518,251.33418,213.36249,293.84177,208.00141,341.80587Z" transform="translate(0 2.20947)"/><polyline class="cls-11" points="108.302 255.009 108.302 227.161 147.877 227.161 147.877 255.009"/><g class="cls-12"><path class="cls-13" d="M64.478,135.7179c-5.92514-16.7551,7.05537-31.688,22.23107-37.14945a61.281,61.281,0,0,1,44.74442.827c-15.00628,2.427-29.61866,3.9533-43.38915,9.63733-12.40825,5.21293-20.71668,13.0843-23.58634,26.68515Z" transform="translate(0 2.20947)"/></g><path class="cls-3" d="M198.51161,164.88247a22.0814,22.0814,0,0,0-.554-34.06908,29.33583,29.33583,0,0,0-20.70946-34.74264,34.21327,34.21327,0,0,0-13.08265-13.72966,34.70561,34.70561,0,0,0-22.96746-4.02427,33.87654,33.87654,0,0,0-11.9326-3.7313,35.40068,35.40068,0,0,0-21.65693,4.71158,33.11745,33.11745,0,0,0-18.50579,3.59795c-13.69836,7.286-16.76307,21.95963-17.17307,24.09767-1.69987.66013-7.99784,3.33623-10.52539,9.69445-3.13883,7.8959.75213,18.41329,10.24843,24.37463,1.59189-1.71316,29.96658-31.18306,70.908-22.9897C182.36805,126.03847,197.48475,162.29164,198.51161,164.88247Z" transform="translate(0 2.20947)"/><path class="cls-14" d="M203.30667,172.78516c0,41.72228-33.82259,67.91679-75.54487,67.91679s-75.54487-26.19451-75.54487-67.91679S86.03952,89.61221,127.7618,89.61221,203.30667,131.06288,203.30667,172.78516Z" transform="translate(0 2.20947)"/><g class="cls-15"><path class="cls-16" d="M96.02733,94.5284c-7.99994,7.00947-29.51713,28.99893-36.585,58.43959-2.72606,11.35514-1.91585,35.18119,5.83971,50.13836,17.70343,34.14237,61.63035,37.749,64.8144,37.94686q-4.29327,4.98571-8.58653,9.97146c-2.65.46068-47.95293,7.57922-75.89378-24.65164-26.70975-30.81072-20.92-78.3921,3.04687-105.80807C65.10335,101.75865,86.73841,96.28275,96.02733,94.5284Z" transform="translate(0 2.20947)"/></g><path class="cls-17" d="M203.30667,172.78516c0,41.72228-33.82259,67.91679-75.54487,67.91679s-75.54487-26.19451-75.54487-67.91679S86.03952,89.61221,127.7618,89.61221,203.30667,131.06288,203.30667,172.78516Z" transform="translate(0 2.20947)"/><path class="cls-18" d="M59.1884,161.0047l8.8635,3.6008" transform="translate(0 2.20947)"/><path class="cls-18" d="M191.17152,161.0047l-8.8635,3.6008" transform="translate(0 2.20947)"/><path class="cls-19" d="M110.89966,164.05332c3.05961,12.028-5.43914,24.57142-18.98249,28.01649s-23.573-4.3852-26.6326-16.4132,2.00943-23.699,15.55278-27.14406S107.84005,152.02532,110.89966,164.05332Z" transform="translate(0 2.20947)"/><circle class="cls-20" cx="91.44677" cy="169.26534" r="11.72568"/><polygon class="cls-19" points="88.155 169.25 69.957 173.828 79.064 179.102 88.155 169.25"/><path class="cls-21" d="M65.28451,175.65659c3.20518,11.35066,13.73112,17.82518,25.25854,16.09348a27.30258,27.30258,0,0,0,10.38489-3.75345,21.90679,21.90679,0,0,1-10.15674,5.081c-11.97534,2.66193-24.18509-4.92852-25.48669-17.421Z" transform="translate(0 2.20947)"/><path class="cls-21" d="M64.42916,168.68586c-1.86374-21.12754,26.20309-29.18871,40.29208-16.37708a20.85394,20.85394,0,0,1,6.794,16.1936,23.109,23.109,0,0,0-8.27441-14.44986c-13.67415-10.45495-37.34358-4.04664-38.81165,14.63334Z" transform="translate(0 2.20947)"/><path class="cls-19" d="M140.202,164.05332c-3.05961,12.028,5.43914,24.57142,18.98248,28.01649s23.573-4.3852,26.6326-16.4132-2.00943-23.699-15.55277-27.14406S143.26163,152.02532,140.202,164.05332Z" transform="translate(0 2.20947)"/><circle class="cls-20" cx="158.86942" cy="169.26534" r="11.72568"/><polygon class="cls-19" points="155.481 169.25 141.932 172.658 146.39 179.102 155.481 169.25"/><path class="cls-21" d="M185.8171,175.65659c-1.30492,12.49863-13.51188,20.08084-25.4868,17.4208a21.90536,21.90536,0,0,1-10.15663-5.08077,27.30607,27.30607,0,0,0,10.38513,3.75366c11.52752,1.73327,22.05658-4.74809,25.2583-16.09369Z" transform="translate(0 2.20947)"/><path class="cls-21" d="M186.67257,168.68586C185.2017,150.001,161.533,143.6001,147.86068,154.05267a23.109,23.109,0,0,0-8.27417,14.44971,20.85371,20.85371,0,0,1,6.79394-16.19375c14.09309-12.81488,42.15814-4.7438,40.29212,16.37723Z" transform="translate(0 2.20947)"/><ellipse class="cls-22" cx="77.52253" cy="200.03434" rx="6.58896" ry="10.9967" transform="translate(-124.9869 273.04924) rotate(-88.08803)"/><ellipse class="cls-22" cx="175.72508" cy="200.03434" rx="6.58896" ry="10.9967" transform="translate(-30.06078 371.19712) rotate(-88.08803)"/><path class="cls-21" d="M105.159,203.83475a41.72708,41.72708,0,0,0,42.93257-5.817c-9.38319,13.33706-30.35058,16.19605-42.93257,5.817Z" transform="translate(0 2.20947)"/><path class="cls-23" d="M125.21933,79.615A29.12821,29.12821,0,0,0,107.789,98.2184c-2.1664,6.75189,8.44379,9.64291,10.60014,2.92233h0a15.57126,15.57126,0,0,1,2.55007-5.03514,16.63708,16.63708,0,0,1,8.40247-6.30878c5.38052-1.75056,11.63191-.48793,16.3262,2.5796" transform="translate(0 2.20947)"/><path class="cls-24" d="M125.21932,79.615a30.71657,30.71657,0,0,0-13.49377,12.69938c-1.23,2.543-2.88,5.25721-2.8,8.13851.38386,2.36759,3.51253,3.62456,5.63882,2.79255,2.145-.607,2.4652-2.85359,3.29674-4.73226,5.2045-11.01089,18.473-13.52332,27.80682-6.13658-10.28415-5.44832-22.421-2.14-26.02016,9.45472a6.66234,6.66234,0,0,1-4.13411,4.18583c-3.86125,1.34445-8.76041-.94908-9.3276-5.17206-.18437-3.525,1.85021-6.7825,3.58926-9.70986a26.92977,26.92977,0,0,1,15.444-11.52023Z" transform="translate(0 2.20947)"/><path class="cls-23" d="M165.91817,92.28757c-3.48278,5.952-6.82848,5.24224-12.06377,2.607-5.93346-2.98666-11.29421,5.892-5.32134,8.89847h0c10.97468,5.5242,21.29158,4.61453,27.56367-6.10429" transform="translate(0 2.20947)"/><path class="cls-24" d="M165.91817,92.28757c-2.42932,5.80949-6.53243,6.35057-11.85881,3.88114a11.7419,11.7419,0,0,0-1.62192-.60164c-3.09577-.77626-6.42865,3.23768-4.525,5.92714a4.85386,4.85386,0,0,0,1.82485,1.2454,30.50044,30.50044,0,0,0,6.95545,2.53572c7.7476,2.04487,14.78711-1.18677,19.40394-7.58682-5.08149,11.68686-17.16371,12.99635-27.63444,7.6885-5.429-2.19836-4.95485-9.02051-.10676-11.55863a6.13881,6.13881,0,0,1,5.73617-.0057c5.14718,2.88971,7.96322,3.70889,11.82655-1.52511Z" transform="translate(0 2.20947)"/><path class="cls-23" d="M175.23088,97.58746c-1.83976,6.3375-6.46938,10.64538-11.76687,10.36348-1.80819-.09621-3.388,1.13794-3.531,3.72365-.11991,2.16888,1.32139,5.03592,3.11279,5.13124h0c8.3859.44624,15.52765-5.35189,18.49753-15.58235" transform="translate(0 2.20947)"/><path class="cls-24" d="M175.23092,97.58747c-.8386,5.74568-5.44908,11.68005-11.78622,11.511-3.226.01639-2.58821,5.41193-.37717,6.37894,8.90509.64268,15.27488-6.42352,18.47567-14.254-1.33546,9.01656-8.51532,17.361-18.304,16.8963-4.67744-.1809-6.22617-8.20921-2.47929-10.608a4.78786,4.78786,0,0,1,3.17644-.69811c5.38584.21076,9.32072-4.57072,11.29455-9.22611Z" transform="translate(0 2.20947)"/><path class="cls-23" d="M164.13732,86.27525c-12.37151-5.51185-28.88818-5.02392-34.94163,9.17343-1.17272,2.75043-.79942,5.86,1.97185,7.52014,2.2983,1.3768,6.35752.75485,7.52013-1.97185h0c3.53931-8.30086,12.36848-8.58584,19.90136-5.22974" transform="translate(0 2.20947)"/><path class="cls-24" d="M164.13729,86.27524c-11.93644-4.2637-28.23657-3.51257-33.585,9.7303-2.08531,4.38368,2.13872,7.95547,6.08633,5.56365.8858-.60093,1.19876-1.77835,1.79629-2.70711,4.33655-7.21765,13.6728-6.87938,20.15419-3.09464-5.88328-2.06125-13.78586-2.36861-17.51079,3.30473a13.04373,13.04373,0,0,0-1.07185,2.03126c-1.09419,3.09552-4.72659,4.41863-7.71626,3.77675a6.55393,6.55393,0,0,1-4.701-4.01978c-1.92753-5.23024,2.916-11.41284,6.79559-14.49956,8.606-6.49214,20.974-4.97658,29.75251-.0856Z" transform="translate(0 2.20947)"/><path class="cls-21" d="M81.34713,136.35309c8.14189-5.83662,21.164-2.94714,26.03662,5.81669a34.99255,34.99255,0,0,0-26.03662-5.81669Z" transform="translate(0 2.20947)"/><path class="cls-21" d="M166.11019,132.58841a34.99071,34.99071,0,0,0-26.03642,5.817c4.87237-8.76432,17.89473-11.65346,26.03642-5.817Z" transform="translate(0 2.20947)"/><circle class="cls-25" cx="126.62381" cy="311.43919" r="30.04705"/><path class="cls-26" d="M137.95438,313.78576l.02267.01915.01266.0059C137.978,313.8025,137.965,313.795,137.95438,313.78576Z" transform="translate(0 2.20947)"/><path class="cls-26" d="M138.01956,313.83534c.00868.003-.00514-.01258-.02756-.02346l-.00229-.00107.00411.0028Z" transform="translate(0 2.20947)"/><path class="cls-4" d="M131.21567,310.67236a10.08436,10.08436,0,0,1-1.54653-1.72763l-.1892.04115a37.55589,37.55589,0,0,1-4.06318.68633,6.14171,6.14171,0,0,0,2.45647,2.74524c1.1597.68264,2.534.97362,3.62019,1.768-.02676.02376-.05462.0462-.08233.06881.18441-.03374.36885-.06729.55282-.10335q.21339-.04182.42639-.08558l.09938-.02051.01218-.00251.01233-.0026.16726-.03543c.54651-.11666,1.09367-.2362,1.63537-.3737.74291-.18855,1.45719-.47281,2.20828-.63357.72748-.1557,1.73774-.31055,2.23895.39515a.42769.42769,0,0,1-.70349.48661l-.01611-.02152-.02489-.02194a.21274.21274,0,0,1-.04251-.03043c-.02383-.01171-.04747-.02354-.07214-.03362-.09644-.01487-.0452-.01832-.00376-.00175l.00376.00175.01878.0029a.51775.51775,0,0,1-.05148-.01426c-.03571-.009-.07184-.01637-.10818-.02241-.038-.00632-.0763-.01108-.11467-.01467l-.03353-.00123a4.01089,4.01089,0,0,0-.532.03639c-.103.01475-.20525.03357-.30738.05342l-.05522.01219q-.06819.01531-.13609.03178c-.20821.05039-.41464.10791-.62.16873-.36729.10878-.73055.23068-1.09783.33949-.11058.03275-.22193.06309-.3337.092q.091.11919.18527.23587.09693.11994.19742.23693.05526.06429.11164.12761l.03432.03823.00388.00421a8.30863,8.30863,0,0,0,.99223.9148q.13832.107.28174.20722.07821.05458.1579.107c.01462.00961.05717.02768.06727.043l.01321.00818a6.44155,6.44155,0,0,0,.64339.34711c.16893.079.34554.15985.525.22288.05633-.10171.11257-.20347.16707-.30617.25472-.47991.52535-.95208.773-1.4356a7.66567,7.66567,0,0,0,.38288-.88333l.00076-.002.0146-.04887q.015-.0517.02853-.10384c.01958-.07551.03667-.15167.0505-.22844.01381-.07664.02452-.15385.03167-.2314.00287-.03113.004-.10622.00336-.0325.00037-.041.00183-.0819.00115-.12292a2.14194,2.14194,0,0,0-.01509-.224c-.00411-.03374-.00957-.06722-.01493-.10078l-.00133-.00869-.004-.0139a1.88424,1.88424,0,0,0-.07206-.21866.69991.69991,0,0,1-.03968-.08079l-.011-.01866a1.28126,1.28126,0,0,0-.07319-.10614l-.019-.02378c-.02986-.02651-.10781-.10153-.11975-.11111-.02445-.01959-.04988-.03766-.07513-.05615l-.0061-.00454-.00163-.00085c-.04736-.02561-.094-.05171-.143-.07417-.01008-.00462-.07885-.03573-.12777-.05512l-.01112-.00289-.04007-.01173q-.04053-.01141-.08147-.02132a2.95223,2.95223,0,0,0-.37065-.06374c-.05778-.00644-.11569-.01046-.17361-.01495-.01147-.00012-.02436-.00182-.03361-.00217q-.054-.00207-.10808-.00309c-.1312-.0025-.26246-.00074-.39361.00333-.56212.01744-1.12311.07967-1.686.0612a6.79331,6.79331,0,0,1-1.70556-.25922A7.11336,7.11336,0,0,1,131.21567,310.67236Z" transform="translate(0 2.20947)"/><path class="cls-26" d="M132.58611,310.63619l.02089.01292C132.59356,310.63832,132.52574,310.59925,132.58611,310.63619Z" transform="translate(0 2.20947)"/><path class="cls-26" d="M141.88053,319.49981a.08592.08592,0,0,0-.03382-.01463l-.01251-.00286c.01347.00473.02721.00908.03978.01438Z" transform="translate(0 2.20947)"/><path class="cls-26" d="M136.54324,316.35692l.02089.01292C136.55068,316.359,136.48287,316.32,136.54324,316.35692Z" transform="translate(0 2.20947)"/><path class="cls-26" d="M124.97536,296.8444l.02077.00913.00933.00273Z" transform="translate(0 2.20947)"/><path class="cls-26" d="M130.09182,302.37441c.00868.003-.00513-.01259-.02756-.02347l-.00229-.00106.00411.00279Z" transform="translate(0 2.20947)"/><path class="cls-26" d="M125.00546,296.85626l.04683.01882A.36738.36738,0,0,0,125.00546,296.85626Z" transform="translate(0 2.20947)"/><path class="cls-4" d="M135.17281,316.3931a10.08327,10.08327,0,0,1-1.54565-1.7264l-.15556.03443a41.35646,41.35646,0,0,1-4.09163.73255,5.81654,5.81654,0,0,0,2.606,3.08434,16.91206,16.91206,0,0,1,2.91466,1.51923q.21818-.03472.43594-.0718.39124-.06708.78106-.14213.2259-.04339.45132-.08925.08778-.01783.17548-.036l.01381-.00284.01878-.004.1063-.02252q.21962-.04679.43995-.09383l.00745-.00375a.35072.35072,0,0,1,.11923-.02388c.31655-.06891.63257-.14144.94383-.22787.751-.20854,1.48033-.47855,2.24594-.63448.68963-.14045,1.61673-.22627,2.08144.428a.4277.4277,0,1,1-.7035.48662l-.01611-.02153-.02449-.02161a.25244.25244,0,0,1-.0427-.03064c-.0178-.00892-.03559-.01785-.05386-.02595.00625.00595-.0081.00491-.05565-.01963-.02224-.00537-.0444-.011-.0669-.01534-.03728-.00721-.07486-.01281-.11258-.01719l-.03557-.00351c-.04185.01173-.063.00605-.05913.00112-.02136-.0018-.04286-.00448-.06024-.00427-.04338.00052-.08674.00216-.13005.00467-.08336.00485-.16652.01305-.24935.02359-.10346.01316-.20642.03005-.30889.04946-.02956.0056-.17292.04244-.03772.00679-.04867.01283-.09878.02155-.14784.033-.20015.04661-.39859.10033-.596.15754-.36114.1047-.71814.22276-1.0777.33261-.30174.09217-.60823.16653-.9157.23682.0277.06787.05663.13524.08779.20159.01543.03284.09192.17451.01647.03722.017.03094.03271.06262.04962.09362q.057.1044.11961.20554a4.12722,4.12722,0,0,0,.32365.45171q.02838.03441.05756.06815l.01316.01659c.026.03184.05779.06089.08634.08975q.10692.10809.22228.20735.13359.11491.27789.21655c.01568.01105.07714.05186.09038.06136.04269.02644.08569.0524.12944.077a3.78328,3.78328,0,0,0,.623.27855c.05487.01892.19085.06066.04369.01549.04572.014.09133.0284.13715.04213.109.0327.21852.06388.32816.09446.34589.09648.69339.18865,1.04078.2815.06661-.11971.13265-.23976.19688-.36078.25471-.4799.52534-.95208.77294-1.4356a7.66492,7.66492,0,0,0,.38288-.88333l.00077-.002.01459-.04887q.015-.0517.02853-.10384c.01958-.07551.03667-.15167.0505-.22844.01381-.07664.02452-.15385.03168-.2314.00287-.03112.004-.10621.00335-.0325.00037-.041.00183-.0819.00116-.12291a2.14448,2.14448,0,0,0-.01509-.224c-.00412-.03375-.00958-.06723-.01493-.10078l-.00133-.0087-.004-.0139a1.88492,1.88492,0,0,0-.07207-.21866.7.7,0,0,1-.03967-.08079l-.011-.01866a1.28126,1.28126,0,0,0-.07319-.10614l-.019-.02378c-.02987-.0265-.10781-.10153-.11976-.1111-.02444-.01959-.04987-.03767-.07512-.05616l-.00612-.00454-.00162-.00085c-.04736-.02561-.094-.0517-.143-.07416-.01008-.00462-.07883-.03573-.12775-.05512l-.01115-.00289-.04007-.01173q-.04051-.01141-.08146-.02133a2.95436,2.95436,0,0,0-.37065-.06374c-.05779-.00644-.11571-.01046-.17364-.01495-.01146-.00013-.02434-.00182-.03359-.00217q-.054-.00207-.10808-.00309c-.13119-.0025-.26245-.00073-.3936.00334-.56212.01744-1.12312.07966-1.686.06119a6.79323,6.79323,0,0,1-1.70555-.25922A7.11334,7.11334,0,0,1,135.17281,316.3931Z" transform="translate(0 2.20947)"/><path class="cls-4" d="M121.77174,297.52589q-.28581.09873-.57072.2c-.44849.15965-.90972.30928-1.37867.43815.19242.45282.33064.51278,3.67349,3.54247.21624.196.45359.46882.352.74241a.42361.42361,0,0,1-.28834.25509q.63093-.084,1.25731-.19858.22329-.04074.44591-.08506.08637-.01717.17266-.0349l.06919-.01445.06507-.0138c.27385-.05863.54794-.11869.81941-.18759.74293-.18856,1.45716-.47281,2.20828-.63357.7273-.15566,1.73777-.31052,2.239.39514a.4277.4277,0,1,1-.7035.48662l-.01611-.02153-.02489-.02193a.21382.21382,0,0,1-.04251-.03044c-.02382-.0117-.04747-.02353-.07212-.03361-.09646-.01488-.04522-.01832-.00378-.00176l.00378.00176.01877.0029a.51869.51869,0,0,1-.05149-.01426c-.0357-.009-.07184-.01638-.10817-.02241-.038-.00632-.0763-.01108-.11468-.01467l-.01133-.00037c.02977.005.0304.01769-.03745-.00127a3.68951,3.68951,0,0,0-.51675.0368c-.103.01475-.20516.03355-.30725.05339l-.06768.015q-.07445.01684-.14859.03505c-.19979.04893-.398.10429-.59518.16269-.3673.10877-.73057.23065-1.09784.33948-.11093.03287-.22279.06281-.335.09164q.09825.12925.2.25574.09693.11993.19742.23693.05526.06427.11164.1276l.03432.03823.00387.00421a8.3104,8.3104,0,0,0,.99224.91481q.13832.107.28174.20721.07821.0546.15789.107c.01463.00961.05718.02768.06728.043l.01321.00817a6.4425,6.4425,0,0,0,.64338.34711c.15708.07344.321.14772.48744.20862q.29031-.52011.58057-1.04026c.16418-.29424.3289-.58855.476-.89184.07292-.15033.14155-.3028.20288-.45826.03127-.07929.05849-.15986.08756-.24l.00042-.00116.01494-.04974q.015-.05172.02853-.10385a2.88388,2.88388,0,0,0,.08369-.47759c.00163-.019.00273-.10259.00184-.01474l.00125-.05283q.00071-.0525-.00093-.105a2.11316,2.11316,0,0,0-.01866-.22291c-.00388-.028-.0094-.05566-.01359-.08356-.00756-.05048.00592.02541.00562.02639.00631-.0204-.0193-.07563-.02543-.0964a1.53447,1.53447,0,0,0-.074-.19939l-.00015-.00031a.08514.08514,0,0,1-.0146-.02579l-.00817-.01482c-.01941-.03221-.04008-.06366-.06221-.09408-.00417-.00575-.04266-.05195-.05548-.06929l-.01682-.01672a1.5932,1.5932,0,0,0-.16093-.1309l-.01887-.01115c-.01972-.0111-.03923-.02263-.05928-.033a1.73689,1.73689,0,0,0-.17259-.07752l-.0477-.01865-.00448-.00124-.04026-.01142a2.76293,2.76293,0,0,0-.37993-.07433c-.069-.00886-.13836-.0156-.20778-.0207l-.0162-.0011a.55446.55446,0,0,1-.10358-.00435c-.57592-.01553-1.14975.05129-1.725.06505a6.77157,6.77157,0,0,1-4.6774-1.65914A9.92307,9.92307,0,0,1,121.77174,297.52589Z" transform="translate(0 2.20947)"/><path class="cls-26" d="M126.75247,295.04857l.02665.02826C126.76611,295.06052,126.75483,295.04754,126.75247,295.04857Z" transform="translate(0 2.20947)"/><path class="cls-26" d="M138.95777,312.76491l.00445.00325Z" transform="translate(0 2.20947)"/><path class="cls-26" d="M127.13761,295.82164c.003-.00066-.00107-.019-.00905-.04666Z" transform="translate(0 2.20947)"/><path class="cls-26" d="M131.14433,301.479c-.02119-.04651-.01993-.03872-.01336-.02312Z" transform="translate(0 2.20947)"/><path class="cls-26" d="M133.63262,307.99754l.01082.00294.01043-.00035A.09936.09936,0,0,1,133.63262,307.99754Z" transform="translate(0 2.20947)"/><path class="cls-26" d="M134.46994,306.72054l.04855.01464A.13127.13127,0,0,0,134.46994,306.72054Z" transform="translate(0 2.20947)"/><path class="cls-26" d="M133.6602,307.99992l-.00633.00021.027.00162Z" transform="translate(0 2.20947)"/><path class="cls-26" d="M134.06243,308.11461c.00867.003-.00514-.01259-.02757-.02347l-.00228-.00106.0041.00279Z" transform="translate(0 2.20947)"/><path class="cls-26" d="M133.99725,308.065l.02266.01914.01267.00591C134.0209,308.08177,134.00782,308.07429,133.99725,308.065Z" transform="translate(0 2.20947)"/><path class="cls-26" d="M135.00063,307.04418l.00446.00325Z" transform="translate(0 2.20947)"/><path class="cls-4" d="M127.25854,304.95163a10.114,10.114,0,0,1-1.56425-1.75254q-.1315.02688-.26291.05359a25.45347,25.45347,0,0,1-3.15208.44431,1.00073,1.00073,0,0,0,.02753.18362,2.31,2.31,0,0,0,.604.94979,17.403,17.403,0,0,0,4.63891,3.591c-.06256.03967-.12648.07709-.191.11345q.72079-.12321,1.43707-.27066l.01588-.00329.04489-.00944.102-.02164q.10249-.02185.20488-.04416.18951-.04128.37868-.084c.27292-.06164.54633-.12288.81755-.19172.74292-.18856,1.45715-.47281,2.20828-.63357.7273-.15566,1.73776-.31052,2.23895.39514a.4277.4277,0,1,1-.7035.48662l-.01611-.02153-.02488-.02193a.21373.21373,0,0,1-.04252-.03044c-.02382-.01171-.04746-.02352-.07212-.03361-.09646-.01488-.04521-.01832-.00378-.00176l.00378.00176.01877.00289a.515.515,0,0,1-.05148-.01425c-.03571-.00905-.07185-.01638-.10818-.02241-.038-.00632-.0763-.01108-.11468-.01467l-.01133-.00037c.02977.005.0304.01769-.03745-.00127a3.68951,3.68951,0,0,0-.51675.0368c-.10292.01474-.20507.03354-.3071.05336l-.06783.015q-.07444.01686-.14858.03506c-.1998.04893-.398.10428-.59519.16268-.3673.10877-.73057.23065-1.09784.33948-.11057.03277-.222.063-.33377.09194q.09106.11925.18534.236.09694.11994.19743.23693.05526.06429.11164.1276l.03429.0382.0039.00424a8.31025,8.31025,0,0,0,.99223.91481q.13833.107.28175.20722.0782.05458.15789.107c.01462.00961.05719.02768.06728.043l.01321.00816a6.43935,6.43935,0,0,0,.64338.34711c.16893.079.34554.15985.525.22288.05633-.1017.11257-.20346.16708-.30616.25471-.47991.52534-.95209.77294-1.4356a7.66567,7.66567,0,0,0,.38288-.88333l.00077-.002.01459-.04887q.015-.05172.02853-.10385c.01959-.0755.03667-.15166.0505-.22844.01381-.07664.02452-.15384.03168-.23139.00287-.03113.004-.10622.00335-.0325.00037-.041.00183-.08191.00116-.12292a2.14466,2.14466,0,0,0-.01509-.224c-.00411-.03374-.00958-.06722-.01493-.10078l-.00133-.0087-.004-.01389a1.88444,1.88444,0,0,0-.07207-.21867.69976.69976,0,0,1-.03967-.08078l-.011-.01866a1.28142,1.28142,0,0,0-.07319-.10615l-.019-.02377c-.02986-.02651-.10781-.10153-.11976-.11111-.02444-.01959-.04987-.03767-.07512-.05616l-.00611-.00453-.00163-.00085c-.04736-.02561-.094-.05171-.143-.07417-.01007-.00462-.07882-.03572-.12774-.05511l-.01115-.0029-.04007-.01173q-.04051-.01141-.08146-.02133a2.95465,2.95465,0,0,0-.37065-.06373c-.05779-.00644-.11571-.01046-.17364-.015-.01147-.00013-.02434-.00182-.03359-.00217q-.054-.00207-.10808-.00308c-.13119-.00251-.26245-.00074-.3936.00333-.56212.01744-1.12312.07966-1.686.0612a6.79279,6.79279,0,0,1-1.70555-.25923A7.1132,7.1132,0,0,1,127.25854,304.95163Z" transform="translate(0 2.20947)"/><path class="cls-26" d="M129.662,302.25734l.01082.00294.01045-.00035A.09955.09955,0,0,1,129.662,302.25734Z" transform="translate(0 2.20947)"/><polygon class="cls-26" points="131.147 303.692 131.144 303.688 131.146 303.691 131.147 303.692"/><path class="cls-26" d="M129.6896,302.25972l-.00631.00021.027.00162Z" transform="translate(0 2.20947)"/><path class="cls-26" d="M130.02664,302.32482l.02267.01915.01266.00591C130.0503,302.34157,130.03722,302.33409,130.02664,302.32482Z" transform="translate(0 2.20947)"/><path class="cls-26" d="M128.629,304.91546l.02089.01291C128.63641,304.91758,128.5686,304.87852,128.629,304.91546Z" transform="translate(0 2.20947)"/><path class="cls-26" d="M130.49934,300.98034l.02582.00793A.10085.10085,0,0,0,130.49934,300.98034Z" transform="translate(0 2.20947)"/><path class="cls-26" d="M138.42707,312.44127l.04853.01463A.1314.1314,0,0,0,138.42707,312.44127Z" transform="translate(0 2.20947)"/><path class="cls-26" d="M142.38421,318.162l.04855.01464A.131.131,0,0,0,142.38421,318.162Z" transform="translate(0 2.20947)"/><path class="cls-26" d="M141.58679,319.44186c-.022-.00227-.03369.00035-.03609.0034a.21087.21087,0,0,0,.05651-.00138Z" transform="translate(0 2.20947)"/><path class="cls-26" d="M142.9149,318.48564l.00446.00325Z" transform="translate(0 2.20947)"/><path class="cls-4" d="M144.97291,325.03929l.01248-.01228c.021-.02217.03929-.04589.05784-.06962l.00089-.00193-.00549-.00889a.51067.51067,0,0,0-.053-.06142,1.64174,1.64174,0,0,0-.14314-.12282c-.03975-.02939-.19973-.12366-.05128-.03876-.04286-.02451-.08438-.05136-.12744-.07562-.10514-.05923-.21319-.11322-.32264-.164-.2457-.114-.49869-.2121-.75374-.303q-.21459-.07652-.43147-.14644l-.05289-.017-.08831-.02766q-.113-.0351-.22638-.06908c-.578-.17342-1.16143-.32755-1.74429-.48343a12.881,12.881,0,0,1-1.46421-.43945,4.20879,4.20879,0,0,1-2.00953-1.73179,4.80129,4.80129,0,0,1-.39363-.79182,34.73827,34.73827,0,0,1-4.24735.67364c.91641,2.67737,3.72868,4.18715,6.30481,5.41411q.97923-.10976,1.94985-.28119.22014-.03917.43961-.08206.10715-.021.2141-.04288l.027-.00556.08486-.01808q.3942-.08482.78489-.185a11.89891,11.89891,0,0,0,1.31186-.41q.25451-.09824.49953-.21747l.03067-.01636q.05186-.02815.10273-.05809c.05914-.0349.11716-.07176.17323-.11142.03121-.02207.06082-.04573.0902-.0697Z" transform="translate(0 2.20947)"/><polygon class="cls-26" points="141.616 321.652 141.607 321.653 141.61 321.654 141.616 321.652"/><path class="cls-26" d="M141.91152,319.5065l.02287.01926.01443.00713C141.9367,319.524,141.92268,319.51627,141.91152,319.5065Z" transform="translate(0 2.20947)"/><path class="cls-26" d="M145.00247,325.01534l-.02956.024-.00128.00121Z" transform="translate(0 2.20947)"/><path class="cls-26" d="M144.97791,324.87735c-.006-.00592-.00713-.00686,0,0Z" transform="translate(0 2.20947)"/><path class="cls-26" d="M144.97163,325.0405l-.02893.02361C144.89723,325.102,144.94056,325.06943,144.97163,325.0405Z" transform="translate(0 2.20947)"/><path class="cls-4" d="M134.97851,327.6094a1.21225,1.21225,0,0,0-.5035,1.06157,6.85784,6.85784,0,0,0,.44089,1.06343,1.11057,1.11057,0,0,1-.07272.80531q.12774-.12205.25213-.24753a20.98486,20.98486,0,0,0,2.22616-2.71541q-.4688.024-.938.03465C135.91619,327.62158,135.44727,327.62182,134.97851,327.6094Z" transform="translate(0 2.20947)"/><path class="cls-26" d="M141.80989,319.47245l.015.00773.00932.00214A.1678.1678,0,0,1,141.80989,319.47245Z" transform="translate(0 2.20947)"/><path class="cls-4" d="M118.71269,293.63446l-.02594-.01272a9.49436,9.49436,0,0,1-1.44521-.46145c.03849.12315.07875.26325.14913.44427.564,1.4509,1.9338,1.51789,2.77492,2.68937a.51305.51305,0,0,1,.093.56208,1.03438,1.03438,0,0,1-.249.2016.652.652,0,0,0-.14385.155c.7725-.23155,1.52738-.51656,2.29669-.7634.43758-.1404.87912-.27193,1.32778-.37236a5.581,5.581,0,0,1,1.05105-.1584,1.56388,1.56388,0,0,1,1.39987.56747.4277.4277,0,0,1-.70349.48662c-.00964-.01374-.02-.02688-.03016-.04012a.9408.9408,0,0,0-.07247-.06179c-.01211-.00678-.02415-.01366-.03664-.01978-.015-.00737-.03056-.01321-.046-.01921.012.0061.0037.00459-.05616-.02155l-.00276-.00077c-.02615-.00647-.05253-.012-.079-.01691-.05212-.00958-.10476-.01619-.15754-.02063l-.00667-.0006h-.00123c-.03035-.00029-.06067-.001-.091-.00072-.06526.00067-.13049.0038-.19557.00869a4.6987,4.6987,0,0,0-.46985.06168c-.05225.00928-.10431.01953-.15638.02976l-.0391.00851q-.14054.03105-.28009.0663c-.23074.058-.4597.12285-.68744.19157-.06768.02042-.13495.04215-.20242.06323.07178.09441.14461.188.21943.28005q.105.12912.21411.2548c.0364.04188.07337.08325.11029.12467l.05854.06289a8.02319,8.02319,0,0,0,1.05784.94879q.14672.109.29892.21028l.05832.03811a.27348.27348,0,0,1,.03285.021c.05121.03132.10246.06251.15434.09272a6.36323,6.36323,0,0,0,.70937.35624c.06722.02861.13506.05573.20326.08193.05718-.08786.11453-.1756.17119-.2638l.04186-.06532.01227-.01926.01143-.01806.04128-.06558q.06167-.09832.12225-.1973.13041-.21334.25388-.43084a8.60036,8.60036,0,0,0,.438-.87925c.05815-.13772.10942-.27757.15838-.41867.00032-.00287.02394-.07552.02894-.09287q.01461-.05079.02806-.10191.02671-.10159.04863-.20438a3.91128,3.91128,0,0,0,.06859-.44182c.00214-.0224.00657-.092.00725-.09214.00081-.0223.00173-.04461.00208-.06692q.00153-.099-.00331-.198-.00563-.11341-.02058-.22618-.00637-.04764-.01455-.095l-.00866-.047-.00269-.01584c-.02811-.09722-.1071-.31571-.11777-.33993l-.01885-.0405a.38274.38274,0,0,1-.04383-.07828,1.91713,1.91713,0,0,0-.12222-.178c-.00387-.005-.02636-.03572-.04555-.05987l-.00625-.0063-.0345-.03583c-.05075-.05134-.10417-.1-.15967-.14615q-.08419-.07-.17449-.13214c-.02986-.02061-.0851-.05283-.02054-.015-.03461-.0203-.06874-.04135-.10374-.061a3.30334,3.30334,0,0,0-.41244-.1938c-.06612-.02587-.13316-.04936-.20058-.07159l-.05323-.01588q-.06129-.01758-.12307-.03338c-.15447-.03963-.31091-.07112-.4684-.0961-.16114-.02557-.32324-.04477-.48573-.05939q-.123-.01107-.24633-.01885l-.0684-.00412-.10885-.00484c-.33442-.01343-.66917-.015-1.00382-.0175-.69641-.00512-1.39192-.02832-2.08518-.09827a16.74124,16.74124,0,0,1-1.95493-.31342c-.05936-.0132-.11873-.02695-.17809-.04069A.46283.46283,0,0,1,118.71269,293.63446Z" transform="translate(0 2.20947)"/><path class="cls-26" d="M116.9057,288.50882a.061.061,0,0,0-.02363.01314Z" transform="translate(0 2.20947)"/><path class="cls-4" d="M115.631,290.34277c-.00038.01179-.00008.02348-.00027.03524a.4509.4509,0,0,1,.00033.09591,2.31483,2.31483,0,0,0,.0282.30374l.00175.012.0101.03628q.01221.046.02663.09138a1.9407,1.9407,0,0,0,.07229.191l.01474.03218a.66489.66489,0,0,1,.03976.07453c.03432.05878.07162.11582.11128.17114q.06476.09033.13775.17432l.0203.02138c.01918.0192.03787.03895.05729.05792a3.24693,3.24693,0,0,0,.34093.28855c.0592.04373.12047.08408.181.12585l.03792.02336q.04458.027.08975.05291c.13239.07611.26844.14577.4069.21012q.21894.10174.44538.18622.10907.041.21941.07852l.06787.02273.018.006.01377.00437.05106.01562q.22575.06831.45438.12783c.08164-.17451.15539-.353.22164-.53323q.03163-.0861.061-.173l.02236-.06756.00378-.01281c.03812-.12759.07383-.25576.10445-.38538a5.28686,5.28686,0,0,0,.12995-.82492l.003-.04482,0-.001c.00117-.0365.00239-.073.00291-.10951q.00144-.10248-.00211-.205a3.10267,3.10267,0,0,0-.03972-.41709c-.00406-.0235-.02856-.07465-.005-.0284-.00763-.03073-.01483-.06153-.02311-.09211q-.02542-.09393-.05778-.18578-.03475-.09879-.077-.19471-.01694-.0384-.035-.07628l-.015-.027c-.06493-.10589-.12412-.21326-.198-.314q-.06159-.08394-.12956-.163l-.00881-.01c-.02209-.02132-.04279-.04427-.06478-.06572a2.33518,2.33518,0,0,0-.29216-.24274l-.02069-.01408a.06986.06986,0,0,1-.04235-.02325l-.02463-.01679q-.081-.04516-.16608-.08262-.04829-.0212-.09774-.03966l-.02469-.00886c-.04964-.01286-.09881-.02678-.14931-.03655-.05786-.01121-.11591-.01581-.174-.02326-.01353-.00039-.02935-.00116-.03355-.00115q-.04047.00011-.08094.00222-.063.0033-.1256.01136c-.02348.003-.04669.007-.0701.01038l-.00826.00152-.03664.00906-.04994.01389c-.03842.01135-.07643.02411-.114.038q-.06415.02376-.12641.05216l-.01516.00581-.00507.00305c-.06943.041-.13875.08029-.2053.12608-.07207.04958-.14148.103-.20845.15924-.0256.02151-.0527.04283-.07654.06642l-.03646.03683a5.11837,5.11837,0,0,0-.35765.394c-.17919.21706-.34531.44431-.51092.67183A.41908.41908,0,0,1,115.631,290.34277Z" transform="translate(0 2.20947)"/><path class="cls-26" d="M118.229,288.57755c-.01947-.01344-.02283-.01248-.01864-.0071a.12817.12817,0,0,0,.04128.02252Z" transform="translate(0 2.20947)"/><polygon class="cls-26" points="118.255 290.803 118.252 290.802 118.253 290.803 118.255 290.803"/><path class="cls-26" d="M141.97709,319.5564c.01308.00594.00069-.01-.02078-.01982l-.00749-.00369.00213.00145C141.96011,319.5413,141.96855,319.54889,141.97709,319.5564Z" transform="translate(0 2.20947)"/><path class="cls-27" d="M115.2409,305.05118l-.00352-.007Z" transform="translate(0 2.20947)"/><path class="cls-28" d="M129.38,315.43368c-.62846.075-1.25911.12866-1.89146.15426a12.65467,12.65467,0,0,1-4.66419-.56907c-.0506-.01753-.10048-.03653-.15058-.0551q.11961.40162.27042.793.09809.253.21074.5.05511.12057.1139.23939l.01959.03918c.01591.03036.03173.06075.0479.091a7.54083,7.54083,0,0,0,.52953.85128q.141.1956.29517.38118c.0476.05722.0966.11319.14582.169.07874.0771.04607.04958.02213.02486l.00958.01036q.04132.04426.08346.08775a6.58833,6.58833,0,0,0,.70367.62922q.18357.14184.37671.2707c.03924.0262.08051.05018.11888.07759-.1266-.09043-.005-.0038.02728.01585q.096.05853.19393.11393a7.53359,7.53359,0,0,0,.88376.42541q.24.09723.48587.17932c.03489.01168.18317.05683.04189.01437.04236.01273.08446.02633.12684.039q.11774.03528.23636.06746a11.78372,11.78372,0,0,0,2.22187.36421q.09.00663.18.01215l.07632.0045c.09549.00445.191.0086.28656.01163q.31126.00987.62274.00848c.45717-.00173.91422-.02022,1.37028-.05186.84593-.05868,1.68835-.16226,2.52573-.29554A16.91206,16.91206,0,0,0,131.986,318.518,5.81654,5.81654,0,0,1,129.38,315.43368Z" transform="translate(0 2.20947)"/><path class="cls-27" d="M124.29734,318.01855l.02181.02357-.01234-.01429Z" transform="translate(0 2.20947)"/><polygon class="cls-27" points="124.32 320.253 124.329 320.262 124.319 320.252 124.32 320.253"/><path class="cls-27" d="M110.33673,292.64428l.01048.0005.05156.00179.06838.00132c.031.00019.062-.00074.093-.00184-.08759-.00775-.17506-.01391-.26219-.01617-.05346-.00138-.108.00019-.16284.00357.04437.00224.08873.00446.13308.00692Z" transform="translate(0 2.20947)"/><path class="cls-27" d="M114.37927,302.50927a.1489.1489,0,0,0,.00765.02477.11137.11137,0,0,0-.0077-.02506Z" transform="translate(0 2.20947)"/><path class="cls-28" d="M127.87323,312.41745a6.14171,6.14171,0,0,1-2.45647-2.74524c-.69267.07318-1.38773.11993-2.08436.13082a12.875,12.875,0,0,1-4.80728-.72282c.10657.31124.223.61913.35211.9217q.11167.26166.23594.51769c.02167.04455.04383.08884.066.13314l.02728.05239q.063.12.12926.23836a8.851,8.851,0,0,0,.56022.87824q.153.21053.3196.41067c.05677.06808.115.13481.17385.20113l.00153.00173.00325.00344c.02764.02948.05518.059.08315.08822a6.91889,6.91889,0,0,0,.72184.65462q.18983.149.38993.28418c.03.02025.06024.04.09048.05989.10379.05885.04264.02811.01626.01077l-.01626-.01077-.01094-.00622c.01708.00964.03345.021.05013.03138q.10069.06244.20349.1214a7.24359,7.24359,0,0,0,.88093.42767q.22785.09245.46121.17044l.067.022c.03567.01089.07126.022.107.03263q.12144.036.24388.06857a11.064,11.064,0,0,0,2.1588.33415c.03208.002.06429.00311.09632.00563l-.00663-.00052-.00569-.00024c-.027-.0013-.111-.00889.00569.00024q.07036.00338.14077.00609.14841.00567.29691.00847.30492.00579.6099.00039c.43811-.00742.87588-.03066,1.31261-.066.97371-.07871,1.94218-.21631,2.90378-.387.07225-.01282.14421-.02725.21639-.04045.02771-.02261.05557-.04505.08233-.06881C130.40724,313.39107,129.03293,313.10009,127.87323,312.41745Z" transform="translate(0 2.20947)"/><polygon class="cls-27" points="114.379 304.718 114.379 304.718 114.379 304.718 114.379 304.718"/><path class="cls-27" d="M128.54467,324.08067l-.0213-.042A.20125.20125,0,0,0,128.54467,324.08067Z" transform="translate(0 2.20947)"/><path class="cls-27" d="M133.954,331.12305c.03456-.00343.02379-.0055.00654-.00438l-.01818.00585Z" transform="translate(0 2.20947)"/><path class="cls-28" d="M123.84787,302.449c.10156-.27359-.13579-.54642-.352-.74241-3.34285-3.02969-3.48107-3.08965-3.67349-3.54247a9.20148,9.20148,0,0,1-4.00144.3201,5.958,5.958,0,0,1-3.63057-2.22463,2.16411,2.16411,0,0,1-.42054-1.866,4.2268,4.2268,0,0,1,.96468-1.66934c.06939-.08025.14062-.15878.21255-.23663a9.59028,9.59028,0,0,1-1.038.60745,3.75887,3.75887,0,0,1-1.059.38171,2.4447,2.4447,0,0,1-.54345.01567q-.0787-.00416-.1574-.00859l-.00487-.00028-.03969-.00171c-.079-.003-.15812-.00384-.23705.00107-.04478.00278-.08889.01083-.13346.01437l-.007.00045-.03221.01058c-.0187.0059-.03711.01262-.05526.02-.04424.03237-.09451.05791-.13811.092l-.03628.03053-.01776.01753a1.41915,1.41915,0,0,0-.10809.13023l-.00213.00468-.00284.00715a.44683.44683,0,0,1,.05147.15059c.00257.01167.00644.02307.00814.03489q.049.34095.11376.67937l.02185.11081a.23334.23334,0,0,1,.00334.03016c.00664.04508.02271.09267.03224.13527q.03324.14859.07.29638.0819.32941.18174.654a11.21821,11.21821,0,0,0,.446,1.20266q.06658.15175.13791.30137.02725.05713.0552.11394c.01565.03181.0997.18712.02715.05545.10037.18217.19542.3665.30193.54535a9.52619,9.52619,0,0,0,.6755.98837q.17816.22818.37031.445c.02127.024.04321.04743.0642.07165l-.00826-.00952-.00409-.00436c-.01975-.02136-.07387-.08554.00409.00436q.04692.05068.09456.10069.09937.10421.202.20525a9.33156,9.33156,0,0,0,.88849.77058q.23065.176.47168.33769.06965.04674.14009.09228c.09552.05727.02476.016.00191.00126l-.00191-.00126-.00965-.00579c.02089.01251.04127.026.06194.03886.05871.03653.11812.07189.17757.10719a.40046.40046,0,0,1,.1737.10023,10.57166,10.57166,0,0,0,.9621.4831q.29056.12766.588.23877.15669.05861.315.11272.0613.021.12282.04127l.07182.02345q.62263.19259,1.26086.326.66783.13845,1.34661.21428.35811.04073.71778.06569.09493.00665.18993.01223c.02433.00143.04881.00372.07317.00416l.00888.00032q.17823.00855.35663.0136a21.2355,21.2355,0,0,0,3.07565-.14652q.1917-.0225.383-.04821A.42361.42361,0,0,0,123.84787,302.449Z" transform="translate(0 2.20947)"/><path class="cls-27" d="M114.22923,296.97664l.00325.00223a.24742.24742,0,0,0,.02776.0168l-.01219-.00729Z" transform="translate(0 2.20947)"/><path class="cls-27" d="M114.1933,296.95423l.03593.02241-.006-.00413Z" transform="translate(0 2.20947)"/><path class="cls-27" d="M133.92584,331.13016l.0165-.00564-.01341.0017Z" transform="translate(0 2.20947)"/><path class="cls-27" d="M112.69667,295.47606c.01021.02279.02562.03984.02489.03371q-.01607-.02772-.034-.0537Z" transform="translate(0 2.20947)"/><path class="cls-28" d="M120.25858,296.89945a.513.513,0,0,0-.093-.56207c-.84112-1.17149-2.21088-1.23848-2.77492-2.68937-.07038-.181-.11064-.32113-.14913-.44428-.02353-.00994-.04739-.01913-.0708-.02934a3.82624,3.82624,0,0,1-1.98355-1.7248c-.22639.2475-.47407.47819-.71146.70889a13.86331,13.86331,0,0,0-1.31992,1.40043c-.09363.12048-.17441.24914-.26437.37189.09321-.12719.00454-.00569-.016.02922q-.02646.04488-.05162.0905-.04929.08952-.09283.18206c-.03067.06555-.05889.13227-.08405.20013l-.01853.05383-.01262.04354a1.9287,1.9287,0,0,0-.0427.20295q-.0065.04232-.011.08491l-.00242.027c0,.06292,0,.12528.00593.18819q.00405.043.01042.08579l.00484.02917c.01708.064.03418.12727.05739.1896q.01628.04368.03489.08643l.01332.02936a.25467.25467,0,0,1,.03512.05627c.02744.04735.05262.0969.08316.14154.04525.06612.094.12976.14545.19119.03.0358.06068.071.0915.10609.02424.02756.14022.1489.03152.03623.0584.06054.11483.12289.17394.1828a6.06994,6.06994,0,0,0,.77135.66475c.06714.04836.13572.09448.20471.14014l.037.02316c.03261.01995.06538.03967.09844.05888q.21342.12408.43819.2271.2213.10129.45163.18093l.06645.02244c.03017.00916.06031.01838.09061.02709q.12282.03533.24726.06466.24943.05892.50358.09468.13945.0198.27975.03306.07137.00678.14289.01195c.01846.00133.07263.003.08943.00372a9.476,9.476,0,0,0,1.12886-.03594c.21469-.022.42858-.05152.64139-.08734q.17484-.02941.34869-.06432l.02054-.00394c.02636-.00525.05265-.01118.07888-.0169q.07543-.01646.15066-.0338c.27929-.06437.55481-.13993.82822-.22188a.652.652,0,0,1,.14385-.155A1.03418,1.03418,0,0,0,120.25858,296.89945Z" transform="translate(0 2.20947)"/><path class="cls-27" d="M133.823,331.13463c.03465.0062.02339-.0006.00557-.00436l-.025.00144Z" transform="translate(0 2.20947)"/><path class="cls-28" d="M134.9159,329.81949a6.85743,6.85743,0,0,1-.44089-1.06343,1.21225,1.21225,0,0,1,.5035-1.06157,19.70252,19.70252,0,0,1-2.506-.215c-.02441-.0038-.04867-.00856-.07307-.01248.04033.34676.08442.69312.142,1.03747q.02694.161.0581.32127l.0107.054.00919.04381q.01826.084.038.1677c.05108.21563.11047.42938.1807.63959a5.75244,5.75244,0,0,0,.21212.54458c.02326.05152.04874.102.07232.1533l.00147.00324.02394.04548q.0671.125.14168.24568c.05225.08444.10674.16778.166.2475q.02172.02922.04441.05765l.02522.03069.0059.00617c.01744.01648.03446.03329.0526.049.02124.0184.04432.0343.06592.05207l.00193.00067c.00161.00066.03749.0186.06411.03087a.103.103,0,0,1,.026.00779l.02843.00628.02777.00418a.05185.05185,0,0,1,.03056-.00062c.02878-.00065.06562.00018.07179-.00043l.02856-.00361a.07047.07047,0,0,1,.03159-.00755c.05427-.0173.15469-.04854.16515-.05278.03121-.01264.06147-.02814.09225-.04192l.0393-.02226c.06386-.03735.12576-.078.186-.121.06377-.04556.12554-.094.18552-.14438.0293-.02463.05793-.05.08659-.07538l.00022-.0002.01843-.01718c.03684-.03418.07292-.06917.10925-.10389A1.1106,1.1106,0,0,0,134.9159,329.81949Z" transform="translate(0 2.20947)"/><path class="cls-27" d="M134.40878,326.734l.00337.00013-.019-.001Z" transform="translate(0 2.20947)"/><path class="cls-27" d="M133.71784,331.11514l.007.00154-.009-.004C133.6967,331.10875,133.681,331.10767,133.71784,331.11514Z" transform="translate(0 2.20947)"/><path class="cls-27" d="M133.74428,331.12376l-.00246-.00333-.017-.00375Z" transform="translate(0 2.20947)"/><path class="cls-27" d="M133.79346,331.13421l.01008-.0025-.00552-.00083Z" transform="translate(0 2.20947)"/><path class="cls-27" d="M112.67908,295.44314l.00852.01293-.00116-.00257Z" transform="translate(0 2.20947)"/><path class="cls-27" d="M134.44558,326.736l-.021-.00135-.01244-.0005Z" transform="translate(0 2.20947)"/><path class="cls-28" d="M122.91084,305.1288a2.31,2.31,0,0,1-.604-.9498,1.0006,1.0006,0,0,1-.02753-.18362,20.21558,20.21558,0,0,1-3.16339-.00238,13.55748,13.55748,0,0,1-4.74306-1.21807l.00629.03206c.03407.068.01958.05532.00778.02544.00385.01832.00583.03869.00917.054q.03156.14463.06639.2885.07677.31686.17052.62931a10.04679,10.04679,0,0,0,.41266,1.129q.061.13944.12674.27675.025.05213.05066.10393l.01432.02861c-.01491-.03-.03454-.07249.009.01742q.12852.24677.27379.4843a7.22446,7.22446,0,0,0,.61777.86113c.05365.06409.11706.12419.16643.19148-.09252-.1261-.00646-.00739.02257.0234q.04316.04578.08715.09074.18238.18636.37891.35813.18783.16411.38755.31392.1082.08116.21957.158.0515.03552.10362.07009c.033.02191.16362.08892.02912.02.1487.07615.28785.17507.43544.25454q.22508.12118.4581.22678.24693.1121.50109.20727.13423.05039.27012.09627c.03561.012.07155.02331.10718.03532l.04369.01351a11.30907,11.30907,0,0,0,2.28739.42953q.165.01487.33031.02592.0755.00507.15105.00938c.11855-.00148.03059.00175.00348.00021l-.00348-.00021-.002,0c.02588-.00032.05235.00257.07821.00374q.31848.01446.63737.01669c.45546.00352.911-.01019,1.36562-.0374a28.8119,28.8119,0,0,0,2.98425-.348c.05948-.00985.11865-.02139.17807-.03155.06452-.03636.12844-.07378.191-.11345A17.40278,17.40278,0,0,1,122.91084,305.1288Z" transform="translate(0 2.20947)"/><path class="cls-28" d="M132.92936,321.14783c-.47021.04139-.94142.07031-1.41346.083a14.99263,14.99263,0,0,1-3.47941-.27266c-.0085.06482-.01655.12973-.02289.19477q-.0077.07911-.01332.1584l-.00413.06418c-.00466.12727-.00714.25445-.0049.38181a6.0933,6.0933,0,0,0,.07794.87475q.01076.06584.023.1314c.00635.03393.04408.16939.00647.03685.02063.07268.03329.1483.0521.22159q.06556.25547.15552.50382a5.228,5.228,0,0,0,.21126.49959l.0189.03854.0095.019.00436.00724q.03435.06463.07057.12826.06645.11681.139.23a5.15507,5.15507,0,0,0,.36767.50371q.057.06889.11623.13584l.00874.01038c.01189.0135.02518.02665.037.03917q.11712.12369.24188.23987a2.96513,2.96513,0,0,0,.22642.19148q.063.04791.12835.09258l.05007.03356a4.77091,4.77091,0,0,0,.56407.29221q.163.07125.33026.13247.08652.03188.17388.06141l.08168.02707.01177.00366c.24737.07632.49836.14075.75115.19642a14.49023,14.49023,0,0,0,1.72108.26251q.23417.02267.46884.03962.11913.00867.23834.016l.108.00637.00782.00043c-.02184-.0014-.03738-.00287.0314.00154q.48285.02322.96623.029c.65915.00721,1.31853-.00953,1.97669-.046q.93486-.05176,1.86666-.15575C136.658,325.335,133.84577,323.8252,132.92936,321.14783Z" transform="translate(0 2.20947)"/><path class="cls-27" d="M115.2409,305.05118l.01306.02608-.00758-.01568-.00274-.005Z" transform="translate(0 2.20947)"/><path d="M131.14557,301.48162l-.00124-.00267-.01336-.02312A.08514.08514,0,0,0,131.14557,301.48162Z" transform="translate(0 2.20947)"/><path d="M129.97719,302.31036l-.00378-.00176C129.932,302.292,129.88073,302.29548,129.97719,302.31036Z" transform="translate(0 2.20947)"/><path d="M129.71029,302.26155l-.027-.00162-.01045.00035C129.74069,302.27924,129.74006,302.2666,129.71029,302.26155Z" transform="translate(0 2.20947)"/><path d="M130.06608,302.35267l-.00411-.00279-.01266-.00591a.21382.21382,0,0,0,.04251.03044Z" transform="translate(0 2.20947)"/><path d="M111.88279,299.61183l.00409.00436C111.80892,299.52629,111.863,299.59047,111.88279,299.61183Z" transform="translate(0 2.20947)"/><path d="M113.68369,301.12268l.00191.00126C113.70845,301.13871,113.77921,301.18,113.68369,301.12268Z" transform="translate(0 2.20947)"/><path d="M134.03668,308.09287l-.0041-.00279-.01267-.00591a.21373.21373,0,0,0,.04252.03044Z" transform="translate(0 2.20947)"/><path d="M133.68089,308.00175l-.027-.00162-.01043.00035C133.71129,308.01944,133.71066,308.0068,133.68089,308.00175Z" transform="translate(0 2.20947)"/><path d="M133.94779,308.05056l-.00378-.00176C133.90258,308.03224,133.85133,308.03568,133.94779,308.05056Z" transform="translate(0 2.20947)"/><path d="M114.37914,302.5086l.00008.00038a.11137.11137,0,0,1,.0077.02506C114.39872,302.56391,114.41321,302.57656,114.37914,302.5086Z" transform="translate(0 2.20947)"/><path d="M122.11723,308.93132l.00348.00022C122.14782,308.93308,122.23578,308.92984,122.11723,308.93132Z" transform="translate(0 2.20947)"/><path d="M115.23738,305.04416l.00352.007.00274.00536.00274.005C115.20284,304.97168,115.22247,305.01412,115.23738,305.04416Z" transform="translate(0 2.20947)"/><path d="M137.90491,313.77129l-.00376-.00175C137.85971,313.753,137.80847,313.75642,137.90491,313.77129Z" transform="translate(0 2.20947)"/><path d="M137.99382,313.81361l-.00411-.0028-.01266-.0059a.21274.21274,0,0,0,.04251.03043Z" transform="translate(0 2.20947)"/><path d="M121.67958,313.52561l.01626.01077C121.72222,313.55372,121.78337,313.58446,121.67958,313.52561Z" transform="translate(0 2.20947)"/><path d="M125.925,314.73255l.00569.00024C125.81407,314.72366,125.89807,314.73125,125.925,314.73255Z" transform="translate(0 2.20947)"/><path d="M141.60983,319.44414l-.00262-.00026a.21087.21087,0,0,1-.05651.00138C141.54681,319.45019,141.568,319.45587,141.60983,319.44414Z" transform="translate(0 2.20947)"/><path d="M141.88053,319.49981l-.00655-.00311c-.01257-.0053-.02631-.00965-.03978-.01438l-.00932-.00214C141.87243,319.50472,141.88678,319.50576,141.88053,319.49981Z" transform="translate(0 2.20947)"/><path d="M141.951,319.53434l-.00213-.00145-.01443-.00713a.25244.25244,0,0,0,.0427.03064C141.96855,319.54889,141.96011,319.5413,141.951,319.53434Z" transform="translate(0 2.20947)"/><path d="M124.30681,318.02783l.01234.01429.00979.01057C124.35288,318.07741,124.38555,318.10493,124.30681,318.02783Z" transform="translate(0 2.20947)"/><path d="M118.25269,288.5937l-.00107-.00073a.12817.12817,0,0,1-.04128-.02252A.06983.06983,0,0,0,118.25269,288.5937Z" transform="translate(0 2.20947)"/><path d="M125.05229,296.87508l-.04683-.01882-.00933-.00273C125.056,296.87967,125.06431,296.88118,125.05229,296.87508Z" transform="translate(0 2.20947)"/><path d="M112.68644,295.4535l.00116.00257q.01791.026.034.0537A.25467.25467,0,0,0,112.68644,295.4535Z" transform="translate(0 2.20947)"/><path d="M114.22923,296.97664l.01882.01174.01219.00729-.037-.02316Z" transform="translate(0 2.20947)"/><path class="cls-8" d="M145.8693,324.72651a1.14871,1.14871,0,0,0-.36454-.52918,4.273,4.273,0,0,0-1.33932-.71232c-.5392-.204-1.08988-.373-1.64442-.52942.231-.42006.45354-.84486.6844-1.265a6.36716,6.36716,0,0,0,.7542-1.85828,2.249,2.249,0,0,0-.43059-1.93331,2.2831,2.2831,0,0,0-1.50451-.66929,11.53965,11.53965,0,0,0-1.73156.02273c-.28544.01564-.571.02579-.85681.015l-.0355-.00131-.00787-.0004c-.03352-.00214-.067-.00431-.10053-.00685q-.1156-.00874-.23086-.02156-.20847-.02325-.41512-.06l-.04584-.009c.218-.39834.42919-.80047.64785-1.19844a6.3673,6.3673,0,0,0,.75421-1.85828,2.249,2.249,0,0,0-.43059-1.93331,2.28316,2.28316,0,0,0-1.50451-.6693,11.54245,11.54245,0,0,0-1.73157.02273c-.28543.01564-.571.0258-.8568.015l-.0355-.00131-.00788-.00041c-.03352-.00214-.067-.0043-.10052-.00684q-.11562-.00874-.23086-.02156-.20847-.02326-.41512-.06l-.04584-.009c.21794-.39835.42918-.80046.64785-1.19844a6.367,6.367,0,0,0,.7542-1.85828,2.249,2.249,0,0,0-.43059-1.93332,2.2831,2.2831,0,0,0-1.50451-.66929,11.54113,11.54113,0,0,0-1.73157.02273c-.28543.01564-.571.02579-.8568.015l-.0355-.0013-.00787-.00041c-.03352-.00214-.067-.00431-.10053-.00684q-.11561-.00874-.23086-.02157-.20847-.02325-.41512-.06c-.02872-.00513-.05726-.01127-.08592-.0168l.31836-.5704a13.59239,13.59239,0,0,0,.88522-1.73539,3.04191,3.04191,0,0,0,.14692-2.10785,1.92491,1.92491,0,0,0-1.427-1.18747,6.04456,6.04456,0,0,0-1.76235-.07032c-.291.0167-.582.03713-.87353.04207q-.12192.00207-.24385-.00008-.05145-.00093-.1029-.00261l-.05111-.00185-.01374-.00045c-.14693-.0096-.29345-.022-.43956-.04055-.16263-.02064-.32431-.0483-.48483-.08155a7.77341,7.77341,0,0,0,1.40375-3.20853,3.03253,3.03253,0,0,0-.3184-1.87048,2.84312,2.84312,0,0,0-1.50244-1.18975,12.99989,12.99989,0,0,0-4.08536-.39952c-.044-.00186-.088-.00405-.13205-.00611l-.05081-.0029q-.13578-.008-.27143-.018-.25073-.0186-.50085-.04437-.505-.05208-1.00628-.134c-.20393-.03343-.40742-.07164-.6105-.1123q.03092-.07245.06054-.14512a6.61041,6.61041,0,0,0,.44506-1.61885,3.79365,3.79365,0,0,0-.16663-1.89806,3.00988,3.00988,0,0,0-1.118-1.41505,2.19885,2.19885,0,0,0-1.92315-.27641,3.87275,3.87275,0,0,0-1.73066,1.47376c-.22635.30167-.44016.61289-.67612.90727a9.00069,9.00069,0,0,1-.80612.879c-.03356.03206-.06794.06328-.10144.09539l-.00448.0043-.04323.03883q-.11144.09921-.2261.19472-.22926.191-.47072.36669a9.02454,9.02454,0,0,1-1.00857.63656c-.04081.02212-.08186.04377-.12292.06541l-.01512.008-.06005.03c-.08594.04244-.17249.08376-.26011.12265-.07981.03544-.16056.06879-.24271.09845-.04093.01478-.08216.02874-.12377.04147q-.03556.01087-.07149.02066l-.06057.01525-.01206.00235c-.02449.00381-.04889.00785-.07347.011-.04151.00524-.08319.00876-.125-.26064h-.02622c-.031.2731-.062.274-.093.73286h-.06838c-.0058-.4605-.03357-.4615-.05156-.46213l-.01048-.0005-.06848-.00391c-.04435-.00246-.08871-.00468-.13308-.00692l-.06161-.00321a2.54183,2.54183,0,0,0-.27117-.00035,1.41181,1.41181,0,0,0-.86366.35123,1.19917,1.19917,0,0,0-.476.87421.60674.60674,0,0,0,.09617.32149,11.881,11.881,0,0,0,1.81247,4.88749,9.89388,9.89388,0,0,0,3.0437,2.89168,10.564,10.564,0,0,0,1.66663,4.479,7.35231,7.35231,0,0,0,2.3927,2.1529,11.27891,11.27891,0,0,0,2.02451,4.11526,7.56715,7.56715,0,0,0,2.17335,1.80292,9.22425,9.22425,0,0,0,1.77223,3.82364,7.44328,7.44328,0,0,0,3.30259,2.27305c.15025.05242.30175.09994.45386.14493-.01309.09676-.02371.19381-.03246.29007a6.56732,6.56732,0,0,0,.05563,1.70693,5.88061,5.88061,0,0,0,.83227,2.19024,4.86423,4.86423,0,0,0,1.47093,1.50593,5.73358,5.73358,0,0,0,1.34461.58961c.21339.06738.42963.12451.64712.17647a14.53954,14.53954,0,0,0,.43777,2.486,6.16076,6.16076,0,0,0,.50576,1.21911,2.04361,2.04361,0,0,0,.89418.97673,1.98423,1.98423,0,0,0,2.045-.707,16.23041,16.23041,0,0,0,1.54768-1.69647q.7718-.95546,1.45125-1.98175.99153-.08415,1.97635-.22862a21.70129,21.70129,0,0,0,3.37023-.72812,7.47966,7.47966,0,0,0,1.126-.44184,2.23223,2.23223,0,0,0,.845-.62251A.87183.87183,0,0,0,145.8693,324.72651Zm-.89139.15084c-.00713-.00686-.006-.00592,0,0Zm-2.05855-6.38846-.00446-.00325Zm-.4866-.31224-.04855-.01464A.131.131,0,0,1,142.43276,318.17665Zm-2.5753-.055c.56292.01847,1.12392-.04375,1.686-.06119.13115-.00407.2624-.00584.3936-.00334q.05406.001.10808.00309c.00925.00035.02212.002.03359.00217.05793.00449.11585.00851.17364.01495a2.95421,2.95421,0,0,1,.37064.06374q.04092.00994.08147.02133l.04007.01173.01115.00289c.04892.01939.11767.0505.12774.05512.049.02246.09565.04855.143.07416l.00162.00085.00612.00454c.02525.01849.05068.03657.07512.05616.01195.00957.08989.0846.11976.1111l.019.02378a1.28126,1.28126,0,0,1,.07319.10614l.011.01866a.7.7,0,0,0,.03967.08079,1.88682,1.88682,0,0,1,.07207.21866l.004.0139.00133.0087c.00535.03355.01081.067.01493.10078a2.14448,2.14448,0,0,1,.01509.224c.00067.041-.00079.08192-.00116.12291.00067-.07371-.00048.00138-.00335.0325-.00716.07755-.01787.15476-.03168.2314-.01383.07677-.03092.15293-.0505.22844q-.01351.05212-.02853.10384l-.01459.04887-.00077.002a7.66492,7.66492,0,0,1-.38288.88333c-.2476.48352-.51823.9557-.77294,1.4356-.06424.121-.13027.24107-.19689.36078-.34739-.09285-.69488-.185-1.04077-.2815-.10964-.03058-.21912-.06176-.32816-.09446-.04582-.01373-.09143-.0281-.13715-.04213.14716.04517.01117.00343-.04369-.01549a3.78328,3.78328,0,0,1-.623-.27855c-.04375-.02463-.08675-.05059-.12944-.077-.01324-.0095-.0747-.05031-.09038-.06136q-.144-.10152-.27789-.21655-.11527-.09915-.22228-.20735c-.02855-.02886-.06033-.05791-.08634-.08975l-.01316-.01659q-.02916-.03375-.05756-.06815a4.12588,4.12588,0,0,1-.32365-.45171q-.06264-.10107-.11961-.20554c-.01691-.031-.03262-.06268-.04962-.09362.07545.13729-.001-.00438-.01647-.03722-.03116-.06635-.06009-.13372-.08779-.20159.30747-.07029.614-.14465.91569-.23682.35957-.10985.71657-.22791,1.07771-.33261.19736-.05721.3958-.11093.596-.15754.04906-.01143.09916-.02015.14784-.033-.1352.03565.00816-.00119.03772-.00679.10246-.01941.20543-.0363.30889-.04946.08283-.01054.166-.01874.24935-.02359.0433-.00251.08667-.00415.13005-.00467.01738-.00021.03888.00247.06024.00427.00239-.00305.01407-.00567.03609-.0034l.02042.002.00839-.00119-.00577.00145.03557.00351c.03772.00438.0753.01.11258.01719.0225.00435.04466.01.0669.01534l-.015-.00773a.1678.1678,0,0,0,.02431.00987l.0125.00286a.086.086,0,0,1,.03383.01463c.01827.0081.03606.017.05385.02595l-.02286-.01926c.01116.00977.02518.01751.0373.02639l.00749.00369c.02147.0098.03386.02576.02078.01982l.02449.02161.01611.02153a.4277.4277,0,1,0,.7035-.48662c-.46471-.65431-1.39182-.56849-2.08144-.428-.76561.15593-1.495.42594-2.24594.63448-.31126.08643-.62728.159-.94383.22787a.35082.35082,0,0,0-.11924.02388l-.00744.00375q-.22015.04727-.43995.09383l-.1063.02252-.01878.004-.01381.00284q-.08772.01809-.17548.036-.22542.04583-.45132.08925-.38984.07488-.78106.14213-.21771.03734-.43594.0718c-.83738.13328-1.67981.23686-2.52574.29554-.45605.03164-.9131.05013-1.37027.05186q-.31141.00117-.62274-.00848c-.09556-.003-.19107-.00718-.28657-.01163l-.07631-.0045q-.09-.00554-.18-.01215a11.78372,11.78372,0,0,1-2.22187-.36421q-.11861-.03219-.23636-.06746c-.04238-.0127-.08448-.0263-.12685-.039.14128.04246-.007-.00269-.04188-.01437q-.24558-.08225-.48587-.17932a7.53372,7.53372,0,0,1-.88377-.42541q-.09786-.05542-.19392-.11393c-.03226-.01965-.15388-.10628-.02728-.01585-.03837-.02741-.07964-.05139-.11888-.07759q-.19294-.1288-.37671-.2707a6.5894,6.5894,0,0,1-.70368-.62922q-.04212-.04349-.08345-.08775l-.00959-.01036-.00871-.00933-.00107-.00124-.02181-.02357.00947.00928c-.04922-.05582-.09822-.11179-.14582-.169q-.1542-.18534-.29517-.38118a7.538,7.538,0,0,1-.52953-.85128c-.01618-.03022-.032-.06061-.04791-.091l-.01958-.03918q-.05881-.1188-.1139-.23939-.11283-.24677-.21074-.5-.1515-.39074-.27042-.793c.0501.01857.1.03757.15058.0551a12.65467,12.65467,0,0,0,4.66419.56907c.63235-.0256,1.263-.07923,1.89146-.15426a41.35574,41.35574,0,0,0,4.09162-.73255l.15556-.03443a10.08375,10.08375,0,0,0,1.54566,1.7264,7.11334,7.11334,0,0,0,2.65711,1.46933A6.79316,6.79316,0,0,0,139.85746,318.12165Zm-3.29333-1.75181-.02089-.01292C136.48287,316.32,136.55068,316.359,136.56413,316.36984Zm2.39809-3.60168-.00445-.00325Zm-.48662-.31226-.04853-.01463A.1314.1314,0,0,1,138.4756,312.4559Zm-3.01527-.055c.56292.01847,1.12392-.04376,1.686-.0612.13115-.00407.26241-.00583.3936-.00333q.05406.001.10808.00309c.00925.00035.02214.002.03361.00217.05793.00449.11583.00851.17362.01495a2.95255,2.95255,0,0,1,.37065.06374q.0409.00994.08146.02132l.04007.01173.01113.00289c.04892.01939.11769.0505.12776.05512.049.02246.09566.04856.143.07417l.00163.00085.00611.00454c.02525.01849.05068.03656.07512.05615.01195.00958.0899.0846.11976.11111l.019.02378a1.27883,1.27883,0,0,1,.07319.10614l.011.01866a.7.7,0,0,0,.03967.08079,1.88429,1.88429,0,0,1,.07207.21866l.004.0139.00133.00869c.00536.03356.01082.067.01493.10078a2.14466,2.14466,0,0,1,.01509.224c.00068.041-.00079.08193-.00115.12292.00066-.07372-.00049.00137-.00336.0325-.00716.07755-.01787.15476-.03168.2314-.01383.07677-.03091.15293-.05049.22844q-.01353.05211-.02854.10384l-.01459.04887-.00077.002a7.66567,7.66567,0,0,1-.38288.88333c-.2476.48352-.51823.95569-.77294,1.4356-.05451.1027-.11075.20446-.16708.30617-.17946-.063-.35608-.1439-.525-.22288a6.4414,6.4414,0,0,1-.64338-.34711l-.01321-.00818c-.01011-.01532-.05265-.03339-.06728-.043q-.07968-.05241-.15789-.107-.14342-.1001-.28175-.20722a8.31016,8.31016,0,0,1-.99223-.9148l-.00388-.00421-.03431-.03823q-.05638-.06331-.11164-.12761-.10053-.11694-.19743-.23693-.09428-.11663-.18526-.23587c.11177-.02894.22311-.05928.33369-.092.36728-.10881.73054-.23071,1.09784-.33949.20538-.06082.41181-.11834.62-.16873q.06792-.01642.13609-.03178l.05523-.01219c.10212-.01985.20436-.03867.30737-.05342a4.011,4.011,0,0,1,.532-.03639l.03353.00123c.03838.00359.07666.00835.11468.01467.03634.006.07247.01337.10818.02241a.51775.51775,0,0,0,.05148.01426l-.01878-.0029c.02467.01008.0483.02191.07213.03362l-.02266-.01915c.01057.00926.02365.01674.03533.02505l.00228.00107c.02243.01088.03625.02647.02757.02346l.02488.02194.01611.02152a.4277.4277,0,0,0,.7035-.48661c-.50121-.7057-1.51148-.55085-2.23895-.39515-.7511.16076-1.46538.445-2.20828.63357-.54171.1375-1.08887.257-1.63538.3737l-.16725.03543-.01234.0026-.01218.00251-.09937.02051q-.213.04373-.42639.08558c-.184.03606-.36842.06961-.55282.10335-.07219.0132-.14415.02763-.2164.04045-.96159.17072-1.93007.30832-2.90378.387-.43672.03531-.8745.05855-1.3126.066q-.30492.00518-.6099-.00039-.14849-.00282-.29691-.00847-.07041-.0027-.14078-.00609l.00664.00052c-.032-.00252-.06424-.00365-.09632-.00563a11.0642,11.0642,0,0,1-2.15881-.33415q-.12242-.03255-.24388-.06857c-.03575-.01062-.07134-.02174-.107-.03263l-.067-.022q-.23314-.07812-.4612-.17044a7.24216,7.24216,0,0,1-.88093-.42767q-.10278-.05895-.2035-.1214c-.01668-.01034-.033-.02174-.05013-.03138l.01094.00622c-.03024-.01985-.0605-.03964-.09048-.05989q-.19994-.13509-.38992-.28418a6.919,6.919,0,0,1-.72185-.65462c-.028-.02918-.0555-.05874-.08315-.08822l-.00324-.00344-.00153-.00173c-.05882-.06632-.11708-.13305-.17385-.20113q-.16665-.19987-.3196-.41067a8.851,8.851,0,0,1-.56023-.87824q-.06625-.11829-.12925-.23836l-.02729-.05239c-.02218-.0443-.04434-.08859-.066-.13314q-.12447-.25581-.236-.51769c-.12913-.30257-.24554-.61046-.3521-.9217a12.87493,12.87493,0,0,0,4.80727.72282c.69663-.01089,1.3917-.05764,2.08436-.13082a38.245,38.245,0,0,0,4.25154-.72781l.00084.00033a10.0848,10.0848,0,0,0,1.54654,1.72763,7.11336,7.11336,0,0,0,2.65711,1.46934A6.7933,6.7933,0,0,0,135.46033,312.40092Zm-2.85333-1.75181-.02089-.01292C132.52574,310.59925,132.59356,310.63832,132.607,310.64911Zm2.39809-3.60168-.00446-.00325Zm-.4866-.31225-.04855-.01464A.13127.13127,0,0,1,134.51849,306.73518Zm-2.89729-.055c.56292.01846,1.12392-.04376,1.686-.0612.13115-.00407.26241-.00584.3936-.00333q.05406.001.10808.00308c.00925.00035.02212.002.03359.00217.05793.0045.11585.00852.17364.015a2.95465,2.95465,0,0,1,.37065.06373q.04091.01.08146.02133l.04007.01173.01115.0029c.04892.01939.11767.05049.12774.05511.049.02246.09565.04856.143.07417l.00163.00085.00611.00453c.02525.01849.05068.03657.07512.05616.012.00958.0899.0846.11976.11111l.019.02377a1.28142,1.28142,0,0,1,.07319.10615l.011.01866a.69976.69976,0,0,0,.03967.08078,1.88444,1.88444,0,0,1,.07207.21867l.004.01389.00133.0087c.00535.03356.01082.067.01493.10078.00905.07432.01386.14913.18994.224v.12292c-.17534-.07372-.17649.00137-.17936.0325-.00716.07755-.01787.15475-.03168.23139-.01383.07678-.03091.15294-.0505.22844q-.01351.05213-.02853.10385l-.01459.04887-.00077.002a7.66567,7.66567,0,0,1-.38288.88333c-.2476.48351-.51823.95569-.77294,1.4356-.05451.1027-.11075.20446-.16708.30616-.17947-.063-.35608-.1439-.525-.22288a6.43935,6.43935,0,0,1-.64338-.34711l-.01321-.00816c-.01009-.01533-.05266-.0334-.06728-.043q-.07968-.05241-.15789-.107-.14341-.10011-.28175-.20722a8.31025,8.31025,0,0,1-.99223-.91481l-.0039-.00424-.03429-.0382q-.05638-.06331-.11164-.1276-.10053-.11694-.19743-.23693-.09432-.11669-.18534-.236c.11179-.02894.2232-.05917.33377-.09194.36727-.10883.73054-.23071,1.09784-.33948.19722-.0584.39539-.11375.59519-.16268q.07414-.01817.14858-.03506l.06783-.015c.102-.01982.20418-.03862.3071-.05336a3.68951,3.68951,0,0,1,.51675-.0368l-.01082-.00294a.09936.09936,0,0,0,.02125.00259l.00633-.00021c.008,0,.01469.00081.02069-.23591h.01133c.03838.2417.07666.24646.11468.25278.03633.006.07247.01336.10818.02241a.515.515,0,0,0,.05148.01425l-.01877-.00289c.02466.01009.0483.0219.07212.03361l-.02266-.01914c.01057.00926.02365.01674.03533.02505l.00228.00106c.02243.01088.03624.02647.02757.02347l.02488.02193.01611.02153a.4277.4277,0,1,0,.7035-.48662c-.50119-.70566-1.51165-.5508-2.23895-.39514-.75113.16076-1.46536.445-2.20828.63357-.27122.06884-.54463.13008-.81755.19172q-.18916.04273-.37868.084-.10239.0223-.20488.04416l-.102.02164-.04489.00944-.01588.00329q-.71628.14722-1.43707.27066c-.05942.01016-.11859.02169-.17807.03155a28.81188,28.81188,0,0,1-2.98425.348c-.45463.02722-.91016.04093-1.36562.03741q-.31881-.00248-.63737-.01669c-.02586-.00117-.05233-.00407-.07821-.43822h.002c-.05036.43157-.10072.42846-.15105.42509q-.1653-.0111-.33031-.02592a11.30976,11.30976,0,0,1-2.28739-.42953l-.04369-.01351c-.03563-.012-.07157-.02329-.10718-.03532q-.13584-.04591-.27012-.09628-.25388-.09531-.50109-.20726-.23277-.10567-.4581-.22679c-.14759-.07946-.28674-.17838-.43544-.25453.1345.06888.0039.00186-.02912-.02q-.05212-.03458-.10362-.07009-.11135-.07682-.21957-.158-.19952-.1497-.38755-.31393-.19635-.17156-.37891-.35812-.044-.045-.08715-.09074c-.029-.0308-.11509-.1495-.02257-.02341-.04937-.06728-.11278-.12739-.16643-.19147a7.22527,7.22527,0,0,1-.61777-.86113q-.14547-.23716-.27379-.48431l.00758.01568-.01306-.02608-.00352-.007-.01432-.0286q-.02568-.0518-.05066-.10393-.06576-.13727-.12674-.27676a10.04536,10.04536,0,0,1-.41266-1.129q-.094-.31218-.17052-.62931-.03486-.14385-.06639-.28849c-.00334-.0153-.00532-.03567-.00917-.054a.1489.1489,0,0,1-.00765-.02477l-.00005-.00029-.00031-.00087.00023.00049-.00629-.03206a13.55748,13.55748,0,0,0,4.74306,1.21807,20.21558,20.21558,0,0,0,3.16339.00238,25.45347,25.45347,0,0,0,3.15208-.44431q.13128-.02662.26291-.05359a10.114,10.114,0,0,0,1.56425,1.75254,7.1132,7.1132,0,0,0,2.65711,1.46933A6.79279,6.79279,0,0,0,131.6212,306.68019Zm-2.97134-1.75182-.02089-.01291C128.5686,304.87852,128.63641,304.91758,128.64986,304.92837Zm1.8753-3.9401-.02582-.00793A.10085.10085,0,0,1,130.52516,300.98827Zm-4.30967-.59574a6.97534,6.97534,0,0,0,1.83622.18868c.57523-.01376,1.14906-.08058,1.725-.065a.55531.55531,0,0,0,.10358.00435l.0162.0011c.06942.00509.13874.01184.20778.0207a2.76293,2.76293,0,0,1,.37993.07433l.04026.01142.00448.00124.0477.01865a1.73459,1.73459,0,0,1,.17259.07752c.02.01039.03956.02192.05928.033l.01887.01115a1.5932,1.5932,0,0,1,.16093.1309l.01682.01672c.01282.01734.05131.06354.05548.06928q.0332.04565.06221.09409l.00817.01482c-.00657-.0156-.00783-.02339.01336.02312l.00276.00391-.00152-.00124.00015.0003a1.53515,1.53515,0,0,1,.074.1994c.00613.02077.03174.076.02543.0964.0003-.001-.01318-.07687-.00562-.02639.00419.0279.00971.05559.01359.08355a2.11361,2.11361,0,0,1,.01866.22291q.00166.05247.00093.105l-.00125.05283c.00089-.08785-.00021-.00431-.00184.01473a2.88381,2.88381,0,0,1-.08369.4776q-.0135.05212-.02853.10385l-.01494.04974-.00042.00116c-.02907.08009-.05629.16066-.08756.24-.06133.15546-.13.30793-.20288.45826-.1471.30329-.31182.5976-.476.89184q-.29023.52015-.58057,1.04026c-.16647-.0609-.33036-.13518-.48744-.20862a6.4425,6.4425,0,0,1-.64338-.34711l-.01321-.00817c-.0101-.01533-.05265-.0334-.06728-.043q-.07968-.0524-.15789-.107-.1434-.1001-.28174-.20721a8.3104,8.3104,0,0,1-.99224-.91481l-.00387-.00421-.03432-.03823q-.05639-.06332-.11164-.1276-.10053-.117-.19742-.23693-.10206-.12627-.2-.25574c.1122-.02883.22406-.05877.335-.09164.36727-.10883.73054-.23071,1.09784-.33948.19721-.0584.39539-.11376.59518-.16269q.07414-.01815.14859-.035l.06768-.015c.10209-.01984.20428-.03865.30725-.05339a3.688,3.688,0,0,1,.51675-.0368l-.01082-.00294a.09955.09955,0,0,0,.02127.00259l.00631-.00021.02069.00183.01133.00037c.03838.00359.07665.00835.11468.01467.03633.006.07247.01336.10817.0224a.51331.51331,0,0,0,.05149.01426l-.01877-.00289c.02465.01008.0483.0219.07212.03361l-.02267-.01915c.01058.00927.02366.01675.03533.02506l.00229.00106c.02243.01088.03624.02648.02756.02347l.02489.02193.01611.02153a.4277.4277,0,0,0,.7035-.48662c-.50119-.70566-1.51166-.5508-2.239-.39514-.75112.16076-1.46535.445-2.20828.63357-.27147.0689-.54556.129-.81941.18759l-.06507.0138-.06919.01445q-.08628.01771-.17266.0349-.22262.04431-.44591.08506-.62618.11421-1.25731.19858-.19131.02547-.383.04821a21.2355,21.2355,0,0,1-3.07565.14652q-.17838-.00506-.35663-.01361l-.00888-.00031c-.02436-.00044-.04884-.00273-.07317-.00416q-.095-.0056-.18993-.01223-.35953-.02514-.71778-.06569-.67762-.07707-1.34661-.21428-.63822-.1323-1.26086-.326l-.07182-.02346q-.06151-.0203-.12282-.04126-.15828-.05415-.315-.11272-.29727-.11119-.588-.23878a10.569,10.569,0,0,1-.9621-.48309.40046.40046,0,0,0-.1737-.10023c-.05945-.0353-.11886-.07066-.17757-.10719-.02067-.01286-.041-.02635-.06194-.03886l.00965.00579q-.07041-.04554-.14009-.09228-.24084-.1617-.47168-.33769a9.33156,9.33156,0,0,1-.88849-.77058q-.1026-.101-.202-.20525-.04767-.05-.09456-.1007l.00826.00953c-.021-.02422-.04293-.04766-.0642-.07165q-.192-.21663-.37031-.445a9.52619,9.52619,0,0,1-.6755-.98837c-.10651-.17885-.20156-.36319-.30193-.54535.07255.13167-.0115-.02364-.02715-.05545q-.02795-.0568-.0552-.11394-.07134-.14958-.13791-.30137a11.21821,11.21821,0,0,1-.446-1.20266q-.1-.32438-.18174-.654-.03674-.14776-.07-.29638c-.00953-.0426-.0256-.09019-.03224-.13527a.23314.23314,0,0,0-.00334-.03016l-.02185-.11081q-.06526-.33823-.11376-.67937c-.0017-.01182-.00557-.02322-.00814-.03489a.44683.44683,0,0,0-.05147-.15059l.00284-.00715.00213-.00468a1.42062,1.42062,0,0,1,.10809-.13024l.01776-.01753.03628-.03053c.0436-.03406.09387-.0596.13811-.092.01815-.0074.03656-.01412.05526-.02l.03221-.01059.007-.00044c.04457-.00354.08868-.01159.13346-.01437.07893-.00491.15806-.004.23705-.00107l.03969.00171.00487.00028q.07869.00456.1574.00859a2.4447,2.4447,0,0,0,.54345-.01567,3.75887,3.75887,0,0,0,1.059-.38171,9.59028,9.59028,0,0,0,1.038-.60745c-.07193.07785-.14316.15638-.21255.23663a3.95494,3.95494,0,0,0-1.01484,1.90936,2.10888,2.10888,0,0,0,.45451,1.60512,5.96042,5.96042,0,0,0,3.64676,2.24546,9.20148,9.20148,0,0,0,4.00144-.3201c.47032-.12925.93289-.27938,1.38262-.43956l.924.26869a9.3761,9.3761,0,0,0,1.24529,1.28923A7.02758,7.02758,0,0,0,126.21549,300.39253Zm.92212-4.57089-.00905-.04666C127.13654,295.80261,127.14064,295.821,127.13761,295.82164Zm-.35849-.74481-.02665-.02826C126.75483,295.04754,126.76611,295.06052,126.77912,295.07683Zm-5.754-1.05129c.69326.07,1.38877.09315,2.08518.09827.33465.00246.6694.00407,1.00382.0175l.10885.00483.0684.00413q.12327.00789.24633.01885c.16249.01462.32459.03382.48573.05938.15749.025.31393.05648.4684.09611q.06177.01584.12307.03338l.05323.01588c.06742.02223.13446.04572.20058.07159a3.3047,3.3047,0,0,1,.41244.19379c.035.01963.06913.04068.10374.061-.06456-.03784-.00932-.00562.02054.015q.0901.06219.17449.13215c.0555.04614.10892.09481.15967.14615l.0345.03583.00625.0063c.01919.02415.04168.05486.04555.05987a1.91713,1.91713,0,0,1,.12222.178.38274.38274,0,0,0,.04383.07828l.01885.0405c.01067.02422.08966.2427.11777.33993l.00269.01583.00866.047q.00819.04737.01455.095.01508.11257.02058.22618.0049.09888.00331.19795c-.00035.02232-.00127.04462-.00208.06692-.00068.00014-.00511.06974-.00725.09215a3.91128,3.91128,0,0,1-.06859.44182q-.02184.10275-.04863.20438-.01345.0511-.02806.10191c-.005.01735-.02862.09-.02894.09286-.049.14111-.10023.281-.15838.41868a8.60138,8.60138,0,0,1-.438.87925q-.12291.21776-.25388.43083-.06054.099-.12225.19731l-.04128.06557-.01143.01807-.01227.01925-.04186.06533c-.05666.0882-.114.17594-.17119.2638-.0682-.0262-.136-.05332-.20326-.08193a6.36323,6.36323,0,0,1-.70937-.35624c-.05188-.03021-.10313-.0614-.15434-.09272a.27348.27348,0,0,0-.03285-.021l-.05832-.03812q-.15219-.10119-.29892-.21027a8.0246,8.0246,0,0,1-1.05784-.94879l-.05854-.06289c-.03692-.04142-.07389-.08279-.11029-.12468q-.10917-.12559-.21411-.25479c-.07482-.092-.14765-.18564-.21943-.28006.06747-.02108.13474-.0428.20242-.06322.22774-.06872.4567-.13363.68744-.19157q.13959-.03507.28009-.0663l.0391-.00852c.05207-.01022.10413-.02047.15638-.02975a4.6987,4.6987,0,0,1,.46985-.06168c.06508-.00489.13031-.008.19557-.00869.03036-.00031.06068.00042.091.00072h.00123l.00667.0006c.05278.00444.10542.01105.15754.02063.02649.00487.05287.01044.079.01691l.00276.00077-.02077-.00914.0301.01187a.36442.36442,0,0,1,.04683.01882c.01549.006.031.01184.046.0192.01249.00613.02453.013.03664.01979a.94067.94067,0,0,1,.07247.06178c.01021.01325.02052.02638.03016.04013a.4277.4277,0,0,0,.70349-.48662,1.56383,1.56383,0,0,0-1.39987-.56747,5.58179,5.58179,0,0,0-1.05105.15839c-.44866.10044-.8902.232-1.32778.37237-.76931.24684-1.52419.53185-2.29669.7634-.27341.082-.54893.15751-.82822.22188q-.07524.01734-.15066.0338c-.02623.00572-.05252.01165-.07888.0169l-.02054.00394q-.17385.03482-.34869.06433c-.21281.03581-.4267.06536-.64139.08734a9.47809,9.47809,0,0,1-1.12886.03593c-.0168-.0007-.071-.00239-.08943-.00372q-.07151-.00518-.14289-.01195-.14024-.01332-.27975-.03306-.25376-.036-.50358-.09467-.12438-.02938-.24726-.06467c-.0303-.00871-.06044-.01792-.09061-.02709l-.06645-.02244q-.23-.07956-.45163-.18092-.22446-.10276-.43819-.22711c-.03306-.01921-.06583-.03893-.09844-.05887a.25107.25107,0,0,1-.02776-.01681l-.00325-.00222-.03593-.02242.02989.01828c-.069-.04565-.13757-.09178-.20471-.14014a6.06987,6.06987,0,0,1-.77135-.66474c-.05911-.05991-.11554-.12227-.17394-.18281.1087.11268-.00728-.00867-.03152-.03623-.03082-.03507-.06153-.07029-.0915-.10609-.05142-.06143-.1002-.12507-.14545-.19119-.03054-.04464-.05572-.09419-.08316-.14154.00073.00613-.01468-.01092-.02489-.0337l-.00907-.02-.00852-.01294.00736.01037-.01332-.02936q-.01858-.04275-.03489-.08644c-.02321-.06232-.04031-.12563-.05739-.1896l-.00484-.02917q-.00637-.04273-.01042-.08579c-.0059-.06291-.006-.12527-.00593-.18819l.00242-.027q.00445-.04259.011-.08492a1.928,1.928,0,0,1,.0427-.20294l.01262-.04355.01853-.05382c.02516-.06787.05338-.13459.08405-.20014q.04332-.09257.09283-.18206.02513-.04563.05162-.09049c.02058-.03492.10925-.15642.016-.02922.09-.12275.17074-.25142.26437-.37189a13.86341,13.86341,0,0,1,1.31992-1.40044c.23739-.2307.48507-.46138.71146-.70889a3.82619,3.82619,0,0,0,1.98355,1.7248c.02341.01022.04727.0194.0708.02934a9.49213,9.49213,0,0,0,1.44521.46145l.02594.01273a.46283.46283,0,0,0,.1794.03625c.05936.01374.11873.02748.17809.04069A16.74124,16.74124,0,0,0,121.02511,294.02554Zm-4.11941-5.51672-.02363.01314A.061.061,0,0,1,116.9057,288.50882Zm-.71883.38877.03645-.03683c.02384-.02359.051-.04491.07655-.06642.067-.05627.13637-.10966.20844-.15924.06655-.04579.13587-.0851.2053-.12608l.00508-.00305.01515-.00581q.06227-.02835.12642-.05216c.03758-.0139.07558-.02666.114-.038l.04993-.01389.03664-.00906.00826-.00152c.02341-.00342.04662-.00739.07011-.01038q.06255-.008.1256-.01136.04042-.00212.08093-.00222c.0042,0,.02.00076.03355.00115.05807.00745.11611.012.174.02326.0505.00977.09967.02369.14931.03655l.02469.00886q.04942.01842.09775.03966.08494.03727.16607.08262l.02464.01679c-.00419-.00538-.00083-.00634.01863.0071l.02264.01542.00318.001-.0021-.00026.02068.01408a2.336,2.336,0,0,1,.29217.24274c.022.02145.04268.0444.06477.06572l.00881.01q.068.07889.12956.163c.07392.10073.13311.2081.198.314l.015.027q.01809.03788.035.07628.04226.09582.077.19471.03229.0918.05778.18578c.00828.03058.01548.06138.02312.09211-.02354-.04625.001.0049.005.0284a3.10268,3.10268,0,0,1,.03973.41709q.00363.10245.0021.205c-.00051.03653-.00174.073-.0029.10951l-.00005.001-.003.04482a5.28566,5.28566,0,0,1-.12994.82492c-.03063.12962-.06633.25779-.10446.38538l-.00378.01281-.02235.06756q-.02932.08693-.061.173c-.06625.18027-.14.35872-.22163.53323q-.22844-.06-.45439-.12783l-.05106-.01562-.01376-.00437-.018-.006-.06787-.02273q-.11031-.03755-.21941-.07852-.22594-.085-.44537-.18622c-.13847-.06435-.27452-.134-.40691-.21012q-.04515-.026-.08974-.05291l-.03792-.02336c-.06055-.04177-.12182-.08212-.181-.12585a3.24807,3.24807,0,0,1-.34094-.28855c-.01942-.019-.0381-.03872-.05729-.05792l-.0203-.02138q-.07276-.084-.13775-.17432c-.03965-.05532-.07695-.11236-.11128-.17114a.66479.66479,0,0,0-.03975-.07453l-.01475-.03218a1.93811,1.93811,0,0,1-.07228-.191q-.01446-.04534-.02663-.09138l-.01011-.03628-.00175-.012a2.31655,2.31655,0,0,1-.0282-.30374.45025.45025,0,0,0-.00033-.09591c.0002-.01176-.00011-.02345.00028-.03524a.41909.41909,0,0,0-.313-.37932c.1656-.22752.33172-.45477.51091-.67183A5.11645,5.11645,0,0,1,116.18687,288.89759Zm12.3365,35.14112.0213.042A.20125.20125,0,0,1,128.52337,324.03871Zm6.57194,6.339q-.124.12583-.25213.24753c-.03633.03473-.07241.06971-.10925.1039l-.01843.01718-.00022.0002c-.02866.02537-.05729.05074-.08659.07538-.06.05043-.12175.09882-.18552.14438-.06019.043-.12209.08362-.186.121l-.0393.02226c-.03078.01378-.061.02927-.09225.04192-.01046.00423-.11088.03548-.16515.05277.01725-.00112.028.00095-.00654.00438l-.01164.00147-.0165.00564.00309-.00394-.02856.00362c-.00617.00061-.043-.00023-.07179.00043.01782.00376.02908.01056-.00557.00436l-.01947-.00292-.01008.0025.00456-.00333-.02777-.00417-.02843-.00628.00246.00333-.01945-.00708-.007-.00155c-.03685-.00746-.02114-.00638-.002-.00249-.02662-.01227-.0625-.03022-.06411-.03087l-.00193-.00067c-.0216-.01777-.04468-.03368-.06592-.05208-.01814-.01572-.03516-.03252-.0526-.049l-.0059-.00616-.02522-.03069q-.02277-.0284-.04441-.05765c-.05924-.07972-.11373-.16306-.166-.2475q-.07464-.1206-.14168-.24569l-.02394-.04548-.00147-.00323c-.02358-.05134-.04906-.10179-.07232-.1533a5.75262,5.75262,0,0,1-.21212-.54459c-.07023-.2102-.12962-.42395-.1807-.63958q-.01982-.08367-.038-.1677l-.00919-.04381-.0107-.054q-.03135-.1602-.0581-.32127c-.05763-.34435-.10172-.6907-.142-1.03747.0244.00393.04866.00869.07307.01249a19.70435,19.70435,0,0,0,2.506.215c.46876.01242.93768.01218,1.405.002q.46914-.01019.938-.03464A20.98486,20.98486,0,0,1,135.09531,330.3777Zm9.584-5.13247q-.05082.03-.10273.05809l-.03067.01636q-.24534.1191-.49953.21747a11.89891,11.89891,0,0,1-1.31186.41q-.39042.10082-.78489.185l-.08486.01808-.027.00556q-.10695.02193-.2141.04288-.21945.04295-.43961.08206-.96968.17255-1.94985.28119-.931.10434-1.86666.15575c-.65816.03644-1.31754.05318-1.97669.046q-.48339-.00528-.96623-.029l.021.00135-.03343-.00185-.00337-.00013-.01559-.00091-.00782-.00043-.108-.00637q-.11921-.00732-.23834-.016-.23465-.01705-.46884-.03962a14.49023,14.49023,0,0,1-1.72108-.26251c-.25279-.05567-.50378-.1201-.75115-.19642l-.01177-.00366-.08168-.02707q-.08733-.02957-.17388-.06141-.167-.06149-.33026-.13247a4.77091,4.77091,0,0,1-.56407-.29221l-.05007-.03356q-.06528-.04475-.12835-.09258a2.96513,2.96513,0,0,1-.22642-.19148q-.1246-.11616-.24188-.23987c-.01186-.01252-.02515-.02567-.037-.03917l-.00874-.01038q-.05925-.06694-.11623-.13584a5.15507,5.15507,0,0,1-.36767-.50371q-.07251-.11316-.139-.23-.03621-.06363-.07057-.12826l-.00436-.00724-.0095-.019-.0189-.03854a5.228,5.228,0,0,1-.21126-.49959q-.09-.24791-.15552-.50382c-.01881-.07329-.03147-.14891-.0521-.22159.03761.13254-.00012-.00292-.00647-.03685q-.01227-.06556-.023-.1314a6.0933,6.0933,0,0,1-.07794-.87475c-.00224-.12736.00024-.25454.0049-.38181l.00413-.06418q.00564-.07929.01332-.1584c.00634-.065.01439-.13.02289-.19477a14.99263,14.99263,0,0,0,3.47941.27266c.472-.01266.94325-.04158,1.41346-.083a34.73827,34.73827,0,0,0,4.24735-.67364,4.80129,4.80129,0,0,0,.39363.79182,4.20879,4.20879,0,0,0,2.00953,1.73179,12.881,12.881,0,0,0,1.46421.43945c.58286.15588,1.16633.31,1.74429.48343q.11336.034.22638.06908l.08831.02766.05289.017q.21672.07029.43147.14644c.255.09094.508.189.75374.303.10945.05079.2175.10478.32264.164.04306.02426.08458.05111.12744.07562-.14845-.0849.01153.00937.05128.03876a1.64174,1.64174,0,0,1,.14314.12282.51067.51067,0,0,1,.053.06142l.00549.00889-.00089.00193c-.01855.02373-.03686.04745-.05784.06962l-.01248.01228.02956-.024-.03084.02516c-.03107.02893-.0744.0615-.02893.02361-.02938.024-.059.04763-.0902.0697C144.79643,325.17347,144.73841,325.21033,144.67927,325.24523Z" transform="translate(0 2.20947)"/><path d="M144.97163,325.0405l.00128-.00121-.03021.02482Z" transform="translate(0 2.20947)"/><path d="M134.39319,326.73308l.019.001.01244.0005C134.35581,326.73021,134.37135,326.73168,134.39319,326.73308Z" transform="translate(0 2.20947)"/><path d="M133.798,331.13088l.00552.00083.025-.00144A.05178.05178,0,0,0,133.798,331.13088Z" transform="translate(0 2.20947)"/><path d="M133.72483,331.11668l.017.00375a.103.103,0,0,0-.026-.00779Z" transform="translate(0 2.20947)"/><path d="M133.92893,331.12622l.01341-.0017.01818-.00585A.07074.07074,0,0,0,133.92893,331.12622Z" transform="translate(0 2.20947)"/><path class="cls-29" d="M90.40276,265.86767c-7.17181,3.62276-14.17354,8.7253-18.06254,15.75408" transform="translate(0 2.20947)"/><path class="cls-30" d="M31.87505,380.23619c1.60222,3.05591,1.338,7.05449.90946,13.53812-.21667,3.27867-.4232,6.40353-1.49616,6.69534-.91148.24787-2.56949-1.5157-5.81792-9.58043a18.22222,18.22222,0,0,1-7.10124,5.2866c-1.98887.79306-6.28384,2.03671-7.03894.5524-.39763-.78163-.08325-2.84958,6.25271-9.35956a12.80092,12.80092,0,0,1-6.6119,2.6964c-2.36482.212-6.07941-.19728-6.35279-1.6109-.18069-.93441,1.08072-2.62537,7.82654-5.94461a15.36475,15.36475,0,0,1-7.39877.98894c-1.50558-.17566-4.15543-.48486-4.30641-1.43127-.14588-.91438,1.99941-2.6824,12.82466-6.4616C21.66148,373.23145,29.20807,375.14948,31.87505,380.23619Z" transform="translate(0 2.20947)"/><path class="cls-10" d="M55.25442,296.99567A236.00573,236.00573,0,0,1,36.21193,341.008,325.11635,325.11635,0,0,1,14.5015,375.07116c6.13772,4.11151,13.31838,8.92788,19.45611,13.03938,5.88326-5.51657,7.39786-6.99595,13.75293-15.36764,9.279-12.22352,4.63617-5.74131,9.279-12.22352" transform="translate(0 2.20947)"/><path class="cls-30" d="M225.91677,380.23619c-1.60222,3.05591-1.338,7.05449-.90946,13.53812.21666,3.27867.42319,6.40353,1.49615,6.69534.91149.24787,2.56949-1.5157,5.81792-9.58043a18.2223,18.2223,0,0,0,7.10124,5.2866c1.98888.79306,6.28385,2.03671,7.03894.5524.39764-.78163.08325-2.84958-6.2527-9.35956a12.80084,12.80084,0,0,0,6.61189,2.6964c2.36483.212,6.07942-.19728,6.3528-1.6109.18068-.93441-1.08073-2.62537-7.82655-5.94461a15.36475,15.36475,0,0,0,7.39877.98894c1.50559-.17566,4.15543-.48486,4.30642-1.43127.14587-.91438-1.99942-2.6824-12.82467-6.4616C236.13033,373.23145,228.58374,375.14948,225.91677,380.23619Z" transform="translate(0 2.20947)"/><path class="cls-10" d="M202.53739,296.99567A236.00656,236.00656,0,0,0,221.57988,341.008a325.11633,325.11633,0,0,0,21.71044,34.06321c-6.13773,4.11151-13.31839,8.92788-19.45612,13.03938-5.88326-5.51657-7.39786-6.99595-13.75293-15.36764-9.279-12.22352-4.63617-5.74131-9.279-12.22352" transform="translate(0 2.20947)"/><path class="cls-31" d="M80.881,522.50779a228.132,228.132,0,0,0,23.249,1.7334c4.872-.00715,15.087-.237,22.52323-4.45015.05775-6.35273.58254-34.67616.58254-34.67616H90.64467l4.778,20.6136a15.80344,15.80344,0,0,0-8.51727,5.833A45.38075,45.38075,0,0,0,80.881,522.50779Z" transform="translate(0 2.20947)"/><path class="cls-32" d="M88.66238,509.12211a13.4136,13.4136,0,0,1,7.88658-1.05535,13.78637,13.78637,0,0,1,8.68777,5.63748" transform="translate(0 2.20947)"/><path class="cls-32" d="M93.52612,505.56365a13.4136,13.4136,0,0,1,7.88658-1.05535,13.7863,13.7863,0,0,1,8.68777,5.63749" transform="translate(0 2.20947)"/><path class="cls-31" d="M176.33706,522.50779a228.13222,228.13222,0,0,1-23.24905,1.7334c-4.872-.00715-15.087-.237-22.52322-4.45015-.05775-6.35273-.58255-34.67616-.58255-34.67616h36.59111l-4.778,20.6136a15.80344,15.80344,0,0,1,8.51727,5.833A45.381,45.381,0,0,1,176.33706,522.50779Z" transform="translate(0 2.20947)"/><path class="cls-32" d="M168.55565,509.12211a13.41366,13.41366,0,0,0-7.88659-1.05535,13.78641,13.78641,0,0,0-8.68777,5.63748" transform="translate(0 2.20947)"/><path class="cls-32" d="M163.6919,505.56365a13.4136,13.4136,0,0,0-7.88658-1.05535,13.78637,13.78637,0,0,0-8.68777,5.63749" transform="translate(0 2.20947)"/></g></g></svg>