<svg xmlns="http://www.w3.org/2000/svg" xmlns:xlink="http://www.w3.org/1999/xlink" viewBox="0 0 228.29464 496.82476"><defs><style>.cls-1,.cls-10,.cls-11,.cls-20,.cls-30,.cls-35{fill:none;}.cls-2{isolation:isolate;}.cls-3{fill:#a36c6c;opacity:0.2;}.cls-4{fill:#ffe8d9;stroke:#efceb9;}.cls-10,.cls-11,.cls-13,.cls-14,.cls-16,.cls-20,.cls-23,.cls-25,.cls-26,.cls-27,.cls-28,.cls-30,.cls-31,.cls-35,.cls-4,.cls-5,.cls-6,.cls-9{stroke-miterlimit:10;}.cls-16,.cls-20,.cls-30,.cls-4{stroke-width:2.19856px;}.cls-14,.cls-15,.cls-5,.cls-6{fill:#8cc8dd;}.cls-10,.cls-14,.cls-25,.cls-31,.cls-35,.cls-5,.cls-6{stroke:#69a5b5;}.cls-31,.cls-5{stroke-width:1.52115px;}.cls-10,.cls-27,.cls-28,.cls-6{stroke-width:1.46571px;}.cls-23,.cls-25,.cls-7{fill:#fff4f3;}.cls-8{clip-path:url(#clip-path);}.cls-9{fill:#a5daf2;stroke:#8dc5d8;stroke-width:0.84739px;}.cls-11{stroke:#8cc4e0;stroke-width:1.87492px;}.cls-12{clip-path:url(#clip-path-2);}.cls-13,.cls-16,.cls-17{fill:#f9d6bd;}.cls-13,.cls-16,.cls-20,.cls-23{stroke:#eabea0;}.cls-13{stroke-width:1.57247px;}.cls-14{stroke-width:1.63195px;}.cls-18{clip-path:url(#clip-path-3);}.cls-19{fill:#e2ba9f;opacity:0.38;}.cls-21{fill:#352727;}.cls-22{fill:#b78c74;}.cls-23,.cls-25{stroke-width:1.93488px;}.cls-24{fill:#f7baba;}.cls-24,.cls-30{opacity:0.4;}.cls-26,.cls-28{fill:#e1eaf9;}.cls-26,.cls-27,.cls-28{stroke:#8aa6c1;}.cls-26{stroke-width:1.44724px;}.cls-27{fill:#d4e2fc;}.cls-29{fill:#fff;}.cls-30{stroke:#b9effc;stroke-linecap:round;}.cls-31{fill:#a5dfef;}.cls-32{fill:#92cfdd;}.cls-33{clip-path:url(#clip-path-4);}.cls-34{fill:#595959;mix-blend-mode:overlay;}.cls-35{stroke-width:1.98965px;}</style><clipPath id="clip-path"><path class="cls-1" d="M138.622,466.91722l-3.166,11.11125c3.06053,1.82225,6.57811,3.29131,10.09728,7.51718a39.63916,39.63916,0,0,1,3.23852,4.49491,143.3981,143.3981,0,0,1-16.474,1.02009c-3.8094-.0056-11.79651-.18529-17.61089-3.47957-.04516-4.9672-.286-20.74906-.286-20.74906Z"/></clipPath><clipPath id="clip-path-2"><path class="cls-1" d="M88.66441,466.91722l3.166,11.11125c-3.06053,1.82225-6.57811,3.29131-10.09728,7.51718a39.63916,39.63916,0,0,0-3.23852,4.49491,143.3981,143.3981,0,0,0,16.474,1.02009c3.8094-.0056,11.79651-.18529,17.6109-3.47957.04515-4.9672.286-20.74906.286-20.74906Z"/></clipPath><clipPath id="clip-path-3"><path class="cls-1" d="M192.82571,140.30586c0,42.35492-34.33545,62.03327-76.69037,62.03327S39.445,182.66078,39.445,140.30586s34.33545-91.34747,76.69038-91.34747S192.82571,97.95094,192.82571,140.30586Z"/></clipPath><clipPath id="clip-path-4"><path class="cls-1" d="M162.58519,45.84235A663.222,663.222,0,0,1,33.88771,89.64352L21.56137,53.426c-2.32261-6.82434,1.76231-14.38764,9.12393-16.8931L132.724,1.80485c7.36161-2.50546,15.21223.99567,17.53483,7.82Z"/></clipPath></defs><g class="cls-2"><g id="Layer_2" data-name="Layer 2"><g id="instruction_character" data-name="instruction character"><ellipse class="cls-3" cx="114.14732" cy="488.16219" rx="81.60036" ry="8.66258"/><path class="cls-4" d="M39.13618,123.86274c-1.76-7.65655-8.73307-24.55125-5.03347-41.60939,3.03843-14.00962,14.99661-38.67838,40.676-47.73949,14.93113-5.26852,26.6307-.65459,38.44509-11.09,1.77253-1.56566,3.55554-6.873,8.84333-12.0846,4.93661-4.86547,7.72492-5.3562,8.86945-5.47491A11.98659,11.98659,0,0,1,141.89625,11.261c3.24935,5.209,1.60741,13.37085-4.87006,18.41549,7.19892,2.05645,17.33985,3.58919,25.90727-1.3891,6.10261-3.546,7.40409-8.06973,12.1922-8.3542,7.39608-.43943,17.36438,9.57735,16.8992,20.8448-.38186,9.24907-7.722,17.59922-17.99645,19.7834,3.48888,2.64519,8.66834,5.62649,14.93779,5.55646,7.94635-.08875,11.52008-5.01107,16.5112-3.37006,5.74771,1.88975,8.32948,10.8246,8.633,16.13947.73931,12.945-10.79222,26.20544-28.40833,34.62337C135.80168,114.10061,89.0366,123.27275,39.13618,123.86274Z"/><path class="cls-5" d="M178.48836,263.3437,137.29244,467.66775H115.65855V353.18847h-4.038V467.66775H89.994L48.798,263.3437A45.108,45.108,0,0,1,93.83,215.617h39.62637A45.10806,45.10806,0,0,1,178.48836,263.3437Z"/><polyline class="cls-6" points="94.708 217.947 94.708 189.892 134.594 189.892 134.594 217.947"/><path class="cls-7" d="M138.622,466.91722l-3.166,11.11125c3.06053,1.82225,6.57811,3.29131,10.09728,7.51718a39.63916,39.63916,0,0,1,3.23852,4.49491,143.3981,143.3981,0,0,1-16.474,1.02009c-3.8094-.0056-11.79651-.18529-17.61089-3.47957-.04516-4.9672-.286-20.74906-.286-20.74906Z"/><g class="cls-8"><path class="cls-9" d="M108.84867,480.90762a19.78825,19.78825,0,0,1,9.56663,1.69729,20.52513,20.52513,0,0,1,10.0295,10.33814L114.86641,491.4Q111.85752,486.15382,108.84867,480.90762Z"/></g><path class="cls-10" d="M138.622,466.91722l-3.166,11.11125c3.06053,1.82225,6.57811,3.29131,10.09728,7.51718a39.63916,39.63916,0,0,1,3.23852,4.49491,143.3981,143.3981,0,0,1-16.474,1.02009c-3.8094-.0056-11.79651-.18529-17.61089-3.47957-.04516-4.9672-.286-20.74906-.286-20.74906Z"/><path class="cls-11" d="M140.78045,480.346a10.48818,10.48818,0,0,0-6.16652-.82518,10.77951,10.77951,0,0,0-6.793,4.408"/><path class="cls-11" d="M136.97749,477.56362a10.48806,10.48806,0,0,0-6.16652-.82519,10.77961,10.77961,0,0,0-6.793,4.408"/><path class="cls-7" d="M88.66441,466.91722l3.166,11.11125c-3.06053,1.82225-6.57811,3.29131-10.09728,7.51718a39.63916,39.63916,0,0,0-3.23852,4.49491,143.3981,143.3981,0,0,0,16.474,1.02009c3.8094-.0056,11.79651-.18529,17.6109-3.47957.04515-4.9672.286-20.74906.286-20.74906Z"/><g class="cls-12"><path class="cls-9" d="M118.43772,480.90762a19.78825,19.78825,0,0,0-9.56663,1.69729,20.52513,20.52513,0,0,0-10.0295,10.33814L112.42,491.4Q115.42888,486.15382,118.43772,480.90762Z"/></g><path class="cls-10" d="M88.66441,466.91722l3.166,11.11125c-3.06053,1.82225-6.57811,3.29131-10.09728,7.51718a39.63916,39.63916,0,0,0-3.23852,4.49491,143.3981,143.3981,0,0,0,16.474,1.02009c3.8094-.0056,11.79651-.18529,17.6109-3.47957.04515-4.9672.286-20.74906.286-20.74906Z"/><path class="cls-11" d="M86.50594,480.346a10.48818,10.48818,0,0,1,6.16652-.82518,10.77951,10.77951,0,0,1,6.793,4.408"/><path class="cls-11" d="M90.3089,477.56362a10.48807,10.48807,0,0,1,6.16652-.82519,10.77955,10.77955,0,0,1,6.793,4.408"/><path class="cls-13" d="M33.4877,342.04373c1.59652,2.7896,1.21023,6.40267.58387,12.26119-.31673,2.96257-.61861,5.78616-1.75162,6.0333-.96249.20992-2.6528-1.41147-5.83864-8.758a19.46776,19.46776,0,0,1-7.59026,4.67094c-2.10706.68621-6.64444,1.74384-7.39564.38924-.39559-.71332-.00947-2.57911,6.81177-8.36876a14.80829,14.80829,0,0,1-7.00642,2.33547c-2.48539.15463-6.36909-.27387-6.61713-1.557-.16393-.84813,1.20488-2.358,8.36874-5.25481a18.555,18.555,0,0,1-7.78486.7785C3.69365,344.39129.92364,344.07.79118,343.21148c-.128-.82947,2.16971-2.39519,13.62355-5.64406C22.96974,335.54677,30.8302,337.4003,33.4877,342.04373Z"/><path class="cls-14" d="M82.47,233.55143s-26.44839-8.25277-32.53511,15.40771c-5.86307,22.79111-18.78131,72.07264-29.287,87.42716l13.94029,8.88946c21.61754-25.45618,45.45745-85.86408,45.45745-85.86408S92.97567,238.40023,82.47,233.55143Z"/><path class="cls-15" d="M63.20438,321.16327l27.993-7.37777-5.30714-44.0221,5.30714-41.49153-12.317-8.38194c-14.00751,2.4523-28.80878,20.9495-27.709,35.12746l2.44447,38.503Z"/><path class="cls-13" d="M194.80694,342.04373c-1.59652,2.7896-1.21023,6.40267-.58387,12.26119.31673,2.96257.61861,5.78616,1.75162,6.0333.96249.20992,2.6528-1.41147,5.83864-8.758a19.46768,19.46768,0,0,0,7.59026,4.67094c2.10706.68621,6.64444,1.74384,7.39564.38924.39559-.71332.00947-2.57911-6.81177-8.36876a14.80829,14.80829,0,0,0,7.00642,2.33547c2.48539.15463,6.36909-.27387,6.61713-1.557.16393-.84813-1.20488-2.358-8.36874-5.25481a18.555,18.555,0,0,0,7.78486.7785c1.57386-.18254,4.34387-.50383,4.47633-1.36235.128-.82947-2.16971-2.39519-13.62355-5.64406C205.3249,335.54677,197.46444,337.4003,194.80694,342.04373Z"/><path class="cls-14" d="M145.09184,233.55143s26.44838-8.25277,32.5351,15.40771c5.86308,22.79111,18.78131,72.07264,29.287,87.42716l-13.94029,8.88946c-21.61755-25.45618-45.45746-85.86408-45.45746-85.86408S134.58611,238.40023,145.09184,233.55143Z"/><path class="cls-15" d="M164.35741,321.16327l-27.993-7.37777,5.30715-44.0221-5.30715-41.49153,12.317-8.38194c14.00751,2.4523,28.80878,20.9495,27.709,35.12746l-2.44448,38.503Z"/><path class="cls-16" d="M47.6627,139.34467a18.90116,18.90116,0,0,0-12.8686,4.4455c-1.29668,1.1461-4.02373,3.55643-4.67949,7.25322-1.29121,7.27909,5.8961,17.02119,12.8686,15.91026,4.09812-.653,7.51391-4.95823,8.891-10.29486Z"/><path class="cls-16" d="M50.70437,155.48891c-1.92488-3.80845-5.59876-6.03027-9.125-5.6154a8.3097,8.3097,0,0,0-4.91347,2.57372"/><path class="cls-16" d="M185.02439,139.34467a18.90117,18.90117,0,0,1,12.86861,4.4455c1.29668,1.1461,4.02373,3.55643,4.67949,7.25322,1.29121,7.27909-5.8961,17.02119-12.86861,15.91026-4.09811-.653-7.5139-4.95823-8.891-10.29486Z"/><path class="cls-16" d="M181.98273,155.48891c1.92488-3.80845,5.59876-6.03027,9.125-5.6154a8.3097,8.3097,0,0,1,4.91347,2.57372"/><path class="cls-17" d="M192.82571,140.30586c0,42.35492-34.33545,62.03327-76.69037,62.03327S39.445,182.66078,39.445,140.30586s34.33545-91.34747,76.69038-91.34747S192.82571,97.95094,192.82571,140.30586Z"/><g class="cls-18"><path class="cls-19" d="M113.93725,43.59078C62.27876,64.08217,36.45378,122.9912,50.70437,161.58618c14.62132,39.599,65.61779,42.729,68.21857,43.20958-4.9101,2.3455-35.469,16.35357-66.06081,2.07739-33.40152-15.58737-44.89926-54.653-41.54764-82.26441C16.42747,82.487,58.66253,45.89846,113.93725,43.59078Z"/></g><path class="cls-20" d="M192.82571,140.30586c0,42.35492-34.33545,62.03327-76.69037,62.03327S39.445,182.66078,39.445,140.30586s34.33545-91.34747,76.69038-91.34747S192.82571,97.95094,192.82571,140.30586Z"/><path class="cls-4" d="M106.43736,62.04155A52.70636,52.70636,0,0,0,128.278,76.40329c3.238,1.08662,24.18111,8.115,33.49091-2.303,5.19038-5.80823,5.92081-16.09471,2.15158-19.04692-3.9117-3.06384-10.638,3.3628-16.62607.27284a10.01884,10.01884,0,0,1-4.39053-5.08164"/><path class="cls-7" d="M101.48415,124.72745c3.05961,12.028-5.43913,24.57141-18.98248,28.01649s-23.573-4.3852-26.6326-16.41321,2.00943-23.699,15.55277-27.144S98.42454,112.69944,101.48415,124.72745Z"/><circle class="cls-21" cx="82.36967" cy="127.45127" r="11.67565"/><polygon class="cls-7" points="78.74 127.714 60.542 132.292 69.648 137.567 78.74 127.714"/><path class="cls-22" d="M55.869,136.33074c3.20517,11.35058,13.73115,17.82521,25.25842,16.09345a27.30285,27.30285,0,0,0,10.385-3.75342,21.90694,21.90694,0,0,1-10.15674,5.08093c-11.97539,2.66192-24.18509-4.92848-25.48669-17.421Z"/><path class="cls-22" d="M55.01356,129.36c-1.86351-21.12764,26.20309-29.1887,40.2922-16.37711a20.85344,20.85344,0,0,1,6.79386,16.19361,23.10821,23.10821,0,0,0-8.27429-14.44986C80.151,104.27167,56.482,110.68,55.01356,129.36Z"/><path class="cls-7" d="M130.78652,124.72745c-3.05961,12.028,5.43913,24.57141,18.98248,28.01649s23.573-4.3852,26.6326-16.41321-2.00943-23.699-15.55277-27.144S133.84613,112.69944,130.78652,124.72745Z"/><circle class="cls-21" cx="149.69579" cy="127.45127" r="11.67565"/><polygon class="cls-7" points="146.066 127.714 132.517 131.123 136.974 137.567 146.066 127.714"/><path class="cls-22" d="M176.40162,136.33074c-1.30494,12.49849-13.51193,20.08085-25.4868,17.42077a21.90554,21.90554,0,0,1-10.15663-5.08074,27.30652,27.30652,0,0,0,10.38513,3.75363c11.52749,1.7333,22.05656-4.74809,25.2583-16.09366Z"/><path class="cls-22" d="M177.25709,129.36c-1.471-18.68485-25.13944-25.08583-38.81189-14.63322a23.10786,23.10786,0,0,0-8.27417,14.44972,20.854,20.854,0,0,1,6.79382-16.19376c14.09333-12.81478,42.15809-4.744,40.29224,16.37726Z"/><path class="cls-23" d="M144.01187,158.87606c-7.62364-6.62921-18.70684,2.67067-27.8765,2.67067s-20.25294-9.29988-27.87658-2.67067c-7.62364,6.62928,3.54781,25.14884,27.87658,25.14884S151.63551,165.50534,144.01187,158.87606Z"/><ellipse class="cls-24" cx="66.97215" cy="164.46947" rx="6.63152" ry="10.95528" transform="translate(-99.68551 225.79403) rotate(-88.04576)"/><ellipse class="cls-24" cx="165.29852" cy="164.92547" rx="6.63152" ry="10.95528" transform="translate(-5.16793 324.50366) rotate(-88.04576)"/><path class="cls-22" d="M64.14881,102.14993c4.2848-11.85081,19.73737-17.36228,30.3377-10.19868a20.74183,20.74183,0,0,1,7.67842,8.95225,30.198,30.198,0,0,0-8.82178-6.97116c-10.26443-5.34691-22.50319-.75709-29.19434,8.21759Z"/><path class="cls-22" d="M130.10572,102.14993c4.28478-11.85081,19.73744-17.36229,30.3377-10.19868a20.74174,20.74174,0,0,1,7.67841,8.95225,30.198,30.198,0,0,0-8.82177-6.97116c-10.26445-5.34692-22.5032-.75707-29.19434,8.21759Z"/><path class="cls-25" d="M145.90468,273.64518a27.41922,27.41922,0,0,1-54.83843,0c.10127-14.357,12.42141-26.29112,27.41926-27.41921C133.58606,245.09017,145.90468,258.502,145.90468,273.64518Z"/><polyline class="cls-26" points="123.686 264.539 123.686 290.817 106.955 290.817 106.955 264.539"/><polyline class="cls-27" points="123.686 263.864 107.417 263.864 110.322 258.435 126.01 258.435"/><path class="cls-28" d="M126.74583,258.26023l-16.42357.17479-.02646-1.87438a1.9204,1.9204,0,0,1,1.92021-1.9475h12.60942a1.9204,1.9204,0,0,1,1.9204,1.9204Z"/><polygon class="cls-27" points="130.015 263.322 130.015 290.817 123.868 290.817 123.686 263.864 126.603 258.644 130.015 263.322"/><path class="cls-29" d="M109.95184,274.2812l.1352-5.25013.01946-.75577a.73878.73878,0,0,0-1.47666,0l-.1352,5.25014-.01946.75576a.73878.73878,0,0,0,1.47666,0Z"/><circle class="cls-29" cx="109.33855" cy="266.28659" r="0.77304"/><path class="cls-30" d="M80.18681,224.28079c-7.1718,3.62276-14.17354,8.72529-18.06253,15.75407"/><path class="cls-31" d="M162.58519,45.84235A663.222,663.222,0,0,1,33.88771,89.64352L21.56137,53.426c-2.32261-6.82434,1.76231-14.38764,9.12393-16.8931L132.724,1.80485c7.36161-2.50546,15.21223.99567,17.53483,7.82Z"/><path class="cls-32" d="M48.60643,82.73234a3.17382,3.17382,0,0,1-4.08138-1.82017L34.30144,50.873a3.2867,3.2867,0,0,1,6.20505-2.11184L50.7301,78.80033A3.17383,3.17383,0,0,1,48.60643,82.73234Z"/><path class="cls-32" d="M64.82129,77.21374a3.17382,3.17382,0,0,1-4.08138-1.82017L50.5163,45.35436a3.28671,3.28671,0,0,1,6.20506-2.11184L66.945,73.28173A3.17383,3.17383,0,0,1,64.82129,77.21374Z"/><path class="cls-32" d="M81.03616,71.69514A3.17383,3.17383,0,0,1,76.95477,69.875L66.73116,39.83576a3.28671,3.28671,0,0,1,6.20506-2.11184L83.15983,67.76313A3.17383,3.17383,0,0,1,81.03616,71.69514Z"/><path class="cls-32" d="M97.251,66.17654a3.17383,3.17383,0,0,1-4.08139-1.82017L82.946,34.31716a3.28671,3.28671,0,0,1,6.20506-2.11184L99.37469,62.24453A3.17383,3.17383,0,0,1,97.251,66.17654Z"/><path class="cls-32" d="M113.46588,60.65794a3.17383,3.17383,0,0,1-4.08139-1.82017L99.16088,28.79856a3.28671,3.28671,0,0,1,6.20506-2.11184l10.22361,30.03921A3.17383,3.17383,0,0,1,113.46588,60.65794Z"/><path class="cls-32" d="M129.68074,55.13934a3.17383,3.17383,0,0,1-4.08139-1.82017L115.37574,23.28a3.28671,3.28671,0,0,1,6.20506-2.11184l10.22361,30.03921A3.17383,3.17383,0,0,1,129.68074,55.13934Z"/><path class="cls-32" d="M146.70635,49.34481a3.17383,3.17383,0,0,1-4.08139-1.82017L132.40135,17.48543a3.28671,3.28671,0,0,1,6.20506-2.11184L148.83,45.4128A3.17384,3.17384,0,0,1,146.70635,49.34481Z"/><g class="cls-33"><path class="cls-34" d="M51.14761,62.60453c5.447,15.23239,5.21469,12.54828,8.36363,21.80481q-18.55413,4.25451-37.10823,8.509C-13.95564,56.40555,29.9677-.57451,80.46133,17.37332L62.65864,27.86979C53.05721,35.29473,47.52426,51.85056,51.14761,62.60453Z"/></g><path class="cls-35" d="M162.58519,45.84235A663.222,663.222,0,0,1,33.88771,89.64352L21.56137,53.426c-2.32261-6.82434,1.76231-14.38764,9.12393-16.8931L132.724,1.80485c7.36161-2.50546,15.21223.99567,17.53483,7.82Z"/></g></g></g></svg>