<svg xmlns="http://www.w3.org/2000/svg" xmlns:xlink="http://www.w3.org/1999/xlink" viewBox="0 0 351.7638 727.79804"><defs><style>.cls-1,.cls-17,.cls-18,.cls-29,.cls-31,.cls-7{fill:none;}.cls-2{fill:#a36c6c;opacity:0.2;}.cls-23,.cls-3{fill:#e5b28f;}.cls-3{stroke:#ce9976;stroke-width:4px;}.cls-10,.cls-11,.cls-17,.cls-18,.cls-25,.cls-29,.cls-3,.cls-30,.cls-31,.cls-7,.cls-9{stroke-miterlimit:10;}.cls-4{fill:#ffda9f;}.cls-5{clip-path:url(#clip-path);}.cls-6{fill:#f4c887;}.cls-7{stroke:#d8aa68;}.cls-25,.cls-30,.cls-7{stroke-width:2px;}.cls-8{fill:#d8aa68;}.cls-14,.cls-30,.cls-9{fill:#e59883;}.cls-17,.cls-30,.cls-9{stroke:#d17d6f;}.cls-17,.cls-18,.cls-29,.cls-9{stroke-width:3px;}.cls-10,.cls-11{fill:#ffdc8d;stroke:#efbb7b;}.cls-10{stroke-width:2.03885px;}.cls-11{stroke-width:1.9459px;}.cls-12,.cls-22,.cls-29{opacity:0.4;}.cls-13{fill:#b2746f;}.cls-15{clip-path:url(#clip-path-2);}.cls-16{fill:#c67e6d;opacity:0.42;}.cls-18{stroke:#8e5552;}.cls-19{fill:#fff4f3;}.cls-20{fill:#352727;}.cls-21{fill:#8e5552;}.cls-22{fill:#e07e7e;}.cls-24{fill:#ce9976;}.cls-25{fill:#ffe8d9;stroke:#e0aa6e;}.cls-26{fill:#606060;}.cls-27{fill:#ffce76;}.cls-28{fill:#efc592;}.cls-29{stroke:#fff0e3;stroke-linecap:round;}.cls-31{stroke:#ce9965;stroke-width:3.272px;}</style><clipPath id="clip-path" transform="translate(0 3.01488)"><path class="cls-1" d="M317.31644,167.46563q-9.05922,2.95657-18.114,5.90426.45513,8.03436.906,16.07774-8.71816,1.5591-17.42775,3.10018-2.54064,7.10907-5.09506,14.20063c-24.74717-7.17206-42.47557-24.40549-44.72081-44.14939a41.53848,41.53848,0,0,1,3.27484-21.00865,14.2531,14.2531,0,0,0-1.80738-11.49673A13.77875,13.77875,0,0,0,227.335,124.855a13.7888,13.7888,0,0,0-8.50115-2.034,14.3302,14.3302,0,0,0-9.99761,5.9572A41.5548,41.5548,0,0,1,194.7795,144.7274c-16.62079,10.891-41.20547,8.26888-62.53723-6.18171q3.8307-6.50372,7.65709-12.9984-4.37873-7.68825-8.7441-15.38137,6.47034-4.78458,12.94492-9.57816-3.51535-8.85723-7.03488-17.70543,6.9034-3.02383,13.79772-6.05187-2.19858-9.333-4.39232-18.65254,7.4843-2.60208,14.95524-5.19937-1.23024-8.71293-2.45621-17.43483,7.83365-.69828,15.68061-1.40151-.96591-8.60535-1.94929-17.19687,7.95012.74814,15.89611,1.50533,3.39642-8.57974,6.79289-17.1596a70.6044,70.6044,0,0,1,27.62389,19.2148c6.5708,7.51286,16.07479,18.37951,15.76766,32.45191-.22813,10.42-5.71042,16.61815-1.91933,24.7819a19.925,19.925,0,0,0,8.51852,8.65883A19.95206,19.95206,0,0,0,257.49367,87.421c8.70193-2.30137,9.96552-10.47916,17.83418-17.31382,10.62745-9.22957,25.05918-8.86432,35.03694-8.61173a70.60417,70.60417,0,0,1,32.43262,8.96687q-4.42833,8.09562-8.85686,16.19108,5.65622,5.63678,11.30767,11.2601-7.22969,4.74309-14.47263,9.49086,4.48279,6.4779,8.95218,12.96051-7.494,4.63563-14.98862,9.24879,2.78169,7.41942,5.56764,14.82978-8.58331,4.27344-17.15348,8.54212Q315.22568,160.22133,317.31644,167.46563Z"/></clipPath><clipPath id="clip-path-2" transform="translate(0 3.01488)"><path class="cls-1" d="M277.41737,235.77c0,56.93116-46.15183,92.67427-103.083,92.67427S71.25139,292.70112,71.25139,235.77s46.15183-113.49171,103.083-113.49171S277.41737,178.83879,277.41737,235.77Z"/></clipPath></defs><g id="Layer_2" data-name="Layer 2"><g id="hero_3-success"><ellipse class="cls-2" cx="169.03798" cy="715.97772" rx="134.13489" ry="11.82032"/><path class="cls-3" d="M245.54051,144.66047c16.65127,24.36191,29.82662,53.18021,33.08166,82.50312,3.21281,28.94241-1.26293,58.58652-4.15887,87.36513-3.858,38.33876-7.73091,76.79577-8.73655,115.33765-.62213,23.8437-.24975,48.216,5.1191,71.57214,5.5841,24.29253,18.06,45.87772,35.099,63.99654,6.62708,7.04708,17.21921-3.5749,10.60661-10.6066a133.07,133.07,0,0,1-21.70717-30.49714,88.05552,88.05552,0,0,1-4.55658-10.23195,126.35081,126.35081,0,0,1-3.94722-12.45848c-5.71536-21.8018-6.14448-44.48067-5.71376-67.3517.7096-37.67943,4.39828-75.30252,8.13643-112.77764,2.97465-29.821,7.79935-60.45341,5.23782-90.48129-2.87593-33.71368-16.53263-66.17781-35.50836-93.94056-5.41459-7.92191-18.41856-.42706-12.95206,7.57078Z" transform="translate(0 3.01488)"/><path class="cls-3" d="M246.71392,134.91464c21.47712,24.682,38.145,54.444,44.61381,86.73144.42557,2.1241.797,4.25983,1.10047,6.40486-.19947-1.40965.13125,1.10728.18286,1.57554q.19957,1.81039.34207,3.62653c.394,4.98526.4734,9.99.39229,14.98858-.2195,13.52779-1.42158,27.04095-2.502,40.52005-3.19673,39.88164-6.71049,79.81119-7.75382,119.82264-.6195,23.7578-.63194,48.14908,4.68811,71.44805,6.08247,26.638,21.20437,50.629,40.27766,69.91907,6.79738,6.87466,17.40363-3.7323,10.6066-10.6066a149.11007,149.11007,0,0,1-27.57651-38.19128c-.86423-1.73186-1.67847-3.48589-2.47087-5.25155-.17611-.39242-.34612-.78832-.51519-1.1839.56783,1.32856.11558.26976.00617.00113q-.67553-1.65858-1.30356-3.33556a118.40549,118.40549,0,0,1-3.72506-11.89487c-5.45667-21.218-5.54157-43.80324-5.08916-66.49074.79307-39.77041,4.2445-79.48384,7.44335-119.11505,1.939-24.02295,5.06-48.68938,1.01918-72.66007-6.08661-36.10654-25.34359-69.57927-49.1298-96.91487-6.34825-7.29554-16.92016,3.35093-10.6066,10.6066Z" transform="translate(0 3.01488)"/><path class="cls-3" d="M230.45276,128.03969c11.726,30.93392,19.46787,64.19079,19.248,97.40648-.21308,32.19673-6.50579,64.32459-9.80109,96.28356-3.82023,37.04985-6.51349,74.45667-5.22321,111.72426.63,18.19748,2.09861,36.704,6.50517,54.42644,6.71731,27.01581,20.33321,52.73987,36.50734,75.221,2.38326,3.31259,6.503,4.82949,10.26142,2.69064,3.26828-1.85993,5.04908-6.98333,2.69064-10.26143-14.91891-20.73642-27.51568-44.039-34.25435-68.78989-4.43154-16.27686-5.61186-30.00877-6.44862-47.02131-1.743-35.43849.492-71.07084,3.8133-106.3501,3.1492-33.45061,9.43278-66.85941,10.773-100.45106,1.47485-36.966-6.55382-74.42982-19.60747-108.86615-3.38878-8.93981-17.89518-5.06359-14.46419,3.98759Z" transform="translate(0 3.01488)"/><path class="cls-3" d="M229.59506,138.31072c16.65126,24.3619,29.82662,53.1802,33.08166,82.50312,3.21281,28.94241-1.26293,58.58651-4.15887,87.36513-3.858,38.33875-7.73091,76.79577-8.73655,115.33764-.62213,23.84371-.24975,48.216,5.1191,71.57215,5.5841,24.29252,18.06,45.87771,35.099,63.99653,6.62707,7.04709,17.21921-3.57489,10.60661-10.6066a133.07,133.07,0,0,1-21.70717-30.49714,88.05552,88.05552,0,0,1-4.55658-10.23195,126.35062,126.35062,0,0,1-3.94722-12.45847c-5.71536-21.8018-6.14448-44.48067-5.71376-67.35171.7096-37.67943,4.39828-75.30251,8.13643-112.77764,2.97465-29.821,7.79934-60.45341,5.23782-90.48128-2.87593-33.71369-16.53263-66.17782-35.50836-93.94057-5.41459-7.9219-18.41856-.42706-12.95206,7.57079Z" transform="translate(0 3.01488)"/><path class="cls-3" d="M230.76847,128.56489c21.47712,24.682,38.145,54.444,44.61381,86.73143.42557,2.1241.79694,4.25983,1.10047,6.40486-.19947-1.40965.13125,1.10729.18286,1.57554q.19957,1.81039.34207,3.62654c.394,4.98526.4734,9.99.39229,14.98857-.2195,13.5278-1.42158,27.041-2.502,40.52005-3.19673,39.88164-6.7105,79.8112-7.75382,119.82265-.6195,23.7578-.63194,48.14908,4.68811,71.448,6.08247,26.638,21.20437,50.62895,40.27766,69.91907,6.79738,6.87466,17.40363-3.7323,10.6066-10.6066A149.11,149.11,0,0,1,295.14,494.80377c-.86423-1.73187-1.67847-3.48589-2.47087-5.25155-.17611-.39242-.34612-.78833-.51519-1.18391.56783,1.32857.11557.26977.00617.00114q-.67552-1.65858-1.30356-3.33556A118.40549,118.40549,0,0,1,287.1315,473.139c-5.45667-21.218-5.54157-43.80325-5.08916-66.49075.79307-39.7704,4.2445-79.48383,7.44335-119.11505,1.939-24.02295,5.06-48.68937,1.01918-72.66006-6.08661-36.10654-25.34359-69.57927-49.1298-96.91487-6.34825-7.29555-16.92016,3.35092-10.6066,10.6066Z" transform="translate(0 3.01488)"/><path class="cls-3" d="M214.50731,121.68993c11.726,30.93392,19.46786,64.19079,19.24805,97.40648-.21308,32.19673-6.50579,64.3246-9.80109,96.28356-3.82023,37.04985-6.51349,74.45667-5.22321,111.72426.63,18.19748,2.09861,36.704,6.50517,54.42645,6.7173,27.0158,20.33321,52.73986,36.50734,75.221,2.38326,3.31259,6.503,4.82949,10.26142,2.69064,3.26828-1.85993,5.04908-6.98333,2.69064-10.26142-14.91892-20.73643-27.51568-44.039-34.25436-68.78989-4.43153-16.27686-5.61185-30.00878-6.44861-47.02132-1.74305-35.43849.492-71.07083,3.8133-106.35009,3.1492-33.45061,9.43278-66.85942,10.773-100.45107,1.47485-36.966-6.55382-74.42982-19.60747-108.86615-3.38878-8.9398-17.89518-5.06358-14.46419,3.98759Z" transform="translate(0 3.01488)"/><path class="cls-4" d="M317.31644,167.46563q-9.05922,2.95657-18.114,5.90426.45513,8.03436.906,16.07774-8.71816,1.5591-17.42775,3.10018-2.54064,7.10907-5.09506,14.20063c-24.74717-7.17206-42.47557-24.40549-44.72081-44.14939a41.53848,41.53848,0,0,1,3.27484-21.00865,14.2531,14.2531,0,0,0-1.80738-11.49673A13.77875,13.77875,0,0,0,227.335,124.855a13.7888,13.7888,0,0,0-8.50115-2.034,14.3302,14.3302,0,0,0-9.99761,5.9572A41.5548,41.5548,0,0,1,194.7795,144.7274c-16.62079,10.891-41.20547,8.26888-62.53723-6.18171q3.8307-6.50372,7.65709-12.9984-4.37873-7.68825-8.7441-15.38137,6.47034-4.78458,12.94492-9.57816-3.51535-8.85723-7.03488-17.70543,6.9034-3.02383,13.79772-6.05187-2.19858-9.333-4.39232-18.65254,7.4843-2.60208,14.95524-5.19937-1.23024-8.71293-2.45621-17.43483,7.83365-.69828,15.68061-1.40151-.96591-8.60535-1.94929-17.19687,7.95012.74814,15.89611,1.50533,3.39642-8.57974,6.79289-17.1596a70.6044,70.6044,0,0,1,27.62389,19.2148c6.5708,7.51286,16.07479,18.37951,15.76766,32.45191-.22813,10.42-5.71042,16.61815-1.91933,24.7819a19.925,19.925,0,0,0,8.51852,8.65883A19.95206,19.95206,0,0,0,257.49367,87.421c8.70193-2.30137,9.96552-10.47916,17.83418-17.31382,10.62745-9.22957,25.05918-8.86432,35.03694-8.61173a70.60417,70.60417,0,0,1,32.43262,8.96687q-4.42833,8.09562-8.85686,16.19108,5.65622,5.63678,11.30767,11.2601-7.22969,4.74309-14.47263,9.49086,4.48279,6.4779,8.95218,12.96051-7.494,4.63563-14.98862,9.24879,2.78169,7.41942,5.56764,14.82978-8.58331,4.27344-17.15348,8.54212Q315.22568,160.22133,317.31644,167.46563Z" transform="translate(0 3.01488)"/><g class="cls-5"><path class="cls-6" d="M200.02,75.78134c.69058,4.86122,4.03789,9.99252,22.311,20.07188,24.48956,13.50836,44.16939,24.36367,57.25056,17.68005,2.01154-1.0278,6.93378-4.03721,12.60986-2.85021,3.72269.77849,7.94777,3.3993,7.75111,5.7247-.36892,4.36261-16.026,4.43818-17.30816,11.083-.39943,2.07016.82675,3.58353-.35544,6.09565a7.28737,7.28737,0,0,1-4.8034,4.00843c-4.519.74226-8.661-6.84577-12.46484-11.6941-4.50891-5.747-14.26459-10.08861-33.7759-18.7719-27.23587-12.121-33.15538-10.83939-36.74228-8.89148-.58658.31857-5.79827,3.23475-6.06684,7.59053-.3632,5.89108,8.45484,12.15417,16.73122,13.27862,7.20006.97822,8.56013-2.67029,16.0104-2.0895,6.88551.53676,15.865,4.4437,19.5659,11.68633,3.77648,7.39056-1.61265,11.07394.95237,24.66169a55.569,55.569,0,0,0,6.51652,17.25276c5.00238,8.5373,8.68169,9.30853,11.04084,15.61836,1.45148,3.88209,2.43812,9.95418-.54249,18.95025L217.66056,166.306l-110.6244-22.26853q17.37062-45.91458,34.74118-91.82917,6.94986-9.47238,13.89979-18.94475l23.88769,8.70437q-.55259-8.60923-1.10511-17.21843,8.75264,1.811,17.50521,3.62191,1.13715-8.65131,2.27436-17.3026,1.00821-7.04182,2.01635-14.08368c30.29448,10.38731,39.08215,22.29785,41.032,31.77927,2.41487,11.74252-4.77176,24.07051,1.73632,42.5644,1.82777,5.194,4.16369,9.24872,7.51413,9.78847,3.51241.56586,6.44607-3.00419,10.9755-7.37461A128.43929,128.43929,0,0,1,280.58789,58.896c6.13951-3.769,16.62111-6.353,35.50541-.03885a61.92555,61.92555,0,0,0-24.26968,9.9037,67.79835,67.79835,0,0,0-16.6581,16.81542c-4.97894,7.048-3.887,8.25062-7.05751,11.07525-7.52023,6.69989-22.63292,7.92488-32.37009,1.455-7.99464-5.31206-6.023-11.597-19.77067-26.9493-6.37017-7.11368-9.22017-8.4742-11.35424-7.833C201.132,64.3702,199.31448,70.81484,200.02,75.78134Z" transform="translate(0 3.01488)"/></g><path class="cls-7" d="M317.31644,167.46563q-9.05922,2.95657-18.114,5.90426.45513,8.03436.906,16.07774-8.71816,1.5591-17.42775,3.10018-2.54064,7.10907-5.09506,14.20063c-24.74717-7.17206-42.47557-24.40549-44.72081-44.14939a41.53848,41.53848,0,0,1,3.27484-21.00865,14.2531,14.2531,0,0,0-1.80738-11.49673A13.77875,13.77875,0,0,0,227.335,124.855a13.7888,13.7888,0,0,0-8.50115-2.034,14.3302,14.3302,0,0,0-9.99761,5.9572A41.5548,41.5548,0,0,1,194.7795,144.7274c-16.62079,10.891-41.20547,8.26888-62.53723-6.18171q3.8307-6.50372,7.65709-12.9984-4.37873-7.68825-8.7441-15.38137,6.47034-4.78458,12.94492-9.57816-3.51535-8.85723-7.03488-17.70543,6.9034-3.02383,13.79772-6.05187-2.19858-9.333-4.39232-18.65254,7.4843-2.60208,14.95524-5.19937-1.23024-8.71293-2.45621-17.43483,7.83365-.69828,15.68061-1.40151-.96591-8.60535-1.94929-17.19687,7.95012.74814,15.89611,1.50533,3.39642-8.57974,6.79289-17.1596a70.6044,70.6044,0,0,1,27.62389,19.2148c6.5708,7.51286,16.07479,18.37951,15.76766,32.45191-.22813,10.42-5.71042,16.61815-1.91933,24.7819a19.925,19.925,0,0,0,8.51852,8.65883A19.95206,19.95206,0,0,0,257.49367,87.421c8.70193-2.30137,9.96552-10.47916,17.83418-17.31382,10.62745-9.22957,25.05918-8.86432,35.03694-8.61173a70.60417,70.60417,0,0,1,32.43262,8.96687q-4.42833,8.09562-8.85686,16.19108,5.65622,5.63678,11.30767,11.2601-7.22969,4.74309-14.47263,9.49086,4.48279,6.4779,8.95218,12.96051-7.494,4.63563-14.98862,9.24879,2.78169,7.41942,5.56764,14.82978-8.58331,4.27344-17.15348,8.54212Q315.22568,160.22133,317.31644,167.46563Z" transform="translate(0 3.01488)"/><path class="cls-8" d="M204.91522,75.71046a138.83175,138.83175,0,0,0,74.13589,33.74428,95.0427,95.0427,0,0,1-74.13589-33.74428Z" transform="translate(0 3.01488)"/><path class="cls-8" d="M219.70367,74.35522c4.889,14.74066,17.61715,25.5528,33.46413,25.10766a46.34006,46.34006,0,0,0,14.94029-2.81128,32.775,32.775,0,0,1-14.80466,5.14868c-16.63523,1.966-32.06223-10.88284-33.59976-27.44506Z" transform="translate(0 3.01488)"/><path class="cls-8" d="M193.60735,101.94467A95.04471,95.04471,0,0,1,266.94032,137.4a138.83721,138.83721,0,0,0-73.333-35.45528Z" transform="translate(0 3.01488)"/><path class="cls-8" d="M202.01605,114.18527c13.72777-9.40326,33.46083-5.74681,42.58182,8.30368a32.76931,32.76931,0,0,1,5.50139,14.67695,46.34449,46.34449,0,0,0-7.38567-13.28807c-9.73787-12.45536-26.288-15.358-40.69754-9.69256Z" transform="translate(0 3.01488)"/><path class="cls-9" d="M80.61754,243.7427c-2.42231-.065-10.71169.0134-17.55955,6.066-1.76936,1.56388-5.4905,4.85285-6.38529,9.89722-1.76189,9.93251,8.04538,23.22586,17.55955,21.71,5.592-.891,10.25292-6.76564,12.13205-14.04761Q83.49093,255.55549,80.61754,243.7427Z" transform="translate(0 3.01488)"/><path class="cls-9" d="M84.768,265.772c-2.62656-5.19674-7.63967-8.22847-12.45132-7.66236a11.33874,11.33874,0,0,0-6.70455,3.5119" transform="translate(0 3.01488)"/><path class="cls-9" d="M268.05122,243.7427c2.42231-.065,10.71169.0134,17.55955,6.066,1.76936,1.56388,5.4905,4.85285,6.3853,9.89722,1.76188,9.93251-8.04538,23.22586-17.55956,21.71-5.592-.891-10.25292-6.76564-12.132-14.04761Q265.17785,255.55549,268.05122,243.7427Z" transform="translate(0 3.01488)"/><path class="cls-9" d="M263.90079,265.772c2.62656-5.19674,7.63966-8.22847,12.45131-7.66236a11.33881,11.33881,0,0,1,6.70456,3.5119" transform="translate(0 3.01488)"/><path class="cls-10" d="M284.038,466.05244l-64.08,215.39h-41.85v-141.6h-5.03v141.6h-41.85l-64.08-215.39c-7.31-65.4,36.61-123.36,93.47-123.36h29.95C247.428,342.69245,291.348,400.65241,284.038,466.05244Z" transform="translate(0 3.01488)"/><polyline class="cls-11" points="147.122 348.568 147.122 310.285 201.547 310.285 201.547 348.568"/><g class="cls-12"><path class="cls-13" d="M87.982,185.19068c-6.02062-16.26291,2.24981-33.49653,15.94444-43.06132,13.072-9.38687,29.76187-13.16994,45.38855-12.78949a80.5269,80.5269,0,0,1,30.0568,6.28806c-9.88546,1.69724-19.54545,2.81656-29.20606,4.68738-19.74019,3.99924-40.90618,9.331-53.72638,25.50086-4.33218,5.64888-6.75172,12.392-8.45735,19.37451Z" transform="translate(0 3.01488)"/></g><path class="cls-3" d="M270.87438,224.98652c1.29205-1.10126,10.81415-9.50553,10.5827-23.43305-.2312-13.91467-10.0094-21.99481-11.33862-23.05511a40.02954,40.02954,0,0,0-28.2586-47.40726,46.685,46.685,0,0,0-17.85163-18.73449,47.35677,47.35677,0,0,0-31.33972-5.49122,46.2253,46.2253,0,0,0-16.28235-5.09146,48.305,48.305,0,0,0-29.55145,6.42908,45.18949,45.18949,0,0,0-25.25165,4.9095c-18.69177,9.942-22.87366,29.96449-23.4331,32.88191-2.31952.90076-10.91327,4.55237-14.36219,13.22833-4.283,10.77417,1.02631,25.12543,13.98426,33.25983,2.17218-2.33764,40.89019-42.55011,96.75592-31.37005C248.84606,171.98286,269.4732,221.45127,270.87438,224.98652Z" transform="translate(0 3.01488)"/><path class="cls-14" d="M277.41737,235.77c0,56.93116-46.15183,92.67427-103.083,92.67427S71.25139,292.70112,71.25139,235.77s46.15183-113.49171,103.083-113.49171S277.41737,178.83879,277.41737,235.77Z" transform="translate(0 3.01488)"/><g class="cls-15"><path class="cls-16" d="M131.03185,128.98652c-10.91614,9.5646-40.27691,39.56981-49.92119,79.74238-3.71979,15.49439-2.61423,48.00566,7.96843,68.41512,24.1568,46.58818,84.09626,51.50952,88.441,51.77951q-5.85826,6.80314-11.71655,13.60632c-3.616.6286-65.433,10.342-103.55908-33.63781C25.79827,266.85,33.6986,201.92393,66.402,164.51411,88.83526,138.85239,118.35686,131.38038,131.03185,128.98652Z" transform="translate(0 3.01488)"/></g><path class="cls-17" d="M277.41737,235.77c0,56.93116-46.15183,92.67427-103.083,92.67427S71.25139,292.70112,71.25139,235.77s46.15183-113.49171,103.083-113.49171S277.41737,178.83879,277.41737,235.77Z" transform="translate(0 3.01488)"/><path class="cls-18" d="M80.76415,219.6952q6.04725,2.45667,12.09448,4.91339" transform="translate(0 3.01488)"/><path class="cls-18" d="M260.85863,219.6952q-6.04724,2.45667-12.09448,4.91339" transform="translate(0 3.01488)"/><path class="cls-19" d="M151.32553,223.85513c4.17492,16.41253-7.42184,33.52835-25.9021,38.22924s-32.166-5.98372-36.34089-22.39625,2.74192-32.3379,21.22217-37.03879S147.15062,207.44259,151.32553,223.85513Z" transform="translate(0 3.01488)"/><circle class="cls-20" cx="125.24331" cy="230.58674" r="15.93173"/><polygon class="cls-19" points="120.29 230.946 95.459 237.192 107.885 244.39 120.29 230.946"/><path class="cls-21" d="M89.08245,239.68812c4.53271,15.6126,18.5537,24.2478,34.46582,21.96a37.5017,37.5017,0,0,0,14.17066-5.12174,29.74689,29.74689,0,0,1-13.85913,6.93307c-16.41744,3.59089-32.94729-6.65749-34.77735-23.77136Z" transform="translate(0 3.01488)"/><path class="cls-21" d="M87.91522,230.17637c-2.08957-18.12443,14.81024-31.00808,31.78347-30.80378,8.33614.17187,16.95835,2.73665,23.19628,8.45655a28.49346,28.49346,0,0,1,9.27049,22.09687,31.53312,31.53312,0,0,0-11.29053-19.71726c-18.93628-14.21042-50.70134-5.7048-52.95971,19.96762Z" transform="translate(0 3.01488)"/><path class="cls-19" d="M191.30939,223.85513c-4.17492,16.41253,7.42185,33.52835,25.9021,38.22924s32.166-5.98372,36.3409-22.39625-2.74192-32.3379-21.22218-37.03879S195.48431,207.44259,191.30939,223.85513Z" transform="translate(0 3.01488)"/><circle class="cls-20" cx="217.11159" cy="230.58674" r="15.93173"/><polygon class="cls-19" points="212.158 230.946 193.671 235.597 199.753 244.39 212.158 230.946"/><path class="cls-21" d="M253.55242,239.68812c-1.83431,17.12236-18.36156,27.35948-34.77731,23.77116a29.7442,29.7442,0,0,1-13.859-6.93287,37.50408,37.50408,0,0,0,14.17065,5.122c15.91339,2.29,29.93808-6.35528,34.4657-21.96024Z" transform="translate(0 3.01488)"/><path class="cls-21" d="M254.71966,230.17637c-2.2599-25.67879-34.03075-34.17463-52.95968-19.96764A31.53288,31.53288,0,0,0,190.46954,229.926a28.494,28.494,0,0,1,9.27039-22.09679c6.23825-5.72018,14.85988-8.28444,23.19638-8.45686,16.96954-.208,33.87818,12.68817,31.78335,30.804Z" transform="translate(0 3.01488)"/><ellipse class="cls-22" cx="105.69911" cy="272.85069" rx="9.04889" ry="14.94877" transform="matrix(0.0341, -0.99942, 0.99942, 0.0341, -170.59736, 372.19862)"/><ellipse class="cls-22" cx="239.86807" cy="272.47291" rx="9.04889" ry="14.94877" transform="translate(-40.6262 505.92465) rotate(-88.04576)"/><path class="cls-21" d="M143.49224,278.138c14.44893,5.98659,30.77056,6.6119,45.09242.09419a67.41938,67.41938,0,0,0,13.49022-8.03117,38.28971,38.28971,0,0,1-12.05481,10.82995c-14.14042,8.42215-33.68971,7.59981-46.52783-2.893Z" transform="translate(0 3.01488)"/><path class="cls-23" d="M170.86512,108.63677a39.74628,39.74628,0,0,0-23.78423,25.38485c-2.95611,9.21314,11.52179,13.158,14.46418,3.9876h0a21.247,21.247,0,0,1,3.47964-6.87058,22.70167,22.70167,0,0,1,11.46539-8.6085c7.34186-2.38869,15.87205-.6658,22.27754,3.51993" transform="translate(0 3.01488)"/><path class="cls-24" d="M170.86517,108.63677a41.87292,41.87292,0,0,0-21.06225,23.048c-.59373,1.6987-1.49664,3.61442-1.17708,5.39188,1.27191,5.55437,9.98439,5.58124,11.22562-.15926,5.9492-16.825,25.09644-21.67341,38.91619-10.86719-13.8207-7.217-29.87174-3.27607-35.21682,12.09214-2.39634,9.73744-16.968,9.18552-18.66327-.52749-.36115-2.63364.72013-4.93693,1.677-7.24642,4.36068-10.33621,13.57925-18.94991,24.30057-21.73163Z" transform="translate(0 3.01488)"/><path class="cls-23" d="M226.39976,125.92884c-4.75235,8.12162-9.31764,7.15318-16.46134,3.55734-8.09636-4.07538-15.41125,8.03976-7.26111,12.1422h0c14.97524,7.53792,29.05294,6.29666,37.61137-8.32946" transform="translate(0 3.01488)"/><path class="cls-24" d="M226.39971,125.92884c-3.66513,8.60352-9.53913,8.47592-17.12,4.88465a5.57677,5.57677,0,0,0-5.17269.25963c-2.69044,1.50612-4.36327,5.89846-1.64691,8.046a39.42033,39.42033,0,0,0,11.34191,4.52979c10.78387,2.74482,20.00128-1.517,26.48652-10.35017-6.953,15.94808-23.43807,17.74867-37.72087,10.48565-7.47532-2.95636-6.7414-12.30065-.13849-15.77785a8.59762,8.59762,0,0,1,8.467.3149c6.80938,3.93321,10.53374,4.28856,15.50355-2.39255Z" transform="translate(0 3.01488)"/><path class="cls-23" d="M239.10721,133.16069c-2.51041,8.64769-8.82765,14.5259-16.05621,14.14125-2.46733-.13129-4.623,1.55274-4.8181,5.081-.16362,2.95949,1.80306,6.87164,4.24748,7.00171h0c11.44278.6089,21.18788-7.3028,25.24037-21.26253" transform="translate(0 3.01488)"/><path class="cls-24" d="M239.10723,133.16068c-1.18022,7.89639-7.41722,15.9144-16.0825,15.707-4.36421.05319-3.50572,7.08727-.69085,8.65231a1.03222,1.03222,0,0,0,.27677.07266,22.728,22.728,0,0,0,5.67333-.43534c9.54018-2.05316,15.69088-10.20833,19.43673-19.03524-1.50084,10.23447-8.99261,20.83107-19.902,22.66591a22.02117,22.02117,0,0,1-5.87727.33336c-3.00342-.497-4.67008-3.74718-5.23205-6.24845-1.05981-3.89033,1.17758-9.11191,5.71234-9.14826,7.96545.894,13.82393-5.72814,16.68548-12.564Z" transform="translate(0 3.01488)"/><path class="cls-23" d="M223.96974,117.72488c-16.88125-7.52107-39.41868-6.85527-47.67878,12.51739-1.60021,3.753-1.09083,7.99613,2.69064,10.26142,3.1361,1.87869,8.675,1.03,10.26142-2.69063h0c4.82949-11.32675,16.87713-11.71562,27.15594-7.13612" transform="translate(0 3.01488)"/><path class="cls-24" d="M223.96978,117.72488c-16.28387-5.74647-38.37466-4.97055-45.82486,13.269-2.83552,6.01377,2.88028,10.84844,8.299,7.60258,1.25385-.87207,1.63862-2.44041,2.45132-3.69211,4.4133-7.35632,13.28114-9.32586,21.07632-6.90857A30.62087,30.62087,0,0,1,216.399,130.677a39.19737,39.19737,0,0,0-6.65784-1.59665c-7.6825-1.2776-15.76889,1.30979-18.70072,8.88236-2.04,5.64941-10.09444,7.03747-14.41073,3.21059-7.7491-6.96476.436-18.43075,6.73615-23.34474,11.80456-8.80293,28.4-6.8582,40.60394-.10363Z" transform="translate(0 3.01488)"/><path class="cls-21" d="M111.0003,186.05741c11.10844-7.96522,28.88047-4.02178,35.52759,7.937a47.5268,47.5268,0,0,0-35.52759-7.937Z" transform="translate(0 3.01488)"/><path class="cls-21" d="M226.6618,180.92042a47.52537,47.52537,0,0,0-35.52751,7.93732c6.64711-11.95912,24.41922-15.90259,35.52751-7.93732Z" transform="translate(0 3.01488)"/><circle class="cls-25" cx="172.34385" cy="425.20628" r="40.79414"/><path class="cls-26" d="M188.24243,428.169l.03093.02613.01728.00805C188.27471,428.19188,188.25686,428.18167,188.24243,428.169Z" transform="translate(0 3.01488)"/><path class="cls-26" d="M188.33137,428.23669c.01184.00411-.007-.01718-.03761-.032l-.00312-.00146.0056.00382C188.30856,428.21638,188.3199,428.2266,188.33137,428.23669Z" transform="translate(0 3.01488)"/><path class="cls-4" d="M179.04728,423.92071a13.76049,13.76049,0,0,1-2.11029-2.3574q-.12911.028-.25816.05615a51.24665,51.24665,0,0,1-5.54432.93652,8.3806,8.3806,0,0,0,3.35192,3.746c1.58244.93147,3.45772,1.32852,4.93984,2.41251-.03651.03243-.07452.063-.11234.0939.25163-.046.50331-.09182.75435-.141q.29117-.05707.58182-.11678l.1356-.028.01662-.00342.01682-.00356q.11413-.02413.22823-.04834c.74573-.15919,1.49234-.32231,2.23151-.50992,1.01371-.25728,1.98837-.64517,3.01326-.86453.99266-.21245,2.37119-.42376,3.0551.53919a.5836.5836,0,1,1-.95993.664l-.022-.02937-.034-.02993a.2912.2912,0,0,1-.058-.04153c-.03252-.016-.06477-.03212-.09843-.04587-.13161-.0203-.06168-.025-.00514-.0024l.00514.0024.02562.00395a.70306.70306,0,0,1-.07024-.01946c-.04873-.01233-.098-.02234-.14762-.03057-.05188-.00863-.10411-.01512-.15647-.02-.01322-.00123-.02962-.00111-.04576-.00168a5.47544,5.47544,0,0,0-.72593.04965c-.14056.02014-.28007.04581-.41941.07289l-.07536.01664q-.093.02091-.1857.04337c-.2841.06875-.56578.14725-.846.23024-.50118.14842-.99686.31476-1.498.46323-.15089.0447-.30283.08609-.45534.12558q.1242.16264.2528.32186.13227.16365.26939.32329.07541.08772.15234.17412l.04682.05217.00529.00574a11.339,11.339,0,0,0,1.35393,1.24828q.18875.146.38445.28276.10671.07447.21545.146c.01995.01312.078.03777.09179.05868l.018.01115a8.78966,8.78966,0,0,0,.87792.47365c.23051.10777.4715.21812.71639.30412.07687-.13878.1536-.27763.228-.41778.34756-.65484.71685-1.29914,1.0547-1.9589a10.45772,10.45772,0,0,0,.52245-1.20534l.001-.00278.01991-.06668q.02048-.07056.03893-.1417c.02672-.103.05-.207.06891-.31171.01884-.10457.03346-.20993.04322-.31574.00392-.04248.00549-.14494.00458-.04435.0005-.05593.0025-.11177.00158-.16773a2.92365,2.92365,0,0,0-.0206-.30561c-.00561-.046-.01306-.09173-.02037-.13752l-.00181-.01187-.00546-.019a2.57114,2.57114,0,0,0-.09834-.29837.95422.95422,0,0,1-.05413-.11024l-.01506-.02546a1.7472,1.7472,0,0,0-.09987-.14483l-.026-.03245c-.04074-.03617-.14711-.13854-.16341-.15161-.03335-.02672-.068-.05139-.10251-.07662l-.00833-.00619-.00222-.00116c-.06462-.03495-.12826-.07056-.19514-.10121-.01375-.0063-.10759-.04875-.17434-.07521l-.01518-.00395c-.01833-.0048-.03643-.01086-.05468-.016q-.05529-.01557-.11116-.0291a4.03069,4.03069,0,0,0-.50576-.087c-.07885-.00879-.15786-.01426-.2369-.0204-.01565-.00017-.03324-.00249-.04586-.003q-.07371-.00282-.14748-.00422c-.179-.00341-.35813-.001-.53708.00455-.767.0238-1.53253.10871-2.30065.08351a9.269,9.269,0,0,1-2.32727-.35372A9.70627,9.70627,0,0,1,179.04728,423.92071Z" transform="translate(0 3.01488)"/><path class="cls-26" d="M180.91728,423.87136l.0285.01762C180.92745,423.87426,180.8349,423.821,180.91728,423.87136Z" transform="translate(0 3.01488)"/><path class="cls-26" d="M193.59976,435.966a.117.117,0,0,0-.04615-.02l-.01706-.00391c.01837.00646.03713.0124.05427.01963Z" transform="translate(0 3.01488)"/><path class="cls-26" d="M186.31689,431.67745l.0285.01762C186.32705,431.68034,186.23452,431.62705,186.31689,431.67745Z" transform="translate(0 3.01488)"/><path class="cls-26" d="M170.53221,405.05209l.02834.01246.01273.00373C170.55956,405.063,170.54568,405.05806,170.53221,405.05209Z" transform="translate(0 3.01488)"/><path class="cls-26" d="M177.51376,412.59794c.01184.00411-.007-.01718-.03761-.032l-.00312-.00146.0056.00382C177.491,412.57763,177.50229,412.58785,177.51376,412.59794Z" transform="translate(0 3.01488)"/><path class="cls-26" d="M170.57328,405.06828c.02138.0083.04248.0174.0639.02568A.4992.4992,0,0,0,170.57328,405.06828Z" transform="translate(0 3.01488)"/><path class="cls-4" d="M184.4469,431.72681a13.75849,13.75849,0,0,1-2.10908-2.35571q-.10614.02343-.21227.047a56.43155,56.43155,0,0,1-5.58313.99958,7.93688,7.93688,0,0,0,3.556,4.20867c1.30668.72818,2.8711,1.12105,3.97714,2.073q.29771-.04738.59485-.098.53385-.09152,1.06577-.19394.30825-.05922.61584-.12178.11978-.02435.23945-.04916l.01885-.00387.02562-.00546.145-.03072q.29967-.06384.60033-.128l.01015-.00512a.47877.47877,0,0,1,.1627-.03258c.43194-.094.86316-.193,1.28788-.31094,1.02474-.28456,2.01995-.653,3.06465-.86576.941-.19165,2.20606-.30875,2.84017.58407a.5836.5836,0,1,1-.95993.664l-.022-.02938-.03342-.02949a.34551.34551,0,0,1-.05827-.0418c-.02428-.01218-.04856-.02436-.07349-.03541.00853.00812-.011.00669-.07594-.0268-.03033-.00733-.06057-.015-.09128-.02093-.05087-.00983-.10215-.01747-.15361-.02345l-.04854-.00479c-.0571.016-.086.00826-.08069.00152-.02914-.00245-.05848-.0061-.08219-.00582-.0592.00071-.11837.00294-.17746.00638-.11376.00661-.22723.01781-.34025.03218-.14117.018-.28167.041-.42148.06749-.04034.00765-.236.05791-.05147.00927-.06643.01751-.1348.02941-.20174.045-.27311.0636-.54389.1369-.81319.215-.49279.14286-.97992.304-1.47056.45385-.41172.12577-.82993.22724-1.24948.32315.03779.09261.07727.18453.11979.27507.02105.04482.12542.23813.02247.05079.0232.04222.04463.08545.06771.12775q.07773.14244.16321.28047a5.62916,5.62916,0,0,0,.44163.61636q.03873.047.07854.093l.018.02264c.03549.04344.07885.08307.11781.12245q.14589.14751.3033.283.18231.1568.37919.29548c.0214.01508.10527.07076.12333.08374.05825.03607.11693.07149.17663.1051a5.16229,5.16229,0,0,0,.85.38008c.07487.02583.26042.08279.05962.02114.06239.01915.12463.03876.18715.0575.14878.04461.29818.08716.44778.12889.472.13164.94614.25741,1.42017.38411.0909-.16335.181-.32716.26865-.49229.34756-.65485.71684-1.29915,1.05469-1.95891a10.46013,10.46013,0,0,0,.52246-1.20533l.001-.00279.01991-.06668q.02048-.07056.03894-.1417c.02672-.103.05-.207.06891-.31171.01884-.10457.03345-.20993.04322-.31574.00392-.04247.00548-.14494.00458-.04435.0005-.05593.00249-.11177.00157-.16772a2.92345,2.92345,0,0,0-.02059-.30561c-.00561-.046-.01306-.09174-.02037-.13752l-.00181-.01187-.00546-.019a2.57129,2.57129,0,0,0-.09834-.29838.9532.9532,0,0,1-.05413-.11023l-.01507-.02547a1.74708,1.74708,0,0,0-.09986-.14483l-.026-.03245c-.04075-.03616-.14711-.13853-.16341-.1516-.03335-.02673-.068-.0514-.10251-.07663l-.00835-.00619-.0022-.00116c-.06463-.03494-.12826-.07055-.19514-.1012-.01374-.00631-.10756-.04875-.17432-.0752l-.0152-.004c-.01834-.0048-.03643-.01087-.05468-.016q-.05529-.01557-.11116-.0291a4.03433,4.03433,0,0,0-.50576-.087c-.07886-.00878-.15789-.01427-.23693-.0204-.01565-.00017-.03322-.00248-.04584-.003q-.07371-.00282-.14747-.00421c-.179-.00342-.35813-.001-.53709.00455-.767.0238-1.53252.1087-2.30064.0835a9.26888,9.26888,0,0,1-2.32727-.35372A9.70624,9.70624,0,0,1,184.4469,431.72681Z" transform="translate(0 3.01488)"/><path class="cls-4" d="M166.16078,405.982q-.39.13471-.77875.273c-.612.21785-1.24135.422-1.88124.59786.26256.6179.45117.69971,5.01257,4.8338.29507.26743.61894.63971.48036,1.013a.578.578,0,0,1-.39345.34807q.86092-.11465,1.71563-.271.30468-.05559.60845-.11606.11787-.02346.23561-.04763l.09441-.01971.08878-.01884c.37369-.08.74768-.16195,1.11812-.256,1.01374-.2573,1.98833-.64516,3.01326-.86453.99242-.2124,2.37123-.42371,3.05511.53919a.58361.58361,0,0,1-.95994.664l-.022-.02938-.034-.02993a.29169.29169,0,0,1-.058-.04153c-.03251-.016-.06477-.03211-.09842-.04586-.13162-.02031-.06169-.025-.00515-.00241l.00515.00241.02562.00394a.7025.7025,0,0,1-.07025-.01946c-.04873-.01233-.098-.02234-.14761-.03057-.05189-.00863-.10412-.01512-.15648-.02l-.01546-.00051c.04061.0069.04147.02415-.05111-.00173a5.03316,5.03316,0,0,0-.70511.05022c-.14051.02012-.28.04578-.41925.07285l-.09236.02045q-.10158.023-.20274.04784c-.27263.06676-.543.1423-.81215.222-.50119.14842-.99688.31473-1.498.46323-.15136.04485-.304.0857-.45711.125q.13407.17637.273.349.13227.16365.26939.3233.07541.08771.15233.17412l.04683.05216.00529.00575a11.33985,11.33985,0,0,0,1.35393,1.24828q.18875.146.38445.28275.10671.07449.21544.146c.02.01312.078.03778.0918.05869l.018.01115a8.79053,8.79053,0,0,0,.87791.47364c.21434.10021.438.20157.66513.28466q.39612-.70971.79219-1.41945c.224-.4015.4488-.8031.64952-1.21694.0995-.20513.19316-.41319.27683-.62531.04268-.1082.07982-.21814.11948-.32742l.00058-.00159.02038-.06787q.02048-.07056.03894-.1417a3.93688,3.93688,0,0,0,.11419-.65169c.00222-.026.00372-.14.00251-.02011.00024-.024.00137-.048.0017-.07209q.001-.07163-.00126-.14321a2.88354,2.88354,0,0,0-.02547-.30417c-.00529-.03815-.01283-.07595-.01853-.114-.01033-.06888.00807.03468.00765.036.00862-.02784-.02633-.1032-.03469-.13154a2.09553,2.09553,0,0,0-.101-.27208l-.0002-.00042a.11586.11586,0,0,1-.01992-.03519l-.01116-.02021c-.02648-.044-.05469-.08688-.08488-.12839-.00569-.00784-.05821-.07088-.0757-.09454l-.023-.02281a2.173,2.173,0,0,0-.21959-.17862l-.02576-.01522c-.02689-.01515-.05352-.03088-.08088-.04505a2.36646,2.36646,0,0,0-.2355-.10578c-.00519-.002-.03752-.01508-.06509-.02545l-.00611-.00169-.05494-.01558a3.76942,3.76942,0,0,0-.51842-.10143c-.09421-.0121-.1888-.0213-.28353-.02825l-.02211-.00149a.75857.75857,0,0,1-.14132-.00594c-.78587-.02119-1.56887.07-2.3538.08876a9.23994,9.23994,0,0,1-6.38243-2.26395A13.54064,13.54064,0,0,1,166.16078,405.982Z" transform="translate(0 3.01488)"/><path class="cls-26" d="M172.95712,402.60163l.03637.03856C172.97573,402.61794,172.96034,402.60022,172.95712,402.60163Z" transform="translate(0 3.01488)"/><path class="cls-26" d="M189.61157,426.77605l.00608.00443Z" transform="translate(0 3.01488)"/><path class="cls-26" d="M173.48265,403.65651c.00414-.00091-.00145-.026-.01235-.06367Z" transform="translate(0 3.01488)"/><path class="cls-26" d="M178.94993,411.37606c-.02891-.06346-.02719-.05283-.01822-.03155Z" transform="translate(0 3.01488)"/><path class="cls-26" d="M182.34527,420.27085l.01476.004c.00476,0,.00947-.00048.01424-.00048A.13566.13566,0,0,1,182.34527,420.27085Z" transform="translate(0 3.01488)"/><path class="cls-26" d="M183.48781,418.52835l.06625.02A.179.179,0,0,0,183.48781,418.52835Z" transform="translate(0 3.01488)"/><path class="cls-26" d="M182.3829,420.27409l-.00863.00029.03687.00222A.16671.16671,0,0,0,182.3829,420.27409Z" transform="translate(0 3.01488)"/><path class="cls-26" d="M182.93176,420.43059c.01183.0041-.007-.01718-.03762-.032l-.00312-.00145.0056.00381C182.90894,420.41028,182.92028,420.4205,182.93176,420.43059Z" transform="translate(0 3.01488)"/><path class="cls-26" d="M182.84281,420.36294l.03093.02612.01728.00806C182.87509,420.38579,182.85725,420.37558,182.84281,420.36294Z" transform="translate(0 3.01488)"/><path class="cls-26" d="M184.212,418.97l.00608.00443Z" transform="translate(0 3.01488)"/><path class="cls-4" d="M173.64767,416.11462a13.80094,13.80094,0,0,1-2.13446-2.39138q-.17946.03668-.35875.07312a34.733,34.733,0,0,1-4.3011.60627,1.36563,1.36563,0,0,0,.03757.25055,3.15217,3.15217,0,0,0,.82419,1.296,23.74687,23.74687,0,0,0,6.32991,4.9c-.08537.05412-.17259.10519-.26062.1548q.98353-.16812,1.96092-.36931l.02167-.00451.06125-.01287.13917-.02953q.13985-.02982.27956-.06026.25858-.05632.51673-.11465c.3724-.08412.74548-.16769,1.11556-.26161,1.01374-.2573,1.98833-.64516,3.01325-.86453.99242-.2124,2.37123-.4237,3.05511.53919a.58361.58361,0,1,1-.95994.664l-.022-.02938-.034-.02993a.29143.29143,0,0,1-.058-.04153c-.0325-.016-.06477-.0321-.09842-.04586-.13162-.0203-.06169-.025-.00515-.0024l.00515.0024.02562.00395a.70325.70325,0,0,1-.07025-.01946c-.04873-.01234-.098-.02234-.14761-.03058-.05189-.00862-.10411-.01511-.15648-.02l-.01546-.0005c.04062.00689.04148.02414-.05111-.00174a5.03466,5.03466,0,0,0-.70511.05021c-.14044.02011-.27983.04577-.419.07282l-.09256.02049q-.10158.023-.20274.04784c-.27262.06677-.54305.14229-.81215.222-.50119.14841-.99688.31472-1.498.46323-.15088.04471-.30289.086-.45543.12545q.12425.16271.25289.322.13227.16365.26939.32329.07542.08772.15234.17412l.04679.05212.00532.00579a11.34055,11.34055,0,0,0,1.35393,1.24828q.18875.146.38445.28275.10671.07449.21545.146c.01995.01311.078.03777.0918.05869l.018.01114a8.78738,8.78738,0,0,0,.87791.47364c.23051.10777.4715.21811.71639.30413.07687-.13878.15361-.27764.228-.41778.34756-.65484.71684-1.29914,1.0547-1.9589a10.462,10.462,0,0,0,.52245-1.20534l.001-.00277.01991-.06669q.02048-.07058.03894-.1417c.02672-.103.05-.207.0689-.31171.01885-.10458.03346-.20993.04322-.31575.00392-.04247.00549-.14494.00458-.04435.0005-.05593.0025-.11176.00158-.16772a2.92636,2.92636,0,0,0-.02059-.30561c-.00561-.046-.01307-.09173-.02037-.13752l-.00182-.01187-.00546-.019a2.57187,2.57187,0,0,0-.09833-.29838.954.954,0,0,1-.05414-.11023l-.01506-.02546a1.74477,1.74477,0,0,0-.09987-.14483l-.026-.03245c-.04075-.03617-.14711-.13854-.16341-.15161-.03336-.02672-.06806-.05139-.10251-.07662l-.00833-.00619-.00222-.00116c-.06463-.035-.12827-.07056-.19514-.10121-.01375-.0063-.10756-.04874-.17432-.0752l-.01521-.004c-.01833-.0048-.03642-.01086-.05468-.016q-.05528-.01557-.11116-.0291a4.03054,4.03054,0,0,0-.50575-.087c-.07886-.00879-.15789-.01427-.23694-.02041-.01565-.00017-.03322-.00248-.04583-.003q-.07371-.00282-.14748-.00421c-.179-.00341-.35813-.001-.53708.00455-.767.0238-1.53253.1087-2.30064.08351a9.26948,9.26948,0,0,1-2.32728-.35372A9.70637,9.70637,0,0,1,173.64767,416.11462Z" transform="translate(0 3.01488)"/><path class="cls-26" d="M176.92728,412.4382l.01476.004c.00477,0,.00949-.00048.01426-.00047A.13658.13658,0,0,1,176.92728,412.4382Z" transform="translate(0 3.01488)"/><polygon class="cls-26" points="178.954 414.396 178.95 414.391 178.952 414.395 178.954 414.396"/><path class="cls-26" d="M176.96491,412.44144l-.00861.00029.03685.0022A.16781.16781,0,0,0,176.96491,412.44144Z" transform="translate(0 3.01488)"/><path class="cls-26" d="M177.42482,412.53028l.03093.02613.01728.008C177.4571,412.55312,177.43925,412.54292,177.42482,412.53028Z" transform="translate(0 3.01488)"/><path class="cls-26" d="M175.51766,416.06526l.0285.01762C175.52781,416.06816,175.43528,416.01486,175.51766,416.06526Z" transform="translate(0 3.01488)"/><path class="cls-26" d="M178.06982,410.6957l.03523.01081A.13677.13677,0,0,0,178.06982,410.6957Z" transform="translate(0 3.01488)"/><path class="cls-26" d="M188.88743,426.33444l.06621.02A.1789.1789,0,0,0,188.88743,426.33444Z" transform="translate(0 3.01488)"/><path class="cls-26" d="M194.28705,434.14054l.06624.02A.17907.17907,0,0,0,194.28705,434.14054Z" transform="translate(0 3.01488)"/><path class="cls-26" d="M193.199,435.88693c-.03-.0031-.046.00047-.04925.00463a.28748.28748,0,0,0,.07712-.00188Z" transform="translate(0 3.01488)"/><path class="cls-26" d="M195.01118,434.58214l.00609.00443Z" transform="translate(0 3.01488)"/><path class="cls-4" d="M197.8194,443.52477l.017-.01675c.02863-.03026.0536-.06262.07892-.095l.00122-.00264-.0075-.01212a.6939.6939,0,0,0-.07228-.08382,2.2411,2.2411,0,0,0-.19531-.16759c-.05424-.0401-.27254-.16873-.07-.05288-.05849-.03345-.11514-.0701-.1739-.1032-.14347-.08082-.2909-.15448-.44025-.22378-.33527-.15557-.68048-.28942-1.0285-.41352q-.29281-.1044-.58875-.19981l-.07217-.02326-.1205-.03774q-.15421-.0479-.30891-.09426c-.78864-.23664-1.58479-.447-2.38013-.65966a17.57928,17.57928,0,0,1-1.998-.59963,5.743,5.743,0,0,1-2.74205-2.36308,6.55054,6.55054,0,0,1-.53712-1.08046,47.40055,47.40055,0,0,1-5.79562.9192c1.25047,3.65334,5.08788,5.71347,8.60307,7.38769q1.33619-.14976,2.66062-.38368.30039-.05344.59987-.112.14619-.02862.29214-.05852l.03684-.00759.1158-.02467q.53789-.11574,1.071-.2524a16.23974,16.23974,0,0,0,1.79007-.55951q.34726-.134.68162-.29675l.04185-.02232q.07075-.03843.14018-.07927c.08069-.04763.15987-.09792.23638-.152.04258-.03012.083-.0624.12308-.09511Z" transform="translate(0 3.01488)"/><polygon class="cls-26" points="193.238 438.903 193.227 438.905 193.23 438.905 193.238 438.903"/><path class="cls-26" d="M193.64205,435.97513l.0312.02629.01969.00972C193.67641,435.999,193.65728,435.98846,193.64205,435.97513Z" transform="translate(0 3.01488)"/><path class="cls-26" d="M197.85973,443.49209l-.04033.03268-.00175.00165Z" transform="translate(0 3.01488)"/><path class="cls-26" d="M197.82622,443.3038c-.00815-.00808-.00974-.00936,0,0Z" transform="translate(0 3.01488)"/><path class="cls-26" d="M197.81765,443.52642l-.03947.03222C197.71614,443.61034,197.77525,443.5659,197.81765,443.52642Z" transform="translate(0 3.01488)"/><path class="cls-4" d="M184.18178,447.03176a1.6541,1.6541,0,0,0-.687,1.44854,9.358,9.358,0,0,0,.6016,1.45108,1.5154,1.5154,0,0,1-.09923,1.09887q.1743-.16656.344-.33778a28.63337,28.63337,0,0,0,3.03767-3.70524q-.63969.03274-1.27995.04727C185.46126,447.04837,184.82141,447.0487,184.18178,447.03176Z" transform="translate(0 3.01488)"/><path class="cls-26" d="M193.50337,435.92867l.02045.01054.01273.00292A.22821.22821,0,0,1,193.50337,435.92867Z" transform="translate(0 3.01488)"/><path class="cls-4" d="M161.98663,400.73133c-.01212-.005-.02374-.01126-.0354-.01737a12.95425,12.95425,0,0,1-1.972-.62966c.05252.168.10747.35922.20349.60623.76965,1.97979,2.63873,2.0712,3.78646,3.66971a.7001.7001,0,0,1,.12689.767,1.41137,1.41137,0,0,1-.3398.2751.88946.88946,0,0,0-.19628.2115c1.05409-.31595,2.08414-.70487,3.13389-1.04168.59709-.19158,1.19958-.37106,1.81179-.50811a7.61607,7.61607,0,0,1,1.43419-.21613,2.13391,2.13391,0,0,1,1.91016.77433.5836.5836,0,1,1-.95993.664c-.01316-.01875-.02722-.03667-.04116-.05475a1.28323,1.28323,0,0,0-.09889-.0843c-.01652-.00925-.03295-.01864-.05-.027-.02047-.01-.04169-.018-.06283-.02621.0164.00832.00505.00626-.07663-.02941l-.00376-.001c-.03569-.00883-.07168-.01643-.10784-.02308-.0711-.01307-.14293-.02209-.215-.02815l-.0091-.00081-.00168,0c-.04142-.0004-.08278-.0014-.12421-.001-.089.00091-.17806.00518-.26686.01185a6.415,6.415,0,0,0-.64112.08416c-.0713.01267-.14233.02666-.21339.0406l-.05335.01163q-.19176.04236-.3822.09046c-.31484.07907-.62727.16764-.938.26141-.09236.02786-.18415.0575-.27621.08627.09794.12883.19733.25656.29942.38214q.14323.17619.29215.34768c.04967.05715.10012.11359.1505.17012.0266.02863.05311.05733.07988.08581a10.949,10.949,0,0,0,1.44345,1.29465q.20019.14871.40789.28693c.02639.01755.053.03475.07958.052a.37254.37254,0,0,1,.04482.02864c.06987.04273.1398.0853.2106.12652a8.68543,8.68543,0,0,0,.968.4861c.09173.039.1843.076.27736.11179.078-.11988.15628-.23961.23358-.36l.05713-.08914.01674-.02627.0156-.02465.05633-.08948q.08414-.13416.16681-.26923.17794-.29111.34642-.58789a11.73715,11.73715,0,0,0,.59761-1.19975c.07933-.18792.1493-.37876.2161-.5713.00044-.00391.03268-.103.03949-.12671q.01994-.06932.03829-.13907.03645-.13862.06636-.27887a5.34033,5.34033,0,0,0,.0936-.60288c.00291-.03057.009-.12555.00989-.12574.0011-.03043.00236-.06086.00283-.09131q.00209-.13507-.00451-.27012-.00768-.15476-.02809-.30862-.0087-.065-.01986-.12969l-.01181-.06418-.00367-.0216c-.03835-.13267-.14614-.4308-.1607-.46385-.0082-.01862-.017-.03691-.02571-.05526a.52123.52123,0,0,1-.05981-.10681,2.613,2.613,0,0,0-.16678-.2429c-.00528-.00684-.036-.04875-.06215-.0817l-.00853-.0086c-.0159-.01608-.03118-.03281-.04708-.04889-.06925-.07-.14214-.13647-.21788-.19943q-.11487-.09549-.23809-.18031c-.04074-.02812-.11612-.07208-.028-.02044-.04723-.02769-.09378-.05642-.14155-.0832a4.51011,4.51011,0,0,0-.56279-.26444c-.09022-.03529-.18169-.06735-.2737-.09768l-.07263-.02167q-.08361-.024-.16793-.04554c-.21078-.05408-.42424-.09706-.63915-.13115-.21988-.03488-.44106-.06108-.66278-.081q-.16788-.01511-.33612-.02572l-.09334-.00563c-.04951-.0022-.099-.00461-.14853-.0066-.45633-.01832-.9131-.02052-1.36973-.02388-.95028-.007-1.89932-.03864-2.84529-.13408a22.84721,22.84721,0,0,1-2.66756-.42767c-.081-.018-.162-.03678-.243-.05553A.63162.63162,0,0,1,161.98663,400.73133Z" transform="translate(0 3.01488)"/><path class="cls-26" d="M159.52094,393.678a.08334.08334,0,0,0-.03225.01792Z" transform="translate(0 3.01488)"/><path class="cls-4" d="M158.0475,396.18045c-.00052.01609-.00011.032-.00037.04808a.61565.61565,0,0,1,.00045.13087,3.15964,3.15964,0,0,0,.03847.41446l.0024.0164.01378.04949q.01665.06276.03634.12469a2.64789,2.64789,0,0,0,.09863.26068l.02012.04392a.90592.90592,0,0,1,.05425.10169c.04684.08021.09773.15805.15185.23353q.08835.12327.188.23786c.00728.00841.018.01869.0277.02917.02618.02621.05167.05316.07817.079a4.43244,4.43244,0,0,0,.46522.39374c.08077.05966.16438.11473.247.17172l.05175.03187q.06082.03678.12246.07221c.18064.10384.36628.1989.55522.28671q.29874.13884.60773.2541.14883.056.29939.10714l.09262.031.02457.00813.01879.006.06967.0213q.308.09321.62.17443c.1114-.23812.212-.48162.30243-.7276q.04317-.11749.0832-.23613l.0305-.09217.00516-.01748c.052-.17411.10074-.349.14253-.52587a7.21286,7.21286,0,0,0,.17732-1.12562l.00408-.06116.00006-.00142c.00159-.04981.00326-.09959.004-.14943q.002-.13984-.00287-.27968a4.23381,4.23381,0,0,0-.05421-.56914c-.00553-.03206-.039-.10185-.00685-.03875-.01042-.04194-.02025-.08395-.03154-.12568q-.0347-.12817-.07884-.25351-.04743-.1348-.10513-.26568-.0231-.0524-.04779-.10409c-.00426-.00891-.01291-.02306-.02044-.03683-.08859-.14449-.16935-.291-.27021-.42845q-.084-.11454-.17679-.22235l-.012-.01372c-.03014-.02909-.05838-.06041-.08838-.08968a3.1865,3.1865,0,0,0-.39867-.33122l-.02822-.01921a.09527.09527,0,0,1-.05779-.03174c-.01374-.00969-.02658-.019-.03361-.02291q-.11057-.06162-.22662-.11273-.06589-.02892-.13338-.05412l-.03368-.01209c-.06774-.01755-.13483-.03654-.20374-.04988-.07895-.01528-.15816-.02156-.23739-.03172-.01845-.00054-.04005-.00159-.04577-.00158q-.05523.00015-.11045.003-.08591.0045-.17138.01549c-.032.00408-.06372.0095-.09566.01417l-.01127.00207-.05.01237c-.0228.006-.04552.01226-.06814.01894q-.07864.02325-.15557.05188-.08754.0324-.17249.07117l-.02068.00793-.00693.00416c-.09474.05592-.18933.10956-.28014.172-.09833.06766-.193.14051-.28442.21729-.03494.02935-.07192.05844-.10445.09063l-.04974.05025a6.983,6.983,0,0,0-.488.53767c-.2445.29619-.47118.60628-.69715.91673A.57186.57186,0,0,1,158.0475,396.18045Z" transform="translate(0 3.01488)"/><path class="cls-26" d="M161.32659,393.77176c-.02656-.01835-.03115-.017-.02543-.0097a.1747.1747,0,0,0,.05632.03073Z" transform="translate(0 3.01488)"/><polygon class="cls-26" points="161.362 396.809 161.357 396.808 161.359 396.809 161.362 396.809"/><path class="cls-26" d="M193.73152,436.04322c.01785.00811.00094-.01367-.02836-.027l-.01022-.005.00292.002C193.70836,436.02261,193.71987,436.033,193.73152,436.04322Z" transform="translate(0 3.01488)"/><path class="cls-27" d="M157.24928,416.25047l-.0048-.00958Z" transform="translate(0 3.01488)"/><path class="cls-28" d="M176.54242,430.41766c-.85756.10238-1.7181.17556-2.581.21049a17.2673,17.2673,0,0,1-6.36441-.77651c-.06905-.02391-.13711-.04985-.20547-.07519q.1632.548.369,1.08215.13383.34521.28755.68226.0752.16451.15543.32666l.02672.05345c.02172.04142.04329.0829.06537.12414a10.28946,10.28946,0,0,0,.72255,1.16159q.19234.26691.40277.52013c.065.07808.13181.15445.199.23061.10743.10521.06286.06766.03019.03394l.01307.01413q.0564.06039.11388.11973a8.99035,8.99035,0,0,0,.96018.85858q.2505.19356.514.36939c.05355.03575.10986.06847.16222.10587-.17275-.1234-.0068-.00518.03722.02163q.13105.07986.26462.15545a10.279,10.279,0,0,0,1.20592.5805q.32754.13268.663.24468c.04762.01593.24994.07755.05716.01961.05781.01737.11526.03592.17308.05325q.16065.04815.32252.09206a16.07855,16.07855,0,0,0,3.03181.497q.12273.009.24559.01658l.10413.00614c.13031.00608.26063.01174.391.01588q.42472.01345.84974.01156c.62383-.00236,1.24748-.02759,1.86978-.07076,1.1543-.08007,2.30381-.22141,3.44644-.40328-1.106-.952-2.67046-1.34484-3.97714-2.073A7.93688,7.93688,0,0,1,176.54242,430.41766Z" transform="translate(0 3.01488)"/><path class="cls-27" d="M169.607,433.94478c.01039.01014.02.02126.02976.03216l-.01683-.0195Z" transform="translate(0 3.01488)"/><path class="cls-27" d="M169.63825,433.97864l.0119.01274-.01336-.01444Z" transform="translate(0 3.01488)"/><path class="cls-27" d="M150.55741,399.32092l.01429.00068.07036.00244c.0311.0009.0622.00159.09331.0018.04234.00026.08465-.001.127-.00251-.11951-.01057-.23886-.019-.35775-.02206-.07295-.00188-.1474.00026-.2222.00486.06053.00306.12106.00609.18158.00946Z" transform="translate(0 3.01488)"/><path class="cls-27" d="M156.07357,412.782a.20337.20337,0,0,0,.01043.0338.15247.15247,0,0,0-.01051-.0342Z" transform="translate(0 3.01488)"/><path class="cls-28" d="M174.48643,426.30194a8.3806,8.3806,0,0,1-3.35192-3.746c-.94516.09986-1.8936.16365-2.84417.17851a17.56831,17.56831,0,0,1-6.55965-.98631c.14541.42469.30425.84481.48046,1.25769q.15237.357.32194.7064c.02957.06078.05982.12122.09009.18166l.03723.0715q.086.1638.17637.32524a12.07811,12.07811,0,0,0,.76444,1.19839q.20874.28725.43611.56037c.07746.0929.157.184.23722.27444l.00208.00237.00443.00469c.03773.04023.0753.08057.11346.12037a9.44177,9.44177,0,0,0,.985.89326q.259.2033.53206.38776c.04091.02763.0822.05464.12346.08173.14163.08031.0582.03836.0222.01469l-.0222-.01469-.01493-.0085c.02332.01316.04565.02872.06841.04284q.1374.0852.27767.16565a9.88548,9.88548,0,0,0,1.20206.58356q.3109.12614.62933.23257l.09136.03009c.04866.01486.09723.03.146.04452q.16571.04918.33278.09356a15.09631,15.09631,0,0,0,2.94575.456c.04377.00271.08771.00424.13143.00768l-.00906-.0007-.00776-.00034c-.0368-.00177-.15142-.01212.00776.00034q.096.00461.19209.0083.20252.00775.40515.01156.41607.0079.83222.00054c.59781-.01013,1.19516-.04185,1.79108-.09,1.32866-.10741,2.65017-.29516,3.96229-.52811.09859-.0175.19678-.03718.29527-.0552.03782-.03085.07583-.06147.11234-.0939C177.94415,427.63046,176.06887,427.23341,174.48643,426.30194Z" transform="translate(0 3.01488)"/><polygon class="cls-27" points="156.073 415.795 156.073 415.796 156.073 415.796 156.073 415.795"/><path class="cls-27" d="M175.40263,442.21671l-.02907-.05726A.27465.27465,0,0,0,175.40263,442.21671Z" transform="translate(0 3.01488)"/><path class="cls-27" d="M182.78377,451.82622c.04716-.00467.03247-.0075.00892-.006l-.0248.008Z" transform="translate(0 3.01488)"/><path class="cls-28" d="M168.99372,412.69968c.13858-.37333-.18529-.74561-.48036-1.013-4.5614-4.13409-4.75-4.2159-5.01257-4.8338a12.55583,12.55583,0,0,1-5.46007.43679,8.12988,8.12988,0,0,1-4.954-3.03556,2.953,2.953,0,0,1-.57384-2.54618A5.76772,5.76772,0,0,1,153.8292,399.43c.09469-.10951.19188-.21666.29-.3229a13.087,13.087,0,0,1-1.41644.8289,5.1294,5.1294,0,0,1-1.445.52085,3.33575,3.33575,0,0,1-.74156.02137q-.1074-.00565-.21476-.01172l-.00665-.00038-.05417-.00233c-.10779-.004-.21575-.00523-.32346.00146-.0611.0038-.12129.01478-.1821.01961l-.00954.00061-.04394.01444c-.02551.008-.05064.01722-.07541.02732-.06036.04417-.129.079-.18845.1255-.00816.00638-.031.026-.04951.04166l-.02423.02392a1.93629,1.93629,0,0,0-.14749.17771l-.0029.00639-.00389.00975a.60988.60988,0,0,1,.07025.20549c.0035.01592.00878.03147.0111.0476q.06689.46525.15522.927.01459.07566.02983.1512a.3211.3211,0,0,1,.00455.04116c.00906.06151.031.12645.044.18458q.04536.20276.09547.40442.11175.44949.248.89241a15.30755,15.30755,0,0,0,.60865,1.64106q.09086.20709.18819.41124.03717.078.07531.15546c.02136.04341.136.25534.037.07567.137.24857.26665.50009.412.74414a12.99619,12.99619,0,0,0,.92173,1.34866q.24311.31137.5053.60719c.029.03273.059.06472.0876.09777l-.01127-.013-.00558-.00594c-.027-.02915-.1008-.11672.00558.00594q.064.06916.129.1374.13561.14218.27562.28007a12.73776,12.73776,0,0,0,1.21238,1.05148q.31473.24008.64362.46078.095.06378.19116.12592c.13034.07814.03377.02187.00259.00172l-.00259-.00172-.01317-.00789c.02851.01706.05631.03546.08452.053.0801.04984.16117.09809.24229.14626a.54649.54649,0,0,1,.237.13677,14.42336,14.42336,0,0,0,1.3128.65919q.39648.17421.80242.32581.2138.08.42982.15382.08364.0286.16759.0563l.098.032q.8496.26277,1.72046.44488.91128.18891,1.83749.29238.48866.05557.97943.08965.12954.009.25917.01667c.0332.002.06659.00508.09984.00569l.01211.00042q.24322.0117.48664.01857a28.97709,28.97709,0,0,0,4.19681-.19993q.26157-.0307.52258-.06579A.578.578,0,0,0,168.99372,412.69968Z" transform="translate(0 3.01488)"/><path class="cls-27" d="M155.86883,405.23254l.00444.003a.341.341,0,0,0,.03787.02293l-.01663-.01Z" transform="translate(0 3.01488)"/><path class="cls-27" d="M155.81979,405.202l.049.03058-.00825-.00564Z" transform="translate(0 3.01488)"/><path class="cls-27" d="M182.74538,451.83593l.02251-.00769-.0183.00231Z" transform="translate(0 3.01488)"/><path class="cls-27" d="M153.77761,403.185c.01392.03109.03495.05435.034.046q-.02193-.03783-.04633-.07328Z" transform="translate(0 3.01488)"/><path class="cls-28" d="M164.096,405.12721a.7001.7001,0,0,0-.12689-.767c-1.14773-1.59851-3.01681-1.68992-3.78646-3.66971-.096-.247-.151-.43818-.20349-.60623-.0321-.01356-.06466-.0261-.09661-.04a5.221,5.221,0,0,1-2.70659-2.35354c-.30893.33773-.64689.6525-.97082.9673a18.91654,18.91654,0,0,0-1.80106,1.91093c-.12776.16439-.238.34-.36075.50745.12719-.17356.00621-.00777-.02188.03987q-.0361.06123-.07044.12348-.06726.12216-.12666.24843c-.04185.08945-.08037.18049-.11469.27309-.00432.01167-.016.04628-.02529.07345l-.01722.05941a2.63257,2.63257,0,0,0-.05826.27693q-.00888.05774-.015.11587l-.0033.03686c-.00006.08585,0,.171.00809.25679q.00552.05871.01422.11707l.00661.0398c.0233.08729.04663.17367.07831.25871q.0222.0596.0476.118l.01817.04006a.347.347,0,0,1,.04793.07678c.03745.0646.0718.13222.11348.19313.06174.09022.1283.17706.19846.26088.0409.04885.0828.09691.12487.14476.03307.03761.19132.20319.043.04944.07969.08261.1567.16769.23734.24944a8.28268,8.28268,0,0,0,1.05253.90706c.09161.066.1852.12893.27933.19123l.05056.03161c.04451.02721.08921.05412.13432.08034q.29122.16931.59793.30989.302.13821.61626.24687c.03016.01043.06045.02042.09068.03062.04116.01251.08229.02508.12363.037q.16759.0482.33739.08824.34037.08038.68715.12918.1903.027.38173.04512.09739.00924.195.0163c.02518.00182.0991.00412.122.00508a12.93062,12.93062,0,0,0,1.54037-.049c.293-.03.58481-.07031.87519-.11918q.23856-.04014.47579-.08777l.028-.00538c.036-.00716.07184-.01525.10764-.02306q.10291-.02245.20557-.04611c.3811-.08784.75706-.19095,1.13014-.30277a.88946.88946,0,0,1,.19628-.2115A1.41137,1.41137,0,0,0,164.096,405.12721Z" transform="translate(0 3.01488)"/><path class="cls-27" d="M182.60506,451.842c.04728.00845.03192-.00082.00761-.006l-.03417.002Z" transform="translate(0 3.01488)"/><path class="cls-28" d="M184.09634,449.93138a9.358,9.358,0,0,1-.6016-1.45108,1.6541,1.6541,0,0,1,.687-1.44854,26.88469,26.88469,0,0,1-3.41948-.29337c-.03331-.00518-.06642-.01168-.09971-.017.055.47317.11519.94578.19383,1.41565q.03677.21969.07928.43838l.0146.07364.01254.05978q.02492.11466.05191.22884c.0697.29422.15074.58589.24657.87272a7.84766,7.84766,0,0,0,.28944.7431c.03174.0703.0665.13914.09868.20919l.002.00441.03266.06206q.09154.17052.19332.33524c.07129.11522.14565.22895.22649.33772q.02963.03987.0606.07867l.0344.04188.00806.00841c.0238.02249.047.04542.07177.06687.029.02511.06049.04682.08995.07106l.00263.00091c.0022.0009.05117.02539.08749.04213a.14017.14017,0,0,1,.03544.01063l.0388.00857.0379.00569a.07071.07071,0,0,1,.0417-.00084c.03926-.00089.08953.00025.098-.00058l.039-.00494a.09638.09638,0,0,1,.0431-.0103c.07407-.0236.21109-.06623.22535-.072.0426-.01725.08389-.03839.12589-.0572l.05362-.03038c.08714-.051.17161-.10638.25374-.16506.087-.06217.1713-.1282.25315-.197.04-.03362.079-.06825.11814-.10286l.00031-.00027.02515-.02345c.05027-.04664.09949-.09438.14907-.14176A1.5154,1.5154,0,0,0,184.09634,449.93138Z" transform="translate(0 3.01488)"/><path class="cls-27" d="M183.40437,445.83723l.00459.00019-.02588-.00143Z" transform="translate(0 3.01488)"/><path class="cls-27" d="M182.46155,451.81542l.00954.00211-.01226-.00551C182.43271,451.80671,182.41127,451.80524,182.46155,451.81542Z" transform="translate(0 3.01488)"/><path class="cls-27" d="M182.49763,451.82719l-.00336-.00454-.02318-.00512A.0841.0841,0,0,0,182.49763,451.82719Z" transform="translate(0 3.01488)"/><path class="cls-27" d="M182.56473,451.84145l.01377-.0034-.00753-.00114Z" transform="translate(0 3.01488)"/><path class="cls-27" d="M153.75361,403.14l.01163.01765-.0016-.0035Z" transform="translate(0 3.01488)"/><path class="cls-27" d="M183.45458,445.83993l-.02864-.00184-.017-.00067Z" transform="translate(0 3.01488)"/><path class="cls-28" d="M167.71512,415.94921a3.15217,3.15217,0,0,1-.82419-1.296,1.36563,1.36563,0,0,1-.03757-.25055,27.58356,27.58356,0,0,1-4.31652-.00325,18.49942,18.49942,0,0,1-6.472-1.66209l.00859.04375c.04649.09273.02671.07548.01061.03472.00526.025.008.05279.01252.07367q.04305.19734.09058.39366.10476.43237.23269.85871a13.70775,13.70775,0,0,0,.56308,1.5406q.08325.19028.17294.37764.03408.07113.06913.14182l.01954.039c-.02035-.041-.04714-.09891.01227.02377q.17538.33672.3736.66085a9.85958,9.85958,0,0,0,.843,1.175c.07322.08745.15974.16946.2271.26127-.12624-.17206-.00881-.01008.0308.03194q.05888.06246.11892.12381.24886.2543.517.48868.25629.22394.52882.42835.14763.11076.29961.21559.07026.04846.14139.09564c.04506.02989.22327.12133.03974.02735.20291.10391.39278.23888.59417.34731q.30712.16537.62509.30946.33694.153.68374.28281.18318.06876.36859.13137c.0486.01643.09763.03181.14625.0482l.05961.01843a15.43131,15.43131,0,0,0,3.12122.58611q.22514.02026.45071.03537.103.00691.20612.01279c.16176-.002.04173.0024.00475.00029l-.00475-.00029-.00273,0c.03531-.00045.07142.0035.10671.0051q.43458.01973.86971.02277c.62149.00481,1.24307-.0139,1.86343-.051a39.313,39.313,0,0,0,4.07208-.47485c.08116-.01345.1619-.02919.243-.043.088-.04961.17525-.10068.26062-.1548A23.74687,23.74687,0,0,1,167.71512,415.94921Z" transform="translate(0 3.01488)"/><path class="cls-28" d="M181.38566,438.21477c-.64162.05647-1.2846.09593-1.92872.11322a20.45791,20.45791,0,0,1-4.74774-.37206c-.0116.08845-.02258.177-.03123.26577q-.0105.10794-.01818.21615l-.00563.08757c-.00636.17367-.00975.34721-.00668.521a8.31289,8.31289,0,0,0,.10634,1.19363q.01469.08982.03138.1793c.00866.04629.06015.23114.00884.05028.02814.09917.04542.20235.07109.30237q.08946.34859.21221.68747a7.1351,7.1351,0,0,0,.28827.68171l.02579.05258.013.02591.006.00988q.04686.0882.09629.175.09069.15939.18968.31387a7.03553,7.03553,0,0,0,.50169.68733q.07773.094.15859.18535l.01193.01417c.01622.01841.03437.03635.05054.05344q.15982.16878.33.32731a4.04608,4.04608,0,0,0,.309.26128q.086.06537.17514.12632c.02262.0155.04552.03059.06833.0458a6.50894,6.50894,0,0,0,.76969.39873q.22248.09723.45064.18076.118.0435.23726.08379c.03708.01255.07433.02455.11146.03694l.016.005c.33755.10414.68.19206,1.025.268a19.77485,19.77485,0,0,0,2.34846.35821q.31951.03091.63975.054.16254.01184.32522.02179l.14741.00869.01066.00059c-.02979-.00191-.051-.00392.04286.0021q.65885.03169,1.31844.03963c.89943.00983,1.79917-.013,2.69725-.06273q1.27563-.07062,2.5471-.21253C186.47354,443.92824,182.63613,441.86811,181.38566,438.21477Z" transform="translate(0 3.01488)"/><path class="cls-27" d="M157.24928,416.25047l.01782.03557-.01035-.02138-.00373-.00688Z" transform="translate(0 3.01488)"/><path d="M178.95163,411.3797l-.0017-.00364-.01822-.03155A.11586.11586,0,0,0,178.95163,411.3797Z" transform="translate(0 3.01488)"/><path d="M177.35733,412.51055l-.00515-.00241C177.29564,412.48554,177.22571,412.49024,177.35733,412.51055Z" transform="translate(0 3.01488)"/><path d="M176.99315,412.44393l-.03685-.0022c-.00477,0-.00949.00046-.01426.00047C177.03462,412.46808,177.03376,412.45083,176.99315,412.44393Z" transform="translate(0 3.01488)"/><path d="M177.47863,412.56828l-.0056-.00382-.01728-.008a.29169.29169,0,0,0,.058.04153C177.50229,412.58785,177.491,412.57763,177.47863,412.56828Z" transform="translate(0 3.01488)"/><path d="M152.66705,408.82833l.00558.00594C152.56625,408.71161,152.64009,408.79918,152.66705,408.82833Z" transform="translate(0 3.01488)"/><path d="M155.12443,410.88992l.00259.00172C155.1582,410.91179,155.25477,410.96806,155.12443,410.88992Z" transform="translate(0 3.01488)"/><path d="M182.89662,420.40093l-.0056-.00381-.01728-.00806a.29143.29143,0,0,0,.058.04153C182.92028,420.4205,182.90894,420.41028,182.89662,420.40093Z" transform="translate(0 3.01488)"/><path d="M182.41114,420.2766l-.03687-.00222c-.00477,0-.00948.00047-.01424.00048C182.45262,420.30074,182.45176,420.28349,182.41114,420.2766Z" transform="translate(0 3.01488)"/><path d="M182.77532,420.3432l-.00515-.0024C182.71363,420.3182,182.6437,420.3229,182.77532,420.3432Z" transform="translate(0 3.01488)"/><path d="M156.07339,412.781l.0001.00052a.15247.15247,0,0,1,.01051.0342C156.1001,412.85652,156.11988,412.87377,156.07339,412.781Z" transform="translate(0 3.01488)"/><path d="M166.63222,421.545l.00475.00029C166.674,421.54742,166.794,421.543,166.63222,421.545Z" transform="translate(0 3.01488)"/><path d="M157.24448,416.24089l.0048.00958.00374.00731.00373.00688C157.19734,416.142,157.22413,416.1999,157.24448,416.24089Z" transform="translate(0 3.01488)"/><path d="M188.17493,428.14929l-.00514-.0024C188.11325,428.12429,188.04332,428.129,188.17493,428.14929Z" transform="translate(0 3.01488)"/><path d="M188.29624,428.207l-.0056-.00382-.01728-.00805a.2912.2912,0,0,0,.058.04153C188.3199,428.2266,188.30856,428.21638,188.29624,428.207Z" transform="translate(0 3.01488)"/><path d="M166.035,427.81405l.0222.01469C166.09322,427.85241,166.17665,427.89436,166.035,427.81405Z" transform="translate(0 3.01488)"/><path d="M171.82807,429.46094l.00776.00034C171.67665,429.44882,171.79127,429.45917,171.82807,429.46094Z" transform="translate(0 3.01488)"/><path d="M193.23039,435.89l-.00357-.00036a.28748.28748,0,0,1-.07712.00188C193.1444,435.8983,193.17329,435.906,193.23039,435.89Z" transform="translate(0 3.01488)"/><path d="M193.59976,435.966l-.00894-.00425c-.01714-.00723-.0359-.01317-.05427-.01963l-.01273-.00292C193.58872,435.9727,193.60829,435.97413,193.59976,435.966Z" transform="translate(0 3.01488)"/><path d="M193.69586,436.01312l-.00292-.002-.01969-.00972a.34551.34551,0,0,0,.05827.0418C193.71987,436.033,193.70836,436.02261,193.69586,436.01312Z" transform="translate(0 3.01488)"/><path d="M169.62,433.95744l.01683.0195.01336.01444C169.68282,434.0251,169.72739,434.06265,169.62,433.95744Z" transform="translate(0 3.01488)"/><path d="M161.359,393.7938l-.00147-.001a.1747.1747,0,0,1-.05632-.03073A.09527.09527,0,0,0,161.359,393.7938Z" transform="translate(0 3.01488)"/><path d="M170.63718,405.094c-.02142-.00828-.04252-.01738-.0639-.02568l-.01273-.00373C170.64223,405.10022,170.65358,405.10228,170.63718,405.094Z" transform="translate(0 3.01488)"/><path d="M153.76364,403.15418l.0016.0035q.02443.03543.04633.07328A.347.347,0,0,0,153.76364,403.15418Z" transform="translate(0 3.01488)"/><path d="M155.86883,405.23254l.02568.016.01663.01-.05056-.03161Z" transform="translate(0 3.01488)"/><path class="cls-8" d="M199.04254,443.098a1.56744,1.56744,0,0,0-.49742-.72209,5.83078,5.83078,0,0,0-1.82754-.972c-.73575-.27841-1.48716-.50891-2.24386-.7224.3152-.57319.61888-1.15283.93389-1.72617a8.688,8.688,0,0,0,1.02913-2.53567,3.06882,3.06882,0,0,0-.58756-2.63806,3.11537,3.11537,0,0,0-2.05294-.91327,15.74785,15.74785,0,0,0-2.36276.031c-.38948.02133-.77913.03519-1.16913.02044l-.04844-.00178-.01075-.00056c-.04574-.00292-.09147-.00588-.13717-.00934q-.15776-.01193-.315-.02943-.28445-.03172-.56644-.08192c-.02091-.00374-.04166-.00833-.06255-.01222.29739-.54356.58564-1.09226.884-1.63531a8.68828,8.68828,0,0,0,1.02914-2.53567,3.06885,3.06885,0,0,0-.58756-2.63806,3.11541,3.11541,0,0,0-2.05294-.91327,15.748,15.748,0,0,0-2.36277.031c-.38948.02134-.77912.0352-1.16913.02045l-.04844-.00179-.01075-.00056c-.04573-.00291-.09146-.00587-.13717-.00933q-.15776-.01194-.315-.02943-.28446-.03172-.56644-.08192c-.02092-.00374-.04166-.00834-.06255-.01223.29738-.54355.58563-1.09225.884-1.6353a8.68793,8.68793,0,0,0,1.02913-2.53568,3.0688,3.0688,0,0,0-.58756-2.63805,3.11532,3.11532,0,0,0-2.05294-.91327,15.74667,15.74667,0,0,0-2.36277.031c-.38948.02134-.77912.03519-1.16913.02044l-.04844-.00178-.01074-.00056c-.04574-.00291-.09147-.00588-.13718-.00934q-.15774-.01193-.315-.02942-.28446-.03173-.56644-.08192c-.03919-.007-.07814-.01537-.11724-.02291l.43441-.77833a18.549,18.549,0,0,0,1.20791-2.368,4.15066,4.15066,0,0,0,.20046-2.87621,2.62655,2.62655,0,0,0-1.94721-1.62034,8.24753,8.24753,0,0,0-2.40477-.096c-.39707.02278-.79419.05066-1.192.0574q-.16635.00282-.33273-.00011-.07021-.00126-.14042-.00357l-.06973-.00252-.01876-.00061c-.20049-.01311-.40042-.03-.59979-.05533-.22192-.02816-.44253-.0659-.66156-.11128a10.60694,10.60694,0,0,0,1.91545-4.37812,4.138,4.138,0,0,0-.43447-2.55233,3.87946,3.87946,0,0,0-2.05011-1.62344c-1.77868-.66691-3.71462-.46638-5.57458-.54515-.06008-.00255-.12012-.00553-.18019-.00834l-.06933-.004q-.18528-.01087-.37038-.0246-.34212-.02538-.68341-.06056-.68906-.07106-1.3731-.18283c-.27828-.04561-.55594-.09775-.833-.15322q.04216-.09888.08259-.198a9.01982,9.01982,0,0,0,.6073-2.209,5.17631,5.17631,0,0,0-.22737-2.58994,4.107,4.107,0,0,0-1.52558-1.93088,3.00037,3.00037,0,0,0-2.62418-.37718,5.28456,5.28456,0,0,0-2.36154,2.011c-.30887.41163-.60061.83629-.92258,1.238a12.28167,12.28167,0,0,1-1.1,1.19937c-.0458.04375-.09271.08635-.13842.13016l-.00611.00587-.059.053q-.15207.13539-.30852.2657-.31284.26062-.64231.50036a12.3121,12.3121,0,0,1-1.37622.8686c-.05569.03019-.1117.05973-.16774.08926l-.02062.01087-.08194.04092c-.11728.05792-.23538.1143-.35493.16737-.10891.04835-.21909.09387-.33118.13434-.05585.02016-.11212.03921-.1689.05658q-.04851.01483-.09755.02818l-.08264.02082-.01646.00321c-.03341.0052-.0667.01071-.10025.01495-.05664.00715-.11351.01195-.17052.01479l-.03579.00071c-.04231.0015-.08462.00277-.127.00251-.03111-.00021-.06221-.0009-.09331-.0018l-.07036-.00244-.01429-.00068-.09345-.00533c-.06052-.00337-.121-.0064-.18158-.00946l-.08408-.00437a3.46762,3.46762,0,0,0-.37-.00048,1.92654,1.92654,0,0,0-1.1785.47926,1.63633,1.63633,0,0,0-.6495,1.19289.82788.82788,0,0,0,.13123.43867,16.21176,16.21176,0,0,0,2.47316,6.66912,13.50018,13.50018,0,0,0,4.15321,3.94577,14.415,14.415,0,0,0,2.27415,6.11177,10.03252,10.03252,0,0,0,3.26491,2.9377,15.39037,15.39037,0,0,0,2.76249,5.61538,10.32567,10.32567,0,0,0,2.96561,2.46013,12.58665,12.58665,0,0,0,2.41824,5.21746,10.15665,10.15665,0,0,0,4.50648,3.10163c.205.07153.41174.13638.6193.19776-.01786.132-.03235.26446-.0443.39581a8.96175,8.96175,0,0,0,.07592,2.32915,8.02416,8.02416,0,0,0,1.13565,2.98864,6.63741,6.63741,0,0,0,2.00712,2.05488,7.82333,7.82333,0,0,0,1.83477.80454c.29117.09195.58623.1699.883.2408a19.83958,19.83958,0,0,0,.59735,3.39227,8.40662,8.40662,0,0,0,.69013,1.66351,2.7886,2.7886,0,0,0,1.22012,1.33277c1.05388.43812,2.051-.27646,2.79042-.96466a22.14929,22.14929,0,0,0,2.11186-2.31488q1.05314-1.30374,1.98026-2.70416,1.353-.11482,2.69679-.312a29.6117,29.6117,0,0,0,4.59877-.99354,10.20721,10.20721,0,0,0,1.53642-.6029,3.04577,3.04577,0,0,0,1.15309-.84944A1.18955,1.18955,0,0,0,199.04254,443.098Zm-1.21632.20582c-.00974-.00936-.00815-.00808,0,0Zm-2.809-8.71723-.00609-.00443Zm-.664-.42606-.06624-.02A.17907.17907,0,0,1,194.35329,434.16051Zm-3.95342-.075c.76812.0252,1.53362-.0597,2.30064-.0835.179-.00556.35806-.008.53709-.00455q.07376.0014.14747.00421c.01262.00048.03019.00279.04584.003.079.00613.15807.01162.23693.0204a4.03433,4.03433,0,0,1,.50576.087q.05582.01358.11116.0291c.01825.00514.03634.01121.05468.016l.0152.004c.06676.02645.16058.06889.17432.0752.06688.03065.13051.06626.19514.1012l.0022.00116.00835.00619c.03446.02523.06916.0499.10251.07663.0163.01307.12266.11544.16341.1516l.026.03245a1.74708,1.74708,0,0,1,.09986.14483l.01507.02547a.9532.9532,0,0,0,.05413.11023,2.57129,2.57129,0,0,1,.09834.29838l.00546.019.00181.01187c.00731.04578.01476.09147.02037.13752a2.92345,2.92345,0,0,1,.02059.30561c.00092.05595-.00107.11179-.00157.16772.0009-.10059-.00066.00188-.00458.04435-.00977.10581-.02438.21117-.04322.31574-.01888.10476-.04219.20868-.06891.31171q-.01845.07113-.03894.1417l-.01991.06668-.001.00279a10.46013,10.46013,0,0,1-.52246,1.20533c-.33785.65976-.70713,1.30406-1.05469,1.95891-.08765.16513-.17775.32894-.26865.49229-.474-.1267-.9482-.25247-1.42017-.38411-.1496-.04173-.299-.08428-.44778-.12889-.06252-.01874-.12476-.03835-.18715-.0575.2008.06165.01525.00469-.05962-.02114a5.16229,5.16229,0,0,1-.85-.38008c-.0597-.03361-.11838-.069-.17663-.1051-.01806-.013-.10193-.06866-.12333-.08374q-.19653-.13853-.37919-.29548-.15729-.1353-.3033-.283c-.039-.03938-.08232-.079-.11781-.12245l-.018-.02264q-.0398-.04605-.07854-.093a5.62916,5.62916,0,0,1-.44163-.61636q-.08548-.13792-.16321-.28047c-.02308-.0423-.04451-.08553-.06771-.12775.10295.18734-.00142-.006-.02247-.05079-.04252-.09054-.082-.18246-.11979-.27507.41955-.09591.83776-.19738,1.24948-.32315.49064-.14989.97777-.311,1.47056-.45385.2693-.07807.54008-.15137.81319-.215.06694-.01559.13531-.02749.20174-.045-.1845.04864.01113-.00162.05147-.00927.13981-.02648.28031-.04953.42148-.06749.113-.01437.22649-.02557.34025-.03218.05909-.00344.11826-.00567.17746-.00638.02371-.00028.05305.00337.08219.00582.00327-.00416.0192-.00773.04925-.00463l.02787.00275.01144-.00161-.00787.002.04854.00479c.05146.006.10274.01362.15361.02345.03071.00594.061.0136.09128.02093l-.02045-.01054a.22821.22821,0,0,0,.03318.01346l.01706.00391a.117.117,0,0,1,.04615.02c.02493.01105.04921.02323.07349.03541l-.0312-.02629c.01523.01333.03436.02389.05089.036l.01022.005c.0293.01337.04621.03515.02836.027l.03342.02949.022.02938a.5836.5836,0,1,0,.95993-.664c-.63411-.89282-1.89916-.77572-2.84017-.58407-1.0447.21277-2.03991.5812-3.06465.86576-.42472.11794-.85594.21691-1.28788.31094a.47877.47877,0,0,0-.1627.03258l-.01015.00512q-.30042.06449-.60033.128l-.145.03072-.02562.00546-.01885.00387q-.1197.02469-.23945.04916-.30759.06252-.61584.12178-.53193.10218-1.06577.19394-.29707.05094-.59485.098c-1.14263.18187-2.29214.32321-3.44644.40328-.6223.04317-1.24595.0684-1.86978.07076q-.42492.00161-.84974-.01156c-.1304-.00414-.26072-.0098-.391-.01588l-.10413-.00614q-.12284-.00755-.24559-.01658a16.07855,16.07855,0,0,1-3.03181-.497q-.16185-.04394-.32252-.09206c-.05782-.01733-.11527-.03588-.17308-.05325.19278.05794-.00954-.00368-.05716-.01961q-.3351-.11223-.663-.24468a10.279,10.279,0,0,1-1.20592-.5805q-.13353-.0756-.26462-.15545c-.044-.02681-.21-.145-.03722-.02163-.05236-.0374-.10867-.07012-.16222-.10587q-.26328-.17575-.514-.36939a8.99035,8.99035,0,0,1-.96018-.85858q-.05748-.05933-.11388-.11973l-.01307-.01413-.0119-.01274-.00146-.0017c-.00979-.0109-.01937-.022-.02976-.03216l.01293.01266c-.06717-.07616-.134-.15253-.199-.23061q-.2104-.25291-.40277-.52013a10.28946,10.28946,0,0,1-.72255-1.16159c-.02208-.04124-.04365-.08272-.06537-.12414l-.02672-.05345q-.08025-.1621-.15543-.32666-.15394-.33672-.28755-.68226-.20673-.53318-.369-1.08215c.06836.02534.13642.05128.20547.07519a17.2673,17.2673,0,0,0,6.36441.77651c.86285-.03493,1.72339-.10811,2.581-.21049a56.43155,56.43155,0,0,0,5.58313-.99958q.106-.02364.21227-.047a13.75849,13.75849,0,0,0,2.10908,2.35571,9.70624,9.70624,0,0,0,3.6257,2.00494A9.26888,9.26888,0,0,0,190.39987,434.08547Zm-4.05448-2.3904-.0285-.01762C186.23452,431.62705,186.32705,431.68034,186.34539,431.69507Zm3.27226-4.91459-.00608-.00443Zm-.664-.42607-.06621-.02A.1789.1789,0,0,1,188.95364,426.35441Zm-3.95339-.075c.76812.0252,1.53362-.05971,2.30065-.08351.17895-.00555.358-.008.53708-.00455q.07376.00141.14748.00422c.01262.00047.03021.00279.04586.003.079.00614.15805.01161.2369.0204a4.03069,4.03069,0,0,1,.50576.087q.05583.01357.11116.0291c.01825.00514.03635.0112.05468.016l.01518.00395c.06675.02646.16059.06891.17434.07521.06688.03065.13052.06626.19514.10121l.00222.00116.00833.00619c.03446.02523.06916.0499.10251.07662.0163.01307.12267.11544.16341.15161l.026.03245a1.7472,1.7472,0,0,1,.09987.14483l.01506.02546a.95422.95422,0,0,0,.05413.11024,2.57114,2.57114,0,0,1,.09834.29837l.00546.019.00181.01187c.00731.04579.01476.09148.02037.13752a2.92365,2.92365,0,0,1,.0206.30561c.00092.056-.00108.1118-.00158.16773.00091-.10059-.00066.00187-.00458.04435-.00976.10581-.02438.21117-.04322.31574-.01887.10476-.04219.20868-.06891.31171q-.01845.07112-.03893.1417l-.01991.06668-.001.00278a10.45772,10.45772,0,0,1-.52245,1.20534c-.33785.65976-.70714,1.30406-1.0547,1.9589-.07438.14015-.15111.279-.228.41778-.24489-.086-.48588-.19635-.71639-.30412a8.78966,8.78966,0,0,1-.87792-.47365l-.018-.01115c-.01378-.02091-.07184-.04556-.09179-.05868q-.10874-.07151-.21545-.146-.19569-.1366-.38445-.28276a11.339,11.339,0,0,1-1.35393-1.24828l-.00529-.00574-.04682-.05217q-.07693-.08639-.15234-.17412-.13716-.15955-.26939-.32329-.12864-.15915-.2528-.32186c.15251-.03949.30445-.08088.45534-.12558.50116-.14847.99684-.31481,1.498-.46323.28025-.083.56193-.16149.846-.23024q.09267-.02242.1857-.04337l.07536-.01664c.13934-.02708.27885-.05275.41941-.07289a5.47544,5.47544,0,0,1,.72593-.04965c.01614.00057.03254.00045.04576.00168.05236.0049.10459.01139.15647.02.04959.00823.09889.01824.14762.03057a.70306.70306,0,0,0,.07024.01946l-.02562-.00395c.03366.01375.06591.0299.09843.04587l-.03093-.02613c.01443.01264.03228.02285.04821.03418l.00312.00146c.0306.01484.04945.03613.03761.032l.034.02993.022.02937a.5836.5836,0,1,0,.95993-.664c-.68391-.96295-2.06244-.75164-3.0551-.53919-1.02489.21936-1.99955.60725-3.01326.86453-.73917.18761-1.48578.35073-2.23151.50992q-.11406.02434-.22823.04834l-.01682.00356-.01662.00342-.1356.028q-.29066.05967-.58182.11678c-.251.0492-.50272.095-.75435.141-.09849.018-.19668.0377-.29527.0552-1.31212.233-2.63363.4207-3.96229.52811-.59592.04817-1.19327.07989-1.79108.09q-.41607.00705-.83222-.00054-.20262-.00385-.40515-.01156-.09606-.00367-.19209-.0083l.00906.0007c-.04372-.00344-.08766-.005-.13143-.00768a15.09631,15.09631,0,0,1-2.94575-.456q-.16705-.0444-.33278-.09356c-.04878-.01449-.09735-.02966-.146-.04452l-.09136-.03009q-.31814-.10661-.62933-.23257a9.88548,9.88548,0,0,1-1.20206-.58356q-.14024-.08044-.27767-.16565c-.02276-.01412-.04509-.02968-.06841-.04284l.01493.0085c-.04126-.02709-.08255-.0541-.12346-.08173q-.27282-.18434-.53206-.38776a9.44177,9.44177,0,0,1-.985-.89326c-.03816-.0398-.07573-.08014-.11346-.12037l-.00443-.00469-.00208-.00237c-.08026-.09049-.15976-.18154-.23722-.27444q-.22742-.27274-.43611-.56037a12.07811,12.07811,0,0,1-.76444-1.19839q-.09042-.1614-.17637-.32524l-.03723-.0715c-.03027-.06044-.06052-.12088-.09009-.18166q-.16983-.34906-.32194-.7064c-.17621-.41288-.335-.833-.48046-1.25769a17.56831,17.56831,0,0,0,6.55965.98631c.95057-.01486,1.899-.07865,2.84417-.17851a51.24665,51.24665,0,0,0,5.54432-.93652q.12888-.02817.25816-.05615a13.76049,13.76049,0,0,0,2.11029,2.3574,9.70627,9.70627,0,0,0,3.6257,2.005A9.269,9.269,0,0,0,185.00025,426.27938Zm-4.05447-2.3904-.0285-.01762C180.8349,423.821,180.92745,423.87426,180.94578,423.889Zm3.27226-4.91459L184.212,418.97Zm-.664-.42606-.06625-.02A.179.179,0,0,1,183.55406,418.54833Zm-3.95342-.075c.76811.02519,1.53361-.05971,2.30064-.08351.17895-.00555.35806-.008.53708-.00455q.07377.00141.14748.00421c.01261.00048.03018.00279.04583.003.079.00614.15808.01162.23694.02041a4.03054,4.03054,0,0,1,.50575.087q.05583.01358.11116.0291c.01826.00514.03635.0112.05468.016l.01521.004c.06676.02646.16057.0689.17432.0752.06687.03065.13051.06626.19514.10121l.00222.00116.00833.00619c.03445.02523.06915.0499.10251.07662.0163.01307.12266.11544.16341.15161l.026.03245a1.74477,1.74477,0,0,1,.09987.14483l.01506.02546a.954.954,0,0,0,.05414.11023,2.57187,2.57187,0,0,1,.09833.29838l.00546.019.00182.01187c.0073.04579.01476.09148.02037.13752a2.92636,2.92636,0,0,1,.02059.30561c.00092.056-.00108.11179-.00158.16772.00091-.10059-.00066.00188-.00458.04435-.00976.10582-.02437.21117-.04322.31575-.01887.10476-.04218.20868-.0689.31171q-.01845.07112-.03894.1417l-.01991.06669-.001.00277a10.462,10.462,0,0,1-.52245,1.20534c-.33786.65976-.70714,1.30406-1.0547,1.9589-.07438.14014-.15112.279-.228.41778-.24489-.086-.48588-.19636-.71639-.30413a8.78738,8.78738,0,0,1-.87791-.47364l-.018-.01114c-.01376-.02092-.07185-.04558-.0918-.05869q-.10874-.07151-.21545-.146-.19567-.13659-.38445-.28275a11.34055,11.34055,0,0,1-1.35393-1.24828l-.00532-.00579-.04679-.05212q-.07693-.08639-.15234-.17412-.13716-.15955-.26939-.32329-.1287-.15922-.25289-.322c.15254-.03949.30455-.08074.45543-.12545.50115-.14851.99684-.31482,1.498-.46323.2691-.0797.53953-.15522.81215-.222q.10116-.02478.20274-.04784l.09256-.02049c.13922-.02705.27861-.05271.419-.07282a5.03466,5.03466,0,0,1,.70511-.05021l-.01476-.004a.13566.13566,0,0,0,.029.00353l.00863-.00029a.16671.16671,0,0,1,.02824.00251l.01546.0005c.05237.0049.10459.01139.15648.02.04958.00824.09888.01824.14761.03058a.70325.70325,0,0,0,.07025.01946l-.02562-.00395c.03365.01376.06592.02988.09842.04586l-.03093-.02612c.01444.01264.03228.02285.04821.03418l.00312.00145c.0306.01484.04945.03612.03762.032l.034.02993.022.02938a.58361.58361,0,1,0,.95994-.664c-.68388-.96289-2.06269-.75159-3.05511-.53919-1.02492.21937-1.99951.60723-3.01325.86453-.37008.09392-.74316.17749-1.11556.26161q-.25815.05831-.51673.11465-.13971.03044-.27956.06026l-.13917.02953-.06125.01287-.02167.00451q-.9774.20086-1.96092.36931c-.08109.01386-.16183.0296-.243.043a39.313,39.313,0,0,1-4.07208.47485c-.62036.03714-1.24194.05585-1.86343.051q-.435-.00338-.86971-.02277c-.03529-.0016-.0714-.00555-.10671-.0051l.00273,0q-.10309-.00591-.20612-.01279-.22554-.01515-.45071-.03537a15.43131,15.43131,0,0,1-3.12122-.58611l-.05961-.01843c-.04862-.01639-.09765-.03177-.14625-.0482q-.18535-.06262-.36859-.13137-.34641-.13-.68374-.28281-.31761-.14419-.62509-.30946c-.20139-.10843-.39126-.2434-.59417-.34731.18353.094.00532.00254-.03974-.02735q-.07112-.04718-.14139-.09564-.15192-.1048-.29961-.21559-.27225-.20425-.52882-.42835-.26793-.2341-.517-.48868-.06-.06135-.11892-.12381c-.03961-.042-.157-.204-.0308-.03194-.06736-.09181-.15388-.17382-.2271-.26127a9.85958,9.85958,0,0,1-.843-1.175q-.1985-.32362-.3736-.66085l.01035.02138-.01782-.03557-.0048-.00958-.01954-.039q-.03505-.07068-.06913-.14182-.08975-.18729-.17294-.37764a13.70775,13.70775,0,0,1-.56308-1.5406q-.12836-.426-.23269-.85871-.04756-.19629-.09058-.39366c-.00456-.02088-.00726-.04868-.01252-.07367a.20337.20337,0,0,1-.01043-.0338l-.00008-.0004-.00042-.00118.00032.00066-.00859-.04375a18.49942,18.49942,0,0,0,6.472,1.66209,27.58356,27.58356,0,0,0,4.31652.00325,34.733,34.733,0,0,0,4.3011-.60627q.17914-.03632.35875-.07312a13.80094,13.80094,0,0,0,2.13446,2.39138,9.70637,9.70637,0,0,0,3.62569,2.005A9.26948,9.26948,0,0,0,179.60064,418.47329Zm-4.05448-2.39041-.0285-.01762C175.43528,416.01486,175.52781,416.06816,175.54616,416.08288Zm2.55889-5.37637-.03523-.01081A.13677.13677,0,0,1,178.10505,410.70651Zm-5.88066-.32115a9.518,9.518,0,0,0,2.50557.25746c.78493-.01878,1.56793-.10995,2.3538-.08876a.75857.75857,0,0,0,.14132.00594l.02211.00149c.09473.007.18932.01615.28353.02825a3.76942,3.76942,0,0,1,.51842.10143l.05494.01558.00611.00169c.02757.01037.0599.02344.06509.02545a2.36646,2.36646,0,0,1,.2355.10578c.02736.01417.054.0299.08088.04505l.02576.01522a2.173,2.173,0,0,1,.21959.17862l.023.02281c.01749.02366.07.0867.0757.09454.03019.04151.0584.08443.08488.12839l.01116.02021c-.009-.02128-.01069-.03191.01822.03155l.00377.00534-.00207-.0017.0002.00042a2.09553,2.09553,0,0,1,.101.27208c.00836.02834.04331.1037.03469.13154.00042-.00133-.018-.10489-.00765-.036.0057.03806.01324.07586.01853.114a2.88354,2.88354,0,0,1,.02547.30417q.00226.0716.00126.14321c-.00033.024-.00146.04806-.0017.07209.00121-.11988-.00029-.00588-.00251.02011a3.93688,3.93688,0,0,1-.11419.65169q-.01843.07113-.03894.1417l-.02038.06787-.00058.00159c-.03966.10928-.0768.21922-.11948.32742-.08367.21212-.17733.42018-.27683.62531-.20072.41384-.42548.81544-.64952,1.21694q-.396.70976-.79219,1.41945c-.22716-.08309-.45079-.18445-.66513-.28466a8.79053,8.79053,0,0,1-.87791-.47364l-.018-.01115c-.01378-.02091-.07184-.04557-.0918-.05869q-.10872-.07149-.21544-.146-.19569-.13659-.38445-.28275a11.33985,11.33985,0,0,1-1.35393-1.24828l-.00529-.00575-.04683-.05216q-.07692-.08639-.15233-.17412-.13718-.15957-.26939-.3233-.13927-.17229-.273-.349c.1531-.03934.30575-.08019.45711-.125.50115-.1485.99684-.31481,1.498-.46323.2691-.07969.53952-.15523.81215-.222q.10116-.02478.20274-.04784l.09236-.02045c.1393-.02707.27874-.05273.41925-.07285a5.03316,5.03316,0,0,1,.70511-.05022l-.01476-.004a.13658.13658,0,0,0,.029.00353l.00861-.00029a.16781.16781,0,0,1,.02824.00249l.01546.00051c.05236.0049.10459.01139.15648.02.04958.00823.09888.01824.14761.03057a.7025.7025,0,0,0,.07025.01946l-.02562-.00394c.03365.01375.06591.02988.09842.04586l-.03093-.02613c.01443.01264.03228.02284.04821.03418l.00312.00146c.0306.01484.04945.03613.03761.032l.034.02993.022.02938a.58361.58361,0,0,0,.95994-.664c-.68388-.9629-2.06269-.75159-3.05511-.53919-1.02493.21937-1.99952.60723-3.01326.86453-.37044.094-.74443.176-1.11812.256l-.08878.01884-.09441.01971q-.11774.02417-.23561.04763-.30377.06044-.60845.11606-.85442.15585-1.71563.271-.26106.03477-.52258.06579a28.97709,28.97709,0,0,1-4.19681.19993q-.2434-.0069-.48664-.01857l-.01211-.00042c-.03325-.00061-.06664-.00373-.09984-.00569q-.12963-.00762-.25917-.01667-.49059-.03432-.97943-.08965-.92463-.10515-1.83749-.29238-.87085-.18054-1.72046-.44488l-.098-.032q-.084-.02769-.16759-.0563-.216-.07389-.42982-.15382-.40564-.15171-.80242-.32581a14.42336,14.42336,0,0,1-1.3128-.65919.54649.54649,0,0,0-.237-.13677c-.08112-.04817-.16219-.09642-.24229-.14626-.02821-.01756-.056-.036-.08452-.053l.01317.00789q-.09609-.06214-.19116-.12592-.32865-.22065-.64362-.46078a12.73776,12.73776,0,0,1-1.21238-1.05148q-.14-.13788-.27562-.28007-.065-.06819-.129-.1374l.01127.013c-.02864-.03305-.05858-.065-.0876-.09777q-.26205-.29561-.5053-.60719a12.99619,12.99619,0,0,1-.92173-1.34866c-.14535-.24405-.275-.49557-.412-.74414.099.17967-.01569-.03226-.037-.07567q-.03813-.07749-.07531-.15546-.09735-.20412-.18819-.41124a15.30755,15.30755,0,0,1-.60865-1.64106q-.13644-.44262-.248-.89241-.05014-.20163-.09547-.40442c-.013-.05813-.03493-.12307-.044-.18458a.3211.3211,0,0,0-.00455-.04116q-.01524-.07554-.02983-.1512-.08906-.46153-.15522-.927c-.00232-.01613-.0076-.03168-.0111-.0476a.60988.60988,0,0,0-.07025-.20549l.00389-.00975.0029-.00639a1.93629,1.93629,0,0,1,.14749-.17771l.02423-.02392c.01848-.0157.04135-.03528.04951-.04166.05949-.04649.12809-.08133.18845-.1255.02477-.0101.0499-.01927.07541-.02732l.04394-.01444.00954-.00061c.06081-.00483.121-.01581.1821-.01961.10771-.00669.21567-.00549.32346-.00146l.05417.00233.00665.00038q.10735.00624.21476.01172a3.33575,3.33575,0,0,0,.74156-.02137,5.1294,5.1294,0,0,0,1.445-.52085,13.087,13.087,0,0,0,1.41644-.8289c-.09815.10624-.19534.21339-.29.3229a5.76772,5.76772,0,0,0-1.31633,2.27785,2.953,2.953,0,0,0,.57384,2.54618,8.12988,8.12988,0,0,0,4.954,3.03556,12.55583,12.55583,0,0,0,5.46007-.43679c.63989-.17585,1.26926-.38,1.88124-.59786q.38871-.13837.77875-.273a13.54064,13.54064,0,0,0,2.18675,2.39687A9.58943,9.58943,0,0,0,172.22439,410.38536Zm1.25826-6.72885-.01235-.06367C173.4812,403.63054,173.48679,403.6556,173.48265,403.65651Zm-.48916-1.01632-.03637-.03856C172.96034,402.60022,172.97573,402.61794,172.99349,402.64019Zm-7.8515-1.3762c.946.09544,1.895.1271,2.84529.13408.45663.00336.9134.00556,1.36973.02388.04952.002.099.0044.14853.0066l.09334.00563q.16821.01077.33612.02572c.22172.01995.4429.04615.66278.081.21491.03409.42837.07707.63915.13115q.08428.02161.16793.04554l.07263.02167c.092.03033.18348.06239.2737.09768a4.51011,4.51011,0,0,1,.56279.26444c.04777.02678.09432.05551.14155.0832-.08809-.05164-.01271-.00768.028.02044q.123.08484.23809.18031c.07574.063.14863.12938.21788.19943.0159.01608.03118.03281.04708.04889l.00853.0086c.02618.03295.05687.07486.06215.0817a2.613,2.613,0,0,1,.16678.2429.52123.52123,0,0,0,.05981.10681c.00869.01835.01751.03664.02571.05526.01456.03305.12235.33118.1607.46385l.00367.0216.01181.06418q.01119.06464.01986.12969.02058.1536.02809.30862.00669.13494.00451.27012c-.00047.03045-.00173.06088-.00283.09131-.00093.00019-.007.09517-.00989.12574a5.34033,5.34033,0,0,1-.0936.60288q-.0298.14021-.06636.27887-.01835.06975-.03829.13907c-.00681.02367-.03905.1228-.03949.12671-.0668.19254-.13677.38338-.2161.5713a11.73715,11.73715,0,0,1-.59761,1.19975q-.1677.29715-.34642.58789-.08261.13511-.16681.26923l-.05633.08948-.0156.02465-.01674.02627-.05713.08914c-.0773.12035-.15557.24008-.23358.36-.09306-.03575-.18563-.07276-.27736-.11179a8.68543,8.68543,0,0,1-.968-.4861c-.0708-.04122-.14073-.08379-.2106-.12652a.37254.37254,0,0,0-.04482-.02864c-.02657-.01726-.05319-.03446-.07958-.052q-.20768-.13809-.40789-.28693a10.949,10.949,0,0,1-1.44345-1.29465c-.02677-.02848-.05328-.05718-.07988-.08581-.05038-.05653-.10083-.113-.1505-.17012q-.149-.17139-.29215-.34768c-.10209-.12558-.20148-.25331-.29942-.38214.09206-.02877.18385-.05841.27621-.08627.31075-.09377.62318-.18234.938-.26141q.19047-.04785.3822-.09046l.05335-.01163c.07106-.01394.14209-.02793.21339-.0406a6.415,6.415,0,0,1,.64112-.08416c.0888-.00667.17781-.01094.26686-.01185.04143-.00043.08279.00057.12421.001l.00168,0,.0091.00081c.072.00606.14386.01508.215.02815.03616.00665.07215.01425.10784.02308l.00376.001-.02834-.01246c.01347.006.02735.01087.04107.01619a.4992.4992,0,0,1,.0639.02568c.02114.00819.04236.01616.06283.02621.01705.00836.03348.01775.05.027a1.28323,1.28323,0,0,1,.09889.0843c.01394.01808.028.036.04116.05475a.5836.5836,0,1,0,.95993-.664,2.13391,2.13391,0,0,0-1.91016-.77433,7.61607,7.61607,0,0,0-1.43419.21613c-.61221.137-1.2147.31653-1.81179.50811-1.04975.33681-2.0798.72573-3.13389,1.04168-.37308.11182-.749.21493-1.13014.30277q-.10264.02365-.20557.04611c-.0358.00781-.07166.0159-.10764.02306l-.028.00538q-.23721.04751-.47579.08777c-.29038.04887-.58224.08919-.87519.11918a12.93062,12.93062,0,0,1-1.54037.049c-.02292-.001-.09684-.00326-.122-.00508q-.09757-.00707-.195-.0163-.19136-.01818-.38173-.04512-.34624-.04917-.68715-.12918-.16972-.0401-.33739-.08824c-.04134-.01189-.08247-.02446-.12363-.037-.03023-.0102-.06052-.02019-.09068-.03062q-.31381-.10855-.61626-.24687-.3063-.14023-.59793-.30989c-.04511-.02622-.08981-.05313-.13432-.08034a.341.341,0,0,1-.03787-.02293l-.00444-.003-.049-.03058.04079.02494c-.09413-.0623-.18772-.12524-.27933-.19123a8.28268,8.28268,0,0,1-1.05253-.90706c-.08064-.08175-.15765-.16683-.23734-.24944.14832.15375-.00993-.01183-.043-.04944-.04207-.04785-.084-.09591-.12487-.14476-.07016-.08382-.13672-.17066-.19846-.26088-.04168-.06091-.076-.12853-.11348-.19313.001.00835-.02-.01491-.034-.046l-.01237-.02728-.01163-.01765.01.01415-.01817-.04006q-.02535-.05834-.0476-.118c-.03168-.085-.055-.17142-.07831-.25871l-.00661-.0398q-.0087-.05832-.01422-.11707c-.008-.08584-.00815-.17094-.00809-.25679l.0033-.03686q.00608-.05811.015-.11587a2.63257,2.63257,0,0,1,.05826-.27693l.01722-.05941c.00927-.02717.021-.06178.02529-.07345.03432-.0926.07284-.18364.11469-.27309q.0591-.12631.12666-.24843.03427-.06227.07044-.12348c.02809-.04764.14907-.21343.02188-.03987.12276-.16749.233-.34306.36075-.50745a18.91654,18.91654,0,0,1,1.80106-1.91093c.32393-.3148.66189-.62957.97082-.9673a5.221,5.221,0,0,0,2.70659,2.35354c.03195.01393.06451.02647.09661.04a12.95425,12.95425,0,0,0,1.972.62966c.01166.00611.02328.01234.0354.01737a.63162.63162,0,0,0,.24479.04946c.081.01875.162.03751.243.05553A22.84721,22.84721,0,0,0,165.142,401.264Zm-5.621-7.586-.03225.01792A.08334.08334,0,0,1,159.52094,393.678Zm-.71529.53047.04974-.05025c.03253-.03219.06951-.06128.10445-.09063.09138-.07678.18609-.14963.28442-.21729.09081-.06247.1854-.11611.28014-.172l.00693-.00416.02068-.00793q.085-.0387.17249-.07117.07692-.02847.15557-.05188c.02262-.00668.04534-.01293.06814-.01894l.05-.01237.01127-.00207c.03194-.00467.06361-.01009.09566-.01417q.08535-.01087.17138-.01549.05517-.0029.11045-.003c.00572,0,.02732.001.04577.00158.07923.01016.15844.01644.23739.03172.06891.01334.136.03233.20374.04988l.03368.01209q.06744.02514.13338.05412.11592.05086.22662.11273c.007.00393.01987.01322.03361.02291-.00572-.00734-.00113-.00865.02543.0097l.03089.021.00434.00135-.00287-.00034.02822.01921a3.1865,3.1865,0,0,1,.39867.33122c.03.02927.05824.06059.08838.08968l.012.01372q.09275.10763.17679.22235c.10086.13745.18162.284.27021.42845.00753.01377.01618.02792.02044.03683q.02467.05167.04779.10409.05766.13076.10513.26568.04405.12527.07884.25351c.01129.04173.02112.08374.03154.12568-.03211-.0631.00132.00669.00685.03875a4.23381,4.23381,0,0,1,.05421.56914q.005.13977.00287.27968c-.0007.04984-.00237.09962-.004.14943l-.00006.00142-.00408.06116a7.21286,7.21286,0,0,1-.17732,1.12562c-.04179.17688-.0905.35176-.14253.52587l-.00516.01748-.0305.09217q-.04.11862-.0832.23613c-.0904.246-.191.48948-.30243.7276q-.3117-.08183-.62-.17443l-.06967-.0213-.01879-.006-.02457-.00813-.09262-.031q-.15052-.05122-.29939-.10714-.30831-.116-.60773-.2541c-.18894-.08781-.37458-.18287-.55522-.28671q-.06163-.03543-.12246-.07221l-.05175-.03187c-.08261-.057-.16622-.11206-.247-.17172a4.43244,4.43244,0,0,1-.46522-.39374c-.0265-.02588-.052-.05283-.07817-.079-.00974-.01048-.02042-.02076-.0277-.02917q-.0993-.11463-.188-.23786c-.05412-.07548-.105-.15332-.15185-.23353a.90592.90592,0,0,0-.05425-.10169l-.02012-.04392a2.64789,2.64789,0,0,1-.09863-.26068q-.01971-.06186-.03634-.12469l-.01378-.04949-.0024-.0164a3.15964,3.15964,0,0,1-.03847-.41446.61565.61565,0,0,0-.00045-.13087c.00026-.016-.00015-.032.00037-.04808a.57186.57186,0,0,0-.427-.5176c.226-.31045.45265-.62054.69715-.91673A6.983,6.983,0,0,1,158.80565,394.20845Zm16.56791,47.951.02907.05726A.27465.27465,0,0,1,175.37356,442.15945Zm8.96758,8.533q-.1692.17172-.344.33778c-.04958.04738-.0988.09512-.14907.14176l-.02515.02345-.00031.00027c-.0391.03461-.07816.06924-.11814.10286-.08185.06881-.16614.13484-.25315.197-.08213.05868-.1666.1141-.25374.16506l-.05362.03038c-.042.01881-.08329.04-.12589.0572-.01426.00578-.15128.04841-.22535.072.02355-.00153.03824.0013-.00892.006l-.01588.002-.02251.00769.00421-.00538-.039.00494c-.00843.00083-.0587-.00031-.098.00058.02431.00514.03967.01441-.00761.006l-.02656-.004-.01377.0034.00624-.00454-.0379-.00569-.0388-.00857.00336.00454a.0841.0841,0,0,1-.02654-.00966l-.00954-.00211c-.05028-.01018-.02884-.00871-.00272-.0034-.03632-.01674-.08529-.04123-.08749-.04213l-.00263-.00091c-.02946-.02424-.061-.046-.08995-.07106-.02475-.02145-.048-.04438-.07177-.06687l-.00806-.00841-.0344-.04188q-.03108-.03875-.0606-.07867c-.08084-.10877-.1552-.2225-.22649-.33772q-.10185-.16456-.19332-.33524l-.03266-.06206-.002-.00441c-.03218-.07-.06694-.13889-.09868-.20919a7.84766,7.84766,0,0,1-.28944-.7431c-.09583-.28683-.17687-.5785-.24657-.87272q-.027-.11417-.05191-.22884l-.01254-.05978-.0146-.07364q-.04278-.21859-.07928-.43838c-.07864-.46987-.13879-.94248-.19383-1.41565.03329.00535.0664.01185.09971.017a26.88469,26.88469,0,0,0,3.41948.29337c.63963.01694,1.27948.01661,1.91708.00274q.64015-.0139,1.27995-.04727A28.63337,28.63337,0,0,1,184.34114,450.69247Zm13.07758-6.88669q-.06934.04092-.14018.07927l-.04185.02232q-.33477.16252-.68162.29675a16.23974,16.23974,0,0,1-1.79007.55951q-.53274.13757-1.071.2524l-.1158.02467-.03684.00759q-.14593.02992-.29214.05852-.29945.05859-.59987.112-1.32314.23544-2.66062.38368-1.27042.14238-2.5471.21253c-.89808.04972-1.79782.07256-2.69725.06273q-.65961-.00722-1.31844-.03963l.02864.00184-.04562-.00251-.00459-.00019-.02129-.00124-.01066-.00059-.14741-.00869q-.16268-.01-.32522-.02179-.32018-.02326-.63975-.054a19.77485,19.77485,0,0,1-2.34846-.35821c-.34494-.076-.68742-.16388-1.025-.268l-.016-.005c-.03713-.01239-.07438-.02439-.11146-.03694q-.11917-.04033-.23726-.08379-.22785-.0839-.45064-.18076a6.50894,6.50894,0,0,1-.76969-.39873c-.02281-.01521-.04571-.0303-.06833-.0458q-.08907-.061-.17514-.12632a4.04608,4.04608,0,0,1-.309-.26128q-.17-.15849-.33-.32731c-.01617-.01709-.03432-.035-.05054-.05344l-.01193-.01417q-.08083-.09133-.15859-.18535a7.03553,7.03553,0,0,1-.50169-.68733q-.09894-.15441-.18968-.31387-.0494-.08682-.09629-.175l-.006-.00988-.013-.02591-.02579-.05258a7.1351,7.1351,0,0,1-.28827-.68171q-.12285-.33826-.21221-.68747c-.02567-.1-.04295-.2032-.07109-.30237.05131.18086-.00018-.004-.00884-.05028q-.01673-.08947-.03138-.1793a8.31289,8.31289,0,0,1-.10634-1.19363c-.00307-.17377.00032-.34731.00668-.521l.00563-.08757q.0077-.1082.01818-.21615c.00865-.08875.01963-.17732.03123-.26577a20.45791,20.45791,0,0,0,4.74774.37206c.64412-.01729,1.2871-.05675,1.92872-.11322a47.40055,47.40055,0,0,0,5.79562-.9192,6.55054,6.55054,0,0,0,.53712,1.08046,5.743,5.743,0,0,0,2.74205,2.36308,17.57928,17.57928,0,0,0,1.998.59963c.79534.2127,1.59149.423,2.38013.65966q.15468.04641.30891.09426l.1205.03774.07217.02326q.29571.09589.58875.19981c.348.1241.69323.25795,1.0285.41352.14935.0693.29678.143.44025.22378.05876.0331.11541.06975.1739.1032-.20257-.11585.01573.01278.07.05288a2.2411,2.2411,0,0,1,.19531.16759.6939.6939,0,0,1,.07228.08382l.0075.01212-.00122.00264c-.02532.03238-.05029.06474-.07892.095l-.017.01675.04033-.03268-.04208.03433c-.0424.03948-.10151.08392-.03947.03222-.04009.03271-.0805.065-.12308.09511C197.57859,443.70786,197.49941,443.75815,197.41872,443.80578Z" transform="translate(0 3.01488)"/><path d="M197.81765,443.52642l.00175-.00165-.04122.03387Z" transform="translate(0 3.01488)"/><path d="M183.38308,445.836l.02588.00143.017.00067C183.33208,445.83207,183.35329,445.83408,183.38308,445.836Z" transform="translate(0 3.01488)"/><path d="M182.571,451.83691l.00753.00114.03417-.002A.07071.07071,0,0,0,182.571,451.83691Z" transform="translate(0 3.01488)"/><path d="M182.47109,451.81753l.02318.00512a.14017.14017,0,0,0-.03544-.01063Z" transform="translate(0 3.01488)"/><path d="M182.74959,451.83055l.0183-.00231.0248-.008A.09638.09638,0,0,0,182.74959,451.83055Z" transform="translate(0 3.01488)"/><path class="cls-29" d="M123.357,362.78352c-9.78612,4.94336-19.34017,11.9059-24.64681,21.49685" transform="translate(0 3.01488)"/><path class="cls-30" d="M43.49435,518.84241c2.18628,4.16988,1.82569,9.62605,1.241,18.47313-.29564,4.47383-.57745,8.73779-2.04154,9.136-1.24374.33823-3.50613-2.06822-7.93871-13.07275a24.8648,24.8648,0,0,1-9.68982,7.2137c-2.71388,1.08215-8.57448,2.77915-9.60483.75376-.54258-1.06655-.1136-3.88833,8.532-12.77137a17.467,17.467,0,0,1-9.0221,3.67932c-3.22687.28923-8.29553-.26919-8.66856-2.19812-.24655-1.275,1.47468-3.58239,10.67953-8.11158a20.96557,20.96557,0,0,1-10.09582,1.34944c-2.05441-.2397-5.6702-.6616-5.87622-1.953-.199-1.2477,2.72826-3.66021,17.4996-8.817C29.55767,509.28426,39.85519,511.90145,43.49435,518.84241Z" transform="translate(0 3.01488)"/><path class="cls-10" d="M75.39613,405.25851c.07593-.29505-7.67026,26.92152-25.984,60.05592a443.63,443.63,0,0,1-29.62447,46.48016c8.37509,5.61027,18.17329,12.18233,26.54839,17.79259,8.02786-7.52752,10.09458-9.54617,18.76623-20.96956,12.6615-16.67932,6.32619-7.83417,12.6615-16.67932" transform="translate(0 3.01488)"/><path class="cls-30" d="M308.26945,518.84241c-2.18628,4.16988-1.82569,9.62605-1.241,18.47313.29565,4.47383.57746,8.73779,2.04155,9.136,1.24374.33823,3.50613-2.06822,7.93871-13.07275a24.8648,24.8648,0,0,0,9.68982,7.2137c2.71388,1.08215,8.57448,2.77915,9.60483.75376.54258-1.06655.1136-3.88833-8.532-12.77137a17.467,17.467,0,0,0,9.02211,3.67932c3.22687.28923,8.29553-.26919,8.66856-2.19812.24655-1.275-1.47468-3.58239-10.67953-8.11158a20.96557,20.96557,0,0,0,10.09582,1.34944c2.05441-.2397,5.6702-.6616,5.87622-1.953.199-1.2477-2.72826-3.66021-17.4996-8.817C322.20613,509.28426,311.9086,511.90145,308.26945,518.84241Z" transform="translate(0 3.01488)"/><path class="cls-10" d="M276.36767,405.25851c-.07593-.29505,7.67026,26.92152,25.984,60.05592a443.63,443.63,0,0,0,29.62447,46.48016c-8.37509,5.61027-18.17329,12.18233-26.54839,17.79259-8.02786-7.52752-10.09458-9.54617-18.76624-20.96956C274,491.9383,280.33531,500.78345,274,491.9383" transform="translate(0 3.01488)"/><path class="cls-25" d="M110.36423,713.47187c10.612,1.193,22.7299,2.37847,31.72395,2.36526,6.64794-.00976,20.5866-.32335,30.73353-6.07234.07881-8.66847.7949-47.31654.7949-47.31654H123.68707l6.51968,28.1278s-6.376,1.24319-11.622,7.95927A61.92364,61.92364,0,0,0,110.36423,713.47187Z" transform="translate(0 3.01488)"/><path class="cls-31" d="M120.98217,694.71069a18.30318,18.30318,0,0,1,10.76146-1.44007,18.8118,18.8118,0,0,1,11.85469,7.69251" transform="translate(0 3.01488)"/><path class="cls-31" d="M127.61888,689.85507a18.30326,18.30326,0,0,1,10.76145-1.44006,18.81183,18.81183,0,0,1,11.8547,7.69251" transform="translate(0 3.01488)"/><path class="cls-25" d="M240.61661,713.47187c-10.612,1.193-22.7299,2.37847-31.72394,2.36526-6.648-.00976-20.58661-.32335-30.73354-6.07234-.0788-8.66847-.7949-47.31654-.7949-47.31654h49.92955l-6.51969,28.1278s6.376,1.24319,11.62205,7.95927A61.92381,61.92381,0,0,1,240.61661,713.47187Z" transform="translate(0 3.01488)"/><path class="cls-31" d="M229.99867,694.71069a18.30316,18.30316,0,0,0-10.76145-1.44007,18.81187,18.81187,0,0,0-11.8547,7.69251" transform="translate(0 3.01488)"/><path class="cls-31" d="M223.362,689.85507a18.30329,18.30329,0,0,0-10.76146-1.44006,18.81187,18.81187,0,0,0-11.8547,7.69251" transform="translate(0 3.01488)"/></g></g></svg>