<svg xmlns="http://www.w3.org/2000/svg" xmlns:xlink="http://www.w3.org/1999/xlink" viewBox="0 0 311.51412 677.93063"><defs><style>.cls-1,.cls-10,.cls-11,.cls-20,.cls-30,.cls-35{fill:none;}.cls-2{isolation:isolate;}.cls-3{fill:#a36c6c;opacity:0.2;}.cls-4{fill:#ffe8d9;stroke:#efceb9;}.cls-10,.cls-11,.cls-13,.cls-14,.cls-16,.cls-20,.cls-23,.cls-25,.cls-26,.cls-27,.cls-28,.cls-30,.cls-31,.cls-35,.cls-4,.cls-5,.cls-6,.cls-9{stroke-miterlimit:10;}.cls-16,.cls-20,.cls-30,.cls-4{stroke-width:3px;}.cls-14,.cls-15,.cls-5,.cls-6{fill:#8cc8dd;}.cls-10,.cls-14,.cls-25,.cls-31,.cls-35,.cls-5,.cls-6{stroke:#69a5b5;}.cls-31,.cls-5{stroke-width:2.07565px;}.cls-10,.cls-27,.cls-28,.cls-6{stroke-width:2px;}.cls-23,.cls-25,.cls-7{fill:#fff4f3;}.cls-8{clip-path:url(#clip-path);}.cls-9{fill:#a5daf2;stroke:#8dc5d8;stroke-width:1.15629px;}.cls-11{stroke:#8cc4e0;stroke-width:2.55838px;}.cls-12{clip-path:url(#clip-path-2);}.cls-13,.cls-16,.cls-17{fill:#f9d6bd;}.cls-13,.cls-16,.cls-20,.cls-23{stroke:#eabea0;}.cls-13{stroke-width:2.14567px;}.cls-14{stroke-width:2.22683px;}.cls-18{clip-path:url(#clip-path-3);}.cls-19{fill:#e2ba9f;opacity:0.38;}.cls-21{fill:#352727;}.cls-22{fill:#b78c74;}.cls-23,.cls-25{stroke-width:2.6402px;}.cls-24{fill:#f7baba;}.cls-24,.cls-30{opacity:0.4;}.cls-26,.cls-28{fill:#e1eaf9;}.cls-26,.cls-27,.cls-28{stroke:#8aa6c1;}.cls-26{stroke-width:1.97479px;}.cls-27{fill:#d4e2fc;}.cls-29{fill:#fff;}.cls-30{stroke:#b9effc;stroke-linecap:round;}.cls-31{fill:#a5dfef;}.cls-32{fill:#92cfdd;}.cls-33{clip-path:url(#clip-path-4);}.cls-34{fill:#595959;mix-blend-mode:overlay;}.cls-35{stroke-width:2.71493px;}</style><clipPath id="clip-path"><path class="cls-1" d="M189.15339,637.121l-4.32012,15.1616c4.17617,2.48651,8.976,4.49108,13.778,10.25739a54.0865,54.0865,0,0,1,4.419,6.13344,195.67275,195.67275,0,0,1-22.47921,1.39193c-5.198-.00764-16.09666-.25284-24.03054-4.748-.06161-6.77787-.39024-28.31264-.39024-28.31264Z"/></clipPath><clipPath id="clip-path-2"><path class="cls-1" d="M120.98494,637.121l4.32013,15.1616c-4.17617,2.48651-8.976,4.49108-13.778,10.25739a54.08774,54.08774,0,0,0-4.41905,6.13344,195.67278,195.67278,0,0,0,22.47922,1.39193c5.198-.00764,16.09665-.25284,24.03053-4.748.06162-6.77787.39024-28.31264.39024-28.31264Z"/></clipPath><clipPath id="clip-path-3"><path class="cls-1" d="M263.11581,191.45109c0,57.79442-46.85163,84.64605-104.646,84.64605s-104.646-26.85163-104.646-84.64605S100.67534,66.805,158.46976,66.805,263.11581,133.65667,263.11581,191.45109Z"/></clipPath><clipPath id="clip-path-4"><path class="cls-1" d="M221.85182,62.5531A904.98376,904.98376,0,0,1,46.24068,122.321L29.42107,72.90124c-3.16927-9.312,2.40472-19.63231,12.44984-23.05109L181.10546,2.46277C191.15058-.956,201.863,3.82139,205.03221,13.13338Z"/></clipPath></defs><g class="cls-2"><g id="Layer_2" data-name="Layer 2"><g id="hero_4-success"><ellipse class="cls-3" cx="155.75706" cy="666.11031" rx="111.34586" ry="11.82032"/><path class="cls-4" d="M53.40235,169.014c-2.40162-10.44756-11.91649-33.50084-6.86829-56.77712,4.146-19.1165,20.46327-52.77768,55.50353-65.14181,20.37392-7.189,36.33829-.89321,52.45934-15.13264,2.41867-2.13639,4.85163-9.37833,12.067-16.48976C173.3,8.83361,177.10475,8.164,178.66649,8.002a16.356,16.356,0,0,1,14.95472,7.3639c4.43383,7.10784,2.19336,18.24488-6.64532,25.12843,9.82312,2.80608,23.66068,4.89754,35.35115-1.89546,8.32718-4.83867,10.10308-11.01137,16.63658-11.39954,10.09216-.59961,23.69416,13.06855,23.05942,28.44329-.52107,12.6206-10.5369,24.0146-24.55664,26.995,4.76068,3.60942,11.82818,7.67749,20.383,7.58193,10.843-.1211,15.71947-6.83774,22.53-4.59853,7.84291,2.57861,11.3658,14.77046,11.78,22.02273,1.00881,17.66375-14.72627,35.758-38.76392,47.24451C185.305,155.69333,121.49281,168.20895,53.40235,169.014Z"/><path class="cls-5" d="M243.55212,359.33949,187.33919,638.1451h-29.52v-156.21h-5.51v156.21h-29.51L66.58622,359.33949a61.55114,61.55114,0,0,1,61.44733-65.12438h54.07124A61.55114,61.55114,0,0,1,243.55212,359.33949Z"/><polyline class="cls-6" points="129.232 297.395 129.232 259.112 183.657 259.112 183.657 297.395"/><path class="cls-7" d="M189.15339,637.121l-4.32012,15.1616c4.17617,2.48651,8.976,4.49108,13.778,10.25739a54.0865,54.0865,0,0,1,4.419,6.13344,195.67275,195.67275,0,0,1-22.47921,1.39193c-5.198-.00764-16.09666-.25284-24.03054-4.748-.06161-6.77787-.39024-28.31264-.39024-28.31264Z"/><g class="cls-8"><path class="cls-9" d="M148.52691,656.21125a27.0018,27.0018,0,0,1,13.05392,2.316,28.00714,28.00714,0,0,1,13.68553,14.10666q-9.264-1.05272-18.52808-2.10547Q152.63255,663.36984,148.52691,656.21125Z"/></g><path class="cls-10" d="M189.15339,637.121l-4.32012,15.1616c4.17617,2.48651,8.976,4.49108,13.778,10.25739a54.0865,54.0865,0,0,1,4.419,6.13344,195.67275,195.67275,0,0,1-22.47921,1.39193c-5.198-.00764-16.09666-.25284-24.03054-4.748-.06161-6.77787-.39024-28.31264-.39024-28.31264Z"/><path class="cls-11" d="M192.09867,655.44488a14.31127,14.31127,0,0,0-8.41437-1.126,14.709,14.709,0,0,0-9.26918,6.01477"/><path class="cls-11" d="M186.90943,651.64828a14.31125,14.31125,0,0,0-8.41437-1.126,14.709,14.709,0,0,0-9.26918,6.01477"/><path class="cls-7" d="M120.98494,637.121l4.32013,15.1616c-4.17617,2.48651-8.976,4.49108-13.778,10.25739a54.08774,54.08774,0,0,0-4.41905,6.13344,195.67278,195.67278,0,0,0,22.47922,1.39193c5.198-.00764,16.09665-.25284,24.03053-4.748.06162-6.77787.39024-28.31264.39024-28.31264Z"/><g class="cls-12"><path class="cls-9" d="M161.61143,656.21125a27.00185,27.00185,0,0,0-13.05393,2.316A28.0071,28.0071,0,0,0,134.872,672.63392q9.264-1.05272,18.52808-2.10547Q157.50577,663.36984,161.61143,656.21125Z"/></g><path class="cls-10" d="M120.98494,637.121l4.32013,15.1616c-4.17617,2.48651-8.976,4.49108-13.778,10.25739a54.08774,54.08774,0,0,0-4.41905,6.13344,195.67278,195.67278,0,0,0,22.47922,1.39193c5.198-.00764,16.09665-.25284,24.03053-4.748.06162-6.77787.39024-28.31264.39024-28.31264Z"/><path class="cls-11" d="M118.03967,655.44488a14.31125,14.31125,0,0,1,8.41437-1.126,14.709,14.709,0,0,1,9.26918,6.01477"/><path class="cls-11" d="M123.2289,651.64828a14.31129,14.31129,0,0,1,8.41438-1.126,14.709,14.709,0,0,1,9.26918,6.01477"/><path class="cls-13" d="M45.69485,466.72778c2.1785,3.80649,1.6514,8.73662.79671,16.73073-.43218,4.0425-.84411,7.89536-2.39013,8.23258-1.31334.28646-3.61981-1.926-7.967-11.95052a26.56433,26.56433,0,0,1-10.3571,6.37362c-2.87514.93634-9.06652,2.37952-10.09156.53113-.53979-.97335-.01292-3.51927,9.29485-11.4194a20.20626,20.20626,0,0,1-9.56046,3.18681c-3.39137.211-8.69078-.37371-9.02924-2.12452-.22369-1.1573,1.64409-3.21757,11.41937-7.17033a25.31863,25.31863,0,0,1-10.62266,1.06229c-2.14756-.24908-5.92731-.68749-6.10806-1.859-.17464-1.13182,2.96062-3.26829,18.58969-7.70146C31.34282,457.86251,42.06863,460.39171,45.69485,466.72778Z"/><path class="cls-14" d="M112.53244,318.68715s-36.08953-11.26112-44.395,21.02423c-8.00032,31.09907-25.6276,98.345-39.96293,119.29669L47.19638,471.138c29.49771-34.73563,62.02791-117.16383,62.02791-117.16383S126.86778,325.30346,112.53244,318.68715Z"/><path class="cls-15" d="M86.24405,438.23583l38.19723-10.06715-7.24174-60.06933,7.24174-56.61631-16.80682-11.43738C88.52084,303.3919,68.32411,328.63181,69.8248,347.978l3.33556,52.53833Z"/><path class="cls-13" d="M265.81927,466.72778c-2.1785,3.80649-1.6514,8.73662-.79671,16.73073.43217,4.0425.84411,7.89536,2.39012,8.23258,1.31335.28646,3.61982-1.926,7.967-11.95052a26.56446,26.56446,0,0,0,10.35711,6.37362c2.87514.93634,9.06652,2.37952,10.09156.53113.53979-.97335.01292-3.51927-9.29485-11.4194a20.20626,20.20626,0,0,0,9.56046,3.18681c3.39137.211,8.69078-.37371,9.02923-2.12452.2237-1.1573-1.64408-3.21757-11.41936-7.17033a25.31858,25.31858,0,0,0,10.62265,1.06229c2.14757-.24908,5.92732-.68749,6.10807-1.859.17463-1.13182-2.96063-3.26829-18.58969-7.70146C280.1713,457.86251,269.44549,460.39171,265.81927,466.72778Z"/><path class="cls-14" d="M197.98168,318.68715s36.08953-11.26112,44.395,21.02423c8.00032,31.09907,25.62759,98.345,39.96293,119.29669L263.31774,471.138C233.82,436.40234,201.28983,353.97414,201.28983,353.97414S183.64634,325.30346,197.98168,318.68715Z"/><path class="cls-15" d="M224.27006,438.23583l-38.19722-10.06715,7.24174-60.06933L186.07284,311.483l16.80682-11.43738c19.11362,3.34624,39.31035,28.58615,37.80966,47.93236l-3.33556,52.53833Z"/><path class="cls-16" d="M65.037,190.13952c-2.4223-.065-10.71169.0134-17.55955,6.066-1.76935,1.56388-5.49049,4.85284-6.38529,9.89721-1.76189,9.93252,8.04538,23.22587,17.55955,21.71,5.592-.891,10.25292-6.76564,12.13205-14.04761Q67.91042,201.95231,65.037,190.13952Z"/><path class="cls-16" d="M69.18747,212.16877c-2.62656-5.19674-7.63967-8.22847-12.45131-7.66237a11.33881,11.33881,0,0,0-6.70456,3.51191"/><path class="cls-16" d="M252.47072,190.13952c2.4223-.065,10.71168.0134,17.55954,6.066,1.76936,1.56388,5.4905,4.85284,6.3853,9.89721,1.76189,9.93252-8.04538,23.22587-17.55956,21.71-5.592-.891-10.25292-6.76564-12.132-14.04761Z"/><path class="cls-16" d="M248.32028,212.16877c2.62656-5.19674,7.63966-8.22847,12.45131-7.66237a11.33881,11.33881,0,0,1,6.70456,3.51191"/><path class="cls-17" d="M263.11581,191.45109c0,57.79442-46.85163,84.64605-104.646,84.64605s-104.646-26.85163-104.646-84.64605S100.67534,66.805,158.46976,66.805,263.11581,133.65667,263.11581,191.45109Z"/><g class="cls-18"><path class="cls-19" d="M155.47041,59.48078C84.981,87.44182,49.74216,167.82477,69.18747,220.48865c19.95117,54.0339,89.53722,58.30486,93.086,58.96062-6.7,3.2005-48.39843,22.31488-90.14172,2.83466-45.57727-21.26938-61.26623-74.57553-56.69287-112.252C22.41573,112.55566,80.04659,62.62968,155.47041,59.48078Z"/></g><path class="cls-20" d="M263.11581,191.45109c0,57.79442-46.85163,84.64605-104.646,84.64605s-104.646-26.85163-104.646-84.64605S100.67534,66.805,158.46976,66.805,263.11581,133.65667,263.11581,191.45109Z"/><path class="cls-4" d="M145.23661,84.65734a71.91924,71.91924,0,0,0,29.8021,19.597c4.41835,1.48272,32.99576,11.07311,45.69923-3.14255,7.08242-7.92548,8.07911-21.96166,2.93589-25.99-5.33762-4.1807-14.51586,4.58863-22.68672.3723a13.67109,13.67109,0,0,1-5.991-6.934"/><path class="cls-7" d="M138.47783,170.19393c4.17492,16.41253-7.42185,33.52835-25.9021,38.22924s-32.166-5.98372-36.3409-22.39625S78.97676,153.689,97.457,148.98813,134.30291,153.78139,138.47783,170.19393Z"/><circle class="cls-21" cx="112.39561" cy="173.91066" r="15.93173"/><polygon class="cls-7" points="107.442 174.27 82.611 180.516 95.037 187.714 107.442 174.27"/><path class="cls-22" d="M76.23482,186.0269c4.53256,15.61273,18.55368,24.24779,34.46576,21.96007a37.501,37.501,0,0,0,14.17059-5.12175,29.74721,29.74721,0,0,1-13.85907,6.93308c-16.41725,3.59086-32.94759-6.65754-34.77728-23.7714Z"/><path class="cls-22" d="M75.06752,176.51515c-2.08943-18.12448,14.81015-31.008,31.78354-30.80374,8.33617.17188,16.95824,2.73661,23.19622,8.45652a28.49275,28.49275,0,0,1,9.27043,22.09687,31.53253,31.53253,0,0,0-11.29053-19.71724c-18.936-14.2105-50.70143-5.70466-52.95966,19.96759Z"/><path class="cls-7" d="M178.46169,170.19393c-4.17492,16.41253,7.42184,33.52835,25.9021,38.22924s32.166-5.98372,36.34089-22.39625-2.74192-32.3379-21.22217-37.03879S182.63661,153.78139,178.46169,170.19393Z"/><circle class="cls-21" cx="204.26389" cy="173.91066" r="15.93173"/><polygon class="cls-7" points="199.311 174.27 180.823 178.92 186.905 187.714 199.311 174.27"/><path class="cls-22" d="M240.70473,186.0269c-1.83438,17.12239-18.36154,27.35951-34.77737,23.77119a29.745,29.745,0,0,1-13.859-6.93287,37.50446,37.50446,0,0,0,14.17077,5.12195c15.91333,2.28992,29.93806-6.35535,34.46564-21.96027Z"/><path class="cls-22" d="M241.872,176.51515c-2.26-25.67886-34.03069-34.17455-52.95975-19.9676a31.53315,31.53315,0,0,0-11.29044,19.71724,28.49453,28.49453,0,0,1,9.27045-22.0968c6.23829-5.72014,14.85989-8.28444,23.19639-8.45683,16.96947-.208,33.87826,12.6881,31.78335,30.804Z"/><path class="cls-23" d="M196.508,216.79061c-10.40266-9.04572-25.526,3.6442-38.03822,3.6442s-27.63568-12.68992-38.03834-3.6442c-10.40266,9.04584,4.84108,34.31627,38.03834,34.31627S206.9107,225.83645,196.508,216.79061Z"/><ellipse class="cls-24" cx="91.38528" cy="224.42297" rx="9.04889" ry="14.94877" transform="translate(-136.02353 308.10197) rotate(-88.04576)"/><ellipse class="cls-24" cx="225.55424" cy="225.0452" rx="9.04889" ry="14.94877" transform="translate(-7.05178 442.7939) rotate(-88.04576)"/><path class="cls-22" d="M87.53273,139.38628c5.95829-16.22016,26.76027-23.69765,41.40258-13.92674a28.46821,28.46821,0,0,1,10.47145,12.226,40.80935,40.80935,0,0,0-12.04358-9.502c-14.16213-7.27657-30.55808-1.09438-39.83045,11.20279Z"/><path class="cls-22" d="M177.53273,139.38628c5.95829-16.22016,26.76027-23.69765,41.40258-13.92674a28.46821,28.46821,0,0,1,10.47145,12.226,40.80935,40.80935,0,0,0-12.04358-9.502c-14.16213-7.27657-30.55808-1.09438-39.83045,11.20279Z"/><path class="cls-25" d="M199.09083,373.39614a37.41426,37.41426,0,0,1-74.82851,0c.13819-19.59051,16.94934-35.87494,37.41431-37.41424C182.28173,334.43206,199.09083,352.73283,199.09083,373.39614Z"/><polyline class="cls-26" points="168.773 360.971 168.773 396.827 145.943 396.827 145.943 360.971"/><polyline class="cls-27" points="168.773 360.049 146.574 360.049 150.538 352.641 171.944 352.641"/><path class="cls-28" d="M172.94806,352.403l-22.41039.23851-.03611-2.55764a2.62044,2.62044,0,0,1,2.62018-2.65742h17.20588a2.62044,2.62044,0,0,1,2.62044,2.62043Z"/><polygon class="cls-27" points="177.409 359.31 177.409 396.827 169.022 396.827 168.773 360.049 172.753 352.927 177.409 359.31"/><path class="cls-29" d="M150.03221,374.264l.18449-7.16395.02655-1.03126a1.00809,1.00809,0,0,0-2.01494,0l-.18448,7.164-.02656,1.03126a1.00809,1.00809,0,0,0,2.01494,0Z"/><circle class="cls-29" cx="149.19537" cy="363.35514" r="1.05484"/><path class="cls-30" d="M109.417,306.03711C99.63092,310.98046,90.07687,317.943,84.77023,327.534"/><path class="cls-31" d="M221.85182,62.5531A904.98376,904.98376,0,0,1,46.24068,122.321L29.42107,72.90124c-3.16927-9.312,2.40472-19.63231,12.44984-23.05109L181.10546,2.46277C191.15058-.956,201.863,3.82139,205.03221,13.13338Z"/><path class="cls-32" d="M66.32477,112.89049a4.33078,4.33078,0,0,1-5.56916-2.48367L46.80522,69.41751a4.48481,4.48481,0,0,1,8.467-2.88167l13.95039,40.98931A4.33078,4.33078,0,0,1,66.32477,112.89049Z"/><path class="cls-32" d="M88.45038,105.36021a4.33078,4.33078,0,0,1-5.56916-2.48367L68.93083,61.88723a4.48481,4.48481,0,0,1,8.467-2.88167L91.34819,99.99487A4.33078,4.33078,0,0,1,88.45038,105.36021Z"/><path class="cls-32" d="M110.576,97.82993a4.33077,4.33077,0,0,1-5.56916-2.48367L91.05645,54.357a4.4848,4.4848,0,0,1,8.467-2.88166L113.4738,92.4646A4.33077,4.33077,0,0,1,110.576,97.82993Z"/><path class="cls-32" d="M132.7016,90.29966a4.33079,4.33079,0,0,1-5.56916-2.48367L113.18206,46.82668a4.4848,4.4848,0,0,1,8.467-2.88167l13.95039,40.98931A4.33078,4.33078,0,0,1,132.7016,90.29966Z"/><path class="cls-32" d="M154.82722,82.76938a4.33079,4.33079,0,0,1-5.56917-2.48367L135.30767,39.2964a4.4848,4.4848,0,0,1,8.467-2.88166L157.725,77.404A4.33078,4.33078,0,0,1,154.82722,82.76938Z"/><path class="cls-32" d="M176.95283,75.2391a4.33078,4.33078,0,0,1-5.56917-2.48367L157.43328,31.76612a4.4848,4.4848,0,0,1,8.467-2.88166l13.95039,40.98931A4.33077,4.33077,0,0,1,176.95283,75.2391Z"/><path class="cls-32" d="M200.18472,67.33231a4.33077,4.33077,0,0,1-5.56916-2.48367L180.66517,23.85933a4.4848,4.4848,0,0,1,8.467-2.88166L203.08252,61.967A4.33077,4.33077,0,0,1,200.18472,67.33231Z"/><g class="cls-33"><path class="cls-34" d="M69.79228,85.42555c7.43251,20.785,7.11557,17.12246,11.4124,29.75324q-25.31762,5.80539-50.63518,11.61074C-19.04284,76.96687,40.89172-.78393,109.79163,23.70635L85.49938,38.02907C72.398,48.16059,64.84812,70.75147,69.79228,85.42555Z"/></g><path class="cls-35" d="M221.85182,62.5531A904.98376,904.98376,0,0,1,46.24068,122.321L29.42107,72.90124c-3.16927-9.312,2.40472-19.63231,12.44984-23.05109L181.10546,2.46277C191.15058-.956,201.863,3.82139,205.03221,13.13338Z"/></g></g></g></svg>