<svg xmlns="http://www.w3.org/2000/svg" viewBox="0 0 244.20112 529.86963"><defs><style>.cls-1{fill:#fff;}</style></defs><g id="Layer_2" data-name="Layer 2"><g id="selection_state" data-name="selection state"><path class="cls-1" d="M233.09517,358.95752a93.66265,93.66265,0,0,0-12.4917-4.24219l-.18262-.05176c-2.83252-6.12011-7.04395-17.5791-13.14014-38.89648-1.99365-6.99023-3.88916-13.95605-5.562-20.10254-1.37549-5.05371-2.6748-9.83008-3.78662-13.72266l-.30225-1.06152a39.23487,39.23487,0,0,0-2.59375-6.70312,41.14238,41.14238,0,0,0-4.2959-7.46192,162.32991,162.32991,0,0,0,20.18262-26.02539c9.61084-15.40234,29.60938-47.45215,24.17871-90.82178-.88379-7.061-2.831-22.61816-10.83545-39.23584a15.60263,15.60263,0,0,0,1.59034-2.875c4.94921-11.79394-5.84766-20.56347-12.29834-25.80322-5.34717-4.34326-24.73584-19.1333-49.72852-27.09814a105.648,105.648,0,0,0-21.88428-4.61524c.8042-.50146,1.50049-.94531,2.14258-1.38769l10.41992-7.1792-5.32129-11.481c-.82617-1.78174-2.04687-3.67383-5.60888-9.064-1.2085-1.82862-2.9917-4.52735-3.61573-5.56446L132.748,0,118.14839,9.86963A83.87586,83.87586,0,0,0,93.435,35.64453a91.421,91.421,0,0,0-7.03467,13.92969C70.75093,45.32031,54.96528,48.07959,41.248,57.84473c-10.689,7.60888-8.87061,17.25976-8.0586,20.03613a17.76728,17.76728,0,0,0,1.80323,4.1709C26.622,89.82568,20.12056,99.76123,15.3769,111.959a16.56726,16.56726,0,0,0-.5083,10.64893,93.7744,93.7744,0,0,0-6.4414,23.30078C5.05073,169.981,12.205,186.81592,19.124,203.09668c6.14551,14.46094,11.9502,28.12012,11.59571,48.92432-.19043,11.13476-3.63721,18.37011-6.97119,25.36718-4.02686,8.45118-9.54151,20.02637-1.273,32.29786a30.51592,30.51592,0,0,0,13.08007,10.80957c-3.37988,11.53906-7.85595,25.748-11.76171,34.16406l-.19678.05566a93.5445,93.5445,0,0,0-12.4917,4.24219C-.752,364.32666-.26519,373.88818.16743,376.69678a14.81467,14.81467,0,0,0,4.53516,8.7959,15.90346,15.90346,0,0,0,6.72363,7.89355q.19921.40429.4248.8125c1.95215,3.52148,7.89014,10.94824,22.02,7.3877a16.23192,16.23192,0,0,0,13.7085,3.43945c11.62354-2.53809,12.87647-14.26856,13.34814-18.68262.10108-.94824.20118-1.88379.28907-2.81152l8.78125.042,9.35644,65.31348-.9248-.15235,5.21728,33.1416-3.248,1.49708c-15.30713.63281-28.58741,1.59863-38.83594,2.834a121.13781,121.13781,0,0,0-15.95459,2.76758c-14.04932,3.72656-16.147,12.39551-16.147,17.23144,0,2.52344.79785,11.10157,11.06347,15.52246a44.75345,44.75345,0,0,0,8.60157,2.53418,207.6049,207.6049,0,0,0,22.81005,3.01172c18.98926,1.67285,44.14258,2.59473,70.82618,2.59473s51.83691-.92188,70.82617-2.59473a207.60514,207.60514,0,0,0,22.81006-3.01172,44.75355,44.75355,0,0,0,8.60156-2.53418c10.26562-4.42089,11.06348-12.999,11.06348-15.52246,0-4.85351-2.11573-13.5498-16.28614-17.26758a123.93011,123.93011,0,0,0-16.207-2.77832c-10.49219-1.248-24.07324-2.21582-39.70508-2.83691l-3.15625-1.45312,5.21778-33.14356-1.083.17871,9.3584-65.331,8.78174-.043c.0874.92871.1875,1.86523.28906,2.81445.47265,4.415,1.72754,16.14356,13.34082,18.67774a16.23709,16.23709,0,0,0,13.71582-3.4375c14.13086,3.55371,20.06787-3.86719,22.02051-7.38965q.22559-.40723.4248-.8125a15.91365,15.91365,0,0,0,6.72266-7.8916,14.8122,14.8122,0,0,0,4.53467-8.793C244.46626,373.896,244.95942,364.32959,233.09517,358.95752ZM27.6905,369.14594c-.71625.20318-1.38775.398-2.02905.58734l-1.04138-1.4115-.70557-1.95117a11.1831,11.1831,0,0,1,4.7746,2.56994C28.3567,369.00665,28.02571,369.06677,27.6905,369.14594Zm40.31092,3.08795c.10107-.15625.20312-.31543.30419-.47266l.105.7334Zm107.78857.26074.105-.73438c.10156.15821.20361.31641.30469.47364Zm43.793-4.17871-1.04517,1.41687c-.64081-.18915-1.31183-.38385-2.0274-.58685-.335-.07911-.66583-.13917-.998-.20527a11.17364,11.17364,0,0,1,4.77417-2.57006Z"/></g></g></svg>