<svg xmlns="http://www.w3.org/2000/svg" viewBox="0 0 296.73102 568.56104"><defs><style>.cls-1{fill:#fff;}</style></defs><g id="Layer_2" data-name="Layer 2"><g id="selection_state" data-name="selection state"><path class="cls-1" d="M277.55869,83.09863l4.957-9.061,14.2153-6.22523-46.06-16.62829c-15.56543-5.20312-28.56152-4.70752-38.625,1.47119-2.23828,1.374-4.38184,2.856-6.34082,4.3086q.063-.55152.12988-1.12012c.53516-4.55371,1.1416-9.71533-.05078-15.5083-3.09277-15.042-16.14355-26.313-39.89746-34.45752L148.74326,0l-1.00489,7.0166-5.06054,12.78613-18.8584-1.77587,1.31738,11.49072-2.21973-.80908L104.86044,53.314l-16.708,44.16211a49.21877,49.21877,0,0,0-12.54981,16.53077c-17.65332,12.07959-15.41406,26.5039-14.29492,33.71875a25.02915,25.02915,0,0,1,.41211,3.66162c-1.55957,4.66748-3.457,9.42724-5.293,14.03125-9.11914,22.87011-20.46875,51.33252,7.43164,83.51611,9.29,10.7168,17.26074,17.82324,24.65723,23.14746-17.72168,12.001-31.292,31.23975-37.41407,54.48779a241.97389,241.97389,0,0,1-13.7539,29.458,311.13782,311.13782,0,0,1-18.2461,29.05664,70.1527,70.1527,0,0,0-9.02539,3.958C-.46182,394.83447-.34854,403.32178.1915,406.7124a15.04579,15.04579,0,0,0,4.4209,8.67969,15.89762,15.89762,0,0,0,6.88183,8.78027,17.3543,17.3543,0,0,0,.72949,1.63184c1.11426,2.18945,7.14649,12.20019,22.41309,7.80469a15.923,15.923,0,0,0,14.84082,3.61425c10.75879-2.918,12.04981-13.34668,12.46875-19.17968.44434-.42969.86914-.84668,1.28223-1.25879l23.90625,80.35644,4.96875,21.43848-8.23633,3.82031c-11.583.66992-21.61328,1.55274-29.49121,2.60352a102.36242,102.36242,0,0,0-14.42383,2.75293C26.72763,531.58447,24.753,540.05713,24.753,544.76709c0,2.51172.792,11.05469,10.98145,15.51367a44.33246,44.33246,0,0,0,8.6289,2.584,204.49063,204.49063,0,0,0,22.81446,3.06054c18.97949,1.7002,44.11523,2.63575,70.77832,2.63575,26.66211,0,51.79882-.93555,70.77734-2.63575a204.4904,204.4904,0,0,0,22.81445-3.06054,44.33236,44.33236,0,0,0,8.62891-2.584c10.18945-4.459,10.98144-13.00195,10.98144-15.51367,0-3.64551-1.35937-12.5625-13.95117-16.62891a81.00188,81.00188,0,0,0-12.4082-2.67089c-5.71094-.86524-12.88672-1.6377-21.18457-2.28614l-9.9707-4.61133,5.958-25.708,12.7793-42.95313a20.18827,20.18827,0,0,0,19.44727.52149c4.085,2.50976,10.94822,3.48235,14.0017,3.36021a16.7912,16.7912,0,0,0,15.57252-12.08385c5.13078-1.3667,8.34837-2.87172,11.42089-5.81152a22.00388,22.00388,0,0,0,6.166-13.07031,19.58709,19.58709,0,0,0,.04883-2.39258,15.55727,15.55727,0,0,0,2.666-5.03516,15.02073,15.02073,0,0,0,4.42188-8.67968c.543-3.38379.665-11.877-9.88281-17.67481a70.17556,70.17556,0,0,0-9.02637-3.958,311.28072,311.28072,0,0,1-18.24121-29.04687q-.32373-.58594-.63965-1.168a255.12164,255.12164,0,0,1-.69336-29.62695c.52246-26.2295,2.7041-53.07276,4.81348-79.03174l.5957-7.355c.19238-2.38233.40039-4.773.60937-7.16992,1.40137-16.09229,2.85059-32.73292-.02343-49.77881A130.55133,130.55133,0,0,0,249.41318,164.46l-.252-4.44531,16.07325-5.24317L261.627,142.251l13.49512-6.71875-4.49121-11.9834q.24756-.15307.49414-.30567l13.43164-8.3081-6.80566-9.832,13.18847-8.65235ZM24.8248,398.96307l-.68311-1.54852a7.95886,7.95886,0,0,1,2.49414.89075Q25.68222,398.6455,24.8248,398.96307Z"/></g></g></svg>