<svg xmlns="http://www.w3.org/2000/svg" xmlns:xlink="http://www.w3.org/1999/xlink" viewBox="0 0 251.18005 492.07807"><defs><style>.cls-1,.cls-13,.cls-19,.cls-23,.cls-4,.cls-6{fill:none;}.cls-2{fill:#a36c6c;opacity:0.2;}.cls-14,.cls-3{fill:#ffa6bd;stroke:#ef8ba8;}.cls-10,.cls-11,.cls-12,.cls-13,.cls-14,.cls-19,.cls-23,.cls-3,.cls-4,.cls-5,.cls-6,.cls-7,.cls-8{stroke-miterlimit:10;}.cls-3,.cls-7,.cls-8{stroke-width:1.46571px;}.cls-4{stroke:#ffd9e5;stroke-linecap:round;}.cls-19,.cls-4{stroke-width:2.19856px;}.cls-16,.cls-4{opacity:0.4;}.cls-11,.cls-5,.cls-7{fill:#ffe9e1;}.cls-5{stroke:#e27d9f;stroke-width:1.21621px;}.cls-6{stroke:#d8759b;stroke-width:2.1801px;}.cls-11,.cls-7{stroke:#e8cac1;}.cls-8{fill:#ffcd8a;stroke:#f4be7d;}.cls-9{fill:#fff;}.cls-10,.cls-12{fill:#c98d85;}.cls-10,.cls-12,.cls-13,.cls-19{stroke:#b2746f;}.cls-10{stroke-width:1.74241px;}.cls-11{stroke-width:1.79914px;}.cls-12,.cls-13{stroke-width:1.58212px;}.cls-14{stroke-width:1.86063px;}.cls-15{fill:#ce8680;}.cls-16{fill:#bc6464;}.cls-17{clip-path:url(#clip-path);}.cls-18{fill:#b56f6f;opacity:0.51;}.cls-20{fill:#fff4f3;}.cls-21{fill:#352727;}.cls-22{fill:#8e5552;}.cls-23{stroke:#a86865;stroke-width:2.93142px;}</style><clipPath id="clip-path"><path class="cls-1" d="M201.89953,130.24415c0,41.11914-35.57582,81.78134-79.4608,81.78134s-79.46081-40.6622-79.46081-81.78134,35.57582-67.12423,79.46081-67.12423S201.89953,89.125,201.89953,130.24415Z"/></clipPath></defs><g id="Layer_2" data-name="Layer 2"><g id="instruction_character" data-name="instruction character"><ellipse class="cls-2" cx="123.54682" cy="483.4155" rx="98.30141" ry="8.66258"/><path class="cls-3" d="M150.50634,463.183H127.22352V358.9124h-3.95V463.183H99.9907L54.05532,280.92929c-2.63647-31.55745,22.31839-58.78481,53.689-58.80425h35.0084a53.90968,53.90968,0,0,1,53.689,58.80425Z"/><rect class="cls-1" x="123.27352" y="358.91241" width="3.95001" height="115.08751"/><path class="cls-4" d="M88.82171,231.91486c-7.17181,3.62276-14.17354,8.7253-18.06254,15.75408"/><path class="cls-5" d="M154.64258,457.33931,150.258,470.25915c3.55869,2.11886,7.64884,3.827,11.74082,8.74076a46.09,46.09,0,0,1,3.76566,5.22656,166.73826,166.73826,0,0,1-19.15549,1.18612c-4.42945-.0065-13.71664-.21545-20.47743-4.04594-.05251-5.77571-.33254-24.1264-.33254-24.1264Z"/><path class="cls-6" d="M156.44917,472.95388a12.1953,12.1953,0,0,0-7.17025-.9595,12.53414,12.53414,0,0,0-7.89866,5.12544"/><path class="cls-6" d="M152.0272,469.71864a12.19518,12.19518,0,0,0-7.17024-.9595,12.53415,12.53415,0,0,0-7.89866,5.12543"/><path class="cls-5" d="M95.85447,457.23918,100.239,470.159c-3.55869,2.11886-7.64883,3.827-11.74082,8.74076a46.09,46.09,0,0,0-3.76566,5.22656,166.73826,166.73826,0,0,0,19.15549,1.18612c4.42946-.0065,13.71664-.21545,20.47743-4.04594.05251-5.77571.33254-24.1264.33254-24.1264Z"/><path class="cls-6" d="M94.04788,472.85375a12.19521,12.19521,0,0,1,7.17025-.9595,12.53411,12.53411,0,0,1,7.89866,5.12544"/><path class="cls-6" d="M98.46985,469.61851a12.19521,12.19521,0,0,1,7.17025-.9595,12.53418,12.53418,0,0,1,7.89866,5.12543"/><circle class="cls-5" cx="124.5389" cy="278.84468" r="31.30344"/><path class="cls-7" d="M136.997,257.99779c-4.16131-1.79611-8.53572-.04177-14.37485,2.29995-7.83259,3.14118-16.559,6.64078-18.97477,15.52481-2.2182,8.15741,1.62426,18.13234,9.19991,22.42475,10.84,6.142,25.42128-1.56186,30.47457-12.07485C148.25155,275.91648,144.87675,261.39888,136.997,257.99779Z"/><circle class="cls-8" cx="127.65296" cy="281.01694" r="7.46166"/><path class="cls-9" d="M124.66969,275.82947a4.057,4.057,0,0,0-1.81661,1.66351,5.07616,5.07616,0,0,0-.65085,2.12728,1.18407,1.18407,0,0,0,.34632.83608,1.1824,1.1824,0,0,0,1.67215,0,1.34381,1.34381,0,0,0,.34632-.83608q.00679-.069.01577-.13772l-.04223.31432a3.92627,3.92627,0,0,1,.26322-.97462l-.11919.28245a3.5,3.5,0,0,1,.4424-.7584l-.18489.2393a3.19836,3.19836,0,0,1,.52612-.52629l-.23931.18489a2.94874,2.94874,0,0,1,.63433-.3728,1.1806,1.1806,0,0,0,.54338-.70664,1.20841,1.20841,0,0,0-.11919-.9111,1.19345,1.19345,0,0,0-.70664-.54338l-.31433-.04224a1.177,1.177,0,0,0-.59677.16144Z"/><path class="cls-10" d="M32.0134,346.28338c1.60222,3.05591,1.338,7.05449.90946,13.53812-.21667,3.27867-.42319,6.40353-1.49616,6.69534-.91148.24787-2.56949-1.5157-5.81792-9.58043a18.22225,18.22225,0,0,1-7.10123,5.2866c-1.98888.79306-6.28385,2.03671-7.03895.5524-.39763-.78163-.08325-2.84958,6.25271-9.35956a12.80092,12.80092,0,0,1-6.6119,2.6964c-2.36482.212-6.07941-.19728-6.35279-1.6109-.18069-.93441,1.08072-2.62537,7.82655-5.94461a15.3648,15.3648,0,0,1-7.39878.98894C3.67881,349.37,1.029,349.06082.878,348.11441c-.14587-.91438,1.99941-2.6824,12.82466-6.4616C21.79984,339.27864,29.34642,341.19667,32.0134,346.28338Z"/><path class="cls-3" d="M56.53922,260.034a268.41392,268.41392,0,0,1-20.18894,47.02112,325.11635,325.11635,0,0,1-21.71043,34.06321c6.13773,4.11151,13.31838,8.92788,19.45611,13.03938,5.88326-5.51657,6.88277-7.41321,13.75293-15.36764,11.47692-13.28827,12.947-19.07588,15.582-25.67909"/><path class="cls-10" d="M219.16665,346.28338c-1.60222,3.05591-1.338,7.05449-.90946,13.53812.21667,3.27867.42319,6.40353,1.49616,6.69534.91148.24787,2.56948-1.5157,5.81792-9.58043a18.22225,18.22225,0,0,0,7.10123,5.2866c1.98888.79306,6.28385,2.03671,7.03894.5524.39764-.78163.08326-2.84958-6.2527-9.35956a12.80092,12.80092,0,0,0,6.61189,2.6964c2.36483.212,6.07942-.19728,6.3528-1.6109.18069-.93441-1.08072-2.62537-7.82655-5.94461a15.3648,15.3648,0,0,0,7.39878.98894c1.50558-.17566,4.15543-.48486,4.30641-1.43127.14587-.91438-1.99942-2.6824-12.82466-6.4616C229.38021,339.27864,221.83362,341.19667,219.16665,346.28338Z"/><path class="cls-3" d="M194.42114,260.58658c6.34917,20.17808,7.03875,22.36254,20.40856,46.46858a329.34612,329.34612,0,0,0,21.7105,34.06319c-6.13773,4.11151-13.31839,8.92788-19.45611,13.03938-5.88326-5.51657-6.88277-7.41321-13.75293-15.36764-11.47692-13.28827-12.947-19.07588-15.582-25.67909"/><path class="cls-11" d="M49.04771,97.15076a88.03836,88.03836,0,0,0-9.556,28.25242c-6.8899,44.64844,24.19678,79.74883,30.32981,86.41918Q92.67277,182.9467,115.524,154.07107L87.27157,92.996Z"/><path class="cls-11" d="M194.3856,97.15076a88.03836,88.03836,0,0,1,9.556,28.25242c6.8899,44.64844-24.19678,79.74883-30.32981,86.41918q-22.85121-28.87566-45.70246-57.75129L156.16174,92.996Z"/><path class="cls-12" d="M57.42215,152.14846a18.90116,18.90116,0,0,0-12.8686,4.4455c-1.29668,1.1461-4.02373,3.55643-4.67949,7.25322-1.29121,7.27909,5.8961,17.02119,12.8686,15.91026,4.09812-.653,7.51391-4.95823,8.891-10.29486Z"/><path class="cls-13" d="M60.46382,168.2927c-1.92489-3.80845-5.59876-6.03027-9.125-5.6154a8.3097,8.3097,0,0,0-4.91347,2.57372"/><path class="cls-12" d="M187.4553,152.14846a18.90116,18.90116,0,0,1,12.8686,4.4455c1.29668,1.1461,4.02373,3.55643,4.67949,7.25322,1.29121,7.27909-5.8961,17.02119-12.8686,15.91026-4.09812-.653-7.51391-4.95823-8.891-10.29486Z"/><path class="cls-13" d="M184.41363,168.2927c1.92489-3.80845,5.59876-6.03027,9.125-5.6154a8.3097,8.3097,0,0,1,4.91347,2.57372"/><polyline class="cls-14" points="103.383 223.079 103.383 199.462 142.628 199.462 142.628 223.079"/><path class="cls-15" d="M201.89953,130.24415c0,41.11914-35.57582,81.78134-79.4608,81.78134s-79.46081-40.6622-79.46081-81.78134,35.57582-67.12423,79.46081-67.12423S201.89953,89.125,201.89953,130.24415Z"/><ellipse class="cls-16" cx="74.20653" cy="175.926" rx="6.63152" ry="10.95528" transform="matrix(0.0341, -0.99942, 0.99942, 0.0341, -104.1477, 244.09005)"/><ellipse class="cls-16" cx="172.53291" cy="175.64915" rx="6.63152" ry="10.95528" transform="translate(-8.89769 342.09183) rotate(-88.04576)"/><g class="cls-17"><path class="cls-18" d="M74.79573,57.265c-4.8642,7.00121-27.20082,45.73542-20.96771,85.21568,8.96594,56.7899,65.81606,71.56355,69.17752,72.95734l-75.63131,9.6796q-15.16491-58.79-30.32974-117.57993Z"/></g><path class="cls-19" d="M201.89953,130.24415c0,41.11914-35.57582,81.78134-79.4608,81.78134s-79.46081-40.6622-79.46081-81.78134,35.57582-67.12423,79.46081-67.12423S201.89953,89.125,201.89953,130.24415Z"/><path class="cls-20" d="M107.78754,139.75684c3.05961,12.028-5.43913,24.57142-18.98248,28.01649s-23.573-4.3852-26.6326-16.4132,2.00943-23.699,15.55277-27.14406S104.72793,127.72884,107.78754,139.75684Z"/><circle class="cls-21" cx="88.67306" cy="142.48067" r="11.67565"/><polygon class="cls-20" points="85.043 142.744 66.845 147.322 75.952 152.596 85.043 142.744"/><path class="cls-22" d="M62.17242,151.36011c3.20526,11.35068,13.731,17.82519,25.25848,16.09348a27.30294,27.30294,0,0,0,10.385-3.75342,21.90732,21.90732,0,0,1-10.15674,5.08093c-11.97529,2.66191-24.18516-4.92844-25.48669-17.421Z"/><path class="cls-22" d="M61.317,144.38938c-1.86358-21.1276,26.203-29.18867,40.29215-16.37708a20.85371,20.85371,0,0,1,6.79391,16.19361,23.10855,23.10855,0,0,0-8.27435-14.44986c-13.67428-10.455-37.34344-4.04666-38.81171,14.63333Z"/><path class="cls-20" d="M137.08991,139.75684c-3.05961,12.028,5.43913,24.57142,18.98248,28.01649s23.573-4.3852,26.6326-16.4132-2.00943-23.699-15.55277-27.14406S140.14952,127.72884,137.08991,139.75684Z"/><circle class="cls-21" cx="155.99918" cy="142.48067" r="11.67565"/><polygon class="cls-20" points="152.369 142.744 138.82 146.152 143.278 152.596 152.369 142.744"/><path class="cls-22" d="M182.705,151.36011c-1.305,12.49856-13.51182,20.08084-25.48679,17.4208a21.90534,21.90534,0,0,1-10.15664-5.08074,27.30658,27.30658,0,0,0,10.38513,3.75363c11.52745,1.73327,22.05661-4.74811,25.2583-16.09369Z"/><path class="cls-22" d="M183.56042,144.38938c-1.4707-18.68483-25.13956-25.08578-38.81183-14.63319a23.10844,23.10844,0,0,0-8.27417,14.44972,20.85388,20.85388,0,0,1,6.79389-16.19376c14.093-12.81485,42.15828-4.74385,40.29211,16.37723Z"/><path class="cls-22" d="M61.09655,123.53354c5.01391-9.26862,17.78974-13.481,27.42137-9.34849-4.73839,1.833-9.14628,2.948-13.77627,4.53842-4.65318,1.52348-8.80622,3.271-13.6451,4.81007Z"/><path class="cls-22" d="M181.59057,123.53354c-4.83717-1.53845-8.99317-3.287-13.6451-4.81006-4.63121-1.59089-9.03612-2.70495-13.77636-4.53812,9.63114-4.13281,22.40758.07934,27.42146,9.34818Z"/><path class="cls-11" d="M36.629,142.88938c9.51987-13.42983,17.979-20.53049,28.63123-33.36082,14.219,8.62112,19.93978,11.1789,34.27213,21.3426,15.81584-12.35089,21.98138-17.8213,38.65691-31.54247,12.14345,12.78357,12.487,12.78357,23.11052,26.35253,10.68909-7.16095,11.81846-8.578,22.27889-14.11267l23.96968,33.14955a147.58223,147.58223,0,0,0-5.60992-58.64922C192.71427,56.30582,164.66606.72153,124.41942.9c-46.50182.2062-74.02729,74.69922-77.519,84.1489C37.35849,110.87257,36.095,127.28677,36.629,142.88938Z"/><path class="cls-11" d="M54.951,65.03864c7.1399-3.8533,5.94992-2.60662,13.08982-6.45992l17.07086,2.79505L106.46033,35.119"/><line class="cls-11" x1="93.74566" y1="50.75565" x2="103.40037" y2="54.32878"/><path class="cls-23" d="M111.43242,171.93658a13.395,13.395,0,0,0,10.28882,9.556c5.88229,1.0709,11.50368-2.90387,13.39339-9.556"/></g></g></svg>