<?xml version="1.0" encoding="utf-8"?>
<!-- Generator: Adobe Illustrator 27.3.0, SVG Export Plug-In . SVG Version: 6.00 Build 0)  -->
<svg version="1.1" id="Layer_1" xmlns="http://www.w3.org/2000/svg" xmlns:xlink="http://www.w3.org/1999/xlink" x="0px" y="0px"
	 viewBox="0 0 296.7 568.6" style="enable-background:new 0 0 296.7 568.6;" xml:space="preserve">
<style type="text/css">
	.st0{fill:#FFFFFF;}
</style>
<g id="Layer_2_00000083077142180078108860000001517535963959058098_">
	<g id="selection_state">
		<path class="st0" d="M277.6,83.1l5-9.1l14.2-6.2l-46.1-16.6c-15.6-5.2-28.6-4.7-38.6,1.5c-2.2,1.4-4.4,2.9-6.3,4.3
			c0-0.4,0.1-0.7,0.1-1.1c0.5-4.6,1.1-9.7-0.1-15.5c-3.1-15-16.1-26.3-39.9-34.5L148.7,0l-1,7l-5.1,12.8L123.8,18l1.3,11.5l-2.2-0.8
			l-18.1,24.6L88.2,97.5c-5.3,4.6-9.6,10.2-12.5,16.5c-17.7,12.1-15.4,26.5-14.3,33.7c0.2,1.2,0.4,2.4,0.4,3.7
			c-1.6,4.7-3.5,9.4-5.3,14c-9.1,22.9-20.5,51.3,7.4,83.5c9.3,10.7,17.3,17.8,24.7,23.1c-17.7,12-31.3,31.2-37.4,54.5
			c-3.9,10.1-8.5,20-13.8,29.5c-5.5,10-11.6,19.7-18.2,29.1c-3.1,1.1-6.1,2.4-9,4c-10.5,5.8-10.4,14.3-9.9,17.7
			c0.5,3.3,2,6.4,4.4,8.7c1.2,3.7,3.6,6.8,6.9,8.8c0.2,0.6,0.5,1.1,0.7,1.6c1.1,2.2,7.1,12.2,22.4,7.8c4,3.7,9.6,5,14.8,3.6
			c10.8-2.9,12-13.3,12.5-19.2c0.4-0.4,0.9-0.8,1.3-1.3l23.9,80.4l5,21.4l-8.2,3.8c-11.6,0.7-21.6,1.6-29.5,2.6
			c-4.9,0.6-9.7,1.5-14.4,2.8c-13.2,3.8-15.2,12.3-15.2,17c0,2.5,0.8,11.1,11,15.5c2.8,1.2,5.7,2,8.6,2.6c7.5,1.4,15.2,2.5,22.8,3.1
			c19,1.7,44.1,2.6,70.8,2.6c26.7,0,51.8-0.9,70.8-2.6c7.7-0.6,15.3-1.6,22.8-3.1c3-0.6,5.8-1.4,8.6-2.6c10.2-4.5,11-13,11-15.5
			c0-3.6-1.4-12.6-14-16.6c-4.1-1.2-8.2-2.1-12.4-2.7c-5.7-0.9-12.9-1.6-21.2-2.3l-10-4.6l6-25.7l12.8-43c6,3.5,13.3,3.7,19.4,0.5
			c4.1,2.5,10.9,3.5,14,3.4c7.3-0.2,13.5-5.1,15.6-12.1c5.1-1.4,8.3-2.9,11.4-5.8c3.5-3.5,5.6-8.1,6.2-13.1c0.1-0.8,0.1-1.6,0-2.4
			c1.2-1.5,2.1-3.2,2.7-5c2.4-2.3,4-5.4,4.4-8.7c0.5-3.4,0.7-11.9-9.9-17.7c-2.9-1.5-5.9-2.9-9-4c-6.6-9.3-12.7-19-18.2-29
			c-0.2-0.4-0.4-0.8-0.6-1.2c-0.8-9.9-1-19.7-0.7-29.6c0.5-26.2,2.7-53.1,4.8-79l0.6-7.4c0.2-2.4,0.4-4.8,0.6-7.2
			c1.4-16.1,2.9-32.7,0-49.8c-1-5.9-2.4-11.7-4.2-17.4l-0.3-4.4l16.1-5.2l-3.6-12.5l13.5-6.7l-4.5-12c0.2-0.1,0.3-0.2,0.5-0.3
			l13.4-8.3l-6.8-9.8l13.2-8.7L277.6,83.1z"/>
	</g>
</g>
</svg>
