<?xml version="1.0" encoding="UTF-8"?>
<svg id="hero_4-success" xmlns="http://www.w3.org/2000/svg" xmlns:xlink="http://www.w3.org/1999/xlink" viewBox="0 0 531.84 755">
  <defs>
    <style>
      .cls-1 {
        fill: #fff;
      }

      .cls-2, .cls-3, .cls-4, .cls-5, .cls-6, .cls-7, .cls-8, .cls-9, .cls-10, .cls-11, .cls-12, .cls-13, .cls-14, .cls-15, .cls-16, .cls-17, .cls-18, .cls-19 {
        stroke-miterlimit: 10;
      }

      .cls-2, .cls-3, .cls-4, .cls-12 {
        stroke-width: 2px;
      }

      .cls-2, .cls-12, .cls-16 {
        stroke: #8aa6c1;
      }

      .cls-2, .cls-16 {
        fill: #e1eaf9;
      }

      .cls-20 {
        fill: #92cfdd;
      }

      .cls-3, .cls-4, .cls-6, .cls-8, .cls-10, .cls-11, .cls-17 {
        stroke: #69a5b5;
      }

      .cls-3, .cls-7, .cls-8, .cls-21, .cls-15, .cls-18 {
        fill: none;
      }

      .cls-4, .cls-22, .cls-10, .cls-17 {
        fill: #8cc8dd;
      }

      .cls-23 {
        fill: #b78c74;
      }

      .cls-5 {
        fill: #ffe8d9;
        stroke: #efceb9;
      }

      .cls-5, .cls-15, .cls-18, .cls-19 {
        stroke-width: 3px;
      }

      .cls-24 {
        clip-path: url(#clippath-2);
      }

      .cls-6, .cls-25, .cls-14 {
        fill: #fff4f3;
      }

      .cls-6, .cls-14 {
        stroke-width: 2.64px;
      }

      .cls-7 {
        stroke: #8cc4e0;
        stroke-width: 2.56px;
      }

      .cls-8 {
        stroke-width: 2.69px;
      }

      .cls-26 {
        fill: #7ec6d6;
      }

      .cls-9 {
        fill: #a5daf2;
        stroke: #8dc5d8;
        stroke-width: 1.16px;
      }

      .cls-27 {
        fill: #a36c6c;
        opacity: .2;
      }

      .cls-28, .cls-13, .cls-19 {
        fill: #f9d6bd;
      }

      .cls-10 {
        stroke-width: 2.08px;
      }

      .cls-29 {
        fill: #352727;
      }

      .cls-30 {
        clip-path: url(#clippath-1);
      }

      .cls-11 {
        fill: #a5dfef;
        stroke-width: 2.05px;
      }

      .cls-12 {
        fill: #d4e2fc;
      }

      .cls-31 {
        clip-path: url(#clippath);
      }

      .cls-13 {
        stroke-width: 2.15px;
      }

      .cls-13, .cls-14, .cls-15, .cls-19 {
        stroke: #eabea0;
      }

      .cls-32 {
        fill: #e2ba9f;
        opacity: .38;
      }

      .cls-33 {
        fill: #8ad5ea;
      }

      .cls-16 {
        stroke-width: 1.97px;
      }

      .cls-17 {
        stroke-width: 2.23px;
      }

      .cls-34 {
        fill: #f7baba;
      }

      .cls-34, .cls-18 {
        opacity: .4;
      }

      .cls-18 {
        stroke: #b9effc;
        stroke-linecap: round;
      }
    </style>
    <clipPath id="clippath">
      <path class="cls-21" d="m289.89,700.3l-4.32,15.16c4.18,2.49,8.98,4.49,13.78,10.26,1.75,2.1,3.21,4.18,4.42,6.13-8.3.93-15.45,1.4-22.48,1.39-5.2,0-16.1-.25-24.03-4.75-.06-6.78-.39-28.31-.39-28.31l33.02.12Z"/>
    </clipPath>
    <clipPath id="clippath-1">
      <path class="cls-21" d="m221.72,700.3l4.32,15.16c-4.18,2.49-8.98,4.49-13.78,10.26-1.75,2.1-3.21,4.18-4.42,6.13,8.3.93,15.45,1.4,22.48,1.39,5.2,0,16.1-.25,24.03-4.75.06-6.78.39-28.31.39-28.31l-33.02.12Z"/>
    </clipPath>
    <clipPath id="clippath-2">
      <path class="cls-21" d="m365.85,254.63c0,57.79-46.85,84.65-104.65,84.65s-104.65-26.85-104.65-84.65,46.85-124.65,104.65-124.65,104.65,66.85,104.65,124.65Z"/>
    </clipPath>
  </defs>
  <ellipse class="cls-27" cx="256.49" cy="729.29" rx="111.35" ry="11.82"/>
  <path class="cls-5" d="m156.13,232.19c-2.4-10.45-11.92-33.5-6.87-56.78,4.15-19.12,20.46-52.78,55.5-65.14,20.37-7.19,36.34-.89,52.46-15.13,2.42-2.14,4.85-9.38,12.07-16.49,6.74-6.64,10.54-7.31,12.1-7.47,5.82-.6,11.97,2.58,14.95,7.36,4.43,7.11,2.19,18.24-6.65,25.13,9.82,2.81,23.66,4.9,35.35-1.9,8.33-4.84,10.1-11.01,16.64-11.4,10.09-.6,23.69,13.07,23.06,28.44-.52,12.62-10.54,24.01-24.56,26.99,4.76,3.61,11.83,7.68,20.38,7.58,10.84-.12,15.72-6.84,22.53-4.6,7.84,2.58,11.37,14.77,11.78,22.02,1.01,17.66-14.73,35.76-38.76,47.24-68.09.81-131.9,13.32-199.99,14.13Z"/>
  <path class="cls-10" d="m344.28,422.52l-56.21,278.81h-29.52v-156.21h-5.51v156.21h-29.51l-56.21-278.81c-2.06-35.34,26.05-65.12,61.45-65.12h54.07c35.4,0,63.5,29.79,61.45,65.12Z"/>
  <polyline class="cls-4" points="231.96 358.57 231.96 320.29 286.39 320.29 286.39 358.57"/>
  <g>
    <path class="cls-25" d="m289.89,700.3l-4.32,15.16c4.18,2.49,8.98,4.49,13.78,10.26,1.75,2.1,3.21,4.18,4.42,6.13-8.3.93-15.45,1.4-22.48,1.39-5.2,0-16.1-.25-24.03-4.75-.06-6.78-.39-28.31-.39-28.31l33.02.12Z"/>
    <g class="cls-31">
      <path class="cls-9" d="m249.26,719.39c2.65-.19,7.63-.16,13.05,2.32,8.97,4.09,12.72,11.92,13.69,14.11-6.18-.7-12.35-1.4-18.53-2.11-2.74-4.77-5.47-9.54-8.21-14.32Z"/>
    </g>
    <path class="cls-3" d="m289.89,700.3l-4.32,15.16c4.18,2.49,8.98,4.49,13.78,10.26,1.75,2.1,3.21,4.18,4.42,6.13-8.3.93-15.45,1.4-22.48,1.39-5.2,0-16.1-.25-24.03-4.75-.06-6.78-.39-28.31-.39-28.31l33.02.12Z"/>
    <path class="cls-7" d="m292.83,718.62c-1.22-.57-4.41-1.83-8.41-1.13-5.64.99-8.67,5.15-9.27,6.01"/>
    <path class="cls-7" d="m287.64,714.82c-1.22-.57-4.41-1.83-8.41-1.13-5.64.99-8.67,5.15-9.27,6.01"/>
  </g>
  <g>
    <path class="cls-25" d="m221.72,700.3l4.32,15.16c-4.18,2.49-8.98,4.49-13.78,10.26-1.75,2.1-3.21,4.18-4.42,6.13,8.3.93,15.45,1.4,22.48,1.39,5.2,0,16.1-.25,24.03-4.75.06-6.78.39-28.31.39-28.31l-33.02.12Z"/>
    <g class="cls-30">
      <path class="cls-9" d="m262.34,719.39c-2.65-.19-7.63-.16-13.05,2.32-8.97,4.09-12.72,11.92-13.69,14.11,6.18-.7,12.35-1.4,18.53-2.11,2.74-4.77,5.47-9.54,8.21-14.32Z"/>
    </g>
    <path class="cls-3" d="m221.72,700.3l4.32,15.16c-4.18,2.49-8.98,4.49-13.78,10.26-1.75,2.1-3.21,4.18-4.42,6.13,8.3.93,15.45,1.4,22.48,1.39,5.2,0,16.1-.25,24.03-4.75.06-6.78.39-28.31.39-28.31l-33.02.12Z"/>
    <path class="cls-7" d="m218.77,718.62c1.22-.57,4.41-1.83,8.41-1.13,5.64.99,8.67,5.15,9.27,6.01"/>
    <path class="cls-7" d="m223.96,714.82c1.22-.57,4.41-1.83,8.41-1.13,5.64.99,8.67,5.15,9.27,6.01"/>
  </g>
  <path class="cls-13" d="m452.18,316.1c-.33-4.37,2.26-8.6,6.46-15.45,2.13-3.47,4.15-6.77,5.69-6.41,1.31.31,2.44,3.29,2.07,14.21,2.55-.88,6.87-1.99,12.09-1.31,3,.39,9.21,1.74,9.34,3.85.07,1.11-1.5,3.18-13.3,6.32,2.13-.26,5.89-.42,10,1.23,3.15,1.27,7.69,4.07,7.24,5.79-.29,1.14-2.87,2.2-13.39,1.57,2.29.31,6.09,1.12,10.05,3.6,1.83,1.15,5.06,3.17,4.72,4.3-.33,1.1-4.08,1.68-20.1-1.02-11.73-2.52-20.33-9.41-20.88-16.69Z"/>
  <path class="cls-17" d="m303.87,380.91s11.12,46.31,38.45,27.22c26.32-18.39,94.45-66.58,116.95-78.76l-6.54-21.59c-41.26,15.71-141.64,55.91-141.64,55.91,0,0-11.42,3.29-7.22,17.24Z"/>
  <path class="cls-22" d="m325,501.41l-38.2-10.07,7.24-60.07-7.24-56.62,15.13-12.47c19.11,3.35,42.27,33.56,40.77,52.9l-17.7,86.32Z"/>
  <path class="cls-13" d="m61.52,318.06c.82-4.31-1.28-8.8-4.7-16.08-1.73-3.68-3.37-7.19-4.94-7.01-1.34.16-2.8,3-3.64,13.89-2.44-1.16-6.61-2.74-11.87-2.65-3.02.05-9.35.7-9.71,2.78-.19,1.1,1.13,3.33,12.51,7.77-2.08-.5-5.81-1.08-10.08.1-3.28.91-8.1,3.18-7.84,4.95.17,1.17,2.6,2.51,13.13,3.06-2.31.05-6.18.44-10.39,2.46-1.95.93-5.38,2.58-5.17,3.75.2,1.13,3.86,2.13,20.08,1.23,11.94-1.2,21.25-7.08,22.62-14.25Z"/>
  <path class="cls-17" d="m209.06,380.91s-13.86,46.31-41.19,27.22c-26.32-18.39-88.77-64-114.21-78.76l6.54-21.59c47.8,18.29,141.64,55.91,141.64,55.91,0,0,11.42,3.29,7.22,17.24Z"/>
  <g>
    <path class="cls-19" d="m167.77,253.32c-2.42-.06-10.71.01-17.56,6.07-1.77,1.56-5.49,4.85-6.39,9.9-1.76,9.93,8.05,23.23,17.56,21.71,5.59-.89,10.25-6.77,12.13-14.05-1.92-7.88-3.83-15.75-5.75-23.63Z"/>
    <path class="cls-19" d="m171.92,275.34c-2.63-5.2-7.64-8.23-12.45-7.66-3.45.41-5.78,2.55-6.7,3.51"/>
  </g>
  <g>
    <path class="cls-19" d="m355.2,253.32c2.42-.06,10.71.01,17.56,6.07,1.77,1.56,5.49,4.85,6.39,9.9,1.76,9.93-8.05,23.23-17.56,21.71-5.59-.89-10.25-6.77-12.13-14.05,1.92-7.88,3.83-15.75,5.75-23.63Z"/>
    <path class="cls-19" d="m351.05,275.34c2.63-5.2,7.64-8.23,12.45-7.66,3.45.41,5.78,2.55,6.7,3.51"/>
  </g>
  <g>
    <path class="cls-28" d="m365.85,254.63c0,57.79-46.85,84.65-104.65,84.65s-104.65-26.85-104.65-84.65,46.85-124.65,104.65-124.65,104.65,66.85,104.65,124.65Z"/>
    <g class="cls-24">
      <path class="cls-32" d="m258.2,122.66c-70.49,27.96-105.73,108.34-86.28,161.01,19.95,54.03,89.54,58.3,93.09,58.96-6.7,3.2-48.4,22.31-90.14,2.83-45.58-21.27-61.27-74.58-56.69-112.25,6.98-57.48,64.61-107.4,140.03-110.55Z"/>
    </g>
  </g>
  <path class="cls-15" d="m365.85,254.63c0,57.79-46.85,84.65-104.65,84.65s-104.65-26.85-104.65-84.65,46.85-124.65,104.65-124.65,104.65,66.85,104.65,124.65Z"/>
  <path class="cls-5" d="m247.97,147.83c5.16,5.59,14.95,14.61,29.8,19.6,4.42,1.48,33,11.07,45.7-3.14,7.08-7.93,8.08-21.96,2.94-25.99-5.34-4.18-14.52,4.59-22.69.37-2.75-1.42-4.66-3.93-5.99-6.93"/>
  <g>
    <g>
      <g>
        <g>
          <path class="cls-25" d="m241.21,233.37c4.17,16.41-7.42,33.53-25.9,38.23-18.48,4.7-32.17-5.98-36.34-22.4-4.17-16.41,2.74-32.34,21.22-37.04,18.48-4.7,36.85,4.79,41.02,21.21Z"/>
          <circle class="cls-29" cx="215.13" cy="237.09" r="15.93"/>
          <polygon class="cls-25" points="210.17 237.45 185.34 243.69 197.77 250.89 210.17 237.45"/>
        </g>
        <path class="cls-23" d="m178.97,249.2c4.53,15.61,18.55,24.25,34.47,21.96,4.94-.68,9.76-2.47,14.17-5.12-3.83,3.45-8.68,5.87-13.86,6.93-16.42,3.59-32.95-6.66-34.78-23.77h0Z"/>
        <path class="cls-23" d="m177.8,239.69c-2.09-18.12,14.81-31.01,31.78-30.8,8.34.17,16.96,2.74,23.2,8.46,6.17,5.54,9.63,13.92,9.27,22.1-1.34-7.9-5.31-15.07-11.29-19.72-18.94-14.21-50.7-5.7-52.96,19.97h0Z"/>
      </g>
      <g>
        <g>
          <path class="cls-25" d="m281.19,233.37c-4.17,16.41,7.42,33.53,25.9,38.23,18.48,4.7,32.17-5.98,36.34-22.4,4.17-16.41-2.74-32.34-21.22-37.04-18.48-4.7-36.85,4.79-41.02,21.21Z"/>
          <circle class="cls-29" cx="307" cy="237.09" r="15.93"/>
          <polygon class="cls-25" points="302.04 237.45 283.56 242.1 289.64 250.89 302.04 237.45"/>
        </g>
        <path class="cls-23" d="m343.44,249.2c-1.83,17.12-18.36,27.36-34.78,23.77-5.18-1.06-10.02-3.48-13.86-6.93,4.41,2.65,9.23,4.45,14.17,5.12,15.91,2.29,29.94-6.36,34.47-21.96h0Z"/>
        <path class="cls-23" d="m344.6,239.69c-2.26-25.68-34.03-34.17-52.96-19.97-5.98,4.65-9.95,11.82-11.29,19.72-.36-8.18,3.1-16.56,9.27-22.1,6.24-5.72,14.86-8.28,23.2-8.46,16.97-.21,33.88,12.69,31.78,30.8h0Z"/>
      </g>
    </g>
    <path class="cls-14" d="m299.24,279.97c-10.4-9.05-25.53,3.64-38.04,3.64s-27.64-12.69-38.04-3.64c-10.4,9.05,4.84,34.32,38.04,34.32s48.44-25.27,38.04-34.32Z"/>
    <ellipse class="cls-34" cx="194.12" cy="287.6" rx="9.05" ry="14.95" transform="translate(-99.93 471.8) rotate(-88.05)"/>
    <ellipse class="cls-34" cx="328.29" cy="288.22" rx="9.05" ry="14.95" transform="translate(29.04 606.49) rotate(-88.05)"/>
    <g>
      <path class="cls-23" d="m190.27,202.56c5.96-16.22,26.76-23.7,41.4-13.93,4.63,3.06,8.34,7.32,10.47,12.23-3.53-3.97-7.57-7.26-12.04-9.5-14.16-7.28-30.56-1.09-39.83,11.2h0Z"/>
      <path class="cls-23" d="m280.27,202.56c5.96-16.22,26.76-23.7,41.4-13.93,4.63,3.06,8.34,7.32,10.47,12.23-3.53-3.97-7.57-7.26-12.04-9.5-14.16-7.28-30.56-1.09-39.83,11.2h0Z"/>
    </g>
  </g>
  <g>
    <path class="cls-6" d="m293.82,436.57c0,20.66-16.75,37.41-37.41,37.41s-37.56-16.75-37.41-37.41c.14-19.59,16.95-35.87,37.41-37.41,20.61-1.55,37.41,16.75,37.41,37.41Z"/>
    <g>
      <polyline class="cls-16" points="263.51 424.15 263.51 460 240.68 460 240.68 424.15"/>
      <polyline class="cls-12" points="263.51 423.23 241.31 423.23 245.27 415.82 266.68 415.82"/>
      <path class="cls-2" d="m267.68,415.58l-22.41.24-.04-2.56c-.02-1.46,1.16-2.66,2.62-2.66h17.21c1.45,0,2.62,1.17,2.62,2.62v2.36Z"/>
      <polygon class="cls-12" points="272.14 422.49 272.14 460 263.75 460 263.51 423.23 267.48 416.1 272.14 422.49"/>
      <path class="cls-1" d="m244.76,437.44c.06-2.39.12-4.78.18-7.16l.03-1.03c.03-1.3-1.98-1.3-2.01,0-.06,2.39-.12,4.78-.18,7.16l-.03,1.03c-.03,1.3,1.98,1.3,2.01,0h0Z"/>
      <circle class="cls-1" cx="243.93" cy="426.53" r="1.05"/>
    </g>
  </g>
  <path class="cls-22" d="m185.98,501.41l38.2-10.07-7.24-60.07,7.24-56.62-15.92-12.47c-19.11,3.35-41.37,36.65-39.87,56l17.59,83.22Z"/>
  <path class="cls-18" d="m210.15,369.21c-9.79,4.94-19.34,11.91-24.65,21.5"/>
  <g>
    <path class="cls-11" d="m320.63,126.55c-55.49,25.53-114.17,45.5-173.7,59.12l-16.64-48.88c-3.14-9.21,2.37-19.42,12.32-22.8l137.72-46.87c9.93-3.39,20.53,1.34,23.67,10.55l16.64,48.88h-.01Z"/>
    <path class="cls-33" d="m132.45,123.7c-2.19,4.05-2.61,8.58-1.19,12.77l16.34,48.01c11.07-2.54,22.1-5.31,33.08-8.28,0,0-5.7-12.71-10.45-27.01-4.75-14.3-6.78-32.53,15.54-46.88l7.66-4.52-50.48,17.18c-4.56,1.55-8.28,4.65-10.49,8.73h0Z"/>
    <g>
      <path class="cls-26" d="m166.79,176.35c-2.31.79-4.78-.33-5.51-2.45l-13.79-40.55c-.73-2.14.56-4.52,2.87-5.31,2.31-.79,4.78.33,5.51,2.45l13.79,40.55c.73,2.14-.56,4.52-2.87,5.31Z"/>
      <path class="cls-20" d="m188.68,168.89c-2.31.79-4.78-.33-5.51-2.45l-13.79-40.55c-.73-2.14.56-4.52,2.87-5.31,2.31-.79,4.78.33,5.51,2.45l13.79,40.55c.73,2.14-.56,4.52-2.87,5.31Z"/>
      <path class="cls-20" d="m210.57,161.44c-2.31.79-4.78-.33-5.51-2.45l-13.79-40.55c-.73-2.14.56-4.52,2.87-5.31,2.31-.79,4.78.33,5.51,2.45l13.79,40.55c.73,2.14-.56,4.52-2.87,5.31Z"/>
      <path class="cls-20" d="m232.45,153.99c-2.31.79-4.78-.33-5.51-2.45l-13.79-40.55c-.73-2.14.56-4.52,2.87-5.31,2.31-.79,4.78.33,5.51,2.45l13.79,40.55c.73,2.14-.56,4.52-2.87,5.31Z"/>
      <path class="cls-20" d="m254.33,146.55c-2.31.79-4.78-.33-5.51-2.45l-13.79-40.55c-.73-2.14.56-4.52,2.87-5.31s4.78.33,5.51,2.45l13.79,40.55c.73,2.14-.56,4.52-2.87,5.31Z"/>
      <path class="cls-20" d="m276.22,139.1c-2.31.79-4.78-.33-5.51-2.45l-13.79-40.55c-.73-2.14.56-4.52,2.87-5.31s4.78.33,5.51,2.45l13.79,40.55c.73,2.14-.56,4.52-2.87,5.31Z"/>
      <path class="cls-20" d="m299.2,131.28c-2.31.79-4.78-.33-5.51-2.45l-13.79-40.55c-.73-2.14.56-4.52,2.87-5.31s4.78.33,5.51,2.45l13.79,40.55c.73,2.14-.56,4.52-2.87,5.31Z"/>
    </g>
    <path class="cls-21" d="m320.63,126.55c-55.49,25.53-114.17,45.5-173.7,59.12l-16.64-48.88c-3.14-9.21,2.37-19.42,12.32-22.8l137.72-46.87c9.93-3.39,20.53,1.34,23.67,10.55l16.64,48.88h-.01Z"/>
    <path class="cls-8" d="m320.63,126.55c-55.49,25.53-114.17,45.5-173.7,59.12l-16.64-48.88c-3.14-9.21,2.37-19.42,12.32-22.8l137.72-46.87c9.93-3.39,20.53,1.34,23.67,10.55l16.64,48.88h-.01Z"/>
  </g>
</svg>