<?xml version="1.0" encoding="UTF-8"?>
<svg id="hero-head-1" xmlns="http://www.w3.org/2000/svg" viewBox="0 0 301 357.96">
  <defs>
    <style>
      .cls-1 {
        stroke: #c6867d;
      }

      .cls-1, .cls-2, .cls-3, .cls-4, .cls-5, .cls-6, .cls-7, .cls-8 {
        stroke-miterlimit: 10;
      }

      .cls-1, .cls-4, .cls-9, .cls-5, .cls-7, .cls-8 {
        fill: none;
      }

      .cls-1, .cls-7 {
        stroke-width: 2.2px;
      }

      .cls-2 {
        fill: #fdffff;
        stroke: #7ac9d6;
        stroke-width: 8.74px;
      }

      .cls-10 {
        fill: #8dd39c;
      }

      .cls-11 {
        fill: #f69993;
      }

      .cls-12 {
        fill: #5a8c63;
      }

      .cls-13 {
        fill: #fff;
        opacity: .3;
      }

      .cls-14 {
        fill: #fca69a;
      }

      .cls-3 {
        stroke-width: 3.13px;
      }

      .cls-3, .cls-6 {
        stroke: #5a8c63;
      }

      .cls-3, .cls-6, .cls-15 {
        fill: #6cbc80;
      }

      .cls-16 {
        fill: #352727;
      }

      .cls-17, .cls-18 {
        fill: #db6a6a;
      }

      .cls-17, .cls-4 {
        opacity: .4;
      }

      .cls-19 {
        fill: #a14b4b;
      }

      .cls-4 {
        stroke: #ffe9e1;
        stroke-linecap: round;
        stroke-width: 2.58px;
      }

      .cls-20 {
        fill: #fff4f3;
      }

      .cls-5 {
        stroke: #db8686;
      }

      .cls-5, .cls-8 {
        stroke-width: 2.28px;
      }

      .cls-6 {
        stroke-width: 2.91px;
      }

      .cls-21 {
        fill: #ffe9e1;
      }

      .cls-22 {
        fill: #ef8e86;
      }

      .cls-7 {
        stroke: #bc5757;
      }

      .cls-23 {
        fill: #dbcfa0;
      }

      .cls-8 {
        stroke: #c15f5f;
      }

      .cls-24 {
        fill: #bc5757;
      }

      .cls-25 {
        fill: #aa4949;
      }
    </style>
  </defs>
  <circle class="cls-2" cx="150.5" cy="207.46" r="146.13"/>
  <g>
    <g>
      <path class="cls-18" d="m57.75,293.88c-.12,7.02-1.13,13.08-2.57,18.41,21.67,19.72,49.44,32.83,80.12,36.11,2.26-.79,4.4-1.58,6.36-2.33,17.75-6.8,64.06-25.34,95.13-75.13,10.29-16.49,31.46-50.41,25.86-95.13-1.66-13.26-6.36-50.77-39.52-75.13-34.44-25.3-73.86-17.52-80.5-16.1-10.63-.83-38.84-1.6-65.86,16.1-2.4,1.57-39.16,26.46-45.37,70.74-6.5,46.38,27.31,65.53,26.34,122.45Z"/>
      <path class="cls-24" d="m55.96,293.85c-.11,6.48-.99,12.1-2.26,17.08.97.91,1.96,1.81,2.96,2.7,1.6-5.66,2.75-12.17,2.88-19.72.49-28.55-7.82-48.11-15.16-65.36-7.42-17.45-14.42-33.93-11.2-56.87,6.15-43.88,43.02-68.47,44.58-69.5,20.33-13.31,41.76-16.14,56.27-16.14,3.18,0,6.04.14,8.47.33l.26.02.25-.05c10.46-2.24,47.06-7.72,79.07,15.79,32.54,23.91,37.09,60.24,38.8,73.91,5.52,44.09-15.5,77.78-25.6,93.96-31.38,50.3-78.71,68.45-94.26,74.41-3.08,1.18-6.35,2.36-9.76,3.5,2.71.37,5.44.66,8.2.88,1.53-.55,2.52-.93,2.83-1.05,15.83-6.07,63.99-24.54,96.01-75.85,10.32-16.54,31.79-50.95,26.11-96.3-1.6-12.75-6.45-51.53-40.23-76.35-32.95-24.2-70.52-18.81-81.67-16.46-14.07-1.07-41.2-.31-66.72,16.41-1.62,1.06-39.78,26.52-46.16,71.98-3.35,23.92,3.84,40.84,11.45,58.76,7.55,17.75,15.35,36.12,14.87,63.91Z"/>
      <g>
        <path class="cls-10" d="m109.73,343.24c1.52-2.81,3.95-7.78,5.14-12.71h65.14c1.44,5.98,4.72,12.03,5.96,14.19,11.62-3,22.67-7.45,32.94-13.13-.32-.89-.65-1.74-1.03-2.54-8.83-26.37-57.65-35.27-52.94-34.49v-13.56h-35v13.56s-43.73,7.34-52.82,34.14c10.12,6.15,21.06,11.06,32.62,14.54Z"/>
        <path class="cls-6" d="m129.93,90.54s-32.43-35.38-67.22-10.61c-19.47,13.86,67.22,10.61,67.22,10.61Z"/>
        <path class="cls-18" d="m51.53,183.07c10.26-5.16,23.09-10.59,38.29-14.92,17.3-4.92,32.85-7.03,45.39-7.86,1.76-9.06,3.51-18.12,5.27-27.17,2.86,8.35,5.72,16.69,8.59,25.04,11.18-.91,24.71-1.11,39.92.57,20.34,2.25,37.3,7.18,50.11,11.96-1.96-9.69-6.67-25.86-19.37-40.62-3.41-3.97-7.22-7.63-11.35-10.94-27.57-22.13-69.58-29.16-104.33-11.77-15.61,7.81-26.67,19.01-34.47,30.43-14.17,20.73-17.6,42.17-18.05,45.29Z"/>
        <path class="cls-12" d="m77.74,329.08c8.75-26.21,51.87-33.74,52.32-33.82l.6-.1v-13.45h33.58v12.2c-.14.08-.26.22-.31.46-.14.68.42.82,1.13.99,10.42,2.54,44.99,12.51,52.18,33.99.39.83.73,1.7,1.04,2.59.43-.23.85-.47,1.28-.71-.31-.85-.64-1.66-.99-2.41-7.34-21.92-41.99-32.09-52.9-34.79v-13.76h-36.43v13.68c-5.3,1.02-44.06,9.3-52.73,34.36.41.25.83.5,1.24.75Z"/>
        <path class="cls-3" d="m122.12,90.39c1.95-28.78,34.74-45.47,41.14-49.88-.99-2.14-9.61-14.54-10.6-16.68-6.13,4.15-15.95,11.97-23.87,24.88-11.07,18.05-12.02,32.09-11.98,39.9"/>
        <g>
          <g>
            <ellipse class="cls-23" cx="242.22" cy="212.25" rx="4.94" ry="1.74" transform="translate(4.19 429.2) rotate(-83.57)"/>
            <ellipse class="cls-23" cx="254.61" cy="185.69" rx="1.74" ry="4.94"/>
            <ellipse class="cls-23" cx="251.1" cy="227.29" rx="4.94" ry="1.74" transform="translate(-2.86 451.38) rotate(-83.57)"/>
            <ellipse class="cls-23" cx="212.07" cy="273.49" rx="4.94" ry="1.74" transform="translate(-125.27 350.74) rotate(-65.11)"/>
            <ellipse class="cls-23" cx="237.18" cy="250.71" rx="4.94" ry="1.74" transform="translate(-69.77 408.48) rotate(-73.79)"/>
            <ellipse class="cls-23" cx="207.28" cy="296.02" rx="4.94" ry="1.74" transform="translate(-148.48 359.45) rotate(-65.11)"/>
          </g>
          <g>
            <ellipse class="cls-23" cx="50.61" cy="212.25" rx="1.74" ry="4.94" transform="translate(-23.44 7) rotate(-6.43)"/>
            <ellipse class="cls-23" cx="39.54" cy="171.09" rx="4.94" ry="1.74" transform="translate(-135.92 178.08) rotate(-79.27)"/>
            <path class="cls-23" d="m73.46,277.08c0,2.73.78,4.94,1.74,4.94s1.74-2.21,1.74-4.94-.78-4.94-1.74-4.94c-.96,0-1.74,2.21-1.74,4.94Z"/>
            <ellipse class="cls-23" cx="60.07" cy="248.97" rx="1.74" ry="4.94" transform="translate(-67.11 26.66) rotate(-16.21)"/>
            <ellipse class="cls-23" cx="83.94" cy="301.41" rx="4.94" ry="1.74" transform="translate(-228.66 314.64) rotate(-76.86)"/>
            <ellipse class="cls-23" cx="103.86" cy="285.13" rx="1.74" ry="4.94"/>
          </g>
        </g>
        <g>
          <circle class="cls-18" cx="113.32" cy="245.87" r="1.57"/>
          <circle class="cls-18" cx="115.59" cy="240.29" r="1.34"/>
          <circle class="cls-18" cx="106.47" cy="246.23" r="1.34"/>
          <circle class="cls-18" cx="181.15" cy="245.54" r="1.57"/>
          <circle class="cls-18" cx="178.88" cy="239.96" r="1.34"/>
          <circle class="cls-18" cx="188" cy="245.9" r="1.34"/>
        </g>
        <g>
          <path class="cls-14" d="m234.99,196.97c-1.65,48.4-42.42,92.03-90.81,90.38-48.4-1.65-86.09-47.96-84.44-96.36,1.65-48.4,42.03-80.55,90.42-78.9,48.4,1.65,86.49,36.48,84.83,84.88Z"/>
          <path class="cls-11" d="m77.96,220.65c-3.29-17.54-4.59-32.38-3.27-41.7,34.62-8.79,80.44-22.36,115.06-31.15-5.17-5.57-23.98-24.43-53.35-26.77-18.35-1.46-36.58,3.89-52.06,14.48-14.59,13.73-23.84,32.82-24.62,55.47-1.65,48.4,36.05,94.71,84.44,96.36,4.26.15,8.45-.07,12.57-.59-11.18-.12-34.14-4.68-47.97-15.17-20.14-15.27-27.73-34.47-30.81-50.93Z"/>
          <path class="cls-9" d="m192.46,145.55c-28.7,5.14-60.19,13.31-93.2,26.13-7.64,2.97-15.02,6.05-22.14,9.22,2.3,11.93,4.59,23.86,6.89,35.78"/>
          <ellipse class="cls-22" cx="98.13" cy="247.67" rx="7.79" ry="12.86" transform="translate(-152.75 337.3) rotate(-88.05)"/>
          <ellipse class="cls-22" cx="196.37" cy="248.21" rx="7.79" ry="12.86" transform="translate(-58.39 436) rotate(-88.05)"/>
          <g>
            <g>
              <line class="cls-7" x1="88.83" y1="228.7" x2="80.82" y2="239.13"/>
              <line class="cls-7" x1="92.81" y1="233.29" x2="88.25" y2="245.63"/>
              <line class="cls-7" x1="98.39" y1="230.47" x2="102.53" y2="242.95"/>
              <path class="cls-20" d="m130.16,202.84c3.59,14.12-6.39,28.85-22.29,32.9-15.9,4.05-27.68-5.15-31.27-19.27-3.59-14.12,2.36-27.83,18.26-31.87,15.9-4.05,31.71,4.12,35.3,18.25Z"/>
              <circle class="cls-16" cx="107.71" cy="206.04" r="13.71"/>
              <polygon class="cls-20" points="103.45 206.35 82.08 211.73 92.77 217.92 103.45 206.35"/>
            </g>
            <path class="cls-24" d="m76.59,216.47c3.96,13.35,16.02,20.77,29.65,18.83,4.25-.57,8.39-2.09,12.21-4.34-3.28,3-7.45,5.11-11.91,6.03-14.11,3.16-28.5-5.77-29.94-20.52h0Z"/>
            <path class="cls-25" d="m75.59,208.28c-2.26-15.69,12.65-27.25,27.35-26.99,7.28.12,14.81,2.42,20.2,7.47,5.32,4.86,8.26,12.21,7.74,19.3-1.35-6.78-4.85-12.8-9.96-16.68-16.22-11.82-42.91-4.76-45.33,16.9h0Z"/>
          </g>
          <path class="cls-25" d="m87.78,175.37c9.18-7.59,23.4-9.5,34.07-4.03-5.86.57-11.35.8-17.08,1.53-5.73.66-11.15,1.79-16.99,2.51h0Z"/>
          <g>
            <g>
              <line class="cls-7" x1="205.89" y1="228.7" x2="213.9" y2="239.13"/>
              <line class="cls-7" x1="201.91" y1="233.29" x2="206.47" y2="245.63"/>
              <line class="cls-7" x1="196.33" y1="230.47" x2="192.19" y2="242.95"/>
              <path class="cls-20" d="m164.56,202.84c-3.59,14.12,6.39,28.85,22.29,32.9,15.9,4.05,27.68-5.15,31.27-19.27,3.59-14.12-2.36-27.83-18.26-31.87-15.9-4.05-31.71,4.12-35.3,18.25Z"/>
              <circle class="cls-16" cx="186.77" cy="206.04" r="13.71"/>
              <polygon class="cls-20" points="182.5 206.35 166.59 210.35 171.83 217.92 182.5 206.35"/>
            </g>
            <path class="cls-24" d="m218.12,216.47c-1.44,14.76-15.83,23.68-29.94,20.52-4.46-.92-8.64-3.03-11.91-6.03,3.82,2.25,7.96,3.77,12.21,4.34,13.63,1.94,25.69-5.49,29.65-18.83h0Z"/>
            <path class="cls-25" d="m219.13,208.28c-2.42-21.67-29.12-28.72-45.33-16.9-5.11,3.88-8.6,9.9-9.96,16.68-.52-7.09,2.42-14.44,7.74-19.3,5.39-5.05,12.92-7.35,20.2-7.47,14.7-.27,29.62,11.3,27.35,26.99h0Z"/>
          </g>
          <path class="cls-20" d="m172.15,246.14c-6.78-5.9-16.64,2.38-24.8,2.38s-18.01-8.27-24.8-2.38c-6.78,5.9,3.16,22.37,24.8,22.37s31.58-16.47,24.8-22.37Z"/>
          <path class="cls-25" d="m206.94,175.37c-5.84-.71-11.26-1.85-16.99-2.51-5.73-.73-11.22-.96-17.08-1.53,10.67-5.46,24.89-3.56,34.07,4.03h0Z"/>
          <path class="cls-1" d="m172.15,246.14c-6.78-5.9-16.64,2.38-24.8,2.38s-18.01-8.27-24.8-2.38c-6.78,5.9,3.16,22.37,24.8,22.37s31.58-16.47,24.8-22.37Z"/>
          <path class="cls-5" d="m172.15,246.14c-6.78-5.9-16.64,2.38-24.8,2.38s-18.01-8.27-24.8-2.38c-6.78,5.9,3.16,22.37,24.8,22.37s31.58-16.47,24.8-22.37Z"/>
          <path class="cls-8" d="m234.99,196.97c-1.65,48.4-42.42,92.03-90.81,90.38-48.4-1.65-86.09-47.96-84.44-96.36,1.65-48.4,42.03-80.55,90.42-78.9,48.4,1.65,86.49,36.48,84.83,84.88Z"/>
        </g>
        <path class="cls-18" d="m51.53,183.07c10.26-5.16,23.09-10.59,38.29-14.92,17.3-4.92,32.85-7.03,45.39-7.86,1.76-9.06,3.51-18.12,5.27-27.17,2.86,8.35,5.72,16.69,8.59,25.04,11.18-.91,24.71-1.11,39.92.57,20.34,2.25,37.3,7.18,50.11,11.96-1.96-9.69-6.67-25.86-19.37-40.62-3.41-3.97-7.22-7.63-11.35-10.94-27.57-22.13-69.58-29.16-104.33-11.77-15.61,7.81-26.67,19.01-34.47,30.43-14.17,20.73-17.6,42.17-18.05,45.29Z"/>
        <g>
          <path class="cls-18" d="m69.58,137.77c-14.17,20.73-17.6,42.17-18.05,45.29,10.26-5.16,23.09-10.59,38.29-14.92,17.3-4.92,32.85-7.03,45.39-7.86,1.76-9.06,3.51-18.12,5.27-27.17,2.86,8.35,5.72,16.69,8.59,25.04,11.18-.91,24.71-1.11,39.92.57,20.34,2.25,37.3,7.18,50.11,11.96-1.96-9.69-6.67-25.86-19.37-40.62"/>
          <path class="cls-24" d="m69.58,137.77c-6.5,10.37-11.33,21.75-14.41,33.59-1,3.93-1.86,7.91-2.39,11.89,0,0-1.83-1.31-1.83-1.31,12.97-6.83,26.66-12.28,40.77-16.3,14.13-3.96,28.67-6.56,43.34-7.55l-2.03,1.79,5.2-27.19s1.62-8.48,1.62-8.48c1.82,5.35,9.34,27.46,11.3,33.24,0,0-2.28-1.49-2.28-1.49,7.69-.61,15.42-.78,23.13-.49,23.09.79,46.03,5.6,67.5,14.11,0,0-1.61,1.37-1.61,1.37-1.35-7.38-3.48-14.63-6.52-21.51-2.99-6.91-6.96-13.4-11.66-19.36,5.13,5.62,9.52,11.94,12.92,18.76,3.75,7.47,6.4,15.51,8.09,23.73-7.83-2.83-15.82-5.22-23.9-7.14-22.08-5.28-44.98-6.96-67.6-5.05,0,0-1.71.14-1.71.14l-.56-1.63-8.65-25.01s4.4-.31,4.4-.31l-5.34,27.16-.33,1.67c-14.95.89-29.83,3.11-44.32,6.95-14.78,3.8-29.14,9.24-42.86,15.94.76-4.9,1.85-9.78,3.33-14.47,3.62-11.81,9.09-23.06,16.37-33.03h0Z"/>
        </g>
        <path class="cls-6" d="m105.75,87.21c-29.45,3.49-54.15,14.72-67.21,48.3-3.21,8.25,40.1-3.79,89.14-34.56,5.66,4.19,14.43,10.12,25.94,15.67,3.05,1.47,42.1,20.05,48.77,11.22,1.27-1.68,4.28-8.22-16.61-34.12,11.97,13.48,65.53,27.75,67.25,23.66,1.78-4.25-78.28-70.32-130.46-31.4"/>
        <path class="cls-4" d="m103.33,308.78c-8.42,4.25-16.64,10.25-21.21,18.5"/>
        <path class="cls-10" d="m150.5,349.23c19.4,0,37.9-3.92,54.75-11l1.55-12.98h-120.21l1.46,9.47c18.85,9.29,40.05,14.51,62.45,14.51Z"/>
      </g>
      <g>
        <circle class="cls-17" cx="130.62" cy="223.78" r="1.79"/>
        <circle class="cls-17" cx="125.77" cy="231.73" r="1.79"/>
        <circle class="cls-17" cx="135.91" cy="227.02" r="1.79"/>
      </g>
      <g>
        <circle class="cls-17" cx="164.62" cy="223.78" r="1.79"/>
        <circle class="cls-17" cx="169.47" cy="231.73" r="1.79"/>
        <circle class="cls-17" cx="159.33" cy="227.02" r="1.79"/>
      </g>
    </g>
    <path class="cls-21" d="m150.5,349.23c10.58,0,20.9-1.17,30.82-3.38-2.71-16.35-16.9-28.81-34.01-28.81s-30.43,11.71-33.73,27.31c11.78,3.18,24.16,4.88,36.92,4.88Z"/>
    <g>
      <path class="cls-18" d="m150.5,349.23c4.8,0,9.54-.24,14.21-.71-1.58-7.46-8.91-10.4-17.58-10.4s-15.22,2.74-17.05,9.64c6.67.97,13.49,1.47,20.42,1.47Z"/>
      <g>
        <circle class="cls-23" cx="147.14" cy="346.89" r="1.55"/>
        <circle class="cls-23" cx="155.91" cy="346.89" r="1.55"/>
      </g>
      <path class="cls-19" d="m131.11,347.9c.68-2.44,2.06-4.4,4.16-5.83,2.79-1.91,6.9-2.92,11.87-2.92s9.17,1.01,12.05,2.92c2.38,1.58,3.89,3.77,4.5,6.54.34-.03.69-.06,1.03-.09-1.58-7.46-8.91-10.4-17.58-10.4s-15.22,2.74-17.05,9.64c.34.05.69.1,1.03.14Z"/>
      <path class="cls-15" d="m159.42,332.83c-.01.08-.02.16-.03.24h0c-.01.08-.03.16-.04.25-.16.91-.45,1.95-.95,3.01-.05.1-.09.19-.14.29-.02.05-.05.1-.08.15-.05.1-.1.2-.16.29-.17.29-.35.59-.55.88-.03.05-.07.1-.1.15-.17.25-.36.49-.56.73-.24.29-.5.58-.79.87-1.98,1.98-4.16,2.87-5.95,3.25-.48.1-.93.17-1.34.21-.42.04-.8.05-1.12.05-.17,0-.33,0-.47-.01-.14,0-.3.01-.47.01-.33,0-.71-.01-1.13-.05-.41-.04-.86-.11-1.34-.21-.22-.05-.45-.1-.69-.17-.18-.05-.36-.1-.54-.16-.06-.02-.12-.04-.18-.06-.12-.04-.24-.09-.37-.13-.56-.21-1.13-.48-1.7-.81-.06-.04-.13-.07-.19-.11-.13-.08-.26-.16-.38-.24-.13-.08-.26-.17-.38-.26-.13-.09-.26-.19-.38-.29-.38-.3-.76-.63-1.13-1-4.38-4.38-3.42-9.74-3.42-9.74,0,0,.5-.09,1.33-.09.11,0,.22,0,.33,0,.05,0,.11,0,.16,0,.07,0,.13,0,.2.01.05,0,.11,0,.16.01.01,0,.02,0,.03,0,.05,0,.1,0,.16.01.21.02.44.04.67.08.05,0,.1.01.15.02.67.11,1.4.28,2.17.56.21.08.42.16.64.25.04.02.09.04.13.06.09.04.17.08.26.12t0,0c.09.04.17.08.26.13.04.02.09.04.13.07.09.05.17.09.26.14t0,0c.09.05.17.1.26.15,0,0,0,0,0,0,.09.05.17.11.26.16,0,0,0,0,0,0,.13.08.26.17.39.26.04.03.09.06.13.09.22.15.44.32.65.49h0c.73-1.76,1.76-3.03,2.52-3.8.02-.02.04-.04.06-.06.06-.06.12-.12.18-.18.46-.44.78-.66.78-.66,0,0,.11.08.29.23.03.02.05.04.08.07.04.04.09.08.14.12.03.03.07.06.1.09.04.03.07.07.11.1.04.04.08.07.12.11.77.75,1.92,2.08,2.71,3.99h0c.13-.1.26-.21.39-.3.04-.03.09-.07.13-.1.13-.09.26-.19.39-.27.22-.15.44-.28.66-.4.09-.05.18-.1.26-.15.57-.3,1.13-.55,1.68-.74.17-.06.33-.11.5-.16.09-.02.17-.05.25-.07.08-.02.16-.04.23-.06.37-.09.72-.16,1.05-.22.06-.01.12-.02.18-.03.23-.03.44-.06.65-.08.06,0,.12-.01.18-.01,0,0,.01,0,.02,0,.06,0,.12,0,.18-.01.07,0,.13,0,.19,0,.06,0,.11,0,.17,0,.11,0,.23,0,.33,0,.82,0,1.33.09,1.33.09,0,0,.21,1.18-.01,2.88Z"/>
      <path class="cls-12" d="m159.43,329.95s-.5-.09-1.33-.09c-.1,0-.21,0-.33,0-.05,0-.11,0-.17,0-.06,0-.13,0-.19,0-.06,0-.12,0-.18.01,0,0-.01,0-.02,0-.06,0-.12,0-.18.01-.21.02-.42.04-.65.08-.06,0-.12.02-.18.03-.33.05-.69.12-1.05.22-.08.02-.15.04-.23.06-.08.02-.17.05-.25.07-.16.05-.33.1-.5.16-.54.19-1.11.43-1.68.74-.09.05-.17.09-.26.15-.22.12-.44.26-.66.4-.13.09-.26.18-.39.27-.04.03-.09.06-.13.1-.13.1-.26.2-.39.3-.79-1.91-1.93-3.24-2.71-3.99-.04-.04-.08-.08-.12-.11-.04-.04-.07-.07-.11-.1-.04-.03-.07-.06-.1-.09-.05-.04-.09-.08-.14-.12-.03-.02-.06-.05-.08-.07-.18-.15-.29-.23-.29-.23,0,0-.32.22-.78.66-.06.05-.12.11-.18.18-.02.02-.04.04-.06.06-.76.77-1.79,2.04-2.52,3.8-.22-.18-.44-.34-.66-.49-.04-.03-.09-.06-.13-.09-.13-.09-.26-.18-.39-.26,0,0,0,0,0,0-.09-.06-.17-.11-.26-.16,0,0,0,0,0,0-.09-.05-.17-.1-.26-.15t0,0c-.09-.05-.17-.1-.26-.14-.04-.02-.09-.05-.13-.07-.09-.04-.17-.09-.26-.13t0,0c-.09-.04-.17-.08-.26-.12-.04-.02-.09-.04-.13-.06-.21-.09-.43-.18-.64-.25-.77-.28-1.51-.45-2.17-.56-.05,0-.1-.02-.15-.02-.23-.04-.46-.06-.67-.08-.05,0-.11,0-.16-.01-.01,0-.02,0-.03,0-.05,0-.11,0-.16-.01-.07,0-.14,0-.2-.01-.06,0-.11,0-.16,0-.12,0-.23,0-.33,0-.82,0-1.33.09-1.33.09,0,0-.97,5.35,3.42,9.74.37.37.75.7,1.13,1,.13.1.26.2.38.29.13.09.26.18.38.26.13.08.26.17.38.24.06.04.13.08.19.11.57.33,1.15.6,1.7.81.12.05.25.09.37.13.06.02.12.04.18.06.18.06.36.11.54.16.23.06.46.12.69.17.48.1.93.17,1.34.21.42.04.8.05,1.13.05.17,0,.33,0,.47-.01.14,0,.3.01.47.01.33,0,.71-.01,1.12-.05.41-.04.86-.1,1.34-.21,1.79-.38,3.97-1.27,5.95-3.25h0c.28-.28.55-.57.79-.87.2-.24.39-.49.56-.73.04-.05.07-.1.1-.15.2-.3.38-.59.55-.88.05-.1.11-.2.16-.29.03-.05.05-.1.08-.15.05-.1.1-.19.14-.29.5-1.07.79-2.1.95-3.01.01-.08.03-.16.04-.24h0c.01-.08.02-.16.03-.24.23-1.7.01-2.88.01-2.88Zm-12.38,12.21c-.12,0-.24,0-.38,0-.15,0-.31,0-.48-.01-.39-.02-.83-.06-1.31-.14-.4-.07-.83-.16-1.27-.29-1.46-.43-3.1-1.24-4.62-2.76-1.64-1.64-2.67-3.62-3.05-5.87-.15-.9-.17-1.66-.15-2.19.11,0,.24,0,.38,0,1.55,0,4.42.36,7.05,2.62.21.18.42.38.63.59.07.07.14.15.21.22,1.21,1.27,2.06,2.73,2.54,4.35.12.42.23.85.3,1.3.15.9.17,1.66.15,2.19Zm2.34-.14c-.48.08-.92.12-1.31.14.03-.8-.02-2.05-.41-3.48-.13-.5-.31-1.02-.54-1.55-.53-1.24-1.33-2.53-2.56-3.76-.06-.06-.11-.11-.17-.16.32-.85.75-1.67,1.29-2.44.52-.74,1.04-1.29,1.43-1.65.38.36.91.91,1.43,1.65.54.77.98,1.59,1.3,2.44.14.36.25.74.35,1.12.22.88.34,1.8.34,2.75,0,1.77-.39,3.43-1.15,4.94Zm8.95-8.92c-.38,2.25-1.41,4.23-3.05,5.87-1.52,1.52-3.17,2.34-4.63,2.76.54-1.28.92-2.83.92-4.65,0-1.33-.2-2.52-.52-3.56,2.63-2.27,5.51-2.62,7.06-2.62.14,0,.26,0,.38,0,.02.53,0,1.29-.15,2.19Z"/>
      <path class="cls-13" d="m135.76,348.46c.91-1.71,2.4-3.01,4.53-3.85.53-.21.78-.8.58-1.33-.21-.53-.8-.78-1.33-.58-2.88,1.14-4.88,3.02-5.94,5.51.72.09,1.44.17,2.17.24Z"/>
    </g>
    <path class="cls-12" d="m114.28,344.53c3.25-15.35,16.94-26.79,33.03-26.79s30.63,12.3,33.3,28.25c.47-.1.94-.2,1.4-.31-2.82-16.59-17.44-29.37-34.7-29.37s-31.01,11.88-34.42,27.84c.46.13.92.26,1.39.38Z"/>
  </g>
</svg>