<svg xmlns="http://www.w3.org/2000/svg" viewBox="0 0 127.64065 97.25002"><defs><style>.cls-1{fill:#7ac9d6;}</style></defs><g id="Layer_2" data-name="Layer 2"><g id="back_btn"><path class="cls-1" d="M45.58595,0a3.03907,3.03907,0,0,0-2.32679,1.08029L1.8638,44.24449l-.02374.02374L1.65012,44.47a6.05613,6.05613,0,0,0,0,8.30994q.08148.0847.1662.1662L43.37788,96.30031q.02927.03009.05935.05936A3.03874,3.03874,0,0,0,48.625,94.211V66.85939H115.4844a12.15291,12.15291,0,0,0,12.15625-12.15625V42.54688A12.15291,12.15291,0,0,0,115.4844,30.39063H48.625V3.03906A3.03907,3.03907,0,0,0,45.58595,0Z"/></g></g></svg>