<?xml version="1.0" encoding="UTF-8"?>
<svg id="Layer_1" data-name="Layer 1" xmlns="http://www.w3.org/2000/svg" viewBox="0 0 341.8 119.5">
  <defs>
    <style>
      .cls-1 {
        fill: #fdffff;
        stroke: #7ac9d6;
      }

      .cls-1, .cls-2 {
        stroke-miterlimit: 10;
        stroke-width: 8.74px;
      }

      .cls-2 {
        stroke: #000;
      }

      .cls-3 {
        opacity: .05;
      }

      .cls-4 {
        fill: #7ac9d6;
      }

      .cls-5 {
        font-family: OmpalumpaRegular, Ompalumpa;
        font-size: 49.75px;
        isolation: isolate;
      }
    </style>
  </defs>
  <g class="cls-3">
    <path class="cls-2" d="m35.4,10.2h268.1c17.1,0,31,13.9,31,31v42.9c0,17.1-13.9,31-31,31H35.4c-17.1,0-31-13.9-31-31v-42.9c0-17.1,13.9-31,31-31Z"/>
    <text class="cls-5" transform="translate(116.92 80.26)"><tspan x="0" y="0">Back</tspan></text>
  </g>
  <path class="cls-1" d="m38.3,4.4h268.1c17.1,0,31,13.9,31,31v42.9c0,17.1-13.9,31-31,31H38.3c-17.1,0-31-13.9-31-31v-42.9c0-17.1,13.9-31,31-31Z"/>
  <g>
    <path class="cls-4" d="m127.37,54.43c.8,0,1.46.33,1.99,1,.53.66.85,1.41.95,2.24.1.83-.07,1.63-.5,2.39-.43.76-1.08,1.21-1.94,1.34-1.29.2-2.4.27-3.31.22-.91-.05-1.68-.08-2.31-.08s-1.03.11-1.19.32c-.17.22-.27.75-.3,1.59-.03.85-.08,1.96-.12,3.36-.05,1.39-.19,2.69-.42,3.88-.23,1.33-.84,2.35-1.82,3.06-.98.71-2,1.05-3.06,1.02-1.06-.03-2.02-.41-2.89-1.14-.86-.73-1.33-1.71-1.39-2.94-.07-1.13-.02-2.98.12-5.55s.19-4.85.12-6.84c0-.8-.09-1.97-.27-3.53-.18-1.56-.34-2.96-.47-4.2-.13-1.24-.2-2.56-.2-3.96s.13-2.49.4-3.28c.3-.93.99-1.61,2.06-2.04,1.08-.43,2.42-.65,4.03-.65s3.16.08,4.65.22c1.49.15,3.09.34,4.8.57,1.71.23,2.93.37,3.66.4,1.36.07,2.32.82,2.89,2.26.56,1.44.56,2.85,0,4.23-.56,1.38-1.53,2-2.89,1.87-.73-.07-1.77-.2-3.11-.4-1.34-.2-2.48-.34-3.41-.42-.93-.08-1.59-.09-1.99-.02-.63.17-1,.77-1.12,1.82-.12,1.04,0,1.83.37,2.36.2.4.67.65,1.42.75.75.1,2.03.15,3.86.15h1.39Z"/>
    <path class="cls-4" d="m142.17,46.22c-.95.8-2.1,1.19-3.46,1.19s-2.52-.4-3.48-1.19c-.96-.8-1.44-1.77-1.44-2.91s.48-2.12,1.44-2.94c.96-.81,2.12-1.22,3.48-1.22s2.51.41,3.46,1.22c.95.81,1.42,1.79,1.42,2.94s-.47,2.11-1.42,2.91Zm1.12,6.22c.43,1.59.7,4.1.8,7.54.1,3.43-.07,6.68-.5,9.73-.33,2.06-1.34,3.42-3.03,4.08-1.69.66-3.28.56-4.78-.32-1.49-.88-2.12-2.2-1.89-3.96.33-2.69.38-5.47.15-8.36,0-.23-.03-.74-.1-1.52-.07-.78-.11-1.33-.12-1.64-.02-.32-.03-.8-.03-1.47s.03-1.31.1-1.94.17-1.34.3-2.14c.17-1,.68-1.77,1.54-2.34.86-.56,1.8-.85,2.81-.87,1.01-.02,1.98.26,2.91.82.93.56,1.54,1.36,1.84,2.39Z"/>
    <path class="cls-4" d="m169.61,58.06c.36,6.27.07,10.65-.9,13.13-.4,1-1,1.76-1.79,2.29-.8.53-1.62.77-2.46.72s-1.66-.25-2.44-.6c-.78-.35-1.38-.92-1.79-1.72s-.56-1.67-.42-2.64c.73-4.28.68-7.78-.15-10.5-.66-2.06-1.61-2.82-2.84-2.29-.4.2-.74.49-1.02.87-.28.38-.47.9-.57,1.54-.1.65-.17,1.27-.22,1.87-.05.6-.03,1.41.05,2.44.08,1.03.16,1.88.22,2.56s.17,1.63.3,2.86c.17,1.36.02,2.5-.45,3.43s-1.1,1.54-1.92,1.82c-.81.28-1.66.41-2.54.37-.88-.03-1.69-.28-2.44-.75-.75-.46-1.25-1.06-1.52-1.79-.46-1.23-.72-2.75-.77-4.58s-.03-3.83.05-6.02c.08-2.19-.04-5.07-.37-8.66-.1-1.36.3-2.42,1.19-3.18s1.92-1.17,3.08-1.22,2.29.12,3.38.52c1.09.4,1.74.96,1.94,1.69.07.2.2.18.4-.05,1.03-1.13,2.47-1.81,4.33-2.04,2.62-.26,4.84.56,6.67,2.46,1.82,1.91,2.82,4.39,2.99,7.44Z"/>
    <path class="cls-4" d="m179.63,46.22c-.95.8-2.1,1.19-3.46,1.19s-2.52-.4-3.48-1.19c-.96-.8-1.44-1.77-1.44-2.91s.48-2.12,1.44-2.94c.96-.81,2.12-1.22,3.48-1.22s2.51.41,3.46,1.22c.95.81,1.42,1.79,1.42,2.94s-.47,2.11-1.42,2.91Zm1.12,6.22c.43,1.59.7,4.1.79,7.54.1,3.43-.07,6.68-.5,9.73-.33,2.06-1.34,3.42-3.03,4.08-1.69.66-3.29.56-4.78-.32-1.49-.88-2.12-2.2-1.89-3.96.33-2.69.38-5.47.15-8.36,0-.23-.03-.74-.1-1.52-.07-.78-.11-1.33-.12-1.64-.02-.32-.03-.8-.03-1.47s.03-1.31.1-1.94.17-1.34.3-2.14c.17-1,.68-1.77,1.54-2.34.86-.56,1.8-.85,2.81-.87,1.01-.02,1.98.26,2.91.82.93.56,1.54,1.36,1.84,2.39Z"/>
    <path class="cls-4" d="m203.83,62.29c1.26,1.19,2.01,2.55,2.24,4.05.23,1.51.02,2.9-.62,4.18-.65,1.28-1.69,2.38-3.13,3.31-1.44.93-3.09,1.48-4.95,1.64-1.59.1-3.11.07-4.55-.08s-2.65-.36-3.63-.65c-.98-.28-1.9-.64-2.76-1.07-.86-.43-1.5-.8-1.92-1.12-.41-.31-.79-.62-1.12-.92-.6-.56-.91-1.29-.95-2.19s.17-1.7.62-2.41c.45-.71,1.07-1.25,1.87-1.62.79-.37,1.74-.3,2.84.2.93.43,1.71.78,2.34,1.04.63.27,1.25.51,1.87.72.61.22,1.11.36,1.49.42.38.07.73.09,1.04.08s.56-.11.75-.27c.18-.17.31-.4.37-.7.13-.5-.15-.91-.85-1.24-.7-.33-1.59-.63-2.69-.9-1.1-.27-2.21-.59-3.36-.97-1.14-.38-2.15-1-3.01-1.84-.86-.85-1.36-1.88-1.49-3.11-.17-1.69.03-3.23.57-4.63.55-1.39,1.32-2.5,2.31-3.33.99-.83,2.03-1.48,3.11-1.94,1.08-.46,2.13-.78,3.16-.95,2.79-.36,5.34.03,7.66,1.19,1.79.9,2.47,2.21,2.04,3.93-.3,1.29-1.01,2.21-2.14,2.74-.83.4-1.61.38-2.34-.05-1.63-.93-2.94-1.26-3.93-.99-.99.27-1.43,1.06-1.29,2.39.07.6.46,1.05,1.19,1.37.73.32,1.58.54,2.56.67s2.12.46,3.41.97c1.29.51,2.39,1.2,3.28,2.06Z"/>
    <path class="cls-4" d="m231.4,58.06c.33,5.87-.07,10.25-1.2,13.13-.37,1-.94,1.76-1.71,2.29-.78.53-1.58.77-2.41.72-.83-.05-1.62-.25-2.36-.6-.75-.35-1.33-.92-1.74-1.72-.42-.8-.54-1.66-.37-2.59.73-4.28.68-7.79-.15-10.55-.63-2.09-1.57-2.84-2.84-2.24-.3.13-.56.32-.79.57-.23.25-.42.58-.55.99-.13.42-.24.81-.32,1.19-.08.38-.13.9-.15,1.54-.02.65-.02,1.21,0,1.69.02.48.06,1.13.12,1.94.07.81.13,1.49.2,2.02s.15,1.26.25,2.19c.16,1.33.02,2.46-.45,3.38-.46.93-1.1,1.54-1.91,1.84-.81.3-1.66.42-2.54.37-.88-.05-1.69-.31-2.44-.77-.75-.46-1.25-1.06-1.52-1.79-.73-1.96-1.18-5.79-1.34-11.49-.17-5.71-.08-10.78.25-15.22.07-1.13.44-2.09,1.12-2.89s1.48-1.31,2.41-1.54c.93-.23,1.85-.28,2.76-.15s1.69.58,2.34,1.34c.65.76.99,1.74,1.02,2.94,0,.7,0,1.39-.03,2.09-.02.7-.04,1.23-.07,1.59s-.04.71-.03,1.04c.02.33.04.61.07.85.03.13.07.2.12.2s.12-.05.2-.15c.08-.1.18-.22.3-.35.12-.13.29-.29.52-.47.23-.18.5-.36.8-.52.3-.17.7-.32,1.19-.47s1.03-.24,1.59-.27c2.62-.27,4.83.55,6.64,2.44,1.81,1.89,2.81,4.36,3.01,7.41Z"/>
  </g>
</svg>