<?xml version="1.0" encoding="utf-8"?>
<!-- Generator: Adobe Illustrator 27.3.0, SVG Export Plug-In . SVG Version: 6.00 Build 0)  -->
<svg version="1.1" id="Layer_1" xmlns="http://www.w3.org/2000/svg" xmlns:xlink="http://www.w3.org/1999/xlink" x="0px" y="0px"
	 viewBox="0 0 341.8 119.5" style="enable-background:new 0 0 341.8 119.5;" xml:space="preserve">
<style type="text/css">
	.st0{opacity:5.000000e-02;}
	.st1{stroke:#000000;stroke-width:8.7374;stroke-miterlimit:10;}
	.st2{font-family:'OmpalumpaRegular';}
	.st3{font-size:49.7508px;}
	.st4{fill:#FDFFFF;stroke:#7AC9D6;stroke-width:8.7374;stroke-miterlimit:10;}
	.st5{enable-background:new    ;}
	.st6{fill:#7AC9D6;}
</style>
<g class="st0">
	<path class="st1" d="M35.4,10.2h268.1c17.1,0,31,13.9,31,31v42.9c0,17.1-13.9,31-31,31H35.4c-17.1,0-31-13.9-31-31V41.2
		C4.4,24.1,18.3,10.2,35.4,10.2z"/>
	<text transform="matrix(1 0 0 1 116.9201 80.2609)" class="st2 st3">Back</text>
</g>
<path class="st4" d="M38.3,4.4h268.1c17.1,0,31,13.9,31,31v42.9c0,17.1-13.9,31-31,31H38.3c-17.1,0-31-13.9-31-31V35.4
	C7.3,18.3,21.2,4.4,38.3,4.4z"/>
<g class="st5">
	<path class="st6" d="M151,71.4c-0.3,0.7-0.8,1.3-1.6,1.8c-0.8,0.5-1.6,0.7-2.6,0.7s-1.8-0.1-2.7-0.4c-0.9-0.3-1.6-0.9-2.1-1.8
		c-0.5-0.9-0.7-2.1-0.5-3.4c0.3-2.9,0.4-4.9,0.1-5.9c-0.3-1-0.9-1.5-1.8-1.5c-0.7,0-1.2,0.2-1.5,0.6c-0.3,0.4-0.5,1.2-0.6,2.4
		c-0.1,1.2,0,2.9,0.5,5.1c0.2,1,0,1.8-0.5,2.6c-0.5,0.8-1.2,1.4-2,1.7c-0.9,0.3-1.8,0.5-2.7,0.6c-0.9,0-1.8-0.2-2.7-0.7
		c-0.8-0.5-1.5-1.3-1.9-2.3c-1.1-2.9-1.5-7.3-1.2-13.1c0.1-2.2,0.2-4.1,0.1-5.9c-0.1-1.8-0.1-3.5,0-5.1s0.2-2.8,0.5-3.5
		c0.4-0.9,1-1.7,1.7-2.3c0.7-0.6,1.5-0.9,2.3-1c0.8-0.1,1.6,0,2.4,0.2c0.8,0.2,1.5,0.6,2,1.2c0.6,0.6,0.9,1.3,1,2.2
		c0.4,2.9,0.6,5.4,0.6,7.7c0,1,0.1,1.8,0.2,2.4c0.1,0.6,0.3,0.9,0.6,1.1c0.2,0.2,0.6,0.3,1,0.3c0.9,0,1.5-0.3,1.9-0.8
		c0.4-0.5,0.6-1.6,0.6-3.3c0-3.6,0-5.9,0-6.7c0-1.2,0.3-2.1,1-2.9c0.7-0.8,1.5-1.2,2.4-1.3c0.9-0.1,1.9-0.1,2.9,0.1
		c1,0.2,1.8,0.7,2.5,1.5c0.7,0.8,1.1,1.7,1.1,2.8c0.3,4.5,0.4,9.6,0.3,15.2C152.1,65.6,151.7,69.4,151,71.4z"/>
	<path class="st6" d="M171.3,65.1c1.4-0.8,2.7-0.7,3.9,0.3c1.2,1,1.8,2.3,1.9,3.8c0,1.5-0.6,2.7-1.7,3.7c-1.6,1-3.6,1.6-6.1,1.8
		c-2.5,0.2-4.7,0.1-6.6-0.4c-2.8-0.7-5-2.3-6.6-4.8c-1.6-2.4-2.5-5.6-2.5-9.4c0-2.8,0.5-5.2,1.5-7.1c1-2,2.4-3.4,4.1-4.4
		c1.7-0.9,3.7-1.4,6-1.4c2.3,0,4.8,0.5,7.3,1.5c1.2,0.5,2.3,1.3,3.1,2.3c0.8,1,1.4,2.2,1.6,3.4c0.2,1.2,0.3,2.4,0.1,3.6
		c-0.2,1.2-0.6,2.2-1.4,3.1s-1.7,1.5-2.9,1.7c-1.8,0.4-3.5,0.6-5.2,0.7c-1.6,0.1-2.8,0-3.5,0l-1-0.1c0.1,0.7,0.3,1.3,0.7,1.8
		c0.4,0.5,0.9,0.9,1.6,1.2c0.6,0.3,1.5,0.3,2.5,0.1C169.2,66.2,170.2,65.8,171.3,65.1z M166.2,54.6c-0.9,0-1.6,0.3-2.1,0.7
		c-0.5,0.5-0.5,1-0.1,1.5c0.2,0.3,1,0.5,2.3,0.4c1.3-0.1,2.1-0.3,2.3-0.7c0.1-0.2,0.1-0.5,0-0.8c-0.1-0.3-0.4-0.6-0.9-0.8
		C167.2,54.8,166.7,54.6,166.2,54.6z"/>
	<path class="st6" d="M188.2,42.8c0.4,2.4,0.7,4.4,0.8,6.2s0.2,4.4,0.2,7.6c0,0.4,0,1.2,0,2.4c0,1.2,0,2,0,2.4c0,0.4,0,1.1,0,2.1
		c0,0.9-0.1,1.7-0.1,2.2c0,0.5-0.1,1.1-0.2,1.8c-0.1,0.7-0.2,1.3-0.3,1.9c-0.2,1.3-0.8,2.3-1.8,3s-1.9,1.1-3,1c-1,0-2-0.4-2.9-1.2
		s-1.4-1.8-1.6-3.2c-0.4-3.4-0.5-8.3-0.4-14.7s0.3-10.3,0.7-11.8c0.3-1,0.8-1.8,1.7-2.4c0.9-0.6,1.8-0.8,2.7-0.8
		c0.9,0,1.8,0.3,2.6,0.9C187.5,41,188,41.8,188.2,42.8z"/>
	<path class="st6" d="M207,47.2c1.4,0.1,2.6,0.5,3.7,1.3s1.9,1.7,2.5,2.8c0.6,1.1,1,2.3,1.4,3.7c0.4,1.4,0.6,2.7,0.6,4
		s0,2.5-0.1,3.7c-0.2,1.5-0.5,2.8-0.9,4.2c-0.5,1.3-1.1,2.5-1.9,3.7c-0.8,1.1-1.8,2.1-3,2.7c-1.2,0.7-2.6,1-4.1,1
		c-0.8,0-1.5,0-2.1-0.2s-1.1-0.3-1.4-0.5c-0.3-0.2-0.6-0.4-0.8-0.7c-0.2-0.2-0.4-0.4-0.4-0.5l-0.1-0.2l0.2,8.3c-0.1,1.9-1.1,3.2-3,4
		c-1.7,0.7-3.3,0.7-4.7,0c-1.2-0.6-1.7-1.6-1.6-3c0.1-2.6,0.2-7,0.2-13.2c0-6.2-0.2-11.4-0.5-15.7c-0.1-1.1,0-2,0.5-2.8
		c0.5-0.8,1.2-1.4,2-1.7c0.8-0.3,1.7-0.5,2.5-0.6c0.9-0.1,1.7,0,2.4,0.2c0.7,0.2,1.1,0.6,1.3,1l0.2,0.9c0,0,0-0.1,0-0.1
		c0-0.1,0.1-0.2,0.2-0.4c0.1-0.2,0.3-0.3,0.4-0.5c0.2-0.1,0.4-0.3,0.8-0.5c0.3-0.2,0.8-0.3,1.3-0.4c0.5-0.1,1.1-0.2,1.8-0.3
		C205.2,47.1,206,47.1,207,47.2z M206,61.3c0-0.8,0-1.6-0.1-2.5c-0.1-0.9-0.3-1.7-0.6-2.4c-0.3-0.8-0.7-1.2-1.2-1.3
		c-0.9-0.3-1.8-0.2-2.5,0.3c-0.8,0.5-1.2,1-1.2,1.6c0,0.4-0.1,1.1-0.1,2.1c0,1,0,2.2,0,3.5c0,1.3,0.1,2.2,0.2,2.5
		c0,0,0.1,0.1,0.1,0.1c0,0,0.2,0.1,0.3,0.2s0.4,0.2,0.5,0.3c0.2,0.1,0.4,0.2,0.6,0.3c0.2,0.1,0.5,0.2,0.7,0.2c0.2,0,0.4,0,0.7,0
		c0.2,0,0.4-0.1,0.6-0.2c0.7-0.4,1.2-0.9,1.5-1.6C205.7,63.8,205.9,62.8,206,61.3z"/>
</g>
</svg>
