<?xml version="1.0" encoding="utf-8"?>
<!-- Generator: Adobe Illustrator 27.3.0, SVG Export Plug-In . SVG Version: 6.00 Build 0)  -->
<svg version="1.1" id="Layer_1" xmlns="http://www.w3.org/2000/svg" xmlns:xlink="http://www.w3.org/1999/xlink" x="0px" y="0px"
	 viewBox="0 0 341.8 119.5" style="enable-background:new 0 0 341.8 119.5;" xml:space="preserve">
<style type="text/css">
	.st0{opacity:5.000000e-02;}
	.st1{stroke:#000000;stroke-width:8.7374;stroke-miterlimit:10;}
	.st2{font-family:'OmpalumpaRegular';}
	.st3{font-size:49.7508px;}
	.st4{fill:#FDFFFF;stroke:#7AC9D6;stroke-width:8.7374;stroke-miterlimit:10;}
	.st5{enable-background:new    ;}
	.st6{fill:#7AC9D6;}
</style>
<g class="st0">
	<path class="st1" d="M35.4,10.2h268.1c17.1,0,31,13.9,31,31v42.9c0,17.1-13.9,31-31,31H35.4c-17.1,0-31-13.9-31-31V41.2
		C4.4,24.1,18.3,10.2,35.4,10.2z"/>
	<text transform="matrix(1 0 0 1 116.9201 80.2609)" class="st2 st3">Back</text>
</g>
<path class="st4" d="M38.3,4.4h268.1c17.1,0,31,13.9,31,31v42.9c0,17.1-13.9,31-31,31H38.3c-17.1,0-31-13.9-31-31V35.4
	C7.3,18.3,21.2,4.4,38.3,4.4z"/>
<g class="st5">
	<path class="st6" d="M145.2,71.7c-0.8,1-1.8,1.7-3,2.1c-1.2,0.3-2.5,0.2-3.8-0.3c-1.3-0.5-2.4-1.5-3.2-3c-0.2-0.4-0.6-1.2-1.3-2.5
		c-0.6-1.3-1.1-2.2-1.4-2.7c-0.3-0.5-0.5-0.6-0.5-0.3c0,0.4,0,1.2,0,2.4c0,1.2,0,2,0,2.4c0,0.9-0.2,1.6-0.5,2.3
		c-0.3,0.6-0.8,1.1-1.3,1.4c-0.6,0.3-1.2,0.5-1.8,0.6c-0.7,0.1-1.3,0.1-2-0.1c-0.7-0.2-1.3-0.5-1.9-0.8c-0.6-0.4-1.1-0.9-1.4-1.5
		c-0.4-0.6-0.6-1.4-0.6-2.2c-0.3-4.4-0.4-9.5-0.2-15.2c0.2-5.7,0.6-9.5,1.3-11.5c0.4-1.1,1.2-1.9,2.4-2.3c1.2-0.4,2.4-0.5,3.6-0.2
		c1.2,0.2,2.1,0.7,2.6,1.2c0.7,0.8,1.4,2.3,2.1,4.6c0.6,2.3,1.2,4.3,1.6,6.2c0.4,1.9,0.7,2.8,0.9,2.8c0.1-0.1,0.2-0.3,0.2-0.7
		c0-0.4-0.1-1-0.1-2c-0.1-0.9-0.1-1.9-0.2-2.8c-0.1-0.9-0.1-2,0-3.3c0.1-1.2,0.2-2.3,0.4-3.3c0.2-0.7,0.5-1.3,1.1-1.8
		c0.6-0.5,1.3-0.9,2.1-1.1s1.6-0.3,2.4-0.2c0.8,0.1,1.6,0.4,2.3,0.9c0.7,0.5,1.2,1.2,1.5,2.1c0.2,0.5,0.3,1,0.4,1.5
		c0.1,0.5,0.2,1.1,0.2,1.8c0,0.7,0.1,1.3,0.1,1.8c0,0.5,0,1.2,0,2.1c0,0.9-0.1,1.5-0.1,2c0,0.5-0.1,1.2-0.1,2.2
		c-0.1,1-0.1,1.7-0.1,2.1c0,1.1-0.1,3-0.1,5.8c0,2.8-0.2,4.9-0.3,6.4C146,70,145.7,71.1,145.2,71.7z"/>
	<path class="st6" d="M165.9,65.1c1.4-0.8,2.7-0.7,3.9,0.3c1.2,1,1.8,2.3,1.9,3.8c0,1.5-0.6,2.7-1.7,3.7c-1.6,1-3.6,1.6-6.1,1.8
		c-2.5,0.2-4.7,0.1-6.6-0.4c-2.8-0.7-5-2.3-6.6-4.8c-1.6-2.4-2.5-5.6-2.5-9.4c0-2.8,0.5-5.2,1.5-7.1c1-2,2.4-3.4,4.1-4.4
		c1.7-0.9,3.7-1.4,6-1.4c2.3,0,4.8,0.5,7.3,1.5c1.2,0.5,2.3,1.3,3.1,2.3c0.8,1,1.4,2.2,1.6,3.4c0.2,1.2,0.3,2.4,0.1,3.6
		c-0.2,1.2-0.6,2.2-1.4,3.1c-0.8,0.9-1.7,1.5-2.9,1.7c-1.8,0.4-3.5,0.6-5.2,0.7c-1.6,0.1-2.8,0-3.5,0l-1-0.1
		c0.1,0.7,0.3,1.3,0.7,1.8c0.4,0.5,0.9,0.9,1.6,1.2c0.6,0.3,1.5,0.3,2.5,0.1C163.7,66.2,164.8,65.8,165.9,65.1z M160.7,54.6
		c-0.9,0-1.6,0.3-2.1,0.7c-0.5,0.5-0.5,1-0.1,1.5c0.2,0.3,1,0.5,2.3,0.4c1.3-0.1,2.1-0.3,2.3-0.7c0.1-0.2,0.1-0.5,0-0.8
		c-0.1-0.3-0.4-0.6-0.9-0.8C161.8,54.8,161.3,54.6,160.7,54.6z"/>
	<path class="st6" d="M195,64.3c0.2,0.4,0.4,0.9,0.6,1.5c0.2,0.6,0.3,1.4,0.3,2.1c0,0.8,0,1.6-0.2,2.4c-0.2,0.8-0.5,1.5-0.9,2
		c-0.5,0.6-1.4,0.9-2.9,1.1s-2.9,0-4.1-0.5c-1.3-0.5-1.8-1.3-1.7-2.5c0.2-1.5,0.1-2.8-0.3-4.1c-0.4-1.2-0.8-1.8-1.3-1.9
		c-0.3,0-0.5,0.3-0.8,1.1c-0.3,0.7-0.5,1.6-0.6,2.6s-0.1,2,0.2,2.9c0.2,0.8-0.4,1.5-2,2c-1.9,0.7-3.8,0.7-5.5,0
		c-1.3-0.5-2.1-1.2-2.4-2.3c-0.3-1.4-0.4-2.7-0.2-4c0.2-1.3,0.5-2.5,1-3.5c0.3-0.6,0.8-1.1,1.4-1.6c0.6-0.5,1.2-0.6,1.7-0.5
		c-1.7-0.6-2.7-1.6-3.1-3.1c-0.2-1-0.4-1.8-0.4-2.6s0.1-1.5,0.2-2.2c0.2-0.7,0.4-1.2,0.5-1.6c0.2-0.4,0.4-0.9,0.7-1.5
		c0.4-0.7,1-1.2,2-1.5s1.9-0.5,2.9-0.4c1,0.1,1.8,0.4,2.6,1.1c0.7,0.7,1.1,1.7,1.1,2.9c0,0.9,0,1.7,0,2.4s0.1,1.3,0.1,1.7
		c0.1,0.4,0.2,0.8,0.4,1c0.2,0.2,0.4,0.3,0.7,0.2c0.4-0.1,0.8-0.7,1-1.9c0.2-1.2,0.4-2.5,0.5-3.9c0.1-0.9,0.5-1.6,1.2-2.2
		c0.7-0.6,1.5-1,2.4-1.2c0.9-0.2,1.8-0.1,2.7,0.3c0.9,0.4,1.6,1.1,1.9,2c1.3,3.5,1.3,6.5-0.2,8.9c-0.7,1.2-1.6,1.9-2.6,2.2
		C193.1,62,194.1,62.9,195,64.3z"/>
	<path class="st6" d="M218.1,64.3c0.9,0.4,1.5,0.9,2,1.7c0.4,0.7,0.6,1.6,0.5,2.4c-0.1,0.9-0.4,1.7-0.9,2.6
		c-0.5,0.8-1.3,1.6-2.4,2.2s-2.4,1.1-4,1.3c-1.7,0.2-3.3,0.2-4.7,0c-1.4-0.2-2.8-0.8-4-1.7c-1.2-0.9-2-2.1-2.5-3.7
		c-0.1-0.3-0.2-0.6-0.2-0.9c-0.1-0.3-0.1-0.7-0.1-1.1c0-0.4,0-0.8,0-1.1c0-0.3,0-0.8,0-1.3c0-0.5,0.1-0.9,0.1-1.2s0.1-0.8,0.1-1.4
		c0.1-0.6,0.1-1,0.1-1.3c0-0.3,0.1-0.7,0.1-1.4c0.1-0.6,0.1-1.1,0.2-1.3c0-0.2-0.1-0.3-0.2-0.4c-0.1,0-0.3-0.1-0.6,0
		s-0.6,0.1-0.9,0.1c-0.3,0-0.7,0-1.1,0c-0.4,0-0.8-0.1-1.1-0.2c-0.9-0.4-1.5-1.1-1.8-2.3c-0.3-1.2-0.3-2.3-0.1-3.4
		c0.3-1.1,0.7-1.7,1.2-2c0.7-0.2,1.5-0.4,2.3-0.4c0.8,0,1.5,0,1.9,0c0.4,0,0.7-0.1,0.6-0.4c0-0.7,0-1.2,0-1.7c0-0.5,0-0.7,0-0.8
		c0-0.1,0-0.2,0-0.4c0-0.2,0-0.4,0-0.6c0-0.2,0-0.6,0.1-1.3c0.1-1,0.4-1.8,1-2.5c0.6-0.7,1.4-1.1,2.3-1.3c0.9-0.2,1.8-0.2,2.7-0.1
		c0.9,0.1,1.7,0.6,2.4,1.3c0.7,0.7,1.1,1.6,1.3,2.6c0.1,0.8,0.2,1.7,0.1,2.6c-0.1,0.9-0.1,1.5-0.2,1.8c-0.1,0.3,0,0.7,0.1,1.1
		c0.2,0.2,0.4,0.4,0.7,0.4c0.3,0,0.7,0.1,1.3,0.1c0.6,0,1.2,0.1,1.8,0.2c0.7,0.1,1.3,0.5,1.7,1.1c0.4,0.6,0.7,1.2,0.7,1.9
		c0,0.7,0,1.4-0.2,2.1c-0.2,0.7-0.5,1.2-1,1.7c-0.5,0.4-1.1,0.6-1.7,0.5c-1.2-0.2-2.2-0.2-2.8-0.2s-1,0.2-1.1,0.6
		c-0.1,0.5-0.2,1.4-0.2,2.6s0,2.5,0.1,3.8c0.1,1.3,0.4,2.1,0.7,2.3c0.3,0.2,0.6,0.1,0.9,0c0.3-0.2,0.5-0.5,0.7-0.9
		c0.2-0.4,0.5-0.8,0.8-1.1c0.3-0.4,0.8-0.6,1.3-0.7C216.6,63.8,217.3,63.9,218.1,64.3z"/>
</g>
</svg>
