<?xml version="1.0" encoding="utf-8"?>
<!-- Generator: Adobe Illustrator 27.3.0, SVG Export Plug-In . SVG Version: 6.00 Build 0)  -->
<svg version="1.1" id="btn" xmlns="http://www.w3.org/2000/svg" xmlns:xlink="http://www.w3.org/1999/xlink" x="0px" y="0px"
	 viewBox="0 0 341.8 119.5" style="enable-background:new 0 0 341.8 119.5;" xml:space="preserve">
<style type="text/css">
	.st0{opacity:5.000000e-02;}
	.st1{stroke:#000000;stroke-width:8.7374;stroke-miterlimit:10;}
	.st2{font-family:'OmpalumpaRegular';}
	.st3{font-size:49.7508px;}
	.st4{fill:#FDFFFF;stroke:#7AC9D6;stroke-width:8.7374;stroke-miterlimit:10;}
	.st5{enable-background:new    ;}
	.st6{fill:#7AC9D6;}
</style>
<g>
	<g id="Layer_2_00000024691749416109774160000009452804576643032200_">
		<g id="buttons">
			<g class="st0">
				<path class="st1" d="M35.4,10.2h268.1c17.1,0,31,13.9,31,31v42.9c0,17.1-13.9,31-31,31H35.4c-17.1,0-31-13.9-31-31V41.2
					C4.4,24.1,18.3,10.2,35.4,10.2z"/>
				<text transform="matrix(1 0 0 1 116.9201 80.2609)" class="st2 st3">Back</text>
			</g>
			<path class="st4" d="M38.3,4.4h268.1c17.1,0,31,13.9,31,31v42.9c0,17.1-13.9,31-31,31H38.3c-17.1,0-31-13.9-31-31V35.4
				C7.3,18.3,21.2,4.4,38.3,4.4z"/>
			<g class="st5">
				<path class="st6" d="M138.3,69.2c0,1.2-0.3,2.2-1,3c-0.7,0.9-1.6,1.4-2.6,1.6c-1,0.2-2,0.3-3,0.1c-1-0.2-1.9-0.7-2.6-1.7
					c-0.7-0.9-1.1-2.1-1.1-3.6c-0.1-2-0.2-4.6-0.4-7.9c-0.2-3.3-0.3-5.9-0.4-7.8c-0.1-1.9,0-3.8,0.2-5.8c0.2-2,0.7-3.6,1.3-4.7
					c0.5-0.8,1.5-1.5,2.9-2.1c1.4-0.6,3.1-1,4.9-1.1c1.9-0.1,3.7,0,5.6,0.2c1.9,0.3,3.6,1,5.2,2.1c1.6,1.1,2.8,2.6,3.6,4.4
					c0.7,1.6,1.1,3.2,1.2,4.8c0.1,1.6,0,3-0.4,4.3c-0.4,1.3-0.9,2.4-1.5,3.3s-1.3,1.8-2,2.5c-1.2,1-2.6,1.8-4.2,2.3
					c-1.6,0.5-3,0.8-4,0.9c-1.1,0.1-1.6,0.2-1.6,0.3C138.4,64.7,138.3,66.3,138.3,69.2z M138.1,48.2c-0.5,0.7-0.7,2-0.6,3.9
					s0.3,3,0.7,3.2c0.3,0.1,0.5,0.2,0.6,0.3c0.2,0,0.4,0,0.8-0.1c0.4-0.1,0.9-0.4,1.5-0.8c0.6-0.4,1-0.9,1.1-1.6
					c0.1-0.7-0.1-1.6-0.5-2.9c-0.2-0.6-0.4-1.1-0.7-1.5c-0.3-0.4-0.6-0.6-0.8-0.8s-0.6-0.2-0.8-0.2c-0.3,0-0.5,0-0.7,0.1
					C138.4,47.9,138.3,48,138.1,48.2z"/>
				<path class="st6" d="M162.3,42.8c0.4,2.4,0.7,4.4,0.8,6.2c0.1,1.8,0.2,4.4,0.2,7.6c0,0.4,0,1.2,0,2.4c0,1.2,0,2,0,2.4
					c0,0.4,0,1.1,0,2.1c0,0.9-0.1,1.7-0.1,2.2c0,0.5-0.1,1.1-0.2,1.8c-0.1,0.7-0.2,1.3-0.3,1.9c-0.2,1.3-0.8,2.3-1.8,3s-1.9,1.1-3,1
					c-1,0-2-0.4-2.9-1.2c-0.9-0.8-1.4-1.8-1.6-3.2c-0.4-3.4-0.5-8.3-0.4-14.7c0.1-6.4,0.3-10.3,0.7-11.8c0.3-1,0.8-1.8,1.7-2.4
					c0.9-0.6,1.8-0.8,2.7-0.8c0.9,0,1.8,0.3,2.6,0.9C161.7,41,162.2,41.8,162.3,42.8z"/>
				<path class="st6" d="M189.2,69.2c0.2,1.1,0.1,2-0.4,2.8c-0.5,0.8-1.2,1.4-2,1.7c-0.9,0.3-1.8,0.5-2.7,0.6s-1.8,0-2.5-0.2
					c-0.7-0.2-1.2-0.6-1.4-1l-0.2-0.9c0,0.1-0.1,0.2-0.1,0.3s-0.2,0.3-0.5,0.6c-0.3,0.3-0.7,0.5-1.1,0.7c-0.4,0.2-1.1,0.4-2.1,0.5
					s-2,0.1-3.3,0c-1.4-0.1-2.7-0.5-3.8-1.3c-1.1-0.8-1.9-1.7-2.5-2.8c-0.6-1.1-1-2.3-1.4-3.7c-0.4-1.3-0.5-2.7-0.5-4s0-2.5,0.1-3.7
					c0.1-1.4,0.4-2.8,0.9-4.1c0.5-1.3,1.1-2.6,1.9-3.7c0.8-1.1,1.8-2,3-2.7c1.2-0.7,2.6-1,4.1-1.1c0.8,0,1.5,0.1,2.1,0.3
					s1.1,0.4,1.4,0.7c0.3,0.3,0.6,0.6,0.8,0.9s0.4,0.6,0.4,0.8l0.1,0.3c-0.1-0.5,0-1,0-1.4c0.1-0.6,0.5-1.1,1.2-1.5
					c0.6-0.4,1.4-0.6,2.2-0.7s1.7,0,2.5,0.2s1.5,0.5,2.1,1.1c0.6,0.5,0.9,1.2,1,2.1c0.1,1.5,0.1,3.2,0,5.2c-0.1,2,0,4.4,0,7.2
					S188.9,67.5,189.2,69.2z M179.6,64.6c0-0.2,0-0.7,0-1.4c0-0.7,0.1-1.5,0.1-2.5c0-0.9,0-1.8,0-2.7s-0.1-1.4-0.3-1.7
					c-0.1-0.1-0.1-0.1-0.2-0.2c-0.1-0.1-0.3-0.2-0.6-0.3c-0.3-0.2-0.6-0.3-0.9-0.3s-0.6-0.1-1-0.2c-0.4,0-0.7,0-0.9,0.2
					c-0.5,0.3-0.8,0.6-1.1,0.9c-0.3,0.3-0.5,0.8-0.6,1.4s-0.2,1.4-0.3,2.4c0,0.8,0,1.6,0.1,2.5c0.1,0.9,0.3,1.7,0.7,2.4
					c0.3,0.7,0.7,1.2,1.2,1.4c0.9,0.3,1.7,0.2,2.5-0.3C179.1,65.8,179.5,65.2,179.6,64.6z"/>
				<path class="st6" d="M214.4,53.3c-0.1,0.6-0.2,2.1-0.2,4.7s0,5.1,0.1,7.6c0.2,1.4,0.3,3.5,0.2,6.4c-0.1,2.9-0.4,5.3-0.9,7.1
					c-0.5,1.6-1.4,2.8-2.9,3.8c-1.5,1-3.1,1.5-4.9,1.8s-3.5,0.2-5.2-0.1c-1.7-0.3-3.1-0.8-4.1-1.5c-1.1-1-1.7-2.1-1.8-3.3
					c0-1.3,0.4-2.3,1.3-3.2c0.9-0.9,2-1,3.1-0.5c0.5,0.2,1,0.4,1.6,0.5c0.6,0.1,1.2,0.2,1.8,0.2c0.6,0,1.2-0.2,1.6-0.5
					c0.5-0.3,0.8-0.8,0.9-1.4c0-0.2,0.1-0.5,0.1-1.1c0-0.6,0-0.9,0-0.9c0-0.1-0.1-0.2-0.1-0.2s-0.1,0-0.2,0.1s-0.2,0.2-0.3,0.3
					c-0.1,0.1-0.3,0.3-0.5,0.4c-0.2,0.1-0.5,0.3-0.8,0.4c-0.3,0.1-0.7,0.3-1.2,0.4c-0.5,0.1-1,0.2-1.6,0.3c-1.7,0.2-3.3-0.1-4.7-0.9
					c-1.4-0.8-2.6-1.9-3.4-3.4c-0.9-1.5-1.3-3.3-1.4-5.3c-0.4-6.3-0.1-10.7,0.9-13.1c0.4-1,0.9-1.8,1.7-2.3c0.8-0.5,1.6-0.8,2.5-0.7
					c0.9,0,1.7,0.2,2.4,0.6c0.8,0.3,1.4,0.9,1.8,1.7c0.4,0.8,0.6,1.7,0.4,2.6c-0.3,2.1-0.6,3.8-0.7,5.2c-0.1,1.4-0.2,2.9-0.1,4.4
					c0.1,1.5,0.4,2.5,1.1,3c0.6,0.5,1.5,0.6,2.7,0.2c0.8-0.3,1.3-0.9,1.4-1.8c0.2-1.2,0.2-3.6,0-7.1c-0.2-3.5-0.3-5.7-0.1-6.5
					c0.1-0.7,0.6-1.3,1.4-1.7c0.8-0.4,1.7-0.7,2.7-0.7c1,0,2,0.1,2.9,0.3c0.9,0.2,1.7,0.8,2.2,1.5C214.4,51.3,214.6,52.2,214.4,53.3
					z"/>
			</g>
		</g>
	</g>
</g>
</svg>
