<?xml version="1.0" encoding="UTF-8"?>
<svg id="rotate-arrows-down" xmlns="http://www.w3.org/2000/svg" viewBox="0 0 69.95 91.8">
  <defs>
    <style>
      .cls-1 {
        fill: #a6e5ea;
      }
    </style>
  </defs>
  <path class="cls-1" d="m69.95,59.01c0,.65-.28,1.26-.78,1.67l-31.04,29.77s0,0-.02.02l-.15.14c-.81.76-1.88,1.18-2.99,1.19-1.11,0-2.18-.43-2.99-1.19-.04-.04-.08-.08-.12-.12L.68,60.6s-.03-.03-.04-.04c-.41-.41-.64-.97-.64-1.55,0-1.21.98-2.19,2.19-2.19h19.67V8.74c0-4.83,3.91-8.74,8.74-8.74h8.74c4.83,0,8.74,3.91,8.74,8.74v48.08h19.67c1.21,0,2.19.98,2.19,2.19h.01Z"/>
</svg>