<?xml version="1.0" encoding="utf-8"?>
<!-- Generator: Adobe Illustrator 27.3.0, SVG Export Plug-In . SVG Version: 6.00 Build 0)  -->
<svg version="1.1" id="Layer_1" xmlns="http://www.w3.org/2000/svg" xmlns:xlink="http://www.w3.org/1999/xlink" x="0px" y="0px"
	 viewBox="0 0 341.8 119.5" style="enable-background:new 0 0 341.8 119.5;" xml:space="preserve">
<style type="text/css">
	.st0{opacity:5.000000e-02;}
	.st1{stroke:#000000;stroke-width:8.7374;stroke-miterlimit:10;}
	.st2{font-family:'OmpalumpaRegular';}
	.st3{font-size:49.7508px;}
	.st4{fill:#FDFFFF;stroke:#7AC9D6;stroke-width:8.7374;stroke-miterlimit:10;}
	.st5{enable-background:new    ;}
	.st6{fill:#7AC9D6;}
</style>
<g class="st0">
	<path class="st1" d="M35.4,10.2h268.1c17.1,0,31,13.9,31,31v42.9c0,17.1-13.9,31-31,31H35.4c-17.1,0-31-13.9-31-31V41.2
		C4.4,24.1,18.3,10.2,35.4,10.2z"/>
	<text transform="matrix(1 0 0 1 116.9201 80.2609)" class="st2 st3">Back</text>
</g>
<path class="st4" d="M38.3,4.4h268.1c17.1,0,31,13.9,31,31v42.9c0,17.1-13.9,31-31,31H38.3c-17.1,0-31-13.9-31-31V35.4
	C7.3,18.3,21.2,4.4,38.3,4.4z"/>
<g class="st5">
	<path class="st6" d="M53.8,53.2c-0.1-1.8,0-3.4,0.3-5c0.4-1.5,0.9-2.8,1.6-3.9c0.7-1,1.5-1.9,2.4-2.7c0.9-0.8,1.8-1.3,2.8-1.7
		c0.9-0.4,1.8-0.7,2.7-0.8c0.8-0.2,1.5-0.2,2.4-0.2c0.8,0,1.5,0.1,2,0.2c0.5,0.1,1,0.2,1.6,0.4s1,0.4,1.2,0.6c0.3,0.1,0.6,0.3,1,0.6
		c1.9,1.1,2.6,2.8,2.2,5c-0.3,1.6-1,2.8-2.2,3.6c-0.9,0.6-1.8,0.6-2.6,0c-1.7-1.2-3.1-1.6-4.2-1.3c-1.1,0.3-1.5,1.4-1.4,3.1
		c0.1,0.6,0.3,1.1,0.8,1.5c0.5,0.4,1.2,0.7,2,0.9c0.8,0.2,1.7,0.4,2.6,0.7c0.9,0.2,1.9,0.7,2.9,1.3c1.1,0.6,2,1.4,2.8,2.3
		c1.3,1.6,2.1,3.3,2.4,5.2c0.2,1.9,0,3.7-0.7,5.3c-0.7,1.6-1.8,3-3.4,4.2c-1.5,1.2-3.3,1.9-5.2,2c-2.1,0.2-4,0.2-5.8-0.1
		c-1.8-0.3-3.3-0.7-4.5-1.3c-1.2-0.6-2.1-1.2-2.8-1.7c-0.7-0.5-1.3-1-1.7-1.5c-0.5-0.6-0.8-1.3-0.9-2.2c-0.1-0.9-0.1-1.7,0.2-2.6
		c0.2-0.8,0.6-1.6,1.1-2.2c0.5-0.7,1.1-1.1,1.9-1.2c0.7-0.1,1.5,0,2.4,0.5c3.9,2.1,6.3,3.3,7.1,3.6C66,66.3,66.8,66,67,65
		c0.1-0.6-0.1-1.1-0.6-1.5c-0.6-0.5-1.3-0.9-2.3-1.2c-0.9-0.3-2-0.8-3.1-1.3c-1.1-0.5-2.2-1.1-3.2-1.6c-1-0.6-1.9-1.4-2.6-2.5
		C54.3,55.8,53.9,54.6,53.8,53.2z"/>
	<path class="st6" d="M97.1,64.3c0.9,0.4,1.5,0.9,2,1.7s0.6,1.6,0.5,2.4c-0.1,0.9-0.4,1.7-0.9,2.6c-0.5,0.8-1.3,1.6-2.4,2.2
		c-1.1,0.6-2.4,1.1-4,1.3c-1.7,0.2-3.3,0.2-4.7,0s-2.8-0.8-4-1.7c-1.2-0.9-2-2.1-2.5-3.7c-0.1-0.3-0.2-0.6-0.2-0.9
		c-0.1-0.3-0.1-0.7-0.1-1.1c0-0.4,0-0.8,0-1.1c0-0.3,0-0.8,0-1.3c0-0.5,0.1-0.9,0.1-1.2c0-0.3,0.1-0.8,0.1-1.4
		c0.1-0.6,0.1-1,0.1-1.3c0-0.3,0.1-0.7,0.1-1.4c0.1-0.6,0.1-1.1,0.2-1.3c0-0.2-0.1-0.3-0.2-0.4c-0.1,0-0.3-0.1-0.6,0
		c-0.3,0-0.6,0.1-0.9,0.1c-0.3,0-0.7,0-1.1,0c-0.4,0-0.8-0.1-1.1-0.2c-0.9-0.4-1.5-1.1-1.8-2.3c-0.3-1.2-0.3-2.3-0.1-3.4
		s0.7-1.7,1.2-2c0.7-0.2,1.5-0.4,2.3-0.4c0.8,0,1.5,0,1.9,0s0.7-0.1,0.6-0.4c0-0.7,0-1.2,0-1.7c0-0.5,0-0.7,0-0.8c0-0.1,0-0.2,0-0.4
		c0-0.2,0-0.4,0-0.6c0-0.2,0-0.6,0.1-1.3c0.1-1,0.4-1.8,1-2.5c0.6-0.7,1.4-1.1,2.3-1.3c0.9-0.2,1.8-0.2,2.7-0.1
		c0.9,0.1,1.7,0.6,2.4,1.3c0.7,0.7,1.1,1.6,1.3,2.6c0.1,0.8,0.2,1.7,0.1,2.6c-0.1,0.9-0.1,1.5-0.2,1.8c-0.1,0.3,0,0.7,0.1,1.1
		c0.2,0.2,0.4,0.4,0.7,0.4c0.3,0,0.7,0.1,1.3,0.1s1.2,0.1,1.8,0.2c0.7,0.1,1.3,0.5,1.7,1.1c0.4,0.6,0.7,1.2,0.7,1.9
		c0,0.7,0,1.4-0.2,2.1c-0.2,0.7-0.5,1.2-1,1.7c-0.5,0.4-1.1,0.6-1.7,0.5c-1.2-0.2-2.2-0.2-2.8-0.2c-0.6,0-1,0.2-1.1,0.6
		c-0.1,0.5-0.2,1.4-0.2,2.6c-0.1,1.2,0,2.5,0.1,3.8c0.1,1.3,0.4,2.1,0.7,2.3c0.3,0.2,0.6,0.1,0.9,0c0.3-0.2,0.5-0.5,0.7-0.9
		c0.2-0.4,0.5-0.8,0.8-1.1c0.3-0.4,0.8-0.6,1.3-0.7C95.6,63.8,96.3,63.9,97.1,64.3z"/>
	<path class="st6" d="M124.5,69.2c0.2,1.1,0.1,2-0.4,2.8c-0.5,0.8-1.2,1.4-2,1.7c-0.9,0.3-1.8,0.5-2.7,0.6c-0.9,0.1-1.8,0-2.5-0.2
		c-0.7-0.2-1.2-0.6-1.4-1l-0.2-0.9c0,0.1-0.1,0.2-0.1,0.3c0,0.1-0.2,0.3-0.5,0.6c-0.3,0.3-0.7,0.5-1.1,0.7c-0.4,0.2-1.1,0.4-2.1,0.5
		s-2,0.1-3.3,0c-1.4-0.1-2.7-0.5-3.8-1.3c-1.1-0.8-1.9-1.7-2.5-2.8c-0.6-1.1-1-2.3-1.4-3.7c-0.4-1.3-0.5-2.7-0.5-4s0-2.5,0.1-3.7
		c0.1-1.4,0.4-2.8,0.9-4.1c0.5-1.3,1.1-2.6,1.9-3.7c0.8-1.1,1.8-2,3-2.7c1.2-0.7,2.6-1,4.1-1.1c0.8,0,1.5,0.1,2.1,0.3
		c0.6,0.2,1.1,0.4,1.4,0.7c0.3,0.3,0.6,0.6,0.8,0.9c0.2,0.3,0.4,0.6,0.4,0.8l0.1,0.3c-0.1-0.5,0-1,0-1.4c0.1-0.6,0.5-1.1,1.2-1.5
		c0.6-0.4,1.4-0.6,2.2-0.7c0.8,0,1.6,0,2.5,0.2c0.8,0.2,1.5,0.5,2.1,1.1c0.6,0.5,0.9,1.2,1,2.1c0.1,1.5,0.1,3.2,0,5.2
		c-0.1,2,0,4.4,0,7.2S124.2,67.5,124.5,69.2z M114.9,64.6c0-0.2,0-0.7,0-1.4c0-0.7,0.1-1.5,0.1-2.5c0-0.9,0-1.8,0-2.7
		s-0.1-1.4-0.3-1.7c-0.1-0.1-0.1-0.1-0.2-0.2c-0.1-0.1-0.3-0.2-0.6-0.3c-0.3-0.2-0.6-0.3-0.9-0.3c-0.3-0.1-0.6-0.1-1-0.2
		c-0.4,0-0.7,0-0.9,0.2c-0.5,0.3-0.8,0.6-1.1,0.9c-0.3,0.3-0.5,0.8-0.6,1.4c-0.1,0.6-0.2,1.4-0.3,2.4c0,0.8,0,1.6,0.1,2.5
		c0.1,0.9,0.3,1.7,0.7,2.4c0.3,0.7,0.7,1.2,1.2,1.4c0.9,0.3,1.7,0.2,2.5-0.3C114.5,65.8,114.9,65.2,114.9,64.6z"/>
	<path class="st6" d="M148.1,51c0.5,0.8,0.6,1.6,0.5,2.5s-0.4,1.7-1,2.3c-0.6,0.6-1.3,1.1-2.2,1.4s-1.9,0.2-3-0.3
		c-2.6-1.1-4.3-1.5-5.1-1c-0.4,0.2-0.7,0.4-1,0.8c-0.3,0.4-0.5,0.9-0.6,1.5c-0.1,0.6-0.2,1.3-0.2,1.9c0,0.6,0,1.4,0,2.4
		c0.1,1,0.2,1.9,0.2,2.6c0.1,0.7,0.2,1.6,0.3,2.9c0.2,1.4,0,2.5-0.4,3.4c-0.5,0.9-1.1,1.5-1.9,1.8c-0.8,0.3-1.7,0.4-2.5,0.4
		c-0.9,0-1.7-0.3-2.4-0.8c-0.7-0.5-1.3-1.1-1.5-1.8c-0.5-1.2-0.7-2.8-0.8-4.6s0-3.8,0-6c0.1-2.2,0-5.1-0.4-8.7
		c-0.1-1.4,0.3-2.4,1.2-3.2s1.9-1.2,3.1-1.2c1.2,0,2.3,0.1,3.4,0.5c1.1,0.4,1.7,1,1.9,1.7l0.1,0.1c0.2-0.2,0.4-0.4,0.5-0.5
		c0.1-0.1,0.3-0.3,0.5-0.5c0.2-0.2,0.5-0.4,0.8-0.5c0.3-0.2,0.7-0.3,1.2-0.4s1-0.2,1.6-0.2c1.6-0.1,3.1,0.2,4.6,0.8
		C146.4,49,147.4,49.9,148.1,51z"/>
	<path class="st6" d="M170.1,64.3c0.9,0.4,1.5,0.9,2,1.7c0.4,0.7,0.6,1.6,0.5,2.4c-0.1,0.9-0.4,1.7-0.9,2.6
		c-0.5,0.8-1.3,1.6-2.4,2.2c-1.1,0.6-2.4,1.1-4,1.3c-1.7,0.2-3.3,0.2-4.7,0s-2.8-0.8-4-1.7c-1.2-0.9-2-2.1-2.5-3.7
		c-0.1-0.3-0.2-0.6-0.2-0.9c-0.1-0.3-0.1-0.7-0.1-1.1c0-0.4,0-0.8,0-1.1c0-0.3,0-0.8,0-1.3c0-0.5,0.1-0.9,0.1-1.2
		c0-0.3,0.1-0.8,0.1-1.4c0.1-0.6,0.1-1,0.1-1.3c0-0.3,0.1-0.7,0.1-1.4c0.1-0.6,0.1-1.1,0.2-1.3c0-0.2-0.1-0.3-0.2-0.4
		c-0.1,0-0.3-0.1-0.6,0c-0.3,0-0.6,0.1-0.9,0.1c-0.3,0-0.7,0-1.1,0c-0.4,0-0.8-0.1-1.1-0.2c-0.9-0.4-1.5-1.1-1.8-2.3
		c-0.3-1.2-0.3-2.3-0.1-3.4s0.7-1.7,1.2-2c0.7-0.2,1.5-0.4,2.3-0.4c0.8,0,1.5,0,1.9,0s0.7-0.1,0.6-0.4c0-0.7,0-1.2,0-1.7
		c0-0.5,0-0.7,0-0.8c0-0.1,0-0.2,0-0.4c0-0.2,0-0.4,0-0.6c0-0.2,0-0.6,0.1-1.3c0.1-1,0.4-1.8,1-2.5c0.6-0.7,1.4-1.1,2.3-1.3
		c0.9-0.2,1.8-0.2,2.7-0.1c0.9,0.1,1.7,0.6,2.4,1.3c0.7,0.7,1.1,1.6,1.3,2.6c0.1,0.8,0.2,1.7,0.1,2.6c-0.1,0.9-0.1,1.5-0.2,1.8
		c-0.1,0.3,0,0.7,0.1,1.1c0.2,0.2,0.4,0.4,0.7,0.4c0.3,0,0.7,0.1,1.3,0.1s1.2,0.1,1.8,0.2c0.7,0.1,1.3,0.5,1.7,1.1
		c0.4,0.6,0.7,1.2,0.7,1.9c0,0.7,0,1.4-0.2,2.1c-0.2,0.7-0.5,1.2-1,1.7c-0.5,0.4-1.1,0.6-1.7,0.5c-1.2-0.2-2.2-0.2-2.8-0.2
		c-0.6,0-1,0.2-1.1,0.6c-0.1,0.5-0.2,1.4-0.2,2.6c-0.1,1.2,0,2.5,0.1,3.8c0.1,1.3,0.4,2.1,0.7,2.3c0.3,0.2,0.6,0.1,0.9,0
		c0.3-0.2,0.5-0.5,0.7-0.9c0.2-0.4,0.5-0.8,0.8-1.1c0.3-0.4,0.8-0.6,1.3-0.7C168.5,63.8,169.2,63.9,170.1,64.3z"/>
	<path class="st6" d="M201.5,75c-1.9,0-3.6-0.3-5.1-0.8c-1.5-0.6-2.7-1.3-3.7-2.2s-1.7-2-2.4-3.4c-0.6-1.3-1.1-2.6-1.4-4
		c-0.3-1.4-0.5-2.8-0.5-4.4s-0.1-3,0-4.3c0.1-1.3,0.2-2.6,0.4-4c0.5-4.2,1.9-7.4,4.2-9.4c2.2-2,5.3-3,9.3-3c2.3,0,4.2,0.4,5.9,1.1
		c1.7,0.7,3,1.6,4,2.7c1,1.1,1.8,2.5,2.4,4.1c0.6,1.6,1,3.2,1.2,4.7c0.2,1.5,0.3,3.2,0.4,5c0,1.3,0,2.5,0,3.6s-0.2,2.3-0.4,3.5
		c-0.2,1.3-0.6,2.4-1,3.4c-0.4,1-1,2-1.7,2.9c-0.7,1-1.6,1.8-2.6,2.4c-1,0.6-2.3,1.1-3.8,1.5C205.1,74.8,203.3,75,201.5,75z
		 M202.3,48.3c-0.8,0-1.4,0.6-2,1.8c-0.6,1.2-1,2.7-1.2,4.4c-0.2,1.7-0.3,3.5-0.2,5.2c0.1,1.7,0.4,3.2,1,4.4
		c0.6,1.2,1.4,1.8,2.5,1.8c0.8,0,1.6-0.6,2.2-1.8c0.6-1.2,1-2.7,1.2-4.4c0.2-1.7,0.2-3.4,0.1-5.2c-0.1-1.7-0.5-3.2-1.1-4.4
		C204.1,48.9,203.3,48.3,202.3,48.3z"/>
	<path class="st6" d="M232.4,50.7c0.6-0.9,1.5-1.5,2.6-2c1.1-0.4,2.2-0.6,3.2-0.5c1,0.1,1.9,0.4,2.7,0.9s1.2,1.2,1.2,1.9
		c0,1-0.5,2.8-1.5,5.2c-1,2.5-1.6,4-1.9,4.8c-0.1,0.4-0.2,1-0.4,1.8s-0.4,1.6-0.5,2.2c-0.1,0.6-0.4,1.4-0.7,2.3
		c-0.3,0.9-0.6,1.6-0.9,2.3c-0.3,0.6-0.7,1.3-1.2,2c-0.5,0.7-1.1,1.3-1.7,1.7c-0.6,0.4-1.3,0.8-2.2,1.1c-0.8,0.3-1.8,0.4-2.8,0.4
		c-1.1,0-2.1-0.2-3-0.7c-0.9-0.5-1.7-1.1-2.4-1.9c-0.7-0.8-1.3-1.8-1.8-2.9c-0.6-1.2-1-2.3-1.4-3.4c-0.3-1.1-0.7-2.4-1-3.8
		c-0.3-1.4-0.6-2.7-0.7-3.7c-0.2-1-0.3-2.1-0.5-3.4s-0.3-2.1-0.4-2.6c-0.2-0.9,0-1.7,0.4-2.3c0.4-0.6,1-1.1,1.8-1.3
		c0.8-0.2,1.6-0.3,2.4-0.3s1.7,0.3,2.5,0.8c0.8,0.5,1.5,1.1,1.9,1.8c0.7,1.3,1.3,3.3,1.8,6.1c0.5,2.8,0.8,5.2,0.9,7.3l0.2,3.2
		c0-0.4,0-0.8,0.1-1.4s0.2-1.7,0.4-3.3s0.4-3.1,0.7-4.4c0.2-1.4,0.6-2.8,1-4.3C231.4,52.6,231.9,51.5,232.4,50.7z"/>
	<path class="st6" d="M260,65.1c1.4-0.8,2.7-0.7,3.9,0.3c1.2,1,1.8,2.3,1.9,3.8c0,1.5-0.6,2.7-1.7,3.7c-1.6,1-3.6,1.6-6.1,1.8
		c-2.5,0.2-4.7,0.1-6.6-0.4c-2.8-0.7-5-2.3-6.6-4.8c-1.6-2.4-2.5-5.6-2.5-9.4c0-2.8,0.5-5.2,1.5-7.1c1-2,2.4-3.4,4.1-4.4
		c1.7-0.9,3.7-1.4,6-1.4s4.8,0.5,7.3,1.5c1.2,0.5,2.3,1.3,3.1,2.3c0.8,1,1.4,2.2,1.6,3.4c0.2,1.2,0.3,2.4,0.1,3.6
		c-0.2,1.2-0.6,2.2-1.4,3.1c-0.8,0.9-1.7,1.5-2.9,1.7c-1.8,0.4-3.5,0.6-5.2,0.7c-1.6,0.1-2.8,0-3.5,0l-1-0.1
		c0.1,0.7,0.3,1.3,0.7,1.8c0.4,0.5,0.9,0.9,1.6,1.2c0.6,0.3,1.5,0.3,2.5,0.1C257.8,66.2,258.9,65.8,260,65.1z M254.8,54.6
		c-0.9,0-1.6,0.3-2.1,0.7c-0.5,0.5-0.5,1-0.1,1.5c0.2,0.3,1,0.5,2.3,0.4c1.3-0.1,2.1-0.3,2.3-0.7c0.1-0.2,0.1-0.5,0-0.8
		c-0.1-0.3-0.4-0.6-0.9-0.8C255.9,54.8,255.4,54.6,254.8,54.6z"/>
	<path class="st6" d="M289.5,51c0.5,0.8,0.6,1.6,0.5,2.5s-0.4,1.7-1,2.3c-0.6,0.6-1.3,1.1-2.2,1.4s-1.9,0.2-3-0.3
		c-2.6-1.1-4.3-1.5-5.1-1c-0.4,0.2-0.7,0.4-1,0.8c-0.3,0.4-0.5,0.9-0.6,1.5c-0.1,0.6-0.2,1.3-0.2,1.9c0,0.6,0,1.4,0,2.4
		c0.1,1,0.2,1.9,0.2,2.6c0.1,0.7,0.2,1.6,0.3,2.9c0.2,1.4,0,2.5-0.4,3.4c-0.5,0.9-1.1,1.5-1.9,1.8c-0.8,0.3-1.7,0.4-2.5,0.4
		s-1.7-0.3-2.4-0.8s-1.3-1.1-1.5-1.8c-0.5-1.2-0.7-2.8-0.8-4.6s0-3.8,0-6c0.1-2.2,0-5.1-0.4-8.7c-0.1-1.4,0.3-2.4,1.2-3.2
		s1.9-1.2,3.1-1.2c1.2,0,2.3,0.1,3.4,0.5c1.1,0.4,1.7,1,1.9,1.7l0.1,0.1c0.2-0.2,0.4-0.4,0.5-0.5c0.1-0.1,0.3-0.3,0.5-0.5
		c0.2-0.2,0.5-0.4,0.8-0.5c0.3-0.2,0.7-0.3,1.2-0.4c0.5-0.1,1-0.2,1.6-0.2c1.6-0.1,3.1,0.2,4.6,0.8C287.7,49,288.8,49.9,289.5,51z"
		/>
</g>
</svg>
