<?xml version="1.0" encoding="utf-8"?>
<!-- Generator: Adobe Illustrator 27.3.1, SVG Export Plug-In . SVG Version: 6.00 Build 0)  -->
<svg version="1.1" id="Layer_1" xmlns="http://www.w3.org/2000/svg" xmlns:xlink="http://www.w3.org/1999/xlink" x="0px" y="0px"
	 viewBox="0 0 1292.8 179.6" style="enable-background:new 0 0 1292.8 179.6;" xml:space="preserve">
<style type="text/css">
	.st0{opacity:5.000000e-02;}
	.st1{fill:#FFFFFF;}
	.st2{enable-background:new    ;}
	.st3{fill:#7AC9D6;}
</style>
<g>
	<g id="Layer_2_00000090258844114426813380000007586058057124239518_">
		<g id="instruction_character">
			<g class="st0">
				<path d="M71.6,10h1144.5c39.6,0,71.6,32.1,71.6,71.6V108c0,39.6-32.1,71.6-71.6,71.6H71.6C32.1,179.6,0,147.6,0,108V81.6
					C0,42.1,32.1,10,71.6,10z"/>
			</g>
			<path class="st1" d="M76.6,0h1144.5c39.6,0,71.6,32.1,71.6,71.6V98c0,39.6-32.1,71.6-71.6,71.6H76.6C37.1,169.6,5,137.6,5,98
				V71.6C5,32.1,37.1,0,76.6,0z"/>
			<g class="st2">
				<path class="st3" d="M87.1,96.3c3.6-2.1,6.6-1.8,8.7,0.7c1.9,2.1,2.5,4.8,1.7,8c-0.9,3.5-3.1,5.9-6.8,7.2
					c-3.6,1.3-7.3,2.1-10.9,2.2c-3.6,0.2-7.1-0.3-10.4-1.5c-3.3-1.1-6.3-2.9-8.9-5.2c-2.6-2.4-4.6-5.6-6.1-9.8
					c-1.5-4.2-2.3-9-2.3-14.5c0-9.1,1.6-16.5,4.7-22.3c3.1-5.8,7.3-9.5,12.5-11.2c3.6-1.2,7.8-1.5,12.6-1c4.7,0.6,8.6,2,11.6,4.3
					c2.7,2.1,3.8,5,3.2,8.8c-0.5,3.3-1.9,5.5-4.1,6.7c-2.1,1.2-4.2,0.8-6.3-1.2c-2.1-1.9-4.1-2.9-5.9-3S77.1,65,76,66.3
					s-2.1,2.9-2.9,4.9s-1.4,3.9-1.7,5.7C71,79,70.8,80.6,70.8,82c0,1.9,0.2,3.8,0.5,5.7c0.3,1.9,0.8,3.6,1.6,5.3c0.8,1.7,1.8,3,3,4
					s2.8,1.4,4.7,1.4C82.5,98.3,84.7,97.6,87.1,96.3z"/>
				<path class="st3" d="M143.9,82.4c0.6,10.7-0.1,18.7-2.2,24c-0.7,1.8-1.7,3.2-3.1,4.2c-1.4,1-2.9,1.4-4.4,1.3s-3-0.5-4.3-1.1
					c-1.4-0.6-2.4-1.7-3.2-3.1c-0.8-1.5-1-3-0.7-4.7c1.3-7.8,1.2-14.3-0.3-19.3c-1.2-3.8-2.9-5.2-5.2-4.1c-0.5,0.2-1,0.6-1.5,1
					c-0.4,0.5-0.8,1.1-1,1.8c-0.2,0.8-0.4,1.5-0.6,2.2s-0.2,1.6-0.3,2.8c0,1.2,0,2.2,0,3.1s0.1,2.1,0.2,3.5c0.1,1.5,0.2,2.7,0.4,3.7
					c0.1,1,0.3,2.3,0.5,4c0.3,2.4,0,4.5-0.8,6.2c-0.9,1.7-2,2.8-3.5,3.4c-1.5,0.5-3,0.8-4.6,0.7c-1.6-0.1-3.1-0.6-4.5-1.4
					s-2.3-1.9-2.8-3.3c-1.3-3.6-2.2-10.6-2.5-21s-0.2-19.7,0.5-27.8c0.1-2.1,0.8-3.8,2-5.3s2.7-2.4,4.4-2.8c1.7-0.4,3.4-0.5,5.1-0.3
					s3.1,1.1,4.3,2.5c1.2,1.4,1.8,3.2,1.9,5.4c0,1.3,0,2.5,0,3.8s-0.1,2.2-0.1,2.9c-0.1,0.7-0.1,1.3,0,1.9c0,0.6,0.1,1.1,0.1,1.5
					c0.1,0.2,0.1,0.4,0.2,0.4s0.2-0.1,0.4-0.3c0.2-0.2,0.3-0.4,0.5-0.6s0.5-0.5,1-0.9c0.4-0.3,0.9-0.7,1.5-1
					c0.5-0.3,1.3-0.6,2.2-0.9c0.9-0.3,1.9-0.4,2.9-0.5c4.8-0.5,8.8,1,12.1,4.5C141.7,72.3,143.6,76.8,143.9,82.4z"/>
				<path class="st3" d="M193.7,87.7c0,1.9,0,3.6-0.1,5.1s-0.3,3.2-0.7,5.1c-0.4,1.8-0.9,3.4-1.6,4.9c-0.7,1.4-1.7,2.8-3,4.2
					s-2.8,2.5-4.5,3.4s-3.9,1.6-6.5,2.2c-2.6,0.5-5.5,0.8-8.8,0.8c-3.2,0-6.1-0.4-8.6-1.2c-2.5-0.8-4.6-1.9-6.2-3.2
					c-1.6-1.3-3-2.9-4-4.8c-1.1-1.9-1.9-3.8-2.4-5.7c-0.5-1.9-0.8-4-1-6.3c-0.1-2.3-0.1-4.3,0-6.2c0.1-1.8,0.3-3.7,0.6-5.7
					c0.9-6.1,3.3-10.5,7.1-13.4s9.1-4.3,15.9-4.3c3.8,0,7.2,0.5,10.1,1.5c2.9,1,5.2,2.3,6.8,3.9c1.7,1.5,3,3.5,4.1,5.8
					s1.8,4.6,2.1,6.7C193.3,82.7,193.6,85.1,193.7,87.7z M170.1,99.4c1.4,0,2.6-0.8,3.7-2.4c1.1-1.6,1.8-3.5,2.1-5.8
					s0.4-4.5,0.2-6.8c-0.2-2.2-0.8-4.2-2-5.8c-1.1-1.6-2.6-2.4-4.3-2.4c-1.3,0-2.4,0.8-3.5,2.4c-1,1.6-1.7,3.5-2,5.8
					c-0.3,2.2-0.4,4.5-0.3,6.8c0.2,2.3,0.7,4.2,1.8,5.8C166.9,98.6,168.3,99.4,170.1,99.4z"/>
				<path class="st3" d="M242.9,87.7c0,1.9,0,3.6-0.1,5.1s-0.3,3.2-0.7,5.1c-0.4,1.8-0.9,3.4-1.6,4.9c-0.7,1.4-1.7,2.8-3,4.2
					s-2.8,2.5-4.5,3.4s-3.9,1.6-6.5,2.2c-2.6,0.5-5.5,0.8-8.8,0.8c-3.2,0-6.1-0.4-8.6-1.2c-2.5-0.8-4.6-1.9-6.2-3.2
					c-1.6-1.3-3-2.9-4-4.8c-1.1-1.9-1.9-3.8-2.4-5.7c-0.5-1.9-0.8-4-1-6.3c-0.1-2.3-0.1-4.3,0-6.2c0.1-1.8,0.3-3.7,0.6-5.7
					c0.9-6.1,3.3-10.5,7.1-13.4s9.1-4.3,15.9-4.3c3.8,0,7.2,0.5,10.1,1.5c2.9,1,5.2,2.3,6.8,3.9c1.7,1.5,3,3.5,4.1,5.8
					s1.8,4.6,2.1,6.7C242.6,82.7,242.8,85.1,242.9,87.7z M219.3,99.4c1.4,0,2.6-0.8,3.7-2.4c1.1-1.6,1.8-3.5,2.1-5.8
					s0.4-4.5,0.2-6.8c-0.2-2.2-0.8-4.2-2-5.8c-1.1-1.6-2.6-2.4-4.3-2.4c-1.3,0-2.4,0.8-3.5,2.4c-1,1.6-1.7,3.5-2,5.8
					c-0.3,2.2-0.4,4.5-0.3,6.8c0.2,2.3,0.7,4.2,1.8,5.8C216.1,98.6,217.5,99.4,219.3,99.4z"/>
				<path class="st3" d="M283.1,90.1c2.3,2.2,3.7,4.7,4.1,7.4c0.4,2.8,0,5.3-1.1,7.6c-1.2,2.3-3.1,4.4-5.7,6.1s-5.7,2.7-9.1,3
					c-2.9,0.2-5.7,0.1-8.3-0.1c-2.6-0.3-4.9-0.7-6.6-1.2c-1.8-0.5-3.5-1.2-5.1-2s-2.7-1.5-3.5-2c-0.8-0.6-1.4-1.1-2-1.7
					c-1.1-1-1.7-2.4-1.7-4c-0.1-1.6,0.3-3.1,1.1-4.4s2-2.3,3.4-3c1.5-0.7,3.2-0.5,5.2,0.4c1.7,0.8,3.1,1.4,4.3,1.9
					c1.2,0.5,2.3,0.9,3.4,1.3s2,0.7,2.7,0.8c0.7,0.1,1.3,0.2,1.9,0.1c0.6,0,1-0.2,1.4-0.5c0.3-0.3,0.6-0.7,0.7-1.3
					c0.2-0.9-0.3-1.7-1.5-2.3c-1.3-0.6-2.9-1.2-4.9-1.6s-4-1.1-6.1-1.8c-2.1-0.7-3.9-1.8-5.5-3.4c-1.6-1.5-2.5-3.4-2.7-5.7
					c-0.3-3.1,0-5.9,1-8.5c1-2.5,2.4-4.6,4.2-6.1s3.7-2.7,5.7-3.5s3.9-1.4,5.8-1.7c5.1-0.7,9.8,0.1,14,2.2c3.3,1.6,4.5,4,3.7,7.2
					c-0.5,2.4-1.9,4-3.9,5c-1.5,0.7-2.9,0.7-4.3-0.1c-3-1.7-5.4-2.3-7.2-1.8c-1.8,0.5-2.6,1.9-2.4,4.4c0.1,1.1,0.8,1.9,2.2,2.5
					c1.3,0.6,2.9,1,4.7,1.2c1.8,0.2,3.9,0.8,6.2,1.8C279.4,87.3,281.4,88.5,283.1,90.1z"/>
				<path class="st3" d="M320.7,96.6c2.5-1.5,4.9-1.3,7.2,0.5c2.2,1.9,3.4,4.2,3.4,6.9c0,2.8-1,5-3.1,6.8c-2.9,1.8-6.6,2.9-11.2,3.3
					c-4.6,0.5-8.6,0.2-12.1-0.8c-5.1-1.3-9.1-4.2-12.1-8.7s-4.5-10.2-4.5-17.2c0-5.1,0.9-9.4,2.8-13c1.8-3.6,4.4-6.2,7.5-8
					c3.2-1.7,6.8-2.6,11.1-2.6c4.2,0,8.7,0.9,13.4,2.7c2.2,0.9,4.1,2.3,5.6,4.2c1.5,1.9,2.5,4,3,6.2s0.5,4.4,0.2,6.6s-1.2,4-2.5,5.7
					c-1.4,1.6-3.2,2.7-5.3,3.1c-3.3,0.7-6.5,1.2-9.5,1.3c-3,0.1-5.1,0.1-6.5-0.1l-1.9-0.3c0.1,1.2,0.6,2.3,1.3,3.2
					c0.8,0.9,1.7,1.7,2.9,2.1c1.2,0.5,2.7,0.6,4.5,0.2C316.6,98.5,318.6,97.8,320.7,96.6z M311.2,77.4c-1.7,0.1-3,0.5-3.9,1.4
					c-0.9,0.8-1,1.8-0.2,2.7c0.4,0.6,1.9,0.8,4.3,0.7c2.4-0.2,3.9-0.6,4.3-1.3c0.2-0.4,0.2-0.9,0-1.5c-0.3-0.5-0.8-1-1.6-1.4
					C313.1,77.6,312.2,77.4,311.2,77.4z"/>
				<path class="st3" d="M405.6,75c-0.2,1-0.3,3.9-0.5,8.6c-0.1,4.7-0.1,9.4,0.2,13.9c0.4,2.5,0.5,6.4,0.4,11.7s-0.8,9.7-1.7,13
					c-0.9,2.9-2.6,5.2-5.4,6.9s-5.7,2.8-8.9,3.2c-3.2,0.4-6.4,0.3-9.5-0.2c-3.2-0.5-5.6-1.4-7.5-2.7c-2.1-1.8-3.1-3.8-3.2-6.1
					c-0.1-2.3,0.7-4.2,2.4-5.8c1.7-1.6,3.6-1.9,5.6-1c0.9,0.4,1.9,0.7,2.9,1c1,0.2,2.1,0.3,3.2,0.3s2.1-0.3,3-0.9
					c0.8-0.6,1.4-1.5,1.6-2.6c0.1-0.3,0.1-1,0.2-2.1s0.1-1.7,0.1-1.7c-0.1-0.2-0.1-0.4-0.2-0.4s-0.2,0.1-0.4,0.2
					c-0.2,0.1-0.3,0.3-0.5,0.5s-0.5,0.5-1,0.8c-0.4,0.3-0.9,0.5-1.5,0.8c-0.5,0.3-1.3,0.5-2.1,0.8c-0.9,0.2-1.9,0.4-3,0.5
					c-3.2,0.3-6-0.2-8.6-1.6s-4.7-3.5-6.3-6.3c-1.6-2.8-2.5-6-2.6-9.6c-0.7-11.5-0.1-19.5,1.6-24c0.7-1.8,1.7-3.2,3.2-4.2
					s3-1.4,4.6-1.3s3.1,0.5,4.5,1.1s2.5,1.7,3.3,3.1c0.8,1.5,1,3,0.7,4.7c-0.6,3.8-1,7-1.3,9.6c-0.2,2.6-0.3,5.3-0.1,8
					c0.2,2.7,0.8,4.5,2,5.5s2.8,1.1,4.9,0.3c1.5-0.5,2.4-1.6,2.6-3.3c0.4-2.2,0.3-6.6-0.1-13.1s-0.5-10.4-0.2-12
					c0.2-1.3,1.1-2.3,2.5-3.1c1.4-0.8,3-1.2,4.9-1.2c1.8,0,3.6,0.2,5.3,0.6c1.7,0.5,3,1.4,4,2.8C405.6,71.3,405.9,73,405.6,75z"/>
				<path class="st3" d="M455.8,87.7c0,1.9,0,3.6-0.1,5.1s-0.3,3.2-0.7,5.1c-0.4,1.8-0.9,3.4-1.6,4.9c-0.7,1.4-1.7,2.8-3,4.2
					s-2.8,2.5-4.5,3.4s-3.9,1.6-6.5,2.2c-2.6,0.5-5.5,0.8-8.8,0.8c-3.2,0-6.1-0.4-8.6-1.2c-2.5-0.8-4.6-1.9-6.2-3.2
					c-1.6-1.3-3-2.9-4-4.8c-1.1-1.9-1.9-3.8-2.4-5.7c-0.5-1.9-0.8-4-1-6.3c-0.1-2.3-0.1-4.3,0-6.2c0.1-1.8,0.3-3.7,0.6-5.7
					c0.9-6.1,3.3-10.5,7.1-13.4c3.8-2.9,9.1-4.3,15.9-4.3c3.8,0,7.2,0.5,10.1,1.5c2.9,1,5.2,2.3,6.8,3.9c1.7,1.5,3,3.5,4.1,5.8
					s1.8,4.6,2.1,6.7C455.4,82.7,455.7,85.1,455.8,87.7z M432.1,99.4c1.4,0,2.6-0.8,3.7-2.4s1.8-3.5,2.1-5.8
					c0.3-2.3,0.4-4.5,0.2-6.8c-0.2-2.2-0.8-4.2-2-5.8c-1.1-1.6-2.6-2.4-4.3-2.4c-1.3,0-2.4,0.8-3.5,2.4c-1,1.6-1.7,3.5-2,5.8
					c-0.3,2.2-0.4,4.5-0.3,6.8c0.2,2.3,0.7,4.2,1.8,5.8C429,98.6,430.4,99.4,432.1,99.4z"/>
				<path class="st3" d="M501.8,106c0.2,2.5-0.5,4.4-2.1,5.8s-3.5,2.1-5.7,2.2s-4.2-0.2-6.2-1c-2-0.7-3.2-1.8-3.6-3.1
					c-0.1-0.2-0.1-0.4-0.2-0.4s-0.2,0.1-0.4,0.3c-0.2,0.2-0.3,0.4-0.5,0.6s-0.5,0.5-1,0.9c-0.4,0.3-0.9,0.7-1.5,1
					c-0.5,0.3-1.3,0.6-2.1,0.9c-0.9,0.3-1.9,0.4-3,0.5c-4.8,0.5-8.8-1-12.1-4.5c-3.3-3.5-5.1-8-5.4-13.6c-0.7-11.5-0.1-19.5,1.6-24
					c0.7-1.8,1.7-3.2,3.2-4.2s3-1.4,4.6-1.3s3.1,0.5,4.5,1.1s2.5,1.7,3.3,3.1c0.8,1.5,1,3,0.7,4.7c-1.3,7.8-1.2,14.3,0.3,19.3
					c1.2,3.8,2.9,5.2,5.2,4.1c0.8-0.3,1.4-0.8,1.9-1.5s0.8-1.7,1-2.9c0.2-1.2,0.3-2.3,0.4-3.4s0-2.5-0.1-4.4s-0.2-3.4-0.4-4.7
					c-0.1-1.2-0.3-3-0.6-5.3c-0.3-2.4,0-4.5,0.8-6.2s2-2.8,3.5-3.4c1.5-0.5,3-0.8,4.6-0.7c1.6,0.1,3.1,0.6,4.5,1.4s2.3,1.9,2.8,3.3
					c0.8,2.2,1.3,5,1.5,8.4c0.1,3.3,0.1,7,0,11C501.1,94.2,501.3,99.5,501.8,106z"/>
				<path class="st3" d="M545,70.8c0.8,1.4,1.2,2.9,1,4.6s-0.8,3.1-1.9,4.3c-1.1,1.2-2.4,2-4,2.5s-3.5,0.3-5.6-0.5
					c-4.7-2.1-7.9-2.7-9.4-1.9c-0.7,0.3-1.4,0.8-1.9,1.5s-0.9,1.6-1,2.8c-0.2,1.2-0.3,2.3-0.4,3.4s-0.1,2.6,0.1,4.5
					c0.2,1.9,0.3,3.4,0.4,4.7c0.1,1.2,0.3,3,0.5,5.2c0.3,2.5,0,4.6-0.8,6.3c-0.9,1.7-2,2.8-3.5,3.4c-1.5,0.5-3,0.8-4.6,0.7
					c-1.6-0.1-3.1-0.6-4.5-1.4s-2.3-1.9-2.8-3.3c-0.9-2.2-1.3-5-1.4-8.4c-0.1-3.3-0.1-7,0.1-11s-0.1-9.3-0.7-15.8
					c-0.2-2.5,0.5-4.4,2.2-5.8c1.6-1.4,3.5-2.1,5.6-2.2s4.2,0.2,6.2,1c2,0.7,3.2,1.8,3.5,3.1l0.3,0.3c0.4-0.4,0.7-0.7,0.9-1
					s0.5-0.6,1-0.9s0.9-0.7,1.5-1c0.5-0.3,1.2-0.6,2.1-0.8c0.9-0.2,1.9-0.4,2.9-0.4c3-0.2,5.7,0.3,8.3,1.4
					C541.8,67.2,543.7,68.7,545,70.8z"/>
			</g>
			<g class="st2">
				<path class="st3" d="M602.1,63.6c-0.7,0.4-1.1,1.4-1.3,3c-0.2,1.7-0.3,3.2-0.2,4.6s0.2,2.6,0.4,3.7c0.1,0.7,0.9,1.1,2.2,1.1
					c1.4,0,3.2-0.2,5.4-0.5c1.9-0.2,3.4,0.7,4.5,2.7c1,2.1,1.2,4.2,0.6,6.6c-0.6,2.3-2,3.6-4.1,3.9c-1,0.2-2,0.3-2.8,0.4
					s-1.4,0.1-1.8,0c-0.4,0-0.7-0.1-1-0.1s-0.5,0-0.5,0c-0.1,0-0.2,0.1-0.3,0.1c-0.1,0.1-0.3,0.2-0.5,0.5s-0.3,0.9-0.2,1.6
					c0,0.8,0.1,1.7,0.3,2.9c0.2,1.1,0.3,2.5,0.3,4.2c0.1,1.7-0.1,3.7-0.4,5.9c-0.3,2.4-1.4,4.3-3.2,5.6c-1.9,1.3-3.8,1.9-5.9,1.9
					c-2.1-0.1-4-0.8-5.8-2.1c-1.8-1.3-2.7-3.1-2.8-5.4c-0.1-1.3-0.1-2.4-0.1-3.4s0-1.8,0-2.4s0.1-1.6,0.1-3s0-2.8,0-4.1
					c0.1-0.5-0.3-0.7-1.1-0.8c-0.8,0-2,0-3.5,0s-3-0.2-4.2-0.7c-1-0.4-1.7-1.5-2.2-3.5s-0.4-4.1,0.1-6.2c0.6-2.2,1.7-3.6,3.3-4.2
					c0.7-0.3,1.4-0.5,2.1-0.5c0.7-0.1,1.4,0,2,0c0.6,0.1,1.1,0.2,1.6,0.2c0.5,0.1,0.8,0,1.1-0.1c0.2-0.1,0.4-0.3,0.4-0.6
					c-0.1-1.1-0.3-2.6-0.6-4.6s-0.5-3.4-0.5-4.2c-0.1-0.8,0-1.8,0-3.1c0.1-1.2,0.3-2.4,0.7-3.6c0.8-2.8,2.4-5,4.6-6.7
					c2.2-1.7,4.6-2.7,7.3-3.1c2.6-0.4,5.5-0.5,8.6-0.1c5.6,0.7,9.6,3.2,12.1,7.3c2,3.2,2.3,6,0.9,8.6c-0.9,1.6-2.2,2.5-4.2,2.9
					c-1.5,0.3-2.8,0.4-4,0.2c-1.1-0.2-2-0.5-2.5-1s-1-1-1.5-1.5s-0.8-1-1-1.5s-0.5-0.8-0.9-0.9C603,63.2,602.5,63.3,602.1,63.6z"/>
			</g>
			<g class="st2">
				<path class="st3" d="M664,87.7c0,1.9,0,3.6-0.1,5.1s-0.3,3.2-0.7,5.1s-0.9,3.4-1.6,4.9c-0.7,1.4-1.7,2.8-3,4.2
					c-1.3,1.4-2.8,2.5-4.5,3.4s-3.9,1.6-6.5,2.2c-2.6,0.5-5.5,0.8-8.8,0.8c-3.2,0-6.1-0.4-8.6-1.2c-2.5-0.8-4.6-1.9-6.2-3.2
					c-1.6-1.3-3-2.9-4-4.8c-1.1-1.9-1.9-3.8-2.4-5.7c-0.5-1.9-0.8-4-1-6.3c-0.1-2.3-0.1-4.3,0-6.2c0.1-1.8,0.3-3.7,0.6-5.7
					c0.9-6.1,3.3-10.5,7.1-13.4s9.1-4.3,15.9-4.3c3.8,0,7.2,0.5,10.1,1.5c2.9,1,5.2,2.3,6.8,3.9c1.7,1.5,3,3.5,4.1,5.8
					s1.8,4.6,2.1,6.7C663.6,82.7,663.9,85.1,664,87.7z M640.3,99.4c1.4,0,2.6-0.8,3.7-2.4c1.1-1.6,1.8-3.5,2.1-5.8s0.4-4.5,0.2-6.8
					c-0.2-2.2-0.8-4.2-2-5.8c-1.1-1.6-2.6-2.4-4.3-2.4c-1.3,0-2.4,0.8-3.5,2.4c-1,1.6-1.7,3.5-2,5.8c-0.3,2.2-0.4,4.5-0.3,6.8
					c0.2,2.3,0.7,4.2,1.8,5.8C637.2,98.6,638.6,99.4,640.3,99.4z"/>
				<path class="st3" d="M713.2,87.7c0,1.9,0,3.6-0.1,5.1s-0.3,3.2-0.7,5.1c-0.4,1.8-0.9,3.4-1.6,4.9c-0.7,1.4-1.7,2.8-3,4.2
					c-1.3,1.4-2.8,2.5-4.5,3.4s-3.9,1.6-6.5,2.2s-5.5,0.8-8.8,0.8c-3.2,0-6.1-0.4-8.6-1.2c-2.5-0.8-4.6-1.9-6.2-3.2
					c-1.6-1.3-3-2.9-4-4.8c-1.1-1.9-1.9-3.8-2.4-5.7c-0.5-1.9-0.8-4-1-6.3c-0.1-2.3-0.1-4.3,0-6.2c0.1-1.8,0.3-3.7,0.6-5.7
					c0.9-6.1,3.3-10.5,7.1-13.4s9.1-4.3,15.9-4.3c3.8,0,7.2,0.5,10.1,1.5c2.9,1,5.2,2.3,6.8,3.9c1.7,1.5,3,3.5,4.1,5.8
					s1.8,4.6,2.1,6.7S713.1,85.1,713.2,87.7z M689.6,99.4c1.4,0,2.6-0.8,3.7-2.4c1.1-1.6,1.8-3.5,2.1-5.8s0.4-4.5,0.2-6.8
					c-0.2-2.2-0.8-4.2-2-5.8c-1.1-1.6-2.6-2.4-4.3-2.4c-1.3,0-2.4,0.8-3.5,2.4c-1,1.6-1.7,3.5-2,5.8c-0.3,2.2-0.4,4.5-0.3,6.8
					c0.2,2.3,0.7,4.2,1.8,5.8C686.4,98.6,687.8,99.4,689.6,99.4z"/>
				<path class="st3" d="M759.2,104.1c0.2,2-0.1,3.7-1,5.2s-2.1,2.5-3.6,3.1s-3.1,1-4.6,1.2c-1.6,0.2-3,0-4.3-0.4
					c-1.3-0.5-2.1-1.1-2.4-1.9l-0.4-1.6c-0.1,0.1-0.1,0.3-0.2,0.5c-0.1,0.2-0.4,0.6-1,1.1s-1.2,1-2,1.4s-2.1,0.7-3.8,0.9
					c-1.7,0.2-3.7,0.3-6,0.1c-2.6-0.2-4.9-1-6.9-2.4s-3.5-3.1-4.5-5.1s-1.9-4.3-2.5-6.8c-0.7-2.5-1-4.9-1-7.3s0.1-4.6,0.2-6.7
					c0.2-2.6,0.8-5.1,1.7-7.6c0.9-2.4,2-4.7,3.5-6.7c1.4-2.1,3.3-3.7,5.5-5c2.2-1.2,4.7-1.9,7.5-2c1.4,0,2.7,0.2,3.8,0.5
					s2,0.8,2.6,1.4s1.1,1.1,1.5,1.6s0.7,1,0.8,1.5l0.2,0.5l-0.5-13.2c0.1-1.9,0.8-3.4,2-4.6c1.2-1.2,2.7-1.9,4.4-2.1
					c1.7-0.2,3.4-0.1,5,0.3c1.6,0.4,3,1.2,4.1,2.5s1.6,2.9,1.5,4.7c-0.1,1.3-0.2,3.3-0.3,6s-0.1,5.9-0.1,9.6c0,3.7,0,7.4,0,11.1
					s0.1,7.4,0.3,11.1C758.6,98.8,758.9,101.8,759.2,104.1z M742.1,95.8c0.1-0.7,0.1-2,0.2-3.9c0.1-1.9,0.1-4,0-6.5s-0.2-4-0.5-4.6
					c-0.1-0.1-0.3-0.2-0.4-0.4c-0.2-0.1-0.5-0.3-1.1-0.7c-0.6-0.3-1.1-0.6-1.6-0.7s-1.1-0.2-1.8-0.3s-1.3,0.1-1.7,0.4
					c-1.3,0.8-2.2,1.8-2.6,2.9c-0.5,1.2-0.8,3.1-1,5.7c-0.1,2.4,0.1,4.8,0.8,7.2c0.6,2.5,1.6,3.9,2.9,4.3c1.7,0.5,3.2,0.3,4.6-0.6
					S741.9,96.9,742.1,95.8z"/>
				<path class="st3" d="M834.6,82.4c0.6,10.7-0.1,18.7-2.2,24c-0.7,1.8-1.7,3.2-3.1,4.2c-1.4,1-2.9,1.4-4.4,1.3s-3-0.5-4.3-1.1
					c-1.4-0.6-2.4-1.7-3.2-3.1c-0.8-1.5-1-3-0.7-4.7c1.3-7.8,1.2-14.3-0.3-19.3c-1.2-3.8-2.9-5.2-5.2-4.1c-0.5,0.2-1,0.6-1.5,1
					s-0.8,1.1-1,1.8c-0.2,0.8-0.4,1.5-0.6,2.2c-0.2,0.7-0.2,1.6-0.3,2.8c0,1.2,0,2.2,0,3.1s0.1,2.1,0.2,3.5c0.1,1.5,0.2,2.7,0.4,3.7
					c0.1,1,0.3,2.3,0.5,4c0.3,2.4,0,4.5-0.8,6.2c-0.9,1.7-2,2.8-3.5,3.4c-1.5,0.5-3,0.8-4.6,0.7c-1.6-0.1-3.1-0.6-4.5-1.4
					s-2.3-1.9-2.8-3.3c-1.3-3.6-2.2-10.6-2.5-21s-0.2-19.7,0.5-27.8c0.1-2.1,0.8-3.8,2-5.3s2.7-2.4,4.4-2.8c1.7-0.4,3.4-0.5,5-0.3
					c1.7,0.2,3.1,1.1,4.3,2.5s1.8,3.2,1.9,5.4c0,1.3,0,2.5,0,3.8s-0.1,2.2-0.1,2.9c-0.1,0.7-0.1,1.3,0,1.9c0,0.6,0.1,1.1,0.1,1.5
					c0.1,0.2,0.1,0.4,0.2,0.4c0.1,0,0.2-0.1,0.4-0.3c0.2-0.2,0.3-0.4,0.5-0.6s0.5-0.5,1-0.9c0.4-0.3,0.9-0.7,1.5-1
					c0.5-0.3,1.3-0.6,2.2-0.9s1.9-0.4,2.9-0.5c4.8-0.5,8.8,1,12.1,4.5S834.2,76.8,834.6,82.4z"/>
				<path class="st3" d="M869.1,96.6c2.5-1.5,4.9-1.3,7.2,0.5c2.2,1.9,3.4,4.2,3.4,6.9c0,2.8-1,5-3.1,6.8c-2.9,1.8-6.6,2.9-11.2,3.3
					s-8.6,0.2-12.1-0.8c-5.1-1.3-9.1-4.2-12.1-8.7s-4.5-10.2-4.5-17.2c0-5.1,0.9-9.4,2.8-13c1.8-3.6,4.4-6.2,7.5-8
					c3.2-1.7,6.8-2.6,11.1-2.6s8.7,0.9,13.4,2.7c2.2,0.9,4.1,2.3,5.6,4.2c1.5,1.9,2.5,4,3,6.2s0.5,4.4,0.2,6.6s-1.2,4-2.5,5.7
					c-1.4,1.6-3.2,2.7-5.3,3.1c-3.3,0.7-6.5,1.2-9.5,1.3c-3,0.1-5.1,0.1-6.5-0.1l-1.9-0.3c0.1,1.2,0.6,2.3,1.3,3.2
					c0.8,0.9,1.7,1.7,2.9,2.1c1.2,0.5,2.7,0.6,4.5,0.2C865.1,98.5,867,97.8,869.1,96.6z M859.6,77.4c-1.7,0.1-3,0.5-3.9,1.4
					c-0.9,0.8-1,1.8-0.2,2.7c0.4,0.6,1.9,0.8,4.3,0.7c2.4-0.2,3.9-0.6,4.3-1.3c0.2-0.4,0.2-0.9,0-1.5s-0.8-1-1.6-1.4
					C861.6,77.6,860.7,77.4,859.6,77.4z"/>
				<path class="st3" d="M923,70.8c0.8,1.4,1.2,2.9,1,4.6s-0.8,3.1-1.9,4.3c-1.1,1.2-2.4,2-4,2.5s-3.5,0.3-5.6-0.5
					c-4.7-2.1-7.9-2.7-9.4-1.9c-0.7,0.3-1.4,0.8-1.9,1.5s-0.9,1.6-1,2.8c-0.2,1.2-0.3,2.3-0.4,3.4s-0.1,2.6,0.1,4.5
					c0.2,1.9,0.3,3.4,0.4,4.7c0.1,1.2,0.3,3,0.5,5.2c0.3,2.5,0,4.6-0.8,6.3c-0.9,1.7-2,2.8-3.5,3.4c-1.5,0.5-3,0.8-4.6,0.7
					c-1.6-0.1-3.1-0.6-4.5-1.4s-2.3-1.9-2.8-3.3c-0.9-2.2-1.3-5-1.4-8.4c-0.1-3.3-0.1-7,0.1-11c0.2-4-0.1-9.3-0.7-15.8
					c-0.2-2.5,0.5-4.4,2.2-5.8s3.5-2.1,5.6-2.2s4.2,0.2,6.2,1c2,0.7,3.2,1.8,3.5,3.1l0.3,0.3c0.4-0.4,0.7-0.7,0.9-1s0.5-0.6,1-0.9
					s0.9-0.7,1.5-1c0.5-0.3,1.2-0.6,2.1-0.8c0.9-0.2,1.9-0.4,2.9-0.4c3-0.2,5.7,0.3,8.3,1.4C919.8,67.2,921.7,68.7,923,70.8z"/>
				<path class="st3" d="M972,87.7c0,1.9,0,3.6-0.1,5.1s-0.3,3.2-0.7,5.1c-0.4,1.8-0.9,3.4-1.6,4.9c-0.7,1.4-1.7,2.8-3,4.2
					s-2.8,2.5-4.5,3.4s-3.9,1.6-6.5,2.2c-2.6,0.5-5.5,0.8-8.8,0.8c-3.2,0-6.1-0.4-8.6-1.2c-2.5-0.8-4.6-1.9-6.2-3.2
					c-1.6-1.3-3-2.9-4.1-4.8s-1.9-3.8-2.4-5.7c-0.5-1.9-0.8-4-1-6.3c-0.1-2.3-0.1-4.3,0-6.2c0.1-1.8,0.3-3.7,0.6-5.7
					c0.9-6.1,3.3-10.5,7.1-13.4s9.1-4.3,15.9-4.3c3.8,0,7.2,0.5,10.1,1.5c2.9,1,5.2,2.3,6.8,3.9c1.7,1.5,3,3.5,4.1,5.8
					s1.8,4.6,2.1,6.7C971.7,82.7,971.9,85.1,972,87.7z M948.4,99.4c1.4,0,2.6-0.8,3.7-2.4c1.1-1.6,1.8-3.5,2.1-5.8s0.4-4.5,0.2-6.8
					c-0.2-2.2-0.8-4.2-2-5.8c-1.1-1.6-2.6-2.4-4.3-2.4c-1.3,0-2.4,0.8-3.5,2.4c-1,1.6-1.7,3.5-2,5.8c-0.3,2.2-0.4,4.5-0.3,6.8
					c0.2,2.3,0.7,4.2,1.8,5.8C945.2,98.6,946.6,99.4,948.4,99.4z"/>
				<path class="st3" d="M1029.3,63.6c-0.7,0.4-1.1,1.4-1.3,3c-0.2,1.7-0.3,3.2-0.2,4.6c0.1,1.4,0.2,2.6,0.4,3.7
					c0.1,0.7,0.9,1.1,2.2,1.1s3.2-0.2,5.4-0.5c1.9-0.2,3.4,0.7,4.5,2.7c1,2.1,1.2,4.2,0.6,6.6c-0.6,2.3-2,3.6-4.1,3.9
					c-1,0.2-2,0.3-2.8,0.4s-1.4,0.1-1.8,0c-0.4,0-0.7-0.1-1-0.1s-0.5,0-0.5,0c-0.1,0-0.2,0.1-0.3,0.1s-0.3,0.2-0.5,0.5
					s-0.3,0.9-0.2,1.6c0,0.8,0.1,1.7,0.3,2.9c0.2,1.1,0.3,2.5,0.3,4.2c0.1,1.7-0.1,3.7-0.4,5.9c-0.3,2.4-1.4,4.3-3.2,5.6
					c-1.9,1.3-3.8,1.9-5.9,1.9c-2.1-0.1-4-0.8-5.8-2.1c-1.8-1.3-2.7-3.1-2.8-5.4c-0.1-1.3-0.1-2.4-0.1-3.4s0-1.8,0-2.4
					s0.1-1.6,0.1-3s0-2.8,0-4.1c0.1-0.5-0.3-0.7-1.1-0.8c-0.8,0-2,0-3.5,0s-3-0.2-4.2-0.7c-1-0.4-1.7-1.5-2.2-3.5s-0.4-4.1,0.1-6.2
					c0.6-2.2,1.7-3.6,3.3-4.2c0.7-0.3,1.4-0.5,2.1-0.5c0.7-0.1,1.4,0,2,0c0.6,0.1,1.1,0.2,1.6,0.2c0.5,0.1,0.8,0,1.1-0.1
					c0.2-0.1,0.4-0.3,0.4-0.6c-0.1-1.1-0.3-2.6-0.6-4.6s-0.5-3.4-0.5-4.2c-0.1-0.8,0-1.8,0-3.1c0.1-1.2,0.3-2.4,0.7-3.6
					c0.8-2.8,2.4-5,4.6-6.7c2.2-1.7,4.6-2.7,7.3-3.1c2.6-0.4,5.5-0.5,8.6-0.1c5.6,0.7,9.6,3.2,12.1,7.3c2,3.2,2.3,6,0.9,8.6
					c-0.8,1.6-2.2,2.5-4.2,2.9c-1.5,0.3-2.8,0.4-4,0.2c-1.1-0.2-2-0.5-2.5-1s-1-1-1.5-1.5s-0.8-1-1-1.5s-0.5-0.8-0.9-0.9
					C1030.2,63.2,1029.8,63.3,1029.3,63.6z"/>
				<path class="st3" d="M1085.2,70.8c0.8,1.4,1.2,2.9,1,4.6s-0.8,3.1-1.9,4.3c-1.1,1.2-2.4,2-4,2.5s-3.5,0.3-5.6-0.5
					c-4.7-2.1-7.9-2.7-9.4-1.9c-0.7,0.3-1.4,0.8-1.9,1.5s-0.9,1.6-1,2.8c-0.2,1.2-0.3,2.3-0.4,3.4s-0.1,2.6,0.1,4.5s0.3,3.4,0.4,4.7
					c0.1,1.2,0.3,3,0.5,5.2c0.3,2.5,0,4.6-0.8,6.3c-0.9,1.7-2,2.8-3.5,3.4c-1.5,0.5-3,0.8-4.6,0.7c-1.6-0.1-3.1-0.6-4.5-1.4
					s-2.3-1.9-2.8-3.3c-0.9-2.2-1.3-5-1.4-8.4c-0.1-3.3-0.1-7,0.1-11s-0.1-9.3-0.7-15.8c-0.2-2.5,0.5-4.4,2.2-5.8
					c1.6-1.4,3.5-2.1,5.6-2.2s4.2,0.2,6.2,1c2,0.7,3.2,1.8,3.5,3.1l0.3,0.3c0.4-0.4,0.7-0.7,0.9-1c0.2-0.3,0.5-0.6,1-0.9
					s0.9-0.7,1.5-1c0.5-0.3,1.2-0.6,2.1-0.8c0.9-0.2,1.9-0.4,2.9-0.4c3-0.2,5.7,0.3,8.3,1.4C1082,67.2,1083.9,68.7,1085.2,70.8z"/>
				<path class="st3" d="M1102.6,60.7c-1.7,1.5-3.8,2.2-6.3,2.2s-4.6-0.7-6.4-2.2s-2.6-3.2-2.6-5.3s0.9-3.9,2.6-5.4
					c1.8-1.5,3.9-2.2,6.4-2.2s4.6,0.7,6.3,2.2c1.7,1.5,2.6,3.3,2.6,5.4C1105.2,57.5,1104.4,59.2,1102.6,60.7z M1104.7,72.1
					c0.8,2.9,1.3,7.5,1.5,13.8s-0.1,12.2-0.9,17.8c-0.6,3.8-2.5,6.2-5.6,7.5c-3.1,1.2-6,1-8.7-0.6s-3.9-4-3.5-7.2
					c0.6-4.9,0.7-10,0.3-15.3c0-0.4-0.1-1.3-0.2-2.8c-0.1-1.4-0.2-2.4-0.2-3s0-1.5,0-2.7s0.1-2.4,0.2-3.5c0.1-1.2,0.3-2.5,0.5-3.9
					c0.3-1.8,1.2-3.2,2.8-4.3c1.6-1,3.3-1.6,5.1-1.6c1.8,0,3.6,0.5,5.3,1.5C1103,68.7,1104.1,70.2,1104.7,72.1z"/>
				<path class="st3" d="M1140.7,96.6c2.5-1.5,4.9-1.3,7.2,0.5c2.2,1.9,3.4,4.2,3.4,6.9c0,2.8-1,5-3.1,6.8
					c-2.9,1.8-6.6,2.9-11.2,3.3s-8.6,0.2-12.1-0.8c-5.1-1.3-9.1-4.2-12.1-8.7s-4.5-10.2-4.5-17.2c0-5.1,0.9-9.4,2.8-13
					c1.8-3.6,4.4-6.2,7.5-8c3.2-1.7,6.8-2.6,11.1-2.6s8.7,0.9,13.4,2.7c2.2,0.9,4.1,2.3,5.6,4.2c1.5,1.9,2.5,4,3,6.2
					s0.5,4.4,0.2,6.6s-1.2,4-2.5,5.7c-1.4,1.6-3.2,2.7-5.3,3.1c-3.3,0.7-6.5,1.2-9.5,1.3c-3,0.1-5.1,0.1-6.5-0.1l-1.9-0.3
					c0.1,1.2,0.6,2.3,1.3,3.2c0.8,0.9,1.7,1.7,2.9,2.1c1.2,0.5,2.7,0.6,4.5,0.2C1136.7,98.5,1138.7,97.8,1140.7,96.6z M1131.3,77.4
					c-1.7,0.1-3,0.5-3.9,1.4c-0.9,0.8-1,1.8-0.2,2.7c0.4,0.6,1.9,0.8,4.3,0.7c2.4-0.2,3.9-0.6,4.3-1.3c0.2-0.4,0.2-0.9,0-1.5
					s-0.8-1-1.6-1.4C1133.2,77.6,1132.3,77.4,1131.3,77.4z"/>
				<path class="st3" d="M1198.2,82.4c0.7,11.5,0.1,19.5-1.6,24c-0.7,1.8-1.8,3.2-3.3,4.2s-3,1.4-4.5,1.3s-3-0.5-4.5-1.1
					c-1.4-0.6-2.5-1.7-3.3-3.1s-1-3.1-0.8-4.8c1.3-7.8,1.2-14.2-0.3-19.2c-1.2-3.8-2.9-5.2-5.2-4.2c-0.7,0.4-1.4,0.9-1.9,1.6
					s-0.9,1.6-1,2.8c-0.2,1.2-0.3,2.3-0.4,3.4s-0.1,2.6,0.1,4.5s0.3,3.4,0.4,4.7c0.1,1.2,0.3,3,0.5,5.2c0.3,2.5,0,4.6-0.8,6.3
					c-0.9,1.7-2,2.8-3.5,3.3s-3,0.7-4.6,0.7c-1.6-0.1-3.1-0.5-4.5-1.4c-1.4-0.8-2.3-1.9-2.8-3.3c-0.9-2.2-1.3-5-1.4-8.4
					c-0.1-3.3-0.1-7,0.1-11s-0.1-9.3-0.7-15.8c-0.2-2.5,0.5-4.4,2.2-5.8c1.6-1.4,3.5-2.1,5.6-2.2s4.2,0.2,6.2,1
					c2,0.7,3.2,1.8,3.5,3.1c0.1,0.4,0.4,0.3,0.7-0.1c1.9-2.1,4.5-3.3,7.9-3.7c4.8-0.5,8.9,1,12.2,4.5
					C1196,72.2,1197.8,76.8,1198.2,82.4z"/>
				<path class="st3" d="M1244.8,104.1c0.2,2-0.1,3.7-1,5.2s-2.1,2.5-3.6,3.1s-3.1,1-4.6,1.2c-1.6,0.2-3,0-4.3-0.4
					c-1.3-0.5-2.1-1.1-2.4-1.9l-0.4-1.6c-0.1,0.1-0.1,0.3-0.2,0.5s-0.4,0.6-1,1.1c-0.5,0.5-1.2,1-2,1.4s-2.1,0.7-3.8,0.9
					c-1.7,0.2-3.7,0.3-6,0.1c-2.6-0.2-4.9-1-6.9-2.4s-3.5-3.1-4.5-5.1s-1.9-4.3-2.5-6.8c-0.7-2.5-1-4.9-1-7.3s0.1-4.6,0.2-6.7
					c0.2-2.6,0.8-5.1,1.7-7.6c0.9-2.4,2-4.7,3.5-6.7c1.4-2.1,3.3-3.7,5.5-5c2.2-1.2,4.7-1.9,7.5-2c1.4,0,2.7,0.2,3.8,0.5
					s2,0.8,2.6,1.4c0.6,0.5,1.1,1.1,1.5,1.6s0.7,1,0.8,1.5l0.2,0.5l-0.5-13.2c0.1-1.9,0.8-3.4,2-4.6c1.2-1.2,2.7-1.9,4.4-2.1
					c1.7-0.2,3.4-0.1,5,0.3c1.6,0.4,3,1.2,4.1,2.5s1.6,2.9,1.5,4.7c-0.1,1.3-0.2,3.3-0.3,6c-0.1,2.7-0.1,5.9-0.1,9.6
					c0,3.7,0,7.4,0,11.1s0.1,7.4,0.3,11.1C1244.3,98.8,1244.5,101.8,1244.8,104.1z M1227.7,95.8c0.1-0.7,0.1-2,0.2-3.9s0.1-4,0-6.5
					s-0.2-4-0.5-4.6c-0.1-0.1-0.3-0.2-0.4-0.4c-0.2-0.1-0.5-0.3-1.1-0.7c-0.6-0.3-1.1-0.6-1.6-0.7s-1.1-0.2-1.8-0.3
					c-0.7-0.1-1.3,0.1-1.7,0.4c-1.3,0.8-2.2,1.8-2.6,2.9c-0.5,1.2-0.8,3.1-1,5.7c-0.1,2.4,0.1,4.8,0.8,7.2s1.6,3.9,2.9,4.3
					c1.7,0.5,3.2,0.3,4.6-0.6C1226.8,97.8,1227.6,96.9,1227.7,95.8z"/>
			</g>
		</g>
	</g>
</g>
</svg>
