<?xml version="1.0" encoding="UTF-8"?>
<svg id="_Layer_" data-name="&amp;lt;Layer&amp;gt;" xmlns="http://www.w3.org/2000/svg" viewBox="0 0 540 540">
  <defs>
    <style>
      .cls-1 {
        fill: #e89e53;
      }

      .cls-2 {
        fill: #ad6739;
      }

      .cls-3 {
        fill: #824d2b;
      }

      .cls-4 {
        fill: #efbc6b;
        opacity: .44;
      }

      .cls-5 {
        fill: #995b32;
      }

      .cls-6 {
        fill: #cd8031;
        opacity: .33;
      }

      .cls-7 {
        fill: #d6924d;
      }
    </style>
  </defs>
  <g>
    <path class="cls-7" d="m394.03,429.88c75.02-55.62,84.33-136.36,68.18-217.1-16.15-80.74-75.36-147.13-193.78-143.54-118.42,3.59-197.37,77.15-197.37,195.57s61,181.22,139.95,199.16c78.95,17.94,138.24-.9,183.01-34.09Zm-121.16-212.37c21.35,3.15,40.45,12.58,47.55,36.01,4.24,13.98,3.64,30.28-7.76,48.17-11.4,17.9-32.29,27.4-61.51,16.94-29.22-10.46-40.4-36.45-30.82-65.98,9.58-29.54,31.19-38.28,52.54-35.13Z"/>
    <path class="cls-1" d="m204.88,459.73c83.39,27.29,160.29-17.23,213.41-73.48,53.12-56.24,72.84-154.91,5.75-243.74-67.09-88.83-167.36-92.17-258.14-27.84-90.78,64.33-105.78,145.22-76.64,215.48,29.14,70.27,65.84,113.28,115.62,129.57Zm106.91-216.05c9.18,18.08,12.33,37.84-1.77,56.01-8.42,10.84-21.23,19.24-41.14,20.22-19.91.98-38.55-9.87-46.4-37.95-7.85-28.09,5.99-50.77,33.84-59.47,27.85-8.71,46.29,3.11,55.48,21.19Z"/>
    <path class="cls-4" d="m445.06,238.76c-.22-2.02-.43-3.7-.58-4.86-2.13-15.7-8.47-45-30.42-73-23.18-29.56-51.31-41.8-68.49-49.02-7.41-3.12-35.28-14.29-74.26-15.14-25.9-.57-75.59-1.65-102.37,30.28-9.4,11.2-17.07,27.78-12.26,33.16,5.88,6.57,25.68-8.78,59.84-16.58,11.28-2.57,40.77-9.31,72.09-1.44,45.91,11.53,72.32,48.52,81.47,63.44,24.38,39.76,22.36,79.52,21.63,90.84-3.43,53.08-32.88,82.49-24.51,89.4,7.81,6.45,41.36-12.65,59.84-41.09,25.23-38.84,19.64-90.93,18.02-105.98Z"/>
    <path class="cls-4" d="m265.6,206.44c1.48,3.84-31.83,10.52-46.69,39.68-1.31,2.58-14.64,29.73-1.56,52.13,9.72,16.64,28.66,21.48,42.02,24.9,31.15,7.97,52.93-1.5,54.47,3.11,1.74,5.21-23.26,25.6-52.91,25.68-27.17.08-60.52-16.88-71.59-50.58-9.43-28.72,1.06-58.23,18.67-75.48,22.64-22.17,56.14-23.19,57.58-19.45Z"/>
    <path class="cls-4" d="m325.39,382.95c.46,7.91-30.39,19.81-59.84,19.47-42.57-.51-72.69-26.51-82.91-35.33-12.32-10.63-42.51-36.7-44.7-74.98-1.19-20.92,6.22-41.24,10.81-41.09,5.02.16,2.35,24.65,15.86,52.63,3.47,7.19,17.27,35.78,46.14,50.47,21.32,10.85,30.59,3.8,85.79,17.3,25.15,6.15,28.69,8.95,28.84,11.53Z"/>
    <path class="cls-6" d="m259.78,450c.27-3.18-11.73-6.2-23.79-10.09-25.98-8.39-50.39-20.3-65.61-30.28-27.39-17.98-43.7-42.05-56.23-60.56-15-22.15-21.35-38.45-23.79-37.49-2.93,1.16,1.89,26.29,12.98,49.74,3.43,7.25,18.34,37.39,52.63,63.44,14.97,11.37,39.48,30,72.81,31,13.51.4,30.68-2.02,31-5.77Z"/>
  </g>
  <g>
    <g>
      <path class="cls-5" d="m277.74,171.99c-.75,3.73-3.75,6.27-6.7,5.68-2.95-.59-4.73-4.1-3.98-7.83.75-3.73,3.92-8.46,6.87-7.87,2.95.59,4.56,6.28,3.81,10.01Z"/>
      <path class="cls-3" d="m272.44,175.78c-2.58-.52-4.14-3.58-3.48-6.85.49-2.43,2.49-6.41,4.33-6.99-2.64.02-5.56,4.54-6.23,7.9-.75,3.73,1.03,7.23,3.98,7.83,2.65.53,5.34-1.47,6.4-4.58-1.14,1.95-3.08,3.08-5,2.7Z"/>
      <path class="cls-2" d="m274.61,168.49c.67.65,1.19-.11,1.15-1.47-.04-1.35-.82-2.36-1.46-1.45-.64.91-.16,2.47.31,2.92Z"/>
    </g>
    <g>
      <path class="cls-5" d="m319.14,132.77c1.41,3.53.29,7.3-2.5,8.42-2.79,1.12-6.2-.84-7.61-4.38-1.41-3.53-1.35-9.23,1.45-10.34,2.79-1.12,7.25,2.76,8.67,6.3Z"/>
      <path class="cls-3" d="m316.78,138.84c-2.44.98-5.43-.74-6.66-3.83-.92-2.3-1.42-6.73-.19-8.22-2.2,1.46-2.17,6.84-.9,10.02,1.41,3.53,4.82,5.49,7.61,4.38,2.51-1,3.67-4.15,2.85-7.34.11,2.26-.89,4.27-2.71,4.99Z"/>
      <path class="cls-2" d="m314.6,131.55c.91.18.93-.75.16-1.86-.77-1.11-1.98-1.53-2.02-.42-.04,1.11,1.22,2.15,1.86,2.28Z"/>
    </g>
    <g>
      <path class="cls-5" d="m247.39,146.82c-3.37,1.77-7.23,1.04-8.63-1.62-1.4-2.66.2-6.25,3.57-8.02,3.37-1.77,9.04-2.29,10.43.37,1.4,2.66-2,7.5-5.37,9.27Z"/>
      <path class="cls-3" d="m241.11,145.09c-1.22-2.33.17-5.47,3.12-7.02,2.19-1.15,6.55-2.11,8.16-1.04-1.68-2.03-7.03-1.45-10.06.14-3.37,1.77-4.97,5.36-3.57,8.02,1.26,2.39,4.5,3.22,7.59,2.08-2.23.34-4.34-.45-5.25-2.18Z"/>
      <path class="cls-2" d="m248.14,142.17c-.08.93.84.85,1.87-.03,1.03-.88,1.32-2.13.21-2.05-1.11.08-2.02,1.43-2.07,2.08Z"/>
    </g>
    <g>
      <path class="cls-5" d="m166.59,159.5c2.27,3.05,2.15,6.98-.26,8.78-2.41,1.79-6.21.77-8.48-2.28-2.27-3.05-3.66-8.57-1.25-10.37,2.41-1.79,7.72.82,9.99,3.87Z"/>
      <path class="cls-3" d="m165.86,165.98c-2.11,1.57-5.43.68-7.42-1.99-1.48-1.99-3.09-6.14-2.29-7.9-1.75,1.97-.34,7.17,1.7,9.91,2.27,3.05,6.07,4.08,8.48,2.28,2.17-1.61,2.48-4.95.88-7.82.69,2.15.23,4.35-1.34,5.52Z"/>
      <path class="cls-2" d="m161.88,159.49c.93-.06.71-.96-.32-1.84-1.03-.88-2.31-.97-2.06.11.25,1.09,1.73,1.77,2.38,1.72Z"/>
    </g>
    <g>
      <path class="cls-5" d="m219.11,179.57c3.78.46,6.54,3.26,6.18,6.24-.36,2.98-3.72,5.03-7.5,4.57-3.78-.46-8.73-3.26-8.37-6.24.37-2.99,5.91-5.03,9.69-4.57Z"/>
      <path class="cls-3" d="m223.3,184.56c-.32,2.61-3.26,4.4-6.56,4-2.46-.3-6.58-2-7.3-3.78.22,2.63,4.96,5.19,8.35,5.61,3.78.46,7.13-1.58,7.5-4.57.33-2.68-1.87-5.21-5.06-6.03,2.03.99,3.31,2.84,3.07,4.78Z"/>
      <path class="cls-2" d="m215.85,182.97c.6-.72-.21-1.18-1.55-1.04-1.35.14-2.29,1-1.34,1.57.96.57,2.47-.03,2.89-.53Z"/>
    </g>
    <g>
      <path class="cls-5" d="m198.94,226.41c-2.5,2.87-6.36,3.59-8.63,1.62-2.27-1.97-2.08-5.9.42-8.77,2.5-2.87,7.59-5.41,9.86-3.43,2.27,1.97.85,7.72-1.65,10.59Z"/>
      <path class="cls-3" d="m192.47,227.08c-1.98-1.73-1.82-5.16.36-7.67,1.63-1.87,5.34-4.34,7.22-3.93-2.3-1.29-7.08,1.2-9.32,3.78-2.5,2.87-2.69,6.8-.42,8.77,2.04,1.78,5.36,1.37,7.83-.81-1.96,1.13-4.21,1.15-5.68-.13Z"/>
      <path class="cls-2" d="m197.96,221.81c.26.89,1.09.49,1.73-.71.64-1.19.46-2.46-.55-1.99-1.01.47-1.36,2.06-1.18,2.69Z"/>
    </g>
    <g>
      <path class="cls-5" d="m134.51,194.12c3.23-2.01,7.14-1.56,8.72.99,1.59,2.55.25,6.25-2.98,8.26-3.23,2.01-8.85,2.94-10.43.38-1.59-2.55,1.46-7.62,4.69-9.63Z"/>
      <path class="cls-3" d="m140.9,195.38c1.39,2.23.22,5.47-2.61,7.23-2.1,1.31-6.38,2.57-8.06,1.63,1.82,1.91,7.12.94,10.02-.87,3.23-2.01,4.57-5.71,2.98-8.26-1.43-2.3-4.72-2.88-7.72-1.53,2.2-.5,4.36.14,5.39,1.8Z"/>
      <path class="cls-2" d="m134.1,198.8c.02-.93-.9-.79-1.86.17-.96.95-1.16,2.22-.06,2.06,1.1-.16,1.91-1.57,1.92-2.23Z"/>
    </g>
    <g>
      <path class="cls-5" d="m326.79,186.76c2.07,3.19,1.7,7.11-.83,8.74-2.52,1.64-6.25.37-8.31-2.82-2.07-3.19-3.1-8.79-.58-10.42,2.52-1.63,7.65,1.31,9.72,4.51Z"/>
      <path class="cls-3" d="m325.64,193.17c-2.21,1.43-5.47.33-7.27-2.47-1.35-2.08-2.69-6.33-1.78-8.03-1.87,1.86-.8,7.13,1.06,10,2.07,3.19,5.79,4.46,8.31,2.82,2.27-1.47,2.79-4.78,1.38-7.75.55,2.19-.05,4.36-1.7,5.42Z"/>
      <path class="cls-2" d="m322.09,186.44c.93,0,.77-.91-.2-1.86-.97-.94-2.24-1.12-2.06-.02.18,1.1,1.61,1.88,2.26,1.87Z"/>
    </g>
    <g>
      <path class="cls-5" d="m409.47,165.97c3.22,2.02,4.54,5.72,2.95,8.27-1.6,2.55-5.5,2.98-8.73.96-3.22-2.02-6.53-6.66-4.93-9.2,1.6-2.55,7.49-2.04,10.71-.02Z"/>
      <path class="cls-3" d="m411.15,172.27c-1.4,2.23-4.82,2.6-7.64.84-2.1-1.32-5.12-4.6-5-6.52-.91,2.47,2.29,6.8,5.18,8.62,3.22,2.02,7.13,1.59,8.73-.96,1.44-2.29.51-5.51-2.03-7.61,1.42,1.76,1.79,3.97.75,5.63Z"/>
      <path class="cls-2" d="m405.09,167.66c.84-.4.31-1.15-.97-1.6-1.28-.44-2.5-.07-1.88.85.62.92,2.25,1.02,2.84.74Z"/>
    </g>
    <g>
      <path class="cls-5" d="m365.25,218.01c-.75,3.73-3.75,6.27-6.7,5.68-2.95-.59-4.73-4.1-3.98-7.83.75-3.73,3.92-8.46,6.87-7.87,2.95.59,4.56,6.28,3.81,10.01Z"/>
      <path class="cls-3" d="m359.95,221.8c-2.58-.52-4.14-3.58-3.48-6.85.49-2.43,2.49-6.41,4.33-6.99-2.64.02-5.56,4.54-6.23,7.9-.75,3.73,1.03,7.23,3.98,7.83,2.65.53,5.34-1.47,6.4-4.58-1.14,1.95-3.08,3.08-5,2.7Z"/>
      <path class="cls-2" d="m362.12,214.5c.67.65,1.19-.11,1.15-1.47-.04-1.35-.82-2.36-1.46-1.45-.64.91-.16,2.47.31,2.92Z"/>
    </g>
    <g>
      <path class="cls-5" d="m381.55,258.82c-1.21-3.6.12-7.31,2.97-8.26,2.85-.96,6.14,1.19,7.36,4.79,1.21,3.61.83,9.29-2.02,10.24-2.85.96-7.09-3.17-8.3-6.77Z"/>
      <path class="cls-3" d="m384.24,252.89c2.49-.84,5.38,1.04,6.44,4.19.79,2.35,1.04,6.8-.27,8.22,2.27-1.33,2.54-6.71,1.46-9.95-1.21-3.61-4.51-5.75-7.36-4.79-2.56.86-3.89,3.94-3.26,7.17.01-2.26,1.13-4.21,2.99-4.83Z"/>
      <path class="cls-2" d="m386.01,260.3c-.9-.23-.97.69-.26,1.85.71,1.15,1.89,1.64,1.99.53.1-1.11-1.09-2.22-1.73-2.38Z"/>
    </g>
    <g>
      <path class="cls-5" d="m367.82,293.9c.52,3.77-1.47,7.16-4.44,7.57-2.98.41-5.82-2.3-6.34-6.07-.53-3.77.91-9.28,3.88-9.69,2.98-.41,6.38,4.42,6.9,8.19Z"/>
      <path class="cls-3" d="m364.07,299.22c-2.61.36-5.09-2.02-5.55-5.31-.34-2.45.24-6.88,1.78-8.03-2.48.89-3.74,6.12-3.27,9.51.52,3.77,3.36,6.49,6.34,6.07,2.68-.37,4.55-3.15,4.53-6.44-.43,2.22-1.89,3.93-3.83,4.2Z"/>
      <path class="cls-2" d="m363.7,291.62c.84.39,1.08-.5.6-1.77-.48-1.26-1.56-1.96-1.86-.89-.3,1.07.67,2.38,1.26,2.66Z"/>
    </g>
    <g>
      <path class="cls-5" d="m352.39,337c-3.46,1.58-7.28.65-8.53-2.08-1.25-2.73.53-6.23,3.99-7.82,3.46-1.59,9.15-1.8,10.4.93,1.25,2.73-2.4,7.38-5.86,8.97Z"/>
      <path class="cls-3" d="m346.21,334.94c-1.1-2.39.47-5.46,3.49-6.84,2.25-1.03,6.65-1.75,8.2-.6-1.57-2.12-6.94-1.82-10.05-.4-3.46,1.58-5.25,5.09-3.99,7.82,1.13,2.46,4.32,3.46,7.47,2.48-2.25.22-4.31-.68-5.12-2.46Z"/>
      <path class="cls-2" d="m353.38,332.4c-.13.92.79.89,1.86.07,1.07-.82,1.43-2.05.32-2.04-1.11.02-2.09,1.32-2.18,1.97Z"/>
    </g>
    <g>
      <path class="cls-5" d="m405.84,372.17c-2.27,3.05-6.07,4.07-8.48,2.27-2.41-1.8-2.53-5.72-.25-8.78,2.27-3.05,7.16-5.97,9.57-4.18,2.41,1.8,1.44,7.63-.83,10.68Z"/>
      <path class="cls-3" d="m399.43,373.33c-2.11-1.57-2.21-5.01-.22-7.68,1.48-1.99,4.99-4.73,6.9-4.47-2.39-1.11-6.96,1.73-9.01,4.48-2.27,3.05-2.16,6.98.25,8.78,2.17,1.61,5.45.95,7.75-1.41-1.86,1.28-4.11,1.47-5.67.3Z"/>
      <path class="cls-2" d="m404.51,367.66c.33.87,1.12.4,1.67-.84.54-1.24.27-2.49-.7-1.94-.97.55-1.2,2.16-.97,2.78Z"/>
    </g>
    <g>
      <path class="cls-5" d="m332.18,356.99c3.08-2.24,7-2.08,8.77.35,1.77,2.43.71,6.22-2.37,8.45-3.08,2.24-8.61,3.57-10.38,1.14-1.77-2.43.9-7.71,3.97-9.95Z"/>
      <path class="cls-3" d="m338.65,357.78c1.55,2.13.62,5.44-2.07,7.4-2,1.46-6.18,3.03-7.92,2.21,1.96,1.77,7.17.42,9.93-1.6,3.08-2.24,4.14-6.02,2.37-8.45-1.59-2.19-4.92-2.53-7.82-.96,2.16-.66,4.36-.18,5.51,1.4Z"/>
      <path class="cls-2" d="m332.12,361.69c-.05-.93-.95-.72-1.84.3-.89,1.02-1,2.3.09,2.06,1.09-.24,1.79-1.71,1.75-2.36Z"/>
    </g>
    <g>
      <path class="cls-5" d="m284.41,377.82c1.86,3.32,1.25,7.2-1.37,8.67-2.62,1.47-6.26-.02-8.12-3.34-1.87-3.32-2.55-8.97.07-10.44,2.62-1.47,7.55,1.79,9.42,5.11Z"/>
      <path class="cls-3" d="m282.87,384.15c-2.29,1.29-5.48-.02-7.11-2.92-1.21-2.16-2.29-6.49-1.27-8.12-1.99,1.74-1.25,7.07.43,10.05,1.86,3.32,5.5,4.81,8.12,3.34,2.36-1.32,3.09-4.59,1.86-7.65.41,2.22-.33,4.35-2.03,5.31Z"/>
      <path class="cls-2" d="m279.75,377.21c.93.06.83-.86-.09-1.86-.91-1-2.16-1.26-2.06-.15.11,1.11,1.49,1.97,2.14,2.01Z"/>
    </g>
    <g>
      <path class="cls-5" d="m229.94,372.1c2.01,3.23,1.57,7.14-.98,8.73-2.55,1.59-6.25.26-8.26-2.97-2.01-3.23-2.95-8.84-.39-10.43,2.55-1.59,7.63,1.45,9.64,4.68Z"/>
      <path class="cls-3" d="m228.69,378.5c-2.23,1.39-5.47.23-7.23-2.6-1.31-2.1-2.58-6.38-1.64-8.06-1.9,1.82-.93,7.12.88,10.02,2.01,3.23,5.71,4.56,8.26,2.97,2.29-1.43,2.88-4.73,1.52-7.73.51,2.2-.13,4.36-1.79,5.39Z"/>
      <path class="cls-2" d="m225.26,371.7c.93.01.79-.9-.17-1.86-.95-.96-2.22-1.16-2.06-.06.16,1.1,1.58,1.9,2.23,1.91Z"/>
    </g>
    <g>
      <path class="cls-5" d="m183.39,407.2c-3.07-2.24-4.13-6.03-2.36-8.46,1.77-2.43,5.7-2.59,8.77-.34,3.08,2.24,6.05,7.1,4.28,9.53-1.77,2.43-7.61,1.52-10.69-.72Z"/>
      <path class="cls-3" d="m182.16,400.8c1.55-2.13,4.99-2.26,7.68-.3,2,1.46,4.78,4.95,4.54,6.86,1.08-2.4-1.81-6.95-4.57-8.96-3.08-2.24-7-2.09-8.77.34-1.59,2.18-.9,5.46,1.49,7.73-1.29-1.85-1.51-4.09-.36-5.67Z"/>
      <path class="cls-2" d="m187.89,405.82c-.87.34-.39,1.13.85,1.66,1.24.53,2.49.24,1.93-.72-.56-.96-2.17-1.18-2.79-.94Z"/>
    </g>
    <g>
      <path class="cls-5" d="m208.85,343.24c-1.83,3.33-5.45,4.86-8.09,3.42-2.64-1.45-3.29-5.32-1.46-8.66,1.83-3.34,6.27-6.9,8.9-5.45,2.64,1.45,2.47,7.36.64,10.69Z"/>
      <path class="cls-3" d="m202.66,345.27c-2.31-1.27-2.88-4.66-1.27-7.57,1.19-2.17,4.3-5.37,6.22-5.37-2.52-.77-6.66,2.67-8.31,5.67-1.83,3.34-1.18,7.21,1.46,8.66,2.37,1.3,5.53.2,7.48-2.46-1.67,1.52-3.86,2.02-5.58,1.08Z"/>
      <path class="cls-2" d="m206.91,338.95c.44.82,1.17.25,1.54-1.06.37-1.3-.08-2.5-.96-1.82-.88.68-.89,2.31-.58,2.88Z"/>
    </g>
    <g>
      <path class="cls-5" d="m176.92,316.61c1.26,3.59-.02,7.31-2.85,8.3-2.84,1-6.16-1.1-7.42-4.69-1.26-3.59-.95-9.27,1.88-10.27,2.84-1,7.13,3.07,8.39,6.66Z"/>
      <path class="cls-3" d="m174.31,322.57c-2.48.87-5.39-.97-6.49-4.11-.82-2.34-1.13-6.79.15-8.22-2.26,1.37-2.45,6.75-1.32,9.97,1.26,3.59,4.58,5.69,7.42,4.69,2.55-.89,3.84-3.99,3.16-7.21.02,2.26-1.07,4.23-2.92,4.87Z"/>
      <path class="cls-2" d="m172.44,315.19c.91.22.96-.71.24-1.85-.72-1.14-1.91-1.61-2-.5-.09,1.11,1.12,2.2,1.76,2.35Z"/>
    </g>
    <g>
      <path class="cls-5" d="m165.52,270.61c-.75,3.73-3.75,6.27-6.7,5.68-2.95-.59-4.73-4.1-3.98-7.83.75-3.73,3.92-8.46,6.87-7.87,2.95.59,4.56,6.28,3.81,10.01Z"/>
      <path class="cls-3" d="m160.22,274.4c-2.58-.52-4.14-3.58-3.48-6.85.49-2.43,2.49-6.41,4.33-6.99-2.64.02-5.56,4.54-6.23,7.9-.75,3.73,1.03,7.23,3.98,7.83,2.65.53,5.34-1.47,6.4-4.58-1.14,1.95-3.08,3.08-5,2.7Z"/>
      <path class="cls-2" d="m162.38,267.1c.67.65,1.19-.11,1.15-1.47-.04-1.35-.82-2.36-1.46-1.45-.64.91-.16,2.47.31,2.92Z"/>
    </g>
    <g>
      <path class="cls-5" d="m135.54,300.52c2.28,3.04,2.18,6.97-.22,8.78-2.41,1.8-6.21.8-8.49-2.24-2.28-3.04-3.7-8.56-1.29-10.36,2.41-1.8,7.72.78,10.01,3.83Z"/>
      <path class="cls-3" d="m134.84,306.99c-2.1,1.58-5.43.7-7.43-1.96-1.49-1.98-3.12-6.13-2.33-7.89-1.74,1.98-.31,7.17,1.74,9.9,2.28,3.04,6.08,4.05,8.49,2.24,2.16-1.62,2.46-4.96.84-7.83.69,2.15.25,4.35-1.32,5.53Z"/>
      <path class="cls-2" d="m130.84,300.52c.93-.07.71-.96-.33-1.84-1.03-.87-2.31-.96-2.06.12.25,1.08,1.73,1.76,2.39,1.71Z"/>
    </g>
  </g>
</svg>