<?xml version="1.0" encoding="UTF-8"?>
<svg xmlns="http://www.w3.org/2000/svg" xmlns:xlink="http://www.w3.org/1999/xlink" viewBox="0 0 540 540">
  <defs>
    <style>
      .cls-1 {
        isolation: isolate;
      }

      .cls-2 {
        fill: #f0e1c0;
      }

      .cls-3 {
        clip-path: url(#clippath-1);
      }

      .cls-4 {
        fill: #f4e9cf;
      }

      .cls-5 {
        fill: #d2a584;
        opacity: .2;
      }

      .cls-5, .cls-6, .cls-7, .cls-8 {
        mix-blend-mode: multiply;
      }

      .cls-9 {
        clip-path: url(#clippath);
      }

      .cls-6, .cls-7 {
        fill: #fcd78a;
      }

      .cls-6, .cls-8 {
        opacity: .5;
      }

      .cls-10 {
        fill: none;
      }

      .cls-7 {
        opacity: .25;
      }

      .cls-8 {
        fill: #f0cc83;
      }
    </style>
    <clipPath id="clippath">
      <path class="cls-10" d="m390.03,79.22c10.44,10.8,83.23,88.64,69.66,198.6-12.41,100.54-92.14,188.29-195.56,205-118.63,19.16-203.09-65.71-211.1-74.04,42.3-52.07,91.57-107.54,148.58-164.09,65.26-64.74,129.18-119.5,188.41-165.47Z"/>
    </clipPath>
    <clipPath id="clippath-1">
      <path class="cls-10" d="m390.03,79.22c10.44,10.8,83.23,88.64,69.66,198.6-12.41,100.54-92.14,188.29-195.56,205-118.63,19.16-203.09-65.71-211.1-74.04,42.3-52.07,91.57-107.54,148.58-164.09,65.26-64.74,129.18-119.5,188.41-165.47Z"/>
    </clipPath>
  </defs>
  <g class="cls-1">
    <g id="_Layer_" data-name="&amp;lt;Layer&amp;gt;">
      <g>
        <path class="cls-2" d="m390.03,79.22c10.44,10.8,83.23,88.64,69.66,198.6-12.41,100.54-92.14,188.29-195.56,205-118.63,19.16-203.09-65.71-211.1-74.04,42.3-52.07,91.57-107.54,148.58-164.09,65.26-64.74,129.18-119.5,188.41-165.47Z"/>
        <path class="cls-8" d="m432.48,326.72c4.45-8.12-8.14-15.01-12.59-6.9-4.45,8.12,8.14,15.02,12.59,6.9Z"/>
        <path class="cls-8" d="m400.21,332.76c17.57-6.28,26.51-87.84,11.52-85.57-18.41,2.8-12.15,38.05-18.76,48.76-7.27,11.78-28.63-1.07-34.16,12.37-3.73,9.08,27.62,29.35,41.39,24.43Z"/>
        <path class="cls-8" d="m273.7,460.7c4.45-8.12-8.14-15.01-12.59-6.9-4.45,8.12,8.14,15.02,12.59,6.9Z"/>
        <g class="cls-9">
          <path class="cls-5" d="m53.04,408.78c12.86,8.42,102.23,64.81,210.54,31.9,83.87-25.48,152.57-96.44,169.73-186.8,19.36-101.97-36.26-179.48-46.1-192.74-111.39,115.88-222.78,231.75-334.17,347.63Z"/>
        </g>
        <g>
          <path class="cls-4" d="m53.04,408.78s160.18,72.1,285.86-40.51c110.62-99.11,51.13-289.05,51.13-289.05-36.78,28.57-74.48,59.83-112.59,94.02-89,79.83-163.1,160.21-224.4,235.54Z"/>
          <path class="cls-6" d="m232.37,349.48c9.96,5.28,24.96-18.82,15.93-26.14-7.28-5.9-28.47,19.5-15.93,26.14Z"/>
          <path class="cls-7" d="m117.51,333.29c1.64,5.79,9.98,33.32,30.93,38.84,11.14,2.94,23.7,1.38,36.32-9.99,28.87-26.01,62.81-76.55,82.73-60,13.98,11.62-28.62,62.23,5.05,59.52,26.67-2.15,83.36-64.25,83.1-113.41-.07-13.76-1.94-19.47-5.02-20.56-11.69-4.13-31.71,27.71-42.86,23.87-8.95-3.08-11.49-30.02,1.47-106.24-31.32,26.96-63.69,56.45-96.62,88.64-34.62,33.84-66.26,67.14-95.09,99.33Z"/>
          <path class="cls-8" d="m173.64,327.27c5.08-1.82,4.88-14.62,4.83-17.41-.24-14.82-8.14-25.44-11.71-29.67-3.12,3.25-6.24,6.52-9.37,9.82-3.36,3.55-6.7,7.09-10,10.62,15.74,24.32,22.75,27.89,26.24,26.64Z"/>
          <path class="cls-8" d="m290.58,289.65c10.18.4,20.46-1.58,27.64-5.23,7.2-3.66,9.61-13.75.69-18.64-4.8-2.62-10.73-1.44-15.93.26-5.2,1.7-10.55,3.87-15.95,3-4.6-.74-7.67-4.15-9.24-8.36-4.82-12.94,6.92-17.38,9.56-28.72,2.14-9.21-1.18-16.58-11.09-10.76-14.68,8.64-26.05,35.91-18.61,51.68,5.3,11.23,19.01,16.22,32.93,16.76Z"/>
          <path class="cls-8" d="m326.18,224.72c12.94,1.92,15.92-18.16,2.98-20.08-12.95-1.92-15.93,18.16-2.98,20.08Z"/>
          <path class="cls-8" d="m361.69,217.05c9.01,1.34,11.08-12.63,2.07-13.97-9.01-1.34-11.09,12.63-2.07,13.97Z"/>
          <path class="cls-8" d="m350.19,169.38c8.01,1.19,9.86-11.23,1.84-12.42-8.01-1.19-9.85,11.23-1.84,12.42Z"/>
        </g>
        <g class="cls-3">
          <path class="cls-5" d="m256.41,170.81c-9.68,7.93-117.98,99.8-104.38,240.44,9.03,93.44,66.47,152.53,84.07,169.35-10.06,2.21-112.55,22.99-181.92-43.87-72.23-69.62-59.48-186.97-13.46-259.79,70.15-110.98,209.91-106.41,215.68-106.12Z"/>
        </g>
      </g>
    </g>
  </g>
</svg>