<?xml version="1.0" encoding="UTF-8"?>
<svg id="_Layer_" data-name="&amp;lt;Layer&amp;gt;" xmlns="http://www.w3.org/2000/svg" xmlns:xlink="http://www.w3.org/1999/xlink" viewBox="0 0 540 540">
  <defs>
    <style>
      .cls-1 {
        stroke-width: 1.27px;
      }

      .cls-1, .cls-2, .cls-3, .cls-4, .cls-5, .cls-6 {
        fill: none;
      }

      .cls-1, .cls-2, .cls-3, .cls-4, .cls-6 {
        stroke: #d8aa68;
        stroke-miterlimit: 10;
      }

      .cls-7 {
        clip-path: url(#clippath-11);
      }

      .cls-8 {
        fill: #ffda9f;
      }

      .cls-9 {
        clip-path: url(#clippath-2);
      }

      .cls-2 {
        stroke-width: 1.12px;
      }

      .cls-10 {
        clip-path: url(#clippath-6);
      }

      .cls-11 {
        fill: #dddddf;
      }

      .cls-3 {
        stroke-width: 1.24px;
      }

      .cls-12 {
        fill: #ffd18d;
      }

      .cls-13 {
        clip-path: url(#clippath-7);
      }

      .cls-14 {
        clip-path: url(#clippath-1);
      }

      .cls-15 {
        clip-path: url(#clippath-4);
      }

      .cls-16 {
        fill: #d8aa68;
      }

      .cls-17 {
        fill: #e39d5b;
      }

      .cls-4 {
        stroke-width: .88px;
      }

      .cls-18 {
        fill: #b6b6b6;
      }

      .cls-19 {
        clip-path: url(#clippath-9);
      }

      .cls-20 {
        clip-path: url(#clippath);
      }

      .cls-21 {
        fill: #adadad;
      }

      .cls-22 {
        fill: #f4c887;
      }

      .cls-23 {
        clip-path: url(#clippath-3);
      }

      .cls-24 {
        clip-path: url(#clippath-8);
      }

      .cls-25 {
        fill: #bbb;
      }

      .cls-6 {
        stroke-width: 1.4px;
      }

      .cls-26 {
        clip-path: url(#clippath-5);
      }

      .cls-27 {
        clip-path: url(#clippath-10);
      }

      .cls-28 {
        fill: #838383;
      }

      .cls-29 {
        fill: #c4c4c4;
      }
    </style>
    <clipPath id="clippath">
      <path class="cls-5" d="m296.27,136.52c1.19,2.54,2.38,5.07,3.57,7.61,2.33-.42,4.66-.85,6.99-1.27.77,2.49,1.54,4.97,2.3,7.46,2.17.48,4.33.97,6.49,1.46-1.79,11.22-8.37,19.92-16.89,21.97-1.94.47-5.18.88-9.37-.29-.38-.06-2.89-.39-4.93,1.42-1.35,1.18-1.78,2.66-1.91,3.35-.29.63-.82,2.08-.43,3.83.59,2.66,2.81,3.87,3.15,4.05,4.08,1.52,6.45,3.76,7.74,5.28,5.67,6.68,5.86,17.58.69,27.7-2.04-.88-4.07-1.76-6.1-2.64-2.08,1.56-4.17,3.11-6.26,4.66-1.63-1.71-3.26-3.43-4.9-5.14-2.46,1.35-4.91,2.69-7.37,4.04-1.13-1.9-2.27-3.8-3.4-5.71-2.64.98-5.28,1.96-7.92,2.94-1.03-2.09-2.06-4.18-3.09-6.26-2.5.67-4.99,1.35-7.5,2.02-.49-2.26-.98-4.53-1.47-6.79-2.48.59-4.95,1.19-7.42,1.79-.07-2.35-.14-4.69-.21-7.04-2.63-.68-5.25-1.36-7.88-2.04.75-2.97,2.51-8.2,6.91-13.13,2.93-3.28,7.17-8.03,13.34-8.66,4.57-.47,7.58,1.6,10.95-.51,1.81-1.13,2.78-2.88,3.33-4.2.34-1.39.58-3.38-.21-5.36-1.48-3.68-5.13-3.79-8.55-6.86-4.62-4.15-5.24-10.48-5.67-14.87-.65-6.58,1.01-11.84,2.16-14.68,2.52,1,5.04,2,7.57,3,1.44-1.85,2.87-3.71,4.31-5.56,1.65,1.94,3.29,3.87,4.94,5.82,1.73-1.54,3.46-3.08,5.19-4.62,1.62,2.02,3.24,4.04,4.86,6.06,2.06-1.08,4.12-2.16,6.19-3.24,1.56,2.35,3.11,4.7,4.67,7.04,2.04-.87,4.07-1.74,6.11-2.61Z"/>
    </clipPath>
    <clipPath id="clippath-1">
      <path class="cls-5" d="m242.28,197.14c-2.42,2.62-4.85,5.23-7.27,7.85,1.61,2.55,3.23,5.1,4.84,7.64-2.57,2.1-5.14,4.19-7.7,6.29.47,2.79.92,5.57,1.38,8.36-14.1,3.25-27.52-.36-34.02-9.43-1.48-2.07-3.52-5.69-4.14-11.2-.11-.47-.93-3.6-4.03-5.15-2.04-1.02-3.99-.82-4.87-.66-.89-.04-2.84.03-4.73,1.33-2.85,1.97-3.23,5.18-3.28,5.66.16,5.55-1.36,9.41-2.54,11.67-5.18,9.89-17.96,15.33-32.38,14.07.07-2.83.13-5.65.2-8.47-2.83-1.72-5.66-3.43-8.5-5.16,1.24-2.74,2.49-5.5,3.73-8.24-2.76-2.26-5.53-4.51-8.29-6.76,1.71-2.25,3.41-4.5,5.11-6.74-2.42-2.65-4.84-5.3-7.26-7.95,1.97-2.22,3.95-4.43,5.92-6.64-1.99-2.63-3.98-5.25-5.97-7.88,2.44-1.66,4.88-3.32,7.31-4.98-1.88-2.64-3.77-5.27-5.66-7.9,2.74-1.2,5.47-2.4,8.21-3.61-.45-3.43-.91-6.85-1.36-10.28,3.86-.54,10.87-.96,18.81,1.87,5.28,1.89,12.91,4.62,16.61,11.61,2.74,5.18,1.74,9.72,5.84,12.68,2.19,1.59,4.73,1.91,6.55,1.92,1.81-.27,4.27-.93,6.22-2.81,3.64-3.51,2.02-7.87,4.02-13.37,2.69-7.44,9.87-11.2,14.84-13.81,7.46-3.91,14.46-4.47,18.37-4.47.03,3.46.05,6.91.08,10.37,2.88.81,5.76,1.62,8.63,2.43-1.5,2.87-3,5.74-4.51,8.61,2.65,1.3,5.29,2.61,7.94,3.91-1.61,2.88-3.21,5.76-4.82,8.64,2.26,1.92,4.52,3.83,6.79,5.75-2.03,2.96-4.06,5.92-6.08,8.88,2,1.99,4,3.98,6,5.97Z"/>
    </clipPath>
    <clipPath id="clippath-2">
      <path class="cls-5" d="m146.47,225.36c1.92,3.43,3.85,6.86,5.77,10.29-2.39,2.31-4.78,4.63-7.16,6.94,2.21,2.91,4.43,5.82,6.64,8.73-1.22,2.87-2.43,5.74-3.64,8.61,14.29,7.12,29.6,6.71,38.91-1.34,2.13-1.84,5.24-5.19,7.33-10.95.24-.48,1.92-3.62,5.65-4.48,2.45-.57,4.49.15,5.39.55.96.18,3.04.76,4.73,2.64,2.55,2.85,2.12,6.38,2.05,6.91-1.6,5.91-.97,10.44-.29,13.17,3,11.94,15.3,21.06,31.09,23.43.66-3.05,1.31-6.09,1.97-9.14,3.48-1.11,6.96-2.22,10.44-3.34-.63-3.26-1.25-6.53-1.88-9.8,3.55-1.71,7.09-3.41,10.64-5.11-1.25-2.85-2.5-5.7-3.75-8.55,3.28-2.22,6.56-4.43,9.83-6.65-1.55-2.88-3.09-5.76-4.63-8.65,2.81-2.3,5.62-4.6,8.44-6.91-2.18-2.4-4.37-4.82-6.56-7.22,2.7-2.34,5.4-4.68,8.11-7.02-2.62-2-5.25-3.99-7.87-5.99,1.37-3.56,2.74-7.11,4.11-10.67-4-1.58-11.41-3.84-20.65-2.84-6.15.66-15.04,1.63-20.81,8.17-4.27,4.84-4.37,9.97-9.53,12.1-2.76,1.14-5.56.82-7.52.37-1.87-.75-4.33-2.1-5.95-4.62-3-4.7-.14-8.96-.86-15.37-.97-8.67-7.7-14.56-12.35-18.63-6.99-6.12-14.36-8.52-18.54-9.53-.92,3.7-1.84,7.4-2.76,11.09-3.3.13-6.59.25-9.88.38.87,3.46,1.74,6.93,2.61,10.4-3.17.71-6.34,1.43-9.52,2.15.98,3.51,1.96,7,2.95,10.51-2.92,1.48-5.84,2.94-8.76,4.42,1.41,3.7,2.82,7.39,4.23,11.09-2.65,1.62-5.31,3.23-7.97,4.85Z"/>
    </clipPath>
    <clipPath id="clippath-3">
      <path class="cls-5" d="m378.28,238.89c-3.14,1.69-6.28,3.38-9.42,5.08.7,2.93,1.41,5.87,2.11,8.8-3.11,1.16-6.22,2.31-9.32,3.46-.46,2.79-.93,5.57-1.4,8.36-14.4-1.49-25.92-9.24-29.14-19.93-.74-2.44-1.49-6.52-.29-11.94.05-.48.29-3.7-2.15-6.17-1.6-1.63-3.51-2.07-4.39-2.2-.82-.33-2.7-.89-4.9-.27-3.34.94-4.73,3.85-4.93,4.29-1.65,5.3-4.33,8.47-6.17,10.22-8.1,7.68-21.95,8.69-35.19,2.84.98-2.65,1.95-5.3,2.93-7.95-2.13-2.54-4.25-5.08-6.37-7.63,2.07-2.19,4.13-4.39,6.2-6.59-1.89-3.03-3.77-6.05-5.66-9.08,2.34-1.57,4.68-3.15,7.02-4.73-1.43-3.29-2.87-6.58-4.29-9.87,2.58-1.46,5.17-2.91,7.75-4.37-1.03-3.13-2.07-6.26-3.1-9.39,2.84-.78,5.69-1.56,8.53-2.34-.93-3.11-1.86-6.21-2.8-9.31,2.98-.25,5.96-.5,8.94-.76.68-3.39,1.36-6.78,2.04-10.16,3.83.74,10.6,2.61,17.19,7.86,4.38,3.5,10.72,8.55,11.96,16.36.92,5.78-1.49,9.76,1.42,13.89,1.56,2.22,3.86,3.33,5.57,3.93,1.8.33,4.34.5,6.8-.65,4.58-2.14,4.46-6.79,8.13-11.35,4.95-6.16,12.97-7.41,18.51-8.26,8.33-1.29,15.13.45,18.82,1.71-1.09,3.28-2.18,6.56-3.28,9.84,2.46,1.7,4.92,3.39,7.38,5.09-2.35,2.23-4.7,4.46-7.05,6.69,2.08,2.09,4.16,4.18,6.24,6.27-2.45,2.21-4.9,4.41-7.36,6.61,1.52,2.55,3.04,5.09,4.56,7.64-2.88,2.15-5.75,4.29-8.63,6.44,1.25,2.53,2.5,5.06,3.75,7.59Z"/>
    </clipPath>
    <clipPath id="clippath-4">
      <path class="cls-5" d="m441.37,159.39c-3.82-.93-7.64-1.86-11.47-2.79-.07-3.32-.14-6.65-.2-9.97-3.64-.37-7.28-.73-10.91-1.09-1.27-2.85-2.54-5.69-3.82-8.53-14.95,5.6-25.08,17.09-25.53,29.39-.1,2.81.23,7.37,3.02,12.82.18.5,1.34,3.87-.57,7.19-1.25,2.18-3.17,3.19-4.07,3.57-.79.58-2.63,1.7-5.15,1.66-3.82-.07-6.12-2.79-6.46-3.21-3.23-5.19-6.98-7.83-9.44-9.18-10.78-5.94-25.84-3.15-38.33,6.78,1.78,2.56,3.56,5.11,5.35,7.67-1.56,3.3-3.11,6.61-4.67,9.92,2.82,1.77,5.63,3.54,8.45,5.3-1.17,3.76-2.34,7.51-3.51,11.27,2.94,1.03,5.87,2.06,8.81,3.08-.61,3.91-1.22,7.82-1.83,11.73,3.16.83,6.33,1.66,9.48,2.5-.23,3.63-.46,7.25-.69,10.89,3.25.04,6.5.08,9.75.12-.13,3.57-.25,7.14-.39,10.71,3.25-.56,6.5-1.12,9.75-1.68,1.67,3.43,3.34,6.85,5.01,10.28,3.88-1.86,10.58-5.74,16.15-13.18,3.7-4.95,9.06-12.11,8.2-20.79-.64-6.43-4.32-9.99-2.36-15.22,1.05-2.8,3.19-4.63,4.85-5.75,1.82-.85,4.49-1.74,7.43-1.21,5.48,1.01,6.65,6,11.84,9.85,7,5.2,15.9,4.29,22.05,3.66,9.24-.95,16.02-4.7,19.61-7.08-2.08-3.19-4.16-6.39-6.24-9.58,2.15-2.5,4.3-4.99,6.45-7.49-3.13-1.72-6.25-3.45-9.39-5.18,1.64-2.81,3.27-5.62,4.91-8.43-3.23-1.67-6.46-3.34-9.7-5,.91-3.14,1.82-6.28,2.74-9.42-3.67-1.49-7.34-2.97-11-4.46.62-3.05,1.25-6.09,1.88-9.14Z"/>
    </clipPath>
    <clipPath id="clippath-5">
      <path class="cls-5" d="m170.16,193.55c-.93,3.93-1.86,7.85-2.79,11.77,3,1.61,6.01,3.22,9.01,4.83-1.36,3.49-2.72,6.98-4.09,10.47,2.01,2.49,4.01,4.97,6.01,7.46-12.07,11.04-27.28,14.95-38.72,9.63-2.61-1.21-6.63-3.64-10.3-8.73-.37-.4-2.91-3.02-6.83-2.82-2.58.13-4.39,1.41-5.15,2.06-.9.45-2.78,1.61-3.91,3.93-1.71,3.52-.3,6.89-.08,7.39,3.24,5.37,3.9,10.02,3.99,12.9.4,12.61-9.15,25.07-24.04,31.85-1.51-2.82-3.01-5.63-4.51-8.45-3.74-.11-7.48-.23-11.23-.35-.3-3.39-.61-6.79-.91-10.18-3.98-.68-7.95-1.36-11.92-2.04.43-3.16.85-6.32,1.28-9.48-3.86-1.26-7.71-2.52-11.56-3.79.71-3.28,1.42-6.55,2.13-9.83-3.42-1.48-6.84-2.95-10.26-4.44,1.48-2.98,2.95-5.98,4.43-8.96-3.32-1.55-6.64-3.09-9.97-4.63,2.02-2.71,4.05-5.41,6.07-8.12-2.35-3.12-4.7-6.24-7.05-9.36,3.5-2.68,10.17-6.99,19.55-8.62,6.25-1.08,15.28-2.63,22.81,2.19,5.57,3.57,7.12,8.59,12.8,9.24,3.05.35,5.71-.75,7.51-1.75,1.63-1.27,3.68-3.29,4.56-6.23,1.63-5.48-2.38-8.87-3.48-15.39-1.49-8.81,3.49-16.51,6.92-21.84,5.17-8,11.75-12.44,15.59-14.61,1.95,3.39,3.9,6.77,5.85,10.16,3.28-.8,6.56-1.61,9.84-2.4.12,3.66.24,7.32.36,10.98,3.33-.19,6.66-.37,9.99-.56.02,3.73.04,7.46.05,11.18,3.29.63,6.59,1.26,9.88,1.89-.35,4.04-.7,8.08-1.05,12.12,3.07.85,6.15,1.69,9.23,2.53Z"/>
    </clipPath>
    <clipPath id="clippath-6">
      <path class="cls-5" d="m119.82,189.56c-2.5,3.68-4.99,7.36-7.49,11.04-3.54-1.25-7.1-2.49-10.64-3.74-1.83,3.71-3.65,7.41-5.47,11.12-3.52.22-7.03.44-10.54.67.01,18.04,8.16,33.32,21,38.67,2.93,1.22,7.9,2.67,14.77,1.88.6,0,4.63.12,7.38,3.45,1.82,2.19,2.12,4.62,2.16,5.73.3,1.07.76,3.46-.28,6.11-1.59,4.02-5.38,5.37-5.95,5.57-6.78,1.37-11.05,4.29-13.46,6.36-10.56,9.06-13.58,26.11-8,43.27,3.41-.87,6.82-1.75,10.23-2.62,2.88,2.96,5.76,5.91,8.65,8.87,2.98-2.28,5.98-4.56,8.96-6.85,3.52,2.72,7.03,5.45,10.54,8.18,2.25-2.7,4.5-5.4,6.75-8.11,3.9,2.2,7.79,4.39,11.69,6.58,2.14-3.02,4.27-6.04,6.41-9.05,3.75,1.68,7.5,3.36,11.25,5.04,1.33-3.42,2.66-6.85,3.99-10.28,3.73,1.55,7.46,3.1,11.19,4.66.7-3.66,1.38-7.32,2.08-10.99,4.29-.41,8.58-.82,12.86-1.23-.43-4.85-1.88-13.48-7.55-22.32-3.78-5.88-9.24-14.39-18.77-16.92-7.05-1.87-12.29.61-17.04-3.53-2.55-2.22-3.64-5.21-4.17-7.41-.18-2.27-.07-5.44,1.67-8.35,3.24-5.41,8.99-4.67,15.12-8.63,8.28-5.35,10.84-15.13,12.61-21.9,2.66-10.16,1.37-18.82.27-23.56-4.2.94-8.41,1.87-12.61,2.81-1.79-3.27-3.58-6.54-5.38-9.8-3.06,2.63-6.13,5.26-9.2,7.89-2.32-2.85-4.65-5.69-6.98-8.54-3.05,2.76-6.09,5.52-9.14,8.28-2.97-2.21-5.93-4.42-8.89-6.63-3.03,3.3-6.05,6.59-9.08,9.88-2.98-1.87-5.95-3.74-8.93-5.62Z"/>
    </clipPath>
    <clipPath id="clippath-7">
      <path class="cls-5" d="m457.33,235.48c-3.31,2.31-6.61,4.62-9.92,6.93,1.17,3.2,2.35,6.4,3.52,9.6-3.34,1.7-6.68,3.4-10.02,5.1-.15,3.19-.31,6.38-.47,9.57-16.36.21-30.31-6.99-35.32-18.57-1.14-2.64-2.52-7.13-1.89-13.37-.01-.55-.16-4.19-3.22-6.65-2.01-1.62-4.21-1.87-5.22-1.89-.97-.26-3.15-.65-5.54.33-3.62,1.49-4.8,4.94-4.97,5.47-1.16,6.17-3.76,10.08-5.6,12.29-8.09,9.69-23.51,12.63-39.14,7.79.75-3.11,1.5-6.21,2.25-9.31-2.72-2.58-5.43-5.15-8.15-7.73,2.03-2.73,4.06-5.47,6.1-8.21-2.51-3.15-5.03-6.3-7.54-9.46,2.42-2.07,4.84-4.15,7.27-6.22-2.04-3.51-4.08-7.01-6.11-10.52,2.71-1.98,5.42-3.94,8.13-5.92-1.57-3.38-3.14-6.76-4.71-10.14,3.09-1.25,6.18-2.5,9.27-3.75-1.45-3.37-2.9-6.73-4.36-10.09,3.31-.68,6.62-1.34,9.94-2.02.32-3.89.64-7.79.96-11.68,4.4.33,12.24,1.54,20.33,6.57,5.38,3.35,13.16,8.2,15.57,16.81,1.79,6.37-.4,11.15,3.41,15.41,2.04,2.28,4.77,3.24,6.77,3.69,2.06.14,4.93,0,7.55-1.62,4.86-3,4.12-8.21,7.64-13.81,4.75-7.57,13.59-10.01,19.7-11.7,9.18-2.53,17.05-1.47,21.36-.54-.8,3.82-1.59,7.65-2.39,11.47,2.98,1.59,5.97,3.17,8.95,4.75-2.34,2.81-4.69,5.62-7.04,8.44,2.61,2.07,5.22,4.15,7.83,6.22-2.46,2.8-4.93,5.59-7.4,8.39,2.04,2.66,4.08,5.32,6.12,7.98-2.95,2.79-5.9,5.57-8.84,8.36,1.73,2.68,3.47,5.35,5.2,8.03Z"/>
    </clipPath>
    <clipPath id="clippath-8">
      <path class="cls-5" d="m447.06,189.1c-4.31,1.08-8.62,2.17-12.94,3.26-1.82-3.29-3.64-6.58-5.46-9.87-3.83,1.55-7.66,3.11-11.49,4.66-2.77-2.18-5.54-4.34-8.32-6.52-11.99,13.48-16.07,30.31-10.04,42.85,1.38,2.86,4.12,7.25,9.78,11.23.45.4,3.38,3.17,3.22,7.49-.1,2.85-1.49,4.86-2.19,5.71-.48,1-1.73,3.09-4.28,4.38-3.86,1.94-7.59.43-8.15.2-5.97-3.49-11.11-4.15-14.28-4.21-13.91-.26-27.51,10.47-34.76,26.99,3.13,1.62,6.26,3.23,9.39,4.85.18,4.13.37,8.25.55,12.38,3.75.28,7.5.57,11.24.85.81,4.37,1.62,8.74,2.43,13.12,3.48-.52,6.96-1.04,10.43-1.56,1.45,4.23,2.9,8.46,4.35,12.69,3.6-.83,7.2-1.67,10.8-2.5,1.68,3.75,3.36,7.5,5.05,11.25,3.27-1.67,6.55-3.35,9.82-5.02,1.76,3.64,3.51,7.28,5.26,10.92,2.96-2.27,5.9-4.55,8.86-6.82,3.48,2.55,6.95,5.09,10.43,7.64,2.9-3.9,7.56-11.32,9.21-21.69,1.09-6.9,2.67-16.89-2.76-25.11-4.02-6.09-9.58-7.72-10.38-13.97-.43-3.35.75-6.31,1.82-8.31,1.37-1.82,3.57-4.11,6.8-5.12,6.02-1.88,9.81,2.49,17.03,3.61,9.74,1.51,18.16-4.09,23.98-7.96,8.74-5.82,13.54-13.14,15.88-17.41-3.76-2.1-7.53-4.2-11.29-6.29.83-3.63,1.67-7.26,2.5-10.89-4.04-.08-8.07-.15-12.12-.23.16-3.67.31-7.35.47-11.02-4.11.03-8.22.07-12.33.11-.75-3.62-1.49-7.24-2.23-10.87-4.45.45-8.9.9-13.35,1.33-.98-3.37-1.96-6.75-2.93-10.13Z"/>
    </clipPath>
    <clipPath id="clippath-9">
      <path class="cls-5" d="m352.85,253.6c-1.92,3.43-3.85,6.86-5.77,10.29,2.39,2.31,4.78,4.63,7.16,6.94-2.21,2.91-4.43,5.82-6.64,8.73,1.22,2.87,2.43,5.74,3.64,8.61-14.29,7.12-29.6,6.71-38.91-1.34-2.13-1.84-5.24-5.19-7.33-10.95-.24-.48-1.92-3.62-5.65-4.48-2.45-.57-4.49.15-5.39.55-.96.18-3.04.76-4.73,2.64-2.55,2.85-2.12,6.38-2.05,6.91,1.6,5.91.97,10.44.29,13.17-3,11.94-15.3,21.06-31.09,23.43-.66-3.05-1.31-6.09-1.97-9.14-3.48-1.11-6.96-2.22-10.44-3.34.63-3.26,1.25-6.53,1.88-9.8-3.55-1.71-7.09-3.41-10.64-5.11,1.25-2.85,2.5-5.7,3.75-8.55-3.28-2.22-6.56-4.43-9.83-6.65,1.55-2.88,3.09-5.76,4.63-8.65-2.81-2.3-5.62-4.6-8.44-6.91,2.18-2.4,4.37-4.82,6.56-7.22-2.7-2.34-5.4-4.68-8.11-7.02,2.62-2,5.25-3.99,7.87-5.99-1.37-3.56-2.74-7.11-4.11-10.67,4-1.58,11.41-3.84,20.65-2.84,6.15.66,15.04,1.63,20.81,8.17,4.27,4.84,4.37,9.97,9.53,12.1,2.76,1.14,5.56.82,7.52.37,1.87-.75,4.33-2.1,5.95-4.62,3-4.7.14-8.96.86-15.37.97-8.67,7.7-14.56,12.35-18.63,6.99-6.12,14.36-8.52,18.54-9.53.92,3.7,1.84,7.4,2.76,11.09,3.3.13,6.59.25,9.88.38-.87,3.46-1.74,6.93-2.61,10.4,3.17.71,6.34,1.43,9.52,2.15-.98,3.51-1.96,7-2.95,10.51,2.92,1.48,5.84,2.94,8.76,4.42-1.41,3.7-2.82,7.39-4.23,11.09,2.65,1.62,5.31,3.23,7.97,4.85Z"/>
    </clipPath>
    <clipPath id="clippath-10">
      <path class="cls-5" d="m408.92,208.66c-1.54-3.73-3.08-7.45-4.62-11.18,2.71-2.06,5.42-4.13,8.13-6.2-1.9-3.23-3.8-6.46-5.69-9.69,1.59-2.77,3.17-5.54,4.75-8.32-13.67-8.99-29.31-10.43-39.76-3.37-2.39,1.61-5.96,4.65-8.79,10.25-.3.46-2.4,3.45-6.29,3.87-2.57.28-4.56-.7-5.42-1.22-.96-.3-3-1.15-4.49-3.26-2.25-3.21-1.39-6.75-1.25-7.28,2.35-5.82,2.26-10.51,1.9-13.37-1.6-12.52-13.01-23.3-28.79-27.63-1.04,3.02-2.08,6.04-3.11,9.06-3.68.71-7.35,1.41-11.03,2.13.24,3.4.48,6.8.72,10.2-3.82,1.31-7.63,2.6-11.45,3.91.93,3.05,1.85,6.1,2.77,9.16-3.61,1.86-7.21,3.71-10.82,5.58,1.22,3.12,2.45,6.24,3.66,9.36-3.14,2-6.28,4-9.43,6.01,1.93,2.71,3.86,5.43,5.79,8.15-3.03,2.06-6.07,4.11-9.1,6.15,2.43,2.35,4.86,4.7,7.29,7.05-1.83,3.45-3.65,6.91-5.48,10.36,3.88,2.09,11.15,5.29,20.67,5.4,6.34.07,15.5.17,22.17-5.78,4.94-4.41,5.66-9.61,11.17-11.15,2.95-.83,5.76-.16,7.69.54,1.81.99,4.16,2.66,5.49,5.42,2.48,5.15-.95,9.13-1,15.75-.07,8.94,6.06,15.75,10.3,20.46,6.37,7.08,13.58,10.42,17.71,11.95,1.39-3.65,2.77-7.3,4.16-10.96,3.37.27,6.74.54,10.1.81-.46-3.63-.93-7.26-1.39-10.9,3.32-.34,6.63-.69,9.95-1.03-.57-3.69-1.14-7.37-1.72-11.05,3.15-1.15,6.3-2.29,9.46-3.43-.99-3.94-1.97-7.87-2.95-11.8,2.9-1.32,5.8-2.64,8.71-3.97Z"/>
    </clipPath>
    <clipPath id="clippath-11">
      <path class="cls-5" d="m272.83,242.07c-3.26-2.37-6.53-4.74-9.79-7.11,1.23-3.18,2.46-6.36,3.69-9.54-3.31-1.76-6.62-3.52-9.92-5.28-.1-3.19-.2-6.38-.3-9.58-16.35-.5-30.43,6.44-35.65,17.93-1.19,2.62-2.65,7.08-2.13,13.33-.02.55-.24,4.19-3.34,6.59-2.04,1.58-4.25,1.79-5.25,1.8-.97.24-3.16.59-5.53-.43-3.6-1.55-4.71-5.03-4.88-5.55-1.05-6.19-3.57-10.14-5.38-12.38-7.91-9.83-23.28-13.05-38.99-8.49.7,3.12,1.39,6.23,2.09,9.35-2.77,2.53-5.52,5.05-8.29,7.58,1.98,2.77,3.97,5.55,5.95,8.32-2.57,3.11-5.14,6.21-7.71,9.32,2.39,2.12,4.77,4.24,7.15,6.35-2.1,3.47-4.2,6.94-6.3,10.41,2.68,2.02,5.35,4.04,8.02,6.06-1.63,3.35-3.26,6.7-4.89,10.05,3.06,1.3,6.14,2.61,9.2,3.91-1.51,3.34-3.02,6.67-4.54,10.01,3.3.73,6.6,1.46,9.9,2.2.25,3.9.5,7.8.75,11.69,4.4-.25,12.27-1.32,20.44-6.21,5.44-3.25,13.3-7.96,15.87-16.52,1.9-6.34-.2-11.16,3.68-15.35,2.08-2.25,4.82-3.15,6.84-3.57,2.06-.1,4.93.09,7.52,1.75,4.81,3.09,3.97,8.28,7.39,13.95,4.62,7.65,13.41,10.25,19.49,12.05,9.14,2.7,17.02,1.78,21.35.92-.73-3.84-1.46-7.68-2.19-11.51,3.01-1.53,6.03-3.06,9.03-4.59-2.29-2.85-4.59-5.7-6.89-8.56,2.65-2.03,5.29-4.06,7.94-6.08-2.41-2.84-4.83-5.68-7.25-8.52,2.09-2.63,4.18-5.25,6.26-7.87-2.9-2.84-5.8-5.67-8.69-8.51,1.78-2.64,3.56-5.29,5.35-7.93Z"/>
    </clipPath>
  </defs>
  <g>
    <ellipse class="cls-11" cx="272.66" cy="235.42" rx="253.72" ry="66.96"/>
    <ellipse class="cls-28" cx="272.66" cy="234.11" rx="235.57" ry="59.16"/>
  </g>
  <g id="pasta_1" data-name="pasta 1">
    <path class="cls-17" d="m74.4,261.57c27.76-23.9,92.71-72.76,187.41-83.56,95.88-10.93,166.76,23.49,225.13,51.84,55.54,26.98-20.11,46.04,1.92,92.76,25.71,54.53-22.32,112.97-63.24,96.1-125.1-51.54-172.81-16.87-261.33-72.05-25.1-15.65-58.07-41.38-89.89-85.1Z"/>
    <g>
      <g>
        <path class="cls-8" d="m296.27,136.52c1.19,2.54,2.38,5.07,3.57,7.61,2.33-.42,4.66-.85,6.99-1.27.77,2.49,1.54,4.97,2.3,7.46,2.17.48,4.33.97,6.49,1.46-1.79,11.22-8.37,19.92-16.89,21.97-1.94.47-5.18.88-9.37-.29-.38-.06-2.89-.39-4.93,1.42-1.35,1.18-1.78,2.66-1.91,3.35-.29.63-.82,2.08-.43,3.83.59,2.66,2.81,3.87,3.15,4.05,4.08,1.52,6.45,3.76,7.74,5.28,5.67,6.68,5.86,17.58.69,27.7-2.04-.88-4.07-1.76-6.1-2.64-2.08,1.56-4.17,3.11-6.26,4.66-1.63-1.71-3.26-3.43-4.9-5.14-2.46,1.35-4.91,2.69-7.37,4.04-1.13-1.9-2.27-3.8-3.4-5.71-2.64.98-5.28,1.96-7.92,2.94-1.03-2.09-2.06-4.18-3.09-6.26-2.5.67-4.99,1.35-7.5,2.02-.49-2.26-.98-4.53-1.47-6.79-2.48.59-4.95,1.19-7.42,1.79-.07-2.35-.14-4.69-.21-7.04-2.63-.68-5.25-1.36-7.88-2.04.75-2.97,2.51-8.2,6.91-13.13,2.93-3.28,7.17-8.03,13.34-8.66,4.57-.47,7.58,1.6,10.95-.51,1.81-1.13,2.78-2.88,3.33-4.2.34-1.39.58-3.38-.21-5.36-1.48-3.68-5.13-3.79-8.55-6.86-4.62-4.15-5.24-10.48-5.67-14.87-.65-6.58,1.01-11.84,2.16-14.68,2.52,1,5.04,2,7.57,3,1.44-1.85,2.87-3.71,4.31-5.56,1.65,1.94,3.29,3.87,4.94,5.82,1.73-1.54,3.46-3.08,5.19-4.62,1.62,2.02,3.24,4.04,4.86,6.06,2.06-1.08,4.12-2.16,6.19-3.24,1.56,2.35,3.11,4.7,4.67,7.04,2.04-.87,4.07-1.74,6.11-2.61Z"/>
        <g class="cls-20">
          <path class="cls-22" d="m262.52,192.84c2.09-.57,4.15-2.31,7.57-10.86,4.58-11.45,8.26-20.65,4.63-26.02-.56-.82-2.14-2.81-1.93-5.36.14-1.67,1.06-3.66,2.08-3.7,1.93-.08,2.81,6.77,5.79,6.97.93.06,1.52-.56,2.69-.18.92.3,1.78,1.09,2.02,1.88.57,1.94-2.53,4.16-4.44,6.09-2.27,2.29-3.64,6.79-6.38,15.8-3.82,12.58-2.94,15.1-1.89,16.56.17.24,1.73,2.36,3.65,2.24,2.6-.16,4.86-4.36,4.9-8.04.04-3.2-1.63-3.6-1.78-6.89-.14-3.04,1.08-7.18,4.05-9.2,3.03-2.05,4.93.1,10.74-1.76,3.63-1.16,6.3-3.1,7.2-3.79,3.46-2.65,3.6-4.31,6.23-5.68,1.62-.85,4.22-1.61,8.32-.79-4.93,6.69-9.86,13.38-14.78,20.07-1.24,16.54-2.49,33.08-3.73,49.62-14.03-3.4-28.05-6.81-42.08-10.21-3.02-1.68-6.03-3.37-9.05-5.05.84-3.64,1.67-7.28,2.51-10.93-2.49.47-4.98.95-7.48,1.42.21-2.62.42-5.24.63-7.86-2.57-.02-5.13-.04-7.7-.05-2.09-.04-4.18-.08-6.27-.12,2.9-13.82,7.63-18.32,11.68-19.68,5.01-1.7,10.79.78,18.53-3.07,2.17-1.08,3.82-2.32,3.88-3.82.06-1.57-1.67-2.66-3.82-4.4,0,0-4.26-3.44-7.53-7.54-1.98-2.48-3.68-6.93-1.95-15.54.9,2.88,2.55,6.61,5.65,10.08,3.27,3.67,6.92,5.65,8.26,6.38,3.36,1.8,3.82,1.25,5.23,2.49,3.34,2.93,4.7,9.47,2.4,14.09-1.89,3.79-4.75,3.27-10.72,10.12-2.77,3.17-3.21,4.5-2.81,5.39.65,1.47,3.57,1.91,5.7,1.33Z"/>
        </g>
      </g>
      <path class="cls-4" d="m296.27,136.52c1.19,2.54,2.38,5.07,3.57,7.61,2.33-.42,4.66-.85,6.99-1.27.77,2.49,1.54,4.97,2.3,7.46,2.17.48,4.33.97,6.49,1.46-1.79,11.22-8.37,19.92-16.89,21.97-1.94.47-5.18.88-9.37-.29-.38-.06-2.89-.39-4.93,1.42-1.35,1.18-1.78,2.66-1.91,3.35-.29.63-.82,2.08-.43,3.83.59,2.66,2.81,3.87,3.15,4.05,4.08,1.52,6.45,3.76,7.74,5.28,5.67,6.68,5.86,17.58.69,27.7-2.04-.88-4.07-1.76-6.1-2.64-2.08,1.56-4.17,3.11-6.26,4.66-1.63-1.71-3.26-3.43-4.9-5.14-2.46,1.35-4.91,2.69-7.37,4.04-1.13-1.9-2.27-3.8-3.4-5.71-2.64.98-5.28,1.96-7.92,2.94-1.03-2.09-2.06-4.18-3.09-6.26-2.5.67-4.99,1.35-7.5,2.02-.49-2.26-.98-4.53-1.47-6.79-2.48.59-4.95,1.19-7.42,1.79-.07-2.35-.14-4.69-.21-7.04-2.63-.68-5.25-1.36-7.88-2.04.75-2.97,2.51-8.2,6.91-13.13,2.93-3.28,7.17-8.03,13.34-8.66,4.57-.47,7.58,1.6,10.95-.51,1.81-1.13,2.78-2.88,3.33-4.2.34-1.39.58-3.38-.21-5.36-1.48-3.68-5.13-3.79-8.55-6.86-4.62-4.15-5.24-10.48-5.67-14.87-.65-6.58,1.01-11.84,2.16-14.68,2.52,1,5.04,2,7.57,3,1.44-1.85,2.87-3.71,4.31-5.56,1.65,1.94,3.29,3.87,4.94,5.82,1.73-1.54,3.46-3.08,5.19-4.62,1.62,2.02,3.24,4.04,4.86,6.06,2.06-1.08,4.12-2.16,6.19-3.24,1.56,2.35,3.11,4.7,4.67,7.04,2.04-.87,4.07-1.74,6.11-2.61Z"/>
      <g>
        <path class="cls-16" d="m262.23,190.7c6.96-10.16,10.64-21.96,10.74-34.28,1.82,12.22-2.27,25.28-10.74,34.28h0Z"/>
        <path class="cls-16" d="m260.83,184.3c7.44-3.44,11.2-11.46,8.42-19.26-.32-1.08-.77-2.12-1.29-3.14,6.68,7.81,3.03,20.06-7.13,22.4h0Z"/>
        <path class="cls-16" d="m274.32,194.22c-1.54-12.26,2.86-25.22,11.53-34.02-7.18,10.01-11.16,21.71-11.53,34.02h0Z"/>
        <path class="cls-16" d="m279.22,189.88c-6.83-7.88-2.55-19.92,7.44-22.29-1.02.52-2,1.09-2.89,1.78-6.84,4.65-8.53,13.35-4.55,20.52h0Z"/>
      </g>
    </g>
    <g>
      <g>
        <path class="cls-8" d="m242.28,197.14c-2.42,2.62-4.85,5.23-7.27,7.85,1.61,2.55,3.23,5.1,4.84,7.64-2.57,2.1-5.14,4.19-7.7,6.29.47,2.79.92,5.57,1.38,8.36-14.1,3.25-27.52-.36-34.02-9.43-1.48-2.07-3.52-5.69-4.14-11.2-.11-.47-.93-3.6-4.03-5.15-2.04-1.02-3.99-.82-4.87-.66-.89-.04-2.84.03-4.73,1.33-2.85,1.97-3.23,5.18-3.28,5.66.16,5.55-1.36,9.41-2.54,11.67-5.18,9.89-17.96,15.33-32.38,14.07.07-2.83.13-5.65.2-8.47-2.83-1.72-5.66-3.43-8.5-5.16,1.24-2.74,2.49-5.5,3.73-8.24-2.76-2.26-5.53-4.51-8.29-6.76,1.71-2.25,3.41-4.5,5.11-6.74-2.42-2.65-4.84-5.3-7.26-7.95,1.97-2.22,3.95-4.43,5.92-6.64-1.99-2.63-3.98-5.25-5.97-7.88,2.44-1.66,4.88-3.32,7.31-4.98-1.88-2.64-3.77-5.27-5.66-7.9,2.74-1.2,5.47-2.4,8.21-3.61-.45-3.43-.91-6.85-1.36-10.28,3.86-.54,10.87-.96,18.81,1.87,5.28,1.89,12.91,4.62,16.61,11.61,2.74,5.18,1.74,9.72,5.84,12.68,2.19,1.59,4.73,1.91,6.55,1.92,1.81-.27,4.27-.93,6.22-2.81,3.64-3.51,2.02-7.87,4.02-13.37,2.69-7.44,9.87-11.2,14.84-13.81,7.46-3.91,14.46-4.47,18.37-4.47.03,3.46.05,6.91.08,10.37,2.88.81,5.76,1.62,8.63,2.43-1.5,2.87-3,5.74-4.51,8.61,2.65,1.3,5.29,2.61,7.94,3.91-1.61,2.88-3.21,5.76-4.82,8.64,2.26,1.92,4.52,3.83,6.79,5.75-2.03,2.96-4.06,5.92-6.08,8.88,2,1.99,4,3.98,6,5.97Z"/>
        <g class="cls-14">
          <path class="cls-22" d="m159.65,184.23c1.67,2.2,4.71,3.8,16.44,3.75,15.71-.07,28.34-.13,32.93-6.98.71-1.05,2.3-3.88,5.41-4.85,2.04-.64,4.83-.51,5.37.69,1.01,2.24-6.65,6.56-5.46,10.17.37,1.12,1.39,1.53,1.49,3.09.08,1.23-.43,2.62-1.26,3.28-2.01,1.6-6.12-.99-9.31-2.33-3.78-1.59-9.76-1.05-21.71.03-16.68,1.5-19.23,3.75-20.46,5.69-.2.32-1.96,3.17-.9,5.38,1.43,2.99,7.47,3.65,11.84,1.94,3.8-1.49,3.47-3.65,7.28-5.4,3.53-1.62,9-2.16,12.8.38,3.87,2.59,2.24,5.87,7.21,11.84,3.11,3.73,6.67,5.95,7.92,6.68,4.79,2.82,6.81,2.19,9.69,4.64,1.77,1.51,3.92,4.22,4.92,9.45-10.26-2.62-20.51-5.24-30.77-7.85-20.12,6.44-40.25,12.89-60.37,19.33-2.69-18.19-5.38-36.37-8.07-54.56.55-4.37,1.09-8.73,1.64-13.1,4.7-.75,9.4-1.51,14.1-2.26-1.75-2.72-3.5-5.43-5.25-8.15,3.19-1,6.39-2.01,9.58-3.01-1.21-3.04-2.41-6.07-3.62-9.11-.95-2.49-1.91-4.97-2.86-7.46,17.71-3.19,25.27.25,28.82,4.37,4.4,5.1,4.24,13.12,12.49,20.41,2.32,2.05,4.57,3.4,6.36,2.75,1.88-.68,2.34-3.24,3.37-6.62,0,0,2.03-6.68,5.3-12.5,1.98-3.53,6.42-7.66,17.41-9.73-2.97,2.44-6.58,6.17-9.2,11.5-2.76,5.62-3.37,10.87-3.57,12.81-.52,4.82.35,5.11-.43,7.36-1.86,5.34-8.94,10.08-15.48,9.57-5.38-.42-6.13-4.04-17.07-7.82-5.07-1.75-6.84-1.64-7.71-.74-1.42,1.47-.55,5.12,1.15,7.37Z"/>
        </g>
      </g>
      <path class="cls-2" d="m242.28,197.14c-2.42,2.62-4.85,5.23-7.27,7.85,1.61,2.55,3.23,5.1,4.84,7.64-2.57,2.1-5.14,4.19-7.7,6.29.47,2.79.92,5.57,1.38,8.36-14.1,3.25-27.52-.36-34.02-9.43-1.48-2.07-3.52-5.69-4.14-11.2-.11-.47-.93-3.6-4.03-5.15-2.04-1.02-3.99-.82-4.87-.66-.89-.04-2.84.03-4.73,1.33-2.85,1.97-3.23,5.18-3.28,5.66.16,5.55-1.36,9.41-2.54,11.67-5.18,9.89-17.96,15.33-32.38,14.07.07-2.83.13-5.65.2-8.47-2.83-1.72-5.66-3.43-8.5-5.16,1.24-2.74,2.49-5.5,3.73-8.24-2.76-2.26-5.53-4.51-8.29-6.76,1.71-2.25,3.41-4.5,5.11-6.74-2.42-2.65-4.84-5.3-7.26-7.95,1.97-2.22,3.95-4.43,5.92-6.64-1.99-2.63-3.98-5.25-5.97-7.88,2.44-1.66,4.88-3.32,7.31-4.98-1.88-2.64-3.77-5.27-5.66-7.9,2.74-1.2,5.47-2.4,8.21-3.61-.45-3.43-.91-6.85-1.36-10.28,3.86-.54,10.87-.96,18.81,1.87,5.28,1.89,12.91,4.62,16.61,11.61,2.74,5.18,1.74,9.72,5.84,12.68,2.19,1.59,4.73,1.91,6.55,1.92,1.81-.27,4.27-.93,6.22-2.81,3.64-3.51,2.02-7.87,4.02-13.37,2.69-7.44,9.87-11.2,14.84-13.81,7.46-3.91,14.46-4.47,18.37-4.47.03,3.46.05,6.91.08,10.37,2.88.81,5.76,1.62,8.63,2.43-1.5,2.87-3,5.74-4.51,8.61,2.65,1.3,5.29,2.61,7.94,3.91-1.61,2.88-3.21,5.76-4.82,8.64,2.26,1.92,4.52,3.83,6.79,5.75-2.03,2.96-4.06,5.92-6.08,8.88,2,1.99,4,3.98,6,5.97Z"/>
      <g>
        <path class="cls-16" d="m162.03,182.86c15.25,3.35,31.05,2.05,45.6-3.72-13.56,7.99-30.93,9.41-45.6,3.72h0Z"/>
        <path class="cls-16" d="m168.92,178.15c9.38,8.55,21.76,7.24,29.85-2.3-6.05,11.64-22.21,13.18-29.85,2.3h0Z"/>
        <path class="cls-16" d="m163.66,198.83c13.74-7.68,31.14-8.69,45.68-2.66-15.21-3.69-31.04-2.78-45.68,2.66h0Z"/>
        <path class="cls-16" d="m171.13,202.53c6.06-11.84,22.27-12.55,29.88-1.87-9.34-8.32-21.78-7.89-29.88,1.87h0Z"/>
      </g>
    </g>
    <g>
      <g>
        <path class="cls-8" d="m146.47,225.36c1.92,3.43,3.85,6.86,5.77,10.29-2.39,2.31-4.78,4.63-7.16,6.94,2.21,2.91,4.43,5.82,6.64,8.73-1.22,2.87-2.43,5.74-3.64,8.61,14.29,7.12,29.6,6.71,38.91-1.34,2.13-1.84,5.24-5.19,7.33-10.95.24-.48,1.92-3.62,5.65-4.48,2.45-.57,4.49.15,5.39.55.96.18,3.04.76,4.73,2.64,2.55,2.85,2.12,6.38,2.05,6.91-1.6,5.91-.97,10.44-.29,13.17,3,11.94,15.3,21.06,31.09,23.43.66-3.05,1.31-6.09,1.97-9.14,3.48-1.11,6.96-2.22,10.44-3.34-.63-3.26-1.25-6.53-1.88-9.8,3.55-1.71,7.09-3.41,10.64-5.11-1.25-2.85-2.5-5.7-3.75-8.55,3.28-2.22,6.56-4.43,9.83-6.65-1.55-2.88-3.09-5.76-4.63-8.65,2.81-2.3,5.62-4.6,8.44-6.91-2.18-2.4-4.37-4.82-6.56-7.22,2.7-2.34,5.4-4.68,8.11-7.02-2.62-2-5.25-3.99-7.87-5.99,1.37-3.56,2.74-7.11,4.11-10.67-4-1.58-11.41-3.84-20.65-2.84-6.15.66-15.04,1.63-20.81,8.17-4.27,4.84-4.37,9.97-9.53,12.1-2.76,1.14-5.56.82-7.52.37-1.87-.75-4.33-2.1-5.95-4.62-3-4.7-.14-8.96-.86-15.37-.97-8.67-7.7-14.56-12.35-18.63-6.99-6.12-14.36-8.52-18.54-9.53-.92,3.7-1.84,7.4-2.76,11.09-3.3.13-6.59.25-9.88.38.87,3.46,1.74,6.93,2.61,10.4-3.17.71-6.34,1.43-9.52,2.15.98,3.51,1.96,7,2.95,10.51-2.92,1.48-5.84,2.94-8.76,4.42,1.41,3.7,2.82,7.39,4.23,11.09-2.65,1.62-5.31,3.23-7.97,4.85Z"/>
        <g class="cls-9">
          <path class="cls-22" d="m238.4,232.83c-2.36,1.92-6.03,2.86-18.59-.22-16.83-4.13-30.35-7.44-33.5-15.98-.49-1.31-1.46-4.75-4.55-6.59-2.02-1.21-5.05-1.79-5.93-.65-1.66,2.14,5.44,8.75,3.23,12.31-.69,1.11-1.88,1.29-2.4,2.93-.41,1.29-.21,2.93.51,3.84,1.75,2.24,6.82.52,10.59-.1,4.47-.73,10.73,1.39,23.27,5.63,17.5,5.91,19.66,8.98,20.47,11.37.13.39,1.28,3.91-.42,6-2.31,2.84-8.95,1.99-13.2-.97-3.69-2.58-2.78-4.81-6.42-7.67-3.36-2.65-9.09-4.64-13.82-2.89-4.82,1.78-3.91,5.72-10.79,10.84-4.3,3.2-8.69,4.66-10.21,5.12-5.86,1.79-7.86.6-11.59,2.48-2.29,1.16-5.29,3.51-7.71,8.86,11.67-.16,23.35-.32,35.02-.49,19.92,12.1,39.83,24.19,59.75,36.29,7.57-18.81,15.15-37.61,22.72-56.42.54-4.82,1.08-9.64,1.62-14.47-4.85-2.02-9.69-4.04-14.54-6.06,2.58-2.46,5.15-4.92,7.73-7.38-3.17-1.9-6.33-3.8-9.5-5.7,2.08-2.95,4.15-5.89,6.23-8.84,1.66-2.42,3.33-4.84,4.99-7.26-18.16-7.98-27.17-6.25-32.03-2.75-6.03,4.34-7.93,12.97-18.66,18.66-3.01,1.6-5.78,2.47-7.53,1.31-1.84-1.22-1.68-4.07-1.9-7.97,0,0-.45-7.68-2.46-14.77-1.22-4.29-4.91-9.87-16.16-14.92,2.56,3.39,5.47,8.32,6.9,14.7,1.51,6.74.81,12.52.53,14.65-.69,5.3-1.69,5.39-1.43,8.01.61,6.21,6.98,13.11,14.14,14.25,5.87.94,7.61-2.76,20.32-3.98,5.89-.57,7.76,0,8.46,1.2,1.15,1.94-.73,5.64-3.14,7.6Z"/>
        </g>
      </g>
      <path class="cls-3" d="m146.47,225.36c1.92,3.43,3.85,6.86,5.77,10.29-2.39,2.31-4.78,4.63-7.16,6.94,2.21,2.91,4.43,5.82,6.64,8.73-1.22,2.87-2.43,5.74-3.64,8.61,14.29,7.12,29.6,6.71,38.91-1.34,2.13-1.84,5.24-5.19,7.33-10.95.24-.48,1.92-3.62,5.65-4.48,2.45-.57,4.49.15,5.39.55.96.18,3.04.76,4.73,2.64,2.55,2.85,2.12,6.38,2.05,6.91-1.6,5.91-.97,10.44-.29,13.17,3,11.94,15.3,21.06,31.09,23.43.66-3.05,1.31-6.09,1.97-9.14,3.48-1.11,6.96-2.22,10.44-3.34-.63-3.26-1.25-6.53-1.88-9.8,3.55-1.71,7.09-3.41,10.64-5.11-1.25-2.85-2.5-5.7-3.75-8.55,3.28-2.22,6.56-4.43,9.83-6.65-1.55-2.88-3.09-5.76-4.63-8.65,2.81-2.3,5.62-4.6,8.44-6.91-2.18-2.4-4.37-4.82-6.56-7.22,2.7-2.34,5.4-4.68,8.11-7.02-2.62-2-5.25-3.99-7.87-5.99,1.37-3.56,2.74-7.11,4.11-10.67-4-1.58-11.41-3.84-20.65-2.84-6.15.66-15.04,1.63-20.81,8.17-4.27,4.84-4.37,9.97-9.53,12.1-2.76,1.14-5.56.82-7.52.37-1.87-.75-4.33-2.1-5.95-4.62-3-4.7-.14-8.96-.86-15.37-.97-8.67-7.7-14.56-12.35-18.63-6.99-6.12-14.36-8.52-18.54-9.53-.92,3.7-1.84,7.4-2.76,11.09-3.3.13-6.59.25-9.88.38.87,3.46,1.74,6.93,2.61,10.4-3.17.71-6.34,1.43-9.52,2.15.98,3.51,1.96,7,2.95,10.51-2.92,1.48-5.84,2.94-8.76,4.42,1.41,3.7,2.82,7.39,4.23,11.09-2.65,1.62-5.31,3.23-7.97,4.85Z"/>
      <g>
        <path class="cls-16" d="m236.2,230.74c-17.19,2.33-35.47-3.68-47.94-15.75,14.04,9.9,30.75,15.42,47.94,15.75h0Z"/>
        <path class="cls-16" d="m230.03,223.92c-11.06,9.69-27.88,3.9-31.41-10.16,6.26,12.34,19.1,16.9,31.41,10.16h0Z"/>
        <path class="cls-16" d="m230.34,247.44c-14.26-9.6-31.11-14.68-48.29-14.63,17.13-2.72,35.55,2.85,48.29,14.63h0Z"/>
        <path class="cls-16" d="m221.37,249.49c-4.07-8.55-13.1-14.31-22.61-12.67-3.07.46-6.09,1.48-8.94,2.95,10.97-9.49,28.07-4.56,31.55,9.71h0Z"/>
      </g>
    </g>
    <g>
      <g>
        <path class="cls-8" d="m378.28,238.89c-3.14,1.69-6.28,3.38-9.42,5.08.7,2.93,1.41,5.87,2.11,8.8-3.11,1.16-6.22,2.31-9.32,3.46-.46,2.79-.93,5.57-1.4,8.36-14.4-1.49-25.92-9.24-29.14-19.93-.74-2.44-1.49-6.52-.29-11.94.05-.48.29-3.7-2.15-6.17-1.6-1.63-3.51-2.07-4.39-2.2-.82-.33-2.7-.89-4.9-.27-3.34.94-4.73,3.85-4.93,4.29-1.65,5.3-4.33,8.47-6.17,10.22-8.1,7.68-21.95,8.69-35.19,2.84.98-2.65,1.95-5.3,2.93-7.95-2.13-2.54-4.25-5.08-6.37-7.63,2.07-2.19,4.13-4.39,6.2-6.59-1.89-3.03-3.77-6.05-5.66-9.08,2.34-1.57,4.68-3.15,7.02-4.73-1.43-3.29-2.87-6.58-4.29-9.87,2.58-1.46,5.17-2.91,7.75-4.37-1.03-3.13-2.07-6.26-3.1-9.39,2.84-.78,5.69-1.56,8.53-2.34-.93-3.11-1.86-6.21-2.8-9.31,2.98-.25,5.96-.5,8.94-.76.68-3.39,1.36-6.78,2.04-10.16,3.83.74,10.6,2.61,17.19,7.86,4.38,3.5,10.72,8.55,11.96,16.36.92,5.78-1.49,9.76,1.42,13.89,1.56,2.22,3.86,3.33,5.57,3.93,1.8.33,4.34.5,6.8-.65,4.58-2.14,4.46-6.79,8.13-11.35,4.95-6.16,12.97-7.41,18.51-8.26,8.33-1.29,15.13.45,18.82,1.71-1.09,3.28-2.18,6.56-3.28,9.84,2.46,1.7,4.92,3.39,7.38,5.09-2.35,2.23-4.7,4.46-7.05,6.69,2.08,2.09,4.16,4.18,6.24,6.27-2.45,2.21-4.9,4.41-7.36,6.61,1.52,2.55,3.04,5.09,4.56,7.64-2.88,2.15-5.75,4.29-8.63,6.44,1.25,2.53,2.5,5.06,3.75,7.59Z"/>
        <g class="cls-23">
          <path class="cls-22" d="m304.28,199.94c.87,2.62,3.23,5.12,14.34,8.86,14.89,5.02,26.85,9.05,33.41,4.05,1.01-.77,3.43-2.93,6.69-2.84,2.14.06,4.73,1.08,4.86,2.39.23,2.45-8.41,4.06-8.46,7.86-.01,1.18.82,1.9.41,3.4-.32,1.19-1.26,2.34-2.25,2.7-2.42.86-5.47-2.92-8.06-5.22-3.07-2.73-8.89-4.15-20.55-7-16.27-3.98-19.41-2.68-21.2-1.24-.29.23-2.88,2.37-2.59,4.8.39,3.29,5.89,5.87,10.58,5.67,4.08-.18,4.46-2.33,8.64-2.76,3.86-.39,9.21.87,11.98,4.5,2.83,3.71.22,6.28,2.99,13.54,1.74,4.54,4.39,7.79,5.33,8.88,3.62,4.22,5.73,4.28,7.66,7.53,1.19,2,2.34,5.26,1.6,10.53-8.86-5.8-17.72-11.59-26.57-17.39-21.13-.42-42.25-.83-63.38-1.25,3.34-18.08,6.68-36.16,10.02-54.23,1.93-3.95,3.86-7.91,5.79-11.86,4.69.81,9.38,1.61,14.07,2.42-.78-3.14-1.56-6.27-2.33-9.41,3.35.08,6.69.17,10.04.25-.16-3.26-.32-6.53-.47-9.79-.1-2.66-.2-5.32-.29-7.99,17.78,2.71,23.83,8.42,25.86,13.46,2.51,6.25-.23,13.78,5.22,23.35,1.53,2.69,3.23,4.7,5.13,4.66,2-.04,3.26-2.31,5.33-5.17,0,0,4.08-5.66,9.06-10.11,3.02-2.7,8.55-5.17,19.62-3.57-3.6,1.35-8.23,3.71-12.42,7.9-4.43,4.42-6.7,9.19-7.53,10.96-2.05,4.39-1.32,4.95-2.79,6.83-3.49,4.46-11.72,6.64-17.75,4.04-4.95-2.14-4.49-5.81-13.62-12.92-4.23-3.3-5.94-3.76-7.06-3.19-1.82.93-2.18,4.67-1.29,7.35Z"/>
        </g>
      </g>
      <path class="cls-2" d="m378.28,238.89c-3.14,1.69-6.28,3.38-9.42,5.08.7,2.93,1.41,5.87,2.11,8.8-3.11,1.16-6.22,2.31-9.32,3.46-.46,2.79-.93,5.57-1.4,8.36-14.4-1.49-25.92-9.24-29.14-19.93-.74-2.44-1.49-6.52-.29-11.94.05-.48.29-3.7-2.15-6.17-1.6-1.63-3.51-2.07-4.39-2.2-.82-.33-2.7-.89-4.9-.27-3.34.94-4.73,3.85-4.93,4.29-1.65,5.3-4.33,8.47-6.17,10.22-8.1,7.68-21.95,8.69-35.19,2.84.98-2.65,1.95-5.3,2.93-7.95-2.13-2.54-4.25-5.08-6.37-7.63,2.07-2.19,4.13-4.39,6.2-6.59-1.89-3.03-3.77-6.05-5.66-9.08,2.34-1.57,4.68-3.15,7.02-4.73-1.43-3.29-2.87-6.58-4.29-9.87,2.58-1.46,5.17-2.91,7.75-4.37-1.03-3.13-2.07-6.26-3.1-9.39,2.84-.78,5.69-1.56,8.53-2.34-.93-3.11-1.86-6.21-2.8-9.31,2.98-.25,5.96-.5,8.94-.76.68-3.39,1.36-6.78,2.04-10.16,3.83.74,10.6,2.61,17.19,7.86,4.38,3.5,10.72,8.55,11.96,16.36.92,5.78-1.49,9.76,1.42,13.89,1.56,2.22,3.86,3.33,5.57,3.93,1.8.33,4.34.5,6.8-.65,4.58-2.14,4.46-6.79,8.13-11.35,4.95-6.16,12.97-7.41,18.51-8.26,8.33-1.29,15.13.45,18.82,1.71-1.09,3.28-2.18,6.56-3.28,9.84,2.46,1.7,4.92,3.39,7.38,5.09-2.35,2.23-4.7,4.46-7.05,6.69,2.08,2.09,4.16,4.18,6.24,6.27-2.45,2.21-4.9,4.41-7.36,6.61,1.52,2.55,3.04,5.09,4.56,7.64-2.88,2.15-5.75,4.29-8.63,6.44,1.25,2.53,2.5,5.06,3.75,7.59Z"/>
      <g>
        <path class="cls-16" d="m306.98,199.42c13.34,8.11,28.72,11.99,44.35,11.24-15.41,3.17-32.32-1.1-44.35-11.24h0Z"/>
        <path class="cls-16" d="m315.01,197.19c4,7.55,12.5,12.43,21.01,10.53,2.76-.55,5.45-1.59,7.98-3.05-9.49,9.05-25.27,5.28-28.99-7.48h0Z"/>
        <path class="cls-16" d="m303.35,215.05c15.48-2.82,32.28,1.86,44.08,12.26-13.2-8.42-28.47-12.68-44.08-12.26h0Z"/>
        <path class="cls-16" d="m309.22,220.97c9.57-9.24,25.13-4.67,28.88,7.89-6.14-10.9-18.05-14.51-28.88-7.89h0Z"/>
      </g>
    </g>
    <g>
      <g>
        <path class="cls-8" d="m441.37,159.39c-3.82-.93-7.64-1.86-11.47-2.79-.07-3.32-.14-6.65-.2-9.97-3.64-.37-7.28-.73-10.91-1.09-1.27-2.85-2.54-5.69-3.82-8.53-14.95,5.6-25.08,17.09-25.53,29.39-.1,2.81.23,7.37,3.02,12.82.18.5,1.34,3.87-.57,7.19-1.25,2.18-3.17,3.19-4.07,3.57-.79.58-2.63,1.7-5.15,1.66-3.82-.07-6.12-2.79-6.46-3.21-3.23-5.19-6.98-7.83-9.44-9.18-10.78-5.94-25.84-3.15-38.33,6.78,1.78,2.56,3.56,5.11,5.35,7.67-1.56,3.3-3.11,6.61-4.67,9.92,2.82,1.77,5.63,3.54,8.45,5.3-1.17,3.76-2.34,7.51-3.51,11.27,2.94,1.03,5.87,2.06,8.81,3.08-.61,3.91-1.22,7.82-1.83,11.73,3.16.83,6.33,1.66,9.48,2.5-.23,3.63-.46,7.25-.69,10.89,3.25.04,6.5.08,9.75.12-.13,3.57-.25,7.14-.39,10.71,3.25-.56,6.5-1.12,9.75-1.68,1.67,3.43,3.34,6.85,5.01,10.28,3.88-1.86,10.58-5.74,16.15-13.18,3.7-4.95,9.06-12.11,8.2-20.79-.64-6.43-4.32-9.99-2.36-15.22,1.05-2.8,3.19-4.63,4.85-5.75,1.82-.85,4.49-1.74,7.43-1.21,5.48,1.01,6.65,6,11.84,9.85,7,5.2,15.9,4.29,22.05,3.66,9.24-.95,16.02-4.7,19.61-7.08-2.08-3.19-4.16-6.39-6.24-9.58,2.15-2.5,4.3-4.99,6.45-7.49-3.13-1.72-6.25-3.45-9.39-5.18,1.64-2.81,3.27-5.62,4.91-8.43-3.23-1.67-6.46-3.34-9.7-5,.91-3.14,1.82-6.28,2.74-9.42-3.67-1.49-7.34-2.97-11-4.46.62-3.05,1.25-6.09,1.88-9.14Z"/>
        <g class="cls-15">
          <path class="cls-22" d="m373.27,221.58c.2-3.04,2.02-6.36,12.83-13.46,14.49-9.51,26.13-17.14,34.52-13.64,1.29.54,4.47,2.16,7.92,1.16,2.26-.66,4.75-2.48,4.52-3.9-.43-2.68-10.11-1.98-11.22-6.02-.34-1.26.34-2.25-.51-3.75-.67-1.18-2-2.15-3.16-2.25-2.83-.24-5.02,4.64-7.14,7.81-2.51,3.76-8.33,6.91-19.97,13.2-16.25,8.78-19.97,8.27-22.27,7.23-.38-.17-3.73-1.72-4.11-4.4-.5-3.62,4.65-7.91,9.7-9,4.4-.95,5.41,1.24,9.99.53,4.23-.66,9.59-3.5,11.53-8.15,1.98-4.74-1.52-6.76-.58-15.28.59-5.33,2.51-9.54,3.21-10.97,2.68-5.51,4.92-6.16,6.08-10.17.71-2.47,1.03-6.26-1.23-11.68-7.84,8.65-15.67,17.31-23.51,25.96-22.42,6.33-44.85,12.67-67.27,19,8.6,18.36,17.21,36.72,25.81,55.07,3.16,3.68,6.32,7.36,9.48,11.04,4.78-2.17,9.56-4.34,14.34-6.51.04,3.56.09,7.13.13,10.69,3.55-1.02,7.09-2.04,10.64-3.07.74,3.53,1.48,7.05,2.23,10.58.64,2.87,1.28,5.74,1.91,8.6,18.22-7.85,23.08-15.63,23.84-21.58.93-7.37-4.09-14.64-.95-26.37.88-3.29,2.13-5.91,4.18-6.4,2.14-.52,4.12,1.55,7.13,4.03,0,0,5.93,4.9,12.49,8.27,3.97,2.04,10.57,3.14,21.93-1.66-4.22-.43-9.81-1.67-15.46-4.97-5.96-3.48-9.72-7.94-11.09-9.6-3.41-4.12-2.79-4.91-4.88-6.51-4.96-3.78-14.36-3.82-20.06.64-4.69,3.66-3.17,7.45-10.93,17.58-3.6,4.7-5.29,5.67-6.64,5.38-2.2-.48-3.63-4.38-3.43-7.48Z"/>
        </g>
      </g>
      <path class="cls-3" d="m441.37,159.39c-3.82-.93-7.64-1.86-11.47-2.79-.07-3.32-.14-6.65-.2-9.97-3.64-.37-7.28-.73-10.91-1.09-1.27-2.85-2.54-5.69-3.82-8.53-14.95,5.6-25.08,17.09-25.53,29.39-.1,2.81.23,7.37,3.02,12.82.18.5,1.34,3.87-.57,7.19-1.25,2.18-3.17,3.19-4.07,3.57-.79.58-2.63,1.7-5.15,1.66-3.82-.07-6.12-2.79-6.46-3.21-3.23-5.19-6.98-7.83-9.44-9.18-10.78-5.94-25.84-3.15-38.33,6.78,1.78,2.56,3.56,5.11,5.35,7.67-1.56,3.3-3.11,6.61-4.67,9.92,2.82,1.77,5.63,3.54,8.45,5.3-1.17,3.76-2.34,7.51-3.51,11.27,2.94,1.03,5.87,2.06,8.81,3.08-.61,3.91-1.22,7.82-1.83,11.73,3.16.83,6.33,1.66,9.48,2.5-.23,3.63-.46,7.25-.69,10.89,3.25.04,6.5.08,9.75.12-.13,3.57-.25,7.14-.39,10.71,3.25-.56,6.5-1.12,9.75-1.68,1.67,3.43,3.34,6.85,5.01,10.28,3.88-1.86,10.58-5.74,16.15-13.18,3.7-4.95,9.06-12.11,8.2-20.79-.64-6.43-4.32-9.99-2.36-15.22,1.05-2.8,3.19-4.63,4.85-5.75,1.82-.85,4.49-1.74,7.43-1.21,5.48,1.01,6.65,6,11.84,9.85,7,5.2,15.9,4.29,22.05,3.66,9.24-.95,16.02-4.7,19.61-7.08-2.08-3.19-4.16-6.39-6.24-9.58,2.15-2.5,4.3-4.99,6.45-7.49-3.13-1.72-6.25-3.45-9.39-5.18,1.64-2.81,3.27-5.62,4.91-8.43-3.23-1.67-6.46-3.34-9.7-5,.91-3.14,1.82-6.28,2.74-9.42-3.67-1.49-7.34-2.97-11-4.46.62-3.05,1.25-6.09,1.88-9.14Z"/>
      <g>
        <path class="cls-16" d="m376.3,221.39c10.01-14.17,26.87-23.45,44.19-24.36-16.82,3.53-32.24,12-44.19,24.36h0Z"/>
        <path class="cls-16" d="m385.5,221.53c.44-14.7,16.15-23.06,28.84-16.07-3.1-.85-6.27-1.21-9.36-1.03-9.65.37-17.28,7.89-19.48,17.1h0Z"/>
        <path class="cls-16" d="m368.07,205.73c16.74-3.9,31.94-12.77,43.61-25.38-9.68,14.39-26.32,24.08-43.61,25.38h0Z"/>
        <path class="cls-16" d="m372.68,197.77c9.03,2.85,19.4.16,24.68-7.92,1.75-2.56,3.07-5.46,3.93-8.56-.53,14.49-15.79,23.65-28.61,16.48h0Z"/>
      </g>
    </g>
    <g>
      <g>
        <path class="cls-8" d="m170.16,193.55c-.93,3.93-1.86,7.85-2.79,11.77,3,1.61,6.01,3.22,9.01,4.83-1.36,3.49-2.72,6.98-4.09,10.47,2.01,2.49,4.01,4.97,6.01,7.46-12.07,11.04-27.28,14.95-38.72,9.63-2.61-1.21-6.63-3.64-10.3-8.73-.37-.4-2.91-3.02-6.83-2.82-2.58.13-4.39,1.41-5.15,2.06-.9.45-2.78,1.61-3.91,3.93-1.71,3.52-.3,6.89-.08,7.39,3.24,5.37,3.9,10.02,3.99,12.9.4,12.61-9.15,25.07-24.04,31.85-1.51-2.82-3.01-5.63-4.51-8.45-3.74-.11-7.48-.23-11.23-.35-.3-3.39-.61-6.79-.91-10.18-3.98-.68-7.95-1.36-11.92-2.04.43-3.16.85-6.32,1.28-9.48-3.86-1.26-7.71-2.52-11.56-3.79.71-3.28,1.42-6.55,2.13-9.83-3.42-1.48-6.84-2.95-10.26-4.44,1.48-2.98,2.95-5.98,4.43-8.96-3.32-1.55-6.64-3.09-9.97-4.63,2.02-2.71,4.05-5.41,6.07-8.12-2.35-3.12-4.7-6.24-7.05-9.36,3.5-2.68,10.17-6.99,19.55-8.62,6.25-1.08,15.28-2.63,22.81,2.19,5.57,3.57,7.12,8.59,12.8,9.24,3.05.35,5.71-.75,7.51-1.75,1.63-1.27,3.68-3.29,4.56-6.23,1.63-5.48-2.38-8.87-3.48-15.39-1.49-8.81,3.49-16.51,6.92-21.84,5.17-8,11.75-12.44,15.59-14.61,1.95,3.39,3.9,6.77,5.85,10.16,3.28-.8,6.56-1.61,9.84-2.4.12,3.66.24,7.32.36,10.98,3.33-.19,6.66-.37,9.99-.56.02,3.73.04,7.46.05,11.18,3.29.63,6.59,1.26,9.88,1.89-.35,4.04-.7,8.08-1.05,12.12,3.07.85,6.15,1.69,9.23,2.53Z"/>
        <g class="cls-26">
          <path class="cls-22" d="m81.66,226.79c2.86,1.23,6.75,1.12,18.26-5.45,15.42-8.8,27.82-15.88,28.52-25.18.11-1.43.11-5.09,2.63-7.78,1.65-1.76,4.47-3.18,5.67-2.31,2.24,1.64-2.9,10.15.28,13.05.99.9,2.22.74,3.19,2.21.77,1.16,1.03,2.82.58,3.93-1.09,2.69-6.58,2.43-10.46,2.89-4.61.54-10.19,4.39-21.35,12.1-15.58,10.75-16.84,14.38-16.97,16.97-.02.42-.17,4.21,2.11,5.8,3.07,2.15,9.38-.56,12.73-4.68,2.91-3.58,1.38-5.52,4.16-9.37,2.57-3.55,7.66-7.13,12.81-6.74,5.26.4,5.47,4.54,13.68,7.64,5.14,1.94,9.88,2.15,11.51,2.18,6.28.11,7.92-1.63,12.12-.82,2.58.5,6.2,1.97,10.09,6.56-11.55,3.13-23.1,6.25-34.65,9.38-16.22,17.53-32.45,35.06-48.67,52.59-12.76-16.4-25.52-32.81-38.28-49.21-1.89-4.6-3.78-9.2-5.67-13.8,4.21-3.36,8.41-6.71,12.62-10.07-3.23-1.7-6.47-3.4-9.7-5.1,2.58-2.76,5.17-5.53,7.75-8.29-2.88-2.32-5.75-4.64-8.63-6.96-2.32-1.92-4.64-3.83-6.97-5.75,15.65-12.98,25.02-13.81,30.8-11.73,7.16,2.58,11.47,10.55,23.64,13.14,3.42.73,6.39.8,7.79-.83,1.47-1.72.5-4.49-.37-8.39,0,0-1.72-7.7-1.74-15.25-.01-4.57,2.06-11.11,11.73-19.26-1.57,4.06-3.05,9.74-2.66,16.43.41,7.06,2.73,12.57,3.6,14.59,2.17,5.03,3.19,4.84,3.67,7.49,1.14,6.29-3.19,14.89-9.92,18.03-5.52,2.58-8.28-.57-21.15,1.8-5.96,1.1-7.64,2.19-8,3.56-.58,2.23,2.31,5.35,5.23,6.61Z"/>
        </g>
      </g>
      <path class="cls-1" d="m170.16,193.55c-.93,3.93-1.86,7.85-2.79,11.77,3,1.61,6.01,3.22,9.01,4.83-1.36,3.49-2.72,6.98-4.09,10.47,2.01,2.49,4.01,4.97,6.01,7.46-12.07,11.04-27.28,14.95-38.72,9.63-2.61-1.21-6.63-3.64-10.3-8.73-.37-.4-2.91-3.02-6.83-2.82-2.58.13-4.39,1.41-5.15,2.06-.9.45-2.78,1.61-3.91,3.93-1.71,3.52-.3,6.89-.08,7.39,3.24,5.37,3.9,10.02,3.99,12.9.4,12.61-9.15,25.07-24.04,31.85-1.51-2.82-3.01-5.63-4.51-8.45-3.74-.11-7.48-.23-11.23-.35-.3-3.39-.61-6.79-.91-10.18-3.98-.68-7.95-1.36-11.92-2.04.43-3.16.85-6.32,1.28-9.48-3.86-1.26-7.71-2.52-11.56-3.79.71-3.28,1.42-6.55,2.13-9.83-3.42-1.48-6.84-2.95-10.26-4.44,1.48-2.98,2.95-5.98,4.43-8.96-3.32-1.55-6.64-3.09-9.97-4.63,2.02-2.71,4.05-5.41,6.07-8.12-2.35-3.12-4.7-6.24-7.05-9.36,3.5-2.68,10.17-6.99,19.55-8.62,6.25-1.08,15.28-2.63,22.81,2.19,5.57,3.57,7.12,8.59,12.8,9.24,3.05.35,5.71-.75,7.51-1.75,1.63-1.27,3.68-3.29,4.56-6.23,1.63-5.48-2.38-8.87-3.48-15.39-1.49-8.81,3.49-16.51,6.92-21.84,5.17-8,11.75-12.44,15.59-14.61,1.95,3.39,3.9,6.77,5.85,10.16,3.28-.8,6.56-1.61,9.84-2.4.12,3.66.24,7.32.36,10.98,3.33-.19,6.66-.37,9.99-.56.02,3.73.04,7.46.05,11.18,3.29.63,6.59,1.26,9.88,1.89-.35,4.04-.7,8.08-1.05,12.12,3.07.85,6.15,1.69,9.23,2.53Z"/>
      <g>
        <path class="cls-16" d="m83.24,224.11c16.85-5.16,31.76-15.3,42.82-29.02-8.89,15.4-25.22,26.47-42.82,29.02h0Z"/>
        <path class="cls-16" d="m87.4,215.65c9.43,2.28,19.85-1.2,24.68-9.83,1.61-2.74,2.75-5.8,3.42-9.03.48,14.85-14.48,25.3-28.1,18.86h0Z"/>
        <path class="cls-16" d="m93.72,238.92c9.24-15.19,25.83-25.87,43.48-28.02-16.95,4.79-32.13,14.54-43.48,28.02h0Z"/>
        <path class="cls-16" d="m103.14,238.41c-.58-15.06,14.89-24.72,28.36-18.46-3.23-.65-6.49-.8-9.65-.39-9.84,1.06-17.12,9.28-18.72,18.85h0Z"/>
      </g>
    </g>
    <g>
      <g>
        <path class="cls-8" d="m119.82,189.56c-2.5,3.68-4.99,7.36-7.49,11.04-3.54-1.25-7.1-2.49-10.64-3.74-1.83,3.71-3.65,7.41-5.47,11.12-3.52.22-7.03.44-10.54.67.01,18.04,8.16,33.32,21,38.67,2.93,1.22,7.9,2.67,14.77,1.88.6,0,4.63.12,7.38,3.45,1.82,2.19,2.12,4.62,2.16,5.73.3,1.07.76,3.46-.28,6.11-1.59,4.02-5.38,5.37-5.95,5.57-6.78,1.37-11.05,4.29-13.46,6.36-10.56,9.06-13.58,26.11-8,43.27,3.41-.87,6.82-1.75,10.23-2.62,2.88,2.96,5.76,5.91,8.65,8.87,2.98-2.28,5.98-4.56,8.96-6.85,3.52,2.72,7.03,5.45,10.54,8.18,2.25-2.7,4.5-5.4,6.75-8.11,3.9,2.2,7.79,4.39,11.69,6.58,2.14-3.02,4.27-6.04,6.41-9.05,3.75,1.68,7.5,3.36,11.25,5.04,1.33-3.42,2.66-6.85,3.99-10.28,3.73,1.55,7.46,3.1,11.19,4.66.7-3.66,1.38-7.32,2.08-10.99,4.29-.41,8.58-.82,12.86-1.23-.43-4.85-1.88-13.48-7.55-22.32-3.78-5.88-9.24-14.39-18.77-16.92-7.05-1.87-12.29.61-17.04-3.53-2.55-2.22-3.64-5.21-4.17-7.41-.18-2.27-.07-5.44,1.67-8.35,3.24-5.41,8.99-4.67,15.12-8.63,8.28-5.35,10.84-15.13,12.61-21.9,2.66-10.16,1.37-18.82.27-23.56-4.2.94-8.41,1.87-12.61,2.81-1.79-3.27-3.58-6.54-5.38-9.8-3.06,2.63-6.13,5.26-9.2,7.89-2.32-2.85-4.65-5.69-6.98-8.54-3.05,2.76-6.09,5.52-9.14,8.28-2.97-2.21-5.93-4.42-8.89-6.63-3.03,3.3-6.05,6.59-9.08,9.88-2.98-1.87-5.95-3.74-8.93-5.62Z"/>
        <g class="cls-10">
          <path class="cls-22" d="m158.69,286.3c-3.14-1.41-5.94-4.66-9.16-18.91-4.33-19.1-7.8-34.45-.76-41.95,1.08-1.15,4.06-3.88,4.37-7.93.2-2.66-.74-6.01-2.34-6.33-3.01-.6-6.1,9.92-10.82,9.49-1.47-.13-2.25-1.25-4.17-.95-1.51.24-3.07,1.26-3.63,2.45-1.38,2.9,2.92,7.16,5.44,10.66,2.99,4.15,4.01,11.56,6.06,26.37,2.86,20.68.84,24.41-1.16,26.45-.33.33-3.3,3.27-6.29,2.61-4.03-.9-6.53-8.05-5.68-13.84.74-5.03,3.46-5.24,4.52-10.36.98-4.74.1-11.54-4.06-15.44-4.24-3.98-7.76-1.07-16.41-5.44-5.41-2.73-9.1-6.44-10.34-7.74-4.77-5.03-4.57-7.65-8.36-10.46-2.33-1.73-6.22-3.58-12.85-3.32,6.06,11.72,12.12,23.45,18.18,35.17-2.18,26.25-4.35,52.5-6.53,78.75,22.84-1.84,45.69-3.68,68.53-5.51,5.15-1.89,10.3-3.78,15.45-5.67-.4-5.92-.81-11.84-1.21-17.76,3.79,1.36,7.58,2.73,11.37,4.09.32-4.16.64-8.32.97-12.48,4.03.61,8.05,1.22,12.08,1.83,3.29.46,6.58.92,9.87,1.38-1.1-22.4-7.4-30.63-13.4-33.78-7.43-3.91-17.12-1.47-28.3-9.44-3.14-2.24-5.41-4.6-5.12-6.96.3-2.47,3.27-3.75,7.1-5.95,0,0,7.54-4.34,13.7-9.94,3.73-3.4,7.51-9.95,6.93-23.88-2.13,4.3-5.65,9.73-11.38,14.4-6.05,4.93-12.26,7.14-14.55,7.94-5.71,1.98-6.31,1.01-8.82,2.59-5.97,3.76-9.73,13.68-7.27,21.49,2.02,6.41,6.63,6.31,14.29,18.54,3.55,5.67,3.91,7.85,3.06,9.16-1.38,2.14-6.07,2.11-9.27.67Z"/>
        </g>
      </g>
      <path class="cls-6" d="m119.82,189.56c-2.5,3.68-4.99,7.36-7.49,11.04-3.54-1.25-7.1-2.49-10.64-3.74-1.83,3.71-3.65,7.41-5.47,11.12-3.52.22-7.03.44-10.54.67.01,18.04,8.16,33.32,21,38.67,2.93,1.22,7.9,2.67,14.77,1.88.6,0,4.63.12,7.38,3.45,1.82,2.19,2.12,4.62,2.16,5.73.3,1.07.76,3.46-.28,6.11-1.59,4.02-5.38,5.37-5.95,5.57-6.78,1.37-11.05,4.29-13.46,6.36-10.56,9.06-13.58,26.11-8,43.27,3.41-.87,6.82-1.75,10.23-2.62,2.88,2.96,5.76,5.91,8.65,8.87,2.98-2.28,5.98-4.56,8.96-6.85,3.52,2.72,7.03,5.45,10.54,8.18,2.25-2.7,4.5-5.4,6.75-8.11,3.9,2.2,7.79,4.39,11.69,6.58,2.14-3.02,4.27-6.04,6.41-9.05,3.75,1.68,7.5,3.36,11.25,5.04,1.33-3.42,2.66-6.85,3.99-10.28,3.73,1.55,7.46,3.1,11.19,4.66.7-3.66,1.38-7.32,2.08-10.99,4.29-.41,8.58-.82,12.86-1.23-.43-4.85-1.88-13.48-7.55-22.32-3.78-5.88-9.24-14.39-18.77-16.92-7.05-1.87-12.29.61-17.04-3.53-2.55-2.22-3.64-5.21-4.17-7.41-.18-2.27-.07-5.44,1.67-8.35,3.24-5.41,8.99-4.67,15.12-8.63,8.28-5.35,10.84-15.13,12.61-21.9,2.66-10.16,1.37-18.82.27-23.56-4.2.94-8.41,1.87-12.61,2.81-1.79-3.27-3.58-6.54-5.38-9.8-3.06,2.63-6.13,5.26-9.2,7.89-2.32-2.85-4.65-5.69-6.98-8.54-3.05,2.76-6.09,5.52-9.14,8.28-2.97-2.21-5.93-4.42-8.89-6.63-3.03,3.3-6.05,6.59-9.08,9.88-2.98-1.87-5.95-3.74-8.93-5.62Z"/>
      <g>
        <path class="cls-16" d="m159.69,283.02c-11.04-16.21-14.19-37.74-8.29-56.44-2.92,19.2-.06,38.89,8.29,56.44h0Z"/>
        <path class="cls-16" d="m163.47,273.33c-13.09-5.25-17.58-21.48-9.28-32.83,1.08-1.5,2.27-2.91,3.69-4.07-2.13,2.95-3.77,6.15-4.8,9.5-3.42,10.41,1.48,21.38,10.38,27.39h0Z"/>
        <path class="cls-16" d="m139.84,285.52c2.51-19.27-.87-38.87-9.59-56.23,11.4,15.95,15.07,37.4,9.59,56.23h0Z"/>
        <path class="cls-16" d="m133.24,277.49c9.6-12.7,6.65-27.71-6.11-36.82,1.71.66,3.28,1.64,4.77,2.73,11.42,8.22,12.16,25.05,1.34,34.09h0Z"/>
      </g>
    </g>
    <g>
      <g>
        <path class="cls-8" d="m457.33,235.48c-3.31,2.31-6.61,4.62-9.92,6.93,1.17,3.2,2.35,6.4,3.52,9.6-3.34,1.7-6.68,3.4-10.02,5.1-.15,3.19-.31,6.38-.47,9.57-16.36.21-30.31-6.99-35.32-18.57-1.14-2.64-2.52-7.13-1.89-13.37-.01-.55-.16-4.19-3.22-6.65-2.01-1.62-4.21-1.87-5.22-1.89-.97-.26-3.15-.65-5.54.33-3.62,1.49-4.8,4.94-4.97,5.47-1.16,6.17-3.76,10.08-5.6,12.29-8.09,9.69-23.51,12.63-39.14,7.79.75-3.11,1.5-6.21,2.25-9.31-2.72-2.58-5.43-5.15-8.15-7.73,2.03-2.73,4.06-5.47,6.1-8.21-2.51-3.15-5.03-6.3-7.54-9.46,2.42-2.07,4.84-4.15,7.27-6.22-2.04-3.51-4.08-7.01-6.11-10.52,2.71-1.98,5.42-3.94,8.13-5.92-1.57-3.38-3.14-6.76-4.71-10.14,3.09-1.25,6.18-2.5,9.27-3.75-1.45-3.37-2.9-6.73-4.36-10.09,3.31-.68,6.62-1.34,9.94-2.02.32-3.89.64-7.79.96-11.68,4.4.33,12.24,1.54,20.33,6.57,5.38,3.35,13.16,8.2,15.57,16.81,1.79,6.37-.4,11.15,3.41,15.41,2.04,2.28,4.77,3.24,6.77,3.69,2.06.14,4.93,0,7.55-1.62,4.86-3,4.12-8.21,7.64-13.81,4.75-7.57,13.59-10.01,19.7-11.7,9.18-2.53,17.05-1.47,21.36-.54-.8,3.82-1.59,7.65-2.39,11.47,2.98,1.59,5.97,3.17,8.95,4.75-2.34,2.81-4.69,5.62-7.04,8.44,2.61,2.07,5.22,4.15,7.83,6.22-2.46,2.8-4.93,5.59-7.4,8.39,2.04,2.66,4.08,5.32,6.12,7.98-2.95,2.79-5.9,5.57-8.84,8.36,1.73,2.68,3.47,5.35,5.2,8.03Z"/>
        <g class="cls-13">
          <path class="cls-22" d="m369.14,201.44c1.32,2.83,4.3,5.33,17.26,8.08,17.37,3.69,31.33,6.65,38.05.17,1.03-1,3.47-3.73,7.13-4.06,2.41-.21,5.46.6,5.77,2.05.58,2.72-8.92,5.66-8.47,9.93.14,1.33,1.16,2.02.91,3.77-.2,1.38-1.11,2.8-2.18,3.32-2.61,1.29-6.53-2.56-9.73-4.8-3.8-2.66-10.53-3.5-23.99-5.17-18.79-2.34-22.15-.46-23.96,1.38-.3.3-2.93,3.04-2.28,5.73.87,3.65,7.38,5.82,12.62,4.98,4.56-.74,4.71-3.2,9.34-4.23,4.28-.95,10.46-.23,14.05,3.49,3.66,3.79,1.06,7.03,5.13,14.81,2.54,4.87,5.95,8.17,7.14,9.28,4.62,4.26,6.99,4.05,9.59,7.45,1.6,2.09,3.32,5.6,3.17,11.61-10.7-5.35-21.41-10.7-32.11-16.04-23.77,2.3-47.55,4.6-71.32,6.9,1.38-20.74,2.77-41.47,4.15-62.21,1.65-4.69,3.3-9.38,4.95-14.08,5.37.29,10.75.59,16.12.88-1.28-3.42-2.57-6.84-3.85-10.26,3.77-.34,7.54-.69,11.3-1.03-.6-3.64-1.21-7.29-1.81-10.93-.46-2.98-.92-5.95-1.38-8.93,20.32.72,27.86,6.33,30.8,11.73,3.64,6.69,1.55,15.51,8.91,25.54,2.07,2.82,4.24,4.85,6.37,4.56,2.24-.3,3.36-3.02,5.31-6.51,0,0,3.84-6.89,8.85-12.54,3.03-3.42,8.93-6.93,21.56-6.58-3.87,1.99-8.75,5.24-12.92,10.5-4.4,5.54-6.32,11.2-7.02,13.29-1.72,5.2-.84,5.73-2.24,8.03-3.33,5.46-12.29,8.99-19.4,6.86-5.84-1.75-5.8-5.93-16.99-12.72-5.18-3.15-7.17-3.45-8.34-2.66-1.92,1.28-1.84,5.53-.49,8.42Z"/>
        </g>
      </g>
      <path class="cls-1" d="m457.33,235.48c-3.31,2.31-6.61,4.62-9.92,6.93,1.17,3.2,2.35,6.4,3.52,9.6-3.34,1.7-6.68,3.4-10.02,5.1-.15,3.19-.31,6.38-.47,9.57-16.36.21-30.31-6.99-35.32-18.57-1.14-2.64-2.52-7.13-1.89-13.37-.01-.55-.16-4.19-3.22-6.65-2.01-1.62-4.21-1.87-5.22-1.89-.97-.26-3.15-.65-5.54.33-3.62,1.49-4.8,4.94-4.97,5.47-1.16,6.17-3.76,10.08-5.6,12.29-8.09,9.69-23.51,12.63-39.14,7.79.75-3.11,1.5-6.21,2.25-9.31-2.72-2.58-5.43-5.15-8.15-7.73,2.03-2.73,4.06-5.47,6.1-8.21-2.51-3.15-5.03-6.3-7.54-9.46,2.42-2.07,4.84-4.15,7.27-6.22-2.04-3.51-4.08-7.01-6.11-10.52,2.71-1.98,5.42-3.94,8.13-5.92-1.57-3.38-3.14-6.76-4.71-10.14,3.09-1.25,6.18-2.5,9.27-3.75-1.45-3.37-2.9-6.73-4.36-10.09,3.31-.68,6.62-1.34,9.94-2.02.32-3.89.64-7.79.96-11.68,4.4.33,12.24,1.54,20.33,6.57,5.38,3.35,13.16,8.2,15.57,16.81,1.79,6.37-.4,11.15,3.41,15.41,2.04,2.28,4.77,3.24,6.77,3.69,2.06.14,4.93,0,7.55-1.62,4.86-3,4.12-8.21,7.64-13.81,4.75-7.57,13.59-10.01,19.7-11.7,9.18-2.53,17.05-1.47,21.36-.54-.8,3.82-1.59,7.65-2.39,11.47,2.98,1.59,5.97,3.17,8.95,4.75-2.34,2.81-4.69,5.62-7.04,8.44,2.61,2.07,5.22,4.15,7.83,6.22-2.46,2.8-4.93,5.59-7.4,8.39,2.04,2.66,4.08,5.32,6.12,7.98-2.95,2.79-5.9,5.57-8.84,8.36,1.73,2.68,3.47,5.35,5.2,8.03Z"/>
      <g>
        <path class="cls-16" d="m372.1,200.49c16.01,7.35,33.9,9.7,51.27,6.81-16.88,5.58-36.44,2.99-51.27-6.81h0Z"/>
        <path class="cls-16" d="m380.83,196.94c8.37,11.71,22.25,13.21,33.52,4.61-9.52,11.41-27.64,9.26-33.52-4.61h0Z"/>
        <path class="cls-16" d="m370.07,218.52c17-5.2,36.49-2.14,51.1,8-15.84-7.7-33.66-10.51-51.1-8h0Z"/>
        <path class="cls-16" d="m377.44,224.4c9.58-11.63,27.56-8.55,33.46,5.08-8.38-11.45-22.11-13.94-33.46-5.08h0Z"/>
      </g>
    </g>
    <g>
      <g>
        <path class="cls-8" d="m447.06,189.1c-4.31,1.08-8.62,2.17-12.94,3.26-1.82-3.29-3.64-6.58-5.46-9.87-3.83,1.55-7.66,3.11-11.49,4.66-2.77-2.18-5.54-4.34-8.32-6.52-11.99,13.48-16.07,30.31-10.04,42.85,1.38,2.86,4.12,7.25,9.78,11.23.45.4,3.38,3.17,3.22,7.49-.1,2.85-1.49,4.86-2.19,5.71-.48,1-1.73,3.09-4.28,4.38-3.86,1.94-7.59.43-8.15.2-5.97-3.49-11.11-4.15-14.28-4.21-13.91-.26-27.51,10.47-34.76,26.99,3.13,1.62,6.26,3.23,9.39,4.85.18,4.13.37,8.25.55,12.38,3.75.28,7.5.57,11.24.85.81,4.37,1.62,8.74,2.43,13.12,3.48-.52,6.96-1.04,10.43-1.56,1.45,4.23,2.9,8.46,4.35,12.69,3.6-.83,7.2-1.67,10.8-2.5,1.68,3.75,3.36,7.5,5.05,11.25,3.27-1.67,6.55-3.35,9.82-5.02,1.76,3.64,3.51,7.28,5.26,10.92,2.96-2.27,5.9-4.55,8.86-6.82,3.48,2.55,6.95,5.09,10.43,7.64,2.9-3.9,7.56-11.32,9.21-21.69,1.09-6.9,2.67-16.89-2.76-25.11-4.02-6.09-9.58-7.72-10.38-13.97-.43-3.35.75-6.31,1.82-8.31,1.37-1.82,3.57-4.11,6.8-5.12,6.02-1.88,9.81,2.49,17.03,3.61,9.74,1.51,18.16-4.09,23.98-7.96,8.74-5.82,13.54-13.14,15.88-17.41-3.76-2.1-7.53-4.2-11.29-6.29.83-3.63,1.67-7.26,2.5-10.89-4.04-.08-8.07-.15-12.12-.23.16-3.67.31-7.35.47-11.02-4.11.03-8.22.07-12.33.11-.75-3.62-1.49-7.24-2.23-10.87-4.45.45-8.9.9-13.35,1.33-.98-3.37-1.96-6.75-2.93-10.13Z"/>
        <g class="cls-24">
          <path class="cls-22" d="m411.73,287.19c-1.4-3.14-1.33-7.43,5.74-20.22,9.48-17.14,17.09-30.91,27.34-31.83,1.58-.14,5.62-.19,8.54-3.01,1.92-1.85,3.44-4.98,2.46-6.28-1.85-2.45-11.15,3.35-14.39-.11-1.01-1.08-.85-2.43-2.48-3.48-1.29-.83-3.13-1.1-4.34-.58-2.96,1.25-2.58,7.29-3.03,11.58-.53,5.09-4.69,11.3-13.02,23.72-11.62,17.34-15.61,18.79-18.46,18.97-.47.03-4.64.25-6.43-2.24-2.41-3.36.48-10.36,4.96-14.11,3.9-3.27,6.07-1.61,10.27-4.73,3.88-2.89,7.75-8.55,7.24-14.22-.52-5.79-5.09-5.96-8.63-14.97-2.22-5.64-2.52-10.86-2.57-12.66-.22-6.93,1.67-8.76.72-13.37-.59-2.84-2.27-6.81-7.39-11.03-3.27,12.78-6.55,25.57-9.82,38.35-19.09,18.15-38.17,36.31-57.26,54.46,18.28,13.82,36.56,27.65,54.84,41.47,5.1,2.01,10.2,4.03,15.3,6.04,3.64-4.69,7.27-9.38,10.91-14.07,1.92,3.54,3.84,7.08,5.77,10.62,3.01-2.89,6.02-5.78,9.02-8.68,2.6,3.14,5.2,6.27,7.8,9.41,2.15,2.53,4.3,5.06,6.45,7.6,14.08-17.46,14.85-27.79,12.47-34.14-2.95-7.86-11.81-12.49-14.85-25.88-.85-3.76-.98-7.03.8-8.6,1.87-1.65,4.94-.62,9.26.28,0,0,8.51,1.78,16.84,1.69,5.04-.06,12.22-2.43,21.06-13.22-4.45,1.79-10.69,3.51-18.08,3.18-7.8-.34-13.9-2.82-16.14-3.75-5.58-2.32-5.38-3.44-8.31-3.93-6.96-1.17-16.37,3.74-19.73,11.21-2.76,6.13.76,9.12-1.67,23.35-1.12,6.59-2.3,8.46-3.81,8.88-2.45.68-5.93-2.46-7.37-5.67Z"/>
        </g>
      </g>
      <path class="cls-6" d="m447.06,189.1c-4.31,1.08-8.62,2.17-12.94,3.26-1.82-3.29-3.64-6.58-5.46-9.87-3.83,1.55-7.66,3.11-11.49,4.66-2.77-2.18-5.54-4.34-8.32-6.52-11.99,13.48-16.07,30.31-10.04,42.85,1.38,2.86,4.12,7.25,9.78,11.23.45.4,3.38,3.17,3.22,7.49-.1,2.85-1.49,4.86-2.19,5.71-.48,1-1.73,3.09-4.28,4.38-3.86,1.94-7.59.43-8.15.2-5.97-3.49-11.11-4.15-14.28-4.21-13.91-.26-27.51,10.47-34.76,26.99,3.13,1.62,6.26,3.23,9.39,4.85.18,4.13.37,8.25.55,12.38,3.75.28,7.5.57,11.24.85.81,4.37,1.62,8.74,2.43,13.12,3.48-.52,6.96-1.04,10.43-1.56,1.45,4.23,2.9,8.46,4.35,12.69,3.6-.83,7.2-1.67,10.8-2.5,1.68,3.75,3.36,7.5,5.05,11.25,3.27-1.67,6.55-3.35,9.82-5.02,1.76,3.64,3.51,7.28,5.26,10.92,2.96-2.27,5.9-4.55,8.86-6.82,3.48,2.55,6.95,5.09,10.43,7.64,2.9-3.9,7.56-11.32,9.21-21.69,1.09-6.9,2.67-16.89-2.76-25.11-4.02-6.09-9.58-7.72-10.38-13.97-.43-3.35.75-6.31,1.82-8.31,1.37-1.82,3.57-4.11,6.8-5.12,6.02-1.88,9.81,2.49,17.03,3.61,9.74,1.51,18.16-4.09,23.98-7.96,8.74-5.82,13.54-13.14,15.88-17.41-3.76-2.1-7.53-4.2-11.29-6.29.83-3.63,1.67-7.26,2.5-10.89-4.04-.08-8.07-.15-12.12-.23.16-3.67.31-7.35.47-11.02-4.11.03-8.22.07-12.33.11-.75-3.62-1.49-7.24-2.23-10.87-4.45.45-8.9.9-13.35,1.33-.98-3.37-1.96-6.75-2.93-10.13Z"/>
      <g>
        <path class="cls-16" d="m414.66,285.41c2.54-19.44,14.51-37.61,31.35-47.65-14.96,12.39-25.92,29-31.35,47.65h0Z"/>
        <path class="cls-16" d="m423.93,280.7c-6.28-12.62,1.16-27.73,14.91-30.68,1.8-.4,3.63-.66,5.46-.58-3.55.78-6.91,2.09-9.9,3.91-9.48,5.5-13.11,16.95-10.47,27.36h0Z"/>
        <path class="cls-16" d="m398.18,274.08c14.69-12.72,25.21-29.6,30.24-48.37-2.1,19.5-13.63,37.95-30.24,48.37h0Z"/>
        <path class="cls-16" d="m398.59,263.69c10.57-1.94,19.45-10.02,20.51-20.92.4-3.48.19-7.08-.58-10.63.83,1.63,1.36,3.4,1.75,5.21,3.05,13.73-7.59,26.79-21.67,26.35h0Z"/>
      </g>
    </g>
    <g>
      <g>
        <path class="cls-8" d="m352.85,253.6c-1.92,3.43-3.85,6.86-5.77,10.29,2.39,2.31,4.78,4.63,7.16,6.94-2.21,2.91-4.43,5.82-6.64,8.73,1.22,2.87,2.43,5.74,3.64,8.61-14.29,7.12-29.6,6.71-38.91-1.34-2.13-1.84-5.24-5.19-7.33-10.95-.24-.48-1.92-3.62-5.65-4.48-2.45-.57-4.49.15-5.39.55-.96.18-3.04.76-4.73,2.64-2.55,2.85-2.12,6.38-2.05,6.91,1.6,5.91.97,10.44.29,13.17-3,11.94-15.3,21.06-31.09,23.43-.66-3.05-1.31-6.09-1.97-9.14-3.48-1.11-6.96-2.22-10.44-3.34.63-3.26,1.25-6.53,1.88-9.8-3.55-1.71-7.09-3.41-10.64-5.11,1.25-2.85,2.5-5.7,3.75-8.55-3.28-2.22-6.56-4.43-9.83-6.65,1.55-2.88,3.09-5.76,4.63-8.65-2.81-2.3-5.62-4.6-8.44-6.91,2.18-2.4,4.37-4.82,6.56-7.22-2.7-2.34-5.4-4.68-8.11-7.02,2.62-2,5.25-3.99,7.87-5.99-1.37-3.56-2.74-7.11-4.11-10.67,4-1.58,11.41-3.84,20.65-2.84,6.15.66,15.04,1.63,20.81,8.17,4.27,4.84,4.37,9.97,9.53,12.1,2.76,1.14,5.56.82,7.52.37,1.87-.75,4.33-2.1,5.95-4.62,3-4.7.14-8.96.86-15.37.97-8.67,7.7-14.56,12.35-18.63,6.99-6.12,14.36-8.52,18.54-9.53.92,3.7,1.84,7.4,2.76,11.09,3.3.13,6.59.25,9.88.38-.87,3.46-1.74,6.93-2.61,10.4,3.17.71,6.34,1.43,9.52,2.15-.98,3.51-1.96,7-2.95,10.51,2.92,1.48,5.84,2.94,8.76,4.42-1.41,3.7-2.82,7.39-4.23,11.09,2.65,1.62,5.31,3.23,7.97,4.85Z"/>
        <g class="cls-19">
          <path class="cls-22" d="m260.93,261.07c2.36,1.92,6.03,2.86,18.59-.22,16.83-4.13,30.35-7.44,33.5-15.98.49-1.31,1.46-4.75,4.55-6.59,2.02-1.21,5.05-1.79,5.93-.65,1.66,2.14-5.44,8.75-3.23,12.31.69,1.11,1.88,1.29,2.4,2.93.41,1.29.21,2.93-.51,3.84-1.75,2.24-6.82.52-10.59-.1-4.47-.73-10.73,1.39-23.27,5.63-17.5,5.91-19.66,8.98-20.47,11.37-.13.39-1.28,3.91.42,6,2.31,2.84,8.95,1.99,13.2-.97,3.69-2.58,2.78-4.81,6.42-7.67,3.36-2.65,9.09-4.64,13.82-2.89,4.82,1.78,3.91,5.72,10.79,10.84,4.3,3.2,8.69,4.66,10.21,5.12,5.86,1.79,7.86.6,11.59,2.48,2.29,1.16,5.29,3.51,7.71,8.86-11.67-.16-23.35-.32-35.02-.49-19.92,12.1-39.83,24.19-59.75,36.29-7.57-18.81-15.15-37.61-22.72-56.42-.54-4.82-1.08-9.64-1.62-14.47,4.85-2.02,9.69-4.04,14.54-6.06-2.58-2.46-5.15-4.92-7.73-7.38,3.17-1.9,6.33-3.8,9.5-5.7-2.08-2.95-4.15-5.89-6.23-8.84-1.66-2.42-3.33-4.84-4.99-7.26,18.16-7.98,27.17-6.25,32.03-2.75,6.03,4.34,7.93,12.97,18.66,18.66,3.01,1.6,5.78,2.47,7.53,1.31,1.84-1.22,1.68-4.07,1.9-7.97,0,0,.45-7.68,2.46-14.77,1.22-4.29,4.91-9.87,16.16-14.92-2.56,3.39-5.47,8.32-6.9,14.7-1.51,6.74-.81,12.52-.53,14.65.69,5.3,1.69,5.39,1.43,8.01-.61,6.21-6.98,13.11-14.14,14.25-5.87.94-7.61-2.76-20.32-3.98-5.89-.57-7.76,0-8.46,1.2-1.15,1.94.73,5.64,3.14,7.6Z"/>
        </g>
      </g>
      <path class="cls-3" d="m352.85,253.6c-1.92,3.43-3.85,6.86-5.77,10.29,2.39,2.31,4.78,4.63,7.16,6.94-2.21,2.91-4.43,5.82-6.64,8.73,1.22,2.87,2.43,5.74,3.64,8.61-14.29,7.12-29.6,6.71-38.91-1.34-2.13-1.84-5.24-5.19-7.33-10.95-.24-.48-1.92-3.62-5.65-4.48-2.45-.57-4.49.15-5.39.55-.96.18-3.04.76-4.73,2.64-2.55,2.85-2.12,6.38-2.05,6.91,1.6,5.91.97,10.44.29,13.17-3,11.94-15.3,21.06-31.09,23.43-.66-3.05-1.31-6.09-1.97-9.14-3.48-1.11-6.96-2.22-10.44-3.34.63-3.26,1.25-6.53,1.88-9.8-3.55-1.71-7.09-3.41-10.64-5.11,1.25-2.85,2.5-5.7,3.75-8.55-3.28-2.22-6.56-4.43-9.83-6.65,1.55-2.88,3.09-5.76,4.63-8.65-2.81-2.3-5.62-4.6-8.44-6.91,2.18-2.4,4.37-4.82,6.56-7.22-2.7-2.34-5.4-4.68-8.11-7.02,2.62-2,5.25-3.99,7.87-5.99-1.37-3.56-2.74-7.11-4.11-10.67,4-1.58,11.41-3.84,20.65-2.84,6.15.66,15.04,1.63,20.81,8.17,4.27,4.84,4.37,9.97,9.53,12.1,2.76,1.14,5.56.82,7.52.37,1.87-.75,4.33-2.1,5.95-4.62,3-4.7.14-8.96.86-15.37.97-8.67,7.7-14.56,12.35-18.63,6.99-6.12,14.36-8.52,18.54-9.53.92,3.7,1.84,7.4,2.76,11.09,3.3.13,6.59.25,9.88.38-.87,3.46-1.74,6.93-2.61,10.4,3.17.71,6.34,1.43,9.52,2.15-.98,3.51-1.96,7-2.95,10.51,2.92,1.48,5.84,2.94,8.76,4.42-1.41,3.7-2.82,7.39-4.23,11.09,2.65,1.62,5.31,3.23,7.97,4.85Z"/>
      <g>
        <path class="cls-16" d="m263.13,258.98c17.19-.33,33.9-5.84,47.94-15.75-12.47,12.06-30.75,18.07-47.94,15.75h0Z"/>
        <path class="cls-16" d="m269.3,252.15c12.32,6.74,25.15,2.17,31.41-10.16-3.53,14.06-20.36,19.85-31.41,10.16h0Z"/>
        <path class="cls-16" d="m268.99,275.68c12.74-11.77,31.16-17.35,48.29-14.63-17.18-.05-34.03,5.03-48.29,14.63h0Z"/>
        <path class="cls-16" d="m277.96,277.72c3.49-14.28,20.59-19.2,31.55-9.71-2.86-1.48-5.88-2.49-8.94-2.95-9.51-1.64-18.54,4.12-22.61,12.67h0Z"/>
      </g>
    </g>
    <g>
      <g>
        <path class="cls-8" d="m408.92,208.66c-1.54-3.73-3.08-7.45-4.62-11.18,2.71-2.06,5.42-4.13,8.13-6.2-1.9-3.23-3.8-6.46-5.69-9.69,1.59-2.77,3.17-5.54,4.75-8.32-13.67-8.99-29.31-10.43-39.76-3.37-2.39,1.61-5.96,4.65-8.79,10.25-.3.46-2.4,3.45-6.29,3.87-2.57.28-4.56-.7-5.42-1.22-.96-.3-3-1.15-4.49-3.26-2.25-3.21-1.39-6.75-1.25-7.28,2.35-5.82,2.26-10.51,1.9-13.37-1.6-12.52-13.01-23.3-28.79-27.63-1.04,3.02-2.08,6.04-3.11,9.06-3.68.71-7.35,1.41-11.03,2.13.24,3.4.48,6.8.72,10.2-3.82,1.31-7.63,2.6-11.45,3.91.93,3.05,1.85,6.1,2.77,9.16-3.61,1.86-7.21,3.71-10.82,5.58,1.22,3.12,2.45,6.24,3.66,9.36-3.14,2-6.28,4-9.43,6.01,1.93,2.71,3.86,5.43,5.79,8.15-3.03,2.06-6.07,4.11-9.1,6.15,2.43,2.35,4.86,4.7,7.29,7.05-1.83,3.45-3.65,6.91-5.48,10.36,3.88,2.09,11.15,5.29,20.67,5.4,6.34.07,15.5.17,22.17-5.78,4.94-4.41,5.66-9.61,11.17-11.15,2.95-.83,5.76-.16,7.69.54,1.81.99,4.16,2.66,5.49,5.42,2.48,5.15-.95,9.13-1,15.75-.07,8.94,6.06,15.75,10.3,20.46,6.37,7.08,13.58,10.42,17.71,11.95,1.39-3.65,2.77-7.3,4.16-10.96,3.37.27,6.74.54,10.1.81-.46-3.63-.93-7.26-1.39-10.9,3.32-.34,6.63-.69,9.95-1.03-.57-3.69-1.14-7.37-1.72-11.05,3.15-1.15,6.3-2.29,9.46-3.43-.99-3.94-1.97-7.87-2.95-11.8,2.9-1.32,5.8-2.64,8.71-3.97Z"/>
        <g class="cls-27">
          <path class="cls-12" d="m316.27,189.88c2.63-1.67,6.49-2.17,18.89,2.49,16.62,6.25,29.98,11.27,32.16,20.34.33,1.39.91,5.01,3.83,7.26,1.91,1.48,4.92,2.43,5.96,1.38,1.95-1.98-4.47-9.57-1.79-12.93.83-1.05,2.07-1.08,2.8-2.69.57-1.27.57-2.95-.05-3.97-1.51-2.49-6.88-1.36-10.79-1.19-4.63.2-10.76-2.72-23-8.56-17.09-8.14-18.91-11.53-19.45-14.07-.09-.41-.83-4.13,1.16-6.06,2.69-2.61,9.35-.93,13.31,2.6,3.44,3.07,2.24,5.23,5.6,8.59,3.1,3.1,8.69,5.82,13.71,4.62,5.13-1.23,4.68-5.35,12.3-9.72,4.76-2.73,9.41-3.69,11.02-3.97,6.18-1.11,8.08.35,12.09-1.12,2.47-.9,5.81-2.93,8.92-8.08-11.9-1.26-23.8-2.51-35.7-3.77-18.8-14.74-37.6-29.47-56.39-44.21-10,18.22-19.99,36.44-29.99,54.66-1.14,4.84-2.27,9.68-3.41,14.53,4.69,2.65,9.37,5.29,14.06,7.94-2.92,2.19-5.84,4.38-8.77,6.57,2.99,2.32,5.98,4.64,8.97,6.95-2.47,2.75-4.94,5.49-7.41,8.24-1.99,2.26-3.98,4.52-5.97,6.78,17.51,10.34,26.89,9.66,32.27,6.69,6.66-3.68,9.65-12.24,21.26-16.72,3.26-1.26,6.18-1.81,7.82-.41,1.72,1.46,1.21,4.35.97,8.34,0,0-.47,7.87.7,15.33.71,4.52,3.79,10.64,14.63,17.15-2.19-3.76-4.55-9.13-5.23-15.8-.72-7.04.7-12.84,1.24-14.98,1.35-5.31,2.38-5.28,2.43-7.98.13-6.39-5.51-14.19-12.65-16.22-5.86-1.67-8.08,1.88-21.17,1.58-6.06-.14-7.89-.95-8.47-2.25-.93-2.11,1.43-5.65,4.12-7.36Z"/>
        </g>
      </g>
      <path class="cls-1" d="m408.92,208.66c-1.54-3.73-3.08-7.45-4.62-11.18,2.71-2.06,5.42-4.13,8.13-6.2-1.9-3.23-3.8-6.46-5.69-9.69,1.59-2.77,3.17-5.54,4.75-8.32-13.67-8.99-29.31-10.43-39.76-3.37-2.39,1.61-5.96,4.65-8.79,10.25-.3.46-2.4,3.45-6.29,3.87-2.57.28-4.56-.7-5.42-1.22-.96-.3-3-1.15-4.49-3.26-2.25-3.21-1.39-6.75-1.25-7.28,2.35-5.82,2.26-10.51,1.9-13.37-1.6-12.52-13.01-23.3-28.79-27.63-1.04,3.02-2.08,6.04-3.11,9.06-3.68.71-7.35,1.41-11.03,2.13.24,3.4.48,6.8.72,10.2-3.82,1.31-7.63,2.6-11.45,3.91.93,3.05,1.85,6.1,2.77,9.16-3.61,1.86-7.21,3.71-10.82,5.58,1.22,3.12,2.45,6.24,3.66,9.36-3.14,2-6.28,4-9.43,6.01,1.93,2.71,3.86,5.43,5.79,8.15-3.03,2.06-6.07,4.11-9.1,6.15,2.43,2.35,4.86,4.7,7.29,7.05-1.83,3.45-3.65,6.91-5.48,10.36,3.88,2.09,11.15,5.29,20.67,5.4,6.34.07,15.5.17,22.17-5.78,4.94-4.41,5.66-9.61,11.17-11.15,2.95-.83,5.76-.16,7.69.54,1.81.99,4.16,2.66,5.49,5.42,2.48,5.15-.95,9.13-1,15.75-.07,8.94,6.06,15.75,10.3,20.46,6.37,7.08,13.58,10.42,17.71,11.95,1.39-3.65,2.77-7.3,4.16-10.96,3.37.27,6.74.54,10.1.81-.46-3.63-.93-7.26-1.39-10.9,3.32-.34,6.63-.69,9.95-1.03-.57-3.69-1.14-7.37-1.72-11.05,3.15-1.15,6.3-2.29,9.46-3.43-.99-3.94-1.97-7.87-2.95-11.8,2.9-1.32,5.8-2.64,8.71-3.97Z"/>
      <g>
        <path class="cls-16" d="m318.26,192.27c17.78-.28,35.66,8.06,46.88,21.86-13.09-11.79-29.42-19.43-46.88-21.86h0Z"/>
        <path class="cls-16" d="m323.7,199.97c12.43-8.52,28.85-.57,30.73,14.16-1.17-3.08-2.78-5.92-4.81-8.37-6.14-7.76-16.98-9.54-25.93-5.79h0Z"/>
        <path class="cls-16" d="m326.25,175.99c13.35,11.5,29.88,18.72,47.37,20.77-17.77.68-35.84-7.23-47.37-20.77h0Z"/>
        <path class="cls-16" d="m335.63,174.99c3.1,9.19,11.59,16.16,21.47,15.64,3.18-.1,6.37-.76,9.46-1.92-12.31,8.32-29.12,1.23-30.93-13.73h0Z"/>
      </g>
    </g>
    <g>
      <g>
        <path class="cls-8" d="m272.83,242.07c-3.26-2.37-6.53-4.74-9.79-7.11,1.23-3.18,2.46-6.36,3.69-9.54-3.31-1.76-6.62-3.52-9.92-5.28-.1-3.19-.2-6.38-.3-9.58-16.35-.5-30.43,6.44-35.65,17.93-1.19,2.62-2.65,7.08-2.13,13.33-.02.55-.24,4.19-3.34,6.59-2.04,1.58-4.25,1.79-5.25,1.8-.97.24-3.16.59-5.53-.43-3.6-1.55-4.71-5.03-4.88-5.55-1.05-6.19-3.57-10.14-5.38-12.38-7.91-9.83-23.28-13.05-38.99-8.49.7,3.12,1.39,6.23,2.09,9.35-2.77,2.53-5.52,5.05-8.29,7.58,1.98,2.77,3.97,5.55,5.95,8.32-2.57,3.11-5.14,6.21-7.71,9.32,2.39,2.12,4.77,4.24,7.15,6.35-2.1,3.47-4.2,6.94-6.3,10.41,2.68,2.02,5.35,4.04,8.02,6.06-1.63,3.35-3.26,6.7-4.89,10.05,3.06,1.3,6.14,2.61,9.2,3.91-1.51,3.34-3.02,6.67-4.54,10.01,3.3.73,6.6,1.46,9.9,2.2.25,3.9.5,7.8.75,11.69,4.4-.25,12.27-1.32,20.44-6.21,5.44-3.25,13.3-7.96,15.87-16.52,1.9-6.34-.2-11.16,3.68-15.35,2.08-2.25,4.82-3.15,6.84-3.57,2.06-.1,4.93.09,7.52,1.75,4.81,3.09,3.97,8.28,7.39,13.95,4.62,7.65,13.41,10.25,19.49,12.05,9.14,2.7,17.02,1.78,21.35.92-.73-3.84-1.46-7.68-2.19-11.51,3.01-1.53,6.03-3.06,9.03-4.59-2.29-2.85-4.59-5.7-6.89-8.56,2.65-2.03,5.29-4.06,7.94-6.08-2.41-2.84-4.83-5.68-7.25-8.52,2.09-2.63,4.18-5.25,6.26-7.87-2.9-2.84-5.8-5.67-8.69-8.51,1.78-2.64,3.56-5.29,5.35-7.93Z"/>
        <g class="cls-7">
          <path class="cls-12" d="m184.04,274.53c1.37-2.8,4.39-5.25,17.4-7.77,17.44-3.38,31.45-6.09,38.04.51,1.01,1.01,3.4,3.79,7.06,4.19,2.4.26,5.47-.5,5.8-1.94.63-2.71-8.81-5.81-8.29-10.08.16-1.33,1.2-2,.98-3.75-.18-1.38-1.06-2.81-2.12-3.36-2.59-1.33-6.57,2.44-9.82,4.63-3.85,2.59-10.59,3.31-24.07,4.74-18.82,2-22.15.07-23.94-1.81-.29-.31-2.87-3.09-2.18-5.77.93-3.63,7.48-5.69,12.7-4.75,4.54.82,4.65,3.29,9.26,4.39,4.26,1.02,10.45.42,14.11-3.24,3.73-3.73,1.19-7.01,5.4-14.71,2.63-4.82,6.09-8.07,7.31-9.15,4.69-4.18,7.06-3.93,9.72-7.28,1.64-2.06,3.42-5.54,3.38-11.56-10.8,5.16-21.6,10.31-32.39,15.47-23.73-2.72-47.46-5.44-71.19-8.17,1.01,20.76,2.03,41.51,3.04,62.27,1.57,4.72,3.13,9.44,4.7,14.16,5.38-.2,10.76-.39,16.13-.59-1.34,3.4-2.69,6.79-4.03,10.19,3.76.41,7.52.82,11.28,1.23-.67,3.63-1.34,7.27-2.01,10.9-.51,2.97-1.02,5.94-1.53,8.9,20.33-.35,27.97-5.83,31-11.18,3.75-6.62,1.82-15.48,9.37-25.38,2.12-2.78,4.32-4.77,6.45-4.45,2.23.34,3.31,3.07,5.19,6.6,0,0,3.71,6.96,8.62,12.7,2.97,3.48,8.8,7.09,21.44,6.96-3.84-2.05-8.66-5.4-12.73-10.73-4.3-5.62-6.12-11.31-6.78-13.41-1.63-5.23-.74-5.74-2.1-8.07-3.23-5.52-12.13-9.21-19.27-7.21-5.87,1.65-5.91,5.83-17.21,12.42-5.24,3.05-7.23,3.32-8.39,2.51-1.9-1.31-1.74-5.56-.34-8.42Z"/>
        </g>
      </g>
      <path class="cls-1" d="m272.83,242.07c-3.26-2.37-6.53-4.74-9.79-7.11,1.23-3.18,2.46-6.36,3.69-9.54-3.31-1.76-6.62-3.52-9.92-5.28-.1-3.19-.2-6.38-.3-9.58-16.35-.5-30.43,6.44-35.65,17.93-1.19,2.62-2.65,7.08-2.13,13.33-.02.55-.24,4.19-3.34,6.59-2.04,1.58-4.25,1.79-5.25,1.8-.97.24-3.16.59-5.53-.43-3.6-1.55-4.71-5.03-4.88-5.55-1.05-6.19-3.57-10.14-5.38-12.38-7.91-9.83-23.28-13.05-38.99-8.49.7,3.12,1.39,6.23,2.09,9.35-2.77,2.53-5.52,5.05-8.29,7.58,1.98,2.77,3.97,5.55,5.95,8.32-2.57,3.11-5.14,6.21-7.71,9.32,2.39,2.12,4.77,4.24,7.15,6.35-2.1,3.47-4.2,6.94-6.3,10.41,2.68,2.02,5.35,4.04,8.02,6.06-1.63,3.35-3.26,6.7-4.89,10.05,3.06,1.3,6.14,2.61,9.2,3.91-1.51,3.34-3.02,6.67-4.54,10.01,3.3.73,6.6,1.46,9.9,2.2.25,3.9.5,7.8.75,11.69,4.4-.25,12.27-1.32,20.44-6.21,5.44-3.25,13.3-7.96,15.87-16.52,1.9-6.34-.2-11.16,3.68-15.35,2.08-2.25,4.82-3.15,6.84-3.57,2.06-.1,4.93.09,7.52,1.75,4.81,3.09,3.97,8.28,7.39,13.95,4.62,7.65,13.41,10.25,19.49,12.05,9.14,2.7,17.02,1.78,21.35.92-.73-3.84-1.46-7.68-2.19-11.51,3.01-1.53,6.03-3.06,9.03-4.59-2.29-2.85-4.59-5.7-6.89-8.56,2.65-2.03,5.29-4.06,7.94-6.08-2.41-2.84-4.83-5.68-7.25-8.52,2.09-2.63,4.18-5.25,6.26-7.87-2.9-2.84-5.8-5.67-8.69-8.51,1.78-2.64,3.56-5.29,5.35-7.93Z"/>
      <g>
        <path class="cls-16" d="m186.99,275.53c15.01-9.54,34.61-11.78,51.39-5.9-17.32-3.2-35.24-1.17-51.39,5.9h0Z"/>
        <path class="cls-16" d="m195.66,279.24c6.14-13.77,24.29-15.58,33.6-4.01-11.12-8.8-25.03-7.54-33.6,4.01h0Z"/>
        <path class="cls-16" d="m185.28,257.47c17.39,2.82,35.26.32,51.23-7.09-14.79,9.88-34.32,12.59-51.23,7.09h0Z"/>
        <path class="cls-16" d="m192.76,251.72c11.19,9.06,24.97,6.8,33.54-4.49-6.14,13.53-24.17,16.28-33.54,4.49h0Z"/>
      </g>
    </g>
  </g>
  <g>
    <g>
      <path class="cls-25" d="m508.23,234.11h0c0,32.67-105.47,59.16-235.57,59.16s-235.57-26.49-235.57-59.16h0s-7.83,0-7.83,0l11.3,151.29c1.73,23.17,15.96,43.55,37.13,53.12,36.47,16.48,100.7,33.52,187.27,33.52,2.65,0,5.21-.1,7.7-.27,2.49.17,5.05.27,7.7.27,86.57,0,150.8-17.04,187.27-33.52,21.17-9.57,35.4-29.95,37.13-53.12l11.3-151.29h-7.84Z"/>
      <path class="cls-21" d="m515.66,234.11l-10.9,145.88c-1.73,23.17-15.96,43.55-37.13,53.12-36.47,16.48-100.7,33.52-187.27,33.52-2.65,0-5.21-.1-7.7-.27-2.49.17-5.05.27-7.7.27-86.57,0-150.8-17.04-187.27-33.52-21.17-9.57-35.4-29.95-37.13-53.12l-10.9-145.88h-.4l11.3,151.29c1.73,23.17,15.96,43.55,37.13,53.12,36.47,16.48,100.7,33.52,187.27,33.52,2.65,0,5.21-.1,7.7-.27,2.49.17,5.05.27,7.7.27,86.57,0,150.8-17.04,187.27-33.52,21.17-9.57,35.4-29.95,37.13-53.12l11.3-151.29h-.4Z"/>
      <path class="cls-21" d="m508.23,234.11h0c0,5.36-2.85,10.55-8.17,15.48l-6.22,166.94c6.21-9.08,10.07-19.77,10.92-31.13l11.3-151.29h-7.84Z"/>
      <path class="cls-21" d="m272.66,293.27c-8.42,0-16.73-.11-24.92-.33v178.85c5.64.15,11.37.23,17.22.23,2.65,0,5.21-.1,7.7-.27,2.49.17,5.05.27,7.7.27,5.85,0,11.58-.08,17.22-.23v-178.85c-8.19.22-16.5.33-24.92.33Z"/>
      <path class="cls-21" d="m37.09,234.11h0s-7.83,0-7.83,0l11.3,151.29c.85,11.36,4.71,22.05,10.92,31.13l-6.22-166.94c-5.31-4.93-8.17-10.12-8.17-15.48Z"/>
      <path class="cls-18" d="m45.26,249.59l6.22,166.94c3.57,5.22,7.92,9.9,12.92,13.87l-4.72-170.99c-5.91-3.13-10.75-6.42-14.42-9.82Z"/>
      <path class="cls-18" d="m485.64,259.41l-4.72,170.99c5-3.97,9.35-8.65,12.92-13.87l6.22-166.94c-3.67,3.41-8.51,6.69-14.42,9.82Z"/>
      <path class="cls-25" d="m297.58,292.94v178.85c4.49-.12,8.91-.28,13.27-.49v-178.81c-4.38.18-8.81.33-13.27.45Z"/>
      <path class="cls-25" d="m234.47,292.49v178.81c4.36.21,8.78.37,13.27.49v-178.85c-4.46-.12-8.89-.27-13.27-.45Z"/>
      <path class="cls-29" d="m310.85,292.49v178.81c71.24-3.4,124.73-18.31,156.78-32.79,4.81-2.17,9.26-4.91,13.29-8.11l4.72-170.99c-32.54,17.25-97.32,29.91-174.79,33.08Z"/>
      <path class="cls-29" d="m59.68,259.41l4.72,170.99c4.03,3.2,8.48,5.94,13.29,8.11,32.05,14.48,85.54,29.39,156.78,32.79v-178.81c-77.48-3.17-142.25-15.83-174.79-33.08Z"/>
    </g>
    <path class="cls-11" d="m508.2,233.58c0,.18.03.35.03.53,0,32.67-105.47,59.16-235.57,59.16s-235.57-26.49-235.57-59.16c0-.18.02-.35.03-.53h-18.08c-.06.61-.1,1.22-.1,1.84,0,36.98,113.6,66.96,253.72,66.96s253.72-29.98,253.72-66.96c0-.62-.04-1.23-.1-1.84h-18.08Z"/>
  </g>
</svg>