<?xml version="1.0" encoding="UTF-8"?>
<svg xmlns="http://www.w3.org/2000/svg" xmlns:xlink="http://www.w3.org/1999/xlink" viewBox="0 0 540 540">
  <defs>
    <style>
      .cls-1 {
        fill: url(#linear-gradient-2);
      }

      .cls-2, .cls-3, .cls-4, .cls-5 {
        fill: #fff;
      }

      .cls-3 {
        opacity: .25;
      }

      .cls-3, .cls-4, .cls-6, .cls-5 {
        mix-blend-mode: overlay;
      }

      .cls-7, .cls-5 {
        opacity: .5;
      }

      .cls-8 {
        fill: url(#linear-gradient-6);
      }

      .cls-9 {
        isolation: isolate;
      }

      .cls-10 {
        fill: #dddddf;
      }

      .cls-6 {
        fill: #f0e2bf;
      }

      .cls-11 {
        fill: url(#linear-gradient-5);
      }

      .cls-12 {
        fill: #b6b6b6;
      }

      .cls-13 {
        fill: #adadad;
      }

      .cls-14 {
        fill: #884722;
        mix-blend-mode: multiply;
        opacity: .2;
      }

      .cls-15 {
        fill: #bbb;
      }

      .cls-16 {
        fill: url(#linear-gradient-3);
      }

      .cls-17 {
        fill: url(#linear-gradient);
      }

      .cls-18 {
        fill: #838383;
      }

      .cls-19 {
        fill: url(#linear-gradient-4);
      }

      .cls-20 {
        fill: #c4c4c4;
      }
    </style>
    <linearGradient id="linear-gradient" x1="-687.27" y1="2760.65" x2="-601.14" y2="2655.22" gradientTransform="translate(-985.88 -2167.96) rotate(-43.32)" gradientUnits="userSpaceOnUse">
      <stop offset="0" stop-color="#f2d9c5"/>
      <stop offset=".3" stop-color="#f3decc"/>
      <stop offset=".77" stop-color="#f5eee2"/>
      <stop offset=".92" stop-color="#f7f5eb"/>
    </linearGradient>
    <linearGradient id="linear-gradient-2" x1="-7399.04" y1="-449.12" x2="-7495.5" y2="-267.37" gradientTransform="translate(-6834.82 2673.24) rotate(158.52)" xlink:href="#linear-gradient"/>
    <linearGradient id="linear-gradient-3" x1="-706.85" y1="-1847.28" x2="-815.23" y2="-2022.18" gradientTransform="translate(-253.43 2368.72) rotate(32.21)" xlink:href="#linear-gradient"/>
    <linearGradient id="linear-gradient-4" x1="-7645.07" y1="-142.11" x2="-7809.99" y2="-265.15" gradientTransform="translate(-7463.4 335.25) rotate(-178.63) scale(1 -1)" xlink:href="#linear-gradient"/>
    <linearGradient id="linear-gradient-5" x1="-7811.05" y1="-91.19" x2="-7859.54" y2="-291.16" gradientTransform="translate(-7463.4 335.25) rotate(-178.63) scale(1 -1)" xlink:href="#linear-gradient"/>
    <linearGradient id="linear-gradient-6" x1="-6856.69" y1="2610.23" x2="-7021.61" y2="2487.2" gradientTransform="translate(-6584.44 2803.63) rotate(140.25) scale(1 -1)" xlink:href="#linear-gradient"/>
  </defs>
  <g class="cls-9">
    <g id="_Layer_" data-name="&amp;lt;Layer&amp;gt;">
      <g>
        <g>
          <ellipse class="cls-10" cx="272.66" cy="235.42" rx="253.72" ry="66.96"/>
          <ellipse class="cls-18" cx="272.66" cy="234.11" rx="235.57" ry="59.16"/>
        </g>
        <g>
          <path class="cls-17" d="m435.46,161.96c-4.16-.6-8.78-11.31-10.09-14.97-1.11-3.09-.96-6.58-3.6-8.98-5.41-4.9-9.26,5.76-12.04,9.32-1.87-4.35-3.82-15.67-10.81-13.82-5.63,1.5-8,11.26-10.98,15.44-2.08-5.51-2.71-13.85-9.56-10.7-3.44,1.6-4.6,4.45-8.91,4.74-3.36.23-6.57-1.7-9.97-1.02-3.48.7-4.62,2.28-5.59,5.68-.43,1.49-2.15,12.55-1.2,13.17-10.55-6.92-17.93.93-15.9,10.95-7.99-4.93-23.48-11.55-18.08,13.52-1.88,3.49-3.75,6.92-4.63,10.8-4.5-.34-10.48-2.83-11.89,1.96-.99,3.36,2.34,9.59,9.36,14.27-7.5,2.13-12.95,6.59-12.69,12.45.29,6.4,3.85,7.48,9.6,9.73-14.34,3.95-3.14,17.22,5.45,19.62-4.96,3.05-16.18,5.91-11.33,14.16,2.12,3.62,7.45,1.94,10.45.95,7.33-2.45,6.42,2,8.26,7.85-2.27.59-5.49,3.57-7.71,6.82-2.42,3.54-2.38,7.87.71,11.01,2.78,2.83,6.73,2.23,10.46.37-.73,1.77-1.21,3.64-1.46,5.53-.44,3.28.19,9.24,3.8,10.69,3.85,1.55,6.67-2.06,8.32-5.04,3.94,4.58,9.68,1.41,13.3-2.1.39,1.09,1.79,6.92,8.86,8.16-3.86,3.99-6.28,9.6-3.32,14.82,3.23,5.72,8.34-1,11.04-5.11-1.49,2.26,10.15,13.23,12,14.12,14.05,6.71,2.29-15.68,10.84-15.89,5.43-.14,10.25,6.04,15.69,4.75,6.11-1.45,6.72-9.31,6.19-14.32,2.58,1.85,5.34,3.12,8.08,3.42.09,2.52,1.71,7.62,3.89,9.59,5.88,5.31,14.87-9.83,17.48-16.88,5.26,4.55,13.94,4.5,19.02-.98,3.47-3.74,3.73-10.1,2.22-15.7,2.56.81,5.22,1.2,7.92.84,4.4-.59,9.11-3.63,10.35-8.11.96-3.49-1.29-5.66-4.49-7.06,2.71-2.02,4.76-4.95,5.12-8.05.16-1.39-.2-3.16-.89-4.96,2,.76,4.25.99,6.35.71,4.39-.58,6.94-2.78,9.11-6.5,1.74-3.02,2.13-5.75.27-8.76-.96-1.54-2.16-3.03-3.47-4.44,7.47,2.3,16.18-.76,14.36-9.59-1.42-6.91-10.98-14.7-16.89-17.64,4.27-1.88,13.82-5.1,15.03-10.31,2.02-8.7-11.09-9.56-16.57-6.51-.3-1.63-2.73-7.54-3.61-9.01,2.78-2.45,5.59-5.23,6.38-7.2,1.66-4.14-2.02-8.07-3.47-8.8-3.91-1.96-12.5,4.31-15.12,7-1.81-1.91-2.33-2.51-4.29-4.03,1.69-4.69,5.33-14.18,1.15-18.59-3.88-4.1-8.3-.61-12.52,4.49,1.21-4.84.03-8.41-4.87-8.66-4.5-.24-10.96,7.41-15.1,6.81Z"/>
          <path class="cls-1" d="m172.25,303.32c3.64,2.11,3.94,13.76,3.8,17.65-.12,3.28-1.55,6.47,0,9.67,3.2,6.56,10.74-1.9,14.64-4.17.12,4.73-2.29,15.97,4.89,16.85,5.78.7,11.62-7.48,15.93-10.25-.12,5.89-2.64,13.87,4.89,13.49,3.79-.2,5.93-2.42,10.03-1.08,3.2,1.03,5.47,4.03,8.87,4.66,3.49.64,5.14-.4,7.3-3.19.95-1.23,6.66-10.85,6.01-11.78,7.22,10.35,16.99,5.81,18.83-4.25,5.58,7.55,17.5,19.46,21.81-5.82,3.04-2.54,6.05-5.03,8.32-8.3,4.05,1.99,8.67,6.53,11.76,2.6,2.17-2.75,1.4-9.77-3.38-16.73,7.76.81,14.47-1.3,16.41-6.83,2.12-6.05-.79-8.37-5.29-12.6,14.78,1.67,9.32-14.81,2.24-20.24,5.73-.98,17.22.54,15.79-8.93-.62-4.15-6.19-4.58-9.35-4.76-7.72-.45-5.22-4.24-4.75-10.36,2.32.29,6.42-1.27,9.69-3.46,3.57-2.38,5.14-6.42,3.43-10.48-1.53-3.66-5.42-4.57-9.57-4.23,1.34-1.37,2.48-2.93,3.41-4.59,1.63-2.88,3.26-8.65.45-11.33-3-2.87-6.96-.57-9.6,1.58-1.96-5.72-8.46-4.91-13.13-3,.04-1.15.92-7.09-5.19-10.87,5.07-2.27,9.4-6.57,8.6-12.52-.87-6.51-8.12-2.17-12.15.64,2.23-1.55-4.5-16.06-5.88-17.57-10.55-11.46-7.96,13.7-15.97,10.72-5.09-1.89-7.27-9.42-12.79-10.25-6.21-.93-9.7,6.14-11.07,10.99-1.71-2.68-3.79-4.88-6.23-6.18.86-2.37,1.25-7.71-.04-10.35-3.48-7.12-17.46,3.59-22.5,9.16-3.19-6.18-11.26-9.36-18.02-6.16-4.61,2.18-7.22,7.99-7.9,13.75-2.07-1.7-4.4-3.06-7.04-3.73-4.3-1.09-9.8-.02-12.62,3.68-2.19,2.88-.9,5.73,1.55,8.22-3.27.86-6.26,2.82-7.75,5.57-.66,1.23-.99,3-1.02,4.94-1.58-1.45-3.58-2.5-5.63-3.02-4.29-1.09-7.48,0-10.87,2.65-2.74,2.15-4.12,4.54-3.5,8.03.32,1.79.88,3.62,1.57,5.41-6.08-4.91-15.3-5.31-16.89,3.56-1.26,6.94,4.73,17.73,9.11,22.65-4.66.16-14.72-.41-17.78,3.98-5.11,7.32,6.73,13,12.96,12.21-.32,1.62-.27,8.01,0,9.71-3.49,1.24-7.13,2.78-8.6,4.31-3.08,3.23-1.12,8.25-.06,9.45,2.9,3.28,13.21.65,16.64-.87.97,2.44,1.23,3.19,2.48,5.34-3.31,3.72-10.22,11.18-7.98,16.83,2.08,5.25,7.47,3.66,13.3.49-2.92,4.04-3.15,7.79,1.29,9.85,4.09,1.9,12.93-2.8,16.55-.7Z"/>
          <path class="cls-16" d="m216.09,294.94c-.46-4.18,8.76-11.33,11.98-13.51,2.72-1.84,6.13-2.58,7.79-5.73,3.39-6.47-7.89-7.53-12.03-9.33,3.74-2.9,14.22-7.61,10.68-13.92-2.86-5.07-12.91-4.93-17.7-6.77,4.82-3.39,12.74-6.08,7.97-11.93-2.41-2.93-5.46-3.35-6.82-7.44-1.07-3.19,0-6.79-1.5-9.91-1.55-3.19-3.36-3.91-6.9-4-1.55-.04-12.69,1.06-13.05,2.13,4.07-11.95-5.38-17.13-14.57-12.66,2.78-8.97,5.32-25.63-17.6-14.13-3.85-.94-7.64-1.9-11.61-1.79-.8-4.44.13-10.85-4.87-11.02-3.5-.12-8.7,4.66-11.48,12.63-3.94-6.73-9.61-10.89-15.22-9.18-6.13,1.88-6.28,5.59-7.02,11.72-7.41-12.9-17.46,1.26-17.64,10.18-4.19-4.04-9.76-14.19-16.54-7.43-2.97,2.96-.02,7.7,1.69,10.35,4.2,6.49-.33,6.72-5.54,9.96-1.14-2.05-4.82-4.42-8.53-5.76-4.03-1.46-8.21-.34-10.48,3.44-2.04,3.4-.47,7.07,2.25,10.22-1.9-.26-3.83-.26-5.72-.03-3.28.39-8.9,2.49-9.4,6.35-.54,4.12,3.66,5.94,6.96,6.8-3.45,4.96,1.05,9.72,5.35,12.36-.95.65-6.26,3.46-5.69,10.62-4.83-2.74-10.86-3.68-15.18.48-4.73,4.56,3.06,7.83,7.7,9.41-2.56-.88-10.28,13.14-10.68,15.14-2.99,15.28,15.75-1.7,18.1,6.53,1.49,5.22-3.29,11.44-.68,16.38,2.93,5.56,10.69,4.18,15.41,2.42-1.14,2.96-1.69,5.95-1.29,8.68-2.41.71-6.95,3.56-8.32,6.16-3.68,7.02,13.24,11.95,20.71,12.71-3.09,6.23-.88,14.62,5.7,18.17,4.49,2.43,10.71,1.08,15.76-1.77-.15,2.68.14,5.36,1.16,7.88,1.67,4.11,5.79,7.91,10.44,8,3.62.06,5.15-2.67,5.71-6.11,2.63,2.12,5.98,3.37,9.08,2.95,1.38-.2,3.01-.98,4.58-2.1-.23,2.13.11,4.36.9,6.33,1.66,4.11,4.43,6.03,8.57,7.2,3.36.94,6.1.63,8.54-1.93,1.25-1.31,2.4-2.85,3.43-4.47-.36,7.81,4.78,15.47,12.87,11.51,6.33-3.1,11.49-14.31,12.86-20.76,2.89,3.66,8.39,12.11,13.73,11.98,8.93-.22,6.49-13.12,2.16-17.67,1.5-.7,6.61-4.53,7.82-5.75,3.07,2.08,6.46,4.1,8.57,4.38,4.43.57,7.31-3.98,7.65-5.55.92-4.28-7.3-11.02-10.55-12.89,1.4-2.23,1.84-2.89,2.83-5.16,4.96.47,15.06,1.62,18.28-3.53,3-4.78-1.48-8.19-7.48-11.01,4.98-.04,8.15-2.07,7.17-6.88-.89-4.42-9.91-8.76-10.36-12.92Z"/>
          <path class="cls-5" d="m184.89,254.6c-1.89-4.68-5.95-7.33-10.65-8.11-1.45-4.2-3.77-8.06-6.71-11.4,1.27-2.18,2.16-4.92,2.97-7.09,1.66-4.39,3.8-10.41,1.93-15.05-3.91-9.69-15.26-.21-20.68,5.46-1.62-1.84-4.11-3.17-6.27-3.89-5-1.67-10.71-1.64-15.96-1.41.06-.41.13-.81.18-1.18.66-4.15,1.12-8.81-1.59-12.34-3.08-4.04-9.13-1.23-12.38.82-5.03,3.17-7.57,8.21-9.36,13.53-2.22-2.11-5.18-3.75-8.29-3.18-3.86.7-6.24,4.1-7.73,7.47-1.11,2.49-1.9,5.06-2.19,7.64-1.43-1.67-3.1-3.08-4.9-4.09-5.45-3.03-14.8-1.93-15.52,5.53-.52,5.45,3.77,10.96,6.92,14.96.24.3.47.61.72.92-6.75-1.51-13.67-.62-14.09,7.36-.23,4.37,2.39,8.54,6.01,11.89-5.1-.19-10.19.56-15.05,2.38-5.78,2.17-11.1,9.42-9.62,15.74,2.23,9.5,17.68,9.11,26.85,7.96.16,9.31.88,22.58,12.24,23.08,8.29.36,13.65-7.24,16.34-14.71,6.71,4.95,14.36,6.85,21.73.19,1.05-.94,1.46-2.7.71-3.96-2.06-3.41-4.69-5.81-7.87-7.57,4.43-.24,8.86-.71,13.17-1.69-.21,6.1.8,14.38,8.05,12.03,4.55-1.47,7.85-6.28,9.92-11.31.44.46.88.92,1.31,1.37,3.67,3.74,8.21,6.05,13.27,3.77,6.18-2.77,7.09-10.63,6.29-18.06,6.21,1.93,13.01,2.16,17.58-2.57,3.47-3.58,4.51-9.91,2.67-14.48Z"/>
          <path class="cls-5" d="m190.09,292.92c1.44-5.35-5.54-11.74-12.14-13.42,2.46-1.34,8.4-6.33,5.99-10.59-2.04-3.61-10.46-5.43-15-2.59,4.54-2.84,8.7-9.08,3.63-13.63-2.9-2.6-10.55-1.73-12.43,1.04-1.79-1.03-2.62-1.22-4.81-1.69.31-3.95-.54-14.84-8.97-13.53-4.62.71-6.25,7.05-7.33,10.46-1.05-.13-3.88.54-3.88.54-1.59-4-6.56-10.3-12.92-6.64-2.96,1.7-2.62,5.96-2.35,10.16-8.06-9.75-23.92,0-14.06,12.82-1.97,2.05-2.4,4.16-2.67,5.06.1-.15-8.87-.88-9.69-.78-3.39.42-7.45,1.37-9.99,3.82-7.39,7.09,1.1,12.67,7.29,15.27-3.74,2.29-9.26,5.7-9.84,10.44-.85,7,9.63,8.27,14.75,8.17-.41,0,1.44,10.74,1.66,11.83.91,4.68,3.1,8.77,7.55,10.93,5.76,2.81,12.55.64,17.17-3.59,2.68,5.1,6.98,9.12,12.6,9.41,9.47.48,16.31-13.18,16.28-22.42.86,1.1,1.75,2.09,2.59,2.9,4.19,4.04,10.33,5.02,14.82.8,4.61-4.33,4.94-12.06,4.95-18.63,7.16.9,14.8,1.33,16.8-6.16Z"/>
          <path class="cls-14" d="m170.06,229.25c.15-.45.29-.89.4-1.31-.48.78-.66,1.29-.4,1.31Z"/>
          <path class="cls-4" d="m127.21,302.31c-1.67-1.59-3.32-2.67-5.49-3.48-1.27-.47-2.68-.66-4.01-.4-10.47,2.04,2.22,18.5,9.12,12.2,2.24-2.05,2.7-6.11.39-8.32Z"/>
          <g>
            <path class="cls-4" d="m170.12,283.02c.75-2.07,1-4.38.8-6.37-.18-1.83-2.02-3.43-3.66-3.93-1.78-.54-3.78-.1-5.15,1.17-2.69,2.47-5.66,8.49-3.68,11.99.93,1.66,2.71,3,4.7,2.96,3.57-.06,5.85-2.66,6.98-5.82Z"/>
            <path class="cls-2" d="m112.33,218.09c-2.19-.31-4.5-.09-6.41.5-1.76.54-2.96,2.68-3.11,4.39-.17,1.85.67,3.72,2.18,4.8,2.97,2.13,9.47,3.82,12.49,1.18,1.44-1.25,2.39-3.27,1.95-5.21-.78-3.49-3.78-5.19-7.1-5.66Z"/>
            <path class="cls-6" d="m160.61,279.26c.09-.2.17-.4.27-.6-.3.66-.39.85-.27.6Z"/>
          </g>
          <path class="cls-5" d="m130.3,347.66c-1.27-1.47-2.88-2.11-4.62-2.83-1.78-.74-3.46-.94-5.37-.66-3.04.44-4.68,3.88-3.82,6.68,1.42,4.64,11.43,8.3,14.42,3.56,1.35-2.14,1.04-4.87-.6-6.75Z"/>
          <path class="cls-4" d="m148.84,212.08c-1.4-1.9-3.64-3.44-5.58-4.04-1.15-.35-2.41-.23-3.48.32-2.13,1.1-3.28,4.09-1.97,6.26,1.01,1.66,2.22,2.93,3.57,4.29,1.95,1.96,5.07,2.25,7.18.33,2.43-2.23,1.93-4.93.29-7.15Z"/>
          <path class="cls-5" d="m216.98,276.05c.12-2.15-.12-4.69-1.77-6.27-7.08-6.82-15.07,8.65-9.85,14.43,1.37,1.51,3.64,2.29,5.63,1.77,4.59-1.2,5.77-5.77,5.99-9.93Z"/>
          <path class="cls-19" d="m197.16,282.97c2.69-3.23-1.03-14.28-2.5-17.88-1.24-3.04-3.68-5.54-3.32-9.09.75-7.26,10.74-1.91,15.18-1.12-1.52-4.48-7.64-14.21-1.2-17.5,5.19-2.65,13.48,3.03,18.49,4.15-2.14-5.49-7.24-12.12-.04-14.35,3.63-1.11,6.4.23,9.8-2.43,2.65-2.07,3.75-5.66,6.73-7.42,3.05-1.8,4.96-1.39,7.96.49,1.32.82,9.98,7.9,9.7,9,3.22-12.2,13.96-11.3,19.14-2.48,2.65-9.01,9.74-24.29,22.48-2.03,3.73,1.34,7.42,2.64,10.66,4.93,3.12-3.26,5.9-9.11,10.15-6.49,2.98,1.84,4.67,8.69,2.57,16.87,7-3.43,14.03-3.76,17.76.77,4.07,4.95,2.14,8.13-.64,13.65,13.3-6.65,13.84,10.7,9.06,18.24,5.72-1.05,15.98-6.42,17.89,2.96.84,4.11-4.24,6.43-7.14,7.69-7.09,3.08-3.44,5.78-.89,11.36,2.08-1.07,6.46-1.01,10.29-.08,4.17,1.01,7.03,4.26,6.83,8.66-.18,3.96-3.52,6.15-7.53,7.27,1.73.83,3.34,1.9,4.78,3.13,2.52,2.14,6.04,7,4.32,10.49-1.83,3.73-6.34,2.92-9.56,1.82.13,6.04-6.26,7.52-11.3,7.33.44,1.07,3.3,6.34-1.13,11.99,5.54.39,11.09,2.94,12.38,8.8,1.42,6.42-6.87,4.83-11.62,3.58,2.62.69,1.29,16.63.52,18.52-5.97,14.39-12.19-10.13-18.68-4.57-4.13,3.53-3.59,11.35-8.49,14.02-5.52,3.01-11.22-2.43-14.17-6.51-.68,3.1-1.88,5.89-3.73,7.94,1.62,1.93,3.82,6.81,3.52,9.74-.82,7.88-17.64,2.63-24.28-.87-.87,6.9-7.36,12.66-14.8,11.98-5.08-.46-9.52-5.02-12.15-10.2-1.36,2.31-3.08,4.39-5.33,5.92-3.67,2.5-9.2,3.39-13.12.89-3.05-1.95-2.82-5.07-1.37-8.25-3.37.31-6.84-.5-9.2-2.57-1.04-.93-1.96-2.48-2.65-4.28-.98,1.9-2.5,3.57-4.25,4.77-3.66,2.5-7.02,2.57-11.12,1.25-3.32-1.08-5.43-2.85-6.05-6.33-.32-1.79-.42-3.7-.38-5.62-4.02,6.7-12.54,10.25-17.09,2.46-3.56-6.08-1.66-18.28.77-24.4-4.43,1.45-13.68,5.44-18.07,2.38-7.32-5.12,1.85-14.52,7.97-15.92-.86-1.41-3-7.43-3.34-9.12-3.71.03-7.65-.16-9.56-1.09-4.01-1.97-3.89-7.36-3.3-8.86,1.6-4.07,12.18-5.15,15.92-4.9.07-2.63.06-3.42.49-5.87-4.39-2.35-13.44-6.98-13.28-13.06.15-5.64,5.76-6,12.32-5.03-4.13-2.79-5.64-6.23-2.17-9.7,3.19-3.19,13.11-1.81,15.78-5.03Z"/>
          <path class="cls-11" d="m308.18,260.6c2.69-3.23-1.03-14.28-2.5-17.88-1.24-3.04-3.68-5.54-3.32-9.09.75-7.26,10.74-1.91,15.18-1.12-1.52-4.48-7.64-14.21-1.2-17.5,5.19-2.65,13.48,3.03,18.49,4.15-2.14-5.49-7.24-12.12-.04-14.35,3.63-1.11,6.4.23,9.8-2.43,2.65-2.07,3.75-5.66,6.73-7.42,3.05-1.8,4.96-1.39,7.96.49,1.32.82,9.98,7.9,9.7,9,3.22-12.2,13.96-11.3,19.14-2.48,2.65-9.01,9.74-24.29,22.48-2.03,3.73,1.34,7.42,2.64,10.66,4.93,3.12-3.26,5.9-9.11,10.15-6.49,2.98,1.84,4.67,8.69,2.57,16.87,7-3.43,14.03-3.76,17.76.77,4.07,4.95,2.14,8.13-.64,13.65,13.3-6.65,13.84,10.7,9.06,18.24,5.72-1.05,15.98-6.42,17.89,2.96.84,4.11-4.24,6.43-7.14,7.69-7.09,3.08-3.44,5.78-.89,11.36,2.08-1.07,6.46-1.01,10.29-.08,4.17,1.01,7.03,4.26,6.83,8.66-.18,3.96-3.52,6.15-7.53,7.27,1.73.83,3.34,1.9,4.78,3.13,2.52,2.14,6.04,7,4.32,10.49-1.83,3.73-6.34,2.92-9.56,1.82.13,6.04-6.26,7.52-11.3,7.33.44,1.07,3.3,6.34-1.13,11.99,5.54.39,11.09,2.94,12.38,8.8,1.42,6.42-6.87,4.83-11.62,3.58,2.62.69,1.29,16.63.52,18.52-5.97,14.39-12.19-10.13-18.68-4.57-4.13,3.53-3.59,11.35-8.49,14.02-5.52,3.01-11.22-2.43-14.17-6.51-.68,3.1-1.88,5.89-3.73,7.94,1.62,1.93,3.82,6.81,3.52,9.74-.82,7.88-17.64,2.63-24.28-.87-.87,6.9-7.36,12.66-14.8,11.98-5.08-.46-9.52-5.02-12.15-10.2-1.36,2.31-3.08,4.39-5.33,5.92-3.67,2.5-9.2,3.39-13.12.89-3.05-1.95-2.82-5.07-1.37-8.25-3.37.31-6.84-.5-9.2-2.57-1.04-.93-1.96-2.48-2.65-4.28-.98,1.9-2.5,3.57-4.25,4.77-3.66,2.5-7.02,2.57-11.12,1.25-3.32-1.08-5.43-2.85-6.05-6.33-.32-1.79-.42-3.7-.38-5.62-4.02,6.7-12.54,10.25-17.09,2.46-3.56-6.08-1.66-18.28.77-24.4-4.43,1.45-13.68,5.44-18.07,2.38-7.32-5.12,1.85-14.52,7.97-15.92-.86-1.41-3-7.43-3.34-9.12-3.71.03-7.65-.16-9.56-1.09-4.01-1.97-3.89-7.36-3.3-8.86,1.6-4.07,12.18-5.15,15.92-4.9.07-2.63.06-3.42.49-5.87-4.39-2.35-13.44-6.98-13.28-13.06.15-5.64,5.76-6,12.32-5.03-4.13-2.79-5.64-6.23-2.17-9.7,3.19-3.19,13.11-1.81,15.78-5.03Z"/>
          <path class="cls-8" d="m305.53,345.88c-.1-4.2-10.17-10.08-13.65-11.82-2.94-1.47-6.42-1.75-8.48-4.66-4.21-5.96,6.84-8.5,10.7-10.83-4.09-2.38-15.1-5.68-12.41-12.4,2.17-5.41,12.15-6.58,16.65-9.03-5.22-2.73-13.42-4.36-9.47-10.78,2-3.22,4.97-4.03,5.78-8.27.64-3.31-.9-6.73.19-10.02,1.11-3.37,2.82-4.31,6.31-4.87,1.53-.25,12.72-.62,13.22.4-5.6-11.31,3.08-17.69,12.78-14.46-3.93-8.53-8.64-24.71,15.6-16.31,3.69-1.44,7.33-2.89,11.28-3.3.21-4.51-1.55-10.74,3.38-11.56,3.45-.57,9.24,3.48,13.04,11.02,3.02-7.19,8.1-12.06,13.89-11.1,6.32,1.06,6.96,4.72,8.5,10.7,5.65-13.76,17.47-1.04,18.82,7.78,3.62-4.55,7.82-15.35,15.42-9.54,3.34,2.54,1.03,7.63-.32,10.49-3.32,6.98,1.21,6.62,6.8,9.15.86-2.18,4.2-5.01,7.7-6.83,3.81-1.98,8.1-1.41,10.84,2.03,2.47,3.1,1.4,6.95-.89,10.43,1.85-.51,3.76-.76,5.66-.78,3.3-.04,9.15,1.3,10.15,5.06,1.07,4.01-2.85,6.37-6,7.65,4.07,4.47.23,9.78-3.69,12.95,1.03.52,6.66,2.61,7.03,9.78,4.43-3.35,10.28-5.08,15.11-1.51,5.29,3.9-2,8.16-6.4,10.34,2.43-1.21,11.91,11.68,12.57,13.61,4.97,14.76-15.84.39-17.08,8.84-.79,5.37,4.76,10.91,2.82,16.15-2.18,5.89-10.05,5.55-14.96,4.42,1.52,2.79,2.45,5.67,2.42,8.44,2.49.39,7.35,2.62,9.05,5.02,4.57,6.48-11.55,13.58-18.86,15.32,3.88,5.77,2.79,14.38-3.27,18.76-4.13,2.99-10.48,2.48-15.86.31.5,2.64.56,5.33-.12,7.97-1.12,4.3-4.7,8.6-9.3,9.3-3.58.53-5.46-1.97-6.46-5.31-2.33,2.45-5.48,4.13-8.61,4.12-1.4-.01-3.11-.58-4.82-1.48.51,2.08.47,4.34-.06,6.39-1.11,4.29-3.6,6.56-7.55,8.26-3.21,1.37-5.96,1.42-8.72-.79-1.41-1.14-2.75-2.51-3.98-3.98,1.38,7.69-2.7,15.97-11.25,13.1-6.69-2.24-13.27-12.68-15.47-18.89-2.38,4.01-6.73,13.1-12.04,13.67-8.88.96-8.16-12.16-4.46-17.24-1.58-.5-7.15-3.62-8.51-4.67-2.77,2.46-5.87,4.92-7.92,5.47-4.32,1.15-7.77-2.98-8.31-4.5-1.48-4.12,5.79-11.89,8.77-14.17-1.68-2.02-2.21-2.62-3.49-4.74-4.86,1.11-14.71,3.58-18.59-1.1-3.6-4.35.39-8.31,5.97-11.89-4.95.61-8.35-.98-8.01-5.87.3-4.5,8.68-9.99,8.58-14.17Z"/>
          <path class="cls-5" d="m257.97,366.84c4.62-.77,7.83-3.93,9.48-8.03,4.1-.47,8.06-1.81,11.67-3.8,1.72,1.59,4.02,2.94,5.83,4.11,3.65,2.38,8.67,5.53,13.25,4.76,9.56-1.6,3.24-13.78-.81-19.84,1.99-1.1,3.69-3.09,4.78-4.9,2.52-4.2,3.63-9.38,4.47-14.18.36.14.71.28,1.03.4,3.63,1.43,7.76,2.77,11.5,1.03,4.28-1.98,2.94-8.02,1.73-11.39-1.86-5.19-5.93-8.5-10.39-11.19,2.36-1.59,4.43-3.95,4.54-6.88.14-3.64-2.47-6.47-5.22-8.5-2.04-1.51-4.2-2.73-6.49-3.51,1.8-.96,3.42-2.19,4.69-3.62,3.84-4.33,4.71-13.02-1.91-15.17-4.84-1.56-10.68,1.22-14.94,3.28-.32.15-.64.31-.97.46,2.72-5.81,3.3-12.26-3.85-14.24-3.91-1.09-8.21.45-11.98,3.06,1.2-4.58,1.53-9.34.85-14.12-.81-5.67-6.31-11.94-12.33-11.86-9.06.12-11.79,14.2-12.59,22.74-8.47-1.72-20.64-3.73-23.36,6.47-1.98,7.44,3.83,13.82,10.06,17.75-5.83,5.09-9.08,11.64-4.52,19.65.64,1.14,2.16,1.86,3.45,1.43,3.5-1.18,6.21-3.08,8.43-5.62-.67,4.06-1.13,8.17-1.11,12.27-5.48-1.41-13.19-2.15-12.51,4.89.42,4.42,4.12,8.37,8.26,11.26-.51.31-1.01.61-1.5.92-4.12,2.58-7.12,6.23-6.07,11.27,1.27,6.16,8.21,8.55,15.11,9.32-2.99,5.24-4.56,11.35-1.19,16.44,2.55,3.86,8.08,6.08,12.58,5.32Z"/>
          <path class="cls-5" d="m222.21,363.87c4.56,2.37,11.75-2.67,14.59-8.32.72,2.5,4.06,8.88,8.39,7.55,3.68-1.12,7.02-8.39,5.35-13.07,1.67,4.68,6.48,9.7,11.62,6.02,2.93-2.1,3.68-9.21,1.54-11.47,1.29-1.42,1.63-2.13,2.5-4.02,3.52,1.08,13.56,2.49,14.06-5.42.28-4.33-5.14-7.07-8.01-8.73.33-.92.29-3.63.29-3.63,3.94-.64,10.65-3.88,8.6-10.38-.95-3.02-4.87-3.56-8.74-4.17,10.45-5.35,4.78-21.68-8.8-15.3-1.46-2.2-3.29-3-4.05-3.44.12.12,2.58-7.86,2.64-8.63.3-3.16.25-7.02-1.47-9.82-4.94-8.11-11.7-1.54-15.3,3.55-1.33-3.85-3.31-9.53-7.49-11-6.18-2.17-9.42,7.07-10.35,11.73.08-.37-10.02-.84-11.05-.86-4.42-.12-8.57,1.06-11.42,4.65-3.7,4.66-3.09,11.24-.18,16.27-5.16,1.41-9.66,4.5-11.05,9.54-2.33,8.49,8.68,17.42,17.05,19.24-1.17.55-2.25,1.17-3.15,1.77-4.5,2.99-6.61,8.36-3.69,13.27,3,5.04,9.94,6.89,15.89,8.21-2.25,6.31-4.17,13.14,2.21,16.45Z"/>
          <path class="cls-4" d="m216.49,304.56c1.92-1.29,3.32-2.66,4.58-4.61.74-1.14,1.22-2.47,1.26-3.83.27-10.66-18.54-1.83-13.88,6.27,1.52,2.63,5.38,3.96,8.04,2.17Z"/>
          <g>
            <path class="cls-4" d="m226.07,350.63c1.86,1.18,4.06,1.92,6.05,2.16,1.83.22,3.79-1.23,4.63-2.73.91-1.62.91-3.67-.03-5.28-1.84-3.16-7.07-7.35-10.92-6.18-1.82.55-3.51,2-3.91,3.95-.71,3.5,1.33,6.28,4.18,8.07Z"/>
            <path class="cls-2" d="m301.93,308.21c.78-2.07,1.06-4.37.89-6.36-.15-1.83-1.97-3.47-3.62-3.98-1.77-.56-3.78-.15-5.16,1.1-2.72,2.44-5.77,8.42-3.84,11.94.91,1.67,2.67,3.04,4.66,3.02,3.57,0,5.89-2.57,7.06-5.71Z"/>
            <path class="cls-6" d="m231.79,342.15c.17.13.36.25.53.4-.58-.44-.75-.56-.53-.4Z"/>
          </g>
          <path class="cls-5" d="m170.05,331.33c1.71-.92,2.68-2.35,3.76-3.9,1.11-1.58,1.67-3.17,1.8-5.11.22-3.07-2.78-5.41-5.7-5.17-4.84.38-10.57,9.37-6.59,13.31,1.8,1.78,4.53,2.07,6.72.87Z"/>
          <path class="cls-4" d="m299.93,345.15c2.16-.96,4.15-2.81,5.15-4.58.59-1.04.75-2.31.44-3.47-.62-2.31-3.29-4.09-5.68-3.28-1.84.63-3.34,1.53-4.96,2.56-2.34,1.48-3.29,4.46-1.87,6.94,1.65,2.85,4.4,2.94,6.92,1.82Z"/>
          <path class="cls-5" d="m316.49,327.34c1.45,4.45,5.04,7.16,9.34,8.2,1.07,3.98,2.98,7.7,5.48,10.98-1.31,1.94-2.31,4.41-3.21,6.37-1.82,3.96-4.19,9.39-2.75,13.81,3,9.22,14.11,1.17,19.5-3.73,1.38,1.81,3.6,3.19,5.55,4,4.52,1.87,9.81,2.21,14.69,2.33-.09.38-.17.74-.25,1.08-.88,3.8-1.6,8.08.68,11.53,2.59,3.94,8.37,1.73,11.52.03,4.86-2.61,7.53-7.12,9.53-11.93,1.92,2.1,4.56,3.8,7.47,3.48,3.62-.4,6.04-3.4,7.64-6.41,1.19-2.24,2.08-4.56,2.52-6.93,1.22,1.64,2.67,3.05,4.27,4.1,4.85,3.15,13.58,2.73,14.72-4.12.83-5.01-2.79-10.39-5.44-14.29-.2-.3-.4-.59-.6-.9,6.15,1.84,12.62,1.45,13.52-5.91.5-4.03-1.66-8.05-4.8-11.39,4.71.51,9.47.13,14.09-1.24,5.49-1.63,10.88-8.01,9.91-13.95-1.45-8.94-15.78-9.57-24.34-9.09.45-8.63.64-20.96-9.85-22.15-7.65-.86-13.1,5.82-16.07,12.57-5.9-5.02-12.85-7.26-20.1-1.57-1.03.8-1.53,2.41-.91,3.62,1.69,3.29,3.96,5.68,6.8,7.51-4.12-.06-8.25.09-12.3.71.58-5.63.18-13.36-6.68-11.65-4.31,1.07-7.67,5.31-9.91,9.83-.38-.46-.75-.91-1.13-1.35-3.16-3.7-7.21-6.13-12.05-4.34-5.9,2.17-7.25,9.39-6.99,16.32-5.63-2.18-11.9-2.83-16.44,1.25-3.44,3.09-4.82,8.89-3.4,13.23Z"/>
          <path class="cls-5" d="m314.15,291.53c-1.67,4.86,4.37,11.23,10.38,13.2-2.37,1.08-8.18,5.32-6.23,9.42,1.65,3.47,9.33,5.7,13.72,3.36-4.38,2.34-8.64,7.84-4.24,12.38,2.51,2.59,9.65,2.28,11.57-.17,1.59,1.07,2.35,1.3,4.35,1.87-.54,3.64-.46,13.78,7.44,13.1,4.32-.36,6.24-6.13,7.45-9.21.96.19,3.63-.25,3.63-.25,1.21,3.8,5.41,9.96,11.53,6.98,2.85-1.38,2.81-5.35,2.83-9.26,6.83,9.55,22.15,1.53,13.84-10.96,1.96-1.77,2.49-3.7,2.8-4.51-.1.13,8.15,1.39,8.92,1.34,3.17-.17,6.98-.79,9.49-2.9,7.29-6.09-.2-11.8-5.77-14.6,3.61-1.88,8.94-4.68,9.78-9.03,1.24-6.43-8.38-8.28-13.13-8.51.38.03-.65-10.03-.78-11.06-.54-4.39-2.31-8.32-6.29-10.61-5.15-2.97-11.57-1.4-16.12,2.22-2.15-4.89-5.87-8.89-11.06-9.52-8.74-1.06-15.95,11.15-16.51,19.71-.72-1.07-1.49-2.05-2.21-2.85-3.62-4.01-9.24-5.31-13.67-1.7-4.54,3.72-5.35,10.85-5.78,16.93-6.57-1.29-13.61-2.19-15.94,4.62Z"/>
          <path class="cls-4" d="m371.97,277.13c1.56,1.71,3.12,2.89,5.24,3.85,1.23.56,2.63.85,3.97.68,10.58-1.31-.93-18.61-8.25-12.8-2.38,1.89-3.12,5.91-.96,8.27Z"/>
          <g>
            <path class="cls-4" d="m327.82,293.4c-.89,2.01-1.3,4.3-1.24,6.3.05,1.84,1.78,3.56,3.38,4.17,1.74.66,3.77.36,5.22-.81,2.85-2.28,6.23-8.08,4.5-11.71-.81-1.72-2.5-3.18-4.48-3.28-3.57-.19-6.02,2.25-7.37,5.32Z"/>
            <path class="cls-2" d="m380.97,362.18c2.16.46,4.48.4,6.43-.06,1.79-.42,3.14-2.46,3.41-4.16.3-1.83-.41-3.76-1.84-4.94-2.81-2.33-9.18-4.46-12.38-2.04-1.52,1.15-2.61,3.09-2.3,5.06.54,3.53,3.41,5.44,6.69,6.14Z"/>
            <path class="cls-6" d="m337.05,297.81c-.11.19-.2.39-.31.58.35-.64.45-.82.31-.58Z"/>
          </g>
          <path class="cls-5" d="m406.21,281.23c1.17,1.55,2.72,2.3,4.42,3.15,1.72.86,3.39,1.18,5.32,1.03,3.07-.23,4.94-3.54,4.27-6.4-1.09-4.73-10.83-9.07-14.14-4.55-1.49,2.04-1.38,4.79.13,6.77Z"/>
          <path class="cls-4" d="m344.13,365.65c1.27,1.99,3.39,3.69,5.29,4.42,1.12.43,2.39.4,3.5-.08,2.2-.95,3.56-3.86,2.4-6.1-.89-1.73-2.01-3.08-3.26-4.53-1.81-2.09-4.9-2.6-7.14-.83-2.58,2.05-2.26,4.78-.78,7.12Z"/>
          <path class="cls-3" d="m330.28,311.4c4.56,2.37,11.75-2.67,14.59-8.32.72,2.5,4.06,8.88,8.39,7.55,3.68-1.12,7.02-8.39,5.35-13.07,1.67,4.68,6.48,9.7,11.62,6.02,2.93-2.1,3.68-9.21,1.54-11.47,1.29-1.42,1.63-2.13,2.5-4.02,3.52,1.08,13.56,2.49,14.06-5.42.28-4.33-5.14-7.07-8.01-8.73.33-.92.29-3.63.29-3.63,3.94-.64,10.65-3.88,8.6-10.38-.95-3.02-4.87-3.56-8.74-4.17,10.45-5.35,4.78-21.68-8.8-15.3-1.46-2.2-3.29-3-4.05-3.44.12.12,2.58-7.86,2.64-8.63.3-3.16.25-7.02-1.47-9.82-4.94-8.11-11.7-1.54-15.3,3.55-1.33-3.85-3.31-9.53-7.49-11-6.18-2.17-9.42,7.07-10.35,11.73.08-.37-10.02-.84-11.05-.86-4.42-.12-8.57,1.06-11.42,4.65-3.7,4.66-3.09,11.24-.18,16.27-5.16,1.41-9.66,4.5-11.05,9.54-2.33,8.49,8.68,17.42,17.05,19.24-1.17.55-2.25,1.17-3.15,1.77-4.5,2.99-6.61,8.36-3.69,13.27,3,5.04,9.94,6.89,15.89,8.21-2.25,6.31-4.17,13.14,2.21,16.45Z"/>
          <g class="cls-7">
            <path class="cls-5" d="m205.09,219.82c-1.27-1.47-2.88-2.11-4.62-2.83-1.78-.74-3.46-.94-5.37-.66-3.04.44-4.68,3.88-3.82,6.68,1.42,4.64,11.43,8.3,14.42,3.56,1.35-2.14,1.04-4.87-.6-6.75Z"/>
            <path class="cls-4" d="m289.78,210.26c1.92-1.29,3.32-2.66,4.58-4.61.74-1.14,1.22-2.47,1.26-3.83.27-10.66-18.54-1.83-13.88,6.27,1.52,2.63,5.38,3.96,8.04,2.17Z"/>
            <g>
              <path class="cls-4" d="m299.36,256.32c1.86,1.18,4.06,1.92,6.05,2.16,1.83.22,3.79-1.23,4.63-2.73.91-1.62.91-3.67-.03-5.28-1.84-3.16-7.07-7.35-10.92-6.18-1.82.55-3.51,2-3.91,3.95-.71,3.5,1.33,6.28,4.18,8.07Z"/>
              <path class="cls-2" d="m375.23,213.9c.78-2.07,1.06-4.37.89-6.36-.15-1.83-1.97-3.47-3.62-3.98-1.77-.56-3.78-.15-5.16,1.1-2.72,2.44-5.77,8.42-3.84,11.94.91,1.67,2.67,3.04,4.66,3.02,3.57,0,5.89-2.57,7.06-5.71Z"/>
              <path class="cls-6" d="m305.09,247.84c.17.13.36.25.53.4-.58-.44-.75-.56-.53-.4Z"/>
            </g>
            <path class="cls-5" d="m244.84,203.49c1.71-.92,2.68-2.35,3.76-3.9,1.11-1.58,1.67-3.17,1.8-5.11.22-3.07-2.78-5.41-5.7-5.17-4.84.38-10.57,9.37-6.59,13.31,1.8,1.78,4.53,2.07,6.72.87Z"/>
            <path class="cls-4" d="m373.23,250.84c2.16-.96,4.15-2.81,5.15-4.58.59-1.04.75-2.31.44-3.47-.62-2.31-3.29-4.09-5.68-3.28-1.84.63-3.34,1.53-4.96,2.56-2.34,1.48-3.29,4.46-1.87,6.94,1.65,2.85,4.4,2.94,6.92,1.82Z"/>
          </g>
        </g>
        <g>
          <g>
            <path class="cls-15" d="m508.23,234.11h0c0,32.67-105.47,59.16-235.57,59.16s-235.57-26.49-235.57-59.16h0s-7.83,0-7.83,0l11.3,151.29c1.73,23.17,15.96,43.55,37.13,53.12,36.47,16.48,100.7,33.52,187.27,33.52,2.65,0,5.21-.1,7.7-.27,2.49.17,5.05.27,7.7.27,86.57,0,150.8-17.04,187.27-33.52,21.17-9.57,35.4-29.95,37.13-53.12l11.3-151.29h-7.84Z"/>
            <path class="cls-13" d="m515.66,234.11l-10.9,145.88c-1.73,23.17-15.96,43.55-37.13,53.12-36.47,16.48-100.7,33.52-187.27,33.52-2.65,0-5.21-.1-7.7-.27-2.49.17-5.05.27-7.7.27-86.57,0-150.8-17.04-187.27-33.52-21.17-9.57-35.4-29.95-37.13-53.12l-10.9-145.88h-.4l11.3,151.29c1.73,23.17,15.96,43.55,37.13,53.12,36.47,16.48,100.7,33.52,187.27,33.52,2.65,0,5.21-.1,7.7-.27,2.49.17,5.05.27,7.7.27,86.57,0,150.8-17.04,187.27-33.52,21.17-9.57,35.4-29.95,37.13-53.12l11.3-151.29h-.4Z"/>
            <path class="cls-13" d="m508.23,234.11h0c0,5.36-2.85,10.55-8.17,15.48l-6.22,166.94c6.21-9.08,10.07-19.77,10.92-31.13l11.3-151.29h-7.84Z"/>
            <path class="cls-13" d="m272.66,293.27c-8.42,0-16.73-.11-24.92-.33v178.85c5.64.15,11.37.23,17.22.23,2.65,0,5.21-.1,7.7-.27,2.49.17,5.05.27,7.7.27,5.85,0,11.58-.08,17.22-.23v-178.85c-8.19.22-16.5.33-24.92.33Z"/>
            <path class="cls-13" d="m37.09,234.11h0s-7.83,0-7.83,0l11.3,151.29c.85,11.36,4.71,22.05,10.92,31.13l-6.22-166.94c-5.31-4.93-8.17-10.12-8.17-15.48Z"/>
            <path class="cls-12" d="m45.26,249.59l6.22,166.94c3.57,5.22,7.92,9.9,12.92,13.87l-4.72-170.99c-5.91-3.13-10.75-6.42-14.42-9.82Z"/>
            <path class="cls-12" d="m485.64,259.41l-4.72,170.99c5-3.97,9.35-8.65,12.92-13.87l6.22-166.94c-3.67,3.41-8.51,6.69-14.42,9.82Z"/>
            <path class="cls-15" d="m297.58,292.94v178.85c4.49-.12,8.91-.28,13.27-.49v-178.81c-4.38.18-8.81.33-13.27.45Z"/>
            <path class="cls-15" d="m234.47,292.49v178.81c4.36.21,8.78.37,13.27.49v-178.85c-4.46-.12-8.89-.27-13.27-.45Z"/>
            <path class="cls-20" d="m310.85,292.49v178.81c71.24-3.4,124.73-18.31,156.78-32.79,4.81-2.17,9.26-4.91,13.29-8.11l4.72-170.99c-32.54,17.25-97.32,29.91-174.79,33.08Z"/>
            <path class="cls-20" d="m59.68,259.41l4.72,170.99c4.03,3.2,8.48,5.94,13.29,8.11,32.05,14.48,85.54,29.39,156.78,32.79v-178.81c-77.48-3.17-142.25-15.83-174.79-33.08Z"/>
          </g>
          <path class="cls-10" d="m508.2,233.58c0,.18.03.35.03.53,0,32.67-105.47,59.16-235.57,59.16s-235.57-26.49-235.57-59.16c0-.18.02-.35.03-.53h-18.08c-.06.61-.1,1.22-.1,1.84,0,36.98,113.6,66.96,253.72,66.96s253.72-29.98,253.72-66.96c0-.62-.04-1.23-.1-1.84h-18.08Z"/>
        </g>
      </g>
    </g>
  </g>
</svg>