<?xml version="1.0" encoding="UTF-8"?>
<svg id="_Layer_" data-name="&amp;lt;Layer&amp;gt;" xmlns="http://www.w3.org/2000/svg" viewBox="0 0 540 540">
  <defs>
    <style>
      .cls-1 {
        fill: #c4a48d;
      }

      .cls-2 {
        fill: #e2c7b3;
      }

      .cls-3 {
        fill: #d3b6a3;
      }

      .cls-4 {
        fill: #af8a71;
      }

      .cls-5 {
        fill: #caa58c;
      }

      .cls-6 {
        fill: #dcbaa0;
      }

      .cls-7 {
        fill: #d6b6a1;
      }
    </style>
  </defs>
  <path class="cls-7" d="m81.56,313.4c1.9-13.36,22.58-15.17,116.26-66.63,37.95-20.85,69.32-38.08,104.54-61.36,89.08-58.85,110.43-95.28,132.68-86.39,21.42,8.56,21.94,50.44,23.22,132.34.62,39.69,1.75,110.11,3.57,211.94.31,17.05-32.21,36.5-48.89,32.99-107.83-22.67-334.47-141.08-331.38-162.89Z"/>
  <path class="cls-2" d="m378.63,112.62c2.69-2.3,23.13-16.33,35.92-17.27,12.85-.94,22.16,4.41,25.14,6.29-6.54-3.73-14.39-1.9-17.85,3.29-2.56,3.83-2.5,9.15.05,13.57-.69-2.01-3.09-8.14-9.52-12.11-9.91-6.11-32.67,5.76-33.73,6.23Z"/>
  <path class="cls-1" d="m430.15,105.72c3.6,8.92,8.51,22.61,12.11,39.78,7.99,38.11,2.37,59.04.17,101.03-2.8,53.43,4.57,52.8,4.16,136.1-.14,28.61-1.13,52.01-1.93,67.24"/>
  <path class="cls-2" d="m54.97,317.99c1.9-13.36,22.58-15.17,116.25-66.63,37.95-20.85,69.32-38.08,104.54-61.36,89.08-58.85,110.43-95.28,132.68-86.39,21.42,8.56,21.94,50.44,23.22,132.34.62,39.69,1.75,110.11,3.57,211.94.31,17.05-15.3,30-31.99,26.5-107.83-22.67-351.37-134.59-348.28-156.39Z"/>
  <path class="cls-6" d="m232.21,277.7c22-69.49,134.04-145.12,178.01-173.28-.57-.3-1.16-.57-1.77-.81-22.25-8.89-43.6,27.53-132.68,86.39-35.23,23.27-66.59,40.51-104.54,61.36-93.68,51.47-114.36,53.27-116.26,66.63-1.41,9.97,48.73,38.78,113.89,69.28,37.92,16.17,75.85,32.34,113.77,48.52,22.54,8.7,44.58,16.62,64.94,23.21-43.6-25.78-146.55-82.75-115.36-181.29Z"/>
  <path class="cls-3" d="m402.42,336.25c-9.31-34.78-13.52-67.65-14.25-87.14-2.34-62.18,26.43-99.89,15.85-106.41-3.44-2.12-8.99.33-54.45,36.57-33.9,27.02-50.85,40.53-57.26,47.18-36.31,37.59-37.18,59.39-59.47,63.37-1.38.25-2.68.39-3.93.45-4.91,23.36-2.2,44.24,5.24,62.78,10.4.8,19.72,1.94,34.4,7.59,51.13,19.69,57.89,51.93,98.75,51.91,5.13,0,31.48-.01,42.07-16.26,8.88-13.64,1.06-30.12-6.95-60.04Z"/>
  <path class="cls-5" d="m228.91,290.27c-16.03.84-22.08-12.31-47.78-14.36-35.65-2.84-74.03,18.51-73.34,34,.61,13.48,30.82,22.32,64.34,32.12,32.56,9.52,48.23,9.97,62.01,11.02-7.44-18.54-10.15-39.41-5.24-62.78Z"/>
  <path class="cls-4" d="m218.09,262.9c-6.29,3.29-10.29,7.07-14.37,10.93-8.07,7.63-15.79,14.92-14.09,20.24,1.83,5.73,12.38,2.3,27,9.86,15.02,7.77,16.24,17.77,24.45,17.24,9.65-.62,19.86-15.21,17.38-25.46-2.41-9.97-15.66-11.07-16.31-20.26-.59-8.24,9.71-12.62,7.91-16.45-2.16-4.58-19.04-2.87-31.97,3.9Z"/>
  <path class="cls-4" d="m352.19,160.59c-4.81,2.9-10.23,7.88-9.17,10.6,1.03,2.67,7.21.35,10.79,4.04,4.9,5.06-1.49,14.74,2.21,17.82,3.7,3.08,15.46-2.06,21.59-10.98,4.34-6.31,8.09-17.76,2.73-23.85-6.41-7.3-21.34-1.75-28.15,2.35Z"/>
  <path class="cls-4" d="m319.46,188.74c-1.88.94-1.38,12.4,4.72,14.56,6.47,2.29,14.17-7.67,13.15-9.55-.69-1.27-5.11,1.62-10.76-.43-4.59-1.67-5.99-5.13-7.11-4.57Z"/>
  <path class="cls-4" d="m369.63,289.19c-6.22-.43-11.64,5.06-13.73,9.98-2.23,5.26.43,7.28-.69,16.4-1.18,9.58-4.71,12.15-3.01,14.54,3.17,4.45,20.52,2.67,27.96-8.56,4.69-7.08,4.64-16.7.64-23.62-1.07-1.85-4.79-8.29-11.18-8.74Z"/>
  <path class="cls-4" d="m274.32,262.48c-4.15-1.46-10.72,5.64-9.47,9.02,1.13,3.07,9.42,4.92,12.23.98,2.24-3.14.29-8.92-2.76-10Z"/>
  <path class="cls-4" d="m127.39,307.07c-8.21-3.93-24.92,6.29-24.74,15.19.08,4,3.52,4.76,15.03,15.79,11.55,11.07,12.19,14.24,16.56,14.62,10.47.91,22.98-15.92,19.68-23.43-2.28-5.21-10.65-2.52-18.46-10.76-5.28-5.57-3.98-9.45-8.07-11.4Z"/>
  <path class="cls-4" d="m234.92,375.3c-1.44,1.37-2.73,3.75-2.18,5.89.97,3.72,7.15,5.04,11.01,4.93,6.14-.17,12.98-4.12,12.66-7.21-.45-4.39-15.62-9.2-21.5-3.61Z"/>
  <path class="cls-4" d="m348.22,378.39c-3.9-5.13-18.08-4.65-23.67,2.28-5.28,6.53.38,14.74-5.64,21.22-4.37,4.71-9.86,3.06-10.36,5.46-1.11,5.33,24.2,22.39,44.77,14.34,6.82-2.67,15.82-9.15,15.11-15.12-.9-7.6-16.88-9.04-19.2-20.48-.78-3.84.66-5.49-1.01-7.7Z"/>
</svg>