<?xml version="1.0" encoding="UTF-8"?>
<svg xmlns="http://www.w3.org/2000/svg" viewBox="0 0 540 540">
  <defs>
    <style>
      .cls-1 {
        fill: #f9dcac;
      }

      .cls-1, .cls-2, .cls-3, .cls-4, .cls-5 {
        opacity: .5;
      }

      .cls-6 {
        isolation: isolate;
      }

      .cls-7 {
        fill: #f0e1c0;
      }

      .cls-8 {
        opacity: .1;
      }

      .cls-8, .cls-9, .cls-10 {
        fill: #fcf7d7;
      }

      .cls-11 {
        fill: #fff;
        mix-blend-mode: overlay;
        opacity: .3;
      }

      .cls-12 {
        fill: #f4e8cb;
      }

      .cls-9, .cls-13 {
        opacity: .2;
      }

      .cls-10 {
        opacity: .4;
      }

      .cls-14 {
        fill: #f4e9cf;
      }

      .cls-13 {
        fill: #d2a584;
      }

      .cls-13, .cls-2, .cls-15, .cls-5 {
        mix-blend-mode: multiply;
      }

      .cls-2, .cls-15 {
        fill: #fcd78a;
      }

      .cls-3 {
        fill: #e6c388;
      }

      .cls-15 {
        opacity: .25;
      }

      .cls-4 {
        fill: #f9d498;
      }

      .cls-5 {
        fill: #f0cc83;
      }
    </style>
  </defs>
  <g class="cls-6">
    <g id="_Layer_" data-name="&amp;lt;Layer&amp;gt;">
      <g>
        <g>
          <path class="cls-7" d="m43.29,356.49s18.11,115.73,136.02,129.65l100.75-195.46,216.56-83.45s-.71-96.45-109.85-153.36l-121.88,207.13-221.59,95.49Z"/>
          <path class="cls-13" d="m394.75,167.86c9.93-46.35-4.59-112.22-7.99-113.99l-13.6,23.12-65.2,110.81c-23.78,8.2-47.84,20.81-71.12,39.44-24.09,19.27-40.84,43-52.31,68.39l-123.49,53.22-17.74,7.65s59.88,35.44,107.72,32.95c-3.82,42.28,24.3,96.22,28.3,96.7l7.43-14.42,54.18-105.12c20.03-7.09,39.44-17.11,57.19-30.95,24.4-19.03,42.78-45.01,56.64-73.76l126.85-48.88,15.01-5.78s-54.16-40.21-101.87-39.37Z"/>
          <path class="cls-3" d="m104.72,428.51c-24.59-19.67-38.21-49.28-43.77-79.63l-17.67,7.61s18.11,115.74,136.02,129.65l12.7-24.65c-32.36-.29-62.05-12.79-87.29-32.98Z"/>
          <path class="cls-3" d="m386.76,53.87l-11.36,19.3c13.15,7.12,25.73,15.55,37.66,25.1,27.26,23.95,46.96,53.02,59.11,87.23,1.97,9.63,3.93,19.25,5.9,28.88l18.54-7.14s-.71-96.45-109.85-153.36Z"/>
          <path class="cls-12" d="m43.29,356.49s154.06,50.93,252.64-25.96c98.58-76.89,90.84-276.66,90.84-276.66,0,0-81.38,93.26-164.25,164.69-82.87,71.43-179.23,137.93-179.23,137.93Z"/>
          <path class="cls-11" d="m66.66,352.57l120.78-95.14s-35.62,37.33-48.31,104.94c0,0-38.55.95-72.47-9.8Z"/>
          <path class="cls-5" d="m342.15,124c-11.17.76-10,18.09,1.18,17.33,11.18-.76,10-18.09-1.18-17.33Z"/>
          <path class="cls-5" d="m170.57,274.31c-8.26.56-7.39,13.37.87,12.81,8.26-.56,7.39-13.37-.87-12.81Z"/>
          <path class="cls-5" d="m312.58,162.42c-10.11,12.88-19.35,26.78-21.53,43.3-.97,7.32-.29,15.7,5.31,20.59,4.08,3.56,10.37,4.41,15.27,2.06,6.65-3.2,6.3-8.62,7.14-14.74,1.67-12.1,6.75-23.15,9.97-34.75,1.6-5.79,11.31-26.24-.03-26.76-6.26-.29-11.76,4.73-16.12,10.3Z"/>
          <path class="cls-5" d="m190.67,295.71c-13.2-10.22-78.96,22.35-70.03,32.55,10.98,12.53,34.53-9.18,45.78-9.36,12.38-.2,12.99,22.09,25.78,19.77,8.64-1.57,8.81-34.96-1.53-42.96Z"/>
          <path class="cls-13" d="m225.14,222.23c-47.85,48.26-58.56,122.45-59.78,150.61,43.53-1.41,91.42-11.78,130.57-42.31,48.96-38.18,71.68-106.67,82.17-165.95-61.28,2.4-121.43,25.86-152.95,57.65Z"/>
          <path class="cls-4" d="m365.29,77.74c.7,58.8-17.48,179.51-80.28,236.58-64.88,58.95-190.33,40.73-216.33,24.2-15.77,11.33-25.39,17.97-25.39,17.97,0,0,154.06,50.93,252.64-25.96,98.58-76.89,90.84-276.66,90.84-276.66,0,0-7.97,9.14-21.47,23.88Z"/>
          <path class="cls-14" d="m496.71,208.68s-139.44-72.39-257.3,21.89c-103.73,82.98-60.11,255.57-60.11,255.57,0,0,143.21-151.56,317.41-277.46Z"/>
          <path class="cls-2" d="m333.61,252.67c-8.63-5.21-23.23,15.56-15.53,22.54,6.21,5.63,26.4-15.99,15.53-22.54Z"/>
          <path class="cls-15" d="m404.67,269.95c.37-9.17,13.08-24.23,5.02-33.31-7.95-8.97-19.76-3.49-32.93,7.1-27.08,21.78-59.92,65.22-76.88,49.45-11.91-11.08,28.66-54.14-1.54-53.4-23.92.59-77.65,53.21-79.87,97.12-2.4,47.45,25.06-10.91,42.92-.56,16,9.27-6.36,51.09-14.3,82.42,40.15-38.36,95.57-88.96,159.13-140.55-1.12-1.93-1.7-4.6-1.55-8.26Z"/>
          <path class="cls-5" d="m373.11,264.87c-8.48,3.21-5.68,24.31,1,39.89,6.25-5.26,12.59-10.54,19.04-15.85-4.9-13.97-13.5-26.51-20.03-24.03Z"/>
          <path class="cls-5" d="m278.63,303.19c-9.07-.86-18.35.39-24.94,3.29-6.61,2.91-9.27,11.8-1.54,16.61,4.15,2.58,9.51,1.82,14.24.56,4.73-1.26,9.62-2.93,14.4-1.88,4.07.89,6.64,4.09,7.83,7.93,3.66,11.79-7.05,15.17-9.97,25.17-2.37,8.12.23,14.87,9.36,10.16,13.54-6.98,25.06-30.77,19.2-45.22-4.17-10.29-16.17-15.43-28.57-16.61Z"/>
          <path class="cls-1" d="m239.41,230.57c-103.73,82.98-60.11,255.57-60.11,255.57,0,0,5.71-6.04,16.22-16.7-8.66-46.13-22.76-165.43,48-223.84,77.45-63.93,177.96-48.84,234.03-22.88,6.34-4.71,12.73-9.4,19.16-14.04,0,0-139.44-72.39-257.3,21.89Z"/>
          <path class="cls-5" d="m243.6,359.39c-11.46-2.36-15.13,15.42-3.67,17.78,11.47,2.36,15.13-15.42,3.67-17.78Z"/>
          <path class="cls-5" d="m211.51,364.46c-7.98-1.64-10.53,10.73-2.55,12.37,7.98,1.64,10.53-10.73,2.55-12.37Z"/>
          <path class="cls-5" d="m219.4,407.61c-7.09-1.46-9.36,9.54-2.27,11,7.09,1.46,9.36-9.54,2.27-11Z"/>
          <path class="cls-5" d="m348.35,216.33c-6.98.48-6.25,11.3.74,10.83,6.99-.48,6.25-11.3-.74-10.83Z"/>
          <path class="cls-5" d="m439.58,223.56c-7.31.5-6.54,11.83.77,11.34,7.31-.5,6.54-11.83-.77-11.34Z"/>
          <path class="cls-5" d="m378.27,214.35c-10.33.7-9.24,16.73,1.09,16.03,10.34-.7,9.25-16.73-1.09-16.03Z"/>
          <path class="cls-8" d="m424.87,101.12c-1.98-.48-4.67.41-5.76,2.66-1.19,2.44-.19,5.85,2.69,7.08,2.71.88,5.59-.65,6.56-3,1.19-2.88-.86-6.1-3.49-6.74Z"/>
          <path class="cls-8" d="m440.4,120.38c-1.98-.48-4.67.41-5.76,2.66-1.19,2.44-.19,5.84,2.69,7.08,2.71.88,5.59-.65,6.56-3,1.19-2.88-.86-6.1-3.49-6.74Z"/>
          <path class="cls-10" d="m437.49,157.5c-1.98-.48-4.67.41-5.76,2.66-1.19,2.44-.19,5.85,2.69,7.08,2.71.88,5.59-.65,6.56-3,1.19-2.88-.86-6.1-3.49-6.74Z"/>
          <path class="cls-8" d="m452.89,168.36c-1.98-.48-4.67.41-5.76,2.66-1.19,2.44-.19,5.85,2.69,7.08,2.71.88,5.59-.65,6.56-3,1.19-2.88-.86-6.1-3.49-6.74Z"/>
          <path class="cls-9" d="m93.6,377.09c-1.53-.37-3.6.32-4.45,2.05-.92,1.88-.15,4.51,2.08,5.46,2.09.68,4.32-.5,5.07-2.31.92-2.22-.66-4.71-2.7-5.2Z"/>
          <path class="cls-9" d="m115.02,383.85c-1.51-.36-3.57.32-4.41,2.04-.91,1.87-.15,4.48,2.06,5.42,2.07.67,4.28-.5,5.03-2.3.91-2.21-.66-4.68-2.67-5.16Z"/>
          <path class="cls-9" d="m143.54,442.11c-1.51-.36-3.57.32-4.41,2.04-.91,1.87-.15,4.48,2.06,5.42,2.07.67,4.28-.5,5.03-2.3.91-2.21-.66-4.68-2.67-5.16Z"/>
          <path class="cls-9" d="m150.59,425.46c-1.51-.36-3.57.32-4.41,2.04-.91,1.87-.15,4.48,2.06,5.42,2.07.67,4.28-.5,5.03-2.3.91-2.21-.66-4.68-2.67-5.16Z"/>
          <path class="cls-10" d="m135.74,407.77c-1.51-.36-3.57.32-4.41,2.04-.91,1.87-.15,4.48,2.06,5.42,2.07.67,4.28-.5,5.03-2.3.91-2.21-.66-4.68-2.67-5.16Z"/>
          <path class="cls-10" d="m418.68,121.73c-1.51-.36-3.57.32-4.41,2.04-.91,1.87-.15,4.48,2.06,5.42,2.07.67,4.28-.5,5.03-2.3.91-2.21-.66-4.68-2.67-5.16Z"/>
          <path class="cls-9" d="m113.93,407.89c-1.51-.36-3.57.32-4.41,2.04-.91,1.87-.15,4.48,2.06,5.42,2.07.67,4.28-.5,5.03-2.3.91-2.21-.66-4.68-2.67-5.16Z"/>
          <path class="cls-10" d="m95.91,395.08c-1.51-.36-3.57.32-4.41,2.04-.91,1.87-.15,4.48,2.06,5.42,2.07.67,4.28-.5,5.03-2.3.91-2.21-.66-4.68-2.67-5.16Z"/>
        </g>
        <path class="cls-13" d="m179.31,486.13s143.21-151.56,317.4-277.46c0,0-22.06-11.44-56.03-19.3-21.25,38.72-48.76,73.77-82.56,105.16-49.45,53.24-117.07,86.68-187.77,119.08,1.18,41.77,8.96,72.51,8.96,72.51Z"/>
      </g>
    </g>
  </g>
</svg>