<?xml version="1.0" encoding="UTF-8"?>
<svg id="_Layer_" data-name="&amp;lt;Layer&amp;gt;" xmlns="http://www.w3.org/2000/svg" viewBox="0 0 540 540">
  <defs>
    <style>
      .cls-1 {
        fill: #e49b1d;
      }

      .cls-2 {
        fill: #f5e144;
      }

      .cls-3 {
        fill: #deb218;
      }

      .cls-4 {
        fill: #f0da32;
      }

      .cls-5 {
        fill: #e5c85a;
      }

      .cls-6 {
        fill: #e8ba19;
      }

      .cls-7 {
        fill: #d9931c;
      }

      .cls-8 {
        fill: #f1e196;
      }
    </style>
  </defs>
  <path class="cls-8" d="m337.76,264.74l-6.89,220.54,49.26-41.05c.25-5.16,2.12-9.16,4.4-9.16,1.2,0,2.29,1.12,3.08,2.93l61.4-51.17.46-16.78c-4.11-.39-7.36-5.28-7.36-11.28s3.53-11.32,7.88-11.32c.04,0,.07,0,.1,0l4.82-174.27-117.16,91.56Z"/>
  <ellipse class="cls-5" cx="425.38" cy="236.68" rx="12.31" ry="4.92" transform="translate(152.21 639.6) rotate(-84.95)"/>
  <ellipse class="cls-5" cx="393.88" cy="305.11" rx="17.72" ry="9.85" transform="translate(55.01 670.35) rotate(-84.91)"/>
  <ellipse class="cls-5" cx="368.61" cy="386.89" rx="32.42" ry="14.28" transform="translate(-46.62 723.25) rotate(-85.4)"/>
  <path class="cls-2" d="m265.84,132.98c-4.39,4.04-11.98,6.72-20.63,6.72-13.59,0-24.61-6.61-24.61-14.77,0-.52.05-1.04.14-1.54l-15.89-3.38-121.1,90.58,254.01,54.15,117.16-91.56-189.08-40.2Z"/>
  <ellipse class="cls-8" cx="302.32" cy="169.24" rx="8.86" ry="4.92"/>
  <path class="cls-6" d="m83.75,210.59l-1.27,93.78c5.61,3.02,9.64,11.33,9.64,21.14s-4.31,18.69-10.22,21.43l-1.1,81.24,46.87,10.7c4.64-4.81,10.82-7.75,17.61-7.75,10.51,0,19.57,7.04,23.7,17.18l161.89,36.97,6.89-220.54-254.01-54.15Z"/>
  <ellipse class="cls-1" cx="141.34" cy="289.36" rx="26.09" ry="29.54" transform="translate(-22.68 12.23) rotate(-4.59)"/>
  <ellipse class="cls-1" cx="205.34" cy="280.5" rx="13.29" ry="15.05"/>
  <ellipse class="cls-1" cx="259" cy="406.03" rx="26.09" ry="29.54" transform="translate(-52.48 38.72) rotate(-7.77)"/>
  <polygon class="cls-8" points="83.75 210.59 339.73 273.6 337.76 264.74 83.75 210.59"/>
  <g>
    <path class="cls-8" d="m216.66,196.81c0-7.07-12.34-12.8-27.57-12.8-11.63,0-21.57,3.35-25.62,8.08,5.05-2.62,12.38-4.26,20.54-4.26,15.23,0,27.57,5.73,27.57,12.8,0,1.67-.69,3.26-1.94,4.72,4.37-2.27,7.03-5.26,7.03-8.54Z"/>
    <path class="cls-4" d="m184,187.83c-8.16,0-15.49,1.65-20.54,4.26-1.25,1.46-1.94,3.05-1.94,4.72,0,7.07,12.34,12.8,27.57,12.8,8.16,0,15.49-1.65,20.54-4.26,1.25-1.46,1.94-3.05,1.94-4.72,0-7.07-12.34-12.8-27.57-12.8Z"/>
  </g>
  <g>
    <path class="cls-8" d="m356.47,215.02c0-7.34-14.33-13.29-32-13.29-13.93,0-25.77,3.7-30.17,8.86,5.86-3.07,14.91-5.04,25.08-5.04,17.67,0,32,5.95,32,13.29,0,1.56-.65,3.05-1.83,4.43,4.33-2.27,6.92-5.13,6.92-8.25Z"/>
    <path class="cls-4" d="m319.38,205.55c-10.17,0-19.22,1.97-25.08,5.04-1.18,1.39-1.83,2.88-1.83,4.43,0,7.34,14.33,13.29,32,13.29,10.17,0,19.22-1.97,25.08-5.04,1.18-1.39,1.83-2.88,1.83-4.43,0-7.34-14.33-13.29-32-13.29Z"/>
  </g>
  <path class="cls-7" d="m138.98,259.91c-7.07.57-13.23,4.28-17.5,9.85,2.91-1.64,6.16-2.68,9.62-2.95,14.36-1.15,27.06,11.1,28.37,27.36.66,8.25-1.74,15.95-6.15,21.68,9.15-5.14,15.01-16.24,14.02-28.57-1.3-16.26-14-28.51-28.37-27.36Z"/>
  <path class="cls-7" d="m205.34,265.45c-4.89,0-9.16,3-11.47,7.46,1.14-.36,2.34-.57,3.59-.57,7.34,0,13.29,6.74,13.29,15.05,0,2.77-.67,5.36-1.83,7.58,5.59-1.77,9.7-7.58,9.7-14.48,0-8.31-5.95-15.05-13.29-15.05Z"/>
  <path class="cls-7" d="m284.85,402.5c-2.2-16.16-15.56-27.69-29.84-25.74-6.55.89-12.15,4.47-16.09,9.64,2.5-1.39,5.26-2.35,8.21-2.75,14.28-1.95,27.64,9.58,29.84,25.74,1.19,8.75-1.13,17.05-5.77,23.15,9.6-5.34,15.4-17.22,13.65-30.04Z"/>
  <path class="cls-3" d="m83.74,210.95l-1.27,93.42c5.61,3.02,9.64,11.33,9.64,21.14s-4.31,18.69-10.22,21.43l-1.1,81.24,46.87,10.7c4.64-4.81,10.82-7.75,17.61-7.75,10.51,0,19.57,7.04,23.7,17.18l161.89,36.97C84.8,423.76,83.66,220.54,83.74,210.95Z"/>
</svg>