<?xml version="1.0" encoding="UTF-8"?>
<svg xmlns="http://www.w3.org/2000/svg" xmlns:xlink="http://www.w3.org/1999/xlink" viewBox="0 0 540 540">
  <defs>
    <style>
      .cls-1 {
        fill: #fff;
      }

      .cls-2 {
        fill: #d1d1d1;
      }

      .cls-3 {
        isolation: isolate;
      }

      .cls-4 {
        fill: #8dc4a4;
      }

      .cls-5 {
        clip-path: url(#clippath-1);
      }

      .cls-6 {
        fill: #bababa;
      }

      .cls-6, .cls-7 {
        mix-blend-mode: overlay;
      }

      .cls-8 {
        clip-path: url(#clippath);
      }

      .cls-9 {
        fill: none;
      }

      .cls-10 {
        fill: #b0e1ff;
      }

      .cls-11 {
        fill: #c4c4c4;
      }

      .cls-7 {
        fill: #595959;
      }
    </style>
    <clipPath id="clippath">
      <path class="cls-9" d="m256.38,122.34h69.53c18.54,0,31.01,18.98,23.67,35.99l-38.84,90.01-25.43,58.94c-10.95,25.37-46.92,25.37-57.87,0l-25.43-58.94-38.84-90.01c-7.34-17.02,5.14-35.99,23.67-35.99h69.53Z"/>
    </clipPath>
    <clipPath id="clippath-1">
      <path class="cls-9" d="m419.77,116.23c-8.87-4.83-17.74-9.65-26.61-14.48-1.13-.64-2.44-1.02-3.88-1.02H123.47c-5.66,0-9.46,5.79-7.22,10.98l67.69,156.89,65.21,151.13c.53,1.22,1.29,2.2,2.19,2.95,0,0,0,0,0,0,0,0,.02,0,.02.01.75.62,1.59,1.06,2.48,1.36,8.62,4.73,17.24,9.46,25.86,14.19,0,0,0,0,0-.01,3.79,2.16,9.14.93,11.14-3.71l65.21-151.13,67.69-156.89c1.77-4.11-.25-8.59-3.98-10.28Z"/>
    </clipPath>
  </defs>
  <g class="cls-3">
    <g id="_Layer_" data-name="&amp;lt;Layer&amp;gt;">
      <g>
        <g>
          <g>
            <path class="cls-11" d="m251.34,422.68c9.45,5.19,18.91,10.37,28.36,15.56,47.01-107.16,94.03-214.32,141.04-321.49-9.19-5-18.39-10.01-27.58-15.01-47.27,106.98-94.55,213.95-141.82,320.93Z"/>
            <path class="cls-11" d="m283.62,115.52h132.9c5.66,0,9.46,5.79,7.22,10.98l-67.69,156.89-65.21,151.13c-2.73,6.33-11.71,6.33-14.45,0l-65.21-151.13-67.69-156.89c-2.24-5.19,1.57-10.98,7.22-10.98h132.9Z"/>
            <path class="cls-2" d="m256.38,100.73h132.9c5.66,0,9.46,5.79,7.22,10.98l-67.69,156.89-65.21,151.13c-2.73,6.33-11.71,6.33-14.45,0l-65.21-151.13L116.25,111.71c-2.24-5.19,1.57-10.98,7.22-10.98h132.9Z"/>
          </g>
          <g>
            <path class="cls-10" d="m256.38,122.34h69.53c18.54,0,31.01,18.98,23.67,35.99l-38.84,90.01-25.43,58.94c-10.95,25.37-46.92,25.37-57.87,0l-25.43-58.94-38.84-90.01c-7.34-17.02,5.14-35.99,23.67-35.99h69.53Z"/>
            <g class="cls-8">
              <path class="cls-4" d="m110.34,265.58c15.47-13.2,69.16-55.69,149.47-57.61,96.18-2.29,159.07,55.31,171.27,66.95-.52,28.55-1.04,57.09-1.56,85.64-110.03-2.6-220.06-5.19-330.08-7.79,3.63-29.06,7.27-58.13,10.9-87.19Z"/>
            </g>
          </g>
          <g>
            <path class="cls-1" d="m214.87,161.16c-7.7,3.9-17.5,4.1-20.4-6.01-1.91-6.67.41-11.79,5.18-14.2,3.52-1.78,8.98-2.54,12.39-1.45,4.25,1.36,1.87,7.69-2.55,5.92-6.29-2.52-6.78,4.66-6.29,6.84.74,3.34,3.5,7.23,8.84,3.45,4.67-3.3,8.06,2.81,2.83,5.45Z"/>
            <path class="cls-1" d="m239.03,153.08c1.65,2.21-1.59,6.12-5.02,5.36-3.63-.81-6.51-4.57-7.3-6.43.37.9,1.35,3.05.98,5.18-.55,3.12-7.17,4.07-8.51,1.6-1.68-3.11-1.08-6.3-1.57-9.59-.42-2.86-1.55-5.09-1.96-7.45-.74-4.34,6.21-5.8,11.82-6.06,5.79-.26,9.72,2.88,10.69,5.74,1.76,5.17-1.35,7.74-3.92,7.95,0,0,2.93,1.2,4.79,3.7Zm-11.32-11.1c-.6-.36-1.46-.58-1.99.26-.41.64.36,3,.51,3.6.27,1.02,2.53,1.27,3.12-.8.36-1.25-.44-2.32-1.64-3.06Z"/>
            <path class="cls-1" d="m241.57,154.96c-2.27-6.2-1.71-15.35-.78-17.95.93-2.6,12.75-3.62,18.51-1.6,3.17,1.11,1.83,5.23-1.49,5.43-3.29.2-8.1-1.48-8.6-.32-.33.75-.36,2.87-.02,3.4.19.29,3.93-.32,6.88.08,2.19.3,2.16,3.47.07,4.12-3.1.97-6.68-.04-6.81.66-.21,1.15.13,2.38.34,2.62.62.71,3.97-.52,7.4-.45,3.43.08,4.79,4.27.27,5.52-4.52,1.25-14.34,2.42-15.78-1.51Z"/>
            <path class="cls-1" d="m275.72,155.07c-.07-2.2.33-5.67-2-5.92-2.33-.25-2.34,3.55-4.04,6.33-2.16,3.54-8.95,2.23-8.89-.76.05-2.46,2.12-5.01,3.2-8.24,1.36-4.04.49-13.2,11.64-12.24,9.63.83,9.82,15.86,9.06,21.18-.61,4.34-8.83,3.81-8.97-.34Zm-.78-14.58c-.75-.23-2.16,4.41-1.57,4.76.59.35,2,.49,2.23-.09.23-.58.28-4.38-.66-4.67Z"/>
            <path class="cls-1" d="m307.11,159.62c.85-1.82.77-5.38.77-5.38-1.08.19-3.34,4.97-3.89,5.71-1.46,1.98-6.28.77-6.98-1.25-.66-1.89-.27-6.51-1.3-6.69,0,0-1.36,2.51-1.41,5.39-.06,3.45-6.98,3.74-8.21.02-.76-2.31-.04-5.53.68-8.89.86-4,1.54-7.45,3.25-9.57,2.14-2.65,7.11-1.26,9.29,1.47,2.58,3.21,3.57,8.38,3.57,8.38,0,0,3.01-3.92,6.1-5.68,4.38-2.51,8.87-1.2,9.57,2.9.83,4.86-2.01,15.22-4.1,17.65-1.77,2.06-9.45.4-7.36-4.06Z"/>
            <path class="cls-1" d="m219.34,201.48c-6.1,3.72-14.16,3.59-17.26-6.47-2.04-6.63-.42-11.6,3.45-13.88,2.85-1.68,7.41-2.34,10.31-1.2,3.62,1.42,1.96,7.67-1.82,5.84-5.38-2.62-5.39,4.47-4.85,6.64.82,3.32,3.33,7.26,7.53,3.61,3.67-3.18,6.77,2.94,2.63,5.46Z"/>
            <path class="cls-1" d="m231.94,195.58c-.05-4.01-.7-5.05-1.96-4.82-1.26.23-1.84,1.11-.34,5.59,1.09,3.26-4.43,5.62-6.47,2.43-1.27-1.98-2.07-5.17-2.53-8.58-.54-4.05-1.9-7.99-1.46-9.72.9-3.53,6.25-3.84,7.21-1.01.53,1.57,1,3.2,1.27,5.03.31,2.11.81,2.48,1.68,2.38,1.15-.14,1.79-.59,1.46-2.95-.18-1.29-.35-2.28-.62-4.48-.51-4.16,6.92-4.55,7.56-.68,1.02,6.2,1.8,15.09,1,18.09-.68,2.54-6.72,3.6-6.79-1.28Z"/>
            <path class="cls-1" d="m241.5,195.47c-2.03-6.19-1.85-15.33-1.15-17.93.7-2.6,10.51-3.69,15.31-1.76,2.65,1.06,1.58,5.2-1.15,5.45-2.71.25-6.71-1.39-7.1-.23-.25.75-.23,2.87.06,3.4.16.29,3.23-.35,5.66.01,1.81.27,1.82,3.44.12,4.12-2.53,1.01-5.48.02-5.56.73-.14,1.15.16,2.38.34,2.62.52.71,3.24-.56,6.04-.52,2.8.03,3.95,4.2.3,5.51-3.65,1.31-11.58,2.52-12.87-1.4Z"/>
            <path class="cls-1" d="m258.53,194.86c-1.42-6.36-.36-15.44.59-17.95.94-2.52,10.81-2.66,15.41-.28,2.53,1.31,1.07,5.33-1.67,5.31-2.72-.02-6.55-2.03-7.05-.91-.32.72-.51,2.84-.27,3.39.13.31,3.25-.04,5.64.56,1.77.44,1.48,3.6-.27,4.11-2.61.76-5.45-.5-5.61.19-.25,1.13-.07,2.38.08,2.64.45.76,3.27-.24,6.06.06,2.79.3,3.53,4.57-.23,5.52-3.77.95-11.77,1.4-12.67-2.63Z"/>
            <path class="cls-1" d="m285.46,176.29c3.42.04,5.08,1.27,6.1,2.08,3.48,2.77-.83,7.32-2.98,5.4-2.28-2.04-4.19-1.78-4.32.56s4.87,1.8,7.37,5.81c3.15,5.06-1.27,10.74-6.84,10.35-6.17-.43-8.97-3.34-9.78-4.5-1.59-2.26.88-6.96,3.87-4.89,3.65,2.52,5.83,4.42,6.42,2.9.92-2.35-8.56-3.22-8.44-9.18.13-6.36,5.38-8.56,8.59-8.52Z"/>
            <path class="cls-1" d="m293.08,198.7c-.15-6.52,2.67-15.21,4.09-17.49,1.42-2.28,11.19-.47,15.28,2.78,2.25,1.79.02,5.44-2.69,4.88-2.69-.56-6.08-3.29-6.79-2.29-.46.65-1.06,2.68-.93,3.27.07.33,3.22.61,5.46,1.66,1.67.78.76,3.83-1.07,3.98-2.73.23-5.29-1.58-5.58-.93-.47,1.06-.54,2.32-.44,2.6.3.83,3.28.41,5.98,1.26,2.7.85,2.6,5.18-1.31,5.36-3.91.18-11.9-.96-12-5.09Z"/>
          </g>
        </g>
        <g class="cls-5">
          <path class="cls-7" d="m179.88,73.51c-6.62,33.71-17.14,111.45,15.52,200.82,37.54,102.71,109.4,158.66,136.92,178,13.98,22.48,23.97,47.19,14.61,64.81-26.09,49.1-202.95,44.33-303.06-47.47C-71.73,363.67-88.03,138.78,9.18,73.51c55.26-37.1,133.98-13.73,170.7,0Z"/>
        </g>
        <path class="cls-6" d="m363.07,107.48c-6.46-.24-12.4,4.92-13.67,10.2-2.72,11.29,15.28,25.76,23.03,22.45,5.43-2.32,7.35-14.03,3.45-22.34-.63-1.34-4.69-9.99-12.81-10.3Z"/>
        <path class="cls-6" d="m340.61,208.58c-2.86-1.25-4.54-3.73-3.75-5.54l21.99-50.34c.79-1.81,3.75-2.26,6.61-1.01h0c2.86,1.25,4.54,3.73,3.75,5.54l-21.99,50.34c-.79,1.81-3.75,2.26-6.61,1.01Z"/>
      </g>
    </g>
  </g>
</svg>