<?xml version="1.0" encoding="UTF-8"?>
<svg xmlns="http://www.w3.org/2000/svg" xmlns:xlink="http://www.w3.org/1999/xlink" viewBox="0 0 540 540">
  <defs>
    <style>
      .cls-1 {
        fill: #fff;
      }

      .cls-2 {
        fill: #d1d1d1;
      }

      .cls-3 {
        isolation: isolate;
      }

      .cls-4 {
        fill: #c9c9c9;
      }

      .cls-5 {
        fill: #8dc4a4;
      }

      .cls-6 {
        fill: #bababa;
        mix-blend-mode: overlay;
      }

      .cls-7 {
        clip-path: url(#clippath);
      }

      .cls-8 {
        fill: none;
      }

      .cls-9 {
        fill: #b0e1ff;
      }

      .cls-10 {
        fill: #c4c4c4;
      }
    </style>
    <clipPath id="clippath">
      <path class="cls-8" d="m256.38,122.34h69.53c18.54,0,31.01,18.98,23.67,35.99l-38.84,90.01-25.43,58.94c-10.95,25.37-46.92,25.37-57.87,0l-25.43-58.94-38.84-90.01c-7.34-17.02,5.14-35.99,23.67-35.99h69.53Z"/>
    </clipPath>
  </defs>
  <g class="cls-3">
    <g id="_Layer_" data-name="&amp;lt;Layer&amp;gt;">
      <path class="cls-10" d="m420.74,116.76h0s0,0,0,0c-.31-.2-.63-.37-.97-.53-8.87-4.83-17.74-9.65-26.61-14.48-2.03,4.59-4.06,9.18-6.09,13.77h-236.35c-5.66,0-9.46,5.79-7.22,10.98l67.69,156.89,50.24,116.44c-3.37,7.62-6.73,15.23-10.1,22.85,9.45,5.19,18.91,10.37,28.36,15.56,0,0,0,0,0-.01,3.79,2.16,9.14.93,11.14-3.71l65.21-151.13,67.69-156.89c1.61-3.74.08-7.77-3.01-9.75Z"/>
      <path class="cls-2" d="m256.38,100.73h132.9c5.66,0,9.46,5.79,7.22,10.98l-67.69,156.89-65.21,151.13c-2.73,6.33-11.71,6.33-14.45,0l-65.21-151.13L116.25,111.71c-2.24-5.19,1.57-10.98,7.22-10.98h132.9Z"/>
      <path class="cls-6" d="m363.07,107.48c-6.46-.24-12.4,4.92-13.67,10.2-2.72,11.29,15.28,25.76,23.03,22.45,5.43-2.32,7.35-14.03,3.45-22.34-.63-1.34-4.69-9.99-12.81-10.3Z"/>
      <path class="cls-6" d="m340.61,208.58c-2.86-1.25-4.54-3.73-3.75-5.54l21.99-50.34c.79-1.81,3.75-2.26,6.61-1.01h0c2.86,1.25,4.54,3.73,3.75,5.54l-21.99,50.34c-.79,1.81-3.75,2.26-6.61,1.01Z"/>
      <path class="cls-4" d="m175.57,100.73h-52.1c-5.66,0-9.46,5.79-7.22,10.98l67.69,156.89,65.21,151.13c2.73,6.33,11.71,6.33,14.45,0l8.65-20.04c-27.45-29.67-56.97-70.95-76.85-125.36-25.71-70.34-24.66-133.47-19.82-173.61Z"/>
      <g>
        <path class="cls-9" d="m256.38,122.34h69.53c18.54,0,31.01,18.98,23.67,35.99l-38.84,90.01-25.43,58.94c-10.95,25.37-46.92,25.37-57.87,0l-25.43-58.94-38.84-90.01c-7.34-17.02,5.14-35.99,23.67-35.99h69.53Z"/>
        <g class="cls-7">
          <path class="cls-5" d="m110.34,265.58c15.47-13.2,69.16-55.69,149.47-57.61,96.18-2.29,159.07,55.31,171.27,66.95-.52,28.55-1.04,57.09-1.56,85.64-110.03-2.6-220.06-5.19-330.08-7.79,3.63-29.06,7.27-58.13,10.9-87.19Z"/>
        </g>
      </g>
      <g>
        <path class="cls-1" d="m212.03,155.7c1.55-1.1,2.96-1.24,4.15-.54,1.03.61,1.49,1.53,1.34,2.77-.16,1.35-1.06,2.41-2.64,3.21-1.56.79-3.15,1.43-4.77,1.84-1.62.42-3.23.61-4.84.58-1.61-.03-3.11-.31-4.5-.84-1.4-.53-2.65-1.44-3.77-2.72-1.11-1.28-1.96-2.9-2.53-4.86-.93-3.24-.94-6.1.03-8.57.97-2.48,2.7-4.36,5.16-5.62,1.72-.88,3.8-1.5,6.24-1.81,2.43-.31,4.49-.16,6.14.38,1.51.49,2.23,1.47,2.2,2.91-.03,1.23-.55,2.17-1.56,2.83-.93.61-1.98.68-3.17.19-1.19-.49-2.24-.64-3.14-.46s-1.58.56-2.02,1.15-.77,1.29-.98,2.1c-.21.81-.32,1.56-.32,2.26,0,.69.03,1.31.14,1.8.14.68.41,1.36.71,1.99.3.63.72,1.21,1.23,1.73.51.52,1.09.89,1.74,1.11.65.22,1.42.22,2.32,0,.9-.22,1.85-.69,2.86-1.4Z"/>
        <path class="cls-1" d="m234.22,149.36c.06.02.12.04.19.08.06.04.21.11.44.23s.46.24.7.37c.23.14.5.31.82.52.31.21.62.43.91.68.3.24.6.52.92.83.32.31.59.64.82.98.55.72.62,1.56.22,2.51-.4.96-1.1,1.73-2.1,2.32-1,.6-2.04.76-3.11.52-1.12-.25-2.23-.78-3.31-1.61-1.08-.83-1.96-1.66-2.6-2.49-.64-.83-1.12-1.6-1.42-2.31.91,2.14,1.23,3.87,1,5.16-.13.74-.59,1.37-1.39,1.89-.79.52-1.65.86-2.58,1.01-.93.16-1.84.13-2.73-.09-.89-.21-1.49-.61-1.8-1.19-.38-.73-.69-1.53-.9-2.39-.21-.86-.33-1.63-.37-2.31-.03-.68-.07-1.5-.1-2.48-.04-.97-.12-1.79-.22-2.42-.16-1-.48-2.34-.99-3.96-.51-1.62-.84-2.78-.96-3.49-.15-.84,0-1.6.42-2.28.43-.68,1.02-1.24,1.77-1.68.75-.44,1.69-.82,2.83-1.13,1.14-.31,2.24-.53,3.31-.67,1.07-.14,2.23-.24,3.48-.3,2.71-.13,5.07.41,7,1.6,1.94,1.18,3.2,2.59,3.71,4.12.42,1.27.56,2.43.47,3.41-.09.97-.37,1.79-.85,2.45-.48.66-1.02,1.16-1.64,1.51-.62.35-1.26.54-1.93.59Zm-4.85-4.34c.32-1.13-.22-2.17-1.65-3.05-.86-.53-1.53-.44-1.99.26-.08.1-.12.25-.12.46s.01.41.04.62c.03.21.07.46.12.75.05.29.11.52.16.71.06.19.12.4.18.64.06.24.1.38.1.43.11.35.37.59.8.73.42.14.87.08,1.35-.17.48-.25.82-.71,1.01-1.36Z"/>
        <path class="cls-1" d="m257.32,156.48c-1.2.34-2.61.59-4.19.78-1.58.19-3.19.3-4.81.33-1.63.03-3.07-.17-4.33-.6-1.27-.43-2.08-1.1-2.43-2.02-.7-1.91-1.18-4.16-1.41-6.77s-.27-4.88-.11-6.83c.17-1.95.42-3.4.76-4.37.29-.83,1.54-1.53,3.78-2.06,2.24-.53,4.8-.76,7.65-.68,2.85.08,5.2.48,7.05,1.13,1.02.37,1.61.99,1.77,1.85.17.86-.07,1.65-.71,2.39s-1.49,1.13-2.54,1.2c-.57.04-1.26.02-2.06-.07s-1.54-.19-2.23-.3c-.68-.11-1.34-.21-1.98-.29-.64-.08-1.16-.09-1.57-.05-.41.04-.66.17-.74.38-.17.39-.26.98-.26,1.79,0,.81.07,1.34.23,1.61.03.09.43.11,1.19.07s1.64-.08,2.64-.12c1-.04,2.02,0,3.07.14.51.07.91.29,1.2.67.3.38.44.8.44,1.25,0,.45-.15.89-.43,1.33-.28.44-.67.74-1.17.89-.46.14-.99.24-1.56.31-.57.07-1.09.11-1.55.12-.47,0-.93,0-1.38,0-.45-.01-.84-.03-1.16-.04-.32-.01-.59,0-.79.04-.2.04-.32.12-.34.23-.1.61-.1,1.16-.01,1.65.09.49.21.81.35.96.12.13.34.2.66.22s.73-.02,1.23-.1c.5-.08,1.03-.16,1.57-.25.55-.09,1.18-.17,1.9-.24s1.41-.08,2.04-.07c.79.02,1.51.24,2.09.71.58.47.93,1.01,1.05,1.61.12.61-.07,1.22-.56,1.83-.49.61-1.28,1.07-2.35,1.37Z"/>
        <path class="cls-1" d="m284.73,155.4c-.11.82-.49,1.5-1.14,2.02-.65.53-1.4.83-2.25.91-.85.08-1.69.04-2.53-.13-.85-.17-1.56-.54-2.14-1.11-.58-.57-.87-1.27-.9-2.04,0-.2-.02-.53-.02-.98s0-.82,0-1.12c0-.29-.02-.64-.06-1.05-.04-.41-.09-.75-.17-1.03-.08-.28-.19-.55-.32-.82-.14-.27-.33-.48-.56-.62-.24-.14-.53-.24-.88-.29-.52-.07-.98.11-1.36.52-.38.41-.67.9-.87,1.47-.2.57-.47,1.3-.8,2.17-.33.88-.67,1.6-1.02,2.16-.41.67-.99,1.19-1.75,1.55-.75.36-1.53.55-2.33.54-.8,0-1.57-.1-2.31-.31-.74-.2-1.34-.53-1.81-.99-.47-.46-.7-.98-.69-1.56.01-.72.2-1.52.57-2.4.36-.88.82-1.87,1.38-2.96.56-1.09,1-2.06,1.28-2.87.17-.5.35-1.29.55-2.34.2-1.05.39-1.99.58-2.83.18-.83.51-1.75,1-2.74.48-.99,1.08-1.81,1.79-2.45.71-.64,1.73-1.16,3.04-1.55,1.32-.39,2.88-.5,4.64-.34,1.54.14,2.93.62,4.11,1.49,1.18.86,2.11,1.95,2.78,3.26.67,1.3,1.21,2.71,1.62,4.21.41,1.5.66,3.04.76,4.62.1,1.58.12,3,.07,4.25-.05,1.25-.13,2.36-.26,3.34Zm-9.11-10.26c.14-.37.23-1.23.12-2.52-.1-1.29-.36-2-.78-2.12-.24-.06-.53.29-.88,1.06-.35.77-.59,1.52-.71,2.26-.13.73-.11,1.26.05,1.42.21.21.7.31,1.25.32.55.01.86-.15.95-.41Z"/>
        <path class="cls-1" d="m314.45,163.66c-.35.39-.89.65-1.63.79-.74.13-1.51.11-2.31-.08-.8-.19-1.54-.47-2.21-.84-.68-.38-1.15-.91-1.4-1.61-.26-.7-.12-1.49.23-2.32.27-.63.43-1.41.55-2.2.12-.79.18-1.52.19-2.19,0-.4,0-.6.01-1-.26.05-.59.35-1,.89-.41.54-.79,1.12-1.15,1.76-.35.63-.71,1.27-1.06,1.92s-.57,1.04-.66,1.18c-.46.61-1.21.93-2.25.99-1.04.05-2.03-.15-2.98-.6-.95-.45-1.55-1-1.77-1.63-.17-.5-.28-1.33-.37-2.47-.08-1.13-.18-2.11-.3-2.93-.12-.82-.5-1.36-.61-1.31-.03.01-.09.15-.16.28-.07.12-.18.38-.34.78-.16.39-.3.79-.41,1.19-.11.4-.22.89-.33,1.46-.1.57-.15,1.14-.17,1.68-.02.65-.3,1.21-.79,1.67-.5.46-1.11.75-1.83.87-.72.12-1.46.13-2.21.04-.75-.1-1.44-.36-2.08-.81-.63-.44-1.07-1.02-1.32-1.73-.35-1.02-.42-2.37-.22-4.06.2-1.68.52-3.32.88-4.86.43-1.85.7-3.22.88-3.97.18-.76.49-1.71.93-2.86.44-1.15.92-2.07,1.46-2.73.67-.83,1.63-1.3,2.84-1.39,1.21-.09,2.41.13,3.58.67,1.17.54,2.13,1.27,2.87,2.19.36.45.69.95,1.01,1.49.32.54.6,1.08.84,1.6.24.53.45,1.05.64,1.57.19.52.35,1,.48,1.44.13.44.24.83.33,1.19.1.35.17.62.22.82.01.11.02.17.03.28.24-.29.56-.67.95-1.14.39-.47,1.11-1.21,2.18-2.23,1.07-1.02,2.06-1.79,2.97-2.32,1.46-.81,2.88-1.24,4.26-1.28,1.38-.04,2.56.32,3.52,1.06.97.74,1.58,1.8,1.81,3.14.26,1.52.17,3.57-.23,6.1-.4,2.53-.98,4.89-1.72,7.07-.74,2.18-1.46,3.67-2.16,4.48Z"/>
        <path class="cls-1" d="m216.7,196.01c1.22-1.06,2.37-1.18,3.39-.46.88.62,1.31,1.54,1.25,2.77-.06,1.34-.75,2.37-2,3.14-1.23.76-2.51,1.35-3.81,1.72-1.31.38-2.62.52-3.95.45-1.33-.08-2.58-.39-3.77-.96-1.19-.57-2.29-1.5-3.3-2.8-1.01-1.3-1.83-2.92-2.43-4.87-.99-3.22-1.19-6.04-.54-8.45.65-2.42,2-4.24,4-5.43,1.39-.83,3.11-1.4,5.14-1.66,2.03-.26,3.76-.08,5.17.48,1.28.51,1.94,1.5,1.98,2.92.04,1.22-.35,2.15-1.16,2.79-.74.59-1.61.64-2.63.13-1.02-.5-1.9-.68-2.64-.52-.74.16-1.29.52-1.62,1.09-.34.57-.57,1.26-.7,2.05-.13.8-.17,1.54-.13,2.23.04.69.1,1.3.22,1.79.16.68.42,1.36.71,1.99.29.63.67,1.21,1.13,1.74.46.53.96.91,1.51,1.14.55.23,1.18.25,1.91.05.73-.2,1.49-.64,2.28-1.33Z"/>
        <path class="cls-1" d="m238.73,196.85c-.13.51-.45.95-.95,1.32-.5.37-1.07.6-1.71.7s-1.27.09-1.88-.02c-.61-.11-1.14-.46-1.58-1.03s-.66-1.33-.68-2.25c-.03-1.98-.2-3.32-.5-3.99-.3-.67-.79-.96-1.44-.83-.47.09-.8.28-.99.57-.19.29-.26.84-.22,1.65.04.81.33,1.94.86,3.38.21.63.19,1.23-.06,1.81-.25.58-.65,1.04-1.2,1.37-.55.33-1.14.56-1.76.71-.62.14-1.25.09-1.89-.16-.64-.25-1.16-.67-1.56-1.28-1.14-1.77-2.02-4.62-2.54-8.56-.19-1.44-.42-2.76-.7-3.94s-.51-2.31-.69-3.4c-.18-1.09-.2-1.88-.06-2.39.18-.68.51-1.26,1-1.75.48-.49,1.04-.82,1.65-.99.61-.17,1.23-.23,1.86-.19.62.04,1.18.24,1.68.58.5.34.84.78,1.03,1.32.62,1.86,1.02,3.56,1.24,5.05.1.68.24,1.21.41,1.57.17.36.35.59.53.68.19.1.45.14.76.11.61-.07,1.07-.33,1.31-.71.24-.38.3-1.14.14-2.25-.34-2.43-.55-3.96-.61-4.5-.09-.76.06-1.46.5-2.04.44-.58,1.03-.96,1.74-1.14.72-.18,1.46-.23,2.22-.16.76.07,1.44.35,2.03.83.59.48.92,1.11,1.03,1.83.46,2.93.93,6.41,1.19,10.25.26,3.84.2,6.46-.17,7.85Z"/>
        <path class="cls-1" d="m254.35,196.88c-.97.35-2.11.62-3.39.83-1.28.21-2.58.33-3.9.37-1.32.04-2.5-.15-3.54-.58-1.04-.43-1.72-1.1-2.03-2.02-.63-1.91-1.08-4.16-1.35-6.76-.27-2.6-.37-4.87-.29-6.82.08-1.94.25-3.4.5-4.37.21-.83,1.24-1.53,3.09-2.07,1.85-.54,3.97-.79,6.33-.74,2.36.06,4.32.41,5.87,1.04.85.36,1.34.96,1.49,1.82.15.85-.04,1.65-.56,2.41-.52.75-1.21,1.15-2.08,1.24-.47.04-1.04.03-1.7-.04-.66-.08-1.28-.17-1.84-.28-.57-.11-1.11-.2-1.64-.27-.53-.07-.96-.08-1.3-.03-.34.05-.54.18-.6.38-.13.39-.19.99-.18,1.79.01.81.09,1.34.23,1.61.03.09.36.11.98.06.62-.05,1.35-.1,2.17-.15.82-.05,1.66-.01,2.52.11.42.06.75.28,1,.66.25.38.37.79.38,1.24,0,.45-.11.89-.33,1.33-.22.44-.54.75-.94.91-.37.14-.8.25-1.27.33-.46.08-.89.12-1.27.14-.38.01-.76.01-1.13,0s-.69-.02-.95-.03c-.26-.01-.48,0-.65.05s-.26.12-.28.23c-.07.61-.06,1.16.02,1.65.08.49.19.81.31.96.1.13.28.2.54.21.26.01.59-.03,1-.11.41-.08.84-.17,1.28-.26.44-.09.96-.18,1.55-.26.59-.08,1.15-.1,1.66-.1.65,0,1.24.22,1.72.68.48.46.77.99.88,1.6.1.61-.04,1.22-.44,1.83-.39.62-1.03,1.09-1.89,1.41Z"/>
        <path class="cls-1" d="m271.18,197.49c-1,.26-2.16.42-3.46.5-1.3.08-2.6.08-3.92-.01-1.32-.09-2.47-.39-3.46-.92-1-.53-1.61-1.26-1.83-2.2-.44-1.96-.68-4.24-.69-6.86-.01-2.61.1-4.89.37-6.81.27-1.93.58-3.36.92-4.3.29-.8,1.38-1.4,3.27-1.76,1.89-.36,4.02-.41,6.37-.12,2.35.28,4.27.83,5.74,1.6.81.44,1.25,1.09,1.31,1.95.07.86-.2,1.64-.79,2.34s-1.32,1.03-2.19,1.03c-.47,0-1.04-.07-1.69-.21-.65-.14-1.26-.29-1.81-.45-.55-.16-1.09-.3-1.61-.42-.52-.12-.95-.17-1.29-.16-.34.02-.55.12-.64.32-.17.37-.28.96-.35,1.77-.06.8-.04,1.34.07,1.62.02.09.34.14.97.15.62.01,1.35.03,2.17.06.82.03,1.66.15,2.5.35.41.1.72.35.93.75.21.4.3.83.26,1.27-.04.45-.19.88-.46,1.3-.26.42-.61.69-1.03.81-.39.11-.82.17-1.3.21-.47.03-.9.04-1.28.01-.38-.03-.76-.06-1.13-.1-.37-.04-.69-.08-.95-.12-.26-.04-.48-.04-.65-.02-.17.02-.27.09-.3.2-.13.6-.17,1.15-.13,1.65.03.5.11.83.22.99.09.14.26.23.52.26.26.04.59.03,1.01-.01.42-.04.85-.09,1.3-.14.45-.05.97-.09,1.57-.11.59-.02,1.16.01,1.67.06.64.07,1.21.34,1.65.84s.68,1.06.72,1.68c.05.61-.16,1.21-.61,1.78-.45.58-1.13.99-2.02,1.22Z"/>
        <path class="cls-1" d="m276.9,184.79c.03-1.21.24-2.32.63-3.32.39-.99.88-1.81,1.48-2.46s1.29-1.17,2.07-1.59c.78-.42,1.54-.72,2.28-.89.74-.17,1.46-.25,2.14-.27.6-.02,1.22.03,1.84.17.62.13,1.12.25,1.5.36.38.11.76.28,1.16.5.39.23.69.41.89.55.2.14.44.31.71.52,1.29,1.01,1.62,2.24,1.04,3.65-.43,1.04-1.14,1.75-2.08,2.08-.74.26-1.4.14-1.92-.34-1.15-1.02-2.15-1.47-2.98-1.36-.83.11-1.3.77-1.35,1.92-.02.42.14.79.47,1.09.33.3.78.57,1.35.81.57.24,1.18.49,1.8.76.63.27,1.29.67,1.99,1.22.7.55,1.28,1.19,1.76,1.92.75,1.22,1.08,2.49.99,3.8-.09,1.31-.49,2.45-1.2,3.43-.71.98-1.66,1.76-2.85,2.36-1.19.6-2.45.83-3.79.73-1.43-.11-2.75-.33-3.96-.68-1.2-.35-2.19-.78-2.96-1.29-.77-.51-1.37-.97-1.81-1.37s-.8-.78-1.06-1.15c-.3-.43-.47-.96-.5-1.58s.07-1.18.3-1.71c.23-.53.55-1,.95-1.42.4-.42.88-.65,1.43-.69.55-.04,1.11.14,1.69.52,2.59,1.77,4.12,2.84,4.7,3.13.9.46,1.47.37,1.72-.24.15-.36.06-.73-.29-1.1-.35-.37-.84-.72-1.48-1.05-.64-.32-1.34-.72-2.11-1.17-.77-.46-1.5-.93-2.18-1.41-.68-.48-1.25-1.11-1.71-1.9-.46-.79-.68-1.64-.65-2.56Z"/>
        <path class="cls-1" d="m305.06,203.79c-1.04.05-2.22-.02-3.52-.2-1.3-.18-2.58-.44-3.87-.79-1.28-.35-2.36-.87-3.24-1.59-.88-.71-1.34-1.55-1.37-2.52-.05-2.01.16-4.29.66-6.86.5-2.57,1.06-4.77,1.7-6.61.64-1.84,1.23-3.18,1.75-4.03.45-.73,1.63-1.11,3.57-1.08,1.94.02,4.05.4,6.32,1.14,2.27.74,4.06,1.66,5.37,2.71.72.59,1.02,1.32.92,2.18-.1.86-.52,1.57-1.23,2.14s-1.51.75-2.37.58c-.47-.09-1.02-.27-1.63-.54-.62-.27-1.18-.53-1.7-.8-.51-.27-1.02-.51-1.51-.73-.49-.22-.91-.36-1.24-.41-.34-.05-.57.01-.69.19-.24.33-.47.89-.69,1.67-.22.78-.3,1.31-.25,1.6,0,.09.31.2.93.34.61.13,1.33.3,2.13.49.81.19,1.61.47,2.41.84.39.18.64.49.78.92.13.44.13.87,0,1.3-.13.43-.36.82-.71,1.18-.34.36-.74.56-1.17.59-.4.03-.85,0-1.32-.06-.47-.06-.89-.14-1.27-.24-.37-.1-.74-.21-1.09-.33-.35-.12-.66-.22-.91-.31-.25-.09-.46-.14-.64-.14-.17,0-.28.04-.33.14-.24.56-.39,1.09-.45,1.59-.06.49-.05.83.02,1.01.06.15.21.27.46.36.25.09.58.15,1,.19.42.04.86.08,1.31.12.46.04.98.11,1.57.2.59.09,1.14.24,1.63.39.62.19,1.13.57,1.47,1.15.33.58.46,1.18.39,1.79-.08.61-.4,1.15-.95,1.63-.56.48-1.31.75-2.23.8Z"/>
      </g>
    </g>
  </g>
</svg>