<?xml version="1.0" encoding="UTF-8"?>
<svg xmlns="http://www.w3.org/2000/svg" xmlns:xlink="http://www.w3.org/1999/xlink" viewBox="0 0 540 540">
  <defs>
    <style>
      .cls-1 {
        fill: #ffe2cb;
      }

      .cls-2 {
        clip-path: url(#clippath-2);
      }

      .cls-3 {
        isolation: isolate;
      }

      .cls-4 {
        fill: #8ec4ed;
      }

      .cls-5 {
        fill: #8dc4a4;
      }

      .cls-6 {
        fill: #ffead9;
      }

      .cls-7 {
        clip-path: url(#clippath);
      }

      .cls-8 {
        fill: none;
      }

      .cls-9 {
        fill: #b0e1ff;
      }

      .cls-10 {
        fill: #d8e4ed;
      }

      .cls-11 {
        fill: #ffe7a4;
      }

      .cls-12 {
        fill: #4f4f4f;
        mix-blend-mode: overlay;
        opacity: .96;
      }
    </style>
    <clipPath id="clippath">
      <path class="cls-8" d="m441.4,136.53c0,11.08-76.74,20.07-171.4,20.07-94.66,0-171.4-8.98-171.4-20.07,0-11.08,76.74-20.07,171.4-20.07,94.66,0,171.4,8.98,171.4,20.07Z"/>
    </clipPath>
    <clipPath id="clippath-2">
      <path class="cls-8" d="m365.28,350.05l-48.72,4.15c-38.89,3.31-54.24,3.31-93.13,0l-48.72-4.15-11.87-132.56,44.33,3.94c38.94,3.46,78.1,3.59,117.06.4l52.92-4.34-11.87,132.56Z"/>
    </clipPath>
  </defs>
  <g class="cls-3">
    <g id="_Layer_" data-name="&amp;lt;Layer&amp;gt;">
      <g>
        <path class="cls-6" d="m387.64,391.38c-1.4,10.01-7.77,18.62-16.92,22.91-18.29,8.58-53.04,20.87-101.96,20.87s-89.88-13.84-110.82-23.06c-9.95-4.38-16.74-13.79-17.72-24.61l-22.58-247.47,303.99,7.6-33.99,243.75Z"/>
        <polygon class="cls-8" points="385.57 406.18 140.72 400.06 117.63 140.03 421.62 147.63 385.57 406.18"/>
        <path class="cls-1" d="m175.7,373.15c-10.58-16.91-13.98-34.29-17.2-125.87-1.47-41.77-2.16-77.87-2.48-106.29l-38.4-.96,22.58,247.47c.99,10.82,7.78,20.24,17.72,24.61,20.94,9.22,60.73,23.06,110.82,23.06,11.54,0,22.28-.69,32.21-1.85-89.2-8.48-117.8-48.25-125.26-60.17Z"/>
        <g>
          <path class="cls-10" d="m441.4,136.53c0-11.08-76.74-20.07-171.4-20.07s-171.4,8.98-171.4,20.07v10c0,11.08,76.74,20.07,171.4,20.07s171.4-8.98,171.4-20.07v-10Z"/>
          <path class="cls-4" d="m441.4,136.53c0,11.08-76.74,20.07-171.4,20.07-94.66,0-171.4-8.98-171.4-20.07,0-11.08,76.74-20.07,171.4-20.07,94.66,0,171.4,8.98,171.4,20.07Z"/>
          <g class="cls-7">
            <path class="cls-12" d="m279.96,101.52c-75.63,8.31-113.86,18.98-114.69,32.02-.56,8.84,16.07,18.77,49.9,29.79-58.58,4.99-123.54,5.66-131.07-17.13-3.96-11.97,9.35-26.16,14.15-31.28,50.74-54.11,166.15-18.41,181.71-13.41Z"/>
          </g>
          <path class="cls-4" d="m316.88,154.88c.03,2.06,17.68.62,31.62,13.05,4.8,4.28,4.9,6.41,9.44,8.86,12.63,6.82,31.01.71,31.62-4.66.37-3.2-5.79-4.2-7.55-10.26-1.49-5.12,1.13-10.55,4.25-14.92-54.46,3.45-69.4,6.03-69.38,7.93Z"/>
        </g>
      </g>
      <path class="cls-5" d="m365.28,350.05l-48.72,4.15c-38.89,3.31-54.24,3.31-93.13,0l-48.72-4.15-11.87-132.56,44.33,3.94c38.94,3.46,78.1,3.59,117.06.4l52.92-4.34-11.87,132.56Z"/>
      <g class="cls-2">
        <path class="cls-9" d="m89.79,328.3c21.25-19.19,51.7-41.65,92.17-58,109.95-44.42,212.5-10.87,244.41,1.04-2.42-21.75-4.83-43.5-7.25-65.24-103.56.35-207.13.69-310.69,1.04-6.21,40.39-12.43,80.78-18.64,121.17Z"/>
      </g>
      <g>
        <path class="cls-11" d="m201.67,300.94c2.14-.87,3.73-.53,4.81.91.93,1.24,1.14,2.7.52,4.36-.67,1.82-2.1,2.95-4.23,3.42-2.11.46-4.21.65-6.26.49-2.04-.16-3.97-.66-5.77-1.49-1.8-.83-3.34-1.98-4.61-3.43-1.27-1.45-2.18-3.33-2.71-5.65s-.58-4.94-.17-7.86c.69-4.82,2.1-8.63,4.2-11.45,2.1-2.82,4.6-4.49,7.49-5.04,2.02-.39,4.27-.29,6.76.31,2.49.6,4.46,1.61,5.92,2.98,1.33,1.25,1.75,2.88,1.22,4.87-.45,1.7-1.32,2.83-2.59,3.35-1.18.48-2.3.16-3.34-1s-2.04-1.81-3.02-1.96-1.81.08-2.5.68c-.69.6-1.31,1.41-1.87,2.42-.56,1.01-.99,1.98-1.3,2.93-.3.94-.54,1.8-.65,2.52-.15,1-.17,2.05-.13,3.05.04,1,.23,1.98.55,2.94.32.96.79,1.73,1.4,2.33.61.6,1.46.94,2.54,1.04s2.32-.14,3.72-.7Z"/>
        <path class="cls-11" d="m208.91,303.67c-.38-3.44-.29-6.92.31-10.36.6-3.44,1.28-6.33,2.05-8.67.76-2.34,1.45-3.93,2.06-4.78.35-.52,1.03-.84,2.06-.98,1.03-.13,2.06-.09,3.09.14,1.03.22,1.9.71,2.63,1.47.73.76.99,1.71.76,2.77-.09.41-.28,1.21-.55,2.39-.27,1.18-.53,2.36-.79,3.52-.27,1.17-.54,2.49-.84,3.96-.29,1.47-.52,2.82-.67,4.04-.16,1.22-.25,2.36-.27,3.42-.02,1.06.09,1.87.33,2.44.24.57.64.84,1.18.78.65-.07,1.25-.56,1.8-1.46.55-.9.99-2.04,1.34-3.41.34-1.37.63-2.87.86-4.5.23-1.62.38-3.21.47-4.75.09-1.54.13-2.92.12-4.14,0-1.22-.05-2.11-.14-2.67-.11-.66.07-1.3.54-1.91.47-.61,1.09-1.08,1.85-1.4.76-.32,1.57-.5,2.42-.55s1.66.18,2.43.7c.77.52,1.35,1.31,1.69,2.33.45,1.34.72,3.21.86,5.54.14,2.33.11,4.73-.07,7.19-.19,2.46-.59,4.87-1.21,7.24-.62,2.37-1.39,4.25-2.3,5.6-.86,1.27-2.01,2.34-3.43,3.18-1.42.84-2.9,1.41-4.44,1.7-1.54.29-3.12.31-4.74.08-1.62-.23-3.09-.71-4.4-1.41-1.32-.71-2.44-1.72-3.36-3.03-.92-1.31-1.46-2.82-1.64-4.49Z"/>
        <path class="cls-11" d="m237.21,292.48c-.03-1.76.18-3.37.63-4.84.45-1.47,1.04-2.69,1.76-3.68.73-.98,1.57-1.82,2.52-2.52.95-.7,1.88-1.22,2.79-1.57.91-.35,1.81-.57,2.65-.71.75-.12,1.53-.15,2.32-.08.79.08,1.43.16,1.92.24.49.08.99.25,1.52.49.53.25.93.44,1.2.6.27.16.6.35.99.59,1.79,1.16,2.48,2.82,2.02,4.97-.33,1.58-1.1,2.76-2.27,3.44-.92.53-1.8.5-2.58-.08-1.68-1.22-3.04-1.69-4.11-1.39-1.07.3-1.6,1.32-1.51,2.98.03.61.3,1.12.78,1.49.48.38,1.13.69,1.94.93.81.24,1.66.49,2.55.75.89.26,1.86.7,2.91,1.33,1.05.63,1.98,1.41,2.8,2.34,1.3,1.56,2.06,3.28,2.28,5.16.21,1.89-.06,3.62-.82,5.19s-1.95,2.92-3.56,4.05c-1.61,1.12-3.44,1.72-5.46,1.82-2.16.11-4.19,0-6.04-.34-1.86-.34-3.39-.85-4.59-1.51-1.2-.66-2.14-1.27-2.83-1.81-.69-.54-1.25-1.07-1.65-1.58-.48-.6-.76-1.36-.84-2.24-.08-.88.03-1.71.33-2.49.3-.78.72-1.48,1.27-2.12.54-.63,1.2-1,1.96-1.11.76-.1,1.57.09,2.42.59,3.83,2.28,6.21,3.56,7.08,3.88,1.37.51,2.17.28,2.41-.64.15-.54-.05-1.06-.6-1.53-.56-.47-1.31-.89-2.25-1.26-.95-.36-1.99-.82-3.13-1.38-1.14-.56-2.2-1.14-3.2-1.76-.99-.62-1.84-1.48-2.53-2.57-.69-1.09-1.05-2.31-1.07-3.64Z"/>
        <path class="cls-11" d="m268.06,289.43c-.1.03-.22.07-.37.12-.15.05-.48.15-.99.31-.52.16-1,.26-1.44.32-.45.06-1,.11-1.67.15-.66.04-1.27-.08-1.73-.2-.84-.23-1.64-.88-2.14-2.09-.5-1.21-.59-2.47-.28-3.78s1.01-2.17,2.09-2.61c2.8-1.11,9.8-1.11,21.09-.42,1.24.08,2.23.42,2.96,1.02.73.6,1.18,1.33,1.34,2.19.16.86.21,1.69.12,2.5-.08.81-.26,1.57-.55,2.2-.24.52-.8.86-1.64,1-.84.14-1.69.15-2.53.01-.85-.14-1.71-.29-2.58-.46-.88-.17-1.38-.26-1.51-.26-.23,0-.35,1.28-.35,3.85,0,2.56,0,5.57,0,9.02,0,3.45-.12,5.96-.39,7.47-.22,1.23-.74,2.19-1.53,2.88-.79.68-1.63,1.05-2.52,1.1-.89.05-1.76-.05-2.6-.3-.84-.25-1.46-.62-1.87-1.06-.49-.52-.92-1.23-1.24-2.13-.32-.89-.53-1.79-.64-2.68-.11-.89-.18-2.01-.24-3.33-.07-1.68.03-4.35.34-7.98.31-3.63.59-5.91.87-6.85Z"/>
        <path class="cls-11" d="m312.78,307.23c.07,1.2-.22,2.26-.87,3.17-.65.92-1.47,1.53-2.47,1.84-1,.31-2.02.44-3.07.38-1.05-.06-1.98-.45-2.78-1.16-.8-.71-1.27-1.65-1.43-2.76-.04-.29-.11-.76-.19-1.4-.08-.65-.14-1.18-.2-1.6-.05-.42-.13-.92-.24-1.5-.11-.58-.23-1.06-.37-1.45s-.3-.76-.5-1.12c-.2-.37-.45-.63-.74-.8-.29-.17-.65-.26-1.05-.28-.6-.02-1.1.31-1.48.96s-.65,1.4-.81,2.24c-.16.85-.37,1.93-.65,3.24-.28,1.31-.6,2.39-.94,3.24-.41,1.02-1.05,1.83-1.93,2.44-.87.61-1.8.95-2.78,1.02-.98.07-1.92-.01-2.84-.25s-1.67-.68-2.26-1.32c-.59-.64-.89-1.38-.91-2.22-.02-1.04.17-2.2.56-3.49.39-1.29.87-2.74,1.45-4.36.58-1.62,1.02-3.04,1.28-4.24.16-.74.3-1.89.45-3.42.15-1.53.29-2.9.43-4.12.14-1.22.43-2.57.87-4.04.44-1.47,1.01-2.7,1.7-3.69.69-.99,1.7-1.85,3.03-2.57,1.33-.72,2.93-1.09,4.77-1.15,1.61-.05,3.12.41,4.48,1.41,1.37,1.01,2.53,2.37,3.49,4.09.96,1.72,1.82,3.6,2.58,5.64.76,2.04,1.37,4.17,1.84,6.4.46,2.23.82,4.24,1.06,6.03.24,1.79.4,3.4.49,4.82Zm-12.38-12.72c.1-.56.06-1.8-.25-3.64-.31-1.84-.69-2.81-1.16-2.92-.27-.05-.53.5-.8,1.66-.27,1.16-.43,2.28-.47,3.35-.04,1.07.04,1.82.25,2.03.25.25.82.33,1.44.26.61-.07.93-.35,1-.75Z"/>
        <path class="cls-11" d="m332.96,298.05c.07.03.14.07.21.13.07.06.24.17.51.34.27.17.54.36.81.56.27.2.59.46.96.76.37.31.73.64,1.09,1,.36.36.73.76,1.11,1.21.38.45.72.92,1.01,1.42.68,1.04.82,2.25.39,3.63s-1.25,2.49-2.46,3.34c-1.21.85-2.49,1.06-3.79.67-1.36-.41-2.72-1.23-4.01-2.51-1.29-1.27-2.3-2.54-3.03-3.8-.73-1.26-1.25-2.41-1.57-3.46.96,3.18,1.28,5.69.94,7.54-.19,1.06-.79,1.92-1.79,2.58-1,.66-2.08,1.04-3.22,1.14-1.15.1-2.25-.08-3.31-.53-1.06-.45-1.74-1.13-2.03-2.02-.37-1.11-.64-2.31-.78-3.58-.15-1.27-.2-2.4-.16-3.38.04-.98.1-2.17.16-3.57.06-1.4.06-2.58,0-3.51-.08-1.47-.29-3.44-.69-5.86-.4-2.41-.63-4.14-.69-5.17-.08-1.23.15-2.29.67-3.18.52-.89,1.19-1.59,2-2.1.82-.51,1.83-.9,3.03-1.18,1.2-.28,2.37-.46,3.49-.53,1.12-.07,2.34-.09,3.65-.07,2.84.05,5.32.97,7.42,2.74,2.11,1.77,3.56,3.8,4.21,6.02.54,1.84.76,3.51.72,4.92-.04,1.41-.32,2.58-.83,3.53-.51.95-1.12,1.67-1.82,2.15-.7.49-1.43.75-2.21.79Zm-5.51-6.55c.37-1.61-.23-3.14-1.77-4.54-.93-.84-1.65-.78-2.17.17-.09.14-.14.35-.15.65-.01.29,0,.59.02.9.02.31.06.67.11,1.09.05.42.1.77.16,1.04.05.27.11.58.17.94.06.35.09.56.1.63.11.51.4.89.87,1.13.47.24.98.2,1.52-.12.54-.32.93-.95,1.15-1.88Z"/>
        <path class="cls-11" d="m342.17,308.44c-.36-.45-.6-1.32-.73-2.59s-.24-2.75-.33-4.44c-.09-1.69-.37-3.77-.91-6.12-.58-2.48-1.12-5.65-1.47-9.41-.35-3.76-.26-6.06.28-6.9.76-1.19,2.13-2.19,4.11-3.01,1.97-.82,4.65-1.14,7.97-.91,2.57.18,4.9,1.16,6.95,2.88,2.05,1.72,3.66,3.88,4.82,6.48,1.15,2.6,1.83,5.46,2.04,8.53.42,6-.85,10.59-3.93,13.65-1.44,1.44-3.53,2.48-6.28,3.13s-5.34.84-7.75.57c-2.42-.27-4-.9-4.76-1.86Zm7.04-24.68c-.23.03-.3.63-.21,1.81.09,1.18.28,2.76.56,4.73.29,1.98.45,3.29.49,3.93.1,1.61.24,3.14.46,4.55.22,1.41.55,2.29,1,2.62.41.31.88.25,1.39-.19.51-.44.92-1.4,1.23-2.87.31-1.48.33-3.29.06-5.45-.23-1.87-.61-3.51-1.12-4.94-.51-1.42-1.11-2.5-1.78-3.24-.67-.73-1.37-1.06-2.09-.97Z"/>
      </g>
    </g>
  </g>
</svg>