<?xml version="1.0" encoding="UTF-8"?>
<svg id="_Layer_" data-name="&amp;lt;Layer&amp;gt;" xmlns="http://www.w3.org/2000/svg" viewBox="0 0 540 540">
  <defs>
    <style>
      .cls-1 {
        fill: #fff;
      }

      .cls-2 {
        fill: #a993f9;
      }

      .cls-3 {
        fill: #736faf;
      }

      .cls-4 {
        fill: #f7edfc;
      }

      .cls-5 {
        fill: #d098ed;
      }

      .cls-6 {
        fill: #ce85f9;
      }

      .cls-7 {
        fill: #8583c4;
      }

      .cls-8 {
        fill: #dda1fc;
      }

      .cls-9 {
        fill: #9d89e8;
      }

      .cls-10 {
        fill: #d68bfc;
        stroke: #fff;
        stroke-miterlimit: 10;
        stroke-width: 8.44px;
      }

      .cls-11 {
        fill: #63629b;
      }

      .cls-12 {
        fill: none;
      }

      .cls-13 {
        fill: #7571b0;
      }

      .cls-14 {
        fill: #6e6aa6;
      }
    </style>
  </defs>
  <path class="cls-2" d="M385.22,399.69c-1.24,8.87-6.88,16.5-14.99,20.3-16.2,7.6-57.99,18.49-101.33,18.49s-90.63-12.26-109.19-20.43c-8.81-3.88-14.83-12.22-15.7-21.81l-9-219.25,269.34,6.73-19.11,215.96Z"/>
  <path class="cls-10" d="M355.64,294.39c-.96,38.59-34.58,72.52-79.08,76.1-49.65,4-93.38-30.55-92.2-77.62,1.18-47.07,46.61-80.83,96.04-75.95,44.31,4.37,76.21,38.88,75.24,77.47Z"/>
  <polygon class="cls-12" points="383.4 412.8 144.46 407.38 135 177 404.34 183.73 383.4 412.8"/>
  <path class="cls-9" d="M181.45,383.54c-9.37-14.98-7.38-30.38-10.23-111.52-1.3-37.01-1.91-68.99-2.2-94.17l-34.02-.85,9,219.25c.87,9.59,6.89,17.93,15.7,21.81,18.56,8.17,64.81,20.43,109.19,20.43,10.22,0,19.74-.61,28.54-1.64-79.03-7.52-109.37-42.75-115.98-53.31Z"/>
  <path class="cls-4" d="M421.86,173.9c0-9.82-67.99-17.78-151.86-17.78s-151.86,7.96-151.86,17.78v8.86c0,9.82,67.99,17.78,151.86,17.78s151.86-7.96,151.86-17.78v-8.86Z"/>
  <path class="cls-8" d="M421.86,173.9c0,9.82-67.99,17.78-151.86,17.78-83.87,0-151.86-7.96-151.86-17.78,0-9.82,67.99-17.78,151.86-17.78,83.87,0,151.86,7.96,151.86,17.78Z"/>
  <path class="cls-6" d="M177.21,171.25c.29-4.57,5.78-8.81,16.43-12.72-45.15,3.08-75.5,8.81-75.5,15.37s33.14,12.8,81.68,15.77c-15.43-6.64-22.97-12.78-22.61-18.42Z"/>
  <path class="cls-8" d="M311.53,190.15c.02,1.82,15.66,.55,28.02,11.57,4.25,3.79,4.34,5.68,8.36,7.85,11.19,6.04,27.47,.63,28.02-4.13,.32-2.83-5.13-3.72-6.69-9.09-1.32-4.54,1-9.34,3.76-13.22-48.25,3.06-61.49,5.34-61.47,7.02Z"/>
  <g>
    <path class="cls-1" d="M210.67,268.56c-.27,.1-.52,.41-.67,.97-.16,.56-.24,1.07-.26,1.53-.02,.47,0,.89,.02,1.27,.02,.25,.32,.41,.89,.48,.57,.07,1.34,.1,2.29,.11,.82,0,1.41,.39,1.77,1.13,.36,.75,.36,1.5,0,2.25-.35,.75-1,1.12-1.9,1.13-.44,0-.84,.01-1.19,0-.35-.02-.61-.04-.77-.07-.17-.03-.31-.06-.42-.08-.11-.02-.19-.03-.23-.03-.04,0-.08,.02-.12,.03-.04,.02-.14,.06-.23,.13-.09,.07-.14,.28-.16,.54-.02,.27-.02,.6,0,.99,.02,.39,0,.87-.03,1.45-.04,.58-.18,1.24-.39,1.99-.23,.8-.76,1.39-1.61,1.73-.85,.35-1.72,.45-2.62,.32-.9-.13-1.7-.48-2.39-1.03-.7-.55-1.02-1.21-.97-1.98,.03-.43,.06-.82,.09-1.15,.03-.33,.07-.6,.11-.8s.1-.55,.18-1.03c.08-.48,.12-.99,.21-1.4,.03-.15-.1-.27-.45-.33-.35-.06-.85-.13-1.5-.22-.66-.09-1.24-.26-1.76-.49-.39-.18-.65-.62-.75-1.33-.11-.71,.01-1.4,.36-2.1,.34-.69,.88-1.1,1.59-1.23,.29-.06,.6-.08,.9-.06,.31,.02,.58,.06,.82,.13,.24,.06,.46,.12,.66,.17,.2,.05,.35,.06,.46,.03,.11-.03,.17-.09,.18-.19,0-.38-.02-.91-.06-1.61-.04-.69-.05-1.18-.04-1.46,.01-.28,.06-.63,.16-1.04,.09-.42,.24-.81,.45-1.18,.48-.9,1.21-1.57,2.2-2.01,.99-.45,2.03-.67,3.14-.68,1.1,0,2.3,.12,3.55,.39,2.26,.5,3.84,1.55,4.73,3.03,.69,1.15,.75,2.14,.07,2.94-.41,.5-1.03,.76-1.85,.8-.64,.03-1.2,0-1.66-.12-.46-.11-.8-.26-1.01-.44-.21-.18-.4-.37-.57-.58-.17-.21-.28-.39-.34-.56-.06-.16-.17-.28-.34-.35-.17-.07-.36-.05-.54,.02Z"/>
    <path class="cls-1" d="M233.81,273.21c.32,.5,.43,1.03,.31,1.59-.12,.56-.41,1.03-.89,1.4-.48,.37-1.07,.62-1.78,.74-.71,.12-1.49,0-2.33-.35-1.94-.86-3.24-1.19-3.9-.98-.32,.08-.59,.22-.83,.44-.24,.22-.42,.52-.53,.92-.11,.4-.21,.78-.28,1.14-.07,.37-.1,.87-.1,1.52s.02,1.18,.03,1.61c.01,.43,.03,1.03,.07,1.8,.05,.85-.13,1.56-.54,2.1-.42,.54-.96,.88-1.61,1.01-.66,.13-1.33,.14-2.02,.04-.69-.1-1.31-.32-1.87-.67-.56-.35-.92-.76-1.08-1.23-.29-.8-.39-1.77-.31-2.9,.08-1.14,.22-2.38,.43-3.73,.21-1.35,.27-3.18,.27-5.4,0-.84,.39-1.48,1.12-1.88,.73-.4,1.54-.58,2.43-.52,.89,.06,1.74,.25,2.55,.57,.81,.32,1.28,.72,1.39,1.19,.04,.04,.06,.06,.11,.1,.19-.11,.33-.2,.41-.29,.08-.09,.23-.18,.43-.27,.2-.1,.41-.19,.64-.27,.22-.08,.53-.15,.92-.2,.39-.05,.81-.05,1.23-.02,1.21,.07,2.39,.29,3.44,.76,1.05,.46,1.82,1.06,2.3,1.8Z"/>
    <path class="cls-1" d="M254.25,280.02c0,.62-.06,1.23-.11,1.75-.05,.53-.18,1.1-.36,1.71s-.44,1.16-.75,1.64c-.32,.48-.76,.94-1.32,1.39-.56,.45-1.23,.81-1.98,1.09-.76,.28-1.7,.49-2.82,.63-1.12,.14-2.39,.17-3.81,.1-1.39-.07-2.63-.28-3.71-.62-1.08-.34-1.96-.76-2.62-1.25-.66-.49-1.21-1.07-1.64-1.74-.43-.67-.73-1.35-.9-2.02-.18-.68-.26-1.4-.26-2.18,0-.78,.05-1.48,.15-2.11,.1-.63,.23-1.27,.4-1.92,.53-2.04,1.63-3.49,3.29-4.36,1.66-.87,3.91-1.22,6.75-1.08,1.6,.08,2.99,.32,4.18,.72,1.19,.4,2.13,.88,2.81,1.43,.68,.55,1.23,1.23,1.65,2.05,.42,.81,.7,1.59,.83,2.33,.13,.74,.24,1.58,.23,2.45Zm-10.26,3.57c.6,.03,1.14-.21,1.64-.73,.49-.52,.83-1.16,1-1.93,.18-.77,.24-1.54,.2-2.31-.04-.77-.29-1.44-.74-2.01-.45-.57-1.04-.87-1.79-.91-.54-.03-1.04,.22-1.5,.75-.46,.52-.79,1.17-.97,1.92-.18,.76-.26,1.53-.24,2.3,.02,.78,.24,1.45,.65,2.01,.41,.56,1,.86,1.75,.9Z"/>
    <path class="cls-1" d="M282.01,278.43c.04,.39,.1,.99,.2,1.8,.1,.81,.16,1.41,.2,1.8,.04,.39,.06,.88,.08,1.47,.01,.59-.02,1.11-.12,1.56s-.24,.86-.44,1.24c-.35,.77-.93,1.35-1.75,1.72-.82,.37-1.62,.51-2.41,.42-.79-.09-1.48-.39-2.08-.89s-.9-1.13-.9-1.9c0-.52,0-1.12,.02-1.82,.02-.69,.03-1.29,.04-1.8,0-.51,.02-1.04,.02-1.6,0-.56,0-1.03-.03-1.4-.03-.37-.08-.71-.15-1.01-.07-.3-.17-.5-.31-.59-.14-.09-.33-.09-.56-.01-.56,.27-.93,.67-1.09,1.17-.16,.51-.26,1.26-.2,2.16,.09,1.37,.2,2.47,.17,3.17-.04,.99-.24,1.84-.57,2.52-.38,.77-.99,1.33-1.8,1.68-.81,.35-1.61,.48-2.4,.37-.79-.11-1.47-.42-2.06-.93s-.87-1.15-.87-1.92c0-.52,.02-1.12,.04-1.82,.02-.69,.04-1.29,.07-1.8,.03-.51,.05-1.04,.07-1.6,.02-.56,.01-1.03,0-1.4-.02-.37-.07-.71-.14-1.01-.07-.3-.18-.5-.32-.59-.14-.09-.31-.1-.52-.02-.47,.22-.82,.56-1.05,1-.24,.44-.37,1.04-.39,1.8-.02,.76,0,1.46,.05,2.11,.06,.65,.17,1.54,.34,2.66,.12,.85-.01,1.56-.4,2.14-.39,.57-.92,.95-1.59,1.11-.67,.17-1.37,.23-2.09,.19-.72-.04-1.38-.21-1.98-.51-.6-.3-.99-.69-1.19-1.15-.35-.77-.53-1.73-.55-2.87-.02-1.14,.02-2.39,.12-3.76,.1-1.36,.02-3.19-.14-5.41-.06-.84,.28-1.5,.99-1.96,.71-.46,1.53-.69,2.46-.7,.93-.01,1.81,.11,2.66,.38,.85,.26,1.36,.62,1.53,1.08,.05,.06,.09,.1,.11,.11,.02,.01,.07-.01,.13-.08,.06-.06,.15-.14,.25-.23,.1-.09,.24-.19,.42-.29,.18-.1,.39-.2,.63-.3,.24-.1,.56-.2,.94-.29,.38-.09,.81-.16,1.26-.19,1.66-.13,2.97,.28,3.89,1.19,0-.1,.04-.06,.11,.12,.03,.04,.05,.06,.08,.09,.08,.04,.17,.02,.27-.06,.1-.08,.27-.2,.5-.36,.23-.16,.51-.31,.86-.45,.34-.15,.85-.27,1.52-.38,.67-.11,1.46-.18,2.34-.18,1.94,0,3.34,.54,4.17,1.57,.83,1.04,1.35,2.6,1.55,4.66Z"/>
    <path class="cls-1" d="M302.6,284.76c.2,.67,.13,1.27-.22,1.79-.35,.52-.86,.9-1.52,1.15-.67,.25-1.37,.42-2.1,.53-.73,.1-1.4,.09-1.99-.03-.6-.12-.97-.32-1.11-.58-.07-.22-.11-.33-.18-.55-.02,.04-.05,.1-.09,.18-.03,.07-.17,.21-.39,.41-.23,.2-.51,.37-.86,.51-.35,.14-.89,.27-1.64,.39-.74,.11-1.61,.16-2.58,.14-1.13-.02-2.13-.25-3-.7-.87-.45-1.53-1.01-2-1.69-.46-.68-.85-1.44-1.16-2.27-.31-.83-.47-1.65-.5-2.47-.02-.82-.03-1.61,.02-2.31,.06-.87,.29-1.76,.64-2.6,.35-.84,.81-1.62,1.39-2.34,.58-.72,1.33-1.31,2.25-1.77,.93-.46,1.97-.73,3.1-.79,.58-.03,1.12,.01,1.61,.12,.49,.1,.86,.24,1.13,.41,.26,.17,.48,.35,.66,.53,.17,.18,.29,.34,.35,.48,.03,.07,.05,.11,.09,.18-.07-.31-.07-.61,0-.9,.08-.38,.37-.7,.85-.98,.48-.27,1.04-.44,1.67-.51,.63-.07,1.26-.07,1.89,0,.63,.07,1.17,.26,1.64,.57,.47,.31,.75,.74,.82,1.24,.13,.9,.18,2,.2,3.22,.03,1.22,.13,2.71,.32,4.48,.19,1.76,.43,3.15,.73,4.17Zm-7.69-2.4c0-.13,0-.44,0-.87,0-.43,0-.95-.02-1.54-.02-.59-.06-1.15-.12-1.67-.06-.52-.15-.87-.26-1.03-.05-.04-.11-.08-.18-.12-.07-.04-.22-.1-.47-.2-.25-.09-.48-.15-.68-.18-.21-.03-.46-.06-.76-.07-.3-.02-.53,.04-.71,.17-.35,.18-.63,.38-.82,.61-.2,.23-.34,.52-.43,.89-.09,.37-.16,.87-.17,1.48-.01,.49,.05,1.02,.16,1.56,.11,.55,.31,1.04,.59,1.5,.28,.45,.62,.73,1.01,.81,.7,.14,1.36,.04,1.94-.29,.58-.33,.92-.71,.92-1.05Z"/>
    <path class="cls-1" d="M314.59,270.89c.11-.3,.45-.55,1.01-.75,.56-.2,1.19-.3,1.91-.32,.71-.02,1.41,.05,2.09,.2,.68,.15,1.23,.45,1.65,.91,.42,.46,.58,1.03,.5,1.7-.13,1.07-.14,2.37-.06,3.89,.08,1.52,.2,2.79,.35,3.8,.16,1.01,.23,1.99,.29,2.86,.01,.16,.06,.49,.12,.97,.06,.48,.12,.95,.18,1.42,.06,.46,.07,1.04,.04,1.73-.04,.69-.13,1.34-.28,1.93-.26,1-.97,1.87-2.1,2.58-1.13,.71-2.39,1.2-3.77,1.46-1.38,.26-2.77,.36-4.16,.31-1.39-.05-2.54-.27-3.33-.67-.93-.48-1.46-1.19-1.56-1.97-.1-.78,.21-1.47,.9-2.06,.69-.59,1.5-.77,2.42-.53,.49,.15,1.07,.21,1.74,.17,.67-.04,1.29-.17,1.87-.41,.57-.24,.9-.55,.97-.93,.03-.71,.05-1.07,.08-1.78-.02,.02-.05,.07-.09,.13-.03,.07-.13,.19-.28,.37-.16,.18-.36,.35-.61,.51-.25,.16-.62,.32-1.1,.48-.49,.17-1.04,.28-1.63,.35-1.21,.16-2.31,.17-3.24-.04-.94-.21-1.68-.52-2.24-.91-.55-.4-1.04-.95-1.45-1.66-.41-.71-.71-1.35-.87-1.92-.17-.57-.36-1.29-.49-2.11-.11-.68-.17-1.46-.23-2.27s.03-1.66,.26-2.52c.23-.87,.53-1.66,.92-2.38,.39-.72,.98-1.34,1.77-1.87,.79-.52,1.73-.86,2.81-1.01,.93-.13,1.76-.2,2.49-.19,.73,.01,1.28,.07,1.64,.19,.37,.11,.67,.24,.9,.37,.23,.14,.37,.25,.43,.35,.04,.07,.06,.11,.09,.18-.06-.08-.03-.27,.08-.57Zm.33,10.42c.11-.24,.14-.77,.09-1.6-.05-.83-.11-1.56-.2-2.2s-.14-1.08-.19-1.32c-.08-.36-.44-.68-1.05-.94-.62-.26-1.28-.27-1.97-.02-.52,.19-.89,.71-1.09,1.55-.2,.85-.25,1.68-.13,2.47,.14,.92,.35,1.57,.58,1.95,.24,.38,.64,.67,1.21,.87,.43,.11,.84,.11,1.25-.01,.41-.12,.76-.27,1.06-.47,.18-.12,.27-.17,.44-.29Z"/>
    <path class="cls-1" d="M337.33,278.8c1.02-.65,2.04-.74,3.08-.25,1.04,.49,1.64,1.2,1.78,2.13,.15,.93-.21,1.86-1.02,2.48-1.04,.79-2.72,1.36-4.66,1.77-1.94,.41-3.69,.52-5.24,.39-2.24-.2-4.1-.98-5.55-2.35-1.45-1.37-2.29-3.26-2.55-5.65-.18-1.73,.05-3.24,.7-4.54,.65-1.3,1.59-2.31,2.84-3.05,1.25-.74,2.75-1.21,4.5-1.43s3.66-.15,5.71,.2c.98,.18,1.83,.55,2.55,1.11,.72,.56,1.24,1.2,1.53,1.93,.3,.73,.44,1.47,.41,2.22-.02,.75-.29,1.44-.8,2.07-.51,.64-1.22,1.08-2.09,1.35-1.37,.42-2.7,.76-3.96,.96-1.26,.2-2.17,.3-2.75,.31-.33,0-.49,0-.82,0,.1,.41,.33,.75,.69,1.03,.36,.28,.8,.47,1.33,.57,.52,.1,1.17,.05,1.93-.16,.76-.21,1.56-.58,2.38-1.11Zm-4.83-5.95c-.7,.1-1.23,.33-1.57,.66-.34,.33-.33,.64,.02,.94,.2,.18,.81,.19,1.83,0,1.02-.18,1.6-.41,1.74-.68,.08-.16,.06-.32-.08-.49-.14-.17-.39-.3-.75-.39-.36-.09-.77-.11-1.19-.05Z"/>
  </g>
  <g>
    <path class="cls-1" d="M227.01,310.94c-.39,.1-.72,.43-.91,1.01-.19,.58-.28,1.12-.28,1.62,0,.49,.04,.94,.11,1.34,.05,.27,.49,.45,1.33,.53,.84,.08,1.95,.13,3.34,.15,1.19,.02,2.08,.43,2.65,1.22,.57,.79,.63,1.59,.17,2.38-.46,.79-1.37,1.18-2.69,1.18-.64,0-1.22,0-1.73-.03s-.89-.06-1.13-.09-.45-.07-.62-.09c-.17-.03-.28-.04-.34-.03-.06,0-.11,.02-.17,.03-.06,.02-.19,.05-.33,.13-.12,.07-.19,.29-.2,.57-.01,.28,.01,.63,.07,1.04,.05,.41,.07,.92,.05,1.53-.02,.61-.18,1.31-.44,2.1-.28,.84-1.02,1.45-2.24,1.8-1.21,.34-2.48,.43-3.8,.26-1.32-.17-2.5-.56-3.55-1.18-1.05-.61-1.56-1.33-1.53-2.14,.02-.46,.04-.86,.07-1.21,.02-.35,.06-.63,.11-.84s.11-.58,.19-1.08,.11-1.06,.21-1.48c.04-.15-.16-.29-.67-.37s-1.24-.17-2.19-.3c-.96-.13-1.82-.33-2.58-.61-.58-.21-.97-.7-1.17-1.45-.2-.75-.06-1.49,.4-2.21,.46-.72,1.21-1.12,2.24-1.23,.42-.05,.86-.06,1.3-.02,.45,.04,.85,.1,1.19,.17,.35,.08,.67,.15,.96,.21,.29,.06,.52,.08,.67,.05,.15-.02,.24-.09,.25-.2-.03-.4-.09-.97-.18-1.71-.09-.74-.14-1.26-.14-1.55,0-.3,.06-.66,.17-1.1,.11-.44,.3-.85,.58-1.23,.64-.93,1.66-1.61,3.06-2.05,1.4-.44,2.9-.64,4.49-.62,1.6,.02,3.32,.18,5.16,.5,3.31,.57,5.66,1.69,7.05,3.25,1.09,1.23,1.23,2.26,.31,3.11-.56,.53-1.44,.8-2.63,.84-.93,.03-1.74-.02-2.42-.15-.68-.13-1.18-.29-1.49-.48-.32-.19-.6-.4-.86-.62-.26-.22-.43-.42-.53-.59s-.27-.3-.52-.38c-.25-.08-.52-.06-.78,0Z"/>
    <path class="cls-1" d="M260.93,315.58c.51,.51,.71,1.07,.58,1.67-.12,.6-.52,1.1-1.18,1.51-.67,.41-1.51,.7-2.52,.86-1.02,.16-2.16,.06-3.43-.29-2.9-.84-4.81-1.17-5.76-.93-.45,.09-.85,.25-1.18,.48s-.56,.56-.7,.98c-.14,.42-.24,.82-.32,1.21-.08,.39-.09,.93-.03,1.6,.06,.68,.11,1.25,.17,1.7,.05,.45,.13,1.09,.24,1.9,.13,.9-.07,1.65-.64,2.23s-1.33,.94-2.28,1.09c-.95,.14-1.94,.16-2.95,.06-1.01-.1-1.95-.33-2.78-.7-.84-.37-1.4-.8-1.67-1.3-.48-.84-.69-1.87-.66-3.07,.04-1.2,.16-2.52,.36-3.94,.21-1.43,.17-3.37,.02-5.71-.06-.89,.46-1.56,1.49-1.99s2.2-.61,3.49-.56c1.29,.05,2.54,.25,3.74,.58s1.91,.74,2.1,1.23c.06,.04,.1,.06,.16,.11,.27-.12,.46-.22,.57-.31,.12-.09,.32-.19,.6-.3,.28-.11,.58-.21,.9-.3,.32-.09,.76-.17,1.32-.23,.56-.06,1.16-.07,1.78-.05,1.78,.04,3.5,.23,5.06,.68,1.56,.45,2.73,1.05,3.49,1.8Z"/>
    <path class="cls-1" d="M289.79,327.16c.26,.71,.13,1.34-.4,1.89-.53,.55-1.29,.95-2.28,1.21-.99,.26-2.03,.44-3.1,.54-1.08,.1-2.05,.08-2.92-.06-.87-.14-1.4-.35-1.6-.63-.1-.23-.15-.35-.24-.58-.04,.04-.09,.11-.14,.18-.05,.08-.25,.22-.6,.42-.34,.2-.77,.37-1.29,.51-.51,.14-1.32,.26-2.42,.36-1.1,.1-2.36,.12-3.78,.06-1.65-.07-3.11-.35-4.35-.86-1.25-.51-2.19-1.14-2.83-1.88-.64-.74-1.16-1.56-1.57-2.45-.4-.89-.6-1.77-.58-2.63,.02-.86,.05-1.7,.16-2.44,.13-.91,.53-1.83,1.09-2.7,.56-.86,1.28-1.66,2.16-2.4,.88-.73,2.01-1.32,3.38-1.76,1.37-.44,2.89-.69,4.55-.71,.84-.01,1.62,.05,2.33,.17,.7,.12,1.24,.28,1.62,.47,.37,.19,.68,.38,.93,.57,.25,.19,.41,.36,.48,.51,.05,.08,.07,.12,.11,.19-.08-.33-.07-.65,.04-.95,.14-.39,.57-.73,1.28-1.01,.71-.28,1.53-.45,2.45-.51,.92-.06,1.83-.05,2.74,.02,.91,.08,1.69,.28,2.35,.61,.66,.33,1.06,.78,1.14,1.31,.14,.94,.17,2.11,.15,3.4s.07,2.86,.26,4.72c.2,1.86,.49,3.33,.88,4.4Zm-11.12-2.61c.01-.14,.01-.46,.04-.92,.03-.46,.04-1,.05-1.62,0-.62-.02-1.21-.09-1.77s-.18-.92-.33-1.09c-.08-.04-.16-.08-.26-.13-.09-.04-.32-.11-.68-.22-.36-.1-.69-.17-.99-.21-.3-.04-.67-.07-1.1-.1-.43-.03-.78,.03-1.04,.16-.52,.18-.93,.39-1.23,.62-.3,.23-.52,.54-.67,.92-.15,.38-.27,.92-.33,1.56-.05,.51,.01,1.08,.15,1.65,.14,.58,.4,1.11,.78,1.6,.38,.49,.87,.79,1.43,.89,1.02,.17,1.98,.08,2.85-.25,.87-.33,1.38-.73,1.4-1.09Z"/>
    <path class="cls-1" d="M300.15,310.94c-1.01,.6-2.28,.95-3.79,1.04-1.51,.1-2.82-.09-3.91-.56-1.1-.47-1.66-1.08-1.7-1.83s.46-1.42,1.49-2.01c1.03-.59,2.29-.93,3.78-1.02,1.49-.09,2.78,.09,3.85,.54,1.08,.46,1.65,1.06,1.7,1.81,.06,.75-.42,1.43-1.43,2.03Zm1.55,3.99c.57,.99,.99,2.63,1.27,4.88,.29,2.24,.29,4.43-.08,6.43-.25,1.36-1.38,2.36-3.31,2.93-1.92,.57-3.78,.61-5.54,.13-1.76-.48-2.52-1.32-2.32-2.48,.3-1.77,.25-3.62-.11-5.5,0-.15-.06-.48-.16-.99-.1-.51-.17-.87-.19-1.07-.03-.21-.05-.53-.08-.96-.02-.44,0-.86,.05-1.28,.05-.42,.14-.89,.26-1.42,.15-.66,.7-1.2,1.64-1.63,.94-.42,1.98-.67,3.1-.76s2.22,.03,3.28,.32c1.06,.3,1.8,.77,2.17,1.42Z"/>
    <path class="cls-1" d="M328.35,318.63c1.53,.58,2.5,1.34,2.91,2.29,.4,.94,.3,1.89-.33,2.82-.62,.94-1.72,1.82-3.3,2.65-1.58,.83-3.46,1.44-5.57,1.79-1.82,.3-3.59,.46-5.27,.54-1.68,.08-3.09,.08-4.24,0-1.15-.07-2.23-.21-3.26-.4-1.02-.19-1.78-.38-2.28-.54-.49-.17-.94-.33-1.34-.5-.72-.31-1.12-.76-1.2-1.35-.08-.58,.11-1.13,.59-1.64,.47-.51,1.16-.92,2.04-1.24,.89-.32,1.97-.37,3.25-.16,1.08,.18,2,.32,2.73,.43,.74,.1,1.46,.19,2.18,.25,.71,.07,1.29,.1,1.74,.1,.44,0,.84-.03,1.2-.08,.36-.05,.64-.14,.83-.27,.2-.13,.32-.31,.37-.5,.1-.34-.24-.58-1.06-.7-.82-.13-1.86-.21-3.12-.25-1.26-.04-2.56-.13-3.89-.25-1.33-.12-2.5-.42-3.53-.89-1.03-.47-1.66-1.11-1.87-1.89-.29-1.08-.15-2.12,.39-3.09,.54-.97,1.34-1.77,2.4-2.41,1.06-.64,2.17-1.18,3.34-1.6,1.17-.42,2.32-.76,3.44-.98,3.03-.59,5.92-.65,8.59-.23,2.06,.33,2.91,1.09,2.61,2.27-.23,.87-.94,1.59-2.16,2.1-.9,.38-1.77,.48-2.63,.3-1.9-.38-3.39-.43-4.48-.14-1.1,.3-1.53,.88-1.28,1.72,.11,.38,.6,.63,1.44,.75,.84,.11,1.82,.15,2.94,.11,1.11-.04,2.42,.01,3.92,.16,1.5,.15,2.8,.43,3.89,.86Z"/>
  </g>
  <path class="cls-14" d="M372.38,300.08c-1.8,5.51-1.55,11.13,0,16.39,1.79,6.04,9.71,12.1,18.75,16.38l4.6-52c-10.48,2.02-19.95,8.76-23.36,19.22Z"/>
  <path class="cls-7" d="M385.48,293.34c-.61,3.87,2.91,8.39,8.12,11.68l1.76-19.85c-5.19,1.62-9.31,4.57-9.88,8.17Z"/>
  <path class="cls-11" d="M158.86,331.67c1.5,.19,2.62,1.15,2.5,2.16-.12,1.01-1.44,1.67-2.95,1.49-1.5-.19-2.62-1.15-2.5-2.16s1.44-1.67,2.95-1.49Z"/>
  <path class="cls-3" d="M359.36,326.63c-10.32,13.29-11.01,31.73-4.33,46.8,5.01,11.3,17.96,17.5,30.75,20.01l7.64-86.38c-12.43,.97-24.61,7.4-34.07,19.58Z"/>
  <path class="cls-7" d="M369.56,323.27c-12.02,10.9-17.84,31.75-9.78,39.55,5.88,5.69,18.6,3.92,28.91-2.32l4.21-47.55c-7.88,.32-17.24,4.79-23.34,10.32Z"/>
  <path class="cls-13" d="M172.66,375.87c6.24-3.86,10.8-9.6,13.12-16.06,2.58-7.18,2.38-15.26-1.39-22.67-3.69-7.27-10.07-13.26-17.69-16.23-8.21-3.2-17.73-2.78-25.76,.68l2.03,49.53c11.16,5.4,24.22,8.13,29.69,4.75Z"/>
  <path class="cls-7" d="M179.5,338.58c1.09-6.71-9.52-14.65-19.39-16.01-6.7-.92-14.57,.98-18.95,4.39l.54,13.22c4.24,4.18,11.33,7.61,18.22,7.92,8.06,.37,18.58-3.4,19.58-9.53Zm-20.34-1.35c-4.19-.37-8.1-3.92-7.57-5.86,.49-1.79,4.75-2.17,7.28-1.96,3.52,.3,8.08,2.13,8.05,4.19-.03,1.93-4.14,3.95-7.76,3.63Z"/>
  <path class="cls-12" d="M385.22,399.69c-1.24,8.87-6.88,16.5-14.99,20.3-16.2,7.6-57.99,18.49-101.33,18.49s-90.63-12.26-109.19-20.43c-8.81-3.88-14.83-12.22-15.7-21.81l-9-219.25,269.34,6.73-19.11,215.96Z"/>
  <g>
    <path class="cls-8" d="M269.23,386.14c-50.45,0-103.03-13.94-124.13-23.22-.87-.38-1.71-.82-2.52-1.27l1.42,34.61c.87,9.59,6.89,17.93,15.7,21.81,18.56,8.17,64.81,20.43,109.19,20.43s85.13-10.9,101.33-18.49c8.11-3.8,13.75-11.43,14.99-20.3l3.26-36.89c-1.28,.87-2.63,1.65-4.06,2.32-18.42,8.64-65.93,21.02-115.2,21.02Z"/>
    <path class="cls-5" d="M181.45,383.54c-1.97-3.14-3.43-6.31-4.55-10.09-13.44-3.56-24.5-7.32-31.8-10.53-.87-.38-1.71-.82-2.52-1.27l1.42,34.61c.44,4.79,2.16,9.28,4.88,13.04,.68,.94,1.42,1.84,2.22,2.69,.46,.49,.94,.95,1.44,1.4,1.33,1.21,2.79,2.29,4.37,3.22,.9,.53,1.83,1.02,2.8,1.45,8.01,3.52,21.18,7.81,37.12,11.54,.48,.11,.97,.23,1.46,.34,1.82,.42,3.67,.83,5.55,1.23,1.86,.4,3.76,.78,5.68,1.16,1.86,.36,3.74,.72,5.65,1.06,.45,.08,.91,.16,1.36,.24,2.14,.38,4.32,.74,6.51,1.08,.41,.06,.81,.13,1.22,.19,2.13,.32,4.28,.63,6.45,.92,12.42,1.65,25.38,2.68,38.2,2.68h0c1.29,0,2.59-.01,3.88-.03,8.76-.13,16.98-.71,24.66-1.61-79.03-7.52-109.37-42.75-115.98-53.31Z"/>
  </g>
</svg>