<?xml version="1.0" encoding="UTF-8"?>
<svg xmlns="http://www.w3.org/2000/svg" xmlns:xlink="http://www.w3.org/1999/xlink" viewBox="0 0 540 540">
  <defs>
    <style>
      .cls-1 {
        fill: #3f3e3d;
        mix-blend-mode: overlay;
        opacity: .96;
      }

      .cls-2 {
        fill: #fff9f3;
        opacity: .57;
      }

      .cls-3 {
        isolation: isolate;
      }

      .cls-4 {
        fill: #acd1e5;
      }

      .cls-5 {
        fill: #4d89c4;
      }

      .cls-6 {
        clip-path: url(#clippath);
      }

      .cls-7 {
        fill: none;
      }

      .cls-8 {
        fill: #deeef9;
      }

      .cls-9 {
        fill: url(#linear-gradient);
      }
    </style>
    <linearGradient id="linear-gradient" x1="268.9" y1="176.24" x2="268.9" y2="232.79" gradientUnits="userSpaceOnUse">
      <stop offset=".35" stop-color="#ffeedc"/>
      <stop offset=".99" stop-color="#f9e3d4"/>
    </linearGradient>
    <clipPath id="clippath">
      <path class="cls-7" d="m445.18,343.76s-71.43,20-175.18,20-175.18-20-175.18-20v-144.57s86.74,20,175.18,20,175.18-20,175.18-20v144.57Z"/>
    </clipPath>
  </defs>
  <g class="cls-3">
    <g id="_Layer_" data-name="&amp;lt;Layer&amp;gt;">
      <g>
        <ellipse class="cls-4" cx="270" cy="200.14" rx="175.18" ry="19.06"/>
        <path class="cls-9" d="m94.82,197.63c1.07-2.72,7.48-18.31,20.7-21,7.35-1.5,14.43,1.49,24.38,5.69,6.23,2.63,11.12,5.5,14.46,7.65,4.07-5.82,10.86-8.64,16.98-7.15,5.72,1.39,8.69,6.01,9.38,7.15.59-.78,7.36-9.39,17.72-8.8,9.58.55,18.15,8.72,19.69,19.85,2.26-2.24,8.32-7.64,17.86-9.35,12.72-2.29,22.42,3.65,24.66,5.1.81-1.57,7.68-14.3,22.97-17.2,16.29-3.1,27.83,7.66,28.9,8.7,3.87-2.42,13.03-7.38,25.49-7.27,17.8.16,29.51,10.57,32.33,13.22,3.06-2.88,8.77-7.44,17.13-9.79,16.04-4.5,29.48,2.57,32.58,4.3,5-3,11.1-3.23,15.77-.46,6.14,3.64,8.92,11.95,5.95,19.56-33.08,10.64-75.05,20.53-124.16,23.81-97.03,6.48-175.48-15.97-222.8-34.02Z"/>
        <path class="cls-8" d="m445.18,343.76s-71.43,20-175.18,20-175.18-20-175.18-20v-144.57s86.74,20,175.18,20,175.18-20,175.18-20v144.57Z"/>
        <path class="cls-2" d="m445.18,319.66s-71.43,12.25-175.18,12.25-175.18-12.25-175.18-12.25v-88.54s86.74,12.25,175.18,12.25,175.18-12.25,175.18-12.25v88.54Z"/>
        <g>
          <path class="cls-5" d="m140.7,290.66c-3.39.24-5.54-.74-6.13-.09s-.39,4.04-1.43,7.7c-1.39,4.89-8.41,3.78-8.25-.75.11-3.17.97-5.89,1.28-10.9.21-3.56-.54-10.21.74-13.23,1.75-4.13,12.84-.32,17.1.2,3.84.47,3.21,8.04-.61,7.38-2.68-.47-6.26-1.53-7.51-1.38-1.25.15-1.41,2.6-.98,3.6.41.96,2.37,1,5.88,1.29,2.98.25,3.31,5.94-.08,6.18Z"/>
          <path class="cls-5" d="m167.49,298.05c1.33,3.14-2.76,7.67-6.21,5.97-3.65-1.8-5.72-7.37-6.08-9.95.16,1.25.67,4.25-.22,6.89-1.3,3.85-8.47,3.21-9.13-.34-.83-4.46.69-8.32,1.12-12.66.38-3.76-.09-6.93.18-10.06.49-5.74,7.15-5.56,12.38-4.61,5.39.98,8.55,5.66,9.02,9.52.85,7-2.65,9.8-5.26,9.57,0,0,2.7,2.12,4.2,5.67Zm-9.06-16.61c-.49-.61-1.25-1.08-1.95-.15-.53.71-.34,3.93-.32,4.74.03,1.38,2.19,2.24,3.2-.29.61-1.53.06-3.08-.93-4.31Z"/>
          <path class="cls-5" d="m169.96,285.01c1.47-7.51,5.69-10.56,12.67-10.16,10.3.59,11.75,8.89,11.55,16.2-.2,7.31-1.77,15.87-14.09,15.17-12.47-.7-11.6-13.7-10.14-21.21Zm11.39,13.22c3.97.23,5.68-15.28.83-15.56-3.58-.21-5.61,15.28-.83,15.56Z"/>
          <path class="cls-5" d="m217.57,302.18c.51-2.56-.27-7.1-.27-7.1-1.04.53-2.44,7.24-2.87,8.33-1.14,2.9-6.41,2.44-7.43-.02-.95-2.3-1.17-8.35-2.23-8.4,0,0-1.08,3.5-.76,7.24.38,4.47-6.98,5.99-8.58,1.31-.99-2.9-.47-7.19,0-11.65.57-5.31,1-9.88,2.47-12.87,1.84-3.75,6.57-2.77,8.97.31,2.82,3.63,4.58,10.03,4.58,10.03,0,0,2.33-5.72,4.93-8.79,3.69-4.35,7.96-4.06,9.5.92,1.82,5.89,1.63,19.93.09,23.68-1.3,3.18-9.66,3.27-8.41-2.99Z"/>
          <path class="cls-5" d="m243.16,303.59c-.23-2.86-.05-7.41-2.43-7.54-2.38-.13-2.21,4.81-3.89,8.54-2.14,4.74-9.49,3.17-9.38-.75.09-3.22,2.27-6.56,3.35-10.8,1.36-5.31,2.1-18.13,10.99-16.62,8.87,1.51,10.79,17.69,10.75,26.46-.03,5.65-8.95,6.11-9.39.7Zm-1.69-18.94c-.74-.23-1.9,5.93-1.3,6.33.61.4,2.02.47,2.21-.31.19-.78.01-5.74-.92-6.03Z"/>
          <path class="cls-5" d="m253.28,293.07c.09-7.99,3.56-13.79,9.31-15.68,2.82-.93,5.93-.67,8.48.49,3.08,1.4,2.04,7.3-.72,7.26-1.09-.02-2.87-1.04-4.7-.15-1.27.62-2.22,2.36-2.78,3.92-.93,2.61-1.67,7.71.44,10.94,2.59,3.96,4.05-1.6,3.39-3-.33-.71-.7-.53-1.57-.61-2.75-.26-2.11-4.42-.78-5.14,1.57-.84,10.14-2.17,10.96,4.18.82,6.35-2.92,13.61-10.42,13.59-7.63-.02-11.74-5.66-11.63-15.78Z"/>
          <path class="cls-5" d="m277.29,304.13c-1.97-8.28-.72-20.17.31-23.48,1.03-3.31,12.13-4.08,17.68-1.63,3.05,1.35,1.97,6.79-1.27,7.13-3.21.34-7.9-1.95-8.4-.46-.33.97-.4,3.74-.08,4.45.18.39,3.9-.31,6.84.17,2.18.36,2.25,4.51.15,5.39-3.14,1.31-6.79-.11-6.93.8-.23,1.5.09,3.11.3,3.43.63.95,4.1-.58,7.65-.55,3.54.03,5.19,5.48.41,7.21-4.78,1.73-15.4,2.78-16.65-2.47Z"/>
          <path class="cls-5" d="m327.56,295.02c-3.33.65-5.58-.06-6.09.65-.51.71.1,4.05-.49,7.82-.78,5.02-7.88,4.77-8.27.25-.27-3.16.25-5.96-.05-10.98-.22-3.56-1.77-10.07-.86-13.23,1.23-4.31,12.7-1.87,16.98-1.87,3.87,0,4.16,7.6.29,7.4-2.72-.14-6.4-.76-7.61-.46-1.22.3-1.08,2.75-.54,3.69.52.91,2.47.7,5.99.57,2.99-.11,4,5.5.67,6.15Z"/>
          <path class="cls-5" d="m355.03,299.11c1.7,2.96-1.81,7.95-5.44,6.67-3.84-1.35-6.57-6.62-7.23-9.14.31,1.22,1.18,4.14.61,6.87-.82,3.98-8.01,4.21-9.1.77-1.36-4.33-.33-8.35-.42-12.7-.08-3.78-.92-6.87-1.04-10.01-.21-5.76,6.42-6.38,11.72-6.07,5.47.32,9.17,4.58,10.1,8.35,1.7,6.84-1.44,10.05-4.06,10.13,0,0,2.94,1.78,4.85,5.12Zm-11-15.39c-.56-.54-1.38-.92-1.96.09-.44.77.14,3.95.26,4.74.2,1.36,2.44,1.95,3.14-.67.42-1.59-.31-3.07-1.44-4.16Z"/>
          <path class="cls-5" d="m371.52,300.49c-.47-2.83-.66-7.38-3.05-7.31-2.39.07-1.8,4.98-3.17,8.84-1.75,4.91-9.2,3.94-9.41.03-.18-3.22,1.72-6.73,2.45-11.04.92-5.4.59-18.24,9.58-17.47,8.97.77,12.23,16.73,12.91,25.48.44,5.64-8.42,6.83-9.3,1.48Zm-3.25-18.73c-.76-.17-1.41,6.07-.77,6.42.64.35,2.05.3,2.18-.49.12-.79-.46-5.72-1.41-5.93Z"/>
          <path class="cls-5" d="m382.49,299.81c-1.21-5.13-1.97-20.65-1.44-23.32.77-3.85,7.88-4.26,8.78-.67s.52,6.12.94,12.36c.3,4.43.91,7.49,1.17,10.76.38,4.85-8.1,6.62-9.45.87Z"/>
          <path class="cls-5" d="m401.13,271.4c3.77-.94,5.94.05,7.33.74,4.7,2.33,1.44,9.54-1.62,7.8-3.23-1.84-5.32-.97-4.79,2.04.53,3.01,6.1.8,10.44,4.94,5.47,5.22,2.39,14.07-4.83,15.4-8.01,1.48-12.43-1.67-13.73-2.96-2.56-2.52-.6-9.1,3.59-7.25,5.11,2.26,8.44,3.94,8.69,1.82.38-3.27-11.41-1.69-12.67-9.37-1.35-8.2,4.06-12.29,7.6-13.17Z"/>
        </g>
        <g class="cls-6">
          <path class="cls-1" d="m131.39,179.64c-1.98,53.01-3.97,106.02-5.95,159.02,6.71,3.27,13.79,6.41,21.26,9.35,40.23,15.86,78.37,20.79,109.7,21.26-61.23-6.52-122.46-13.04-183.69-19.56,3.97-58.11,7.94-116.22,11.91-174.33,15.59,1.42,31.18,2.83,46.77,4.25Z"/>
        </g>
      </g>
    </g>
  </g>
</svg>