<?xml version="1.0" encoding="UTF-8"?>
<svg xmlns="http://www.w3.org/2000/svg" xmlns:xlink="http://www.w3.org/1999/xlink" viewBox="0 0 540 540">
  <defs>
    <style>
      .cls-1 {
        fill: #ffecca;
      }

      .cls-2 {
        fill: #9db6fc;
      }

      .cls-3 {
        fill: #8ca6e0;
      }

      .cls-4 {
        clip-path: url(#clippath-2);
      }

      .cls-5 {
        isolation: isolate;
      }

      .cls-6 {
        clip-path: url(#clippath-1);
      }

      .cls-7 {
        fill: #f7e1bc;
      }

      .cls-8 {
        fill: #bababa;
      }

      .cls-8, .cls-9 {
        mix-blend-mode: overlay;
      }

      .cls-10 {
        fill: #fff;
        font-family: OmpalumpaRegular, Ompalumpa;
        font-size: 44px;
      }

      .cls-11 {
        clip-path: url(#clippath);
      }

      .cls-12 {
        fill: none;
      }

      .cls-13 {
        fill: #ffc299;
        stroke: #f4aa73;
        stroke-miterlimit: 10;
        stroke-width: 9.3px;
      }

      .cls-9 {
        fill: #595959;
      }
    </style>
    <clipPath id="clippath">
      <path class="cls-12" d="m334.24,483.64h-128.48c-15.15,0-27.43-14.36-27.43-32.08v-208.61c0-30.26,6.56-60.03,19.07-86.52l25.11-53.18h94.98l26.02,56.78c11.92,26,18.16,55.05,18.16,84.56v206.98c0,17.72-12.28,32.08-27.43,32.08Z"/>
    </clipPath>
    <clipPath id="clippath-1">
      <path class="cls-12" d="m334.24,483.64h-128.48c-15.15,0-27.43-14.36-27.43-32.08v-208.61c0-30.26,6.56-60.03,19.07-86.52l25.11-53.18h94.98l26.02,56.78c11.92,26,18.16,55.05,18.16,84.56v206.98c0,17.72-12.28,32.08-27.43,32.08Z"/>
    </clipPath>
    <clipPath id="clippath-2">
      <path class="cls-12" d="m323.27,110.4l-14.9,1.66c-25.53,2.84-51.21,2.84-76.74,0l-14.9-1.66v-40.29c0-7.59,4.94-13.75,11.03-13.75h84.46c6.09,0,11.03,6.15,11.03,13.75v40.29Z"/>
    </clipPath>
  </defs>
  <g class="cls-5">
    <g id="_Layer_" data-name="&amp;lt;Layer&amp;gt;">
      <g>
        <path class="cls-1" d="m334.24,483.64h-128.48c-15.15,0-27.43-14.36-27.43-32.08v-208.61c0-30.26,6.56-60.03,19.07-86.52l25.11-53.18h94.98l26.02,56.78c11.92,26,18.16,55.05,18.16,84.56v206.98c0,17.72-12.28,32.08-27.43,32.08Z"/>
        <path class="cls-8" d="m292.95,132.15c-5.29,1.86-8.07,9.04-8.5,14.46-1.2,14.91,15.06,20.14,26.36,37.42,14.47,22.13,2.23,35.6,13.61,92.69,2.36,11.85,6.48,32.55,10.2,32.31,5-.31,6.11-38.19,6.8-62.08,1.66-56.85-3.81-70.25-6.8-76.54-10.06-21.14-30.39-42.23-41.67-38.27Z"/>
        <g class="cls-11">
          <path class="cls-9" d="m267.16,500.06c-14.44-8.75-36.49-25.22-48.85-52.92-9.65-21.62-9.31-40.93-9.16-50.88.69-46,.58-109.84.95-189.29,1.72-12.48,5.33-29.26,13.3-47.83,8.25-19.23,18.36-33.78,26.46-43.76-27.14-1.02-54.28-2.04-81.41-3.05-19.72,46.8-45.35,124.45-45.8,222.87-.32,71.28,12.68,130.32,25.44,171.99,39.69-2.37,79.38-4.75,119.07-7.12Z"/>
        </g>
        <g class="cls-6">
          <path class="cls-13" d="m385.65,343.5l-66.39,5.74c-32.78,2.83-65.75,2.83-98.53,0l-66.39-5.74v-128.4l66.39,5.74c32.78,2.83,65.75,2.83,98.53,0l66.39-5.74v128.4Z"/>
        </g>
        <text class="cls-10" transform="translate(217.35 298.91)"><tspan x="0" y="0">LASSI</tspan></text>
        <g>
          <g>
            <path class="cls-2" d="m323.27,110.4l-14.9,1.66c-25.53,2.84-51.21,2.84-76.74,0l-14.9-1.66v-40.29c0-7.59,4.94-13.75,11.03-13.75h84.46c6.09,0,11.03,6.15,11.03,13.75v40.29Z"/>
            <g>
              <rect class="cls-3" x="226.95" y="66.84" width="5.12" height="31.87" rx="2.56" ry="2.56"/>
              <rect class="cls-3" x="240.33" y="66.84" width="5.12" height="31.87" rx="2.56" ry="2.56"/>
              <rect class="cls-3" x="253.72" y="66.84" width="5.12" height="31.87" rx="2.56" ry="2.56"/>
              <rect class="cls-3" x="267.1" y="66.84" width="5.12" height="31.87" rx="2.56" ry="2.56"/>
              <rect class="cls-3" x="280.49" y="66.84" width="5.12" height="31.87" rx="2.56" ry="2.56"/>
              <rect class="cls-3" x="293.87" y="66.84" width="5.12" height="31.87" rx="2.56" ry="2.56"/>
              <rect class="cls-3" x="307.93" y="66.84" width="5.12" height="31.87" rx="2.56" ry="2.56"/>
            </g>
            <g class="cls-4">
              <path class="cls-9" d="m241.46,133.7c-3.12-9.21-6.93-24.29-5.85-43,1.38-23.87,10.01-41.57,15.27-50.63h-63.1c-22.45,21.08-25.01,54.78-8.14,76.33,13.77,17.58,38.65,24.73,61.82,17.3Z"/>
            </g>
          </g>
          <path class="cls-7" d="m322.41,117.58l-5.97.51c-30.9,2.64-61.98,2.64-92.88,0l-5.97-.51c-2.68,0-4.87-2.19-4.87-4.87s2.19-4.87,4.87-4.87c16.12,1.25,33.49,2.01,51.94,2.02,18.81.01,36.49-.76,52.89-2.02,2.67,0,4.87,2.2,4.87,4.87s-2.19,4.87-4.87,4.87Z"/>
        </g>
      </g>
    </g>
  </g>
</svg>