<?xml version="1.0" encoding="utf-8"?>
<!-- Generator: Adobe Illustrator 27.4.0, SVG Export Plug-In . SVG Version: 6.00 Build 0)  -->
<svg version="1.1" id="Layer_1" xmlns="http://www.w3.org/2000/svg" xmlns:xlink="http://www.w3.org/1999/xlink" x="0px" y="0px"
	 viewBox="0 0 540 540" style="enable-background:new 0 0 540 540;" xml:space="preserve">
<style type="text/css">
	.st0{fill:#FFECCA;}
	.st1{fill:#FFF5E3;}
	.st2{fill:#FFE6BA;}
	.st3{fill:#FFC299;}
	.st4{fill:#F4AA73;}
	.st5{enable-background:new    ;}
	.st6{fill:#FFFFFF;}
	.st7{fill:#F0B690;}
	.st8{fill:#DE9B69;}
	.st9{fill:#F7E1BC;}
</style>
<g>
	<g id="_Layer_">
		<g>
			<path class="st0" d="M334.2,475.6c0,0-30.8,8-64.9,8s-63.6-8-63.6-8c-16.4-3.7-27.4-14.4-27.4-32.1V242.9
				c0-30.3,6.6-60,19.1-86.5l25.1-53.2h95l26,56.8c11.9,26,18.2,55.1,18.2,84.6v199C361.7,461.3,352.4,470.1,334.2,475.6
				L334.2,475.6z"/>
			<path class="st1" d="M293,132.1c-5.3,1.9-8.1,9-8.5,14.5c-1.2,14.9,15.1,20.1,26.4,37.4c14.5,22.1,2.2,35.6,13.6,92.7
				c2.4,11.9,6.5,32.5,10.2,32.3c5-0.3,6.1-38.2,6.8-62.1c1.7-56.8-3.8-70.2-6.8-76.5C324.6,149.3,304.2,128.2,293,132.1L293,132.1z
				"/>
			<path class="st2" d="M209.1,396.3c0.7-46,0.6-109.8,0.9-189.3c1.7-12.5,5.3-29.3,13.3-47.8c8.2-19.2,18.4-33.8,26.5-43.8
				l-32.5-1.2l-20,42.3c-3.4,7.2-6.3,14.6-8.8,22.1c-6.8,20.5-10.3,42.3-10.3,64.4v200.6c0,2.6,0.3,5.2,0.8,7.9
				c2.8,13,12.8,21.1,26.6,24.2c0,0,14.6,4,35.2,6.3c-8.4-9.2-16.9-22-22.6-34.8C208.7,425.5,209,406.2,209.1,396.3L209.1,396.3z"/>
			<path class="st3" d="M359.9,217.3l-40.6,3.5c-32.8,2.8-65.8,2.8-98.5,0l-40.8-3.5c-1.1,8.5-1.6,17-1.6,25.6v102.6l42.4,3.7
				c32.8,2.8,65.8,2.8,98.5,0l42.4-3.7v-101C361.7,235.4,361.1,226.3,359.9,217.3L359.9,217.3z"/>
			<g>
				<path class="st4" d="M220.3,225.5c33,2.9,66.4,2.9,99.3,0l40.8-3.5c-0.3-3.1-0.8-6.2-1.2-9.2l-40.4,3.5
					c-32.4,2.8-65.3,2.8-97.7,0l-40.6-3.5c-0.4,3.1-0.8,6.1-1.1,9.2L220.3,225.5L220.3,225.5z"/>
				<path class="st4" d="M318.9,344.6c-32.4,2.8-65.3,2.8-97.7,0l-42.8-3.7v9.3l42,3.6c16.5,1.4,33.1,2.1,49.7,2.1
					s33.2-0.7,49.7-2.1l42-3.6v-9.3L318.9,344.6z"/>
			</g>
			<g class="st5">
				<path class="st6" d="M235.2,297.4c-1.3,0.4-2.7,0.8-4.3,1c-1.6,0.2-3.2,0.4-4.8,0.3c-1.6,0-3.1-0.4-4.4-1
					c-1.3-0.6-2.2-1.5-2.6-2.7c-0.5-1.5-0.9-3.6-1-6.1c-0.1-2.5-0.1-5,0-7.5c0.2-2.4,0.4-4.7,0.7-6.7c0.3-2,0.5-3.5,0.8-4.4
					c0.2-0.6,0.6-1.1,1.2-1.5c0.6-0.4,1.3-0.6,2-0.6s1.5,0.1,2.2,0.3c0.7,0.2,1.3,0.6,1.8,1.3c0.5,0.6,0.8,1.4,0.9,2.3
					c0.1,1.3,0.1,3.5-0.1,6.6c-0.2,3.1-0.4,5.7-0.5,7.6c-0.2,2-0.2,3.4,0,4.2c0.1,0.2,0.4,0.3,0.7,0.3s0.8-0.1,1.3-0.2
					c0.5-0.1,1.1-0.2,1.7-0.4c0.6-0.1,1.3-0.3,2-0.4c0.7-0.1,1.4-0.2,2-0.1c0.9,0,1.6,0.3,2.2,1c0.6,0.7,0.9,1.4,1.1,2.2
					c0.1,0.8,0,1.7-0.5,2.6C237.1,296.4,236.3,297,235.2,297.4z"/>
				<path class="st6" d="M262.3,293.6c0,1.1-0.3,2-0.9,2.8c-0.6,0.8-1.3,1.3-2.2,1.5c-0.9,0.2-1.7,0.3-2.6,0.2
					c-0.9-0.1-1.7-0.5-2.3-1.2s-1-1.5-1.1-2.6c0-0.3-0.1-0.7-0.1-1.3s-0.1-1.1-0.1-1.5c0-0.4-0.1-0.8-0.2-1.4
					c-0.1-0.5-0.2-1-0.3-1.3c-0.1-0.4-0.2-0.7-0.4-1c-0.2-0.3-0.4-0.6-0.6-0.7c-0.2-0.2-0.6-0.3-0.9-0.3c-0.5,0-1,0.2-1.3,0.8
					c-0.4,0.6-0.6,1.2-0.8,2c-0.2,0.8-0.4,1.7-0.7,2.9c-0.3,1.2-0.6,2.1-0.9,2.9c-0.4,0.9-1,1.6-1.7,2.2c-0.8,0.5-1.6,0.8-2.4,0.9
					s-1.6-0.1-2.4-0.3c-0.8-0.2-1.4-0.6-1.9-1.2c-0.5-0.6-0.7-1.3-0.7-2c0-0.9,0.2-2,0.5-3.1s0.8-2.5,1.3-3.9
					c0.5-1.5,0.9-2.7,1.2-3.8c0.1-0.7,0.3-1.7,0.5-3.1c0.2-1.4,0.3-2.6,0.5-3.7c0.1-1.1,0.4-2.3,0.9-3.6c0.4-1.3,1-2.4,1.6-3.3
					c0.6-0.9,1.6-1.6,2.8-2.2c1.2-0.6,2.7-0.9,4.3-0.9c1.5,0,2.8,0.5,4,1.5c1.2,1,2.2,2.3,2.9,3.8c0.8,1.6,1.5,3.3,2,5.2
					c0.6,1.9,1,3.8,1.3,5.9c0.3,2,0.5,3.9,0.6,5.5C262.2,290.8,262.3,292.3,262.3,293.6z M252.1,281.5c0.1-0.5,0.1-1.6-0.1-3.3
					c-0.2-1.7-0.5-2.6-0.9-2.7c-0.2-0.1-0.5,0.4-0.8,1.5c-0.3,1-0.5,2-0.5,3c-0.1,1,0,1.6,0.2,1.8c0.3,0.2,0.7,0.3,1.3,0.3
					C251.7,282.1,252,281.9,252.1,281.5z"/>
				<path class="st6" d="M264.3,280.2c-0.1-1.6,0-3.1,0.3-4.4c0.3-1.3,0.8-2.5,1.4-3.4c0.6-0.9,1.3-1.7,2.1-2.4
					c0.8-0.7,1.6-1.2,2.4-1.5c0.8-0.4,1.6-0.6,2.4-0.7c0.7-0.1,1.4-0.2,2.1-0.2c0.7,0,1.3,0.1,1.7,0.2c0.4,0.1,0.9,0.2,1.4,0.4
					c0.5,0.2,0.9,0.4,1.1,0.5c0.2,0.1,0.5,0.3,0.9,0.5c1.6,1,2.3,2.5,1.9,4.4c-0.3,1.4-0.9,2.5-1.9,3.2c-0.8,0.5-1.6,0.5-2.3,0
					c-1.5-1.1-2.8-1.4-3.7-1.1c-0.9,0.3-1.3,1.2-1.2,2.8c0.1,0.6,0.3,1,0.7,1.3c0.4,0.3,1,0.6,1.7,0.8c0.7,0.2,1.5,0.4,2.3,0.6
					c0.8,0.2,1.7,0.6,2.6,1.1c0.9,0.5,1.8,1.2,2.5,2c1.2,1.4,1.9,2.9,2.1,4.6c0.2,1.7,0,3.3-0.6,4.7c-0.6,1.4-1.6,2.7-3,3.7
					c-1.3,1.1-2.9,1.7-4.6,1.8c-1.8,0.2-3.6,0.1-5.2-0.1c-1.6-0.2-2.9-0.6-4-1.2c-1.1-0.5-1.9-1-2.5-1.5c-0.6-0.5-1.1-0.9-1.5-1.3
					c-0.4-0.5-0.7-1.2-0.8-2s-0.1-1.5,0.2-2.3c0.2-0.7,0.5-1.4,1-2s1-1,1.7-1.1c0.7-0.1,1.4,0,2.1,0.4c3.4,1.9,5.5,2.9,6.3,3.2
					c1.2,0.4,1.9,0.2,2.1-0.7c0.1-0.5-0.1-1-0.6-1.4s-1.2-0.8-2-1.1c-0.8-0.3-1.8-0.7-2.8-1.1c-1-0.5-2-0.9-2.9-1.5
					c-0.9-0.5-1.7-1.2-2.3-2.2C264.8,282.4,264.4,281.4,264.3,280.2z"/>
				<path class="st6" d="M286.8,280.2c-0.1-1.6,0-3.1,0.3-4.4c0.3-1.3,0.8-2.5,1.4-3.4c0.6-0.9,1.3-1.7,2.1-2.4
					c0.8-0.7,1.6-1.2,2.4-1.5c0.8-0.4,1.6-0.6,2.4-0.7c0.7-0.1,1.4-0.2,2.1-0.2c0.7,0,1.3,0.1,1.7,0.2c0.4,0.1,0.9,0.2,1.4,0.4
					c0.5,0.2,0.9,0.4,1.1,0.5s0.5,0.3,0.9,0.5c1.6,1,2.3,2.5,1.9,4.4c-0.3,1.4-0.9,2.5-1.9,3.2c-0.8,0.5-1.6,0.5-2.3,0
					c-1.5-1.1-2.8-1.4-3.7-1.1c-0.9,0.3-1.3,1.2-1.2,2.8c0.1,0.6,0.3,1,0.7,1.3c0.4,0.3,1,0.6,1.7,0.8c0.7,0.2,1.5,0.4,2.3,0.6
					c0.8,0.2,1.7,0.6,2.6,1.1c0.9,0.5,1.8,1.2,2.5,2c1.2,1.4,1.9,2.9,2.1,4.6c0.2,1.7,0,3.3-0.6,4.7c-0.6,1.4-1.6,2.7-3,3.7
					c-1.3,1.1-2.9,1.7-4.6,1.8c-1.8,0.2-3.6,0.1-5.2-0.1s-2.9-0.6-4-1.2c-1.1-0.5-1.9-1-2.5-1.5c-0.6-0.5-1.1-0.9-1.5-1.3
					c-0.4-0.5-0.7-1.2-0.8-2s-0.1-1.5,0.2-2.3s0.5-1.4,1-2c0.4-0.6,1-1,1.7-1.1c0.7-0.1,1.4,0,2.1,0.4c3.4,1.9,5.5,2.9,6.3,3.2
					c1.2,0.4,1.9,0.2,2.1-0.7c0.1-0.5-0.1-1-0.6-1.4c-0.5-0.4-1.2-0.8-2-1.1c-0.8-0.3-1.8-0.7-2.8-1.1c-1-0.5-2-0.9-2.9-1.5
					c-0.9-0.5-1.7-1.2-2.3-2.2C287.2,282.4,286.9,281.4,286.8,280.2z"/>
				<path class="st6" d="M318,294.4c0,0.9-0.3,1.7-0.9,2.4s-1.3,1.2-2.2,1.4c-0.9,0.2-1.7,0.3-2.6,0.2c-0.9-0.1-1.7-0.5-2.4-1.2
					c-0.7-0.7-1.1-1.6-1.3-2.7c-0.4-2.7-0.6-6.9-0.5-12.6c0.1-5.8,0.3-9.3,0.7-10.7c0.2-0.9,0.8-1.6,1.7-2.1
					c0.9-0.5,1.8-0.7,2.8-0.7s1.9,0.3,2.7,0.7c0.9,0.5,1.3,1.2,1.5,2c0.2,1.1,0.3,2.1,0.3,3.2c0,1,0,2.5-0.1,4.3
					c-0.1,1.8-0.1,3.5-0.2,4.9c0,1.6,0,3.6,0.1,5.9S318,293.5,318,294.4z"/>
			</g>
			<g>
				<g>
					<path class="st3" d="M333.9,98.4c0,5.1-3.8,9.4-8.9,9.9l-9,1c-30.9,2.4-58.8,1.9-92,0l-9-1c-5.1-0.6-8.9-4.8-8.9-9.9V59
						c0-9.1,5.9-16.5,13.2-16.5h101.3c7.3,0,13.2,7.4,13.2,16.5L333.9,98.4L333.9,98.4z"/>
					<path class="st7" d="M228.8,83.7c0.9-16.3,4.7-30.2,8.9-41.2h-18.3c-7.3,0-13.2,7.4-13.2,16.5v39.4c0,5.1,3.8,9.4,8.9,9.9l9,1
						c1.9,0.2,3.9,0.4,5.8,0.6C228.7,102.1,228.2,93.3,228.8,83.7L228.8,83.7z"/>
					<g>
						<path class="st8" d="M221.5,55.1L221.5,55.1c1.7,0,3.1,1.4,3.1,3.1v32.1c0,1.7-1.4,3.1-3.1,3.1h0c-1.7,0-3.1-1.4-3.1-3.1V58.2
							C218.4,56.5,219.8,55.1,221.5,55.1z"/>
						<path class="st4" d="M237.5,55.1L237.5,55.1c1.7,0,3.1,1.4,3.1,3.1v32.1c0,1.7-1.4,3.1-3.1,3.1h0c-1.7,0-3.1-1.4-3.1-3.1V58.2
							C234.4,56.5,235.8,55.1,237.5,55.1z"/>
						<path class="st4" d="M253.6,55.1L253.6,55.1c1.7,0,3.1,1.4,3.1,3.1v32.1c0,1.7-1.4,3.1-3.1,3.1h0c-1.7,0-3.1-1.4-3.1-3.1V58.2
							C250.5,56.5,251.9,55.1,253.6,55.1z"/>
						<path class="st4" d="M269.6,55.1L269.6,55.1c1.7,0,3.1,1.4,3.1,3.1v32.1c0,1.7-1.4,3.1-3.1,3.1l0,0c-1.7,0-3.1-1.4-3.1-3.1
							V58.2C266.5,56.5,267.9,55.1,269.6,55.1z"/>
						<path class="st4" d="M285.6,55.1L285.6,55.1c1.7,0,3.1,1.4,3.1,3.1v32.1c0,1.7-1.4,3.1-3.1,3.1l0,0c-1.7,0-3.1-1.4-3.1-3.1
							V58.2C282.6,56.5,284,55.1,285.6,55.1z"/>
						<path class="st4" d="M301.7,55.1L301.7,55.1c1.7,0,3.1,1.4,3.1,3.1v32.1c0,1.7-1.4,3.1-3.1,3.1l0,0c-1.7,0-3.1-1.4-3.1-3.1
							V58.2C298.6,56.5,300,55.1,301.7,55.1z"/>
						<path class="st4" d="M318.5,55.1L318.5,55.1c1.7,0,3.1,1.4,3.1,3.1v32.1c0,1.7-1.4,3.1-3.1,3.1l0,0c-1.7,0-3.1-1.4-3.1-3.1
							V58.2C315.5,56.5,316.8,55.1,318.5,55.1z"/>
					</g>
				</g>
				<path class="st9" d="M322.4,117.6l-6,0.5c-30.9,2.6-62,2.6-92.9,0l-6-0.5c-2.7,0-4.9-2.2-4.9-4.9s2.2-4.9,4.9-4.9
					c16.1,1.2,33.5,2,51.9,2c18.8,0,36.5-0.8,52.9-2c2.7,0,4.9,2.2,4.9,4.9S325.1,117.6,322.4,117.6L322.4,117.6z"/>
			</g>
		</g>
	</g>
</g>
</svg>
