<?xml version="1.0" encoding="UTF-8"?>
<svg xmlns="http://www.w3.org/2000/svg" viewBox="0 0 540 540">
  <defs>
    <style>
      .cls-1 {
        fill: #ffecca;
      }

      .cls-2 {
        fill: #ffc299;
      }

      .cls-3 {
        fill: #de9b69;
      }

      .cls-4 {
        isolation: isolate;
      }

      .cls-5 {
        fill: #f7e1bc;
      }

      .cls-6 {
        fill: #bababa;
        mix-blend-mode: overlay;
      }

      .cls-7 {
        fill: #fff;
        font-family: OmpalumpaRegular, Ompalumpa;
        font-size: 44px;
      }

      .cls-8 {
        fill: #f0b690;
      }

      .cls-9 {
        fill: #f4aa73;
      }

      .cls-10 {
        fill: #ffe6ba;
      }
    </style>
  </defs>
  <g class="cls-4">
    <g id="_Layer_" data-name="&amp;lt;Layer&amp;gt;">
      <g>
        <path class="cls-1" d="m334.24,475.64s-30.82,8-64.88,8-63.6-8-63.6-8c-16.4-3.7-27.43-14.36-27.43-32.08v-200.61c0-30.26,6.56-60.03,19.07-86.52l25.11-53.18h94.98l26.02,56.78c11.92,26,18.16,55.05,18.16,84.56v198.98c0,17.72-9.22,26.58-27.43,32.08Z"/>
        <path class="cls-6" d="m292.95,132.15c-5.29,1.86-8.07,9.04-8.5,14.46-1.2,14.91,15.06,20.14,26.36,37.42,14.47,22.13,2.23,35.6,13.61,92.69,2.36,11.85,6.48,32.55,10.2,32.31,5-.31,6.11-38.19,6.8-62.08,1.66-56.85-3.81-70.25-6.8-76.54-10.06-21.14-30.39-42.23-41.67-38.27Z"/>
        <path class="cls-10" d="m209.15,396.26c.69-46,.58-109.84.95-189.29,1.72-12.48,5.33-29.26,13.3-47.83,8.25-19.23,18.36-33.78,26.46-43.76l-32.5-1.22-19.96,42.26c-3.38,7.16-6.31,14.56-8.81,22.15-6.75,20.48-10.26,42.29-10.26,64.37v200.61c0,2.57.28,5.21.8,7.86,2.81,13.05,12.81,21.11,26.63,24.23,0,0,14.64,3.96,35.19,6.31-8.4-9.18-16.93-22-22.64-34.81-9.65-21.62-9.31-40.93-9.16-50.88Z"/>
        <path class="cls-2" d="m359.89,217.33l-40.62,3.51c-32.78,2.83-65.75,2.83-98.53,0l-40.81-3.53c-1.05,8.46-1.6,17.02-1.6,25.63v102.64l42.41,3.67c32.78,2.83,65.75,2.83,98.53,0l42.41-3.67v-101c0-9.15-.6-18.26-1.79-27.25Z"/>
        <g>
          <path class="cls-9" d="m220.34,225.48c32.96,2.85,66.38,2.85,99.33,0l40.77-3.53c-.34-3.09-.75-6.17-1.22-9.23l-40.35,3.49c-32.42,2.8-65.3,2.81-97.73,0l-40.59-3.51c-.45,3.06-.83,6.14-1.15,9.24l40.93,3.54Z"/>
          <path class="cls-9" d="m318.86,344.61c-32.42,2.81-65.3,2.81-97.73,0l-42.81-3.7v9.33l42.01,3.63c16.48,1.42,33.07,2.14,49.67,2.14s33.19-.71,49.66-2.14l42.01-3.63v-9.33l-42.81,3.7Z"/>
        </g>
        <text class="cls-7" transform="translate(217.35 298.91)"><tspan x="0" y="0">LASSI</tspan></text>
        <g>
          <g>
            <path class="cls-2" d="m333.86,98.37c0,5.09-3.83,9.38-8.89,9.94l-8.96,1c-30.9,2.37-58.77,1.86-92,0l-8.96-1c-5.06-.56-8.89-4.84-8.89-9.94v-39.36c0-9.1,5.92-16.48,13.23-16.48h101.26c7.31,0,13.23,7.38,13.23,16.48v39.36Z"/>
            <path class="cls-8" d="m228.77,83.7c.94-16.31,4.71-30.21,8.94-41.17h-18.34c-7.31,0-13.23,7.38-13.23,16.48v39.36c0,5.09,3.83,9.38,8.89,9.94l8.96,1c1.94.22,3.87.42,5.81.6-1.07-7.8-1.6-16.6-1.04-26.21Z"/>
            <g>
              <rect class="cls-3" x="218.39" y="55.09" width="6.14" height="38.21" rx="3.07" ry="3.07"/>
              <rect class="cls-9" x="234.43" y="55.09" width="6.14" height="38.21" rx="3.07" ry="3.07"/>
              <rect class="cls-9" x="250.48" y="55.09" width="6.14" height="38.21" rx="3.07" ry="3.07"/>
              <rect class="cls-9" x="266.53" y="55.09" width="6.14" height="38.21" rx="3.07" ry="3.07"/>
              <rect class="cls-9" x="282.58" y="55.09" width="6.14" height="38.21" rx="3.07" ry="3.07"/>
              <rect class="cls-9" x="298.62" y="55.09" width="6.14" height="38.21" rx="3.07" ry="3.07"/>
              <rect class="cls-9" x="315.47" y="55.09" width="6.14" height="38.21" rx="3.07" ry="3.07"/>
            </g>
          </g>
          <path class="cls-5" d="m322.41,117.58l-5.97.51c-30.9,2.64-61.98,2.64-92.88,0l-5.97-.51c-2.68,0-4.87-2.19-4.87-4.87s2.19-4.87,4.87-4.87c16.12,1.25,33.49,2.01,51.94,2.02,18.81.01,36.49-.76,52.89-2.02,2.67,0,4.87,2.2,4.87,4.87s-2.19,4.87-4.87,4.87Z"/>
        </g>
      </g>
    </g>
  </g>
</svg>