<?xml version="1.0" encoding="UTF-8"?>
<svg id="_Layer_" data-name="&amp;lt;Layer&amp;gt;" xmlns="http://www.w3.org/2000/svg" viewBox="0 0 540 540">
  <defs>
    <style>
      .cls-1 {
        fill: #b2afad;
      }

      .cls-2 {
        letter-spacing: -.06em;
      }

      .cls-3 {
        stroke-width: 3px;
      }

      .cls-3, .cls-4 {
        fill: #c9c9c9;
        stroke: #b2afad;
        stroke-miterlimit: 10;
      }

      .cls-5 {
        fill: #65aa81;
      }

      .cls-6 {
        fill: #9accab;
        opacity: .57;
      }

      .cls-7 {
        fill: #f9efac;
      }

      .cls-8 {
        fill: #fff;
        font-family: OmpalumpaRegular, Ompalumpa;
        font-size: 58.37px;
      }

      .cls-4 {
        stroke-width: 5px;
      }

      .cls-9 {
        fill: #77b68e;
      }

      .cls-10 {
        fill: #84bd99;
      }

      .cls-11 {
        fill: #f8eda3;
      }

      .cls-12 {
        fill: #5aa174;
      }
    </style>
  </defs>
  <path class="cls-5" d="m348.23,438.41c-53.3,15.21-105.56,15.24-156.65.11-7.16-2.12-12.05-8.74-12.05-16.21V114.6s0,0,0,0c60.13,6.65,120.82,6.65,180.95,0h0s0,307.54,0,307.54c0,7.54-4.99,14.2-12.24,16.27Z"/>
  <path class="cls-7" d="m212.97,199.57c54.58-42.68,110.71-59.84,147.5-67.17v-17.8h0c-60.13,6.65-120.82,6.65-180.95,0h0v114.87c9.81-10,20.91-20.1,33.45-29.9Z"/>
  <path class="cls-6" d="m360.48,336.2v-48.83c-26.72,46.22-72.09,75.03-118.59,74.92-24.61-.06-45.71-8.21-62.36-18.19v78.21c0,5.43,2.59,10.4,6.75,13.53,40.22-4.53,95.98-19.27,142.92-63.35,12.66-11.88,22.93-24.27,31.28-36.29Z"/>
  <path class="cls-12" d="m199.11,415.69l-2.71-299.42c-5.63-.51-11.26-1.05-16.88-1.67h0v307.7c0,7.47,4.89,14.09,12.05,16.21,32.18,9.54,64.83,13.04,97.91,10.54-18.46-1.61-39.19-6.07-60.33-15.79-11.59-5.33-21.57-11.44-30.05-17.57Z"/>
  <path class="cls-11" d="m197.28,212.64c-.29-32.12-.58-64.25-.87-96.37,0,0-.01,0-.02,0-2.64-.24-5.27-.48-7.91-.74-2.99-.29-5.97-.6-8.95-.93v114.87c5.5-5.6,11.42-11.24,17.75-16.83Z"/>
  <path class="cls-10" d="m241.89,362.28c-16.02-.04-30.55-3.52-43.33-8.69.19,20.7.37,41.4.56,62.1,6.58,4.76,14.08,9.51,22.53,13.89,34.22-8.34,73.24-24.87,107.55-57.09,12.66-11.88,22.93-24.27,31.28-36.29v-48.83c-26.72,46.22-72.09,75.03-118.59,74.92Z"/>
  <path class="cls-9" d="m198.55,353.59c-6.85-2.77-13.22-6.02-19.03-9.5v78.21c0,.42.02.83.05,1.24,0,.12.02.24.03.36.03.31.07.61.11.92.02.11.03.23.05.35.07.39.14.77.24,1.15.03.12.06.23.1.35.07.26.15.53.23.79.05.16.11.32.16.48.08.22.16.43.25.65.09.22.18.43.27.65.11.25.23.5.35.74.1.2.21.4.33.6.07.12.14.25.21.37.13.21.26.43.39.64.04.06.08.11.12.17.33.49.68.96,1.06,1.41h0c.2.24.4.47.61.7.03.03.05.05.08.08.65.69,1.36,1.33,2.12,1.9,0,0,0,0,0,0,10.82-1.22,22.77-3.19,35.37-6.25-8.45-4.38-15.95-9.13-22.53-13.89-.19-20.7-.37-41.4-.56-62.1Z"/>
  <text class="cls-8" transform="translate(204.04 272)"><tspan x="0" y="0">MA</tspan><tspan class="cls-2" x="76.52" y="0">L</tspan><tspan x="99.93" y="0">T</tspan><tspan x="-3.53" y="70.05">DRINK</tspan></text>
  <g>
    <ellipse class="cls-4" cx="270" cy="112.6" rx="90.48" ry="12.24"/>
    <path class="cls-3" d="m310.67,107.72c-3.35-4.32-81.41-5.83-81.41-5.83,0,0-17.57-.31-20.53,7.15-3.57,8.98,17.77,8.42,17.77,8.42,0,0,87.9-4.94,84.18-9.74Z"/>
    <ellipse class="cls-3" cx="233" cy="109.88" rx="13.04" ry="2.72"/>
    <path class="cls-1" d="m180.35,117.45c28.64,3.87,57.35,6.06,86.26,6.31,31.09.27,62.02-2.59,92.86-6.21,3.73-.44,3.77-6.34,0-5.9-30.2,3.54-60.47,6.38-90.91,6.22s-57.89-2.23-86.64-6.12c-3.71-.5-5.32,5.18-1.57,5.69h0Z"/>
  </g>
</svg>