<?xml version="1.0" encoding="utf-8"?>
<!-- Generator: Adobe Illustrator 27.4.0, SVG Export Plug-In . SVG Version: 6.00 Build 0)  -->
<svg version="1.1" id="_Layer_" xmlns="http://www.w3.org/2000/svg" xmlns:xlink="http://www.w3.org/1999/xlink" x="0px" y="0px"
	 viewBox="0 0 540 540" style="enable-background:new 0 0 540 540;" xml:space="preserve">
<style type="text/css">
	.st0{fill:#65AA81;}
	.st1{fill:#F9EFAC;}
	.st2{opacity:0.57;fill:#9ACCAB;enable-background:new    ;}
	.st3{fill:#5AA174;}
	.st4{fill:#F8EDA3;}
	.st5{fill:#84BD99;}
	.st6{fill:#77B68E;}
	.st7{enable-background:new    ;}
	.st8{fill:#FFFFFF;}
	.st9{fill:#C9C9C9;stroke:#B2AFAD;stroke-width:5;stroke-miterlimit:10;}
	.st10{fill:#C9C9C9;stroke:#B2AFAD;stroke-width:3;stroke-miterlimit:10;}
	.st11{fill:#B2AFAD;}
</style>
<path class="st0" d="M348.2,438.4c-53.3,15.2-105.6,15.2-156.6,0.1c-7.2-2.1-12.1-8.7-12.1-16.2V114.6l0,0
	c60.1,6.7,120.8,6.7,180.9,0l0,0v307.5C360.5,429.7,355.5,436.3,348.2,438.4L348.2,438.4z"/>
<path class="st1" d="M213,199.6c54.6-42.7,110.7-59.8,147.5-67.2v-17.8l0,0c-60.1,6.7-120.8,6.7-180.9,0l0,0v114.9
	C189.3,219.5,200.4,209.4,213,199.6z"/>
<path class="st2" d="M360.5,336.2v-48.8c-26.7,46.2-72.1,75-118.6,74.9c-24.6-0.1-45.7-8.2-62.4-18.2v78.2c0,5.4,2.6,10.4,6.8,13.5
	c40.2-4.5,96-19.3,142.9-63.4C341.9,360.6,352.1,348.2,360.5,336.2L360.5,336.2z"/>
<path class="st3" d="M199.1,415.7l-2.7-299.4c-5.6-0.5-11.3-1.1-16.9-1.7l0,0v307.7c0,7.5,4.9,14.1,12.1,16.2
	c32.2,9.5,64.8,13,97.9,10.5c-18.5-1.6-39.2-6.1-60.3-15.8C217.6,427.9,207.6,421.8,199.1,415.7L199.1,415.7z"/>
<path class="st4" d="M197.3,212.6c-0.3-32.1-0.6-64.2-0.9-96.4c0,0,0,0,0,0c-2.6-0.2-5.3-0.5-7.9-0.7c-3-0.3-6-0.6-8.9-0.9v114.9
	C185,223.9,190.9,218.2,197.3,212.6z"/>
<path class="st5" d="M241.9,362.3c-16,0-30.6-3.5-43.3-8.7c0.2,20.7,0.4,41.4,0.6,62.1c6.6,4.8,14.1,9.5,22.5,13.9
	c34.2-8.3,73.2-24.9,107.6-57.1c12.7-11.9,22.9-24.3,31.3-36.3v-48.8C333.8,333.6,288.4,362.4,241.9,362.3L241.9,362.3z"/>
<path class="st6" d="M198.6,353.6c-6.9-2.8-13.2-6-19-9.5v78.2c0,0.4,0,0.8,0.1,1.2c0,0.1,0,0.2,0,0.4c0,0.3,0.1,0.6,0.1,0.9
	c0,0.1,0,0.2,0.1,0.4c0.1,0.4,0.1,0.8,0.2,1.1c0,0.1,0.1,0.2,0.1,0.4c0.1,0.3,0.1,0.5,0.2,0.8c0.1,0.2,0.1,0.3,0.2,0.5
	c0.1,0.2,0.2,0.4,0.2,0.6s0.2,0.4,0.3,0.6c0.1,0.2,0.2,0.5,0.4,0.7c0.1,0.2,0.2,0.4,0.3,0.6c0.1,0.1,0.1,0.2,0.2,0.4
	c0.1,0.2,0.3,0.4,0.4,0.6c0,0.1,0.1,0.1,0.1,0.2c0.3,0.5,0.7,1,1.1,1.4l0,0c0.2,0.2,0.4,0.5,0.6,0.7c0,0,0.1,0,0.1,0.1
	c0.6,0.7,1.4,1.3,2.1,1.9l0,0c10.8-1.2,22.8-3.2,35.4-6.2c-8.4-4.4-15.9-9.1-22.5-13.9C198.9,395,198.8,374.3,198.6,353.6
	L198.6,353.6z"/>
<g class="st7">
	<path class="st8" d="M245.7,268.7c-0.3,0.8-0.9,1.5-1.9,2.1c-0.9,0.6-2,0.9-3.1,0.9c-1.1,0-2.2-0.1-3.2-0.5c-1-0.3-1.8-1.1-2.4-2.1
		c-0.6-1.1-0.7-2.4-0.4-4c0.1-1.2,0.1-2.6,0-3.9c-0.1-1.4-0.2-2.6-0.4-3.8l-0.3-1.7c-0.3,0.2-0.7,0.8-1,1.9c-0.4,1.1-0.7,2.2-1,3.4
		c-0.3,1.2-0.5,2.4-0.8,3.6c-0.3,1.2-0.4,2-0.5,2.2c-0.4,1.2-1.3,2-2.7,2.5c-1.4,0.5-2.8,0.5-4.2,0c-1.4-0.4-2.3-1.2-2.8-2.2
		c-0.4-0.8-0.7-2.2-1.1-4.1c-0.4-1.9-0.8-3.5-1.1-4.9c-0.4-1.4-0.7-2-1.1-2c0,0.1-0.1,0.3-0.1,0.5c-0.1,0.2-0.1,0.7-0.3,1.4
		c-0.1,0.7-0.2,1.4-0.3,2.2c-0.1,0.7-0.1,1.6-0.1,2.6s0.1,2,0.2,2.9c0.1,1.1-0.1,2.2-0.7,3.1c-0.6,0.9-1.3,1.6-2.3,2
		c-1,0.4-2,0.6-3,0.7s-2.1-0.2-3-0.8c-1-0.6-1.7-1.5-2.1-2.7c-0.7-1.7-1-4-1.1-6.9c0-2.9,0.1-5.8,0.3-8.6c0.2-3.3,0.3-5.7,0.4-7
		c0.1-1.3,0.3-3.1,0.7-5.1c0.4-2.1,0.8-3.8,1.3-5c0.7-1.6,1.8-2.6,3.3-3.1c1.5-0.5,3-0.4,4.6,0.1c1.6,0.6,2.9,1.5,4,2.9
		c0.5,0.7,1.1,1.4,1.6,2.2c0.5,0.8,1,1.6,1.4,2.5c0.4,0.8,0.8,1.6,1.2,2.5c0.4,0.8,0.7,1.6,1,2.3c0.3,0.7,0.5,1.3,0.7,1.9
		c0.2,0.6,0.4,1,0.5,1.3l0.1,0.5c0.2-0.6,0.5-1.3,0.9-2.3c0.4-0.9,1.1-2.5,2.1-4.6s2.1-3.8,3-5c1.6-1.9,3.2-3.2,4.8-3.9
		c1.7-0.6,3.2-0.6,4.6,0.3s2.5,2.3,3.2,4.4c0.8,2.5,1.4,5.9,1.8,10.3c0.4,4.4,0.5,8.6,0.4,12.6C246.7,264.2,246.3,267,245.7,268.7z"
		/>
	<path class="st8" d="M280.2,264.9c0,1.4-0.4,2.7-1.2,3.7c-0.8,1.1-1.8,1.7-2.9,2c-1.1,0.3-2.3,0.4-3.5,0.3
		c-1.2-0.1-2.2-0.7-3.1-1.5c-0.9-0.9-1.4-2-1.5-3.4c0-0.3-0.1-0.9-0.1-1.7c-0.1-0.8-0.1-1.4-0.1-1.9c0-0.5-0.1-1.1-0.2-1.8
		c-0.1-0.7-0.2-1.3-0.4-1.8c-0.1-0.5-0.3-0.9-0.5-1.4c-0.2-0.4-0.5-0.8-0.8-1c-0.3-0.2-0.7-0.3-1.2-0.4c-0.7,0-1.3,0.3-1.8,1.1
		s-0.8,1.6-1,2.7c-0.2,1-0.5,2.3-0.9,3.9c-0.4,1.6-0.8,2.8-1.2,3.9c-0.5,1.2-1.3,2.2-2.3,2.9c-1,0.7-2.1,1.1-3.2,1.1
		c-1.1,0.1-2.2-0.1-3.2-0.4c-1-0.3-1.9-0.9-2.5-1.6c-0.7-0.8-1-1.7-1-2.7c0-1.2,0.2-2.6,0.7-4.2c0.5-1.5,1.1-3.3,1.8-5.2
		c0.7-1.9,1.2-3.6,1.6-5c0.2-0.9,0.4-2.3,0.6-4.1s0.4-3.5,0.6-4.9c0.2-1.5,0.6-3.1,1.1-4.8c0.6-1.8,1.3-3.2,2.1-4.4
		c0.9-1.2,2.1-2.2,3.7-3c1.6-0.8,3.5-1.2,5.7-1.2c1.9,0,3.7,0.6,5.3,1.9c1.6,1.3,2.9,3,3.9,5.1c1,2.1,1.9,4.4,2.7,6.9
		s1.3,5.1,1.7,7.8c0.4,2.7,0.7,5.1,0.8,7.3C280.1,261.3,280.2,263.2,280.2,264.9z M266.7,248.9c0.2-0.7,0.2-2.2-0.1-4.4
		c-0.3-2.2-0.7-3.4-1.2-3.6c-0.3-0.1-0.7,0.6-1,2c-0.4,1.4-0.6,2.7-0.7,4c-0.1,1.3,0,2.1,0.2,2.5c0.4,0.3,0.9,0.4,1.7,0.4
		C266.2,249.7,266.6,249.5,266.7,248.9z"/>
</g>
<g class="st7">
	<path class="st8" d="M304.2,270c-1.7,0.6-3.6,1-5.7,1.4c-2.1,0.3-4.2,0.5-6.4,0.4c-2.2,0-4.1-0.5-5.9-1.3c-1.7-0.8-2.9-2-3.4-3.6
		c-0.7-2-1.1-4.7-1.3-8.1c-0.2-3.4-0.2-6.7,0.1-9.9s0.5-6.2,0.9-8.9c0.4-2.7,0.7-4.6,1.1-5.8c0.3-0.8,0.8-1.5,1.6-2s1.7-0.8,2.7-0.8
		s2,0.1,2.9,0.4c1,0.3,1.8,0.9,2.5,1.7c0.7,0.8,1.1,1.8,1.2,3c0.2,1.7,0.1,4.6-0.1,8.8c-0.3,4.1-0.5,7.5-0.7,10.1s-0.2,4.5,0,5.5
		c0.2,0.2,0.5,0.3,0.9,0.3s1.1-0.1,1.8-0.2c0.7-0.2,1.4-0.3,2.2-0.5c0.8-0.2,1.7-0.3,2.7-0.5c1-0.2,1.9-0.2,2.7-0.2
		c1.1,0,2.1,0.4,2.9,1.3c0.8,0.9,1.3,1.9,1.4,3c0.2,1.1-0.1,2.2-0.7,3.4C306.7,268.6,305.7,269.5,304.2,270z"/>
</g>
<g class="st7">
	<path class="st8" d="M314,242.2c-0.1,0-0.3,0.1-0.4,0.1c-0.2,0.1-0.6,0.2-1.2,0.4c-0.6,0.2-1.2,0.3-1.7,0.4c-0.5,0.1-1.2,0.1-2,0.2
		c-0.8,0.1-1.5,0-2-0.2c-1.1-0.2-1.9-1-2.6-2.5s-0.8-2.9-0.4-4.5c0.3-1.6,1.1-2.6,2.4-3.2c3.3-1.4,11.7-1.6,25.2-0.6
		c1.5,0.1,2.6,0.5,3.5,1.3c0.9,0.7,1.4,1.6,1.5,2.7c0.2,1,0.2,2,0.1,3c-0.1,1-0.4,1.8-0.7,2.6c-0.3,0.6-1,1-2,1.2c-1,0.2-2,0.1-3,0
		c-1-0.2-2-0.4-3-0.6c-1-0.2-1.6-0.3-1.8-0.3c-0.3,0-0.4,1.5-0.4,4.6c0,3.1,0,6.7-0.1,10.8c0,4.1-0.2,7.1-0.5,9
		c-0.3,1.5-0.9,2.6-1.8,3.4c-0.9,0.8-1.8,1.3-2.9,1.3c-1,0.1-2-0.1-2.9-0.3c-1-0.3-1.7-0.7-2.1-1.3c-0.6-0.6-1.1-1.5-1.4-2.5
		c-0.4-1.1-0.6-2.1-0.8-3.2c-0.1-1.1-0.2-2.4-0.3-4c-0.1-2,0-5.2,0.3-9.6C313.3,246.1,313.6,243.4,314,242.2z"/>
</g>
<g class="st7">
	<path class="st8" d="M202.8,339.3c-0.3-0.6-0.5-1.6-0.5-3.2c0-1.5,0-3.3,0.1-5.3c0.1-2,0-4.5-0.3-7.4c-0.4-3.1-0.6-6.9-0.6-11.4
		c0-4.5,0.4-7.3,1.2-8.2c1.1-1.3,2.8-2.3,5.3-3.1c2.5-0.7,5.6-0.7,9.6,0c3,0.6,5.6,2.1,7.8,4.5c2.1,2.4,3.7,5.2,4.6,8.5
		c0.9,3.3,1.2,6.8,1,10.5c-0.5,7.2-2.7,12.4-6.6,15.6c-1.8,1.5-4.3,2.4-7.5,2.8c-3.2,0.4-6.1,0.2-8.8-0.4
		C205.2,341.5,203.5,340.6,202.8,339.3z M214.1,310.8c-0.3,0-0.4,0.7-0.5,2.1c-0.1,1.4-0.1,3.3,0,5.7c0.1,2.4,0.1,4,0,4.8
		c-0.1,1.9-0.1,3.8-0.1,5.5s0.3,2.8,0.8,3.3c0.4,0.4,1,0.4,1.6,0c0.6-0.4,1.2-1.5,1.8-3.2c0.6-1.7,0.8-3.9,0.8-6.5
		c0-2.3-0.2-4.3-0.6-6c-0.4-1.8-0.9-3.1-1.6-4.1C215.7,311.3,214.9,310.8,214.1,310.8z"/>
	<path class="st8" d="M254.9,325.8c0.1,0,0.2,0.1,0.2,0.2c0.1,0.1,0.3,0.2,0.6,0.5c0.3,0.2,0.6,0.5,0.9,0.8c0.3,0.3,0.6,0.6,1,1
		c0.4,0.4,0.8,0.8,1.1,1.3c0.4,0.5,0.7,1,1.1,1.6c0.4,0.6,0.7,1.2,1,1.8c0.7,1.3,0.7,2.8,0,4.4c-0.6,1.6-1.7,2.8-3.2,3.7
		c-1.5,0.9-2.9,1-4.3,0.4c-1.5-0.6-2.9-1.8-4.3-3.4c-1.3-1.7-2.4-3.3-3.1-4.8c-0.7-1.6-1.2-3-1.5-4.3c0.8,3.9,1,6.9,0.4,9.1
		c-0.3,1.2-1.1,2.2-2.2,2.9c-1.2,0.7-2.4,1.1-3.7,1.1c-1.3,0-2.5-0.3-3.7-0.9c-1.2-0.6-1.9-1.5-2.2-2.6c-0.3-1.4-0.6-2.8-0.6-4.3
		c-0.1-1.5-0.1-2.9,0.1-4.1c0.1-1.2,0.3-2.6,0.4-4.3s0.3-3.1,0.3-4.2c0-1.8-0.1-4.1-0.4-7.1c-0.3-2.9-0.4-5-0.4-6.2
		c0-1.5,0.3-2.7,1-3.8c0.7-1,1.5-1.8,2.5-2.4c1-0.5,2.2-0.9,3.7-1.2c1.5-0.2,2.9-0.3,4.2-0.3c1.3,0,2.8,0.1,4.3,0.3
		c3.4,0.4,6.2,1.7,8.5,4.1c2.3,2.4,3.7,4.9,4.3,7.7c0.4,2.3,0.5,4.3,0.3,6c-0.2,1.7-0.7,3-1.4,4.1s-1.5,1.9-2.3,2.4
		C256.6,325.6,255.7,325.9,254.9,325.8z M249.1,317.4c0.6-1.9,0-3.8-1.6-5.6c-1-1.1-1.9-1.1-2.6,0c-0.1,0.2-0.2,0.4-0.2,0.8
		c0,0.3-0.1,0.7-0.1,1.1c0,0.4,0,0.8,0,1.3c0,0.5,0,0.9,0.1,1.3c0,0.3,0.1,0.7,0.1,1.1c0,0.4,0.1,0.7,0.1,0.8
		c0.1,0.6,0.4,1.1,0.9,1.4c0.5,0.3,1.1,0.3,1.8,0C248.3,319.2,248.8,318.5,249.1,317.4z"/>
	<path class="st8" d="M275.9,336c0,1.2-0.4,2.3-1.1,3.2s-1.7,1.5-2.9,1.8c-1.1,0.3-2.3,0.4-3.5,0.2c-1.2-0.1-2.2-0.7-3.1-1.5
		c-0.9-0.9-1.5-2.1-1.7-3.6c-0.5-3.5-0.8-9.1-0.6-16.8c0.1-7.6,0.5-12.4,1-14.2c0.3-1.2,1.1-2.1,2.3-2.8c1.2-0.6,2.5-1,3.7-0.9
		c1.3,0,2.5,0.4,3.6,1c1.1,0.6,1.8,1.5,2,2.7c0.2,1.4,0.3,2.9,0.3,4.2c0,1.4-0.1,3.3-0.2,5.7c-0.1,2.4-0.2,4.6-0.2,6.6
		c0,2.1,0,4.8,0.2,7.9C275.8,332.7,275.9,334.8,275.9,336z"/>
	<path class="st8" d="M305.3,338.8c-0.9,1.2-2.1,2-3.5,2.4s-3,0.3-4.5-0.4c-1.5-0.6-2.8-1.8-3.7-3.5c-0.2-0.5-0.7-1.4-1.5-2.9
		s-1.3-2.5-1.7-3.2c-0.4-0.6-0.6-0.8-0.6-0.4c0,0.5,0,1.4,0,2.8c0,1.4,0.1,2.3,0.1,2.8c0,1-0.3,1.9-0.6,2.7s-0.9,1.3-1.6,1.7
		c-0.7,0.3-1.4,0.6-2.2,0.8c-0.8,0.2-1.6,0.1-2.3-0.1s-1.5-0.6-2.2-1c-0.7-0.4-1.2-1-1.7-1.8c-0.4-0.8-0.7-1.6-0.8-2.5
		c-0.4-5.2-0.5-11.2-0.3-17.9c0.2-6.7,0.7-11.2,1.6-13.5c0.5-1.3,1.4-2.2,2.8-2.7c1.4-0.5,2.8-0.6,4.2-0.3c1.4,0.3,2.4,0.8,3,1.4
		c0.9,0.9,1.7,2.7,2.4,5.4c0.8,2.6,1.4,5.1,1.9,7.2c0.5,2.2,0.8,3.3,1,3.3c0.2-0.1,0.2-0.4,0.2-0.8c0-0.4-0.1-1.2-0.1-2.3
		c-0.1-1.1-0.2-2.2-0.3-3.3c-0.1-1.1-0.1-2.4,0-3.9c0.1-1.5,0.3-2.8,0.5-3.9c0.2-0.8,0.6-1.5,1.3-2.1c0.7-0.6,1.5-1,2.4-1.3
		s1.9-0.3,2.9-0.2c1,0.1,1.9,0.4,2.7,1.1c0.8,0.6,1.4,1.4,1.8,2.5c0.2,0.5,0.4,1.1,0.5,1.7c0.1,0.6,0.2,1.3,0.3,2.1
		c0,0.8,0.1,1.5,0.1,2.1c0,0.6,0,1.4,0,2.4c0,1-0.1,1.8-0.1,2.3c0,0.5-0.1,1.4-0.1,2.6c-0.1,1.2-0.1,2-0.2,2.5
		c0,1.2-0.1,3.5-0.1,6.8s-0.2,5.8-0.4,7.5C306.3,336.9,305.9,338.1,305.3,338.8z"/>
	<path class="st8" d="M321.5,337.8c-0.3,1.2-1,2.2-2.1,2.9c-1.1,0.7-2.3,1.1-3.5,1.1s-2.4-0.3-3.5-0.9c-1.1-0.6-1.8-1.5-2.1-2.6
		c-0.4-1.3-0.5-2.8-0.6-4.5c0-1.7,0-3.2,0.2-4.5c0.2-1.3,0.3-2.9,0.5-4.7c0.2-1.8,0.3-3.3,0.4-4.4c0-1.2,0-2.4-0.1-3.6
		c-0.1-1.2-0.2-2.2-0.3-2.9c-0.1-0.7-0.3-1.7-0.6-2.9c-0.2-1.2-0.4-1.9-0.5-2.3c-0.3-1.6-0.1-3,0.4-4.1c0.6-1.1,1.4-1.8,2.5-2.2
		c1.1-0.4,2.2-0.5,3.4-0.5c1.2,0,2.4,0.4,3.4,1c1.1,0.6,1.9,1.4,2.4,2.3c0.5,1,0.8,2.5,0.9,4.6c0.1,2.1,0.1,3.9-0.1,5.4l-0.3,2.3
		c0.1-0.3,0.3-0.7,0.4-1.3c0.2-0.6,0.5-1.6,1.1-3.1c0.6-1.5,1.1-2.8,1.7-4.1c0.6-1.2,1.2-2.4,2-3.6c0.8-1.2,1.6-2,2.3-2.4
		c1.1-0.6,2.2-0.8,3.3-0.7c1.2,0.2,2.2,0.6,3,1.4s1.6,1.7,2.2,2.7c0.6,1.1,1,2.1,1,3.2c0,1.1-0.2,2.1-0.6,3c-0.5,0.8-1,1.7-1.7,2.7
		c-0.7,1-1.3,1.9-1.9,2.8c-0.6,0.9-1.1,1.7-1.7,2.4c-0.5,0.7-1,1.3-1.3,1.8l-0.5,0.6c1.8,2.7,3.7,5.2,5.7,7.4c0.9,0.9,1.4,1.9,1.7,3
		s0.3,2.1,0.1,2.9c-0.3,0.9-0.7,1.7-1.2,2.5c-0.5,0.8-1.2,1.4-2,1.8s-1.6,0.7-2.5,0.8c-0.8,0.1-1.7-0.1-2.6-0.6
		c-1.5-0.8-2.9-1.9-4-3.4c-1.1-1.4-2-2.7-2.4-3.8c-0.5-1.1-0.9-2.3-1.3-3.7c-0.4-1.3-0.7-2.1-0.8-2.3c0.1,0.3,0.2,1.7,0.1,4.1
		C322.2,334,321.9,336.1,321.5,337.8z"/>
</g>
<g>
	<ellipse class="st9" cx="270" cy="112.6" rx="90.5" ry="12.2"/>
	<path class="st10" d="M310.7,107.7c-3.4-4.3-81.4-5.8-81.4-5.8s-17.6-0.3-20.5,7.2c-3.6,9,17.8,8.4,17.8,8.4
		S314.4,112.5,310.7,107.7L310.7,107.7z"/>
	<ellipse class="st10" cx="233" cy="109.9" rx="13" ry="2.7"/>
	<path class="st11" d="M180.4,117.4c28.6,3.9,57.4,6.1,86.3,6.3c31.1,0.3,62-2.6,92.9-6.2c3.7-0.4,3.8-6.3,0-5.9
		c-30.2,3.5-60.5,6.4-90.9,6.2s-57.9-2.2-86.6-6.1C178.2,111.2,176.6,116.9,180.4,117.4L180.4,117.4L180.4,117.4z"/>
</g>
</svg>
