<?xml version="1.0" encoding="utf-8"?>
<!-- Generator: Adobe Illustrator 27.4.0, SVG Export Plug-In . SVG Version: 6.00 Build 0)  -->
<svg version="1.1" id="Layer_1" xmlns="http://www.w3.org/2000/svg" xmlns:xlink="http://www.w3.org/1999/xlink" x="0px" y="0px"
	 viewBox="0 0 540 540" style="enable-background:new 0 0 540 540;" xml:space="preserve">
<style type="text/css">
	.st0{fill:#FFEEDC;}
	.st1{fill:#BABABA;}
	.st2{fill:#FAE9D8;}
	.st3{fill:#FFFFFF;}
	.st4{fill:#4F4540;}
	.st5{enable-background:new    ;}
	.st6{fill:#6BAB85;}
	.st7{fill:#FCE3CD;}
	.st8{fill:#75BA91;}
	.st9{clip-path:url(#SVGID_00000091707588256544375630000013897901412337771400_);}
	.st10{fill:#595959;}
	.st11{fill:#639E7B;}
</style>
<g>
	<g id="_Layer_">
		<g>
			<path class="st0" d="M336.3,467c0,0-29.9,5-65.4,5s-67.3-5-67.3-5c-35.6-7.2-49.3-22.1-49.3-49.3V247.8
				c0-28.8,9.2-56.9,26.3-80.2l13.7-18.7h151.3l13.7,18.7c17.1,23.2,26.3,51.3,26.3,80.2v169.9C385.7,444.9,371.7,459.8,336.3,467
				L336.3,467z"/>
			<path class="st1" d="M319.9,167.7c-5.3,1.9-8.1,9-8.5,14.5c-1.2,14.9,15.1,20.1,26.4,37.4c14.5,22.1,2.2,35.6,13.6,92.7
				c2.4,11.9,6.5,32.5,10.2,32.3c5-0.3,6.1-38.2,6.8-62.1c1.7-56.9-3.8-70.2-6.8-76.5C351.5,184.8,331.2,163.7,319.9,167.7
				L319.9,167.7z"/>
			<path class="st2" d="M197.4,449.1c-7-9.2-9.8-18.9-11.1-25.5l-1.1-176.6c1-9.3,3.4-22.9,10.4-37.8c8-16.8,16.1-22.9,23.8-35.7
				c3.8-6.2,7.6-14.2,10.4-24.7h-35.6l-13.7,18.7c-17.1,23.2-26.3,51.3-26.3,80.2v169.9c0,27.2,13.7,42.1,49.3,49.3
				c0,0,9.5,1.5,23.8,2.8C217.2,466.5,205.9,460.4,197.4,449.1L197.4,449.1z"/>
			<path class="st3" d="M385.6,372.8l-66.4,5.7c-32.8,2.8-65.8,2.8-98.5,0l-66.4-5.7V244.4l66.4,5.7c32.8,2.8,65.8,2.8,98.5,0
				l66.4-5.7L385.6,372.8L385.6,372.8z"/>
			<circle class="st3" cx="271" cy="316.3" r="52.9"/>
			<path class="st4" d="M213,287.3c11.8-8.8,12.7-12.6,12.9-14.1c0.1-0.4,0.7-5.3-2.2-9.4c-4.9-6.9-16.3-6.8-23.6-4
				c-8.2,3.2-17.2,12-15.6,22.2c1,6.4,6.2,13.2,12.6,14C200.8,296.4,204.9,293.4,213,287.3L213,287.3z"/>
			<g class="st5">
				<path class="st6" d="M253.3,325.7c-0.2,0.6-0.7,1.1-1.4,1.6c-0.7,0.4-1.5,0.7-2.3,0.7c-0.9,0-1.7-0.1-2.4-0.4
					c-0.8-0.3-1.4-0.8-1.8-1.6c-0.4-0.8-0.5-1.8-0.3-3c0.1-0.9,0.1-1.9,0-3c-0.1-1-0.2-2-0.3-2.8l-0.2-1.3c-0.2,0.1-0.5,0.6-0.8,1.4
					s-0.5,1.7-0.7,2.6c-0.2,0.9-0.4,1.8-0.6,2.8c-0.2,0.9-0.3,1.5-0.4,1.7c-0.3,0.9-1,1.5-2,1.9c-1,0.4-2.1,0.4-3.1,0
					c-1.1-0.3-1.8-0.9-2.1-1.7c-0.3-0.6-0.5-1.6-0.8-3.1c-0.3-1.4-0.6-2.7-0.8-3.7c-0.3-1-0.5-1.5-0.8-1.5c0,0.1-0.1,0.2-0.1,0.4
					c0,0.2-0.1,0.5-0.2,1.1c-0.1,0.5-0.2,1.1-0.2,1.6c0,0.5-0.1,1.2-0.1,2c0,0.8,0,1.5,0.1,2.2c0.1,0.9-0.1,1.6-0.5,2.3
					c-0.4,0.7-1,1.2-1.7,1.5c-0.7,0.3-1.5,0.5-2.3,0.5s-1.5-0.2-2.3-0.6c-0.7-0.5-1.3-1.1-1.6-2c-0.5-1.3-0.8-3-0.8-5.2
					c0-2.2,0-4.4,0.2-6.4c0.1-2.5,0.3-4.3,0.3-5.3c0.1-1,0.2-2.3,0.5-3.9c0.3-1.6,0.6-2.8,1-3.8c0.5-1.2,1.3-2,2.5-2.4
					c1.1-0.4,2.3-0.3,3.4,0.1c1.2,0.4,2.2,1.2,3,2.2c0.4,0.5,0.8,1.1,1.2,1.7s0.8,1.2,1.1,1.8s0.6,1.2,0.9,1.8
					c0.3,0.6,0.5,1.2,0.7,1.7c0.2,0.5,0.4,1,0.5,1.4c0.2,0.4,0.3,0.8,0.4,1l0.1,0.4c0.2-0.4,0.4-1,0.7-1.7c0.3-0.7,0.8-1.9,1.6-3.5
					c0.8-1.6,1.6-2.9,2.3-3.8c1.2-1.5,2.4-2.4,3.6-2.9c1.2-0.5,2.4-0.4,3.5,0.2c1.1,0.6,1.9,1.7,2.4,3.3c0.6,1.8,1.1,4.4,1.4,7.8
					c0.3,3.3,0.4,6.5,0.3,9.5C254,322.3,253.7,324.5,253.3,325.7z"/>
				<path class="st6" d="M265.4,323.7c0,0.9-0.3,1.7-0.9,2.4c-0.6,0.7-1.3,1.2-2.2,1.4c-0.9,0.2-1.7,0.3-2.6,0.2
					c-0.9-0.1-1.7-0.5-2.4-1.2c-0.7-0.7-1.1-1.6-1.3-2.7c-0.4-2.7-0.6-6.9-0.5-12.6c0.1-5.8,0.3-9.3,0.7-10.7
					c0.2-0.9,0.8-1.6,1.7-2.1c0.9-0.5,1.8-0.7,2.8-0.7c1,0,1.9,0.3,2.7,0.7c0.9,0.5,1.3,1.2,1.5,2c0.2,1.1,0.3,2.1,0.3,3.2
					c0,1,0,2.5-0.1,4.3c-0.1,1.8-0.1,3.5-0.2,4.9c0,1.6,0,3.6,0.1,5.9S265.4,322.8,265.4,323.7z"/>
				<path class="st6" d="M284.1,326.7c-1.3,0.4-2.7,0.8-4.3,1c-1.6,0.2-3.2,0.4-4.8,0.3s-3.1-0.4-4.4-1c-1.3-0.6-2.2-1.5-2.6-2.7
					c-0.5-1.5-0.9-3.6-1-6.1c-0.1-2.5-0.1-5,0-7.5c0.2-2.4,0.4-4.7,0.7-6.7c0.3-2,0.5-3.5,0.8-4.4c0.2-0.6,0.6-1.1,1.2-1.5
					c0.6-0.4,1.3-0.6,2-0.6s1.5,0.1,2.2,0.3c0.7,0.2,1.3,0.6,1.8,1.3c0.5,0.6,0.8,1.4,0.9,2.3c0.1,1.3,0.1,3.5-0.1,6.6
					c-0.2,3.1-0.4,5.7-0.5,7.6c-0.2,2-0.2,3.4,0,4.2c0.1,0.2,0.4,0.3,0.7,0.3c0.4,0,0.8-0.1,1.3-0.2c0.5-0.1,1.1-0.2,1.7-0.4
					c0.6-0.1,1.3-0.3,2-0.4c0.7-0.1,1.4-0.2,2-0.1c0.8,0,1.6,0.3,2.2,1s0.9,1.4,1.1,2.2s0,1.7-0.5,2.6
					C286,325.7,285.2,326.3,284.1,326.7z"/>
				<path class="st6" d="M296.6,325c-0.2,0.9-0.8,1.7-1.6,2.2c-0.8,0.5-1.7,0.8-2.6,0.8s-1.8-0.2-2.6-0.7c-0.8-0.5-1.4-1.1-1.6-2
					c-0.3-1-0.4-2.1-0.4-3.4c0-1.3,0-2.4,0.1-3.4c0.1-1,0.2-2.2,0.4-3.5c0.1-1.3,0.2-2.5,0.3-3.3c0-0.9,0-1.8-0.1-2.7
					s-0.2-1.6-0.3-2.2c-0.1-0.6-0.2-1.3-0.4-2.2c-0.2-0.9-0.3-1.5-0.4-1.8c-0.2-1.2-0.1-2.3,0.3-3.1c0.4-0.8,1-1.4,1.8-1.7
					c0.8-0.3,1.7-0.4,2.6-0.4c0.9,0,1.8,0.3,2.6,0.7s1.4,1,1.8,1.7c0.4,0.8,0.6,1.9,0.7,3.5s0.1,2.9-0.1,4.1l-0.2,1.8
					c0.1-0.2,0.2-0.6,0.3-1c0.1-0.4,0.4-1.2,0.8-2.3c0.4-1.1,0.9-2.1,1.3-3.1c0.4-0.9,0.9-1.8,1.5-2.7c0.6-0.9,1.2-1.5,1.7-1.8
					c0.8-0.5,1.6-0.6,2.5-0.5s1.6,0.5,2.3,1.1c0.6,0.6,1.2,1.3,1.7,2c0.5,0.8,0.7,1.6,0.8,2.4c0,0.8-0.1,1.6-0.5,2.3
					c-0.4,0.6-0.8,1.3-1.3,2.1c-0.5,0.8-1,1.5-1.4,2.1c-0.4,0.6-0.9,1.2-1.3,1.8c-0.4,0.6-0.7,1-1,1.3l-0.4,0.5
					c1.3,2,2.8,3.9,4.3,5.6c0.6,0.7,1.1,1.5,1.3,2.3c0.2,0.8,0.2,1.5,0,2.2c-0.2,0.7-0.5,1.3-0.9,1.9c-0.4,0.6-0.9,1.1-1.5,1.4
					c-0.6,0.3-1.2,0.5-1.9,0.6c-0.6,0.1-1.3-0.1-2-0.4c-1.1-0.6-2.1-1.5-3-2.5c-0.9-1.1-1.5-2-1.8-2.9c-0.4-0.8-0.7-1.8-1-2.8
					c-0.3-1-0.5-1.6-0.6-1.7c0.1,0.3,0.1,1.3,0.1,3.1C297.1,322.2,296.9,323.7,296.6,325z"/>
			</g>
			<path class="st7" d="M346.2,151.8l-8.7,0.7c-45,3.8-90.2,3.8-135.1,0l-8.7-0.7c-3.9,0-7.1-3.2-7.1-7.1l0,0c0-3.9,3.2-7.1,7.1-7.1
				h152.5c3.9,0,7.1,3.2,7.1,7.1l0,0C353.3,148.6,350.1,151.8,346.2,151.8L346.2,151.8z"/>
			<path class="st8" d="M350.4,137.6l-22.2,2c-38,3.4-76.3,3.4-114.4,0l-22.2-2V89.4c0-9.1,7.4-16.4,16.4-16.4h125.9
				c9.1,0,16.4,7.4,16.4,16.4L350.4,137.6L350.4,137.6z"/>
			<path class="st6" d="M221.8,137.2c0,0,0-0.2,0-0.4c0,0,0-0.1,0-0.1c0,0,0,0,0-0.1c0,0,0-0.1,0-0.1c0,0,0,0,0,0s0,0,0,0
				c0-0.7,0-2.1-0.1-4.6c-0.1-0.3-0.9-9.4-0.8-19.6c0-14.3,12.4-31.8,25.8-36.8l11.8-2.7h-50.4c-9.1,0-16.4,7.4-16.4,16.4v48.2
				l22.2,2c2.7,0.2,5.4,0.5,8.1,0.7C221.9,138.7,221.8,137.8,221.8,137.2C221.8,137.2,221.8,137.2,221.8,137.2L221.8,137.2z"/>
			<g>
				<defs>
					<path id="SVGID_1_" d="M349.4,137.6l-22.2,2c-38,3.4-76.3,3.4-114.4,0l-22.2-2V89.4c0-9.1,7.4-16.4,16.4-16.4h125.9
						c9.1,0,16.4,7.4,16.4,16.4L349.4,137.6L349.4,137.6z"/>
				</defs>
				<clipPath id="SVGID_00000035524229177666035160000010756724395239044247_">
					<use xlink:href="#SVGID_1_"  style="overflow:visible;"/>
				</clipPath>
				<g style="clip-path:url(#SVGID_00000035524229177666035160000010756724395239044247_);">
					<path class="st10" d="M233.9,27.8c1.3,8.5-26.2,27.3-45.1,35.7c-4.8,2.2-15.6,6.5-20.4,17c-1.7,3.7-2.1,6.9-2.6,12.8
						c-0.6,8.2-1.2,19.8-0.9,34c-17.6-2.6-35.2-5.1-52.7-7.7c-13.7-31.9-9.7-66.8,10.2-88.4C159.1-8.6,232,15,233.9,27.8L233.9,27.8
						z"/>
				</g>
			</g>
			<path class="st11" d="M210.5,87.7L210.5,87.7c2.1,0,3.8,1.7,3.8,3.8v40c0,2.1-1.7,3.8-3.8,3.8l0,0c-2.1,0-3.8-1.7-3.8-3.8v-40
				C206.7,89.4,208.4,87.7,210.5,87.7z"/>
			<path class="st6" d="M230.5,87.7L230.5,87.7c2.1,0,3.8,1.7,3.8,3.8v40c0,2.1-1.7,3.8-3.8,3.8l0,0c-2.1,0-3.8-1.7-3.8-3.8v-40
				C226.7,89.4,228.4,87.7,230.5,87.7z"/>
			<path class="st6" d="M250.5,87.7L250.5,87.7c2.1,0,3.8,1.7,3.8,3.8v40c0,2.1-1.7,3.8-3.8,3.8l0,0c-2.1,0-3.8-1.7-3.8-3.8v-40
				C246.7,89.4,248.4,87.7,250.5,87.7z"/>
			<path class="st6" d="M270.5,87.7L270.5,87.7c2.1,0,3.8,1.7,3.8,3.8v40c0,2.1-1.7,3.8-3.8,3.8h0c-2.1,0-3.8-1.7-3.8-3.8v-40
				C266.7,89.4,268.4,87.7,270.5,87.7z"/>
			<path class="st6" d="M290.5,87.7L290.5,87.7c2.1,0,3.8,1.7,3.8,3.8v40c0,2.1-1.7,3.8-3.8,3.8h0c-2.1,0-3.8-1.7-3.8-3.8v-40
				C286.7,89.4,288.4,87.7,290.5,87.7z"/>
			<path class="st6" d="M310.5,87.7L310.5,87.7c2.1,0,3.8,1.7,3.8,3.8v40c0,2.1-1.7,3.8-3.8,3.8h0c-2.1,0-3.8-1.7-3.8-3.8v-40
				C306.7,89.4,308.4,87.7,310.5,87.7z"/>
			<path class="st6" d="M331.5,87.7L331.5,87.7c2.1,0,3.8,1.7,3.8,3.8v40c0,2.1-1.7,3.8-3.8,3.8h0c-2.1,0-3.8-1.7-3.8-3.8v-40
				C327.7,89.4,329.4,87.7,331.5,87.7z"/>
			<path class="st4" d="M226,354.6c0.4-8.2-4.7-15-27.5-35.1c-19.8-17.4-33.8-29.7-44.2-36.6v89.9l54,4.7
				C218,367.6,225.5,364.1,226,354.6L226,354.6z"/>
			<path class="st4" d="M319.3,250.2c-1.2,0.1-2.4,0.2-3.6,0.3c0,3,0,6.2,0,9.7c0,21.6,0.4,25.2,2.8,29.4
				c6.8,12.1,23.8,20.6,37.4,17c14.6-3.8,12.5-18.2,29.8-29.2v-32.9L319.3,250.2L319.3,250.2z"/>
			<path class="st4" d="M377.6,361.9c-3-7.2-12.5-11.3-31.5-19.6c-27.6-12-35.3-9.6-38.3-8.5c-0.9,0.3-10.1,4.1-14.5,13.6
				c-4.7,10.3-1.3,22.5,5.2,32.5c6.9-0.4,13.8-0.8,20.7-1.4l60-5.2C379.6,369.4,379.1,365.5,377.6,361.9L377.6,361.9z"/>
		</g>
	</g>
</g>
</svg>
