<?xml version="1.0" encoding="UTF-8"?>
<svg xmlns="http://www.w3.org/2000/svg" xmlns:xlink="http://www.w3.org/1999/xlink" viewBox="0 0 540 540">
  <defs>
    <style>
      .cls-1 {
        fill: #fff;
      }

      .cls-2 {
        isolation: isolate;
      }

      .cls-3 {
        fill: #fae9d8;
      }

      .cls-4 {
        font-family: OmpalumpaRegular, Ompalumpa;
        font-size: 44px;
      }

      .cls-4, .cls-5 {
        fill: #6bab85;
      }

      .cls-6 {
        fill: #bababa;
      }

      .cls-6, .cls-7 {
        mix-blend-mode: overlay;
      }

      .cls-8 {
        clip-path: url(#clippath);
      }

      .cls-9 {
        fill: none;
      }

      .cls-10 {
        fill: #75ba91;
      }

      .cls-11 {
        fill: #4f4540;
      }

      .cls-12 {
        fill: #fce3cd;
      }

      .cls-13 {
        fill: #ffeedc;
      }

      .cls-14 {
        fill: #639e7b;
      }

      .cls-7 {
        fill: #595959;
      }
    </style>
    <clipPath id="clippath">
      <path class="cls-9" d="m349.37,137.62l-22.2,1.98c-38.04,3.4-76.31,3.4-114.35,0l-22.2-1.98v-48.19c0-9.08,7.36-16.44,16.44-16.44h125.86c9.08,0,16.44,7.36,16.44,16.44v48.19Z"/>
    </clipPath>
  </defs>
  <g class="cls-2">
    <g id="_Layer_" data-name="&amp;lt;Layer&amp;gt;">
      <g>
        <path class="cls-13" d="m336.33,467.01s-29.89,5-65.4,5-67.26-5-67.26-5c-35.61-7.2-49.32-22.08-49.32-49.32v-169.91c0-28.84,9.21-56.92,26.29-80.16l13.71-18.66h151.31l13.71,18.66c17.08,23.24,26.29,51.32,26.29,80.16v169.91c0,27.24-13.98,42.12-49.32,49.32Z"/>
        <path class="cls-6" d="m319.89,167.67c-5.29,1.86-8.07,9.04-8.5,14.46-1.2,14.91,15.06,20.14,26.36,37.42,14.47,22.13,2.23,35.6,13.61,92.69,2.36,11.85,6.48,32.55,10.2,32.31,5-.31,6.11-38.19,6.8-62.08,1.66-56.85-3.81-70.25-6.8-76.54-10.06-21.14-30.39-42.23-41.67-38.27Z"/>
        <path class="cls-3" d="m197.43,449.15c-7.03-9.25-9.84-18.88-11.06-25.51l-1.1-176.55c.97-9.27,3.43-22.94,10.45-37.75,7.97-16.79,16.05-22.92,23.81-35.72,3.75-6.18,7.62-14.24,10.41-24.66h-35.61l-13.71,18.66c-17.08,23.24-26.29,51.32-26.29,80.16v169.91c0,27.24,13.71,42.12,49.32,49.32,0,0,9.46,1.49,23.81,2.84-10.25-3.35-21.52-9.48-30.05-20.7Z"/>
        <path class="cls-1" d="m385.65,372.82l-66.39,5.74c-32.78,2.83-65.75,2.83-98.53,0l-66.39-5.74v-128.4l66.39,5.74c32.78,2.83,65.75,2.83,98.53,0l66.39-5.74v128.4Z"/>
        <circle class="cls-1" cx="270.98" cy="316.34" r="52.86"/>
        <path class="cls-11" d="m213.02,287.33c11.83-8.78,12.71-12.62,12.94-14.14.07-.44.72-5.31-2.24-9.44-4.92-6.87-16.29-6.81-23.61-3.99-8.2,3.16-17.21,12.05-15.64,22.18.99,6.41,6.2,13.16,12.59,13.96,3.78.48,7.84-2.54,15.96-8.56Z"/>
        <text class="cls-4" transform="translate(221.88 328.22)"><tspan x="0" y="0">MILK</tspan></text>
        <path class="cls-12" d="m346.25,151.8l-8.69.74c-44.96,3.84-90.17,3.84-135.13,0l-8.69-.74c-3.9,0-7.09-3.19-7.09-7.09h0c0-3.9,3.19-7.09,7.09-7.09h152.5c3.9,0,7.09,3.19,7.09,7.09h0c0,3.9-3.19,7.09-7.09,7.09Z"/>
        <path class="cls-10" d="m350.35,137.62l-22.2,1.98c-38.04,3.4-76.31,3.4-114.35,0l-22.2-1.98v-48.19c0-9.08,7.36-16.44,16.44-16.44h125.86c9.08,0,16.44,7.36,16.44,16.44v48.19Z"/>
        <path class="cls-5" d="m221.81,137.21s0-.18,0-.43c0-.04,0-.07,0-.11,0-.02,0-.04,0-.05,0-.04,0-.07,0-.1,0,0,0-.02,0-.03,0-.01,0-.01,0,0-.01-.73-.04-2.1-.09-4.55-.07-.27-.87-9.45-.84-19.55.04-14.29,12.39-31.79,25.79-36.75l11.81-2.65h-50.42c-9.08,0-16.44,7.36-16.44,16.44v48.19l22.2,1.98c2.69.24,5.38.46,8.07.66-.03-1.52-.05-2.48-.06-3.04,0,0,0,0,0-.02Z"/>
        <g class="cls-8">
          <path class="cls-7" d="m233.91,27.83c1.27,8.5-26.24,27.29-45.07,35.72-4.82,2.16-15.56,6.54-20.41,17.01-1.71,3.69-2.11,6.89-2.55,12.76-.62,8.23-1.17,19.77-.85,34.02-17.57-2.55-35.15-5.1-52.72-7.65-13.7-31.87-9.67-66.75,10.2-88.44,36.57-39.9,109.48-16.25,111.4-3.4Z"/>
        </g>
        <rect class="cls-14" x="206.66" y="87.73" width="7.65" height="47.62" rx="3.83" ry="3.83"/>
        <rect class="cls-5" x="226.66" y="87.73" width="7.65" height="47.62" rx="3.83" ry="3.83"/>
        <rect class="cls-5" x="246.66" y="87.73" width="7.65" height="47.62" rx="3.83" ry="3.83"/>
        <rect class="cls-5" x="266.66" y="87.73" width="7.65" height="47.62" rx="3.83" ry="3.83"/>
        <rect class="cls-5" x="286.66" y="87.73" width="7.65" height="47.62" rx="3.83" ry="3.83"/>
        <rect class="cls-5" x="306.66" y="87.73" width="7.65" height="47.62" rx="3.83" ry="3.83"/>
        <rect class="cls-5" x="327.66" y="87.73" width="7.65" height="47.62" rx="3.83" ry="3.83"/>
        <path class="cls-11" d="m226.04,354.6c.44-8.2-4.71-14.99-27.54-35.06-19.82-17.43-33.81-29.72-44.16-36.6v89.88l54.01,4.67c9.66-9.89,17.19-13.42,17.69-22.89Z"/>
        <path class="cls-11" d="m319.26,250.16c-1.19.1-2.38.19-3.57.29,0,2.96-.02,6.17-.02,9.65-.04,21.64.44,25.17,2.8,29.39,6.78,12.13,23.84,20.56,37.42,17.01,14.62-3.83,12.49-18.23,29.76-29.22v-32.85l-66.39,5.74Z"/>
        <path class="cls-11" d="m377.62,361.87c-3.01-7.19-12.49-11.31-31.46-19.56-27.64-12.02-35.33-9.65-38.27-8.5-.86.33-10.14,4.13-14.46,13.61-4.7,10.33-1.27,22.53,5.16,32.55,6.9-.35,13.79-.81,20.67-1.4l59.99-5.19c.34-3.98-.13-7.91-1.64-11.5Z"/>
      </g>
    </g>
  </g>
</svg>