<?xml version="1.0" encoding="UTF-8"?>
<svg xmlns="http://www.w3.org/2000/svg" xmlns:xlink="http://www.w3.org/1999/xlink" viewBox="0 0 540 540">
  <defs>
    <style>
      .cls-1 {
        fill: #c5e5ed;
      }

      .cls-2 {
        fill: #fff;
      }

      .cls-3 {
        letter-spacing: -.04em;
      }

      .cls-4 {
        isolation: isolate;
      }

      .cls-5 {
        fill: #cff0f9;
      }

      .cls-6 {
        fill: #fae9d8;
      }

      .cls-7 {
        fill: #bfe3ef;
      }

      .cls-8 {
        fill: #bababa;
      }

      .cls-8, .cls-9 {
        mix-blend-mode: overlay;
      }

      .cls-10 {
        letter-spacing: -.06em;
      }

      .cls-11 {
        letter-spacing: 0em;
      }

      .cls-12 {
        clip-path: url(#clippath);
      }

      .cls-13 {
        fill: #f7d5c6;
      }

      .cls-14 {
        fill: #7a5f4f;
        font-family: OmpalumpaRegular, Ompalumpa;
        font-size: 40px;
      }

      .cls-15 {
        fill: #fce3cd;
      }

      .cls-16 {
        fill: #ffeedc;
      }

      .cls-17 {
        fill: #b5d8e3;
      }

      .cls-18 {
        fill: #f2c6b5;
      }

      .cls-9 {
        fill: #595959;
      }
    </style>
    <clipPath id="clippath">
      <path class="cls-7" d="m349.37,137.62l-22.2,1.98c-38.04,3.4-76.31,3.4-114.35,0l-22.2-1.98v-48.19c0-9.08,7.36-16.44,16.44-16.44h125.86c9.08,0,16.44,7.36,16.44,16.44v48.19Z"/>
    </clipPath>
  </defs>
  <g class="cls-4">
    <g id="_Layer_" data-name="&amp;lt;Layer&amp;gt;">
      <g>
        <path class="cls-16" d="m336.33,467.01s-29.89,5-65.4,5-67.26-5-67.26-5c-35.61-7.2-49.32-22.08-49.32-49.32v-169.91c0-28.84,9.21-56.92,26.29-80.16l13.71-18.66h151.31l13.71,18.66c17.08,23.24,26.29,51.32,26.29,80.16v169.91c0,27.24-13.98,42.12-49.32,49.32Z"/>
        <path class="cls-8" d="m319.89,167.67c-5.29,1.86-8.07,9.04-8.5,14.46-1.2,14.91,15.06,20.14,26.36,37.42,14.47,22.13,2.23,35.6,13.61,92.69,2.36,11.85,6.48,32.55,10.2,32.31,5-.31,6.11-38.19,6.8-62.08,1.66-56.85-3.81-70.25-6.8-76.54-10.06-21.14-30.39-42.23-41.67-38.27Z"/>
        <path class="cls-6" d="m197.43,449.15c-7.03-9.25-9.84-18.88-11.06-25.51l-1.1-176.55c.97-9.27,3.43-22.94,10.45-37.75,7.97-16.79,16.05-22.92,23.81-35.72,3.75-6.18,7.62-14.24,10.41-24.66h-35.61l-13.71,18.66c-17.08,23.24-26.29,51.32-26.29,80.16v169.91c0,27.24,13.71,42.12,49.32,49.32,0,0,9.46,1.49,23.81,2.84-10.25-3.35-21.52-9.48-30.05-20.7Z"/>
        <path class="cls-2" d="m385.65,372.82l-66.39,5.74c-32.78,2.83-65.75,2.83-98.53,0l-66.39-5.74v-128.4l66.39,5.74c32.93,2.94,65.45,1.39,98.53,0l66.39-5.74v128.4Z"/>
        <path class="cls-15" d="m346.25,151.8l-8.69.74c-44.96,3.84-90.17,3.84-135.13,0l-8.69-.74c-3.9,0-7.09-3.19-7.09-7.09h0c0-3.9,3.19-7.09,7.09-7.09h152.5c3.9,0,7.09,3.19,7.09,7.09h0c0,3.9-3.19,7.09-7.09,7.09Z"/>
        <path class="cls-13" d="m220.74,378.56c32.78,2.83,65.75,2.83,98.53,0l66.39-5.74v-21.15c-22.44,5.11-47.02-8.76-77.79-8.76s-62.47,5.54-84.59,5.54-64.05-10.01-68.92-9.8v34.18l66.39,5.74Z"/>
        <g>
          <g>
            <path class="cls-7" d="m349.37,137.62l-22.2,1.98c-38.04,3.4-76.31,3.4-114.35,0l-22.2-1.98v-48.19c0-9.08,7.36-16.44,16.44-16.44h125.86c9.08,0,16.44,7.36,16.44,16.44v48.19Z"/>
            <g class="cls-12">
              <path class="cls-9" d="m233.91,27.83c1.27,8.5-26.24,27.29-45.07,35.72-4.82,2.16-15.56,6.54-20.41,17.01-1.71,3.69-2.11,6.89-2.55,12.76-.62,8.23-1.17,19.77-.85,34.02-17.57-2.55-35.15-5.1-52.72-7.65-13.7-31.87-9.67-66.75,10.2-88.44,36.57-39.9,109.48-16.25,111.4-3.4Z"/>
            </g>
          </g>
          <path class="cls-17" d="m221.81,137.21s0-.18,0-.43c0-.04,0-.07,0-.11,0-.02,0-.04,0-.05,0-.04,0-.07,0-.1,0,0,0-.02,0-.03,0-.01,0-.01,0,0-.01-.73-.04-2.1-.09-4.55-.07-.27-.87-9.45-.84-19.55.04-14.29,12.39-31.79,25.79-36.75l11.81-2.65h-50.42c-9.08,0-16.44,7.36-16.44,16.44v48.19l22.2,1.98c2.69.24,5.38.46,8.07.66-.03-1.52-.05-2.48-.06-3.04,0,0,0,0,0-.02Z"/>
          <rect class="cls-1" x="206.66" y="87.73" width="7.65" height="47.62" rx="3.83" ry="3.83"/>
          <rect class="cls-5" x="226.66" y="87.73" width="7.65" height="47.62" rx="3.83" ry="3.83"/>
          <rect class="cls-5" x="246.66" y="87.73" width="7.65" height="47.62" rx="3.83" ry="3.83"/>
          <rect class="cls-5" x="266.66" y="87.73" width="7.65" height="47.62" rx="3.83" ry="3.83"/>
          <rect class="cls-5" x="286.66" y="87.73" width="7.65" height="47.62" rx="3.83" ry="3.83"/>
          <rect class="cls-5" x="306.66" y="87.73" width="7.65" height="47.62" rx="3.83" ry="3.83"/>
          <rect class="cls-5" x="327.66" y="87.73" width="7.65" height="47.62" rx="3.83" ry="3.83"/>
        </g>
        <g>
          <path class="cls-18" d="m190.75,287.69c-7.79,8.21-13.91,13.34-17.55,17.13-.17-.19-.33-.41-.48-.62-2.99-4.12-2.13-9.42-.04-15.44.42-1.21,1.67-1.97,2.17-3.24.46-1.17.16-2.83.65-4.04,2.99-7.34,5.23-11.61,10.02-15.05,1.17-.84,2.8-3.56,4.28-4.03,7.52-2.41,14.76,1.84,17.67,3.69-.85,1.53-1.79,3.15-2.81,4.78-3.96,6.31-7.58,10.17-13.9,16.82Z"/>
          <path class="cls-18" d="m206.45,298.75c-.58.47-2.03.43-2.59.89-.85.69-.82,1.87-1.66,2.52-2.37,1.81-4.71,3.4-7.24,4.56-.95.44-2.63-.12-3.64.19-1.69.51-2.77,1.76-4.71,1.84-1.3.05-5.92.22-10.07-1.49,1.31-2.45,2.94-5.09,4.96-7.76,5.04-6.67,9.06-9.04,14.05-14.22,3.74-3.9,8.45-9.83,12.52-18.72,1.92,1.38,2.8,5.04,5.15,8.44,1.94,2.8,5.62,5.1,5.26,8.81-.54,5.55-4.66,8.92-12.02,14.94Z"/>
          <text class="cls-14" transform="translate(229.88 302.12)"><tspan x="0" y="0">MILK</tspan><tspan x="-68.84" y="48">A</tspan><tspan class="cls-10" x="-46.32" y="48">L</tspan><tspan x="-30.28" y="48">TERN</tspan><tspan class="cls-3" x="53.68" y="48">A</tspan><tspan class="cls-11" x="74.72" y="48">TIVE</tspan></text>
        </g>
      </g>
    </g>
  </g>
</svg>