<?xml version="1.0" encoding="utf-8"?>
<!-- Generator: Adobe Illustrator 27.4.0, SVG Export Plug-In . SVG Version: 6.00 Build 0)  -->
<svg version="1.1" id="Layer_1" xmlns="http://www.w3.org/2000/svg" xmlns:xlink="http://www.w3.org/1999/xlink" x="0px" y="0px"
	 viewBox="0 0 540 540" style="enable-background:new 0 0 540 540;" xml:space="preserve">
<style type="text/css">
	.st0{fill:#FFEEDC;}
	.st1{fill:#BABABA;}
	.st2{fill:#FAE9D8;}
	.st3{fill:#FFFFFF;}
	.st4{fill:#FCE3CD;}
	.st5{fill:#F7D5C6;}
	.st6{fill:#BFE3EF;}
	.st7{clip-path:url(#SVGID_00000158707769692241060550000016766165757018731165_);}
	.st8{fill:#595959;}
	.st9{fill:#B5D8E3;}
	.st10{fill:#C5E5ED;}
	.st11{fill:#CFF0F9;}
	.st12{fill:#F2C6B5;}
	.st13{enable-background:new    ;}
	.st14{fill:#7A5F4F;}
</style>
<g>
	<g id="_Layer_">
		<g>
			<path class="st0" d="M336.3,467c0,0-29.9,5-65.4,5s-67.3-5-67.3-5c-35.6-7.2-49.3-22.1-49.3-49.3V247.8
				c0-28.8,9.2-56.9,26.3-80.2l13.7-18.7h151.3l13.7,18.7c17.1,23.2,26.3,51.3,26.3,80.2v169.9C385.7,444.9,371.7,459.8,336.3,467
				L336.3,467z"/>
			<path class="st1" d="M319.9,167.7c-5.3,1.9-8.1,9-8.5,14.5c-1.2,14.9,15.1,20.1,26.4,37.4c14.5,22.1,2.2,35.6,13.6,92.7
				c2.4,11.9,6.5,32.5,10.2,32.3c5-0.3,6.1-38.2,6.8-62.1c1.7-56.9-3.8-70.2-6.8-76.5C351.5,184.8,331.2,163.7,319.9,167.7
				L319.9,167.7z"/>
			<path class="st2" d="M197.4,449.1c-7-9.2-9.8-18.9-11.1-25.5l-1.1-176.6c1-9.3,3.4-22.9,10.4-37.8c8-16.8,16.1-22.9,23.8-35.7
				c3.8-6.2,7.6-14.2,10.4-24.7h-35.6l-13.7,18.7c-17.1,23.2-26.3,51.3-26.3,80.2v169.9c0,27.2,13.7,42.1,49.3,49.3
				c0,0,9.5,1.5,23.8,2.8C217.2,466.5,205.9,460.4,197.4,449.1L197.4,449.1z"/>
			<path class="st3" d="M385.6,372.8l-66.4,5.7c-32.8,2.8-65.8,2.8-98.5,0l-66.4-5.7V244.4l66.4,5.7c32.9,2.9,65.4,1.4,98.5,0
				l66.4-5.7L385.6,372.8L385.6,372.8z"/>
			<path class="st4" d="M346.2,151.8l-8.7,0.7c-45,3.8-90.2,3.8-135.1,0l-8.7-0.7c-3.9,0-7.1-3.2-7.1-7.1l0,0c0-3.9,3.2-7.1,7.1-7.1
				h152.5c3.9,0,7.1,3.2,7.1,7.1l0,0C353.3,148.6,350.1,151.8,346.2,151.8L346.2,151.8z"/>
			<path class="st5" d="M220.7,378.6c32.8,2.8,65.7,2.8,98.5,0l66.4-5.7v-21.1c-22.4,5.1-47-8.8-77.8-8.8s-62.5,5.5-84.6,5.5
				s-64.1-10-68.9-9.8v34.2L220.7,378.6L220.7,378.6z"/>
			<g>
				<g>
					<path class="st6" d="M349.4,137.6l-22.2,2c-38,3.4-76.3,3.4-114.4,0l-22.2-2V89.4c0-9.1,7.4-16.4,16.4-16.4h125.9
						c9.1,0,16.4,7.4,16.4,16.4L349.4,137.6L349.4,137.6z"/>
					<g>
						<defs>
							<path id="SVGID_1_" d="M349.4,137.6l-22.2,2c-38,3.4-76.3,3.4-114.4,0l-22.2-2V89.4c0-9.1,7.4-16.4,16.4-16.4h125.9
								c9.1,0,16.4,7.4,16.4,16.4L349.4,137.6L349.4,137.6z"/>
						</defs>
						<clipPath id="SVGID_00000128466052734511886100000011645655486625453219_">
							<use xlink:href="#SVGID_1_"  style="overflow:visible;"/>
						</clipPath>
						<g style="clip-path:url(#SVGID_00000128466052734511886100000011645655486625453219_);">
							<path class="st8" d="M233.9,27.8c1.3,8.5-26.2,27.3-45.1,35.7c-4.8,2.2-15.6,6.5-20.4,17c-1.7,3.7-2.1,6.9-2.6,12.8
								c-0.6,8.2-1.2,19.8-0.9,34c-17.6-2.6-35.2-5.1-52.7-7.7c-13.7-31.9-9.7-66.8,10.2-88.4C159.1-8.6,232,15,233.9,27.8
								L233.9,27.8z"/>
						</g>
					</g>
				</g>
				<path class="st9" d="M221.8,137.2c0,0,0-0.2,0-0.4c0,0,0-0.1,0-0.1c0,0,0,0,0-0.1c0,0,0-0.1,0-0.1c0,0,0,0,0,0s0,0,0,0
					c0-0.7,0-2.1-0.1-4.6c-0.1-0.3-0.9-9.4-0.8-19.6c0-14.3,12.4-31.8,25.8-36.8l11.8-2.7h-50.4c-9.1,0-16.4,7.4-16.4,16.4v48.2
					l22.2,2c2.7,0.2,5.4,0.5,8.1,0.7C221.9,138.7,221.8,137.8,221.8,137.2C221.8,137.2,221.8,137.2,221.8,137.2L221.8,137.2z"/>
				<path class="st10" d="M210.5,87.7L210.5,87.7c2.1,0,3.8,1.7,3.8,3.8v40c0,2.1-1.7,3.8-3.8,3.8l0,0c-2.1,0-3.8-1.7-3.8-3.8v-40
					C206.7,89.4,208.4,87.7,210.5,87.7z"/>
				<path class="st11" d="M230.5,87.7L230.5,87.7c2.1,0,3.8,1.7,3.8,3.8v40c0,2.1-1.7,3.8-3.8,3.8l0,0c-2.1,0-3.8-1.7-3.8-3.8v-40
					C226.7,89.4,228.4,87.7,230.5,87.7z"/>
				<path class="st11" d="M250.5,87.7L250.5,87.7c2.1,0,3.8,1.7,3.8,3.8v40c0,2.1-1.7,3.8-3.8,3.8l0,0c-2.1,0-3.8-1.7-3.8-3.8v-40
					C246.7,89.4,248.4,87.7,250.5,87.7z"/>
				<path class="st11" d="M270.5,87.7L270.5,87.7c2.1,0,3.8,1.7,3.8,3.8v40c0,2.1-1.7,3.8-3.8,3.8h0c-2.1,0-3.8-1.7-3.8-3.8v-40
					C266.7,89.4,268.4,87.7,270.5,87.7z"/>
				<path class="st11" d="M290.5,87.7L290.5,87.7c2.1,0,3.8,1.7,3.8,3.8v40c0,2.1-1.7,3.8-3.8,3.8h0c-2.1,0-3.8-1.7-3.8-3.8v-40
					C286.7,89.4,288.4,87.7,290.5,87.7z"/>
				<path class="st11" d="M310.5,87.7L310.5,87.7c2.1,0,3.8,1.7,3.8,3.8v40c0,2.1-1.7,3.8-3.8,3.8h0c-2.1,0-3.8-1.7-3.8-3.8v-40
					C306.7,89.4,308.4,87.7,310.5,87.7z"/>
				<path class="st11" d="M331.5,87.7L331.5,87.7c2.1,0,3.8,1.7,3.8,3.8v40c0,2.1-1.7,3.8-3.8,3.8h0c-2.1,0-3.8-1.7-3.8-3.8v-40
					C327.7,89.4,329.4,87.7,331.5,87.7z"/>
			</g>
			<g>
				<path class="st12" d="M190.8,287.7c-7.8,8.2-13.9,13.3-17.6,17.1c-0.2-0.2-0.3-0.4-0.5-0.6c-3-4.1-2.1-9.4,0-15.4
					c0.4-1.2,1.7-2,2.2-3.2c0.5-1.2,0.2-2.8,0.6-4c3-7.3,5.2-11.6,10-15c1.2-0.8,2.8-3.6,4.3-4c7.5-2.4,14.8,1.8,17.7,3.7
					c-0.9,1.5-1.8,3.1-2.8,4.8C200.7,277.2,197.1,281,190.8,287.7L190.8,287.7z"/>
				<path class="st12" d="M206.4,298.8c-0.6,0.5-2,0.4-2.6,0.9c-0.9,0.7-0.8,1.9-1.7,2.5c-2.4,1.8-4.7,3.4-7.2,4.6
					c-0.9,0.4-2.6-0.1-3.6,0.2c-1.7,0.5-2.8,1.8-4.7,1.8c-1.3,0-5.9,0.2-10.1-1.5c1.3-2.5,2.9-5.1,5-7.8c5-6.7,9.1-9,14.1-14.2
					c3.7-3.9,8.4-9.8,12.5-18.7c1.9,1.4,2.8,5,5.1,8.4c1.9,2.8,5.6,5.1,5.3,8.8C217.9,289.4,213.8,292.7,206.4,298.8L206.4,298.8z"
					/>
				<g class="st13">
					<path class="st14" d="M258.4,299.8c-0.2,0.6-0.6,1-1.3,1.4c-0.6,0.4-1.3,0.6-2.1,0.6c-0.8,0-1.5-0.1-2.2-0.3
						c-0.7-0.2-1.3-0.7-1.6-1.5s-0.5-1.6-0.3-2.7c0.1-0.9,0.1-1.8,0-2.7c-0.1-0.9-0.2-1.8-0.3-2.6l-0.2-1.2
						c-0.2,0.1-0.4,0.6-0.7,1.3c-0.3,0.7-0.5,1.5-0.7,2.3c-0.2,0.8-0.4,1.7-0.6,2.5c-0.2,0.8-0.3,1.4-0.4,1.5
						c-0.3,0.8-0.9,1.4-1.9,1.7c-0.9,0.3-1.9,0.3-2.9,0c-1-0.3-1.6-0.8-1.9-1.5c-0.2-0.6-0.5-1.5-0.8-2.8s-0.5-2.4-0.8-3.4
						c-0.2-0.9-0.5-1.4-0.8-1.4c0,0.1-0.1,0.2-0.1,0.4c0,0.2-0.1,0.5-0.2,1c-0.1,0.5-0.1,1-0.2,1.5s-0.1,1.1-0.1,1.8
						c0,0.7,0,1.4,0.1,2c0.1,0.8-0.1,1.5-0.5,2.1c-0.4,0.6-0.9,1.1-1.6,1.4c-0.7,0.3-1.3,0.4-2.1,0.5c-0.7,0-1.4-0.2-2.1-0.6
						c-0.7-0.4-1.1-1-1.5-1.8c-0.5-1.1-0.7-2.7-0.7-4.7c0-2,0-4,0.2-5.9c0.1-2.3,0.2-3.9,0.3-4.8c0.1-0.9,0.2-2.1,0.5-3.5
						c0.2-1.4,0.5-2.6,0.9-3.5c0.5-1.1,1.2-1.8,2.2-2.1c1-0.3,2.1-0.3,3.1,0.1c1.1,0.4,2,1.1,2.8,2c0.4,0.5,0.7,1,1.1,1.5
						c0.4,0.6,0.7,1.1,1,1.7c0.3,0.6,0.6,1.1,0.8,1.7c0.3,0.6,0.5,1.1,0.7,1.6c0.2,0.5,0.4,0.9,0.5,1.3c0.1,0.4,0.3,0.7,0.3,0.9
						l0.1,0.3c0.2-0.4,0.4-0.9,0.6-1.6c0.3-0.6,0.7-1.7,1.5-3.1c0.7-1.5,1.4-2.6,2.1-3.5c1.1-1.3,2.2-2.2,3.3-2.7
						c1.1-0.4,2.2-0.4,3.1,0.2c1,0.6,1.7,1.6,2.2,3c0.6,1.7,1,4,1.2,7.1c0.3,3,0.3,5.9,0.2,8.6C259.1,296.8,258.8,298.7,258.4,299.8
						z"/>
					<path class="st14" d="M269.4,298c0,0.8-0.3,1.6-0.8,2.2s-1.2,1.1-2,1.3s-1.6,0.3-2.4,0.2c-0.8-0.1-1.5-0.4-2.1-1.1
						c-0.6-0.6-1-1.4-1.2-2.4c-0.4-2.4-0.5-6.3-0.4-11.5c0.1-5.2,0.3-8.5,0.7-9.7c0.2-0.8,0.7-1.5,1.6-1.9c0.8-0.4,1.7-0.7,2.6-0.6
						c0.9,0,1.7,0.2,2.5,0.7c0.8,0.4,1.2,1.1,1.4,1.9c0.2,1,0.2,2,0.2,2.9s0,2.2-0.1,3.9s-0.1,3.1-0.2,4.5c0,1.5,0,3.3,0.1,5.4
						C269.3,295.7,269.4,297.2,269.4,298z"/>
					<path class="st14" d="M286.4,300.8c-1.2,0.4-2.5,0.7-3.9,0.9c-1.4,0.2-2.9,0.3-4.4,0.3c-1.5,0-2.8-0.3-4-0.9s-2-1.4-2.3-2.5
						c-0.5-1.4-0.8-3.2-0.9-5.5c-0.1-2.3-0.1-4.6,0-6.8c0.2-2.2,0.4-4.3,0.6-6.1c0.3-1.9,0.5-3.2,0.7-4c0.2-0.6,0.6-1,1.1-1.4
						c0.5-0.4,1.2-0.6,1.8-0.6c0.7,0,1.3,0.1,2,0.3s1.2,0.6,1.7,1.2c0.5,0.6,0.7,1.3,0.8,2.1c0.1,1.2,0.1,3.2-0.1,6
						c-0.2,2.8-0.3,5.2-0.5,6.9c-0.2,1.8-0.2,3.1,0,3.8c0.1,0.2,0.3,0.2,0.6,0.2c0.3,0,0.7-0.1,1.2-0.2c0.5-0.1,1-0.2,1.5-0.3
						c0.5-0.1,1.1-0.2,1.8-0.3c0.7-0.1,1.3-0.1,1.9-0.1c0.8,0,1.4,0.3,2,0.9c0.5,0.6,0.9,1.3,1,2c0.1,0.8,0,1.5-0.5,2.3
						C288.2,299.8,287.5,300.4,286.4,300.8z"/>
					<path class="st14" d="M297.8,299.2c-0.2,0.9-0.7,1.5-1.5,2c-0.8,0.5-1.6,0.7-2.4,0.7s-1.6-0.2-2.4-0.6c-0.8-0.4-1.2-1-1.4-1.8
						c-0.2-0.9-0.4-1.9-0.4-3.1c0-1.1,0-2.2,0.1-3.1c0.1-0.9,0.2-2,0.4-3.2s0.2-2.2,0.2-3c0-0.8,0-1.6-0.1-2.4
						c-0.1-0.8-0.1-1.5-0.2-2c-0.1-0.5-0.2-1.2-0.4-2c-0.2-0.8-0.3-1.3-0.3-1.6c-0.2-1.1-0.1-2.1,0.3-2.8c0.4-0.8,0.9-1.3,1.7-1.5
						c0.7-0.3,1.5-0.4,2.3-0.3c0.8,0,1.6,0.2,2.4,0.7c0.7,0.4,1.3,0.9,1.6,1.6c0.3,0.7,0.6,1.7,0.6,3.2c0.1,1.4,0,2.7-0.1,3.7
						l-0.2,1.6c0.1-0.2,0.2-0.5,0.3-0.9c0.1-0.4,0.4-1.1,0.8-2.1c0.4-1,0.8-1.9,1.2-2.8c0.4-0.8,0.9-1.7,1.4-2.5s1.1-1.4,1.6-1.7
						c0.7-0.4,1.5-0.6,2.3-0.5s1.5,0.4,2.1,1c0.6,0.5,1.1,1.1,1.5,1.9c0.4,0.7,0.7,1.5,0.7,2.2c0,0.8-0.1,1.4-0.4,2.1
						c-0.3,0.6-0.7,1.2-1.2,1.9c-0.5,0.7-0.9,1.3-1.3,1.9c-0.4,0.6-0.8,1.1-1.2,1.6c-0.4,0.5-0.7,0.9-0.9,1.2l-0.3,0.4
						c1.2,1.8,2.5,3.5,3.9,5.1c0.6,0.6,1,1.3,1.2,2.1c0.2,0.7,0.2,1.4,0,2c-0.2,0.6-0.4,1.2-0.8,1.7c-0.4,0.5-0.8,1-1.4,1.2
						c-0.6,0.3-1.1,0.5-1.7,0.5c-0.6,0.1-1.2-0.1-1.8-0.4c-1-0.6-2-1.3-2.7-2.3c-0.8-1-1.3-1.8-1.7-2.6c-0.3-0.8-0.6-1.6-0.9-2.5
						c-0.3-0.9-0.5-1.4-0.5-1.6c0.1,0.2,0.1,1.2,0.1,2.8C298.2,296.6,298.1,298,297.8,299.2z"/>
				</g>
				<g class="st13">
					<path class="st14" d="M183.3,345.3c0,1-0.3,1.8-0.8,2.6c-0.5,0.7-1.2,1.2-2,1.4c-0.8,0.2-1.6,0.3-2.4,0.2
						c-0.8-0.1-1.5-0.4-2.1-1.1s-0.9-1.4-1-2.3c0-0.2-0.1-0.6-0.1-1.2c0-0.5-0.1-1-0.1-1.3c0-0.3-0.1-0.8-0.1-1.2
						c-0.1-0.5-0.1-0.9-0.2-1.2c-0.1-0.3-0.2-0.6-0.4-0.9c-0.1-0.3-0.3-0.5-0.6-0.7c-0.2-0.1-0.5-0.2-0.8-0.3
						c-0.5,0-0.9,0.2-1.2,0.7c-0.3,0.5-0.6,1.1-0.7,1.8c-0.1,0.7-0.3,1.6-0.6,2.6c-0.3,1.1-0.5,1.9-0.8,2.6c-0.3,0.8-0.9,1.5-1.6,2
						c-0.7,0.5-1.4,0.7-2.2,0.8c-0.8,0-1.5,0-2.2-0.3c-0.7-0.2-1.3-0.6-1.7-1.1c-0.5-0.5-0.7-1.1-0.7-1.8c0-0.9,0.2-1.8,0.5-2.9
						c0.3-1.1,0.7-2.2,1.2-3.6c0.5-1.3,0.8-2.5,1.1-3.5c0.1-0.6,0.3-1.5,0.4-2.8c0.1-1.3,0.3-2.4,0.4-3.4c0.1-1,0.4-2.1,0.8-3.3
						c0.4-1.2,0.9-2.2,1.5-3s1.4-1.5,2.5-2c1.1-0.6,2.4-0.8,3.9-0.8c1.3,0,2.5,0.4,3.6,1.3c1.1,0.9,2,2,2.7,3.5
						c0.7,1.5,1.3,3,1.8,4.7c0.5,1.7,0.9,3.5,1.2,5.3c0.3,1.9,0.5,3.5,0.6,5C183.3,342.8,183.3,344.1,183.3,345.3z M174,334.3
						c0.1-0.5,0.1-1.5-0.1-3c-0.2-1.5-0.5-2.3-0.8-2.4c-0.2-0.1-0.4,0.4-0.7,1.3c-0.3,0.9-0.4,1.9-0.5,2.7c-0.1,0.9,0,1.4,0.1,1.7
						c0.3,0.2,0.6,0.3,1.1,0.3C173.7,334.9,174,334.7,174,334.3z"/>
				</g>
				<g class="st13">
					<path class="st14" d="M199.8,348.8c-1.2,0.4-2.5,0.7-3.9,0.9c-1.4,0.2-2.9,0.3-4.4,0.3c-1.5,0-2.8-0.3-4-0.9
						c-1.2-0.6-2-1.4-2.3-2.5c-0.5-1.4-0.8-3.2-0.9-5.5c-0.1-2.3-0.1-4.6,0-6.8c0.2-2.2,0.4-4.3,0.6-6.1c0.3-1.9,0.5-3.2,0.7-4
						c0.2-0.6,0.6-1,1.1-1.4c0.5-0.4,1.2-0.6,1.8-0.6s1.3,0.1,2,0.3c0.7,0.2,1.2,0.6,1.7,1.2c0.5,0.6,0.7,1.3,0.8,2.1
						c0.1,1.2,0.1,3.2-0.1,6c-0.2,2.8-0.3,5.2-0.5,6.9c-0.2,1.8-0.2,3.1,0,3.8c0.1,0.2,0.3,0.2,0.6,0.2s0.7-0.1,1.2-0.2
						s1-0.2,1.5-0.3c0.5-0.1,1.1-0.2,1.8-0.3c0.7-0.1,1.3-0.1,1.9-0.1c0.8,0,1.4,0.3,2,0.9c0.5,0.6,0.9,1.3,1,2
						c0.1,0.8,0,1.5-0.5,2.3C201.5,347.8,200.8,348.4,199.8,348.8z"/>
				</g>
				<g class="st13">
					<path class="st14" d="M206.4,329.7c-0.1,0-0.2,0.1-0.3,0.1s-0.4,0.1-0.8,0.3c-0.4,0.1-0.8,0.2-1.2,0.3s-0.8,0.1-1.3,0.1
						c-0.5,0-1,0-1.4-0.1c-0.7-0.1-1.3-0.7-1.8-1.7c-0.4-1-0.5-2-0.3-3.1c0.2-1.1,0.8-1.8,1.7-2.2c2.3-1,8-1.1,17.2-0.4
						c1,0.1,1.8,0.4,2.4,0.9c0.6,0.5,0.9,1.1,1.1,1.8c0.1,0.7,0.1,1.4,0.1,2.1c-0.1,0.7-0.2,1.3-0.5,1.8c-0.2,0.4-0.7,0.7-1.3,0.8
						c-0.7,0.1-1.4,0.1-2,0c-0.7-0.1-1.4-0.3-2.1-0.4s-1.1-0.2-1.2-0.2c-0.2,0-0.3,1.1-0.3,3.2c0,2.1,0,4.6,0,7.4
						c0,2.8-0.1,4.9-0.3,6.1c-0.2,1-0.6,1.8-1.2,2.4c-0.6,0.6-1.3,0.9-2,0.9c-0.7,0-1.4,0-2-0.2c-0.7-0.2-1.1-0.5-1.5-0.9
						c-0.4-0.4-0.7-1-1-1.7c-0.3-0.7-0.4-1.5-0.5-2.2c-0.1-0.7-0.2-1.6-0.2-2.7c-0.1-1.4,0-3.6,0.2-6.6
						C206,332.4,206.2,330.5,206.4,329.7z"/>
					<path class="st14" d="M237.8,348.8c-1.1,0.4-2.5,0.7-4,0.9c-1.5,0.2-3,0.3-4.6,0.2c-1.5,0-2.9-0.4-4.1-1
						c-1.2-0.6-1.9-1.5-2.2-2.6c-0.5-2.3-0.8-5-0.9-8.1c0-3.1,0.1-5.8,0.3-8.1c0.3-2.3,0.6-4,0.9-5.1c0.3-1,1.4-1.7,3.4-2.2
						c1.9-0.5,4.1-0.7,6.6-0.5s4.5,0.6,6.1,1.4c0.9,0.4,1.4,1.1,1.6,2.2c0.2,1,0,2-0.6,2.9c-0.5,0.9-1.3,1.4-2.2,1.5
						c-0.5,0.1-1.1,0-1.8-0.1s-1.4-0.2-2-0.4s-1.2-0.3-1.7-0.4s-1-0.1-1.4-0.1c-0.4,0-0.6,0.2-0.7,0.4c-0.2,0.5-0.3,1.2-0.3,2.1
						c0,1,0,1.6,0.2,1.9c0,0.1,0.4,0.1,1.1,0.1c0.7,0,1.5-0.1,2.4-0.1c0.9,0,1.8,0,2.7,0.2c0.5,0.1,0.8,0.3,1.1,0.8
						c0.3,0.5,0.4,0.9,0.4,1.5s-0.1,1.1-0.4,1.6c-0.3,0.5-0.6,0.9-1.1,1.1c-0.4,0.2-0.9,0.3-1.4,0.4c-0.5,0.1-1,0.1-1.4,0.1
						c-0.4,0-0.8,0-1.3,0c-0.4,0-0.8-0.1-1.1-0.1c-0.3,0-0.5,0-0.7,0s-0.3,0.1-0.3,0.3c-0.1,0.7-0.1,1.4-0.1,2
						c0.1,0.6,0.2,1,0.3,1.2c0.1,0.2,0.3,0.3,0.6,0.3c0.3,0,0.7,0,1.1-0.1c0.5-0.1,1-0.2,1.5-0.3c0.5-0.1,1.1-0.2,1.8-0.3
						c0.7-0.1,1.3-0.1,1.9-0.1c0.7,0,1.4,0.3,1.9,0.8c0.5,0.5,0.9,1.2,1,1.9s0,1.4-0.5,2.2C239.5,347.8,238.8,348.4,237.8,348.8z"/>
					<path class="st14" d="M257.3,339c0.1,0,0.1,0.1,0.2,0.1c0.1,0.1,0.2,0.2,0.4,0.3c0.2,0.2,0.4,0.3,0.6,0.5
						c0.2,0.2,0.4,0.4,0.7,0.7c0.3,0.3,0.5,0.6,0.8,0.9c0.3,0.3,0.5,0.7,0.8,1.1c0.3,0.4,0.5,0.8,0.7,1.2c0.5,0.9,0.5,1.9,0,3
						c-0.4,1.1-1.2,1.9-2.2,2.5c-1,0.6-2,0.7-3,0.3c-1-0.4-2-1.2-2.9-2.3c-0.9-1.1-1.6-2.2-2.1-3.3c-0.5-1.1-0.8-2.1-1-2.9
						c0.6,2.7,0.7,4.7,0.3,6.2c-0.2,0.9-0.7,1.5-1.5,2c-0.8,0.5-1.7,0.7-2.6,0.7c-0.9,0-1.7-0.2-2.5-0.6c-0.8-0.4-1.3-1-1.5-1.8
						c-0.2-0.9-0.4-1.9-0.4-3c-0.1-1.1,0-2,0-2.8c0.1-0.8,0.2-1.8,0.3-2.9c0.1-1.1,0.2-2.1,0.2-2.9c0-1.2-0.1-2.8-0.3-4.8
						s-0.3-3.4-0.3-4.3c0-1,0.2-1.9,0.7-2.6c0.5-0.7,1-1.2,1.7-1.6c0.7-0.4,1.5-0.6,2.5-0.8s2-0.2,2.9-0.2s1.9,0.1,3,0.2
						c2.3,0.2,4.3,1.2,5.8,2.8c1.6,1.6,2.5,3.4,2.9,5.3c0.3,1.6,0.3,2.9,0.2,4.1c-0.1,1.1-0.5,2.1-0.9,2.8s-1,1.3-1.6,1.6
						C258.5,338.9,257.9,339,257.3,339z M253.4,333.2c0.4-1.3,0-2.6-1.1-3.8c-0.7-0.7-1.3-0.7-1.8,0c-0.1,0.1-0.1,0.3-0.2,0.5
						c0,0.2,0,0.5,0,0.7c0,0.3,0,0.6,0,0.9c0,0.3,0,0.6,0.1,0.9c0,0.2,0.1,0.5,0.1,0.8c0,0.3,0,0.5,0,0.5c0.1,0.4,0.3,0.8,0.6,1
						s0.8,0.2,1.2,0C252.8,334.5,253.2,334,253.4,333.2z"/>
					<path class="st14" d="M281.5,347.9c-0.6,0.8-1.4,1.4-2.4,1.7s-2,0.2-3.1-0.2c-1.1-0.4-1.9-1.2-2.5-2.4c-0.2-0.3-0.5-1-1-2
						c-0.5-1-0.9-1.7-1.2-2.2c-0.3-0.4-0.4-0.5-0.4-0.3c0,0.3,0,1,0,1.9c0,0.9,0,1.6,0,1.9c0,0.7-0.2,1.3-0.4,1.8
						c-0.3,0.5-0.6,0.9-1.1,1.1c-0.5,0.2-0.9,0.4-1.5,0.5c-0.5,0.1-1.1,0.1-1.6-0.1c-0.5-0.2-1-0.4-1.5-0.7
						c-0.5-0.3-0.8-0.7-1.1-1.2c-0.3-0.5-0.5-1.1-0.5-1.7c-0.3-3.6-0.3-7.7-0.2-12.2c0.1-4.6,0.5-7.7,1.1-9.2c0.3-0.9,1-1.5,1.9-1.8
						c1-0.3,1.9-0.4,2.9-0.2s1.7,0.5,2.1,1c0.6,0.6,1.1,1.9,1.7,3.7c0.5,1.8,0.9,3.5,1.3,5c0.3,1.5,0.6,2.3,0.7,2.3
						c0.1-0.1,0.2-0.3,0.1-0.6c0-0.3,0-0.8-0.1-1.6c-0.1-0.7-0.1-1.5-0.2-2.3c-0.1-0.8-0.1-1.6,0-2.6c0.1-1,0.2-1.9,0.4-2.7
						c0.1-0.5,0.4-1,0.9-1.4c0.5-0.4,1-0.7,1.7-0.9c0.6-0.2,1.3-0.2,2-0.1c0.7,0.1,1.3,0.3,1.8,0.7c0.6,0.4,1,1,1.2,1.7
						c0.1,0.4,0.2,0.8,0.3,1.2c0.1,0.4,0.2,0.9,0.2,1.4c0,0.5,0,1,0.1,1.4c0,0.4,0,1,0,1.7s0,1.2-0.1,1.6c0,0.4,0,1-0.1,1.8
						c-0.1,0.8-0.1,1.4-0.1,1.7c0,0.9-0.1,2.4-0.1,4.7c0,2.3-0.1,4-0.3,5.2C282.1,346.6,281.9,347.4,281.5,347.9z"/>
				</g>
				<g class="st13">
					<path class="st14" d="M305.8,345.3c0,1-0.3,1.8-0.8,2.6c-0.5,0.7-1.2,1.2-2,1.4c-0.8,0.2-1.6,0.3-2.4,0.2
						c-0.8-0.1-1.5-0.4-2.1-1.1c-0.6-0.6-0.9-1.4-1-2.3c0-0.2-0.1-0.6-0.1-1.2c0-0.5-0.1-1-0.1-1.3c0-0.3-0.1-0.8-0.1-1.2
						c-0.1-0.5-0.1-0.9-0.2-1.2s-0.2-0.6-0.4-0.9c-0.1-0.3-0.3-0.5-0.6-0.7c-0.2-0.1-0.5-0.2-0.8-0.3c-0.5,0-0.9,0.2-1.2,0.7
						c-0.3,0.5-0.6,1.1-0.7,1.8c-0.1,0.7-0.3,1.6-0.6,2.6c-0.3,1.1-0.5,1.9-0.8,2.6c-0.3,0.8-0.9,1.5-1.6,2
						c-0.7,0.5-1.4,0.7-2.2,0.8s-1.5,0-2.2-0.3c-0.7-0.2-1.3-0.6-1.7-1.1c-0.5-0.5-0.7-1.1-0.7-1.8c0-0.9,0.2-1.8,0.5-2.9
						s0.7-2.2,1.2-3.6c0.5-1.3,0.8-2.5,1.1-3.5c0.1-0.6,0.3-1.5,0.4-2.8c0.1-1.3,0.3-2.4,0.4-3.4c0.1-1,0.4-2.1,0.8-3.3
						s0.9-2.2,1.5-3c0.6-0.8,1.4-1.5,2.5-2c1.1-0.6,2.4-0.8,3.9-0.8c1.3,0,2.5,0.4,3.6,1.3c1.1,0.9,2,2,2.7,3.5
						c0.7,1.5,1.3,3,1.8,4.7c0.5,1.7,0.9,3.5,1.2,5.3c0.3,1.9,0.5,3.5,0.6,5C305.8,342.8,305.8,344.1,305.8,345.3z M296.6,334.3
						c0.1-0.5,0.1-1.5-0.1-3c-0.2-1.5-0.5-2.3-0.8-2.4c-0.2-0.1-0.4,0.4-0.7,1.3c-0.3,0.9-0.4,1.9-0.5,2.7c-0.1,0.9,0,1.4,0.1,1.7
						c0.3,0.2,0.6,0.3,1.1,0.3C296.2,334.9,296.5,334.7,296.6,334.3z"/>
				</g>
				<g class="st13">
					<path class="st14" d="M311.4,329.7c-0.1,0-0.2,0.1-0.3,0.1s-0.4,0.1-0.8,0.3c-0.4,0.1-0.8,0.2-1.2,0.3
						c-0.4,0.1-0.8,0.1-1.3,0.1c-0.5,0-1,0-1.4-0.1c-0.7-0.1-1.3-0.7-1.8-1.7c-0.4-1-0.5-2-0.3-3.1s0.8-1.8,1.7-2.2
						c2.3-1,8-1.1,17.2-0.4c1,0.1,1.8,0.4,2.4,0.9c0.6,0.5,0.9,1.1,1.1,1.8c0.1,0.7,0.1,1.4,0.1,2.1c-0.1,0.7-0.2,1.3-0.5,1.8
						c-0.2,0.4-0.7,0.7-1.3,0.8c-0.7,0.1-1.4,0.1-2,0c-0.7-0.1-1.4-0.3-2.1-0.4c-0.7-0.1-1.1-0.2-1.2-0.2c-0.2,0-0.3,1.1-0.3,3.2
						c0,2.1,0,4.6,0,7.4c0,2.8-0.1,4.9-0.3,6.1c-0.2,1-0.6,1.8-1.2,2.4c-0.6,0.6-1.3,0.9-2,0.9s-1.4,0-2-0.2
						c-0.7-0.2-1.1-0.5-1.5-0.9c-0.4-0.4-0.7-1-1-1.7c-0.3-0.7-0.4-1.5-0.5-2.2c-0.1-0.7-0.2-1.6-0.2-2.7c-0.1-1.4,0-3.6,0.2-6.6
						C311,332.4,311.2,330.5,311.4,329.7z"/>
					<path class="st14" d="M336.1,346c0,0.8-0.3,1.6-0.8,2.2c-0.5,0.6-1.2,1.1-2,1.3c-0.8,0.2-1.6,0.3-2.4,0.2
						c-0.8-0.1-1.5-0.4-2.1-1.1c-0.6-0.6-1-1.4-1.2-2.4c-0.4-2.4-0.5-6.3-0.4-11.5c0.1-5.2,0.3-8.5,0.7-9.7c0.2-0.8,0.7-1.5,1.6-1.9
						c0.8-0.4,1.7-0.7,2.6-0.6c0.9,0,1.7,0.2,2.5,0.7c0.8,0.4,1.2,1.1,1.4,1.9c0.2,1,0.2,2,0.2,2.9s0,2.2-0.1,3.9s-0.1,3.1-0.2,4.5
						c0,1.5,0,3.3,0.1,5.4S336.1,345.2,336.1,346z"/>
					<path class="st14" d="M356.6,335.5c-0.1,0.4-0.2,1-0.3,1.8c-0.1,0.8-0.3,1.5-0.4,2.1c-0.1,0.6-0.3,1.4-0.5,2.2
						s-0.4,1.6-0.7,2.3c-0.2,0.7-0.5,1.4-0.8,2.1c-0.3,0.7-0.7,1.4-1.1,1.9c-0.4,0.5-0.9,1-1.4,1.5c-0.5,0.5-1.1,0.8-1.8,1
						c-0.7,0.2-1.4,0.4-2.2,0.4c-1,0-1.9-0.3-2.7-0.8c-0.8-0.5-1.5-1.2-2.1-2c-0.6-0.8-1.1-1.8-1.6-3.1c-0.5-1.3-0.9-2.5-1.2-3.6
						c-0.3-1.1-0.6-2.5-0.9-4c-0.3-1.5-0.5-2.8-0.6-3.9c-0.1-1-0.3-2.3-0.5-3.7c-0.2-1.4-0.3-2.4-0.4-2.9c-0.2-1-0.1-1.8,0.3-2.5
						c0.4-0.7,0.9-1.2,1.6-1.5c0.7-0.3,1.4-0.4,2.1-0.3c0.7,0,1.5,0.3,2.2,0.8c0.7,0.5,1.3,1.2,1.7,2.1c0.6,1.4,1.2,3.6,1.6,6.5
						c0.4,2.9,0.7,5.4,0.8,7.5l0.2,3.2c0-0.3,0.1-0.8,0.1-1.4c0-0.6,0.1-1.7,0.3-3.3c0.2-1.6,0.4-3.2,0.6-4.6
						c0.2-1.4,0.5-2.9,0.9-4.5c0.4-1.6,0.8-2.8,1.3-3.7c0.5-1,1.3-1.7,2.2-2.2c1-0.5,1.9-0.6,2.9-0.5s1.7,0.4,2.4,1
						c0.7,0.6,1.1,1.3,1.1,2.2c0,0.8-0.2,1.8-0.5,2.8c-0.4,1.1-0.8,2.3-1.3,3.6C357.2,333.3,356.8,334.5,356.6,335.5z"/>
					<path class="st14" d="M375.6,348.8c-1.1,0.4-2.5,0.7-4,0.9s-3,0.3-4.6,0.2c-1.5,0-2.9-0.4-4.1-1c-1.2-0.6-1.9-1.5-2.2-2.6
						c-0.5-2.3-0.8-5-0.9-8.1c0-3.1,0.1-5.8,0.3-8.1c0.3-2.3,0.6-4,0.9-5.1c0.3-1,1.4-1.7,3.4-2.2c1.9-0.5,4.1-0.7,6.6-0.5
						c2.4,0.2,4.5,0.6,6.1,1.4c0.9,0.4,1.4,1.1,1.6,2.2c0.2,1,0,2-0.6,2.9c-0.5,0.9-1.3,1.4-2.2,1.5c-0.5,0.1-1.1,0-1.8-0.1
						c-0.7-0.1-1.4-0.2-2-0.4c-0.6-0.1-1.2-0.3-1.7-0.4c-0.6-0.1-1-0.1-1.4-0.1s-0.6,0.2-0.7,0.4c-0.2,0.5-0.3,1.2-0.3,2.1
						s0,1.6,0.2,1.9c0,0.1,0.4,0.1,1.1,0.1c0.7,0,1.5-0.1,2.4-0.1c0.9,0,1.8,0,2.7,0.2c0.5,0.1,0.8,0.3,1.1,0.8
						c0.3,0.5,0.4,0.9,0.4,1.5s-0.1,1.1-0.4,1.6c-0.3,0.5-0.6,0.9-1.1,1.1c-0.4,0.2-0.9,0.3-1.4,0.4s-1,0.1-1.4,0.1
						c-0.4,0-0.8,0-1.3,0c-0.4,0-0.8-0.1-1.1-0.1c-0.3,0-0.5,0-0.7,0s-0.3,0.1-0.3,0.3c-0.1,0.7-0.1,1.4-0.1,2
						c0.1,0.6,0.2,1,0.3,1.2c0.1,0.2,0.3,0.3,0.6,0.3c0.3,0,0.7,0,1.1-0.1c0.5-0.1,1-0.2,1.5-0.3c0.5-0.1,1.1-0.2,1.8-0.3
						c0.7-0.1,1.3-0.1,1.9-0.1c0.7,0,1.4,0.3,1.9,0.8c0.5,0.5,0.9,1.2,1,1.9s0,1.4-0.5,2.2C377.3,347.8,376.6,348.4,375.6,348.8z"/>
				</g>
			</g>
		</g>
	</g>
</g>
</svg>
