<?xml version="1.0" encoding="utf-8"?>
<!-- Generator: Adobe Illustrator 27.4.0, SVG Export Plug-In . SVG Version: 6.00 Build 0)  -->
<svg version="1.1" id="_Layer_" xmlns="http://www.w3.org/2000/svg" xmlns:xlink="http://www.w3.org/1999/xlink" x="0px" y="0px"
	 viewBox="0 0 540 540" style="enable-background:new 0 0 540 540;" xml:space="preserve">
<style type="text/css">
	.st0{fill:#F9D1CF;}
	.st1{fill:#FFC299;stroke:#F4AA73;stroke-width:9.3;stroke-miterlimit:10;}
	.st2{fill:none;}
	.st3{enable-background:new    ;}
	.st4{fill:#FFFFFF;}
	.st5{fill:#F7C0BD;}
	.st6{fill:#FCE8E8;}
	.st7{fill:#FC8B8B;}
	.st8{fill:#E87C7C;}
</style>
<path class="st0" d="M387.6,391.4c-1.4,10-7.8,18.6-16.9,22.9c-18.3,8.6-53,20.9-102,20.9s-89.9-13.8-110.8-23.1
	c-9.9-4.4-16.7-13.8-17.7-24.6L117.6,140l304,7.6L387.6,391.4L387.6,391.4z"/>
<path class="st1" d="M364.3,294c-1.1,42.5-38.1,79.9-87.1,83.8c-54.7,4.4-102.8-33.6-101.5-85.5c1.3-51.8,51.3-89,105.8-83.6
	C330.2,213.5,365.4,251.5,364.3,294L364.3,294z"/>
<polygon class="st2" points="385.6,406.2 140.7,400.1 117.6,140 421.6,147.6 "/>
<g class="st3">
	<path class="st4" d="M169.5,275.6c0.3-0.9,1.1-1.5,2.5-1.9c1.4-0.4,2.9-0.5,4.5-0.3c1.6,0.3,2.9,0.9,3.7,1.9
		c0.9,1.1,1.6,2.7,2.2,4.9c0.6,2.2,0.9,4.2,0.9,5.8l0.2,2.5c0.1-6.5,1-11,2.5-13.6c0.4-0.6,1-1.1,1.9-1.4c0.9-0.3,1.9-0.5,2.9-0.5
		c1,0,2,0.1,3,0.4c1,0.2,1.7,0.6,2.3,1.2s0.7,1.2,0.6,2c-0.1,0.4-0.3,1.2-0.5,2.4c-0.2,1.2-0.4,2.3-0.6,3.2c-0.2,1-0.5,2.1-0.9,3.4
		s-0.9,2.4-1.3,3.3s-1.1,1.8-1.9,2.6s-1.7,1.3-2.7,1.5c0.1,1.5,0.2,3.8,0.1,6.9c-0.1,3.1-0.2,5.3-0.6,6.6c-0.3,0.9-0.9,1.6-1.9,2.3
		c-1,0.6-2.2,1-3.3,1c-1.2,0.1-2.3-0.2-3.3-0.9s-1.6-1.8-1.9-3.3c-0.8-6-1-10.4-0.5-13.3c-0.8-0.2-1.4-0.5-2-1
		c-0.6-0.5-1.1-1.2-1.6-2c-0.4-0.8-0.8-1.5-1-2.1c-0.3-0.6-0.5-1.4-0.8-2.4c-0.3-1-0.5-1.6-0.6-1.7c-0.1-0.5-0.4-1-0.7-1.6
		c-0.3-0.6-0.6-1.1-0.8-1.5s-0.4-0.8-0.5-1.3c-0.1-0.5-0.2-1-0.2-1.5C169.1,276.8,169.2,276.2,169.5,275.6z"/>
</g>
<g class="st3">
	<path class="st4" d="M210.6,311c-2,0-3.9-0.3-5.5-0.9c-1.6-0.6-2.9-1.4-4-2.4c-1-1-1.9-2.2-2.6-3.6s-1.2-2.9-1.5-4.3
		c-0.3-1.5-0.5-3.1-0.6-4.8c-0.1-1.7-0.1-3.3,0-4.7c0.1-1.4,0.2-2.9,0.4-4.4c0.6-4.6,2.1-8,4.5-10.1c2.4-2.2,5.8-3.2,10.1-3.2
		c2.4,0,4.6,0.4,6.4,1.2c1.8,0.8,3.3,1.7,4.3,2.9s1.9,2.7,2.6,4.4c0.7,1.8,1.1,3.5,1.3,5.1c0.2,1.6,0.4,3.5,0.4,5.5
		c0,1.4,0,2.7,0,3.9c-0.1,1.2-0.2,2.4-0.5,3.8c-0.3,1.4-0.6,2.6-1,3.7c-0.4,1.1-1.1,2.1-1.9,3.2c-0.8,1-1.8,1.9-2.9,2.6
		c-1.1,0.7-2.5,1.2-4.1,1.6C214.4,310.8,212.6,311,210.6,311z M211.4,282.1c-0.8,0-1.6,0.7-2.2,2c-0.6,1.3-1.1,2.9-1.3,4.8
		s-0.3,3.7-0.2,5.6c0.1,1.9,0.5,3.5,1.1,4.8c0.7,1.3,1.6,2,2.7,2c0.9,0,1.7-0.7,2.4-2c0.7-1.3,1.1-2.9,1.3-4.8
		c0.2-1.9,0.3-3.7,0.2-5.6c-0.1-1.9-0.5-3.5-1.2-4.8C213.4,282.8,212.5,282.1,211.4,282.1z"/>
	<path class="st4" d="M241.5,311.1c-4.6,0-8-1.6-10.5-4.9c-2.4-3.3-3.6-8.1-3.6-14.3c0-4.9,1-9,3-12.4c2-3.4,4.7-5.7,8.2-6.9
		c3.5-1.2,7-1,10.4,0.6c0.9,0.4,1.5,1.1,1.9,2.1c0.4,1,0.5,2,0.4,3c-0.1,1-0.5,1.9-1,2.6c-0.6,0.8-1.3,1.1-2.1,1.1
		c-0.3,0-0.6-0.1-1.1-0.2c-0.5-0.1-1-0.2-1.4-0.3c-0.4-0.1-0.9-0.1-1.5-0.1c-0.6,0-1.1,0.2-1.7,0.4c-1.3,0.7-2.4,2.3-3.3,4.8
		c-0.4,1.2-0.7,2.5-0.9,4c-0.2,1.5-0.2,3.1,0,4.9c0.2,1.8,0.7,3.3,1.5,4.5c1.3,2,2.5,2.3,3.4,0.8c0.7-1.1,1-2.3,0.9-3.7
		c0-0.3-0.1-0.6-0.2-0.8c-0.1-0.2-0.2-0.3-0.2-0.4c-0.1-0.1-0.2-0.2-0.3-0.2c-0.1,0-0.2-0.1-0.3-0.1c-0.1,0-0.2,0-0.5,0
		s-0.4,0-0.5,0c-1-0.1-1.7-0.6-2.1-1.5c-0.4-0.9-0.4-1.9-0.1-2.9c0.3-1,0.7-1.6,1.3-1.9c0.4-0.2,1.1-0.5,2-0.6
		c0.9-0.2,2-0.2,3.2-0.2c1.2,0,2.4,0.2,3.5,0.5c1.1,0.3,2.1,0.9,3,1.9s1.4,2.1,1.6,3.6c0.3,2,0.2,3.9-0.3,5.9
		c-0.4,2-1.2,3.7-2.2,5.3c-1,1.6-2.4,2.9-4.2,3.9C245.6,310.6,243.6,311.1,241.5,311.1z"/>
	<path class="st4" d="M281.1,307.1c-0.3,0.8-0.9,1.4-1.7,1.9s-1.8,0.8-2.8,0.8c-1,0-2-0.1-2.9-0.4s-1.7-1-2.2-2
		c-0.6-1-0.7-2.2-0.6-3.7c0.4-3.2,0.4-5.3,0.1-6.4c-0.3-1.1-1-1.7-2-1.6c-0.7,0-1.2,0.3-1.6,0.7c-0.3,0.4-0.6,1.3-0.7,2.6
		c-0.1,1.3,0,3.1,0.5,5.5c0.2,1,0,2-0.5,2.9c-0.5,0.9-1.2,1.5-2.2,1.9c-0.9,0.4-1.9,0.6-2.9,0.6c-1,0.1-2-0.2-2.9-0.8
		c-0.9-0.6-1.6-1.4-2-2.5c-1.2-3.1-1.6-7.9-1.3-14.2c0.1-2.3,0.2-4.5,0.1-6.4c-0.1-1.9-0.1-3.8,0-5.5c0.1-1.8,0.2-3,0.6-3.8
		c0.4-1,1-1.8,1.8-2.4c0.8-0.6,1.6-1,2.5-1.1c0.9-0.1,1.7,0,2.6,0.2c0.8,0.2,1.6,0.7,2.2,1.3c0.6,0.7,1,1.4,1.1,2.3
		c0.5,3.1,0.7,5.8,0.6,8.3c0,1.1,0.1,2,0.2,2.6c0.2,0.6,0.4,1,0.6,1.2c0.3,0.2,0.6,0.3,1.1,0.4c0.9,0,1.6-0.3,2-0.8s0.6-1.7,0.6-3.5
		c0-3.9,0-6.4,0-7.3c0-1.3,0.4-2.3,1.1-3.1s1.6-1.3,2.6-1.5c1-0.1,2.1-0.1,3.1,0.2c1,0.3,1.9,0.8,2.7,1.7c0.8,0.9,1.1,1.9,1.2,3.1
		c0.4,4.8,0.5,10.3,0.3,16.5C282.4,300.8,281.9,305,281.1,307.1z"/>
	<path class="st4" d="M285,302.3c-0.8-3.8-1-7.6-0.8-11.4c0.3-3.9,0.7-7.1,1.3-9.8c0.6-2.7,1.1-4.5,1.7-5.5c0.3-0.6,1-1,2.2-1.3
		c1.1-0.3,2.2-0.3,3.4-0.2c1.1,0.1,2.2,0.6,3,1.4c0.9,0.8,1.2,1.8,1.1,3c-0.1,0.5-0.2,1.4-0.4,2.7c-0.2,1.3-0.4,2.6-0.5,4
		c-0.2,1.3-0.4,2.8-0.5,4.4c-0.2,1.6-0.3,3.2-0.3,4.5c-0.1,1.4,0,2.6,0,3.8c0.1,1.2,0.3,2.1,0.6,2.7c0.3,0.6,0.7,0.9,1.3,0.8
		c0.7-0.1,1.3-0.7,1.8-1.8s0.9-2.3,1.1-3.9c0.3-1.5,0.4-3.2,0.5-5c0.1-1.8,0.1-3.6,0.1-5.3c0-1.7-0.1-3.2-0.2-4.6
		c-0.1-1.3-0.2-2.3-0.4-2.9c-0.2-0.7,0-1.4,0.4-2.2c0.5-0.7,1.1-1.3,1.9-1.7s1.7-0.7,2.6-0.8c0.9-0.1,1.8,0.1,2.7,0.6
		c0.9,0.5,1.6,1.3,2,2.4c0.6,1.5,1,3.5,1.3,6.1c0.3,2.6,0.4,5.2,0.4,7.9c0,2.7-0.3,5.4-0.8,8.1c-0.5,2.7-1.2,4.8-2,6.3
		c-0.8,1.5-1.9,2.7-3.4,3.8c-1.4,1-2.9,1.8-4.5,2.2c-1.6,0.4-3.2,0.6-4.9,0.5c-1.7-0.1-3.3-0.5-4.7-1.1s-2.7-1.6-3.8-3
		S285.4,304.1,285,302.3z"/>
	<path class="st4" d="M333.7,295.4c0.1,0,0.1,0.1,0.2,0.2c0.1,0.1,0.2,0.2,0.5,0.4c0.3,0.2,0.5,0.4,0.8,0.7c0.3,0.3,0.6,0.6,0.9,0.9
		c0.4,0.4,0.7,0.8,1,1.2c0.3,0.4,0.7,0.9,1,1.5s0.7,1.1,0.9,1.7c0.6,1.2,0.6,2.6,0,4s-1.6,2.6-2.9,3.4c-1.3,0.8-2.7,0.9-4,0.3
		c-1.4-0.6-2.7-1.6-4-3.1c-1.2-1.5-2.2-3-2.9-4.5c-0.7-1.5-1.1-2.8-1.4-4c0.8,3.6,0.9,6.4,0.4,8.4c-0.3,1.1-1,2-2.1,2.7
		c-1.1,0.6-2.2,1-3.4,1c-1.2,0-2.3-0.3-3.4-0.8c-1.1-0.6-1.7-1.4-2-2.4c-0.3-1.3-0.5-2.6-0.6-4c-0.1-1.4-0.1-2.7,0.1-3.7
		c0.1-1.1,0.2-2.4,0.4-3.9c0.2-1.5,0.2-2.8,0.2-3.9c0-1.6-0.1-3.8-0.3-6.5c-0.3-2.7-0.4-4.6-0.4-5.8c0-1.4,0.3-2.5,0.9-3.5
		s1.4-1.7,2.3-2.2c0.9-0.5,2.1-0.9,3.4-1.1c1.3-0.2,2.6-0.3,3.9-0.3c1.2,0,2.6,0.1,4,0.2c3.1,0.3,5.7,1.6,7.9,3.7s3.4,4.5,3.9,7.1
		c0.4,2.1,0.4,3.9,0.2,5.5c-0.2,1.5-0.6,2.8-1.3,3.8c-0.6,1-1.4,1.7-2.2,2.2C335.3,295.3,334.5,295.5,333.7,295.4z M328.4,287.7
		c0.5-1.8,0-3.5-1.5-5.2c-0.9-1-1.7-1-2.4,0c-0.1,0.1-0.2,0.4-0.2,0.7c0,0.3-0.1,0.7-0.1,1c0,0.3,0,0.7,0,1.2c0,0.5,0,0.9,0.1,1.2
		c0,0.3,0.1,0.7,0.1,1c0,0.4,0.1,0.6,0.1,0.7c0.1,0.6,0.3,1,0.8,1.3c0.5,0.3,1,0.3,1.6,0C327.6,289.3,328.1,288.7,328.4,287.7z"/>
	<path class="st4" d="M349.4,283c-0.1,0-0.2,0.1-0.4,0.1c-0.2,0.1-0.5,0.2-1.1,0.3c-0.6,0.2-1.1,0.3-1.6,0.4
		c-0.5,0.1-1.1,0.1-1.8,0.2c-0.7,0.1-1.3,0-1.9-0.2c-1-0.2-1.8-0.9-2.4-2.3c-0.6-1.3-0.7-2.7-0.4-4.2c0.3-1.5,1-2.4,2.2-2.9
		c3-1.3,10.8-1.5,23.2-0.5c1.4,0.1,2.4,0.5,3.2,1.2c0.8,0.7,1.3,1.5,1.4,2.4c0.2,1,0.2,1.9,0.1,2.8s-0.3,1.7-0.6,2.4
		c-0.3,0.6-0.9,0.9-1.8,1.1c-0.9,0.1-1.8,0.1-2.7,0c-0.9-0.2-1.8-0.3-2.8-0.5c-1-0.2-1.5-0.3-1.6-0.3c-0.3,0-0.4,1.4-0.4,4.3
		c0,2.8,0,6.2-0.1,10c0,3.8-0.2,6.6-0.5,8.3c-0.3,1.4-0.8,2.4-1.6,3.2s-1.7,1.2-2.6,1.2c-0.9,0.1-1.8-0.1-2.7-0.3
		c-0.9-0.3-1.5-0.7-2-1.2c-0.5-0.6-1-1.4-1.3-2.3c-0.3-1-0.6-2-0.7-3c-0.1-1-0.2-2.2-0.3-3.7c-0.1-1.9,0-4.8,0.3-8.8
		C348.8,286.5,349.1,284,349.4,283z"/>
</g>
<path class="st5" d="M175.7,373.1c-10.6-16.9-14-34.3-17.2-125.9c-1.5-41.8-2.2-77.9-2.5-106.3l-38.4-1l22.6,247.5
	c1,10.8,7.8,20.2,17.7,24.6c20.9,9.2,60.7,23.1,110.8,23.1c11.5,0,22.3-0.7,32.2-1.9C211.7,424.8,183.1,385.1,175.7,373.1
	L175.7,373.1z"/>
<path class="st6" d="M441.4,136.5c0-11.1-76.7-20.1-171.4-20.1s-171.4,9-171.4,20.1v10c0,11.1,76.7,20.1,171.4,20.1
	s171.4-9,171.4-20.1V136.5z"/>
<path class="st7" d="M441.4,136.5c0,11.1-76.7,20.1-171.4,20.1s-171.4-9-171.4-20.1c0-11.1,76.7-20.1,171.4-20.1
	S441.4,125.4,441.4,136.5z"/>
<path class="st8" d="M165.3,133.5c0.3-5.2,6.5-9.9,18.6-14.4c-51,3.5-85.2,9.9-85.2,17.4s37.4,14.4,92.2,17.8
	C173.4,146.8,164.9,139.9,165.3,133.5L165.3,133.5z"/>
<path class="st7" d="M316.9,154.9c0,2.1,17.7,0.6,31.6,13.1c4.8,4.3,4.9,6.4,9.4,8.9c12.6,6.8,31,0.7,31.6-4.7
	c0.4-3.2-5.8-4.2-7.5-10.3c-1.5-5.1,1.1-10.6,4.2-14.9C331.8,150.4,316.9,153,316.9,154.9z"/>
</svg>
