<?xml version="1.0" encoding="UTF-8"?>
<svg xmlns="http://www.w3.org/2000/svg" xmlns:xlink="http://www.w3.org/1999/xlink" viewBox="0 0 540 540">
  <defs>
    <style>
      .cls-1 {
        fill: #fce8e8;
      }

      .cls-2 {
        isolation: isolate;
      }

      .cls-3 {
        fill: #fc8b8b;
      }

      .cls-4 {
        fill: #f7c0bd;
      }

      .cls-5 {
        fill: #fff;
        font-family: OmpalumpaRegular, Ompalumpa;
        font-size: 53.8px;
      }

      .cls-6 {
        clip-path: url(#clippath);
      }

      .cls-7 {
        fill: none;
      }

      .cls-8 {
        fill: #ffc299;
        stroke: #f4aa73;
        stroke-miterlimit: 10;
        stroke-width: 9.3px;
      }

      .cls-9 {
        letter-spacing: 0em;
      }

      .cls-10 {
        fill: #4f4f4f;
        mix-blend-mode: overlay;
        opacity: .96;
      }

      .cls-11 {
        fill: #f9d1cf;
      }
    </style>
    <clipPath id="clippath">
      <path class="cls-7" d="m441.4,136.53c0,11.08-76.74,20.07-171.4,20.07-94.66,0-171.4-8.98-171.4-20.07,0-11.08,76.74-20.07,171.4-20.07,94.66,0,171.4,8.98,171.4,20.07Z"/>
    </clipPath>
  </defs>
  <g class="cls-2">
    <g id="_Layer_" data-name="&amp;lt;Layer&amp;gt;">
      <g>
        <path class="cls-11" d="m387.64,391.38c-1.4,10.01-7.77,18.62-16.92,22.91-18.29,8.58-53.04,20.87-101.96,20.87s-89.88-13.84-110.82-23.06c-9.95-4.38-16.74-13.79-17.72-24.61l-22.58-247.47,303.99,7.6-33.99,243.75Z"/>
        <path class="cls-8" d="m364.31,293.96c-1.06,42.5-38.08,79.86-87.09,83.81-54.68,4.41-102.83-33.65-101.54-85.48,1.3-51.83,51.33-89.02,105.76-83.64,48.79,4.82,83.92,42.82,82.86,85.32Z"/>
        <polygon class="cls-7" points="385.57 406.18 140.72 400.06 117.63 140.03 421.62 147.63 385.57 406.18"/>
        <text class="cls-5" transform="translate(169.51 310.39)"><tspan class="cls-9" x="0" y="0">Y</tspan><tspan x="26.36" y="0">OGHURT</tspan></text>
        <path class="cls-4" d="m175.7,373.15c-10.58-16.91-13.98-34.29-17.2-125.87-1.47-41.77-2.16-77.87-2.48-106.29l-38.4-.96,22.58,247.47c.99,10.82,7.78,20.24,17.72,24.61,20.94,9.22,60.73,23.06,110.82,23.06,11.54,0,22.28-.69,32.21-1.85-89.2-8.48-117.8-48.25-125.26-60.17Z"/>
        <g>
          <path class="cls-1" d="m441.4,136.53c0-11.08-76.74-20.07-171.4-20.07s-171.4,8.98-171.4,20.07v10c0,11.08,76.74,20.07,171.4,20.07s171.4-8.98,171.4-20.07v-10Z"/>
          <path class="cls-3" d="m441.4,136.53c0,11.08-76.74,20.07-171.4,20.07-94.66,0-171.4-8.98-171.4-20.07,0-11.08,76.74-20.07,171.4-20.07,94.66,0,171.4,8.98,171.4,20.07Z"/>
          <g class="cls-6">
            <path class="cls-10" d="m279.96,101.52c-75.63,8.31-113.86,18.98-114.69,32.02-.56,8.84,16.07,18.77,49.9,29.79-58.58,4.99-123.54,5.66-131.07-17.13-3.96-11.97,9.35-26.16,14.15-31.28,50.74-54.11,166.15-18.41,181.71-13.41Z"/>
          </g>
          <path class="cls-3" d="m316.88,154.88c.03,2.06,17.68.62,31.62,13.05,4.8,4.28,4.9,6.41,9.44,8.86,12.63,6.82,31.01.71,31.62-4.66.37-3.2-5.79-4.2-7.55-10.26-1.49-5.12,1.13-10.55,4.25-14.92-54.46,3.45-69.4,6.03-69.38,7.93Z"/>
        </g>
      </g>
    </g>
  </g>
</svg>