<?xml version="1.0" encoding="UTF-8"?>
<svg xmlns="http://www.w3.org/2000/svg" xmlns:xlink="http://www.w3.org/1999/xlink" viewBox="0 0 540 540">
  <defs>
    <style>
      .cls-1 {
        fill: #f9cc85;
      }

      .cls-2 {
        fill: #b75517;
      }

      .cls-3 {
        isolation: isolate;
      }

      .cls-4 {
        fill: #66392d;
      }

      .cls-5 {
        fill: #edb96e;
      }

      .cls-6 {
        fill: #4f4f4e;
        mix-blend-mode: overlay;
      }

      .cls-7 {
        clip-path: url(#clippath-1);
      }

      .cls-8 {
        fill: #6d391b;
      }

      .cls-9 {
        clip-path: url(#clippath);
      }

      .cls-10 {
        fill: #f9bb60;
      }

      .cls-11 {
        fill: none;
      }

      .cls-12 {
        fill: #d3851d;
      }

      .cls-13 {
        fill: #fcca79;
      }

      .cls-14 {
        fill: #c16527;
      }
    </style>
    <clipPath id="clippath">
      <path class="cls-11" d="m211.05,366.18c-34.73.66-42.15-1.89-62.08-8.36-9.15-2.97-6.74-11.51-20.53-17.7-2.03-.91-9.29,5.39-25.05-2.92-36.37-19.17-31.38-38.1-26.75-51.31,1.17-3.37,5.71-7.39,11.25-11.34,7.3-5.21,16.34-10.28,21.71-13.6,0,0-.81-1.67-.42-3.98.4-2.38,2.09-5.45,7.25-8.08,18.89-9.65,21.6-24.42,58.6-17.01,18.81,3.77,31.73-3.58,41.36-7.51,9.61-3.93,38.16-4.02,48.93,2.23,10.77,6.26,36.01,22.61,54.03,26.76,11.42,2.63,19.52,10.65,22.88,18.69.02.03.03.05.04.08.63,1.53,1.1,3.07,1.36,4.56.09.43.15.84.21,1.25v.02c.46,1.39-2.42,85.71-132.78,88.21Z"/>
    </clipPath>
    <clipPath id="clippath-1">
      <path class="cls-11" d="m279.56,310.81c-26.89-21.99-30.89-28.75-41.88-46.58-5.05-8.19,2.32-13.13-4.18-26.79-.96-2.01-10.57-1.91-17.2-18.45-15.29-38.16.78-49.35,12.86-56.42,3.08-1.81,9.14-1.93,15.91-1.35,8.94.76,19.11,2.75,25.34,3.7,0,0,.46-1.8,2.26-3.3,1.84-1.55,5.12-2.79,10.76-1.46,20.64,4.89,32.28-4.61,55.66,25,11.89,15.05,26.49,17.83,36.37,21.07,9.87,3.23,31.68,21.66,35.84,33.39,4.15,11.74,12.79,40.56,23.82,55.39,7,9.4,7.97,20.76,5.32,29.06,0,.03,0,.05-.02.08-.51,1.58-1.15,3.05-1.92,4.36-.2.39-.43.74-.65,1.09,0,0-.01.01-.01.01-.55,1.36-57.36,63.74-158.29-18.81Z"/>
    </clipPath>
  </defs>
  <g class="cls-3">
    <g id="_Layer_" data-name="&amp;lt;Layer&amp;gt;">
      <g>
        <g>
          <path class="cls-14" d="m76.06,287.9s-5.2,23.5-.39,36.35c4.81,12.86,19.83,22.07,35.77,23.93,15.95,1.86-9.31-97.16-35.39-60.28Z"/>
          <path class="cls-5" d="m107.73,281.65c-16.01,11.79-29.41,3.01-33.83,14.11-6.69,16.78-.48,47.69,37.84,61.8,3.12,1.15,13.91.43,16.03,3.21,18.58,24.32,77.37,24.24,119.35,15.13,30.62-6.65,48.28-15.03,64.37-25.89,26.54-17.92,28.63-30.45,30.73-38.74,2.64-10.43,8.1-44.26-10.38-48.41-18.48-4.15-53.21-7.36-64.26-13.62-11.05-6.26-40.34-6.16-50.21-2.23-9.87,3.93-34.9,4.76-54.2.99-37.97-7.41-38.06,20.86-55.43,33.65Z"/>
          <path class="cls-1" d="m211.05,366.18c-34.73.66-42.15-1.89-62.08-8.36-9.15-2.97-6.74-11.51-20.53-17.7-2.03-.91-9.29,5.39-25.05-2.92-36.37-19.17-31.38-38.1-26.75-51.31,1.17-3.37,5.71-7.39,11.25-11.34,7.3-5.21,16.34-10.28,21.71-13.6,0,0-.81-1.67-.42-3.98.4-2.38,2.09-5.45,7.25-8.08,18.89-9.65,21.6-24.42,58.6-17.01,18.81,3.77,31.73-3.58,41.36-7.51,9.61-3.93,38.16-4.02,48.93,2.23,10.77,6.26,36.01,22.61,54.03,26.76,11.42,2.63,19.52,10.65,22.88,18.69.02.03.03.05.04.08.63,1.53,1.1,3.07,1.36,4.56.09.43.15.84.21,1.25v.02c.46,1.39-2.42,85.71-132.78,88.21Z"/>
          <path class="cls-12" d="m303.52,257.44s7.43,7.43-8.16,20.03c-4.79,3.88-12.32,6.2-12.32,6.2.66,3.05,18.11-8.11,27.21-10.03,11.13-2.35,26.92-.19,30.19,7.58,9.02,21.38-22.52,55.31-13.11,44.75,3.27-3.66,10.97-18.57,14.87-31.79,4.41-14.97,1.02-26.93-6.91-30.15-14.74-5.98-30.25-10.24-31.78-6.59Z"/>
          <g class="cls-9">
            <path class="cls-6" d="m342.21,272.06c-6.44-13.16-27.96,4.19-32.81-7.99-5.36-13.43-23.53-18.33-40.63-18.4-8.55-.04-22.45,12.14-20.2,19.15,2.24,7,17.17,8.75,7.97,16.26-18.42,15.01-21.9-4.56-22.92-13.07-1.02-8.5-32.82-14.38-50.25-13.39-17.42.99-21.89,26.37-37.32,19.91-13.45-5.63-33.07-8.68-36.46-13.57-2.2-3.18.85-10.04,2.78-11.75,14.02-12.47,29.57-23.03,62.66-20.63,18.81,1.37,31.73-.26,41.36-4.19,9.61-3.93,38.16-4.02,48.93,2.23,10.77,6.26,36.01,22.61,54.03,26.76,11.42,2.63,19.52,10.65,22.88,18.69Z"/>
          </g>
          <path class="cls-8" d="m176.45,266.98c-4.81-1.05-1.66-12.33,3.57-13.32,5.23-1,7.73,3.68,12.21,3.77,4.48.1,6.18,2.7,6.32,5.45.15,2.76-19.1,4.75-22.1,4.1Z"/>
          <path class="cls-2" d="m351.43,240.7c-.05-.24-.09-.48-.12-.74-.03-.17-.06-.34-.09-.51.09.43.15.84.21,1.25Z"/>
          <path class="cls-10" d="m298.35,283.42c-27.58,9.91,5.23,19.31,22.4,18.31,17.17-1,22.77-22.71,5.54-24.45-17.23-1.74-14.91,1.45-27.93,6.14Z"/>
          <path class="cls-10" d="m270.79,255.45c-13.09,4.46,1.66,5.31,15.26,8.63,13.6,3.32,7.2-16.27-15.26-8.63Z"/>
          <path class="cls-6" d="m99.92,276.7c-17.95,3.09-26.6,27.53-.33,23.21,27.85-4.58,51.82,2.68,34.51,7.63-12.11,3.46,1.33,22.23,28.87,15.93,27.54-6.3,15.59-27-16.59-36.89-32.18-9.89-29.2-12.84-46.45-9.87Z"/>
          <path class="cls-10" d="m201.89,263.77c-21.53-7.03-41.37,12.44-24.05,16.39,17.32,3.96,63.21-3.61,24.05-16.39Z"/>
          <path class="cls-6" d="m166.28,333.91c-6.98,5.04.46,26.36,47.42,23.7,46.97-2.65,83.3-21.38,91.6-33.32,8.29-11.94-11.65-16.14-37.86-12.51-26.21,3.63-2.95-10.54-17.88-14.44-14.93-3.9-43.8-5.23-51.1,5.39-7.3,10.62,32.18,16.92,14.27,23.56-17.92,6.64-28.53-5.31-46.45,7.63Z"/>
          <path class="cls-13" d="m138.33,244.02c-24.3.53-13.22,23.86,3.77,20,16.99-3.86,28.67-20.71-3.77-20Z"/>
          <path class="cls-13" d="m106.99,291.13c10.87.1,12.17-7.38,6.57-10.56-5.61-3.17-10.43-3.03-19.35.59-9.31,3.78-2.66,9.82,12.78,9.97Z"/>
          <path class="cls-13" d="m205.55,234.48c12.21-1.92,23.09-12.28,40.68-10.95,17.58,1.33,19.58,8.63,17.58,12.94-1.99,4.31-13.6,13.94-25.88,11.28-12.28-2.65-41.92-7.93-53.31-4.79-11.39,3.13-8.52-6.49,0-8.48,8.52-1.99,6.13,2.32,20.93,0Z"/>
          <path class="cls-13" d="m177.12,334.77c-8.36,3.03,2.56,23.47,48.4,16.48,35.75-5.45,6.29-14.16-8.23-15.54-14.53-1.38-26.23-5.99-40.16-.94Z"/>
          <path class="cls-13" d="m268.11,314.93c-14.78,1.98,3.66,16.35,13.95,15.22,10.29-1.13,34.15-21.67-13.95-15.22Z"/>
          <path class="cls-13" d="m208.99,297.01c-9.33,1.42-17.46,13.91,9.69,11.6,27.15-2.31,16.45-15.58-9.69-11.6Z"/>
          <path class="cls-6" d="m235.6,321.23c6.65,3.02,23.34,2.23,18.45,7.99-4.85,5.72-26.94-.82-25.72-5.08.89-3.09,3.72-4.52,7.27-2.91Z"/>
          <path class="cls-6" d="m115.16,298.49c-.96,0-9.62,3.8-8.13,6.12,1.49,2.32,7.73,8.95,17.22,5.99,19.2-6-9.09-12.11-9.09-12.11Z"/>
          <path class="cls-8" d="m253.03,327.19c1.14-2.13.99-10.51-7.97-14.01-8.96-3.5-8.68,1.51-15.64,8.76-6.96,7.25,21.32,9.52,23.61,5.25Z"/>
          <path class="cls-12" d="m257.46,280.26c-.18.29-.16,4.43,5.12,3.18,5.28-1.24,8.96-1.82,12.78-2.22s6.31-4.63-2.4-5.37c-8.71-.75-13.22.73-15.51,4.41Z"/>
          <path class="cls-8" d="m114.47,301.13c2.73-1.72,4.73-6.25,10.45-4.44,5.72,1.82,5.23,3.89,6.4,7.36.98,2.88-2.35,4.17-6.4,4.89-4.06.72-18.21-2.92-10.45-7.81Z"/>
          <path class="cls-4" d="m262.59,270.62c-10.19-.48-5.67,12.19-1.19,11.7,4.48-.5,7.22-3.31,11.2-2.65,3.98.66,5.86-8.3-10.01-9.04Z"/>
          <path class="cls-8" d="m98.28,268.01c-2.22-1.37,4.21-12.26,11.25-13.78,7.04-1.52,4.05,3.49,7.29,6.09s3.44,8.01-.39,6.79c-3.83-1.21-17.15,1.52-18.14.9Z"/>
          <path class="cls-6" d="m158.86,349.59c-1.23.54,1.01,5.6,6.11,8.33,5.1,2.74,15.68,2.16,19.04,1.78,3.36-.37,2.49-3.23-3.61-5.85-6.1-2.61-21.54-4.27-21.54-4.27Z"/>
          <path class="cls-8" d="m167.34,346.31c9.43-2.62,12.64-.21,16.95,4.94,4.32,5.14-7.4,7.17-13.05,6.57-5.65-.6-13.81-5.57-12.38-8.23,1.43-2.66,4.43-2.15,8.48-3.28Z"/>
        </g>
        <g>
          <path class="cls-8" d="m351.79,194.66c.18-2.15,9.02-6.91,13.57-2.61,4.55,4.3,6.81,6.2,9.43,8.01,2.62,1.81,10.41,15.31,4.11,15.22-6.29-.08-27.4-17.17-27.12-20.62Z"/>
          <path class="cls-14" d="m227.43,163.74s-19.18,14.53-23.84,27.44c-4.66,12.91.81,29.65,11.75,41.4,10.95,11.75,55.85-80.05,12.09-68.84Z"/>
          <path class="cls-5" d="m255.61,179.48c-19.83-1.39-24.35-16.76-34.92-11.16-15.97,8.45-31.25,36.02-11.21,71.59,1.63,2.9,10.32,9.34,10.14,12.83-1.6,30.56,43.24,68.58,81.13,88.84,27.64,14.77,46.51,19.82,65.81,21.97,31.83,3.54,41.53-4.65,48.5-9.61,8.77-6.24,34.84-28.47,23.45-43.61-11.39-15.14-35.77-40.07-40.14-52-4.37-11.93-26.75-30.83-36.81-34.22-10.06-3.4-29.67-18.99-41.93-34.36-24.13-30.24-42.51-8.77-64.02-10.27Z"/>
          <path class="cls-1" d="m279.56,310.81c-26.89-21.99-30.89-28.75-41.88-46.58-5.05-8.19,2.32-13.13-4.18-26.79-.96-2.01-10.57-1.91-17.2-18.45-15.29-38.16.78-49.35,12.86-56.42,3.08-1.81,9.14-1.93,15.91-1.35,8.94.76,19.11,2.75,25.34,3.7,0,0,.46-1.8,2.26-3.3,1.84-1.55,5.12-2.79,10.76-1.46,20.64,4.89,32.28-4.61,55.66,25,11.89,15.05,26.49,17.83,36.37,21.07,9.87,3.23,31.68,21.66,35.84,33.39,4.15,11.74,12.79,40.56,23.82,55.39,7,9.4,7.97,20.76,5.32,29.06,0,.03,0,.05-.02.08-.51,1.58-1.15,3.05-1.92,4.36-.2.39-.43.74-.65,1.09,0,0-.01.01-.01.01-.55,1.36-57.36,63.74-158.29-18.81Z"/>
          <g class="cls-7">
            <path class="cls-6" d="m440.46,324.07c3.62-14.2-24.01-14.92-19.82-27.34,4.62-13.7-6.05-29.21-19.04-40.34-6.49-5.57-24.97-5.29-27.79,1.5-2.83,6.79,7.41,17.79-4.46,17.54-23.76-.5-13.73-17.67-8.99-24.8,4.73-7.14-15.69-32.22-29.61-42.75-13.91-10.52-33.76,5.91-41.33-9.01-6.59-13-19.58-28.04-18.98-33.96.39-3.85,7.15-7.1,9.73-7.15,18.76-.41,37.44,1.61,61.09,24.87,13.45,13.23,24.35,20.36,34.22,23.6,9.87,3.23,31.68,21.66,35.84,33.39,4.15,11.74,12.79,40.56,23.82,55.39,7,9.4,7.97,20.76,5.32,29.06Z"/>
          </g>
          <path class="cls-8" d="m317.46,212.82c-2.99-3.92,6.72-10.47,11.35-7.84,4.63,2.63,3.51,7.81,6.86,10.78,3.35,2.98,2.96,6.06,1.29,8.25-1.68,2.19-17.63-8.75-19.49-11.19Z"/>
          <path class="cls-2" d="m467.79,306.15c.12-.21.25-.42.38-.64l.27-.44c-.2.39-.43.74-.65,1.09Z"/>
          <path class="cls-10" d="m399.68,304.31c-27.43-10.31-8.53,18.1,5.2,28.46,13.73,10.36,32.06-2.55,20.06-15.04-12-12.49-12.3-8.55-25.26-13.42Z"/>
          <path class="cls-10" d="m396.81,265.15c-12.86-5.08-2.17,5.12,6.04,16.46,8.21,11.34,16.02-7.73-6.04-16.46Z"/>
          <path class="cls-6" d="m252.86,170.66c-15.67-9.28-38.1,3.74-15.28,17.46,24.18,14.55,37.74,35.61,21.34,28.17-11.46-5.2-13.39,17.8,11.67,30.83,25.06,13.04,29.37-10.47,11.26-38.85-18.11-28.38-13.93-28.69-28.99-37.61Z"/>
          <path class="cls-10" d="m338.92,226.86c-11.85-19.3-39.57-17.32-28.94-3.09,10.64,14.24,50.49,38.2,28.94,3.09Z"/>
          <path class="cls-6" d="m266.36,257.22c-8.58-.68-16.73,20.37,20.77,48.78,37.5,28.4,77.31,37.67,91.37,33.95,14.06-3.73,1.58-19.84-20.74-34.06-22.32-14.22,4.58-9.94-4.27-22.59-8.85-12.64-29.98-32.35-42.42-28.99-12.44,3.36,13.56,33.74-4.39,27.19-17.95-6.55-18.3-22.53-40.33-24.28Z"/>
          <path class="cls-13" d="m303.29,170.64c-18.86-15.34-25.53,9.61-10.09,17.68,15.44,8.06,35.25,2.79,10.09-17.68Z"/>
          <path class="cls-13" d="m248.91,186.23c8.22,7.12,14.06,2.26,11.84-3.79-2.22-6.05-5.98-9.07-15.12-12.08-9.55-3.15-8.39,5.76,3.28,15.87Z"/>
          <path class="cls-13" d="m360.69,206.91c10.54,6.45,25.54,5.61,38.08,18.01,12.54,12.4,9.33,19.25,5.01,21.25-4.31,2-19.39,1.8-27.02-8.17-7.63-9.97-26.8-33.19-37.51-38.18-10.71-4.99-2.29-10.46,5.49-6.46,7.78,4,3.17,5.74,15.94,13.56Z"/>
          <path class="cls-13" d="m274.06,264.9c-8.33-3.11-13.25,19.54,26.19,43.91,30.77,19.01,13.97-6.71,3.79-17.17-10.18-10.46-16.1-21.55-29.99-26.73Z"/>
          <path class="cls-13" d="m356.23,308.73c-12.54-8.06-7.8,14.82.77,20.63,8.57,5.8,40.06,5.61-.77-20.63Z"/>
          <path class="cls-13" d="m322.8,256.78c-8.02-4.96-22.31-.71-.13,15.12,22.18,15.82,22.63-1.21.13-15.12Z"/>
          <path class="cls-6" d="m327.38,292.47c3.11,6.6,16.34,16.82,8.88,18.04-7.4,1.22-20-18.08-16.3-20.53,2.68-1.78,5.77-1.03,7.42,2.49Z"/>
          <path class="cls-6" d="m250.36,197.13c-.73-.62-9.79-3.34-10.16-.6-.37,2.74.09,11.83,9.23,15.72,18.51,7.87.92-15.11.92-15.11Z"/>
          <path class="cls-8" d="m336.8,308.3c2.24-.88,7.56-7.36,3-15.83-4.56-8.47-7.59-4.47-17.58-3.46-10,1.02,10.07,21.06,14.58,19.29Z"/>
          <path class="cls-6" d="m370.58,275.41c-.32.1-2.99,3.27,1.84,5.74,4.83,2.47,8,4.41,11.17,6.59s7.81.56,1.65-5.65c-6.15-6.21-10.54-8.01-14.67-6.69Z"/>
          <path class="cls-8" d="m248.12,198.7c3.19.46,7.66-1.7,10.83,3.39,3.18,5.09,1.46,6.35.11,9.75-1.12,2.83-4.49,1.66-8.04-.42-3.55-2.08-11.98-14.02-2.9-12.71Z"/>
          <path class="cls-8" d="m380.72,271.4c-7.45-6.96-12.22,5.62-8.48,8.14,3.73,2.52,7.64,2.15,10.25,5.23,2.6,3.08,9.84-2.52-1.77-13.37Z"/>
          <path class="cls-8" d="m257.24,162.97c-.8-2.49,11.15-6.61,17.5-3.21,6.35,3.4.82,5.28,1.61,9.36.79,4.07-2.56,8.33-4.7,4.92-2.13-3.41-14.05-9.95-14.41-11.07Z"/>
          <path class="cls-6" d="m250.55,264.36c-1.28-.39-2.85,4.92-.74,10.31,2.11,5.39,10.55,11.8,13.35,13.69,2.8,1.89,3.99-.85,1.04-6.79-2.95-5.94-13.64-17.21-13.64-17.21Z"/>
          <path class="cls-8" d="m259.13,267.36c8.88,4.11,9.76,8.03,9.72,14.74-.04,6.71-10.28.67-14.2-3.44-3.91-4.12-6.91-13.19-4.1-14.29,2.81-1.1,4.77,1.23,8.58,3Z"/>
        </g>
      </g>
    </g>
  </g>
</svg>