<?xml version="1.0" encoding="UTF-8"?>
<svg xmlns="http://www.w3.org/2000/svg" viewBox="0 0 540 540">
  <defs>
    <style>
      .cls-1 {
        fill: #f9cc85;
      }

      .cls-2 {
        fill: #b75517;
      }

      .cls-3 {
        isolation: isolate;
      }

      .cls-4 {
        fill: #66392d;
      }

      .cls-5 {
        fill: #edb96e;
      }

      .cls-6 {
        fill: #4f4f4e;
        mix-blend-mode: overlay;
      }

      .cls-7 {
        fill: #f7b956;
      }

      .cls-8 {
        fill: #6d391b;
      }

      .cls-9 {
        fill: #f9bb60;
      }

      .cls-10 {
        fill: #d3851d;
      }

      .cls-11 {
        fill: #fcca79;
      }
    </style>
  </defs>
  <g class="cls-3">
    <g id="_Layer_" data-name="&amp;lt;Layer&amp;gt;">
      <path class="cls-5" d="m165.49,303.84c-18.08,13.32-33.22,3.4-38.22,15.95-7.56,18.96-.54,53.87,42.75,69.82,3.53,1.3,15.72.48,18.11,3.62,20.99,27.48,87.4,27.39,134.84,17.09,34.6-7.51,54.54-16.98,72.72-29.25,29.99-20.24,32.34-34.4,34.71-43.77,2.98-11.79,9.15-50.01-11.73-54.7-20.88-4.69-60.11-8.31-72.6-15.38-12.49-7.07-45.58-6.96-56.73-2.52-11.15,4.44-39.43,5.37-61.23,1.12-42.9-8.37-43,23.56-62.62,38.01Z"/>
      <path class="cls-1" d="m282.22,399.34c-39.23.75-47.62-2.14-70.14-9.44-10.34-3.35-7.61-13-23.2-20-2.29-1.03-10.5,6.09-28.31-3.3-41.09-21.65-35.45-43.04-30.22-57.97,1.33-3.81,6.45-8.35,12.71-12.81,8.25-5.88,18.46-11.62,24.52-15.36,0,0-.92-1.88-.47-4.49.45-2.69,2.36-6.15,8.2-9.13,21.34-10.9,24.4-27.59,66.2-19.21,21.25,4.26,35.85-4.04,46.72-8.48,10.86-4.44,43.12-4.55,55.28,2.51,12.16,7.07,40.69,25.55,61.04,30.23,12.9,2.97,22.05,12.04,25.85,21.12.02.03.03.05.04.09.72,1.73,1.24,3.47,1.54,5.16.11.48.17.95.24,1.41v.02c.52,1.57-2.73,96.84-150,99.66Z"/>
      <path class="cls-7" d="m208.78,295.79c17.43,7.31,22.49-21.37,42.16-22.49,19.69-1.12,55.61,5.52,56.77,15.13,1.15,9.61,5.08,31.72,25.89,14.76,10.4-8.48-6.46-10.45-9-18.37s13.16-21.67,22.82-21.63c19.32.08,39.85,5.61,45.91,20.78,5.49,13.76,29.8-5.84,37.07,9.03-3.8-9.08-12.95-18.15-25.85-21.12-20.35-4.69-48.87-23.16-61.04-30.23-12.16-7.06-44.42-6.95-55.28-2.51-10.87,4.44-25.47,12.74-46.72,8.48-41.8-8.38-44.86,8.31-66.2,19.22-5.83,2.97-7.75,6.44-8.2,9.13-.43,2.51.39,4.32.46,4.47,0,0,0,.02.01.03,3.82,5.53,26,8.97,41.19,15.33Z"/>
      <path class="cls-9" d="m386.69,276.48s8.39,8.39-9.21,22.63c-5.41,4.38-13.92,7.01-13.92,7.01.75,3.44,20.46-9.16,30.74-11.33,12.57-2.66,30.41-.21,34.11,8.57,10.19,24.15-25.45,62.49-14.81,50.56,3.69-4.14,12.4-20.98,16.8-35.91,4.99-16.92,1.15-30.43-7.8-34.06-16.65-6.76-34.17-11.57-35.91-7.45Z"/>
      <path class="cls-8" d="m243.13,287.27c-5.43-1.19-1.88-13.93,4.03-15.05,5.9-1.12,8.73,4.15,13.79,4.26,5.06.11,6.98,3.05,7.15,6.16.16,3.11-21.58,5.37-24.96,4.63Z"/>
      <path class="cls-2" d="m440.82,257.58c-.05-.27-.1-.55-.14-.83-.03-.19-.06-.39-.1-.58.11.48.17.95.24,1.41Z"/>
      <path class="cls-9" d="m380.84,305.84c-31.16,11.2,5.9,21.82,25.3,20.69,19.4-1.12,25.73-25.66,6.26-27.62-19.47-1.97-16.84,1.64-31.56,6.93Z"/>
      <path class="cls-9" d="m349.72,274.23c-14.79,5.03,1.87,6,17.24,9.75,15.37,3.75,8.13-18.38-17.24-9.75Z"/>
      <path class="cls-6" d="m156.67,298.25c-20.28,3.49-30.05,31.1-.37,26.22,31.46-5.18,58.54,3.03,38.98,8.62-13.68,3.91,1.5,25.11,32.61,17.99,31.11-7.12,17.62-30.5-18.74-41.68-36.36-11.18-32.99-14.5-52.48-11.15Z"/>
      <path class="cls-9" d="m271.87,283.64c-24.33-7.94-46.74,14.05-27.17,18.52,19.57,4.47,71.41-4.07,27.17-18.52Z"/>
      <path class="cls-6" d="m231.64,362.88c-7.88,5.69.51,29.78,53.58,26.78,53.06-3,94.11-24.15,103.48-37.65,9.37-13.49-13.16-18.24-42.77-14.14-29.61,4.1-3.33-11.91-20.2-16.32-16.87-4.41-49.48-5.91-57.73,6.09-8.25,12,36.36,19.12,16.12,26.61-20.24,7.5-32.24-6-52.48,8.62Z"/>
      <path class="cls-11" d="m200.06,261.33c-27.45.6-14.94,26.96,4.25,22.6,19.19-4.36,32.38-23.4-4.25-22.6Z"/>
      <path class="cls-11" d="m164.66,314.54c12.28.11,13.75-8.34,7.42-11.92-6.33-3.58-11.78-3.43-21.86.67-10.52,4.28-3.01,11.1,14.44,11.26Z"/>
      <path class="cls-11" d="m276.01,250.54c13.79-2.16,26.09-13.87,45.95-12.37,19.87,1.5,22.12,9.75,19.87,14.62-2.25,4.87-15.37,15.74-29.24,12.74-13.87-3-47.36-8.96-60.23-5.42-12.87,3.54-9.62-7.33,0-9.58,9.62-2.25,6.93,2.62,23.64,0Z"/>
      <path class="cls-11" d="m243.89,363.85c-9.45,3.42,2.89,26.51,54.68,18.62,40.39-6.16,7.11-16-9.3-17.56-16.41-1.56-29.63-6.76-45.37-1.06Z"/>
      <path class="cls-11" d="m346.68,341.44c-16.69,2.24,4.14,18.47,15.76,17.19,11.62-1.28,38.58-24.48-15.76-17.19Z"/>
      <path class="cls-11" d="m279.89,321.2c-10.54,1.6-19.72,15.72,10.95,13.11,30.67-2.61,18.59-17.6-10.95-13.11Z"/>
      <path class="cls-6" d="m309.96,348.56c7.51,3.41,26.37,2.51,20.85,9.03-5.48,6.47-30.44-.92-29.06-5.74,1-3.49,4.21-5.11,8.21-3.29Z"/>
      <path class="cls-6" d="m173.89,322.87c-1.09,0-10.87,4.29-9.18,6.91,1.69,2.62,8.73,10.12,19.45,6.77,21.69-6.78-10.27-13.68-10.27-13.68Z"/>
      <path class="cls-8" d="m329.64,355.29c1.29-2.4,1.12-11.87-9-15.82-10.12-3.95-9.8,1.7-17.66,9.89-7.86,8.19,24.08,10.76,26.67,5.93Z"/>
      <path class="cls-10" d="m334.65,302.26c-.2.33-.18,5,5.79,3.6,5.97-1.41,10.12-2.06,14.44-2.5s7.13-5.23-2.71-6.07c-9.84-.84-14.94.82-17.52,4.98Z"/>
      <path class="cls-8" d="m173.11,325.85c3.09-1.94,5.34-7.07,11.8-5.01,6.46,2.05,5.91,4.4,7.23,8.31,1.1,3.26-2.65,4.71-7.23,5.52-4.58.81-20.57-3.3-11.8-8.82Z"/>
      <path class="cls-4" d="m340.44,291.38c-11.51-.54-6.4,13.78-1.34,13.21,5.06-.56,8.15-3.74,12.65-3,4.5.75,6.62-9.37-11.31-10.22Z"/>
      <path class="cls-8" d="m154.81,288.43c-2.51-1.55,4.75-13.85,12.71-15.57,7.95-1.72,4.57,3.95,8.23,6.88s3.89,9.05-.44,7.68c-4.33-1.37-19.37,1.71-20.5,1.02Z"/>
      <path class="cls-6" d="m223.25,380.6c-1.39.61,1.14,6.32,6.91,9.41,5.76,3.09,17.71,2.44,21.51,2.02,3.8-.42,2.81-3.65-4.08-6.61-6.89-2.95-24.34-4.82-24.34-4.82Z"/>
      <path class="cls-8" d="m232.83,376.89c10.65-2.96,14.28-.24,19.15,5.58,4.88,5.81-8.36,8.11-14.74,7.43-6.38-.68-15.6-6.3-13.99-9.3,1.61-3,5.01-2.43,9.58-3.7Z"/>
    </g>
  </g>
</svg>