<?xml version="1.0" encoding="UTF-8"?>
<svg xmlns="http://www.w3.org/2000/svg" viewBox="0 0 540 540">
  <defs>
    <style>
      .cls-1 {
        fill: #6e4991;
      }

      .cls-2 {
        fill: #af8363;
      }

      .cls-3 {
        fill: #512616;
      }

      .cls-4 {
        isolation: isolate;
      }

      .cls-5 {
        fill: #68331a;
      }

      .cls-6 {
        fill: #ebdbdd;
      }

      .cls-7 {
        fill: #c9c9c9;
        mix-blend-mode: overlay;
        opacity: .53;
      }

      .cls-8 {
        fill: #67468c;
      }

      .cls-9 {
        fill: #6d391b;
      }

      .cls-10 {
        fill: #794722;
      }
    </style>
  </defs>
  <g class="cls-4">
    <g id="_Layer_" data-name="&amp;lt;Layer&amp;gt;">
      <g>
        <g>
          <g>
            <path class="cls-3" d="m288.59,442.11c-3.96,6.47-8.27,11.05-14.7,7.11l-164.77-101.1c-6.43-3.91-3.48-9.34.47-15.81l148.25-241.64c3.98-6.48,7.48-11.55,13.89-7.61l164.78,101.09c6.4,3.93,4.3,9.86.33,16.33l-148.27,241.63Z"/>
            <g>
              <polygon class="cls-5" points="266.56 85.06 273.67 110.39 255.41 140.16 229 146.32 266.56 85.06"/>
              <polygon class="cls-9" points="349.4 135.93 325.21 142.02 274.06 110.64 267.13 85.46 349.4 135.93"/>
              <polygon class="cls-9" points="312.2 196.55 306.68 172.23 255.53 140.84 229.94 146.08 312.2 196.55"/>
              <polygon class="cls-5" points="349.98 136.53 326.34 140.94 307.16 172.22 312.41 197.78 349.98 136.53"/>
              <path class="cls-10" d="m309.34,172.87c-.8,1.3-2.52,1.7-3.82.9l-50.28-30.84c-1.29-.81-1.71-2.51-.91-3.82l17.3-28.19c.81-1.31,2.5-1.71,3.82-.91l50.27,30.85c1.31.8,1.71,2.51.91,3.81l-17.29,28.21Z"/>
              <path class="cls-2" d="m266.13,129.25s5.09-15.8,12.53-12.96c7.43,2.84,45.41,27.86,45.41,27.86,0,0-41.54-22.04-46.91-20.75-5.38,1.29-11.04,5.85-11.04,5.85Z"/>
              <path class="cls-2" d="m311.01,160.79s-11.95,3.58-23.45-2.92c14.57,8.96,18.85,10.41,23.45,2.92Z"/>
              <polygon class="cls-10" points="229.1 146.78 228.88 145.84 255.1 139.75 273.16 110.34 266.55 86.15 267.49 85.89 274.18 110.49 255.71 140.59 229.1 146.78"/>
              <polygon class="cls-10" points="311.74 196.67 306.32 173.45 306.42 173.28 324.89 141.61 349.27 135.46 349.51 136.4 325.51 142.43 307.34 173.6 312.68 196.45 311.74 196.67"/>
            </g>
            <g>
              <polygon class="cls-5" points="354.63 139.09 361.74 164.42 343.5 194.19 317.05 200.35 354.63 139.09"/>
              <polygon class="cls-9" points="437.47 189.95 413.27 196.05 362.12 164.67 355.2 139.49 437.47 189.95"/>
              <polygon class="cls-9" points="400.26 250.58 394.74 226.26 343.59 194.88 318.01 200.12 400.26 250.58"/>
              <polygon class="cls-5" points="438.05 190.57 414.4 194.97 395.23 226.22 400.46 251.81 438.05 190.57"/>
              <path class="cls-10" d="m397.41,226.9c-.8,1.29-2.52,1.7-3.82.91l-50.29-30.85c-1.28-.8-1.69-2.52-.9-3.82l17.3-28.2c.8-1.3,2.51-1.71,3.81-.91l50.27,30.86c1.33.79,1.73,2.51.93,3.81l-17.3,28.19Z"/>
              <path class="cls-2" d="m354.19,183.28s5.1-15.81,12.56-12.96c7.42,2.85,45.41,27.86,45.41,27.86,0,0-41.54-22.05-46.93-20.75-5.39,1.29-11.04,5.85-11.04,5.85Z"/>
              <path class="cls-2" d="m399.07,214.83s-11.94,3.58-23.45-2.92c14.59,8.95,18.85,10.41,23.45,2.92Z"/>
              <polygon class="cls-10" points="317.16 200.81 316.94 199.87 343.18 193.77 361.23 164.36 354.63 140.18 355.55 139.92 362.25 164.51 343.79 194.61 317.16 200.81"/>
              <polygon class="cls-10" points="399.79 250.7 394.39 227.48 394.48 227.31 412.96 195.62 437.34 189.49 437.57 190.43 413.58 196.46 395.41 227.63 400.74 250.47 399.79 250.7"/>
            </g>
            <g>
              <polygon class="cls-5" points="226.33 150.65 233.43 175.99 215.17 205.75 188.75 211.91 226.33 150.65"/>
              <polygon class="cls-9" points="309.16 201.53 284.97 207.61 233.82 176.22 226.89 151.04 309.16 201.53"/>
              <polygon class="cls-9" points="271.97 262.14 266.41 237.81 215.27 206.44 189.72 211.68 271.97 262.14"/>
              <polygon class="cls-5" points="309.75 202.12 286.09 206.54 266.94 237.79 272.17 263.37 309.75 202.12"/>
              <path class="cls-10" d="m269.11,238.46c-.81,1.29-2.51,1.7-3.82.89l-50.28-30.84c-1.3-.8-1.7-2.5-.9-3.82l17.28-28.18c.79-1.31,2.52-1.72,3.82-.91l50.29,30.84c1.28.79,1.71,2.51.9,3.81l-17.29,28.21Z"/>
              <path class="cls-2" d="m225.9,194.83s5.11-15.81,12.53-12.96c7.43,2.84,45.42,27.85,45.42,27.85,0,0-41.53-22.03-46.91-20.75-5.39,1.3-11.04,5.85-11.04,5.85Z"/>
              <path class="cls-2" d="m270.77,226.38s-11.95,3.57-23.45-2.91c14.59,8.94,18.84,10.41,23.45,2.91Z"/>
              <polygon class="cls-10" points="188.86 212.37 188.63 211.43 214.86 205.32 232.92 175.92 226.34 151.74 227.26 151.47 233.96 176.07 215.46 206.17 188.86 212.37"/>
              <polygon class="cls-10" points="271.5 262.26 266.08 239.04 266.19 238.86 284.66 207.19 309.04 201.05 309.28 201.97 285.29 208.02 267.1 239.18 272.43 262.04 271.5 262.26"/>
            </g>
            <g>
              <polygon class="cls-5" points="314.39 204.67 321.5 230.02 303.24 259.77 276.8 265.93 314.39 204.67"/>
              <polygon class="cls-9" points="397.23 255.54 373.03 261.64 321.88 230.25 314.96 205.08 397.23 255.54"/>
              <polygon class="cls-9" points="360.03 316.17 354.51 291.85 303.36 260.46 277.76 265.71 360.03 316.17"/>
              <polygon class="cls-5" points="397.82 256.13 374.17 260.56 354.99 291.8 360.23 317.39 397.82 256.13"/>
              <path class="cls-10" d="m357.17,292.48c-.81,1.3-2.51,1.71-3.8.91l-50.29-30.84c-1.31-.8-1.71-2.5-.93-3.83l17.33-28.18c.79-1.3,2.5-1.72,3.8-.91l50.28,30.84c1.3.8,1.72,2.51.91,3.81l-17.3,28.2Z"/>
              <path class="cls-2" d="m313.97,248.85s5.1-15.8,12.52-12.96c7.45,2.84,45.43,27.87,45.43,27.87,0,0-41.54-22.04-46.92-20.75-5.39,1.29-11.03,5.84-11.03,5.84Z"/>
              <path class="cls-2" d="m358.83,280.41s-11.93,3.56-23.45-2.93c14.59,8.95,18.86,10.43,23.45,2.93Z"/>
              <polygon class="cls-10" points="276.93 266.39 276.7 265.46 302.94 259.36 320.98 229.94 314.39 205.76 315.32 205.5 322.02 230.08 303.54 260.2 276.93 266.39"/>
              <polygon class="cls-10" points="359.56 316.28 354.15 293.07 354.24 292.9 372.71 261.22 397.11 255.07 397.34 256.01 373.35 262.05 355.17 293.22 360.51 316.06 359.56 316.28"/>
            </g>
            <g>
              <polygon class="cls-5" points="186.1 216.24 193.21 241.57 174.93 271.34 148.5 277.49 186.1 216.24"/>
              <polygon class="cls-9" points="268.93 267.1 244.72 273.19 193.59 241.8 186.66 216.63 268.93 267.1"/>
              <polygon class="cls-9" points="231.74 327.73 226.19 303.4 175.05 272.01 149.46 277.26 231.74 327.73"/>
              <polygon class="cls-5" points="269.51 267.7 245.87 272.11 226.69 303.37 231.94 328.95 269.51 267.7"/>
              <path class="cls-10" d="m228.87,304.03c-.8,1.31-2.51,1.72-3.82.91l-50.28-30.84c-1.28-.8-1.71-2.51-.9-3.82l17.3-28.19c.8-1.3,2.5-1.71,3.8-.92l50.29,30.85c1.31.81,1.71,2.51.91,3.81l-17.31,28.2Z"/>
              <path class="cls-2" d="m185.66,260.41s5.11-15.79,12.54-12.96c7.43,2.85,45.41,27.87,45.41,27.87,0,0-41.54-22.04-46.9-20.75-5.39,1.29-11.05,5.85-11.05,5.85Z"/>
              <path class="cls-2" d="m230.54,291.96s-11.96,3.57-23.45-2.91c14.58,8.95,18.85,10.42,23.45,2.91Z"/>
              <polygon class="cls-10" points="148.62 277.96 148.4 277.02 174.63 270.91 192.68 241.5 186.09 217.31 187.01 217.06 193.71 241.64 175.26 271.76 148.62 277.96"/>
              <polygon class="cls-10" points="231.25 327.84 225.85 304.62 225.96 304.45 244.42 272.78 268.81 266.62 269.05 267.56 245.04 273.6 226.87 304.78 232.18 327.61 231.25 327.84"/>
            </g>
            <g>
              <polygon class="cls-5" points="274.16 270.25 281.26 295.61 263.01 325.37 236.58 331.52 274.16 270.25"/>
              <polygon class="cls-9" points="357 321.13 332.79 327.22 281.65 295.83 274.72 270.65 357 321.13"/>
              <polygon class="cls-9" points="319.79 381.76 314.26 357.42 263.1 326.04 237.54 331.27 319.79 381.76"/>
              <polygon class="cls-5" points="357.58 321.72 333.94 326.15 314.74 357.4 320.01 382.97 357.58 321.72"/>
              <path class="cls-10" d="m316.93,358.06c-.8,1.31-2.51,1.71-3.82.93l-50.27-30.85c-1.29-.81-1.72-2.51-.91-3.83l17.29-28.19c.81-1.3,2.51-1.71,3.81-.91l50.29,30.86c1.3.78,1.72,2.5.9,3.8l-17.3,28.2Z"/>
              <path class="cls-2" d="m273.72,314.45s5.09-15.81,12.54-12.96c7.43,2.84,45.41,27.87,45.41,27.87,0,0-41.54-22.05-46.92-20.75-5.37,1.28-11.03,5.85-11.03,5.85Z"/>
              <path class="cls-2" d="m318.6,345.98s-11.95,3.59-23.45-2.89c14.59,8.94,18.85,10.41,23.45,2.89Z"/>
              <polygon class="cls-10" points="236.7 331.98 236.47 331.04 262.69 324.94 280.74 295.52 274.15 271.34 275.08 271.09 281.79 295.68 263.32 325.78 236.7 331.98"/>
              <polygon class="cls-10" points="319.33 381.87 313.9 358.65 314.01 358.47 332.48 326.8 356.87 320.66 357.11 321.59 333.11 327.63 314.92 358.8 320.27 381.65 319.33 381.87"/>
            </g>
            <g>
              <polygon class="cls-5" points="145.85 281.82 152.95 307.17 134.72 336.91 108.27 343.08 145.85 281.82"/>
              <polygon class="cls-9" points="228.69 332.69 204.49 338.77 153.35 307.4 146.43 282.21 228.69 332.69"/>
              <polygon class="cls-9" points="191.5 393.32 185.96 368.98 134.81 337.6 109.23 342.85 191.5 393.32"/>
              <polygon class="cls-5" points="229.27 333.29 205.63 337.69 186.45 368.95 191.69 394.53 229.27 333.29"/>
              <path class="cls-10" d="m188.63,369.63c-.8,1.3-2.52,1.7-3.81.9l-50.29-30.85c-1.31-.8-1.7-2.5-.91-3.8l17.3-28.19c.81-1.31,2.51-1.71,3.81-.92l50.28,30.83c1.31.81,1.72,2.52.92,3.82l-17.3,28.21Z"/>
              <path class="cls-2" d="m145.41,326.01s5.11-15.81,12.54-12.99c7.43,2.85,45.42,27.9,45.42,27.9,0,0-41.54-22.06-46.92-20.78-5.37,1.31-11.04,5.87-11.04,5.87Z"/>
              <path class="cls-2" d="m190.3,357.53s-11.94,3.6-23.43-2.9c14.59,8.96,18.84,10.43,23.43,2.9Z"/>
              <polygon class="cls-10" points="108.38 343.55 108.18 342.6 134.4 336.49 152.45 307.09 145.86 282.89 146.79 282.64 153.47 307.23 135.01 337.35 108.38 343.55"/>
              <polygon class="cls-10" points="191.03 393.41 185.61 370.2 185.72 370.04 204.18 338.35 228.57 332.21 228.8 333.16 204.81 339.19 186.63 370.36 191.96 393.21 191.03 393.41"/>
            </g>
            <g>
              <polygon class="cls-5" points="233.92 335.85 241.02 361.2 222.77 390.94 196.34 397.11 233.92 335.85"/>
              <polygon class="cls-9" points="316.76 386.7 292.56 392.81 241.41 361.42 234.49 336.25 316.76 386.7"/>
              <polygon class="cls-9" points="279.55 447.35 274.03 423.02 222.88 391.65 197.3 396.88 279.55 447.35"/>
              <polygon class="cls-5" points="317.34 387.31 293.69 391.74 274.52 422.99 279.76 448.57 317.34 387.31"/>
              <path class="cls-10" d="m276.69,423.64c-.8,1.31-2.49,1.71-3.81.9l-50.28-30.83c-1.3-.82-1.72-2.49-.91-3.82l17.3-28.2c.8-1.3,2.5-1.72,3.81-.91l50.27,30.84c1.32.81,1.72,2.52.92,3.81l-17.31,28.21Z"/>
              <path class="cls-2" d="m233.5,380.03s5.1-15.79,12.52-12.95c7.44,2.84,45.41,27.86,45.41,27.86,0,0-41.53-22.04-46.91-20.74-5.38,1.28-11.03,5.83-11.03,5.83Z"/>
              <path class="cls-2" d="m278.36,411.58s-11.94,3.57-23.44-2.91c14.58,8.95,18.83,10.41,23.44,2.91Z"/>
              <polygon class="cls-10" points="196.45 397.57 196.23 396.64 222.46 390.52 240.51 361.11 233.91 336.92 234.86 336.66 241.55 361.26 223.06 391.38 196.45 397.57"/>
              <polygon class="cls-10" points="279.09 447.45 273.67 424.24 273.77 424.06 292.25 392.39 316.64 386.25 316.86 387.18 292.87 393.22 274.69 424.38 280.02 447.24 279.09 447.45"/>
            </g>
          </g>
          <g>
            <path class="cls-6" d="m162.34,238s6.03,14.98,13.12,15.44c7.09.45,20.19-2.41,31.06,2.7,3.12,1.46,7.88,8.85,17.18,12.66,23.1,9.44,60.79,18.76,72.55,20.98,16.5,3.1,13.56,9.08,20.85,10.43,7.27,1.35,24.96,1.3,25.02,6.01.05,4.7,8.9,4.68,8.9,4.68,0,0-.51,8.65,3.09,11.34,3.6,2.68,11.29-.56,13.15-.6-16.66,27.18-78.12,127.33-78.12,127.33l-184.02-112.9,57.21-98.08Z"/>
            <path class="cls-1" d="m156.61,247.33s-5.06,37.77,2.03,38.22c7.09.47,53.07-20,63.92-14.91,10.87,5.11,33.81,34.35,50.32,37.47,16.51,3.12-10.1,46.75-2.82,48.1,7.27,1.34,66.28-45.36,66.33-40.65.06,4.7,8.91,4.68,8.91,4.68,0,0,12.51,10.78,16.23,10.74-16.66,27.18-78.11,127.33-78.11,127.33l-184.03-112.92,57.22-98.06Z"/>
            <path class="cls-8" d="m261.58,315.38c-16.51-3.11-33.39-31.26-44.26-36.36-10.84-5.1-62.49,13.94-64.61,12.2,0,0-23.63,10.24-21.32,32.47,4.54,44.05,105.94,110.47,148.41,100.29,31.69-7.59,59.34-75.2,58.14-94.29-2.53-.23-10.65,2.71-10.68-.74-.06-4.7-63.16,34.58-70.43,33.25-6.44-1.8,3.65-25.95,4.75-46.82Z"/>
          </g>
        </g>
        <path class="cls-7" d="m286.46,413.8c10.87-3.3,6.13-17.41-7.15-13.48-36.03,10.66-67.15.76-100.5-25.97,20.39,24.11,62.37,53.18,107.66,39.45Z"/>
      </g>
    </g>
  </g>
</svg>