<?xml version="1.0" encoding="UTF-8"?>
<svg id="_Layer_" data-name="&amp;lt;Layer&amp;gt;" xmlns="http://www.w3.org/2000/svg" viewBox="0 0 540 540">
  <defs>
    <style>
      .cls-1 {
        fill: #f9998a;
      }

      .cls-2 {
        fill: #fff;
      }

      .cls-3 {
        fill: #f88674;
      }

      .cls-4 {
        fill: #f7b87f;
      }

      .cls-5 {
        fill: #ed8772;
      }

      .cls-6 {
        fill: #ea715c;
      }
    </style>
  </defs>
  <g>
    <polygon class="cls-5" points="402.37 133.28 137.63 133.28 118.63 108.72 421.37 108.72 402.37 133.28"/>
    <polygon class="cls-5" points="137.63 406.72 402.37 406.72 421.37 431.28 118.63 431.28 137.63 406.72"/>
    <path class="cls-5" d="m403.29,408.45H136.71l-7.21-104.5c-1.86-26.95-1.76-54.01.3-80.95l6.91-90.42h266.58l6.99,93.59c2.01,26.89,2.06,53.9.17,80.8l-7.15,101.47Z"/>
  </g>
  <path class="cls-1" d="m388.1,390.15h-236.2l-6.39-92.59c-1.65-23.88-1.56-47.85.27-71.72l5.29-69.27,237.03-10.84,6.19,82.93c1.78,23.83,1.83,47.76.15,71.59l-6.34,89.91Z"/>
  <circle class="cls-4" cx="270" cy="255.32" r="75.97"/>
  <g>
    <path class="cls-2" d="m203.1,265.9c2.2-2.09,4.27-2.19,6.11-.48,1.57,1.46,2.34,3.51,2.23,6.14-.12,2.87-1.37,5.01-3.6,6.46-2.22,1.44-4.51,2.52-6.86,3.11-2.35.59-4.71.69-7.1.3-2.39-.39-4.66-1.3-6.81-2.74-2.16-1.43-4.15-3.63-5.99-6.6-1.84-2.97-3.33-6.59-4.44-10.88-1.81-7.06-2.19-13.12-1-18.18,1.19-5.05,3.65-8.71,7.28-10.92,2.54-1.54,5.67-2.48,9.36-2.73,3.68-.25,6.83.39,9.38,1.8,2.32,1.28,3.5,3.49,3.56,6.57.06,2.64-.66,4.59-2.12,5.83-1.35,1.15-2.92,1.13-4.76-.11-1.84-1.24-3.45-1.75-4.79-1.53-1.35.22-2.33.92-2.95,2.09-.61,1.17-1.04,2.6-1.27,4.29-.24,1.69-.31,3.28-.24,4.75.07,1.48.19,2.79.4,3.87.3,1.5.76,2.98,1.29,4.38.53,1.4,1.21,2.71,2.04,3.93.83,1.21,1.74,2.12,2.73,2.71.99.59,2.14.73,3.45.42,1.32-.31,2.68-1.14,4.11-2.49Z"/>
    <path class="cls-2" d="m235.51,255.07c.09.04.18.11.28.2.09.09.32.27.66.53.35.26.69.55,1.04.86.35.31.76.7,1.22,1.18.47.48.92.99,1.37,1.54.45.55.91,1.17,1.39,1.87.48.7.89,1.42,1.24,2.18.83,1.6.96,3.42.42,5.45-.54,2.04-1.53,3.66-2.97,4.87-1.44,1.21-2.93,1.48-4.5.87-1.63-.64-3.29-1.89-4.93-3.79-1.64-1.9-2.96-3.78-3.97-5.65-1-1.87-1.75-3.57-2.24-5.13,1.48,4.72,2.05,8.47,1.8,11.24-.14,1.59-.78,2.89-1.91,3.91-1.13,1.03-2.36,1.64-3.7,1.85-1.35.21-2.68.02-4.01-.56-1.33-.59-2.24-1.53-2.74-2.83-.62-1.62-1.14-3.38-1.53-5.26-.38-1.88-.63-3.56-.73-5.02-.1-1.46-.22-3.24-.36-5.33-.13-2.1-.32-3.85-.53-5.23-.32-2.19-.9-5.1-1.8-8.65-.9-3.55-1.48-6.09-1.73-7.63-.29-1.82-.14-3.44.46-4.84.6-1.4,1.45-2.53,2.55-3.38,1.1-.85,2.5-1.54,4.2-2.07s3.36-.88,4.96-1.05c1.61-.17,3.35-.27,5.23-.28,4.08-.02,7.66,1.36,10.62,4.06,2.96,2.7,4.9,5.81,5.72,9.18.68,2.79.92,5.3.82,7.4-.1,2.1-.49,3.85-1.17,5.24-.68,1.39-1.47,2.44-2.36,3.15-.89.71-1.83,1.08-2.82,1.12Zm-7.42-9.82c.42-2.42-.45-4.7-2.63-6.76-1.32-1.22-2.32-1.1-2.96.34-.11.21-.16.54-.16.97,0,.44.04.89.1,1.35.06.46.13,1,.23,1.62.1.62.19,1.14.29,1.55.09.4.19.87.3,1.4.11.53.17.84.18.93.18.76.59,1.31,1.23,1.65.64.34,1.3.27,2-.23.7-.49,1.18-1.45,1.42-2.83Z"/>
    <path class="cls-2" d="m259.09,266.49c.04,1.51-.33,2.85-1.1,4.04s-1.74,1.99-2.93,2.4c-1.19.41-2.39.56-3.62.45s-2.35-.7-3.38-1.76c-1.03-1.06-1.73-2.51-2.09-4.33-.86-4.37-1.54-11.34-2.01-20.89-.46-9.54-.44-15.49,0-17.8.28-1.51,1.11-2.74,2.5-3.62,1.39-.88,2.87-1.34,4.41-1.39,1.54-.04,3,.32,4.37,1.08,1.37.76,2.19,1.87,2.46,3.32.33,1.79.5,3.55.55,5.28.04,1.73.04,4.09-.02,7.08-.06,2.99-.07,5.73-.05,8.21.03,2.67.18,5.96.45,9.84.27,3.88.42,6.58.46,8.09Z"/>
    <path class="cls-2" d="m262.62,242.86c-.21-2.62-.1-5.06.37-7.3.47-2.24,1.16-4.14,2.09-5.68.93-1.54,2.04-2.87,3.34-3.99,1.3-1.12,2.59-1.96,3.88-2.53,1.29-.57,2.56-.95,3.77-1.18,1.07-.21,2.19-.28,3.34-.17,1.14.11,2.07.22,2.76.35.7.12,1.43.37,2.18.74.76.37,1.32.68,1.71.91.38.24.85.54,1.39.91,2.52,1.78,3.38,4.31,2.64,7.52-.54,2.35-1.65,4.09-3.27,5.08-1.26.77-2.46.71-3.51-.16-2.27-1.84-4.16-2.52-5.62-2.05-1.46.47-2.15,2.02-1.99,4.51.06.91.43,1.66,1.09,2.21.65.55,1.52,1,2.59,1.35,1.07.35,2.2.72,3.38,1.1,1.18.39,2.45,1.06,3.81,2.03,1.36.97,2.54,2.17,3.55,3.59,1.6,2.39,2.44,5.01,2.57,7.84.13,2.84-.36,5.41-1.41,7.73-1.05,2.32-2.57,4.29-4.55,5.94-1.98,1.65-4.16,2.53-6.55,2.7-2.55.18-4.94.09-7.15-.33-2.21-.42-4.04-1.07-5.51-1.97-1.47-.9-2.65-1.71-3.52-2.46-.87-.74-1.6-1.48-2.14-2.19-.64-.85-1.05-1.95-1.25-3.26-.19-1.31-.15-2.56.14-3.76.29-1.2.75-2.3,1.37-3.31.62-1.01,1.42-1.63,2.38-1.85.96-.23,2,0,3.12.68,5,3.11,7.95,4.97,9.04,5.43,1.7.73,2.69.37,3-1.01.18-.81-.05-1.58-.75-2.29-.7-.7-1.66-1.31-2.86-1.83-1.21-.51-2.54-1.16-4.02-1.93-1.47-.77-2.87-1.58-4.19-2.43-1.32-.85-2.47-2.06-3.47-3.63-1-1.57-1.58-3.35-1.75-5.34Z"/>
    <path class="cls-2" d="m306.98,268.41c-.2,1.68-.79,3.12-1.78,4.28-.99,1.17-2.12,1.85-3.39,2.07-1.27.22-2.51.14-3.72-.24-1.21-.38-2.2-1.29-2.97-2.74-.77-1.45-1.09-3.25-.99-5.38.14-2.85.25-6.75.35-11.64.1-4.89.2-8.7.3-11.42.11-2.72.42-5.56.95-8.52.53-2.96,1.32-5.18,2.36-6.66.78-1.11,2.2-2.03,4.28-2.76,2.07-.72,4.43-1.05,7.06-.97,2.62.08,5.23.51,7.8,1.27,2.57.76,4.88,2.12,6.89,4.06,2.02,1.94,3.33,4.3,3.96,7.06.57,2.5.74,4.92.52,7.25-.22,2.33-.74,4.36-1.53,6.11-.8,1.74-1.69,3.24-2.67,4.49-.99,1.25-2.05,2.3-3.18,3.17-1.71,1.22-3.64,2.06-5.81,2.53-2.17.47-3.94.72-5.31.73-1.37,0-2.08.07-2.13.16-.15.57-.51,2.97-.99,7.15Zm3.23-30.68c-.84.98-1.32,2.86-1.47,5.63-.15,2.77-.02,4.38.37,4.81.33.23.6.4.81.49.21.1.59.09,1.13-.02.54-.11,1.25-.42,2.1-.89.88-.48,1.47-1.2,1.71-2.18.23-.97.18-2.41-.17-4.32-.16-.9-.4-1.66-.71-2.25-.31-.6-.65-1.03-1.01-1.3-.36-.26-.71-.43-1.07-.49-.36-.07-.68-.04-.97.07-.29.11-.53.26-.73.43Z"/>
    <path class="cls-2" d="m330.29,248.05c.26-2.62.82-4.99,1.69-7.11.87-2.12,1.9-3.86,3.09-5.2,1.19-1.35,2.53-2.45,4.02-3.31,1.48-.86,2.92-1.46,4.29-1.78,1.38-.33,2.7-.47,3.93-.48,1.09,0,2.22.13,3.33.44,1.11.31,2,.59,2.67.84.67.25,1.34.62,2.02,1.13s1.19.91,1.53,1.21c.34.3.74.68,1.21,1.14,2.17,2.21,2.57,4.85,1.25,7.88-.96,2.21-2.37,3.73-4.15,4.4-1.39.53-2.56.25-3.44-.79-1.91-2.23-3.66-3.24-5.18-3.04-1.53.2-2.49,1.59-2.79,4.08-.11.91.13,1.71.67,2.37.55.66,1.32,1.26,2.32,1.8,1,.54,2.05,1.11,3.14,1.7,1.09.6,2.23,1.49,3.4,2.7,1.17,1.2,2.12,2.6,2.86,4.18,1.15,2.64,1.52,5.37,1.13,8.18-.39,2.81-1.33,5.26-2.79,7.34-1.46,2.09-3.33,3.75-5.58,5.01-2.25,1.26-4.58,1.73-6.97,1.46-2.56-.28-4.91-.81-7.01-1.62-2.11-.82-3.8-1.79-5.09-2.94-1.29-1.15-2.3-2.16-3.03-3.06-.73-.89-1.31-1.74-1.71-2.55-.48-.95-.69-2.11-.64-3.43.04-1.32.32-2.55.82-3.67.5-1.12,1.15-2.13,1.95-3,.8-.88,1.69-1.34,2.68-1.39.99-.05,1.98.36,2.96,1.23,4.38,3.97,6.96,6.33,7.95,6.98,1.55,1.02,2.59.86,3.15-.45.33-.77.23-1.57-.33-2.39-.57-.82-1.4-1.59-2.5-2.32-1.1-.72-2.3-1.6-3.62-2.63-1.32-1.03-2.55-2.07-3.7-3.15-1.15-1.08-2.07-2.47-2.77-4.2-.7-1.72-.96-3.58-.76-5.57Z"/>
  </g>
  <path class="cls-6" d="m410.45,306.97c1.89-26.9,1.84-53.9-.17-80.8l-6.99-93.59h-.39l18.47-23.86H118.63l13,16.79c1.7,1.53,3.41,3.06,5.11,4.59,78.88-.82,146.64,4.49,225.52,3.67,0,0,.66,4.96,1.7,13.05l24.16-1.1,6.19,82.93c1.78,23.83,1.83,47.76.15,71.59l-6.34,89.91h-29.53c-1.98,9.75-3.28,15.97-3.28,15.97-84.3-.57-135.35,3.56-219.52,3.01l-17.14,22.15h302.74l-18.05-23.32,7.13-100.98Z"/>
  <path class="cls-3" d="m394.44,300.24c1.68-23.84,1.63-47.76-.15-71.59l-6.19-82.93-24.16,1.1c4.07,31.58,14.05,110.84,14.05,128.64s-13.14,83.71-19.43,114.68h29.53l6.34-89.91Z"/>
</svg>