<?xml version="1.0" encoding="utf-8"?>
<!-- Generator: Adobe Illustrator 27.4.0, SVG Export Plug-In . SVG Version: 6.00 Build 0)  -->
<svg version="1.1" id="Layer_1" xmlns="http://www.w3.org/2000/svg" xmlns:xlink="http://www.w3.org/1999/xlink" x="0px" y="0px"
	 viewBox="0 0 540 540" style="enable-background:new 0 0 540 540;" xml:space="preserve">
<style type="text/css">
	.st0{fill:#F9BB60;}
	.st1{fill:#EFA94B;}
	.st2{fill:#F4C2C1;}
	.st3{fill:#F4BAB9;}
	.st4{fill:#F4AEAE;}
	.st5{fill:#FCCA79;}
	.st6{fill:#FFE771;}
	.st7{fill:#F7DF68;}
</style>
<g>
	<g id="_Layer_">
		<path class="st0" d="M406.1,231.9C405.8,232.7,406.1,231.9,406.1,231.9c-7.8,10.6-18,50-27,69.2c-9.3,19.9-201.9,11.8-221-7.6
			c-9.6-9.8-21.5-55.6-25.1-62.6c-10.3-19.6,18.2-57.8,130.5-62.2C355,165.1,414.4,208.5,406.1,231.9L406.1,231.9z"/>
		<path class="st1" d="M406.1,231.9c-7.8,10.6-18,49.9-27,69.2c-9.3,19.9-201.9,11.8-221-7.6c-9.6-9.8-12.7-23.4-15-35.6
			c1.6-10.9,2.6-18.4,2.6-18.4s28.4,23.1,97.5,29.6C309.2,275.5,386.3,249.3,406.1,231.9L406.1,231.9z"/>
		<path class="st2" d="M394.2,244.6c1.8-1.8,4.8,1.1,5.9-0.8c2.7-4.6,5.8-12.6,6.2-11.5c0.4,1-3.7,16.1-4,17.4
			c-9.1,34.9-29,109.2-38,129.8c-0.9,2.2-1.8,3.8-2.5,4.6c-1.1,1.4-2.4,2.9-3.8,4.5l-0.1,0.1c-2.8,3.1-6.5,6.4-11.3,9.5
			c-1.9,1.3-4.1,2.5-6.5,3.8l-0.1,0.1c-3.2,1.6-6.7,3.1-10.8,4.6c-0.1,0.1-0.2,0.1-0.3,0.1c-2.9,1-6,2-9.3,2.8
			c-3.3,0.8-6.9,1.6-10.7,2.3c-3.2,0.6-6.5,1.1-10,1.5c0,0-0.1,0-0.2,0c-7.3,1-15.5,1.5-24.7,1.8c-0.5,0-1.1,0-1.7,0H272
			c-13.8,0.3-26-0.9-36.6-3l-0.6-0.1c-0.1,0-0.2,0-0.3-0.1c-6.5-1.3-12.4-3-17.7-4.9l-0.8-0.3l-5.4-2.1l-0.4-0.2
			c-5.8-2.5-10.7-5.1-15.1-7.8c-0.5-0.3-1.1-0.7-1.6-1h0l-2.9-2c-3.5-2.5-6.5-4.9-8.9-7.1v0c-0.1-0.1-0.2-0.2-0.4-0.3l-0.3-0.3
			c-1.2-1.1-2.2-2.1-3.1-3.1c-0.8-0.9-1.5-1.7-2.1-2.4c-6.3-7.4-27.6-89-37.5-128.3c-0.8-3-1.5-5.8-2.1-8.2
			c-0.5-2.1-4.3-13.2-4.2-15c0.1-1.2,2.7,3.6,5.1,8.1c1.1,2.2,2.5,1.1,5.4,0.9c3.3-0.1,4,2.4,5.3,6.5l3.4,11.7
			c0.9,2.7,3.6,4.1,6.1,3.2l5.9-2.1c2.5-0.9,5.3,0.5,6.1,3.2l3.8,11.9c0.9,2.9,4,4.3,6.6,3c4.8-2.4,13.4-7.3,15.2-4.1
			c0.4,0.7,2.6,4.9,3,5.7c1.8,3.1,3.5,6.5,4.4,8.1c0.2,0.3,0.3,0.5,0.4,0.7c0.1,0.1,0.2,0.3,0.2,0.4l13.4-9.7c2.1-1.5,5-1.1,6.6,1.1
			l8.6,11.5c1.6,2.1,4.4,2.6,6.5,1.1l13.5-9.6c1.9-1.4,4.5-1.1,6.2,0.6l8.7,9.2c1.9,2,5.1,2,7-0.1l11.1-12.3c1.9-2.1,5.1-2.1,7,0
			l9.1,9.9c2,2.2,5.3,2.1,7.2-0.2l8.7-10.5c1.7-2,4.5-2.3,6.5-0.8l9.1,7c2.2,1.7,5.3,1.1,6.9-1.3l6.2-9.6c1.5-2.3,4.5-3,6.7-1.4
			l8.1,5.7c2.3,1.6,5.4,0.9,6.8-1.6l6.5-11.1c1.3-2.2,4-3.1,6.3-1.9l2.7,1.4c2.8,1.4,6.1-0.1,6.9-3.3l3.5-13.9
			C393.1,246.1,393.6,245.3,394.2,244.6L394.2,244.6L394.2,244.6z"/>
		<path class="st3" d="M364.1,379.1c-0.9,2.2-1.8,3.8-2.5,4.6c-1.1,1.4-2.4,2.9-3.8,4.5l-0.1,0.1c-2.8,3.1-6.5,6.4-11.3,9.5
			c-1.9,1.3-4.1,2.5-6.5,3.8l-0.1,0.1c-3.2,1.6-6.7,3.1-10.8,4.6l-0.3,0.1v0c-2.9,1-6,2-9.3,2.8c-3.3,0.8-6.9,1.6-10.7,2.3
			c-3.2,0.6-6.5,1.1-10,1.5c0,0-0.1,0-0.2,0c-7.3,1-15.5,1.5-24.7,1.8c-0.5,0-1.1,0-1.7,0h-0.2c-13.8,0.3-26-0.9-36.6-3l-0.6-0.1
			l-0.3,0v0c-6.5-1.3-12.4-3-17.7-4.9l-0.8-0.3l-5.4-2.1l-0.4-0.2c-5.8-2.5-10.7-5.1-15.1-7.8l0,0.1l-1.6-1.1h0l-2.9-2
			c-3.5-2.5-6.5-4.9-8.9-7.1l-0.4-0.3l-0.3-0.3c-1.2-1.1-2.2-2.1-3.1-3.1c-0.8-0.9-1.5-1.7-2.1-2.4c-6.3-7.4-27.6-89-37.5-128.3
			c3.6,10.7,9.6,25,19.5,41c0.1,0.2,0.2,0.4,0.4,0.6l0,0.1c1.1,1.7,2.1,3.4,3.3,5.1c0.1,0.1,0.2,0.3,0.3,0.4l0,0
			c4.8,7.3,10.4,14.9,17,22.6c0.1,0.1,0.2,0.2,0.3,0.3v0c1.4,1.7,2.8,3.3,4.3,4.9c0.1,0.1,0.2,0.2,0.3,0.3l0,0
			c4.9,5.5,10.3,11.1,16.2,16.7c0.9,0.9,1.9,1.8,2.8,2.6c0.1,0.1,0.2,0.2,0.3,0.2c2.6,2.3,5.2,4.6,7.8,6.7c0.1,0.1,0.2,0.1,0.2,0.2
			c6.1,4.9,12.4,9.1,18.9,12.9c3.5,2.1,7,4,10.6,5.8c5.7,2.8,11.4,5.3,17.1,7.4c4.8,1.8,9.5,3.3,14.2,4.6c4.5,1.2,8.9,2.3,13.3,3.2
			c5.1,1,10.2,1.8,15.1,2.3c3.5,0.4,7,0.7,10.4,0.8c4,0.2,7.9,0.2,11.6,0.1c3.1-0.1,6.1-0.2,9-0.5c4.2-0.4,8.1-1,11.7-1.7
			c2.2-0.4,4.2-1,6.1-1.5c4.2-1.2,7.7-2.6,10.5-4.3C361.1,381.7,362.8,380.4,364.1,379.1L364.1,379.1z"/>
		<path class="st4" d="M216.4,406.6l-0.8-0.3l-5.4-2.1l-0.4-0.2c0,0-7.9-101.6-7.9-102.9c-0.2-10.8,0.9-14.6,1.1-12.3l7.3,64.6
			L216.4,406.6L216.4,406.6z"/>
		<path class="st4" d="M195,396.4l-1.6-1.1h0l-2.9-2l-11.8-71.6c0,0-4.6-38.4-4.6-39.2c-0.1-3.9,0.9-4.6,1-3.8l8.2,48.3L195,396.4
			L195,396.4L195,396.4z"/>
		<path class="st4" d="M181.5,386.2L181.5,386.2l-0.4-0.3l-0.3-0.3l0,0c-2-2-3.4-4.6-4.1-7.5l-19.1-85.3l-11.9-53.4l6.7,20.5
			c0.1,0.4,0.3,0.9,0.4,1.3l8.6,37.2L181.5,386.2L181.5,386.2z"/>
		<path class="st4" d="M195.1,396.3l-1.6-1.1h0l-2.9-2l-11.7-71.1c1.4,1.7,2.8,3.3,4.3,4.9c0.1,0.1,0.2,0.2,0.3,0.3l0,0l11.6,68.8
			L195.1,396.3L195.1,396.3z"/>
		<path class="st4" d="M272,414.9h-0.2c-1.1,0-6.5-0.2-10.2-0.3c-1.9,0-3.4-1.6-3.5-3.7c-0.2-5.5-0.5-17.1-0.9-31.2
			c-0.8-30.7-1.8-73.4-2.2-92.2c-0.1-3.5,3.8-5.2,6.2-2.8l7.7,8.1c0.7,0.7,1,1.6,1,2.6l1.5,88.8L272,414.9L272,414.9z"/>
		<path class="st4" d="M303.1,290.6c0.7,0.8,1.1,1.8,1,2.8c-0.4,10.1-2.8,64.6-4.3,96.5c-0.6,13.6-1.1,23-1.2,23.1c0,0-0.1,0-0.2,0
			c-1.2,0.1-6.6,0.5-10.4,0.8c-2.1,0.2-3.9-1.7-3.9-3.9l0.6-22.4l2.9-104.5c0.1-3.4,4-5,6.2-2.5L303.1,290.6L303.1,290.6z"/>
		<path class="st4" d="M334.3,285.1c1.1,0.8,1.6,2.2,1.5,3.6l-14,102.1l-2.1,15.6c-0.2,1.6-1.4,2.9-2.9,3.2l-3.5,0.8
			c-2.4,0.5-4.5-1.5-4.3-4.1l1.2-15.6l8.6-110.4c0.2-3,3.4-4.5,5.7-2.8L334.3,285.1L334.3,285.1z"/>
		<path class="st4" d="M362.1,278.4c1.2,0.9,1.8,2.4,1.5,4l-21.1,106.3l-2.6,12.9l-0.1,0.1l-10.8,4.6l-0.3,0.1v0
			c0.1-0.6,0.9-6.7,2.1-16c4.1-30.7,13-96.5,16-116.3c0.4-2.7,3.4-4.1,5.5-2.6L362.1,278.4L362.1,278.4z"/>
		<path class="st4" d="M385,265.1c1.5,0.8,2.3,2.6,1.9,4.4l-27.7,113.4l-1.3,5.3l-0.1,0.1l-3.4,2.8c-2.7,2.2-6.5-0.3-5.8-3.8
			c0-0.1,0-0.1,0-0.2c5.9-28,21.5-102.9,25.9-122.3c0.5-2.4,3-3.6,5.1-2.5L385,265.1L385,265.1z"/>
		<path class="st4" d="M242.9,408.3c0.2,2.5-1.8,4.4-4.1,4.1l-3.5-0.6l-0.6-0.1l-0.3,0v0l-4.6-45l-8.2-79.8
			c-0.4-3.8,4.2-5.8,6.4-2.8l5.8,7.8c0.4,0.6,0.7,1.3,0.8,2.1l5.8,78.6L242.9,408.3L242.9,408.3z"/>
		<path class="st5" d="M353.5,247.2c-1.4,0.2-2.6,0.7-4,1c-1.4,0.3-2.7,0.7-4,1.1c-2.5,0.7-4.9,1.9-7.4,2.8
			c-2.5,0.9-4.9,1.9-7.4,2.8c-2.6,1-5.3,2-7.4,4c-0.3,0.3-0.4,0.6-0.5,0.9c-0.5-0.7-1.3-1.3-2.4-1.4c-5.9-0.7-11.9-0.6-17.8-1.5
			c-6.1-0.9-11.8-0.8-17.9-0.5c-12.2,0.6-24.4,0.8-36.6,0.4c-24.3-0.9-48.3-2.7-72.2-7.8c-2.9-0.6-4,3.6-1.2,4.7
			c6.1,2.4,12.1,4.9,18.4,6.7c5.8,1.7,11.5,3.4,17.3,4.9c12.2,3.1,24.4,5.9,37,7.2c12.4,1.3,24.9,1.9,37.4,1.4
			c12.5-0.4,25-3.9,36.5-9c1.3-0.6,2-1.6,2.1-2.7c0.2,0.3,0.5,0.5,0.9,0.6c2.7,0.7,5.6,0.1,8.3-0.5c2.6-0.6,5.2-1.4,7.8-2.3
			c2.7-0.9,5.5-1.9,8-3.2c1.2-0.7,2.4-1.3,3.6-2.1c1.1-0.8,2.4-1.4,3.4-2.4C357.1,250.6,355.8,246.9,353.5,247.2L353.5,247.2z"/>
		<ellipse class="st6" cx="266.1" cy="187.1" rx="80.6" ry="34.1"/>
		<path class="st7" d="M266.1,221.2c33.6,0,62.4-8.7,74.5-21c-22,9.8-56.5,19.3-95.6,8.3c-24.9-7-43.3-20-55.8-31.6
			c-2.4,3.2-3.7,6.6-3.7,10.2C185.5,206,221.6,221.2,266.1,221.2z"/>
	</g>
</g>
</svg>
