<?xml version="1.0" encoding="UTF-8"?>
<svg id="_Layer_" data-name="&amp;lt;Layer&amp;gt;" xmlns="http://www.w3.org/2000/svg" viewBox="0 0 540 540">
  <defs>
    <style>
      .cls-1 {
        fill: #eead4f;
      }

      .cls-2 {
        fill: #fcd294;
      }

      .cls-3 {
        fill: #f9bb60;
      }

      .cls-4 {
        fill: #dc983c;
      }

      .cls-5 {
        fill: #fcca79;
      }

      .cls-6 {
        fill: #efa94b;
      }
    </style>
  </defs>
  <path class="cls-1" d="m90.47,235.63c-.32,1.09-.58,2.18-.79,3.31-5.8,30.65,61.47,40.27,77.68,27.69,12.01-9.31,9.8-57.37-2.91-76.13-4.46-6.59-10.25-9.6-17.16-5.99-5.59,2.89-48.53,22.32-56.82,51.12Z"/>
  <path class="cls-4" d="m90.47,235.63c5.37-17.92,27.74-34.05,38.53-36.85,10.84-2.83,8.81,25.95,8.89,27.35l26.56-35.63c-4.46-6.59-10.25-9.6-17.16-5.99-5.59,2.89-48.53,22.32-56.82,51.12Z"/>
  <path class="cls-1" d="m331.57,349.41c5.18,2.25,9.2,6.16,12.62,10.92,9.43,13.15,14.36,33.04,27.04,43.98,6.67,5.76,41.11,4.26,48.12-5.08,15.49-20.69,20.63-45.45,21.79-65.05,1.07-18.11-1.24-31.82-1.92-33.91-4.17-12.86-20-25.4-54.63-23.85-34.64,1.57-72.48,64.48-53.02,72.98Z"/>
  <path class="cls-3" d="m146.14,256.41c.04.07.06.14.11.21,2.58,5.39,5.42,9.69,7.95,12.55,11.42,12.89,34.73,28.1,54.02,34.02,6.85,2.12,13.2,3.08,18.32,2.32,3.02-.44,5.62-1.46,7.66-3.17,13.98-11.85,105-175.2,18.04-167.89-.41.03-64.22-4.79-99.84,41.35-21.78,28.21-15.56,61.23-6.26,80.61Z"/>
  <path class="cls-4" d="m331.57,349.41c5.18,2.25,9.2,6.16,12.62,10.92-.25-17.87,20.88-50.15,48.03-52.59,27.13-2.45,48.92,26.45,48.92,26.45,1.07-18.11-1.24-31.82-1.92-33.91-4.17-12.86-20-25.4-54.63-23.85-34.64,1.57-72.48,64.48-53.02,72.98Z"/>
  <path class="cls-6" d="m146.09,257.74c2.58,5.39,5.42,9.69,7.95,12.55,11.42,12.89,34.73,28.1,54.02,34.02,6.67,8.4,14.15,15.27,21.68,20.73,1.78-.26,2.87-.48,2.92-.64.06-.24-2.44-7.27-6.27-17.76-11.83-32.51-36.31-98.27-36.31-98.27,0,0-.02.15-.05.44-.57,4.4-5.2,40.11-7.3,55.94-2.24,16.83-27.99,10.54-36.63-7.02Z"/>
  <path class="cls-5" d="m190.31,208.32s-.02.15-.05.44c-.3,2.77-.45,5.39-.5,7.75-.02,1.49-.07,2.99-.13,4.45,0,.16,0,.34-.02.53-.17,4.7-.42,9.28-.63,13.81,0,.1,0,.18-.01.28-.94,21.71-.55,41.88,16.77,65.36.84,1.13,1.69,2.25,2.56,3.31,6.67,8.4,14.15,15.27,21.68,20.73,20.35,14.83,41.08,19.47,47.54,16.08,4.81-2.51,7.95-5.79,9.96-9.66v-.02c9.57-18.41-6.12-49.86,16.81-72.65,48.79-48.41,139.22-3.1,119.66-46.93-27.46-61.56-98.04-79.03-135.3-79.53-11.01-.14-20.8.73-29.55,2.42-51.87,9.97-66.04,48.67-68.79,73.6Z"/>
  <path class="cls-3" d="m188.97,235.59c-.94,21.71-.55,41.88,16.77,65.36.84,1.13,1.69,2.25,2.56,3.31,6.67,8.4,14.15,15.27,21.68,20.73,20.35,14.83,41.08,19.47,47.54,16.08,4.81-2.51,7.95-5.79,9.96-9.66v-.02c-9.64-17.3-20.53-36.15-20.53-36.15,0,0-16.64,26.6-49.29-1.21-24.45-20.81-28.56-42.38-28.67-58.46Z"/>
  <path class="cls-3" d="m266.71,301.52c.04,8.52,1.51,16.56,4.61,23.56,1.26,2.81,2.75,5.46,4.54,7.9,22.81,31.01,55.94,35.16,65.49,33.4,5.2-.93.79-11.25,4.84-24.83,3.34-11.18,12.43-24.55,37.39-36.74,33.74-16.52,53.59,17.3,59.2,11.76,5.62-5.57,10.72-30.79,6.06-42.48-2.54-6.3-8.64-20.1-16.18-32.16v-.03c-6.39-10.24-13.82-19.23-21.03-21.37-16.41-4.87-58.6-19.28-97.45-1.34-28.22,13.03-47.67,50.76-47.48,82.32Z"/>
  <path class="cls-6" d="m271.32,325.07c-3.35-30.97-.76-72.41,48.87-96.99,49.63-24.59,98.64-5.41,91.44-7.54-16.41-4.88-58.6-19.27-97.45-1.34-35.8,16.54-57.51,72.86-42.87,105.88Z"/>
  <path class="cls-2" d="m405.6,188.95c-4.09-16-33.67-36.3-64.35-43.28-30.68-6.98-75.45,2.06-92.85,61.52-13.62,46.53,19.08,34.25,40.01,15.51,16.58-14.84,49.78-26.48,72.92-22.61,33.38,5.57,49.32,8.62,44.26-11.13Z"/>
  <path class="cls-5" d="m449.49,291.59c2.37-11.2-9.74-42.33-23.84-53.29-14.1-10.96-65.54-11.92-87.24,21.51-21.7,33.43-7.14,63.16,4.08,54,11.22-9.16,38.77-34.75,74.42-21.83,15.93,5.77,27.4,24.11,32.58-.38Z"/>
  <path class="cls-3" d="m436.82,341.06c4.56,17.31-9.35,39.49-23.37,47.15-14.02,7.66-31.27-21.28-21.51-40.89,9.76-19.62,39.69-25.92,44.88-6.26Z"/>
</svg>