<?xml version="1.0" encoding="UTF-8"?>
<svg xmlns="http://www.w3.org/2000/svg" viewBox="0 0 540 540">
  <defs>
    <style>
      .cls-1 {
        isolation: isolate;
      }

      .cls-2 {
        fill: #c9c9c9;
      }

      .cls-3 {
        fill: none;
        stroke: #ea5959;
        stroke-miterlimit: 10;
        stroke-width: 37px;
      }

      .cls-4 {
        mix-blend-mode: hard-light;
      }

      .cls-5 {
        fill: #e0766e;
      }

      .cls-6 {
        fill: #ce5c4d;
      }

      .cls-7 {
        fill: #bf4940;
      }
    </style>
  </defs>
  <g class="cls-1">
    <g id="_Layer_" data-name="&amp;lt;Layer&amp;gt;">
      <g>
        <g>
          <g>
            <path class="cls-6" d="m162.32,204.43c4.47-21.56,30.22-42.82,56.7-38,2.39.44,4.69,1.06,6.92,1.88t.04.01c22.51,8.14,36.59,34.01,32.52,53.62-2.67,12.92-12.61,20.19-25.86,22.9-8.87,1.82-16.92-4.12-27.53-6.05-4.38-.8-8.8-1.21-12.99-1.66-8.51-.9-16.2-1.89-21.14-6.39-7.38-6.73-10.89-15.53-8.67-26.33Z"/>
            <path class="cls-7" d="m162.32,204.43c4.47-21.56,30.22-42.82,56.7-38,2.39.44,4.69,1.06,6.92,1.88-21.04-2.99-32.66,7.56-43.99,28.65-11.33,21.09,8.07,39.95,11.45,39.41l-1.27.78c-8.51-.9-16.2-1.89-21.14-6.39-7.38-6.73-10.89-15.53-8.67-26.33Z"/>
            <path class="cls-5" d="m211.71,201.86c7.22,13.89,31.84,16.19,38.2,7.6,5.05-6.82-.48-21.81-10.49-28.9-5.12-3.62-16.32-8.66-24.13-2.72-7.19,5.46-7.23,16.98-3.57,24.02Z"/>
            <g class="cls-4">
              <path class="cls-2" d="m230.93,186.66c-1.6-2.24-.22-5.18,2.49-5.73.6-.12,1.18-.2,1.79-.16.64.04,1.32.34,1.91.59.9.39,1.8.8,2.56,1.41,0,0-.02-.02-.03-.03.02.02.05.04.07.05h0c.42.39.93.7,1.38,1.06.43.34.88.71,1.22,1.14.21.26.36.55.5.85.68.71,1.32,1.45,1.89,2.24.41.57.77,1.14,1.11,1.76.35.64.54,1.28.69,1.99.21.98-.52,2.08-1.34,2.55-.96.56-1.93.42-2.84-.11-.86-.5-1.53-1.2-2.29-1.83-.55-.45-1.13-.87-1.72-1.27-.64-.15-1.08-.4-1.71-.78-.2-.12-.4-.24-.61-.36-.16-.08-.32-.18-.49-.23.05.01.1.03.15.04-.51-.16-.96-.39-1.49-.7-.11-.06-.22-.13-.33-.19-.37-.19-.74-.38-1.1-.58-.79-.43-1.31-1.01-1.82-1.72Z"/>
              <path class="cls-2" d="m250.86,206.5c-.23-.2-.44-.43-.62-.72-.14-.23-.29-.45-.44-.68-.42-.62-.81-1.23-1.09-1.93-.42-1.02.07-2.23,1.03-2.79.94-.55,2.26-.39,2.9.51.27.39.54.77.74,1.21.11.25.21.5.32.74.25.59.55,1.13.65,1.74.31.75.62,1.49.94,2.24.32.77-.05,1.69-.78,2.12-.71.41-1.72.3-2.2-.39-.48-.69-.95-1.37-1.43-2.06Z"/>
            </g>
          </g>
          <g>
            <path class="cls-6" d="m229.09,234.55c-3.7-21.71,12.51-50.9,38.93-56.06,2.38-.46,4.75-.72,7.13-.78t.04,0c23.93-.63,46.47,18.32,49.85,38.06,2.23,13-4.38,23.4-15.72,30.76-7.59,4.93-17.26,2.34-27.84,4.41-4.37.86-8.63,2.08-12.7,3.2-8.25,2.27-15.77,4.15-22.01,1.77-9.33-3.57-15.81-10.49-17.68-21.35Z"/>
            <path class="cls-7" d="m229.09,234.55c-3.7-21.71,12.51-50.9,38.93-56.06,2.38-.46,4.75-.72,7.13-.78-20.68,4.89-27.65,18.96-30.51,42.72-2.86,23.77,22.09,34.25,25.04,32.52l-.9,1.19c-8.25,2.27-15.77,4.15-22.01,1.77-9.33-3.57-15.81-10.49-17.68-21.35Z"/>
            <path class="cls-5" d="m274.13,214.14c11.79,10.3,35.56,3.46,38.34-6.86,2.21-8.2-8.4-20.13-20.31-23.08-6.09-1.51-18.36-2.11-23.46,6.27-4.7,7.71-.54,18.45,5.44,23.67Z"/>
            <g class="cls-4">
              <path class="cls-2" d="m286.49,192.97c-2.3-1.5-2.1-4.75.23-6.24.51-.33,1.03-.61,1.61-.8.61-.19,1.35-.17,1.99-.14.98.03,1.97.09,2.89.38-.01,0-.02,0-.03-.01.03.01.06.02.08.03h0c.54.2,1.12.31,1.67.48.52.16,1.08.34,1.55.61.29.17.54.38.78.61.89.41,1.75.87,2.58,1.4.59.38,1.13.78,1.68,1.23.56.47.97,1,1.37,1.61.55.83.28,2.12-.31,2.86-.69.87-1.65,1.09-2.68.93-.98-.15-1.87-.56-2.8-.87-.68-.22-1.37-.4-2.07-.55-.65.09-1.16.02-1.88-.11-.23-.04-.46-.07-.69-.11-.18-.02-.36-.05-.54-.04.05,0,.11-.01.16-.02-.53.03-1.03-.01-1.64-.11-.13-.02-.25-.04-.38-.06-.41-.04-.83-.08-1.24-.14-.89-.12-1.59-.46-2.32-.94Z"/>
              <path class="cls-2" d="m312.28,204.18c-.29-.1-.56-.24-.84-.44-.22-.16-.44-.32-.66-.47-.62-.42-1.2-.85-1.72-1.4-.77-.8-.75-2.1-.06-2.97.68-.85,1.96-1.19,2.88-.58.4.26.79.52,1.13.86.19.19.38.38.57.58.45.45.93.85,1.24,1.38.56.58,1.12,1.16,1.69,1.74.58.6.57,1.6.05,2.25-.51.64-1.49.91-2.19.44-.69-.46-1.39-.93-2.08-1.39Z"/>
            </g>
          </g>
          <g>
            <path class="cls-6" d="m129.84,266.13c-3.7-21.71,12.51-50.9,38.93-56.06,2.38-.46,4.75-.72,7.13-.78t.04,0c23.93-.63,46.47,18.32,49.85,38.06,2.23,13-4.38,23.4-15.72,30.76-7.59,4.93-17.26,2.34-27.84,4.41-4.37.86-8.63,2.08-12.7,3.2-8.25,2.27-15.77,4.15-22.01,1.77-9.33-3.57-15.81-10.49-17.68-21.35Z"/>
            <path class="cls-7" d="m129.84,266.13c-3.7-21.71,12.51-50.9,38.93-56.06,2.38-.46,4.75-.72,7.13-.78-20.68,4.89-27.65,18.96-30.51,42.72-2.86,23.77,22.09,34.25,25.04,32.52l-.9,1.19c-8.25,2.27-15.77,4.15-22.01,1.77-9.33-3.57-15.81-10.49-17.68-21.35Z"/>
            <path class="cls-5" d="m174.88,245.71c11.79,10.3,35.56,3.46,38.34-6.86,2.21-8.2-8.4-20.13-20.31-23.08-6.09-1.51-18.36-2.11-23.46,6.27-4.7,7.71-.54,18.45,5.44,23.67Z"/>
            <g class="cls-4">
              <path class="cls-2" d="m187.24,224.55c-2.3-1.5-2.1-4.75.23-6.24.51-.33,1.03-.61,1.61-.8.61-.19,1.35-.17,1.99-.14.98.03,1.97.09,2.89.38-.01,0-.02,0-.03-.01.03.01.06.02.08.03h0c.54.2,1.12.31,1.67.48.52.16,1.08.34,1.55.61.29.17.54.38.78.61.89.41,1.75.87,2.58,1.4.59.38,1.13.78,1.68,1.23.56.47.97,1,1.37,1.61.55.83.28,2.12-.31,2.86-.69.87-1.65,1.09-2.68.93-.98-.15-1.87-.56-2.8-.87-.68-.22-1.37-.4-2.07-.55-.65.09-1.16.02-1.88-.11-.23-.04-.46-.07-.69-.11-.18-.02-.36-.05-.54-.04.05,0,.11-.01.16-.02-.53.03-1.03-.01-1.64-.11-.13-.02-.25-.04-.38-.06-.41-.04-.83-.08-1.24-.14-.89-.12-1.59-.46-2.32-.94Z"/>
              <path class="cls-2" d="m213.03,235.75c-.29-.1-.56-.24-.84-.44-.22-.16-.44-.32-.66-.47-.62-.42-1.2-.85-1.72-1.4-.77-.8-.75-2.1-.06-2.97.68-.85,1.96-1.19,2.88-.58.4.26.79.52,1.13.86.19.19.38.38.57.58.45.45.93.85,1.24,1.38.56.58,1.12,1.16,1.69,1.74.58.6.57,1.6.05,2.25-.51.64-1.49.91-2.19.44-.69-.46-1.39-.93-2.08-1.39Z"/>
            </g>
          </g>
          <g>
            <path class="cls-6" d="m289.92,255.74c-1.2-21.99,18.24-49.13,45.08-51.25,2.42-.19,4.81-.18,7.17.04t.04,0c23.84,2.1,44.08,23.51,45.17,43.51.73,13.17-7.02,22.75-19.13,28.76-8.1,4.03-17.41.35-28.16,1.2-4.44.35-8.81,1.08-12.98,1.72-8.45,1.31-16.14,2.32-22.07-.76-8.86-4.61-14.51-12.23-15.12-23.23Z"/>
            <path class="cls-7" d="m289.92,255.74c-1.2-21.99,18.24-49.13,45.08-51.25,2.42-.19,4.81-.18,7.17.04-21.1,2.49-29.64,15.67-35.19,38.96-5.55,23.28,18.03,36.55,21.16,35.16l-1.03,1.08c-8.45,1.31-16.14,2.32-22.07-.76-8.86-4.61-14.51-12.23-15.12-23.23Z"/>
            <path class="cls-5" d="m337,240.6c10.53,11.58,34.93,7.5,38.87-2.43,3.13-7.89-6.05-20.96-17.54-25.25-5.88-2.19-17.99-4.19-24.03,3.55-5.55,7.12-2.64,18.27,2.7,24.14Z"/>
            <g class="cls-4">
              <path class="cls-2" d="m351.69,220.99c-2.12-1.75-1.54-4.96.94-6.17.55-.27,1.09-.49,1.69-.61.63-.12,1.36-.01,2,.08.97.15,1.95.31,2.83.7-.01,0-.02-.01-.03-.02.03.01.05.02.08.04h0c.51.26,1.08.44,1.61.67.5.22,1.03.46,1.47.79.27.2.49.44.7.69.84.51,1.64,1.06,2.4,1.68.55.44,1.04.9,1.52,1.41.5.53.85,1.1,1.18,1.75.45.89.03,2.14-.64,2.81-.79.79-1.76.9-2.77.62-.96-.26-1.79-.77-2.69-1.18-.65-.3-1.32-.55-1.99-.78-.65.01-1.15-.11-1.85-.32-.22-.07-.45-.12-.68-.19-.18-.04-.35-.09-.53-.1.05,0,.11,0,.16,0-.54-.03-1.03-.13-1.62-.3-.12-.03-.25-.07-.37-.1-.41-.09-.81-.18-1.21-.28-.87-.22-1.53-.64-2.2-1.2Z"/>
              <path class="cls-2" d="m376.04,235.07c-.28-.13-.53-.31-.78-.53-.2-.18-.4-.36-.6-.54-.57-.49-1.1-.99-1.55-1.59-.67-.88-.51-2.17.28-2.96.77-.77,2.09-.96,2.93-.25.36.31.72.61,1.02.98.17.21.33.43.5.64.39.5.82.95,1.07,1.52.49.64.98,1.28,1.48,1.92.51.67.38,1.65-.21,2.24-.58.58-1.59.73-2.23.19-.64-.54-1.27-1.08-1.91-1.62Z"/>
            </g>
          </g>
        </g>
        <g>
          <g>
            <path class="cls-6" d="m313.8,279.8c4.47-21.56,30.22-42.82,56.7-38,2.39.44,4.69,1.06,6.92,1.88t.04.01c22.51,8.14,36.59,34.01,32.52,53.62-2.67,12.92-12.61,20.19-25.86,22.9-8.87,1.82-16.92-4.12-27.53-6.05-4.38-.8-8.8-1.21-12.99-1.66-8.51-.9-16.2-1.89-21.14-6.39-7.38-6.73-10.89-15.53-8.67-26.33Z"/>
            <path class="cls-7" d="m313.8,279.8c4.47-21.56,30.22-42.82,56.7-38,2.39.44,4.69,1.06,6.92,1.88-21.04-2.99-32.66,7.56-43.99,28.65-11.33,21.09,8.07,39.95,11.45,39.41l-1.27.78c-8.51-.9-16.2-1.89-21.14-6.39-7.38-6.73-10.89-15.53-8.67-26.33Z"/>
            <path class="cls-5" d="m363.19,277.22c7.22,13.89,31.84,16.19,38.2,7.6,5.05-6.82-.48-21.81-10.49-28.9-5.12-3.62-16.32-8.66-24.13-2.72-7.19,5.46-7.23,16.98-3.57,24.02Z"/>
            <g class="cls-4">
              <path class="cls-2" d="m382.41,262.02c-1.6-2.24-.22-5.18,2.49-5.73.6-.12,1.18-.2,1.79-.16.64.04,1.32.34,1.91.59.9.39,1.8.8,2.56,1.41,0,0-.02-.02-.03-.03.02.02.05.04.07.05h0c.42.39.93.7,1.38,1.06.43.34.88.71,1.22,1.14.21.26.36.55.5.85.68.71,1.32,1.45,1.89,2.24.41.57.77,1.14,1.11,1.76.35.64.54,1.28.69,1.99.21.98-.52,2.08-1.34,2.55-.96.56-1.93.42-2.84-.11-.86-.5-1.53-1.2-2.29-1.83-.55-.45-1.13-.87-1.72-1.27-.64-.15-1.08-.4-1.71-.78-.2-.12-.4-.24-.61-.36-.16-.08-.32-.18-.49-.23.05.01.1.03.15.04-.51-.16-.96-.39-1.49-.7-.11-.06-.22-.13-.33-.19-.37-.19-.74-.38-1.1-.58-.79-.43-1.31-1.01-1.82-1.72Z"/>
              <path class="cls-2" d="m402.34,281.87c-.23-.2-.44-.43-.62-.72-.14-.23-.29-.45-.44-.68-.42-.62-.81-1.23-1.09-1.93-.42-1.02.07-2.23,1.03-2.79.94-.55,2.26-.39,2.9.51.27.39.54.77.74,1.21.11.25.21.5.32.74.25.59.55,1.13.65,1.74.31.75.62,1.49.94,2.24.32.77-.05,1.69-.78,2.12-.71.41-1.72.3-2.2-.39-.48-.69-.95-1.37-1.43-2.06Z"/>
            </g>
          </g>
          <g>
            <path class="cls-6" d="m212.33,262.09c8.31-20.39,37.48-36.63,62.65-27.08,2.27.86,4.42,1.89,6.47,3.11t.03.02c20.66,12.09,29.81,40.09,22.26,58.63-4.97,12.22-16.07,17.57-29.59,17.83-9.05.18-15.89-7.12-25.98-10.94-4.16-1.58-8.43-2.79-12.47-3.99-8.21-2.42-15.59-4.8-19.63-10.11-6.04-7.95-7.9-17.25-3.75-27.47Z"/>
            <path class="cls-7" d="m212.33,262.09c8.31-20.39,37.48-36.63,62.65-27.08,2.27.86,4.42,1.89,6.47,3.11-20.14-6.76-33.49,1.51-48.46,20.19-14.97,18.68.69,40.75,4.11,40.83l-1.39.53c-8.21-2.42-15.59-4.8-19.63-10.11-6.04-7.95-7.9-17.25-3.75-27.47Z"/>
            <path class="cls-5" d="m261.36,268.52c4.58,14.97,28.38,21.7,36.19,14.4,6.2-5.8,3.49-21.54-5.07-30.32-4.38-4.49-14.48-11.47-23.24-7.06-8.07,4.07-10.19,15.39-7.87,22.98Z"/>
            <g class="cls-4">
              <path class="cls-2" d="m283.02,257.06c-1.16-2.49.72-5.14,3.48-5.18.61,0,1.2.02,1.79.17.62.16,1.24.57,1.77.93.81.54,1.63,1.11,2.26,1.85,0,0-.01-.02-.02-.03.02.02.04.04.06.07h0c.35.46.79.86,1.17,1.29.36.42.73.86.99,1.34.16.29.25.61.34.93.54.82,1.03,1.66,1.46,2.55.3.63.55,1.26.77,1.93.23.69.29,1.35.32,2.09.03,1-.89,1.95-1.78,2.27-1.05.38-1.98.06-2.77-.62-.75-.65-1.29-1.46-1.92-2.22-.46-.55-.96-1.06-1.47-1.56-.6-.27-.99-.59-1.54-1.08-.17-.16-.35-.31-.53-.46-.14-.11-.28-.23-.44-.32.05.02.1.04.15.07-.47-.25-.87-.56-1.34-.96-.1-.08-.19-.17-.29-.25-.33-.26-.66-.51-.98-.77-.69-.57-1.11-1.23-1.48-2.02Z"/>
              <path class="cls-2" d="m299.02,280.18c-.19-.24-.35-.5-.48-.82-.1-.25-.2-.5-.31-.74-.3-.68-.57-1.36-.72-2.1-.23-1.08.47-2.18,1.51-2.55,1.02-.37,2.3.02,2.76,1.03.2.43.39.86.51,1.32.06.26.12.53.18.79.14.62.34,1.21.32,1.83.17.79.34,1.58.51,2.37.18.82-.36,1.66-1.15,1.94-.78.28-1.75-.02-2.09-.78-.34-.76-.69-1.52-1.03-2.28Z"/>
            </g>
          </g>
          <g>
            <path class="cls-6" d="m143.28,313.48c-3.7-21.71,12.51-50.9,38.93-56.06,2.38-.46,4.75-.72,7.13-.78t.04,0c23.93-.63,46.47,18.32,49.85,38.06,2.23,13-4.38,23.4-15.72,30.76-7.59,4.93-17.26,2.34-27.84,4.41-4.37.86-8.63,2.08-12.7,3.2-8.25,2.27-15.77,4.15-22.01,1.77-9.33-3.57-15.81-10.49-17.68-21.35Z"/>
            <path class="cls-7" d="m143.28,313.48c-3.7-21.71,12.51-50.9,38.93-56.06,2.38-.46,4.75-.72,7.13-.78-20.68,4.89-27.65,18.96-30.51,42.72-2.86,23.77,22.09,34.25,25.04,32.52l-.9,1.19c-8.25,2.27-15.77,4.15-22.01,1.77-9.33-3.57-15.81-10.49-17.68-21.35Z"/>
            <path class="cls-5" d="m188.32,293.06c11.79,10.3,35.56,3.46,38.34-6.86,2.21-8.2-8.4-20.13-20.31-23.08-6.09-1.51-18.36-2.11-23.46,6.27-4.7,7.71-.54,18.45,5.44,23.67Z"/>
            <g class="cls-4">
              <path class="cls-2" d="m200.68,271.9c-2.3-1.5-2.1-4.75.23-6.24.51-.33,1.03-.61,1.61-.8.61-.19,1.35-.17,1.99-.14.98.03,1.97.09,2.89.38-.01,0-.02,0-.03-.01.03.01.06.02.08.03h0c.54.2,1.12.31,1.67.48.52.16,1.08.34,1.55.61.29.17.54.38.78.61.89.41,1.75.87,2.58,1.4.59.38,1.13.78,1.68,1.23.56.47.97,1,1.37,1.61.55.83.28,2.12-.31,2.86-.69.87-1.65,1.09-2.68.93-.98-.15-1.87-.56-2.8-.87-.68-.22-1.37-.4-2.07-.55-.65.09-1.16.02-1.88-.11-.23-.04-.46-.07-.69-.11-.18-.02-.36-.05-.54-.04.05,0,.11-.01.16-.02-.53.03-1.03-.01-1.64-.11-.13-.02-.25-.04-.38-.06-.41-.04-.83-.08-1.24-.14-.89-.12-1.59-.46-2.32-.94Z"/>
              <path class="cls-2" d="m226.47,283.1c-.29-.1-.56-.24-.84-.44-.22-.16-.44-.32-.66-.47-.62-.42-1.2-.85-1.72-1.4-.77-.8-.75-2.1-.06-2.97.68-.85,1.96-1.19,2.88-.58.4.26.79.52,1.13.86.19.19.38.38.57.58.45.45.93.85,1.24,1.38.56.58,1.12,1.16,1.69,1.74.58.6.57,1.6.05,2.25-.51.64-1.49.91-2.19.44-.69-.46-1.39-.93-2.08-1.39Z"/>
            </g>
          </g>
          <g>
            <path class="cls-6" d="m273.21,325.02c-3.7-21.71,12.51-50.9,38.93-56.06,2.38-.46,4.75-.72,7.13-.78t.04,0c23.93-.63,46.47,18.32,49.85,38.06,2.23,13-4.38,23.4-15.72,30.76-7.59,4.93-17.26,2.34-27.84,4.41-4.37.86-8.63,2.08-12.7,3.2-8.25,2.27-15.77,4.15-22.01,1.77-9.33-3.57-15.81-10.49-17.68-21.35Z"/>
            <path class="cls-7" d="m273.21,325.02c-3.7-21.71,12.51-50.9,38.93-56.06,2.38-.46,4.75-.72,7.13-.78-20.68,4.89-27.65,18.96-30.51,42.72-2.86,23.77,22.09,34.25,25.04,32.52l-.9,1.19c-8.25,2.27-15.77,4.15-22.01,1.77-9.33-3.57-15.81-10.49-17.68-21.35Z"/>
            <path class="cls-5" d="m318.25,304.6c11.79,10.3,35.56,3.46,38.34-6.86,2.21-8.2-8.4-20.13-20.31-23.08-6.09-1.51-18.36-2.11-23.46,6.27-4.7,7.71-.54,18.45,5.44,23.67Z"/>
            <g class="cls-4">
              <path class="cls-2" d="m330.6,283.44c-2.3-1.5-2.1-4.75.23-6.24.51-.33,1.03-.61,1.61-.8.61-.19,1.35-.17,1.99-.14.98.03,1.97.09,2.89.38-.01,0-.02,0-.03-.01.03.01.06.02.08.03h0c.54.2,1.12.31,1.67.48.52.16,1.08.34,1.55.61.29.17.54.38.78.61.89.41,1.75.87,2.58,1.4.59.38,1.13.78,1.68,1.23.56.47.97,1,1.37,1.61.55.83.28,2.12-.31,2.86-.69.87-1.65,1.09-2.68.93-.98-.15-1.87-.56-2.8-.87-.68-.22-1.37-.4-2.07-.55-.65.09-1.16.02-1.88-.11-.23-.04-.46-.07-.69-.11-.18-.02-.36-.05-.54-.04.05,0,.11-.01.16-.02-.53.03-1.03-.01-1.64-.11-.13-.02-.25-.04-.38-.06-.41-.04-.83-.08-1.24-.14-.89-.12-1.59-.46-2.32-.94Z"/>
              <path class="cls-2" d="m356.4,294.64c-.29-.1-.56-.24-.84-.44-.22-.16-.44-.32-.66-.47-.62-.42-1.2-.85-1.72-1.4-.77-.8-.75-2.1-.06-2.97.68-.85,1.96-1.19,2.88-.58.4.26.79.52,1.13.86.19.19.38.38.57.58.45.45.93.85,1.24,1.38.56.58,1.12,1.16,1.69,1.74.58.6.57,1.6.05,2.25-.51.64-1.49.91-2.19.44-.69-.46-1.39-.93-2.08-1.39Z"/>
            </g>
          </g>
          <g>
            <path class="cls-6" d="m194.25,349c-1.2-21.99,18.24-49.13,45.08-51.25,2.42-.19,4.81-.18,7.17.04t.04,0c23.84,2.1,44.08,23.51,45.17,43.51.73,13.17-7.02,22.75-19.13,28.76-8.1,4.03-17.41.35-28.16,1.2-4.44.35-8.81,1.08-12.98,1.72-8.45,1.31-16.14,2.32-22.07-.76-8.86-4.61-14.51-12.23-15.12-23.23Z"/>
            <path class="cls-7" d="m194.25,349c-1.2-21.99,18.24-49.13,45.08-51.25,2.42-.19,4.81-.18,7.17.04-21.1,2.49-29.64,15.67-35.19,38.96-5.55,23.28,18.03,36.55,21.16,35.16l-1.03,1.08c-8.45,1.31-16.14,2.32-22.07-.76-8.86-4.61-14.51-12.23-15.12-23.23Z"/>
            <path class="cls-5" d="m241.33,333.86c10.53,11.58,34.93,7.5,38.87-2.43,3.13-7.89-6.05-20.96-17.54-25.25-5.88-2.19-17.99-4.19-24.03,3.55-5.55,7.12-2.64,18.27,2.7,24.14Z"/>
            <g class="cls-4">
              <path class="cls-2" d="m256.02,314.25c-2.12-1.75-1.54-4.96.94-6.17.55-.27,1.09-.49,1.69-.61.63-.12,1.36-.01,2,.08.97.15,1.95.31,2.83.7-.01,0-.02-.01-.03-.02.03.01.05.02.08.04h0c.51.26,1.08.44,1.61.67.5.22,1.03.46,1.47.79.27.2.49.44.7.69.84.51,1.64,1.06,2.4,1.68.55.44,1.04.9,1.52,1.41.5.53.85,1.1,1.18,1.75.45.89.03,2.14-.64,2.81-.79.79-1.76.9-2.77.62-.96-.26-1.79-.77-2.69-1.18-.65-.3-1.32-.55-1.99-.78-.65.01-1.15-.11-1.85-.32-.22-.07-.45-.12-.68-.19-.18-.04-.35-.09-.53-.1.05,0,.11,0,.16,0-.54-.03-1.03-.13-1.62-.3-.12-.03-.25-.07-.37-.1-.41-.09-.81-.18-1.21-.28-.87-.22-1.53-.64-2.2-1.2Z"/>
              <path class="cls-2" d="m280.37,328.32c-.28-.13-.53-.31-.78-.53-.2-.18-.4-.36-.6-.54-.57-.49-1.1-.99-1.55-1.59-.67-.88-.51-2.17.28-2.96.77-.77,2.09-.96,2.93-.25.36.31.72.61,1.02.98.17.21.33.43.5.64.39.5.82.95,1.07,1.52.49.64.98,1.28,1.48,1.92.51.67.38,1.65-.21,2.24-.58.58-1.59.73-2.23.19-.64-.54-1.27-1.08-1.91-1.62Z"/>
            </g>
          </g>
        </g>
      </g>
      <g>
        <line class="cls-3" x1="508.03" y1="60.39" x2="94.61" y2="459.87"/>
        <line class="cls-3" x1="52.81" y1="46.45" x2="461.58" y2="478.45"/>
      </g>
    </g>
  </g>
</svg>