<?xml version="1.0" encoding="UTF-8"?>
<svg xmlns="http://www.w3.org/2000/svg" xmlns:xlink="http://www.w3.org/1999/xlink" viewBox="0 0 540 540">
  <defs>
    <style>
      .cls-1 {
        fill: #fff;
      }

      .cls-2 {
        isolation: isolate;
      }

      .cls-3 {
        fill: none;
        stroke: #ea5959;
        stroke-miterlimit: 10;
        stroke-width: 37px;
      }

      .cls-4 {
        fill: #65aa81;
      }

      .cls-5 {
        fill: #f7b87f;
      }

      .cls-6 {
        fill: #4f4f4e;
        mix-blend-mode: overlay;
        opacity: .49;
      }

      .cls-7 {
        clip-path: url(#clippath);
      }

      .cls-8 {
        fill: #75ba91;
      }
    </style>
    <clipPath id="clippath">
      <path class="cls-6" d="m403.32,407.95l18.05,23.32H118.63l18.05-23.32-7.18-104.01c-1.85-26.95-1.75-54,.3-80.94l6.91-90.42h.39l-18.47-23.86h302.74l-18.47,23.86h.39l6.99,93.59c2.01,26.9,2.06,53.9.17,80.8l-7.13,100.98Z"/>
    </clipPath>
  </defs>
  <g class="cls-2">
    <g id="_Layer_" data-name="&amp;lt;Layer&amp;gt;">
      <g>
        <g>
          <g>
            <polygon class="cls-8" points="402.37 133.28 137.63 133.28 118.63 108.72 421.37 108.72 402.37 133.28"/>
            <polygon class="cls-8" points="137.63 406.72 402.37 406.72 421.37 431.28 118.63 431.28 137.63 406.72"/>
            <path class="cls-4" d="m403.29,408.45H136.71l-7.21-104.5c-1.86-26.95-1.76-54.01.3-80.95l6.91-90.42h266.58l6.99,93.59c2.01,26.89,2.06,53.9.17,80.8l-7.15,101.47Z"/>
          </g>
          <path class="cls-8" d="m388.1,390.15h-236.2l-6.39-92.59c-1.65-23.88-1.56-47.85.27-71.72l5.29-69.27,237.03-10.84,6.19,82.93c1.78,23.83,1.83,47.76.15,71.59l-6.34,89.91Z"/>
          <g>
            <path class="cls-6" d="m403.32,407.95l18.05,23.32H118.63l18.05-23.32-7.18-104.01c-1.85-26.95-1.75-54,.3-80.94l6.91-90.42h.39l-18.47-23.86h302.74l-18.47,23.86h.39l6.99,93.59c2.01,26.9,2.06,53.9.17,80.8l-7.13,100.98Z"/>
            <g class="cls-7">
              <path class="cls-6" d="m355.29,406.12c-36.17-.52-72.85-1.34-110.04-2.48-39.26-1.21-77.93-2.75-116.01-4.58-1.1,5.37-3.88,15.32-11.64,25.18-6.25,7.93-13.19,12.59-17.67,15.11,112.25-.28,232.64,4.08,344.89,3.8-9.35-11.91-18.71-23.81-28.06-35.72,6.8-103.18,13.61-206.36,20.41-309.54-110.83,1.13-221.67,2.27-332.5,3.4,8.45,12.5,16.9,25,25.35,37.51,37.9.85,77.38.92,118.3,0,39.41-.88,77.42-2.62,113.95-5.01,8.97,34.12,17.86,82.93,15.75,141.69-1.94,53.96-12.51,98.59-22.71,130.65Z"/>
            </g>
          </g>
          <circle class="cls-5" cx="270" cy="255.32" r="75.97"/>
        </g>
        <g>
          <path class="cls-1" d="m187.99,254.84c.2.92.06,1.8-.43,2.64-.49.84-1.19,1.46-2.09,1.86-.9.41-1.84.65-2.81.74-.98.09-1.89-.16-2.74-.74-.85-.58-1.44-1.45-1.77-2.59-.44-1.52-1.11-3.59-1.98-6.18-.86-2.59-1.52-4.61-1.96-6.06-.44-1.45-.76-3.01-.94-4.69-.19-1.67-.05-3.01.39-4.02.34-.75,1.15-1.55,2.46-2.39,1.31-.83,2.88-1.52,4.72-2.06,1.84-.54,3.73-.89,5.67-1.06,1.94-.17,3.82.03,5.63.59,1.81.56,3.23,1.5,4.27,2.78.94,1.17,1.59,2.39,1.94,3.64.36,1.26.44,2.42.26,3.51-.18,1.08-.49,2.06-.92,2.93-.43.87-.96,1.66-1.59,2.36-.96,1.02-2.18,1.89-3.65,2.63-1.47.74-2.7,1.27-3.69,1.58-.99.32-1.5.51-1.52.57,0,.33.24,1.67.74,3.95Zm-3.93-16.72c-.39.7-.36,1.79.1,3.27.46,1.48.87,2.29,1.24,2.43.28.05.51.07.68.08.17,0,.44-.08.8-.26.37-.18.81-.5,1.32-.93.53-.45.8-.96.76-1.52-.04-.56-.37-1.3-1.01-2.21-.3-.43-.62-.77-.97-1.02-.34-.24-.67-.39-.97-.45-.31-.06-.59-.06-.85-.02-.27.05-.49.13-.67.25-.18.12-.32.25-.43.39Z"/>
          <path class="cls-1" d="m220.67,251.89c-1.31.6-2.81,1.12-4.45,1.59-1.64.47-3.33.84-5.08,1.1-1.75.26-3.37.23-4.85-.09-1.49-.32-2.55-.98-3.19-1.99-.81-1.28-1.53-3.06-2.11-5.33-.59-2.27-1-4.54-1.22-6.8-.22-2.26-.34-4.34-.37-6.25-.03-1.91.03-3.31.19-4.14.12-.59.51-1.14,1.13-1.63.62-.48,1.36-.81,2.21-.98.85-.17,1.71-.23,2.56-.16.85.06,1.62.34,2.3.82.68.48,1.13,1.12,1.35,1.9.32,1.15.59,3.18.82,6.06.23,2.88.4,5.23.49,7.06.09,1.82.3,3.09.61,3.81.15.14.42.18.8.12.38-.06.85-.19,1.41-.38.56-.19,1.15-.4,1.77-.61.62-.21,1.33-.43,2.13-.66.8-.22,1.55-.35,2.21-.43.91-.11,1.75.07,2.47.59.72.52,1.19,1.16,1.43,1.91.24.75.15,1.55-.27,2.41-.42.86-1.21,1.57-2.34,2.09Z"/>
          <path class="cls-1" d="m249.58,245.6c.05,1-.22,1.88-.83,2.65-.61.77-1.37,1.29-2.28,1.56-.92.28-1.86.4-2.82.37-.97-.03-1.83-.32-2.59-.88-.76-.56-1.21-1.33-1.4-2.25-.05-.24-.12-.63-.22-1.16-.09-.54-.17-.98-.23-1.33-.06-.35-.15-.76-.27-1.24-.12-.48-.25-.88-.39-1.19-.14-.31-.31-.62-.52-.91-.2-.29-.45-.51-.74-.63-.29-.12-.63-.19-1.02-.18-.58.02-1.05.32-1.38.88-.34.56-.56,1.2-.67,1.92-.11.72-.27,1.63-.46,2.74-.2,1.11-.44,2.03-.71,2.76-.33.87-.88,1.6-1.64,2.17-.77.57-1.59.93-2.48,1.07-.89.14-1.76.15-2.62.04-.86-.12-1.59-.41-2.19-.88-.6-.47-.95-1.05-1.04-1.75-.11-.86-.04-1.84.21-2.95.25-1.11.58-2.36,1-3.77.42-1.4.73-2.63.89-3.65.1-.63.15-1.6.18-2.88.03-1.28.07-2.44.12-3.47.05-1.03.24-2.17.59-3.44.35-1.27.85-2.34,1.5-3.23.65-.89,1.65-1.69,3-2.39,1.34-.71,3-1.12,4.93-1.28,1.68-.14,3.27.17,4.7.96,1.44.79,2.65,1.89,3.64,3.3.99,1.41,1.86,2.97,2.61,4.66.75,1.69,1.34,3.47,1.78,5.33.43,1.86.75,3.54.97,5.03.21,1.49.35,2.83.41,4.02Zm-12.03-10.31c.08-.47,0-1.51-.36-3.03-.36-1.52-.78-2.31-1.26-2.38-.27-.03-.52.45-.75,1.43-.23.99-.34,1.93-.34,2.82,0,.9.12,1.52.33,1.68.27.2.82.23,1.42.14.6-.09.9-.35.96-.67Z"/>
          <path class="cls-1" d="m272.97,247.73c-.74.83-1.69,1.39-2.88,1.67-1.18.28-2.39.21-3.65-.23-1.25-.43-2.27-1.22-3.05-2.37-.2-.32-.61-.99-1.26-2.01-.64-1.01-1.13-1.73-1.44-2.16-.32-.43-.49-.51-.51-.27-.03.32,0,.97.05,1.93.06.96.1,1.61.1,1.93,0,.69-.17,1.32-.47,1.86-.3.54-.72.93-1.25,1.19-.53.26-1.11.46-1.73.59-.63.13-1.26.13-1.89,0-.64-.14-1.24-.34-1.8-.61-.57-.27-1.04-.66-1.41-1.17-.38-.51-.61-1.09-.71-1.73-.5-3.61-.8-7.74-.88-12.4-.08-4.66.22-7.81.88-9.44.36-.94,1.15-1.6,2.37-1.98,1.22-.38,2.45-.48,3.68-.32,1.23.16,2.12.47,2.67.92.76.63,1.49,1.86,2.18,3.69.69,1.83,1.25,3.5,1.69,5.01.44,1.51.74,2.28.9,2.3.13-.08.19-.28.16-.59-.02-.31-.07-.85-.15-1.6-.08-.76-.16-1.52-.26-2.29-.09-.77-.12-1.66-.06-2.68.05-1.02.19-1.92.41-2.71.16-.54.53-1.03,1.12-1.46.59-.43,1.29-.72,2.1-.89.81-.17,1.64-.22,2.49-.15.85.07,1.63.32,2.33.74.71.42,1.21,1.01,1.51,1.74.16.38.3.78.42,1.2.11.42.18.91.21,1.47.03.55.04,1.04.06,1.46.01.42,0,.98-.05,1.68-.04.7-.07,1.25-.09,1.62-.02.38-.07.99-.15,1.83-.08.84-.14,1.42-.17,1.7-.07.83-.1,2.44-.18,4.73-.07,2.29-.2,4.03-.37,5.24-.17,1.2-.48,2.06-.93,2.57Z"/>
          <path class="cls-1" d="m284.24,229.5c-.1.02-.23.05-.38.09s-.49.11-1.01.23c-.52.12-1,.2-1.45.24-.45.04-1.01.07-1.67.1-.67.02-1.27-.07-1.74-.18-.86-.2-1.65-.73-2.17-1.74-.52-1.01-.63-2.06-.33-3.15.3-1.09,1.01-1.82,2.14-2.18,2.89-.92,10.24-.95,21.88.62,1.28.18,2.27.56,2.97,1.13.7.57,1.09,1.23,1.18,1.95.09.73.05,1.42-.1,2.09-.16.67-.41,1.28-.75,1.77-.29.41-.88.63-1.73.67-.85.04-1.7-.03-2.53-.22-.84-.18-1.69-.38-2.56-.59-.87-.21-1.37-.31-1.51-.32-.23-.01-.42,1.05-.57,3.18-.15,2.13-.32,4.64-.51,7.52-.19,2.88-.45,4.95-.79,6.2-.27,1.01-.81,1.78-1.57,2.31-.76.53-1.55.79-2.37.79-.82,0-1.61-.12-2.38-.36-.76-.24-1.33-.57-1.69-.94-.44-.45-.82-1.05-1.1-1.81-.28-.76-.46-1.51-.54-2.25-.09-.75-.14-1.68-.17-2.79-.04-1.4.1-3.63.47-6.65.37-3.02.7-4.92,1-5.69Z"/>
          <path class="cls-1" d="m325.64,249.22c-.15.99-.6,1.8-1.35,2.43-.75.63-1.6.98-2.56,1.06-.95.08-1.9.01-2.84-.21-.94-.22-1.73-.69-2.36-1.39-.63-.71-.92-1.55-.91-2.49,0-.24,0-.64.03-1.18.02-.54.03-.99.04-1.34.01-.35,0-.78-.01-1.27-.02-.49-.07-.91-.14-1.24-.07-.34-.18-.67-.32-1-.14-.33-.34-.59-.59-.77-.26-.18-.58-.31-.96-.38-.57-.1-1.09.1-1.54.58-.45.48-.8,1.06-1.05,1.74-.25.68-.59,1.54-1.01,2.59-.42,1.04-.84,1.9-1.26,2.56-.5.79-1.18,1.39-2.05,1.79-.87.4-1.75.58-2.65.54-.9-.04-1.76-.21-2.57-.5-.82-.29-1.47-.72-1.96-1.3-.49-.58-.71-1.22-.66-1.93.07-.86.33-1.81.8-2.85.47-1.04,1.05-2.2,1.74-3.48.69-1.29,1.25-2.43,1.61-3.39.22-.59.47-1.54.76-2.79.29-1.25.57-2.38.82-3.37.26-1,.68-2.08,1.28-3.25.6-1.17,1.3-2.12,2.12-2.86s1.96-1.32,3.42-1.74c1.46-.42,3.17-.49,5.08-.25,1.68.21,3.17.83,4.42,1.9,1.25,1.06,2.21,2.39,2.89,3.97.68,1.58,1.22,3.28,1.61,5.09.39,1.81.61,3.67.66,5.58.05,1.91.02,3.62-.07,5.12-.1,1.51-.23,2.85-.41,4.02Zm-9.7-12.55c.18-.45.31-1.48.27-3.04-.05-1.56-.3-2.42-.75-2.58-.26-.08-.6.33-1.03,1.25-.42.92-.73,1.82-.91,2.7-.18.88-.2,1.51-.02,1.71.22.25.76.39,1.37.42.61.03.95-.16,1.07-.46Z"/>
          <path class="cls-1" d="m337.16,251.89c-.15.83-.59,1.5-1.32,2.03-.73.53-1.57.81-2.52.85-.96.04-1.89-.06-2.81-.31-.92-.25-1.7-.74-2.34-1.47-.64-.73-.98-1.62-1.01-2.67-.07-2.5.36-6.38,1.28-11.62.92-5.24,1.72-8.46,2.33-9.65.4-.77,1.15-1.32,2.26-1.59,1.11-.27,2.22-.31,3.33-.11,1.1.2,2.1.61,3,1.22.89.61,1.35,1.34,1.37,2.17.02,1.02-.06,2.01-.23,2.95-.17.95-.46,2.23-.86,3.85-.4,1.62-.74,3.11-1.02,4.46-.3,1.46-.58,3.27-.84,5.42s-.47,3.64-.62,4.47Z"/>
          <path class="cls-1" d="m360.35,258.92c-.92.63-1.99.95-3.21.94-1.22,0-2.39-.37-3.51-1.09-1.12-.72-1.93-1.73-2.42-3.03-.12-.36-.37-1.11-.76-2.25-.39-1.14-.69-1.95-.9-2.44-.21-.49-.36-.61-.44-.39-.1.3-.24.94-.41,1.89-.17.95-.28,1.59-.36,1.9-.16.67-.48,1.25-.9,1.7-.42.45-.92.74-1.5.86-.58.13-1.19.18-1.83.16-.64-.02-1.26-.17-1.85-.46-.59-.28-1.13-.62-1.62-1.02-.49-.4-.85-.89-1.1-1.47-.25-.58-.34-1.2-.28-1.85.36-3.62,1.04-7.71,2.07-12.26s2.06-7.53,3.09-8.96c.57-.83,1.5-1.28,2.78-1.36,1.28-.08,2.51.11,3.67.56s1.96.96,2.39,1.52c.59.79,1.02,2.16,1.26,4.1.24,1.94.4,3.69.47,5.26.07,1.57.18,2.39.34,2.45.15-.05.25-.23.3-.54.05-.31.13-.84.24-1.59.1-.75.2-1.52.29-2.29.09-.77.28-1.64.57-2.62.29-.98.64-1.82,1.05-2.53.28-.49.77-.87,1.44-1.15.68-.27,1.43-.4,2.27-.36.84.03,1.66.18,2.47.45.81.27,1.52.69,2.11,1.28.59.58.95,1.26,1.06,2.05.07.41.11.83.12,1.27s-.04.93-.14,1.47c-.11.55-.2,1.02-.29,1.43-.09.41-.24.95-.44,1.63-.21.67-.37,1.19-.48,1.56-.11.36-.3.94-.57,1.74-.27.8-.48,1.34-.57,1.62-.27.79-.68,2.35-1.29,4.55-.61,2.21-1.15,3.87-1.6,5-.45,1.13-.96,1.89-1.52,2.28Z"/>
          <path class="cls-1" d="m227.17,293.75c1.55-1.13,2.91-1.16,4.04-.18.97.84,1.4,1.99,1.21,3.46-.2,1.6-1.12,2.78-2.69,3.56-1.55.78-3.13,1.35-4.73,1.64-1.6.3-3.18.32-4.75.06-1.57-.26-3.02-.81-4.35-1.65s-2.51-2.11-3.53-3.81c-1.02-1.7-1.76-3.76-2.2-6.18-.73-4-.6-7.39.45-10.19,1.05-2.8,2.8-4.78,5.21-5.93,1.68-.81,3.71-1.26,6.05-1.33,2.34-.07,4.31.34,5.88,1.17,1.42.75,2.09,2.01,2.01,3.73-.07,1.47-.61,2.55-1.59,3.22-.92.62-1.93.59-3.06-.14-1.13-.72-2.13-1.04-3-.94-.87.1-1.54.47-1.99,1.11s-.8,1.43-1.03,2.37c-.24.94-.37,1.83-.4,2.65s-.03,1.57.05,2.17c.11.84.33,1.68.6,2.48.27.79.64,1.54,1.12,2.23.48.69,1.02,1.21,1.64,1.56.62.35,1.37.44,2.25.29.88-.15,1.82-.6,2.83-1.33Z"/>
          <path class="cls-1" d="m248.85,288.08c.06.02.12.06.18.11.06.05.2.15.42.3.22.15.44.31.67.49s.48.4.78.67c.3.27.59.56.87.87.28.31.58.66.88,1.05.3.39.56.8.78,1.22.52.9.57,1.91.18,3.04-.4,1.13-1.09,2.03-2.08,2.7-.99.67-2.01.81-3.04.46-1.08-.37-2.16-1.08-3.19-2.15-1.04-1.07-1.86-2.13-2.47-3.18-.61-1.05-1.05-2.01-1.32-2.88.82,2.65,1.09,4.74.84,6.29-.15.88-.61,1.6-1.4,2.16-.79.56-1.64.89-2.55,1-.91.1-1.8-.01-2.66-.36-.86-.34-1.44-.88-1.71-1.61-.35-.91-.62-1.9-.8-2.96-.18-1.06-.27-1.99-.28-2.81s-.02-1.81-.02-2.98c0-1.17-.06-2.15-.14-2.93-.12-1.23-.38-2.86-.83-4.85-.44-1.99-.72-3.42-.82-4.28-.12-1.02.04-1.92.47-2.69.43-.77,1.02-1.39,1.75-1.85.73-.46,1.64-.83,2.74-1.1s2.16-.44,3.18-.52c1.03-.08,2.14-.11,3.33-.1,2.6.04,4.84.83,6.68,2.36,1.84,1.53,3.03,3.28,3.5,5.15.39,1.55.5,2.96.4,4.13-.1,1.17-.39,2.14-.86,2.91-.47.77-1.01,1.35-1.61,1.74-.6.39-1.23.59-1.88.6Zm-4.6-5.54c.34-1.34-.17-2.62-1.52-3.79-.82-.69-1.46-.64-1.92.16-.08.12-.12.3-.13.54,0,.25,0,.5.02.75s.06.56.1.91c.04.35.09.64.14.86s.1.49.15.78c.05.29.08.47.09.52.09.43.35.74.75.93.41.2.84.16,1.31-.11.47-.27.81-.79,1-1.57Z"/>
          <path class="cls-1" d="m264.29,294.56c.01.84-.24,1.59-.76,2.25-.52.66-1.18,1.1-1.99,1.33-.8.22-1.61.3-2.44.24-.82-.07-1.57-.4-2.24-.99-.67-.6-1.12-1.4-1.33-2.42-.5-2.44-.83-6.32-.97-11.64-.15-5.32-.04-8.63.27-9.91.2-.84.75-1.52,1.65-2,.9-.48,1.85-.73,2.83-.75s1.91.19,2.78.62c.87.43,1.39,1.05,1.55,1.86.2,1,.3,1.98.32,2.94.02.96,0,2.27-.06,3.94-.06,1.67-.09,3.19-.09,4.57,0,1.49.08,3.32.23,5.48.15,2.16.23,3.67.25,4.5Z"/>
          <path class="cls-1" d="m266.73,281.41c-.13-1.46-.04-2.82.27-4.06.31-1.25.76-2.3,1.36-3.16.6-.86,1.31-1.59,2.14-2.22.83-.62,1.66-1.09,2.48-1.41.82-.32,1.63-.53,2.4-.66.68-.12,1.4-.16,2.13-.1.73.06,1.32.12,1.76.18.44.07.91.2,1.4.41.48.2.85.37,1.1.5.25.13.55.3.9.5,1.63.98,2.22,2.38,1.78,4.18-.32,1.31-1.01,2.29-2.04,2.85-.81.44-1.58.41-2.27-.08-1.48-1.02-2.7-1.39-3.64-1.12-.94.27-1.38,1.13-1.26,2.52.04.51.29.92.72,1.23s.99.55,1.69.75c.7.19,1.44.39,2.21.61.77.21,1.61.58,2.5,1.12.9.53,1.69,1.2,2.36,1.99,1.08,1.32,1.68,2.78,1.81,4.35.13,1.58-.14,3.02-.8,4.31-.66,1.3-1.64,2.4-2.95,3.33-1.3.92-2.76,1.42-4.37,1.52-1.72.11-3.33.06-4.81-.17-1.49-.23-2.72-.6-3.71-1.1-.99-.5-1.77-.96-2.35-1.37-.58-.42-1.06-.82-1.42-1.22-.42-.47-.69-1.09-.81-1.82s-.08-1.43.12-2.09c.2-.67.51-1.28.92-1.84s.94-.9,1.57-1.03c.63-.13,1.32,0,2.05.38,3.3,1.73,5.27,2.76,5.99,3.02,1.14.4,1.79.2,1.98-.57.11-.45-.05-.88-.52-1.27-.47-.39-1.1-.73-1.9-1.01-.8-.28-1.68-.64-2.65-1.07-.97-.43-1.89-.88-2.76-1.35-.86-.47-1.62-1.15-2.27-2.02-.65-.88-1.02-1.87-1.12-2.98Z"/>
          <path class="cls-1" d="m296.24,295.49c-.08.94-.43,1.74-1.06,2.4-.63.66-1.37,1.05-2.21,1.18-.85.13-1.68.09-2.5-.11-.82-.2-1.51-.7-2.05-1.51-.55-.8-.8-1.81-.77-2.99.04-1.59.04-3.76.01-6.49-.02-2.73-.03-4.85,0-6.37.02-1.52.18-3.1.47-4.75.29-1.65.76-2.89,1.4-3.73.48-.62,1.37-1.15,2.68-1.57,1.31-.42,2.8-.62,4.47-.6,1.67.02,3.34.23,4.99.62,1.65.4,3.16,1.12,4.51,2.18,1.35,1.05,2.27,2.35,2.78,3.88.46,1.39.66,2.73.61,4.04-.05,1.3-.3,2.45-.75,3.43-.45.98-.97,1.83-1.57,2.54-.6.71-1.25,1.31-1.96,1.81-1.07.7-2.31,1.19-3.73,1.48-1.41.29-2.57.44-3.47.46-.9.02-1.37.05-1.4.11-.08.32-.25,1.66-.45,4Zm1.26-17.13c-.51.56-.78,1.61-.8,3.15s.1,2.44.37,2.68c.22.13.4.22.54.27.14.05.38.05.74-.02.35-.07.8-.25,1.34-.52.56-.28.92-.68,1.04-1.23.12-.55.04-1.35-.24-2.41-.13-.5-.3-.92-.52-1.25-.22-.33-.45-.57-.68-.71-.24-.14-.47-.23-.7-.26-.23-.03-.44-.02-.62.05-.18.07-.33.15-.46.25Z"/>
          <path class="cls-1" d="m310.81,283.87c.06-1.46.33-2.8.8-3.99.47-1.2,1.06-2.18,1.77-2.95.71-.77,1.51-1.41,2.42-1.92.91-.51,1.79-.86,2.65-1.07.86-.21,1.69-.31,2.47-.34.69-.02,1.41.03,2.13.18.72.15,1.29.29,1.73.41.43.12.88.32,1.33.59.46.27.8.48,1.03.64.23.16.51.37.83.61,1.49,1.19,1.89,2.65,1.23,4.38-.49,1.26-1.3,2.14-2.4,2.55-.86.33-1.63.19-2.25-.37-1.34-1.21-2.51-1.74-3.47-1.59-.97.14-1.52.94-1.59,2.33-.03.51.17.95.55,1.31.38.36.91.68,1.59.96.67.28,1.38.58,2.12.89.74.31,1.52.79,2.34,1.44.82.65,1.52,1.41,2.09,2.28.9,1.45,1.31,2.97,1.23,4.56-.08,1.58-.53,2.97-1.36,4.17-.83,1.2-1.95,2.16-3.37,2.91-1.41.74-2.93,1.04-4.54.93-1.72-.12-3.31-.38-4.76-.8s-2.63-.95-3.54-1.57c-.91-.63-1.64-1.18-2.16-1.67-.52-.49-.95-.96-1.25-1.4-.36-.53-.55-1.17-.57-1.91-.03-.74.1-1.43.39-2.06.29-.63.67-1.2,1.16-1.7.49-.5,1.05-.77,1.7-.81.65-.04,1.31.17,1.99.65,3.05,2.15,4.87,3.43,5.56,3.78,1.08.55,1.75.44,2.05-.3.17-.43.07-.88-.35-1.33-.42-.45-1-.87-1.76-1.25-.76-.39-1.59-.86-2.5-1.41-.91-.55-1.76-1.12-2.56-1.7-.8-.58-1.46-1.35-1.99-2.3-.53-.95-.77-1.99-.72-3.1Z"/>
        </g>
      </g>
      <g>
        <line class="cls-3" x1="508.03" y1="60.39" x2="94.61" y2="459.87"/>
        <line class="cls-3" x1="52.81" y1="46.45" x2="461.58" y2="478.45"/>
      </g>
    </g>
  </g>
</svg>