<?xml version="1.0" encoding="UTF-8"?>
<svg xmlns="http://www.w3.org/2000/svg" xmlns:xlink="http://www.w3.org/1999/xlink" viewBox="0 0 540 540">
  <defs>
    <style>
      .cls-1, .cls-2 {
        fill: #fff;
      }

      .cls-3 {
        isolation: isolate;
      }

      .cls-4 {
        fill: #65aa81;
      }

      .cls-5 {
        fill: #4f4f4e;
        mix-blend-mode: overlay;
        opacity: .49;
      }

      .cls-6 {
        clip-path: url(#clippath);
      }

      .cls-7 {
        fill: none;
      }

      .cls-8 {
        fill: #c67566;
      }

      .cls-2 {
        font-family: OmpalumpaRegular, Ompalumpa;
        font-size: 45px;
      }
    </style>
    <clipPath id="clippath">
      <path class="cls-7" d="m316.81,471.44c-9.45,3.88-25.02,8.9-44.78,9.22-21.89.36-39.04-5.2-48.85-9.22V64.37c13.13-2.86,30.08-5.3,49.87-5.02,17.07.24,31.87,2.43,43.76,5.02v407.07Z"/>
    </clipPath>
  </defs>
  <g class="cls-3">
    <g id="_Layer_" data-name="&amp;lt;Layer&amp;gt;">
      <g>
        <path class="cls-4" d="m316.81,471.44c-9.45,3.88-25.02,8.9-44.78,9.22-21.89.36-39.04-5.2-48.85-9.22V64.37c13.13-2.86,30.08-5.3,49.87-5.02,17.07.24,31.87,2.43,43.76,5.02v407.07Z"/>
        <g>
          <path class="cls-8" d="m270,105.9h0c8.33,0,15.1,6.77,15.1,15.1v101.68h-30.2v-101.68c0-8.33,6.77-15.1,15.1-15.1Z"/>
          <path class="cls-1" d="m232.15,242.66c2.71-1.38,15.17-18.97,20.28-19.46,5.12-.5,19.96,5.26,26.72,2.8,6.76-2.46,6.5,19.43,9.47,18.33,2.97-1.09,14.5-31.19,15.54-29.47,1.05,1.72,4.31-.22,4.31-.22,1.16.2,2.38.37,3.65.51,1.64.18,3.18.28,4.67.34.03-2.02.05-3.77.07-5.14-.68.42-2.8,3.3-4.71,3.1-1.91-.2-3.61-3.5-3.61-3.5,0,0-3.25,1.94-4.3.22-1.05-1.72-7.56,2.16-10.53,3.26-2.98,1.1-3.2-1.75-9.96.71-4.82,1.75-20.74,6.56-31.31,8.13-4.26.63-7.63-1.05-9.1-.91-5.12.49-9.32,4.41-12.03,5.79-2.71,1.38-8.21-2.82-8.21-2.82l.04,4.94c.84,1.92,6.49,14.67,8.99,13.38Z"/>
        </g>
        <text class="cls-2" transform="translate(285.61 460.46) rotate(-90)"><tspan x="0" y="0">PEPPERONI</tspan></text>
        <g class="cls-6">
          <path class="cls-5" d="m239.22,44.08h0c-11.03,191-6.96,336.09,8.4,392.31,3.72,13.62,11.12,39.31,34.35,56.48,24.08,17.8,52.87,17.34,67.17,16.03-66.91-1.27-133.82-2.54-200.73-3.82.51-155.19,1.02-310.39,1.53-465.58,29.77,1.53,59.53,3.05,89.3,4.58Z"/>
        </g>
      </g>
    </g>
  </g>
</svg>