<?xml version="1.0" encoding="UTF-8"?>
<svg id="_Layer_" data-name="&amp;lt;Layer&amp;gt;" xmlns="http://www.w3.org/2000/svg" viewBox="0 0 540 540">
  <defs>
    <style>
      .cls-1 {
        fill: #fff;
      }

      .cls-2 {
        fill: #5bb17a;
      }

      .cls-3 {
        fill: #70bd8f;
      }

      .cls-4 {
        fill: #b36759;
      }
    </style>
  </defs>
  <path class="cls-3" d="m160.66,445.54c-9.42-3.94-23.98-11.4-38.18-25.14-15.74-15.23-23.93-31.29-28.02-41.06,95.95-95.95,191.89-191.89,287.84-287.84,11.3,7.26,25.02,17.53,38.81,31.71,11.9,12.24,20.82,24.26,27.39,34.5L160.66,445.54Z"/>
  <path class="cls-2" d="m94.46,379.34c3.89,9.3,11.52,24.3,25.81,38.86,1.66-20.37,10.76-36.77,16.24-46.37,28-49.05,122.52-149.63,258.36-271.62-4.42-3.29-8.64-6.19-12.57-8.71-95.95,95.95-191.89,191.89-287.84,287.84Z"/>
  <g>
    <path class="cls-4" d="m344.75,136.86h0c8.33,0,15.1,6.77,15.1,15.1v101.68h-30.2v-101.68c0-8.33,6.77-15.1,15.1-15.1Z" transform="translate(239.04 -186.58) rotate(45)"/>
    <path class="cls-1" d="m262.57,223.91c2.89.94,24.14-2.68,28.11.58,3.97,3.27,10.4,17.84,16.91,20.88,6.52,3.04-9.14,18.33-6.26,19.66,2.87,1.33,32.31-11.81,31.83-9.85-.47,1.96,3.2,2.89,3.2,2.89.68.96,1.42,1.95,2.22,2.95,1.03,1.29,2.05,2.45,3.06,3.54,1.45-1.41,2.71-2.63,3.69-3.58-.78-.18-4.31.35-5.52-1.14-1.21-1.5-.08-5.03-.08-5.03,0,0-3.67-.93-3.2-2.89.47-1.96-6.87-3.81-9.75-5.14-2.88-1.33-1.03-3.5-7.55-6.54-4.64-2.17-19.3-10.03-27.89-16.39-3.46-2.57-4.65-6.13-5.79-7.07-3.97-3.27-9.71-3.47-12.6-4.41-2.9-.94-3.81-7.79-3.81-7.79l-3.47,3.52c-.77,1.95-5.78,14.96-3.1,15.82Z"/>
  </g>
  <g>
    <path class="cls-1" d="m164.98,389.35c.24.53.27,1.15.1,1.86-.17.71-.52,1.34-1.03,1.89-.52.55-1.1.99-1.75,1.31s-1.36.36-2.14.12c-.77-.24-1.47-.8-2.1-1.68-.53-.64-1.15-1.27-1.85-1.88-.7-.61-1.36-1.13-1.99-1.57l-.94-.66c-.06.24.08.7.41,1.38s.72,1.37,1.16,2.07c.44.7.89,1.4,1.34,2.11s.72,1.14.81,1.31c.37.77.33,1.59-.1,2.47-.43.87-1.08,1.54-1.96,1.99-.87.45-1.66.55-2.36.29-.55-.22-1.37-.69-2.45-1.41-1.08-.72-2.03-1.31-2.84-1.79s-1.31-.62-1.49-.44c.04.07.1.18.18.32s.27.4.55.8c.29.4.58.78.9,1.14s.71.79,1.19,1.27.97.91,1.46,1.3c.59.48.97,1.07,1.14,1.78.17.71.13,1.38-.12,2.03-.26.64-.62,1.22-1.1,1.74-.48.52-1.08.85-1.82,1.02-.74.17-1.49.08-2.26-.25-1.1-.48-2.36-1.4-3.76-2.77-1.41-1.37-2.71-2.76-3.9-4.18-1.49-1.67-2.53-2.85-3.12-3.53-.59-.68-1.29-1.6-2.11-2.74-.82-1.15-1.4-2.16-1.75-3.02-.42-1.08-.4-2.09.07-3.02.47-.93,1.21-1.62,2.22-2.08,1.01-.46,2.1-.64,3.25-.55.57.06,1.17.15,1.81.29.63.14,1.25.3,1.83.48.59.18,1.16.38,1.72.59.56.21,1.07.42,1.53.62s.87.39,1.24.55c.37.17.65.29.85.39l.28.17c-.17-.39-.38-.89-.65-1.5s-.65-1.67-1.16-3.17c-.51-1.5-.82-2.77-.95-3.82-.18-1.65-.04-3.02.44-4.11.48-1.08,1.24-1.77,2.29-2.04s2.25-.08,3.61.58c1.54.77,3.45,2.11,5.72,4.01s4.31,3.83,6.12,5.79c1.81,1.96,2.96,3.48,3.46,4.56Z"/>
    <path class="cls-1" d="m177.8,377.8c-.51,1.07-1.22,2.19-2.12,3.36-.9,1.18-1.9,2.28-2.99,3.32-1.09,1.04-2.25,1.76-3.47,2.15-1.22.4-2.31.3-3.27-.29-1.97-1.23-4.04-2.9-6.21-5.02-2.17-2.11-3.95-4.05-5.35-5.82-1.4-1.76-2.36-3.15-2.9-4.16-.46-.86-.19-2.14.81-3.82,1-1.68,2.4-3.31,4.19-4.88,1.79-1.57,3.5-2.65,5.12-3.24.9-.31,1.76-.17,2.57.41s1.33,1.38,1.57,2.37c.24.99.06,1.84-.52,2.54-.31.39-.75.79-1.31,1.2-.56.41-1.1.78-1.61,1.09s-1,.62-1.46.94c-.46.31-.8.61-1.02.88-.22.28-.28.52-.17.75.2.42.62.97,1.27,1.65.64.68,1.12,1.09,1.43,1.21.09.06.36-.16.81-.65.45-.49.97-1.05,1.57-1.68.6-.63,1.27-1.22,2.03-1.75.37-.26.8-.32,1.3-.19s.93.38,1.3.74.64.82.83,1.35.18,1.02,0,1.46c-.18.4-.43.81-.73,1.23-.3.41-.6.77-.9,1.06s-.59.57-.9.84c-.3.27-.56.49-.79.68-.22.18-.38.35-.48.51-.1.16-.11.29-.04.4.42.57.86,1.04,1.31,1.39.45.36.79.56,1.01.59.18.04.39-.04.61-.22.22-.18.46-.46.73-.84s.54-.77.83-1.19c.29-.41.63-.88,1.03-1.39.4-.52.82-.97,1.24-1.35.51-.51,1.15-.77,1.9-.77.75,0,1.42.21,2,.62.58.41.97,1.03,1.16,1.85s.07,1.71-.37,2.66Z"/>
    <path class="cls-1" d="m193.08,357.72c.68.68,1.08,1.46,1.2,2.33.12.87-.02,1.66-.41,2.34-.39.69-.9,1.28-1.53,1.78-.63.5-1.36.74-2.19.73-.84,0-1.6-.31-2.3-.9-.18-.15-.47-.39-.87-.73-.39-.34-.72-.62-.98-.84-.26-.22-.57-.47-.95-.76-.38-.29-.71-.51-.99-.66-.29-.16-.58-.29-.9-.4s-.6-.14-.85-.08c-.26.06-.51.18-.75.39-.35.31-.45.76-.32,1.34.14.58.39,1.16.77,1.74.38.58.85,1.32,1.41,2.23.56.91.98,1.71,1.26,2.39.33.81.42,1.62.28,2.43-.15.81-.47,1.49-.97,2.04-.5.55-1.06,1-1.7,1.34s-1.29.48-1.97.43c-.68-.06-1.26-.32-1.74-.8-.59-.59-1.14-1.36-1.64-2.3-.5-.95-1.05-2.04-1.63-3.28-.58-1.24-1.13-2.28-1.64-3.13-.33-.51-.88-1.25-1.64-2.22-.76-.96-1.44-1.84-2.04-2.62-.6-.78-1.18-1.72-1.74-2.81s-.91-2.12-1.06-3.08c-.15-.96-.03-2.01.35-3.16.38-1.15,1.1-2.24,2.16-3.27.92-.92,2.05-1.45,3.41-1.59,1.35-.14,2.77.05,4.26.57,1.49.52,3,1.18,4.54,2,1.54.82,3.03,1.77,4.5,2.87,1.46,1.1,2.74,2.11,3.83,3.06,1.09.95,2.04,1.83,2.85,2.63Zm-13.95-1.16c-.24-.42-.95-1.09-2.12-2.01-1.18-.92-1.93-1.29-2.26-1.1-.18.11-.04.58.44,1.41.48.83,1,1.57,1.56,2.22.56.65.98,1.01,1.25,1.06.33-.04.65-.24.97-.61.31-.37.37-.69.17-.96Z"/>
    <path class="cls-1" d="m186.22,343.13c-.04.07-.08.17-.14.27-.06.11-.18.35-.37.73-.19.38-.39.71-.61.99-.21.29-.49.62-.83,1.02-.34.4-.69.69-1.06.87-.61.42-1.4.44-2.37.05-.97-.39-1.76-1.03-2.34-1.93-.59-.9-.71-1.78-.36-2.65.9-2.22,4.77-6.28,11.61-12.16.75-.64,1.51-.99,2.26-1.05.75-.06,1.42.12,1.99.52.57.41,1.06.87,1.46,1.38.41.51.71,1.04.91,1.57.15.44.02.93-.37,1.48s-.87,1.01-1.42,1.39c-.55.39-1.12.77-1.71,1.16-.59.39-.92.62-.99.69-.13.13.53.92,1.97,2.39,1.44,1.46,3.14,3.18,5.09,5.14,1.95,1.97,3.28,3.46,4,4.47.57.83.84,1.65.8,2.45-.04.81-.28,1.47-.73,1.97-.45.51-.97.91-1.56,1.23s-1.12.45-1.6.41c-.57-.02-1.19-.19-1.88-.52-.68-.33-1.31-.72-1.87-1.16-.57-.44-1.25-1.02-2.04-1.74-1.01-.9-2.47-2.45-4.38-4.66s-3.06-3.65-3.45-4.33Z"/>
    <path class="cls-1" d="m208.55,325.43c-1.07-.92-1.92-1.9-2.56-2.95s-1.07-2.05-1.27-3.01c-.2-.96-.26-1.9-.17-2.84.09-.94.28-1.77.56-2.5.29-.73.62-1.37,1.01-1.94.33-.51.74-.98,1.21-1.41.48-.42.87-.75,1.18-.99.31-.24.69-.45,1.12-.62.43-.18.77-.3,1.01-.37.24-.07.53-.16.88-.25,1.66-.4,2.99.12,4,1.57.74,1.07.99,2.13.77,3.2-.2.83-.68,1.31-1.43,1.43-1.62.29-2.62.83-3.02,1.61s-.08,1.61.95,2.5c.39.31.82.43,1.3.36.48-.07,1-.28,1.57-.61s1.17-.68,1.79-1.05c.63-.37,1.4-.68,2.33-.92.93-.25,1.88-.34,2.85-.29,1.6.13,3,.66,4.21,1.59,1.2.93,2.06,2.04,2.56,3.34.51,1.3.67,2.7.48,4.2-.18,1.51-.77,2.85-1.77,4.03-1.05,1.27-2.15,2.33-3.3,3.18-1.15.86-2.22,1.44-3.23,1.77-1,.32-1.84.53-2.51.63s-1.26.13-1.78.1c-.61-.05-1.2-.29-1.77-.72-.57-.42-1.01-.93-1.32-1.52-.31-.59-.52-1.21-.62-1.86s.01-1.23.34-1.72c.33-.5.86-.85,1.6-1.08,3.33-.97,5.31-1.62,5.96-1.93,1.01-.5,1.31-1.07.88-1.71-.24-.39-.64-.55-1.21-.5-.57.06-1.21.25-1.92.59s-1.52.68-2.44,1.03c-.92.35-1.82.64-2.7.88-.88.24-1.83.27-2.84.08s-1.92-.62-2.73-1.32Z"/>
    <path class="cls-1" d="m223.28,306.07c-.04.07-.08.17-.14.27-.06.11-.18.35-.37.73-.19.38-.39.71-.61.99-.21.29-.49.62-.83,1.02-.34.4-.69.69-1.06.87-.61.42-1.4.44-2.37.05-.97-.39-1.76-1.03-2.34-1.93-.59-.9-.71-1.78-.36-2.65.9-2.22,4.77-6.28,11.61-12.16.75-.64,1.51-.99,2.26-1.05.75-.06,1.42.12,1.99.52.57.41,1.06.87,1.46,1.38.41.51.71,1.04.91,1.57.15.44.02.93-.37,1.48s-.87,1.01-1.42,1.39c-.55.39-1.12.77-1.71,1.16-.59.39-.92.62-.99.69-.13.13.53.92,1.97,2.39,1.44,1.46,3.14,3.18,5.09,5.14,1.95,1.97,3.28,3.46,4,4.47.57.83.84,1.65.8,2.45-.04.81-.28,1.47-.73,1.97-.45.51-.97.91-1.56,1.23s-1.12.45-1.6.41c-.57-.02-1.19-.19-1.88-.52-.68-.33-1.31-.72-1.87-1.16-.57-.44-1.25-1.02-2.04-1.74-1.01-.9-2.47-2.45-4.38-4.66s-3.06-3.65-3.45-4.33Z"/>
    <path class="cls-1" d="m251.52,300.28c.57.57.9,1.25.98,2.05s-.08,1.54-.48,2.22c-.4.68-.91,1.26-1.53,1.75s-1.35.74-2.21.74c-.85,0-1.69-.28-2.5-.87-1.93-1.41-4.67-3.96-8.22-7.64-3.55-3.68-5.64-6.07-6.26-7.17-.42-.72-.5-1.51-.23-2.39.27-.87.71-1.61,1.32-2.21.62-.6,1.34-1.01,2.18-1.24.84-.23,1.58-.11,2.22.34.79.57,1.51,1.18,2.17,1.83s1.52,1.57,2.59,2.76c1.08,1.19,2.07,2.26,2.99,3.21.99,1.03,2.26,2.24,3.81,3.64,1.54,1.4,2.6,2.38,3.17,2.95Z"/>
    <path class="cls-1" d="m260.45,286.49c.48-1.73,1.43-2.54,2.87-2.43,1.23.06,2.21.69,2.95,1.9.81,1.32.85,2.74.11,4.25-.7,1.51-1.57,2.83-2.62,3.97-1.05,1.14-2.25,2.05-3.6,2.72-1.35.67-2.78,1.04-4.27,1.1-1.5.06-3.11-.3-4.83-1.1-1.72-.8-3.41-2.04-5.09-3.71-2.76-2.76-4.54-5.48-5.34-8.18-.8-2.69-.67-5.09.4-7.18.74-1.47,1.91-2.84,3.52-4.1,1.61-1.26,3.21-1.99,4.81-2.19,1.45-.2,2.67.37,3.64,1.71.85,1.14,1.11,2.23.8,3.28-.27.98-1.03,1.49-2.26,1.54-1.23.06-2.13.35-2.7.88-.57.53-.83,1.16-.79,1.89.05.73.25,1.51.62,2.36.37.85.78,1.6,1.23,2.25.45.65.88,1.2,1.28,1.64.59.59,1.21,1.12,1.86,1.59.65.47,1.36.84,2.11,1.12.75.28,1.46.38,2.12.3.66-.07,1.28-.41,1.85-1.02.57-.61,1.01-1.47,1.32-2.59Z"/>
    <path class="cls-1" d="m273.22,280.23c.44.74.56,1.53.37,2.39-.19.86-.58,1.57-1.16,2.15s-1.27.99-2.08,1.23c-.81.24-1.54.16-2.21-.25-.79-.46-1.59-1.08-2.4-1.85-.81-.77-1.49-1.51-2.06-2.22-.56-.71-1.22-1.53-1.97-2.47-.75-.94-1.4-1.69-1.93-2.26-.55-.55-1.13-1.09-1.75-1.61-.62-.52-1.13-.93-1.54-1.21-.41-.28-.95-.65-1.61-1.09-.66-.44-1.1-.73-1.32-.88-.9-.64-1.48-1.36-1.74-2.15-.26-.79-.22-1.52.11-2.21.33-.68.79-1.3,1.38-1.85.59-.55,1.28-.94,2.08-1.17.8-.23,1.54-.24,2.22-.04.72.24,1.59.82,2.61,1.75,1.02.93,1.86,1.8,2.52,2.61l.96,1.24c-.09-.2-.23-.48-.41-.83-.18-.35-.49-1.01-.92-1.97s-.8-1.87-1.12-2.72c-.31-.84-.56-1.74-.75-2.67-.18-.94-.2-1.68-.05-2.23.2-.79.62-1.42,1.25-1.89s1.33-.72,2.08-.76c.75-.04,1.53.04,2.33.23.8.19,1.47.54,2.01,1.05.54.51.91,1.08,1.12,1.72.17.61.33,1.31.48,2.11.16.8.3,1.54.43,2.22.13.68.24,1.32.33,1.93.09.61.17,1.08.22,1.43l.08.52c2.1.44,4.16.71,6.21.8.85.04,1.59.24,2.23.61.64.37,1.12.82,1.42,1.36.3.54.51,1.13.63,1.77.12.63.08,1.24-.11,1.82-.19.58-.46,1.09-.8,1.54-.34.45-.84.77-1.5.95-1.1.33-2.26.43-3.47.3-1.21-.13-2.19-.34-2.94-.65-.74-.3-1.54-.67-2.37-1.1-.84-.43-1.32-.68-1.45-.73.22.11.89.73,2,1.86,1.11,1.13,1.97,2.2,2.58,3.21Z"/>
  </g>
</svg>