<?xml version="1.0" encoding="UTF-8"?>
<svg xmlns="http://www.w3.org/2000/svg" xmlns:xlink="http://www.w3.org/1999/xlink" viewBox="0 0 540 540">
  <defs>
    <style>
      .cls-1 {
        opacity: .53;
      }

      .cls-1, .cls-2 {
        mix-blend-mode: overlay;
      }

      .cls-3 {
        isolation: isolate;
      }

      .cls-4 {
        fill: #c9c9c9;
      }

      .cls-5 {
        clip-path: url(#clippath-1);
      }

      .cls-2 {
        fill: #4f4f4e;
        opacity: .49;
      }

      .cls-6 {
        clip-path: url(#clippath);
      }

      .cls-7 {
        fill: #f9bb60;
      }

      .cls-8 {
        fill: none;
      }

      .cls-9 {
        fill: #fcca79;
      }
    </style>
    <clipPath id="clippath">
      <path class="cls-8" d="m116.25,109.06c-7.4-2.76-14.79,4.13-12.56,11.7,13.4,45.49,26.11,110.51,20.71,188.04-2.96,42.52-10.74,79.71-19.63,110.45-2.34,8.07,6.07,15.05,13.56,11.24,50.81-25.8,110.57-51.79,178.91-74.07,46.76-15.25,91.03-26.62,131.84-35.16,7.62-1.59,10.27-11.13,4.57-16.43-36.98-34.36-83.94-72.54-141.7-108.9-64.07-40.33-124.7-67.86-175.7-86.86Z"/>
    </clipPath>
    <clipPath id="clippath-1">
      <path class="cls-8" d="m116.25,109.06c-9.32-3.47-12.56,11.7-12.56,11.7-5.52,10.32-1.38,20.88.89,34.56,2.41,14.49.24,17.54,0,41.98-.54,55.11,10.25,62.59,7.63,107.62-2.48,42.55-3.72,63.82-8.07,78.71-2,6.82-7.19,22.98.63,35.62,4.69,7.59,12.07,10.65,13.56,11.24,12.21,4.82,24.67-.63,33.09-4.48,27.76-12.66,41.64-18.99,56.2-28.74,34.45-23.08,66.68-33.47,89.61-40.86,46.02-14.83,69.03-22.24,90.51-22.49,10.49-.12,31.92.57,41.33-12.67,0,0,11.81-9.7,4.57-16.43-36.98-34.36-83.94-72.54-141.7-108.9-64.07-40.33-124.7-67.86-175.7-86.86Z"/>
    </clipPath>
  </defs>
  <g class="cls-3">
    <g id="_Layer_" data-name="&amp;lt;Layer&amp;gt;">
      <g>
        <path class="cls-7" d="m116.25,109.06c-9.32-3.47-12.56,11.7-12.56,11.7-5.52,10.32-1.38,20.88.89,34.56,2.41,14.49.24,17.54,0,41.98-.54,55.11,10.25,62.59,7.63,107.62-2.48,42.55-3.72,63.82-8.07,78.71-2,6.82-7.19,22.98.63,35.62,4.69,7.59,12.07,10.65,13.56,11.24,12.21,4.82,24.67-.63,33.09-4.48,27.76-12.66,41.64-18.99,56.2-28.74,34.45-23.08,66.68-33.47,89.61-40.86,46.02-14.83,69.03-22.24,90.51-22.49,10.49-.12,31.92.57,41.33-12.67,0,0,11.81-9.7,4.57-16.43-36.98-34.36-83.94-72.54-141.7-108.9-64.07-40.33-124.7-67.86-175.7-86.86Z"/>
        <g class="cls-6">
          <path class="cls-2" d="m108.77,109.4c5.15,15.79,12.92,37.63,24.06,62.97,12.18,27.71,16.31,32.11,30.53,61.06,35.93,73.15,37.4,101.72,64.11,111.94,12.86,4.92,24.51,2.9,34.6,1.02,57.01-10.63,119.25-22.77,186.23-36.64-113.18-66.79-226.36-133.57-339.53-200.36Z"/>
          <path class="cls-9" d="m108.77,109.4c11.5,15.25,17.83,28.77,21.51,38.55,2.74,7.27,3.28,10.51,7.34,21.67,5.31,14.62,10.27,25.25,14,33.2,26.64,56.77,44.69,67.19,56.51,97.78,1.9,4.91,6.89,18.76,20.23,27.96,0,0,3.37,2.32,7.21,4.08,25.92,11.82,102.88-9.34,105.87-10.16,21.81-5.98,53.68-12.03,95.26-10.72-1.24-11.63-15.44-125.81-120.71-186.2-97.12-55.71-194.11-21.1-207.24-16.16Z"/>
          <g class="cls-1">
            <path class="cls-4" d="m170.49,333.63c1.34,4.5,1.01,3.45-4.13,4.97-5.15,1.55-10.92,2.09-12.25-2.42-1.39-4.51,1.71-9.43,6.85-10.96,5.13-1.53,8.15,3.88,9.52,8.4Z"/>
            <path class="cls-4" d="m191.99,357.14c-4.46,1.41-3.39,1.05-5.02-4.05-1.59-5.12-2.22-10.91,2.26-12.3,4.53-1.4,9.46,1.62,11.07,6.73,1.58,5.11-3.8,8.22-8.3,9.62Z"/>
            <path class="cls-4" d="m191.49,174.98c-3.14,1.92-2.4,1.44-4.58-2.11-2.19-3.58-3.79-7.84-.67-9.76,3.14-1.92,7.48-.61,9.68,2.97,2.19,3.57-1.29,6.95-4.43,8.9Z"/>
            <path class="cls-4" d="m153.97,294.29c-3.12,1.93-2.43,1.43-4.58-2.11-2.21-3.59-3.78-7.83-.66-9.77,3.15-1.93,7.44-.6,9.67,2.97,2.17,3.57-1.3,6.97-4.43,8.91Z"/>
            <path class="cls-4" d="m129.41,372.7c-3.11,1.95-2.39,1.48-4.6-2.09-2.21-3.57-3.78-7.83-.66-9.76,3.16-1.94,7.48-.6,9.66,2.96,2.21,3.55-1.27,6.96-4.4,8.88Z"/>
            <path class="cls-4" d="m189.93,326.56c-3.14,1.92-2.42,1.45-4.6-2.12-2.19-3.57-3.81-7.81-.66-9.74,3.12-1.93,7.47-.6,9.65,2.96,2.21,3.57-1.24,6.96-4.39,8.9Z"/>
            <path class="cls-4" d="m232.57,235.63c-3.15,1.94-2.39,1.47-4.6-2.09-2.19-3.59-3.78-7.83-.67-9.76,3.17-1.93,7.5-.6,9.69,2.96,2.2,3.57-1.28,6.97-4.42,8.89Z"/>
            <path class="cls-4" d="m213.92,262.42c-3.14,1.93-2.4,1.47-4.59-2.11-2.2-3.56-3.8-7.84-.66-9.77,3.14-1.92,7.46-.59,9.66,2.99,2.18,3.55-1.26,6.96-4.41,8.89Z"/>
          </g>
        </g>
        <g class="cls-5">
          <path class="cls-2" d="m107.54,78.96c1.52,37.95,6.13,92.02,20.19,155.49,19.27,86.99,29.71,134.12,66.93,170.75,66.22,65.17,172.26,52.87,203.77,48.05,13.37,27.58,22.06,58.65,9.16,82.43-40.1,73.92-294.76,88.24-393.84-52.92C-62.83,373.64-34.03,189.35,107.54,78.96Z"/>
        </g>
      </g>
    </g>
  </g>
</svg>