<?xml version="1.0" encoding="UTF-8"?>
<svg id="_Layer_" data-name="&amp;lt;Layer&amp;gt;" xmlns="http://www.w3.org/2000/svg" viewBox="0 0 540 540">
  <defs>
    <style>
      .cls-1 {
        fill: #fbd07d;
      }

      .cls-2 {
        fill: #f8ae4e;
      }

      .cls-3 {
        fill: #f5b85e;
      }

      .cls-4 {
        fill: #fdda9e;
      }

      .cls-5 {
        fill: #f9bb60;
      }

      .cls-6 {
        fill: #fcca79;
      }
    </style>
  </defs>
  <path class="cls-5" d="m142.57,141.58c-9.32-3.47-12.56,11.7-12.56,11.7-5.52,10.32-1.38,20.88.89,34.56,2.41,14.49.24,17.54,0,41.98-.54,55.11,10.25,62.59,7.63,107.62-2.48,42.55-3.72,63.82-8.07,78.71-2,6.82-7.19,22.98.63,35.62,4.69,7.59,12.07,10.65,13.56,11.24,12.21,4.82,24.67-.63,33.09-4.48,27.76-12.66,41.64-18.99,56.2-28.74,34.45-23.08,66.68-33.47,89.61-40.86,46.02-14.83,69.03-22.24,90.51-22.49,10.49-.12,31.92.57,41.33-12.67,0,0,11.81-9.7,4.57-16.43-36.98-34.36-83.94-72.54-141.7-108.9-64.07-40.33-124.7-67.86-175.7-86.86Z"/>
  <path class="cls-2" d="m189.68,265.94c35.93,73.15,37.4,101.72,64.11,111.94,12.86,4.92,24.51,2.9,34.6,1.02,53.39-9.96,111.36-21.23,173.52-34.01.79-2.52.57-5.21-1.95-7.55-3.73-3.46-7.56-6.97-11.5-10.5L135.96,142.42c-.19.14-.37.29-.55.44,5.15,15.71,12.82,37.17,23.74,62.02,12.18,27.71,16.31,32.11,30.53,61.06Z"/>
  <path class="cls-3" d="m154.06,266.96c1.38-48.84-15.8-90.09-18.39-124.32-4.09,3.3-5.66,10.63-5.66,10.63-5.52,10.32-1.38,20.88.89,34.56,2.41,14.49.24,17.54,0,41.98-.54,55.11,10.25,62.59,7.63,107.62-2.48,42.55-3.72,63.82-8.07,78.71-2,6.82-7.19,22.98.63,35.62,4.69,7.58,12.07,10.65,13.56,11.24,12.21,4.82,24.67-.63,33.09-4.48,19.65-8.96,32.34-14.75,43.24-20.82h0c-37.22-36.63-70.08-59.15-66.93-170.75Z"/>
  <path class="cls-6" d="m163.94,202.13c5.31,14.61,10.27,25.25,14,33.2,26.64,56.77,44.69,67.19,56.51,97.78,1.9,4.91,6.89,18.76,20.23,27.96,0,0,3.37,2.32,7.21,4.08,25.92,11.82,102.88-9.34,105.87-10.16,21.65-5.94,53.2-11.94,94.32-10.74.55-2.33.18-4.77-2.12-6.91-36.98-34.36-83.94-72.54-141.7-108.9-64.07-40.33-124.7-67.86-175.7-86.86-2.85-1.06-5.13-.38-6.92,1.08,11.14,14.94,17.33,28.18,20.96,37.8,2.74,7.27,3.28,10.51,7.33,21.67Z"/>
  <g>
    <path class="cls-1" d="m196.81,366.15c1.34,4.5,1.01,3.45-4.13,4.97-5.15,1.55-10.92,2.09-12.25-2.42-1.39-4.51,1.71-9.43,6.85-10.96,5.13-1.53,8.15,3.88,9.52,8.4Z"/>
    <path class="cls-1" d="m218.31,389.66c-4.46,1.41-3.39,1.05-5.02-4.05-1.59-5.12-2.22-10.91,2.26-12.3,4.53-1.4,9.46,1.62,11.07,6.73,1.58,5.11-3.8,8.22-8.3,9.62Z"/>
    <path class="cls-4" d="m217.82,207.49c-3.14,1.92-2.4,1.44-4.58-2.11-2.19-3.58-3.79-7.84-.67-9.76,3.14-1.92,7.48-.61,9.68,2.97,2.19,3.57-1.29,6.95-4.43,8.9Z"/>
    <path class="cls-1" d="m180.3,326.81c-3.12,1.93-2.43,1.43-4.58-2.11-2.21-3.59-3.78-7.83-.66-9.77,3.15-1.93,7.44-.6,9.67,2.97,2.17,3.57-1.3,6.97-4.43,8.91Z"/>
    <path class="cls-1" d="m155.74,405.22c-3.11,1.95-2.39,1.48-4.6-2.09-2.21-3.57-3.78-7.83-.66-9.76,3.16-1.94,7.48-.6,9.66,2.96,2.21,3.55-1.27,6.96-4.4,8.88Z"/>
    <path class="cls-1" d="m216.26,359.08c-3.14,1.92-2.42,1.45-4.6-2.12-2.19-3.57-3.81-7.81-.66-9.74,3.12-1.93,7.47-.6,9.65,2.96,2.21,3.57-1.24,6.96-4.39,8.9Z"/>
    <path class="cls-4" d="m258.9,268.15c-3.15,1.94-2.39,1.47-4.6-2.09-2.19-3.59-3.78-7.83-.67-9.76,3.17-1.93,7.5-.6,9.69,2.96,2.2,3.57-1.28,6.97-4.42,8.89Z"/>
    <path class="cls-4" d="m240.24,294.94c-3.14,1.93-2.4,1.47-4.59-2.11-2.2-3.56-3.8-7.84-.66-9.77,3.14-1.92,7.46-.59,9.66,2.99,2.18,3.55-1.26,6.96-4.41,8.89Z"/>
  </g>
</svg>