<?xml version="1.0" encoding="UTF-8"?>
<svg id="_Layer_" data-name="&amp;lt;Layer&amp;gt;" xmlns="http://www.w3.org/2000/svg" xmlns:xlink="http://www.w3.org/1999/xlink" viewBox="0 0 540 540">
  <defs>
    <style>
      .cls-1 {
        fill: #fff;
      }

      .cls-2 {
        fill: #ddbfab;
      }

      .cls-3 {
        fill: #b97252;
      }

      .cls-4 {
        fill: #c99375;
      }

      .cls-5 {
        clip-path: url(#clippath);
      }

      .cls-6 {
        fill: #f9a678;
      }

      .cls-7 {
        fill: none;
      }

      .cls-8 {
        fill: #d3ac92;
      }

      .cls-9 {
        fill: #ffc69c;
      }
    </style>
    <clipPath id="clippath">
      <circle class="cls-7" cx="270.44" cy="301.64" r="69.23"/>
    </clipPath>
  </defs>
  <circle class="cls-4" cx="270.44" cy="269.38" r="169.57" transform="translate(-111.27 270.13) rotate(-45)"/>
  <path class="cls-4" d="m440,269.38c2.6,27.6,4,28.32,2.91,37.08-1.02,8.23-4.93,18.03-12.71,37.27-7.79,19.28-11.69,28.92-14.25,32.57-6.72,9.58-18.48,17.37-41.72,32.57-16.44,10.74-24.83,16.18-33.58,19.34-10.21,3.68-19.14,4.95-37,7.49-12.89,1.83-22.16,2.48-33.22,3.26-18.83,1.33-28.4,1.96-35.62.45-8.04-1.68-10.91-3.8-28.49-12.21-28.36-13.57-26.19-10.6-36.2-16.36-25.07-14.44-39.1-33.32-42.17-37.58-2.22-3.08-11.59-16.36-18.32-36.64-7.02-21.15-2.38-23.43-8.77-67.23-3.21-21.98-5.34-27.98-3.44-40.64,1.56-10.42,5.11-18.14,12.21-33.58,2.57-5.58,11.17-23.84,27.48-47.83,10.51-15.47,15.77-23.2,22.39-28.49,14.27-11.42,29.21-14.22,46.81-17.3,8.23-1.44,10.86-1.33,64.12-1.72,26.01-.19,32.62-.27,43.76,1.72,8.9,1.58,22.22,4.07,37.65,12.21,17.54,9.25,28.31,20.8,31.55,24.42,9.24,10.34,7.83,12.86,19.34,26.46,12.25,14.47,15.04,13.02,21.37,22.39,7.38,10.92,9.08,21.02,12.21,39.69,2.38,14.18,1.06,14.67,3.69,42.68Z"/>
  <circle class="cls-2" cx="270.44" cy="269.38" r="153.46"/>
  <path class="cls-1" d="m163.72,293.57c0,72.93,47.78,107.86,106.72,107.86,58.94,0,106.72-34.94,106.72-107.86,0-72.93-47.78-156.23-106.72-156.23-58.94,0-106.72,83.3-106.72,156.23Z"/>
  <circle class="cls-9" cx="270.44" cy="301.89" r="69.23"/>
  <g class="cls-5">
    <path class="cls-6" d="m345.42,328.13c-4.68,5.32-29.72,35.97-68.2,36.37-7.23.08-37.06-3.24-56.07-24.85-11.59-13.17-14.45-29.28-16.37-40.01-2.5-14.03-1.72-25.96-.61-33.95-4.04,4.85-8.08,9.7-12.12,14.55,2.83,20.21,5.66,40.41,8.49,60.62,16.57,13.74,33.14,27.48,49.71,41.22,26.27-6.47,52.54-12.93,78.81-19.4,5.46-11.52,10.91-23.04,16.37-34.55Z"/>
  </g>
  <g>
    <path class="cls-3" d="m116.97,269.38c0-23.69,5.37-46.12,14.95-66.15,4.15-29.81,14.19-59.22,30.06-86.29-.83.6-1.65,1.23-2.48,1.89-6.62,5.3-11.87,13.03-22.39,28.49-16.31,23.99-24.91,42.25-27.48,47.83-7.1,15.44-10.65,23.16-12.21,33.58-1.9,12.67.23,18.66,3.44,40.64,6.39,43.8,1.75,46.08,8.77,67.23,6.73,20.27,16.1,33.56,18.32,36.64,3.07,4.26,17.09,23.14,42.17,37.58,10.01,5.76,7.83,2.79,36.2,16.36,17.59,8.42,20.45,10.53,28.5,12.21,7.22,1.51,16.79.88,35.62-.45,3.18-.22,6.21-.44,9.22-.67-15.62-4.91-30.59-11.47-44.62-19.54-67.69-15.98-118.07-76.78-118.07-149.35Z"/>
    <path class="cls-8" d="m166.89,356.36c-30.88-44.65-42.44-99.51-34.97-153.13-9.58,20.03-14.95,42.46-14.95,66.15,0,72.57,50.38,133.37,118.07,149.35-26.87-15.47-50.28-36.54-68.15-62.38Z"/>
  </g>
</svg>