<?xml version="1.0" encoding="UTF-8"?>
<svg xmlns="http://www.w3.org/2000/svg" viewBox="0 0 540 540">
  <defs>
    <style>
      .cls-1 {
        isolation: isolate;
      }

      .cls-2 {
        fill: #c4544e;
      }

      .cls-3 {
        fill: #b84a44;
      }

      .cls-4 {
        fill: #65aa81;
      }

      .cls-5 {
        fill: #7a5f4f;
      }

      .cls-6 {
        fill: #c9c9c9;
        mix-blend-mode: overlay;
        opacity: .53;
      }
    </style>
  </defs>
  <g class="cls-1">
    <g id="_Layer_" data-name="&amp;lt;Layer&amp;gt;">
      <g>
        <path class="cls-4" d="m262.86,150.14s33.66,5.67,57.45-11.67c23.8-17.32,28.72-51.1,28.72-51.1,0,0-33.65-5.66-57.45,11.67-23.79,17.34-28.71,51.1-28.71,51.1Z"/>
        <path class="cls-2" d="m182.03,156.34c30.7-8.64,62.15.62,87.97,22.38,25.82-21.75,57.28-31.02,87.98-22.38,59.99,16.9,94.23,70.31,76.5,150.28-17.75,79.98-77.44,130.42-98.9,139.33-16.5,6.85-38.75,12.36-62.88.63-16.9,11.32-51.25,7.07-68.28-.63-25.17-11.39-81.15-59.36-98.9-139.33-17.75-79.97,16.51-133.39,76.51-150.28Z"/>
        <path class="cls-3" d="m140.96,302.77c-2.18-12.71-10.76-74.59,34.6-110.93,30.08-24.1,66.27-22.87,85.72-19.84-24.02-16.86-51.94-23.36-79.26-15.67-60,16.9-94.26,70.31-76.51,150.28,17.75,79.98,73.73,127.94,98.9,139.33,17.02,7.7,51.37,11.95,68.28.63,24.14,11.73,46.38,6.22,62.88-.63,1.39-.58,2.95-1.33,4.64-2.26-27.58-1.3-61.18-7.42-95.45-24.91-24.97-12.75-91.93-46.94-103.8-116.01Z"/>
        <path class="cls-5" d="m269.79,192.08c2.56,0,4.79-1.98,4.92-4.58,2.83-60.56-30.33-65.75-31.84-65.89-2.77-.28-5.11,1.75-5.37,4.47-.25,2.69,1.71,5.07,4.41,5.36,1.24.15,26.06,7.57,22.95,55.34-.17,2.72,1.85,5.08,4.56,5.29.13,0,.25,0,.37,0Z"/>
        <g>
          <path class="cls-6" d="m342.56,168.73c-15.04-1.65-34.2,2.85-36.43,11.45-1.15,4.42,2.26,9.64,28.1,31.22,37.13,31.01,44.22,40.03,50.63,52.11,11.89,22.4,1.96,33.72,11.81,37.4,6.82,2.54,17.78-4.78,22.9-13.53,18.97-32.48-26.08-113.07-77.01-118.64Z"/>
          <circle class="cls-6" cx="398.07" cy="326.83" r="13.53"/>
        </g>
      </g>
    </g>
  </g>
</svg>