<?xml version="1.0" encoding="UTF-8"?>
<svg xmlns="http://www.w3.org/2000/svg" xmlns:xlink="http://www.w3.org/1999/xlink" viewBox="0 0 540 540">
  <defs>
    <style>
      .cls-1 {
        fill: #d65d5b;
      }

      .cls-2 {
        isolation: isolate;
      }

      .cls-3 {
        fill: #c4544e;
      }

      .cls-4 {
        fill: #65aa81;
      }

      .cls-5 {
        fill: #7a5f4f;
      }

      .cls-6 {
        fill: #c9c9c9;
        opacity: .53;
      }

      .cls-6, .cls-7 {
        mix-blend-mode: overlay;
      }

      .cls-7 {
        fill: #515151;
      }

      .cls-8 {
        clip-path: url(#clippath);
      }

      .cls-9 {
        fill: none;
      }
    </style>
    <clipPath id="clippath">
      <path class="cls-9" d="m182.03,156.34c30.7-8.64,62.15.62,87.97,22.38,25.82-21.75,57.28-31.02,87.98-22.38,59.99,16.9,94.23,70.31,76.5,150.28-17.75,79.98-77.44,130.42-98.9,139.33-16.5,6.85-38.75,12.36-62.88.63-16.9,11.32-51.25,7.07-68.28-.63-25.17-11.39-81.15-59.36-98.9-139.33-17.75-79.97,16.51-133.39,76.51-150.28Z"/>
    </clipPath>
  </defs>
  <g class="cls-2">
    <g id="_Layer_" data-name="&amp;lt;Layer&amp;gt;">
      <g>
        <path class="cls-4" d="m262.86,150.14s33.66,5.67,57.45-11.67c23.8-17.32,28.72-51.1,28.72-51.1,0,0-33.65-5.66-57.45,11.67-23.79,17.34-28.71,51.1-28.71,51.1Z"/>
        <path class="cls-3" d="m182.03,156.34c30.7-8.64,62.15.62,87.97,22.38,25.82-21.75,57.28-31.02,87.98-22.38,59.99,16.9,94.23,70.31,76.5,150.28-17.75,79.98-77.44,130.42-98.9,139.33-16.5,6.85-38.75,12.36-62.88.63-16.9,11.32-51.25,7.07-68.28-.63-25.17-11.39-81.15-59.36-98.9-139.33-17.75-79.97,16.51-133.39,76.51-150.28Z"/>
        <g class="cls-8">
          <path class="cls-1" d="m244.89,179.38c-19.93-4.77-46.89-6.75-63.22-1.78-36.77,11.19-56.95,69-56.99,112.96-.06,74.57,57.82,153.62,113.98,152.65,13.23-.23,24.61-4.87,33.58-10.18,14.78,6.7,33.48,11.64,52.92,7.12,53.74-12.47,83.03-90.17,75.31-150.61-6.52-51.02-41.49-106.14-74.29-106.86-12.46-.27-22.51,7.35-46.81,5.09-14.63-1.36-20.23-4.99-34.47-8.39Z"/>
          <path class="cls-7" d="m274.76,174.9c-5.83-1.68-58.2-15.89-99.2,16.95-45.36,36.34-36.79,98.22-34.6,110.93,11.88,69.08,78.83,103.27,103.8,116.01,60.33,30.8,118.64,26.36,145.53,22.39-92.13,73.32-214.01,72.01-281.89,10.18-97.51-88.82-60.23-281.24,24.42-315.48,51.8-20.95,115.39,19.74,141.94,39.02Z"/>
        </g>
        <path class="cls-5" d="m269.79,192.08c2.56,0,4.79-1.98,4.92-4.58,2.83-60.56-30.33-65.75-31.84-65.89-2.77-.28-5.11,1.75-5.37,4.47-.25,2.69,1.71,5.07,4.41,5.36,1.24.15,26.06,7.57,22.95,55.34-.17,2.72,1.85,5.08,4.56,5.29.13,0,.25,0,.37,0Z"/>
        <g>
          <path class="cls-6" d="m342.56,168.73c-15.04-1.65-34.2,2.85-36.43,11.45-1.15,4.42,2.26,9.64,28.1,31.22,37.13,31.01,44.22,40.03,50.63,52.11,11.89,22.4,1.96,33.72,11.81,37.4,6.82,2.54,17.78-4.78,22.9-13.53,18.97-32.48-26.08-113.07-77.01-118.64Z"/>
          <circle class="cls-6" cx="398.07" cy="326.83" r="13.53"/>
        </g>
      </g>
    </g>
  </g>
</svg>