<?xml version="1.0" encoding="UTF-8"?>
<svg id="_Layer_" data-name="&amp;lt;Layer&amp;gt;" xmlns="http://www.w3.org/2000/svg" xmlns:xlink="http://www.w3.org/1999/xlink" viewBox="0 0 540 540">
  <defs>
    <style>
      .cls-1 {
        fill: #ce001c;
      }

      .cls-2 {
        fill: url(#linear-gradient-2);
      }

      .cls-3 {
        fill: #c7001b;
      }

      .cls-4 {
        fill: #d6001d;
      }

      .cls-5 {
        fill: #ff8c78;
      }

      .cls-6 {
        fill: #b30018;
      }

      .cls-7 {
        fill: #2e3d54;
      }

      .cls-8 {
        fill: #566683;
      }

      .cls-9 {
        fill: #4b2c45;
      }

      .cls-10 {
        opacity: .5;
      }

      .cls-10, .cls-11, .cls-12 {
        fill: #ff8c91;
      }

      .cls-13 {
        fill: url(#linear-gradient-6);
      }

      .cls-14 {
        fill: #ff554d;
      }

      .cls-15 {
        fill: #ec1c25;
      }

      .cls-16 {
        fill: #b80019;
      }

      .cls-17 {
        fill: #5e4560;
      }

      .cls-18 {
        fill: url(#linear-gradient-5);
      }

      .cls-19 {
        fill: #596786;
      }

      .cls-20 {
        fill: #ffc2a8;
      }

      .cls-21 {
        fill: #f85344;
      }

      .cls-22 {
        fill: #3b4962;
      }

      .cls-23 {
        fill: #a9bfd9;
      }

      .cls-12 {
        opacity: .7;
      }

      .cls-24 {
        fill: url(#linear-gradient-3);
      }

      .cls-25 {
        fill: url(#New_Gradient_Swatch_3);
        opacity: .3;
      }

      .cls-26 {
        fill: #ec343b;
      }

      .cls-27 {
        fill: url(#linear-gradient);
      }

      .cls-28 {
        fill: #c3d4e8;
      }

      .cls-29 {
        fill: url(#linear-gradient-4);
      }

      .cls-30 {
        fill: #730010;
      }

      .cls-31 {
        fill: #5f3d57;
      }
    </style>
    <linearGradient id="linear-gradient" x1="-1037.36" y1="-3084.62" x2="-1007.2" y2="-3046.39" gradientTransform="translate(-1779.28 2654.27) rotate(59.54)" gradientUnits="userSpaceOnUse">
      <stop offset="0" stop-color="#68b728"/>
      <stop offset=".38" stop-color="#5d991c"/>
      <stop offset=".76" stop-color="#558214"/>
      <stop offset="1" stop-color="#527a11"/>
    </linearGradient>
    <linearGradient id="linear-gradient-2" x1="-1030.26" y1="-3094.35" x2="-998.72" y2="-3054.37" xlink:href="#linear-gradient"/>
    <linearGradient id="linear-gradient-3" x1="-1010.45" y1="-3062.66" x2="-974.46" y2="-3020.01" xlink:href="#linear-gradient"/>
    <linearGradient id="linear-gradient-4" x1="-1026.52" y1="-3044.03" x2="-1016.45" y2="-3032.1" xlink:href="#linear-gradient"/>
    <linearGradient id="New_Gradient_Swatch_3" data-name="New Gradient Swatch 3" x1="332.95" y1="329.62" x2="333.9" y2="330.63" gradientTransform="translate(-69.09)" gradientUnits="userSpaceOnUse">
      <stop offset="0" stop-color="#b80019"/>
      <stop offset=".22" stop-color="#ab0017"/>
      <stop offset=".7" stop-color="#940014"/>
      <stop offset="1" stop-color="#8c0013"/>
    </linearGradient>
    <linearGradient id="linear-gradient-5" x1="-482.56" y1="1639.25" x2="-338.77" y2="1639.25" gradientTransform="translate(432.47 -1226.28) rotate(-8.77)" gradientUnits="userSpaceOnUse">
      <stop offset="0" stop-color="#e1171b"/>
      <stop offset="1" stop-color="#b82423"/>
    </linearGradient>
    <linearGradient id="linear-gradient-6" x1="-433.76" y1="1613.2" x2="-482.41" y2="1559.4" gradientTransform="translate(432.47 -1226.28) rotate(-8.77)" gradientUnits="userSpaceOnUse">
      <stop offset="0" stop-color="#598f02"/>
      <stop offset="1" stop-color="#74ba03"/>
    </linearGradient>
  </defs>
  <g>
    <g>
      <path class="cls-27" d="m361.65,194.35c-2.77-.48-5.54-.97-8.3-1.48-3.64,15.17-12.67,43.43-32.13,60.41,0,0-5.59,3.1,9.43,9.96,0,0,24.19-26.62,31-68.89Z"/>
      <path class="cls-2" d="m332.03,244.03s20.29-4.44,34.33-21.97c0,0,.08,29.71-14.89,37.83-20.67,11.21-19.44-15.86-19.44-15.86Z"/>
      <path class="cls-24" d="m309.6,245.84s-26.41-20.59-16.39-44.5c0,0,11.26,19.13,18.16,24.67,0,0-4.19-19.21,24.17-27.79,0,0-6.1,14.29,1.78,26.6,8.71,13.61-1.75,19.55-1.75,19.55,0,0,22.34,13.43,44.12-23.98,0,0,8.38,22.13-6.47,34.03,0,0,15.59.74,26.31,16.81,0,0-33.87-.84-44.38,13.88-13.89,19.44-45.54-39.28-45.54-39.28Z"/>
      <path class="cls-29" d="m334.99,238.39s-4.49-5.67-11.02-3.95c0,0-12.24-7.13-10.76-19.88-2.94,6.22-1.84,11.46-1.84,11.46,0,0,12.45,8.5,10.41,15.88l13.2-3.51Z"/>
    </g>
    <g>
      <g>
        <path class="cls-15" d="m292.23,373.49s-.02,0-.04,0c.04.02.08.05.12.08-.03-.03-.05-.05-.08-.08Z"/>
        <path class="cls-26" d="m347.44,371.4c5.3.53,10.89-1.42,14.5-5.59,4.02-4.63,5.38-10.42,4.64-16.07,6.43-1.42,12.3-5.54,15.31-11.48,3.17-6.25,2.93-13,.32-18.85,4.89-3.26,8.32-8.21,7.82-14.81-.43-5.66-3.44-9.37-7.54-11.62,2.59-4.98,3.13-10.58-.56-16.38-3.51-5.53-8.85-7.91-14.54-8.18,1.96-4.62,2.19-9.68-1.16-14.38-2.87-4.03-7.53-6.07-12.44-5.71-2.89.21-5.39,1.21-7.73,2.58-1.21-6.32-5.54-11.88-12.5-13.73-5-1.33-10.43-.3-14.49,2.85-3.08-4.56-7.82-7.77-13.89-7.61-4.68.12-8.61,2.61-10.96,6.32-5.78-4.25-13.37-5.99-19.68-2.06-5.87,3.66-6.79,9.32-5.47,15.1-5.5-.85-11.21.17-15.01,4.21-4.68,4.98-3.11,11.15.38,16.43-5.54,1.62-10.46,4.84-11.81,10.43-.82,3.39.1,6.56,1.94,9.44-4.32,2.6-7.45,7.07-8.1,12.72-.62,5.34,1.09,10.2,4.21,14-4.15,4.42-6.29,10.17-3.99,17.05,1.73,5.19,5.13,8.79,9.34,11-.26.56-.52,1.13-.73,1.73-1.9,5.51-.73,11.41,3.19,15.75,4.62,5.12,10.44,6.32,16.36,5.6.86,5.99,4.86,10.97,10.54,13.21,4.54,1.79,9.01,1.61,12.9.08,2.76,5.56,7.78,9.74,14.98,10.35,9.81.82,15.74-5.54,18.31-13.52.13.21.23.44.36.65,3.09,4.9,7.32,10.68,13.75,10.62,10.11-.09,12.14-10.8,11.74-20.11Z"/>
        <path class="cls-3" d="m390.03,304.59c-.43-5.66-3.44-9.37-7.54-11.62,2.59-4.98,3.13-10.58-.56-16.38-3.51-5.53-8.85-7.91-14.54-8.18,1.96-4.62,2.19-9.68-1.16-14.38-2.87-4.03-7.53-6.07-12.44-5.71-2.89.21-5.39,1.21-7.73,2.58-.02-.13-.07-.25-.1-.37-.04.21-.07.42-.12.62-.89,3.43-3.32,6.65-6.37,8.45l-.38.23c-3.23,1.9-6.89,2.23-10.48,1.47-.23-.05-.44-.17-.66-.23-.04,7.92-7.9,14.07-15.46,13.64.56.2,1.11.45,1.63.76,3.55,2.12,4.68,6.4,2.84,10.05-2.05,4.08-8.31,5.4-12.09,2.72-1.21-.86-2.37-2.49-3.09-3.91-1.6.89-3.41,1.46-5.2,1.61-1.17,9.25-15.19,14.87-21.22,4.61-.22-.38-.35-.75-.52-1.13-5.81,10.38-22.64,14.74-30.52,1.35-.84-1.42-1.43-2.84-1.84-4.23.23,2.01.95,3.94,2.1,5.74-4.32,2.6-7.45,7.07-8.1,12.72-.62,5.34,1.09,10.2,4.21,14-4.15,4.42-6.29,10.17-3.99,17.05,1.73,5.19,5.13,8.79,9.34,11-.26.56-.52,1.13-.73,1.73-1.9,5.51-.73,11.41,3.19,15.75,4.62,5.12,10.44,6.32,16.36,5.6.86,5.99,4.86,10.97,10.54,13.21,4.54,1.79,9.01,1.61,12.9.08,2.76,5.56,7.78,9.74,14.98,10.35,9.81.82,15.74-5.54,18.31-13.52.13.21.23.44.36.65,3.09,4.9,7.32,10.68,13.75,10.62,10.11-.09,12.14-10.8,11.74-20.11,5.3.53,10.89-1.42,14.5-5.59,4.02-4.63,5.38-10.42,4.64-16.07,6.43-1.42,12.3-5.54,15.31-11.48,3.17-6.25,2.93-13,.32-18.85,4.89-3.26,8.32-8.21,7.82-14.81Zm-110.25,13.21c-.49-.02-.98-.08-1.45-.18-5.73-1.28-7.57-8.42-3.63-12.47,1.2-1.23,3.49-2.43,5.28-2.24,3.85.4,7.79,2.18,8.69,6.37,1.08,5.05-4.22,8.7-8.9,8.53Zm30.91,10.68c-.39,1.8-1.84,3.59-3.4,4.51-1.77,1.04-3.64,1.13-5.6.78.28.05.51.09.69.12-.79-.06-1.57-.17-2.35-.31-4.06-.71-6.08-5.35-5.29-9,.39-1.8,1.84-3.59,3.4-4.51,1.77-1.04,3.64-1.13,5.6-.78-.28-.05-.51-.09-.69-.12.79.06,1.57.17,2.35.31,4.06.71,6.08,5.35,5.29,9Zm2.36-21.33c-1.71,3.41-6.8,4.94-10.05,2.84-.96-.62-1.94-1.23-2.96-1.74-3.69-1.86-4.57-6.61-2.84-10.05,1.85-3.67,6.61-4.58,10.05-2.84,1.02.52,2,1.12,2.96,1.74,3.48,2.25,4.73,6.29,2.84,10.05Zm18.47,23.23c-1.52,3.02-6.24,4.59-9.14,2.58-1.8-1.25-3.01-2.32-4.26-4.13-2.14-3.09-.48-7.33,2.38-9.19,2.92-1.9,6.49-.73,8.61,1.68-.14-.18-.08-.14.24.19.48.41.42.38-.12-.04,0,0,.01.02.02.03,2.85,2.16,3.96,5.51,2.26,8.88Zm5.06-21.06c-1.6,3.18-6.12,4.38-9.14,2.58-.56-.33-1.15-.6-1.71-.93-3.23-1.93-4.25-5.82-2.58-9.14,1.6-3.18,6.12-4.38,9.14-2.58.56.33,1.15.6,1.71.93,3.23,1.93,4.25,5.82,2.58,9.14Zm22.59-8.26c-1.6,3.18-6.12,4.38-9.14,2.58-.56-.33-1.15-.6-1.71-.93-3.23-1.93-4.25-5.82-2.58-9.14,1.6-3.18,6.12-4.38,9.14-2.58.56.33,1.15.6,1.71.93,3.23,1.93,4.25,5.82,2.58,9.14Zm1.59-33.19c-.84,1.67-2.76,3.05-4.53,3.53-1.94.52-3.75.13-5.52-.69-.14-.06-.21-.1-.27-.13-.94-.37-1.88-.73-2.8-1.16-3.75-1.72-4.52-6.71-2.84-10.05.84-1.67,2.76-3.05,4.53-3.53,1.94-.52,3.75-.13,5.52.69.14.06.21.1.27.13.94.37,1.88.73,2.8,1.16,3.75,1.72,4.52,6.71,2.84,10.05Z"/>
        <path class="cls-6" d="m390.03,304.59c-.43-5.66-3.44-9.37-7.54-11.62,2.59-4.98,3.13-10.58-.56-16.38-3.42-5.38-8.57-7.76-14.08-8.14-.09,1.26-.33,2.52-.7,3.73-.85,4.9-4.56,8.92-9.12,10.86,3.44.95,6.24,3.46,8.15,6.39,1.95,2.99,2.4,7.46,1.52,10.86-.92,3.56-3.44,6.89-6.6,8.75l-.57.34c-3.34,1.97-7.14,2.31-10.86,1.52-2.2-.47-4.1-1.64-5.74-3.12,2.44,5.33.25,14.29-10.12,13.5,3.26,7.76-.6,18.81-11.56,18.81-5.01,0-8.53-2.3-10.56-5.54-2.05,1.78-4.81,2.92-8.31,2.92-7.19,0-11.31-4.74-12.38-10.19-.41.58-.86,1.13-1.4,1.63-2.38,2.38-5.92,3.85-9.28,3.85h-.52c-.33,0-.65-.03-.96-.05.44.92.72,1.95.77,3.08.18,3.86-3.5,7.58-7.37,7.41-.45-.02-.9,0-1.35-.02-2.48.41-4.81-.21-6.51-1.7.11.9.2,1.8.32,2.69.55,3.95,1.2,7.92,1.94,11.89-3.42-.66-6.65-2.72-8.95-6.63-2.98-5.07-2.5-10-.16-13.84-5.52,1.57-11.79.11-15.55-6.29-1.97-3.35-2.42-6.64-1.83-9.6-3.75,4.33-5.61,9.83-3.42,16.38,1.73,5.19,5.13,8.79,9.34,11-.26.56-.52,1.13-.73,1.73-1.9,5.51-.73,11.41,3.19,15.75,4.62,5.12,10.44,6.32,16.36,5.6.73,5.07,3.71,9.38,8.05,11.96.3.18.61.35.93.51.51.27,1.02.52,1.57.74,2.84,1.12,5.65,1.47,8.31,1.2,1.59-.16,3.13-.55,4.59-1.12,1.41,2.86,3.62,4.98,5.74,7.27,2.18,2.35,5.22,3.88,8.39,4.3,4.23.56,8.62-.78,12.03-3.34,3.41-2.57,5.86-6.3,7.2-10.35-.36,1.08,5.15,11.89,16.09,10.31,5.25-.76,11.45-4.5,10.71-18.92-.02.32,6.91-2.06,7.47-2.23,2.42-.72,4.34-2.71,6.01-4.63,4.02-4.63,5.38-10.42,4.64-16.07,6.43-1.42,12.3-5.54,15.31-11.48,3.17-6.25,2.93-13,.32-18.85,4.89-3.26,8.32-8.21,7.82-14.81Zm-78.83,54.95c-6.94,1.06-8.58-9.71-1.65-10.77,6.94-1.06,8.58,9.71,1.65,10.77Zm58.91-81.64c2.27-2.11,6.27-1.32,8.16.91,2.73,3.23.91,10.79-4.06,10.33-1.61-.15-3.17-1.98-4.13-4.16-1.15-2.6-1.45-5.7.04-7.08Zm-20.8,46.64c6.94-1.06,8.58,9.71,1.65,10.77-6.94,1.06-8.58-9.71-1.65-10.77Zm-24.28,47.09c-1.17,0-2.34-.41-3.43-1.32-1.05-.89-1.59-2-1.74-3.19-.05-.4-.05-.81-.01-1.22.38-4.13,4.8-8.73,9.13-8.85.87-.02,1.73.13,2.55.51,6.19,2.81-.18,14.13-6.51,14.08Zm16.87,7.8c-.16.38-.35.76-.57,1.12-.43.72-.98,1.39-1.6,1.96-.93.85-2.05,1.48-3.24,1.74-.4.09-.81.13-1.22.13-.42,0-.84-.05-1.26-.16-.42-.1-.85-.26-1.28-.47-.43-.22-.8-.46-1.13-.74-2.6-2.19-2.02-6.07.08-8.71.26-.33.55-.64.86-.93,1.23-1.14,2.79-1.88,4.48-1.86.84.01,1.72.22,2.59.66.66.33,1.16.75,1.58,1.21.23.25.43.51.6.79.32.55.55,1.14.64,1.77.05.38.07.77.04,1.16-.05.78-.25,1.58-.57,2.34Zm15.79-21.44c-.5,1.94-1.44,3.29-2.62,4.16-.18.13-.36.24-.55.35-.09.05-.19.11-.28.16-.19.1-.38.19-.58.26-.1.04-.19.07-.29.1-.66.22-1.37.34-2.09.37-.12,0-.25,0-.37,0-.2,0-.41-.01-.61-.03-.15-.01-.29-.03-.44-.05-.19-.02-.39-.05-.58-.08-.27-.05-.54-.12-.81-.19-.19-.05-.38-.11-.58-.18-.2-.07-.41-.14-.61-.22-.15-.06-.3-.12-.44-.19-.21-.09-.42-.19-.63-.3-.12-.06-.25-.12-.37-.19-.32-.18-.64-.37-.94-.57-.05-.04-.1-.08-.15-.11-.26-.18-.52-.37-.76-.58-.09-.08-.18-.16-.27-.24-.21-.18-.41-.37-.6-.56-.08-.08-.16-.16-.24-.24-.26-.27-.5-.56-.73-.85-.41-.56-.78-1.16-1.07-1.79-.15-.32-.28-.64-.4-.97-.58-1.64-.71-3.43-.23-5.09,0,0,0,0,0,0,.11-.36.23-.7.37-1.01.04-.1.1-.2.14-.3.1-.21.2-.41.32-.6.06-.1.13-.2.19-.29.11-.17.23-.33.36-.48.07-.08.14-.17.21-.25.14-.15.29-.29.44-.42.07-.06.13-.12.2-.17.22-.18.46-.34.7-.47,0,0,0,0,.01,0,.24-.13.49-.25.75-.35.08-.03.15-.05.23-.08.19-.06.38-.12.58-.17.09-.02.18-.04.27-.05.2-.04.4-.07.61-.09.08,0,.16-.02.25-.02.24-.02.49-.02.73-.01.05,0,.09,0,.14,0,.62.03,1.25.12,1.88.27.03,0,.07.02.1.03.28.07.56.15.84.25.05.02.09.03.14.05.28.1.55.2.83.32.03.01.07.03.1.04.94.42,1.86.95,2.7,1.59,3.01,2.27,5.09,5.75,4.18,9.24Zm20.24-28.63c-3.34,3.83-9.38,2.26-13.42-1.28-3.15-2.76-5.08-6.71-3.54-10.21,2.08-4.74,9.31-3.73,12.79-1.39,3.61,2.42,7.68,8.85,4.17,12.88Zm-3.05-18.01c-2.58-1.72-3.09-4.46-2.38-6.99,1.24-4.42,6.21-8.24,10.52-5.04,2.04,1.52,3.06,4.21,2.81,6.74-.54,5.26-6.27,8.42-10.94,5.29Z"/>
        <path class="cls-4" d="m303.05,319.16c-.5-.04-1.27-.21,0,0h0Z"/>
        <path class="cls-4" d="m302.38,333.88c.5.04,1.27.21,0,0h0Z"/>
        <path class="cls-25" d="m265.41,329.37c-.37.04-1.17.07-2.26.07.05.7.12,1.39.18,2.08.68-.94,1.56-1.72,2.58-2.22-.17.02-.33.04-.5.06Z"/>
      </g>
      <path class="cls-11" d="m318.46,264.44s.02-.05.03-.07c1.06-1.54,1.53-3.46.93-5.34-1.05-3.29-4.46-5.66-7.96-4.74-.83.12-1.65.4-2.42.81-2.8,1.34-4.87,4.64-3.78,7.78,1.07,3.07,3.53,5.27,6.88,5.27,2.58,0,5.05-1.44,6.31-3.69Z"/>
      <path class="cls-11" d="m290.72,253.19c1.5-2.21.99-4.79-.04-7.04-.89-1.95-3.65-3.46-5.76-3.29-.27.02-.53.06-.8.1-.58-.03-1.18,0-1.82.18-1.6.43-3.33,1.68-4.09,3.18-1.47,2.91-.88,7.65,2.56,9.07.29.12.58.24.87.36,1.59.66,3.25,1.17,4.99.62,1.79-.57,3.03-1.63,4.09-3.18Z"/>
      <path class="cls-11" d="m298.72,269.19c.75-3.5-1.16-7.23-4.78-8.12l-1.83-.45c-3.39-.84-7.36,1.23-8.12,4.78-.75,3.5,1.16,7.23,4.78,8.12l1.83.45c3.39.84,7.36-1.23,8.12-4.78Z"/>
      <path class="cls-11" d="m312.12,240.47c-1.03-2.65-3.85-4.23-6.63-3.29l-.5.17c-2.59.87-4.31,3.99-3.29,6.63,1.03,2.65,3.85,4.23,6.63,3.29l.5-.17c2.59-.87,4.31-3.99,3.29-6.63Z"/>
      <path class="cls-12" d="m339.91,273.45c-1.25-3.24-4.71-5.17-8.11-4.02l-.61.2c-3.17,1.07-5.27,4.88-4.02,8.11,1.25,3.24,4.71,5.17,8.11,4.02l.61-.2c3.17-1.07,5.27-4.88,4.02-8.11Z"/>
      <path class="cls-12" d="m262.88,282.46c-1.25-3.24-4.71-5.17-8.11-4.02l-.61.2c-3.17,1.07-5.27,4.88-4.02,8.11,1.25,3.24,4.71,5.17,8.11,4.02l.61-.2c3.17-1.07,5.27-4.88,4.02-8.11Z"/>
      <path class="cls-11" d="m273.1,266.13c-1.03-2.65-3.85-4.23-6.63-3.29l-.5.17c-2.59.87-4.31,3.99-3.29,6.63,1.03,2.65,3.85,4.23,6.63,3.29l.5-.17c2.59-.87,4.31-3.99,3.29-6.63Z"/>
    </g>
  </g>
  <g>
    <path class="cls-22" d="m449.2,356.84c-1.08-11.54-6.55-22.52-16.5-30.3-9.76-7.62-22.38-11.77-34.78-10.95-25.7,1.69-49.55,24.94-46.32,51.32,1.07,8.74,5.02,16.32,10.55,22.55,14.1,15.9,69.76,12.53,79.31-2.09,6.1-9.33,8.69-20.15,7.72-30.53Z"/>
    <path class="cls-19" d="m426.91,331.67c-2.81-9.94-22.52-14.03-36.97-9.55-13.85,4.29-27.31,17.82-24.63,27.09,2.92,10.12,24.93,14.72,40.8,8.16,11.32-4.68,23.38-16.63,20.81-25.7Zm-28.85,11.23c-6.01,2.19-13.66-.18-14.18-3.19-.48-2.78,5.13-6.04,8.75-7.37,5.03-1.85,12.49-2.27,13.77.59,1.2,2.68-3.16,8.1-8.34,9.98Z"/>
    <path class="cls-7" d="m394.07,335.44c2.19-.71,4.35-.1,4.82,1.36.48,1.46-.91,3.23-3.1,3.94-2.19.71-4.35.1-4.82-1.36-.48-1.46.91-3.23,3.1-3.94Z"/>
    <g>
      <path class="cls-23" d="m369.51,335.69c-3.02-2.21,8.67-11.43,10.63-8.84,2.17,2.86-7.65,11.02-10.63,8.84Z"/>
      <path class="cls-23" d="m388.29,325.29c-.21,1.53-1.51,2.61-2.89,2.42-1.39-.19-2.34-1.58-2.13-3.11.21-1.53,1.51-2.61,2.89-2.42,1.39.19,2.34,1.58,2.13,3.11Z"/>
    </g>
  </g>
  <g>
    <path class="cls-9" d="m482.82,381.3s9.63-9.25,6.63-14.11c-2.65-4.28-15.16,2.36-15.16,2.36.03-6.68-2.78-13.16-6.69-12.99-3.69.16-6.44,8.55-5.93,11.97-6.29-.03-10.75,3.05-11.06,6.5-.37,4.08,3.42,8.14,8.89,10.02-2.55,4.61-2.42,11.76,1.34,13.7,6.2,3.2,12.07-5.69,12.07-5.69,0,0,18.71,3.79,21.49-1.6,4.03-7.81-11.59-10.14-11.59-10.14Z"/>
    <path class="cls-31" d="m442.65,448.69c14.74-.73,32-5.3,38.94-19.66,5.95-12.32,5.42-27.07.04-39.48-4.53-10.44-12.56-19.3-22.83-24.32-3.88-1.9-13.4-5.4-25.14-4.03-15.8,1.84-29.81,12.08-37.3,25.98-8.74,16.22-6.26,35.76,5.62,49.87,7.49,8.89,23.27,11.29,34.36,11.69,2.1.08,4.21.06,6.31-.04Z"/>
    <path class="cls-17" d="m456.6,374.69c-9.41-10.59-28.64-7.67-39.93-.26-14.15,9.29-22.68,34.61-11.09,47.3,7.7,8.43,31.62,7.43,46.57-8.07,9.9-10.27,12.46-29.95,4.45-38.97Z"/>
    <path class="cls-23" d="m409.1,381.95c-3.67-2.21,10.44-13.69,12.1-10.36,1.92,3.84-8.48,12.54-12.1,10.36Z"/>
    <path class="cls-23" d="m406.38,389.07c.03,1.76-1.25,3.21-2.86,3.24-1.6.02-2.92-1.39-2.95-3.15s1.25-3.21,2.86-3.24c1.6-.02,2.92,1.39,2.95,3.15Z"/>
  </g>
  <g>
    <path class="cls-22" d="m339.7,432.47c-10.32,13.29-11.01,31.73-4.33,46.8,7.09,15.98,30.07,21.78,46,21.32,8.4-.24,16.98-1.83,24.71-5.18,28.48-12.33,23.44-49.74,4.38-68.29-21-20.44-51.52-19.44-70.77,5.35Z"/>
    <path class="cls-8" d="m340.13,468.66c7.78,7.54,27.58,1.98,37.88-9.69,9.56-10.83,13.64-30,5.3-37.23-7.86-6.81-24.27-.9-33.39,7.37-12.02,10.9-17.84,31.75-9.78,39.55Z"/>
    <path class="cls-28" d="m337.61,449.93c-3.99-.74,3.1-15.25,6.23-13.64,3.46,1.78-2.29,14.36-6.23,13.64Z"/>
    <path class="cls-28" d="m351.08,430.94c.51,1.59-.25,3.26-1.69,3.72-1.45.47-3.03-.45-3.55-2.04-.51-1.59.25-3.26,1.69-3.72s3.03.45,3.55,2.04Z"/>
  </g>
  <g>
    <g>
      <path class="cls-26" d="m184.9,410.72c-4.61-.4-8.61-2.97-11.84-6.56-3.49,3.56-8.4,5.37-13.92,3.71-4.25-1.27-7.63-4.96-9.23-9.08-.05-.12-.06-.24-.1-.36-.14-.05-.28-.09-.42-.13-3.37,2.45-7.26,3.76-11.05,2.67-2.31-.67-10.56-6.5-9.06-15.13-16.53,6.44-24.35-8.59-23.42-15.34-14.85-1.69-20.5-19.5-14.12-29.04-6.11-6.68-7.73-11.52-7.17-16.73,1.34-12.56,10.59-15.34,17.9-15.46.09-.13-6.05-14.14,2.05-24.37,4.99-6.33,17.82-9.11,23.83-4.67.62-6.48,5.79-13.52,11.23-16.22,7.01-3.47,14.94-2.89,19.67,2.17,1.04-8.08,9.18-14.38,17.15-14.33,6.94.03,14.6,4.71,18.19,11.28,5.09-3.6,12.94-3.76,18.48-1.23,7.39,3.37,12.88,12.95,10.65,21.04.39.46,12.05-1.72,16.97,10.59,3.28,8.22,1.9,16.87-3.35,21.94,2.39-.08,12.26,6.42,12.27,20.36.01,8.82-3.87,14.37-10.51,17.61,5.19,5.25,7.45,12.45,3.64,19.23-3.59,6.39-11.09,9.77-18.08,8.88.75,9.06.13,14.84-8.48,18.29-4.31,1.72-9.4,2.11-14.23,1.21-2.4,6.31-8.84,10.38-17.04,9.67Z"/>
      <path class="cls-1" d="m237.32,315.46c5.25-5.07,6.64-13.72,3.35-21.94-4.91-12.31-16.58-10.13-16.97-10.59,2.22-8.09-3.26-17.67-10.65-21.04-5.54-2.53-13.38-2.37-18.48,1.23-3.59-6.57-11.25-11.24-18.19-11.28-7.97-.05-16.12,6.25-17.15,14.33-4.73-5.06-12.66-5.63-19.67-2.17-2.1,1.04-4.16,2.74-5.93,4.8,9.33-3.89,22.93,14.43,2.51,29.19,3.73,1.97,8.29,7.22,8.41,11.76.1,3.81-5.71,9-9.62,8.22,5.12,1.03,9.09,6.15,8.8,11.37-.29,5.22-5.15,7.79-10.68,7.83,1.84,2.62,4.25,10.15.33,14.45-4.29,4.71-13.16,4.21-18-.06-.82-.73-5.47-4.57-5.47-5.63.03,7.86-2.36,17.26-4.07,24.56-.72,8.64,8.08,21.31,23.42,15.34-1.5,8.63,6.75,14.46,9.06,15.13,3.79,1.1,7.68-.21,11.05-2.67.14.04.28.08.42.13.04.12.06.24.1.36,1.6,4.12,4.98,7.81,9.23,9.08,5.51,1.66,10.43-.15,13.92-3.71,3.23,3.59,7.23,6.15,11.84,6.56,8.19.71,14.64-3.36,17.04-9.67,4.83.9,9.93.51,14.24-1.21,8.61-3.45,9.23-9.24,8.48-18.29,6.99.89,14.49-2.5,18.08-8.88,3.81-6.79,1.55-13.99-3.64-19.23,6.64-3.23,10.52-8.79,10.51-17.61-.02-13.94-9.88-20.44-12.27-20.36Zm-77.5,38.11c-6.57,9.4-20.51-6.77-7.06-11.16.15-.05.28-.11.43-.15,3.14-.82,7.24,1.59,7.64,4.94.25,2.13.28,4.53-1.01,6.38Zm.58-25.25c-1.01,2.12-2.66,3.82-5,4.44-3.34.87-6.97-1.64-7.64-4.94-.45-2.2-.67-4.7.1-6.87,1.1-3.09,3.47-5,6.57-5.86,6.54-1.8,8.75,7.34,5.96,13.23Zm-9.86-23.67c-3.15-2.11-3.56-6.74-1.09-10.38,3.21-4.74,11.48-2.42,12.94,2.63,1.54,5.29-3.32,9.09-8.11,8.89-1.51-.06-2.76-.48-3.74-1.14Zm15.9-23.78c-.65,1.81-2.27,3.3-5.19,3.8-8.63,1.47-11.17-9.78-3.13-12.64,5.57-1.98,9.91,4.38,8.32,8.84Zm21.41-9.75c-1.82,5.07-8,6.11-12.13,3.22-4.33-3.03-4.07-9.16.14-12.11,5.94-4.15,14.5,1.9,11.99,8.89Z"/>
      <path class="cls-16" d="m237.32,315.46c5.25-5.07,6.64-13.72,3.35-21.94-4.91-12.31-16.58-10.13-16.97-10.59-.62-.74-.08-8.46-.82-10.38-1.27-3.28-3.55-6.44-6.37-8.56-6.88-5.15-15.27-2.94-15.56,6.79-.11,3.79,1.79,7.57,4.91,9.73-3.3-1.92-6.72-3.89-10.51-4.32-3.79-.43-8.09,1.08-9.72,4.53-1.19,2.5-.76,5.53.47,8.01,1.22,2.48,3.16,4.53,5.06,6.54-6.92-4.54-18.38.69-20.89,8.19-2.65,7.94,3.94,17.5,12.31,17.84-7.26,1.85-12.54,9.51-11.68,16.96.86,7.44,7.75,13.7,15.24,13.84-4.48-.74-10.44,7.02-8.03,14.97,3.31,10.92-15.55,12.18-18.55.07-4.26,9.44-13.71,13.91-20.14,2.73-1.17,3.53-12.51,13.25-17.53-1.82-6.71,2.2-10.57,8.18-16.02,2.44-.93,6.74,6.88,21.77,23.42,15.33-1.5,8.63,6.75,14.46,9.06,15.13,3.79,1.1,7.68-.21,11.05-2.67.14.04.28.08.42.13.04.12.06.24.1.36,1.6,4.12,4.98,7.81,9.23,9.08,5.51,1.66,10.43-.15,13.92-3.71,3.23,3.59,7.23,6.15,11.84,6.56,8.19.71,14.64-3.36,17.04-9.67,4.83.9,9.93.51,14.24-1.21,8.61-3.45,9.23-9.24,8.48-18.29,6.99.89,14.49-2.5,18.08-8.88,3.81-6.79,1.55-13.99-3.64-19.23,6.64-3.23,10.52-8.79,10.51-17.61-.02-13.94-9.88-20.44-12.27-20.36Zm-72.01,85.45c-1.3.75-2.81.75-4.15.24-2.08-.32-3.78-1.86-4.35-4.02-.7-2.68,1.32-5.67,4-6.19,2.75-.53,5.32.39,6.71,2.94,1.4,2.56.19,5.64-2.21,7.03Zm22.79,1.7c-.19.11-.39.21-.6.3-4.02,1.67-9.28-2.14-7.99-6.74.82-2.91,3.92-3.88,6.58-3.32-1.85-.39,1.48.24,1.23.18,4.83,1.11,4.33,7.48.78,9.57Zm-5.64-59.49c-.77-.78-1.28-1.66-1.68-2.58-.52-.42-.98-.95-1.34-1.58-1.37-2.38-.25-5.86,2.21-7.03.79-.38,1.61-.65,2.44-.81.66-.16,1.34-.23,2.01-.2.02,0,.11.01.2.02,1.62.07,3.22.58,4.62,1.61,2.8,2.05,4.12,5.33,4.02,8.74-.08,2.66-2.76,5.26-5.5,4.9-2.63-.35-5.06-1.15-6.97-3.08Zm13.81,30.46c-1.63,1.5-4.23,2.17-6.35,1.36-5.43-2.08-6.41-12-.08-13.65,6.43-1.68,11.65,7.51,6.43,12.29Zm36.69-73.83c-.03,5.5-3.44,11.61-10.11,9.2-9.33-3.36-3.78-14.74,3.64-16.56,4.36-1.07,6.5,2.95,6.47,7.36Z"/>
      <path class="cls-30" d="m209.58,299.45s-1.16,17.71,13.06,21.39c0,0-12.56,14.76,1.26,30.77,0,0-9.09,6.15-8.26,19.01,0,0-5.93-12.33-19.16-13.24,0,0,16.02-18.59-4.82-30.66,0,0,9.2-8.84,3.61-20.26,0,0,10.45,4.11,14.32-7Z"/>
    </g>
    <path class="cls-12" d="m137.28,289c.03-.15.06-.31.08-.47.68-5.17-7.12-6.84-9.96-3.38-1.62,1.98-2.01,5.37-.12,7.27,3.38,3.4,9.06,1.1,10-3.42Z"/>
    <path class="cls-11" d="m102.44,322.03c-1.43-1.87-3.73-2.15-5.89-1.92-1.87.2-3.9,2.09-4.34,3.9-.06.23-.1.46-.14.69-.18.48-.32.99-.36,1.57-.08,1.45.48,3.25,1.53,4.3,2.03,2.03,6.14,2.86,8.29.37.18-.21.36-.42.54-.63.99-1.15,1.88-2.39,1.9-3.99.02-1.66-.52-2.98-1.53-4.3Z"/>
    <path class="cls-12" d="m125.91,303.02c-7.02-4.12-12.9,6.29-6.07,10.3,6.75,3.97,12.78-6.36,6.07-10.3Z"/>
    <path class="cls-12" d="m108.54,293.82c-1.98.1-3.64,1.62-3.63,3.67v.36c.01,1.91,1.7,3.73,3.67,3.63,1.98-.1,3.64-1.62,3.63-3.67v-.36c-.01-1.91-1.7-3.73-3.67-3.63Z"/>
    <path class="cls-10" d="m125.33,324.54c-2.97.15-5.46,2.43-5.45,5.5v.55c.02,2.86,2.55,5.59,5.5,5.45,2.96-.15,5.46-2.43,5.45-5.5v-.55c-.02-2.86-2.55-5.59-5.5-5.45Z"/>
    <path class="cls-11" d="m104.05,343.8c-2.94.15-5.42,2.41-5.41,5.46v.54c.02,2.84,2.53,5.56,5.46,5.41,2.94-.15,5.42-2.41,5.41-5.46v-.54c-.02-2.84-2.53-5.56-5.46-5.41Z"/>
  </g>
  <g>
    <g>
      <path class="cls-9" d="m133.71,451.31s-12.47,3.63-15.11-1.26c-2.33-4.31,9.34-11.63,9.34-11.63-5.65-3.22-9.74-8.74-7.7-11.94,1.93-3.03,10.34-1.28,12.97.81,3.03-5.31,7.78-7.58,10.85-6.17,3.62,1.67,5.2,6.84,4.13,12.36,5.12.09,11.08,3.67,10.89,7.78-.31,6.78-10.66,7.41-10.66,7.41,0,0-5.89,17.61-11.77,17.34-8.53-.39-2.93-14.69-2.93-14.69Z"/>
      <g>
        <path class="cls-31" d="m175.56,377.8c-25.86,3-46.25,28.7-41.34,56.17,2.49,13.92,12.18,25.58,25.72,29.36,14.77,4.13,31.7,3.72,43.05-1.23,13.13-5.74,21.86-17.1,23.78-33.54,2.62-22.42-10.98-39.12-26.76-46.84-3.77-1.84-13.03-5.25-24.45-3.92Z"/>
        <path class="cls-17" d="m159.04,390.66c-15.7,10.31-23.52,34.74-13.63,46.16,9.35,10.78,32.57,7.74,45.2-4.49,10.7-10.36,17.02-30.43,7.26-41.42-9.15-10.3-27.85-7.46-38.83-.25Z"/>
      </g>
    </g>
    <path class="cls-28" d="m151.67,397.98c-3.57-2.15,8.49-13.53,10.92-10.85,2.68,2.96-7.4,12.97-10.92,10.85Z"/>
    <path class="cls-28" d="m149.03,404.9c.03,1.72-1.22,3.12-2.78,3.15-1.56.02-2.84-1.35-2.87-3.06s1.22-3.12,2.78-3.15c1.56-.02,2.84,1.35,2.87,3.06Z"/>
  </g>
  <g>
    <path class="cls-18" d="m301.36,385.98c-17.22-4.84-37.82.69-52.35,10.12-27.57,17.89-55.67,60.23-37.23,93.32,20.02,35.94,103.84,49.33,128.38,14.8,13.43-18.9,11.79-44.33,4.83-65.34-6.97-21.03-20.79-46.48-43.63-52.9Z"/>
    <path class="cls-14" d="m284.25,394.93c-42.44,1.33-76.62,51.38-63.72,85.12,14.89,38.95,91.36,38.6,107.58,19.88,25.45-29.36-7.59-106.14-43.86-105Z"/>
    <path class="cls-5" d="m320.26,447.84c-.93-7.4-28.86-9.17-28.86-9.17,0,0,21.26-6.27,20.83-11.99-.45-5.99-36.35-3.31-36.35-3.31,0,0,20.41-8.69,20.3-14.15-.11-5.46-39.99,2.79-39.99,2.79,0,0,20.44-10.44,17.09-14.21-2.52-2.84-24.29,2.63-38.52,20.65-3.13,3.97-7.16,9.24-7.91,10.54-3.65,6.35-13.37,31.59-7.47,34.16,4.07,1.77,9.97-6.79,13.25-12.28-.26,11.94.07,29.4,4.27,30.13,6.4,1.12,11.76-23.24,11.76-23.24,0,0,5.82,36.88,10.85,36.54,6.59-.44,7.17-21.08,7.17-21.08,0,0,15.16,32.09,21.62,29.63,4.29-1.64,2.17-12.46.36-18.55,12.16,9.41,29.9,9.5,32.83,4.49,3.81-6.51-2.14-17.62-12.37-31.39,4.87-.54,11.63-5.7,11.15-9.58Z"/>
    <path class="cls-20" d="m248.11,429.02c16.9-17.5,62.78,42.64,60.11,46.29-3.2,4.37-76.83-28.97-60.11-46.29Z"/>
    <path class="cls-21" d="m266.37,434.6s14.93,12.01,9.39,18.45c-5.55,6.44-21.79-7.12-19.79-8.59.85-.62,12.34,8.15,15.31,4.4,2.09-2.64-7.45-13.03-4.91-14.26Z"/>
    <path class="cls-13" d="m227.68,409.96s-2.34-15.17,10.95-40.53c0,0,13.14,24.05.53,39.47,0,0,12.43-4.36,24.56,6.21,0,0-10.81,13.16-28.27,3.52,0,0,8.73,25.19-2.45,36.55,0,0-9.76-20.13-6.85-30.01,0,0-12.65,22.4-38.75,14.02,0,0,9.01-17.67,38.16-25.03,0,0-13.31-5.9-25.14-8.33l3.83-11.13s15.52,5.09,23.44,15.25Z"/>
  </g>
</svg>