<?xml version="1.0" encoding="UTF-8"?>
<svg xmlns="http://www.w3.org/2000/svg" xmlns:xlink="http://www.w3.org/1999/xlink" viewBox="0 0 540 540">
  <defs>
    <style>
      .cls-1 {
        fill: #b68918;
      }

      .cls-2 {
        isolation: isolate;
      }

      .cls-3 {
        fill: #c9c9c9;
        mix-blend-mode: overlay;
        opacity: .53;
      }

      .cls-4 {
        clip-path: url(#clippath);
      }

      .cls-5 {
        fill: none;
      }

      .cls-6 {
        fill: #ffdf5a;
      }

      .cls-7 {
        fill: #ffe771;
      }
    </style>
    <clipPath id="clippath">
      <path class="cls-5" d="m440.94,372.78c-80.42,9.31-137.11-21.12-196.36-77.59-35.29-33.62-57.97-86.72-69.15-118.29-2.17-8.51-4.27-17.2-6.28-26.06-5.15-22.71-9.3-44.68-12.62-65.79-4.67,0-9.31-2-19.94,4.65.68,8.11,3.13,40.52-2.53,51.27-.29.55-3.23,6.03-7.28,13.09-1.72,3-3.14,5.42-4.02,6.9,8.97,1.38,13.13,4.65,15.27,7.49.59.78,3.67,3.12,4.79,7.06.32,1.13.69,2.11,1.1,2.93,9.24,105.55,72.06,167.14,156.8,198.32,95.69,35.23,125.6,8.64,125.6,8.64,0,0,7.11-4.97,15.19-10.5l-.56-2.13Z"/>
    </clipPath>
  </defs>
  <g class="cls-2">
    <g id="_Layer_" data-name="&amp;lt;Layer&amp;gt;">
      <path class="cls-7" d="m440.94,372.78c-27.6,3.19-52.41,1.71-75.49-3.91-63.41-15.43-101.99-54.23-120.87-73.68-43.25-44.55-62.67-93.74-69.15-118.29-.99-3.74-3.55-14.02-6.28-26.06-6.3-27.77-10.24-50.62-12.62-65.79-4.67,0-9.31-2-19.94,4.65.68,8.11,3.13,40.52-2.53,51.27-.29.55-3.23,6.03-7.28,13.09-1.72,3-3.14,5.42-4.02,6.9,0,0,0,0,0,0-13.58,22.33-33.34,65.41-30.7,124.1,3.47,76.82,80.5,154.83,179.42,168.12,66.8,8.96,121.61-11.96,168.12-54.49,2.67-6.64,3.99-15.95,3.99-15.95l-2.65-9.96Z"/>
      <path class="cls-6" d="m440.94,372.78c-13.38,11-35.45,26.09-65.72,34.05-64.38,16.92-135.88-6.33-181.65-54.19-50.07-52.35-65.84-130.46-41.22-201.5-2.83-21.69-5.66-43.39-8.49-65.08-2.08.75-4.46,1.89-7.27,3.64.68,8.11,3.13,40.52-2.53,51.27-.29.55-3.23,6.03-7.28,13.09-1.72,3-3.14,5.42-4.02,6.9,0,0,0,0,0,0-13.58,22.33-33.34,65.41-30.7,124.1,3.47,76.82,80.5,154.83,179.42,168.12,66.8,8.96,121.61-11.96,168.12-54.49.06-.16.12-.32.18-.48,1.89-4.91,3.08-11.07,3.56-13.91.08-.49.15-.88.19-1.15.04-.27.06-.41.06-.41l-2.65-9.96Z"/>
      <path class="cls-3" d="m102.61,260.59c-2.54,25.73,5.76,68.36,32.87,103.64,27.09,35.24,39.3,13.98,21.28-15.87-18.05-29.85-24.82-49.51-29.79-74.64-5.8-29.38-21.06-46.47-24.37-13.14Z"/>
      <g class="cls-4">
        <path class="cls-1" d="m118.01,81.69c2.54,8.65,5.09,17.3,7.63,25.95,3.66,1.35,11.05,3.45,19.84,1.53,3.38-.74,6.19-1.91,8.4-3.05,2.29,5.09,4.58,10.18,6.87,15.27,2.04-6.61,4.07-13.23,6.11-19.84-1.27-9.92-2.54-19.84-3.82-29.77-15.01,3.31-30.02,6.61-45.03,9.92Z"/>
      </g>
      <path class="cls-1" d="m440.94,372.78c-3.25.17-13.28,9.31-14.62,12.63-1.33,3.33,9.89,12.95,13.28,13.28,4.58-2.56,8.4-8.94,8.56-12.78.18-3.75-3.49-13.32-7.22-13.13Z"/>
    </g>
  </g>
</svg>