<?xml version="1.0" encoding="UTF-8"?>
<svg xmlns="http://www.w3.org/2000/svg" xmlns:xlink="http://www.w3.org/1999/xlink" viewBox="0 0 540 540">
  <defs>
    <style>
      .cls-1 {
        isolation: isolate;
      }

      .cls-2 {
        clip-path: url(#clippath-1);
      }

      .cls-3 {
        fill: #c9c9c9;
        opacity: .53;
      }

      .cls-3, .cls-4 {
        mix-blend-mode: overlay;
      }

      .cls-4 {
        fill: #515151;
      }

      .cls-5 {
        clip-path: url(#clippath);
      }

      .cls-6 {
        fill: none;
      }

      .cls-7 {
        fill: #476824;
      }

      .cls-8 {
        fill: #cbc583;
      }

      .cls-9 {
        fill: #5f8f30;
      }

      .cls-10 {
        fill: #e8e6c6;
      }
    </style>
    <clipPath id="clippath">
      <path class="cls-6" d="m94.53,186.35c-16.79,57.97,11.51,117.12,63.25,132.12,51.7,14.98,107.29-19.86,124.06-77.81,16.81-57.98-11.5-117.14-63.25-132.13-51.7-14.99-107.28,19.86-124.06,77.83Z"/>
    </clipPath>
    <clipPath id="clippath-1">
      <path class="cls-6" d="m230.39,279.97c-18.75,64.73,12.86,130.78,70.62,147.52,57.73,16.73,119.8-22.17,138.53-86.89,18.77-64.74-12.84-130.8-70.62-147.54-57.72-16.74-119.79,22.17-138.53,86.91Z"/>
    </clipPath>
  </defs>
  <g class="cls-1">
    <g id="_Layer_" data-name="&amp;lt;Layer&amp;gt;">
      <g>
        <g>
          <path class="cls-7" d="m83.26,190.55c-12.66,53.98,13.68,120.3,70.18,138.53,60.13,19.41,125.39-25.02,142.18-84.3,16.87-59.59-15.83-132.12-77.92-146.73-61.25-14.41-120.86,34.66-134.43,92.51Z"/>
          <path class="cls-9" d="m91.51,185.48c-17.56,60.61,12.05,122.44,66.14,138.12,54.08,15.69,112.16-20.73,129.72-81.37,17.56-60.61-12.03-122.45-66.14-138.13-54.06-15.67-112.16,20.77-129.72,81.38Z"/>
          <path class="cls-10" d="m94.53,186.35c-16.79,57.97,11.51,117.12,63.25,132.12,51.7,14.98,107.29-19.86,124.06-77.81,16.81-57.98-11.5-117.14-63.25-132.13-51.7-14.99-107.28,19.86-124.06,77.83Z"/>
          <g class="cls-5">
            <path class="cls-4" d="m93.65,169.62c-36.2,82.33,6.8,163.62,57.42,177.27,47.17,12.72,118.46-28.57,137.24-108.1-5.75,7.83-15.68,19.27-31.09,28.53-44.82,26.93-92.7,9.34-96.58,7.84-8.54-3.3-33.75-13.46-51.33-40.9-17.83-27.84-16.46-55.76-15.66-64.64Z"/>
          </g>
          <g>
            <g>
              <path class="cls-8" d="m179.2,280.39c.45-2.27.98-5.62,1.11-9.69.5-16.25-5.69-37.52-15.18-38.71-1.48-.18-7.6-.45-16.35,13.49-13.45,3.66-15.99,8.08-16.44,10.72-1.6,9.27,17.84,23.57,37.1,24.72,3.96.24,7.33-.12,9.77-.53Z"/>
              <path class="cls-3" d="m162.15,270.15c2.17-7.18-17.47-27.04-24.79-14.5-4.03,6.94,15.33,22.56,24.79,14.5Z"/>
              <path class="cls-3" d="m174.56,263.76c5.29-5.76-3.67-32.3-16.23-23.69-6.92,4.76,3.78,27.27,16.23,23.69Z"/>
            </g>
            <g>
              <path class="cls-8" d="m188.77,280.99c2.31-.11,5.69-.42,9.67-1.29,15.88-3.48,35-14.67,33.83-24.17-.18-1.48-1.42-7.48-17.08-12.57-6.83-12.15-11.74-13.54-14.41-13.33-9.38.72-18.5,23.06-14.91,42.01.74,3.9,1.91,7.08,2.9,9.34Z"/>
              <path class="cls-3" d="m194.54,261.96c7.49.35,21.96-23.54,8.01-27.58-7.71-2.21-18.13,20.37-8.01,27.58Z"/>
              <path class="cls-3" d="m203.76,272.43c6.88,3.73,30.43-11.44,19.01-21.52-6.3-5.55-25.52,10.32-19.01,21.52Z"/>
            </g>
          </g>
          <g>
            <g>
              <path class="cls-8" d="m135.97,176.51c1.48,1.78,3.76,4.29,6.85,6.94,12.35,10.59,32.79,19.11,39.67,12.46,1.07-1.03,5.12-5.64-.25-21.2,5.59-12.77,3.74-17.52,1.97-19.53-6.22-7.06-29.55-.89-42.52,13.39-2.67,2.94-4.5,5.78-5.71,7.94Z"/>
              <path class="cls-3" d="m154.64,169.65c4.24,6.19,32.01,3.36,26.84-10.21-2.88-7.49-27.19-2.21-26.84,10.21Z"/>
              <path class="cls-3" d="m151.83,183.32c1.17,7.74,27.46,17.4,28.63,2.22.64-8.37-23.6-14.16-28.63-2.22Z"/>
            </g>
            <g>
              <path class="cls-8" d="m129.49,183.58c-1.36,1.87-3.24,4.69-5.06,8.34-7.25,14.56-10.53,36.46-2.4,41.51,1.26.78,6.72,3.59,20.5-5.42,13.75,2.31,17.9-.65,19.42-2.86,5.33-7.76-6.35-28.87-23.36-37.97-3.5-1.87-6.71-2.95-9.1-3.6Z"/>
              <path class="cls-3" d="m140.7,200.01c-4.97,5.62,4.55,31.87,16.45,23.54,6.56-4.62-4.49-26.9-16.45-23.54Z"/>
              <path class="cls-3" d="m126.76,200.63c-7.22,3.02-10.18,30.87,4.84,28.3,8.27-1.43,7.98-26.35-4.84-28.3Z"/>
            </g>
          </g>
          <g>
            <g>
              <path class="cls-8" d="m245.78,189.33c-2.19.74-5.36,1.94-8.95,3.86-14.34,7.66-29.71,23.62-26.01,32.44.58,1.37,3.39,6.82,19.85,7.46,9.87,9.85,14.97,9.84,17.48,8.92,8.84-3.23,11.56-27.21,2.96-44.48-1.77-3.56-3.75-6.29-5.33-8.21Z"/>
              <path class="cls-3" d="m245.4,209.21c-7.31,1.7-14.75,28.61-.23,28.72,8.02.04,11.93-24.53.23-28.72Z"/>
              <path class="cls-3" d="m233.68,201.64c-7.63-1.72-26.18,19.27-12.46,25.87,7.57,3.63,21.77-16.85,12.46-25.87Z"/>
            </g>
            <g>
              <path class="cls-8" d="m241.55,180.73c-1.25-1.95-3.19-4.73-5.93-7.74-10.93-12.04-30.15-23.05-37.81-17.31-1.19.89-5.79,4.95-2.39,21.07-7.14,11.98-5.89,16.92-4.39,19.13,5.29,7.78,29.21,4.57,43.86-7.99,3.02-2.58,5.19-5.18,6.66-7.17Z"/>
              <path class="cls-3" d="m222.17,185.21c-3.43-6.67-31.35-7.32-27.9,6.79,1.92,7.79,26.7,5.58,27.9-6.79Z"/>
              <path class="cls-3" d="m226.65,171.99c-.19-7.82-25.07-20.69-28.13-5.77-1.67,8.23,21.65,17,28.13,5.77Z"/>
            </g>
          </g>
        </g>
        <g>
          <path class="cls-7" d="m217.81,284.66c-14.14,60.28,15.27,134.32,78.36,154.69,67.14,21.67,140.02-27.94,158.76-94.13,18.84-66.54-17.67-147.53-87.01-163.84-68.4-16.09-134.96,38.7-150.11,103.29Z"/>
          <path class="cls-9" d="m227.02,279c-19.6,67.67,13.45,136.72,73.85,154.22,60.38,17.52,125.24-23.15,144.85-90.85,19.6-67.68-13.43-136.73-73.85-154.23-60.36-17.5-125.24,23.19-144.84,90.87Z"/>
          <path class="cls-10" d="m230.39,279.97c-18.75,64.73,12.86,130.78,70.62,147.52,57.73,16.73,119.8-22.17,138.53-86.89,18.77-64.74-12.84-130.8-70.62-147.54-57.72-16.74-119.79,22.17-138.53,86.91Z"/>
          <g class="cls-2">
            <path class="cls-4" d="m229.42,261.29c-40.43,91.93,7.59,182.7,64.11,197.94,52.67,14.2,132.28-31.9,153.25-120.7-6.42,8.74-17.51,21.52-34.71,31.86-50.04,30.07-103.51,10.43-107.84,8.76-9.53-3.68-37.69-15.02-57.32-45.67-19.91-31.08-18.38-62.27-17.49-72.18Z"/>
          </g>
          <g>
            <g>
              <path class="cls-8" d="m324.94,384.98c.51-2.53,1.1-6.27,1.24-10.82.56-18.15-6.35-41.9-16.95-43.22-1.65-.21-8.49-.51-18.26,15.07-15.02,4.08-17.86,9.02-18.36,11.97-1.78,10.35,19.92,26.32,41.43,27.6,4.43.26,8.18-.14,10.91-.59Z"/>
              <path class="cls-3" d="m305.9,373.55c2.42-8.02-19.5-30.19-27.68-16.19-4.5,7.75,17.12,25.19,27.68,16.19Z"/>
              <path class="cls-3" d="m319.75,366.41c5.91-6.44-4.1-36.07-18.13-26.45-7.73,5.31,4.22,30.45,18.13,26.45Z"/>
            </g>
            <g>
              <path class="cls-8" d="m335.62,385.66c2.58-.13,6.35-.47,10.79-1.44,17.74-3.89,39.08-16.39,37.78-26.98-.2-1.65-1.58-8.36-19.07-14.03-7.63-13.57-13.11-15.11-16.09-14.89-10.48.8-20.66,25.74-16.65,46.91.83,4.36,2.13,7.9,3.24,10.43Z"/>
              <path class="cls-3" d="m342.06,364.4c8.37.39,24.52-26.28,8.94-30.79-8.61-2.47-20.25,22.75-8.94,30.79Z"/>
              <path class="cls-3" d="m352.37,376.09c7.68,4.16,33.98-12.78,21.23-24.03-7.04-6.2-28.5,11.52-21.23,24.03Z"/>
            </g>
          </g>
          <g>
            <g>
              <path class="cls-8" d="m276.66,268.99c1.66,1.98,4.2,4.79,7.65,7.75,13.79,11.82,36.61,21.34,44.29,13.92,1.19-1.15,5.72-6.29-.28-23.67,6.24-14.26,4.18-19.56,2.2-21.81-6.95-7.88-33-1-47.48,14.95-2.98,3.28-5.03,6.46-6.38,8.87Z"/>
              <path class="cls-3" d="m297.51,261.33c4.73,6.91,35.75,3.75,29.97-11.4-3.21-8.36-30.36-2.47-29.97,11.4Z"/>
              <path class="cls-3" d="m294.38,276.59c1.3,8.64,30.66,19.43,31.97,2.48.71-9.35-26.36-15.82-31.97-2.48Z"/>
            </g>
            <g>
              <path class="cls-8" d="m269.44,276.88c-1.52,2.09-3.62,5.24-5.65,9.31-8.1,16.25-11.76,40.71-2.68,46.35,1.41.88,7.5,4.01,22.89-6.05,15.35,2.57,19.99-.73,21.69-3.19,5.95-8.66-7.09-32.24-26.08-42.39-3.91-2.09-7.49-3.3-10.16-4.02Z"/>
              <path class="cls-3" d="m281.95,295.23c-5.55,6.27,5.08,35.58,18.37,26.28,7.32-5.16-5.01-30.04-18.37-26.28Z"/>
              <path class="cls-3" d="m266.38,295.92c-8.06,3.37-11.36,34.47,5.4,31.61,9.24-1.59,8.91-29.42-5.4-31.61Z"/>
            </g>
          </g>
          <g>
            <g>
              <path class="cls-8" d="m399.29,283.3c-2.45.82-5.99,2.17-10,4.31-16.02,8.55-33.17,26.37-29.04,36.22.64,1.53,3.79,7.62,22.16,8.33,11.02,10.99,16.71,10.99,19.52,9.96,9.87-3.61,12.9-30.38,3.3-49.67-1.98-3.97-4.19-7.03-5.95-9.16Z"/>
              <path class="cls-3" d="m398.85,305.51c-8.16,1.9-16.47,31.95-.25,32.06,8.96.04,13.32-27.39.25-32.06Z"/>
              <path class="cls-3" d="m385.77,297.05c-8.53-1.92-29.24,21.51-13.91,28.89,8.45,4.05,24.3-18.82,13.91-28.89Z"/>
            </g>
            <g>
              <path class="cls-8" d="m394.56,273.7c-1.4-2.17-3.57-5.28-6.62-8.64-12.21-13.45-33.67-25.73-42.21-19.33-1.33,1-6.46,5.53-2.67,23.52-7.97,13.37-6.58,18.89-4.9,21.36,5.91,8.69,32.61,5.1,48.97-8.92,3.37-2.89,5.79-5.78,7.44-8Z"/>
              <path class="cls-3" d="m372.92,278.7c-3.83-7.45-35-8.18-31.16,7.58,2.15,8.7,29.81,6.23,31.16-7.58Z"/>
              <path class="cls-3" d="m377.93,263.95c-.22-8.74-28-23.1-31.41-6.44-1.87,9.19,24.18,18.98,31.41,6.44Z"/>
            </g>
          </g>
        </g>
      </g>
    </g>
  </g>
</svg>