<?xml version="1.0" encoding="UTF-8"?>
<svg xmlns="http://www.w3.org/2000/svg" xmlns:xlink="http://www.w3.org/1999/xlink" viewBox="0 0 540 540">
  <defs>
    <style>
      .cls-1 {
        isolation: isolate;
      }

      .cls-2 {
        fill: #b6cc2f;
      }

      .cls-3 {
        clip-path: url(#clippath-1);
      }

      .cls-4 {
        fill: #b9d839;
      }

      .cls-5 {
        fill: #dfef81;
      }

      .cls-6 {
        clip-path: url(#clippath);
      }

      .cls-7 {
        fill: none;
      }

      .cls-8 {
        fill: #515151;
      }

      .cls-9 {
        mix-blend-mode: overlay;
      }
    </style>
    <clipPath id="clippath">
      <path class="cls-7" d="m331.12,97.56c4.73,6.74,13.95,11.56,22.11,11.16,10.49-.52,17.23-9.58,18.51-11.37.76-.74,2.07-1.83,3.97-2.64,1.82-.78,3.45-.98,4.5-1.03-5.53,23.25-10.35,48.17-14.02,74.67-11.93,86.12-8.09,162.83.8,224.98.87,2.81.12,5.78-1.9,7.54-1.97,1.71-4.38,1.59-4.95,1.55-.96,4.9-4.72,8.35-8.78,8.52-3.57.15-6.11-2.29-6.66-2.84-1.3,1.38-5.31,5.28-11.69,6.17-10.09,1.41-17.13-5.96-17.82-6.7-.95.39-3.81,1.43-7.35.55-3.82-.95-5.94-3.52-6.53-4.31-1.6-.11-3.79-.46-6.15-1.5-5.11-2.24-7.77-6.25-8.76-7.95,8.37-35.03,15.91-73.03,21.85-113.78,9.98-68.39,13.55-131.28,13.56-186.93.64-1.47,1.65-3.17,3.06-3.3,2.34-.22,4.05,4.05,6.28,7.23Z"/>
    </clipPath>
    <clipPath id="clippath-1">
      <path class="cls-7" d="m172.39,90.08c8.04,6.43,20.81,8.99,30.47,5.64,12.42-4.31,17.33-17.55,18.23-20.15.66-1.16,1.85-2.92,3.84-4.56,1.91-1.57,3.8-2.39,5.04-2.82,1.52,29.87,4.47,61.49,9.36,94.59,15.89,107.62,47.41,198.4,79.9,269.92,2.04,3.07,2.18,6.9.36,9.72-1.77,2.74-4.7,3.45-5.4,3.6.56,6.22-2.74,11.69-7.56,13.32-4.24,1.43-8.15-.61-9-1.08-1.08,2.11-4.53,8.21-11.88,11.52-11.63,5.24-22.67-1.15-23.75-1.8-1,.8-4.08,3.06-8.64,3.24-4.93.2-8.37-2.15-9.36-2.88-1.96.43-4.71.78-7.92.36-6.93-.9-11.52-4.78-13.32-6.48-2.24-45-6.52-93.29-13.68-144.32-12.01-85.64-29.79-162.42-49.31-229.25.26-1.99.87-4.38,2.52-5.04,2.74-1.09,6.29,3.45,10.08,6.48Z"/>
    </clipPath>
  </defs>
  <g class="cls-1">
    <g id="_Layer_" data-name="&amp;lt;Layer&amp;gt;">
      <g>
        <g>
          <g>
            <path class="cls-4" d="m331.12,97.56c4.73,6.74,13.95,11.56,22.11,11.16,10.49-.52,17.23-9.58,18.51-11.37.76-.74,2.07-1.83,3.97-2.64,1.82-.78,3.45-.98,4.5-1.03-5.53,23.25-10.35,48.17-14.02,74.67-11.93,86.12-8.09,162.83.8,224.98.87,2.81.12,5.78-1.9,7.54-1.97,1.71-4.38,1.59-4.95,1.55-.96,4.9-4.72,8.35-8.78,8.52-3.57.15-6.11-2.29-6.66-2.84-1.3,1.38-5.31,5.28-11.69,6.17-10.09,1.41-17.13-5.96-17.82-6.7-.95.39-3.81,1.43-7.35.55-3.82-.95-5.94-3.52-6.53-4.31-1.6-.11-3.79-.46-6.15-1.5-5.11-2.24-7.77-6.25-8.76-7.95,8.37-35.03,15.91-73.03,21.85-113.78,9.98-68.39,13.55-131.28,13.56-186.93.64-1.47,1.65-3.17,3.06-3.3,2.34-.22,4.05,4.05,6.28,7.23Z"/>
            <g class="cls-6">
              <g>
                <path class="cls-2" d="m370.06,104.44c-19.8,98.19-24.43,198.87-13.68,298.47-4.97-24.59-8.18-49.56-9.93-74.64-5.08-75.14,2.3-151.53,23.61-223.83h0Z"/>
                <path class="cls-2" d="m330.14,104.08c5.8,99.55-5.99,200.45-34.77,295.92,20.54-97.41,32.17-196.4,34.77-295.92h0Z"/>
              </g>
              <path class="cls-5" d="m276.36,395.21c.74-.63,9.8-8.13,20.3-4.86,4.78,1.49,7.81,4.57,9.25,6.3.98-.47,4.52-2.04,8.97-.97,4.45,1.06,6.9,4.04,7.56,4.9,1.38-1.13,5.22-3.96,10.85-4.32,7.79-.5,13.09,4.1,14.12,5.02,3.78-5.18,10.01-7.89,16.12-6.98,7.68,1.15,11.47,7.45,11.96,8.29,3.6,10.94,7.19,21.88,10.79,32.82-9.48,4.72-32.24,14.44-62.18,11.8-32.96-2.91-55.11-19.08-63.22-25.66,5.16-8.78,10.32-17.56,15.49-26.34Z"/>
            </g>
            <g class="cls-9">
              <path class="cls-8" d="m339.26,404.85c.1,1.8.07,1.38-1.98,1.48-2.06.12-4.26-.2-4.35-1.99-.11-1.81,1.48-3.36,3.53-3.47,2.05-.11,2.69,2.18,2.8,3.98Z"/>
              <path class="cls-8" d="m324.93,409.62c-1.34.44-1.02.32-1.52-1.2-.5-1.53-.71-3.26.62-3.7,1.34-.44,2.84.44,3.34,1.97.5,1.53-1.1,2.48-2.45,2.92Z"/>
              <path class="cls-8" d="m296.33,398.5c-1.33.44-1.03.32-1.52-1.2-.5-1.54-.71-3.26.63-3.7,1.35-.44,2.83.44,3.34,1.97.49,1.52-1.11,2.48-2.45,2.93Z"/>
              <path class="cls-8" d="m355.66,404.05c-1.34.44-1.03.32-1.53-1.2-.5-1.53-.72-3.25.63-3.69,1.34-.44,2.84.45,3.33,1.96.5,1.53-1.09,2.48-2.43,2.93Z"/>
            </g>
          </g>
          <path class="cls-2" d="m347.13,151.48c-8.22,78.4-9.71,157.45-4.25,236.09-8.56-78.44-7.04-158.01,4.25-236.09h0Z"/>
        </g>
        <g>
          <g>
            <path class="cls-4" d="m172.39,90.08c8.04,6.43,20.81,8.99,30.47,5.64,12.42-4.31,17.33-17.55,18.23-20.15.66-1.16,1.85-2.92,3.84-4.56,1.91-1.57,3.8-2.39,5.04-2.82,1.52,29.87,4.47,61.49,9.36,94.59,15.89,107.62,47.41,198.4,79.9,269.92,2.04,3.07,2.18,6.9.36,9.72-1.77,2.74-4.7,3.45-5.4,3.6.56,6.22-2.74,11.69-7.56,13.32-4.24,1.43-8.15-.61-9-1.08-1.08,2.11-4.53,8.21-11.88,11.52-11.63,5.24-22.67-1.15-23.75-1.8-1,.8-4.08,3.06-8.64,3.24-4.93.2-8.37-2.15-9.36-2.88-1.96.43-4.71.78-7.92.36-6.93-.9-11.52-4.78-13.32-6.48-2.24-45-6.52-93.29-13.68-144.32-12.01-85.64-29.79-162.42-49.31-229.25.26-1.99.87-4.38,2.52-5.04,2.74-1.09,6.29,3.45,10.08,6.48Z"/>
            <g class="cls-3">
              <g>
                <path class="cls-2" d="m221.58,84.68c7.12,77.93,20.32,155.15,42.04,230.34,12.82,45.19,28.67,89.29,46.25,132.92-14.6-27.79-27.21-56.66-38.11-86.16-32.47-88.46-50.41-182.79-50.18-277.1h0Z"/>
                <path class="cls-2" d="m173.51,98.25c22.63,62.36,38.46,127.17,48.89,192.67,9.11,57.79,14.05,116.43,13.18,174.94-9.51-124.17-30.28-247.19-62.07-367.6h0Z"/>
              </g>
              <path class="cls-5" d="m211.07,466.77c.67-1.02,8.92-13.2,22.67-12.96,6.27.11,10.98,2.75,13.32,4.32,1.01-.91,4.71-4.03,10.44-4.32,5.71-.29,9.7,2.43,10.8,3.24,1.26-1.84,4.88-6.59,11.52-9,9.18-3.33,17.17.33,18.71,1.08,2.72-7.55,9.25-12.99,16.92-14.04,9.62-1.31,16.39,4.92,17.28,5.76,8.16,11.88,16.32,23.75,24.47,35.63-9.73,8.99-33.66,28.66-70.54,35.99-40.6,8.07-72.88-3.58-84.94-8.64,3.12-12.36,6.24-24.71,9.36-37.07Z"/>
            </g>
            <g class="cls-9">
              <path class="cls-8" d="m289.99,456.28c.75,2.13.56,1.63-1.86,2.48-2.43.86-5.18,1.26-5.92-.87-.77-2.13.6-4.56,3.02-5.41,2.42-.85,3.99,1.67,4.76,3.8Z"/>
              <path class="cls-8" d="m274.45,467.04c-1.46,1-1.12.75-2.24-.9-1.13-1.66-2-3.67-.55-4.66,1.46-1,3.57-.47,4.71,1.19,1.14,1.66-.45,3.36-1.91,4.37Z"/>
              <path class="cls-8" d="m236.21,463.71c-1.45,1-1.13.74-2.24-.9-1.14-1.67-2-3.66-.55-4.66,1.46-1,3.55-.46,4.7,1.2,1.12,1.66-.46,3.37-1.91,4.37Z"/>
              <path class="cls-8" d="m309.41,449.56c-1.46.99-1.12.75-2.25-.91-1.14-1.66-2.01-3.65-.54-4.65,1.45-1,3.57-.46,4.69,1.19,1.14,1.66-.43,3.37-1.89,4.37Z"/>
            </g>
          </g>
          <path class="cls-2" d="m210.54,149.22c17.64,97.04,43.59,192.5,77.74,285.04-37.8-91.2-63.9-187.3-77.74-285.04h0Z"/>
        </g>
      </g>
    </g>
  </g>
</svg>