<?xml version="1.0" encoding="UTF-8"?>
<svg xmlns="http://www.w3.org/2000/svg" xmlns:xlink="http://www.w3.org/1999/xlink" viewBox="0 0 540 540">
  <defs>
    <style>
      .cls-1 {
        fill: #70b780;
      }

      .cls-2 {
        fill: #ed8d5d;
      }

      .cls-3 {
        isolation: isolate;
      }

      .cls-4 {
        fill: #63a56c;
      }

      .cls-5 {
        fill: #f7a27c;
      }

      .cls-6 {
        fill: #d2a584;
        mix-blend-mode: multiply;
        opacity: .2;
      }

      .cls-7 {
        clip-path: url(#clippath);
      }

      .cls-8 {
        fill: none;
      }

      .cls-9 {
        fill: #d8784e;
      }
    </style>
    <clipPath id="clippath">
      <path class="cls-8" d="m183.01-557.65c14.99,1.09,121.13,10.6,184.29,101.63,57.76,83.23,56.81,201.78-9.16,283.17-75.67,93.35-195.2,86.37-206.72,85.5-3.17-67.01-3.41-141.2,1.4-221.36,5.51-91.76,16.66-175.19,30.18-248.93Z"/>
    </clipPath>
  </defs>
  <g class="cls-3">
    <g id="_Layer_" data-name="&amp;lt;Layer&amp;gt;">
      <g class="cls-7">
        <path class="cls-6" d="m144.43-400.31c-1.93,12.36-21.44,153.03,82.43,248.82,69.01,63.64,151.21,69.41,175.55,70.22-6.03,8.35-68.58,92.15-164.86,88.54C137.3,3.5,68.59-92.48,54.37-177.44c-21.68-129.49,85.57-219.23,90.06-222.87Z"/>
      </g>
      <g>
        <path class="cls-4" d="m148.44,57.97c13.74-4.64,28.93,11.8,37.45,21.02,2.46,2.66,14.75,16.3,19.63,37.49,2.07,8.98,4.13,17.94-.37,26.14-3.21,5.84-6.99,6.27-7.5,10.82-.83,7.38,8.58,11,15.23,22.49,4.26,7.36,5.51,14.71,5.88,20-5.99-7.33-13.27-15.29-22.02-23.3-6.04-5.53-11.96-10.34-17.56-14.5-12.22-7.31-17.66-15.35-20.06-22.38-5.25-15.37,4.05-25.76-3.17-36.9-6.67-10.31-18.51-7.41-21.47-16.35-2.81-8.47,4.43-21.3,13.96-24.52Z"/>
        <path class="cls-1" d="m230.07,197.34c-5.25-5.4-11.82-13.98-12.03-24.69-.3-15.11,12.36-19.15,18.45-37.59,6.32-19.13,2.04-43.05-11.76-57.22-7.42-7.62-21.14-16.05-28.58-11.69-9.14,5.36-8.12,29.65.06,47.04,7.34,15.61,17.2,18.75,17.42,31.54.18,10.78-6.74,13.83-6.43,23.52.24,7.38,4.63,17.42,22.88,29.09Z"/>
        <path class="cls-1" d="m95.97,120.1c-6.62,3.31-8.53,18.01-3.9,28.71,8.14,18.78,35.03,21.89,55.51,24.27,18.76,2.17,25.58-1.82,27.82-3.3,5.25-3.48,7.42-7.86,10.81-7.19,4.83.96,4.21,10.59,9.97,19.09,3.63,5.35,10.22,10.89,22.94,13.97-4.31-3.12-11.93-9.5-17.71-20.18-3.63-6.7-5.46-13.1-6.38-18.3-1.25-7.08-4.66-13.6-9.9-18.51-9.33-8.75-17.48-11.32-23.55-11.92-13.42-1.32-18.11,6.89-33.13,5.28-18.27-1.96-25.11-15.59-32.48-11.91Z"/>
        <path class="cls-2" d="m308.27,180.29c-11.5-25.21-50.92-25.31-82.84-.22l-10.13,7.96-10.13,7.96c-31.92,25.1-41.11,63.43-19.32,80.55,0,0,221.06,233.6,259.19,203.63,38.12-29.98-136.77-299.89-136.77-299.89Z"/>
        <path class="cls-5" d="m271.45,178.83c2.77-3.3,18.06,3.07,29.04,11.93,17.83,14.39,20.78,32.49,29.25,53.79,11.18,28.09,22.19,37.15,38.15,61.8,43.13,66.62,69.83,146.43,62.75,150.24-3.49,1.88-15.75-14.35-21.25-22.44-17.69-26.02-15.83-41.96-25.71-69.31-14.02-38.79-26.35-30.43-51.95-84.88-11.68-24.83-11.91-32.53-23.79-46.98-4.58-5.57-15.55-17.83-28.36-36.89-7.9-11.76-9.48-15.67-8.14-17.27Z"/>
        <path class="cls-9" d="m309.28,199.46c-11.51,4.25-21.57,9.09-30.46,17.18-5.48,4.94-9.58,10.01-14.36,16.22-1.63-22.21,24.02-41.28,44.82-33.4h0Z"/>
        <path class="cls-9" d="m305.89,258.03c-11.51,4.25-21.56,9.09-30.46,17.18-5.48,4.94-9.58,10.01-14.36,16.22-1.63-22.21,24.02-41.28,44.82-33.4h0Z"/>
        <path class="cls-9" d="m236.36,234.12c-11.51,4.25-21.57,9.09-30.46,17.18-5.48,4.94-9.58,10.01-14.36,16.22-1.63-22.21,24.02-41.28,44.82-33.4h0Z"/>
        <path class="cls-9" d="m361.98,284.15c-11.51,4.25-21.57,9.09-30.46,17.18-5.48,4.94-9.58,10.01-14.36,16.22-1.63-22.21,24.02-41.28,44.82-33.4h0Z"/>
        <path class="cls-9" d="m351.59,348.97c-11.51,4.25-21.57,9.09-30.46,17.18-5.48,4.94-9.58,10.01-14.36,16.22-1.63-22.21,24.02-41.28,44.82-33.4h0Z"/>
        <path class="cls-9" d="m403.75,382.46c-11.51,4.25-21.57,9.09-30.46,17.18-5.48,4.94-9.58,10.01-14.36,16.22-1.63-22.21,24.02-41.28,44.82-33.4h0Z"/>
      </g>
    </g>
  </g>
</svg>