<?xml version="1.0" encoding="UTF-8"?>
<svg id="_Layer_" data-name="&amp;lt;Layer&amp;gt;" xmlns="http://www.w3.org/2000/svg" viewBox="0 0 540 540">
  <defs>
    <style>
      .cls-1 {
        fill: #ea5959;
      }

      .cls-2 {
        fill: #f1dd8e;
      }

      .cls-3 {
        fill: #fff;
        opacity: .1;
      }

      .cls-4 {
        fill: #f0072c;
        opacity: .2;
      }

      .cls-5 {
        fill: #f26666;
      }

      .cls-6 {
        fill: #ffbe0d;
      }

      .cls-7 {
        fill: #ff8c00;
      }

      .cls-8 {
        fill: #f47171;
      }

      .cls-9 {
        fill: #5f8f30;
      }
    </style>
  </defs>
  <path class="cls-9" d="m191.67,114.37s-28.62,2.58-56.72,82.19c-28.1,79.6-27.68,124.26-8.94,170.12,18.75,45.86,63.03,76.66,147.48,73.28L191.67,114.37Z"/>
  <path class="cls-2" d="m213.55,116.81s-14.16-12.14-32.67,4.09c-15.22,13.34-29.87,75.3-40.41,121.96-10.54,46.66-11.95,125.07,46.16,170.01,58.11,44.94,139.39,21.61,139.39,21.61,0,0-1.18-20.01,9.16-25.57,10.33-5.55,25.32,12.88,25.32,12.88,0,0,77.69-34.61,65.41-128.02-12.35-93.95-107.73-176.31-155.39-190.65-43.68-13.15-56.97,13.7-56.97,13.7Z"/>
  <path class="cls-8" d="m219.16,125.68c-9.14,2.94-23.01-5.69-31.79,4.03-12.62,13.98-25.12,69.66-34.93,113.08-9.81,43.42-6.76,118.75,42.68,157.91,53.58,42.44,117.76,19.09,117.76,19.09,0,0,6.02-18.03,17.83-23,11.91-5.01,32.91,5.9,32.91,5.9,0,0,61.69-24.71,50.31-111.63-10.77-82.24-102.31-163.5-140.53-178.23-13.08-5.04-33.27-9.34-43.33.52-5.05,4.95-6.99,11.07-10.91,12.34Z"/>
  <path class="cls-4" d="m413.94,291.06c-10.77-82.24-102.31-163.5-140.53-178.23-13.08-5.04-33.27-9.34-43.33.52-5.05,4.95-6.99,11.07-10.91,12.34-9.14,2.94-23.01-5.69-31.79,4.03-12.62,13.98-25.12,69.66-34.93,113.08-9.81,43.42-6.76,118.75,42.68,157.91,53.58,42.44,117.76,19.09,117.76,19.09,0,0,6.02-18.03,17.83-23,11.91-5.01,32.91,5.9,32.91,5.9,0,0,61.69-24.71,50.31-111.63Zm-58.06,90.53c-10.38,1.58-21.21,2.42-31.52,6.82-8.59,3.67-15.36,10.49-22.65,16.34-28.67,23.02-74.89,8-100.87-12.58-46.25-36.63-49.1-107.1-39.93-147.71,4.66-20.61,8.81-41.57,14.96-61.81,4.66-15.35,9.28-34.31,25.97-40.58,6.02-2.26,12.69-2.7,18.39-5.67,9.34-4.87,15.55-14.58,26.21-17.46,9.08-2.45,19.03.65,27.61,3.95,3.48,1.34,6.81,3.02,10.08,4.8,37.91,20.62,70.92,56.3,93.87,92.32,25.42,39.91,45.31,103.23,11.91,144.79-9.52,11.84-21.44,14.87-34.04,16.79Z"/>
  <path class="cls-3" d="m208.31,159.06c-.15,0-.29.02-.44.03-5.01.39-10.14,1.59-14.12,4.66-3.98,3.07-6.55,8.34-5.33,13.22.99,3.98,4.3,7.38,4.07,11.47-.24,4.29-4.19,7.24-7.38,10.12-5,4.5-4.18,8.04-3.59,13.89.6,6.05,6.34,10.07,11.67,5.87,7.23-5.7,13.44-18.85,8.97-27.65-4.96-9.76,2.5-11.87,10.93-14.25,7.16-2.02,14.03-10.84,4.81-15.85-2.88-1.56-6.3-1.74-9.58-1.52Z"/>
  <path class="cls-3" d="m191.55,253.48c.15-3.04-.09-5.91-.93-8.26-1.63-4.58-7.14-8.12-11.45-5.87-3.33,1.73-4.48,6.01-4.22,9.75.27,3.74,1.59,7.36,1.74,11.11.21,5.04-10.49,18.06-1.8,21.32,5.2,1.95,10.66-6.37,12.34-10.25,1.98-4.58,4-11.54,4.31-17.79Z"/>
  <path class="cls-3" d="m203.46,339.54c-.02-2.47-1.22-4.93-3.74-6.43-4.97-2.97-12.26-.54-15.09-6.98-4.15-9.45,13.75-17.99,6.69-25.46-2.36-2.5-6.59-1.73-9.49.1-8.89,5.6-9.18,16.55-6.41,25.66,2.97,9.77,11.08,26.73,23.78,20.13,2.8-1.46,4.28-4.25,4.26-7.03Z"/>
  <path class="cls-3" d="m224.45,364.63c-2.81-.52-5.73.3-7.77,3.15-7.29,10.22,11.62,20.19,15.86,9.23,2.19-5.66-2.76-11.4-8.09-12.38Z"/>
  <g>
    <path class="cls-5" d="m232.99,193.44c-15.33-.46-39.41,54.23-24.49,107.92,15.31,55.11,81.14,79.25,92.61,67.35,9.12-9.45-20.91-41.04-37.93-84.69-16.6-42.6-17.22-90.19-30.19-90.58Z"/>
    <path class="cls-1" d="m288.34,349.38c-.85-.23-1.68-.42-2.49-.57-7.44-1.39-13.52,1.04-20.54,2.85-5.81,1.5-11.98,1.2-15.36-4.57-2.16-3.7-1.93-7.57.59-11,1.18-1.6,8.11-6.23,7.56-7.84-.77-2.27-5.75-.44-7.21-.15-1.6.31-3.48.56-4.68-.56-.99-.92-1.1-2.51-.63-3.78,2.07-5.58,8.15-9.25,13.85-9.75,1.32-.11,2.68-.13,3.89-.67,1.21-.54,2.22-1.8,1.98-3.1-.21-1.13-1.31-1.92-2.44-2.13s-2.29.02-3.41.26c-5.47,1.17-11.03,1.97-16.19,4.16-4.33,1.84-9.55,4.5-14.39,3.5-2.5-.52-4.74-2.21-5.92-4.48-1.32-2.55-1.29-5.63-.49-8.39,1.44-4.97,4.88-7.16,8.4-10.48,2.72-2.56,4.36-5.81,8.57-5.92,7.08-.18,6.73,6.85,12.33,9.11,2.3.92,5.06.91,7.12-.45,2.06-1.37,3.16-4.22,2.15-6.48-1.14-2.54-4.21-3.48-6.93-4.06s-5.79-1.3-7.2-3.7c-1.49-2.55-.42-5.77.72-8.5,1.14-2.72,2.31-5.88.96-8.51-.81-1.58-2.51-2.66-4.28-2.72-2.51-.09-6.29,2.42-5.58,5.28.4,1.63,1.63,2.93,2.35,4.45,1.75,3.71.08,8.42-3.16,10.93-3.24,2.51-7.65,3.09-11.7,2.46-8.16-1.26-17.95-6.25-13.32-16.05,3.36-7.11,10.35-8.98,16.97-11.78,1.27-.54,13.05-5.13,11.18-7.59-.64-.84-1.93-.61-2.94-.29-8.65,2.72-24.7,9.08-28.35-4.2-2.4-8.75,7.19-15.49,14.12-18.47,4.44-1.91,9.21-3.26,13.03-6.22,4.54-3.51,6.36-9.5,5.11-15.02-.91-4.04-4.04-11.38-9.03-11.53-15.33-.46-39.41,54.23-24.49,107.92,15.31,55.11,81.14,79.25,92.61,67.35,2.92-3.03,2.1-9.47-.45-12.4-2.95-3.39-7.8-5.72-12.32-6.94Z"/>
    <path class="cls-5" d="m270.63,187.88c7.94-13.36,65.15,6.94,84.84,60.47,19.24,52.32-8.22,102.52-21.53,99.05-14.15-3.69-13.83-37.48-28.91-78.75-15.08-41.27-41.23-69.25-34.39-80.77Z"/>
    <path class="cls-1" d="m355.46,248.35c-19.69-53.52-76.89-73.82-84.84-60.47-4.34,7.29,2.53,16.05,9.43,18.29,6.88,2.24,13.68-2.79,20.32-3.75,7.81-1.13,15.54,6.18,12.35,14.41-1.04,2.7-3.19,4.84-5.52,6.55-2.34,1.71-4.91,3.07-7.27,4.75-.9.64-1.78,1.34-2.32,2.3-.53.96-.64,2.23,0,3.12,1.01,1.39,3.13,1.15,4.76.62,7.07-2.29,12.58-7.96,18.98-11.63,5.36-3.07,12.46-1.28,15.6,4.09,8.98,15.35-14.77,20.14-23.91,23.33-1.76.61-3.58,1.26-4.96,2.5-1.39,1.25-2.26,3.26-1.63,5.02.68,1.88,2.87,2.86,4.86,2.77,2-.09,3.85-1.01,5.63-1.91,4.72-2.39,9.45-4.78,14.17-7.17,1.6-.81,3.27-1.64,5.07-1.7,5.55-.18,5.64,6.65,1.44,8.78-1.94.98-4.19,1.3-6.01,2.5-1.81,1.2-2.97,3.91-1.53,5.54,2.44,2.76,7.67-.67,10.48-.93,5-.46,10.79,3.71,11.04,8.83.5,10.47-12.01,11.48-19.07,14.55-3.69,1.61-7.43,1.7-11.08,3.2-2.65,1.09-4.95,3.56-4.93,6.43.03,3.34,3.23,5.97,6.52,6.54,4.75.82,9.48-1.34,13.88-2.82,5.86-1.97,12.46,2.27,14.03,7.96,3.52,12.83-10.9,13.7-18.51,17.54-9.21,4.64-7.52,22.91,4.46,19.78,6.52-1.7,11.07-9.23,14.07-14.68,12.33-22.41,13.97-50.85,7.39-75.23-.83-3.07-1.8-6.11-2.9-9.1Z"/>
    <path class="cls-6" d="m232.44,239.85c-.39-1.19-1.13-2.39-2.29-2.97-.36-.18-.72-.36-1.08-.55-1.19-.61-2.51-.87-3.83-.5-1.15.32-2.4,1.21-2.97,2.29-.61,1.15-.92,2.55-.5,3.83.39,1.19,1.13,2.39,2.29,2.97.36.18.72.36,1.08.55,1.19.61,2.51.87,3.83.5,1.15-.32,2.4-1.21,2.97-2.29.61-1.15.92-2.55.5-3.83Z"/>
    <path class="cls-6" d="m229.84,266.8c-.97-.89-2.17-1.46-3.52-1.46h-2.16c-1.28,0-2.62.55-3.52,1.46-.86.86-1.51,2.28-1.46,3.52.06,1.29.48,2.62,1.46,3.52.97.89,2.17,1.46,3.52,1.46h2.16c1.28,0,2.62-.55,3.52-1.46.86-.86,1.51-2.28,1.46-3.52-.06-1.29-.48-2.62-1.46-3.52Z"/>
    <path class="cls-6" d="m234.91,297.71c-6.4,0-6.41,9.95,0,9.95s6.41-9.95,0-9.95Z"/>
    <path class="cls-6" d="m299.69,209.25c-6.4,0-6.41,9.95,0,9.95s6.41-9.95,0-9.95Z"/>
    <path class="cls-6" d="m266.75,336.47c-.86-.86-2.28-1.51-3.52-1.46-1.29.06-2.62.48-3.52,1.46-.89.97-1.46,2.17-1.46,3.52v.54c0,1.28.55,2.62,1.46,3.52s2.28,1.51,3.52,1.46c1.29-.06,2.62-.48,3.52-1.46.89-.97,1.46-2.17,1.46-3.52v-.54c0-1.28-.55-2.62-1.46-3.52Z"/>
    <path class="cls-6" d="m339.6,309.04c-6.4,0-6.41,9.95,0,9.95s6.41-9.95,0-9.95Z"/>
    <path class="cls-6" d="m343.42,272c-1.04-.82-2.27-1.29-3.61-1.2l-2.15.16c-1.27.09-2.57.74-3.4,1.71-.8.92-1.34,2.38-1.2,3.61.15,1.28.67,2.58,1.71,3.4,1.04.82,2.27,1.29,3.61,1.2l2.15-.16c1.27-.09,2.57-.74,3.4-1.71.8-.92,1.34-2.38,1.2-3.61-.15-1.28-.67-2.58-1.71-3.4Z"/>
    <path class="cls-6" d="m328.65,231.72c-.32-1.15-1.21-2.4-2.29-2.97-1.15-.61-2.55-.92-3.83-.5-1.2.39-2.37,1.14-2.97,2.29-.19.36-.37.71-.56,1.07-.62,1.17-.86,2.53-.5,3.83.32,1.15,1.21,2.4,2.29,2.97,1.15.61,2.55.92,3.83.5,1.2-.39,2.37-1.14,2.97-2.29.19-.36.37-.71.56-1.07.62-1.17.86-2.53.5-3.83Z"/>
    <path class="cls-7" d="m322.56,263.23c-.71-.65-1.64-1.14-2.64-1.09-.99.04-1.92.38-2.64,1.09-.23.23-.46.46-.69.69-.68.68-1.09,1.68-1.09,2.64s.41,2.01,1.09,2.64c.71.65,1.64,1.14,2.64,1.09.99-.04,1.92-.38,2.64-1.09.23-.23.46-.46.69-.69.68-.68,1.09-1.68,1.09-2.64s-.41-2.01-1.09-2.64Z"/>
    <path class="cls-7" d="m248,299.7c-4.27,0-4.27,6.63,0,6.63s4.27-6.63,0-6.63Z"/>
    <path class="cls-7" d="m310.87,235.44c-4.27,0-4.27,6.63,0,6.63s4.27-6.63,0-6.63Z"/>
    <path class="cls-7" d="m269.73,322.47c-.08-1.82-1.46-3.28-3.32-3.32-2.17-.04-4.05,1.83-4,4,.02.86.36,1.73.97,2.34.57.58,1.52,1.01,2.34.97,1.06-.05,2.05-.57,2.67-1.38.82-.62,1.38-1.58,1.33-2.62Z"/>
    <path class="cls-7" d="m234.45,228.14c-4.27,0-4.27,6.63,0,6.63s4.27-6.63,0-6.63Z"/>
  </g>
</svg>