<?xml version="1.0" encoding="UTF-8"?>
<svg id="_Layer_" data-name="&amp;lt;Layer&amp;gt;" xmlns="http://www.w3.org/2000/svg" xmlns:xlink="http://www.w3.org/1999/xlink" viewBox="0 0 540 540">
  <defs>
    <style>
      .cls-1 {
        fill: url(#linear-gradient-2);
      }

      .cls-2 {
        fill: url(#linear-gradient-14);
      }

      .cls-3 {
        fill: url(#linear-gradient-6);
      }

      .cls-4 {
        fill: url(#linear-gradient-11);
      }

      .cls-5 {
        fill: url(#linear-gradient-10);
      }

      .cls-6 {
        fill: #878424;
      }

      .cls-7 {
        fill: #5e4080;
      }

      .cls-8 {
        fill: url(#linear-gradient-5);
      }

      .cls-9 {
        fill: url(#linear-gradient-7);
      }

      .cls-10 {
        fill: url(#linear-gradient-9);
      }

      .cls-11 {
        fill: url(#linear-gradient-3);
      }

      .cls-12 {
        fill: url(#linear-gradient);
      }

      .cls-13 {
        fill: url(#linear-gradient-4);
      }

      .cls-14 {
        fill: url(#linear-gradient-8);
      }

      .cls-15 {
        fill: #7853a8;
      }

      .cls-16 {
        fill: url(#linear-gradient-12);
      }

      .cls-17 {
        fill: url(#linear-gradient-13);
      }
    </style>
    <linearGradient id="linear-gradient" x1="406.19" y1="229.73" x2="367.53" y2="329.33" gradientTransform="translate(-40.9 70.29) rotate(-8.9)" gradientUnits="userSpaceOnUse">
      <stop offset="0" stop-color="#9e8000"/>
      <stop offset="1" stop-color="#a1b500"/>
    </linearGradient>
    <linearGradient id="linear-gradient-2" x1="317.78" y1="336.51" x2="330.56" y2="336.51" gradientTransform="matrix(1,0,0,1,0,0)" xlink:href="#linear-gradient"/>
    <linearGradient id="linear-gradient-3" x1="247.23" y1="425.06" x2="387.46" y2="491.46" gradientUnits="userSpaceOnUse">
      <stop offset="0" stop-color="#5e4080"/>
      <stop offset=".19" stop-color="#583978"/>
      <stop offset=".5" stop-color="#4a2862"/>
      <stop offset=".87" stop-color="#320b3e"/>
      <stop offset="1" stop-color="#290030"/>
    </linearGradient>
    <linearGradient id="linear-gradient-4" x1="321.98" y1="437.79" x2="439.49" y2="410.7" xlink:href="#linear-gradient-3"/>
    <linearGradient id="linear-gradient-5" x1="91.34" y1="389.54" x2="309.76" y2="380.36" xlink:href="#linear-gradient-3"/>
    <linearGradient id="linear-gradient-6" x1="18.88" y1="444.99" x2="234.5" y2="398.08" xlink:href="#linear-gradient-3"/>
    <linearGradient id="linear-gradient-7" x1="175.48" y1="297.57" x2="278.18" y2="246.22" gradientTransform="translate(-46.57 156.85) rotate(3.12)" xlink:href="#linear-gradient-3"/>
    <linearGradient id="linear-gradient-8" x1="233.81" y1="186.75" x2="403.97" y2="136.7" gradientTransform="translate(-46.57 156.85) rotate(3.12)" gradientUnits="userSpaceOnUse">
      <stop offset="0" stop-color="#5e4080"/>
      <stop offset="1" stop-color="#290030"/>
    </linearGradient>
    <linearGradient id="linear-gradient-9" x1="270.69" y1="124.89" x2="458.17" y2="124.89" xlink:href="#linear-gradient-8"/>
    <linearGradient id="linear-gradient-10" x1="279.27" y1="289.35" x2="459.84" y2="289.35" gradientTransform="matrix(1,0,0,1,0,0)" xlink:href="#linear-gradient-8"/>
    <linearGradient id="linear-gradient-11" x1="389.31" y1="415.56" x2="522.1" y2="343.48" xlink:href="#linear-gradient-3"/>
    <linearGradient id="linear-gradient-12" x1="402.38" y1="205.94" x2="484.06" y2="121.99" gradientTransform="translate(-46.57 156.85) rotate(3.12)" xlink:href="#linear-gradient-3"/>
    <linearGradient id="linear-gradient-13" x1="253.42" y1="369.19" x2="426.85" y2="412.87" xlink:href="#linear-gradient-3"/>
    <linearGradient id="linear-gradient-14" x1="148.7" y1="417.31" x2="319.2" y2="438.37" xlink:href="#linear-gradient-3"/>
  </defs>
  <path class="cls-12" d="m363.82,334.34c.64-2.87,40.66-37.62,19.72-82.41-9.53-17.97,7.99-18.11,7.99-18.11,0,0,29.77,44.69-20.44,103.06-5.16,6-7.91.33-7.27-2.54Z"/>
  <path class="cls-1" d="m317.78,326.85s9.59,6.61.88,24.39c-2.48,5.06,5.95,2.54,5.95,2.54,0,0,2.95-23.62,5.64-32.33,2.69-8.7-12.46,5.4-12.46,5.4Z"/>
  <path class="cls-6" d="m171.27,376.38s8.03,4.86,26.04-.79c18.01-5.65,12.47,4.56,6.29,6.43-6.19,1.88-24.2-2.43-33.94,3.68-9.74,6.11,1.61-9.31,1.61-9.31Z"/>
  <path class="cls-6" d="m238.01,359.56s10.49,10.53,56.02-12.98c-3.88,10.3-35.33,19.09-63.82,24.17-17.61,3.14,7.8-11.19,7.8-11.19Z"/>
  <path class="cls-6" d="m267.15,332.39s12.14,10.62,28.69,11.52c-22.89-6.23-14.44-19.04-14.44-19.04l-14.24,7.52Z"/>
  <path class="cls-6" d="m236.57,382.34s29.36-21.08,34.97-12.47c-24.08,5.32-23.64,17.52-29.91,21.05-8.72,4.9-5.06-8.57-5.06-8.57Z"/>
  <path class="cls-11" d="m274.12,402.68c17.92-3.71,36.06,10.7,40.52,32.2,4.46,21.5-6.45,41.95-24.37,45.67-17.92,3.72-36.06-10.7-40.52-32.2-4.46-21.5,6.45-41.95,24.37-45.67Z"/>
  <path class="cls-7" d="m272.24,406.03c-12.59,2.61-21.2,14.97-22.01,29.71-.19,3.58.07,7.3.85,11.06,3.99,19.23,19.97,32.24,35.63,28.99,15.65-3.25,25.14-21.54,21.15-40.77-3.99-19.24-19.97-32.24-35.62-28.99Z"/>
  <path class="cls-15" d="m269.22,409.88c-10.47,2.17-17.98,12.57-18.71,25.88h0c-.18,3.3.08,6.66.77,10,3.52,17,17.31,28.56,30.73,25.77,13.42-2.78,21.46-18.87,17.94-35.87-3.53-16.99-17.31-28.56-30.73-25.77Z"/>
  <path class="cls-13" d="m374.15,460.32c-14.9,8.95-35.15,2.62-45.21-14.15-10.07-16.76-6.15-37.61,8.75-46.56,14.9-8.95,35.15-2.62,45.22,14.15,10.07,16.76,6.15,37.61-8.75,46.56Z"/>
  <path class="cls-7" d="m337.07,403.01c-7.53,4.53-11.79,12.64-12.28,21.55-.35,6.38,1.24,13.17,4.94,19.33,8.88,14.78,26.61,20.49,39.54,12.73,5.67-3.4,9.73-9.05,11.43-15.88,2.04-8.16.54-17.27-4.1-25-8.88-14.78-26.61-20.49-39.53-12.73Z"/>
  <path class="cls-15" d="m336.41,406.96h0c-6.1,3.66-9.84,10.31-10.27,18.22-.32,5.83,1.19,11.7,4.35,16.97,7.7,12.82,22.89,17.9,33.85,11.31,4.72-2.83,8.11-7.57,9.55-13.33,1.77-7.1.45-15.07-3.63-21.87-7.7-12.82-22.89-17.9-33.85-11.31Z"/>
  <path class="cls-8" d="m175.5,390.16c-1.07,19.65-21.2,34.52-44.96,33.22-23.76-1.3-42.14-18.27-41.07-37.92,1.07-19.64,21.2-34.51,44.95-33.22,23.76,1.3,42.14,18.27,41.07,37.91Z"/>
  <path class="cls-7" d="m91.49,383.91c-.95,17.33,15.72,32.38,37.16,33.55,21.43,1.17,39.65-11.98,40.59-29.31.95-17.33-15.72-32.38-37.16-33.56-21.44-1.17-39.65,11.98-40.59,29.31Z"/>
  <path class="cls-15" d="m93.5,382.64c1.67,30.23,70.12,1.04,61.68-15.44-3.89-7.59-15.92-11.38-25.35-11.89-19.16-1.05-37.17,12.28-36.34,27.33Z"/>
  <path class="cls-3" d="m116.99,412.5c9.64,20.74-2.72,46.94-27.61,58.51-24.89,11.57-52.89,4.14-62.53-16.61-9.64-20.74,2.72-46.94,27.61-58.51,24.89-11.57,52.89-4.14,62.54,16.61Z"/>
  <path class="cls-7" d="m53.48,398.95h0c-12.43,5.78-21.98,15.73-26.21,27.3-3.22,8.81-3.01,17.95.61,25.71,3.61,7.77,10.45,13.82,19.27,17.04,11.57,4.23,25.34,3.34,37.77-2.44,12.43-5.78,21.98-15.73,26.21-27.3,3.22-8.81,3.01-17.94-.61-25.71-3.61-7.77-10.45-13.82-19.27-17.04-11.57-4.23-25.34-3.34-37.76,2.44Z"/>
  <path class="cls-15" d="m52.53,401.45h0c-11.44,5.32-20.21,14.42-24.06,24.96-2.84,7.77-2.67,15.78.47,22.54,3.14,6.76,8.96,12.68,16.94,14.9,23.48,6.52,59.72-26.69,57.34-46.39-1.14-9.46-8.31-15.48-16.09-18.32-10.55-3.85-23.16-3.01-34.6,2.31Z"/>
  <path class="cls-9" d="m170.58,413.91c16.44,11.61,18.65,36.78,4.92,56.21-13.72,19.43-38.18,25.77-54.62,14.16-16.45-11.61-18.65-36.78-4.92-56.21,13.72-19.44,38.18-25.77,54.62-14.16Z"/>
  <path class="cls-7" d="m143.49,411.48c-10.37,1.78-20.15,8.25-26.85,17.73h0c-6.7,9.48-9.51,20.87-7.73,31.23,1.39,8.06,5.53,14.88,11.66,19.21,6.13,4.33,13.94,5.95,22,4.56,10.37-1.79,20.15-8.25,26.85-17.73,6.7-9.48,9.51-20.87,7.73-31.23-1.39-8.06-5.53-14.88-11.66-19.21-6.13-4.33-13.94-5.95-22-4.56Z"/>
  <path class="cls-15" d="m140.37,414.8h0c-9.29,1.6-18.1,7.45-24.17,16.04-6.07,8.59-8.63,18.85-7.03,28.14,1.2,6.96,4.74,12.84,9.97,16.52,5.23,3.69,11.93,5.01,18.91,3.87,23.95-3.94,34.58-46.5,22.62-60.43-4.17-4.85-13.32-5.34-20.29-4.14Z"/>
  <path class="cls-14" d="m241.09,363.21c-6.34,14.7-26.47,20.16-44.95,12.18-18.48-7.97-28.32-26.36-21.98-41.06,6.35-14.7,26.47-20.16,44.95-12.18,18.49,7.97,28.33,26.36,21.98,41.06Z"/>
  <path class="cls-7" d="m175.2,335.82c-.93,2.15-1.44,4.4-1.56,6.69-.6,11.09,7.82,23.07,21.38,28.92,9.26,4,19.24,4.43,27.38,1.2,5.76-2.29,9.95-6.16,12.13-11.22,2.18-5.05,2.12-10.76-.16-16.52-3.23-8.14-10.4-15.1-19.66-19.09-16.36-7.06-34.08-2.56-39.51,10.02Z"/>
  <path class="cls-15" d="m175.61,338.94h0c-.71,1.66-1.13,3.43-1.23,5.28-.53,9.63,6.31,23.28,18.89,24.9,9.86,1.26,24.24-36.32,15.98-39.88-14.26-6.15-29.11-.78-33.64,9.71Z"/>
  <path class="cls-10" d="m278.38,330.87c-15.11,13.89-40.89,10.44-57.56-7.7-16.67-18.14-17.92-44.11-2.8-58,15.12-13.89,40.89-10.44,57.56,7.7,16.67,18.14,17.92,44.11,2.8,58Z"/>
  <path class="cls-7" d="m218.06,268.06c-5.72,5.25-8.75,12.51-9.18,20.39-.58,10.61,3.56,22.34,12.23,31.77,15.1,16.43,38.29,19.77,51.7,7.45,13.41-12.32,12.04-35.72-3.05-52.15-15.1-16.43-38.29-19.78-51.7-7.46Z"/>
  <path class="cls-15" d="m217.56,270.93c-4.74,4.36-7.45,10.43-7.84,17.56h0c-.54,9.96,3.79,20.2,11.14,28.74,20.9,24.28,59.44-12.89,42.55-39.09-10.85-16.83-34.12-17.98-45.85-7.21Z"/>
  <path class="cls-5" d="m323.65,328.2c-17.88,4.78-37.02-8.75-42.75-30.21-5.73-21.46,4.12-42.72,22.01-47.5,17.88-4.77,37.02,8.75,42.75,30.21,5.73,21.46-4.12,42.72-22.01,47.5Z"/>
  <path class="cls-7" d="m301.28,253.24h0c-15.65,4.18-24.2,23.21-19.08,42.43,5.13,19.22,22.04,31.45,37.68,27.28,15.65-4.18,24.2-23.21,19.07-42.43-5.13-19.21-22.04-31.45-37.68-27.27Z"/>
  <path class="cls-15" d="m298.92,259.27h0c-13.44,3.59-20.68,20.35-16.14,37.36,4.54,17.01,19.17,27.93,32.61,24.34,13.44-3.59,20.68-20.34,16.14-37.35-4.54-17.01-19.17-27.93-32.61-24.34Z"/>
  <path class="cls-4" d="m434.84,364.79c21.08,8.88,31.81,31.2,23.95,49.86-7.85,18.66-31.32,26.58-52.4,17.7-21.08-8.88-31.8-31.2-23.95-49.85,7.86-18.66,31.32-26.58,52.4-17.7Z"/>
  <path class="cls-7" d="m400.73,368.96c-7.75,3.16-13.69,8.88-16.74,16.11h0c-3.05,7.23-2.99,15.48.17,23.24,3.79,9.29,11.64,17.01,21.57,21.19,9.92,4.18,20.94,4.41,30.23.62,7.75-3.15,13.7-8.88,16.74-16.11,3.05-7.23,2.99-15.48-.17-23.23-3.78-9.29-11.64-17.02-21.57-21.2-9.93-4.18-20.95-4.41-30.23-.62Z"/>
  <path class="cls-15" d="m398.83,375.38h0c-6.72,2.74-11.87,7.67-14.49,13.89-2.62,6.21-2.55,13.34.19,20.06,3.37,8.28,10.42,15.18,19.34,18.94,8.92,3.75,18.78,3.98,27.06.6,6.73-2.74,11.87-7.67,14.49-13.89,2.62-6.21,2.55-13.34-.19-20.06-3.37-8.28-10.42-15.18-19.34-18.94-8.92-3.76-18.78-3.98-27.06-.61Z"/>
  <path class="cls-16" d="m389.45,342.11c15.81,16.86,17.77,40.7,4.38,53.26-13.39,12.56-37.06,9.07-52.87-7.79-15.81-16.85-17.77-40.7-4.38-53.25,13.39-12.56,37.06-9.07,52.86,7.79Z"/>
  <path class="cls-7" d="m336.6,338.29h0c-11.7,10.97-9.65,32.24,4.57,47.4,8.04,8.57,18.51,13.67,28.72,14,7.25.23,13.58-1.98,18.29-6.4,4.72-4.42,7.33-10.59,7.57-17.85.33-10.21-4.1-20.99-12.13-29.56-14.22-15.16-35.31-18.57-47.01-7.6Z"/>
  <path class="cls-15" d="m335.98,343.89h0c-10.04,9.41-7.9,28.05,4.76,41.55,7.29,7.77,16.71,12.4,25.83,12.7,6.13.19,13.98-2.35,16.84-6.86,14.27-22.45-23.53-65.44-47.42-47.38Z"/>
  <path class="cls-17" d="m330.75,358.89c13.47,21.22,9.36,47.96-9.19,59.74-18.55,11.78-44.51,4.13-57.98-17.09-13.47-21.22-9.35-47.96,9.19-59.74,18.55-11.77,44.51-4.12,57.98,17.09Z"/>
  <path class="cls-7" d="m271.72,344.56c-7.2,4.57-12.26,12-14.25,20.92-2.43,10.88-.12,22.94,6.34,33.1,6.45,10.16,16.39,17.39,27.26,19.81,8.92,1.99,17.8.57,24.99-4,7.2-4.57,12.26-12,14.25-20.92,2.43-10.87.12-22.94-6.33-33.11-6.45-10.16-16.39-17.38-27.27-19.81-8.92-1.99-17.8-.57-24.99,4Z"/>
  <path class="cls-15" d="m271.34,347.48h0c-6.62,4.06-11.27,10.71-13.11,18.73-2.3,10.04-1.13,22.04,6.18,30.7,21.08,24.97,70.56.02,56.18-34.46-4.36-10.46-15.75-16.2-26.12-18.46-8.29-1.8-16.5-.56-23.12,3.5Z"/>
  <path class="cls-2" d="m247.37,387.53c18.14,18.31,15.99,49.87-4.82,70.47-20.8,20.6-52.37,22.46-70.51,4.15-18.14-18.31-15.98-49.87,4.82-70.47,20.8-20.61,52.37-22.46,70.51-4.15Z"/>
  <path class="cls-7" d="m213.48,379.47c-13.15-.06-26.45,5.61-36.5,15.56h0c-19.15,18.97-21.3,47.95-4.79,64.61,16.5,16.66,45.51,14.79,64.66-4.18,10.04-9.95,15.84-23.2,15.9-36.35.05-10.94-3.9-20.98-11.11-28.26-7.22-7.29-17.22-11.33-28.16-11.38Z"/>
  <path class="cls-15" d="m210.19,382.88c-12.06-.06-24.3,5.17-33.56,14.36-17.52,17.36-19.36,43.43-4.77,58.76,17.83,18.73,72.97-49.05,63.56-62.96-5.12-7.58-15.4-10.11-25.23-10.15Z"/>
</svg>