<?xml version="1.0" encoding="UTF-8"?>
<svg id="_Layer_" data-name="&amp;lt;Layer&amp;gt;" xmlns="http://www.w3.org/2000/svg" viewBox="0 0 540 540">
  <defs>
    <style>
      .cls-1 {
        fill: #d3e0bd;
      }

      .cls-2 {
        opacity: .04;
      }

      .cls-3 {
        fill: #f1f4e9;
      }

      .cls-4 {
        fill: #85ad45;
      }

      .cls-5 {
        fill: #a4d367;
      }

      .cls-6 {
        fill: #bbe57f;
      }

      .cls-7 {
        fill: #8bc34a;
      }

      .cls-8 {
        fill: #c6d3ae;
      }

      .cls-9 {
        fill: #d6e2c0;
      }

      .cls-10 {
        fill: #b2c191;
      }

      .cls-11 {
        fill: #dbeac5;
      }

      .cls-12 {
        fill: #74992c;
      }

      .cls-13 {
        fill: #79a336;
      }

      .cls-14 {
        fill: #71932f;
      }

      .cls-15 {
        fill: #87b748;
      }

      .cls-16 {
        fill: #678225;
      }

      .cls-17 {
        fill: #96c658;
      }

      .cls-18 {
        fill: #7ea53f;
      }
    </style>
  </defs>
  <path class="cls-13" d="m141.99,294.62c-2.98-5-7.48-10.87-12.8-10.28-7.42.82-8.99,15.24-9.08,22.3-.07,5.13-3.54,1.92-5.52.62-3.13-2.05-7.15-.66-8.94,2.06-1.79,2.73-1.93,6.36-1.94,9.83-.07,14.5,1.73,38.24,3.63,41.93,1.47,2.86,4.89,4.41,7.93,4.61,10.39.66,15.37-9.38,18.51-16.28,5.34-11.72,10.23-23.71,14.64-35.91l-6.43-18.89Z"/>
  <path class="cls-16" d="m132.27,290.92c-12.43,32.35-22.56,34.71-25.46,51.4-.52,2.99,4.08,4.21,4.61,1.18,2.75-15.78,12.31-17.17,25.46-51.4,1.1-2.85-3.52-4.01-4.61-1.18h0Z"/>
  <path class="cls-13" d="m378.8,123.48c4.36-13.01-9.5-24.99-19.49-19.66-2.74,1.46-4.67,4.09-7.47,5.44s-7.3.62-8.39-2.55c-.34-1.01-.28-2.09-.72-3.06-.75-1.64-2.77-2.46-4.47-2.31-4.29.37-29.36,16.19-25.5,29.73.8,2.8,7.89,15.07,15.5,18.11,4.96,1.98,20.57,2.3,27.75.98,8.42-1.56,16.05-5.82,21.54-12.03l1.25-14.64Z"/>
  <path class="cls-16" d="m371.8,114.46c-13.54,10.78-32.53,11.64-47.19,2.63-2.61-1.6-4.93,2.54-2.33,4.15,16.63,10.23,37.7,8.67,52.89-3.43,2.39-1.9-1.01-5.23-3.38-3.34h0Z"/>
  <path class="cls-15" d="m131.55,417.07c-9.29-11.18-10.6-27.56-5.88-41.31,9.85-28.69,40.28-44.32,61.86-59.06,16.6-11.34,44.22-34.76,71.98-25.39,12.54,4.24,22.75,16.8,21.24,29.95-.71,6.2-3.79,11.84-6.81,17.3-20.37,36.86-26.83,36.54-48.5,50.5-24.98,16.09-46.49,40.98-75.99,44.58l-17.91-16.57Z"/>
  <path class="cls-13" d="m127.92,413.43c-.51-12.84,9.22-18.59,21.24-24.88,95.15-49.84,60.57-82.83,76.64-97.15,4.54-4.05,15.31-5.08,17.06-4.04.67.4,1.1,1.09,1.46,1.78,4.73,9.07,1.58,19.87-1.94,29.22-15.97,42.44-29.08,40.92-47.44,65.48-11.56,15.47-16.73,34.08-40.83,46.81-4.71,2.48-8.91,2.91-13.87.62-5.35-4.28-11.94-8.41-12.32-17.83Z"/>
  <path class="cls-14" d="m243.95,298.5c-.98,18.44-17.08,17.4-22.61,30.34-1.25,2.92-1.42,6.25-2.64,9.12-2.7,6.35-12.03,5.55-16.8,18.02-2.01,5.25-1.56,20.08-8.23,21.91-1,.27-3.6-.68-4.8-.54-4.69.56-10.01,4.83-11.77,13.35-1.44,6.96.15,20.65-10.22,21.33-3.04.2-3.03,4.96.03,4.76,17.85-1.18,10.32-25.11,18.55-32.25,4.21-3.65,9.28-.83,12.11-2.03,8.44-3.59,4.23-22.58,12.33-30.99,2.98-3.09,7.29-2.85,10.26-5.43,4.05-3.52,3.61-11.13,5.77-15.73,5.14-10.92,21.59-9.66,22.78-31.89.16-3.06-4.59-3.02-4.76.03h0Z"/>
  <path class="cls-12" d="m432.33,135.46c8.54-5.31,19.74.61,20.15,10.66.1,2.46-.37,5.31,1.36,7.07,1.36,1.39,3.53,1.46,5.38,2.06,5.24,1.7,7.9,7.96,7.19,13.43-1.58,12.26-19.59,25.39-16.64,32.08,1.33,3.02,6.01,1.62,8.99,3.05,3.83,1.85,3.3,7.77.57,11.02-3.44,4.1-12.19,8-11.14,12.53.41,1.8,2.3,2.78,3.43,4.24,2.48,3.17.88,7.99-1.87,10.92-2.76,2.93-6.48,4.84-9.17,7.84-2.69,2.99-4.07,7.93-1.38,10.93,2.47,2.76,7.24,3.15,4.32,9.14-11.03,22.68-29.64,21.49-34.6,29,4.01,3.32,2.71,10.22-1.15,13.71-7.72,7-21.49,4.21-27.85,12.85,5.86,3.13,5.42,12.33.98,17.27-7.35,8.19-18.05,6.85-37.58,19.29-10.04,6.39-20.27,14.82-32.13,13.87-4.52-.36-5.78-2.16-7-5.22-8.55-21.4-.47-45.65,9.42-66.47,32.3-68,63.75-89.18,83.07-125.79,8.77-16.62,8.96-20.35,27.68-34.07l7.96-9.39Z"/>
  <path class="cls-16" d="m434.57,207.42c-20.93,30.34-24.28,32.56-21.63,38.27,1.06,2.28,3.15,2.92,4.82,4.55,5.11,4.97,2.83,8.45-.19,14.23-5.35,10.23-13.26,18.53-22.9,24.8-11.42,7.43-6.07,12.79-6.83,15.88-1.04,4.26-8.4,7.45-17.01,12.92-15,9.53-25.82,21.18-29.49,39.01-.61,2.99,3.99,4.19,4.61,1.18,7.25-35.25,44.81-38.22,46.79-53.88.39-3.09-.93-5.76,1.06-8.54,2.2-3.07,7.36-5.09,10.4-7.57,11.45-9.34,24.28-28.53,21.73-36.4-.79-2.44-2.64-3.06-4.25-4.75-5.39-5.64-3.63-7.75.02-12.81,5.82-8.07,11.36-16.35,17.02-24.55,1.73-2.51-2.42-4.83-4.15-2.33h0Z"/>
  <path class="cls-17" d="m151.32,436.08c-7.73-1.6-15.13-5.4-19.09-12.17l-.45-.15c17.16.44,48.12-4.21,50.25-21.33.51-4.15-.78-8.46-.68-12.66.11-4.22,2.39-8.85,6.58-9.07,2.2-.12,4.38,1.01,6.59,1.16,5.33.39,9.02-4.9,9.83-10.1.82-5.18-.18-10.68.81-15.83,1-5.14,5.15-10.2,10.45-9.28,1.55.26,3.2,1,4.58.42,5.31-2.29,1.46-17.74,8-22.45,1.55-1.12,3.49-1.59,5.27-2.35,19.95-8.44,11.6-38.54,25.64-66.71,16.55-33.28,54.78-47.93,83.53-71.11,20.97-16.9,25.81-30.41,50.76-41.21,10.92-7.52,8.68-6.13,11.26-7.19l15.63-1.85c5.82,1.83,10.83,5.23,14.94,9.62-13.58,27.41-38.73,71.38-78.85,118.11-121.81,141.83-101.69,143.82-205.04,174.15Z"/>
  <path class="cls-4" d="m338.22,390.12c-19.91,3.41-42.96,1.06-57.6,14.24,5.82.05,7.6,9.47,3.4,13.17-6.62,5.81-15.3,1.24-36.14,4.28-10.3,1.47-9.34,5.49-11.53,10.44-3.34,7.55-12.9,10.12-21.41,9.28-8.51-.82-16.8-4.2-25.32-5.22-10.18-1.22-20.23.98-30.43.68-2.58-.08-5.26-.36-7.87-.92,103.61-30.4,83.59-32.73,205.04-174.15,40.12-46.73,65.28-90.7,78.85-118.11,9.39,10.07,13.96,25.31,12.12,38.67-4.24,30.94-32.02,47.54-34.87,56.41-1.07,3.4.02,7.94,3.35,9.69,1.11.59,2.37.8,3.47,1.4,10.11,5.47-3.26,29.59-23.96,39.95-4.01,2.01-9.01,5-7.83,9.56.73,2.88,3.68,4.67.35,9.22-7.21,9.95-21.97,11.09-31.29,19.11-8.89,7.66-11.49,20.32-13.63,32.13-.63,3.46.23,8.74,3.77,8.59,1.69-.09,2.85-1.6,4.43-2.11,3.88-1.29,7.51,4.04,7.19,8.2-.72,9.3-10.96,13.93-20.1,15.48Z"/>
  <path class="cls-11" d="m412.55,187.41c-47.51,77.96-50.91,68.24-68.9,97.12-4.94,7.93-7.77,12.6-14.17,19.88-9.78,11.08-16.86,16.1-32.49,34.8-36.71,43.93-56.32,82.25-122.57,92.19-13.59,1.96-24.83,6.76-35.84,2.66l.29-1.07c7.35,1.13,14.24-1.17,22.6-4.26,20.01-7.34,37.23-6.93,63.57-27.56,31.68-24.45,55.37-59.73,82.04-85.21,33.66-32.06,22.93-25.34,38.29-44.81,2.53-3.21,5.21-6.25,7.92-9.21,17.33-18.58,23.94-25.04,58.33-75.14l.93.6Z"/>
  <path class="cls-11" d="m367.11,292.54c-56.03,36.09-51.35,36.43-80.35,54.97-3.85,2.52-7.6,5.08-10.99,8.28l-.37-.29c10.47-18.25,74.4-54.25,91.47-63.37l.24.41Z"/>
  <path class="cls-11" d="m340.25,231.64c-6.24,32.63-22.64,80.15-49.84,108.51l-.38-.28c21.06-38.19,36.72-60.25,49.76-108.33l.46.11Z"/>
  <path class="cls-11" d="m393.82,237.29c-47.56,48.67-50.38,54.1-66.5,66.53l-.35-.32c14.02-21.3,47.07-50.17,66.52-66.56l.32.35Z"/>
  <path class="cls-17" d="m446.38,171.95c3.39,18.39-7.27,41-23.22,50.13,13.51-18.22,18.53-29.91,23.22-50.13Z"/>
  <path class="cls-18" d="m436.7,136.53c-1.51,8.31-4.55,16.03-9.63,22.81-3.88,5.17-7.92,7.73-14.3,7.19-11.95-1-8.8,4.42-13.25,8.98-6.76,6.94-20.47.06-29.38,13.26-5.79,8.59-7.67,16.67-17.8,21.74-6.89,3.44-15.33,3.54-21.95,7.14-6.4,3.48-3.69,10.33-8.81,14.45-6.77,5.45-20.24-.41-26.51,14.38-6.15,14.5,5.92,33.49-7.53,45.17-11.86,10.29-29.57,7.21-43.86,10.21-14.4,3.03-18.55,9.7-22.63,13.55-9.89,9.32-21.94,5.5-28.68,14.74-2.47,3.39-3.08,7.74-5.85,11.01-13.58,16.02-37.58,4.6-59.1,28.67-2.03,2.27,1.34,5.63,3.38,3.34,15.88-17.76,32.03-14.29,47-20.45,16.67-6.86,14.77-16.14,19.29-20.91,3.26-3.44,8.55-4.1,12.92-5.29,18.2-4.94,16.96-16.73,36.1-20.29,21.08-3.92,56.22,2.19,52.24-39.64-3.21-33.66,15.14-23.55,25.6-30.38,4.73-3.09,4.44-8.36,7.9-12.23,5.29-5.9,16.86-6.06,24.11-9.99,20-10.85,10.35-25.87,31.32-29.78,5.06-.94,10.94-1.21,14.98-4.84,2.35-2.12,2.98-4.53,5.64-6.42,3.92-2.78,6.27-.81,10.63-1.38,13.38-1.75,20.75-22.78,22.76-33.88.54-2.99-4.06-4.2-4.61-1.18h0Z"/>
  <path class="cls-7" d="m113.84,389.21c-1.32,3.68-2.14,7.56-2.39,11.55l-3.98-1.5c1.55-4.95-.47-8.43-2.32-13.44-4.88-13.3-.45-30.72,4.43-43.55,10.05-26.42,21.81-36.71,30.37-63.71,5.88-18.56,9-18.52,18.05-21.7,31.75-11.23,38.72-51.73,59.84-74.61,11.52-12.56,17.54-5.03,22.24-5.4,3.98-.32,4.42-2.15,25.33-30.04,6.11-8.2,9.2-5.36,13.17-4.43,17.09,3.93,22.3-30.8,39.52-24.57,5.16,1.88,15.61,15.31,39.44,6.63,10.3-3.75,19.18-10.33,28.58-15.85,4.6-2.68,5.4.35,7.38,3.02,3.21,4.35,9.37,4.66,14.66,5.06,10.33.81,22.18,5.57,26.87,14.17-48.44,10.86-141.61,42.55-254.03,141.6-44.72,39.4-63.51,79.4-67.16,116.77Z"/>
  <path class="cls-11" d="m283.02,341.74s-60.89,68.34-93.01,71.51c-32.11,3.17-52.03-17.27-61.66-2.27-9.63,15,10.81,61.96,82.65,13.36,71.84-48.6,72.02-82.6,72.02-82.6Z"/>
  <path class="cls-5" d="m407.67,169.85c-3.48.75-6.56,4.77-4.46,7.78-6.37,7.9-21.8-1.18-29.2,5.75-8.09,7.55,3.41,30.15-41.1,35.38-9.36,1.12-5.29,6.51-5.52,10.9-.27,5.55-6.96,8.01-12.51,7.98-5.57-.02-11.76-1.11-16.15,2.11-9.75,7.11-.96,23.28.22,31.43,1.74,11.82-5.18,23.95-16.07,28.16-9.23,3.58-19.77,1.71-29.85,1.38-26.78-.89-26.91,13.64-31,18.32-7.47,8.53-25.39,1.38-31.29,11.08-3.33,5.51-.96,14.41-6.41,17.82-4.57,2.85-56.51,1.48-70.48,41.26,3.65-37.37,22.44-77.37,67.16-116.77,112.42-99.06,205.59-130.74,254.03-141.6,3.42,6.37,1.9,12.08.19,18.02-8.03,27.64-20.2,19.46-27.56,20.99Z"/>
  <path class="cls-11" d="m410.11,139.14c-27.72,2.79-51.81,18.12-77.24,32.71-112.31,64.83-114.83,68.52-156.54,116.96-20.17,23.46-38.88,46.31-55.02,80.11-5.25,10.8-7.31,15.28-7.26,25.22.2,17.71,9.16,23.06,16.11,37.07l-.94.58c-6.05-8.04-13.21-14.06-17.73-22.66-4.46-8.42-6.04-22.68-2.18-33.7,3.06-8.65,6.26-16.38,9.52-23.36,13.65-28.86,28.6-48.12,49.33-70.55,18.17-19.48,27.55-29.64,40.56-40.42,29-24.34,63.13-41.85,96.93-59.93,50.47-26.67,74.18-41.43,104.39-43.14l.08,1.11Z"/>
  <path class="cls-11" d="m182.53,278.78c-1.49.76-53.78,70.92-52.51,96.69,1.27,25.77,11.74,28.7,10.33,42.91-1.41,14.21-14.47,17.64-23.12,7.6-8.65-10.04-36.92-54.34,27.35-120.09,64.27-65.75,58.22-53.47,58.22-53.47l-20.26,26.35Z"/>
  <path class="cls-11" d="m224.62,199.54c-30.59,53.91-39.04,66.46-49.55,78.11l-.4-.26c5.34-12.74,11.85-24.69,49.55-78.11l.4.26Z"/>
  <path class="cls-11" d="m314.02,140.95c-15.7,20.82-54.75,65.01-82.09,87.09l-.34-.33c20.73-28.43,45.55-45.62,82.07-87.07l.37.3Z"/>
  <path class="cls-11" d="m266.1,273.62c-64.12,14.21-96.25,39.46-130.67,57.25l-.38-.5c33.26-33.77,88.94-51.71,130.94-57.37l.11.62Z"/>
  <path class="cls-11" d="m205.96,311.44c-15.91-7.54-44.01,4.86-58.65,7.02l-.3-.56c9.21-10.07,21.16-11.16,28.72-11.93,9.28-.87,23.13-.65,30.57,4.92l-.33.54Z"/>
  <path class="cls-11" d="m304.01,222.32c-57.19,10.59-82.39,29.74-113.33,41.96l-.35-.53c27.98-25.97,76.61-38.96,113.59-42.06l.08.63Z"/>
  <path class="cls-11" d="m252.72,331.24c-9.13,39.8-18.56,68.39-38.5,83.88l-.35-.32c22.69-35.05,27.32-50.64,38.39-83.69l.46.13Z"/>
  <path class="cls-11" d="m320.65,369c-44.83,11-60.81,23.05-95.68,38.6l-.26-.4c24.18-21.23,66.69-34.18,95.85-38.67l.09.47Z"/>
  <g>
    <path class="cls-1" d="m213.38,404.66c21.22-7.22,50.1-33.64,68.22-51.8,2.89-7.16,2.92-11.13,2.92-11.13,0,0-39.08,43.86-71.14,62.93Z"/>
    <path class="cls-1" d="m143.2,405.63c-30.51-4-18.62,68.13,54.77,27.63-46.81,18.9-61.15-13.81-54.77-27.63Z"/>
  </g>
  <path class="cls-9" d="m155.24,308.64c7.38-7.55,13.82-14.05,19.46-19.68,4.45-6.14,7.49-10,7.84-10.17l20.26-26.35s6.05-12.28-58.22,53.47c-64.27,65.75-36,110.05-27.35,120.09,4.1,4.76,9.18,6.48,13.55,5.48-9.52-7.29-42.54-54.29,24.46-122.83Z"/>
  <path class="cls-8" d="m103.15,381.6s17.85,51.09,66.48,62.02c0,0-12.37-3.78-17.88,10.75-2.02,5.33-7.95,8.14-13.14,5.77-17.77-8.14-41.69-30.76-50-49.13-2.36-5.21.33-11.14,5.67-13.17,13.84-5.26,7.91-16.23,8.87-16.23Z"/>
  <path class="cls-10" d="m92.33,398.83c-4,2.58-5.77,7.65-3.72,12.18,8.32,18.38,32.24,41,50,49.13,4.34,1.99,9.19.34,11.85-3.37-21.37-13.08-45.59-36.55-58.13-57.94Z"/>
  <g class="cls-2">
    <path d="m373.63,183.68c-2.96,2.77-3.48,7.06-4.29,11.2,18.26,4.48,5.85-6.6,47.39-17.42,1.66-2.81,3.26-5.57,4.77-8.24-5.25,2.11-9.56-.04-14.21.93-3.48.75-6.56,4.77-4.46,7.78-6.37,7.9-21.8-1.18-29.2,5.75Z"/>
    <path d="m298.79,276.46c3.95-12.67,14.45-31.68,22.32-38.7.72-.64,1.27-1.22,1.72-1.77-8.04,4.46-17.7-.91-24.47,4.06-10.82,7.89,1.03,24.96.44,36.41Z"/>
    <path d="m276.56,301.23c-9.56,1.59-19.93-.69-29.22-.14-1.47,6.46-3.67,12.52-7.66,16.83,12.51-4.47,26.06-10.56,36.88-16.69Z"/>
  </g>
  <path class="cls-10" d="m106.2,361.93c-6.54,18.96-2.02,39.56,11.22,54.48,4.06,4.58,10.74-2.2,6.69-6.76-11.11-12.52-14.11-29.64-8.69-45.35,2-5.78-7.23-8.13-9.21-2.36h0Z"/>
  <path class="cls-3" d="m164.58,421.12c8.74,2.44,17.76,3.12,26.76,1.95,3-.39,3.01-5.15-.03-4.76-8.63,1.12-17.17.54-25.55-1.8-2.95-.82-4.13,3.78-1.18,4.61h0Z"/>
  <path class="cls-17" d="m205.74,272.22c8.9-7.33,18.12-11.48,28.08-15.64,6.94-2.52,14.67-1.61,19.59,1.03l.08.95c-12.55,9.94-14.98,3.34-47.29,14.49l-.47-.83Z"/>
  <path class="cls-6" d="m333.06,199.88c-18.79,5.43-16.28,9.63-26.56,9.19l-.36-.52c2.67-7.44,9.42-7.89,12.1-8.51,5.21-1.21,10.66-1.36,14.77-.79l.04.63Z"/>
  <path class="cls-17" d="m407.14,256.7c2.05,8.77-2.24,19.26-3.68,21.23-2.01,2.51-5.9,4.37-10.08,3.55l-.56-.77c.07-1.41.64-4.25,1.37-6.08,1.36-3.95,3.04-3.75,5.04-6.11,3.02-3.62,5.2-7.43,6.96-11.88l.95.07Z"/>
</svg>