<?xml version="1.0" encoding="UTF-8"?>
<svg xmlns="http://www.w3.org/2000/svg" viewBox="0 0 540 540">
  <defs>
    <style>
      .cls-1 {
        fill: #f8f9e5;
        opacity: .5;
      }

      .cls-2 {
        isolation: isolate;
      }

      .cls-3 {
        fill: #adcc7a;
      }

      .cls-4 {
        fill: #f5adaa;
      }

      .cls-5 {
        fill: #f4d4c4;
      }

      .cls-6 {
        fill: #ec6c68;
      }

      .cls-7 {
        fill: #2b793c;
      }

      .cls-8 {
        fill: #a99288;
      }

      .cls-9 {
        fill: #a36254;
      }

      .cls-10 {
        fill: #5a2c27;
      }

      .cls-11 {
        fill: #d49d86;
      }

      .cls-12 {
        fill: #ea534e;
      }

      .cls-13 {
        fill: #af4227;
      }

      .cls-14 {
        fill: #bfb499;
        mix-blend-mode: multiply;
        opacity: .7;
      }

      .cls-15 {
        fill: #406133;
      }

      .cls-16 {
        fill: #c1332b;
      }

      .cls-17 {
        fill: #eb6e56;
      }
    </style>
  </defs>
  <g class="cls-2">
    <g id="_Layer_" data-name="&amp;lt;Layer&amp;gt;">
      <g>
        <g>
          <g>
            <path class="cls-15" d="m233.62,495.61c15.76,4.89,172.82,38.27,264-72.81,7.71-16.06,8.57-34.94,3.29-46.57,0,0-283.05,114.49-267.29,119.38Z"/>
            <path class="cls-7" d="m80.43,124.78l420.48,251.44s-78.18,148.96-249.33,122.55C80.43,472.37-4.08,289.59,80.43,124.78Z"/>
            <path class="cls-5" d="m293.25,494.5c-12.76,0-25.94-1.04-39.16-3.07-76.1-11.74-139.26-56.7-173.28-123.36-37.24-72.97-35.52-160.45,4.61-240.44l411.45,246.05c-9.49,16.35-75.24,120.82-203.63,120.82Z"/>
            <path class="cls-12" d="m109.61,142.09c-30.97,69.28-37.3,151.64-5.84,213.29,30.49,59.72,87.07,100,155.26,110.53,11.85,1.82,23.65,2.75,35.08,2.75,99.65,0,162.08-76.97,182.52-107.09L109.61,142.09Z"/>
            <path class="cls-16" d="m148.74,313.86c-3.54-7.11-50.09-2.06-35.15,21.9,14.92,23.97,38.69-14.8,35.15-21.9Z"/>
            <path class="cls-13" d="m142.4,315.75s-2.71-3.14-17.77,2.69c-16.86,6.55-3.45,25.69,8.04,15.31,0,0,15.39-13.14,9.74-18Z"/>
            <g>
              <path class="cls-14" d="m212.86,325c-7.37-6.08-58.87,21.46-30.2,42.04,28.67,20.6,37.57-35.97,30.2-42.04Z"/>
              <path class="cls-10" d="m207.77,353.93c3.75-10.06,2.93-24.39.49-25.64-5.57-2.89-28.86,15.64-29.54,25-.54,7.43,5.65,12.29,12.52,13.37,10.13,1.6,13.34-4.14,16.54-12.73Z"/>
              <path class="cls-8" d="m199.23,333.64c-6.87,4.17-14.03,9.9-16.81,17.73-.25.7.84,1.26,1.28.67,4.98-6.53,9.05-12.85,16.32-17.16.81-.49.02-1.74-.79-1.24Z"/>
            </g>
          </g>
          <g>
            <path class="cls-16" d="m147.19,203.64c1.27-7.14-34.09-33.88-39.04-7.26-4.96,26.61,37.77,14.39,39.04,7.26Z"/>
            <path class="cls-11" d="m137.44,200.4s.1-3.28-11.77-7.9c-13.29-5.17-15.69,13.11-3.48,13.18,0,0,15.95.55,15.25-5.27Z"/>
          </g>
          <path class="cls-14" d="m147.08,256.96c-2.63-6.73-48.53-13.83-39.57,13.15,8.96,26.98,42.2-6.42,39.57-13.15Z"/>
          <g>
            <g>
              <path class="cls-16" d="m391.63,374.49c-8.68,7.63,7.36,39.71,23.49,23.68,16.14-16.01-14.8-31.31-23.49-23.68Z"/>
              <path class="cls-13" d="m393.67,378.92s-2.38,3.05,4.19,13.68c7.37,11.89,22.18-4.19,12.14-10.67,0,0-12.81-8.91-16.32-3.01Z"/>
            </g>
            <path class="cls-9" d="m429.91,399.54l.03.42h0c-.02-.14-.03-.27-.03-.42Z"/>
          </g>
          <path class="cls-14" d="m328.38,400.8c-10.11.51-27.75,44.62,1.82,43.38,29.59-1.25,8.29-43.89-1.82-43.38Z"/>
          <g>
            <path class="cls-14" d="m263.01,376.35c-11.23-3.67-50.82,36.7-17.61,48.71,33.21,12,28.85-45.04,17.61-48.71Z"/>
            <path class="cls-10" d="m259.56,383.7s-5.53-1.7-17.54,14.26c-13.43,17.85,16.83,30.14,21.23,11.54,0,0,6.49-24.1-3.69-25.8Z"/>
          </g>
          <path class="cls-16" d="m215.97,270.84c-2.93-6.1-45.08-4.4-35.42,16.37,11.05,23.74,38.35-10.28,35.42-16.37Z"/>
          <path class="cls-16" d="m211.05,231.08c1.22-6.4-28.87-22.51-32.33-5.33-3.95,19.64,31.11,11.74,32.33,5.33Z"/>
          <path class="cls-16" d="m265.19,298.19c-7.75-3.83-36.14,27.1-15.8,35.06,20.35,7.95,23.54-31.23,15.8-35.06Z"/>
          <path class="cls-13" d="m263.08,302.72c-5.74-2.84-26.76,20.07-11.7,25.95,15.07,5.88,17.43-23.1,11.7-25.95Z"/>
          <path class="cls-16" d="m305.32,310.26c-7.39-.8-24.4,34.04-3.58,35.3,20.82,1.27,10.96-34.5,3.58-35.3Z"/>
          <path class="cls-16" d="m353.27,313.98c-7.22,2.69-5.33,34.59,10.25,29.63,15.59-4.97-3.02-32.31-10.25-29.63Z"/>
        </g>
        <g>
          <path class="cls-11" d="m254.16,309.76c-.63.58-1.13.98-1.65,1.75-.32.46-.64.93-.93,1.4-1.58,2.55-1.32,6.04,1.43,7.65.47.28.98.42,1.51.5.74.13,1.47.15,2.21-.05,1.6-.44,2.73-1.65,3.43-3.09.82-1.65,1.4-3.26,1.35-5.12-.1-3.82-4.59-5.61-7.35-3.05Z"/>
          <g>
            <path class="cls-1" d="m127.42,319.1s.03-.01.05-.01c-.04,0-.05.01-.05.01Z"/>
            <path class="cls-11" d="m134.05,320.96c-1.05-1.79-2.95-2.34-4.89-1.99,1.27-.23-1.73.15-1.74.12-.96.22-1.86.64-2.74,1.09-2.31,1.18-4.26,2.97-4.24,5.78.01,1.53.86,3.43,2.34,4.09,1.28.57,2.68,1.11,4.1.59.94-.34,1.85-.72,2.71-1.24.86-.52,1.65-1.07,2.45-1.69.43-.36.79-.79,1.08-1.28t.01-.03c.05-.05.13-.11.24-.2,1.41-1.32,1.63-3.61.67-5.24Z"/>
          </g>
          <path class="cls-11" d="m406.62,384.89c-.45-1.19-.93-1.92-1.73-2.91-1.04-1.28-2.36-1.67-3.94-1.86-1.1-.12-2.38.55-3.13,1.3-1.22,1.23-1.36,2.68-1.14,4.31.04.49.21.94.5,1.37.37.48.58.76.67.88.34.48.67.96,1.08,1.39,1.43,1.49,3.82,1.75,5.57.72,1.66-.97,2.83-3.28,2.11-5.2Z"/>
          <g>
            <path class="cls-10" d="m329.9,406.41c-3.79-3.03-5.99-.35-10.23,16.98-2.24,9.19.09,18.3,11.41,18.07,16.98-.34,9.76-26.29-1.18-35.05Z"/>
            <path class="cls-8" d="m325.35,436.07c-3.99-7.02-2.17-15.23.23-22.47.09-.28-.28-.44-.41-.18-3.46,6.95-5.96,16.58-1.41,23.58.58.87,2.11,0,1.59-.93Z"/>
          </g>
          <g>
            <path class="cls-10" d="m139.78,259.2c-1.81-4.83-15.64-4.45-21.72-2.96-7.67,1.88-12.27,7.11-8.74,15.05,5.58,12.54,18.62,3.56,24.26-3.18,2.58-3.09,6.84-7.21,6.2-8.92Z"/>
            <path class="cls-8" d="m136.64,258.5c-7.67-3.13-18.04-1.73-24.87,2.83-.63.42-.03,1.44.6,1.02,7.43-4.98,15.53-4.21,23.91-2.93.51.08.9-.69.36-.91Z"/>
          </g>
          <path class="cls-8" d="m258.48,387.5c-7.92,2.43-14.76,11.01-17.17,18.86-.22.72.89,1.14,1.11.41,2.6-8.56,9.05-14.01,16.35-18.34.44-.27.27-1.11-.3-.93Z"/>
          <path class="cls-3" d="m180.77,458.11C11.05,368.39,74.06,178.19,92.46,131.83l-7.03-4.21c-40.14,79.99-41.85,167.47-4.61,240.44,34.02,66.66,97.18,111.62,173.28,123.36,13.22,2.04,26.4,3.07,39.16,3.07,128.38,0,194.14-104.48,203.63-120.82l-7.13-4.27c-31.66,46.1-150.54,172.47-308.97,88.71Z"/>
          <path class="cls-17" d="m476.63,361.57l-6.77-4.05c-29.03,41.47-140.46,152.09-281.7,73.69C44.82,351.63,101.64,177.75,114.03,144.73l-4.42-2.64c-30.97,69.28-37.3,151.64-5.84,213.29,30.49,59.72,87.07,100,155.26,110.53,11.85,1.82,23.65,2.75,35.08,2.75,99.65,0,162.08-76.97,182.52-107.09Z"/>
          <path class="cls-6" d="m387.4,338.92c-5.11-3.69-17.24,13.89-21.16,16.28-15.93,9.7-22.97-13.44-26.35-24.53-3.98-13.03-10.33-46.04-29.62-43.84-13.64,1.56-23.28,20.32-30.26,30.4-8.19,11.84-28.71,41.27-42.34,16.52-8-14.53-1.9-32.72,5.51-46.13,4.49-8.12,8.97-18.02,9.55-27.4.92-14.83-8.74-17.31-21.75-18.36-16.53-1.34-33.78,8.45-49.97,5.25-24.93-4.93-.17-54.51-15.48-54.71-13.14-.17-10.69,20.57-16.61,27.02-5.96,6.48-52.43-.53-43.36,15.17,2.36,4.09,13.38,2.71,17.3,2.53,12.98-.63,27.05,1.16,32.57,15.38,8.59,22.13-22.99,24.88-35.17,35.86-14.29,12.89,12.21,7.24,18.98,7.36,38.28.63,4.32,46.36,4.47,64.51.09,9.85,3.48,20.71,10.92,27.53,5.8,5.31,17.25,7.9,14.83-3.57-1.65-7.79-11.21-11.13-12.9-19.36-1.65-8.06,2.66-16.87,7.68-22.89,8.61-10.3,29.55-27.56,43.62-28.11,17.89-.7,18.41,22.2,15.89,34.66-1.87,9.28-15.48,25.5-11.98,34.94,3.78,10.22,18.17-4.88,22.99-8.1,8.98-6,18.1-13.53,29.61-10.59,9.88,2.52,15.41,14.21,17.62,23.38,2.35,9.74-.13,29.37,6.55,37.52,8.26,10.09,15.18-14.53,16.41-19.47,2.94-11.76,3.87-35.01,17.88-39.87,5.6-1.94,9.52,1.67,13.23,5.86,13.97,15.79,27.75,4.46,39.3-8.72,2.85-3.25,17.88-20.31,12.01-24.53Zm-204.86-29.39c-1.4-.16-2.71-.44-3.91-.81-14.03-4.44-15.42-23.09-10.3-35.3,7.59-18.06,33.16-23.38,50.68-20.43,36.94,6.22-14.74,59.01-36.47,56.55Zm139.21,39.2c-5.28,11.19-14.67,19.98-26.59,20.83-44.98,3.17,5.92-82.04,23.17-64.11,10.18,10.58,10.19,28.92,3.42,43.29Z"/>
          <path class="cls-4" d="m152.47,177.63c-3.71-3.81-9.13-6.49-13.44-9.65-4.51-3.3-9.54-5.72-14.8-7.55-2.8-.98-3.97,2.95-1.88,4.46,4.35,3.17,8.24,6.93,12.53,10.18,4.17,3.16,8.74,7.63,13.94,8.81,3.62.82,6.32-3.5,3.65-6.25Z"/>
          <path class="cls-4" d="m309.72,270.69c-25.13-15.99-52.19-28.11-75.57-46.93-3.13-2.52-7.61,1.7-4.51,4.53,22.11,20.13,49.8,35.33,76.47,48.59,4.12,2.06,7.54-3.69,3.62-6.19Z"/>
          <path class="cls-4" d="m418.28,337.65c-6.99-7.03-18.55-9.82-27.24-14.35-3.95-2.06-7.1,3.44-3.46,5.92,7.94,5.42,18.29,11.54,27.86,13.3,2.76.51,5.03-2.68,2.84-4.87Z"/>
        </g>
      </g>
    </g>
  </g>
</svg>