<?xml version="1.0" encoding="UTF-8"?>
<svg id="_Layer_" data-name="&amp;lt;Layer&amp;gt;" xmlns="http://www.w3.org/2000/svg" viewBox="0 0 540 540">
  <defs>
    <style>
      .cls-1 {
        fill: #ffc76c;
      }

      .cls-2, .cls-3 {
        opacity: .5;
      }

      .cls-2, .cls-4 {
        fill: #e5602c;
      }

      .cls-5 {
        fill: #004f4b;
      }

      .cls-6, .cls-3 {
        fill: #f9b233;
      }

      .cls-7 {
        fill: #f17f2f;
      }
    </style>
  </defs>
  <path class="cls-5" d="m87.45,378.73s-31.53,67.66,52.07,102.27c78.24,32.39,152.8,34.2,235.55,19.68,133.21-23.37,95.18-112.59,95.18-112.59l-382.8-9.36Z"/>
  <path class="cls-4" d="m88.06,372.65s-31.53,67.66,52.07,102.27c78.24,32.39,152.8,34.2,235.55,19.68,133.21-23.37,95.18-112.59,95.18-112.59l-382.8-9.36Z"/>
  <g>
    <polygon class="cls-7" points="431.66 274.19 381.37 251.85 322.59 328.28 377.54 345.39 431.66 274.19"/>
    <polygon class="cls-1" points="350.44 223.41 381.37 251.85 319.09 333.21 290.92 286.32 350.44 223.41"/>
    <path class="cls-6" d="m101.17,333.53s-12.01,32.37,37.74,77.77l-13.1,52s-75.28-27.2-24.64-129.77Z"/>
    <polygon class="cls-1" points="415.79 275.43 429.34 332.83 346.12 371.81 365.8 298.62 415.79 275.43"/>
    <path class="cls-3" d="m404.65,332.26c-.46,4.67-1.43,9.17-2.82,13.45l-55.7,26.11,19.66-73.19,25.71-11.91c9.73,12.5,14.83,28.57,13.15,45.55Z"/>
    <path class="cls-4" d="m138.91,411.3l49.79-5.43s-26.59,61.07-62.88,57.43l13.1-52Z"/>
    <polygon class="cls-7" points="322.12 302.68 384.41 296.89 346.12 371.81 287.06 370.42 322.12 302.68"/>
    <polygon class="cls-1" points="257.14 214.83 279.62 238.99 267.74 316.81 239.71 294.51 257.14 214.83"/>
    <polygon class="cls-7" points="337.29 230.79 322.59 328.28 264 340.11 279.62 238.99 337.29 230.79"/>
    <polygon class="cls-1" points="298.61 253.9 266.98 324.47 287.06 370.42 322.12 302.68 298.61 253.9"/>
    <path class="cls-7" d="m101.17,333.53c2.88-7.58,38.5,4.84,38.5,4.84,0,0,24.2,42.66,49.03,67.5l-49.79,5.43s-51.31-42.05-37.74-77.77Z"/>
    <path class="cls-3" d="m316.45,313.64l-29.4,56.78-20.07-45.95,14.02-31.3c.66.02,1.34.06,2.02.13,14.2,1.41,26.21,9.25,33.43,20.34Z"/>
    <polygon class="cls-7" points="429.34 332.83 346.12 371.81 412.41 382.85 477.21 358.15 429.34 332.83"/>
    <polygon class="cls-7" points="298.42 300.33 247.05 316.65 247.82 375.51 287.06 370.42 298.42 300.33"/>
    <path class="cls-4" d="m486.46,409.75l-15.69-49.14-49.55,18.88s19.34,20.29,65.23,30.26Z"/>
    <ellipse class="cls-2" cx="169.63" cy="367.76" rx="29.09" ry="51.12" transform="translate(-213.07 500.29) rotate(-84.34)"/>
    <polygon class="cls-7" points="158.18 380.89 200.96 346.48 247.82 375.51 188.69 405.87 158.18 380.89"/>
    <g>
      <path class="cls-2" d="m225.62,361.76l22.2,13.76-38.84,19.95c2.31-12.55,8.15-23.96,16.64-33.7Z"/>
      <path class="cls-2" d="m293.85,328.47l-6.8,41.94-39.23,5.1-.42-31.74c13.29-7.95,29.17-13.31,46.45-15.3Z"/>
      <path class="cls-2" d="m362.99,338.8l-16.86,33.02-59.08-1.4,22.14-42.8c4.41-.01,8.89.22,13.4.67,14.55,1.44,28.2,5.11,40.4,10.51Z"/>
      <path class="cls-2" d="m412.54,382.79l-.12.06-66.29-11.03,40.61-19.02c11.07,8.5,19.91,18.72,25.8,29.99Z"/>
    </g>
    <path class="cls-1" d="m125.81,463.3s62.99-85.05,171.69-100.19,188.96,46.64,188.96,46.64c0,0-238.7,82.03-360.65,53.55Z"/>
    <path class="cls-6" d="m125.81,463.3s93.77,49.76,207.92,33.44c114.14-16.32,131.32-40.23,152.73-86.99,0,0-193.22-57.18-360.65,53.55Z"/>
    <path class="cls-1" d="m320.38,452.23c13.48,2.55,14.17,21.49.96,25.17-11.04,3.07-24.62,5.76-41.56,8.18-18.88,2.7-36.89,2.55-53.19.86-16.98-1.76-19.59-25.3-3.47-30.93,18.53-6.47,42.87-9.71,73.51-6.68,8.2.81,16.15,1.96,23.76,3.4Z"/>
    <polygon class="cls-4" points="188.69 405.87 166.2 439.92 201.94 487.67 185.51 430.48 188.69 405.87"/>
    <polygon class="cls-7" points="159.15 291.24 117.6 338.22 136.88 351.61 217.61 329.54 159.15 291.24"/>
    <ellipse class="cls-1" cx="387.78" cy="457.44" rx="34.37" ry="15.82" transform="translate(-15.12 13.26) rotate(-1.92)"/>
    <polygon class="cls-7" points="247.82 375.51 244.26 411.38 268.96 494.32 260.96 409.05 247.82 375.51"/>
    <polygon class="cls-4" points="105.06 366.62 92.81 423.96 107.63 372.19 142.76 372.43 105.06 366.62"/>
    <polygon class="cls-7" points="300.96 370.75 326.46 397.92 333.68 497.35 351.3 396.35 300.96 370.75"/>
    <polygon class="cls-4" points="144.66 273.12 176.76 295.82 217.61 329.54 159.15 291.24 144.66 273.12"/>
    <path class="cls-7" d="m384.04,378.98l27.76,18.7s4.82,11.29-11.67,83.69l35.41-81.34-51.5-21.05Z"/>
    <polygon class="cls-7" points="245.08 240.34 254.85 339.73 217.61 329.54 193.83 271.42 245.08 240.34"/>
    <polygon class="cls-6" points="127.88 339.24 158.18 380.89 200.96 346.48 176.22 301.3 127.88 339.24"/>
    <polygon class="cls-6" points="216.03 273.62 247.05 316.65 298.42 300.33 273.91 254.55 216.03 273.62"/>
    <polygon class="cls-6" points="298.61 253.9 322.12 302.68 384.41 296.89 358.51 246.81 298.61 253.9"/>
    <polygon class="cls-6" points="415.79 275.43 429.34 332.83 477.21 358.15 458.24 297.63 415.79 275.43"/>
    <polygon class="cls-4" points="176.22 301.3 217.61 329.54 247.82 375.51 200.96 346.48 176.22 301.3"/>
    <polygon class="cls-1" points="216.03 273.62 217.61 329.54 247.82 375.51 247.05 316.65 216.03 273.62"/>
    <polygon class="cls-6" points="108.89 314.96 117.6 338.22 159.15 291.24 144.66 273.12 108.89 314.96"/>
    <polygon class="cls-6" points="171.71 244.42 193.83 271.42 245.08 240.34 218.78 219.04 171.71 244.42"/>
    <polygon class="cls-6" points="257.14 214.83 279.62 238.99 337.29 230.79 307.72 206.49 257.14 214.83"/>
    <polygon class="cls-6" points="350.44 223.41 381.37 251.85 431.66 274.19 350.44 223.41"/>
    <polygon class="cls-1" points="193.83 271.42 171.71 244.42 198.2 309.92 191.96 294.49 162.07 261.74 157.21 281.99 217.61 329.54 193.83 271.42"/>
    <polygon class="cls-6" points="162.07 261.74 191.96 294.49 178.66 261.6 162.07 261.74"/>
    <path class="cls-3" d="m203.75,295.7l13.86,33.85-38.48-30.3c4.22-1.87,8.68-3.1,13.28-3.64,3.25-.39,6.6-.43,9.96-.1.47.05.91.09,1.37.18Z"/>
    <path class="cls-3" d="m247.11,355.8c-.48,4.88-1.54,9.56-3.06,13.97l-26.44-40.21-.85-30.2c19.92,8.93,32.82,31.53,30.35,56.45Z"/>
    <polygon class="cls-4" points="247.82 375.51 268.96 494.32 244.26 411.38 247.82 375.51"/>
    <path class="cls-4" d="m341.92,438.1c-1.22,12.26-4.95,23.28-10.23,31.82l-5.22-71.98-14.93-15.91c.9-.03,1.79-.01,2.7.08,18.17,1.8,30.57,26.87,27.68,56Z"/>
    <path class="cls-4" d="m400.13,481.37c10.47-45.94,12.35-67.29,12.32-76.72,5.11,6.07,8.67,15.08,9.97,25.54l-22.29,51.19Z"/>
  </g>
</svg>