<?xml version="1.0" encoding="UTF-8"?>
<svg xmlns="http://www.w3.org/2000/svg" viewBox="0 0 540 540">
  <defs>
    <style>
      .cls-1 {
        fill: #7b9d3f;
      }

      .cls-2 {
        fill: #faac18;
      }

      .cls-3, .cls-4 {
        mix-blend-mode: overlay;
        opacity: .53;
      }

      .cls-5 {
        isolation: isolate;
      }

      .cls-6, .cls-4 {
        fill: #c9c9c9;
      }

      .cls-7 {
        fill: #f2a325;
      }

      .cls-8 {
        fill: #ed9f24;
      }

      .cls-9 {
        fill: #f2a718;
      }
    </style>
  </defs>
  <g class="cls-5">
    <g id="_Layer_" data-name="&amp;lt;Layer&amp;gt;">
      <g>
        <path class="cls-7" d="m443.11,293.75c-2.63,92.14-76.86,154.17-172.49,154.64-100.88.48-176.37-72.42-173.74-164.57,2.63-92.15,75.68-151.28,171.33-152.99,102.11-1.83,177.57,70.76,174.9,162.92Z"/>
        <path class="cls-2" d="m244.67,155.72c-16.42,3.46-73.93,18.49-99.22,71.75-29.42,61.93-3.72,151.25,65.64,183.18,70.61,32.51,143.95-14.05,177.07-59.53,7.81-10.73,46.59-67,24.42-123.65-24.51-62.63-107.41-84.51-167.92-71.75Z"/>
        <path class="cls-8" d="m211.09,410.65c-69.36-31.93-95.06-121.25-65.64-183.18,12.15-25.57,31.72-42.33,50.61-53.22,11.77-15.73,26.17-29.65,42.74-40.98-80.83,12.11-139.55,68.12-141.91,150.56-2.64,92.14,72.86,165.05,173.74,164.57,9.91-.05,19.58-.77,28.97-2.1-22.75-5.02-44.15-14.38-63.04-27.23-8.48-1.76-16.99-4.51-25.47-8.41Z"/>
        <path class="cls-9" d="m145.45,227.47c-29.42,61.93-3.72,151.25,65.64,183.18,8.47,3.9,16.99,6.65,25.47,8.41-36.96-25.15-64.26-63.67-72.97-109.16-9.26-48.32,3.81-97.34,32.48-135.66-18.89,10.9-38.46,27.65-50.61,53.22Z"/>
        <path class="cls-4" d="m362.6,167.36c31.47,21.37,61,76.84,51.18,121.47-9.83,44.57-43.04,29.98-53.5-5.07-10.48-35.05-29.98-64.31-49.6-88.57-19.63-24.29,11.15-55.53,51.92-27.83Z"/>
        <path class="cls-4" d="m381.87,330.25c-7.81-.12-17.39,4.1-20.35,12.21-4.14,11.33,6.04,26.35,19.34,28.49,10.87,1.75,23.33-5.17,25.44-15.27,2.57-12.3-11.11-25.23-24.42-25.44Z"/>
        <g class="cls-3">
          <path class="cls-6" d="m166.64,299.08c1.02,3.42.76,2.62-3.14,3.78-3.91,1.18-8.3,1.59-9.31-1.84-1.06-3.43,1.3-7.17,5.21-8.33,3.9-1.16,6.2,2.95,7.24,6.39Z"/>
          <path class="cls-6" d="m182.99,316.96c-3.39,1.07-2.58.8-3.82-3.08-1.21-3.9-1.69-8.29,1.72-9.35,3.44-1.06,7.19,1.23,8.42,5.12,1.2,3.89-2.89,6.25-6.31,7.31Z"/>
          <path class="cls-6" d="m202.83,263.53c-2.39,1.46-1.83,1.09-3.48-1.6-1.66-2.72-2.88-5.96-.51-7.42,2.38-1.46,5.69-.46,7.36,2.26,1.67,2.72-.98,5.28-3.37,6.77Z"/>
          <path class="cls-6" d="m154.09,269.17c-2.37,1.46-1.84,1.09-3.48-1.6-1.68-2.73-2.88-5.95-.5-7.43,2.39-1.47,5.66-.46,7.35,2.26,1.65,2.71-.99,5.3-3.37,6.77Z"/>
          <path class="cls-6" d="m128.16,328.79c-2.37,1.48-1.82,1.12-3.49-1.59-1.68-2.72-2.87-5.95-.5-7.42,2.4-1.47,5.69-.46,7.34,2.25,1.68,2.7-.96,5.29-3.35,6.75Z"/>
          <path class="cls-6" d="m181.43,293.71c-2.38,1.46-1.84,1.1-3.5-1.61-1.67-2.72-2.9-5.94-.5-7.41,2.37-1.47,5.68-.45,7.33,2.25,1.68,2.72-.95,5.3-3.34,6.77Z"/>
          <path class="cls-6" d="m234.07,309.64c-2.39,1.47-1.82,1.12-3.49-1.59-1.66-2.73-2.88-5.95-.51-7.42,2.41-1.47,5.7-.45,7.37,2.25,1.67,2.72-.98,5.3-3.36,6.76Z"/>
          <path class="cls-6" d="m183.12,355.21c-2.38,1.47-1.83,1.12-3.49-1.6-1.68-2.71-2.89-5.96-.5-7.43,2.39-1.46,5.68-.45,7.35,2.27,1.66,2.7-.96,5.29-3.35,6.76Z"/>
        </g>
        <path class="cls-1" d="m268.71,146.04c-4.33,1.86-4.93,3.38-6.88,3.16-2.07-.24-2.06-2.01-5.66-5.23-3.26-2.91-5.77-3.7-5.38-4.6.39-.87,2.79-.25,6.74-1.24,4.95-1.24,5.79-3.37,8.18-2.96,2.28.39,1.85,2.4,5.55,4.94,2.93,2.01,5.23,2.15,5.15,3.04-.1,1.02-3.14.94-7.69,2.89Z"/>
      </g>
    </g>
  </g>
</svg>