<?xml version="1.0" encoding="UTF-8"?>
<svg id="_Layer_" data-name="&amp;lt;Layer&amp;gt;" xmlns="http://www.w3.org/2000/svg" xmlns:xlink="http://www.w3.org/1999/xlink" viewBox="0 0 540 540">
  <defs>
    <style>
      .cls-1 {
        fill: url(#_Безымянный_градиент_62-87);
      }

      .cls-2 {
        fill: url(#_Безымянный_градиент_62-6);
      }

      .cls-3 {
        fill: url(#_Безымянный_градиент_62-51);
      }

      .cls-4 {
        fill: url(#_Безымянный_градиент_62-84);
      }

      .cls-5 {
        fill: url(#_Безымянный_градиент_62-88);
      }

      .cls-6 {
        fill: url(#_Безымянный_градиент_62-34);
      }

      .cls-7 {
        fill: url(#_Безымянный_градиент_62-150);
      }

      .cls-8 {
        fill: url(#_Безымянный_градиент_62-69);
      }

      .cls-9 {
        fill: url(#_Безымянный_градиент_62-106);
      }

      .cls-10 {
        fill: url(#_Безымянный_градиент_62-95);
      }

      .cls-11 {
        fill: url(#_Безымянный_градиент_62-113);
      }

      .cls-12 {
        fill: url(#_Безымянный_градиент_62-149);
      }

      .cls-13 {
        fill: url(#_Безымянный_градиент_62-154);
      }

      .cls-14 {
        fill: url(#_Безымянный_градиент_62-57);
      }

      .cls-15 {
        fill: url(#_Безымянный_градиент_62-25);
      }

      .cls-16 {
        fill: url(#_Безымянный_градиент_62-10);
      }

      .cls-17 {
        fill: url(#_Безымянный_градиент_62-131);
      }

      .cls-18 {
        fill: url(#_Безымянный_градиент_62-141);
      }

      .cls-19 {
        fill: url(#_Безымянный_градиент_62-45);
      }

      .cls-20 {
        fill: url(#_Безымянный_градиент_62-39);
      }

      .cls-21 {
        opacity: .5;
      }

      .cls-22 {
        fill: url(#_Безымянный_градиент_62-59);
      }

      .cls-23 {
        fill: url(#_Безымянный_градиент_62-146);
      }

      .cls-24 {
        fill: url(#_Безымянный_градиент_77);
      }

      .cls-25 {
        fill: url(#_Безымянный_градиент_62-100);
      }

      .cls-26 {
        fill: url(#_Безымянный_градиент_62-160);
      }

      .cls-27 {
        fill: url(#_Безымянный_градиент_76-3);
      }

      .cls-28 {
        fill: url(#_Безымянный_градиент_62-40);
      }

      .cls-29 {
        fill: url(#_Безымянный_градиент_62-163);
      }

      .cls-30 {
        fill: url(#_Безымянный_градиент_62-74);
      }

      .cls-31 {
        fill: url(#_Безымянный_градиент_62-107);
      }

      .cls-32 {
        fill: url(#_Безымянный_градиент_62-86);
      }

      .cls-33 {
        fill: url(#_Безымянный_градиент_62-155);
      }

      .cls-34 {
        fill: url(#_Безымянный_градиент_62-83);
      }

      .cls-35 {
        clip-path: url(#clippath-2);
      }

      .cls-36 {
        fill: url(#_Безымянный_градиент_62-60);
      }

      .cls-37 {
        fill: url(#_Безымянный_градиент_62-151);
      }

      .cls-38 {
        fill: url(#_Безымянный_градиент_62-43);
      }

      .cls-39 {
        fill: url(#_Безымянный_градиент_62-118);
      }

      .cls-40 {
        fill: url(#_Безымянный_градиент_62-161);
      }

      .cls-41 {
        fill: url(#_Безымянный_градиент_62-26);
      }

      .cls-42 {
        fill: url(#_Безымянный_градиент_62-36);
      }

      .cls-43 {
        fill: url(#_Безымянный_градиент_62-14);
      }

      .cls-44 {
        fill: url(#_Безымянный_градиент_62-47);
      }

      .cls-45 {
        fill: url(#_Безымянный_градиент_62-4);
      }

      .cls-46 {
        fill: url(#_Безымянный_градиент_62-23);
      }

      .cls-47 {
        fill: url(#_Безымянный_градиент_62-110);
      }

      .cls-48 {
        fill: url(#_Безымянный_градиент_62-85);
      }

      .cls-49 {
        fill: url(#_Безымянный_градиент_76);
      }

      .cls-50 {
        fill: url(#_Безымянный_градиент_62-105);
      }

      .cls-51 {
        fill: url(#_Безымянный_градиент_62-63);
      }

      .cls-52 {
        fill: url(#_Безымянный_градиент_62-117);
      }

      .cls-53 {
        fill: url(#_Безымянный_градиент_62-70);
      }

      .cls-54 {
        fill: url(#_Безымянный_градиент_62-24);
      }

      .cls-55 {
        fill: url(#_Безымянный_градиент_62-147);
      }

      .cls-56 {
        fill: url(#_Безымянный_градиент_62-19);
      }

      .cls-57 {
        fill: url(#_Безымянный_градиент_62-29);
      }

      .cls-58 {
        fill: url(#_Безымянный_градиент_59);
      }

      .cls-59 {
        fill: url(#_Безымянный_градиент_62-122);
      }

      .cls-60 {
        fill: url(#_Безымянный_градиент_62-80);
      }

      .cls-61 {
        fill: url(#_Безымянный_градиент_62-90);
      }

      .cls-62 {
        fill: url(#_Безымянный_градиент_62-120);
      }

      .cls-63 {
        fill: url(#_Безымянный_градиент_76-5);
      }

      .cls-64 {
        fill: url(#_Безымянный_градиент_62-115);
      }

      .cls-65 {
        fill: url(#_Безымянный_градиент_62-135);
      }

      .cls-66 {
        fill: url(#_Безымянный_градиент_62-64);
      }

      .cls-67 {
        fill: url(#_Безымянный_градиент_62-22);
      }

      .cls-68 {
        fill: url(#_Безымянный_градиент_62-152);
      }

      .cls-69 {
        fill: url(#_Безымянный_градиент_62-38);
      }

      .cls-70 {
        fill: url(#_Безымянный_градиент_62);
      }

      .cls-71 {
        fill: url(#_Безымянный_градиент_62-140);
      }

      .cls-72 {
        fill: url(#_Безымянный_градиент_62-73);
      }

      .cls-73 {
        fill: url(#_Безымянный_градиент_62-16);
      }

      .cls-74 {
        fill: url(#_Безымянный_градиент_62-61);
      }

      .cls-75 {
        fill: url(#_Безымянный_градиент_62-9);
      }

      .cls-76 {
        fill: url(#_Безымянный_градиент_62-17);
      }

      .cls-77 {
        fill: url(#_Безымянный_градиент_62-37);
      }

      .cls-78 {
        fill: url(#_Безымянный_градиент_62-159);
      }

      .cls-79 {
        fill: url(#_Безымянный_градиент_62-119);
      }

      .cls-80 {
        fill: url(#_Безымянный_градиент_62-7);
      }

      .cls-81 {
        fill: url(#_Безымянный_градиент_62-158);
      }

      .cls-82 {
        fill: url(#_Безымянный_градиент_62-46);
      }

      .cls-83 {
        fill: url(#_Безымянный_градиент_62-139);
      }

      .cls-84 {
        fill: url(#_Безымянный_градиент_62-2);
      }

      .cls-85 {
        clip-path: url(#clippath-1);
      }

      .cls-86 {
        fill: url(#_Безымянный_градиент_62-56);
      }

      .cls-87 {
        clip-path: url(#clippath-4);
      }

      .cls-88 {
        fill: url(#_Безымянный_градиент_62-13);
      }

      .cls-89 {
        fill: url(#_Безымянный_градиент_62-148);
      }

      .cls-90 {
        fill: url(#_Безымянный_градиент_62-153);
      }

      .cls-91 {
        fill: url(#_Безымянный_градиент_62-99);
      }

      .cls-92 {
        fill: url(#_Безымянный_градиент_62-49);
      }

      .cls-93 {
        opacity: .4;
      }

      .cls-94 {
        fill: url(#_Безымянный_градиент_62-89);
      }

      .cls-95 {
        fill: url(#_Безымянный_градиент_62-101);
      }

      .cls-96 {
        fill: url(#_Безымянный_градиент_62-165);
      }

      .cls-97 {
        fill: url(#_Безымянный_градиент_62-71);
      }

      .cls-98 {
        fill: url(#_Безымянный_градиент_62-53);
      }

      .cls-99 {
        fill: url(#_Безымянный_градиент_62-77);
      }

      .cls-100 {
        fill: url(#_Безымянный_градиент_62-15);
      }

      .cls-101 {
        fill: url(#_Безымянный_градиент_62-50);
      }

      .cls-102 {
        fill: url(#_Безымянный_градиент_62-3);
      }

      .cls-103 {
        fill: url(#_Безымянный_градиент_62-78);
      }

      .cls-104 {
        fill: url(#_Безымянный_градиент_62-5);
      }

      .cls-105 {
        fill: url(#_Безымянный_градиент_62-41);
      }

      .cls-106 {
        fill: url(#_Безымянный_градиент_62-79);
      }

      .cls-107 {
        fill: url(#_Безымянный_градиент_62-28);
      }

      .cls-108 {
        fill: url(#_Безымянный_градиент_62-130);
      }

      .cls-109 {
        fill: url(#_Безымянный_градиент_62-72);
      }

      .cls-110 {
        fill: url(#_Безымянный_градиент_62-82);
      }

      .cls-111 {
        fill: url(#_Безымянный_градиент_62-76);
      }

      .cls-112 {
        fill: url(#_Безымянный_градиент_62-58);
      }

      .cls-113 {
        fill: url(#_Безымянный_градиент_62-8);
      }

      .cls-114 {
        fill: url(#_Безымянный_градиент_62-55);
      }

      .cls-115 {
        fill: url(#_Безымянный_градиент_62-127);
      }

      .cls-116 {
        fill: url(#_Безымянный_градиент_62-31);
      }

      .cls-117 {
        fill: url(#_Безымянный_градиент_62-136);
      }

      .cls-118 {
        fill: url(#_Безымянный_градиент_62-162);
      }

      .cls-119 {
        fill: url(#_Безымянный_градиент_62-123);
      }

      .cls-120 {
        fill: url(#_Безымянный_градиент_48);
      }

      .cls-121 {
        fill: url(#_Безымянный_градиент_62-81);
      }

      .cls-122 {
        fill: url(#_Безымянный_градиент_62-75);
      }

      .cls-123 {
        clip-path: url(#clippath);
      }

      .cls-124 {
        fill: url(#_Безымянный_градиент_62-157);
      }

      .cls-125 {
        fill: url(#_Безымянный_градиент_76-4);
      }

      .cls-126 {
        fill: url(#_Безымянный_градиент_55);
      }

      .cls-127 {
        fill: url(#_Безымянный_градиент_62-143);
      }

      .cls-128 {
        fill: url(#_Безымянный_градиент_62-126);
      }

      .cls-129 {
        fill: url(#_Безымянный_градиент_62-62);
      }

      .cls-130 {
        fill: none;
      }

      .cls-131 {
        fill: url(#_Безымянный_градиент_62-129);
      }

      .cls-132 {
        fill: url(#_Безымянный_градиент_62-67);
      }

      .cls-133 {
        fill: url(#_Безымянный_градиент_62-65);
      }

      .cls-134 {
        fill: url(#_Безымянный_градиент_62-96);
      }

      .cls-135 {
        fill: url(#_Безымянный_градиент_62-108);
      }

      .cls-136 {
        fill: url(#_Безымянный_градиент_76-2);
      }

      .cls-137 {
        clip-path: url(#clippath-3);
      }

      .cls-138 {
        fill: url(#_Безымянный_градиент_62-94);
      }

      .cls-139 {
        fill: url(#_Безымянный_градиент_62-44);
      }

      .cls-140 {
        fill: url(#_Безымянный_градиент_62-66);
      }

      .cls-141 {
        fill: url(#_Безымянный_градиент_62-102);
      }

      .cls-142 {
        fill: url(#_Безымянный_градиент_62-18);
      }

      .cls-143 {
        fill: url(#_Безымянный_градиент_62-33);
      }

      .cls-144 {
        fill: url(#_Безымянный_градиент_62-93);
      }

      .cls-145 {
        fill: url(#_Безымянный_градиент_62-144);
      }

      .cls-146 {
        fill: url(#_Безымянный_градиент_62-68);
      }

      .cls-147 {
        fill: url(#_Безымянный_градиент_62-97);
      }

      .cls-148 {
        fill: url(#_Безымянный_градиент_76-6);
      }

      .cls-149 {
        fill: url(#_Безымянный_градиент_62-11);
      }

      .cls-150 {
        fill: url(#_Безымянный_градиент_62-111);
      }

      .cls-151 {
        fill: url(#_Безымянный_градиент_62-138);
      }

      .cls-152 {
        fill: url(#_Безымянный_градиент_62-20);
      }

      .cls-153 {
        fill: url(#_Безымянный_градиент_5);
      }

      .cls-154 {
        fill: url(#_Безымянный_градиент_62-134);
      }

      .cls-155 {
        fill: url(#_Безымянный_градиент_62-116);
      }

      .cls-156 {
        fill: url(#_Безымянный_градиент_62-132);
      }

      .cls-157 {
        fill: url(#_Безымянный_градиент_62-21);
      }

      .cls-158 {
        fill: url(#_Безымянный_градиент_62-92);
      }

      .cls-159 {
        fill: url(#_Безымянный_градиент_62-27);
      }

      .cls-160 {
        fill: url(#_Безымянный_градиент_62-124);
      }

      .cls-161 {
        fill: url(#_Безымянный_градиент_62-109);
      }

      .cls-162 {
        fill: url(#_Безымянный_градиент_62-98);
      }

      .cls-163 {
        fill: url(#_Безымянный_градиент_62-133);
      }

      .cls-164 {
        fill: url(#_Безымянный_градиент_62-42);
      }

      .cls-165 {
        fill: url(#_Безымянный_градиент_62-128);
      }

      .cls-166 {
        fill: url(#_Безымянный_градиент_62-52);
      }

      .cls-167 {
        fill: url(#_Безымянный_градиент_62-35);
      }

      .cls-168 {
        fill: url(#_Безымянный_градиент_62-112);
      }

      .cls-169 {
        fill: url(#_Безымянный_градиент_62-145);
      }

      .cls-170 {
        fill: url(#_Безымянный_градиент_62-48);
      }

      .cls-171 {
        fill: url(#_Безымянный_градиент_62-121);
      }

      .cls-172 {
        fill: url(#_Безымянный_градиент_62-103);
      }

      .cls-173 {
        fill: url(#_Безымянный_градиент_62-156);
      }

      .cls-174 {
        fill: #9a9800;
      }

      .cls-175 {
        fill: url(#_Безымянный_градиент_62-104);
      }

      .cls-176 {
        fill: url(#_Безымянный_градиент_62-30);
      }

      .cls-177 {
        fill: url(#_Безымянный_градиент_62-125);
      }

      .cls-178 {
        fill: url(#_Безымянный_градиент_62-142);
      }

      .cls-179 {
        fill: url(#_Безымянный_градиент_62-32);
      }

      .cls-180 {
        fill: url(#_Безымянный_градиент_62-54);
      }

      .cls-181 {
        fill: url(#_Безымянный_градиент_62-137);
      }

      .cls-182 {
        fill: url(#_Безымянный_градиент_62-164);
      }

      .cls-183 {
        fill: url(#_Безымянный_градиент_62-12);
      }

      .cls-184 {
        fill: url(#_Безымянный_градиент_62-114);
      }

      .cls-185 {
        fill: url(#_Безымянный_градиент_62-91);
      }
    </style>
    <linearGradient id="_Безымянный_градиент_5" data-name="Безымянный градиент 5" x1="565.21" y1="-120.95" x2="229.05" y2="-26.18" gradientTransform="translate(61.12 691.27) rotate(-44.09)" gradientUnits="userSpaceOnUse">
      <stop offset="0" stop-color="#f5eaca"/>
      <stop offset="1" stop-color="#b2ab3e"/>
    </linearGradient>
    <linearGradient id="_Безымянный_градиент_55" data-name="Безымянный градиент 55" x1="290.38" y1="-64.52" x2="348.7" y2="-73.03" gradientTransform="translate(61.12 691.27) rotate(-44.09)" gradientUnits="userSpaceOnUse">
      <stop offset="0" stop-color="#a29a19"/>
      <stop offset="1" stop-color="#b2ab3e" stop-opacity="0"/>
    </linearGradient>
    <linearGradient id="_Безымянный_градиент_48" data-name="Безымянный градиент 48" x1="390.81" y1="-358.65" x2="432.72" y2="-228.64" gradientTransform="translate(61.12 691.27) rotate(-44.09)" gradientUnits="userSpaceOnUse">
      <stop offset="0" stop-color="#e9773f"/>
      <stop offset=".17" stop-color="#e87e46"/>
      <stop offset=".43" stop-color="#e6935b"/>
      <stop offset=".74" stop-color="#e3b57d"/>
      <stop offset="1" stop-color="#e1d79f"/>
    </linearGradient>
    <linearGradient id="_Безымянный_градиент_62" data-name="Безымянный градиент 62" x1="-717.4" y1="2599.78" x2="-717.4" y2="2408.68" gradientTransform="translate(-302.39 -2174.37) rotate(-26.53)" gradientUnits="userSpaceOnUse">
      <stop offset="0" stop-color="#c5bd65"/>
      <stop offset="1" stop-color="#b2ab3e"/>
    </linearGradient>
    <radialGradient id="_Безымянный_градиент_76" data-name="Безымянный градиент 76" cx="-717.61" cy="2498.3" fx="-717.61" fy="2498.3" r="87.57" gradientTransform="translate(-302.39 -2174.37) rotate(-26.53)" gradientUnits="userSpaceOnUse">
      <stop offset=".84" stop-color="#f5eaca"/>
      <stop offset="1" stop-color="#d4cb85"/>
    </radialGradient>
    <clipPath id="clippath">
      <path class="cls-130" d="m198.01,299.92c-22.12-8.25-45.67-.75-65.49,10.03-21.26,11.57-37.29,27.72-44.97,51.04-3.5,10.64-5.43,21.76-2.01,32.65,3.59,11.43,10.75,27.35,17.76,36.95,15.15,20.77,38.38,34.57,65.61,34.03,17.39-.34,39.19-7.71,52.87-20.76,27.29-21.58,37.49-62.29,26.33-95.43-7.75-23.01-27.59-40.12-50.09-48.51Zm35.78,54.65c9.09,26.97.79,60.09-21.42,77.65-11.13,10.62-28.87,16.62-43.02,16.89-22.16.43-41.06-10.8-53.38-27.69-5.7-7.81-11.53-20.77-14.45-30.07-2.78-8.86-1.21-17.91,1.64-26.57,6.25-18.97,19.29-32.11,36.59-41.53,16.13-8.77,35.29-14.87,53.29-8.16,18.31,6.83,34.45,20.75,40.75,39.47Z"/>
    </clipPath>
    <linearGradient id="_Безымянный_градиент_62-2" data-name="Безымянный градиент 62" x1="-720.64" y1="2577.43" x2="-720.64" y2="2559.04" xlink:href="#_Безымянный_градиент_62"/>
    <linearGradient id="_Безымянный_градиент_62-3" data-name="Безымянный градиент 62" x1="-731.41" y1="2576.13" x2="-731.41" y2="2560.82" xlink:href="#_Безымянный_градиент_62"/>
    <linearGradient id="_Безымянный_градиент_62-4" data-name="Безымянный градиент 62" x1="-742.75" y1="2571.75" x2="-742.75" y2="2557.7" xlink:href="#_Безымянный_градиент_62"/>
    <linearGradient id="_Безымянный_градиент_62-5" data-name="Безымянный градиент 62" x1="-751.85" y1="2568.61" x2="-751.85" y2="2555.6" xlink:href="#_Безымянный_градиент_62"/>
    <linearGradient id="_Безымянный_градиент_62-6" data-name="Безымянный градиент 62" x1="-755.11" y1="2562.9" x2="-755.11" y2="2548.1" xlink:href="#_Безымянный_градиент_62"/>
    <linearGradient id="_Безымянный_градиент_62-7" data-name="Безымянный градиент 62" x1="-765.61" y1="2554.78" x2="-765.61" y2="2543.98" xlink:href="#_Безымянный_градиент_62"/>
    <linearGradient id="_Безымянный_градиент_62-8" data-name="Безымянный градиент 62" x1="-773.66" y1="2546.48" x2="-773.66" y2="2537.77" xlink:href="#_Безымянный_градиент_62"/>
    <linearGradient id="_Безымянный_градиент_62-9" data-name="Безымянный градиент 62" x1="-780.37" y1="2537.26" x2="-780.37" y2="2531.73" xlink:href="#_Безымянный_градиент_62"/>
    <linearGradient id="_Безымянный_градиент_62-10" data-name="Безымянный градиент 62" x1="-786.45" y1="2525.72" x2="-786.45" y2="2522.81" xlink:href="#_Безымянный_градиент_62"/>
    <linearGradient id="_Безымянный_градиент_62-11" data-name="Безымянный градиент 62" x1="-788.27" y1="2515.1" x2="-788.27" y2="2512.56" xlink:href="#_Безымянный_градиент_62"/>
    <linearGradient id="_Безымянный_градиент_62-12" data-name="Безымянный градиент 62" x1="-791.24" y1="2502.56" x2="-791.24" y2="2499.97" xlink:href="#_Безымянный_градиент_62"/>
    <linearGradient id="_Безымянный_градиент_62-13" data-name="Безымянный градиент 62" x1="-791.25" y1="2494.96" x2="-791.25" y2="2492.33" xlink:href="#_Безымянный_градиент_62"/>
    <linearGradient id="_Безымянный_градиент_62-14" data-name="Безымянный градиент 62" x1="-788.77" y1="2483.77" x2="-788.77" y2="2480.17" xlink:href="#_Безымянный_градиент_62"/>
    <linearGradient id="_Безымянный_градиент_62-15" data-name="Безымянный градиент 62" x1="-787.68" y1="2473.59" x2="-787.68" y2="2466.56" xlink:href="#_Безымянный_градиент_62"/>
    <linearGradient id="_Безымянный_градиент_62-16" data-name="Безымянный градиент 62" x1="-783.6" y1="2462.9" x2="-783.6" y2="2455.81" xlink:href="#_Безымянный_градиент_62"/>
    <linearGradient id="_Безымянный_градиент_62-17" data-name="Безымянный градиент 62" x1="-777.37" y1="2456.98" x2="-777.37" y2="2447.21" xlink:href="#_Безымянный_градиент_62"/>
    <linearGradient id="_Безымянный_градиент_62-18" data-name="Безымянный градиент 62" x1="-770.4" y1="2450.72" x2="-770.4" y2="2439.82" xlink:href="#_Безымянный_градиент_62"/>
    <linearGradient id="_Безымянный_градиент_62-19" data-name="Безымянный градиент 62" x1="-763.57" y1="2447.09" x2="-763.57" y2="2434.41" xlink:href="#_Безымянный_градиент_62"/>
    <linearGradient id="_Безымянный_градиент_62-20" data-name="Безымянный градиент 62" x1="-755.66" y1="2442.21" x2="-755.66" y2="2428.42" xlink:href="#_Безымянный_градиент_62"/>
    <linearGradient id="_Безымянный_градиент_62-21" data-name="Безымянный градиент 62" x1="-745.95" y1="2437.81" x2="-745.95" y2="2424.05" xlink:href="#_Безымянный_градиент_62"/>
    <linearGradient id="_Безымянный_градиент_62-22" data-name="Безымянный градиент 62" x1="-736.67" y1="2438.29" x2="-736.67" y2="2421.5" xlink:href="#_Безымянный_градиент_62"/>
    <linearGradient id="_Безымянный_градиент_62-23" data-name="Безымянный градиент 62" x1="-727.12" y1="2438.56" x2="-727.12" y2="2423.59" xlink:href="#_Безымянный_градиент_62"/>
    <linearGradient id="_Безымянный_градиент_62-24" data-name="Безымянный градиент 62" x1="-718.6" y1="2436.23" x2="-718.6" y2="2420.75" xlink:href="#_Безымянный_градиент_62"/>
    <linearGradient id="_Безымянный_градиент_62-25" data-name="Безымянный градиент 62" x1="-706.61" y1="2434.96" x2="-706.61" y2="2421.26" xlink:href="#_Безымянный_градиент_62"/>
    <linearGradient id="_Безымянный_градиент_62-26" data-name="Безымянный градиент 62" x1="-698.95" y1="2434.69" x2="-698.95" y2="2422.28" xlink:href="#_Безымянный_градиент_62"/>
    <linearGradient id="_Безымянный_градиент_62-27" data-name="Безымянный градиент 62" x1="-688.21" y1="2436.52" x2="-688.21" y2="2424.86" xlink:href="#_Безымянный_градиент_62"/>
    <linearGradient id="_Безымянный_градиент_62-28" data-name="Безымянный градиент 62" x1="-679.2" y1="2440.91" x2="-679.2" y2="2428.77" xlink:href="#_Безымянный_градиент_62"/>
    <linearGradient id="_Безымянный_градиент_62-29" data-name="Безымянный градиент 62" x1="-670.63" y1="2444.52" x2="-670.63" y2="2433.94" xlink:href="#_Безымянный_градиент_62"/>
    <linearGradient id="_Безымянный_градиент_62-30" data-name="Безымянный градиент 62" x1="-663.95" y1="2450" x2="-663.95" y2="2441.08" xlink:href="#_Безымянный_градиент_62"/>
    <linearGradient id="_Безымянный_градиент_62-31" data-name="Безымянный градиент 62" x1="-658.46" y1="2457.58" x2="-658.46" y2="2448.37" xlink:href="#_Безымянный_градиент_62"/>
    <linearGradient id="_Безымянный_градиент_62-32" data-name="Безымянный градиент 62" x1="-653.71" y1="2465.28" x2="-653.71" y2="2458.72" xlink:href="#_Безымянный_градиент_62"/>
    <linearGradient id="_Безымянный_градиент_62-33" data-name="Безымянный градиент 62" x1="-649.18" y1="2473.2" x2="-649.18" y2="2468.62" xlink:href="#_Безымянный_градиент_62"/>
    <linearGradient id="_Безымянный_градиент_62-34" data-name="Безымянный градиент 62" x1="-645.57" y1="2480.73" x2="-645.57" y2="2477.68" xlink:href="#_Безымянный_градиент_62"/>
    <linearGradient id="_Безымянный_градиент_62-35" data-name="Безымянный градиент 62" x1="-644.68" y1="2490.06" x2="-644.68" y2="2487.64" xlink:href="#_Безымянный_градиент_62"/>
    <linearGradient id="_Безымянный_градиент_62-36" data-name="Безымянный градиент 62" x1="-646.75" y1="2497.55" x2="-646.75" y2="2494.14" xlink:href="#_Безымянный_градиент_62"/>
    <linearGradient id="_Безымянный_градиент_62-37" data-name="Безымянный градиент 62" x1="-643.24" y1="2507.65" x2="-643.24" y2="2504.45" xlink:href="#_Безымянный_градиент_62"/>
    <linearGradient id="_Безымянный_градиент_62-38" data-name="Безымянный градиент 62" x1="-648.3" y1="2518.96" x2="-648.3" y2="2513.6" xlink:href="#_Безымянный_градиент_62"/>
    <linearGradient id="_Безымянный_градиент_62-39" data-name="Безымянный градиент 62" x1="-651.77" y1="2526.66" x2="-651.77" y2="2521.81" xlink:href="#_Безымянный_градиент_62"/>
    <linearGradient id="_Безымянный_градиент_62-40" data-name="Безымянный градиент 62" x1="-654.09" y1="2536.06" x2="-654.09" y2="2527.69" xlink:href="#_Безымянный_градиент_62"/>
    <linearGradient id="_Безымянный_градиент_62-41" data-name="Безымянный градиент 62" x1="-660.36" y1="2544.62" x2="-660.36" y2="2533.2" xlink:href="#_Безымянный_градиент_62"/>
    <linearGradient id="_Безымянный_градиент_62-42" data-name="Безымянный градиент 62" x1="-666.52" y1="2551.53" x2="-666.52" y2="2540.7" xlink:href="#_Безымянный_градиент_62"/>
    <linearGradient id="_Безымянный_градиент_62-43" data-name="Безымянный градиент 62" x1="-672.61" y1="2558.03" x2="-672.61" y2="2547.65" xlink:href="#_Безымянный_градиент_62"/>
    <linearGradient id="_Безымянный_градиент_62-44" data-name="Безымянный градиент 62" x1="-679.74" y1="2563.67" x2="-679.74" y2="2553.13" xlink:href="#_Безымянный_градиент_62"/>
    <linearGradient id="_Безымянный_градиент_62-45" data-name="Безымянный градиент 62" x1="-688.12" y1="2568.11" x2="-688.12" y2="2557.98" xlink:href="#_Безымянный_градиент_62"/>
    <linearGradient id="_Безымянный_градиент_62-46" data-name="Безымянный градиент 62" x1="-699.09" y1="2571.69" x2="-699.09" y2="2560.58" xlink:href="#_Безымянный_градиент_62"/>
    <linearGradient id="_Безымянный_градиент_62-47" data-name="Безымянный градиент 62" x1="-701.93" y1="2560.6" x2="-701.93" y2="2558.75" xlink:href="#_Безымянный_градиент_62"/>
    <linearGradient id="_Безымянный_градиент_62-48" data-name="Безымянный градиент 62" x1="-708.51" y1="2575.82" x2="-708.51" y2="2562.66" xlink:href="#_Безымянный_градиент_62"/>
    <radialGradient id="_Безымянный_градиент_76-2" data-name="Безымянный градиент 76" cx="-717.61" cy="2498.3" fx="-717.61" fy="2498.3" r="102.9" xlink:href="#_Безымянный_градиент_76"/>
    <clipPath id="clippath-1">
      <path class="cls-130" d="m202.69,285.65c-25.99-9.69-53.67-.88-76.96,11.79-24.99,13.6-43.83,32.58-52.85,59.97-4.12,12.51-6.38,25.57-2.37,38.37,4.21,13.43,12.64,32.14,20.87,43.42,17.8,24.4,45.1,40.62,77.1,39.99,20.43-.4,46.06-9.06,62.13-24.39,32.07-25.36,44.06-73.2,30.94-112.15-9.11-27.04-32.42-47.15-58.86-57.01Zm45.41,62.77c11.17,33.15.97,73.85-26.33,95.43-13.68,13.05-35.48,20.42-52.87,20.76-27.23.53-50.46-13.27-65.61-34.03-7-9.6-14.17-25.52-17.76-36.95-3.42-10.89-1.49-22.01,2.01-32.65,7.68-23.32,23.71-39.47,44.97-51.04,19.82-10.78,43.37-18.28,65.49-10.03,22.5,8.39,42.33,25.5,50.09,48.51Z"/>
    </clipPath>
    <linearGradient id="_Безымянный_градиент_62-49" data-name="Безымянный градиент 62" x1="-721.18" y1="2591.29" x2="-721.18" y2="2569.68" xlink:href="#_Безымянный_градиент_62"/>
    <linearGradient id="_Безымянный_градиент_62-50" data-name="Безымянный градиент 62" x1="-733.83" y1="2589.76" x2="-733.83" y2="2571.77" xlink:href="#_Безымянный_градиент_62"/>
    <linearGradient id="_Безымянный_градиент_62-51" data-name="Безымянный градиент 62" x1="-747.15" y1="2584.61" x2="-747.15" y2="2568.11" xlink:href="#_Безымянный_градиент_62"/>
    <linearGradient id="_Безымянный_градиент_62-52" data-name="Безымянный градиент 62" x1="-757.85" y1="2580.93" x2="-757.85" y2="2565.63" xlink:href="#_Безымянный_градиент_62"/>
    <linearGradient id="_Безымянный_градиент_62-53" data-name="Безымянный градиент 62" x1="-761.68" y1="2574.21" x2="-761.68" y2="2556.82" xlink:href="#_Безымянный_градиент_62"/>
    <linearGradient id="_Безымянный_градиент_62-54" data-name="Безымянный градиент 62" x1="-774.02" y1="2564.68" x2="-774.02" y2="2551.98" xlink:href="#_Безымянный_градиент_62"/>
    <linearGradient id="_Безымянный_градиент_62-55" data-name="Безымянный градиент 62" x1="-783.47" y1="2554.92" x2="-783.47" y2="2544.68" xlink:href="#_Безымянный_градиент_62"/>
    <linearGradient id="_Безымянный_градиент_62-56" data-name="Безымянный градиент 62" x1="-791.37" y1="2544.08" x2="-791.37" y2="2537.59" xlink:href="#_Безымянный_градиент_62"/>
    <linearGradient id="_Безымянный_градиент_62-57" data-name="Безымянный градиент 62" x1="-798.51" y1="2530.52" x2="-798.51" y2="2527.11" xlink:href="#_Безымянный_градиент_62"/>
    <linearGradient id="_Безымянный_градиент_62-58" data-name="Безымянный градиент 62" x1="-800.64" y1="2518.05" x2="-800.64" y2="2515.06" xlink:href="#_Безымянный_градиент_62"/>
    <linearGradient id="_Безымянный_градиент_62-59" data-name="Безымянный градиент 62" x1="-804.13" y1="2503.3" x2="-804.13" y2="2500.26" xlink:href="#_Безымянный_градиент_62"/>
    <linearGradient id="_Безымянный_градиент_62-60" data-name="Безымянный градиент 62" x1="-804.15" y1="2494.37" x2="-804.15" y2="2491.28" xlink:href="#_Безымянный_градиент_62"/>
    <linearGradient id="_Безымянный_градиент_62-61" data-name="Безымянный градиент 62" x1="-801.23" y1="2481.23" x2="-801.23" y2="2476.99" xlink:href="#_Безымянный_градиент_62"/>
    <linearGradient id="_Безымянный_градиент_62-62" data-name="Безымянный градиент 62" x1="-799.95" y1="2469.27" x2="-799.95" y2="2461" xlink:href="#_Безымянный_градиент_62"/>
    <linearGradient id="_Безымянный_градиент_62-63" data-name="Безымянный градиент 62" x1="-795.16" y1="2456.7" x2="-795.16" y2="2448.36" xlink:href="#_Безымянный_градиент_62"/>
    <linearGradient id="_Безымянный_градиент_62-64" data-name="Безымянный градиент 62" x1="-787.84" y1="2449.74" x2="-787.84" y2="2438.27" xlink:href="#_Безымянный_градиент_62"/>
    <linearGradient id="_Безымянный_градиент_62-65" data-name="Безымянный градиент 62" x1="-779.65" y1="2442.38" x2="-779.65" y2="2429.58" xlink:href="#_Безымянный_градиент_62"/>
    <linearGradient id="_Безымянный_градиент_62-66" data-name="Безымянный градиент 62" x1="-771.62" y1="2438.12" x2="-771.62" y2="2423.22" xlink:href="#_Безымянный_градиент_62"/>
    <linearGradient id="_Безымянный_градиент_62-67" data-name="Безымянный градиент 62" x1="-762.32" y1="2432.39" x2="-762.32" y2="2416.18" xlink:href="#_Безымянный_градиент_62"/>
    <linearGradient id="_Безымянный_градиент_62-68" data-name="Безымянный градиент 62" x1="-750.92" y1="2427.22" x2="-750.92" y2="2411.04" xlink:href="#_Безымянный_градиент_62"/>
    <linearGradient id="_Безымянный_градиент_62-69" data-name="Безымянный градиент 62" x1="-740.01" y1="2427.78" x2="-740.01" y2="2408.05" xlink:href="#_Безымянный_градиент_62"/>
    <linearGradient id="_Безымянный_градиент_62-70" data-name="Безымянный градиент 62" x1="-728.79" y1="2428.1" x2="-728.79" y2="2410.51" xlink:href="#_Безымянный_градиент_62"/>
    <linearGradient id="_Безымянный_градиент_62-71" data-name="Безымянный градиент 62" x1="-718.77" y1="2425.35" x2="-718.77" y2="2407.16" xlink:href="#_Безымянный_градиент_62"/>
    <linearGradient id="_Безымянный_градиент_62-72" data-name="Безымянный градиент 62" x1="-704.69" y1="2423.86" x2="-704.69" y2="2407.77" xlink:href="#_Безымянный_градиент_62"/>
    <linearGradient id="_Безымянный_градиент_62-73" data-name="Безымянный градиент 62" x1="-695.69" y1="2423.54" x2="-695.69" y2="2408.97" xlink:href="#_Безымянный_градиент_62"/>
    <linearGradient id="_Безымянный_градиент_62-74" data-name="Безымянный градиент 62" x1="-683.06" y1="2425.69" x2="-683.06" y2="2412" xlink:href="#_Безымянный_градиент_62"/>
    <linearGradient id="_Безымянный_градиент_62-75" data-name="Безымянный градиент 62" x1="-672.47" y1="2430.86" x2="-672.47" y2="2416.6" xlink:href="#_Безымянный_градиент_62"/>
    <linearGradient id="_Безымянный_градиент_62-76" data-name="Безымянный градиент 62" x1="-662.4" y1="2435.1" x2="-662.4" y2="2422.67" xlink:href="#_Безымянный_градиент_62"/>
    <linearGradient id="_Безымянный_градиент_62-77" data-name="Безымянный градиент 62" x1="-654.55" y1="2441.54" x2="-654.55" y2="2431.05" xlink:href="#_Безымянный_градиент_62"/>
    <linearGradient id="_Безымянный_градиент_62-78" data-name="Безымянный градиент 62" x1="-648.1" y1="2450.45" x2="-648.1" y2="2439.62" xlink:href="#_Безымянный_градиент_62"/>
    <linearGradient id="_Безымянный_градиент_62-79" data-name="Безымянный градиент 62" x1="-642.52" y1="2459.5" x2="-642.52" y2="2451.79" xlink:href="#_Безымянный_градиент_62"/>
    <linearGradient id="_Безымянный_градиент_62-80" data-name="Безымянный градиент 62" x1="-637.19" y1="2468.81" x2="-637.19" y2="2463.42" xlink:href="#_Безымянный_градиент_62"/>
    <linearGradient id="_Безымянный_градиент_62-81" data-name="Безымянный градиент 62" x1="-632.95" y1="2477.66" x2="-632.95" y2="2474.07" xlink:href="#_Безымянный_градиент_62"/>
    <linearGradient id="_Безымянный_градиент_62-82" data-name="Безымянный градиент 62" x1="-631.91" y1="2488.62" x2="-631.91" y2="2485.77" xlink:href="#_Безымянный_градиент_62"/>
    <linearGradient id="_Безымянный_градиент_62-83" data-name="Безымянный градиент 62" x1="-634.34" y1="2497.41" x2="-634.34" y2="2493.41" xlink:href="#_Безымянный_градиент_62"/>
    <linearGradient id="_Безымянный_градиент_62-84" data-name="Безымянный градиент 62" x1="-630.21" y1="2509.29" x2="-630.21" y2="2505.53" xlink:href="#_Безымянный_градиент_62"/>
    <linearGradient id="_Безымянный_градиент_62-85" data-name="Безымянный градиент 62" x1="-636.17" y1="2522.58" x2="-636.17" y2="2516.28" xlink:href="#_Безымянный_градиент_62"/>
    <linearGradient id="_Безымянный_градиент_62-86" data-name="Безымянный градиент 62" x1="-640.24" y1="2531.62" x2="-640.24" y2="2525.92" xlink:href="#_Безымянный_градиент_62"/>
    <linearGradient id="_Безымянный_градиент_62-87" data-name="Безымянный градиент 62" x1="-642.96" y1="2542.67" x2="-642.96" y2="2532.83" xlink:href="#_Безымянный_градиент_62"/>
    <linearGradient id="_Безымянный_градиент_62-88" data-name="Безымянный градиент 62" x1="-650.34" y1="2552.73" x2="-650.34" y2="2539.31" xlink:href="#_Безымянный_градиент_62"/>
    <linearGradient id="_Безымянный_градиент_62-89" data-name="Безымянный градиент 62" x1="-657.57" y1="2560.85" x2="-657.57" y2="2548.12" xlink:href="#_Безымянный_градиент_62"/>
    <linearGradient id="_Безымянный_градиент_62-90" data-name="Безымянный градиент 62" x1="-664.73" y1="2568.49" x2="-664.73" y2="2556.29" xlink:href="#_Безымянный_градиент_62"/>
    <linearGradient id="_Безымянный_градиент_62-91" data-name="Безымянный градиент 62" x1="-673.11" y1="2575.12" x2="-673.11" y2="2562.73" xlink:href="#_Безымянный_градиент_62"/>
    <linearGradient id="_Безымянный_градиент_62-92" data-name="Безымянный градиент 62" x1="-682.96" y1="2580.33" x2="-682.96" y2="2568.44" xlink:href="#_Безымянный_градиент_62"/>
    <linearGradient id="_Безымянный_градиент_62-93" data-name="Безымянный градиент 62" x1="-695.85" y1="2584.54" x2="-695.85" y2="2571.49" xlink:href="#_Безымянный_градиент_62"/>
    <linearGradient id="_Безымянный_градиент_62-94" data-name="Безымянный градиент 62" x1="-699.18" y1="2571.51" x2="-699.18" y2="2569.34" xlink:href="#_Безымянный_градиент_62"/>
    <linearGradient id="_Безымянный_градиент_62-95" data-name="Безымянный градиент 62" x1="-706.92" y1="2589.4" x2="-706.92" y2="2573.93" xlink:href="#_Безымянный_градиент_62"/>
    <radialGradient id="_Безымянный_градиент_76-3" data-name="Безымянный градиент 76" cx="-717.61" cy="2498.3" fx="-717.61" fy="2498.3" r="72.06" xlink:href="#_Безымянный_градиент_76"/>
    <clipPath id="clippath-2">
      <path class="cls-130" d="m193.28,314.34c-18.2-6.79-37.58-.62-53.89,8.25-17.5,9.52-30.69,22.81-37.01,42-2.88,8.76-4.47,17.91-1.66,26.87,2.95,9.41,8.85,22.5,14.61,30.41,12.46,17.09,31.58,28.45,53.99,28.01,14.31-.28,32.25-6.35,43.51-17.08,22.46-17.76,30.85-51.26,21.66-78.53-6.38-18.94-22.7-33.02-41.22-39.92Zm29.44,44.97c7.48,22.19.65,49.45-17.63,63.9-9.16,8.74-23.76,13.67-35.4,13.9-18.23.36-33.79-8.88-43.93-22.79-4.69-6.43-9.49-17.09-11.89-24.74-2.29-7.29-1-14.73,1.35-21.86,5.14-15.61,15.87-26.43,30.11-34.17,13.27-7.22,29.04-12.24,43.85-6.72,15.07,5.62,28.34,17.08,33.54,32.48Z"/>
    </clipPath>
    <linearGradient id="_Безымянный_градиент_62-96" data-name="Безымянный градиент 62" x1="-728.96" y1="2562.34" x2="-728.96" y2="2549.75" xlink:href="#_Безымянный_градиент_62"/>
    <linearGradient id="_Безымянный_градиент_62-97" data-name="Безымянный градиент 62" x1="-745.79" y1="2556.16" x2="-745.79" y2="2545.45" xlink:href="#_Безымянный_градиент_62"/>
    <linearGradient id="_Безымянный_градиент_62-98" data-name="Безымянный градиент 62" x1="-757.11" y1="2544.78" x2="-757.11" y2="2535.89" xlink:href="#_Безымянный_градиент_62"/>
    <linearGradient id="_Безымянный_градиент_62-99" data-name="Безымянный градиент 62" x1="-769.26" y1="2530.36" x2="-769.26" y2="2525.81" xlink:href="#_Безымянный_градиент_62"/>
    <linearGradient id="_Безымянный_градиент_62-100" data-name="Безымянный градиент 62" x1="-775.75" y1="2512.13" x2="-775.75" y2="2510.03" xlink:href="#_Безымянный_градиент_62"/>
    <linearGradient id="_Безымянный_градиент_62-101" data-name="Безымянный градиент 62" x1="-778.21" y1="2495.55" x2="-778.21" y2="2493.38" xlink:href="#_Безымянный_градиент_62"/>
    <linearGradient id="_Безымянный_градиент_62-102" data-name="Безымянный градиент 62" x1="-775.27" y1="2477.97" x2="-775.27" y2="2472.18" xlink:href="#_Безымянный_градиент_62"/>
    <linearGradient id="_Безымянный_градиент_62-103" data-name="Безымянный градиент 62" x1="-766.79" y1="2464.3" x2="-766.79" y2="2456.26" xlink:href="#_Безымянный_градиент_62"/>
    <linearGradient id="_Безымянный_градиент_62-104" data-name="Безымянный градиент 62" x1="-755.43" y1="2456.16" x2="-755.43" y2="2445.73" xlink:href="#_Безымянный_градиент_62"/>
    <linearGradient id="_Безымянный_градиент_62-105" data-name="Безымянный градиент 62" x1="-740.93" y1="2448.53" x2="-740.93" y2="2437.2" xlink:href="#_Безымянный_градиент_62"/>
    <linearGradient id="_Безымянный_градиент_62-106" data-name="Безымянный градиент 62" x1="-725.44" y1="2449.14" x2="-725.44" y2="2436.82" xlink:href="#_Безымянный_градиент_62"/>
    <linearGradient id="_Безымянный_градиент_62-107" data-name="Безымянный градиент 62" x1="-708.56" y1="2446.18" x2="-708.56" y2="2434.91" xlink:href="#_Безымянный_градиент_62"/>
    <linearGradient id="_Безымянный_градиент_62-108" data-name="Безымянный градиент 62" x1="-693.42" y1="2447.46" x2="-693.42" y2="2437.87" xlink:href="#_Безымянный_градиент_62"/>
    <linearGradient id="_Безымянный_градиент_62-109" data-name="Безымянный градиент 62" x1="-678.95" y1="2454.04" x2="-678.95" y2="2445.34" xlink:href="#_Безымянный_градиент_62"/>
    <linearGradient id="_Безымянный_градиент_62-110" data-name="Безымянный градиент 62" x1="-668.93" y1="2464.8" x2="-668.93" y2="2457.21" xlink:href="#_Безымянный_градиент_62"/>
    <linearGradient id="_Безымянный_градиент_62-111" data-name="Безымянный градиент 62" x1="-661.3" y1="2477.65" x2="-661.3" y2="2473.88" xlink:href="#_Безымянный_градиент_62"/>
    <linearGradient id="_Безымянный_градиент_62-112" data-name="Безымянный градиент 62" x1="-657.6" y1="2491.52" x2="-657.6" y2="2489.53" xlink:href="#_Безымянный_градиент_62"/>
    <linearGradient id="_Безымянный_градиент_62-113" data-name="Безымянный градиент 62" x1="-656.41" y1="2505.99" x2="-656.41" y2="2503.36" xlink:href="#_Безымянный_градиент_62"/>
    <linearGradient id="_Безымянный_градиент_62-114" data-name="Безымянный градиент 62" x1="-663.43" y1="2521.64" x2="-663.43" y2="2517.65" xlink:href="#_Безымянный_градиент_62"/>
    <linearGradient id="_Безымянный_градиент_62-115" data-name="Безымянный градиент 62" x1="-670.5" y1="2536.42" x2="-670.5" y2="2527.02" xlink:href="#_Безымянный_градиент_62"/>
    <linearGradient id="_Безымянный_градиент_62-116" data-name="Безымянный градиент 62" x1="-680.58" y1="2547.45" x2="-680.58" y2="2538.91" xlink:href="#_Безымянный_градиент_62"/>
    <linearGradient id="_Безымянный_градиент_62-117" data-name="Безымянный градиент 62" x1="-693.35" y1="2555.74" x2="-693.35" y2="2547.41" xlink:href="#_Безымянный_градиент_62"/>
    <linearGradient id="_Безымянный_градиент_62-118" data-name="Безымянный градиент 62" x1="-710.12" y1="2562.09" x2="-710.12" y2="2551.26" xlink:href="#_Безымянный_градиент_62"/>
    <radialGradient id="_Безымянный_градиент_76-4" data-name="Безымянный градиент 76" cx="-717.61" cy="2498.3" fx="-717.61" fy="2498.3" r="58.63" xlink:href="#_Безымянный_градиент_76"/>
    <clipPath id="clippath-3">
      <path class="cls-130" d="m189.19,326.82c-14.81-5.52-30.58-.5-43.85,6.72-14.24,7.75-24.97,18.56-30.11,34.17-2.35,7.13-3.63,14.57-1.35,21.86,2.4,7.65,7.2,18.31,11.89,24.74,10.14,13.91,25.7,23.15,43.93,22.79,11.64-.23,26.24-5.16,35.4-13.9,18.27-14.45,25.1-41.71,17.63-63.9-5.19-15.41-18.47-26.87-33.54-32.48Zm22.55,37.19c5.88,17.45.51,38.88-13.86,50.25-7.2,6.87-18.68,10.75-27.84,10.93-14.34.28-26.57-6.99-34.54-17.92-3.69-5.06-7.46-13.44-9.35-19.46-1.8-5.73-.79-11.59,1.06-17.19,4.04-12.27,12.48-20.78,23.68-26.87,10.43-5.68,22.84-9.62,34.48-5.28,11.85,4.42,22.29,13.43,26.37,25.54Z"/>
    </clipPath>
    <linearGradient id="_Безымянный_градиент_62-119" data-name="Безымянный градиент 62" x1="-726.85" y1="2550.41" x2="-726.85" y2="2540.16" xlink:href="#_Безымянный_градиент_62"/>
    <linearGradient id="_Безымянный_градиент_62-120" data-name="Безымянный градиент 62" x1="-740.54" y1="2545.38" x2="-740.54" y2="2536.66" xlink:href="#_Безымянный_градиент_62"/>
    <linearGradient id="_Безымянный_градиент_62-121" data-name="Безымянный градиент 62" x1="-749.75" y1="2536.12" x2="-749.75" y2="2528.89" xlink:href="#_Безымянный_градиент_62"/>
    <linearGradient id="_Безымянный_градиент_62-122" data-name="Безымянный градиент 62" x1="-759.63" y1="2524.39" x2="-759.63" y2="2520.69" xlink:href="#_Безымянный_градиент_62"/>
    <linearGradient id="_Безымянный_градиент_62-123" data-name="Безымянный градиент 62" x1="-764.92" y1="2509.55" x2="-764.92" y2="2507.85" xlink:href="#_Безымянный_градиент_62"/>
    <linearGradient id="_Безымянный_градиент_62-124" data-name="Безымянный градиент 62" x1="-766.92" y1="2496.06" x2="-766.92" y2="2494.3" xlink:href="#_Безымянный_градиент_62"/>
    <linearGradient id="_Безымянный_градиент_62-125" data-name="Безымянный градиент 62" x1="-764.52" y1="2481.76" x2="-764.52" y2="2477.05" xlink:href="#_Безымянный_градиент_62"/>
    <linearGradient id="_Безымянный_градиент_62-126" data-name="Безымянный градиент 62" x1="-757.62" y1="2470.64" x2="-757.62" y2="2464.1" xlink:href="#_Безымянный_градиент_62"/>
    <linearGradient id="_Безымянный_градиент_62-127" data-name="Безымянный градиент 62" x1="-748.38" y1="2464.01" x2="-748.38" y2="2455.52" xlink:href="#_Безымянный_градиент_62"/>
    <linearGradient id="_Безымянный_градиент_62-128" data-name="Безымянный градиент 62" x1="-736.59" y1="2457.8" x2="-736.59" y2="2448.58" xlink:href="#_Безымянный_градиент_62"/>
    <linearGradient id="_Безымянный_градиент_62-129" data-name="Безымянный градиент 62" x1="-723.98" y1="2458.3" x2="-723.98" y2="2448.28" xlink:href="#_Безымянный_градиент_62"/>
    <linearGradient id="_Безымянный_градиент_62-130" data-name="Безымянный градиент 62" x1="-710.25" y1="2455.89" x2="-710.25" y2="2446.72" xlink:href="#_Безымянный_градиент_62"/>
    <linearGradient id="_Безымянный_градиент_62-131" data-name="Безымянный градиент 62" x1="-697.92" y1="2456.93" x2="-697.92" y2="2449.13" xlink:href="#_Безымянный_градиент_62"/>
    <linearGradient id="_Безымянный_градиент_62-132" data-name="Безымянный градиент 62" x1="-686.15" y1="2462.29" x2="-686.15" y2="2455.21" xlink:href="#_Безымянный_градиент_62"/>
    <linearGradient id="_Безымянный_градиент_62-133" data-name="Безымянный градиент 62" x1="-678" y1="2471.04" x2="-678" y2="2464.87" xlink:href="#_Безымянный_градиент_62"/>
    <linearGradient id="_Безымянный_градиент_62-134" data-name="Безымянный градиент 62" x1="-671.79" y1="2481.5" x2="-671.79" y2="2478.43" xlink:href="#_Безымянный_градиент_62"/>
    <linearGradient id="_Безымянный_градиент_62-135" data-name="Безымянный градиент 62" x1="-668.78" y1="2492.78" x2="-668.78" y2="2491.16" xlink:href="#_Безымянный_градиент_62"/>
    <linearGradient id="_Безымянный_градиент_62-136" data-name="Безымянный градиент 62" x1="-667.81" y1="2504.56" x2="-667.81" y2="2502.42" xlink:href="#_Безымянный_градиент_62"/>
    <linearGradient id="_Безымянный_градиент_62-137" data-name="Безымянный градиент 62" x1="-673.52" y1="2517.29" x2="-673.52" y2="2514.04" xlink:href="#_Безымянный_градиент_62"/>
    <linearGradient id="_Безымянный_градиент_62-138" data-name="Безымянный градиент 62" x1="-679.28" y1="2529.32" x2="-679.28" y2="2521.67" xlink:href="#_Безымянный_градиент_62"/>
    <linearGradient id="_Безымянный_градиент_62-139" data-name="Безымянный градиент 62" x1="-687.48" y1="2538.29" x2="-687.48" y2="2531.35" xlink:href="#_Безымянный_градиент_62"/>
    <linearGradient id="_Безымянный_градиент_62-140" data-name="Безымянный градиент 62" x1="-697.87" y1="2545.04" x2="-697.87" y2="2538.26" xlink:href="#_Безымянный_градиент_62"/>
    <linearGradient id="_Безымянный_градиент_62-141" data-name="Безымянный градиент 62" x1="-711.52" y1="2550.21" x2="-711.52" y2="2541.4" xlink:href="#_Безымянный_градиент_62"/>
    <radialGradient id="_Безымянный_градиент_76-5" data-name="Безымянный градиент 76" cx="-717.61" cy="2498.3" fx="-717.61" fy="2498.3" r="46.1" xlink:href="#_Безымянный_градиент_76"/>
    <clipPath id="clippath-4">
      <path class="cls-130" d="m185.37,338.47c-11.65-4.34-24.05-.4-34.48,5.28-11.2,6.09-19.64,14.6-23.68,26.87-1.85,5.6-2.86,11.46-1.06,17.19,1.89,6.02,5.66,14.4,9.35,19.46,7.97,10.93,20.21,18.2,34.54,17.92,9.15-.18,20.64-4.06,27.84-10.93,14.37-11.36,19.74-32.79,13.86-50.25-4.08-12.12-14.52-21.13-26.37-25.54Zm17.73,29.25c4.62,13.72.4,30.57-10.9,39.51-5.66,5.4-14.69,8.45-21.89,8.59-11.27.22-20.89-5.49-27.16-14.09-2.9-3.98-5.87-10.57-7.35-15.3-1.41-4.51-.62-9.11.83-13.52,3.18-9.65,9.82-16.34,18.62-21.13,8.2-4.47,17.96-7.57,27.11-4.15,9.32,3.47,17.53,10.56,20.74,20.08Z"/>
    </clipPath>
    <linearGradient id="_Безымянный_градиент_62-142" data-name="Безымянный градиент 62" x1="-724.87" y1="2539.28" x2="-724.87" y2="2531.22" xlink:href="#_Безымянный_градиент_62"/>
    <linearGradient id="_Безымянный_градиент_62-143" data-name="Безымянный градиент 62" x1="-735.64" y1="2535.32" x2="-735.64" y2="2528.47" xlink:href="#_Безымянный_градиент_62"/>
    <linearGradient id="_Безымянный_градиент_62-144" data-name="Безымянный градиент 62" x1="-742.88" y1="2528.04" x2="-742.88" y2="2522.35" xlink:href="#_Безымянный_градиент_62"/>
    <linearGradient id="_Безымянный_градиент_62-145" data-name="Безымянный градиент 62" x1="-750.65" y1="2518.82" x2="-750.65" y2="2515.91" xlink:href="#_Безымянный_градиент_62"/>
    <linearGradient id="_Безымянный_градиент_62-146" data-name="Безымянный градиент 62" x1="-754.81" y1="2507.15" x2="-754.81" y2="2505.81" xlink:href="#_Безымянный_градиент_62"/>
    <linearGradient id="_Безымянный_градиент_62-147" data-name="Безымянный градиент 62" x1="-756.38" y1="2496.54" x2="-756.38" y2="2495.16" xlink:href="#_Безымянный_градиент_62"/>
    <linearGradient id="_Безымянный_градиент_62-148" data-name="Безымянный градиент 62" x1="-754.5" y1="2485.29" x2="-754.5" y2="2481.59" xlink:href="#_Безымянный_градиент_62"/>
    <linearGradient id="_Безымянный_градиент_62-149" data-name="Безымянный градиент 62" x1="-749.07" y1="2476.55" x2="-749.07" y2="2471.41" xlink:href="#_Безымянный_градиент_62"/>
    <linearGradient id="_Безымянный_градиент_62-150" data-name="Безымянный градиент 62" x1="-741.81" y1="2471.34" x2="-741.81" y2="2464.67" xlink:href="#_Безымянный_градиент_62"/>
    <linearGradient id="_Безымянный_градиент_62-151" data-name="Безымянный градиент 62" x1="-732.53" y1="2466.46" x2="-732.53" y2="2459.21" xlink:href="#_Безымянный_градиент_62"/>
    <linearGradient id="_Безымянный_градиент_62-152" data-name="Безымянный градиент 62" x1="-722.62" y1="2466.85" x2="-722.62" y2="2458.97" xlink:href="#_Безымянный_градиент_62"/>
    <linearGradient id="_Безымянный_градиент_62-153" data-name="Безымянный градиент 62" x1="-711.82" y1="2464.95" x2="-711.82" y2="2457.74" xlink:href="#_Безымянный_градиент_62"/>
    <linearGradient id="_Безымянный_градиент_62-154" data-name="Безымянный градиент 62" x1="-702.13" y1="2465.77" x2="-702.13" y2="2459.64" xlink:href="#_Безымянный_градиент_62"/>
    <linearGradient id="_Безымянный_градиент_62-155" data-name="Безымянный градиент 62" x1="-692.87" y1="2469.99" x2="-692.87" y2="2464.42" xlink:href="#_Безымянный_градиент_62"/>
    <linearGradient id="_Безымянный_градиент_62-156" data-name="Безымянный градиент 62" x1="-686.47" y1="2476.86" x2="-686.47" y2="2472.01" xlink:href="#_Безымянный_градиент_62"/>
    <linearGradient id="_Безымянный_градиент_62-157" data-name="Безымянный градиент 62" x1="-681.58" y1="2485.09" x2="-681.58" y2="2482.68" xlink:href="#_Безымянный_градиент_62"/>
    <linearGradient id="_Безымянный_градиент_62-158" data-name="Безымянный градиент 62" x1="-679.21" y1="2493.96" x2="-679.21" y2="2492.69" xlink:href="#_Безымянный_градиент_62"/>
    <linearGradient id="_Безымянный_градиент_62-159" data-name="Безымянный градиент 62" x1="-678.45" y1="2503.22" x2="-678.45" y2="2501.54" xlink:href="#_Безымянный_градиент_62"/>
    <linearGradient id="_Безымянный_градиент_62-160" data-name="Безымянный градиент 62" x1="-682.94" y1="2513.23" x2="-682.94" y2="2510.68" xlink:href="#_Безымянный_градиент_62"/>
    <linearGradient id="_Безымянный_градиент_62-161" data-name="Безымянный градиент 62" x1="-687.47" y1="2522.69" x2="-687.47" y2="2516.68" xlink:href="#_Безымянный_градиент_62"/>
    <linearGradient id="_Безымянный_градиент_62-162" data-name="Безымянный градиент 62" x1="-693.92" y1="2529.75" x2="-693.92" y2="2524.29" xlink:href="#_Безымянный_градиент_62"/>
    <linearGradient id="_Безымянный_градиент_62-163" data-name="Безымянный градиент 62" x1="-702.08" y1="2535.06" x2="-702.08" y2="2529.73" xlink:href="#_Безымянный_градиент_62"/>
    <linearGradient id="_Безымянный_градиент_62-164" data-name="Безымянный градиент 62" x1="-712.82" y1="2539.12" x2="-712.82" y2="2532.19" xlink:href="#_Безымянный_градиент_62"/>
    <radialGradient id="_Безымянный_градиент_76-6" data-name="Безымянный градиент 76" cx="-717.61" cy="2498.3" fx="-717.61" fy="2498.3" r="36.25" xlink:href="#_Безымянный_градиент_76"/>
    <radialGradient id="_Безымянный_градиент_77" data-name="Безымянный градиент 77" cx="-717.61" cy="2498.3" fx="-717.61" fy="2498.3" r="18.88" gradientTransform="translate(-302.39 -2174.37) rotate(-26.53)" gradientUnits="userSpaceOnUse">
      <stop offset=".26" stop-color="#f5eaca"/>
      <stop offset="1" stop-color="#d4cb85"/>
    </radialGradient>
    <linearGradient id="_Безымянный_градиент_62-165" data-name="Безымянный градиент 62" x1="331.24" y1="513.15" x2="331.24" y2="322.06" gradientTransform="matrix(1,0,0,1,0,0)" xlink:href="#_Безымянный_градиент_62"/>
    <linearGradient id="_Безымянный_градиент_59" data-name="Безымянный градиент 59" x1="232.27" y1="411.68" x2="429.78" y2="411.68" gradientUnits="userSpaceOnUse">
      <stop offset="0" stop-color="#f5eaca"/>
      <stop offset="1" stop-color="#d4cb85"/>
    </linearGradient>
  </defs>
  <g>
    <path class="cls-153" d="m426.29,209.7c-63.12-65.16-154.51-52.2-214.92,6.31-60.41,58.51-76.86,150-8.67,220.41,58.51,60.41,171.7,45.7,220.57-1.64,56.44-54.67,70.64-155.26,3.02-225.08Z"/>
    <path class="cls-126" d="m205.17,222.32c-6.83,7.25-13.01,14.95-18.49,22.99-.04.43-.09.87-.15,1.3-5.02,33.23-17.17,65.82-15.9,99.78,1.15,30.63,17.15,61.47,38.01,83.36,19.94,20.94,47.51,33.11,75.91,37.39,46.11,6.95,92.24-7.09,133.58-27.7.12-.1.24-.19.35-.29-49.52,7.95-98.99-11.89-141.08-38.24-34.24-21.44-63.91-54.08-74.95-93.68-7.89-28.3-.72-56.56,2.72-84.89Z"/>
    <path class="cls-120" d="m181.55,244.9c2.9-17.25-1.37-27.75-19.91-50.39-18.54-22.64-54.33-41.25-61.23-39.64,0,0-7.48-11.22,4.43-19.44,0,0,34.69,20.53,57.8,38.28,23.11,17.75,38.86,27.03,57.39,23.45,18.53-3.57,37.57-14.06,37.57-14.06,0,0-23.63,55.53-85.15,88.06,0,0,8.1-20.3,9.11-26.26Z"/>
    <g class="cls-93">
      <path class="cls-174" d="m423.27,434.78c-30.23-11.7-54.85-33.94-79.33-54.53-24.3-21.16-48.45-42.61-70.47-66.17-33.58-34.9-60.36-75.29-94.19-109.83-11.25-11.48-22.77-22.68-34.96-33.17,12.95,9.58,25.17,20.17,36.79,31.33,23.75,21.86,42.9,48.11,63.63,72.68,10.32,12.3,20.97,24.31,31.85,36.09,21.71,23.71,45.87,44.92,69.54,66.61,23.98,21.12,47.72,43.67,77.15,56.99h0Z"/>
      <path class="cls-174" d="m415.61,441.52c-52.21-2.47-116.19-48.09-151.73-84.94-10.25-10.69-19.73-22.19-27.94-34.56-16.55-24.66-26.67-52.59-38.82-79.47-6.04-13.36-12.22-26.71-20.7-38.75,19.29,22.47,29.82,50.98,41.97,77.52,23.59,54.02,67.12,96.51,116.3,127.83,24.8,15.02,51.58,29.72,80.93,32.37h0Z"/>
      <path class="cls-174" d="m407.18,447.57c-45.14,4.7-92.89-4.82-130.68-30.91-49.76-35.01-86.07-92.15-87.84-153.85-.49-14.86.64-30.86-8.48-43.48,10.77,11.49,10.68,28.59,11.89,43.3.64,7.51,1.23,14.95,2.62,22.33,9.22,51.78,41.61,98.13,83.94,128.63,37.08,26.3,83.39,36.51,128.56,33.98h0Z"/>
      <path class="cls-174" d="m400.18,451.11c-42.88,14.08-90.94,12.51-133.18-3.29-59.34-22.34-93.97-81.57-92.17-143.85.22-15.06,2.51-30.15,7-44.51-6.63,29.08-5.92,59.82,1.88,88.54,11.41,43.11,42.74,80.38,84.57,96.63,41.51,16.35,88.93,18.62,131.9,6.49h0Z"/>
      <path class="cls-174" d="m435.31,422.44c-2.67-65.3-70.84-144.85-123.17-180.34-18.53-12.32-39.03-22.47-61.18-25.71-7.42-1.12-14.89-2.23-22.34-3.52-14.57-2.85-30.65-5.32-42.25-15.32,6.04,4.57,13.33,6.85,20.56,8.63,14.64,3.46,29.61,4.73,44.55,6.54,53.08,8.53,96.05,47.77,129.3,87.71,27.04,33.56,54.95,77.61,54.54,122.02h0Z"/>
      <path class="cls-174" d="m428.87,429.36c-6.5-12.53-14.91-23.93-23.5-35.08-17.29-22.26-36.21-43.19-55.83-63.41-29.48-30.07-60.08-59.61-94.68-83.76-11.52-8.21-24.28-14.23-35.87-22.4-11.72-8.05-22.5-17.31-32.62-27.17,11.12,8.72,22.4,17.19,34.28,24.65,11.98,7.35,24.83,13.56,36.42,21.66,35.34,23.91,65.71,53.87,95.17,84.43,19.36,20.6,37.94,42.03,54.54,64.94,8.17,11.5,16.28,23.23,22.09,36.13h0Z"/>
      <path class="cls-174" d="m441.63,414.2c4.25-47.73-5.98-97.21-34.4-136.17-32.62-44.45-82.79-78.38-138.35-84.04-18.46-1.61-56.11,17.44-70.19,5.58,11.62,9,43.48-5.74,58.01-7.89,12-3.04,24.68.03,36.4,2.63,39.6,9.38,75.04,32.45,101.98,62.63,39.23,41.46,54.51,101.56,46.55,157.26h0Z"/>
      <path class="cls-174" d="m445.39,407.32c24.17-72.31,8.55-152.8-58.62-195.25-24.4-16.28-52.78-26.54-81.9-30.17-14.65-1.73-29.54-1.76-44.08,1.08,28.95-7.69,60.01-3.79,88.09,5.75,42.26,14.63,80.48,45.47,97.69,87.45,16.81,41.66,14.69,89.59-1.18,131.15h0Z"/>
    </g>
  </g>
  <g>
    <path class="cls-70" d="m205.52,290.86c-25.99-9.69-53.67-.88-76.96,11.79-24.99,13.6-43.83,32.58-52.85,59.97-4.12,12.51-6.38,25.57-2.37,38.37,4.21,13.43,12.64,32.14,20.87,43.42,17.8,24.4,45.1,40.62,77.1,40,20.43-.4,46.06-9.06,62.13-24.4,32.07-25.36,44.06-73.2,30.94-112.15-9.11-27.04-32.42-47.15-58.86-57.01Zm48.87,61.29c11.67,34.64,1.01,77.18-27.51,99.74-14.3,13.64-37.09,21.34-55.26,21.7-28.46.56-52.74-13.87-68.57-35.57-7.32-10.04-14.81-26.67-18.56-38.62-3.57-11.38-1.56-23,2.1-34.12,8.02-24.37,24.78-41.25,47-53.34,20.71-11.27,45.33-19.1,68.45-10.48,23.52,8.77,44.24,26.65,52.35,50.7Z"/>
    <g>
      <path class="cls-49" d="m198.01,299.92c-22.12-8.25-45.67-.75-65.49,10.03-21.26,11.57-37.29,27.72-44.97,51.04-3.5,10.64-5.43,21.76-2.01,32.65,3.59,11.43,10.75,27.35,17.76,36.95,15.15,20.77,38.38,34.57,65.61,34.03,17.39-.34,39.19-7.71,52.87-20.76,27.29-21.58,37.49-62.29,26.33-95.43-7.75-23.01-27.59-40.12-50.09-48.51Zm35.78,54.65c9.09,26.97.79,60.09-21.42,77.65-11.13,10.62-28.87,16.62-43.02,16.89-22.16.43-41.06-10.8-53.38-27.69-5.7-7.81-11.53-20.77-14.45-30.07-2.78-8.86-1.21-17.91,1.64-26.57,6.25-18.97,19.29-32.11,36.59-41.53,16.13-8.77,35.29-14.87,53.29-8.16,18.31,6.83,34.45,20.75,40.75,39.47Z"/>
      <g class="cls-21">
        <g class="cls-123">
          <g>
            <path class="cls-84" d="m195.89,437.95c2.47,4.89,4.52,9.97,6.1,15.21.34,1.13,2.16.78,1.82-.36-1.63-5.4-3.72-10.65-6.26-15.68-.54-1.06-2.2-.24-1.66.83Z"/>
            <path class="cls-102" d="m188.44,443.41c1.4,4.48,2.05,9.16,1.89,13.85-.04,1.19,1.81,1.32,1.85.12.16-4.85-.48-9.7-1.92-14.33-.35-1.13-2.17-.78-1.82.36Z"/>
            <path class="cls-45" d="m178.09,444.39c-.53.1-.78.59-.73,1.09.41,4.38.54,8.77.4,13.17-.04,1.19,1.81,1.31,1.85.12.14-4.55,0-9.11-.43-13.65-.05-.5-.63-.82-1.09-.73Z"/>
            <path class="cls-104" d="m170.4,445.97c-.54-.04-.9.37-.99.86-.78,4.55-1.57,9.1-2.35,13.65-.08.49.4.96.86.99.54.04.9-.37.99-.86.78-4.55,1.57-9.1,2.35-13.65.09-.49-.4-.95-.86-.99Z"/>
            <path class="cls-2" d="m165.71,440.13c-1.5,6.04-3.67,11.91-6.5,17.46-.54,1.05,1.01,2.08,1.55,1.01,2.91-5.69,5.17-11.68,6.71-17.89.29-1.15-1.47-1.75-1.76-.59Z"/>
            <path class="cls-80" d="m155.07,441.02c-.38-.26-1.06-.18-1.28.27-2.26,4.46-4.52,8.91-6.78,13.37-.23.45-.18.98.27,1.28.38.26,1.06.18,1.28-.27,2.26-4.46,4.52-8.91,6.78-13.37.23-.45.18-.98-.27-1.28Z"/>
            <path class="cls-113" d="m147.03,437.64c-4.49,4.94-9.1,9.78-13.82,14.51-.84.84.39,2.23,1.24,1.38,4.72-4.73,9.33-9.56,13.82-14.51.79-.87-.44-2.26-1.24-1.38Z"/>
            <path class="cls-75" d="m135.97,436.38c-3.52,3.12-7.03,6.24-10.54,9.36-.89.79.35,2.17,1.24,1.38,3.52-3.12,7.03-6.24,10.54-9.36.89-.79-.34-2.17-1.24-1.38Z"/>
            <path class="cls-16" d="m124.61,432.08c-2.34,1.96-4.9,3.62-7.65,4.96-1.07.52-.24,2.18.83,1.66,2.89-1.41,5.6-3.18,8.06-5.24.91-.77-.32-2.14-1.24-1.38Z"/>
            <path class="cls-149" d="m121.71,422.81l-14.19,6.31c-1.09.48-.26,2.14.83,1.66l14.19-6.31c1.09-.48.26-2.14-.83-1.66Z"/>
            <path class="cls-183" d="m111.02,414.11c-3.12,1.29-6.24,2.57-9.37,3.86-.46.19-.63.82-.42,1.24.24.48.78.61,1.24.42,3.12-1.29,6.24-2.57,9.37-3.86.46-.19.63-.82.42-1.24-.24-.48-.78-.61-1.24-.42Z"/>
            <path class="cls-88" d="m108.55,406.86c-3.65,1.79-7.39,3.37-11.22,4.73-.47.17-.62.83-.41,1.24.25.49.77.58,1.24.42,3.83-1.36,7.57-2.94,11.22-4.74,1.07-.53.24-2.18-.83-1.66Z"/>
            <path class="cls-43" d="m107.27,395.06c-4.9,1.49-9.72,3.22-14.45,5.2-1.1.46-.27,2.12.83,1.66,4.57-1.91,9.23-3.59,13.97-5.04,1.13-.34.78-2.16-.36-1.82Z"/>
            <path class="cls-100" d="m102.91,385.81c-4.6.65-9.23,1.06-13.87,1.22-1.18.04-1.31,1.89-.12,1.85,4.8-.17,9.59-.59,14.35-1.25,1.18-.17.82-1.98-.36-1.82Z"/>
            <path class="cls-73" d="m101.41,374.76c-4.32.19-8.64.38-12.95.56-.5.02-.95.33-.99.86-.03.46.36,1.01.86.99,4.32-.19,8.64-.38,12.95-.56.5-.02.95-.33.99-.86.03-.46-.36-1.01-.86-.99Z"/>
            <path class="cls-76" d="m104.07,366.78c-4.51-.83-9.06-1.5-13.62-2.01-1.19-.13-1.3,1.72-.12,1.85,4.56.51,9.11,1.17,13.62,2.01.49.09.95-.41.99-.86.04-.55-.37-.89-.86-.99Z"/>
            <path class="cls-142" d="m105.94,359.02c-3.51-1.62-7.01-3.24-10.52-4.86-.45-.21-1.03.15-1.17.59-.17.52.13.96.58,1.17,3.51,1.62,7.01,3.24,10.52,4.86.45.21,1.03-.15,1.17-.58.17-.52-.13-.96-.58-1.17Z"/>
            <path class="cls-56" d="m110.01,353.44c-2.92-2.94-6.23-5.48-9.83-7.53-1.03-.58-2.05.96-1.01,1.55,3.47,1.97,6.65,4.38,9.47,7.21.84.84,2.22-.39,1.38-1.24Z"/>
            <path class="cls-152" d="m114.58,345.42c-3.3-2.66-6.52-5.42-9.65-8.28-.37-.34-.91-.43-1.31-.07-.34.31-.44.97-.07,1.31,3.25,2.97,6.59,5.84,10.02,8.6.39.31,1.03.12,1.28-.27.29-.45.12-.97-.27-1.28Z"/>
            <path class="cls-157" d="m120.81,337.69c-3.03-2.87-5.88-5.91-8.54-9.13-.76-.92-2.14.32-1.38,1.24,2.66,3.22,5.51,6.26,8.54,9.13.86.81,2.25-.42,1.38-1.24Z"/>
            <path class="cls-67" d="m120,321.87c-.75-.93-2.13.31-1.38,1.24,3.14,3.87,6.03,7.93,8.65,12.16.62,1.01,2.29.19,1.66-.83-2.71-4.37-5.69-8.58-8.93-12.57Z"/>
            <path class="cls-46" d="m130.53,319.2c-.59-1.03-2.25-.21-1.66.83,2.19,3.81,4.23,7.71,6.13,11.67.51,1.08,2.17.25,1.66-.83-1.9-3.97-3.94-7.86-6.13-11.67Z"/>
            <path class="cls-54" d="m136.95,312.81c-.6-1.02-2.27-.2-1.66.83,2.34,3.93,4.36,8.04,6.05,12.29.44,1.11,2.1.27,1.66-.83-1.69-4.25-3.71-8.36-6.05-12.3Z"/>
            <path class="cls-15" d="m148.42,308.41c-.02-.38-.26-.75-.61-.89-.72-.5-1.93.23-1.38,1.12,2.04,3.32,3.68,6.87,4.83,10.59.15.48.56.84,1.09.73.45-.09.88-.61.73-1.09-1.14-3.67-2.7-7.17-4.66-10.47Z"/>
            <path class="cls-41" d="m155.16,304.47c-.44.09-.89.61-.73,1.09,1.15,3.4,2.15,6.84,2.99,10.33.28,1.16,2.1.8,1.82-.36-.84-3.49-1.83-6.93-2.98-10.33-.16-.47-.55-.84-1.09-.73Z"/>
            <path class="cls-159" d="m165.44,302.93c.85,3.28,1.57,6.59,2.16,9.93.21,1.18,2.03.82,1.82-.36-.59-3.34-1.31-6.65-2.16-9.93-.3-1.15-2.12-.8-1.82.36Z"/>
            <path class="cls-107" d="m176.7,300.98c-.46.09-.87.6-.73,1.09.99,3.52,1.31,7.17.94,10.81-.12,1.19,1.73,1.31,1.85.12.38-3.78.06-7.63-.97-11.29-.14-.48-.57-.83-1.09-.73Z"/>
            <path class="cls-57" d="m188.35,301.05c-.54-.04-.91.37-.99.86-.58,3.68-1.47,7.3-2.62,10.84-.37,1.14,1.39,1.72,1.76.59,1.2-3.69,2.1-7.47,2.71-11.3.08-.49-.4-.95-.86-.99Z"/>
            <path class="cls-176" d="m197.45,304.66c-1.02,3.7-2.72,7.15-5.01,10.23-.71.96.84,1.97,1.55,1.01,2.38-3.19,4.15-6.83,5.22-10.66.32-1.15-1.44-1.74-1.76-.59Z"/>
            <path class="cls-116" d="m206.75,307.97c-.45-.03-1.01.36-.99.86.09,1.97-.98,3.66-2.12,5.19-1.28,1.71-2.7,3.39-3.26,5.5-.31,1.15,1.45,1.74,1.76.59.56-2.1,2.07-3.71,3.32-5.43,1.2-1.66,2.26-3.61,2.15-5.72-.02-.5-.33-.95-.86-.99Z"/>
            <path class="cls-179" d="m215.35,315.18c-2.79,2.78-5.31,5.83-7.52,9.1-.67.99.88,2,1.55,1.01,2.12-3.14,4.52-6.06,7.2-8.74.84-.84-.39-2.22-1.24-1.38Z"/>
            <path class="cls-143" d="m223.65,322.82c-.3-.34-.98-.45-1.31-.07-1.7,1.95-3.47,3.85-5.31,5.68-.36.35-.42.92-.07,1.31.32.36.95.42,1.31.07,1.84-1.83,3.61-3.72,5.31-5.68.33-.38.43-.9.07-1.31Z"/>
            <path class="cls-6" d="m231.82,328.83c-.37-.41-.9-.36-1.31-.07-2.49,1.76-5.02,3.46-7.59,5.11-.42.27-.65.76-.41,1.24.21.41.82.69,1.24.42,2.71-1.73,5.38-3.53,8-5.39.41-.29.38-.97.07-1.31Z"/>
            <path class="cls-167" d="m237.9,336.65c-3.72,2.19-7.66,4.03-11.76,5.42-.48.16-.83.55-.73,1.09.08.44.61.89,1.09.73,4.26-1.45,8.35-3.3,12.23-5.58,1.02-.6.2-2.26-.83-1.66Z"/>
            <path class="cls-42" d="m240.84,343.72c-4.91,2.19-9.92,4.13-15.04,5.78-1.12.36-.77,2.18.36,1.82,5.27-1.71,10.45-3.68,15.51-5.94,1.09-.49.26-2.14-.83-1.66Z"/>
            <path class="cls-77" d="m244.65,353.11c-2.36.96-4.8,1.68-7.29,2.18-1.17.23-.81,2.05.36,1.82,2.66-.53,5.26-1.32,7.76-2.34.46-.19.63-.82.42-1.24-.24-.48-.78-.6-1.24-.42Z"/>
            <path class="cls-69" d="m247.41,364.43c-3.96,1.27-8.08,2.05-12.24,2.25-.5.03-.94.32-.99.86-.03.45.36,1.01.86.98,4.33-.21,8.59-.96,12.72-2.29.48-.15.83-.55.73-1.09-.08-.45-.61-.88-1.09-.73Z"/>
            <path class="cls-20" d="m247.12,373.02c-.72.61-1.61.85-2.52,1.03-.98.19-1.97.34-2.95.5-2.01.34-4.02.67-6.03,1.01-1.18.2-.82,2.01.36,1.82,2.16-.36,4.33-.72,6.49-1.08,2.03-.34,4.24-.52,5.88-1.9.91-.77-.33-2.15-1.24-1.38Z"/>
            <path class="cls-28" d="m248.1,383.27c-3.24-.56-6.44-1.35-9.57-2.34-1.14-.36-1.73,1.4-.59,1.76,3.29,1.04,6.64,1.85,10.03,2.44.49.09.95-.4.99-.86.04-.54-.37-.9-.86-.99Z"/>
            <path class="cls-105" d="m246.8,393.66c-3.94-1.28-7.78-2.87-11.47-4.76-.44-.23-.99-.18-1.28.27-.25.39-.18,1.05.27,1.28,3.83,1.97,7.8,3.64,11.9,4.97,1.14.37,1.72-1.39.59-1.76Z"/>
            <path class="cls-164" d="m243.69,403.15c-3.29-1.6-6.5-3.36-9.62-5.27-1.01-.62-2.03.93-1.01,1.55,3.12,1.91,6.33,3.67,9.62,5.27.45.22.98.19,1.28-.27.25-.38.18-1.06-.27-1.28Z"/>
            <path class="cls-38" d="m240.79,411.65c-3.07-1.44-6.04-3.09-8.9-4.9-1.01-.64-2.02.91-1.01,1.55,3,1.9,6.12,3.59,9.33,5.1.45.21,1.03-.15,1.17-.59.17-.52-.13-.96-.59-1.17Z"/>
            <path class="cls-139" d="m236.65,420.02c-3.06-1.33-5.91-3.13-8.45-5.29-.38-.32-1.03-.11-1.28.27-.3.46-.11.96.27,1.28,2.67,2.27,5.66,4.11,8.88,5.5.46.2,1.02-.14,1.17-.58.17-.51-.12-.97-.58-1.17Z"/>
            <path class="cls-19" d="m230.41,428.54c-2.08-2.04-4.16-4.09-6.24-6.13-.36-.35-.92-.42-1.31-.07-.36.32-.43.96-.07,1.31,2.08,2.04,4.16,4.09,6.24,6.13.36.35.92.42,1.31.07.36-.32.43-.96.07-1.31Z"/>
            <path class="cls-82" d="m222.8,436.38c-2.38-2.55-5.08-4.79-8.04-6.63-1.01-.63-2.03.92-1.01,1.55,2.83,1.76,5.41,3.88,7.68,6.32.81.87,2.19-.36,1.38-1.24Z"/>
            <path class="cls-44" d="m212.33,428.42c-1.07.53-.24,2.19.83,1.66,1.07-.53.24-2.19-.83-1.66Z"/>
            <path class="cls-170" d="m209.29,435.31c-.6-1.03-2.26-.21-1.66.83,1.9,3.28,3.68,6.64,5.31,10.06.51,1.08,2.17.25,1.66-.83-1.64-3.42-3.41-6.78-5.31-10.06Z"/>
          </g>
        </g>
      </g>
    </g>
    <g>
      <path class="cls-136" d="m202.69,285.65c-25.99-9.69-53.67-.88-76.96,11.79-24.99,13.6-43.83,32.58-52.85,59.97-4.12,12.51-6.38,25.57-2.37,38.37,4.21,13.43,12.64,32.14,20.87,43.42,17.8,24.4,45.1,40.62,77.1,39.99,20.43-.4,46.06-9.06,62.13-24.39,32.07-25.36,44.06-73.2,30.94-112.15-9.11-27.04-32.42-47.15-58.86-57.01Zm45.41,62.77c11.17,33.15.97,73.85-26.33,95.43-13.68,13.05-35.48,20.42-52.87,20.76-27.23.53-50.46-13.27-65.61-34.03-7-9.6-14.17-25.52-17.76-36.95-3.42-10.89-1.49-22.01,2.01-32.65,7.68-23.32,23.71-39.47,44.97-51.04,19.82-10.78,43.37-18.28,65.49-10.03,22.5,8.39,42.33,25.5,50.09,48.51Z"/>
      <g class="cls-21">
        <g class="cls-85">
          <g>
            <path class="cls-92" d="m200.2,447.87c2.91,5.74,5.31,11.72,7.17,17.88.4,1.33,2.54.92,2.14-.42-1.91-6.35-4.37-12.51-7.36-18.43-.63-1.25-2.58-.28-1.95.97Z"/>
            <path class="cls-101" d="m191.44,454.28c1.65,5.27,2.41,10.76,2.23,16.28-.05,1.4,2.13,1.55,2.17.14.19-5.7-.56-11.4-2.26-16.84-.41-1.32-2.55-.92-2.14.42Z"/>
            <path class="cls-3" d="m179.27,455.43c-.63.12-.91.7-.86,1.28.48,5.14.64,10.31.48,15.48-.04,1.4,2.13,1.55,2.17.14.17-5.35-.01-10.71-.51-16.04-.06-.59-.74-.96-1.28-.86Z"/>
            <path class="cls-166" d="m170.24,457.29c-.64-.04-1.06.43-1.16,1.01-.92,5.35-1.84,10.7-2.76,16.05-.1.58.47,1.12,1.01,1.16.64.04,1.06-.43,1.16-1.02.92-5.35,1.84-10.7,2.76-16.05.1-.58-.47-1.12-1.01-1.16Z"/>
            <path class="cls-98" d="m164.73,450.43c-1.76,7.1-4.32,14-7.64,20.52-.63,1.23,1.18,2.44,1.82,1.19,3.42-6.69,6.07-13.73,7.89-21.02.34-1.35-1.73-2.05-2.06-.69Z"/>
            <path class="cls-180" d="m152.22,451.47c-.45-.3-1.24-.21-1.51.32-2.66,5.24-5.31,10.48-7.97,15.72-.27.53-.21,1.15.32,1.51.45.3,1.24.21,1.51-.32,2.66-5.24,5.31-10.48,7.97-15.71.27-.53.21-1.15-.32-1.51Z"/>
            <path class="cls-114" d="m142.78,447.5c-5.28,5.81-10.69,11.49-16.24,17.05-.98.99.46,2.61,1.46,1.62,5.55-5.55,10.96-11.24,16.24-17.05.93-1.03-.51-2.66-1.46-1.62Z"/>
            <path class="cls-86" d="m129.78,446.02c-4.13,3.67-8.26,7.34-12.39,11-1.05.93.4,2.55,1.46,1.62,4.13-3.67,8.26-7.34,12.39-11,1.05-.93-.4-2.55-1.46-1.62Z"/>
            <path class="cls-14" d="m116.43,440.96c-2.75,2.31-5.76,4.25-8.99,5.83-1.26.61-.29,2.56.97,1.95,3.39-1.66,6.58-3.73,9.47-6.16,1.07-.9-.38-2.52-1.46-1.62Z"/>
            <path class="cls-112" d="m113.02,430.07l-16.67,7.42c-1.28.57-.31,2.52.97,1.95l16.67-7.42c1.28-.57.31-2.52-.97-1.95Z"/>
            <path class="cls-22" d="m100.47,419.85c-3.67,1.51-7.34,3.02-11.01,4.53-.54.22-.74.96-.49,1.46.28.56.91.71,1.46.49,3.67-1.51,7.34-3.02,11.01-4.53.54-.22.74-.96.49-1.46-.28-.56-.91-.71-1.46-.49Z"/>
            <path class="cls-36" d="m97.56,411.33c-4.28,2.11-8.68,3.96-13.18,5.56-.55.2-.73.98-.49,1.46.29.58.9.69,1.46.49,4.5-1.6,8.9-3.46,13.18-5.56,1.26-.62.29-2.57-.97-1.95Z"/>
            <path class="cls-74" d="m96.06,397.46c-5.76,1.75-11.42,3.78-16.97,6.1-1.29.54-.32,2.49.97,1.95,5.37-2.25,10.85-4.23,16.42-5.92,1.33-.4.92-2.54-.42-2.14Z"/>
            <path class="cls-129" d="m90.93,386.6c-5.41.76-10.85,1.24-16.3,1.44-1.39.05-1.54,2.22-.14,2.17,5.65-.2,11.28-.69,16.87-1.47,1.39-.19.96-2.33-.42-2.14Z"/>
            <path class="cls-51" d="m89.17,373.6c-5.07.22-10.15.44-15.22.66-.59.03-1.12.38-1.16,1.02-.04.54.42,1.18,1.02,1.16,5.07-.22,10.15-.44,15.22-.66.59-.03,1.12-.38,1.16-1.01.04-.54-.42-1.18-1.01-1.16Z"/>
            <path class="cls-66" d="m92.29,364.24c-5.31-.98-10.64-1.77-16.01-2.36-1.4-.15-1.53,2.02-.14,2.17,5.36.59,10.7,1.38,16,2.36.58.11,1.12-.48,1.16-1.01.04-.64-.43-1.05-1.01-1.16Z"/>
            <path class="cls-133" d="m94.5,355.11c-4.12-1.9-8.24-3.81-12.36-5.71-.53-.25-1.21.17-1.38.69-.2.61.15,1.13.69,1.38,4.12,1.9,8.24,3.81,12.36,5.71.53.25,1.21-.17,1.38-.69.2-.61-.15-1.13-.69-1.38Z"/>
            <path class="cls-140" d="m99.27,348.56c-3.43-3.45-7.32-6.44-11.55-8.85-1.21-.69-2.42,1.13-1.19,1.82,4.08,2.31,7.82,5.15,11.12,8.48.98.99,2.61-.46,1.62-1.46Z"/>
            <path class="cls-132" d="m104.64,339.13c-3.88-3.12-7.67-6.37-11.34-9.73-.43-.4-1.07-.5-1.54-.08-.4.36-.52,1.14-.08,1.54,3.82,3.49,7.74,6.86,11.77,10.1.46.37,1.21.14,1.51-.32.35-.53.15-1.14-.32-1.51Z"/>
            <path class="cls-146" d="m111.97,330.05c-3.56-3.37-6.91-6.95-10.03-10.73-.89-1.08-2.51.38-1.62,1.46,3.12,3.78,6.47,7.36,10.03,10.73,1.01.95,2.64-.49,1.62-1.46Z"/>
            <path class="cls-8" d="m111.01,311.45c-.88-1.09-2.5.37-1.62,1.46,3.69,4.55,7.09,9.31,10.17,14.29.73,1.18,2.69.22,1.95-.97-3.18-5.14-6.69-10.08-10.5-14.77Z"/>
            <path class="cls-53" d="m123.38,308.31c-.69-1.21-2.65-.25-1.95.97,2.57,4.48,4.97,9.06,7.2,13.72.6,1.26,2.55.29,1.95-.97-2.23-4.66-4.63-9.24-7.2-13.72Z"/>
            <path class="cls-97" d="m130.93,300.8c-.71-1.2-2.66-.23-1.95.97,2.74,4.62,5.12,9.45,7.11,14.45.52,1.3,2.46.32,1.95-.97-1.99-5-4.36-9.82-7.11-14.45Z"/>
            <path class="cls-109" d="m144.41,295.64c-.02-.45-.3-.88-.72-1.04-.85-.59-2.27.28-1.62,1.32,2.39,3.9,4.32,8.08,5.68,12.45.17.56.66.98,1.28.86.53-.1,1.03-.71.86-1.28-1.34-4.31-3.17-8.43-5.48-12.31Z"/>
            <path class="cls-72" d="m152.33,291.01c-.52.1-1.05.72-.86,1.28,1.35,3.99,2.52,8.04,3.51,12.14.33,1.36,2.46.94,2.14-.42-.99-4.1-2.16-8.15-3.51-12.14-.19-.56-.65-.98-1.28-.86Z"/>
            <path class="cls-30" d="m164.41,289.2c.99,3.85,1.84,7.75,2.53,11.66.25,1.38,2.38.96,2.14-.42-.7-3.92-1.54-7.81-2.54-11.66-.35-1.35-2.49-.94-2.14.42Z"/>
            <path class="cls-122" d="m177.64,286.9c-.54.11-1.02.71-.86,1.28,1.16,4.14,1.54,8.43,1.11,12.7-.14,1.4,2.03,1.53,2.17.14.45-4.44.07-8.96-1.14-13.27-.16-.57-.67-.98-1.28-.86Z"/>
            <path class="cls-111" d="m191.34,286.98c-.63-.04-1.07.43-1.16,1.01-.69,4.32-1.72,8.58-3.08,12.74-.43,1.33,1.63,2.02,2.06.69,1.41-4.34,2.47-8.78,3.18-13.28.09-.58-.47-1.12-1.01-1.16Z"/>
            <path class="cls-99" d="m202.03,291.23c-1.2,4.35-3.19,8.41-5.89,12.03-.84,1.12.99,2.31,1.82,1.19,2.79-3.75,4.88-8.02,6.13-12.53.37-1.35-1.69-2.04-2.06-.69Z"/>
            <path class="cls-103" d="m212.96,295.12c-.53-.04-1.19.42-1.16,1.02.11,2.32-1.15,4.31-2.49,6.09-1.51,2.01-3.17,3.98-3.83,6.46-.36,1.35,1.7,2.05,2.06.69.66-2.47,2.44-4.36,3.9-6.39,1.41-1.95,2.65-4.24,2.53-6.72-.03-.59-.38-1.12-1.01-1.16Z"/>
            <path class="cls-106" d="m223.06,303.59c-3.28,3.27-6.24,6.85-8.83,10.7-.78,1.16,1.04,2.36,1.82,1.19,2.49-3.69,5.32-7.12,8.47-10.27.99-.98-.46-2.61-1.46-1.62Z"/>
            <path class="cls-60" d="m232.82,312.57c-.36-.4-1.15-.53-1.54-.08-2,2.3-4.08,4.52-6.24,6.67-.42.41-.49,1.08-.08,1.54.38.42,1.12.5,1.54.08,2.16-2.15,4.24-4.37,6.24-6.67.39-.44.51-1.06.08-1.54Z"/>
            <path class="cls-121" d="m242.42,319.63c-.43-.48-1.06-.42-1.54-.08-2.93,2.07-5.9,4.07-8.92,6-.5.32-.77.89-.49,1.46.24.48.96.81,1.46.49,3.18-2.04,6.32-4.15,9.4-6.33.48-.34.44-1.14.08-1.54Z"/>
            <path class="cls-110" d="m249.56,328.83c-4.38,2.58-9.01,4.73-13.82,6.37-.56.19-.98.65-.86,1.28.1.52.72,1.05,1.28.86,5-1.7,9.81-3.87,14.37-6.56,1.2-.71.24-2.66-.97-1.95Z"/>
            <path class="cls-34" d="m253.01,337.13c-5.77,2.58-11.66,4.85-17.67,6.8-1.32.43-.91,2.57.42,2.14,6.19-2,12.28-4.33,18.22-6.99,1.28-.57.31-2.52-.97-1.95Z"/>
            <path class="cls-4" d="m257.5,348.16c-2.77,1.13-5.64,1.98-8.57,2.56-1.38.28-.96,2.41.42,2.14,3.12-.62,6.18-1.55,9.13-2.75.55-.22.74-.96.49-1.46-.28-.56-.91-.71-1.46-.49Z"/>
            <path class="cls-48" d="m260.73,361.47c-4.66,1.49-9.5,2.41-14.38,2.65-.59.03-1.11.38-1.16,1.01-.04.53.43,1.19,1.01,1.16,5.09-.25,10.1-1.13,14.95-2.69.56-.18.97-.65.86-1.28-.1-.53-.72-1.04-1.28-.86Z"/>
            <path class="cls-32" d="m260.4,371.56c-.85.71-1.89,1-2.96,1.21-1.15.23-2.31.4-3.47.59-2.36.39-4.73.79-7.09,1.18-1.38.23-.96,2.37.42,2.14,2.54-.42,5.09-.85,7.63-1.27,2.39-.4,4.99-.61,6.92-2.23,1.07-.9-.38-2.52-1.46-1.62Z"/>
            <path class="cls-1" d="m261.55,383.61c-3.81-.66-7.56-1.59-11.24-2.76-1.34-.42-2.03,1.64-.69,2.07,3.86,1.22,7.8,2.17,11.79,2.86.58.1,1.12-.47,1.16-1.01.04-.64-.43-1.06-1.02-1.16Z"/>
            <path class="cls-5" d="m260.02,395.82c-4.63-1.5-9.15-3.37-13.48-5.6-.52-.27-1.16-.21-1.51.32-.3.45-.21,1.24.32,1.51,4.5,2.32,9.17,4.28,13.98,5.84,1.34.43,2.03-1.63.69-2.07Z"/>
            <path class="cls-94" d="m256.37,406.96c-3.87-1.88-7.64-3.94-11.31-6.19-1.19-.73-2.39,1.09-1.19,1.82,3.67,2.24,7.44,4.31,11.31,6.19.53.26,1.16.22,1.51-.32.29-.44.22-1.25-.32-1.51Z"/>
            <path class="cls-61" d="m252.96,416.95c-3.61-1.7-7.1-3.63-10.46-5.75-1.18-.75-2.38,1.07-1.19,1.82,3.53,2.23,7.19,4.22,10.97,6,.53.25,1.21-.18,1.38-.69.21-.61-.15-1.13-.69-1.38Z"/>
            <path class="cls-185" d="m248.09,426.79c-3.6-1.56-6.94-3.68-9.93-6.22-.45-.38-1.21-.13-1.51.32-.36.54-.13,1.12.32,1.51,3.14,2.67,6.66,4.82,10.43,6.46.54.23,1.2-.16,1.38-.69.2-.6-.15-1.14-.69-1.38Z"/>
            <path class="cls-158" d="m240.77,436.81c-2.44-2.4-4.89-4.8-7.33-7.2-.42-.41-1.08-.49-1.54-.08-.42.37-.5,1.12-.08,1.54,2.44,2.4,4.89,4.8,7.33,7.2.42.41,1.08.49,1.54.08.42-.37.5-1.12.08-1.54Z"/>
            <path class="cls-144" d="m231.81,446.02c-2.79-3-5.97-5.63-9.45-7.79-1.19-.74-2.39,1.08-1.19,1.82,3.33,2.07,6.35,4.55,9.02,7.42.95,1.02,2.58-.43,1.62-1.46Z"/>
            <path class="cls-138" d="m219.52,436.67c-1.25.62-.28,2.57.97,1.95,1.25-.62.28-2.57-.97-1.95Z"/>
            <path class="cls-10" d="m215.95,444.76c-.7-1.21-2.65-.24-1.95.97,2.24,3.86,4.32,7.8,6.24,11.82.6,1.26,2.55.29,1.95-.97-1.92-4.02-4-7.97-6.24-11.82Z"/>
          </g>
        </g>
      </g>
    </g>
    <g>
      <path class="cls-27" d="m193.28,314.34c-18.2-6.79-37.58-.62-53.89,8.25-17.5,9.52-30.69,22.81-37.01,42-2.88,8.76-4.47,17.91-1.66,26.87,2.95,9.41,8.85,22.5,14.61,30.41,12.46,17.09,31.58,28.45,53.99,28.01,14.31-.28,32.25-6.35,43.51-17.08,22.46-17.76,30.85-51.26,21.66-78.53-6.38-18.94-22.7-33.02-41.22-39.92Zm29.44,44.97c7.48,22.19.65,49.45-17.63,63.9-9.16,8.74-23.76,13.67-35.4,13.9-18.23.36-33.79-8.88-43.93-22.79-4.69-6.43-9.49-17.09-11.89-24.74-2.29-7.29-1-14.73,1.35-21.86,5.14-15.61,15.87-26.43,30.11-34.17,13.27-7.22,29.04-12.24,43.85-6.72,15.07,5.62,28.34,17.08,33.54,32.48Z"/>
      <g class="cls-21">
        <g class="cls-35">
          <g>
            <path class="cls-134" d="m185.41,432.42c1.15,3.69,1.69,7.54,1.56,11.4-.03.98,1.49,1.08,1.52.1.13-3.99-.39-7.98-1.58-11.8-.29-.93-1.79-.64-1.5.29Z"/>
            <path class="cls-147" d="m170.56,434.52c-.45-.03-.74.3-.81.71-.64,3.75-1.29,7.49-1.93,11.24-.07.4.33.79.71.81.45.03.74-.3.81-.71.64-3.74,1.29-7.49,1.93-11.24.07-.41-.33-.79-.71-.81Z"/>
            <path class="cls-162" d="m157.94,430.45c-.31-.21-.87-.15-1.06.22-1.86,3.67-3.72,7.34-5.58,11-.19.37-.15.81.22,1.06.31.21.87.15,1.05-.22,1.86-3.67,3.72-7.34,5.58-11,.19-.37.15-.81-.22-1.05Z"/>
            <path class="cls-91" d="m142.23,426.64c-2.89,2.57-5.78,5.14-8.68,7.71-.73.65.28,1.79,1.02,1.13,2.89-2.57,5.78-5.14,8.68-7.71.73-.65-.28-1.79-1.02-1.13Z"/>
            <path class="cls-25" d="m130.49,415.46l-11.67,5.19c-.9.4-.21,1.76.68,1.36l11.68-5.19c.9-.4.21-1.76-.68-1.36Z"/>
            <path class="cls-95" d="m119.66,402.34c-3,1.47-6.08,2.78-9.23,3.9-.39.14-.51.69-.34,1.02.2.41.63.48,1.02.34,3.15-1.12,6.23-2.42,9.23-3.9.88-.43.2-1.8-.68-1.36Z"/>
            <path class="cls-141" d="m115.02,385.02c-3.79.53-7.6.87-11.42,1.01-.97.04-1.08,1.56-.1,1.52,3.95-.14,7.9-.48,11.81-1.03.97-.14.67-1.63-.29-1.5Z"/>
            <path class="cls-172" d="m115.98,369.36c-3.71-.69-7.45-1.24-11.21-1.65-.98-.11-1.07,1.41-.1,1.52,3.75.42,7.49.97,11.21,1.65.41.08.79-.33.81-.71.03-.45-.3-.74-.71-.81Z"/>
            <path class="cls-175" d="m120.86,358.38c-2.4-2.42-5.12-4.51-8.09-6.19-.85-.48-1.69.79-.83,1.28,2.85,1.62,5.48,3.61,7.79,5.94.69.69,1.83-.32,1.13-1.02Z"/>
            <path class="cls-50" d="m129.76,345.42c-2.49-2.36-4.84-4.87-7.03-7.51-.62-.76-1.76.26-1.13,1.02,2.19,2.65,4.53,5.15,7.03,7.51.71.67,1.85-.34,1.14-1.02Z"/>
            <path class="cls-9" d="m137.75,330.2c-.49-.85-1.85-.17-1.36.68,1.8,3.14,3.48,6.34,5.04,9.61.42.88,1.79.2,1.36-.68-1.56-3.26-3.24-6.47-5.04-9.61Z"/>
            <path class="cls-31" d="m152.47,321.33c-.02-.31-.21-.62-.5-.73-.6-.41-1.59.19-1.14.92,1.68,2.73,3.03,5.66,3.98,8.72.12.39.46.69.89.6.37-.07.72-.5.6-.9-.94-3.02-2.22-5.9-3.83-8.62Z"/>
            <path class="cls-135" d="m166.48,316.82c.7,2.7,1.29,5.42,1.78,8.17.17.97,1.67.67,1.5-.29-.49-2.74-1.08-5.47-1.77-8.17-.24-.95-1.74-.66-1.5.29Z"/>
            <path class="cls-161" d="m185.33,315.27c-.44-.03-.75.3-.81.71-.48,3.03-1.21,6.01-2.15,8.92-.3.93,1.14,1.42,1.45.48.99-3.04,1.73-6.15,2.23-9.3.06-.41-.33-.79-.71-.81Z"/>
            <path class="cls-47" d="m200.48,320.97c-.37-.03-.83.3-.81.71.08,1.62-.81,3.02-1.75,4.27-1.05,1.41-2.22,2.79-2.68,4.53-.25.95,1.19,1.43,1.45.48.46-1.73,1.71-3.05,2.73-4.47.99-1.36,1.86-2.97,1.77-4.71-.02-.41-.27-.78-.71-.81Z"/>
            <path class="cls-150" d="m214.38,333.19c-.25-.28-.8-.37-1.08-.06-1.4,1.61-2.86,3.17-4.37,4.67-.29.29-.34.76-.06,1.08.26.3.78.35,1.08.06,1.51-1.51,2.97-3.06,4.37-4.67.27-.31.36-.74.06-1.08Z"/>
            <path class="cls-168" d="m226.1,344.57c-3.07,1.8-6.31,3.31-9.67,4.46-.39.13-.68.45-.6.89.07.36.51.73.9.6,3.5-1.19,6.87-2.71,10.06-4.59.84-.5.17-1.86-.68-1.36Z"/>
            <path class="cls-11" d="m231.66,358.11c-1.94.79-3.95,1.39-6,1.8-.96.19-.67,1.69.29,1.5,2.19-.44,4.33-1.09,6.39-1.93.38-.16.51-.67.34-1.02-.2-.39-.64-.5-1.02-.34Z"/>
            <path class="cls-184" d="m233.69,374.5c-.59.5-1.32.7-2.07.85-.8.16-1.62.28-2.43.41-1.66.28-3.31.55-4.96.83-.97.16-.67,1.66.29,1.5,1.78-.3,3.56-.6,5.34-.89,1.67-.28,3.49-.42,4.84-1.56.75-.63-.27-1.77-1.02-1.13Z"/>
            <path class="cls-64" d="m233.43,391.48c-3.24-1.05-6.4-2.36-9.44-3.92-.37-.19-.81-.15-1.06.22-.21.32-.15.87.22,1.05,3.15,1.62,6.42,3,9.79,4.09.93.3,1.42-1.14.48-1.45Z"/>
            <path class="cls-155" d="m228.48,406.28c-2.52-1.19-4.97-2.54-7.33-4.03-.83-.52-1.67.75-.83,1.28,2.47,1.56,5.04,2.95,7.68,4.2.37.17.84-.12.96-.48.14-.43-.11-.79-.48-.97Z"/>
            <path class="cls-52" d="m219.95,420.18c-1.71-1.68-3.42-3.36-5.14-5.04-.29-.29-.76-.35-1.08-.06-.29.26-.35.79-.06,1.08,1.71,1.68,3.42,3.36,5.14,5.04.29.29.76.34,1.08.06.29-.26.35-.79.06-1.08Z"/>
            <path class="cls-39" d="m202.57,425.75c-.49-.84-1.86-.17-1.36.68,1.57,2.7,3.02,5.46,4.37,8.28.42.89,1.79.21,1.36-.68-1.35-2.82-2.8-5.58-4.37-8.28Z"/>
          </g>
        </g>
      </g>
    </g>
    <g>
      <path class="cls-125" d="m189.19,326.82c-14.81-5.52-30.58-.5-43.85,6.72-14.24,7.75-24.97,18.56-30.11,34.17-2.35,7.13-3.63,14.57-1.35,21.86,2.4,7.65,7.2,18.31,11.89,24.74,10.14,13.91,25.7,23.15,43.93,22.79,11.64-.23,26.24-5.16,35.4-13.9,18.27-14.45,25.1-41.71,17.63-63.9-5.19-15.41-18.47-26.87-33.54-32.48Zm22.55,37.19c5.88,17.45.51,38.88-13.86,50.25-7.2,6.87-18.68,10.75-27.84,10.93-14.34.28-26.57-6.99-34.54-17.92-3.69-5.06-7.46-13.44-9.35-19.46-1.8-5.73-.79-11.59,1.06-17.19,4.04-12.27,12.48-20.78,23.68-26.87,10.43-5.68,22.84-9.62,34.48-5.28,11.85,4.42,22.29,13.43,26.37,25.54Z"/>
      <g class="cls-21">
        <g class="cls-137">
          <g>
            <path class="cls-79" d="m182.78,422.9c.94,3,1.37,6.13,1.27,9.28-.03.8,1.21.88,1.24.08.11-3.25-.32-6.5-1.29-9.6-.24-.75-1.46-.52-1.22.24Z"/>
            <path class="cls-62" d="m170.7,424.61c-.36-.02-.6.25-.66.58-.53,3.05-1.05,6.09-1.57,9.14-.06.33.27.64.58.66.36.02.6-.25.66-.58.52-3.05,1.05-6.09,1.57-9.14.06-.33-.27-.64-.58-.66Z"/>
            <path class="cls-171" d="m160.43,421.3c-.26-.17-.71-.12-.86.18-1.51,2.98-3.03,5.97-4.54,8.95-.15.3-.12.66.18.86.26.17.71.12.86-.18,1.51-2.98,3.03-5.97,4.54-8.95.15-.3.12-.66-.18-.86Z"/>
            <path class="cls-59" d="m147.65,418.2c-2.35,2.09-4.71,4.18-7.06,6.27-.6.53.23,1.46.83.92,2.35-2.09,4.71-4.18,7.06-6.27.6-.53-.23-1.46-.83-.92Z"/>
            <path class="cls-119" d="m138.1,409.11l-9.5,4.23c-.73.32-.18,1.43.55,1.11l9.5-4.23c.73-.33.17-1.43-.55-1.11Z"/>
            <path class="cls-160" d="m129.29,398.43c-2.44,1.2-4.95,2.26-7.51,3.17-.32.11-.41.56-.28.83.16.33.51.39.83.28,2.56-.91,5.07-1.97,7.51-3.17.72-.35.16-1.46-.55-1.11Z"/>
            <path class="cls-177" d="m125.51,384.34c-3.08.43-6.18.71-9.29.82-.79.03-.88,1.27-.08,1.24,3.22-.11,6.42-.39,9.61-.84.79-.11.55-1.33-.24-1.22Z"/>
            <path class="cls-128" d="m126.29,371.6c-3.02-.56-6.06-1.01-9.12-1.34-.8-.09-.87,1.15-.08,1.24,3.06.34,6.1.79,9.12,1.34.33.06.64-.27.66-.58.02-.37-.25-.6-.58-.66Z"/>
            <path class="cls-115" d="m130.26,362.66c-1.96-1.97-4.17-3.67-6.58-5.04-.69-.39-1.38.64-.68,1.04,2.32,1.32,4.46,2.94,6.34,4.83.56.56,1.49-.26.92-.83Z"/>
            <path class="cls-165" d="m137.5,352.11c-2.03-1.92-3.94-3.96-5.72-6.11-.51-.61-1.43.21-.92.83,1.78,2.15,3.69,4.19,5.72,6.11.57.54,1.51-.28.92-.83Z"/>
            <path class="cls-131" d="m144,339.73c-.4-.69-1.51-.14-1.11.55,1.47,2.55,2.84,5.16,4.11,7.82.34.72,1.45.17,1.11-.55-1.27-2.66-2.64-5.26-4.1-7.82Z"/>
            <path class="cls-108" d="m155.98,332.51c-.01-.25-.17-.5-.41-.59-.48-.34-1.29.16-.92.75,1.36,2.22,2.46,4.6,3.24,7.09.1.32.38.56.73.49.3-.06.59-.41.49-.73-.76-2.46-1.81-4.8-3.12-7.01Z"/>
            <path class="cls-17" d="m167.38,328.84c.57,2.2,1.05,4.41,1.44,6.65.14.79,1.36.55,1.22-.24-.4-2.23-.88-4.45-1.44-6.65-.2-.77-1.42-.53-1.22.24Z"/>
            <path class="cls-156" d="m182.72,327.58c-.36-.02-.61.25-.66.58-.39,2.46-.98,4.89-1.75,7.26-.25.76.93,1.15,1.18.39.8-2.47,1.41-5,1.81-7.57.05-.33-.26-.64-.58-.66Z"/>
            <path class="cls-163" d="m195.04,332.21c-.3-.02-.68.24-.66.58.06,1.32-.66,2.45-1.42,3.47-.86,1.15-1.81,2.27-2.18,3.68-.21.77.97,1.17,1.18.39.38-1.41,1.39-2.49,2.22-3.64.8-1.11,1.51-2.42,1.44-3.83-.02-.33-.22-.64-.58-.66Z"/>
            <path class="cls-154" d="m206.35,342.16c-.2-.23-.65-.3-.88-.05-1.14,1.31-2.33,2.58-3.56,3.8-.24.24-.28.62-.05.88.22.24.64.28.88.05,1.23-1.22,2.42-2.49,3.56-3.8.22-.25.29-.6.05-.88Z"/>
            <path class="cls-65" d="m215.9,351.42c-2.49,1.47-5.13,2.7-7.87,3.63-.32.11-.56.37-.49.73.05.3.41.6.73.49,2.85-.97,5.59-2.21,8.19-3.74.68-.4.14-1.52-.55-1.11Z"/>
            <path class="cls-117" d="m220.42,362.44c-1.58.64-3.21,1.13-4.89,1.46-.78.16-.54,1.37.24,1.22,1.78-.36,3.52-.89,5.2-1.57.31-.13.42-.55.28-.83-.16-.32-.52-.4-.83-.28Z"/>
            <path class="cls-181" d="m222.07,375.77c-.48.41-1.08.57-1.68.69-.65.13-1.32.23-1.98.34-1.35.23-2.69.45-4.04.67-.79.13-.55,1.35.24,1.22,1.45-.24,2.9-.48,4.35-.73,1.36-.23,2.84-.35,3.94-1.27.61-.51-.22-1.44-.83-.92Z"/>
            <path class="cls-151" d="m221.86,389.59c-2.64-.86-5.21-1.92-7.68-3.19-.3-.15-.66-.12-.86.18-.17.26-.12.7.18.86,2.56,1.32,5.22,2.44,7.96,3.33.76.25,1.15-.93.39-1.18Z"/>
            <path class="cls-83" d="m217.83,401.63c-2.05-.97-4.04-2.07-5.96-3.28-.67-.43-1.36.61-.68,1.04,2.01,1.27,4.1,2.4,6.25,3.42.3.14.69-.1.78-.39.12-.35-.09-.64-.39-.78Z"/>
            <path class="cls-71" d="m210.88,412.95c-1.39-1.37-2.78-2.74-4.18-4.1-.24-.23-.62-.28-.88-.05-.24.21-.29.64-.05.88,1.39,1.37,2.79,2.74,4.18,4.1.24.23.62.28.88.05.24-.21.29-.64.05-.88Z"/>
            <path class="cls-18" d="m196.74,417.48c-.4-.69-1.51-.14-1.11.55,1.28,2.2,2.46,4.44,3.56,6.74.34.72,1.45.17,1.11-.55-1.09-2.29-2.28-4.54-3.56-6.74Z"/>
          </g>
        </g>
      </g>
    </g>
    <g>
      <path class="cls-63" d="m185.37,338.47c-11.65-4.34-24.05-.4-34.48,5.28-11.2,6.09-19.64,14.6-23.68,26.87-1.85,5.6-2.86,11.46-1.06,17.19,1.89,6.02,5.66,14.4,9.35,19.46,7.97,10.93,20.21,18.2,34.54,17.92,9.15-.18,20.64-4.06,27.84-10.93,14.37-11.36,19.74-32.79,13.86-50.25-4.08-12.12-14.52-21.13-26.37-25.54Zm17.73,29.25c4.62,13.72.4,30.57-10.9,39.51-5.66,5.4-14.69,8.45-21.89,8.59-11.27.22-20.89-5.49-27.16-14.09-2.9-3.98-5.87-10.57-7.35-15.3-1.41-4.51-.62-9.11.83-13.52,3.18-9.65,9.82-16.34,18.62-21.13,8.2-4.47,17.96-7.57,27.11-4.15,9.32,3.47,17.53,10.56,20.74,20.08Z"/>
      <g class="cls-21">
        <g class="cls-87">
          <g>
            <path class="cls-178" d="m180.33,414.02c.74,2.36,1.08,4.82,1,7.29-.02.63.95.69.97.06.09-2.55-.25-5.11-1.01-7.55-.19-.59-1.14-.41-.96.19Z"/>
            <path class="cls-127" d="m170.83,415.37c-.29-.02-.47.19-.52.45-.41,2.4-.82,4.79-1.24,7.19-.04.26.21.5.45.52.29.02.47-.19.52-.45.41-2.4.82-4.79,1.24-7.19.04-.26-.21-.5-.45-.52Z"/>
            <path class="cls-145" d="m162.76,412.76c-.2-.13-.56-.09-.68.14-1.19,2.35-2.38,4.69-3.57,7.04-.12.24-.09.52.14.68.2.13.56.09.68-.14,1.19-2.35,2.38-4.69,3.57-7.04.12-.24.09-.52-.14-.68Z"/>
            <path class="cls-169" d="m152.71,410.32c-1.85,1.64-3.7,3.29-5.55,4.93-.47.42.18,1.14.65.73,1.85-1.64,3.7-3.29,5.55-4.93.47-.42-.18-1.14-.65-.72Z"/>
            <path class="cls-23" d="m145.19,403.17l-7.47,3.32c-.57.25-.14,1.13.44.87l7.47-3.32c.57-.26.14-1.13-.44-.87Z"/>
            <path class="cls-55" d="m138.27,394.78c-1.92.94-3.89,1.78-5.91,2.49-.25.09-.33.44-.22.65.13.26.41.31.65.22,2.02-.72,3.99-1.55,5.91-2.49.56-.28.13-1.15-.44-.87Z"/>
            <path class="cls-89" d="m135.3,383.7c-2.42.34-4.86.56-7.3.64-.62.02-.69,1-.06.97,2.53-.09,5.05-.31,7.56-.66.62-.09.43-1.04-.19-.96Z"/>
            <path class="cls-12" d="m135.91,373.68c-2.38-.44-4.77-.79-7.17-1.06-.63-.07-.69.9-.06.97,2.4.27,4.79.62,7.17,1.06.26.05.5-.21.52-.45.02-.29-.19-.47-.45-.52Z"/>
            <path class="cls-7" d="m139.03,366.65c-1.54-1.55-3.28-2.89-5.18-3.96-.54-.31-1.08.51-.53.82,1.83,1.04,3.5,2.31,4.98,3.8.44.44,1.17-.21.73-.65Z"/>
            <path class="cls-37" d="m144.72,358.36c-1.6-1.51-3.1-3.11-4.5-4.81-.4-.48-1.13.17-.73.65,1.4,1.69,2.9,3.3,4.5,4.81.45.43,1.18-.22.73-.65Z"/>
            <path class="cls-68" d="m149.84,348.62c-.31-.54-1.19-.11-.87.43,1.15,2.01,2.23,4.06,3.23,6.15.27.57,1.14.13.87-.43-1-2.09-2.08-4.14-3.23-6.15Z"/>
            <path class="cls-90" d="m159.26,342.95c0-.2-.13-.4-.32-.47-.38-.26-1.02.12-.73.59,1.07,1.75,1.94,3.62,2.55,5.58.08.25.29.44.57.38.24-.05.46-.32.38-.57-.6-1.93-1.42-3.78-2.45-5.51Z"/>
            <path class="cls-13" d="m168.22,340.06c.45,1.73.82,3.47,1.14,5.23.11.62,1.07.43.96-.19-.31-1.76-.69-3.5-1.14-5.23-.16-.61-1.11-.42-.96.19Z"/>
            <path class="cls-33" d="m180.28,339.07c-.28-.02-.48.19-.52.45-.31,1.94-.77,3.84-1.38,5.71-.19.6.73.91.93.31.63-1.94,1.1-3.93,1.43-5.95.04-.26-.21-.5-.45-.52Z"/>
            <path class="cls-173" d="m189.97,342.71c-.24-.02-.53.19-.52.45.05,1.04-.52,1.93-1.12,2.73-.67.9-1.42,1.78-1.72,2.9-.16.6.76.92.93.31.3-1.11,1.09-1.95,1.75-2.86.63-.87,1.19-1.9,1.13-3.01-.01-.26-.17-.5-.45-.52Z"/>
            <path class="cls-124" d="m198.87,350.53c-.16-.18-.52-.24-.69-.04-.9,1.03-1.83,2.03-2.8,2.99-.19.19-.22.49-.04.69.17.19.5.22.69.04.97-.96,1.9-1.96,2.8-2.99.17-.2.23-.48.04-.69Z"/>
            <path class="cls-81" d="m206.37,357.81c-1.96,1.15-4.03,2.12-6.19,2.85-.25.09-.44.29-.38.57.04.23.32.47.57.38,2.24-.76,4.4-1.73,6.44-2.94.54-.32.11-1.19-.44-.87Z"/>
            <path class="cls-78" d="m209.92,366.48c-1.24.51-2.53.89-3.84,1.15-.62.12-.43,1.08.19.96,1.4-.28,2.77-.7,4.09-1.23.24-.1.33-.43.22-.65-.13-.25-.41-.32-.65-.22Z"/>
            <path class="cls-26" d="m211.22,376.96c-.38.32-.85.45-1.32.54-.51.1-1.04.18-1.55.26-1.06.18-2.12.35-3.18.53-.62.1-.43,1.06.19.96,1.14-.19,2.28-.38,3.42-.57,1.07-.18,2.23-.27,3.1-1,.48-.4-.17-1.13-.65-.73Z"/>
            <path class="cls-40" d="m211.06,387.83c-2.08-.67-4.1-1.51-6.04-2.51-.23-.12-.52-.1-.68.14-.13.2-.09.55.14.68,2.02,1.04,4.11,1.92,6.26,2.62.6.19.91-.73.31-.93Z"/>
            <path class="cls-118" d="m207.89,397.3c-1.61-.76-3.18-1.63-4.69-2.58-.53-.33-1.07.48-.53.82,1.58,1,3.22,1.89,4.91,2.69.24.11.54-.08.62-.31.09-.27-.07-.51-.31-.62Z"/>
            <path class="cls-29" d="m202.43,406.19c-1.1-1.08-2.19-2.15-3.29-3.23-.19-.19-.48-.22-.69-.04-.19.17-.23.5-.04.69,1.09,1.08,2.19,2.15,3.29,3.23.19.19.48.22.69.04.19-.17.23-.5.04-.69Z"/>
            <path class="cls-182" d="m191.31,409.76c-.31-.54-1.19-.11-.87.44,1,1.73,1.93,3.49,2.8,5.3.27.57,1.14.13.87-.44-.86-1.8-1.79-3.57-2.8-5.3Z"/>
          </g>
        </g>
      </g>
    </g>
    <path class="cls-148" d="m182.36,347.63c-9.16-3.41-18.91-.31-27.11,4.15-8.8,4.79-15.44,11.48-18.62,21.13-1.45,4.41-2.25,9.01-.83,13.52,1.48,4.73,4.45,11.32,7.35,15.3,6.27,8.6,15.89,14.31,27.16,14.09,7.2-.14,16.23-3.19,21.89-8.59,11.3-8.93,15.52-25.79,10.9-39.51-3.21-9.53-11.42-16.61-20.74-20.08Z"/>
    <path class="cls-24" d="m177.07,363.78c-4.77-1.78-9.85-.16-14.12,2.16-4.59,2.49-8.04,5.98-9.7,11.01-.76,2.29-1.17,4.69-.43,7.04.77,2.47,2.32,5.9,3.83,7.97,3.27,4.48,8.28,7.45,14.15,7.34,3.75-.07,8.45-1.66,11.4-4.48,5.89-4.65,8.09-13.43,5.68-20.58-1.67-4.96-5.95-8.65-10.8-10.46Z"/>
  </g>
  <g>
    <path class="cls-96" d="m402.04,346c-18.93-20.28-47.63-24.76-74.13-23.82-28.43,1.01-53.76,9.58-74.07,30.06-9.27,9.35-17.13,20.03-19.25,33.27-2.23,13.9-3.04,34.4-.72,48.17,5.03,29.78,22.21,56.49,51.12,70.21,18.46,8.77,45.26,12.46,66.49,5.92,40.02-8.37,72.11-45.82,77.76-86.53,3.92-28.27-7.95-56.66-27.21-77.29Zm16.36,76.66c-5.03,36.21-33.57,69.51-69.16,76.96-18.88,5.82-42.71,2.53-59.13-5.26-25.71-12.21-40.99-35.96-45.46-62.45-2.07-12.25-1.34-30.48.64-42.84,1.89-11.77,8.88-21.27,17.12-29.59,18.06-18.22,40.59-25.84,65.87-26.74,23.57-.83,49.09,3.15,65.92,21.19,17.12,18.35,27.68,43.6,24.19,68.74Z"/>
    <path class="cls-58" d="m401.83,340.07c-18.93-20.28-47.63-24.76-74.13-23.82-28.43,1.01-53.76,9.58-74.07,30.06-9.27,9.35-17.13,20.03-19.25,33.27-2.23,13.9-3.04,34.4-.72,48.17,5.03,29.78,22.21,56.49,51.12,70.21,18.46,8.77,45.26,12.46,66.49,5.92,40.02-8.37,72.11-45.82,77.76-86.53,3.92-28.27-7.95-56.66-27.21-77.29Zm16.36,76.66c-5.03,36.21-33.56,69.51-69.16,76.95-18.88,5.82-42.71,2.53-59.13-5.26-25.71-12.21-40.99-35.96-45.47-62.45-2.07-12.25-1.34-30.48.64-42.84,1.89-11.77,8.88-21.27,17.12-29.59,18.06-18.22,40.59-25.84,65.87-26.74,23.57-.83,49.09,3.15,65.93,21.18,17.12,18.35,27.68,43.6,24.19,68.74Z"/>
  </g>
</svg>