<?xml version="1.0" encoding="UTF-8"?>
<svg xmlns="http://www.w3.org/2000/svg" viewBox="0 0 540 540">
  <defs>
    <style>
      .cls-1 {
        fill: #7b9d3f;
      }

      .cls-2 {
        fill: #ea961b;
        opacity: .43;
      }

      .cls-3 {
        fill: #faac18;
      }

      .cls-4 {
        isolation: isolate;
      }

      .cls-5 {
        fill: #c9c9c9;
        mix-blend-mode: overlay;
        opacity: .53;
      }

      .cls-6 {
        fill: #686868;
        mix-blend-mode: soft-light;
      }

      .cls-7 {
        fill: #f2a325;
      }

      .cls-8 {
        fill: none;
      }
    </style>
  </defs>
  <g class="cls-4">
    <g id="_Layer_" data-name="&amp;lt;Layer&amp;gt;">
      <g>
        <path class="cls-7" d="m306.38,146.83c-5.69-3.91-23.94-15.39-49.32-13.87-31.16,1.86-50.1,21.95-53.94,26.2-8.58-3.45-21.05-6.81-33.91-3.08-49.93,14.5-73.62,124.55-47.78,209.6,24.12,79.37,89.75,131.6,112.21,124.54,2.76-.87,11.66-4.76,24.29-4.58,11.26.16,17.41,3.44,24.42,4.83,9.72,1.92,24.48.85,45.59-13.82,10.32.73,24.29.14,38.53-6.16,71.22-31.54,63.04-167.89,61.65-191.11-1.76-29.36-6.24-104.03-46.24-118.67-9.21-3.37-18.14-2.77-24.66-1.54-1.16-2.84-5.33-12.02-15.41-16.95-11.04-5.4-24.79-3.55-35.45,4.62Z"/>
        <path class="cls-1" d="m254.25,200.37c3.53-11.25,20.93-70.02-10.03-103.89-2.8-3.07-6.12-6.06-10.07-8.83-3.5-2.02-10.66-6.17-17.94-4.2-6.04,1.63-7.92,6.33-11.45,5.34-.82-.23-2.97-1.11-4.96-7.25-1.17-3.61-6.02-18.57,1.53-27.1,7.97-9,24.48-4.86,30.15-3.43,25.66,6.44,40.18,29.33,47.56,41.25,25.42,41.07,24.75,85.79,22.53,108.87-1.91,1.57-13.15,10.51-28.49,8.25-9.74-1.43-16.21-6.64-18.83-9.02Z"/>
        <path class="cls-3" d="m284.15,194.52c-16.46.35-20.81-12.02-38.39-16-22.31-5.05-43.17,8.6-49.59,12.8-49.2,32.19-34.1,141.32-30.39,167.97,5.48,39.39,19.46,77.99,98.86,126.85,6.17.9,11.57,3.42,17.74,4.32,39.24-33.72,81.35-41.12,100.46-138.09,11.86-60.15,9.78-147.07-25.38-164.93-19.34-9.83-36.4-7.15-36.4-7.15-17.96,2.82-21.43,13.91-36.9,14.24Z"/>
        <path class="cls-7" d="m266.25,472.23c-26.7-84.93-24.38-179.43,6.82-262.84-4.85,21.7-9.02,43.4-11.97,65.26-9.14,65.65-6.38,132.41,5.15,197.58h0Z"/>
        <g>
          <path class="cls-6" d="m207.31,413.7c-49.79-71.18-51.38-170.4-4.62-254.71-8.56-3.39-20.83-6.59-33.47-2.91-49.93,14.5-73.62,124.55-47.78,209.6,24.12,79.37,89.75,131.6,112.21,124.54,2.76-.87,11.66-4.76,24.29-4.58,11.26.16,17.41,3.44,24.42,4.83,5.34,1.05,12.2,1.2,20.79-1.3-30.96-12.95-68.03-35.68-95.85-75.46Z"/>
          <path class="cls-2" d="m207.31,413.7c-49.79-71.18-51.38-170.4-4.62-254.71-8.56-3.39-20.83-6.59-33.47-2.91-49.93,14.5-73.62,124.55-47.78,209.6,24.12,79.37,89.75,131.6,112.21,124.54,2.76-.87,11.66-4.76,24.29-4.58,11.26.16,17.41,3.44,24.42,4.83,5.34,1.05,12.2,1.2,20.79-1.3-30.96-12.95-68.03-35.68-95.85-75.46Z"/>
        </g>
        <path class="cls-8" d="m306.38,146.83c-5.69-3.91-23.94-15.39-49.32-13.87-31.16,1.86-50.1,21.95-53.94,26.2-8.58-3.45-21.05-6.81-33.91-3.08-49.93,14.5-73.62,124.55-47.78,209.6,24.12,79.37,89.75,131.6,112.21,124.54,2.76-.87,11.66-4.76,24.29-4.58,11.26.16,17.41,3.44,24.42,4.83,9.72,1.92,24.48.85,45.59-13.82,10.32.73,24.29.14,38.53-6.16,71.22-31.54,63.04-167.89,61.65-191.11-1.76-29.36-6.24-104.03-46.24-118.67-9.21-3.37-18.14-2.77-24.66-1.54-1.16-2.84-5.33-12.02-15.41-16.95-11.04-5.4-24.79-3.55-35.45,4.62Z"/>
        <path class="cls-5" d="m335.76,190.83c-14.65-3.83-34.3.13-38.29,10.3-2.58,6.59,2.74,12.35,16.92,33.46,26.42,39.33,30.71,53.18,41.72,52.92,10.28-.24,17.38-12.56,18.32-14.25,14.4-25.77-6.88-74.12-38.67-82.43Z"/>
        <path class="cls-5" d="m394.82,179.64c-6.8-1.34-14,5.43-14.25,12.21-.31,8.61,10.65,15.94,17.3,13.23,4.61-1.87,6.57-8.33,6.11-13.23-.45-4.78-3.48-11.09-9.16-12.21Z"/>
        <path class="cls-5" d="m201.01,198.98c-6.63-1.29-12.66,4.77-15.27,9.16-4.52,7.62-4.25,19.55,2.04,23.41,7,4.3,20.65-1.89,23.41-12.21,2.17-8.15-2.46-18.86-10.18-20.35Z"/>
      </g>
    </g>
  </g>
</svg>