<?xml version="1.0" encoding="UTF-8"?>
<svg id="_Layer_" data-name="&amp;lt;Layer&amp;gt;" xmlns="http://www.w3.org/2000/svg" viewBox="0 0 540 540">
  <defs>
    <style>
      .cls-1 {
        fill: #69c646;
      }

      .cls-2 {
        fill: #1a991a;
      }

      .cls-3 {
        fill: #a2dd8a;
      }

      .cls-4 {
        fill: #37aa37;
      }

      .cls-5 {
        fill: #258241;
      }

      .cls-6 {
        fill: #89db67;
      }

      .cls-7 {
        fill: #31af31;
      }

      .cls-8 {
        fill: #31a331;
      }

      .cls-9 {
        fill: #2c752c;
      }

      .cls-10 {
        fill: #3dc13d;
      }

      .cls-11 {
        fill: #32b232;
      }
    </style>
  </defs>
  <path class="cls-2" d="m448.44,130.02c13.89-16.13,31.67-27.23,52.33-32.4,3.82-.95,2.49-6.92-1.32-5.96-21.67,5.42-40.58,16.94-55.16,33.88-2.54,2.94,1.59,7.46,4.15,4.48h0Z"/>
  <path class="cls-2" d="m441.86,127.29c28.33-23.46,17.7-54.15-.51-57.84-14.45-2.97-24.14,7.52-20.37,15.42,1.9,4.89,11.87,1.81,9.73-9.2-2.42-11.82-13.65-21.83-26.34-22.94-19.36-1.95-35.54,15.34-45.41,20.74-23.35,13.25-40.32-8.13-30.01-21.61,3.06-3.65,7.37-5.11,12.15-4.95,16.63.98,27.67,21.89,15.05,36.15-15.72,18.05-47.72,7.41-58.35,25.18-4.15,6.67-4.37,16.13.26,23.31l-.64.5c-8.8-9.77-10.7-33.48,19.08-41.37,9.61-2.56,31.61-4.81,35.81-17.38,2.59-7.34-2.86-16.99-11.62-17.91-12.86-.95-7.4,22.87,15.3,12.26,9.93-4.63,27.47-20.41,48.68-17.66,22.96,3.02,36.75,28.76,26.44,39.01-4.59,4.7-11.89,4.15-15.15-1.28-5.79-9.39,1.25-25.36,19.67-26.08,12.28-.29,23.37,7.13,27.62,20.28,5.91,17.86-3.85,36.55-20.93,46.05l-.46-.67Z"/>
  <path class="cls-9" d="m229.53,269.51c82.57-76.51,181.8-110.31,213.42-139.61-33.01,31.94-71.81,126.81-154.38,203.33l6.53-6.05c-82.57,76.51-149.11,78.54-195.87,121.87,47.22-43.76,54.27-109.07,136.84-185.59l-6.53,6.05Z"/>
  <g>
    <path class="cls-5" d="m227.29,268.67s6.53-6.05,6.53-6.05l-6.53,6.05Z"/>
    <path class="cls-5" d="m152.18,413.4c22.23-37.66,43.13-83.41,96.83-134.2-1.11,1.01-2.23,2-3.34,3.02l6.53-6.05c-1.09,1.01-2.12,2.02-3.19,3.03,53.56-48.64,113.57-79.73,157.42-103.5,12.8-20.13,23.83-36.54,34.27-46.65-31.2,28.91-128.19,62.22-210.08,136.59-79.52,75.21-87.05,139.38-133.65,182.56,16.11-14.92,34.56-24.95,55.2-34.8Z"/>
  </g>
  <g>
    <circle class="cls-1" cx="355.62" cy="200.29" r="23.64" transform="translate(25.14 439.79) rotate(-65.32)"/>
    <path class="cls-11" d="m374.28,185.75c-4.19,19.05-28.73,25.27-41.35,9.86-4.95,22.52,22.17,38.17,39.14,22.44,9.22-8.54,10.06-22.7,2.21-32.29Z"/>
    <path class="cls-8" d="m377.56,209.06c-18.11,18.47-48.29-1.5-38.8-25.29-8.78,8.95-9.08,23.3-.47,32.59,8.87,9.58,23.83,10.15,33.41,1.27,2.66-2.47,4.6-5.41,5.86-8.57Z"/>
  </g>
  <g>
    <circle class="cls-1" cx="328.34" cy="252.78" r="29.58" transform="translate(63.25 571.27) rotate(-87.82)"/>
    <path class="cls-11" d="m351.69,234.59c-5.26,23.9-35.98,31.57-51.74,12.33-6.2,28.18,27.74,47.75,48.98,28.07,11.53-10.69,12.59-28.41,2.76-40.41Z"/>
    <path class="cls-8" d="m355.79,263.75c-22.66,23.11-60.42-1.88-48.55-31.64-10.98,11.2-11.37,29.15-.59,40.78,14.72,15.88,41.07,11.08,49.14-9.14Z"/>
  </g>
  <g>
    <circle class="cls-10" cx="185.49" cy="372.12" r="24.83" transform="translate(-203.5 225.25) rotate(-42.82)"/>
    <path class="cls-11" d="m205.08,356.85c-4.39,19.98-30.14,26.57-43.43,10.35-5.2,23.65,23.28,40.08,41.11,23.56,9.68-8.97,10.57-23.84,2.32-33.92Z"/>
    <path class="cls-8" d="m208.52,381.33c-18.9,19.27-50.81-1.33-40.75-26.56-9.22,9.4-9.54,24.47-.5,34.23,12.35,13.33,34.48,9.3,41.25-7.67Z"/>
  </g>
  <g>
    <circle class="cls-1" cx="261.67" cy="276.33" r="29.58" transform="translate(-102.22 164.91) rotate(-29.54)"/>
    <path class="cls-11" d="m285.02,258.13c-5.26,23.9-35.98,31.57-51.74,12.33-6.2,28.18,27.74,47.75,48.98,28.07,11.53-10.69,12.59-28.41,2.76-40.41Z"/>
    <path class="cls-8" d="m289.12,287.3c-22.52,22.96-60.54-1.59-48.55-31.64-10.98,11.2-11.37,29.15-.59,40.78,14.72,15.88,41.07,11.08,49.14-9.14Z"/>
  </g>
  <g>
    <ellipse class="cls-1" cx="246.29" cy="345.78" rx="29.56" ry="27.6" transform="translate(-169.39 259.54) rotate(-42.82)"/>
    <path class="cls-11" d="m269.5,327.48c-5.88,23.21-35.9,31.61-50.53,13.59-6.94,27.38,25.3,45.1,46.52,25.44,11.52-10.68,13.14-27.79,4.01-39.03Z"/>
    <path class="cls-8" d="m272.51,355.45c-22.57,22.88-58.59.46-45.98-28.89-11.01,11.16-11.97,28.46-1.92,39.31,13.72,14.81,39.41,9.34,47.9-10.43Z"/>
  </g>
  <g>
    <path class="cls-2" d="m208.35,251.8l6.32-5.86-6.32,5.86Z"/>
    <path class="cls-2" d="m211.57,248.88c-78.08,74.9-104.36,191.57-119.13,205.26l.84-.43c12.47-11.56,137.22-30.24,218.03-102.39,77.32-74.37,112.88-206.63,142.43-234.01-31.51,29.2-161.78,59.65-242.16,131.58Zm79.67,78.35l-6.32,5.86c1.07-.99,2.09-1.98,3.14-2.98-79.06,71.77-140.97,72.98-185.64,114.37,45.1-41.8,50.99-102.61,128.56-175.96-1.07.97-2.13,1.91-3.2,2.9l6.32-5.86c-1.06.98-2.07,1.97-3.12,2.96,78.73-71.49,173.86-104.89,204.05-132.87-31.52,30.5-69.77,121.43-146.98,194.46,1.06-.96,2.13-1.9,3.18-2.88Z"/>
    <path class="cls-2" d="m314.54,348.37s-6.32,5.86-6.32,5.86l6.32-5.86Z"/>
  </g>
  <path class="cls-1" d="m308.44,246.79c-1.45,10.06,5.54,20,15.46,22.11,3.81.81,5.63-5.02,1.77-5.85-7.48-1.59-12.22-8.48-11.13-16.03.56-3.89-5.55-4.09-6.1-.23h0Z"/>
  <path class="cls-1" d="m364.75,202.59c-1.24,1.44-2.75,2.41-4.7,2.45-4.29.09-4.03,6.19-.23,6.1,6.52-.14,12.17-5.25,9.25-8.39-1.02-1.1-3.24-1.43-4.32-.16h0Z"/>
  <path class="cls-1" d="m278.21,288.35c-5.26,3.62-11.45,4.81-17.63,3.05-3.77-1.08-5.57,4.76-1.77,5.85,7.57,2.17,15.7,1.02,22.22-3.47,3.2-2.2.42-7.65-2.81-5.42h0Z"/>
  <path class="cls-1" d="m230.92,340.21c-3.52,6.89-1.44,15.35,5.11,19.6,3.29,2.14,6.52-3.05,3.22-5.19-3.59-2.33-5.11-7.3-3.13-11.19,1.77-3.47-3.4-6.73-5.19-3.22h0Z"/>
  <path class="cls-1" d="m177.36,359.8c-8.14,3.63-8.61,14.86-1.15,19.47,3.34,2.06,6.57-3.12,3.22-5.19-3.7-2.28-3.09-7.15.74-8.86,3.6-1.61.76-7.02-2.81-5.42h0Z"/>
  <g>
    <path class="cls-7" d="m299.64,334.73s-6.32,5.86-6.32,5.86l6.32-5.86Z"/>
    <path class="cls-7" d="m114.53,434.75c-3.21,2.49-2.06.71,1.27-3.11,17.42-42.72,46.81-120.24,104.17-175.26-1.08.96-2.15,1.93-3.22,2.92l6.32-5.86c-1.04.96-2.07,1.95-3.1,2.94,77.43-69.28,183.04-90.34,217.77-122.51-3.26,3.16-6.6,6.99-10.04,11.35,4.32-1.99,8.37-3.92,12.09-5.82,5.88-10.69,11.37-18.99,16.66-23.89-31.51,29.2-161.78,59.65-242.16,131.58-78.08,74.9-104.36,191.57-119.13,205.26l.84-.43c1.99-1.84,6.86-3.87,13.93-6.27,1.44-3.26,2.97-6.89,4.62-10.9Z"/>
    <path class="cls-7" d="m211.06,250.01s6.32-5.86,6.32-5.86l-6.32,5.86Z"/>
  </g>
  <path class="cls-4" d="m445.97,117.96c1.7-.7,3.52-1.43,5.18-1.13,2.33.42,3.58,2.82,3.56,5.23-.03,6.02-19.16,41.43-2.22,82.12-9.76-6.86-13.16-19.49-16.98-31.02-14.06-42.46-30.4-20-67.6-34.82,16.91,1.4,58.97-12.53,78.06-20.38Z"/>
  <path class="cls-9" d="m429.68,159.66c8.26,14.62,8.91,34.68,22.63,44.32-4.64-11.15-7.63-35.64-22.63-44.32Z"/>
  <path class="cls-9" d="m344.23,308.9c-20.89,35.63-58.08,68.6-96.24,85,39.72-25.04,66.22-48.33,96.24-85Z"/>
  <path class="cls-9" d="m199.72,261.04c-40.49,49.32-42.62,65.01-70.63,112.32,4.31-10.45,11.79-25.03,15.94-34.8,13.07-30.98,33.65-58.91,54.69-77.51Z"/>
  <path class="cls-9" d="m387.82,161.71c-88.3,48.89-141.03,74.59-180.95,124.05-85.69,106.14-86.9,176.7-151.89,198.79-10.16,3.36-20.82,5.16-31.42,4.9v-.61c70.61-4.59,81.63-61.61,124.82-128.23,77.57-118.01,88.67-119.88,239.15-199.44l.29.54Z"/>
  <path class="cls-1" d="m449.48,123.01c1.14,12.25-3.73,23.85-8.39,34.89-1.53,3.62,4.33,5.37,5.85,1.77,5.16-12.24,9.77-24.49,8.51-37.99-.36-3.91-6.32-2.54-5.96,1.32h0Z"/>
  <path class="cls-3" d="m267.92,257.67c-5.58-3.47-13.09-2.67-17.71,2.06-2.73,2.81,1.4,7.3,4.15,4.48,2.75-2.82,6.96-3.45,10.34-1.35,3.33,2.07,6.56-3.11,3.22-5.19h0Z"/>
  <path class="cls-1" d="m356.21,265.21c-29.52,49.29-70.57,90.39-119.9,119.86-3.36,2.01-.57,7.44,2.81,5.42,50.25-30.02,92.21-71.84,122.28-122.07,2.02-3.37-3.17-6.6-5.19-3.22h0Z"/>
  <path class="cls-3" d="m240.84,336.49c3.84-3.9,9.77-4.82,14.52-2,3.37,2,6.61-3.18,3.22-5.19-7-4.15-16.14-3.12-21.89,2.71-2.75,2.79,1.38,7.29,4.15,4.48h0Z"/>
  <g>
    <circle class="cls-1" cx="285.03" cy="425.23" r="27.57"/>
    <path class="cls-11" d="m306.79,408.27c-4.9,22.28-33.53,29.43-48.22,11.49-5.78,26.26,25.85,44.51,45.65,26.17,10.75-9.96,11.74-26.47,2.57-37.66Z"/>
    <path class="cls-8" d="m310.61,435.45c-20.98,21.4-56.42-1.48-45.25-29.49-10.23,10.44-10.59,27.17-.55,38,13.72,14.8,38.28,10.33,45.8-8.51Z"/>
  </g>
  <path class="cls-1" d="m266.28,419.63c-1.36,9.46,5.23,18.83,14.56,20.81,3.82.81,5.63-5.02,1.77-5.85-6.89-1.47-11.23-7.79-10.23-14.73.56-3.89-5.55-4.09-6.1-.23h0Z"/>
  <g>
    <path class="cls-1" d="m280.74,481.74c-1.4,11.53-11.88,19.74-23.41,18.34s-19.74-11.88-18.34-23.41,11.88-19.74,23.41-18.34c11.53,1.4,19.74,11.88,18.34,23.41Z"/>
    <path class="cls-11" d="m264.17,458.61c8.13,15.38-5.02,33.66-22.41,30.46,9.58,18.13,36.99,13.17,39.47-7.27,1.35-11.1-6.22-21.2-17.06-23.19Z"/>
    <path class="cls-8" d="m279.79,472.55c-1.67,22.8-33.57,26.95-40.87,5.13-.81,11.12,7.22,21.04,18.41,22.39,15.28,1.86,27.38-12.85,22.46-27.53Z"/>
  </g>
  <path class="cls-1" d="m245.31,485.16c4.18,6.75,13.01,9.39,20.09,5.54,3.45-1.88.64-7.3-2.81-5.42-4,2.17-9.4,1.04-11.86-2.93-2.06-3.33-7.49-.53-5.42,2.81h0Z"/>
  <g>
    <path class="cls-1" d="m229.79,454.98c-1.13,9.3-9.59,15.93-18.89,14.8-9.3-1.13-15.93-9.59-14.8-18.89,1.13-9.3,9.59-15.93,18.89-14.8,9.3,1.13,15.93,9.59,14.8,18.89Z"/>
    <path class="cls-11" d="m216.42,436.32c6.56,12.42-4.05,27.16-18.08,24.58,7.73,14.64,29.85,10.63,31.85-5.86,1.09-8.96-5.02-17.11-13.77-18.72Z"/>
    <path class="cls-8" d="m229.03,447.57c-1.35,18.4-27.1,21.75-32.99,4.14-.66,8.98,5.83,16.98,14.86,18.07,12.33,1.5,22.09-10.37,18.13-22.22Z"/>
  </g>
  <path class="cls-1" d="m200.68,458.02c3.54,5.72,11,7.99,17.01,4.73,3.45-1.88.64-7.3-2.81-5.42-2.93,1.59-6.96.82-8.78-2.11-2.06-3.33-7.49-.53-5.42,2.81h0Z"/>
  <path class="cls-6" d="m284.86,412.44c8.42,1.03,14.4,8.71,13.89,17.04-.24,3.93,5.86,4.16,6.1.23.72-11.84-8.12-21.96-19.77-23.38-3.91-.48-4.11,5.63-.23,6.1h0Z"/>
</svg>