<?xml version="1.0" encoding="utf-8"?>
<!-- Generator: Adobe Illustrator 27.4.0, SVG Export Plug-In . SVG Version: 6.00 Build 0)  -->
<svg version="1.1" id="_Layer_" xmlns="http://www.w3.org/2000/svg" xmlns:xlink="http://www.w3.org/1999/xlink" x="0px" y="0px"
	 viewBox="0 0 540 540" style="enable-background:new 0 0 540 540;" xml:space="preserve">
<style type="text/css">
	.st0{fill:#FFFFFF;}
	.st1{fill:#D54D67;}
	.st2{fill:#D5042D;}
	.st3{opacity:0.74;fill:none;stroke:#EBA20D;stroke-width:3.4;stroke-miterlimit:10;enable-background:new    ;}
	.st4{fill:#BD0428;}
	.st5{fill:#EBA20D;}
	.st6{fill:#91294D;}
	.st7{fill:#832545;}
	.st8{fill:#A32E57;}
	.st9{fill:#75223D;}
	.st10{enable-background:new    ;}
</style>
<g>
	<polygon class="st0" points="365.7,71.6 365.7,397 393,424.4 393,87.2 	"/>
	<polygon class="st1" points="365.7,71.6 145.4,71.6 152.1,108.5 172.8,87.2 393,87.2 	"/>
	<rect x="172.8" y="87.2" class="st2" width="220.2" height="337.2"/>
	<circle class="st3" cx="284.6" cy="204.1" r="76.8"/>
	<polygon class="st4" points="145.4,71.6 145.4,397 172.8,424.4 172.8,87.2 	"/>
	<circle class="st5" cx="284.6" cy="204.1" r="61.2"/>
</g>
<g>
	<g>
		<path class="st6" d="M154.2,431.2c-3.5-8.5-14.9-7.8-32.8-8.9c-15-0.9-23.6,13.2-20.2,21.7c3.5,8.5,18.2,12.4,32.8,8.9
			C148.7,449.4,157.7,439.7,154.2,431.2L154.2,431.2z"/>
		<path class="st7" d="M137.3,446.4c-14.6,3.5-29.3-0.5-32.8-8.9c-0.7-1.8-0.9-3.6-0.6-5.5c-3.2,3.8-4.3,8-2.7,12
			c3.5,8.5,18.2,12.4,32.8,8.9c11.5-2.8,19.6-9.4,20.8-16.2C151.2,440.9,145,444.5,137.3,446.4L137.3,446.4z"/>
		<path class="st8" d="M119.2,425.1c17.9,1.1,29.3,0.5,32.8,8.9c1.4,3.4,0.8,6.9-1.3,10.2c3.8-4,5.3-8.6,3.6-13
			c-3.5-8.5-14.9-7.8-32.8-8.9c-8.3-0.5-14.7,3.6-18.1,8.8C107,427.3,112.4,424.7,119.2,425.1L119.2,425.1z"/>
	</g>
	<g>
		<path class="st6" d="M294.2,457.8c15.4-1.2,26.7-9.4,25.2-18.2c-1.5-8.8-10.5-14.6-25.9-13.4c-15.4,1.2-31.4,9-29.9,17.8
			C265.1,452.8,278.8,459,294.2,457.8L294.2,457.8z"/>
		<path class="st7" d="M297.5,451.3c-15.4,1.2-29.1-4.9-30.6-13.8c-0.1-0.9-0.2-1.8,0-2.7c-2.5,2.8-3.7,5.9-3.2,9.2
			c1.5,8.8,15.2,15,30.6,13.8c13.8-1.1,24.3-7.7,25.3-15.5C315.2,447,307.1,450.5,297.5,451.3L297.5,451.3z"/>
		<path class="st8" d="M291.3,429c15.4-1.2,24.4,4.6,25.9,13.4c0.4,2.4-0.2,4.8-1.5,7c2.9-2.9,4.3-6.3,3.7-9.8
			c-1.5-8.8-10.5-14.6-25.9-13.4c-12.3,1-25,6.2-28.8,12.7C270,433.7,280.8,429.8,291.3,429z"/>
	</g>
	<g>
		<path class="st6" d="M284,428c2-8.1-5.7-23.2-19.6-24.5c-13.5-1.3-24.9-3.3-27,4.8c-2,8.1,6.7,19.1,19.6,24.5
			C269.8,438.3,281.9,436.1,284,428L284,428z"/>
		<path class="st7" d="M260.2,426.4c-11.9-5-20.3-14.9-19.9-22.7c-1.5,1.2-2.5,2.8-3,4.7c-2,8.1,6.7,19.1,19.6,24.5
			c12.9,5.4,24.9,3.3,27-4.8c0.1-0.6,0.2-1.2,0.3-1.8C279.5,430.2,270.1,430.5,260.2,426.4L260.2,426.4z"/>
		<path class="st8" d="M264.4,403.5c-12.8-1.2-23.7-3.1-26.6,3.6c4.5-3.3,13.8-1.9,24.3-0.9c13.9,1.4,21.6,16.4,19.6,24.5
			c-0.2,0.7-0.4,1.3-0.7,1.9c1.5-1.2,2.5-2.8,3-4.7C286,419.9,278.3,404.9,264.4,403.5L264.4,403.5z"/>
	</g>
	<g>
		<path class="st6" d="M250,428.5c0.2-8.5-14.7-14.3-27.2-19.5c-14.2-5.9-27.7,2.9-27.9,11.4c-0.2,8.5,12,17.3,27.2,19.5
			S249.8,437,250,428.5L250,428.5z"/>
		<path class="st7" d="M225.3,433.4c-15.2-2.2-27.4-10.9-27.2-19.5c0-0.1,0-0.1,0-0.2c-2,1.8-3.2,4.1-3.2,6.6
			c-0.2,8.5,12,17.3,27.2,19.5c15.1,2.2,27.6-2.8,27.9-11.3C245.3,432.9,236,435,225.3,433.4L225.3,433.4z"/>
		<path class="st8" d="M222.8,409c-11.4-4.7-22.4,0-26.4,6.5c5-4.9,14.4-7.8,24.2-3.8c12.5,5.2,27.4,10.9,27.2,19.5
			c0,1.4-0.4,2.7-1,3.9c2-1.8,3.2-4.1,3.3-6.7C250.2,419.9,235.2,414.2,222.8,409L222.8,409z"/>
	</g>
	<g>
		<path class="st6" d="M208.1,430.3c-0.2-9.5-14.4-16.8-31.7-16.4c-17.3,0.4-31.1,8.5-30.8,18s14.4,16.8,31.7,16.4
			C194.5,447.8,208.3,439.8,208.1,430.3L208.1,430.3z"/>
		<path class="st7" d="M181.3,441.6c-17.3,0.4-31.5-6.9-31.7-16.4c0-0.5,0-1,0.1-1.5c-2.2,2.4-3.4,5.2-3.3,8
			c0.2,9.5,14.4,16.8,31.7,16.4c16.3-0.4,29.5-7.6,30.7-16.5C203.7,437.3,193.4,441.3,181.3,441.6L181.3,441.6z"/>
	</g>
	<g>
		<path class="st6" d="M134,485.6c16.1-0.2,28.6-7.7,28-16.9s-14.1-13.5-30.2-13.3c-16.1,0.2-28.6,4.8-28,13.9
			C104.4,478.5,117.9,485.8,134,485.6z"/>
		<path class="st7" d="M137.2,479.1c-16.1,0.2-29.6-7.1-30.2-16.2c0-0.6,0-1.2,0.1-1.8c-2.3,2.5-3.5,5.3-3.3,8.2
			c0.6,9.1,14.1,16.4,30.2,16.2c15-0.2,26.9-6.8,27.9-15.1C157.2,475.5,148,479,137.2,479.1L137.2,479.1z"/>
	</g>
	<g>
		<path class="st6" d="M249.7,465.3c15.3-1,26.3-8.9,24.6-17.7s-14.2-12.5-30.8-14.1c-15.3-1.4-26.3,8.9-24.6,17.7
			C220.6,460,234.4,466.3,249.7,465.3z"/>
		<path class="st7" d="M252.9,458.8c-15.3,1-29.1-5.3-30.8-14.1c-0.2-1-0.2-1.9-0.1-2.9c-2.6,2.8-3.8,6-3.1,9.3
			c1.7,8.8,15.5,15.1,30.8,14.1c13.6-0.9,23.9-7.3,24.7-14.9C270.2,454.9,262.4,458.2,252.9,458.8L252.9,458.8z"/>
		<path class="st8" d="M241.2,436.3c16.6,1.6,29.1,5.3,30.8,14.1c0.5,2.5,0,4.8-1.4,7c2.9-2.9,4.3-6.3,3.6-9.8
			c-1.7-8.8-14.2-12.5-30.8-14.1c-10.6-1-19.1,3.6-22.8,9.5C225,438.6,232.4,435.5,241.2,436.3L241.2,436.3z"/>
	</g>
	<g>
		<path class="st6" d="M195.1,444c-1.3-9.6-15-16.2-30.6-14.8c-15.6,1.4-27.1,10.4-25.8,20s15,16.2,30.6,14.8S196.4,453.6,195.1,444
			L195.1,444z"/>
		<path class="st7" d="M172.5,457.5c-15.6,1.4-29.2-5.2-30.6-14.8c-0.2-1.2-0.1-2.3,0.1-3.5c-2.6,3-3.8,6.4-3.3,10
			c1.3,9.6,15,16.2,30.6,14.8c13.7-1.3,24.2-8.3,25.7-16.5C190.6,452.6,182.3,456.5,172.5,457.5z"/>
		<path class="st8" d="M195.1,444c-1.3-9.6-15-16.2-30.6-14.8c-11,1-19.9,5.8-23.8,11.8c4.6-4.7,12.4-8.2,21.6-9
			c15.6-1.4,29.3,5.2,30.6,14.8c0.4,2.8-0.4,5.6-2,8.2C194,451.7,195.6,447.9,195.1,444L195.1,444z"/>
	</g>
	<path class="st9" d="M115.9,471.4c10.6,2.6,21.6,2.4,32.4,0.6C137.9,475.2,126,475.4,115.9,471.4L115.9,471.4z"/>
	<path class="st9" d="M151.9,464.7c4.3,2.2-3.5,3.4-5.1,3.5c-7.1,0.7-14.3,0.6-21.4-0.5c-1.4-0.3-2.9-0.5-4.2-1.1
		c1.4,0.4,2.8,0.5,4.2,0.6C126.9,467.2,158.8,468.9,151.9,464.7L151.9,464.7L151.9,464.7z"/>
	<path class="st9" d="M115,463c10.4-2.7,21.9-3.8,32.1-0.2C136.5,460.7,125.7,461.7,115,463C115,463,115,463,115,463z"/>
	<path class="st9" d="M144.4,430.7c-10.3-3.5-21.3-4.3-32.2-3.5C122.8,424.8,134.6,425.8,144.4,430.7L144.4,430.7z"/>
	<path class="st9" d="M107.9,434.1c-4.1-2.6,3.8-3,5.4-3c7.2-0.1,14.3,0.7,21.3,2.4c1.4,0.4,2.8,0.7,4,1.5c-1.3-0.5-2.7-0.7-4.1-1
		C133,433.8,101.4,429.2,107.9,434.1L107.9,434.1L107.9,434.1z"/>
	<path class="st9" d="M144.4,439.1c-10.6,1.8-22.1,1.8-32-2.7C122.8,439.4,133.6,439.4,144.4,439.1L144.4,439.1z"/>
	<path class="st9" d="M150.4,442.4c-4.5-1.9,3.2-3.7,4.8-4c7-1.4,14.2-1.9,21.4-1.5c1.4,0.1,2.9,0.2,4.2,0.7
		c-1.4-0.3-2.8-0.2-4.2-0.2C175.1,437.5,143.1,438.7,150.4,442.4L150.4,442.4L150.4,442.4z"/>
	<path class="st9" d="M185.6,443.8c-10.1,3.6-21.4,5.7-32,3.1C164.3,448,175,446,185.6,443.8L185.6,443.8z"/>
	<path class="st9" d="M189.3,420.7c-10.8-1.7-21.8-0.6-32.3,2.1C167.1,418.7,178.8,417.6,189.3,420.7L189.3,420.7z"/>
	<path class="st9" d="M160.5,426.8c-6.9,4.4,24.9,2.2,26.5,2.2c1.4-0.1,2.8-0.2,4.2-0.6c-1.3,0.6-2.7,0.9-4.1,1.1
		c-7.1,1.1-14.3,1.4-21.4,0.8C164.1,430.1,156.3,429.1,160.5,426.8L160.5,426.8L160.5,426.8z"/>
	<g>
		<path class="st9" d="M248.1,410.5c3.8,2.2,7.5,4.5,11.3,6.7c3.8,2.1,7.6,4.4,11.9,5.3c-4.5,0-8.6-2.3-12.4-4.4
			C255,416,251.4,413.5,248.1,410.5L248.1,410.5L248.1,410.5z"/>
		<path class="st9" d="M281,423.1c-5.8-9.5-16.4-14.9-27.1-16.2c-1.6-0.2-3.1-0.3-4.7-0.5c1.6,0,3.2-0.1,4.7,0
			C264.9,406.9,276.3,412.7,281,423.1L281,423.1L281,423.1z"/>
		<path class="st9" d="M308.9,435.4c-8.8-0.8-17.8-1.6-26.5,0.3C290.8,432.3,300.4,433.1,308.9,435.4L308.9,435.4z"/>
		<path class="st9" d="M277.6,441.2c5.5,1.3,11.1,2.4,16.7,3.1c5.6,0.7,11.3,1.2,16.8-0.4C301.3,448.2,287.3,444.8,277.6,441.2
			L277.6,441.2L277.6,441.2z"/>
		<path class="st9" d="M233,438.2c9.1-0.7,18.6,0,27.1,3.6C251.3,439.7,242,439,233,438.2L233,438.2L233,438.2z"/>
		<path class="st9" d="M265.9,447.1c-9.9-1.3-20.6-3.3-30.5-3.9c-1.5-0.1-2.9-0.1-4.4,0c5.8-1.2,11.8-0.3,17.6,0.4
			C254.4,444.3,260.4,445.5,265.9,447.1L265.9,447.1L265.9,447.1z"/>
		<path class="st9" d="M228.3,447.4c5.4,1.5,10.8,3,16.3,4.2c5.4,1.1,11,2.3,16.6,1.6C251.3,455.8,237.4,451.3,228.3,447.4
			L228.3,447.4L228.3,447.4z"/>
		<path class="st9" d="M239.1,428.1c-8.3,1.1-17.2-1.3-23.7-6.7C222.7,425.5,230.8,427.7,239.1,428.1L239.1,428.1z"/>
		<path class="st9" d="M205.7,414.7c4.9-1,10.1-1,14.9,0.1c8,2.3,15.3,6.6,22.4,10.8l-4.5-2c-4.4-2-9.1-4.3-13.6-6.1
			C218.9,414.8,212.2,414.2,205.7,414.7L205.7,414.7L205.7,414.7z"/>
	</g>
	<path class="st8" d="M174.2,416.7c17.3-0.4,31.5,6.9,31.7,16.4c0.1,2-0.6,4-1.7,5.9c2.6-2.6,4-5.5,3.9-8.6
		c-0.2-9.5-14.4-16.8-31.7-16.4c-13.6,0.4-25,5.4-29.1,12.1C152.5,420.7,162.5,417,174.2,416.7L174.2,416.7z"/>
	<path class="st8" d="M161.9,468.7c-0.6-9.1-14.1-13.5-30.2-13.3c-13.1,0.1-23.8,3.2-27,9.3c4.7-4.2,13.9-6.4,24.7-6.5
		c16.1-0.2,29.6,4.2,30.2,13.3c0.1,2.1-0.4,4.1-1.6,6C160.7,474.9,162.1,471.9,161.9,468.7L161.9,468.7z"/>
	<g>
		<path class="st6" d="M179.8,463.5c1.8,9.4,16.9,16.3,33.8,15.3c16.9-1,29.1-9.5,27.3-18.9c-1.8-9.4-20-14.4-36.9-13.4
			C187.1,447.5,178,454.1,179.8,463.5L179.8,463.5z"/>
		<path class="st7" d="M216.9,472.3c-16.9,1-32-5.8-33.8-15.3c-0.2-1-0.2-2.1-0.1-3.1c-2.6,2.9-3.8,6.2-3.2,9.6
			c1.8,9.4,16.9,16.3,33.8,15.3c15-0.9,26.3-7.7,27.4-15.8C236.4,468,227.6,471.7,216.9,472.3L216.9,472.3z"/>
		<path class="st8" d="M240.9,459.9c-1.8-9.4-20-14.4-36.9-13.4c-11.9,0.7-20,4.2-23.1,9.5c4-3.8,11.1-6.2,20.8-6.8
			c16.9-1,35.1,3.9,36.9,13.4c0.5,2.6-0.1,5.1-1.5,7.4C240.2,467.1,241.6,463.6,240.9,459.9L240.9,459.9z"/>
		<path class="st9" d="M192.9,462.1c4.1,1.1,9.8,2.6,13.8,3.5c4.6,1,9.3,2,14.1,1.5c-4.7,1.3-9.6,0.5-14.3-0.5
			C201.8,465.6,197.2,464.2,192.9,462.1L192.9,462.1L192.9,462.1z"/>
		<path class="st9" d="M218.2,459.6c-8.4-0.6-16.7-2.5-25.1-2.2c4.1-1.1,8.5-0.7,12.7-0.2C210,457.7,214.2,458.4,218.2,459.6
			L218.2,459.6L218.2,459.6z"/>
		<path class="st9" d="M189.5,453.8c4.3-1,8.7-1.4,13.2-1.4c4.4,0,9,0.2,13.1,2C207.1,452.7,198.3,453.7,189.5,453.8L189.5,453.8z"
			/>
	</g>
	<g>
		<path class="st6" d="M387.5,466.9c3.5-8.5,14.9-7.8,32.8-8.9c15-0.9,23.6,13.2,20.2,21.7c-3.5,8.5-18.2,12.4-32.8,8.9
			C393,485.1,384,475.4,387.5,466.9L387.5,466.9z"/>
		<path class="st7" d="M404.4,482.1c14.6,3.5,29.3-0.5,32.8-8.9c0.7-1.8,0.9-3.6,0.6-5.5c3.2,3.8,4.3,8,2.7,12
			c-3.5,8.5-18.2,12.4-32.8,8.9c-11.5-2.8-19.6-9.4-20.8-16.2C390.5,476.6,396.7,480.2,404.4,482.1L404.4,482.1z"/>
		<path class="st8" d="M422.5,460.8c-17.9,1.1-29.3,0.5-32.8,8.9c-1.4,3.4-0.8,6.9,1.3,10.2c-3.8-4-5.3-8.6-3.6-13
			c3.5-8.5,14.9-7.8,32.8-8.9c8.3-0.5,14.7,3.6,18.1,8.8C434.7,463,429.2,460.4,422.5,460.8L422.5,460.8z"/>
	</g>
	<g>
		<path class="st6" d="M247.5,493.5c-15.4-1.2-26.7-9.4-25.2-18.2c1.5-8.8,10.5-14.6,25.9-13.4c15.4,1.2,31.4,9,29.9,17.8
			C276.6,488.5,262.9,494.7,247.5,493.5z"/>
		<path class="st7" d="M244.2,487c15.4,1.2,29.1-4.9,30.6-13.8c0.1-0.9,0.2-1.8,0-2.7c2.5,2.8,3.7,5.9,3.2,9.2
			c-1.5,8.8-15.2,15-30.6,13.8c-13.8-1.1-24.3-7.7-25.3-15.5C226.5,482.7,234.6,486.2,244.2,487L244.2,487z"/>
		<path class="st8" d="M250.4,464.7c-15.4-1.2-24.4,4.6-25.9,13.4c-0.4,2.4,0.2,4.8,1.5,7c-2.9-2.9-4.3-6.3-3.7-9.8
			c1.5-8.8,10.5-14.6,25.9-13.4c12.3,1,25,6.2,28.8,12.7C271.7,469.4,260.9,465.5,250.4,464.7L250.4,464.7z"/>
	</g>
	<g>
		<path class="st6" d="M257.7,463.7c-2-8.1,5.7-23.2,19.6-24.5c13.5-1.3,24.9-3.3,27,4.8c2,8.1-6.7,19.1-19.6,24.5
			C271.8,474,259.8,471.8,257.7,463.7L257.7,463.7z"/>
		<path class="st7" d="M281.5,462.1c11.9-5,20.3-14.9,19.9-22.7c1.5,1.2,2.5,2.8,3,4.7c2,8.1-6.7,19.1-19.6,24.5
			c-12.9,5.4-24.9,3.3-27-4.8c-0.1-0.6-0.2-1.2-0.3-1.8C262.2,465.9,271.6,466.2,281.5,462.1L281.5,462.1z"/>
		<path class="st8" d="M277.3,439.2c12.8-1.2,23.7-3.1,26.6,3.6c-4.5-3.3-13.8-1.9-24.3-0.9c-13.9,1.4-21.6,16.4-19.6,24.5
			c0.2,0.7,0.4,1.3,0.7,1.9c-1.5-1.2-2.5-2.8-3-4.7C255.7,455.6,263.4,440.6,277.3,439.2L277.3,439.2z"/>
	</g>
	<g>
		<path class="st6" d="M291.7,464.2c-0.2-8.5,14.7-14.3,27.2-19.5c14.2-5.9,27.7,2.9,27.9,11.4c0.2,8.5-12,17.3-27.2,19.5
			S291.9,472.7,291.7,464.2z"/>
		<path class="st7" d="M316.4,469.1c15.2-2.2,27.4-10.9,27.2-19.5c0-0.1,0-0.1,0-0.2c2,1.8,3.2,4.1,3.2,6.6
			c0.2,8.5-12,17.3-27.2,19.5c-15.1,2.2-27.5-2.8-27.9-11.3C296.4,468.6,305.7,470.7,316.4,469.1L316.4,469.1z"/>
		<path class="st8" d="M318.9,444.7c11.5-4.7,22.4,0,26.4,6.5c-5-4.9-14.4-7.8-24.2-3.8c-12.5,5.2-27.4,10.9-27.2,19.5
			c0,1.4,0.4,2.7,1,3.9c-2-1.8-3.2-4.1-3.3-6.7C291.5,455.6,306.4,449.9,318.9,444.7L318.9,444.7z"/>
	</g>
	<g>
		<path class="st6" d="M333.6,466c0.2-9.5,14.4-16.8,31.7-16.4c17.3,0.4,31.1,8.5,30.8,18c-0.2,9.5-14.4,16.8-31.7,16.4
			C347.2,483.5,333.3,475.5,333.6,466L333.6,466z"/>
		<path class="st7" d="M360.4,477.3c17.3,0.4,31.5-6.9,31.7-16.4c0-0.5,0-1-0.1-1.5c2.2,2.4,3.4,5.2,3.3,8
			c-0.2,9.5-14.4,16.8-31.7,16.4c-16.3-0.4-29.5-7.6-30.7-16.5C338,473,348.3,477,360.4,477.3L360.4,477.3z"/>
	</g>
	<g>
		<path class="st6" d="M206.9,528.5c-16.1-0.2-28.6-7.7-28-16.9c0.6-9.1,14.1-13.5,30.2-13.3c16.1,0.2,28.6,4.8,28,13.9
			C236.4,521.5,222.9,528.7,206.9,528.5z"/>
		<path class="st7" d="M203.6,522.1c16.1,0.2,29.6-7.1,30.2-16.2c0-0.6,0-1.2-0.1-1.8c2.3,2.5,3.5,5.3,3.3,8.2
			c-0.6,9.1-14.1,16.4-30.2,16.2c-15-0.2-26.9-6.8-27.9-15.1C183.6,518.5,192.8,521.9,203.6,522.1L203.6,522.1z"/>
		<path class="st9" d="M225,514.3c-10.2,4-22,3.9-32.4,0.6C203.4,516.7,214.4,516.9,225,514.3L225,514.3z"/>
		<path class="st9" d="M189,507.6c-6.9,4.3,24.9,2.6,26.5,2.5c1.4-0.1,2.8-0.2,4.2-0.6c-1.3,0.6-2.8,0.8-4.1,1.1
			c-7.1,1-14.3,1.2-21.4,0.5C192.5,511,184.8,509.8,189,507.6L189,507.6L189,507.6z"/>
		<path class="st9" d="M225.8,505.9c-10.7-1.3-21.5-2.3-32.1-0.2C204,502.2,215.5,503.2,225.8,505.9L225.8,505.9z"/>
		<path class="st8" d="M178.9,511.7c0.6-9.1,14.1-13.5,30.2-13.3c13.1,0.1,23.8,3.2,27,9.3c-4.6-4.2-13.9-6.4-24.8-6.5
			c-16.1-0.2-29.6,4.2-30.2,13.3c-0.1,2.1,0.4,4.1,1.6,6C180.1,517.9,178.7,514.9,178.9,511.7L178.9,511.7z"/>
	</g>
	<g>
		<path class="st6" d="M292,501c-15.3-1-26.3-8.9-24.6-17.7s14.2-12.5,30.8-14.1c15.3-1.4,26.3,8.9,24.6,17.7
			C321.1,495.7,307.3,502,292,501z"/>
		<path class="st7" d="M288.8,494.5c15.3,1,29.1-5.3,30.8-14.1c0.2-1,0.2-1.9,0.1-2.9c2.6,2.8,3.8,6,3.1,9.3
			c-1.7,8.8-15.5,15.1-30.8,14.1c-13.6-0.9-23.9-7.3-24.7-14.9C271.5,490.6,279.3,493.9,288.8,494.5L288.8,494.5z"/>
		<path class="st8" d="M300.5,472c-16.6,1.6-29.1,5.3-30.8,14.1c-0.5,2.5,0,4.8,1.4,7c-2.9-2.9-4.3-6.3-3.6-9.8
			c1.7-8.8,14.2-12.5,30.8-14.1c10.6-1,19.1,3.6,22.8,9.5C316.7,474.3,309.3,471.2,300.5,472L300.5,472z"/>
	</g>
	<g>
		<path class="st6" d="M346.6,479.7c1.3-9.6,15-16.2,30.6-14.8c15.6,1.4,27.1,10.4,25.8,20s-15,16.2-30.6,14.8
			S345.3,489.3,346.6,479.7L346.6,479.7z"/>
		<path class="st7" d="M369.2,493.1c15.6,1.4,29.2-5.2,30.6-14.8c0.2-1.2,0.1-2.3-0.1-3.5c2.5,3,3.8,6.4,3.3,10
			c-1.3,9.6-15,16.2-30.6,14.8c-13.7-1.3-24.2-8.3-25.7-16.5C351.1,488.3,359.4,492.2,369.2,493.1L369.2,493.1z"/>
		<path class="st8" d="M346.6,479.7c1.3-9.6,15-16.2,30.6-14.8c11,1,19.9,5.8,23.8,11.8c-4.6-4.7-12.4-8.2-21.6-9
			c-15.6-1.4-29.3,5.2-30.6,14.8c-0.4,2.8,0.4,5.6,2,8.2C347.7,487.4,346.1,483.6,346.6,479.7L346.6,479.7z"/>
	</g>
	<path class="st9" d="M397.3,466.4c9.8-4.9,21.6-5.9,32.2-3.5C418.7,462.1,407.7,462.9,397.3,466.4L397.3,466.4L397.3,466.4z"/>
	<path class="st9" d="M433.8,469.8c6.5-4.9-25-0.3-26.6-0.1c-1.4,0.2-2.8,0.4-4.1,1c1.2-0.8,2.7-1.1,4-1.5c7-1.7,14.1-2.5,21.3-2.4
		C430,466.8,437.8,467.2,433.8,469.8L433.8,469.8L433.8,469.8z"/>
	<path class="st9" d="M397.3,474.8c10.8,0.3,21.6,0.3,32-2.7C419.4,476.6,407.9,476.6,397.3,474.8L397.3,474.8z"/>
	<path class="st9" d="M391.3,478c7.3-3.6-24.5-4.8-26.1-4.9c-1.4,0-2.9-0.1-4.2,0.2c1.3-0.5,2.8-0.6,4.2-0.7
		c7.1-0.4,14.4,0.1,21.4,1.5C388.1,474.4,395.7,476.2,391.3,478L391.3,478L391.3,478z"/>
	<path class="st9" d="M356.1,479.5c10.5,2.2,21.2,4.2,32,3.1C377.6,485.2,366.2,483.1,356.1,479.5L356.1,479.5z"/>
	<path class="st9" d="M352.4,456.4c10.5-3.2,22.2-2,32.3,2.1C374.1,455.9,363.1,454.7,352.4,456.4L352.4,456.4z"/>
	<path class="st9" d="M381.2,462.5c4.2,2.3-3.6,3.3-5.1,3.4c-7.1,0.6-14.4,0.4-21.4-0.8c-1.4-0.3-2.9-0.5-4.1-1.1
		c1.4,0.4,2.8,0.5,4.2,0.6C356.2,464.7,388.1,466.9,381.2,462.5L381.2,462.5L381.2,462.5z"/>
	<g>
		<path class="st9" d="M293.6,446.2c-3.3,2.9-6.9,5.4-10.8,7.6c-3.8,2.1-7.9,4.4-12.4,4.4c4.3-0.9,8.1-3.2,11.9-5.3
			C286.1,450.8,289.8,448.5,293.6,446.2L293.6,446.2z"/>
		<path class="st9" d="M260.7,458.8c4.6-10.4,16-16.2,27.1-16.8c1.6,0,3.2,0,4.7,0c-1.6,0.2-3.1,0.3-4.7,0.5
			C277.1,444,266.5,449.3,260.7,458.8L260.7,458.8L260.7,458.8z"/>
		<path class="st9" d="M232.8,471.1c8.5-2.3,18.1-3.1,26.5,0.3C250.6,469.5,241.6,470.3,232.8,471.1L232.8,471.1z"/>
		<path class="st9" d="M264,476.9c-9.6,3.6-23.7,7-33.5,2.8c5.5,1.5,11.2,1,16.8,0.4C253,479.4,258.5,478.2,264,476.9L264,476.9
			L264,476.9z"/>
		<path class="st9" d="M308.7,473.9c-9,0.8-18.3,1.5-27.1,3.6C290.1,473.9,299.6,473.2,308.7,473.9L308.7,473.9z"/>
		<path class="st9" d="M275.8,482.8c5.6-1.6,11.5-2.7,17.3-3.5c5.8-0.7,11.8-1.5,17.6-0.4c-1.5-0.1-2.9-0.1-4.4,0
			C296.3,479.5,285.6,481.6,275.8,482.8L275.8,482.8L275.8,482.8z"/>
		<path class="st9" d="M313.4,483.1c-9.2,3.9-23,8.4-32.9,5.9c5.6,0.7,11.2-0.5,16.6-1.6C302.6,486.1,308,484.6,313.4,483.1
			L313.4,483.1L313.4,483.1z"/>
		<path class="st9" d="M302.5,463.8c8.3-0.4,16.4-2.6,23.7-6.7C319.8,462.5,310.9,465,302.5,463.8L302.5,463.8z"/>
		<path class="st9" d="M336,450.4c-6.5-0.5-13.2,0.1-19.3,2.7c-4.4,1.8-9.2,4.1-13.6,6.1l-4.5,2c7.1-4.2,14.5-8.4,22.5-10.8
			C326,449.4,331.1,449.4,336,450.4L336,450.4L336,450.4z"/>
	</g>
	<path class="st8" d="M367.5,452.4c-17.3-0.4-31.5,6.9-31.7,16.4c0,2,0.5,4,1.7,5.9c-2.6-2.6-4-5.5-3.9-8.6
		c0.2-9.5,14.4-16.8,31.7-16.4c13.6,0.4,25,5.4,29.1,12.1C389.2,456.4,379.1,452.7,367.5,452.4L367.5,452.4z"/>
	<g>
		<path class="st6" d="M361.9,499.2c-1.8,9.4-16.9,16.3-33.8,15.3c-16.9-1-29.1-9.5-27.3-18.9c1.8-9.4,20-14.4,36.9-13.4
			C354.6,483.2,363.7,489.8,361.9,499.2L361.9,499.2z"/>
		<path class="st7" d="M324.8,508c16.9,1,32-5.8,33.8-15.3c0.2-1,0.2-2.1,0.1-3.1c2.6,2.9,3.8,6.2,3.2,9.6
			c-1.8,9.4-16.9,16.3-33.8,15.3c-15-0.9-26.3-7.7-27.4-15.8C305.2,503.7,314.1,507.4,324.8,508z"/>
		<path class="st8" d="M300.8,495.6c1.8-9.4,20-14.4,36.9-13.4c12,0.7,20,4.2,23,9.5c-4-3.8-11.1-6.2-20.8-6.8
			c-16.9-1-35.1,3.9-36.9,13.4c-0.5,2.6,0.1,5.1,1.5,7.4C301.5,502.8,300.1,499.2,300.8,495.6L300.8,495.6z"/>
		<path class="st9" d="M348.8,497.9c-4.4,2-8.9,3.5-13.6,4.5c-4.6,1-9.6,1.8-14.3,0.5c4.8,0.4,9.4-0.6,14.1-1.5
			C339,500.5,344.8,498.9,348.8,497.9L348.8,497.9L348.8,497.9z"/>
		<path class="st9" d="M323.5,495.3c4.1-1.2,8.2-2,12.4-2.5c4.2-0.4,8.5-0.9,12.7,0.2C340.1,492.9,331.9,494.7,323.5,495.3
			L323.5,495.3z"/>
		<path class="st9" d="M352.2,489.5c-8.8-0.1-17.6-1.1-26.2,0.6c4.1-1.8,8.7-1.9,13.1-2C343.5,488.1,347.9,488.5,352.2,489.5
			L352.2,489.5L352.2,489.5z"/>
	</g>
</g>
<g class="st10">
	<path class="st0" d="M219.6,349.8c0.1,0,0.1,0.1,0.2,0.2c0.1,0.1,0.2,0.2,0.5,0.4c0.3,0.2,0.5,0.4,0.8,0.7s0.6,0.6,0.9,0.9
		c0.4,0.4,0.7,0.8,1,1.2c0.3,0.4,0.7,0.9,1,1.5c0.4,0.5,0.7,1.1,0.9,1.7c0.6,1.2,0.6,2.6,0,4s-1.6,2.6-2.9,3.4
		c-1.3,0.8-2.7,0.9-4,0.3c-1.4-0.6-2.7-1.6-4-3.1c-1.2-1.5-2.2-3-2.9-4.5c-0.7-1.5-1.1-2.8-1.4-4c0.8,3.6,0.9,6.4,0.4,8.4
		c-0.3,1.1-1,2-2.1,2.7c-1.1,0.6-2.2,1-3.4,1c-1.2,0-2.3-0.3-3.4-0.8c-1.1-0.6-1.7-1.4-2-2.4c-0.3-1.3-0.5-2.6-0.6-4
		c-0.1-1.4-0.1-2.7,0.1-3.7c0.1-1.1,0.2-2.4,0.4-3.9s0.2-2.8,0.2-3.9c0-1.6-0.1-3.8-0.3-6.5s-0.4-4.6-0.4-5.8c0-1.4,0.3-2.5,0.9-3.5
		c0.6-1,1.4-1.7,2.3-2.2c0.9-0.5,2.1-0.9,3.4-1.1s2.6-0.3,3.9-0.3c1.2,0,2.6,0.1,4,0.2c3.1,0.3,5.7,1.6,7.9,3.7
		c2.1,2.2,3.4,4.5,3.9,7.1c0.4,2.1,0.4,3.9,0.2,5.5c-0.2,1.5-0.6,2.8-1.3,3.8c-0.6,1-1.4,1.7-2.2,2.2
		C221.2,349.6,220.4,349.8,219.6,349.8z M214.3,342c0.5-1.8,0-3.5-1.5-5.2c-0.9-1-1.7-1-2.4,0c-0.1,0.1-0.2,0.4-0.2,0.7
		c0,0.3-0.1,0.7-0.1,1c0,0.3,0,0.7,0,1.2c0,0.5,0,0.9,0.1,1.2c0,0.3,0.1,0.7,0.1,1c0,0.4,0.1,0.6,0.1,0.7c0.1,0.6,0.3,1,0.8,1.3
		c0.5,0.3,1,0.3,1.6,0C213.5,343.7,214,343,214.3,342z"/>
	<path class="st0" d="M256.1,358.2c0,1.3-0.4,2.5-1.1,3.4c-0.7,1-1.6,1.6-2.7,1.9c-1.1,0.3-2.1,0.4-3.2,0.2c-1.1-0.1-2-0.6-2.9-1.4
		c-0.8-0.8-1.3-1.9-1.4-3.1c0-0.3-0.1-0.8-0.1-1.6c-0.1-0.7-0.1-1.3-0.1-1.8c0-0.5-0.1-1-0.2-1.7c-0.1-0.6-0.2-1.2-0.3-1.6
		c-0.1-0.4-0.3-0.9-0.5-1.3c-0.2-0.4-0.4-0.7-0.8-0.9c-0.3-0.2-0.7-0.3-1.1-0.3c-0.6,0-1.2,0.3-1.6,1c-0.4,0.7-0.7,1.5-0.9,2.4
		c-0.2,0.9-0.5,2.1-0.8,3.6c-0.3,1.4-0.7,2.6-1.1,3.6c-0.5,1.1-1.2,2-2.1,2.6c-0.9,0.6-1.9,1-2.9,1c-1,0.1-2-0.1-3-0.3
		c-1-0.3-1.7-0.8-2.3-1.5c-0.6-0.7-0.9-1.5-0.9-2.5c0-1.1,0.2-2.4,0.6-3.8c0.4-1.4,1-3,1.6-4.8s1.1-3.3,1.5-4.7
		c0.2-0.8,0.4-2.1,0.6-3.8c0.2-1.7,0.4-3.2,0.6-4.5c0.2-1.3,0.5-2.8,1-4.4c0.5-1.6,1.2-3,2-4c0.8-1.1,1.9-2,3.4-2.7
		c1.5-0.8,3.3-1.1,5.3-1.1c1.8,0,3.4,0.6,4.9,1.8s2.7,2.8,3.6,4.7c0.9,2,1.8,4.1,2.5,6.4c0.7,2.3,1.2,4.7,1.6,7.2
		c0.4,2.5,0.6,4.7,0.8,6.7C256,354.8,256.1,356.6,256.1,358.2z M243.6,343.5c0.2-0.6,0.1-2-0.1-4c-0.3-2-0.6-3.1-1.1-3.3
		c-0.3-0.1-0.6,0.5-0.9,1.8c-0.3,1.3-0.6,2.5-0.6,3.7c-0.1,1.2,0,1.9,0.2,2.3c0.4,0.3,0.9,0.4,1.5,0.3
		C243.1,344.2,243.5,343.9,243.6,343.5z"/>
	<path class="st0" d="M269.3,359.2c0,1.1-0.3,2.1-1,3c-0.7,0.9-1.6,1.4-2.6,1.7c-1.1,0.3-2.1,0.3-3.2,0.2c-1.1-0.1-2-0.6-2.9-1.4
		c-0.8-0.8-1.4-1.9-1.6-3.3c-0.5-3.3-0.7-8.4-0.6-15.5c0.1-7,0.4-11.4,0.9-13.1c0.3-1.1,1-2,2.1-2.6c1.1-0.6,2.3-0.9,3.4-0.9
		c1.2,0,2.3,0.3,3.3,0.9c1,0.6,1.6,1.4,1.8,2.5c0.2,1.3,0.3,2.6,0.3,3.9s-0.1,3-0.2,5.2c-0.1,2.2-0.2,4.2-0.2,6.1c0,2,0,4.4,0.2,7.3
		C269.2,356.1,269.3,358.1,269.3,359.2z"/>
	<path class="st0" d="M272.6,341.8c-0.1-1.9,0-3.7,0.4-5.4c0.4-1.6,1-3,1.7-4.2c0.7-1.1,1.6-2.1,2.6-2.9c1-0.8,2-1.5,3-1.9
		s1.9-0.7,2.9-0.9c0.8-0.2,1.7-0.2,2.6-0.2c0.9,0.1,1.6,0.1,2.1,0.2c0.5,0.1,1.1,0.2,1.7,0.5c0.6,0.3,1,0.5,1.3,0.6
		c0.3,0.2,0.7,0.4,1.1,0.6c2,1.2,2.8,3,2.4,5.4c-0.3,1.8-1.1,3-2.4,3.9c-1,0.6-1.9,0.6-2.8,0c-1.9-1.3-3.4-1.7-4.5-1.4
		s-1.6,1.5-1.5,3.4c0.1,0.7,0.4,1.2,0.9,1.6c0.5,0.4,1.2,0.7,2.1,0.9c0.9,0.2,1.8,0.5,2.8,0.7c1,0.3,2,0.7,3.2,1.4
		c1.1,0.7,2.2,1.5,3.1,2.5c1.4,1.7,2.3,3.6,2.6,5.6c0.3,2.1,0,4-0.8,5.8c-0.8,1.8-2,3.3-3.6,4.6c-1.7,1.3-3.5,2-5.6,2.2
		c-2.3,0.2-4.4,0.2-6.3-0.1c-2-0.3-3.6-0.8-4.9-1.4c-1.3-0.7-2.3-1.3-3.1-1.8c-0.8-0.6-1.4-1.1-1.8-1.6c-0.5-0.6-0.9-1.5-1-2.4
		c-0.1-1-0.1-1.9,0.2-2.8c0.3-0.9,0.7-1.7,1.2-2.4c0.5-0.7,1.2-1.2,2-1.3s1.7,0,2.6,0.5c4.2,2.3,6.8,3.6,7.7,3.9
		c1.5,0.5,2.3,0.2,2.5-0.8c0.1-0.6-0.1-1.2-0.7-1.7c-0.6-0.5-1.4-0.9-2.4-1.3c-1-0.4-2.2-0.8-3.4-1.4c-1.2-0.6-2.4-1.1-3.5-1.8
		c-1.1-0.6-2-1.5-2.9-2.7C273.2,344.6,272.7,343.3,272.6,341.8z"/>
	<path class="st0" d="M310.8,359.2c0,1.1-0.3,2.1-1,3c-0.7,0.9-1.6,1.4-2.6,1.7s-2.1,0.3-3.2,0.2c-1.1-0.1-2-0.6-2.9-1.4
		c-0.8-0.8-1.4-1.9-1.6-3.3c-0.5-3.3-0.7-8.4-0.6-15.5s0.4-11.4,0.9-13.1c0.3-1.1,1-2,2.1-2.6c1.1-0.6,2.3-0.9,3.4-0.9
		c1.2,0,2.3,0.3,3.3,0.9s1.6,1.4,1.8,2.5c0.2,1.3,0.3,2.6,0.3,3.9s-0.1,3-0.2,5.2c-0.1,2.2-0.2,4.2-0.2,6.1c0,2,0,4.4,0.2,7.3
		C310.7,356.1,310.8,358.1,310.8,359.2z"/>
	<path class="st0" d="M337.9,361.8c-0.8,1.1-1.9,1.9-3.3,2.2c-1.3,0.4-2.7,0.3-4.1-0.3s-2.6-1.7-3.4-3.2c-0.2-0.4-0.7-1.3-1.4-2.7
		c-0.7-1.4-1.2-2.3-1.6-2.9c-0.3-0.6-0.5-0.7-0.6-0.4c0,0.4,0,1.3,0,2.6c0,1.3,0.1,2.1,0.1,2.6c0,0.9-0.2,1.7-0.6,2.4
		s-0.8,1.2-1.5,1.5c-0.6,0.3-1.3,0.6-2,0.7c-0.7,0.1-1.4,0.1-2.2-0.1c-0.7-0.2-1.4-0.5-2-0.9c-0.6-0.4-1.1-0.9-1.5-1.6
		c-0.4-0.7-0.6-1.5-0.7-2.3c-0.4-4.8-0.4-10.3-0.3-16.5c0.2-6.2,0.7-10.3,1.5-12.4c0.4-1.2,1.3-2,2.6-2.5c1.3-0.4,2.6-0.5,3.9-0.2
		c1.3,0.3,2.2,0.7,2.8,1.3c0.8,0.9,1.5,2.5,2.2,5c0.7,2.4,1.3,4.7,1.7,6.7c0.4,2,0.8,3,0.9,3.1c0.1-0.1,0.2-0.4,0.2-0.8
		c0-0.4-0.1-1.1-0.1-2.1c-0.1-1-0.2-2-0.2-3c-0.1-1-0.1-2.2,0-3.6c0.1-1.3,0.2-2.5,0.5-3.6c0.2-0.7,0.6-1.4,1.2-1.9
		c0.6-0.6,1.4-0.9,2.2-1.2c0.9-0.2,1.7-0.3,2.6-0.2c0.9,0.1,1.7,0.4,2.5,1c0.8,0.6,1.3,1.3,1.6,2.3c0.2,0.5,0.3,1,0.5,1.6
		c0.1,0.6,0.2,1.2,0.2,1.9s0.1,1.4,0.1,1.9c0,0.6,0,1.3,0,2.2c0,0.9-0.1,1.7-0.1,2.2c0,0.5-0.1,1.3-0.1,2.4
		c-0.1,1.1-0.1,1.9-0.2,2.3c0,1.1-0.1,3.2-0.1,6.3c-0.1,3-0.2,5.3-0.3,6.9C338.7,359.9,338.4,361.1,337.9,361.8z"/>
	<path class="st0" d="M342.9,341.8c-0.1-1.9,0-3.7,0.4-5.4c0.4-1.6,1-3,1.7-4.2c0.7-1.1,1.6-2.1,2.6-2.9c1-0.8,2-1.5,3-1.9
		s1.9-0.7,2.9-0.9c0.8-0.2,1.7-0.2,2.6-0.2c0.9,0.1,1.6,0.1,2.1,0.2c0.5,0.1,1.1,0.2,1.7,0.5c0.6,0.3,1,0.5,1.3,0.6
		c0.3,0.2,0.7,0.4,1.1,0.6c2,1.2,2.8,3,2.4,5.4c-0.3,1.8-1.1,3-2.4,3.9c-1,0.6-1.9,0.6-2.8,0c-1.9-1.3-3.4-1.7-4.5-1.4
		s-1.6,1.5-1.5,3.4c0.1,0.7,0.4,1.2,0.9,1.6c0.5,0.4,1.2,0.7,2.1,0.9c0.9,0.2,1.8,0.5,2.8,0.7c1,0.3,2,0.7,3.2,1.4
		c1.1,0.7,2.2,1.5,3.1,2.5c1.4,1.7,2.3,3.6,2.6,5.6c0.3,2.1,0,4-0.8,5.8c-0.8,1.8-2,3.3-3.6,4.6c-1.7,1.3-3.5,2-5.6,2.2
		c-2.3,0.2-4.4,0.2-6.3-0.1c-2-0.3-3.6-0.8-4.9-1.4c-1.3-0.7-2.3-1.3-3.1-1.8c-0.8-0.6-1.4-1.1-1.8-1.6c-0.5-0.6-0.9-1.5-1-2.4
		c-0.1-1-0.1-1.9,0.2-2.8c0.3-0.9,0.7-1.7,1.2-2.4c0.5-0.7,1.2-1.2,2-1.3s1.7,0,2.6,0.5c4.2,2.3,6.8,3.6,7.7,3.9
		c1.5,0.5,2.3,0.2,2.5-0.8c0.1-0.6-0.1-1.2-0.7-1.7c-0.6-0.5-1.4-0.9-2.4-1.3c-1-0.4-2.2-0.8-3.4-1.4c-1.2-0.6-2.4-1.1-3.5-1.8
		c-1.1-0.6-2-1.5-2.9-2.7C343.5,344.6,343,343.3,342.9,341.8z"/>
</g>
</svg>
