<?xml version="1.0" encoding="UTF-8"?>
<svg id="_Layer_" data-name="&amp;lt;Layer&amp;gt;" xmlns="http://www.w3.org/2000/svg" viewBox="0 0 540 540">
  <defs>
    <style>
      .cls-1 {
        fill: #d54d67;
      }

      .cls-2, .cls-3 {
        fill: #fff;
      }

      .cls-4 {
        fill: #832545;
      }

      .cls-5 {
        fill: #a32e57;
      }

      .cls-6 {
        fill: #91294d;
      }

      .cls-7 {
        fill: #d5042d;
      }

      .cls-8 {
        fill: none;
        opacity: .74;
        stroke: #eba20d;
        stroke-miterlimit: 10;
        stroke-width: 3.4px;
      }

      .cls-3 {
        font-family: OmpalumpaRegular, Ompalumpa;
        font-size: 53.8px;
      }

      .cls-9 {
        fill: #bd0428;
      }

      .cls-10 {
        fill: #75223d;
      }

      .cls-11 {
        fill: #eba20d;
      }
    </style>
  </defs>
  <g>
    <polygon class="cls-2" points="365.69 71.61 365.69 397.05 393.05 424.41 393.05 87.25 365.69 71.61"/>
    <polygon class="cls-1" points="365.69 71.61 145.45 71.61 152.15 108.47 172.82 87.25 393.05 87.25 365.69 71.61"/>
    <rect class="cls-7" x="172.82" y="87.25" width="220.24" height="337.17"/>
    <circle class="cls-8" cx="284.57" cy="204.07" r="76.79"/>
    <polygon class="cls-9" points="145.45 71.61 145.45 397.05 172.82 424.41 172.82 87.25 145.45 71.61"/>
    <circle class="cls-11" cx="284.57" cy="204.07" r="61.16"/>
  </g>
  <g>
    <g>
      <path class="cls-6" d="m154.2,431.21c-3.49-8.45-14.9-7.84-32.77-8.92-15.01-.91-23.64,13.23-20.16,21.68,3.48,8.45,18.16,12.44,32.77,8.92,14.62-3.52,23.65-13.23,20.17-21.68Z"/>
      <path class="cls-4" d="m137.28,446.41c-14.61,3.52-29.28-.47-32.77-8.92-.74-1.79-.91-3.65-.59-5.48-3.17,3.75-4.29,8-2.66,11.97,3.48,8.45,18.16,12.44,32.77,8.92,11.52-2.77,19.56-9.39,20.75-16.2-3.58,4.24-9.75,7.84-17.51,9.71Z"/>
      <path class="cls-5" d="m119.19,425.08c17.87,1.08,29.29.47,32.77,8.92,1.38,3.35.79,6.89-1.33,10.17,3.84-3.98,5.34-8.64,3.56-12.96-3.49-8.45-14.9-7.84-32.77-8.92-8.31-.5-14.67,3.61-18.09,8.82,3.65-3.8,9.11-6.44,15.86-6.03Z"/>
    </g>
    <g>
      <path class="cls-6" d="m294.21,457.75c15.42-1.22,26.72-9.37,25.25-18.19-1.48-8.82-10.49-14.62-25.91-13.4-15.41,1.22-31.39,9.01-29.92,17.83,1.47,8.82,15.16,14.98,30.58,13.76Z"/>
      <path class="cls-4" d="m297.45,451.27c-15.42,1.22-29.11-4.94-30.58-13.76-.15-.92-.16-1.83-.05-2.73-2.53,2.77-3.74,5.94-3.2,9.22,1.47,8.82,15.16,14.98,30.58,13.76,13.81-1.09,24.31-7.74,25.29-15.45-4.29,4.69-12.35,8.2-22.05,8.97Z"/>
      <path class="cls-5" d="m291.31,428.95c15.42-1.22,24.43,4.58,25.91,13.4.41,2.43-.16,4.8-1.51,6.99,2.89-2.9,4.32-6.28,3.74-9.78-1.48-8.82-10.49-14.62-25.91-13.4-12.32.98-25,6.16-28.84,12.7,5.32-5.19,16.09-9.08,26.61-9.91Z"/>
    </g>
    <g>
      <path class="cls-6" d="m283.96,428.02c2.04-8.11-5.7-23.16-19.6-24.52-13.49-1.32-24.94-3.28-26.97,4.83-2.04,8.11,6.74,19.09,19.6,24.53,12.86,5.44,24.94,3.28,26.97-4.83Z"/>
      <path class="cls-4" d="m260.23,426.37c-11.93-5.05-20.33-14.85-19.87-22.72-1.46,1.22-2.5,2.78-2.97,4.67-2.04,8.11,6.74,19.09,19.6,24.53,12.86,5.44,24.94,3.28,26.97-4.83.15-.59.23-1.19.27-1.81-4.77,4.01-14.14,4.32-24,.15Z"/>
      <path class="cls-5" d="m264.36,403.5c-12.78-1.25-23.71-3.06-26.56,3.64,4.53-3.28,13.79-1.89,24.33-.86,13.9,1.36,21.64,16.42,19.6,24.52-.17.67-.43,1.29-.73,1.88,1.45-1.22,2.49-2.78,2.96-4.67,2.04-8.11-5.7-23.16-19.6-24.52Z"/>
    </g>
    <g>
      <path class="cls-6" d="m249.98,428.49c.2-8.54-14.74-14.32-27.19-19.48-14.21-5.89-27.72,2.9-27.93,11.44-.2,8.54,11.97,17.26,27.19,19.48,15.22,2.22,27.72-2.9,27.93-11.44Z"/>
      <path class="cls-4" d="m225.3,433.44c-15.22-2.22-27.39-10.94-27.19-19.48,0-.06,0-.11.01-.17-2.02,1.84-3.19,4.09-3.25,6.65-.2,8.54,11.97,17.26,27.19,19.48,15.12,2.2,27.55-2.83,27.92-11.27-4.7,4.29-14.02,6.34-24.67,4.78Z"/>
      <path class="cls-5" d="m222.79,409.01c-11.45-4.74-22.44.04-26.39,6.55,5.03-4.94,14.43-7.79,24.16-3.76,12.46,5.16,27.4,10.94,27.19,19.48-.03,1.39-.4,2.69-1.04,3.88,2.03-1.84,3.21-4.1,3.28-6.67.2-8.54-14.74-14.32-27.19-19.48Z"/>
    </g>
    <g>
      <path class="cls-6" d="m208.1,430.28c-.24-9.49-14.44-16.83-31.71-16.39-17.26.44-31.07,8.5-30.83,17.99.24,9.49,14.44,16.83,31.71,16.39,17.26-.44,31.07-8.5,30.83-17.99Z"/>
      <path class="cls-4" d="m181.31,441.64c-17.27.44-31.46-6.89-31.71-16.39-.01-.52.02-1.03.09-1.54-2.19,2.43-3.41,5.16-3.34,8.03.24,9.49,14.44,16.83,31.71,16.39,16.32-.42,29.54-7.64,30.74-16.45-5.08,5.63-15.44,9.65-27.5,9.96Z"/>
    </g>
    <g>
      <path class="cls-6" d="m133.99,485.59c16.06-.18,28.58-7.72,27.96-16.85-.62-9.13-14.13-13.48-30.19-13.3-16.05.18-28.57,4.81-27.96,13.94.62,9.13,14.13,16.39,30.19,16.21Z"/>
      <path class="cls-4" d="m137.23,479.1c-16.06.18-29.57-7.08-30.19-16.21-.04-.6-.02-1.18.05-1.77-2.28,2.45-3.49,5.26-3.29,8.25.62,9.13,14.13,16.39,30.19,16.21,15.01-.17,26.92-6.77,27.92-15.09-4.68,5.03-13.87,8.48-24.67,8.6Z"/>
    </g>
    <g>
      <path class="cls-6" d="m249.66,465.32c15.31-.99,26.33-8.92,24.62-17.7-1.71-8.78-14.2-12.53-30.81-14.09-15.28-1.44-26.33,8.93-24.62,17.7,1.71,8.78,15.51,15.09,30.81,14.09Z"/>
      <path class="cls-4" d="m252.9,458.84c-15.31,1-29.1-5.31-30.81-14.09-.19-.96-.21-1.91-.11-2.85-2.58,2.76-3.79,5.99-3.14,9.33,1.71,8.78,15.51,15.09,30.81,14.09,13.63-.89,23.85-7.26,24.73-14.85-4.19,4.48-12.02,7.75-21.48,8.36Z"/>
      <path class="cls-5" d="m241.24,436.32c16.61,1.56,29.1,5.31,30.81,14.09.48,2.45-.04,4.83-1.36,7.02,2.9-2.86,4.28-6.27,3.59-9.81-1.71-8.78-14.21-12.53-30.81-14.09-10.56-.99-19.09,3.65-22.8,9.51,4.36-4.45,11.76-7.55,20.57-6.72Z"/>
    </g>
    <g>
      <path class="cls-6" d="m195.06,443.97c-1.31-9.59-14.99-16.19-30.57-14.75-15.57,1.44-27.13,10.38-25.82,19.97,1.31,9.59,15,16.19,30.57,14.75,15.57-1.44,27.14-10.38,25.83-19.97Z"/>
      <path class="cls-4" d="m172.48,457.45c-15.57,1.44-29.25-5.16-30.57-14.75-.16-1.17-.13-2.33.08-3.47-2.55,3.01-3.81,6.43-3.32,9.95,1.31,9.59,15,16.19,30.57,14.75,13.67-1.26,24.25-8.31,25.74-16.5-4.4,5.18-12.64,9.1-22.5,10.02Z"/>
      <path class="cls-5" d="m195.06,443.97c-1.31-9.59-14.99-16.19-30.57-14.75-10.97,1.01-19.94,5.75-23.83,11.81,4.57-4.69,12.38-8.17,21.6-9.02,15.58-1.44,29.26,5.16,30.57,14.75.39,2.83-.36,5.61-1.99,8.16,3.15-3.23,4.76-7.03,4.23-10.94Z"/>
    </g>
    <path class="cls-10" d="m115.86,471.35c10.6,2.56,21.63,2.37,32.36.56-10.35,3.3-22.18,3.47-32.36-.56h0Z"/>
    <path class="cls-10" d="m151.85,464.66c4.28,2.24-3.52,3.37-5.1,3.51-7.13.73-14.34.57-21.43-.46-1.4-.27-2.86-.46-4.15-1.1,1.37.4,2.8.47,4.21.57,1.49.06,33.41,1.75,26.47-2.52h0Z"/>
    <path class="cls-10" d="m115.03,462.98c10.37-2.73,21.85-3.76,32.15-.25-10.64-2.03-21.46-1.01-32.15.25h0Z"/>
    <path class="cls-10" d="m144.35,430.7c-10.32-3.52-21.32-4.34-32.17-3.51,10.61-2.35,22.4-1.43,32.17,3.51h0Z"/>
    <path class="cls-10" d="m107.91,434.08c-4.06-2.62,3.82-3.04,5.4-3.03,7.16-.08,14.34.74,21.3,2.41,1.37.4,2.81.72,4.04,1.47-1.33-.52-2.74-.73-4.14-.95-1.48-.2-33.11-4.79-26.59.1h0Z"/>
    <path class="cls-10" d="m144.42,439.11c-10.57,1.78-22.1,1.75-32.04-2.69,10.41,2.99,21.27,2.97,32.04,2.69h0Z"/>
    <path class="cls-10" d="m150.41,442.35c-4.46-1.85,3.21-3.67,4.77-3.95,7.03-1.37,14.23-1.86,21.38-1.46,1.42.15,2.89.2,4.23.72-1.4-.27-2.83-.22-4.25-.19-1.49.07-33.43,1.25-26.14,4.88h0Z"/>
    <path class="cls-10" d="m185.55,443.79c-10.08,3.65-21.42,5.7-32,3.13,10.78,1.06,21.46-.91,32-3.13h0Z"/>
    <path class="cls-10" d="m189.32,420.71c-10.78-1.67-21.75-.57-32.29,2.14,10.04-4.15,21.81-5.3,32.29-2.14h0Z"/>
    <path class="cls-10" d="m160.52,426.78c-6.86,4.35,24.89,2.25,26.5,2.17,1.41-.12,2.84-.21,4.21-.63-1.28.65-2.74.86-4.14,1.15-7.07,1.13-14.29,1.38-21.42.75-1.59-.12-9.39-1.14-5.15-3.44h0Z"/>
    <g>
      <path class="cls-10" d="m248.08,410.54c3.8,2.22,7.5,4.53,11.29,6.7,3.8,2.08,7.56,4.44,11.86,5.3-4.47,0-8.57-2.29-12.4-4.36-3.81-2.22-7.45-4.72-10.75-7.64h0Z"/>
      <path class="cls-10" d="m280.99,423.1c-5.76-9.45-16.37-14.85-27.11-16.24-1.55-.22-3.12-.29-4.69-.5,1.57-.04,3.16-.07,4.74-.03,11.01.55,22.41,6.4,27.06,16.76h0Z"/>
      <path class="cls-10" d="m308.89,435.37c-8.82-.79-17.76-1.62-26.5.28,8.36-3.37,17.96-2.54,26.5-.28h0Z"/>
      <path class="cls-10" d="m277.64,441.23c5.53,1.26,11.07,2.44,16.69,3.15,5.57.69,11.3,1.17,16.78-.37-9.8,4.17-23.82.78-33.47-2.79h0Z"/>
      <path class="cls-10" d="m233.02,438.16c9.08-.69,18.6.05,27.06,3.63-8.75-2.12-18.09-2.84-27.06-3.63h0Z"/>
      <path class="cls-10" d="m265.93,447.08c-9.86-1.26-20.57-3.27-30.48-3.91-1.46-.1-2.92-.07-4.39,0,5.8-1.16,11.8-.34,17.6.35,5.72.82,11.69,1.99,17.26,3.55h0Z"/>
      <path class="cls-10" d="m228.27,447.36c5.42,1.51,10.82,3.02,16.3,4.22,5.45,1.13,11.02,2.31,16.61,1.64-9.85,2.55-23.74-1.94-32.91-5.86h0Z"/>
      <path class="cls-10" d="m239.15,428.12c-8.32,1.14-17.25-1.31-23.71-6.69,7.27,4.07,15.39,6.31,23.71,6.69h0Z"/>
      <path class="cls-10" d="m205.68,414.73c4.88-1.03,10.05-1.02,14.92.13,8.01,2.33,15.3,6.56,22.45,10.75,0,0-4.53-2.05-4.53-2.05-4.37-2.01-9.15-4.28-13.56-6.09-6.04-2.66-12.75-3.26-19.29-2.74h0Z"/>
    </g>
    <path class="cls-5" d="m174.16,416.68c17.27-.44,31.47,6.9,31.71,16.39.05,2.04-.55,4.01-1.69,5.85,2.56-2.58,4-5.53,3.92-8.64-.24-9.49-14.44-16.83-31.71-16.39-13.56.35-24.98,5.39-29.14,12.14,5.26-5.31,15.3-9.05,26.91-9.35Z"/>
    <path class="cls-5" d="m161.95,468.74c-.62-9.13-14.13-13.48-30.19-13.3-13.05.14-23.76,3.23-26.99,9.29,4.65-4.21,13.89-6.38,24.75-6.5,16.06-.18,29.57,4.17,30.19,13.3.14,2.1-.42,4.11-1.55,5.97,2.59-2.56,3.99-5.56,3.78-8.76Z"/>
    <g>
      <path class="cls-6" d="m179.8,463.53c1.79,9.43,16.93,16.26,33.81,15.26,16.88-1.01,29.11-9.48,27.32-18.91-1.79-9.43-20.04-14.36-36.92-13.35-16.88,1.01-26,7.56-24.21,17Z"/>
      <path class="cls-4" d="m216.85,472.3c-16.88,1-32.02-5.82-33.81-15.26-.2-1.05-.22-2.09-.08-3.11-2.6,2.86-3.81,6.16-3.16,9.59,1.79,9.43,16.93,16.26,33.81,15.26,15-.89,26.32-7.68,27.4-15.8-4.56,5.01-13.41,8.68-24.16,9.32Z"/>
      <path class="cls-5" d="m240.93,459.88c-1.79-9.43-20.04-14.36-36.92-13.35-11.95.71-20,4.21-23.05,9.54,3.97-3.75,11.11-6.17,20.82-6.75,16.88-1.01,35.13,3.92,36.92,13.35.49,2.58-.07,5.09-1.49,7.39,2.99-2.99,4.42-6.51,3.72-10.18Z"/>
      <path class="cls-10" d="m192.85,462.15c4.08,1.06,9.78,2.62,13.83,3.48,4.63.97,9.3,1.95,14.06,1.54-4.66,1.27-9.64.47-14.29-.49-4.67-1.05-9.25-2.52-13.6-4.53h0Z"/>
      <path class="cls-10" d="m218.23,459.64c-8.41-.62-16.67-2.48-25.1-2.23,4.12-1.11,8.48-.66,12.67-.25,4.2.52,8.37,1.28,12.43,2.48h0Z"/>
      <path class="cls-10" d="m189.5,453.78c4.32-.95,8.73-1.39,13.16-1.43,4.39.05,8.98.2,13.06,1.99-8.65-1.65-17.46-.67-26.22-.56h0Z"/>
    </g>
    <g>
      <path class="cls-6" d="m387.5,466.92c3.49-8.45,14.9-7.84,32.77-8.92,15.01-.91,23.64,13.23,20.16,21.68-3.48,8.45-18.16,12.44-32.77,8.92-14.62-3.52-23.65-13.23-20.17-21.68Z"/>
      <path class="cls-4" d="m404.42,482.11c14.61,3.52,29.28-.47,32.77-8.92.74-1.79.91-3.65.59-5.48,3.17,3.75,4.29,8,2.66,11.97-3.48,8.45-18.16,12.44-32.77,8.92-11.52-2.77-19.56-9.39-20.75-16.2,3.58,4.24,9.75,7.84,17.51,9.71Z"/>
      <path class="cls-5" d="m422.5,460.79c-17.87,1.08-29.29.47-32.77,8.92-1.38,3.35-.79,6.89,1.33,10.17-3.84-3.98-5.34-8.64-3.56-12.96,3.49-8.45,14.9-7.84,32.77-8.92,8.31-.5,14.67,3.61,18.09,8.82-3.65-3.8-9.11-6.44-15.86-6.03Z"/>
    </g>
    <g>
      <path class="cls-6" d="m247.49,493.45c-15.42-1.22-26.72-9.37-25.25-18.19,1.48-8.82,10.49-14.62,25.91-13.4,15.41,1.22,31.39,9.01,29.92,17.83-1.47,8.82-15.16,14.98-30.58,13.76Z"/>
      <path class="cls-4" d="m244.24,486.97c15.42,1.22,29.11-4.94,30.58-13.76.15-.92.16-1.83.05-2.73,2.53,2.77,3.74,5.94,3.2,9.22-1.47,8.82-15.16,14.98-30.58,13.76-13.81-1.09-24.31-7.74-25.29-15.45,4.29,4.69,12.35,8.2,22.05,8.97Z"/>
      <path class="cls-5" d="m250.38,464.66c-15.42-1.22-24.43,4.58-25.91,13.4-.41,2.43.16,4.8,1.51,6.99-2.89-2.9-4.32-6.28-3.74-9.78,1.48-8.82,10.49-14.62,25.91-13.4,12.32.98,25,6.16,28.84,12.7-5.32-5.19-16.09-9.08-26.61-9.91Z"/>
    </g>
    <g>
      <path class="cls-6" d="m257.73,463.72c-2.04-8.11,5.7-23.16,19.6-24.52,13.49-1.32,24.94-3.28,26.97,4.83,2.04,8.11-6.74,19.09-19.6,24.53-12.86,5.44-24.94,3.28-26.97-4.83Z"/>
      <path class="cls-4" d="m281.46,462.07c11.93-5.05,20.33-14.85,19.87-22.72,1.46,1.22,2.5,2.78,2.97,4.67,2.04,8.11-6.74,19.09-19.6,24.53-12.86,5.44-24.94,3.28-26.97-4.83-.15-.59-.23-1.19-.27-1.81,4.77,4.01,14.14,4.32,24,.15Z"/>
      <path class="cls-5" d="m277.33,439.2c12.78-1.25,23.71-3.06,26.56,3.64-4.53-3.28-13.79-1.89-24.33-.86-13.9,1.36-21.64,16.42-19.6,24.52.17.67.43,1.29.73,1.88-1.45-1.22-2.49-2.78-2.96-4.67-2.04-8.11,5.7-23.16,19.6-24.52Z"/>
    </g>
    <g>
      <path class="cls-6" d="m291.71,464.19c-.2-8.54,14.74-14.32,27.19-19.48,14.21-5.89,27.72,2.9,27.93,11.44.2,8.54-11.97,17.26-27.19,19.48-15.22,2.22-27.72-2.9-27.93-11.44Z"/>
      <path class="cls-4" d="m316.39,469.14c15.22-2.22,27.39-10.94,27.19-19.48,0-.06,0-.11-.01-.17,2.02,1.84,3.19,4.09,3.25,6.65.2,8.54-11.97,17.26-27.19,19.48-15.12,2.2-27.55-2.83-27.92-11.27,4.7,4.29,14.02,6.34,24.67,4.78Z"/>
      <path class="cls-5" d="m318.9,444.71c11.45-4.74,22.44.04,26.39,6.55-5.03-4.94-14.43-7.79-24.16-3.76-12.46,5.16-27.4,10.94-27.19,19.48.03,1.39.4,2.69,1.04,3.88-2.03-1.84-3.21-4.1-3.28-6.67-.2-8.54,14.74-14.32,27.19-19.48Z"/>
    </g>
    <g>
      <path class="cls-6" d="m333.59,465.98c.24-9.49,14.44-16.83,31.71-16.39,17.26.44,31.07,8.5,30.83,17.99-.24,9.49-14.44,16.83-31.71,16.39-17.26-.44-31.07-8.5-30.83-17.99Z"/>
      <path class="cls-4" d="m360.39,477.34c17.27.44,31.46-6.89,31.71-16.39.01-.52-.02-1.03-.09-1.54,2.19,2.43,3.41,5.16,3.34,8.03-.24,9.49-14.44,16.83-31.71,16.39-16.32-.42-29.54-7.64-30.74-16.45,5.08,5.63,15.44,9.65,27.5,9.96Z"/>
    </g>
    <g>
      <path class="cls-6" d="m206.87,528.55c-16.06-.18-28.58-7.72-27.96-16.85.62-9.13,14.13-13.48,30.19-13.3,16.05.18,28.57,4.81,27.96,13.94-.62,9.13-14.13,16.39-30.19,16.21Z"/>
      <path class="cls-4" d="m203.63,522.06c16.06.18,29.57-7.08,30.19-16.21.04-.6.02-1.18-.05-1.77,2.28,2.45,3.49,5.26,3.29,8.25-.62,9.13-14.13,16.39-30.19,16.21-15.01-.17-26.92-6.77-27.92-15.09,4.68,5.03,13.87,8.48,24.67,8.6Z"/>
      <path class="cls-10" d="m225,514.31c-10.18,4.02-22.01,3.86-32.36.56,10.73,1.81,21.75,2,32.36-.56h0Z"/>
      <path class="cls-10" d="m189.02,507.61c-6.92,4.26,24.85,2.59,26.47,2.52,1.42-.1,2.84-.17,4.21-.57-1.29.64-2.75.82-4.15,1.1-7.09,1.03-14.3,1.19-21.43.46-1.59-.14-9.37-1.27-5.1-3.51h0Z"/>
      <path class="cls-10" d="m225.84,505.94c-10.69-1.26-21.51-2.27-32.15-.25,10.31-3.51,21.78-2.49,32.15.25h0Z"/>
      <path class="cls-5" d="m178.91,511.69c.62-9.13,14.13-13.48,30.19-13.3,13.05.14,23.76,3.23,26.99,9.29-4.65-4.21-13.89-6.38-24.75-6.5-16.06-.18-29.57,4.17-30.19,13.3-.14,2.1.42,4.11,1.55,5.97-2.59-2.56-3.99-5.56-3.78-8.76Z"/>
    </g>
    <g>
      <path class="cls-6" d="m292.04,501.02c-15.31-.99-26.33-8.92-24.62-17.7,1.71-8.78,14.2-12.53,30.81-14.09,15.28-1.44,26.33,8.93,24.62,17.7-1.71,8.78-15.51,15.09-30.81,14.09Z"/>
      <path class="cls-4" d="m288.8,494.54c15.31,1,29.1-5.31,30.81-14.09.19-.96.21-1.91.11-2.85,2.58,2.76,3.79,5.99,3.14,9.33-1.71,8.78-15.51,15.09-30.81,14.09-13.63-.89-23.85-7.26-24.73-14.85,4.19,4.48,12.02,7.75,21.48,8.36Z"/>
      <path class="cls-5" d="m300.46,472.02c-16.61,1.56-29.1,5.31-30.81,14.09-.48,2.45.04,4.83,1.36,7.02-2.9-2.86-4.28-6.27-3.59-9.81,1.71-8.78,14.21-12.53,30.81-14.09,10.56-.99,19.09,3.65,22.8,9.51-4.36-4.45-11.76-7.55-20.57-6.72Z"/>
    </g>
    <g>
      <path class="cls-6" d="m346.63,479.67c1.31-9.59,14.99-16.19,30.57-14.75,15.57,1.44,27.13,10.38,25.82,19.97-1.31,9.59-15,16.19-30.57,14.75-15.57-1.44-27.14-10.38-25.83-19.97Z"/>
      <path class="cls-4" d="m369.21,493.15c15.57,1.44,29.25-5.16,30.57-14.75.16-1.17.13-2.33-.08-3.47,2.55,3.01,3.81,6.43,3.32,9.95-1.31,9.59-15,16.19-30.57,14.75-13.67-1.26-24.25-8.31-25.74-16.5,4.4,5.18,12.64,9.1,22.5,10.02Z"/>
      <path class="cls-5" d="m346.63,479.67c1.31-9.59,14.99-16.19,30.57-14.75,10.97,1.01,19.94,5.75,23.83,11.81-4.57-4.69-12.38-8.17-21.6-9.02-15.58-1.44-29.26,5.16-30.57,14.75-.39,2.83.36,5.61,1.99,8.16-3.15-3.23-4.76-7.03-4.23-10.94Z"/>
    </g>
    <path class="cls-10" d="m397.34,466.4c9.77-4.94,21.56-5.85,32.17-3.51-10.85-.83-21.85-.01-32.17,3.51h0Z"/>
    <path class="cls-10" d="m433.78,469.78c6.5-4.88-24.99-.31-26.59-.1-1.4.23-2.82.43-4.14.95,1.23-.75,2.67-1.07,4.04-1.47,6.96-1.67,14.13-2.49,21.3-2.41,1.6,0,9.45.41,5.4,3.03h0Z"/>
    <path class="cls-10" d="m397.27,474.81c10.76.28,21.62.3,32.04-2.69-9.94,4.44-21.46,4.46-32.04,2.69h0Z"/>
    <path class="cls-10" d="m391.29,478.05c7.3-3.62-24.54-4.81-26.14-4.88-1.42-.03-2.85-.08-4.25.19,1.34-.52,2.82-.57,4.23-.72,7.15-.39,14.35.1,21.38,1.46,1.57.28,9.22,2.1,4.77,3.95h0Z"/>
    <path class="cls-10" d="m356.14,479.49c10.54,2.21,21.22,4.19,32,3.13-10.58,2.57-21.92.53-32-3.13h0Z"/>
    <path class="cls-10" d="m352.37,456.41c10.48-3.16,22.25-2.02,32.29,2.14-10.54-2.7-21.51-3.81-32.29-2.14h0Z"/>
    <path class="cls-10" d="m381.18,462.48c4.25,2.3-3.57,3.32-5.15,3.44-7.14.64-14.35.38-21.42-.75-1.4-.29-2.85-.5-4.14-1.15,1.36.41,2.79.51,4.21.63,1.49.08,33.38,2.2,26.5-2.17h0Z"/>
    <g>
      <path class="cls-10" d="m293.62,446.25c-3.31,2.92-6.94,5.42-10.75,7.64-3.82,2.07-7.94,4.35-12.4,4.36,4.3-.86,8.06-3.22,11.86-5.3,3.79-2.17,7.49-4.48,11.29-6.7h0Z"/>
      <path class="cls-10" d="m260.7,458.8c4.65-10.36,16.05-16.21,27.06-16.76,1.58-.04,3.17-.01,4.74.03-1.57.2-3.14.28-4.69.5-10.74,1.39-21.35,6.78-27.11,16.24h0Z"/>
      <path class="cls-10" d="m232.81,471.07c8.54-2.27,18.14-3.09,26.5.28-8.73-1.89-17.68-1.07-26.5-.28h0Z"/>
      <path class="cls-10" d="m264.05,476.93c-9.65,3.57-23.67,6.96-33.47,2.79,5.49,1.53,11.21,1.05,16.78.37,5.62-.72,11.16-1.9,16.69-3.15h0Z"/>
      <path class="cls-10" d="m308.68,473.86c-8.97.79-18.3,1.51-27.06,3.63,8.46-3.58,17.97-4.32,27.06-3.63h0Z"/>
      <path class="cls-10" d="m275.76,482.79c5.58-1.56,11.54-2.73,17.26-3.55,5.81-.7,11.8-1.51,17.6-.35-1.47-.08-2.92-.11-4.39,0-9.91.64-20.62,2.66-30.48,3.91h0Z"/>
      <path class="cls-10" d="m313.42,483.07c-9.17,3.92-23.05,8.41-32.91,5.86,5.59.68,11.16-.5,16.61-1.64,5.48-1.2,10.89-2.71,16.3-4.22h0Z"/>
      <path class="cls-10" d="m302.54,463.82c8.32-.38,16.44-2.62,23.71-6.69-6.46,5.38-15.39,7.84-23.71,6.69h0Z"/>
      <path class="cls-10" d="m336.01,450.43c-6.53-.52-13.24.08-19.29,2.74-4.4,1.81-9.2,4.09-13.56,6.09,0,0-4.53,2.05-4.53,2.05,7.15-4.19,14.45-8.42,22.45-10.75,4.88-1.15,10.04-1.16,14.92-.13h0Z"/>
    </g>
    <path class="cls-5" d="m367.53,452.38c-17.27-.44-31.47,6.9-31.71,16.39-.05,2.04.55,4.01,1.69,5.85-2.56-2.58-4-5.53-3.92-8.64.24-9.49,14.44-16.83,31.71-16.39,13.56.35,24.98,5.39,29.14,12.14-5.26-5.31-15.3-9.05-26.91-9.35Z"/>
    <g>
      <path class="cls-6" d="m361.89,499.23c-1.79,9.43-16.93,16.26-33.81,15.26-16.88-1.01-29.11-9.48-27.32-18.91,1.79-9.43,20.04-14.36,36.92-13.35,16.88,1.01,26,7.56,24.21,17Z"/>
      <path class="cls-4" d="m324.84,508c16.88,1,32.02-5.82,33.81-15.26.2-1.05.22-2.09.08-3.11,2.6,2.86,3.81,6.16,3.16,9.59-1.79,9.43-16.93,16.26-33.81,15.26-15-.89-26.32-7.68-27.4-15.8,4.56,5.01,13.41,8.68,24.16,9.32Z"/>
      <path class="cls-5" d="m300.77,495.58c1.79-9.43,20.04-14.36,36.92-13.35,11.95.71,20,4.21,23.05,9.54-3.97-3.75-11.11-6.17-20.82-6.75-16.88-1.01-35.13,3.92-36.92,13.35-.49,2.58.07,5.09,1.49,7.39-2.99-2.99-4.42-6.51-3.72-10.18Z"/>
      <path class="cls-10" d="m348.84,497.85c-4.35,2.01-8.93,3.48-13.6,4.53-4.65.96-9.63,1.76-14.29.49,4.75.41,9.43-.57,14.06-1.54,4.04-.85,9.78-2.42,13.84-3.48h0Z"/>
      <path class="cls-10" d="m323.46,495.34c4.06-1.21,8.23-1.97,12.43-2.48,4.19-.41,8.55-.86,12.67.25-8.43-.25-16.7,1.61-25.1,2.23h0Z"/>
      <path class="cls-10" d="m352.19,489.48c-8.76-.12-17.57-1.09-26.22.56,4.08-1.79,8.68-1.93,13.06-1.98,4.42.04,8.84.47,13.16,1.43h0Z"/>
    </g>
  </g>
  <text class="cls-3" transform="translate(197.86 364.71)"><tspan x="0" y="0">RAISINS</tspan></text>
</svg>