<?xml version="1.0" encoding="UTF-8"?>
<svg id="_Layer_" data-name="&amp;lt;Layer&amp;gt;" xmlns="http://www.w3.org/2000/svg" viewBox="0 0 540 540">
  <defs>
    <style>
      .cls-1 {
        fill: #8aa02e;
      }

      .cls-2 {
        fill: #ffd371;
      }

      .cls-3 {
        fill: #afd16f;
      }

      .cls-4 {
        fill: #a4d367;
      }

      .cls-5 {
        fill: #acd663;
      }

      .cls-6 {
        fill: #8bc34a;
      }

      .cls-7 {
        fill: #889b37;
      }

      .cls-8 {
        fill: #9bb548;
      }

      .cls-9 {
        fill: #86b247;
      }

      .cls-10 {
        fill: #d3ef8f;
      }

      .cls-11 {
        fill: #8eba4f;
      }

      .cls-12 {
        fill: #dd9403;
      }

      .cls-13 {
        fill: #84aa48;
      }

      .cls-14 {
        fill: #b6e073;
      }

      .cls-15 {
        fill: #8ea336;
      }

      .cls-16 {
        fill: #96c658;
      }

      .cls-17 {
        fill: #ffc107;
      }

      .cls-18 {
        fill: #dd9b0a;
      }

      .cls-19 {
        fill: #b7e279;
      }

      .cls-20 {
        fill: #83aa3f;
      }

      .cls-21 {
        fill: #ffdf9f;
      }

      .cls-22 {
        fill: #ffdb92;
      }

      .cls-23 {
        fill: #f4ae00;
      }

      .cls-24 {
        fill: #94bf55;
      }

      .cls-25 {
        fill: #c1e281;
      }
    </style>
  </defs>
  <path class="cls-19" d="m427.32,466.93c20.74,13.59,23.99,16.54,27.95,16.81,8.6.57,23.48-18.04,28.96-24.72,2.77-3.38,14.69-17.23,12.73-26.06-1.53-6.88-26.54-34.2-41.08-24.16-3.57,2.47-5.76,18.83-8.59,22.12-5.56,6.45-10.88,13.1-15.95,19.95l-4.01,16.06Z"/>
  <path class="cls-5" d="m458.95,407.32c10.57,5.23,22.66,18.32,23.84,23.64,2.77,12.46-26.54,43.51-35.63,48.98,5.86,3.84,9.04,6.08,16.6.37,9.55-7.22,29.44-29.48,32.76-41.34,1.26-4.5.69-7.03-1.72-10.4-7.63-10.68-24.08-25.18-35.84-21.24Z"/>
  <path class="cls-15" d="m229.89,398.52C114.64,274.64,70.91,242.35,38.01,182.58c34.82,15.9,83.29,47.73,110.48,74.66,34.07,33.74,48.5,62.51,86.31,92l-4.91,49.28Z"/>
  <path class="cls-1" d="m87.01,83.19c48.43,14.5,103.09,43.07,113.18,51.62,10.5,8.95,21.06,20.74,26.97,33.21l-1.49,1.93c-7.54-1.38-14.24-3.71-20.72-6.28-36.87-14.75-9.18-7.66-118.95-78.27l1.02-2.22Z"/>
  <path class="cls-8" d="m151.13,105.24c-7.11-9.56-12.72-23.52-13.53-35.41,235.05,168.46,218.22,152.88,217.56,164.95-.98,18.01-1.95,36.01-2.93,54.02-98.29-64.02-97.43-65.18-100.74-61.16-92.99-106.34-48.1-52.09-100.36-122.4Z"/>
  <path class="cls-7" d="m127.44,115.76c65.53,20.79,127.95,55.27,182.46,96.97,6.22,4.76,14.01-4.64,7.76-9.42-55.33-42.33-118.73-77.59-185.24-98.69-7.39-2.35-12.48,8.77-4.98,11.15h0Z"/>
  <path class="cls-12" d="m218.15,345.53c-36.28-31.16-73.95-62.37-102.65-100.63-12.03-16.04-23.47-26.73-34.21-43.66-6.48-10.22-10.63-30.32-15.48-41.41-3.91-8.94-7.14-21.23-4.39-29.47,2.58-7.71,11.03-15.34,14.07-16.08,25.33-6.23,59.76,4.47,84.49,12.79,72.89,24.5,263.87,162.49,242.31,236.15-5.83,19.93-25.4,33.58-45.78,37.58-35.1,6.88-96.31-12.43-124.65-36.97l-13.71-18.29Z"/>
  <g>
    <g>
      <g>
        <rect class="cls-17" x="355.95" y="259.86" width="30.06" height="31.52" rx="11.88" ry="11.88" transform="translate(-77.62 386.77) rotate(-50.53)"/>
        <path class="cls-23" d="m369.4,258.95c1.16.68,2.32,1.47,3.44,2.39h0c6.72,5.53,9.51,13.24,6.24,17.21-7.66,9.3-8.27,11.65-14.22,11.06,5.84,3.41,11.92,3.75,14.65.44l7.27-8.82c3.27-3.97.48-11.67-6.24-17.21-3.64-2.99-7.67-4.73-11.13-5.07Z"/>
        <path class="cls-21" d="m368.59,269.36c-6.1,4.09-4.03,5.52-7.21,11.91-4.9-6.47,1.22-15.44,7.21-11.91Z"/>
      </g>
      <g>
        <rect class="cls-17" x="332.39" y="240.46" width="30.06" height="31.52" rx="11.88" ry="11.88" transform="translate(-71.22 361.52) rotate(-50.53)"/>
        <path class="cls-23" d="m345.85,239.55c1.16.68,2.32,1.47,3.44,2.39h0c6.72,5.53,9.51,13.24,6.24,17.21-7.66,9.3-8.27,11.65-14.22,11.06,5.84,3.41,11.92,3.75,14.65.44l7.27-8.82c5.43-6.6-5.88-21.14-17.37-22.28Z"/>
        <path class="cls-21" d="m345.03,249.96c-6.1,4.09-4.03,5.52-7.21,11.91-4.99-6.59,1.31-15.39,7.21-11.91Z"/>
      </g>
      <g>
        <rect class="cls-17" x="308.84" y="221.07" width="30.06" height="31.52" rx="11.88" ry="11.88" transform="translate(-64.83 336.27) rotate(-50.53)"/>
        <path class="cls-23" d="m322.3,220.15c1.16.68,2.32,1.47,3.44,2.39h0c6.72,5.53,9.51,13.24,6.24,17.21-7.66,9.3-8.27,11.65-14.22,11.06,5.84,3.41,11.92,3.75,14.65.44l7.27-8.82c5.43-6.6-5.88-21.14-17.37-22.28Z"/>
        <path class="cls-21" d="m321.48,230.56c-6.1,4.09-4.03,5.52-7.21,11.91-4.99-6.59,1.31-15.39,7.21-11.91Z"/>
      </g>
      <g>
        <rect class="cls-17" x="285.29" y="201.67" width="30.06" height="31.52" rx="11.88" ry="11.88" transform="translate(-58.44 311.02) rotate(-50.53)"/>
        <path class="cls-23" d="m299.81,201.78c1.16.68,1.25.45,2.37,1.37h0c6.72,5.53,9.51,13.24,6.24,17.21-7.66,9.3-8.27,11.65-14.22,11.06,5.84,3.41,11.92,3.75,14.65.44l7.27-8.82c3.27-3.97.48-11.67-6.24-17.21-3.64-2.99-6.6-3.71-10.06-4.05Z"/>
      </g>
      <g>
        <rect class="cls-17" x="261.73" y="182.27" width="30.06" height="31.52" rx="11.88" ry="11.88" transform="translate(-52.04 285.77) rotate(-50.53)"/>
        <path class="cls-23" d="m276.14,182.51c1.16.68,1.36.32,2.48,1.24h0c6.72,5.53,9.51,13.24,6.24,17.21-7.66,9.3-8.27,11.65-14.22,11.06,5.84,3.41,11.92,3.75,14.65.44l7.27-8.82c3.27-3.97.48-11.67-6.24-17.21-3.64-2.99-6.71-3.57-10.17-3.92Z"/>
      </g>
      <g>
        <rect class="cls-17" x="238.18" y="162.87" width="30.06" height="31.52" rx="11.88" ry="11.88" transform="translate(-45.65 260.52) rotate(-50.53)"/>
        <path class="cls-23" d="m252.65,163.16c1.16.68,1.3.26,2.41,1.18h0c6.72,5.53,9.51,13.24,6.24,17.21-7.66,9.3-8.27,11.65-14.22,11.06,5.84,3.41,11.92,3.75,14.65.44l7.27-8.82c3.27-3.97.48-11.67-6.24-17.21-3.64-2.99-6.65-3.52-10.11-3.86Z"/>
      </g>
      <g>
        <rect class="cls-17" x="218.17" y="151.35" width="24.14" height="25.32" rx="9.55" ry="9.55" transform="translate(-42.73 237.47) rotate(-50.53)"/>
        <path class="cls-23" d="m228.95,151.55c.94.55,1.89.25,2.79.99h0c5.4,4.44,7.64,10.63,5.01,13.82-6.16,7.48-6.65,9.36-11.42,8.89,4.69,2.74,9.58,3.01,11.77.35l5.84-7.09c2.63-3.19.38-9.38-5.01-13.82-2.92-2.4-6.19-2.87-8.97-3.14Z"/>
      </g>
      <g>
        <rect class="cls-17" x="195.63" y="141.67" width="23.28" height="24.41" rx="9.21" ry="9.21" transform="translate(-43.27 216.05) rotate(-50.53)"/>
        <path class="cls-23" d="m206.1,141.96c.9.53,1.74.14,2.61.86h0c5.2,4.29,7.37,10.25,4.84,13.33-5.94,7.21-6.41,9.02-11.02,8.57,4.52,2.64,9.23,2.9,11.35.34l5.63-6.83c2.53-3.08.37-9.04-4.84-13.33-2.82-2.32-5.89-2.67-8.57-2.93Z"/>
      </g>
      <g>
        <rect class="cls-17" x="177.01" y="131.14" width="22.64" height="23.73" rx="8.95" ry="8.95" transform="translate(-41.78 197.47) rotate(-50.53)"/>
        <path class="cls-23" d="m187,131.28c.88.51,1.89.28,2.73.97h0c5.06,4.17,7.16,9.97,4.7,12.96-5.77,7.01-6.23,8.77-10.71,8.33,4.4,2.57,8.98,2.82,11.03.33l5.47-6.64c3.27-3.98-1.59-14.8-13.22-15.95Z"/>
      </g>
      <g>
        <rect class="cls-17" x="157.06" y="122.46" width="21.24" height="22.27" rx="8.4" ry="8.4" transform="translate(-42.04 178.1) rotate(-50.53)"/>
        <path class="cls-23" d="m165.81,122.61c.82.48,2.4.24,3.19.89h0c4.75,3.91,6.72,9.35,4.41,12.16-5.42,6.58-5.85,8.23-10.05,7.82,4.13,2.41,8.43,2.65,10.35.31l5.14-6.24c2.31-2.81.34-8.25-4.41-12.16-2.57-2.12-6.18-2.54-8.62-2.78Z"/>
      </g>
      <g>
        <rect class="cls-17" x="139.22" y="113.61" width="18.04" height="18.91" rx="7.13" ry="7.13" transform="translate(-41 159.26) rotate(-50.53)"/>
        <path class="cls-23" d="m147.85,113.75c.7.41.83.2,1.5.75h0c4.03,3.32,5.71,7.94,3.75,10.32-4.07,4.94-4.68,7.02-8.53,6.64,7.3,4.26,9.09-.1,13.15-5.03,2.72-3.31-1.81-11.89-9.86-12.68Z"/>
      </g>
      <g>
        <rect class="cls-17" x="125.5" y="109.18" width="15.26" height="16" rx="6.03" ry="6.03" transform="translate(-41.96 145.45) rotate(-50.53)"/>
        <path class="cls-23" d="m133.16,109.33c.59.34.35.13.92.59h0c3.41,2.81,4.83,6.72,3.17,8.74-3.3,4.01-3.87,5.95-7.22,5.62,6.18,3.61,7.7-.09,11.13-4.26,2.38-2.89-1.8-10.08-7.99-10.69Z"/>
      </g>
      <g>
        <rect class="cls-17" x="114.06" y="107.13" width="12.29" height="12.88" rx="4.86" ry="4.86" transform="translate(-43.88 134.16) rotate(-50.53)"/>
        <path class="cls-23" d="m119.71,107.26c.48.28.8.1,1.25.48h0c2.75,2.26,3.89,5.41,2.55,7.03-2.65,3.22-3.11,4.79-5.81,4.52,4.98,2.91,6.2-.08,8.96-3.43,1.82-2.21-1.01-8.02-6.95-8.61Z"/>
      </g>
      <g>
        <rect class="cls-17" x="103.8" y="105.72" width="12.29" height="12.88" rx="4.86" ry="4.86" transform="translate(-46.53 125.73) rotate(-50.53)"/>
        <path class="cls-23" d="m109.93,105.8c.48.28.32.15.78.52h0c2.75,2.26,3.89,5.41,2.55,7.03-2.65,3.22-3.11,4.79-5.81,4.52,4.98,2.91,6.2-.08,8.96-3.43,1.88-2.29-1.42-8.15-6.47-8.65Z"/>
        <path class="cls-21" d="m108.97,109.6c-2.23,1.69-1.5,2.49-2.95,4.87-2.42-2.65.52-6.6,2.95-4.87Z"/>
      </g>
      <g>
        <rect class="cls-17" x="94.77" y="106.86" width="8.58" height="8.99" rx="3.39" ry="3.39" transform="translate(-49.87 117.03) rotate(-50.53)"/>
        <path class="cls-23" d="m98.78,106.94c.33.19.49.08.81.34h0c1.92,1.58,2.71,3.78,1.78,4.91-2.05,2.48-2.17,3.34-4.06,3.16,3.43,2,4.21.09,6.25-2.39,1.27-1.54-.74-5.62-4.78-6.01Z"/>
        <path class="cls-21" d="m98.37,109.56c-1.04,1.11-.75,1.91-2.06,3.4-2.34-1.79.35-5.16,2.06-3.4Z"/>
      </g>
      <g>
        <rect class="cls-17" x="86.56" y="106.69" width="8.58" height="8.99" rx="3.39" ry="3.39" transform="translate(-52.73 110.63) rotate(-50.53)"/>
        <path class="cls-23" d="m90.58,106.77c.33.19.49.08.81.34h0c1.92,1.58,2.71,3.78,1.78,4.91-2.05,2.48-2.17,3.34-4.06,3.16,3.43,2,4.21.09,6.25-2.39,1.27-1.54-.74-5.62-4.78-6.01Z"/>
        <path class="cls-21" d="m90.17,109.4c-1.04,1.11-.75,1.91-2.06,3.4-2.34-1.79.35-5.16,2.06-3.4Z"/>
      </g>
      <g>
        <rect class="cls-17" x="78.87" y="106.11" width="7.78" height="8.15" rx="3.07" ry="3.07" transform="translate(-54.91 104.02) rotate(-50.53)"/>
        <path class="cls-23" d="m82.27,106.19c.3.18.68.07.97.31h0c1.74,1.43,2.46,3.42,1.61,4.45-1.21,1.46-1.97,3.03-3.68,2.86,3,1.75,3.62.32,5.67-2.17,1.16-1.41-.59-5.06-4.57-5.45Z"/>
      </g>
    </g>
    <g>
      <g>
        <rect class="cls-17" x="261.35" y="374.73" width="30.06" height="31.52" rx="11.88" ry="11.88" transform="translate(753.5 425.4) rotate(129.47)"/>
        <path class="cls-23" d="m259.71,392.14c.89,1.01,1.89,1.99,3,2.91h0c6.72,5.53,14.82,6.8,18.09,2.83,7.66-9.3,9.85-10.35,8.13-16.08,4.47,5.08,5.97,10.98,3.24,14.29l-7.27,8.82c-5.43,6.6-21.88-1.72-25.19-12.78Z"/>
      </g>
      <g>
        <rect class="cls-17" x="237.79" y="355.34" width="30.06" height="31.52" rx="11.88" ry="11.88" transform="translate(700 411.85) rotate(129.47)"/>
        <path class="cls-23" d="m236.16,372.75c.89,1.01,1.89,1.99,3,2.91h0c6.72,5.53,14.82,6.8,18.09,2.83,7.66-9.3,9.85-10.35,8.13-16.08,4.47,5.08,5.97,10.98,3.24,14.29l-7.27,8.82c-5.43,6.6-21.88-1.72-25.19-12.78Z"/>
      </g>
      <g>
        <rect class="cls-17" x="214.24" y="335.94" width="30.06" height="31.52" rx="11.88" ry="11.88" transform="translate(646.5 398.3) rotate(129.47)"/>
        <path class="cls-23" d="m212.6,353.35c.89,1.01,1.89,1.99,3,2.91h0c6.72,5.53,14.82,6.8,18.09,2.83,7.66-9.3,9.85-10.35,8.13-16.08,4.47,5.08,5.97,10.98,3.24,14.29l-7.27,8.82c-5.43,6.6-21.88-1.72-25.19-12.78Z"/>
      </g>
      <g>
        <rect class="cls-17" x="190.68" y="316.54" width="30.06" height="31.52" rx="11.88" ry="11.88" transform="translate(592.99 384.75) rotate(129.47)"/>
        <path class="cls-23" d="m190.2,333.54c.89,1.01.74,2.41,1.86,3.33h0c6.72,5.53,14.82,6.8,18.09,2.83,7.66-9.3,9.85-10.35,8.13-16.08,4.47,5.08,5.97,10.98,3.24,14.29l-7.27,8.82c-3.27,3.97-11.37,2.7-18.09-2.83-3.64-2.99-4.96-7.03-5.96-10.36Z"/>
      </g>
      <g>
        <rect class="cls-17" x="167.13" y="297.14" width="30.06" height="31.52" rx="11.88" ry="11.88" transform="translate(539.49 371.2) rotate(129.47)"/>
        <path class="cls-23" d="m166.6,314.99c.89,1.01.78,1.56,1.9,2.48h0c6.72,5.53,14.82,6.8,18.09,2.83,7.66-9.3,9.85-10.35,8.13-16.08,4.47,5.08,5.97,10.98,3.24,14.29l-7.27,8.82c-3.27,3.97-11.37,2.7-18.09-2.83-3.64-2.99-5-6.19-6-9.52Z"/>
      </g>
      <g>
        <rect class="cls-17" x="143.57" y="277.74" width="30.06" height="31.52" rx="11.88" ry="11.88" transform="translate(485.99 357.66) rotate(129.47)"/>
        <path class="cls-23" d="m143.13,295.22c.89,1.01.69,1.93,1.81,2.85h0c6.72,5.53,14.82,6.8,18.09,2.83,7.66-9.3,9.85-10.35,8.13-16.08,4.47,5.08,5.97,10.98,3.24,14.29l-7.27,8.82c-4.41,5.35-19.77,1.4-24-12.71Z"/>
      </g>
      <g>
        <rect class="cls-17" x="127.78" y="261.11" width="24.14" height="25.32" rx="9.55" ry="9.55" transform="translate(440.09 339.85) rotate(129.47)"/>
        <path class="cls-23" d="m127.17,274.6c.71.81.82,2.09,1.72,2.83h0c5.4,4.44,11.9,5.46,14.53,2.27,6.16-7.48,7.91-8.32,6.53-12.92,3.59,4.08,4.79,8.82,2.6,11.48l-5.84,7.09c-2.63,3.19-9.13,2.17-14.53-2.27-2.92-2.4-4.21-5.81-5.01-8.48Z"/>
      </g>
      <g>
        <rect class="cls-17" x="113.86" y="240.96" width="23.28" height="24.41" rx="9.21" ry="9.21" transform="translate(400.7 317.23) rotate(129.47)"/>
        <path class="cls-23" d="m113.4,254.26c.69.78.66,1.73,1.52,2.44h0c5.2,4.29,11.48,5.27,14.01,2.19,5.94-7.21,7.63-8.03,6.3-12.46,3.46,3.93,4.62,8.51,2.51,11.07l-5.63,6.83c-2.53,3.08-8.8,2.09-14.01-2.19-2.82-2.32-3.93-5.31-4.7-7.89Z"/>
      </g>
      <g>
        <rect class="cls-17" x="99.88" y="224.79" width="22.64" height="23.73" rx="8.95" ry="8.95" transform="translate(364.57 301.27) rotate(129.47)"/>
        <path class="cls-23" d="m99.52,237.78c.67.76.56,1.63,1.4,2.32h0c5.06,4.17,11.16,5.12,13.62,2.13,5.77-7.01,7.42-7.8,6.12-12.11,3.36,3.82,4.49,8.27,2.44,10.76l-5.47,6.64c-3.31,4.02-14.83,1.16-18.11-9.75Z"/>
      </g>
      <g>
        <rect class="cls-17" x="87.38" y="207.06" width="21.24" height="22.27" rx="8.4" ry="8.4" transform="translate(328.74 281.26) rotate(129.47)"/>
        <path class="cls-23" d="m86.82,218.53c.63.72.75,2.24,1.54,2.89h0c4.75,3.91,10.47,4.8,12.78,2,5.42-6.58,6.96-7.32,5.75-11.36,3.16,3.59,4.22,7.76,2.29,10.1l-5.14,6.24c-2.31,2.81-8.03,1.91-12.78-2-2.57-2.12-3.73-5.51-4.44-7.87Z"/>
      </g>
      <g>
        <rect class="cls-17" x="74.93" y="191.68" width="18.04" height="18.91" rx="7.13" ry="7.13" transform="translate(292.58 264.19) rotate(129.47)"/>
        <path class="cls-23" d="m74.54,201.17c.53.61.55,2.15,1.21,2.7h0c4.03,3.32,8.89,4.08,10.85,1.7,4.07-4.94,5.99-5.94,4.88-9.65,5.58,6.35,1.64,8.94-2.42,13.87-1.96,2.38-6.82,1.62-10.85-1.7-2.18-1.8-3.08-4.92-3.68-6.92Z"/>
      </g>
      <g>
        <rect class="cls-17" x="67.64" y="179.43" width="15.26" height="16" rx="6.03" ry="6.03" transform="translate(267.8 248.48) rotate(129.47)"/>
        <path class="cls-23" d="m67.47,187.89c.45.51.29,1.4.86,1.86h0c3.41,2.81,7.52,3.45,9.18,1.44,3.3-4.01,5.1-4.94,4.13-8.17,4.73,5.38,1.38,7.58-2.04,11.74-1.66,2.02-5.77,1.37-9.18-1.44-1.85-1.52-2.44-3.75-2.94-5.44Z"/>
      </g>
      <g>
        <rect class="cls-17" x="63.11" y="168.99" width="12.29" height="12.88" rx="4.86" ry="4.86" transform="translate(248.71 233.5) rotate(129.47)"/>
        <path class="cls-23" d="m63.06,176.45c.36.41.16.47.62.85h0c2.75,2.26,6.06,2.78,7.39,1.16,2.65-3.22,4.1-3.97,3.32-6.57,3.81,4.33,1.11,6.1-1.65,9.45-1.83,2.22-8.09.44-9.69-4.88Z"/>
      </g>
      <g>
        <rect class="cls-17" x="59.76" y="159.2" width="12.29" height="12.88" rx="4.86" ry="4.86" transform="translate(235.66 220.08) rotate(129.47)"/>
        <path class="cls-23" d="m59.75,166.59c.36.41.11.54.56.92h0c2.75,2.26,6.06,2.78,7.39,1.16,2.65-3.22,4.1-3.97,3.32-6.57,3.81,4.33,1.11,6.1-1.65,9.45-1.81,2.2-7.99.55-9.63-4.95Z"/>
        <path class="cls-21" d="m63.2,165.18c-2.25-2.13,1.25-5.63,4.21-3.82-2.06,1.88-2.99,1.32-4.21,3.82Z"/>
      </g>
      <g>
        <rect class="cls-17" x="58.73" y="150.61" width="8.58" height="8.99" rx="3.39" ry="3.39" transform="translate(222.82 205.07) rotate(129.47)"/>
        <path class="cls-23" d="m58.78,155.91c.25.29.03.24.34.5h0c1.92,1.58,4.23,1.94,5.16.81,2.05-2.48,2.86-2.78,2.32-4.59,2.62,2.98.9,4.11-1.15,6.6-1.27,1.54-5.58.35-6.68-3.32Z"/>
        <path class="cls-21" d="m61.14,154.78c-2.14-1.4.8-4.56,2.94-2.67-1.21,1.57-2.05,1.44-2.94,2.67Z"/>
      </g>
      <g>
        <rect class="cls-17" x="56.99" y="142.59" width="8.58" height="8.99" rx="3.39" ry="3.39" transform="translate(213.78 193.29) rotate(129.47)"/>
        <path class="cls-23" d="m56.84,147.06c.25.29.23,1.06.54,1.33h0c1.92,1.58,4.23,1.94,5.16.81,2.05-2.48,2.86-2.77,2.32-4.59,2.62,2.98.9,4.11-1.15,6.6-.93,1.13-3.24.77-5.16-.81-1.04-.85-1.43-2.38-1.72-3.33Z"/>
        <path class="cls-21" d="m59.4,146.76c-2.14-1.4.8-4.56,2.94-2.67-1.21,1.57-2.05,1.44-2.94,2.67Z"/>
      </g>
      <g>
        <rect class="cls-17" x="54.86" y="135.26" width="7.78" height="8.15" rx="3.07" ry="3.07" transform="translate(203.65 182.56) rotate(129.47)"/>
        <path class="cls-23" d="m54.78,139.44c.23.26.15.84.44,1.08h0c1.74,1.43,3.83,1.76,4.68.73,1.21-1.46,2.6-2.52,2.1-4.16,2.29,2.61,1,3.5-1.04,5.98-.85,1.03-2.94.7-4.68-.73-.94-.77-1.24-2.03-1.5-2.9Z"/>
      </g>
    </g>
    <g>
      <rect class="cls-17" x="326.27" y="283.27" width="50.86" height="31.52" rx="12.46" ry="12.46" transform="translate(-102.71 380.42) rotate(-50.53)"/>
      <path class="cls-23" d="m355.35,276.02c1.26.56,2.47,1.29,3.59,2.21h0c6.72,5.53,7.68,15.46,2.15,22.18-12.97,15.75-14.55,19.26-21.96,20.45,6.32,2.83,13.98,1.25,18.6-4.35l12.29-14.93c9.21-11.19-.37-27.86-14.67-25.56Z"/>
    </g>
    <g>
      <rect class="cls-17" x="351.4" y="303.96" width="50.86" height="31.52" rx="12.46" ry="12.46" transform="translate(-109.53 407.35) rotate(-50.53)"/>
      <path class="cls-23" d="m380.47,296.71c1.26.56,2.47,1.29,3.59,2.21h0c6.72,5.53,7.68,15.46,2.15,22.18-12.97,15.75-14.55,19.26-21.96,20.45,6.32,2.83,13.98,1.25,18.6-4.35l12.29-14.93c5.53-6.72,4.57-16.65-2.15-22.18-3.64-2.99-8.21-4.07-12.52-3.38Z"/>
    </g>
    <g>
      <rect class="cls-17" x="302.72" y="263.87" width="50.86" height="31.52" rx="12.46" ry="12.46" transform="translate(-96.32 355.17) rotate(-50.53)"/>
      <path class="cls-23" d="m331.79,256.62c1.26.56,2.47,1.29,3.59,2.21h0c6.72,5.53,7.68,15.46,2.15,22.18-12.97,15.75-14.55,19.26-21.96,20.45,6.32,2.83,13.98,1.25,18.6-4.35l12.29-14.93c5.53-6.72,4.57-16.65-2.15-22.18-3.64-2.99-8.21-4.07-12.52-3.38Z"/>
    </g>
    <g>
      <rect class="cls-17" x="279.16" y="244.47" width="50.86" height="31.52" rx="12.46" ry="12.46" transform="translate(-89.92 329.92) rotate(-50.53)"/>
      <path class="cls-23" d="m308.24,237.23c1.26.56,2.47,1.29,3.59,2.21h0c6.72,5.53,7.68,15.46,2.15,22.18-12.97,15.75-14.55,19.26-21.96,20.45,6.32,2.83,13.98,1.25,18.6-4.35l12.29-14.93c9.21-11.19-.37-27.86-14.67-25.56Z"/>
    </g>
    <g>
      <rect class="cls-17" x="255.61" y="225.08" width="50.86" height="31.52" rx="12.46" ry="12.46" transform="translate(-83.53 304.67) rotate(-50.53)"/>
      <path class="cls-23" d="m284.68,217.83c1.26.56,2.47,1.29,3.59,2.21h0c6.72,5.53,7.68,15.46,2.15,22.18-12.97,15.75-14.55,19.26-21.96,20.45,6.32,2.83,13.98,1.25,18.6-4.35l12.29-14.93c9.21-11.19-.37-27.86-14.67-25.56Z"/>
    </g>
    <g>
      <rect class="cls-17" x="232.05" y="205.68" width="50.86" height="31.52" rx="12.46" ry="12.46" transform="translate(-77.13 279.42) rotate(-50.53)"/>
      <path class="cls-23" d="m261.13,198.43c1.26.56,2.47,1.29,3.59,2.21h0c6.72,5.53,7.68,15.46,2.15,22.18-12.97,15.75-14.55,19.26-21.96,20.45,6.32,2.83,13.98,1.25,18.6-4.35l12.29-14.93c5.53-6.72,4.57-16.65-2.15-22.18-3.64-2.99-8.21-4.07-12.52-3.38Z"/>
    </g>
    <g>
      <rect class="cls-17" x="208.5" y="186.28" width="50.86" height="31.52" rx="12.46" ry="12.46" transform="translate(-70.74 254.17) rotate(-50.53)"/>
      <path class="cls-23" d="m237.57,179.03c1.26.56,2.47,1.29,3.59,2.21h0c6.72,5.53,7.68,15.46,2.15,22.18-12.97,15.75-14.55,19.26-21.96,20.45,6.32,2.83,13.98,1.25,18.6-4.35l12.29-14.93c5.53-6.72,4.57-16.65-2.15-22.18-3.64-2.99-8.21-4.07-12.52-3.38Z"/>
    </g>
    <g>
      <rect class="cls-17" x="186.7" y="171.48" width="46.51" height="28.82" rx="11.4" ry="11.4" transform="translate(-67.01 229.78) rotate(-50.53)"/>
      <path class="cls-23" d="m213.29,164.85c1.15.52,2.26,1.18,3.28,2.02h0c6.14,5.06,7.02,14.14,1.96,20.29-11.84,14.38-13.3,17.62-20.08,18.71,5.78,2.59,12.79,1.14,17.01-3.98l11.24-13.65c5.06-6.14,4.18-15.23-1.96-20.29-3.32-2.74-7.51-3.72-11.45-3.09Z"/>
    </g>
    <g>
      <rect class="cls-17" x="165.97" y="161.5" width="39.39" height="24.41" rx="9.65" ry="9.65" transform="translate(-66.46 206.6) rotate(-50.53)"/>
      <path class="cls-23" d="m188.49,155.89c.98.44,1.91,1,2.78,1.71h0c5.2,4.29,5.95,11.98,1.66,17.18-10.03,12.18-11.26,14.92-17.01,15.84,4.89,2.19,10.83.97,14.4-3.37l9.52-11.56c4.29-5.2,3.54-12.9-1.66-17.18-2.82-2.32-6.36-3.15-9.7-2.62Z"/>
    </g>
    <g>
      <path class="cls-17" d="m157.45,147.97h19.53c5.18,0,9.38,4.2,9.38,9.38v4.97c0,5.18-4.2,9.38-9.38,9.38h-19.53c-5.18,0-9.38-4.2-9.38-9.38v-4.97c0-5.18,4.2-9.38,9.38-9.38Z" transform="translate(-62.47 187.31) rotate(-50.53)"/>
      <path class="cls-23" d="m169.96,142.51c.95.42,1.86.97,2.7,1.66h0c5.06,4.17,5.78,11.65,1.62,16.7-9.75,11.83-10.95,14.51-16.53,15.4,4.76,2.13,10.53.94,14-3.28l9.26-11.24c6.94-8.43-.28-20.98-11.04-19.25Z"/>
    </g>
    <g>
      <rect class="cls-17" x="130.16" y="135.79" width="35.94" height="22.27" rx="8.81" ry="8.81" transform="translate(-59.46 167.87) rotate(-50.53)"/>
      <path class="cls-23" d="m150.71,130.67c.89.4,1.75.91,2.53,1.56h0c4.75,3.91,5.43,10.93,1.52,15.68-9.15,11.1-10.28,13.61-15.52,14.45,4.46,2,9.88.88,13.14-3.08l8.69-10.55c3.91-4.75,3.23-11.77-1.52-15.68-2.57-2.12-5.8-2.88-8.85-2.39Z"/>
    </g>
    <g>
      <rect class="cls-17" x="114.54" y="127.21" width="30.51" height="18.91" rx="7.48" ry="7.48" transform="translate(-58.21 149.98) rotate(-50.53)"/>
      <path class="cls-23" d="m131.99,122.86c.76.34,1.48.77,2.15,1.32h0c4.03,3.32,4.61,9.28,1.29,13.31-7.77,9.44-8.73,11.56-13.17,12.27,8.15,3.65,12.37-4.09,18.53-11.57,5.53-6.71-.22-16.71-8.8-15.34Z"/>
    </g>
    <g>
      <path class="cls-17" d="m106.89,121.84h13.17c3.49,0,6.33,2.84,6.33,6.33v3.35c0,3.49-2.84,6.33-6.33,6.33h-13.17c-3.49,0-6.33-2.84-6.33-6.33v-3.35c0-3.49,2.84-6.33,6.33-6.33Z" transform="translate(-58.89 134.89) rotate(-50.53)"/>
      <path class="cls-23" d="m115.33,118.16c.64.29,1.25.65,1.82,1.12h0c3.41,2.81,3.9,7.85,1.09,11.26-5.4,6.56-6.91,9.71-11.15,10.39,6.9,3.09,10.47-3.46,15.69-9.79,4.68-5.68-.19-14.14-7.45-12.98Z"/>
    </g>
    <g>
      <rect class="cls-17" x="89.9" y="116.8" width="20.79" height="12.88" rx="5.09" ry="5.09" transform="translate(-58.6 122.32) rotate(-50.53)"/>
      <path class="cls-23" d="m101.79,113.84c.51.23,1.01.53,1.47.9h0c2.75,2.26,3.14,6.32.88,9.07-4.28,5.2-5.53,7.81-8.98,8.36,5.56,2.49,8.43-2.78,12.63-7.88,3.77-4.57-.15-11.39-6-10.45Z"/>
    </g>
    <g>
      <path class="cls-17" d="m94.7,120.35c-3.87,4.7-6.26,9.03-9.71,6.2l-1.45-1.2c-1.52-1.25-1.73-3.49-.48-5,3.87-4.7,6.26-9.03,9.71-6.2l1.45,1.2c1.52,1.25,1.73,3.49.48,5Z"/>
      <path class="cls-23" d="m89.92,113.79c.36.16.7.37,1.02.63h0c4.09,3.37-.14,7.24-2.9,10.59-.72.88-1.71,1.41-2.76,1.58,3.88,1.74,5.89-1.95,8.81-5.5,2.63-3.19-.11-7.95-4.18-7.29Z"/>
      <path class="cls-21" d="m88.61,118.06c-1.43,1.75-2.51,4.16-3.78,5.5-1.35-2.94,1.25-6.37,3.78-5.5Z"/>
    </g>
    <g>
      <path class="cls-17" d="m86.32,116.54c-3.33,4.04-5.66,8.2-8.8,5.62l-1.32-1.08c-1.37-1.13-1.57-3.16-.44-4.54,3.33-4.04,5.66-8.2,8.8-5.62l1.32,1.08c1.37,1.13,1.57,3.16.44,4.54Z"/>
      <path class="cls-23" d="m81.98,110.58c.33.15.64.33.93.57h0c3.71,3.05-.13,6.56-2.63,9.6-.66.8-1.55,1.28-2.5,1.43,3.51,1.57,5.33-1.75,7.99-4.99,2.38-2.89-.1-7.21-3.79-6.61Z"/>
    </g>
    <g>
      <path class="cls-17" d="m77.38,113.85c-2.23,2.7-4.1,6.17-6.53,4.17l-.98-.81c-1.02-.84-1.17-2.35-.33-3.37,2.23-2.7,4.11-6.17,6.53-4.17l.98.81c1.02.84,1.17,2.35.33,3.37Z"/>
      <path class="cls-23" d="m74.16,109.43c.24.11.47.25.69.42h0c2.72,2.24.1,4.64-1.95,7.13-.49.59-1.15.95-1.85,1.06,2.64,1.18,4.08-1.45,5.93-3.7,1.77-2.15-.07-5.35-2.82-4.91Z"/>
    </g>
    <g>
      <g>
        <rect class="cls-17" x="270.34" y="351.19" width="50.86" height="31.52" rx="12.46" ry="12.46" transform="translate(767.05 371.91) rotate(129.47)"/>
        <path class="cls-23" d="m273.89,374.93c.8,1.13,1.74,2.18,2.85,3.1h0c6.72,5.53,16.65,4.57,22.18-2.15,12.97-15.75,16.12-17.97,15.86-25.47,3.99,5.66,3.91,13.48-.71,19.09l-12.29,14.93c-9.21,11.19-27.41,4.98-27.9-9.49Z"/>
      </g>
      <g>
        <rect class="cls-17" x="246.79" y="331.79" width="50.86" height="31.52" rx="12.46" ry="12.46" transform="translate(713.54 358.36) rotate(129.47)"/>
        <path class="cls-23" d="m250.33,355.54c.8,1.13,1.74,2.18,2.85,3.1h0c6.72,5.53,16.65,4.57,22.18-2.15,12.97-15.75,16.12-17.97,15.86-25.47,3.99,5.66,3.91,13.48-.71,19.09l-12.29,14.93c-9.21,11.19-27.41,4.98-27.9-9.49Z"/>
      </g>
      <g>
        <rect class="cls-17" x="223.23" y="312.39" width="50.86" height="31.52" rx="12.46" ry="12.46" transform="translate(660.04 344.81) rotate(129.47)"/>
        <path class="cls-23" d="m226.78,336.14c.8,1.13,1.74,2.18,2.85,3.1h0c6.72,5.53,16.65,4.57,22.18-2.15,12.97-15.75,16.12-17.97,15.86-25.47,3.99,5.66,3.91,13.48-.71,19.09l-12.29,14.93c-9.21,11.19-27.41,4.98-27.9-9.49Z"/>
      </g>
      <g>
        <rect class="cls-17" x="199.68" y="292.99" width="50.86" height="31.52" rx="12.46" ry="12.46" transform="translate(606.54 331.26) rotate(129.47)"/>
        <path class="cls-23" d="m203.22,316.74c.79,1.13,1.74,2.18,2.85,3.1h0c6.72,5.53,16.65,4.57,22.18-2.15,12.97-15.75,16.12-17.97,15.86-25.47,3.99,5.66,3.91,13.48-.71,19.09l-12.29,14.93c-9.21,11.19-27.41,4.98-27.9-9.49Z"/>
      </g>
      <g>
        <rect class="cls-17" x="176.12" y="273.59" width="50.86" height="31.52" rx="12.46" ry="12.46" transform="translate(553.03 317.72) rotate(129.47)"/>
        <path class="cls-23" d="m179.67,297.34c.8,1.13,1.74,2.18,2.85,3.1h0c6.72,5.53,16.65,4.57,22.18-2.15,12.97-15.75,16.12-17.97,15.86-25.47,3.99,5.66,3.91,13.48-.71,19.09l-12.29,14.93c-5.53,6.72-15.46,7.68-22.18,2.15-3.64-2.99-5.57-7.28-5.72-11.64Z"/>
      </g>
      <g>
        <rect class="cls-17" x="152.57" y="254.19" width="50.86" height="31.52" rx="12.46" ry="12.46" transform="translate(499.53 304.17) rotate(129.47)"/>
        <path class="cls-23" d="m156.11,277.94c.8,1.13,1.74,2.18,2.85,3.1h0c6.72,5.53,16.65,4.57,22.18-2.15,12.97-15.75,16.12-17.97,15.86-25.47,3.99,5.66,3.91,13.48-.71,19.09l-12.29,14.93c-9.21,11.19-27.41,4.98-27.9-9.49Z"/>
      </g>
      <g>
        <rect class="cls-17" x="134.3" y="235.1" width="46.51" height="28.82" rx="11.4" ry="11.4" transform="translate(450.32 286.52) rotate(129.47)"/>
        <path class="cls-23" d="m137.54,256.82c.73,1.03,1.59,1.99,2.61,2.83h0c6.14,5.06,15.23,4.18,20.29-1.96,11.84-14.38,14.74-16.43,14.51-23.3,3.65,5.17,3.57,12.33-.65,17.46l-11.24,13.65c-5.06,6.14-14.14,7.02-20.29,1.96-3.32-2.74-5.09-6.65-5.23-10.65Z"/>
      </g>
      <g>
        <rect class="cls-17" x="121.24" y="215.81" width="39.39" height="24.41" rx="9.65" ry="9.65" transform="translate(406.55 264.17) rotate(129.47)"/>
        <path class="cls-23" d="m123.99,234.2c.62.87,1.35,1.69,2.21,2.4h0c5.2,4.29,12.9,3.54,17.18-1.66,10.03-12.18,12.48-13.91,12.29-19.73,3.09,4.38,3.03,10.44-.55,14.78l-9.52,11.56c-7.14,8.67-21.23,3.86-21.61-7.35Z"/>
      </g>
      <g>
        <path class="cls-17" d="m114.02,200.71h19.53c5.18,0,9.38,4.2,9.38,9.38v4.97c0,5.18-4.2,9.38-9.38,9.38h-19.53c-5.18,0-9.38-4.2-9.38-9.38v-4.97c0-5.18,4.2-9.38,9.38-9.38Z" transform="translate(366.57 252.15) rotate(129.47)"/>
        <path class="cls-23" d="m107.31,218.59c.6.85,1.31,1.64,2.15,2.33h0c5.06,4.17,12.54,3.44,16.7-1.62,9.75-11.83,12.14-13.53,11.95-19.18,3,4.26,2.94,10.15-.53,14.37l-9.26,11.24c-4.17,5.06-11.64,5.78-16.7,1.62-2.74-2.25-4.19-5.48-4.3-8.77Z"/>
      </g>
      <g>
        <rect class="cls-17" x="89.49" y="185.18" width="35.94" height="22.27" rx="8.81" ry="8.81" transform="translate(327.32 238.16) rotate(129.47)"/>
        <path class="cls-23" d="m92,201.96c.56.8,1.23,1.54,2.02,2.19h0c4.75,3.91,11.77,3.23,15.68-1.52,9.15-11.1,11.39-12.69,11.21-18,2.82,4,2.76,9.53-.5,13.49l-8.69,10.55c-3.91,4.75-10.93,5.43-15.68,1.52-2.57-2.12-3.94-5.14-4.04-8.23Z"/>
      </g>
      <g>
        <rect class="cls-17" x="78.61" y="170.83" width="30.51" height="18.91" rx="7.48" ry="7.48" transform="translate(292.71 222.44) rotate(129.47)"/>
        <path class="cls-23" d="m80.74,185.08c.48.68,1.04,1.31,1.71,1.86h0c4.03,3.32,9.99,2.74,13.31-1.29,7.77-9.44,9.67-10.78,9.52-15.28,5.15,7.3-1.64,12.93-7.8,20.41-5.53,6.71-16.45,2.99-16.74-5.7Z"/>
      </g>
      <g>
        <path class="cls-17" d="m77.46,157.57h13.17c3.49,0,6.33,2.84,6.33,6.33v3.35c0,3.49-2.84,6.33-6.33,6.33h-13.17c-3.49,0-6.33-2.84-6.33-6.33v-3.35c0-3.49,2.84-6.33,6.33-6.33Z" transform="translate(265.29 205.96) rotate(129.47)"/>
        <path class="cls-23" d="m72.94,169.63c.4.57.88,1.11,1.45,1.57h0c3.41,2.81,8.45,2.32,11.26-1.09,5.4-6.56,8.2-8.65,8.06-12.93,4.36,6.18-1.39,10.94-6.6,17.27-4.68,5.68-13.92,2.53-14.17-4.82Z"/>
      </g>
      <g>
        <rect class="cls-17" x="64.65" y="147.47" width="20.79" height="12.88" rx="5.09" ry="5.09" transform="translate(241.56 193.82) rotate(129.47)"/>
        <path class="cls-23" d="m66.1,157.17c.33.46.71.89,1.17,1.27h0c2.75,2.26,6.81,1.87,9.07-.88,4.28-5.2,6.6-6.93,6.49-10.41,3.51,4.98-1.12,8.8-5.32,13.9-3.77,4.57-11.2,2.03-11.4-3.88Z"/>
      </g>
      <g>
        <path class="cls-17" d="m71.14,148.97c3.87-4.7,7.67-7.88,4.22-10.72l-1.45-1.2c-1.52-1.25-3.76-1.03-5.01.48-3.87,4.7-7.67,7.88-4.22,10.72l1.45,1.2c1.52,1.25,3.76,1.03,5-.48Z"/>
        <path class="cls-23" d="m63.77,145.53c.23.32.5.62.81.88h0c4.09,3.37,7.08-1.53,9.84-4.87.72-.88,1.05-1.95,1.02-3.01,2.45,3.47-.78,6.15-3.71,9.71-2.63,3.19-7.82,1.42-7.96-2.71Z"/>
      </g>
      <g>
        <path class="cls-17" d="m65.78,141.47c3.33-4.04,6.96-7.13,3.83-9.72l-1.32-1.08c-1.37-1.13-3.41-.94-4.54.44-3.33,4.04-6.97,7.13-3.83,9.72l1.32,1.08c1.37,1.13,3.41.94,4.54-.44Z"/>
        <path class="cls-23" d="m59.11,138.36c.21.29.45.56.74.8h0c3.71,3.05,6.42-1.38,8.92-4.42.66-.8.96-1.77.92-2.73,2.22,3.14-.7,5.56-3.36,8.8-2.38,2.89-7.09,1.29-7.22-2.46Z"/>
      </g>
      <g>
        <path class="cls-17" d="m61.44,133.22c2.23-2.7,5.27-5.21,2.84-7.21l-.98-.81c-1.02-.84-2.53-.69-3.37.33-2.23,2.7-5.27,5.21-2.84,7.21l.98.81c1.02.84,2.53.69,3.37-.33Z"/>
        <path class="cls-23" d="m56.48,130.91c.15.22.33.42.55.59h0c2.72,2.24,4.57-.79,6.62-3.28.49-.59.71-1.31.69-2.02,1.66,2.36-.64,4.28-2.5,6.53-1.77,2.15-5.26.96-5.36-1.82Z"/>
      </g>
    </g>
    <g>
      <rect class="cls-17" x="310.12" y="327.42" width="50.86" height="31.52" rx="12.46" ry="12.46" transform="translate(-142.67 384.03) rotate(-50.53)"/>
      <path class="cls-23" d="m339.19,320.17c1.26.56,2.47,1.29,3.59,2.21h0c6.72,5.53,7.68,15.46,2.15,22.18-12.97,15.75-14.55,19.26-21.96,20.45,6.32,2.83,13.98,1.25,18.6-4.35l12.29-14.93c9.21-11.19-.37-27.86-14.67-25.56Z"/>
    </g>
    <g>
      <rect class="cls-17" x="286.56" y="308.02" width="50.86" height="31.52" rx="12.46" ry="12.46" transform="translate(-136.28 358.78) rotate(-50.53)"/>
      <path class="cls-23" d="m315.64,300.77c1.26.56,2.47,1.29,3.59,2.21h0c6.72,5.53,7.68,15.46,2.15,22.18-12.97,15.75-14.55,19.26-21.96,20.45,6.32,2.83,13.98,1.25,18.6-4.35l12.29-14.93c9.21-11.19-.37-27.86-14.67-25.56Z"/>
    </g>
    <g>
      <rect class="cls-17" x="263.01" y="288.62" width="50.86" height="31.52" rx="12.46" ry="12.46" transform="translate(-129.89 333.53) rotate(-50.53)"/>
      <path class="cls-23" d="m292.08,281.37c1.26.56,2.47,1.29,3.59,2.21h0c6.72,5.53,7.68,15.46,2.15,22.18-12.97,15.75-14.55,19.26-21.96,20.45,6.32,2.83,13.98,1.25,18.6-4.35l12.29-14.93c9.21-11.19-.37-27.86-14.67-25.56Z"/>
    </g>
    <g>
      <rect class="cls-17" x="239.45" y="269.22" width="50.86" height="31.52" rx="12.46" ry="12.46" transform="translate(-123.49 308.28) rotate(-50.53)"/>
      <path class="cls-23" d="m268.53,261.97c1.26.56,2.47,1.29,3.59,2.21h0c6.72,5.53,7.68,15.46,2.15,22.18-12.97,15.75-14.55,19.26-21.96,20.45,6.32,2.83,13.98,1.25,18.6-4.35l12.29-14.93c9.21-11.19-.37-27.86-14.67-25.56Z"/>
    </g>
    <g>
      <rect class="cls-17" x="215.9" y="249.82" width="50.86" height="31.52" rx="12.46" ry="12.46" transform="translate(-117.1 283.03) rotate(-50.53)"/>
      <path class="cls-23" d="m244.97,242.58c1.26.56,2.47,1.29,3.59,2.21h0c6.72,5.53,7.68,15.46,2.15,22.18-12.97,15.75-14.55,19.26-21.96,20.45,6.32,2.83,13.98,1.25,18.6-4.35l12.29-14.93c9.21-11.19-.37-27.86-14.67-25.56Z"/>
    </g>
    <g>
      <rect class="cls-17" x="192.34" y="230.43" width="50.86" height="31.52" rx="12.46" ry="12.46" transform="translate(-110.7 257.78) rotate(-50.53)"/>
      <path class="cls-23" d="m221.42,223.18c1.26.56,2.47,1.29,3.59,2.21h0c6.72,5.53,7.68,15.46,2.15,22.18-12.97,15.75-14.55,19.26-21.96,20.45,6.32,2.83,13.98,1.25,18.6-4.35l12.29-14.93c9.21-11.19-.37-27.86-14.67-25.56Z"/>
    </g>
    <g>
      <rect class="cls-17" x="172.05" y="213.79" width="46.51" height="28.82" rx="11.4" ry="11.4" transform="translate(-105.01 233.89) rotate(-50.53)"/>
      <path class="cls-23" d="m198.64,207.16c1.15.52,2.26,1.18,3.28,2.02h0c6.14,5.06,7.02,14.14,1.96,20.29-11.84,14.38-13.3,17.62-20.08,18.71,5.78,2.59,12.79,1.14,17.01-3.98l11.24-13.65c8.43-10.23-.34-25.48-13.41-23.38Z"/>
    </g>
    <g>
      <path class="cls-17" d="m165.07,198.85h20.09c5.33,0,9.65,4.32,9.65,9.65v5.11c0,5.33-4.32,9.65-9.65,9.65h-20.09c-5.33,0-9.65-4.32-9.65-9.65v-5.11c0-5.33,4.32-9.65,9.65-9.65Z" transform="translate(-99.12 212.06) rotate(-50.53)"/>
      <path class="cls-23" d="m177.94,193.23c.98.44,1.91,1,2.78,1.71h0c5.2,4.29,5.95,11.98,1.66,17.18-10.03,12.18-11.26,14.92-17.01,15.84,4.89,2.19,10.83.97,14.4-3.37l9.52-11.56c4.29-5.2,3.54-12.9-1.66-17.18-2.82-2.32-6.36-3.15-9.7-2.62Z"/>
    </g>
    <g>
      <path class="cls-17" d="m147.55,184.53h19.53c5.18,0,9.38,4.2,9.38,9.38v4.97c0,5.18-4.2,9.38-9.38,9.38h-19.53c-5.18,0-9.38-4.2-9.38-9.38v-4.97c0-5.18,4.2-9.38,9.38-9.38Z" transform="translate(-94.29 192.98) rotate(-50.53)"/>
      <path class="cls-23" d="m160.06,179.07c.95.43,1.86.97,2.7,1.66h0c5.06,4.17,5.78,11.64,1.62,16.7-9.75,11.83-10.95,14.51-16.53,15.4,4.76,2.13,10.53.94,14-3.28l9.26-11.24c6.94-8.43-.28-20.98-11.04-19.25Z"/>
    </g>
    <g>
      <rect class="cls-17" x="119.72" y="169.47" width="39.6" height="24.54" rx="9.7" ry="9.7" transform="translate(-89.46 173.9) rotate(-50.53)"/>
      <path class="cls-23" d="m142.36,163.82c.98.44,1.92,1,2.79,1.72h0c5.23,4.31,5.98,12.04,1.67,17.27-10.08,12.24-11.32,15-17.1,15.93,4.92,2.2,10.89.97,14.48-3.39l9.57-11.62c7.18-8.71-.29-21.69-11.42-19.9Z"/>
    </g>
    <g>
      <rect class="cls-17" x="105.68" y="157.35" width="34.18" height="21.18" rx="8.37" ry="8.37" transform="translate(-84.92 155.95) rotate(-50.53)"/>
      <path class="cls-23" d="m125.22,152.48c.85.38,1.66.87,2.41,1.48h0c4.51,3.72,5.16,10.39,1.44,14.91-8.69,10.56-9.77,12.94-14.76,13.74,9.13,4.09,13.86-4.58,20.76-12.96,6.19-7.52-.25-18.72-9.86-17.18Z"/>
    </g>
    <g>
      <rect class="cls-17" x="93.6" y="146.93" width="29.54" height="18.31" rx="7.24" ry="7.24" transform="translate(-81.01 140.52) rotate(-50.53)"/>
      <path class="cls-23" d="m110.49,142.72c.73.33,1.43.75,2.08,1.28h0c3.9,3.21,4.46,8.98,1.25,12.89-7.52,9.14-8.45,11.19-12.76,11.88,7.88,3.53,11.96-3.94,17.94-11.2,5.35-6.5-.21-16.18-8.52-14.85Z"/>
    </g>
    <g>
      <path class="cls-17" d="m89.39,137.94h12.83c3.4,0,6.17,2.76,6.17,6.17v3.26c0,3.4-2.76,6.17-6.17,6.17h-12.83c-3.4,0-6.17-2.76-6.17-6.17v-3.26c0-3.4,2.76-6.17,6.17-6.17Z" transform="translate(-77.6 127.05) rotate(-50.53)"/>
      <path class="cls-23" d="m97.62,134.36c.62.28,1.22.64,1.77,1.09h0c3.32,2.74,3.8,7.65,1.06,10.98-5.18,6.28-6.7,9.45-10.87,10.12,6.73,3.01,10.21-3.38,15.29-9.54,4.56-5.54-.18-13.78-7.26-12.65Z"/>
    </g>
    <g>
      <rect class="cls-17" x="75.43" y="130.63" width="20.79" height="12.88" rx="5.09" ry="5.09" transform="translate(-74.55 116.18) rotate(-50.53)"/>
      <path class="cls-23" d="m87.31,127.67c.51.23,1.01.53,1.47.9h0c2.75,2.26,3.14,6.32.88,9.07-4.28,5.2-5.53,7.81-8.98,8.36,5.56,2.49,8.43-2.78,12.63-7.88,3.77-4.57-.15-11.39-6-10.45Z"/>
      <path class="cls-21" d="m85.44,133.79c-3.21,2.86-3.5,5.11-5.42,7.88-1.17-4.11,1.98-8.5,5.42-7.88Z"/>
    </g>
    <g>
      <path class="cls-17" d="m83.64,130.05c-3.87,4.7-6.26,9.03-9.71,6.2l-1.45-1.2c-1.52-1.25-1.73-3.49-.48-5,3.87-4.7,6.26-9.03,9.71-6.2l1.45,1.2c1.52,1.25,1.73,3.49.48,5Z"/>
      <path class="cls-23" d="m78.86,123.48c.36.16.7.37,1.02.63h0c4.09,3.37-.14,7.24-2.9,10.59-.72.88-1.71,1.41-2.76,1.58,3.88,1.74,5.89-1.95,8.81-5.5,2.63-3.19-.11-7.95-4.18-7.29Z"/>
      <path class="cls-21" d="m77.55,127.75c-1.43,1.75-2.5,4.15-3.78,5.5-1.35-2.94,1.25-6.37,3.78-5.5Z"/>
    </g>
    <g>
      <path class="cls-17" d="m76.82,124.87c-3.33,4.04-5.66,8.2-8.8,5.62l-1.32-1.08c-1.37-1.13-1.57-3.16-.44-4.54,3.33-4.04,5.66-8.2,8.8-5.62l1.32,1.08c1.37,1.13,1.57,3.16.44,4.54Z"/>
      <path class="cls-23" d="m72.48,118.92c.33.15.64.33.93.57h0c3.71,3.05-.13,6.56-2.63,9.6-.66.8-1.55,1.28-2.5,1.43,3.51,1.57,5.33-1.75,7.99-4.99,2.38-2.89-.1-7.21-3.79-6.61Z"/>
    </g>
    <g>
      <path class="cls-17" d="m70.09,120.62c-2.23,2.7-4.11,6.17-6.53,4.17l-.98-.8c-1.02-.84-1.17-2.35-.33-3.37,2.23-2.7,4.11-6.17,6.53-4.17l.98.8c1.02.84,1.17,2.35.33,3.37Z"/>
      <path class="cls-23" d="m66.87,116.2c.24.11.47.25.69.42h0c2.72,2.24.1,4.64-1.95,7.13-.49.59-1.15.95-1.85,1.06,2.64,1.18,4.08-1.45,5.93-3.7,1.77-2.15-.07-5.35-2.82-4.91Z"/>
    </g>
  </g>
  <path class="cls-2" d="m165.13,218.9c-2.45-3.27.97-10.6,5.05-10.93-.65,6.74-1.95,7.56-5.05,10.93Z"/>
  <path class="cls-22" d="m90.64,219.49c-2.34-1.84-.5-6.02,2.54-5.48-.06,2.99-.51,3.57-2.54,5.48Z"/>
  <path class="cls-22" d="m103.64,236.78c-2.34-1.84-.5-6.02,2.54-5.48-.06,2.99-.51,3.57-2.54,5.48Z"/>
  <path class="cls-22" d="m130.28,234.56c-2.65-2.47.24-8.65,4.14-8.23-.13,5.27-1.49,5.81-4.14,8.23Z"/>
  <path class="cls-22" d="m147.85,202.03c-2.65-2.47.24-8.65,4.14-8.23-.13,5.49-1.74,6.04-4.14,8.23Z"/>
  <path class="cls-22" d="m159.85,161.85c-2.65-2.47.24-8.65,4.14-8.23-.13,5.49-1.74,6.04-4.14,8.23Z"/>
  <path class="cls-22" d="m116.42,172.19c-2.65-2.47.24-8.65,4.14-8.23-.13,5.49-1.74,6.04-4.14,8.23Z"/>
  <path class="cls-22" d="m101.43,159.19c-2.65-2.47.24-8.65,4.14-8.23-.13,5.49-1.74,6.04-4.14,8.23Z"/>
  <path class="cls-22" d="m86.79,183.37c-2.65-2.47.24-8.65,4.14-8.23-.13,5.49-1.74,6.04-4.14,8.23Z"/>
  <path class="cls-22" d="m132.46,273.25c-2.34-1.84-.5-6.02,2.54-5.48-.06,2.99-.51,3.58-2.54,5.48Z"/>
  <path class="cls-22" d="m112.16,216.56c-2.65-2.47.24-8.65,4.14-8.23-.13,5.49-1.74,6.04-4.14,8.23Z"/>
  <path class="cls-18" d="m345.8,364.85c-7.76-24.22-14.07-48.82-18.4-73.9-3.81-22.08-13.8-58.36,2.12-76.91,5.12-5.96-4.3-13.72-9.42-7.76-16.93,19.73-10.49,48.34-7.07,71.88,4.49,30.88,11.8,61.2,21.31,90.91,2.4,7.5,13.85,3.25,11.46-4.22h0Z"/>
  <path class="cls-2" d="m182.3,236.99c-2.44-3.25.93-10.59,5.05-10.93-.56,5.8-1.03,6.57-5.05,10.93Z"/>
  <path class="cls-2" d="m228.61,272.49c-4.48-4.47-.04-13.96,6.86-13.13,1.83,9.42-2.46,10.85-6.86,13.13Z"/>
  <path class="cls-2" d="m252.88,291.82c-4.48-4.47-.04-13.96,6.86-13.13,1.83,9.42-2.46,10.85-6.86,13.13Z"/>
  <path class="cls-2" d="m277.1,314.41c-4.58-4.57.12-13.94,6.86-13.13,1.83,9.42-2.46,10.85-6.86,13.13Z"/>
  <path class="cls-2" d="m212.26,316.35c-4.48-4.47-.04-13.96,6.86-13.13,1.83,9.42-2.46,10.85-6.86,13.13Z"/>
  <path class="cls-2" d="m189.93,294.66c-4.48-4.47-.04-13.96,6.86-13.13,1.83,9.42-2.46,10.85-6.86,13.13Z"/>
  <path class="cls-2" d="m244.77,230.47c-4.48-4.47-.04-13.96,6.86-13.13,1.83,9.42-2.46,10.85-6.86,13.13Z"/>
  <path class="cls-2" d="m270.41,248.94c-4.48-4.47-.04-13.96,6.86-13.13,1.83,9.42-2.46,10.85-6.86,13.13Z"/>
  <path class="cls-2" d="m220.6,209.68c-4.48-4.47-.04-13.96,6.86-13.13,1.81,9.37-2.36,10.79-6.86,13.13Z"/>
  <path class="cls-2" d="m166.76,275.59c-4.48-4.47-.04-13.96,6.86-13.13,1.83,9.42-2.46,10.85-6.86,13.13Z"/>
  <path class="cls-22" d="m244.03,176.7c-2.34-1.84-.5-6.02,2.54-5.48-.06,2.99-.51,3.57-2.54,5.48Z"/>
  <path class="cls-18" d="m197.61,340.23c19.84-11.72,49.39-6.12,71.21-2.99,22.48,3.22,44.43,8.84,65.86,16.34,7.35,2.57,12.42-8.55,4.98-11.15-36.7-12.84-115.39-32.08-149.06-12.19-6.77,4,.3,13.96,7.02,9.99h0Z"/>
  <path class="cls-4" d="m356.06,199.7c-2.28,1.49-4.37,3.26-6.19,5.28-.77-6.8-.83-10.96-.83-10.96l7.02,5.68Z"/>
  <path class="cls-16" d="m159.71,427.64c5.03-27.85.25-73.06,30.32-92.33,14.92-9.56,34.06-8.59,51.68-6.63,67.83,7.58,136.83,26.21,189.45,69.67,8.06,6.66,9.5,11.27,2.73,22.64-19.93,33.42-23.29,48.83-60.04,44.86-57.61-6.23-108.52-38.89-156.59-71.24-7.72-5.2-16.59-11.35-32.51,1.88-9.97,8.29-17.87,19.04-22.8,31.03l-2.23.12Z"/>
  <path class="cls-6" d="m500.76,200.7c1.82,6.24-4.55,12.12-9.67,17.12-7.96,1.72-16.23,1.08-18.59,2.29-4.6,2.38-31.43-10.92-35.61-14.36-4.21-3.47-33.4-6.42-39.4-8.73-6-2.31-26.28-12.89-42.19-18.09-7.1-2.32-18.39,1.14-28.82,5.94,5.55-13.74,8.41-19.27,12.09-23.25,9.02-9.8,24.69-10.97,37.05-6.01,22.49,9.1,31.38,31.24,41.65,34.61,6.98,2.36,18.99-2.34,34.08,8.41,4.41,3.16,8.18,7.16,12.89,9.88,11.79,6.87,28.56,3.28,36.53-7.81Z"/>
  <path class="cls-11" d="m397.06,451.42c20.54-.32,35.64-3.72,56.18-4.04.77-.01,1.73-.17,1.93-.91.2-.74-1.43-.91-1.09-.22l6.64,1.16c-7.85,18.4-28.81,28.42-48.8,29.19-24.05.93-44.25-7.63-98.15-26.55-24.7-8.67-50.28-19.92-76.52-41.8,3.13,1.26,128.42,43.64,159.8,43.16Z"/>
  <path class="cls-22" d="m149.85,293.72c-2.34-1.84-.5-6.02,2.54-5.48-.06,2.99-.51,3.57-2.54,5.48Z"/>
  <path class="cls-9" d="m400.66,463.05c-32.04-28.68-51.62-73.72-57.16-115.81-1.03-7.78-13.18-6.63-12.15,1.18,5.98,45.34,27.06,93.18,61.55,124.05,5.86,5.24,13.61-4.19,7.76-9.42h0Z"/>
  <path class="cls-13" d="m429.1,473.85c28.69-20.71,42.04-54.47,40.49-85.21-.62-18.49-7.28-39.05-14.36-57.98,46.23,66.61,12.43,128.59-26.13,143.19Z"/>
  <path class="cls-4" d="m472.49,220.11c-4.6,2.38-31.43-10.92-35.61-14.36-4.21-3.47-33.4-6.42-39.4-8.73-6-2.31-26.28-12.89-42.19-18.09-7.1-2.32-18.39,1.14-28.82,5.94-9.28,22.77-21.05,30.82-7.33,90.77,6.38,31.17,10.11,50.64,15.62,63.42,18.91,67.11,51.68,144.45,85.89,137.05,23.76-5.14,38.42-12.15,54.44-59.7,12.16-36.1-39.78-122.36-74.6-153.68-29.46-26.49-37.01-51.23-38.65-58.25,16.98-4.8,21.32,8.3,27.36,11.44,8.22,4.29,17.87-3.52,27.09-2.56,13.68,1.39,45.49,33.21,74.8,4.47-7.96,1.72-16.23,1.08-18.59,2.29Z"/>
  <path class="cls-16" d="m384.5,246.93c21.5,19.02,42.45,37.77,58.12,60.4,25.99,37.54,39.37,77.46,35.93,101-2.21,15.08-11.8,30.12-20,43.06-14.3,22.57-24.12,21.07-23.69,15.47,3.49-45.53,18.17-57.62-16.35-162.33-6.91-20.96-8.21-22.34-17.97-38.68l-16.04-18.92Z"/>
  <path class="cls-24" d="m404.87,273.09c50.74,49.96,68.79,108.41,64.95,134.64-2.81,19.2-23.94,52.69-34.85,59.98,2.42,9.74,21.22-6.04,37.38-40.21,7.18-15.18,8.57-26.69,4.5-45.66-5.76-26.86-18.55-51.87-34.23-74.51-15.67-22.64-36.62-41.38-58.12-60.4,18.48,21.8,14.91,16.97,20.37,26.16Z"/>
  <path class="cls-25" d="m353.56,266.97c18.07,79.2,35.97,88.97,52.32,142.08l-1.04.65c-33.44-31.45-49.46-100.12-52.49-142.55l1.21-.18Z"/>
  <path class="cls-3" d="m206.75,352.08c30.52-8.48,87.8-7.89,111.6,25.18l-.7,1c-39.88-11.48-59.98-28.61-110.69-24.98l-.21-1.2Z"/>
  <path class="cls-24" d="m326.47,184.87c-4.39,10.77-9.44,17.91-12.06,30.69-5.41,26.39,2.88,50.28,7.5,73.17l.17.13s11.25-48.06,25.7-59.21c7.56-5.83,17.73-2.82,25.73,1.37-7.84-12.66-10.74-22.52-11.68-26.54,5.05-1.43,10.49-1.21,15.05,1l-5.63-20.37c-17.67-7.62-22.74-10.37-44.78-.24Z"/>
  <path class="cls-14" d="m389.19,215.92c8.22,4.29,17.87-3.52,27.09-2.56,13.68,1.39,45.49,33.21,74.8,4.47-7.96,1.72-16.23,1.08-18.59,2.29-4.6,2.38-31.43-10.92-35.61-14.36-4.21-3.47-33.4-6.42-39.4-8.73-6-2.31-26.28-12.89-42.19-18.09-7.1-2.32-18.39,1.14-28.82,5.94-4.39,10.77-9.44,17.91-12.06,30.69-5.34,26.05,2.48,48.19,8.26,76.95.61-3.67-2.84-19.21,12.92-65.66,6.47-19.05,26.24-22.38,26.24-22.38,16.98-4.8,21.32,8.3,27.36,11.44Z"/>
  <path class="cls-20" d="m158.3,433.71c5.19-16.77,14.53-32.38,22.99-41.79,9.33-10.23,19.76-12.84,32.83-7.19,19.92,8.57,22.35,19.81,68.46,36.5,29.29,10.86,72.15,33.29,84.75,40.49l-.48,1.56c-20.71-1.65-42.2-8.01-61.69-14.89-97.53-35.31-94.02-85.09-129.4-40.55-6.3,8.08-11.68,16.98-15.93,26.47l-1.52-.57Z"/>
  <path class="cls-20" d="m418.1,474.89c15.02-6.59,27.57-22.04,38.12-35.68,14.88-19.32,15.15-29.39,22.09-47.38,9.08,50.98-37.06,86.71-60.2,83.07Z"/>
  <path class="cls-10" d="m352.8,187.98c-5.46,4.14-18.21,11.25-25.21,13.81.15-11.31,15.75-19.64,25.21-13.81Z"/>
</svg>