<?xml version="1.0" encoding="UTF-8"?>
<svg xmlns="http://www.w3.org/2000/svg" viewBox="0 0 540 540">
  <defs>
    <style>
      .cls-1 {
        fill: #fff;
      }

      .cls-2 {
        fill: #ea5959;
      }

      .cls-3 {
        mix-blend-mode: overlay;
      }

      .cls-3, .cls-4 {
        fill: #ffa9a9;
      }

      .cls-5 {
        isolation: isolate;
      }

      .cls-6 {
        fill: #f79f9f;
      }

      .cls-7 {
        fill: #ffe6e6;
      }

      .cls-8 {
        fill: #f47171;
      }
    </style>
  </defs>
  <g class="cls-5">
    <g id="_Layer_" data-name="&amp;lt;Layer&amp;gt;">
      <g>
        <g>
          <g>
            <path class="cls-8" d="m343.85,434.96s-37.47,5-71.54,5-76.17-5-76.17-5c-32.74-4.5-47.21-25.14-50.74-58.1l-19.92-185.86h289.03l-19.92,185.86c-3.53,32.96-14.92,52.56-50.74,58.1Z"/>
            <path class="cls-4" d="m358.95,322.32c-5.54-.91-8.51,9.55-28.91,38.33-12.92,18.23-16.93,21.38-15.56,23.96,3.74,7.07,44.18,2.67,53.36-23.96,5.56-16.1-1.43-37.1-8.89-38.33Z"/>
          </g>
          <path class="cls-2" d="m149.89,233.65c12.36-13.93,43.39-10.29,63,0,16.72,8.77,20.8,20.09,34.84,19.96,12.64-.12,15.96-9.37,32.61-14.37,15.29-4.6,23.99-.25,38.54.8,44.14,3.19,65.95-29.42,77.82-19.17,9.52,8.22-4.16,29.44-9.64,81.45-5.66,53.78,5.27,66.11-7.41,82.25-10.38,13.22-35.09,16.53-84.49,23.16-14.82,1.99-27.56,3.65-45.21,3.99-41.87.8-62.81,1.2-76.34-11.98-12.17-11.86-7.35-23.03-15.56-79.06-8.76-59.74-18.41-75.48-8.15-87.04Z"/>
          <path class="cls-3" d="m358.95,322.32c-5.54-.91-8.51,9.55-28.91,38.33-12.92,18.23-16.93,21.38-15.56,23.96,3.74,7.07,44.18,2.67,53.36-23.96,5.56-16.1-1.43-37.1-8.89-38.33Z"/>
        </g>
        <path class="cls-1" d="m438.77,186.62c0-17.69-75.56-32.03-168.77-32.03s-168.77,14.34-168.77,32.03v9c0,17.69,75.56,32.03,168.77,32.03s168.77-14.34,168.77-32.03v-9Z"/>
        <g>
          <path class="cls-1" d="m162.19,285.62c-.32-1.56-.39-3.03-.22-4.41.17-1.38.51-2.57,1.02-3.56.51-.99,1.16-1.88,1.93-2.65.78-.77,1.56-1.38,2.37-1.83.8-.45,1.6-.78,2.37-1.03.68-.22,1.41-.36,2.17-.4.76-.04,1.37-.06,1.83-.05.47,0,.96.09,1.49.24.53.15.93.28,1.2.38.27.1.61.24.99.4,1.82.81,2.64,2.22,2.48,4.21-.12,1.46-.69,2.61-1.68,3.36-.77.59-1.59.67-2.37.25-1.69-.88-3.01-1.11-3.95-.69-.94.42-1.28,1.4-.96,2.88.11.54.43.95.92,1.22.49.27,1.12.46,1.88.57.76.11,1.56.22,2.4.33.84.12,1.77.39,2.79.83,1.02.44,1.95,1.03,2.79,1.77,1.34,1.25,2.21,2.71,2.6,4.38.39,1.67.34,3.25-.16,4.75-.5,1.49-1.37,2.84-2.63,4.03-1.25,1.19-2.75,1.95-4.47,2.29-1.84.37-3.58.55-5.22.5-1.64-.05-3.02-.27-4.15-.68-1.13-.41-2.03-.8-2.71-1.18-.68-.37-1.25-.75-1.68-1.14-.51-.46-.88-1.09-1.09-1.86-.22-.77-.26-1.53-.13-2.27.13-.74.39-1.44.76-2.09.37-.65.89-1.09,1.55-1.3.66-.21,1.4-.16,2.23.15,3.73,1.44,5.98,2.27,6.78,2.44,1.27.27,1.93-.04,2.03-.89.06-.5-.18-.94-.73-1.29-.55-.35-1.27-.63-2.16-.82-.89-.19-1.87-.46-2.96-.79-1.08-.33-2.12-.7-3.09-1.09-.98-.4-1.86-1.03-2.65-1.89-.79-.86-1.31-1.88-1.55-3.07Z"/>
          <path class="cls-1" d="m207.11,296.3c.2,1.18-.07,2.15-.82,2.88-.75.73-1.65,1.16-2.7,1.29-1.05.13-2.07.05-3.06-.22-.99-.27-1.62-.72-1.88-1.35-.04-.11-.08-.17-.13-.17s-.1.05-.17.15-.15.2-.24.33c-.09.13-.24.28-.43.46-.19.18-.42.35-.67.52-.25.17-.59.34-1.01.51-.42.17-.89.29-1.42.37-2.32.44-4.36-.09-6.13-1.6-1.78-1.51-2.87-3.6-3.29-6.27-.86-5.51-.99-9.39-.32-11.64.25-.91.71-1.63,1.4-2.17.68-.54,1.42-.82,2.22-.85.79-.03,1.55.08,2.28.32s1.32.7,1.78,1.36c.46.67.65,1.42.57,2.25-.33,3.83-.02,6.95.96,9.28.74,1.78,1.67,2.37,2.73,1.75.38-.18.67-.45.88-.83.21-.37.34-.85.4-1.43.06-.58.08-1.12.07-1.64-.01-.51-.09-1.22-.22-2.12-.14-.9-.26-1.65-.37-2.24-.11-.59-.29-1.44-.53-2.54-.25-1.15-.2-2.16.16-3.02.36-.85.9-1.44,1.62-1.77.72-.32,1.49-.5,2.3-.52.81-.02,1.57.15,2.29.51.72.36,1.22.85,1.51,1.47.51,1.05.85,2.38,1.03,3.98.18,1.6.3,3.37.37,5.31.07,1.94.33,4.5.85,7.61Z"/>
          <path class="cls-1" d="m221.07,276.09c.14-.42.55-.75,1.23-.99.68-.24,1.44-.35,2.3-.32s1.69.18,2.5.45c.81.27,1.45.74,1.92,1.43.47.68.64,1.5.5,2.44-.21,1.5-.3,3.34-.29,5.5.01,2.16.08,3.96.21,5.41.13,1.45.16,2.83.19,4.07,0,.23.04.7.09,1.38.05.69.09,1.36.14,2.02.05.66.03,1.47-.04,2.45-.07.97-.2,1.88-.4,2.71-.34,1.39-1.16,2.55-2.44,3.47-1.28.92-2.68,1.51-4.22,1.79-1.53.28-3.07.34-4.61.2-1.54-.14-2.83-.49-3.7-1.09-1.04-.72-1.64-1.73-1.76-2.84-.12-1.11.21-2.07.99-2.89.78-.82,1.69-1.04,2.72-.66.55.23,1.2.34,1.96.32.76-.02,1.46-.18,2.11-.48.65-.3,1.02-.72,1.11-1.25.05-1.01.08-1.51.13-2.52-.03.03-.06.09-.1.18s-.15.26-.33.5c-.18.25-.41.47-.7.68-.29.21-.71.42-1.26.62-.55.21-1.19.34-1.85.42-1.36.17-2.61.14-3.68-.18-1.07-.33-1.92-.78-2.55-1.35-.64-.57-1.2-1.36-1.69-2.37-.49-1.01-.84-1.92-1.05-2.73-.21-.81-.44-1.83-.62-3-.15-.97-.24-2.06-.32-3.22-.08-1.16,0-2.34.24-3.57.25-1.22.59-2.34,1.04-3.36.45-1.02,1.14-1.89,2.09-2.61.94-.73,2.08-1.17,3.38-1.35,1.12-.15,2.12-.21,3-.16.88.05,1.53.17,1.97.35.44.18.8.37,1.07.58.27.2.44.38.51.52.04.1.06.16.11.26-.07-.11-.03-.38.12-.8Zm.12,14.76c.13-.33.18-1.08.14-2.26s-.09-2.21-.18-3.12c-.08-.91-.14-1.54-.2-1.88-.08-.52-.49-.99-1.22-1.39-.72-.4-1.51-.44-2.33-.13-.62.24-1.06.96-1.3,2.15-.25,1.19-.31,2.36-.17,3.49.16,1.3.4,2.24.67,2.78.27.54.74.97,1.39,1.28.49.18.97.19,1.44.05.47-.15.88-.34,1.23-.6.21-.15.31-.23.52-.38Z"/>
          <path class="cls-1" d="m253.41,293.19c.2.96.09,1.8-.33,2.51-.42.71-1.01,1.22-1.78,1.53-.77.31-1.56.52-2.39.63s-1.58.06-2.25-.14c-.67-.2-1.09-.49-1.25-.87-.08-.31-.12-.47-.2-.79-.03.06-.06.14-.1.25-.04.1-.19.29-.45.56-.26.27-.59.5-.98.69-.39.19-1.01.35-1.86.5-.84.15-1.82.19-2.92.15-1.27-.05-2.42-.38-3.41-1.01-.99-.63-1.77-1.43-2.31-2.39-.55-.96-1.02-2.03-1.4-3.2-.38-1.17-.6-2.34-.65-3.49-.05-1.16-.09-2.27-.06-3.28.04-1.24.29-2.49.68-3.69.39-1.19.92-2.3,1.59-3.33s1.56-1.86,2.67-2.51c1.1-.64,2.36-1.02,3.72-1.08.69-.03,1.35.04,1.93.2.58.16,1.03.36,1.35.62.31.25.57.51.78.77.21.26.34.49.41.69.04.1.06.16.1.26-.07-.44-.07-.87,0-1.28.1-.53.45-.98,1.04-1.35.59-.37,1.26-.59,2.02-.65.76-.06,1.52-.03,2.27.1.75.13,1.4.43,1.94.9.54.47.87,1.09.93,1.81.11,1.29.12,2.84.09,4.57-.03,1.73.03,3.85.17,6.36.14,2.51.36,4.49.66,5.95Zm-8.76-3.79c0-.19,0-.62,0-1.23.01-.62.01-1.34,0-2.18,0-.84-.05-1.63-.11-2.37-.07-.75-.17-1.23-.29-1.47-.06-.06-.13-.11-.21-.17-.08-.06-.26-.15-.55-.29s-.56-.23-.8-.28c-.24-.05-.54-.09-.89-.13-.35-.03-.63.04-.83.23-.42.25-.74.53-.97.85-.23.32-.4.73-.5,1.25-.1.52-.18,1.23-.2,2.1-.01.7.06,1.44.19,2.22.13.77.36,1.48.68,2.13.32.65.71,1.05,1.16,1.17.8.22,1.56.09,2.24-.36.67-.45,1.07-.96,1.08-1.46Z"/>
          <path class="cls-1" d="m274.73,276.98c.42.68.58,1.42.49,2.22s-.41,1.49-.94,2.06c-.53.57-1.21.98-2.02,1.22-.82.25-1.74.17-2.77-.24-2.36-.99-3.92-1.29-4.68-.91-.36.15-.67.39-.92.73-.26.34-.43.8-.51,1.37-.09.57-.15,1.12-.19,1.65-.04.53-.02,1.25.06,2.16.08.91.15,1.66.22,2.26.06.6.15,1.45.29,2.53.15,1.19.03,2.21-.38,3.04-.41.82-.98,1.37-1.71,1.64-.73.27-1.48.39-2.27.36-.79-.03-1.52-.25-2.2-.65-.68-.4-1.14-.92-1.39-1.56-.44-1.08-.69-2.42-.76-4.04-.07-1.61-.09-3.39-.05-5.32.04-1.94-.15-4.51-.47-7.65-.12-1.19.24-2.15,1.05-2.83.81-.69,1.75-1.06,2.82-1.12,1.07-.06,2.11.08,3.12.43,1.01.34,1.61.84,1.8,1.48.06.05.08.08.14.13.21-.18.36-.33.45-.47.09-.13.25-.28.48-.44.23-.16.47-.32.73-.47.26-.15.62-.28,1.07-.4.46-.12.96-.16,1.46-.18,1.45-.05,2.89.14,4.19.68,1.29.55,2.26,1.32,2.89,2.32Z"/>
          <path class="cls-1" d="m289.61,280.97c.87.1,1.5.48,1.88,1.1.38.63.53,1.3.45,2.01-.08.72-.28,1.38-.62,1.99-.33.61-.71.97-1.13,1.07-.88.19-2.96.24-6.25.19-3.29-.05-5.48-.17-6.51-.39-.8-.17-1.38-.75-1.7-1.71-.33-.96-.32-1.9.02-2.82.34-.92.95-1.51,1.74-1.64,1.3-.21,3.33-.22,5.91-.17,2.57.05,4.66.17,6.22.36Z"/>
          <path class="cls-1" d="m308.98,280.22c.73.03,1.32.35,1.78.96.46.61.71,1.28.77,2.02.06.74-.13,1.43-.55,2.09-.42.66-1.03,1.02-1.82,1.1-1.18.12-2.19.15-3.01.07-.83-.08-1.53-.13-2.1-.15-.57-.02-.94.06-1.09.24-.16.18-.27.65-.32,1.4-.06.75-.13,1.73-.22,2.96-.09,1.23-.27,2.38-.51,3.41-.26,1.15-.83,2.05-1.73,2.65s-1.82.87-2.77.81c-.95-.06-1.8-.42-2.55-1.09-.75-.67-1.15-1.55-1.18-2.63-.03-.99.05-2.63.25-4.9.2-2.27.26-4.31.28-6.04,0-.69-.04-1.75-.16-3.13-.13-1.38-.24-2.63-.33-3.73-.09-1.1-.12-2.27-.09-3.5.03-1.23.19-2.2.45-2.89.3-.81.95-1.4,1.96-1.75,1.01-.35,2.26-.5,3.75-.45,1.49.05,2.93.17,4.3.35,1.38.19,2.85.41,4.43.69,1.57.27,2.7.44,3.37.51,1.25.12,2.11.83,2.57,2.13.46,1.3.39,2.55-.19,3.73-.58,1.19-1.49,1.69-2.73,1.52-.67-.09-1.61-.25-2.84-.48-1.23-.23-2.27-.4-3.11-.51-.85-.11-1.48-.15-1.83-.09-.56.09-.95.65-1.09,1.57-.14.92-.05,1.62.26,2.1.17.36.59.59,1.27.71.68.11,1.85.21,3.52.28.55.02.97.04,1.27.06Z"/>
          <path class="cls-1" d="m334.65,279.36c.38.7.49,1.46.34,2.25-.15.8-.51,1.46-1.08,1.99-.57.53-1.27.89-2.1,1.08-.83.19-1.75.05-2.75-.43-2.29-1.15-3.83-1.56-4.61-1.23-.37.12-.7.35-.97.67-.28.32-.48.76-.6,1.33-.13.57-.23,1.11-.3,1.64-.08.52-.11,1.24-.09,2.15.02.91.04,1.67.06,2.27.02.6.06,1.46.11,2.54.07,1.2-.12,2.21-.59,3.01-.47.79-1.07,1.3-1.81,1.52-.74.22-1.51.29-2.29.2-.78-.09-1.5-.35-2.15-.8-.65-.45-1.07-1-1.28-1.65-.36-1.11-.52-2.46-.49-4.08.04-1.61.14-3.39.32-5.31.17-1.93.16-4.51.05-7.66-.04-1.19.38-2.13,1.24-2.76.86-.63,1.82-.94,2.89-.92,1.07.02,2.1.23,3.08.64.99.41,1.55.95,1.69,1.6.05.06.08.08.13.14.22-.16.38-.31.48-.43.1-.13.27-.26.51-.41.24-.15.49-.29.76-.42.27-.13.64-.24,1.1-.33.47-.09.97-.1,1.47-.08,1.45.05,2.88.33,4.13.97,1.25.63,2.17,1.47,2.73,2.51Z"/>
          <path class="cls-1" d="m350.38,293.17c1.32-.61,2.5-.42,3.52.58,1.02,1,1.47,2.16,1.35,3.49-.12,1.33-.77,2.5-1.86,3.11-1.34.76-3.38,1.07-5.62,1.08-2.24.02-4.2-.29-5.88-.89-2.41-.86-4.3-2.41-5.61-4.67-1.31-2.26-1.84-5.09-1.59-8.48.18-2.46.8-4.51,1.86-6.17,1.06-1.65,2.41-2.84,4.06-3.54,1.65-.71,3.53-.97,5.65-.78,2.12.18,4.32.83,6.61,1.93,1.08.54,1.96,1.31,2.63,2.31.67.99,1.06,2.04,1.18,3.15.12,1.1.05,2.17-.2,3.19-.25,1.02-.77,1.89-1.53,2.61-.77.72-1.7,1.12-2.75,1.24-1.67.18-3.26.25-4.73.18-1.47-.07-2.54-.18-3.19-.32-.37-.09-.56-.13-.93-.21,0,.59.18,1.13.52,1.61.33.49.78.87,1.35,1.15.56.28,1.3.39,2.21.31s1.9-.36,2.97-.85Zm-3.85-9.63c-.83-.06-1.51.12-1.98.49-.47.37-.55.81-.23,1.3.19.31.89.48,2.1.51,1.21.03,1.94-.11,2.18-.45.14-.19.15-.43.04-.7s-.36-.53-.75-.75c-.39-.23-.85-.37-1.36-.41Z"/>
          <path class="cls-1" d="m372.69,295.55c1.34-.57,2.51-.35,3.5.67.99,1.03,1.41,2.2,1.26,3.53s-.84,2.48-1.94,3.06c-1.36.72-3.41.98-5.65.94s-4.2-.4-5.85-1.04c-2.39-.93-4.24-2.52-5.49-4.81s-1.71-5.14-1.37-8.52c.25-2.45.92-4.49,2.02-6.12,1.1-1.63,2.48-2.77,4.15-3.44,1.67-.66,3.56-.88,5.67-.64,2.11.24,4.3.94,6.56,2.1,1.07.57,1.92,1.37,2.57,2.38.64,1.01,1.01,2.07,1.1,3.17.09,1.11,0,2.17-.29,3.18-.28,1.01-.82,1.87-1.6,2.57-.79.7-1.73,1.08-2.79,1.16-1.67.13-3.26.17-4.74.06-1.47-.11-2.53-.25-3.18-.41-.37-.09-.56-.14-.93-.24,0,.59.16,1.13.48,1.63.32.49.76.89,1.32,1.19.55.3,1.29.42,2.2.36s1.91-.31,2.99-.78Zm-3.61-9.72c-.83-.08-1.51.08-2,.44-.48.36-.57.79-.26,1.3.18.32.87.5,2.08.57,1.21.07,1.94-.06,2.19-.39.14-.19.16-.42.06-.7-.1-.28-.35-.54-.74-.77-.39-.24-.84-.39-1.35-.44Z"/>
        </g>
        <path class="cls-3" d="m201.27,168.45c5.32,50.17,4.39,90.79,2.22,120.15-2.43,32.95-6.96,59.12,11.12,79.42,13.04,14.64,32.4,20.11,46.69,22.4-26.97,6.99-60.92,11.83-77.82-4.07-15.6-14.67-8.14-38.98-6.67-71.28,1.36-29.87-2.15-72.04-24.46-124.22,16.31-7.47,32.61-14.93,48.92-22.4Z"/>
        <ellipse class="cls-7" cx="270" cy="186.62" rx="168.77" ry="32.03"/>
        <path class="cls-7" d="m302.32,210.62c.03,2.35,20.19.71,36.11,14.91,5.48,4.89,5.6,7.32,10.78,10.11,14.42,7.79,35.41.81,36.11-5.32.42-3.65-6.61-4.8-8.62-11.71-1.7-5.85,1.29-12.04,4.85-17.04-62.18,3.94-79.25,6.89-79.22,9.05Z"/>
        <path class="cls-6" d="m338.89,211.29c.36-1.99,6.67-2.99,23.35-2,8.07,7.35,13.42,13.36,12.23,15.57-2.61,4.85-36.47-8.72-35.58-13.58Z"/>
      </g>
    </g>
  </g>
</svg>