<?xml version="1.0" encoding="UTF-8"?>
<svg xmlns="http://www.w3.org/2000/svg" viewBox="0 0 540 540">
  <defs>
    <style>
      .cls-1 {
        fill: #826159;
      }

      .cls-2 {
        isolation: isolate;
      }

      .cls-3 {
        fill: #515151;
        mix-blend-mode: soft-light;
      }

      .cls-4 {
        fill: #85635a;
      }

      .cls-5 {
        fill: #70534d;
      }

      .cls-6 {
        fill: #7d5d55;
      }

      .cls-7 {
        fill: #ffe771;
      }

      .cls-8 {
        fill: #8c6960;
      }
    </style>
  </defs>
  <g class="cls-2">
    <g id="_Layer_" data-name="&amp;lt;Layer&amp;gt;">
      <g>
        <g>
          <path class="cls-1" d="m330.62,444.56h-121.58c-23.44,0-40.44-19-40.44-42.44l1.94-69.39c.81-14.29.75-28.63-.19-42.91l-2.97-45.14c-.52-7.84-.3-15.71.64-23.5h0c2.49-20.65,2.77-41.5.83-62.21l-2.24-23.96c0-23.44,19-42.44,42.44-42.44h121.58c23.44,0,42.44,19,42.44,42.44l-1.11,5.89c-4.24,22.52-4.33,45.62-.27,68.18h0c.92,5.11,1.38,10.29,1.38,15.48l-3.47,32.11c-2.44,22.59-1.86,45.41,1.73,67.84l1.74,10.9v66.72c0,23.44-19,42.44-42.44,42.44Z"/>
          <path class="cls-6" d="m330.1,120.78c-10.52-6.89-16.7,4.46-49.89,3.4-32.49-1.04-45.38-12.51-65.76-3.4-4.03,1.8-13.75,6.82-20.41,17.01-11.49,17.57-2.96,33.8-1.13,64.63,2.3,38.83-9.54,41.56-9.07,91.84.12,12.44.47,50.71,9.07,52.16,8.72,1.47,10.44-37.53,40.82-66.9,31.02-29.98,55.99-15.18,82.77-41.95,34.62-34.61,35.8-102.27,13.61-116.79Z"/>
          <path class="cls-6" d="m340.31,248.91c-10.31-5.77-33.75,7.45-41.95,26.08-10.09,22.93,10.2,37.53,5.67,63.5-7.4,42.43-69.64,49.78-66.9,71.43,2.5,19.78,57.58,38.42,96.38,20.41,6.66-3.09,21.62-10.04,27.21-24.94,7.23-19.28-8.53-32.43-17.01-62.36-14.47-51.1,10.69-86.23-3.4-94.11Z"/>
          <path class="cls-6" d="m276.89,277.32c-15.58-7.64-41.73,7.7-53.29,26.08-9.97,15.84-2.43,23.35-13.61,40.82-12.04,18.83-25.77,17.9-30.61,34.02-3.7,12.32-.57,29.13,7.94,32.88,9.59,4.23,18.9-11.26,54.43-35.15,27.34-18.39,33.4-17,40.82-28.35,14.85-22.71,12.31-61.48-5.67-70.3Z"/>
          <path class="cls-5" d="m262.07,126.45c-4.16,14.74-8.31,29.48-12.47,44.22,3.4,15.5,6.8,30.99,10.2,46.49,1.13,15.87,2.27,31.75,3.4,47.62-3.78,11.34-7.56,22.68-11.34,34.02,8.75,38.7,13.6,60.1,13.61,60.09,0,0-2.3-10.2-2.27-10.2.04-.01,3.58,15.17,11.34,48.76,1.56-9.67,3.27-24.73,2.27-43.09-1.3-23.84-6.11-33.38-6.8-51.02-.53-13.67,1.34-33.78,13.61-58.96-.88-15.78-8.23-41.76-13.61-64.63-4.11-17.48-5.29-35.53-7.94-53.29Z"/>
          <path class="cls-5" d="m196.3,421.26c-1.89-98.65-3.78-197.29-5.67-295.94,1.22-5.18,3.29-11.06,6.8-17.01,3.81-6.44,8.53-11.6,13.52-15.75h-1.91c-23.44,0-42.44,19-42.44,42.44l2.24,23.96c1.94,20.71,1.66,41.56-.83,62.21h0c-.94,7.8-1.15,15.67-.64,23.5l2.97,45.14c.94,14.29,1.01,28.62.19,42.91l-1.94,69.39c0,23.44,17,42.44,40.44,42.44h23.38c-5.56-2.29-11.21-5.1-16.84-8.56-7.64-4.69-14.01-9.8-19.28-14.74Z"/>
          <path class="cls-4" d="m330.1,120.78c-6.62-4.33-11.52-1.45-22.49,1.02,2.94,4.28,6.07,9.28,8.88,15.14,16.59,34.61,7.87,69.74,3.51,96.87,31.16-35.53,31.51-99.02,10.1-113.03Z"/>
          <path class="cls-8" d="m340.31,248.91c7.2,4.03,4.15,15.17,1.38,31.92,2.69-.02,5.18-.61,7.12-1.88,10.15-6.63.99-28.56-.85-61.23-3.11-55.3,18.68-71.62,4.25-94.39-14.2-22.42-49.84-29.53-55.28-22.11-2.78,3.79,3.37,9.96,10.68,20.58,10.97-2.47,15.87-5.35,22.49-1.02,21.41,14.01,21.07,77.5-10.1,113.03-1.13,7.02-1.96,13.51-1.99,19.31,8.34-5.15,17.02-7.16,22.29-4.22Z"/>
          <path class="cls-4" d="m326.7,275.55c4.29,3.38,9.99,5.32,14.99,5.28,2.77-16.75,5.82-27.9-1.38-31.92-5.26-2.95-13.95-.93-22.29,4.22-.05,9.54,2.09,17.23,8.68,22.43Z"/>
        </g>
        <g>
          <path class="cls-7" d="m165.71,331.34s12.45,9.17,18.46,5.97c6-3.2,15.23-12.12,26.66-13.44,3.28-.38,10.87,3.24,20.37,1.66,23.57-3.94,58.96-15.32,69.66-19.43,15-5.78,15.62.57,22.23-1.99,6.6-2.56,20.99-11.51,23.41-7.7,2.41,3.8,9.61-.67,9.61-.67,0,0,3.94,7.3,8.22,7.68,4.28.37,8.91-6.14,10.41-7.11.11,30.52.46,143.04.46,143.04l-206.72.67-2.76-108.69Z"/>
          <path class="cls-7" d="m165.74,341.83s14.89,33.32,20.89,30.11c6.01-3.19,33.16-43.01,44.56-44.32,11.43-1.31,44.84,10.96,59.85,5.19,15.01-5.77,15.31,43.16,21.91,40.6,6.6-2.56,31.16-70.31,33.57-66.5,2.41,3.8,9.61-.67,9.61-.67,0,0,15.62,2.48,18.63.58.08,23.1.31,93.18.41,125.88.03,9.48-7.63,17.18-17.11,17.21l-172.79.55c-9.33.03-16.97-7.4-17.21-16.73l-2.33-91.9Z"/>
          <path class="cls-3" d="m285.5,344.41c-15.01,5.78-42.93-8.65-54.35-7.34-11.4,1.3-43.88,42.81-46.49,42.46,0,0-14.09,20.23-1.02,37.18,25.87,33.59,141.9,36.65,171.37,6.99,21.99-22.13,10.48-91.12-.11-106.07-2.18,1.09-7.31,7.57-9.07,4.77-2.42-3.8-34.03,59.96-40.63,62.54-6.15,1.77-10.09-22.97-19.7-40.53Z"/>
        </g>
      </g>
    </g>
  </g>
</svg>