<?xml version="1.0" encoding="UTF-8"?>
<svg xmlns="http://www.w3.org/2000/svg" xmlns:xlink="http://www.w3.org/1999/xlink" viewBox="0 0 540 540">
  <defs>
    <style>
      .cls-1 {
        fill: #6b4848;
      }

      .cls-2 {
        fill: #724e4e;
      }

      .cls-3 {
        isolation: isolate;
      }

      .cls-4 {
        fill: #515151;
      }

      .cls-4, .cls-5 {
        mix-blend-mode: soft-light;
      }

      .cls-6 {
        fill: #686665;
        mix-blend-mode: overlay;
      }

      .cls-7 {
        clip-path: url(#clippath);
      }

      .cls-8 {
        fill: none;
      }

      .cls-9 {
        fill: #ffe771;
      }

      .cls-5 {
        fill: #a0a0a0;
      }

      .cls-10 {
        fill: #513838;
      }
    </style>
    <clipPath id="clippath">
      <path class="cls-8" d="m330.62,444.56h-121.58c-23.44,0-42.44-19-42.44-42.44l3.94-69.39c.81-14.29.75-28.63-.19-42.91l-2.97-45.14c-.52-7.84-.3-15.71.64-23.5h0c2.49-20.65,2.77-41.5.83-62.21l-2.24-23.96c0-23.44,19-42.44,42.44-42.44h121.58c23.44,0,42.44,19,42.44,42.44l-1.11,5.89c-4.24,22.52-4.33,45.62-.27,68.18h0c.92,5.11,1.38,10.29,1.38,15.48l-3.47,32.11c-2.44,22.59-1.86,45.41,1.73,67.84l1.74,10.9v66.72c0,23.44-19,42.44-42.44,42.44Z"/>
    </clipPath>
  </defs>
  <g class="cls-3">
    <g id="_Layer_" data-name="&amp;lt;Layer&amp;gt;">
      <g>
        <g>
          <path class="cls-2" d="m330.62,444.56h-121.58c-23.44,0-42.44-19-42.44-42.44l3.94-69.39c.81-14.29.75-28.63-.19-42.91l-2.97-45.14c-.52-7.84-.3-15.71.64-23.5h0c2.49-20.65,2.77-41.5.83-62.21l-2.24-23.96c0-23.44,19-42.44,42.44-42.44h121.58c23.44,0,42.44,19,42.44,42.44l-1.11,5.89c-4.24,22.52-4.33,45.62-.27,68.18h0c.92,5.11,1.38,10.29,1.38,15.48l-3.47,32.11c-2.44,22.59-1.86,45.41,1.73,67.84l1.74,10.9v66.72c0,23.44-19,42.44-42.44,42.44Z"/>
          <path class="cls-1" d="m330.1,120.78c-10.52-6.89-16.7,4.46-49.89,3.4-32.49-1.04-45.38-12.51-65.76-3.4-4.03,1.8-13.75,6.82-20.41,17.01-11.49,17.57-2.96,33.8-1.13,64.63,2.3,38.83-9.54,41.56-9.07,91.84.12,12.44.47,50.71,9.07,52.16,8.72,1.47,10.44-37.53,40.82-66.9,31.02-29.98,55.99-15.18,82.77-41.95,34.62-34.61,35.8-102.27,13.61-116.79Z"/>
          <path class="cls-1" d="m340.31,248.91c-10.31-5.77-33.75,7.45-41.95,26.08-10.09,22.93,10.2,37.53,5.67,63.5-7.4,42.43-69.64,49.78-66.9,71.43,2.5,19.78,57.58,38.42,96.38,20.41,6.66-3.09,21.62-10.04,27.21-24.94,7.23-19.28-8.53-32.43-17.01-62.36-14.47-51.1,10.69-86.23-3.4-94.11Z"/>
          <path class="cls-1" d="m276.89,277.32c-15.58-7.64-41.73,7.7-53.29,26.08-9.97,15.84-2.43,23.35-13.61,40.82-12.04,18.83-25.77,17.9-30.61,34.02-3.7,12.32-.57,29.13,7.94,32.88,9.59,4.23,18.9-11.26,54.43-35.15,27.34-18.39,33.4-17,40.82-28.35,14.85-22.71,12.31-61.48-5.67-70.3Z"/>
          <path class="cls-10" d="m262.07,126.45c-4.16,14.74-8.31,29.48-12.47,44.22,3.4,15.5,6.8,30.99,10.2,46.49,1.13,15.87,2.27,31.75,3.4,47.62-3.78,11.34-7.56,22.68-11.34,34.02,8.75,38.7,13.6,60.1,13.61,60.09,0,0-2.3-10.2-2.27-10.2.04-.01,3.58,15.17,11.34,48.76,1.56-9.67,3.27-24.73,2.27-43.09-1.3-23.84-6.11-33.38-6.8-51.02-.53-13.67,1.34-33.78,13.61-58.96-.88-15.78-8.23-41.76-13.61-64.63-4.11-17.48-5.29-35.53-7.94-53.29Z"/>
          <g class="cls-7">
            <path class="cls-6" d="m245.06,76.56c-7.17,1.51-33.56,7.97-47.62,31.75-3.52,5.95-5.58,11.82-6.8,17.01,1.89,98.65,3.78,197.29,5.67,295.94,5.26,4.94,11.64,10.05,19.28,14.74,27.26,16.73,54.96,18.49,70.3,18.14h-139.46c2.65-125.86,5.29-251.72,7.94-377.57h90.71Z"/>
          </g>
          <path class="cls-5" d="m296.93,101.22c-3.89,5.32,9.78,15.31,19.56,35.72,27.94,58.28-15.91,118.05,10.2,138.61,6.6,5.2,16.57,7.03,22.11,3.4,10.15-6.63.99-28.56-.85-61.23-3.11-55.3,18.68-71.62,4.25-94.39-14.2-22.42-49.84-29.53-55.28-22.11Z"/>
        </g>
        <g>
          <path class="cls-9" d="m158.26,320.34s13.28,9.78,19.68,6.37c6.4-3.41,16.25-12.93,28.43-14.33,3.5-.4,11.6,3.46,21.73,1.77,25.14-4.21,62.89-16.34,74.3-20.72,16-6.16,16.66.61,23.71-2.13,7.04-2.73,22.38-12.28,24.97-8.21,2.57,4.06,10.25-.71,10.25-.71,0,0,4.2,7.79,8.77,8.19,4.57.4,9.5-6.55,11.1-7.58.12,32.55.49,152.56.49,152.56l-220.48.71-2.95-115.92Z"/>
          <path class="cls-9" d="m158.29,331.52s15.88,35.54,22.29,32.12c6.41-3.4,35.37-45.87,47.53-47.27,12.19-1.4,47.82,11.69,63.83,5.54,16.01-6.15,16.33,46.04,23.37,43.31,7.04-2.74,33.23-74.99,35.8-70.93,2.58,4.05,10.25-.72,10.25-.72,0,0,16.66,2.65,19.87.61.11,32.56.5,152.56.5,152.56l-220.51.7-2.94-115.91Z"/>
          <path class="cls-4" d="m286.02,334.28c-16.01,6.16-45.79-9.23-57.97-7.83-12.16,1.39-46.81,45.66-49.58,45.29,0,0-15.03,21.58-1.09,39.65,27.59,35.83,151.35,39.09,182.78,7.45,23.46-23.61,11.18-97.19-.12-113.13-2.32,1.16-7.8,8.07-9.67,5.09-2.58-4.05-36.3,63.95-43.34,66.7-6.56,1.89-10.76-24.5-21.01-43.23Z"/>
        </g>
      </g>
    </g>
  </g>
</svg>