<?xml version="1.0" encoding="UTF-8"?>
<svg xmlns="http://www.w3.org/2000/svg" xmlns:xlink="http://www.w3.org/1999/xlink" viewBox="0 0 540 540">
  <defs>
    <style>
      .cls-1 {
        fill: #fff;
      }

      .cls-2 {
        fill: #f2c18b;
      }

      .cls-3 {
        fill: #f9cc85;
      }

      .cls-4 {
        fill: #ffd797;
      }

      .cls-5 {
        isolation: isolate;
      }

      .cls-6 {
        fill: #fcd59d;
      }

      .cls-7 {
        fill: #4f4f4e;
        mix-blend-mode: overlay;
      }

      .cls-8 {
        fill: #fff8f0;
      }

      .cls-9 {
        clip-path: url(#clippath);
      }

      .cls-10 {
        fill: none;
      }

      .cls-11 {
        fill: #ffebd2;
      }
    </style>
    <clipPath id="clippath">
      <path class="cls-10" d="m403.32,407.95l18.05,23.32H118.63l18.05-23.32-7.18-104.01c-1.85-26.95-1.75-54,.3-80.94l6.91-90.42h.39l-18.47-23.86h302.74l-18.47,23.86h.39l6.99,93.59c2.01,26.9,2.06,53.9.17,80.8l-7.13,100.98Z"/>
    </clipPath>
  </defs>
  <g class="cls-5">
    <g id="_Layer_" data-name="&amp;lt;Layer&amp;gt;">
      <g>
        <g>
          <polygon class="cls-6" points="402.37 133.28 137.63 133.28 118.63 108.72 421.37 108.72 402.37 133.28"/>
          <polygon class="cls-6" points="137.63 406.72 402.37 406.72 421.37 431.28 118.63 431.28 137.63 406.72"/>
          <path class="cls-6" d="m403.29,408.45H136.71l-7.21-104.5c-1.86-26.95-1.76-54.01.3-80.95l6.91-90.42h266.58l6.99,93.59c2.01,26.89,2.06,53.9.17,80.8l-7.15,101.47Z"/>
        </g>
        <path class="cls-3" d="m388.1,390.15h-236.2l-6.39-92.59c-1.65-23.88-1.56-47.85.27-71.72l5.29-69.27,237.03-10.84,6.19,82.93c1.78,23.83,1.83,47.76.15,71.59l-6.34,89.91Z"/>
        <g class="cls-9">
          <path class="cls-7" d="m353.8,406.66c-84.47-.57-135.55,3.58-220.02,3.01-9.07,11.62-26.28,18.6-35.35,30.22,112.25-.28,232.64,4.08,344.89,3.8-9.35-11.91-18.71-23.81-28.06-35.72,6.8-103.18,13.61-206.36,20.41-309.54-110.83,1.13-221.67,2.27-332.5,3.4,10.69,9.61,21.39,19.21,32.08,28.82,78.88-.82,146.64,4.49,225.52,3.67,0,0,15.75,119.34,15.75,141.69s-22.71,130.65-22.71,130.65Z"/>
        </g>
        <path class="cls-4" d="m244.06,267.57c.05-.94.44-10.33-6.67-15.79-6.93-5.33-18.61-5.08-24.11,2.52-4.11,5.69-3.78,14.12,1.12,20.44-1.91.86-5.96,3.01-8.51,7.52-4.28,7.55-2.04,17.65,3.99,23.4,1.22,1.16,7.07,6.74,14.87,4.98,7.81-1.76,10.85-9.36,11.1-10.03.41,1,2.19,5,6.45,6.67,5.7,2.24,11.02-1.6,12.07-2.35,7.44-5.36,6.9-15.74,6.84-16.66-.6-8.89-7.37-16.9-17.16-20.7Z"/>
        <path class="cls-4" d="m282.55,265.8c-4.99-7.54-14.72-9.21-20.74-4.85-5.97,4.32-6.2,13.12-3.53,18.09,3.71,6.91,13.48,10.01,22.06,5.74-1.05.58-6.7,3.79-7.06,8.82-.47,6.65,8.58,12.54,16.33,12.35,1.16-.03,10.01-.39,12.8-7.5,1.83-4.68.29-10.38-3.97-14.12.97.97,6.21,5.98,14.12,5.74,1.25-.04,10.61-.47,14.56-7.94,3.51-6.63.91-15.34-4.85-19.86-6.41-5.01-16.28-4.49-22.94,1.76-1.65-2.96-4.68-4.83-7.94-4.85-3.93-.03-7.54,2.65-8.82,6.62Z"/>
        <path class="cls-4" d="m252.44,306.47c-6.13-2.05-12.8-.7-17.32,3.54-5.94,5.56-6.86,14.86-2.86,20.99,5.08,7.78,17.77,9.97,26.88,2.49-.26,1.83-.86,7.73,2.83,12.47,5.39,6.92,17.48,8.2,24.8,1.8,6.84-5.98,7.83-17.21,2.5-23.42-3.03-3.53-7.31-4.5-9.38-4.81,1.14-.98,4.97-4.52,5.68-10.25.86-6.99-3.35-13.67-8.56-16.09-7.73-3.58-19.8,1.23-24.56,13.28Z"/>
        <path class="cls-8" d="m244.06,320.9c.05.94.44,10.33-6.67,15.79-6.93,5.33-18.61,5.08-24.11-2.52-4.11-5.69-3.78-14.12,1.12-20.44-1.91-.86-5.96-3.01-8.51-7.52-4.28-7.55-2.04-17.65,3.99-23.4,1.22-1.16,7.07-6.74,14.87-4.98,7.81,1.76,10.85,9.36,11.1,10.03.41-1,2.19-5,6.45-6.67,5.7-2.24,11.02,1.6,12.07,2.35,7.44,5.36,6.9,15.74,6.84,16.66-.6,8.89-7.37,16.9-17.16,20.7Z"/>
        <path class="cls-8" d="m291.29,326.82c-4.99,7.54-14.72,9.21-20.74,4.85-5.97-4.32-6.2-13.12-3.53-18.09,3.71-6.91,13.48-10.01,22.06-5.74-1.05-.58-6.7-3.79-7.06-8.82-.47-6.65,8.58-12.54,16.33-12.35,1.16.03,10.01.39,12.8,7.5,1.83,4.68.29,10.38-3.97,14.12.97-.97,6.21-5.98,14.12-5.74,1.25.04,10.61.47,14.56,7.94,3.51,6.63.91,15.34-4.85,19.86-6.41,5.01-16.28,4.49-22.94-1.76-1.65,2.96-4.68,4.83-7.94,4.85-3.93.03-7.54-2.65-8.82-6.62Z"/>
        <path class="cls-11" d="m261.19,282.94c-6.13,2.05-12.8.7-17.32-3.54-5.94-5.56-6.86-14.86-2.86-20.99,5.08-7.78,17.77-9.97,26.88-2.49-.26-1.83-.86-7.73,2.83-12.47,5.39-6.92,17.48-8.2,24.8-1.8,6.84,5.98,7.83,17.21,2.5,23.42-3.03,3.53-7.31,4.5-9.38,4.81,1.14.98,4.97,4.52,5.68,10.25.86,6.99-3.35,13.67-8.56,16.09-7.73,3.58-19.8-1.23-24.56-13.28Z"/>
        <path class="cls-8" d="m261.19,282.94c-6.13,2.05-12.8.7-17.32-3.54-5.94-5.56-6.86-14.86-2.86-20.99,5.08-7.78,17.77-9.97,26.88-2.49-.26-1.83-.86-7.73,2.83-12.47,5.39-6.92,17.48-8.2,24.8-1.8,6.84,5.98,7.83,17.21,2.5,23.42-3.03,3.53-7.31,4.5-9.38,4.81,1.14.98,4.97,4.52,5.68,10.25.86,6.99-3.35,13.67-8.56,16.09-7.73,3.58-19.8-1.23-24.56-13.28Z"/>
        <path class="cls-2" d="m265.39,275.47c-3.13.14-6.06-1.38-7.6-3.96-2.03-3.39-1.21-7.85,1.47-10.17,3.41-2.95,9.62-2.28,12.87,2.43.12-.89.63-3.72,2.98-5.44,3.44-2.51,7.95-1.49,10.51,2.47,2.39,3.7,3.83,9.53.52,11.71-1.89,1.24-3.94,2.23-4.95,2.1.4.61,1.69.35,1.25,3.12-.53,3.37-5.27,4.76-8.02,5.19-4.08.64-8.42-1.2-9.03-7.45Z"/>
        <path class="cls-2" d="m235.03,316.44c-.12.47-1.38,5.12-5.71,6.7-4.22,1.53-9.89-.39-11.41-4.96-1.13-3.42.34-7.5,3.71-9.83-.8-.72-2.45-2.4-3-5-.93-4.36,1.73-8.95,5.57-10.84.77-.38,4.5-2.21,8.05-.14,3.55,2.07,3.86,6.26,3.88,6.63.36-.43,1.85-2.11,4.19-2.27,3.14-.21,5.15,2.49,5.54,3.02,2.81,3.78.94,8.77.77,9.21-1.67,4.26-6.22,7.13-11.6,7.48Z"/>
        <path class="cls-2" d="m295.48,320.13c-2.88,3-7.42,2.95-9.78.48-2.35-2.45-1.72-6.45-.1-8.48,2.25-2.82,6.92-3.42,10.45-.77-.43-.35-2.72-2.27-2.47-4.57.33-3.05,4.91-4.97,8.4-4.24.52.11,4.5,1,5.17,4.45.44,2.27-.72,4.72-2.96,6.06.52-.36,3.3-2.19,6.86-1.43.56.12,4.76,1.09,5.93,4.79,1.04,3.29-.85,7.02-3.83,8.58-3.31,1.74-7.73.69-10.23-2.69-.99,1.2-2.52,1.8-3.99,1.54-1.78-.31-3.19-1.82-3.45-3.72Z"/>
        <g>
          <path class="cls-1" d="m198.4,223.69c-2.49-8.41-9.4-23.2-6.38-29.56,3.26-6.86,23.11-10.69,29.59-1.79,5.01,6.89,2.22,14.09-.78,17.46-4.18,4.69-11.13,5.67-11.15,6.12-.04,1.02.37,2.71.95,5.61,1.4,7.03-9.76,10.53-12.23,2.17Zm8.91-17.84c.82.29,1.51.46,3.57-1.37,1.3-1.15,1.38-2.64-.3-5.3-2.08-3.28-4.47-2.27-5.01-1.4-1.17,1.86.92,7.77,1.74,8.06Z"/>
          <path class="cls-1" d="m229.36,219.4c-4.26-9.16-5.16-22.1-3.46-31.98.74-4.31,11.19-5.13,12.37.8,1.19,5.94.31,22.86,1.26,24.03.95,1.17,5.74-1.68,10.52-1.83,4.79-.15,7.04,7.52.94,10.01-6.1,2.49-18.81,5.08-21.65-1.02Z"/>
          <path class="cls-1" d="m274.79,216.34c-.24-3.73.09-9.68-3.17-9.87-3.27-.19-3.01,6.27-5.13,11.18-2.7,6.23-12.12,4.65-12.33-.45-.17-4.2,2.91-9.06,3.67-14.32,1.32-9.15,3.44-23.33,15.42-21.98,13.65,1.53,14.93,23.71,13.98,35.06-.62,7.42-11.97,7.44-12.43.38Zm-2.08-24.72c-1.08-.31-2.72,7.72-1.86,8.25.86.53,2.84.64,3.12-.38.28-1.01.09-7.48-1.26-7.87Z"/>
          <path class="cls-1" d="m289.22,217.31c-.48-9.77.15-21.5,3.06-30.32,1.5-4.53,12.75-3.4,13.03,1.45.27,4.85-1,7.94-2.18,16.02-.83,5.73-.88,9.8-1.44,14.03-.84,6.29-12.1,6.33-12.46-1.19Z"/>
          <path class="cls-1" d="m319.13,222.83c-.9-2.76-2.32-8.06-2.59-6.98-.54,2.15-.56,3.19-1,5.39-1.38,7.01-11.79,4.46-11.24-2.21.83-10.02,1.34-21.88,5.83-30.34,2-3.78,9.84-1.8,11.53.48,2.73,3.67,1.88,16.13,2.73,16.48.85.34.3-7.91,3.16-13.58,1.87-3.7,11.42-2.91,12.21,2.85.55,4.02-1.58,9.56-3.38,15.13-2.14,6.62-3.67,14.84-6,16.74-3.42,2.79-9.4,1.76-11.25-3.95Z"/>
        </g>
      </g>
    </g>
  </g>
</svg>