<?xml version="1.0" encoding="UTF-8"?>
<svg xmlns="http://www.w3.org/2000/svg" viewBox="0 0 540 540">
  <defs>
    <style>
      .cls-1 {
        fill: #dd9976;
      }

      .cls-2 {
        isolation: isolate;
      }

      .cls-3 {
        fill: #d18b6b;
      }

      .cls-4 {
        fill: #a0a0a0;
        mix-blend-mode: soft-light;
      }

      .cls-5 {
        fill: #fbbc8f;
      }

      .cls-6 {
        fill: #fcc7a2;
      }

      .cls-7 {
        fill: #d7855d;
      }
    </style>
  </defs>
  <g class="cls-2">
    <g id="_Layer_" data-name="&amp;lt;Layer&amp;gt;">
      <g>
        <path class="cls-6" d="m445.74,274.43c0,29.3-16.03,56.92-28.7,81.21-29.33,56.18-70.42,85.68-138.18,85.68-54.94,0-103.99-16.35-136.21-55.83-24.71-30.27-48.38-68.93-48.38-111.05,0-46.94,22.83-86.04,52.82-117.56,32.01-33.65,72.8-58.18,122.92-58.18,36.4,0,65.78,18.15,93.83,37.1,46.75,31.58,81.91,77.98,81.91,138.64Z"/>
        <path class="cls-1" d="m428.43,275.17c0,26.72-14.61,51.91-26.18,74.06-26.74,51.23-64.22,78.13-126.01,78.13-50.1,0-94.83-14.91-124.22-50.92-22.53-27.6-44.12-62.86-44.12-101.27,0-42.81,20.82-78.46,48.17-107.21,29.2-30.69,66.39-53.05,112.1-53.05,33.19,0,59.99,16.55,85.57,33.83,42.63,28.8,74.7,71.11,74.7,126.43Z"/>
        <path class="cls-3" d="m343.59,387.11c3.73-1.89,49.99-26.21,60.61-75.24.46-2.14,9.53-45.86-8.07-55.88-24.46-13.92-69.51,54.78-103.79,41.09-20.31-8.11-12.69-35.52-44.38-74.11-10.7-13.03-35.58-43.33-60.15-40.45-34.01,3.98-66.22,71.4-52.44,122.84,20.03,74.79,137.7,117.46,208.22,81.75Z"/>
        <path class="cls-3" d="m250.02,134.54c-6.28,6.65-1.84,20.16,7.03,47.2,12.77,38.9,22.65,69.01,49.21,79.33,36.03,14,89.56-13.57,92.39-41.17,4.67-45.61-127.45-107.77-148.62-85.36Z"/>
        <g>
          <path class="cls-6" d="m172.11,227.09c-7.24,6.14-6.65,19.38-2.01,28.12,4.14,7.8,13.88,16.45,24.1,14.06,11.71-2.74,18.25-18.61,14.06-30.13-5.25-14.41-26.62-20.14-36.15-12.05Z"/>
          <path class="cls-6" d="m312.7,335.54c9.62-1.72,21.26,3.57,22.09,10.04.91,7.11-11.29,15.06-22.09,16.07-5.92.55-16.01-.56-18.08-6.03-2.46-6.51,6.93-18.09,18.08-20.08Z"/>
          <path class="cls-6" d="m244.41,241.15c-21.23-15.45-54.3-8.59-56.24,0-1.34,5.96,13.33,8.19,28.12,28.12,11.26,15.18,10.62,24.51,18.08,26.11,9.82,2.11,24.98-11.06,26.11-26.11,1.17-15.57-13.22-26.04-16.07-28.12Z"/>
          <path class="cls-6" d="m272.53,152.77c-5.61,5.39-3.95,16.93,0,24.1,7.14,12.95,26.19,19.68,36.15,12.05,5.82-4.45,7.83-13.26,6.03-20.08-4.45-16.81-32.96-24.93-42.18-16.07Z"/>
          <path class="cls-6" d="m360.9,243.15c-4.48-.43-11.07,6.69-10.04,14.06,1.33,9.48,14.39,13,18.08,10.04,4.84-3.89-1.03-23.42-8.03-24.1Z"/>
          <path class="cls-6" d="m218.42,191.77c-.65-3.2-6.99-6.26-11.88-3.98-6.29,2.93-5.96,12.74-3.12,14.67,3.73,2.53,16.02-5.69,15-10.69Z"/>
          <path class="cls-6" d="m147.42,281.54c-5.83,2.7-5.39,17.51-1.83,27.46,6.43,17.96,26.56,29.89,32.95,25.63,3.73-2.48,2.51-10.3,1.83-14.64-3.49-22.31-24.74-42.24-32.95-38.44Z"/>
          <path class="cls-6" d="m209.66,366.41c-1.63,4.27,12.45,17.27,19.85,13.5,3.34-1.7,5.31-6.83,3.97-10.32-2.97-7.72-22.18-7.45-23.82-3.18Z"/>
          <path class="cls-4" d="m285.92,137.86c-1.94.17-19.91,1.95-23.1,10.58-5.16,13.97,36.3,24.47,66.28,62.59,6.5,8.26,46.39,60.97,31.13,108.43-2.95,9.18-9.94,24.3-4.02,28.21,5.55,3.66,19.1-4.67,20.08-5.29,28.92-18.1,30.13-77.61,9.04-123.42-17.7-38.44-59.15-84.7-99.42-81.1Z"/>
        </g>
        <path class="cls-5" d="m212.86,417.75c-23.82-8.07-44.66-21.48-60.84-41.31-22.53-27.6-44.12-62.86-44.12-101.27,0-35.93,14.67-66.83,35.56-92.82.69-1.43,1.4-2.84,2.12-4.23,14.79-28.37,35.93-47.82,52.71-61.15-19.06,10.2-36.11,24.03-51.21,39.9-29.99,31.52-52.82,70.62-52.82,117.56,0,42.12,23.67,80.78,48.38,111.05,32.23,39.48,81.28,55.83,136.21,55.83,3.02,0,5.96-.08,8.87-.2.39-.14.79-.28,1.17-.42-8.11-.71-41.22-4.09-76.04-22.95Z"/>
        <path class="cls-7" d="m152.02,376.44c16.18,19.82,37.02,33.24,60.84,41.31-19.32-10.47-39.16-25.7-55.55-47.89-44.79-60.64-37.8-138.06-13.84-187.51-20.89,26-35.56,56.89-35.56,92.82,0,38.41,21.59,73.67,44.12,101.27Z"/>
      </g>
    </g>
  </g>
</svg>