<?xml version="1.0" encoding="UTF-8"?>
<svg id="_Layer_" data-name="&amp;lt;Layer&amp;gt;" xmlns="http://www.w3.org/2000/svg" viewBox="0 0 540 540">
  <defs>
    <style>
      .cls-1 {
        fill: #fff;
      }

      .cls-2 {
        fill: #f9c778;
      }

      .cls-3 {
        fill: #f2c18b;
      }

      .cls-4 {
        fill: #fcd59d;
      }

      .cls-5 {
        fill: #f2c275;
      }

      .cls-6 {
        fill: #fff8f0;
      }

      .cls-7 {
        fill: #ffe0ad;
      }

      .cls-8 {
        fill: #f2cd97;
      }

      .cls-9 {
        fill: #ffebd2;
      }
    </style>
  </defs>
  <path class="cls-4" d="m410.45,306.98c1.9-26.9,1.84-53.91-.17-80.8l-6.99-93.59h-.38l18.46-23.86H118.63l18.46,23.86h-.38l-6.91,90.42c-2.06,26.94-2.16,53.99-.3,80.95l7.17,104.01-18.04,23.32h302.74l-18.04-23.32,7.12-100.98Z"/>
  <path class="cls-2" d="m388.1,390.15h-236.2l-6.39-92.59c-1.65-23.88-1.56-47.85.27-71.72l5.29-69.27,237.03-10.84,6.19,82.93c1.78,23.83,1.83,47.76.15,71.59l-6.34,89.91Z"/>
  <path class="cls-9" d="m261.19,282.94c-6.13,2.05-12.8.7-17.32-3.54-5.94-5.56-6.86-14.86-2.86-20.99,5.08-7.78,17.77-9.97,26.88-2.49-.26-1.83-.86-7.73,2.83-12.47,5.39-6.92,17.48-8.2,24.8-1.8,6.84,5.98,7.83,17.21,2.5,23.42-3.03,3.53-7.31,4.5-9.38,4.81,1.14.98,4.97,4.52,5.68,10.25.86,6.99-3.35,13.67-8.56,16.09-7.73,3.58-19.8-1.23-24.56-13.28Z"/>
  <g>
    <path class="cls-7" d="m238.05,274.33c.07-1.15.53-12.67-8.18-19.37-8.5-6.53-22.82-6.23-29.57,3.09-5.05,6.98-4.63,17.32,1.38,25.07-2.34,1.05-7.31,3.7-10.44,9.22-5.25,9.27-2.5,21.65,4.9,28.7,1.49,1.42,8.67,8.27,18.24,6.11,9.57-2.16,13.31-11.48,13.62-12.3.51,1.23,2.69,6.13,7.92,8.18,7,2.74,13.52-1.96,14.81-2.89,9.13-6.58,8.46-19.31,8.38-20.44-.74-10.9-9.04-20.73-21.05-25.39Z"/>
    <path class="cls-7" d="m285.27,272.16c-6.12-9.25-18.06-11.29-25.44-5.95-7.33,5.3-7.6,16.1-4.33,22.19,4.55,8.47,16.53,12.28,27.06,7.04-1.29.71-8.22,4.65-8.66,10.82-.58,8.16,10.52,15.38,20.03,15.15,1.43-.03,12.28-.47,15.7-9.2,2.24-5.74.36-12.73-4.87-17.32,1.19,1.19,7.61,7.33,17.32,7.04,1.53-.05,13.02-.58,17.86-9.74,4.3-8.14,1.12-18.82-5.95-24.36-7.86-6.15-19.97-5.51-28.14,2.16-2.02-3.63-5.75-5.93-9.74-5.95-4.82-.03-9.25,3.25-10.82,8.12Z"/>
    <path class="cls-7" d="m248.34,322.04c-7.52-2.51-15.7-.85-21.25,4.34-7.28,6.82-8.41,18.23-3.51,25.75,6.23,9.54,21.79,12.23,32.98,3.05-.32,2.25-1.06,9.49,3.47,15.3,6.61,8.49,21.44,10.06,30.42,2.21,8.39-7.34,9.61-21.11,3.07-28.72-3.72-4.33-8.97-5.53-11.51-5.91,1.4-1.21,6.1-5.54,6.96-12.58,1.06-8.57-4.11-16.77-10.5-19.73-9.48-4.39-24.28,1.51-30.13,16.29Z"/>
    <path class="cls-6" d="m238.05,339.73c.07,1.15.53,12.67-8.18,19.37-8.5,6.53-22.82,6.23-29.57-3.09-5.05-6.98-4.63-17.32,1.38-25.07-2.34-1.05-7.31-3.7-10.44-9.22-5.25-9.27-2.5-21.65,4.9-28.7,1.49-1.42,8.67-8.27,18.24-6.11,9.57,2.16,13.31,11.48,13.62,12.3.51-1.23,2.69-6.13,7.92-8.18,7-2.74,13.52,1.96,14.81,2.89,9.13,6.58,8.46,19.31,8.38,20.44-.74,10.9-9.04,20.73-21.05,25.39Z"/>
    <path class="cls-6" d="m295.99,347.01c-6.12,9.25-18.06,11.29-25.44,5.95-7.33-5.3-7.6-16.1-4.33-22.19,4.55-8.47,16.53-12.28,27.06-7.04-1.29-.71-8.22-4.65-8.66-10.82-.58-8.16,10.52-15.38,20.03-15.15,1.43.03,12.28.47,15.7,9.2,2.24,5.74.36,12.73-4.87,17.32,1.19-1.19,7.61-7.33,17.32-7.04,1.53.05,13.02.58,17.86,9.74,4.3,8.14,1.12,18.82-5.95,24.36-7.86,6.15-19.97,5.51-28.14-2.16-2.02,3.63-5.75,5.93-9.74,5.95-4.82.03-9.25-3.25-10.82-8.12Z"/>
    <path class="cls-6" d="m259.06,293.17c-7.52,2.51-15.7.85-21.25-4.34-7.28-6.82-8.41-18.23-3.51-25.75,6.23-9.54,21.79-12.23,32.98-3.05-.32-2.25-1.06-9.49,3.47-15.3,6.61-8.49,21.44-10.06,30.42-2.21,8.39,7.34,9.61,21.11,3.07,28.72-3.72,4.33-8.97,5.53-11.51,5.91,1.4,1.21,6.1,5.54,6.96,12.58,1.06,8.57-4.11,16.77-10.5,19.73-9.48,4.39-24.28-1.51-30.13-16.29Z"/>
    <path class="cls-3" d="m264.22,284.01c-3.84.17-7.44-1.7-9.33-4.86-2.48-4.15-1.49-9.62,1.8-12.47,4.18-3.62,11.8-2.79,15.78,2.98.15-1.09.77-4.56,3.66-6.67,4.22-3.08,9.75-1.83,12.89,3.03,2.93,4.54,4.7,11.69.64,14.37-2.31,1.52-4.83,2.73-6.07,2.57.49.75,2.07.43,1.53,3.83-.65,4.14-6.46,5.84-9.84,6.37-5.01.78-10.33-1.47-11.08-9.14Z"/>
    <path class="cls-3" d="m226.98,334.27c-.15.57-1.7,6.28-7,8.21-5.17,1.88-12.14-.48-13.99-6.09-1.39-4.2.41-9.2,4.55-12.06-.98-.88-3-2.94-3.68-6.13-1.14-5.35,2.13-10.98,6.84-13.29.95-.47,5.52-2.71,9.87-.17,4.35,2.54,4.74,7.68,4.76,8.13.44-.52,2.27-2.59,5.14-2.78,3.85-.26,6.31,3.05,6.8,3.7,3.45,4.63,1.15,10.76.94,11.3-2.05,5.22-7.63,8.75-14.23,9.17Z"/>
    <path class="cls-3" d="m301.13,338.8c-3.53,3.68-9.1,3.62-12,.59-2.88-3-2.11-7.91-.13-10.4,2.76-3.46,8.49-4.19,12.82-.95-.53-.43-3.33-2.78-3.02-5.61.41-3.74,6.03-6.09,10.31-5.2.64.13,5.52,1.23,6.34,5.46.54,2.78-.89,5.79-3.63,7.43.64-.44,4.05-2.69,8.42-1.75.69.15,5.84,1.34,7.28,5.88,1.28,4.04-1.05,8.61-4.7,10.53-4.06,2.13-9.49.85-12.55-3.3-1.21,1.47-3.09,2.21-4.9,1.89-2.18-.38-3.92-2.23-4.23-4.57Z"/>
  </g>
  <g>
    <path class="cls-1" d="m215.26,221.53c.26,1.31.1,2.54-.5,3.68-.6,1.14-1.45,1.97-2.54,2.49-1.1.52-2.25.81-3.45.88-1.2.07-2.34-.33-3.42-1.18-1.08-.86-1.85-2.1-2.3-3.71-.61-2.16-1.53-5.09-2.72-8.75-1.19-3.67-2.1-6.52-2.71-8.58-.62-2.05-1.07-4.26-1.36-6.61-.29-2.35-.15-4.23.41-5.64.42-1.05,1.48-2.15,3.18-3.28,1.7-1.13,3.76-2.04,6.18-2.71,2.41-.67,4.9-1.07,7.44-1.2,2.54-.13,4.99.27,7.34,1.19,2.34.91,4.16,2.34,5.45,4.23,1.17,1.72,1.96,3.49,2.36,5.28.41,1.8.47,3.45.2,4.96-.27,1.51-.69,2.86-1.27,4.04-.57,1.19-1.26,2.25-2.06,3.2-1.23,1.36-2.78,2.5-4.63,3.43-1.85.93-3.4,1.6-4.64,1.98-1.25.38-1.88.62-1.9.7.01.47.32,2.36.96,5.6Zm-5.07-23.74c-.51.96-.46,2.5.13,4.6.59,2.1,1.12,3.26,1.59,3.48.36.08.65.13.86.15.22.01.56-.09,1.03-.32.47-.23,1.03-.66,1.68-1.24.68-.6,1.03-1.29.99-2.09-.04-.79-.46-1.85-1.28-3.18-.38-.63-.79-1.12-1.23-1.49-.44-.36-.86-.59-1.25-.69-.39-.1-.76-.12-1.1-.07-.34.05-.63.16-.86.32-.23.16-.42.34-.55.52Z"/>
    <path class="cls-1" d="m255.64,220.44c-1.65.68-3.53,1.23-5.57,1.71-2.04.48-4.13.8-6.29.98-2.16.18-4.13-.03-5.94-.62-1.81-.59-3.1-1.62-3.85-3.1-.96-1.88-1.78-4.44-2.44-7.69-.66-3.25-1.09-6.47-1.28-9.67-.19-3.2-.26-6.14-.21-8.83.05-2.69.19-4.66.44-5.82.18-.83.72-1.57,1.56-2.2.84-.63,1.82-1.02,2.94-1.19,1.12-.17,2.24-.16,3.35,0,1.11.17,2.09.64,2.94,1.38s1.39,1.69,1.61,2.82c.33,1.65.52,4.53.62,8.62.09,4.08.14,7.41.14,9.99,0,2.58.17,4.39.51,5.43.18.21.51.3.99.26.48-.04,1.07-.17,1.78-.39.71-.21,1.46-.44,2.25-.67.79-.23,1.69-.46,2.71-.68,1.01-.22,1.97-.31,2.79-.34,1.14-.04,2.18.32,3.02,1.14.84.82,1.37,1.78,1.59,2.86.22,1.08.02,2.2-.57,3.36-.6,1.15-1.63,2.06-3.07,2.65Z"/>
    <path class="cls-1" d="m291.9,215.94c-.11,1.41-.62,2.6-1.49,3.57s-1.89,1.57-3.05,1.8c-1.16.23-2.32.25-3.49.05-1.17-.19-2.17-.75-3.01-1.66-.84-.91-1.28-2.06-1.37-3.38-.02-.34-.06-.9-.09-1.67-.03-.77-.06-1.4-.08-1.9-.02-.5-.07-1.09-.15-1.79-.08-.69-.18-1.27-.31-1.73-.13-.46-.3-.92-.51-1.37s-.49-.78-.83-1c-.34-.22-.76-.36-1.24-.4-.72-.06-1.35.29-1.85,1.03-.5.74-.86,1.6-1.1,2.6-.23.99-.55,2.25-.94,3.78-.39,1.53-.8,2.79-1.24,3.78-.52,1.18-1.28,2.12-2.28,2.81-1.01.69-2.05,1.08-3.15,1.15-1.1.08-2.16-.02-3.2-.3-1.03-.28-1.89-.78-2.58-1.52-.69-.74-1.06-1.6-1.1-2.6-.05-1.22.13-2.6.55-4.13.42-1.53.96-3.25,1.63-5.17.67-1.92,1.2-3.6,1.51-5.01.19-.87.37-2.23.55-4.03.19-1.8.37-3.42.56-4.86.18-1.44.57-3.03,1.16-4.76.6-1.73,1.37-3.18,2.33-4.34.96-1.16,2.35-2.14,4.2-2.94,1.84-.8,4.06-1.13,6.58-1.05,2.21.07,4.22.76,5.95,2.11,1.73,1.34,3.11,3.1,4.14,5.25,1.03,2.15,1.86,4.48,2.52,6.98.66,2.5,1.08,5.09,1.29,7.78.21,2.68.31,5.09.3,7.22,0,2.13-.08,4.03-.22,5.71Zm-13.28-16.48c.17-.65.23-2.12,0-4.31-.23-2.19-.65-3.37-1.25-3.54-.34-.08-.73.55-1.17,1.9-.43,1.35-.71,2.66-.84,3.92-.13,1.26-.07,2.15.18,2.41.3.32,1,.45,1.78.41.77-.04,1.19-.34,1.31-.8Z"/>
    <path class="cls-1" d="m306.29,218.52c-.16,1.18-.68,2.17-1.55,2.98-.87.81-1.89,1.29-3.06,1.44-1.17.15-2.32.1-3.46-.16-1.14-.26-2.12-.86-2.95-1.82-.83-.96-1.3-2.18-1.41-3.64-.25-3.51,0-9.02.79-16.49.79-7.48,1.57-12.1,2.27-13.83.46-1.13,1.39-1.98,2.82-2.47,1.43-.49,2.87-.65,4.33-.47,1.45.18,2.78.67,3.98,1.45,1.19.79,1.82,1.77,1.89,2.94.08,1.43.02,2.83-.16,4.18-.18,1.35-.49,3.18-.93,5.49-.44,2.32-.81,4.44-1.1,6.37-.32,2.08-.59,4.65-.84,7.71-.25,3.06-.45,5.17-.61,6.35Z"/>
    <path class="cls-1" d="m335,226.8c-1.16.93-2.5,1.42-4.01,1.48-1.51.06-2.94-.38-4.31-1.33-1.37-.94-2.35-2.31-2.95-4.11-.14-.5-.44-1.53-.92-3.11-.48-1.58-.86-2.7-1.12-3.37-.26-.67-.45-.84-.55-.51-.13.44-.29,1.34-.5,2.68-.21,1.34-.35,2.25-.44,2.69-.2.96-.6,1.79-1.12,2.45-.52.66-1.14,1.1-1.85,1.33-.71.22-1.46.34-2.25.36-.79.02-1.55-.14-2.27-.5-.73-.35-1.4-.78-2-1.3-.61-.52-1.07-1.18-1.39-1.98-.32-.8-.45-1.66-.4-2.58.34-5.13,1.06-10.94,2.2-17.43,1.14-6.48,2.35-10.78,3.64-12.87.71-1.21,1.91-1.92,3.58-2.12,1.67-.2,3.28-.01,4.8.55,1.53.56,2.57,1.23,3.15,2,.79,1.08,1.35,2.99,1.68,5.7.33,2.72.53,5.18.62,7.38.09,2.21.23,3.35.42,3.43.19-.08.32-.33.39-.77.07-.43.17-1.19.31-2.25.14-1.06.26-2.14.38-3.23.12-1.09.36-2.33.74-3.72.38-1.39.83-2.6,1.36-3.62.37-.7,1-1.27,1.88-1.68.88-.42,1.87-.62,2.97-.61,1.09.01,2.17.19,3.24.54,1.06.35,1.98.93,2.75,1.72.77.8,1.21,1.75,1.34,2.85.08.57.12,1.17.13,1.78,0,.61-.07,1.31-.23,2.08-.15.77-.29,1.45-.42,2.03-.13.58-.33,1.35-.62,2.3-.29.95-.51,1.69-.66,2.2-.15.51-.42,1.33-.79,2.46-.38,1.13-.65,1.9-.78,2.29-.37,1.13-.94,3.32-1.8,6.44-.86,3.12-1.59,5.48-2.2,7.08-.61,1.6-1.27,2.69-1.98,3.26Z"/>
  </g>
  <g>
    <path class="cls-8" d="m410.45,306.98c1.9-26.9,1.84-53.91-.17-80.8l-6.99-93.59h-.38l18.46-23.86H118.63l16.96,21.92c78.73-.8,146.41,4.49,225.17,3.68,0,0,.63,4.77,1.64,12.58l25.7-1.18,6.19,82.93c1.78,23.83,1.83,47.76.15,71.59l-6.34,89.91h-30.9c-2.04,10.06-3.39,16.51-3.39,16.51-83.94-.57-134.93,3.53-218.46,3.01l-16.71,21.6h302.74l-18.04-23.32,7.12-100.98Z"/>
    <path class="cls-5" d="m394.44,300.24c1.68-23.84,1.63-47.76-.15-71.59l-6.19-82.93-25.7,1.18c4.03,31.25,14.11,111.23,14.11,129.12,0,16.9-12.98,82.93-19.32,114.14h30.9l6.34-89.91Z"/>
  </g>
</svg>