<?xml version="1.0" encoding="UTF-8"?>
<svg xmlns="http://www.w3.org/2000/svg" xmlns:xlink="http://www.w3.org/1999/xlink" viewBox="0 0 540 540">
  <defs>
    <style>
      .cls-1 {
        fill: #a05252;
      }

      .cls-2 {
        clip-path: url(#clippath-2);
      }

      .cls-3 {
        isolation: isolate;
      }

      .cls-4 {
        clip-path: url(#clippath-1);
      }

      .cls-5 {
        fill: #a55858;
      }

      .cls-6 {
        fill: #c9c9c9;
        opacity: .53;
      }

      .cls-6, .cls-7 {
        mix-blend-mode: overlay;
      }

      .cls-7 {
        fill: #686665;
      }

      .cls-8 {
        clip-path: url(#clippath);
      }

      .cls-9 {
        fill: none;
      }

      .cls-10 {
        fill: #ad6661;
      }
    </style>
    <clipPath id="clippath">
      <path class="cls-9" d="m202.13,287c6.95-15.44,9.61-39.23-.12-54.38-8.58-13.35-26.44-19.45-40.3-19.21-39.02.68-78.79,52.22-80.89,103.2-1.93,47.05,27.91,101.18,66.54,106.1,15.45,1.97,33.77-3.76,44.33-15.87,15.63-17.92,16.41-52.23,7.36-74.11-2.02-4.89-6.03-12.77-5.22-23.54.73-9.75,4.87-14.6,8.29-22.21Z"/>
    </clipPath>
    <clipPath id="clippath-1">
      <path class="cls-9" d="m318.04,286.1c-7.89-14.98-25-31.72-42.93-33.37-15.8-1.46-31.6,8.87-39.94,19.93-23.49,31.17-7.35,94.24,31.54,127.27,35.89,30.49,96.92,40.29,124.58,12.87,11.06-10.97,17.83-28.92,14.79-44.71-4.5-23.34-31.06-45.09-53.87-51.42-5.1-1.42-13.78-3.1-21.76-10.37-7.23-6.58-8.51-12.83-12.4-20.2Z"/>
    </clipPath>
    <clipPath id="clippath-2">
      <path class="cls-9" d="m399.89,158.64c-2.99-16.67-14.23-37.8-30.82-44.8-14.62-6.17-32.81-1.11-44.1,6.92-31.81,22.61-35.51,87.6-8.44,130.85,24.99,39.92,80.19,67.72,114.85,49.95,13.86-7.11,25.74-22.18,27.62-38.14,2.77-23.61-15.97-52.37-35.79-65.31-4.44-2.89-12.19-7.13-17.61-16.47-4.9-8.46-4.23-14.8-5.7-23.01Z"/>
    </clipPath>
  </defs>
  <g class="cls-3">
    <g id="_Layer_" data-name="&amp;lt;Layer&amp;gt;">
      <g>
        <g>
          <path class="cls-5" d="m202.13,287c6.95-15.44,9.61-39.23-.12-54.38-8.58-13.35-26.44-19.45-40.3-19.21-39.02.68-78.79,52.22-80.89,103.2-1.93,47.05,27.91,101.18,66.54,106.1,15.45,1.97,33.77-3.76,44.33-15.87,15.63-17.92,16.41-52.23,7.36-74.11-2.02-4.89-6.03-12.77-5.22-23.54.73-9.75,4.87-14.6,8.29-22.21Z"/>
          <path class="cls-1" d="m104.46,274.53c-1.46,2.87-23.35,47.67-.61,90.93,1.18,2.24,26.42,48.97,56.6,42.86,16.4-3.32,28.9-21.16,31.41-37.63,3.17-20.84-11.25-29.06-20.35-56.27-15.94-47.68,8.66-81.38-4.35-89.05-12.62-7.44-46.74,17.79-62.7,49.16Z"/>
          <g class="cls-8">
            <path class="cls-7" d="m136.89,186.49c-43.06,65.27-44.14,143.09-5.24,192.39,26.17,33.16,63.18,44.22,80.65,48.1-62.93,26.73-129.55,34.4-158.03,4.91-36.91-38.22-17.6-146.92,82.61-245.39Z"/>
            <path class="cls-10" d="m201.89,292.93c-8.28.85-15.28,5.77-17.45,12.43-3.06,9.39,3.58,21.9,16.58,25.3.29-12.58.58-25.16.87-37.74Z"/>
          </g>
          <path class="cls-6" d="m182.5,223.06c-4.57-.85-10.01,2.03-11.51,6.63-1.66,5.07,2.32,9.62,8.78,22.42,9.36,18.56,9.84,26.55,12.78,26.53,4.03-.03,7.49-15.13,5.21-29.04-.18-1.09-4.23-24.48-15.25-26.54Z"/>
          <path class="cls-6" d="m160.74,217.55c-3.22-.36-6.77,1.81-7.62,5.36-.77,3.18.89,6.39,3.5,7.83,3.61,1.98,8.58.31,10.1-3.3,1.72-4.08-1.5-9.39-5.98-9.89Z"/>
        </g>
        <g>
          <path class="cls-5" d="m318.04,286.1c-7.89-14.98-25-31.72-42.93-33.37-15.8-1.46-31.6,8.87-39.94,19.93-23.49,31.17-7.35,94.24,31.54,127.27,35.89,30.49,96.92,40.29,124.58,12.87,11.06-10.97,17.83-28.92,14.79-44.71-4.5-23.34-31.06-45.09-53.87-51.42-5.1-1.42-13.78-3.1-21.76-10.37-7.23-6.58-8.51-12.83-12.4-20.2Z"/>
          <path class="cls-1" d="m248.1,355.4c1.36,2.92,23.19,47.75,71.28,56.46,2.49.45,54.86,9.32,68.62-18.22,7.48-14.97,1.12-35.8-10.32-47.92-14.47-15.33-29.83-9.02-56.87-18.6-47.38-16.79-58.8-56.92-72.86-51.39-13.63,5.36-14.75,47.79.14,79.68Z"/>
          <g class="cls-4">
            <path class="cls-7" d="m198.68,275.64c24.93,74.11,85.6,122.87,148.39,122.55,42.24-.21,73.74-22.57,87.55-33.95-17.67,66.05-52.64,123.27-93.41,127.56-52.84,5.56-126.62-76.57-142.53-216.16Z"/>
            <path class="cls-10" d="m322.58,289.94c-4.43,7.05-4.86,15.6-.94,21.41,5.52,8.19,19.46,10.66,30.15,2.51-9.73-7.97-19.47-15.94-29.2-23.92Z"/>
          </g>
          <path class="cls-6" d="m255.57,262.21c-3.49,3.08-4.56,9.13-1.86,13.15,2.98,4.43,9.01,4.09,23.07,6.88,20.39,4.05,26.98,8.59,28.77,6.26,2.46-3.19-7.31-15.21-19.68-21.98-.97-.53-21.9-11.74-30.3-4.32Z"/>
          <path class="cls-6" d="m237.83,275.97c-2.27,2.32-2.74,6.45-.47,9.31,2.03,2.56,5.58,3.24,8.33,2.06,3.79-1.63,5.52-6.57,3.62-9.99-2.16-3.87-8.33-4.6-11.47-1.38Z"/>
        </g>
        <g>
          <path class="cls-5" d="m399.89,158.64c-2.99-16.67-14.23-37.8-30.82-44.8-14.62-6.17-32.81-1.11-44.1,6.92-31.81,22.61-35.51,87.6-8.44,130.85,24.99,39.92,80.19,67.72,114.85,49.95,13.86-7.11,25.74-22.18,27.62-38.14,2.77-23.61-15.97-52.37-35.79-65.31-4.44-2.89-12.19-7.13-17.61-16.47-4.9-8.46-4.23-14.8-5.7-23.01Z"/>
          <path class="cls-1" d="m312.26,203.53c.42,3.2,7.66,52.52,50.86,75.37,2.24,1.18,49.47,25.48,70.92,3.39,11.66-12.01,11.9-33.79,4.66-48.79-9.16-18.99-25.71-17.62-48.58-34.93-40.09-30.34-38.83-72.04-53.9-71.02-14.61.99-28.51,41.09-23.96,75.99Z"/>
          <g class="cls-2">
            <path class="cls-7" d="m289.28,112.56c1.34,78.18,44.42,143,104.37,161.7,40.33,12.58,77.11.79,93.72-5.88-36.82,57.61-87.46,101.57-127.62,93.33-52.04-10.68-97.53-111.28-70.47-249.15Z"/>
            <path class="cls-10" d="m403.05,163.67c-6.36,5.38-9.34,13.4-7.37,20.12,2.78,9.48,15.33,16.05,27.97,11.51-6.87-10.54-13.73-21.09-20.6-31.63Z"/>
          </g>
          <path class="cls-6" d="m347.57,116.97c-4.26,1.88-7.11,7.33-5.75,11.97,1.5,5.12,7.35,6.62,19.91,13.54,18.21,10.03,23.12,16.34,25.53,14.67,3.31-2.3-2.37-16.71-12.11-26.9-.76-.8-17.32-17.81-27.58-13.28Z"/>
          <path class="cls-6" d="m326.5,124.72c-2.86,1.52-4.56,5.32-3.26,8.73,1.16,3.05,4.34,4.78,7.31,4.48,4.1-.41,7.25-4.59,6.47-8.43-.88-4.34-6.55-6.9-10.52-4.79Z"/>
        </g>
      </g>
    </g>
  </g>
</svg>