<?xml version="1.0" encoding="UTF-8"?>
<svg xmlns="http://www.w3.org/2000/svg" viewBox="0 0 540 540">
  <defs>
    <style>
      .cls-1 {
        fill: #a05252;
      }

      .cls-2 {
        isolation: isolate;
      }

      .cls-3 {
        fill: #a55858;
      }

      .cls-4 {
        fill: #c9c9c9;
        mix-blend-mode: overlay;
        opacity: .53;
      }

      .cls-5 {
        fill: #944646;
      }

      .cls-6 {
        fill: none;
      }

      .cls-7 {
        fill: #ad6661;
      }
    </style>
  </defs>
  <g class="cls-2">
    <g id="_Layer_" data-name="&amp;lt;Layer&amp;gt;">
      <g>
        <path class="cls-3" d="m220.8,338.06c5.04-11.2,6.97-28.44-.09-39.42-6.22-9.68-19.17-14.1-29.21-13.92-28.29.49-57.12,37.86-58.64,74.82-1.4,34.11,20.23,73.35,48.24,76.92,11.2,1.43,24.48-2.72,32.14-11.5,11.33-12.99,11.9-37.87,5.34-53.72-1.47-3.55-4.37-9.26-3.79-17.06.53-7.07,3.53-10.59,6.01-16.1Z"/>
        <path class="cls-1" d="m149.99,329.03c-1.06,2.08-16.93,34.56-.45,65.92.85,1.63,19.15,35.5,41.03,31.07,11.89-2.41,20.95-15.34,22.77-27.28,2.3-15.11-8.16-21.07-14.75-40.79-11.55-34.57,6.28-59-3.15-64.56-9.15-5.39-33.88,12.9-45.46,35.64Z"/>
        <path class="cls-4" d="m206.57,291.71c-3.32-.62-7.26,1.47-8.34,4.81-1.2,3.68,1.68,6.97,6.36,16.25,6.79,13.46,7.14,19.25,9.26,19.23,2.92-.02,5.43-10.97,3.78-21.05-.13-.79-3.06-17.75-11.06-19.24Z"/>
        <path class="cls-4" d="m190.79,287.72c-2.34-.26-4.91,1.31-5.53,3.88-.55,2.3.64,4.64,2.54,5.68,2.62,1.44,6.22.22,7.32-2.39,1.25-2.96-1.09-6.81-4.33-7.17Z"/>
        <path class="cls-3" d="m304.83,337.42c-5.72-10.86-18.12-23-31.12-24.2-11.46-1.06-22.91,6.43-28.96,14.45-17.03,22.6-5.33,68.32,22.86,92.27,26.02,22.1,70.26,29.21,90.31,9.33,8.02-7.95,12.92-20.97,10.72-32.41-3.26-16.92-22.52-32.69-39.05-37.28-3.7-1.03-9.99-2.25-15.78-7.52-5.24-4.77-6.17-9.3-8.99-14.65Z"/>
        <path class="cls-1" d="m254.12,387.65c.99,2.12,16.81,34.61,51.67,40.93,1.81.33,39.77,6.76,49.75-13.21,5.42-10.85.81-25.95-7.48-34.74-10.49-11.11-21.63-6.54-41.23-13.49-34.35-12.17-42.63-41.27-52.82-37.26-9.88,3.89-10.69,34.64.1,57.76Z"/>
        <path class="cls-4" d="m259.54,320.09c-2.53,2.23-3.31,6.62-1.35,9.53,2.16,3.21,6.53,2.97,16.72,4.99,14.78,2.94,19.56,6.22,20.86,4.54,1.78-2.31-5.3-11.03-14.26-15.93-.7-.38-15.87-8.51-21.97-3.13Z"/>
        <path class="cls-4" d="m246.68,330.07c-1.64,1.68-1.99,4.68-.34,6.75,1.47,1.86,4.05,2.35,6.04,1.49,2.74-1.18,4-4.76,2.62-7.24-1.56-2.81-6.04-3.33-8.32-1Z"/>
        <path class="cls-3" d="m364.17,245.01c-2.17-12.09-10.32-27.4-22.35-32.47-10.6-4.47-23.78-.8-31.97,5.02-23.06,16.39-25.74,63.51-6.12,94.86,18.11,28.94,58.14,49.09,83.26,36.21,10.05-5.15,18.66-16.08,20.02-27.65,2.01-17.12-11.58-37.97-25.95-47.34-3.22-2.1-8.84-5.17-12.76-11.94-3.55-6.13-3.07-10.73-4.14-16.68Z"/>
        <path class="cls-1" d="m300.64,277.55c.3,2.32,5.56,38.08,36.87,54.64,1.62.86,35.86,18.47,51.41,2.46,8.45-8.7,8.62-24.49,3.38-35.37-6.64-13.77-18.64-12.78-35.22-25.33-29.06-21.99-28.15-52.23-39.07-51.49-10.59.72-20.67,29.79-17.37,55.09Z"/>
        <path class="cls-6" d="m364.17,245.01c-2.17-12.09-10.32-27.4-22.35-32.47-10.6-4.47-23.78-.8-31.97,5.02-23.06,16.39-25.74,63.51-6.12,94.86,18.11,28.94,58.14,49.09,83.26,36.21,10.05-5.15,18.66-16.08,20.02-27.65,2.01-17.12-11.58-37.97-25.95-47.34-3.22-2.1-8.84-5.17-12.76-11.94-3.55-6.13-3.07-10.73-4.14-16.68Z"/>
        <path class="cls-4" d="m326.24,214.8c-3.09,1.36-5.16,5.31-4.17,8.68,1.09,3.71,5.33,4.8,14.43,9.82,13.2,7.27,16.76,11.85,18.51,10.64,2.4-1.67-1.72-12.11-8.78-19.5-.55-.58-12.56-12.91-19.99-9.63Z"/>
        <path class="cls-4" d="m310.96,220.42c-2.08,1.1-3.31,3.85-2.37,6.33.84,2.21,3.15,3.46,5.3,3.25,2.97-.29,5.26-3.33,4.69-6.11-.64-3.15-4.75-5-7.63-3.47Z"/>
        <path class="cls-5" d="m181.09,436.45c7.75.99,16.49-.7,23.67-4.73-11.6-5.32-24.54-13.72-35.06-27.05-20.53-26.01-25.68-62.97-14.94-99.41-12.33,14.32-21.09,34.35-21.91,54.28-1.4,34.11,20.23,73.35,48.24,76.92Z"/>
        <path class="cls-5" d="m267.62,419.94c26.02,22.1,70.26,29.21,90.31,9.33,5.55-5.5,9.6-13.42,10.84-21.57-11.33,5.87-25.92,10.89-42.9,10.98-33.13.17-65.44-18.53-87.54-49.42,3.69,18.53,14.09,37.77,29.29,50.68Z"/>
        <path class="cls-5" d="m303.73,312.41c18.11,28.94,58.14,49.09,83.26,36.21,6.95-3.56,13.21-9.89,16.86-17.28-12.58,2.16-28,2.54-44.21-2.51-31.63-9.86-56.77-37.45-68.49-73.58-2.08,18.78,2,40.26,12.58,57.17Z"/>
        <path class="cls-6" d="m364.17,245.01c-2.17-12.09-10.32-27.4-22.35-32.47-10.6-4.47-23.78-.8-31.97,5.02-23.06,16.39-25.74,63.51-6.12,94.86,18.11,28.94,58.14,49.09,83.26,36.21,10.05-5.15,18.66-16.08,20.02-27.65,2.01-17.12-11.58-37.97-25.95-47.34-3.22-2.1-8.84-5.17-12.76-11.94-3.55-6.13-3.07-10.73-4.14-16.68Z"/>
        <path class="cls-7" d="m361.11,263.24c1.83,6.25,9.53,10.74,17.81,9.02-3.22-2.08-7.47-5.12-10.62-10.57-2.47-4.25-2.99-7.77-3.43-11.51-3.5,3.79-5.01,8.79-3.76,13.06Z"/>
        <path class="cls-7" d="m307.43,355.72c3.64,5.41,12.34,7.35,19.71,3.21-3.69-1.01-8.67-2.63-13.32-6.86-3.64-3.31-5.2-6.5-6.75-9.94-2.19,4.67-2.12,9.89.37,13.59Z"/>
        <path class="cls-7" d="m207.98,351.38c-2.02,6.2,1.8,14.25,9.6,17.51-1.48-3.53-3.27-8.45-2.79-14.72.37-4.9,1.93-8.1,3.67-11.44-5.03,1.15-9.1,4.42-10.48,8.65Z"/>
      </g>
    </g>
  </g>
</svg>