<?xml version="1.0" encoding="UTF-8"?>
<svg xmlns="http://www.w3.org/2000/svg" viewBox="0 0 540 540">
  <defs>
    <style>
      .cls-1, .cls-2 {
        opacity: .28;
      }

      .cls-1, .cls-2, .cls-3 {
        mix-blend-mode: overlay;
      }

      .cls-1, .cls-4 {
        fill: #595959;
      }

      .cls-5 {
        isolation: isolate;
      }

      .cls-6 {
        fill: #c99375;
      }

      .cls-7 {
        fill: #fce9de;
      }

      .cls-3 {
        fill: #686868;
      }
    </style>
  </defs>
  <g class="cls-5">
    <g id="_Layer_" data-name="&amp;lt;Layer&amp;gt;">
      <g>
        <path class="cls-7" d="m215.34,349.77l-28.16,58.11s-23.71-14.98-36.07,11.55c-12.36,26.53,19.22,42.33,39.76,31.33,14.56,35.63,46.21,25.84,52.65,5.1,6.44-20.74-23.83-35.14-23.83-35.14l25.73-58.74-30.07-12.21Z"/>
        <g>
          <path class="cls-6" d="m222.01,372.91c-13.59-9.93-23.94,16.16-33.73-1.83-8.85-16.26,12.92-29.69,28.48-62.09,13.02-27.12,4.4-45.68-16.77-92.83-23.71-52.79,16.25-137.51,85.06-149.2,77.41-13.15,126.61,65.92,98.75,146.28-21.71,62.63-76.51,57.13-103.03,95.25-27.27,39.2-17.46,79.06-33.33,83.51-17.29,4.86-11.58-8.98-25.42-19.09Z"/>
          <path class="cls-1" d="m238.85,96.42c-18.9,15.38-28.3,38.22-9.96,35.24,4.23-.69,14.26-13.41,27.08-21.68,36.42-23.5,46.33-16.53,45.18-25.1-2.04-15.28-34.21-11.31-62.3,11.55Z"/>
          <path class="cls-3" d="m321.01,220.51c-17.61,15.06,1.53,61.05,35.61,17.3,24.52-31.47,26.1-84.75,17.51-104.75-18.43-42.95-27.28-16.17-24.09,14.98,2.53,24.64-12.2,58.07-29.04,72.46Z"/>
          <g class="cls-2">
            <path class="cls-4" d="m237.53,287.3c-6.61,11.17.38,17.34,4.61,12.16,4.22-5.18,1.18-21.93-4.61-12.16Z"/>
            <path class="cls-4" d="m210.67,133.62c-2.12,3.58.12,5.56,1.48,3.9,1.35-1.66.38-7.03-1.48-3.9Z"/>
            <path class="cls-4" d="m200.57,163.47c-3.06,5.17.18,8.03,2.13,5.63s.55-10.15-2.13-5.63Z"/>
            <path class="cls-4" d="m215.64,235.95c.95,5.93,5.27,6.06,5.24,2.96-.03-3.09-6.07-8.15-5.24-2.96Z"/>
            <path class="cls-4" d="m228.29,180.39c.95,5.93,5.27,6.06,5.24,2.96-.03-3.09-6.07-8.15-5.24-2.96Z"/>
            <path class="cls-4" d="m227.79,206.16c.95,5.93,5.27,6.06,5.24,2.96-.03-3.09-6.07-8.15-5.24-2.96Z"/>
            <path class="cls-4" d="m225.83,148.28c-6.55,3.88-4.7,9.03-1.06,7.55,3.63-1.47,6.8-10.95,1.06-7.55Z"/>
            <path class="cls-4" d="m231,358.45c-3.46,13.32,13.98,26.36,16.18,9.2,2.2-17.16,10.69-36.57,3.1-32.53-7.59,4.04-17.19,15.28-19.28,23.33Z"/>
          </g>
        </g>
      </g>
    </g>
  </g>
</svg>