<?xml version="1.0" encoding="UTF-8"?>
<svg xmlns="http://www.w3.org/2000/svg" viewBox="0 0 540 540">
  <defs>
    <style>
      .cls-1 {
        isolation: isolate;
      }

      .cls-2 {
        fill: #f4c2c1;
      }

      .cls-3 {
        fill: #f2b8b8;
      }

      .cls-4 {
        fill: #ffd8a4;
      }

      .cls-5 {
        fill: #a0a0a0;
        mix-blend-mode: soft-light;
      }

      .cls-6 {
        fill: #f9d1cf;
      }
    </style>
  </defs>
  <g class="cls-1">
    <g id="_Layer_" data-name="&amp;lt;Layer&amp;gt;">
      <g>
        <path class="cls-4" d="m451.7,274.56c0,30.15-16.57,58.57-29.68,83.56-30.32,57.81-72.8,88.16-142.86,88.16-56.8,0-107.51-16.83-140.83-57.45-25.54-31.15-50.02-70.93-50.02-114.27,0-48.3,23.61-88.54,54.61-120.97,33.1-34.63,75.27-59.86,127.09-59.86,37.63,0,68.01,18.68,97.01,38.17,48.33,32.5,84.69,80.24,84.69,142.66Z"/>
        <path class="cls-6" d="m442.62,274.38c0,28.91-15.81,56.17-28.32,80.13-28.94,55.44-69.49,84.54-136.35,84.54-54.21,0-102.61-16.14-134.41-55.1-24.38-29.87-47.74-68.02-47.74-109.58,0-46.32,22.53-84.9,52.12-116.01,31.59-33.21,71.84-57.41,121.3-57.41,35.92,0,64.91,17.91,92.59,36.61,46.13,31.16,80.83,76.95,80.83,136.81Z"/>
        <path class="cls-2" d="m350.83,395.51c4.03-2.04,54.1-28.36,65.59-81.42.5-2.32,10.31-49.62-8.74-60.47-26.46-15.07-75.22,59.28-112.31,44.46-21.98-8.78-13.73-38.44-48.03-80.19-11.58-14.09-38.5-46.88-65.08-43.77-36.8,4.31-71.65,77.26-56.74,132.92,21.68,80.92,149,127.1,225.3,88.46Z"/>
        <path class="cls-2" d="m249.57,122.21c-6.8,7.19-2,21.82,7.61,51.07,13.82,42.09,24.51,74.68,53.25,85.84,38.99,15.15,96.91-14.69,99.97-44.55,5.05-49.36-137.91-116.61-160.82-92.36Z"/>
        <g>
          <path class="cls-3" d="m165.27,222.35c-7.83,6.64-7.19,20.98-2.17,30.43,4.48,8.44,15.01,17.8,26.08,15.21,12.67-2.96,19.75-20.14,15.21-32.6-5.68-15.59-28.8-21.79-39.12-13.04Z"/>
          <path class="cls-3" d="m317.39,339.71c10.41-1.86,23.01,3.86,23.91,10.87.99,7.69-12.22,16.3-23.91,17.39-6.41.6-17.33-.61-19.56-6.52-2.66-7.05,7.5-19.57,19.56-21.73Z"/>
          <path class="cls-3" d="m243.5,237.56c-22.97-16.72-58.76-9.29-60.85,0-1.45,6.45,14.43,8.86,30.43,30.43,12.19,16.43,11.49,26.52,19.56,28.25,10.63,2.28,27.03-11.97,28.25-28.25,1.26-16.85-14.3-28.18-17.39-30.43Z"/>
          <path class="cls-3" d="m273.93,141.94c-6.07,5.83-4.28,18.32,0,26.08,7.72,14.01,28.34,21.29,39.12,13.04,6.3-4.82,8.47-14.35,6.52-21.73-4.81-18.19-35.66-26.98-45.64-17.39Z"/>
          <path class="cls-3" d="m369.55,239.74c-4.85-.47-11.98,7.24-10.87,15.21,1.44,10.26,15.58,14.07,19.56,10.87,5.24-4.21-1.11-25.34-8.69-26.08Z"/>
          <path class="cls-3" d="m215.38,184.13c-.7-3.46-7.57-6.77-12.86-4.3-6.81,3.17-6.44,13.79-3.38,15.87,4.03,2.74,17.34-6.15,16.24-11.57Z"/>
          <path class="cls-3" d="m138.55,281.27c-6.3,2.92-5.84,18.94-1.98,29.71,6.96,19.44,28.74,32.34,35.65,27.73,4.04-2.69,2.72-11.14,1.98-15.85-3.77-24.14-26.77-45.71-35.65-41.6Z"/>
          <path class="cls-3" d="m205.9,373.11c-1.76,4.62,13.47,18.69,21.47,14.6,3.61-1.84,5.75-7.39,4.29-11.17-3.22-8.35-24-8.06-25.77-3.44Z"/>
          <path class="cls-5" d="m288.42,125.81c-2.1.19-21.54,2.1-24.99,11.45-5.59,15.12,39.28,26.48,71.72,67.73,7.03,8.94,50.2,65.98,33.69,117.33-3.19,9.94-10.76,26.29-4.35,30.53,6,3.96,20.67-5.06,21.73-5.72,31.3-19.59,32.6-83.98,9.78-133.55-19.15-41.59-64-91.65-107.58-87.76Z"/>
        </g>
      </g>
    </g>
  </g>
</svg>