<?xml version="1.0" encoding="UTF-8"?>
<svg id="_Layer_" data-name="&amp;lt;Layer&amp;gt;" xmlns="http://www.w3.org/2000/svg" viewBox="0 0 540 540">
  <defs>
    <style>
      .cls-1 {
        fill: #dddddf;
      }

      .cls-2 {
        fill: #b6b6b6;
      }

      .cls-3 {
        fill: #ebd9bb;
      }

      .cls-3, .cls-4, .cls-5 {
        fill-rule: evenodd;
      }

      .cls-6 {
        fill: #adadad;
      }

      .cls-4 {
        fill: #f4e9cf;
      }

      .cls-5 {
        fill: #f3e0b7;
      }

      .cls-7 {
        fill: #bbb;
      }

      .cls-8 {
        fill: #838383;
      }

      .cls-9 {
        fill: #c4c4c4;
      }
    </style>
  </defs>
  <g>
    <ellipse class="cls-1" cx="272.66" cy="235.42" rx="253.72" ry="66.96"/>
    <ellipse class="cls-8" cx="272.66" cy="234.11" rx="235.57" ry="59.16"/>
  </g>
  <g>
    <path class="cls-4" d="m43.31,282.42c-4.16-25.19,16.84-54.62,34.7-69.4,15.88-13.14,24.35-10.63,70.52-26.87,56.66-19.92,49.29-25.3,82.84-33.58,40.93-10.1,70.83-6.88,77.24-23.51,2.35-6.1.62-12.48-1.12-16.79,6.46-.14,25.76.3,42.99,14,8.41,6.69,13.45,14.25,16.34,19.58,22.03,26.54,44.12,39.81,61.57,47.01,21.43,8.85,31.95,6.92,44.8,17.7,20.74,17.41,28.27,51.89,22.59,74.42-18.59,73.72-193.75,78.7-214.02,79.11-95.33,1.89-229.15-25.32-238.45-81.68Z"/>
    <path class="cls-5" d="m328.76,246.6c-30.56,27.61-89.47,50.35-214.93,20.15,25.14,17.35,76.28,47.09,143.28,47.02,104.58-.11,208.7-72.79,201.63-111.29h0c-8.04-2.78-17.11-4.13-30.36-9.6-8.98-3.71-19.18-9.03-29.98-16.93-27.58,9.74-43.13,46.71-69.64,70.66Z"/>
    <path class="cls-3" d="m73.53,260.03c-2.27-11.43-.97-29.92,21.13-56.83-6.03,2.3-10.85,5.01-16.66,9.82-17.86,14.78-38.86,44.21-34.7,69.4,9.3,56.36,143.12,83.56,238.45,81.68,9.69-.19,54.78-1.44,101.24-10.73-106.92-5.16-295.6-23.53-309.46-93.33Z"/>
    <path class="cls-5" d="m331.78,208.65c14.52-14.85,13.65-38.92,11.53-53.84-6.94,2.6-17.69,5.37-29.1,2.18-10.16-2.85-17.17-9.4-22.35-15.76-13.93,3.94-35.08,5.08-60.49,11.35-32.97,8.14-26.42,13.48-80,32.58,23.7,8.92,52.47,16.53,74.59,22.37,46.54,12.3,85.38,22.04,105.83,1.13Z"/>
  </g>
  <g>
    <g>
      <path class="cls-7" d="m508.23,234.11h0c0,32.67-105.47,59.16-235.57,59.16s-235.57-26.49-235.57-59.16h0s-7.83,0-7.83,0l11.3,151.29c1.73,23.17,15.96,43.55,37.13,53.12,36.47,16.48,100.7,33.52,187.27,33.52,2.65,0,5.21-.1,7.7-.27,2.49.17,5.05.27,7.7.27,86.57,0,150.8-17.04,187.27-33.52,21.17-9.57,35.4-29.95,37.13-53.12l11.3-151.29h-7.84Z"/>
      <path class="cls-6" d="m515.66,234.11l-10.9,145.88c-1.73,23.17-15.96,43.55-37.13,53.12-36.47,16.48-100.7,33.52-187.27,33.52-2.65,0-5.21-.1-7.7-.27-2.49.17-5.05.27-7.7.27-86.57,0-150.8-17.04-187.27-33.52-21.17-9.57-35.4-29.95-37.13-53.12l-10.9-145.88h-.4l11.3,151.29c1.73,23.17,15.96,43.55,37.13,53.12,36.47,16.48,100.7,33.52,187.27,33.52,2.65,0,5.21-.1,7.7-.27,2.49.17,5.05.27,7.7.27,86.57,0,150.8-17.04,187.27-33.52,21.17-9.57,35.4-29.95,37.13-53.12l11.3-151.29h-.4Z"/>
      <path class="cls-6" d="m508.23,234.11h0c0,5.36-2.85,10.55-8.17,15.48l-6.22,166.94c6.21-9.08,10.07-19.77,10.92-31.13l11.3-151.29h-7.84Z"/>
      <path class="cls-6" d="m272.66,293.27c-8.42,0-16.73-.11-24.92-.33v178.85c5.64.15,11.37.23,17.22.23,2.65,0,5.21-.1,7.7-.27,2.49.17,5.05.27,7.7.27,5.85,0,11.58-.08,17.22-.23v-178.85c-8.19.22-16.5.33-24.92.33Z"/>
      <path class="cls-6" d="m37.09,234.11h0s-7.83,0-7.83,0l11.3,151.29c.85,11.36,4.71,22.05,10.92,31.13l-6.22-166.94c-5.31-4.93-8.17-10.12-8.17-15.48Z"/>
      <path class="cls-2" d="m45.26,249.59l6.22,166.94c3.57,5.22,7.92,9.9,12.92,13.87l-4.72-170.99c-5.91-3.13-10.75-6.42-14.42-9.82Z"/>
      <path class="cls-2" d="m485.64,259.41l-4.72,170.99c5-3.97,9.35-8.65,12.92-13.87l6.22-166.94c-3.67,3.41-8.51,6.69-14.42,9.82Z"/>
      <path class="cls-7" d="m297.58,292.94v178.85c4.49-.12,8.91-.28,13.27-.49v-178.81c-4.38.18-8.81.33-13.27.45Z"/>
      <path class="cls-7" d="m234.47,292.49v178.81c4.36.21,8.78.37,13.27.49v-178.85c-4.46-.12-8.89-.27-13.27-.45Z"/>
      <path class="cls-9" d="m310.85,292.49v178.81c71.24-3.4,124.73-18.31,156.78-32.79,4.81-2.17,9.26-4.91,13.29-8.11l4.72-170.99c-32.54,17.25-97.32,29.91-174.79,33.08Z"/>
      <path class="cls-9" d="m59.68,259.41l4.72,170.99c4.03,3.2,8.48,5.94,13.29,8.11,32.05,14.48,85.54,29.39,156.78,32.79v-178.81c-77.48-3.17-142.25-15.83-174.79-33.08Z"/>
    </g>
    <path class="cls-1" d="m508.2,233.58c0,.18.03.35.03.53,0,32.67-105.47,59.16-235.57,59.16s-235.57-26.49-235.57-59.16c0-.18.02-.35.03-.53h-18.08c-.06.61-.1,1.22-.1,1.84,0,36.98,113.6,66.96,253.72,66.96s253.72-29.98,253.72-66.96c0-.62-.04-1.23-.1-1.84h-18.08Z"/>
  </g>
</svg>