<?xml version="1.0" encoding="UTF-8"?>
<svg id="_Layer_" data-name="&amp;lt;Layer&amp;gt;" xmlns="http://www.w3.org/2000/svg" viewBox="0 0 540 540">
  <defs>
    <style>
      .cls-1 {
        fill: #f7b87f;
      }

      .cls-2 {
        fill: #e0a370;
      }

      .cls-3 {
        fill: #d69667;
      }
    </style>
  </defs>
  <path class="cls-3" d="m239.09,190.26c-14.7-.33-31.28,9.99-30.91,20.09.36,10.05,17.36,17.19,29.37,18.55,13.44,1.52,31.93-2.94,34-12.37,2.25-10.22-14.89-25.88-32.46-26.28Z"/>
  <path class="cls-3" d="m244.01,219.48c-14.7-.33-31.28,9.99-30.91,20.09.36,10.05,17.36,17.19,29.37,18.55,13.44,1.52,31.93-2.94,34-12.37,2.25-10.22-14.89-25.88-32.46-26.28Z"/>
  <path class="cls-3" d="m175.51,202.63c-14.7-.33-31.28,9.99-30.91,20.09.36,10.05,17.36,17.19,29.37,18.55,13.44,1.52,31.93-2.94,34-12.37,2.25-10.22-14.89-25.88-32.46-26.28Z"/>
  <path class="cls-3" d="m211.17,245.13c-14.7-.33-31.28,9.99-30.91,20.09.36,10.05,17.36,17.19,29.37,18.55,13.44,1.52,31.93-2.94,34-12.37,2.25-10.22-14.89-25.88-32.46-26.28Z"/>
  <path class="cls-3" d="m258.21,280.51c-14.7-.33-31.28,9.99-30.91,20.09.36,10.05,17.36,17.19,29.37,18.55,13.44,1.52,31.93-2.94,34-12.37,2.25-10.22-14.89-25.88-32.46-26.28Z"/>
  <path class="cls-3" d="m290,261.04c-14.7-.33-31.28,9.99-30.91,20.09.36,10.05,17.36,17.19,29.37,18.55,13.44,1.52,31.93-2.94,34-12.37,2.25-10.22-14.89-25.88-32.46-26.28Z"/>
  <path class="cls-3" d="m321.79,238.95c-14.7-.33-31.28,9.99-30.91,20.09.36,10.05,17.36,17.19,29.37,18.55,13.44,1.52,31.93-2.94,34-12.37,2.25-10.22-14.89-25.88-32.46-26.28Z"/>
  <path class="cls-3" d="m316.17,207.57c-14.7-.33-31.28,9.99-30.91,20.09.36,10.05,17.36,17.19,29.37,18.55,13.44,1.52,31.93-2.94,34-12.37,2.25-10.22-14.89-25.88-32.46-26.28Z"/>
  <path class="cls-3" d="m281.01,202.63c-14.7-.33-31.28,9.99-30.91,20.09.36,10.05,17.36,17.19,29.37,18.55,13.44,1.52,31.93-2.94,34-12.37,2.25-10.22-14.89-25.88-32.46-26.28Z"/>
  <path class="cls-3" d="m316.17,180.54c-14.7-.33-31.28,9.99-30.91,20.09.36,10.05,17.36,17.19,29.37,18.55,13.44,1.52,31.93-2.94,34-12.37,2.25-10.22-14.89-25.88-32.46-26.28Z"/>
  <path class="cls-3" d="m366.4,222.1c-14.7-.33-31.28,9.99-30.91,20.09.36,10.05,17.36,17.19,29.37,18.55,13.44,1.52,31.93-2.94,34-12.37,2.25-10.22-14.89-25.88-32.46-26.28Z"/>
  <path class="cls-3" d="m398.19,245.13c-14.7-.33-31.28,9.99-30.91,20.09.36,10.05,17.36,17.19,29.37,18.55,13.44,1.52,31.93-2.94,34-12.37,2.25-10.22-14.89-25.88-32.46-26.28Z"/>
  <path class="cls-3" d="m370.92,267.54c-14.7-.33-31.28,9.99-30.91,20.09.36,10.05,17.36,17.19,29.37,18.55,13.44,1.52,31.93-2.94,34-12.37,2.25-10.22-14.89-25.88-32.46-26.28Z"/>
  <path class="cls-3" d="m353.92,292.9c-14.7-.33-31.28,9.99-30.91,20.09.36,10.05,17.36,17.19,29.37,18.55,13.44,1.52,31.93-2.94,34-12.37,2.25-10.22-14.89-25.88-32.46-26.28Z"/>
  <path class="cls-3" d="m379.75,317.78c-14.7-.33-31.28,9.99-30.91,20.09.36,10.05,17.36,17.19,29.37,18.55,13.44,1.52,31.93-2.94,34-12.37,2.25-10.22-14.89-25.88-32.46-26.28Z"/>
  <path class="cls-3" d="m324.98,311.76c-14.7-.33-31.28,9.99-30.91,20.09.36,10.05,17.36,17.19,29.37,18.55,13.44,1.52,31.93-2.94,34-12.37,2.25-10.22-14.89-25.88-32.46-26.28Z"/>
  <path class="cls-3" d="m258.21,311.76c-14.7-.33-31.28,9.99-30.91,20.09.36,10.05,17.36,17.19,29.37,18.55,13.44,1.52,31.93-2.94,34-12.37,2.25-10.22-14.89-25.88-32.46-26.28Z"/>
  <path class="cls-3" d="m185.77,292.9c-14.7-.33-31.28,9.99-30.91,20.09.36,10.05,17.36,17.19,29.37,18.55,13.44,1.52,31.93-2.94,34-12.37,2.25-10.22-14.89-25.88-32.46-26.28Z"/>
  <path class="cls-3" d="m185.77,317.8c-14.7-.33-31.28,9.99-30.91,20.09.36,10.05,17.36,17.19,29.37,18.55,13.44,1.52,31.93-2.94,34-12.37,2.25-10.22-14.89-25.88-32.46-26.28Z"/>
  <path class="cls-3" d="m122.96,294.6c-14.7-.33-31.28,9.99-30.91,20.09.36,10.05,17.36,17.19,29.37,18.55,13.44,1.52,31.93-2.94,34-12.37,2.25-10.22-14.89-25.88-32.46-26.28Z"/>
  <path class="cls-3" d="m122.19,261.04c-14.7-.33-31.28,9.99-30.91,20.09.36,10.05,17.36,17.19,29.37,18.55,13.44,1.52,31.93-2.94,34-12.37,2.25-10.22-14.89-25.88-32.46-26.28Z"/>
  <path class="cls-3" d="m136.1,225.66c-14.7-.33-31.28,9.99-30.91,20.09.36,10.05,17.36,17.19,29.37,18.55,13.44,1.52,31.93-2.94,34-12.37,2.25-10.22-14.89-25.88-32.46-26.28Z"/>
  <path class="cls-3" d="m159.28,261.04c-14.7-.33-31.28,9.99-30.91,20.09.36,10.05,17.36,17.19,29.37,18.55,13.44,1.52,31.93-2.94,34-12.37,2.25-10.22-14.89-25.88-32.46-26.28Z"/>
  <path class="cls-2" d="m171.86,229.2c-14.7-.33-31.28,9.99-30.91,20.09.36,10.05,17.36,17.19,29.37,18.55,13.44,1.52,31.93-2.94,34-12.37,2.25-10.22-14.89-25.88-32.46-26.28Z"/>
  <path class="cls-2" d="m242.96,255.78c-14.7-.33-31.28,9.99-30.91,20.09.36,10.05,17.36,17.19,29.37,18.55,13.44,1.52,31.93-2.94,34-12.37,2.25-10.22-14.89-25.88-32.46-26.28Z"/>
  <path class="cls-2" d="m281.01,180.54c-14.7-.33-31.28,9.99-30.91,20.09.36,10.05,17.36,17.19,29.37,18.55,13.44,1.52,31.93-2.94,34-12.37,2.25-10.22-14.89-25.88-32.46-26.28Z"/>
  <path class="cls-2" d="m347.96,241.57c-14.7-.33-31.28,9.99-30.91,20.09.36,10.05,17.36,17.19,29.37,18.55,13.44,1.52,31.93-2.94,34-12.37,2.25-10.22-14.89-25.88-32.46-26.28Z"/>
  <path class="cls-2" d="m298.17,292.9c-14.7-.33-31.28,9.99-30.91,20.09.36,10.05,17.36,17.19,29.37,18.55,13.44,1.52,31.93-2.94,34-12.37,2.25-10.22-14.89-25.88-32.46-26.28Z"/>
  <path class="cls-2" d="m361.75,327.51c-14.7-.33-31.28,9.99-30.91,20.09.36,10.05,17.36,17.19,29.37,18.55,13.44,1.52,31.93-2.94,34-12.37,2.25-10.22-14.89-25.88-32.46-26.28Z"/>
  <path class="cls-2" d="m402.71,298.31c-14.7-.33-31.28,9.99-30.91,20.09.36,10.05,17.36,17.19,29.37,18.55,13.44,1.52,31.93-2.94,34-12.37,2.25-10.22-14.89-25.88-32.46-26.28Z"/>
  <path class="cls-2" d="m418.29,249.64c-14.7-.33-31.28,9.99-30.91,20.09.36,10.05,17.36,17.19,29.37,18.55,13.44,1.52,31.93-2.94,34-12.37,2.25-10.22-14.89-25.88-32.46-26.28Z"/>
  <path class="cls-2" d="m281.01,222.1c-14.7-.33-31.28,9.99-30.91,20.09.36,10.05,17.36,17.19,29.37,18.55,13.44,1.52,31.93-2.94,34-12.37,2.25-10.22-14.89-25.88-32.46-26.28Z"/>
  <path class="cls-2" d="m143.72,280.51c-14.7-.33-31.28,9.99-30.91,20.09.36,10.05,17.36,17.19,29.37,18.55,13.44,1.52,31.93-2.94,34-12.37,2.25-10.22-14.89-25.88-32.46-26.28Z"/>
  <path class="cls-2" d="m226.07,298.31c-14.7-.33-31.28,9.99-30.91,20.09.36,10.05,17.36,17.19,29.37,18.55,13.44,1.52,31.93-2.94,34-12.37,2.25-10.22-14.89-25.88-32.46-26.28Z"/>
  <path class="cls-2" d="m194.28,183.16c-14.7-.33-31.28,9.99-30.91,20.09.36,10.05,17.36,17.19,29.37,18.55,13.44,1.52,31.93-2.94,34-12.37,2.25-10.22-14.89-25.88-32.46-26.28Z"/>
  <path class="cls-1" d="m207.3,267.38c-14.7-.33-31.28,9.99-30.91,20.09.36,10.05,17.36,17.19,29.37,18.55,13.44,1.52,31.93-2.94,34-12.37,2.25-10.22-14.89-25.88-32.46-26.28Z"/>
  <path class="cls-1" d="m277.63,234.32c-14.7-.33-31.28,9.99-30.91,20.09.36,10.05,17.36,17.19,29.37,18.55,13.44,1.52,31.93-2.94,34-12.37,2.25-10.22-14.89-25.88-32.46-26.28Z"/>
  <path class="cls-1" d="m290,317.78c-14.7-.33-31.28,9.99-30.91,20.09.36,10.05,17.36,17.19,29.37,18.55,13.44,1.52,31.93-2.94,34-12.37,2.25-10.22-14.89-25.88-32.46-26.28Z"/>
  <path class="cls-1" d="m153.98,312.37c-14.7-.33-31.28,9.99-30.91,20.09.36,10.05,17.36,17.19,29.37,18.55,13.44,1.52,31.93-2.94,34-12.37,2.25-10.22-14.89-25.88-32.46-26.28Z"/>
  <path class="cls-1" d="m140.07,202.63c-14.7-.33-31.28,9.99-30.91,20.09.36,10.05,17.36,17.19,29.37,18.55,13.44,1.52,31.93-2.94,34-12.37,2.25-10.22-14.89-25.88-32.46-26.28Z"/>
  <path class="cls-1" d="m108.28,241.57c-14.7-.33-31.28,9.99-30.91,20.09.36,10.05,17.36,17.19,29.37,18.55,13.44,1.52,31.93-2.94,34-12.37,2.25-10.22-14.89-25.88-32.46-26.28Z"/>
  <path class="cls-1" d="m239.09,163.69c-14.7-.33-31.28,9.99-30.91,20.09.36,10.05,17.36,17.19,29.37,18.55,13.44,1.52,31.93-2.94,34-12.37,2.25-10.22-14.89-25.88-32.46-26.28Z"/>
  <path class="cls-1" d="m347.96,200.01c-14.7-.33-31.28,9.99-30.91,20.09.36,10.05,17.36,17.19,29.37,18.55,13.44,1.52,31.93-2.94,34-12.37,2.25-10.22-14.89-25.88-32.46-26.28Z"/>
  <path class="cls-1" d="m398.19,267.38c-14.7-.33-31.28,9.99-30.91,20.09.36,10.05,17.36,17.19,29.37,18.55,13.44,1.52,31.93-2.94,34-12.37,2.25-10.22-14.89-25.88-32.46-26.28Z"/>
  <path class="cls-1" d="m390.47,346.98c-14.7-.33-31.28,9.99-30.91,20.09.36,10.05,17.36,17.19,29.37,18.55,13.44,1.52,31.93-2.94,34-12.37,2.25-10.22-14.89-25.88-32.46-26.28Z"/>
  <path class="cls-1" d="m329.96,273.26c-14.7-.33-31.28,9.99-30.91,20.09.36,10.05,17.36,17.19,29.37,18.55,13.44,1.52,31.93-2.94,34-12.37,2.25-10.22-14.89-25.88-32.46-26.28Z"/>
  <path class="cls-1" d="m429.98,222.1c-14.7-.33-31.28,9.99-30.91,20.09.36,10.05,17.36,17.19,29.37,18.55,13.44,1.52,31.93-2.94,34-12.37,2.25-10.22-14.89-25.88-32.46-26.28Z"/>
  <path class="cls-1" d="m214.05,209.73c-14.7-.33-31.28,9.99-30.91,20.09.36,10.05,17.36,17.19,29.37,18.55,13.44,1.52,31.93-2.94,34-12.37,2.25-10.22-14.89-25.88-32.46-26.28Z"/>
  <path class="cls-1" d="m321.79,154.09c-14.7-.33-31.28,9.99-30.91,20.09.36,10.05,17.36,17.19,29.37,18.55,13.44,1.52,31.93-2.94,34-12.37,2.25-10.22-14.89-25.88-32.46-26.28Z"/>
</svg>