<?xml version="1.0" encoding="UTF-8"?>
<svg id="_Layer_" data-name="&amp;lt;Layer&amp;gt;" xmlns="http://www.w3.org/2000/svg" viewBox="0 0 540 540">
  <defs>
    <style>
      .cls-1 {
        fill: #f7b87f;
      }

      .cls-2 {
        fill: #e0a370;
      }

      .cls-3 {
        fill: #d69667;
      }
    </style>
  </defs>
  <path class="cls-3" d="m239.09,248.85c-14.7-.33-31.28,9.99-30.91,20.09.36,10.05,17.36,17.19,29.37,18.55,13.44,1.52,31.93-2.94,34-12.37,2.25-10.22-14.89-25.88-32.46-26.28Z"/>
  <path class="cls-3" d="m244.01,278.07c-14.7-.33-31.28,9.99-30.91,20.09.36,10.05,17.36,17.19,29.37,18.55,13.44,1.52,31.93-2.94,34-12.37,2.25-10.22-14.89-25.88-32.46-26.28Z"/>
  <path class="cls-3" d="m175.51,261.21c-14.7-.33-31.28,9.99-30.91,20.09.36,10.05,17.36,17.19,29.37,18.55,13.44,1.52,31.93-2.94,34-12.37,2.25-10.22-14.89-25.88-32.46-26.28Z"/>
  <path class="cls-3" d="m211.17,303.72c-14.7-.33-31.28,9.99-30.91,20.09.36,10.05,17.36,17.19,29.37,18.55,13.44,1.52,31.93-2.94,34-12.37,2.25-10.22-14.89-25.88-32.46-26.28Z"/>
  <path class="cls-3" d="m258.21,339.1c-14.7-.33-31.28,9.99-30.91,20.09.36,10.05,17.36,17.19,29.37,18.55,13.44,1.52,31.93-2.94,34-12.37,2.25-10.22-14.89-25.88-32.46-26.28Z"/>
  <path class="cls-3" d="m290,319.63c-14.7-.33-31.28,9.99-30.91,20.09.36,10.05,17.36,17.19,29.37,18.55,13.44,1.52,31.93-2.94,34-12.37,2.25-10.22-14.89-25.88-32.46-26.28Z"/>
  <path class="cls-3" d="m321.79,297.54c-14.7-.33-31.28,9.99-30.91,20.09.36,10.05,17.36,17.19,29.37,18.55,13.44,1.52,31.93-2.94,34-12.37,2.25-10.22-14.89-25.88-32.46-26.28Z"/>
  <path class="cls-3" d="m316.17,266.15c-14.7-.33-31.28,9.99-30.91,20.09.36,10.05,17.36,17.19,29.37,18.55,13.44,1.52,31.93-2.94,34-12.37,2.25-10.22-14.89-25.88-32.46-26.28Z"/>
  <path class="cls-3" d="m281.01,261.21c-14.7-.33-31.28,9.99-30.91,20.09.36,10.05,17.36,17.19,29.37,18.55,13.44,1.52,31.93-2.94,34-12.37,2.25-10.22-14.89-25.88-32.46-26.28Z"/>
  <path class="cls-3" d="m316.17,239.13c-14.7-.33-31.28,9.99-30.91,20.09.36,10.05,17.36,17.19,29.37,18.55,13.44,1.52,31.93-2.94,34-12.37,2.25-10.22-14.89-25.88-32.46-26.28Z"/>
  <path class="cls-3" d="m366.4,280.69c-14.7-.33-31.28,9.99-30.91,20.09.36,10.05,17.36,17.19,29.37,18.55,13.44,1.52,31.93-2.94,34-12.37,2.25-10.22-14.89-25.88-32.46-26.28Z"/>
  <path class="cls-3" d="m398.19,303.72c-14.7-.33-31.28,9.99-30.91,20.09.36,10.05,17.36,17.19,29.37,18.55,13.44,1.52,31.93-2.94,34-12.37,2.25-10.22-14.89-25.88-32.46-26.28Z"/>
  <path class="cls-3" d="m370.92,326.13c-14.7-.33-31.28,9.99-30.91,20.09.36,10.05,17.36,17.19,29.37,18.55,13.44,1.52,31.93-2.94,34-12.37,2.25-10.22-14.89-25.88-32.46-26.28Z"/>
  <path class="cls-3" d="m353.92,351.49c-14.7-.33-31.28,9.99-30.91,20.09.36,10.05,17.36,17.19,29.37,18.55,13.44,1.52,31.93-2.94,34-12.37,2.25-10.22-14.89-25.88-32.46-26.28Z"/>
  <path class="cls-3" d="m379.75,376.37c-14.7-.33-31.28,9.99-30.91,20.09.36,10.05,17.36,17.19,29.37,18.55,13.44,1.52,31.93-2.94,34-12.37,2.25-10.22-14.89-25.88-32.46-26.28Z"/>
  <path class="cls-3" d="m324.98,370.35c-14.7-.33-31.28,9.99-30.91,20.09.36,10.05,17.36,17.19,29.37,18.55,13.44,1.52,31.93-2.94,34-12.37,2.25-10.22-14.89-25.88-32.46-26.28Z"/>
  <path class="cls-3" d="m258.21,370.35c-14.7-.33-31.28,9.99-30.91,20.09.36,10.05,17.36,17.19,29.37,18.55,13.44,1.52,31.93-2.94,34-12.37,2.25-10.22-14.89-25.88-32.46-26.28Z"/>
  <path class="cls-3" d="m185.77,351.49c-14.7-.33-31.28,9.99-30.91,20.09.36,10.05,17.36,17.19,29.37,18.55,13.44,1.52,31.93-2.94,34-12.37,2.25-10.22-14.89-25.88-32.46-26.28Z"/>
  <path class="cls-3" d="m185.77,376.38c-14.7-.33-31.28,9.99-30.91,20.09.36,10.05,17.36,17.19,29.37,18.55,13.44,1.52,31.93-2.94,34-12.37,2.25-10.22-14.89-25.88-32.46-26.28Z"/>
  <path class="cls-3" d="m122.96,353.19c-14.7-.33-31.28,9.99-30.91,20.09.36,10.05,17.36,17.19,29.37,18.55,13.44,1.52,31.93-2.94,34-12.37,2.25-10.22-14.89-25.88-32.46-26.28Z"/>
  <path class="cls-3" d="m122.19,319.63c-14.7-.33-31.28,9.99-30.91,20.09.36,10.05,17.36,17.19,29.37,18.55,13.44,1.52,31.93-2.94,34-12.37,2.25-10.22-14.89-25.88-32.46-26.28Z"/>
  <path class="cls-3" d="m136.1,284.25c-14.7-.33-31.28,9.99-30.91,20.09.36,10.05,17.36,17.19,29.37,18.55,13.44,1.52,31.93-2.94,34-12.37,2.25-10.22-14.89-25.88-32.46-26.28Z"/>
  <path class="cls-3" d="m159.28,319.63c-14.7-.33-31.28,9.99-30.91,20.09.36,10.05,17.36,17.19,29.37,18.55,13.44,1.52,31.93-2.94,34-12.37,2.25-10.22-14.89-25.88-32.46-26.28Z"/>
  <path class="cls-2" d="m171.86,287.79c-14.7-.33-31.28,9.99-30.91,20.09.36,10.05,17.36,17.19,29.37,18.55,13.44,1.52,31.93-2.94,34-12.37,2.25-10.22-14.89-25.88-32.46-26.28Z"/>
  <path class="cls-2" d="m242.96,314.37c-14.7-.33-31.28,9.99-30.91,20.09.36,10.05,17.36,17.19,29.37,18.55,13.44,1.52,31.93-2.94,34-12.37,2.25-10.22-14.89-25.88-32.46-26.28Z"/>
  <path class="cls-2" d="m281.01,239.13c-14.7-.33-31.28,9.99-30.91,20.09.36,10.05,17.36,17.19,29.37,18.55,13.44,1.52,31.93-2.94,34-12.37,2.25-10.22-14.89-25.88-32.46-26.28Z"/>
  <path class="cls-2" d="m347.96,300.16c-14.7-.33-31.28,9.99-30.91,20.09.36,10.05,17.36,17.19,29.37,18.55,13.44,1.52,31.93-2.94,34-12.37,2.25-10.22-14.89-25.88-32.46-26.28Z"/>
  <path class="cls-2" d="m298.17,351.49c-14.7-.33-31.28,9.99-30.91,20.09.36,10.05,17.36,17.19,29.37,18.55,13.44,1.52,31.93-2.94,34-12.37,2.25-10.22-14.89-25.88-32.46-26.28Z"/>
  <path class="cls-2" d="m361.75,386.1c-14.7-.33-31.28,9.99-30.91,20.09.36,10.05,17.36,17.19,29.37,18.55,13.44,1.52,31.93-2.94,34-12.37,2.25-10.22-14.89-25.88-32.46-26.28Z"/>
  <path class="cls-2" d="m402.71,356.9c-14.7-.33-31.28,9.99-30.91,20.09.36,10.05,17.36,17.19,29.37,18.55,13.44,1.52,31.93-2.94,34-12.37,2.25-10.22-14.89-25.88-32.46-26.28Z"/>
  <path class="cls-2" d="m418.29,308.22c-14.7-.33-31.28,9.99-30.91,20.09.36,10.05,17.36,17.19,29.37,18.55,13.44,1.52,31.93-2.94,34-12.37,2.25-10.22-14.89-25.88-32.46-26.28Z"/>
  <path class="cls-2" d="m281.01,280.69c-14.7-.33-31.28,9.99-30.91,20.09.36,10.05,17.36,17.19,29.37,18.55,13.44,1.52,31.93-2.94,34-12.37,2.25-10.22-14.89-25.88-32.46-26.28Z"/>
  <path class="cls-2" d="m143.72,339.1c-14.7-.33-31.28,9.99-30.91,20.09.36,10.05,17.36,17.19,29.37,18.55,13.44,1.52,31.93-2.94,34-12.37,2.25-10.22-14.89-25.88-32.46-26.28Z"/>
  <path class="cls-2" d="m226.07,356.9c-14.7-.33-31.28,9.99-30.91,20.09.36,10.05,17.36,17.19,29.37,18.55,13.44,1.52,31.93-2.94,34-12.37,2.25-10.22-14.89-25.88-32.46-26.28Z"/>
  <path class="cls-2" d="m194.28,241.74c-14.7-.33-31.28,9.99-30.91,20.09.36,10.05,17.36,17.19,29.37,18.55,13.44,1.52,31.93-2.94,34-12.37,2.25-10.22-14.89-25.88-32.46-26.28Z"/>
  <path class="cls-1" d="m207.3,325.97c-14.7-.33-31.28,9.99-30.91,20.09.36,10.05,17.36,17.19,29.37,18.55,13.44,1.52,31.93-2.94,34-12.37,2.25-10.22-14.89-25.88-32.46-26.28Z"/>
  <path class="cls-1" d="m277.63,292.9c-14.7-.33-31.28,9.99-30.91,20.09.36,10.05,17.36,17.19,29.37,18.55,13.44,1.52,31.93-2.94,34-12.37,2.25-10.22-14.89-25.88-32.46-26.28Z"/>
  <path class="cls-1" d="m290,376.37c-14.7-.33-31.28,9.99-30.91,20.09.36,10.05,17.36,17.19,29.37,18.55,13.44,1.52,31.93-2.94,34-12.37,2.25-10.22-14.89-25.88-32.46-26.28Z"/>
  <path class="cls-1" d="m153.98,370.96c-14.7-.33-31.28,9.99-30.91,20.09.36,10.05,17.36,17.19,29.37,18.55,13.44,1.52,31.93-2.94,34-12.37,2.25-10.22-14.89-25.88-32.46-26.28Z"/>
  <path class="cls-1" d="m140.07,261.21c-14.7-.33-31.28,9.99-30.91,20.09.36,10.05,17.36,17.19,29.37,18.55,13.44,1.52,31.93-2.94,34-12.37,2.25-10.22-14.89-25.88-32.46-26.28Z"/>
  <path class="cls-1" d="m108.28,300.16c-14.7-.33-31.28,9.99-30.91,20.09.36,10.05,17.36,17.19,29.37,18.55,13.44,1.52,31.93-2.94,34-12.37,2.25-10.22-14.89-25.88-32.46-26.28Z"/>
  <path class="cls-1" d="m239.09,222.27c-14.7-.33-31.28,9.99-30.91,20.09.36,10.05,17.36,17.19,29.37,18.55,13.44,1.52,31.93-2.94,34-12.37,2.25-10.22-14.89-25.88-32.46-26.28Z"/>
  <path class="cls-1" d="m347.96,258.6c-14.7-.33-31.28,9.99-30.91,20.09.36,10.05,17.36,17.19,29.37,18.55,13.44,1.52,31.93-2.94,34-12.37,2.25-10.22-14.89-25.88-32.46-26.28Z"/>
  <path class="cls-1" d="m398.19,325.97c-14.7-.33-31.28,9.99-30.91,20.09.36,10.05,17.36,17.19,29.37,18.55,13.44,1.52,31.93-2.94,34-12.37,2.25-10.22-14.89-25.88-32.46-26.28Z"/>
  <path class="cls-1" d="m390.47,405.57c-14.7-.33-31.28,9.99-30.91,20.09.36,10.05,17.36,17.19,29.37,18.55,13.44,1.52,31.93-2.94,34-12.37,2.25-10.22-14.89-25.88-32.46-26.28Z"/>
  <path class="cls-1" d="m329.96,331.84c-14.7-.33-31.28,9.99-30.91,20.09.36,10.05,17.36,17.19,29.37,18.55,13.44,1.52,31.93-2.94,34-12.37,2.25-10.22-14.89-25.88-32.46-26.28Z"/>
  <path class="cls-1" d="m429.98,280.69c-14.7-.33-31.28,9.99-30.91,20.09.36,10.05,17.36,17.19,29.37,18.55,13.44,1.52,31.93-2.94,34-12.37,2.25-10.22-14.89-25.88-32.46-26.28Z"/>
  <path class="cls-1" d="m214.05,268.32c-14.7-.33-31.28,9.99-30.91,20.09.36,10.05,17.36,17.19,29.37,18.55,13.44,1.52,31.93-2.94,34-12.37,2.25-10.22-14.89-25.88-32.46-26.28Z"/>
  <path class="cls-1" d="m321.79,212.68c-14.7-.33-31.28,9.99-30.91,20.09.36,10.05,17.36,17.19,29.37,18.55,13.44,1.52,31.93-2.94,34-12.37,2.25-10.22-14.89-25.88-32.46-26.28Z"/>
</svg>