<?xml version="1.0" encoding="UTF-8"?>
<svg id="_Layer_" data-name="&amp;lt;Layer&amp;gt;" xmlns="http://www.w3.org/2000/svg" viewBox="0 0 540 540">
  <defs>
    <style>
      .cls-1 {
        fill: #e8e3dd;
      }

      .cls-1, .cls-2 {
        opacity: .57;
      }

      .cls-2 {
        fill: #fff9f3;
      }

      .cls-3 {
        fill: #bfbfbf;
      }

      .cls-4 {
        fill: #a6a6a6;
      }

      .cls-5 {
        fill: #d6d6d6;
      }

      .cls-6 {
        fill: #d6e5f0;
      }

      .cls-7 {
        fill: #c9c9c9;
      }

      .cls-8 {
        fill: #4d89c4;
      }

      .cls-9 {
        fill: none;
      }

      .cls-10 {
        fill: #deeef9;
      }
    </style>
  </defs>
  <g>
    <path class="cls-3" d="m445.18,392.15c0-10.52-78.43-19.06-175.18-19.06s-175.18,8.53-175.18,19.06v9c0,10.52,78.43,19.06,175.18,19.06s175.18-8.53,175.18-19.06v-9Z"/>
    <ellipse class="cls-7" cx="270" cy="391.15" rx="175.18" ry="19.06"/>
    <ellipse class="cls-3" cx="270" cy="390.39" rx="167.06" ry="14.45"/>
  </g>
  <path class="cls-10" d="m445.18,393.77s-71.43,17-175.18,17-175.18-17-175.18-17v-144.57s86.74,20,175.18,20,175.18-20,175.18-20v144.57Z"/>
  <path class="cls-2" d="m445.18,369.67s-71.43,12.25-175.18,12.25-175.18-12.25-175.18-12.25v-88.54s86.74,12.25,175.18,12.25,175.18-12.25,175.18-12.25v88.54Z"/>
  <path class="cls-9" d="m445.18,393.77s-71.43,20-175.18,20-175.18-20-175.18-20v-144.57s86.74,20,175.18,20,175.18-20,175.18-20v144.57Z"/>
  <g>
    <path class="cls-8" d="m361.74,310.73c-1.97-3.37-46.01,6.32-47.16,27.59-1.21,22.29,45.89,35.38,47.99,32.17,1.6-2.45-23.21-14.28-22.55-31.67.63-16.3,23.2-25.57,21.72-28.1Z"/>
    <path class="cls-8" d="m322.22,340.36c-.17-17.25-64.14-35.32-108.38-22.9-4.12,1.16-34.74,9.76-36.38,23.18-.11.88-.34,2.77.67,4.59,4.69,8.53,29.38,3.22,29.52,4.4.06.5-3.34,1.16-3.34,1.16-12.63,2.45-21.89.12-22.39,1.53-.78,2.23,8.4,6.06,12.85,7.93,1.6.68,17.83,7.42,32.38,8.65,27.13,2.28,95.26-10.7,95.08-28.54Z"/>
  </g>
  <path class="cls-6" d="m125.43,388.66c.18-4.92.37-9.84.55-14.76-19.96-2.32-31.17-4.24-31.17-4.24v24.1h0s27.11,6.45,72.1,11.4c-6.67-2.09-13.42-4.46-20.23-7.14-7.46-2.94-14.55-6.09-21.26-9.35Z"/>
  <path class="cls-6" d="m94.82,281.13s13.17,1.86,34.48,4.13c.36-9.71.73-19.42,1.09-29.13-21.95-3.79-35.58-6.93-35.58-6.93v31.93Z"/>
  <path class="cls-10" d="m94.82,369.67s11.2,1.92,31.17,4.24c1.11-29.55,2.21-59.1,3.32-88.65-21.31-2.27-34.48-4.13-34.48-4.13v88.54Z"/>
  <path class="cls-1" d="m94.82,369.67s11.2,1.92,31.17,4.24c1.11-29.55,2.21-59.1,3.32-88.65-21.31-2.27-34.48-4.13-34.48-4.13v88.54Z"/>
  <g>
    <path class="cls-3" d="m445.18,241.14c0-10.52-78.43-19.06-175.18-19.06s-175.18,8.53-175.18,19.06v9c0,10.52,78.43,19.06,175.18,19.06s175.18-8.53,175.18-19.06v-9Z"/>
    <ellipse class="cls-5" cx="270" cy="240.14" rx="175.18" ry="19.06"/>
    <path class="cls-4" d="m433.45,242.39c2.36-.97,3.61-1.97,3.61-3,0-7.98-74.8-14.45-167.06-14.45s-167.06,6.47-167.06,14.45c0,1.03,1.25,2.03,3.61,3,15.97-6.54,83.07-11.45,163.45-11.45s147.48,4.91,163.45,11.45Z"/>
    <path class="cls-3" d="m433.45,242.39c-15.97-6.54-83.07-11.45-163.45-11.45s-147.48,4.91-163.45,11.45c15.97,6.54,83.07,11.45,163.45,11.45s147.48-4.91,163.45-11.45Z"/>
  </g>
</svg>