<?xml version="1.0" encoding="UTF-8"?>
<svg xmlns="http://www.w3.org/2000/svg" xmlns:xlink="http://www.w3.org/1999/xlink" viewBox="0 0 540 540">
  <defs>
    <style>
      .cls-1 {
        fill: #3f3e3d;
        mix-blend-mode: overlay;
        opacity: .96;
      }

      .cls-2 {
        fill: #fff9f3;
        opacity: .57;
      }

      .cls-3 {
        isolation: isolate;
      }

      .cls-4 {
        fill: #c9c9c9;
      }

      .cls-5 {
        fill: #4d89c4;
      }

      .cls-6 {
        clip-path: url(#clippath);
      }

      .cls-7 {
        fill: none;
      }

      .cls-8 {
        fill: #deeef9;
      }
    </style>
    <clipPath id="clippath">
      <path class="cls-7" d="m445.18,343.76s-71.43,20-175.18,20-175.18-20-175.18-20v-144.57s86.74,20,175.18,20,175.18-20,175.18-20v144.57Z"/>
    </clipPath>
  </defs>
  <g class="cls-3">
    <g id="_Layer_" data-name="&amp;lt;Layer&amp;gt;">
      <g>
        <ellipse class="cls-4" cx="270" cy="200.14" rx="175.18" ry="19.06"/>
        <path class="cls-8" d="m445.18,343.76s-71.43,20-175.18,20-175.18-20-175.18-20v-144.57s86.74,20,175.18,20,175.18-20,175.18-20v144.57Z"/>
        <path class="cls-2" d="m445.18,319.66s-71.43,12.25-175.18,12.25-175.18-12.25-175.18-12.25v-88.54s86.74,12.25,175.18,12.25,175.18-12.25,175.18-12.25v88.54Z"/>
        <g class="cls-6">
          <path class="cls-1" d="m131.39,179.64c-1.98,53.01-3.97,106.02-5.95,159.02,6.71,3.27,13.79,6.41,21.26,9.35,40.23,15.86,78.37,20.79,109.7,21.26-61.23-6.52-122.46-13.04-183.69-19.56,3.97-58.11,7.94-116.22,11.91-174.33,15.59,1.42,31.18,2.83,46.77,4.25Z"/>
        </g>
        <g>
          <path class="cls-5" d="m361.74,260.73c-1.97-3.37-46.01,6.32-47.16,27.59-1.21,22.29,45.89,35.38,47.99,32.17,1.6-2.45-23.21-14.28-22.55-31.67.63-16.3,23.2-25.57,21.72-28.1Z"/>
          <path class="cls-5" d="m322.22,290.36c-.17-17.25-64.14-35.32-108.38-22.9-4.12,1.16-34.74,9.76-36.38,23.18-.11.88-.34,2.77.67,4.59,4.69,8.53,29.38,3.22,29.52,4.4.06.5-3.34,1.16-3.34,1.16-12.63,2.45-21.89.12-22.39,1.53-.78,2.23,8.4,6.06,12.85,7.93,1.6.68,17.83,7.42,32.38,8.65,27.13,2.28,95.26-10.7,95.08-28.54Z"/>
        </g>
      </g>
    </g>
  </g>
</svg>