<?xml version="1.0" encoding="UTF-8"?>
<svg id="front" xmlns="http://www.w3.org/2000/svg" viewBox="0 0 948.12 197.08">
  <defs>
    <style>
      .cls-1 {
        fill: #fff;
      }

      .cls-2 {
        fill: #fce5b4;
      }

      .cls-3 {
        fill: #8880bf;
      }

      .cls-4 {
        fill: #7a72ab;
      }

      .cls-5 {
        fill: #7571ad;
      }
    </style>
  </defs>
  <g id="box_1-success" data-name="box 1-success">
    <path class="cls-3" d="m891.04,22.46c-17.39,20.03-48.46,33.08-88.66,33.08H145.68c-40.2,0-71.27-13.05-88.64-33.08H3.95s19.49,100.92,28.46,119.58c14.95,31.11,52.34,52.67,104,52.67h675.45c51.66,0,89.05-21.56,104-52.67,8.97-18.67,28.46-119.58,28.46-119.58h-53.28Z"/>
    <path class="cls-4" d="m893,20.09c-1.29,1.62-2.65,3.21-4.11,4.74h52.55c-3.23,16.46-19.81,99.74-27.72,116.19-15.45,32.14-53.53,51.33-101.87,51.33H136.41c-48.34,0-86.42-19.19-101.87-51.33C26.64,124.56,10.06,41.28,6.82,24.83h52.36c-1.46-1.54-2.82-3.12-4.11-4.74H1.08l.54,2.82c.8,4.13,19.65,101.43,28.65,120.16,16.26,33.82,55.93,54.01,106.14,54.01h675.45c50.21,0,89.88-20.19,106.14-54.01,9-18.73,27.85-116.03,28.65-120.16l.54-2.82s-54.19,0-54.19,0Z"/>
    <path class="cls-4" d="m945.32,0h-41.51c-10.2,32.19-47.65,55.53-101.43,55.53H145.68c-53.78,0-91.22-23.34-101.39-55.53H2.79C-2.36,51.88,43.73,94.09,118.76,94.09h710.58c75.04,0,121.12-42.21,115.97-94.09h0Z"/>
    <path class="cls-4" d="m942.88,0c1.75,17.17-2.22,33.61-11.79,47.83-18.75,27.87-55.83,43.85-101.75,43.85H118.76c-45.92,0-83-15.98-101.75-43.85C7.45,33.61,3.48,17.17,5.23,0H.38c-1.74,18.1,2.5,35.46,12.64,50.52,19.66,29.22,58.2,45.97,105.75,45.97h710.58c47.55,0,86.09-16.76,105.75-45.97C945.23,35.46,949.48,18.1,947.74,0h-4.86Z"/>
    <path class="cls-5" d="m145.68,57.89h656.7c43.42,0,78.3-14.85,95.71-40.75,3.64-5.41,6.35-11.16,8.17-17.14h-2.46c-10.2,32.19-47.65,55.53-101.43,55.53H145.68c-53.78,0-91.22-23.34-101.39-55.53h-2.45c1.8,5.98,4.51,11.72,8.14,17.12,17.39,25.91,52.27,40.77,95.71,40.77h0Z"/>
  </g>
  <g>
    <polygon class="cls-2" points="137.2 138.5 139.7 153.6 152.2 159.3 140 166.3 138.4 179.9 128.7 170.8 115.7 173.8 121.1 161.1 113.6 148.4 127.7 150.2 137.2 138.5"/>
    <polygon class="cls-2" points="103.9 110.4 107.2 120.7 116.4 124 108.9 129.8 109.4 139.7 101.7 133.7 93.2 136.8 95.5 127.3 89.2 118.9 98.8 119.2 103.9 110.4"/>
    <polygon class="cls-2" points="171.8 129.6 170.5 137.1 175.2 141.9 168.5 143.4 165.4 150 162.5 143.8 155.8 143.2 160.7 137.7 159.5 130.4 165.6 133.5 171.8 129.6"/>
    <polygon class="cls-2" points="854.4 106.8 856.8 121.8 869.4 127.6 857.1 134.6 855.5 148.2 845.9 139.1 832.8 142.1 838.2 129.4 830.8 116.7 844.8 118.4 854.4 106.8"/>
    <polygon class="cls-2" points="678.2 163.4 679.2 168.9 675.8 172.4 680.7 173.5 682.9 178.3 685 173.8 689.9 173.3 686.4 169.4 687.2 164 682.7 166.3 678.2 163.4"/>
    <path class="cls-1" d="m766,110.8c-1.3,0-2.6.1-3.9.2,15.4,4.7,24.2,21,19.5,36.4s-21,24.2-36.4,19.5c-3.8-1.1-7.3-3-10.3-5.6,8.6,17.2,29.6,24.2,46.8,15.6,17.2-8.6,24.2-29.6,15.6-46.8-6-11.9-18.1-19.3-31.3-19.3Z"/>
  </g>
</svg>