<svg xmlns="http://www.w3.org/2000/svg" viewBox="0 0 948.13947 881.04829"><defs><style>.cls-1{fill:#7a76b2;}.cls-1,.cls-14,.cls-15,.cls-3,.cls-7{stroke:#7571ad;}.cls-1,.cls-12,.cls-13,.cls-14,.cls-15,.cls-3,.cls-4,.cls-5,.cls-7,.cls-8{stroke-miterlimit:10;}.cls-1,.cls-3,.cls-4,.cls-5,.cls-7{stroke-width:5.18803px;}.cls-2,.cls-3{fill:#7874af;}.cls-12,.cls-4{fill:#8880bf;}.cls-12,.cls-13,.cls-4,.cls-5{stroke:#7a72ab;}.cls-13,.cls-5{fill:#7a72ab;}.cls-6{fill:#776ea6;}.cls-15,.cls-7{fill:none;}.cls-8{fill:#ffb583;stroke:#f4aa73;stroke-width:6.14767px;}.cls-9{fill:#6c6596;}.cls-10{fill:#494366;opacity:0.1;}.cls-11{fill:#8078b5;}.cls-12{stroke-width:4.74045px;}.cls-13,.cls-15{stroke-width:4.8157px;}.cls-14{fill:#71679e;stroke-width:4.7187px;}.cls-16{fill:#847cba;}.cls-17{fill:#766fa6;opacity:0.42;}</style></defs><g id="Layer_2" data-name="Layer 2"><g id="box_1-success"><path class="cls-1" d="M19.21049,668.891c-38.207,85.97185,40.08405,167.24394,181.21549,167.24394H732.76465c141.13153,0,219.42255-81.27209,181.21546-167.24394L877.6693,587.18632c-12.41089-27.92618-58.682-49.35693-104.01168-49.35693H159.53282"/><path class="cls-2" d="M638.3863,96.3962H282.45611l13.91062-57.96458A33.24,33.24,0,0,1,328.689,12.94845H592.15339a33.24,33.24,0,0,1,32.32229,25.48317Z"/><path class="cls-3" d="M726.23274,474.07365H196.6848c-39.08693,0-78.98559,14.90534-89.6872,34.32843L75.68754,565.22881c-32.94519,59.79446,34.5637,116.32044,156.25862,116.32044H690.97153c121.69492,0,189.20376-56.526,156.25853-116.32044L815.92,508.40208C805.21834,488.979,765.31967,474.07365,726.23274,474.07365Z"/><path class="cls-4" d="M856.18484,84.384c-14.12634-41.5033-53.92591-71.26659-104.83913-71.26659h-570.618c-49.79407,0-88.95724,28.46952-103.8704,68.54707l-22.64957,54.359,17.8448,2.20761,34.10241,4.21885,754.16752-6.27818,17.811-.14828S866.67152,107.01185,856.18484,84.384Z"/><path class="cls-5" d="M768.43282,64.52914H163.64057c-74.03174,0-125.90933,59.36639-115.74216,128.79365l21.793,148.81527c8.72188,59.558,68.3548,106.37207,132.8604,106.37207H729.52156c64.50559,0,124.13851-46.81407,132.86039-106.37207l21.793-148.81527C894.34215,123.89553,842.46456,64.52914,768.43282,64.52914Z"/><path class="cls-6" d="M749.25348,94.98854H182.81991c-66.28783,0-112.7389,53.15652-103.63524,115.32151l17.43809,122.8721c7.80955,53.32809,61.20472,95.24529,118.96286,95.24529H716.48777c57.75815,0,111.15331-41.9172,118.96286-95.24529l17.43809-122.8721C861.99238,148.14506,815.54131,94.98854,749.25348,94.98854Z"/><path class="cls-7" d="M749.25348,94.98854H182.81991c-66.28783,0-112.7389,53.15652-103.63524,115.32151l17.43809,122.8721c7.80955,53.32809,61.20472,95.24529,118.96286,95.24529H716.48777c57.75815,0,111.15331-41.9172,118.96286-95.24529l17.43809-122.8721C861.99238,148.14506,815.54131,94.98854,749.25348,94.98854Z"/><path class="cls-8" d="M314.5622,47.258H217.44062a11.04412,11.04412,0,0,1-10.05468-15.61315l10.04081-22.096a11.04412,11.04412,0,0,1,10.05468-6.47508h92.10118a11.04412,11.04412,0,0,1,10.76963,13.49108l-5.0204,22.096A11.04413,11.04413,0,0,1,314.5622,47.258Z"/><rect class="cls-9" x="581.06938" y="441.81861" width="161.76842" height="18.62207"/><line class="cls-9" x1="581.06938" y1="460.44068" x2="581.06938" y2="441.81861"/><line class="cls-9" x1="742.8378" y1="441.81861" x2="742.8378" y2="460.44068"/><rect class="cls-9" x="197.15534" y="441.81861" width="161.76842" height="18.62207"/><line class="cls-9" x1="197.15534" y1="460.44068" x2="197.15534" y2="441.81861"/><line class="cls-9" x1="358.92376" y1="441.81861" x2="358.92376" y2="460.44068"/><path class="cls-10" d="M80.002,216.06906C325.71655,202.41115,619.40014,249.39631,828.6912,357.0278a96.20113,96.20113,0,0,0,6.75945-23.84567L852.88874,210.31c9.10362-62.165-37.3474-115.32152-103.63529-115.32152H182.81989c-66.28782,0-112.73884,53.15651-103.63522,115.32152Z"/><path class="cls-11" d="M835.45065,291.67528c-7.80959,53.32814-61.20473,95.24534-118.9629,95.24534H215.58565c-57.75816,0-111.1533-41.9172-118.96289-95.24534L80.03728,174.81084A103.302,103.302,0,0,0,79.18467,210.31L96.62276,333.18216c7.80959,53.32807,61.20473,95.24527,118.96289,95.24527h500.9021c57.75817,0,111.15331-41.9172,118.9629-95.24527L852.88874,210.31a103.302,103.302,0,0,0-.85262-35.49917Z"/><path class="cls-8" d="M617.77894,47.258h97.12158A11.04412,11.04412,0,0,0,724.9552,31.64488l-10.04081-22.096a11.04412,11.04412,0,0,0-10.05468-6.47508H612.75854A11.04412,11.04412,0,0,0,601.9889,16.56492l5.02041,22.096A11.04411,11.04411,0,0,0,617.77894,47.258Z"/><path class="cls-12" d="M3.96221,706.42344S23.4521,807.34046,32.423,826.00652c14.95152,31.11006,52.33866,52.67154,104.002,52.67154H811.87343c51.66329,0,89.05043-21.56148,104.00195-52.67154,8.97092-18.66606,28.46082-119.58308,28.46082-119.58308Z"/><path class="cls-13" d="M118.78041,778.05574l710.57867,0c86.98089,0,135.07136-56.71233,109.53787-119.46506L888.86723,535.63449c-18.41832-45.266-85.329-79.41668-150.1253-79.41668l-529.34443,0c-64.79628,0-131.707,34.15064-150.12529,79.41667L9.24251,658.59068C-16.291,721.3434,31.79951,778.05574,118.78041,778.05574Z"/><path class="cls-14" d="M145.73289,739.51788l656.67369,0c76.84833,0,120.30343-47.6106,98.6785-100.62465l-39.03557-97.12757c-16.03543-39.28176-76.01522-69.03889-134.47712-69.03889l-507.00536,0c-58.4619,0-118.44169,29.75713-134.47711,69.03888L47.05436,638.89323C25.42945,691.90728,68.88456,739.51788,145.73289,739.51788Z"/><path class="cls-15" d="M145.7329,748.5914l656.67369,0c76.84832,0,120.30342-49.58813,98.6785-104.80415L862.04952,542.62544C846.01409,501.7121,786.0343,470.719,727.5724,470.719l-507.00537,0c-58.46189,0-118.44168,30.99311-134.47711,71.90646L47.05437,643.78724C25.42946,699.00327,68.88457,748.5914,145.7329,748.5914Z"/><polygon class="cls-9" points="197.269 447.707 359.037 447.707 358.226 461.025 195.317 461.025 197.269 447.707"/><line class="cls-9" x1="359.03704" y1="447.70677" x2="358.22586" y2="461.02507"/><line class="cls-9" x1="195.31669" y1="461.02506" x2="197.26863" y2="447.70676"/><polygon class="cls-9" points="581.183 447.707 742.951 447.707 744.847 461.025 581.938 461.025 581.183 447.707"/><line class="cls-9" x1="742.95105" y1="447.70678" x2="744.84715" y2="461.02508"/><line class="cls-9" x1="581.93799" y1="461.02507" x2="581.18265" y2="447.70678"/><path class="cls-16" d="M901.08506,638.89327l-39.03554-97.12761c-16.03545-39.28172-76.01524-69.03889-134.47713-69.03889H220.567c-58.46189,0-118.44168,29.7571-134.47706,69.03889L47.05436,638.8932c-8.18178,20.0578-7.04093,39.33938,1.69325,55.56427a64.23074,64.23074,0,0,0,3.94325,6.38473L79.6241,633.28139c16.43266-40.588,77.47352-71.31616,136.87388-71.31616H731.64143c59.40036,0,120.44122,30.72811,136.87388,71.31616l26.93324,67.56087a64.2122,64.2122,0,0,0,3.94332-6.38473C908.12605,678.23264,909.26683,658.951,901.08506,638.89327Z"/><path class="cls-17" d="M220.567,472.72677c-58.46189,0-118.44168,29.7571-134.47706,69.03889L47.05436,638.8932c-8.18178,20.0578-7.04093,39.33938,1.69325,55.56427a64.23074,64.23074,0,0,0,3.94325,6.38473L79.6241,633.28139c16.43266-40.588,77.47352-71.31616,136.87388-71.31616H488.622L399.3835,472.72677Z"/><path class="cls-16" d="M868.51526,633.28143l26.93335,67.5608a64.21721,64.21721,0,0,0,3.94323-6.38467c8.73415-16.22494,9.875-35.50659,1.69325-55.56427l-39.03564-97.12766c-16.03533-39.28168-76.01517-69.03887-134.47709-69.03887H399.38347L488.622,561.96522H731.64142C791.04173,561.96522,852.08263,592.69336,868.51526,633.28143Z"/></g></g></svg>