<?xml version="1.0" encoding="utf-8"?>
<!-- Generator: Adobe Illustrator 27.3.0, SVG Export Plug-In . SVG Version: 6.00 Build 0)  -->
<svg version="1.1" id="Layer_1" xmlns="http://www.w3.org/2000/svg" xmlns:xlink="http://www.w3.org/1999/xlink" x="0px" y="0px"
	 viewBox="0 0 948.1 888.4" style="enable-background:new 0 0 948.1 888.4;" xml:space="preserve">
<style type="text/css">
	.st0{opacity:0.42;fill:#A36C6C;enable-background:new    ;}
	.st1{fill:#7A76B2;stroke:#7571AD;stroke-width:5.188;stroke-miterlimit:10;}
	.st2{fill:#7874AF;}
	.st3{fill:#7874AF;stroke:#7571AD;stroke-width:5.188;stroke-miterlimit:10;}
	.st4{fill:#8880BF;stroke:#7A72AB;stroke-width:5.188;stroke-miterlimit:10;}
	.st5{fill:#7A72AB;stroke:#7A72AB;stroke-width:5.188;stroke-miterlimit:10;}
	.st6{fill:#776EA6;}
	.st7{fill:none;stroke:#7571AD;stroke-width:5.188;stroke-miterlimit:10;}
	.st8{fill:#FFB583;stroke:#F4AA73;stroke-width:6.1477;stroke-miterlimit:10;}
	.st9{fill:#6C6596;}
	.st10{fill:none;}
	.st11{opacity:0.1;fill:#494366;enable-background:new    ;}
	.st12{fill:#8078B5;}
	.st13{fill:#8880BF;stroke:#7A72AB;stroke-width:4.7404;stroke-miterlimit:10;}
	.st14{fill:#7A72AB;stroke:#7A72AB;stroke-width:4.8157;stroke-miterlimit:10;}
	.st15{fill:#7571AD;}
	.st16{fill:#71679E;}
	.st17{opacity:0.42;fill:#766FA6;enable-background:new    ;}
	.st18{fill:#847CBA;}
	.st19{fill:#FCE5B4;}
	.st20{fill:#FFFFFF;}
</style>
<path class="st0" d="M802.7,613.5H188.6c-45.3,0-68.5,25.6-80.9,51.3l-36.3,75.3c-38.2,79.2-44.1,148.3,84.1,148.3h679.6
	c100.3,0,111.6-37.1,73.4-116.3l-32.6-60.6C863.5,685.7,848.1,613.5,802.7,613.5z"/>
<g>
	<g id="Layer_2_00000034047907468886152780000016035443914315477643_">
		<g id="box_1-success">
			<path class="st1" d="M19.2,668.9c-38.2,86,40.1,167.2,181.2,167.2h532.3c141.1,0,219.4-81.3,181.2-167.2l-36.3-81.7
				c-12.4-27.9-58.7-49.4-104-49.4H159.5"/>
			<path class="st2" d="M638.4,96.4H282.5l13.9-58c3.6-14.9,17-25.5,32.3-25.5h263.5c15.4,0,28.7,10.5,32.3,25.5L638.4,96.4z"/>
			<path class="st3" d="M726.2,474.1H196.7c-39.1,0-79,14.9-89.7,34.3l-31.3,56.8c-33,59.8,34.6,116.3,156.2,116.3h459
				c121.7,0,189.2-56.5,156.3-116.3l-31.3-56.8C805.2,489,765.3,474.1,726.2,474.1z"/>
			<path class="st4" d="M856.2,84.4c-14.1-41.5-53.9-71.3-104.8-71.3H180.7c-49.8,0-89,28.5-103.9,68.5L54.2,136l17.8,2.2l34.1,4.2
				l754.2-6.3l17.8-0.1C878.1,136,866.7,107,856.2,84.4z"/>
			<path class="st5" d="M768.4,64.5H163.6c-74,0-125.9,59.4-115.7,128.8l21.8,148.8c8.7,59.6,68.4,106.4,132.9,106.4h527
				c64.5,0,124.1-46.8,132.9-106.4l21.8-148.8C894.3,123.9,842.5,64.5,768.4,64.5z"/>
			<path class="st6" d="M749.3,95H182.8c-66.3,0-112.7,53.2-103.6,115.3l17.4,122.9c7.8,53.3,61.2,95.2,119,95.2h500.9
				c57.8,0,111.2-41.9,119-95.2l17.4-122.9C862,148.1,815.5,95,749.3,95z"/>
			<path class="st7" d="M749.3,95H182.8c-66.3,0-112.7,53.2-103.6,115.3l17.4,122.9c7.8,53.3,61.2,95.2,119,95.2h500.9
				c57.8,0,111.2-41.9,119-95.2l17.4-122.9C862,148.1,815.5,95,749.3,95z"/>
			<path class="st8" d="M314.6,47.3h-97.1c-6.1,0-11-4.9-11-11c0-1.6,0.3-3.1,1-4.6l10-22.1c1.8-3.9,5.7-6.5,10.1-6.5h92.1
				c6.1,0,11,4.9,11,11c0,0.8-0.1,1.6-0.3,2.4l-5,22.1C324.2,43.7,319.7,47.3,314.6,47.3z"/>
			<rect x="581.1" y="441.8" class="st9" width="161.8" height="18.6"/>
			<line class="st10" x1="581.1" y1="460.4" x2="581.1" y2="441.8"/>
			<line class="st10" x1="742.8" y1="441.8" x2="742.8" y2="460.4"/>
			<rect x="197.2" y="441.8" class="st9" width="161.8" height="18.6"/>
			<line class="st10" x1="197.2" y1="460.4" x2="197.2" y2="441.8"/>
			<line class="st10" x1="358.9" y1="441.8" x2="358.9" y2="460.4"/>
			<path class="st11" d="M80,216.1c245.7-13.7,539.4,33.3,748.7,141c3.3-7.6,5.5-15.6,6.8-23.8l17.4-122.9
				C862,148.1,815.5,95,749.3,95H182.8c-66.3,0-112.7,53.2-103.6,115.3L80,216.1z"/>
			<path class="st12" d="M835.5,291.7c-7.8,53.3-61.2,95.2-119,95.2H215.6c-57.8,0-111.2-41.9-119-95.2L80,174.8
				c-2.3,11.7-2.6,23.7-0.9,35.5l17.4,122.9c7.8,53.3,61.2,95.2,119,95.2h500.9c57.8,0,111.2-41.9,119-95.2l17.4-122.9
				c1.8-11.8,1.5-23.8-0.9-35.5L835.5,291.7z"/>
			<path class="st8" d="M617.8,47.3h97.1c6.1,0,11-4.9,11-11c0-1.6-0.3-3.1-1-4.6l-10-22.1c-1.8-3.9-5.7-6.5-10.1-6.5h-92.1
				c-6.1,0-11,4.9-11,11c0,0.8,0.1,1.6,0.3,2.4l5,22.1C608.2,43.7,612.6,47.3,617.8,47.3z"/>
			<path class="st13" d="M4,706.4c0,0,19.5,100.9,28.5,119.6c15,31.1,52.3,52.7,104,52.7h675.4c51.7,0,89.1-21.6,104-52.7
				c9-18.7,28.5-119.6,28.5-119.6H4z"/>
			<path class="st14" d="M118.8,778.1h710.6c87,0,135.1-56.7,109.5-119.5l-50-123c-18.4-45.3-85.3-79.4-150.1-79.4H209.4
				c-64.8,0-131.7,34.2-150.1,79.4l-50,123C-16.3,721.3,31.8,778.1,118.8,778.1z"/>
			<g>
				<path class="st15" d="M802.4,741.9H145.7c-43.4,0-78.3-14.9-95.7-40.8c-12.4-18.4-14.2-40.8-5.1-63.1l39-97.1
					c16.2-39.5,76.3-70.5,136.7-70.5h507c60.6,0,120.6,31,136.7,70.5l39,97.1c9.1,22.2,7.2,44.6-5.2,63.1
					C880.7,727,845.8,741.9,802.4,741.9z M220.6,475.2c-58.6,0-116.8,29.7-132.3,67.5l-39,97.1c-8.5,20.8-6.9,41.6,4.6,58.7
					c16.3,24.2,50.6,38.7,91.8,38.7h656.7c41.2,0,75.5-14.5,91.8-38.7c11.5-17.1,13.2-37.9,4.7-58.7l-39-97.1
					c-15.4-37.9-73.5-67.5-132.3-67.5H220.6z"/>
				<path class="st16" d="M145.7,739.5h656.7c76.8,0,120.3-47.6,98.7-100.6l-39-97.1c-16-39.3-76-69-134.5-69h-507
					c-58.5,0-118.4,29.8-134.5,69l-39,97.1C25.4,691.9,68.9,739.5,145.7,739.5z"/>
			</g>
			<path class="st17" d="M220.6,472.7c-58.5,0-118.4,29.8-134.5,69l-39,97.1c-8.2,20.1-7,39.3,1.7,55.6c1.2,2.2,2.5,4.3,3.9,6.4
				l26.9-67.6c16.4-40.6,77.5-71.3,136.9-71.3h272.1l-89.2-89.2H220.6z"/>
			<polygon class="st9" points="197.3,447.7 359,447.7 358.2,461 195.3,461 			"/>
			<line class="st10" x1="359" y1="447.7" x2="358.2" y2="461"/>
			<line class="st10" x1="195.3" y1="461" x2="197.3" y2="447.7"/>
			<polygon class="st9" points="581.2,447.7 743,447.7 744.8,461 581.9,461 			"/>
			<line class="st10" x1="743" y1="447.7" x2="744.8" y2="461"/>
			<line class="st10" x1="581.9" y1="461" x2="581.2" y2="447.7"/>
			<path class="st18" d="M901.1,638.9l-39-97.1c-16-39.3-76-69-134.5-69h-507c-58.5,0-118.4,29.8-134.5,69l-39,97.1
				c-8.2,20.1-7,39.3,1.7,55.6c1.2,2.2,2.5,4.3,3.9,6.4l26.9-67.6C96,592.7,157.1,562,216.5,562h515.1c59.4,0,120.4,30.7,136.9,71.3
				l26.9,67.6c1.4-2,2.8-4.2,3.9-6.4C908.1,678.2,909.3,659,901.1,638.9z"/>
			<path class="st18" d="M868.5,633.3l26.9,67.6c1.4-2,2.8-4.2,3.9-6.4c8.7-16.2,9.9-35.5,1.7-55.6l-39-97.1
				c-16-39.3-76-69-134.5-69H399.4l89.2,89.2h243C791,562,852.1,592.7,868.5,633.3z"/>
		</g>
	</g>
	<polygon class="st19" points="137.2,822.5 139.7,837.6 152.2,843.3 140,850.3 138.4,863.9 128.7,854.8 115.7,857.8 121.1,845.1 
		113.6,832.4 127.7,834.2 	"/>
	<polygon class="st19" points="103.9,794.4 107.2,804.7 116.4,808 108.9,813.8 109.4,823.7 101.7,817.7 93.2,820.8 95.5,811.3 
		89.2,802.9 98.8,803.2 	"/>
	<polygon class="st19" points="171.8,813.6 170.5,821.1 175.2,825.9 168.5,827.4 165.4,834 162.5,827.8 155.8,827.2 160.7,821.7 
		159.5,814.4 165.6,817.5 	"/>
	<polygon class="st19" points="854.4,790.8 856.8,805.8 869.4,811.6 857.1,818.6 855.5,832.2 845.9,823.1 832.8,826.1 838.2,813.4 
		830.8,800.7 844.8,802.4 	"/>
	<polygon class="st19" points="678.2,847.4 679.2,852.9 675.8,856.4 680.7,857.5 682.9,862.3 685,857.8 689.9,857.3 686.4,853.4 
		687.2,848 682.7,850.3 	"/>
	<path class="st20" d="M766,794.8c-1.3,0-2.6,0.1-3.9,0.2c15.4,4.7,24.2,21,19.5,36.4s-21,24.2-36.4,19.5c-3.8-1.1-7.3-3-10.3-5.6
		c8.6,17.2,29.6,24.2,46.8,15.6c17.2-8.6,24.2-29.6,15.6-46.8C791.3,802.2,779.2,794.8,766,794.8z"/>
</g>
</svg>
