<svg xmlns="http://www.w3.org/2000/svg" xmlns:xlink="http://www.w3.org/1999/xlink" viewBox="0 0 436.78469 365.76291"><defs><style>.cls-1{fill:none;}.cls-2,.cls-6{fill:#ffb583;stroke:#f4aa73;}.cls-2,.cls-3,.cls-6{stroke-miterlimit:10;}.cls-2{stroke-width:5.97484px;}.cls-3{fill:#8880bf;stroke:#7a72ab;stroke-width:5.04217px;}.cls-4{fill:#776ea6;}.cls-5{fill:#fce5b4;}.cls-6{stroke-width:5.78301px;}.cls-7{fill:#ea5959;}.cls-8{fill:#d1d1d1;}.cls-9{fill:#fff;}.cls-10{fill:#b0e1ff;}.cls-11{clip-path:url(#clip-path);}.cls-12{clip-path:url(#clip-path-2);}.cls-13{fill:#8dc4a4;}</style><clipPath id="clip-path"><path class="cls-1" d="M120.39686,142.37708c23.3685,18.95091,45.35765,47.0424,29.62637,65.828s-47.24754,2.07092-70.00748-17.60673c-29.76521-25.73423-29.70148-61.84472-29.62635-65.828C54.29758,123.99692,89.83578,117.59326,120.39686,142.37708Z"/></clipPath><clipPath id="clip-path-2"><circle class="cls-1" cx="242.71391" cy="249.93682" r="49.10401"/></clipPath></defs><g id="Layer_2" data-name="Layer 2"><g id="box1"><path class="cls-2" d="M135.198,19.58813V65.42156H169.2689V38.9979a10.44157,10.44157,0,0,1,10.44157-10.44157h77.36375A10.44157,10.44157,0,0,1,267.51579,38.9979V65.42156h34.07092V19.58813A16.60071,16.60071,0,0,0,284.986,2.98742H151.79869A16.60071,16.60071,0,0,0,135.198,19.58813Z"/><rect class="cls-3" x="2.52109" y="65.42157" width="431.74252" height="297.82026" rx="46.50797"/><rect class="cls-4" x="27.07079" y="89.66739" width="382.64311" height="249.32862" rx="15.49537"/><polygon class="cls-5" points="357.094 278.344 359.536 293.426 372.081 299.183 359.839 306.198 358.264 319.738 348.602 310.642 335.571 313.694 340.947 300.998 333.5 288.304 347.564 290.033 357.094 278.344"/><polygon class="cls-5" points="334.593 233.993 337.931 244.337 347.128 247.569 339.611 253.4 340.118 263.32 332.442 257.344 323.88 260.41 326.19 250.941 319.872 242.495 329.481 242.759 334.593 233.993"/><polygon class="cls-5" points="384.771 275.06 383.405 282.583 388.134 287.398 381.399 288.873 378.315 295.449 375.419 289.259 368.737 288.651 373.595 283.224 372.447 275.879 378.553 279.01 384.771 275.06"/><polygon class="cls-5" points="84.822 254.363 87.265 269.445 99.809 275.202 87.568 282.217 85.992 295.757 76.33 286.661 63.3 289.713 68.676 277.016 61.228 264.323 75.292 266.052 84.822 254.363"/><polygon class="cls-5" points="150.195 114.884 148.416 125.865 139.283 130.057 148.196 135.164 149.343 145.023 156.377 138.4 165.865 140.622 161.951 131.378 167.373 122.136 157.133 123.395 150.195 114.884"/><polygon class="cls-5" points="130.043 112.493 131.038 117.971 127.594 121.476 132.499 122.55 134.744 127.338 136.853 122.831 141.717 122.389 138.18 118.437 139.016 113.089 134.571 115.369 130.043 112.493"/><polygon class="cls-5" points="167.737 288.25 170.167 295.782 176.864 298.135 171.39 302.381 171.76 309.604 166.171 305.253 159.937 307.485 161.619 300.59 157.019 294.441 164.015 294.633 167.737 288.25"/><polygon class="cls-5" points="118.289 294.986 119.284 300.464 115.841 303.969 120.745 305.044 122.99 309.831 125.099 305.324 129.963 304.882 126.427 300.93 127.262 295.582 122.817 297.862 118.289 294.986"/><polygon class="cls-5" points="221.329 144.032 218.899 151.564 212.202 153.916 217.676 158.162 217.306 165.385 222.895 161.034 229.129 163.266 227.447 156.372 232.048 150.222 225.051 150.415 221.329 144.032"/><polygon class="cls-5" points="270.777 150.767 269.782 156.245 273.226 159.751 268.321 160.825 266.076 165.613 263.967 161.106 259.103 160.663 262.64 156.712 261.804 151.364 266.249 153.643 270.777 150.767"/><path class="cls-6" d="M161.13455,207.71253c-5.49628.53886-10.60857,6.43939-10.113,12.07645.49791,5.66342,6.4425,8.6295,9.81633,10.31288a27.04876,27.04876,0,0,0,17.56751,1.96564,12.73374,12.73374,0,0,0-1.3127-5.47464,13.02692,13.02692,0,0,0-5.68185-5.70922l5.67736-.19177a23.862,23.862,0,0,0-4.76365-7.03287C169.82179,211.112,166.01156,207.23438,161.13455,207.71253Z"/><path class="cls-7" d="M129.81958,180.421a34.69332,34.69332,0,0,1,22.399-11.85654c17.36294-2.11675,31.36212,8.30335,33.61267,10.02912l-8.67079,10.35427a33.13822,33.13822,0,0,0-16.00586-7.364c-16.2872-2.30236-25.41666,11.37661-25.85869,12.0663Q132.55773,187.03561,129.81958,180.421Z"/><path class="cls-7" d="M119.1232,193.19416a34.69335,34.69335,0,0,0-7.7391,24.13291c.965,17.46485,13.68147,29.41677,15.77563,31.3293l8.6708-10.35426a33.13807,33.13807,0,0,1-10.0602-14.464c-5.12659-15.62984,6.73671-27.01945,7.33807-27.57572Z"/><path class="cls-8" d="M165.77673,197.131a51.55535,51.55535,0,0,1-23.88924,28.52741l-11.83344-9.90948,23.88924-28.52741Z"/><path class="cls-9" d="M120.39686,142.37708c23.3685,18.95091,45.35765,47.0424,29.62637,65.828s-47.24754,2.07092-70.00748-17.60673c-29.76521-25.73423-29.70148-61.84472-29.62635-65.828C54.29758,123.99692,89.83578,117.59326,120.39686,142.37708Z"/><circle class="cls-10" cx="115.38194" cy="179.19597" r="15.57256"/><circle class="cls-10" cx="88.27704" cy="156.49797" r="12.46577"/><g class="cls-11"><path class="cls-7" d="M49.02866,161.12623A75.10817,75.10817,0,0,1,84.9505,118.23005c-13.18559-13.74932-33.67661-13.334-43.56753-3.26663C30.59292,125.946,31.74783,149.09729,49.02866,161.12623Z"/></g><rect class="cls-7" x="143.34179" y="186.77695" width="9.64664" height="39.74417" transform="translate(-105.39495 187.56976) rotate(-50.05674)"/><path class="cls-9" d="M331.2306,111.85912a43.25289,43.25289,0,0,0-4.84226.27984,35.85033,35.85033,0,1,1-33.46844,61.75816,42.84861,42.84861,0,1,0,38.3107-62.038Z"/><circle class="cls-10" cx="242.71391" cy="249.93682" r="49.10401"/><g class="cls-12"><path class="cls-13" d="M242.40787,216.7914c-1.56341-.15719-3.14974,3.18254-4.64988,6.34073-1.60959,3.38864-2.56657,5.4034-1.69085,7.18619,1.29718,2.6407,6.12628,3.777,8.45433,2.1136C248.70168,229.445,245.30558,217.08272,242.40787,216.7914Z"/><path class="cls-13" d="M286.37039,212.56423c-6.63672-3.19883-17.5241-3.34638-24.09483,2.11357-3.783,3.14349-7.70342,9.44876-5.918,14.37239.68276,1.88282,2.35908,4.00274,3.80445,3.80445,2.70361-.37093,2.31561-8.53976,4.64988-8.877,2.20582-.31873,6.61732,6.38836,4.64988,10.5679-1.32949,2.82435-5.0681,3.424-10.56786,4.22717-9.72122,1.41964-11.81914-.714-19.86769.42271-5.12192.7234-12.20666,1.724-15.64056,7.18619-2.12185,3.37508-3.073,8.80877-.42268,12.25879,2.23238,2.906,6.13405,3.25126,7.6089,3.38174,9.743.862,15.92269-7.66948,19.0222-5.49531,2.64019,1.852.06,9.37737,1.26817,9.72247,1.319.37675,3.47271-8.8552,6.76348-8.877,2.96376-.01967,7.04114,7.43,4.64988,11.83607-1.51149,2.785-5.11765,3.45165-7.18616,3.80445-8.80785,1.50233-12.85967-3.77947-26.20849-6.34076-6.20105-1.18982-9.30165-1.78476-12.25878-.42272-7.92984,3.65238-10.68091,17.4476-8.45434,27.4766,3.27117,14.73405,18.02317,24.65928,30.85838,27.47657,22.161,4.86426,43.6002-10.365,54.1077-25.363C313.33243,267.00875,305.29036,221.68352,286.37039,212.56423Z"/><path class="cls-13" d="M208.16779,207.91435c3.12217.92666,2.28086,11.78983,2.1136,13.94964-1.06318,13.7286-9.82276,22.24557-12.68146,24.94029-1.82816,1.72333-10.51033,9.90758-13.10421,8.03162C179.16138,250.9779,201.43541,205.91616,208.16779,207.91435Z"/><path class="cls-13" d="M236.48982,204.1099c-2.26166-1.72327-8.5118.49428-8.877,4.22717-.32154,3.28692,4.02309,6.69242,6.76348,5.918C237.74008,213.30453,238.94747,205.98252,236.48982,204.1099Z"/></g></g></g></svg>