<?xml version="1.0" encoding="utf-8"?>
<!-- Generator: Adobe Illustrator 27.3.0, SVG Export Plug-In . SVG Version: 6.00 Build 0)  -->
<svg version="1.1" id="Layer_1" xmlns="http://www.w3.org/2000/svg" xmlns:xlink="http://www.w3.org/1999/xlink" x="0px" y="0px"
	 viewBox="0 0 948.1 888.4" style="enable-background:new 0 0 948.1 888.4;" xml:space="preserve">
<style type="text/css">
	.st0{opacity:0.42;fill:#A36C6C;enable-background:new    ;}
	.st1{fill:#9DB6FC;stroke:#83A3E5;stroke-width:4.7405;stroke-miterlimit:10;}
	.st2{fill:#7874AF;stroke:#7571AD;stroke-width:5.188;stroke-miterlimit:10;}
	.st3{fill:#83A3E5;stroke:#83A3E5;stroke-width:4.8157;stroke-miterlimit:10;}
	.st4{fill:#83A3E5;}
	.st5{fill:#6F95D8;}
	.st6{opacity:0.42;fill:#766FA6;enable-background:new    ;}
	.st7{fill:#83A9ED;}
	.st8{fill:#8EADF4;}
	.st9{fill:#9DB6FC;stroke:#83A3E5;stroke-width:5.1881;stroke-miterlimit:10;}
	.st10{fill:#7F9EDE;stroke:#83A3E5;stroke-width:5.1881;stroke-miterlimit:10;}
	.st11{fill:#80A5E8;}
	.st12{fill:none;stroke:#83A3E5;stroke-width:5.1881;stroke-miterlimit:10;}
	.st13{fill:#FFB583;stroke:#F4AA73;stroke-width:6.1477;stroke-miterlimit:10;}
	.st14{fill:#6C92D3;}
	.st15{fill:#FFC69C;}
	.st16{fill:#CAD7FD;}
	.st17{fill:#728DF2;}
	.st18{fill:#B0E1FF;}
</style>
<g>
	<g id="Layer_2_00000170247557202784457710000015151673407978797201_">
		<g id="box_2-success">
			<path class="st0" d="M802.7,614H188.5c-45.3,0-68.5,25.6-80.9,51.3l-36.3,75.3c-38.2,79.2-44.1,148.3,84.1,148.3H835
				c100.3,0,111.6-37.1,73.4-116.3L875.8,712C863.5,686.2,848,614,802.7,614z"/>
			<path class="st1" d="M4,706.4c0,0,19.5,100.9,28.5,119.6c15,31.1,52.3,52.7,104,52.7h675.4c51.7,0,89.1-21.6,104-52.7
				c9-18.7,28.5-119.6,28.5-119.6H4z"/>
			<path class="st2" d="M726.2,474.1H196.7c-39.1,0-79,14.9-89.7,34.3l-31.3,56.8c-33,59.8,34.6,116.3,156.2,116.3h459
				c121.7,0,189.2-56.5,156.3-116.3l-31.3-56.8C805.2,489,765.3,474.1,726.2,474.1z"/>
			<path class="st3" d="M118.8,778.1h710.6c87,0,135.1-56.7,109.5-119.5l-50-123c-18.4-45.3-85.3-79.4-150.1-79.4H209.4
				c-64.8,0-131.7,34.2-150.1,79.4l-50,123C-16.3,721.3,31.8,778.1,118.8,778.1z"/>
			<g>
				<path class="st4" d="M802.4,741.9H145.7c-43.4,0-78.3-14.9-95.7-40.8c-12.4-18.4-14.2-40.8-5.1-63.1l39-97.1
					c16.2-39.5,76.3-70.5,136.7-70.5h507c60.6,0,120.6,31,136.7,70.5l39,97.1c9.1,22.2,7.2,44.6-5.2,63.1
					C880.7,727,845.8,741.9,802.4,741.9z M220.6,475.2c-58.6,0-116.8,29.7-132.3,67.5l-39,97.1c-8.5,20.8-6.9,41.6,4.6,58.7
					c16.3,24.2,50.6,38.7,91.8,38.7h656.7c41.2,0,75.5-14.5,91.8-38.7c11.5-17.1,13.2-37.9,4.7-58.7l-39-97.1
					c-15.4-37.9-73.5-67.5-132.3-67.5H220.6z"/>
				<path class="st5" d="M145.7,739.5h656.7c76.8,0,120.3-47.6,98.7-100.6l-39-97.1c-16-39.3-76-69-134.5-69h-507
					c-58.5,0-118.4,29.8-134.5,69l-39,97.1C25.4,691.9,68.9,739.5,145.7,739.5z"/>
			</g>
			<path class="st6" d="M220.6,472.7c-58.5,0-118.4,29.8-134.5,69l-39,97.1c-8.2,20.1-7,39.3,1.7,55.6c1.2,2.2,2.5,4.3,3.9,6.4
				l26.9-67.6c16.4-40.6,77.5-71.3,136.9-71.3h272.1l-89.2-89.2H220.6z"/>
			<path class="st7" d="M901.1,638.9l-39-97.1c-16-39.3-76-69-134.5-69h-507c-58.5,0-118.4,29.8-134.5,69l-39,97.1
				c-8.2,20.1-7,39.3,1.7,55.6c1.2,2.2,2.5,4.3,3.9,6.4l26.9-67.6C96,592.7,157.1,562,216.5,562h515.1c59.4,0,120.4,30.7,136.9,71.3
				l26.9,67.6c1.4-2,2.8-4.2,3.9-6.4C908.1,678.2,909.3,659,901.1,638.9z"/>
			<path class="st8" d="M868.5,633.3l26.9,67.6c1.4-2,2.8-4.2,3.9-6.4c8.7-16.2,9.9-35.5,1.7-55.6l-39-97.1c-16-39.3-76-69-134.5-69
				H399.4l89.2,89.2h243C791,562,852.1,592.7,868.5,633.3z"/>
			<path class="st9" d="M856.6,84.4c-14.1-41.5-53.9-71.3-104.8-71.3H181.2c-49.8,0-89,28.5-103.9,68.5L54.6,136l17.8,2.2l34.1,4.2
				l754.2-6.3l17.8-0.1C878.6,136,867.1,107,856.6,84.4z"/>
			<path class="st10" d="M768.4,64.5H163.6c-74,0-125.9,59.4-115.7,128.8l21.8,148.8c8.7,59.6,68.4,106.4,132.9,106.4h527
				c64.5,0,124.1-46.8,132.9-106.4l21.8-148.8C894.3,123.9,842.5,64.5,768.4,64.5z"/>
			<path class="st7" d="M749.3,95H182.8c-66.3,0-112.7,53.2-103.6,115.3l17.4,122.9c7.8,53.3,61.2,95.2,119,95.2h500.9
				c57.8,0,111.2-41.9,119-95.2l17.4-122.9C862,148.1,815.5,95,749.3,95z"/>
			<path class="st11" d="M80,216.1c245.7-13.7,539.4,33.3,748.7,141c3.3-7.6,5.5-15.6,6.8-23.8l17.4-122.9
				C862,148.1,815.5,95,749.3,95H182.8c-66.3,0-112.7,53.2-103.6,115.3L80,216.1z"/>
			<path class="st12" d="M749.3,95H182.8c-66.3,0-112.7,53.2-103.6,115.3l17.4,122.9c7.8,53.3,61.2,95.2,119,95.2h500.9
				c57.8,0,111.2-41.9,119-95.2l17.4-122.9C862,148.1,815.5,95,749.3,95z"/>
			<path class="st13" d="M314.6,47.3h-97.1c-6.1,0-11-4.9-11-11c0-1.6,0.3-3.1,1-4.6l10-22.1c1.8-3.9,5.7-6.5,10.1-6.5h92.1
				c6.1,0,11,4.9,11,11c0,0.8-0.1,1.6-0.3,2.4l-5,22.1C324.2,43.7,319.7,47.3,314.6,47.3z"/>
			<rect x="581.1" y="441.8" class="st14" width="161.8" height="18.6"/>
			<rect x="197.2" y="441.8" class="st14" width="161.8" height="18.6"/>
			<path class="st8" d="M835.5,291.7c-7.8,53.3-61.2,95.2-119,95.2H215.6c-57.8,0-111.2-41.9-119-95.2L80,174.8
				c-2.3,11.7-2.6,23.7-0.9,35.5l17.4,122.9c7.8,53.3,61.2,95.2,119,95.2h500.9c57.8,0,111.2-41.9,119-95.2l17.4-122.9
				c1.8-11.8,1.5-23.8-0.9-35.5L835.5,291.7z"/>
			<path class="st13" d="M617.8,47.3h97.1c6.1,0,11-4.9,11-11c0-1.6-0.3-3.1-1-4.6l-10-22.1c-1.8-3.9-5.7-6.5-10.1-6.5h-92.1
				c-6.1,0-11,4.9-11,11c0,0.8,0.1,1.6,0.3,2.4l5,22.1C608.2,43.7,612.6,47.3,617.8,47.3z"/>
			<polygon class="st14" points="197.3,447.7 359,447.7 358.2,461 195.3,461 			"/>
			<polygon class="st14" points="581.2,447.7 743,447.7 744.8,461 581.9,461 			"/>
		</g>
	</g>
</g>
<g>
	<path class="st15" d="M787.1,801.7l2.1,19.2c0.1,0.9,0.6,1.6,1.4,2.1l17,9.1c1.3,0.7,1.8,2.3,1.1,3.6c-0.3,0.5-0.7,0.9-1.3,1.2
		l-17.6,8c-0.8,0.4-1.4,1.1-1.5,2l-3.4,19c-0.3,1.4-1.6,2.4-3.1,2.2c-0.6-0.1-1.1-0.4-1.5-0.8l-13-14.3c-0.6-0.6-1.5-1-2.3-0.8
		l-19.2,2.6c-1.5,0.2-2.8-0.8-3-2.3c-0.1-0.6,0-1.2,0.3-1.7l9.6-16.8c0.4-0.8,0.5-1.7,0.1-2.5l-8.4-17.4c-0.6-1.3-0.1-2.9,1.2-3.6
		c0.5-0.3,1.1-0.3,1.7-0.2l18.9,3.9c0.9,0.2,1.8-0.1,2.4-0.7l13.9-13.4c1.1-1,2.8-1,3.8,0.1C786.8,800.5,787.1,801.1,787.1,801.7z"
		/>
	<g>
		<circle class="st16" cx="167.6" cy="808.8" r="14.1"/>
		<circle class="st16" cx="133.9" cy="840.8" r="19.5"/>
	</g>
	<g>
		<circle class="st16" cx="663.4" cy="808.9" r="14.1"/>
		<circle class="st16" cx="697.1" cy="841" r="19.5"/>
	</g>
	<g>
		<g>
			<circle class="st16" cx="842.4" cy="815.5" r="14.1"/>
		</g>
	</g>
	<path class="st17" d="M261.9,832.1c26.2-21.3,34-24.1,35.9-22.3c2.1,2-3.9,8.6-4.1,21.2c-0.2,13.5,6.6,20.9,4.3,23.1
		C295.9,856,288.1,853.3,261.9,832.1z"/>
	<path class="st17" d="M239.2,849.8c1.8,2.2,3.9,4,6.4,5.4c5.4,3,13.1,4.2,14.7,1.6c0.4-0.6,1-2.5-3.2-7.7L239.2,849.8z"/>
	<path class="st17" d="M228.1,816.4c4-4.2,14.5-13.9,28.1-13.3c5,0.2,14.8,2,15.5,6.7c0.6,4.3-6.8,8.7-7.6,9.2
		C252.5,815.1,240.1,814.2,228.1,816.4z"/>
	<path class="st18" d="M280,831c0.4,3.9-2.8,7.8-7.3,8.3c-2.4,3.2-5.5,6-9,8c-19.5,11.1-51.8-1.3-53.1-13.6
		c-1-9.9,17.6-24,36.2-23.1c14.8,0.8,24.5,11,26.9,13.7C277,824.9,279.5,827.6,280,831z"/>
</g>
</svg>
