<?xml version="1.0" encoding="UTF-8"?>
<svg id="Layer_2" data-name="Layer 2" xmlns="http://www.w3.org/2000/svg" viewBox="0 0 948.12 197.1">
  <defs>
    <style>
      .cls-1 {
        fill: #cad7fd;
      }

      .cls-2 {
        fill: #728df2;
      }

      .cls-3 {
        fill: #9db6fc;
        stroke: #83a3e5;
        stroke-miterlimit: 10;
        stroke-width: 4.74px;
      }

      .cls-4 {
        fill: #83a3e5;
      }

      .cls-5 {
        fill: #b0e1ff;
      }

      .cls-6 {
        fill: #ffc69c;
      }
    </style>
  </defs>
  <g id="box_1-success" data-name="box 1-success">
    <path class="cls-3" d="m891.04,32.48c-17.39,20.03-48.46,33.08-88.66,33.08H145.68c-40.2,0-71.27-13.05-88.64-33.08L3.95,22.48s19.49,100.92,28.46,119.58c14.95,31.11,52.34,52.67,104,52.67h675.45c51.66,0,89.05-21.56,104-52.67,8.97-18.67,28.46-119.58,28.46-119.58l-53.28,10h0Z"/>
    <path class="cls-4" d="m893,20.11c-1.29,1.62-2.65,3.21-4.11,4.74h52.55c-3.23,16.46-19.81,99.74-27.72,116.19-15.45,32.14-53.53,51.33-101.87,51.33H136.41c-48.34,0-86.42-19.19-101.87-51.33C26.64,124.58,10.06,41.3,6.82,24.85h52.36c-1.46-1.54-2.82-3.12-4.11-4.74H1.08l.54,2.82c.8,4.13,19.65,101.43,28.65,120.16,16.26,33.82,55.93,54.01,106.14,54.01h675.45c50.21,0,89.88-20.19,106.14-54.01,9-18.73,27.85-116.03,28.65-120.16l.54-2.82s-54.19,0-54.19,0Z"/>
    <path class="cls-4" d="m945.32.02h-41.51c-10.2,32.19-47.65,55.53-101.43,55.53H145.68C91.9,55.55,54.46,32.21,44.29.02H2.79C-2.36,51.9,43.73,94.11,118.76,94.11h710.58c75.04,0,121.12-42.21,115.97-94.09h0Z"/>
    <path class="cls-4" d="m942.88.02c1.75,17.17-2.22,33.61-11.79,47.83-18.75,27.87-55.83,43.85-101.75,43.85H118.76c-45.92,0-83-15.98-101.75-43.85C7.45,33.63,3.48,17.19,5.23.02H.38c-1.74,18.1,2.5,35.46,12.64,50.52,19.66,29.22,58.2,45.97,105.75,45.97h710.58c47.55,0,86.09-16.76,105.75-45.97,10.13-15.06,14.38-32.42,12.64-50.52h-4.86Z"/>
    <path class="cls-4" d="m145.68,57.91h656.7c43.42,0,78.3-14.85,95.71-40.75,3.64-5.41,6.35-11.16,8.17-17.14h-2.46c-10.2,32.19-47.65,55.53-101.43,55.53H145.68C91.9,55.55,54.46,32.21,44.29.02h-2.45c1.8,5.98,4.51,11.72,8.14,17.12,17.39,25.91,52.27,40.77,95.71,40.77h0Z"/>
  </g>
  <g>
    <path class="cls-6" d="m787.13,117.19l2.15,19.22c.1.87.62,1.64,1.39,2.06l17.05,9.13c1.3.7,1.79,2.31,1.09,3.61-.28.52-.72.93-1.25,1.17l-17.62,7.98c-.8.36-1.37,1.09-1.52,1.96l-3.41,19.04c-.26,1.45-1.65,2.41-3.1,2.15-.58-.1-1.1-.39-1.5-.83l-13.03-14.29c-.59-.65-1.46-.96-2.33-.84l-19.16,2.64c-1.46.2-2.81-.82-3.01-2.28-.08-.58.03-1.17.32-1.68l9.56-16.81c.43-.76.46-1.69.08-2.48l-8.43-17.41c-.64-1.33-.09-2.92,1.24-3.56.53-.26,1.13-.33,1.7-.21l18.94,3.9c.86.18,1.75-.08,2.38-.69l13.95-13.39c1.06-1.02,2.75-.99,3.77.08.41.42.66.97.73,1.55Z"/>
    <g>
      <circle class="cls-1" cx="167.55" cy="124.29" r="14.14"/>
      <circle class="cls-1" cx="133.9" cy="156.37" r="19.52"/>
    </g>
    <g>
      <circle class="cls-1" cx="663.42" cy="124.45" r="14.14"/>
      <circle class="cls-1" cx="697.08" cy="156.53" r="19.52"/>
    </g>
    <circle class="cls-1" cx="842.38" cy="131.03" r="14.14"/>
    <path class="cls-2" d="m261.88,147.68c26.19-21.26,33.96-24.08,35.9-22.26,2.14,2.01-3.95,8.64-4.15,21.21-.21,13.51,6.58,20.92,4.28,23.09-1.97,1.86-9.79-.9-36.03-22.04Z"/>
    <path class="cls-2" d="m239.15,165.34c1.78,2.17,3.95,3.99,6.4,5.35,5.37,2.96,13.13,4.21,14.68,1.63.38-.64,1-2.54-3.15-7.75l-17.93.77Z"/>
    <path class="cls-2" d="m228.12,131.97c3.99-4.17,14.45-13.9,28.13-13.3,5.01.22,14.8,2.01,15.5,6.73.64,4.33-6.75,8.66-7.62,9.15-11.58-3.93-23.98-4.82-36-2.58Z"/>
    <path class="cls-5" d="m279.98,146.5c.36,3.89-2.78,7.78-7.29,8.26-2.44,3.24-5.51,5.96-9.02,8-19.5,11.15-51.77-1.31-53.05-13.57-1.03-9.88,17.63-24.04,36.18-23.06,14.84.78,24.45,10.97,26.89,13.72,3.31.62,5.85,3.31,6.29,6.65Z"/>
  </g>
  <path class="cls-4" d="m145.68,57.89h656.7c43.42,0,78.3-14.85,95.71-40.75,3.64-5.41,6.35-11.16,8.17-17.14h-2.46c-10.2,32.19-47.65,55.53-101.43,55.53H145.68c-53.78,0-91.22-23.34-101.39-55.53h-2.45c1.8,5.98,4.51,11.72,8.14,17.12,17.39,25.91,52.27,40.77,95.71,40.77h0Z"/>
</svg>