<?xml version="1.0" encoding="UTF-8"?>
<svg id="Layer_1" data-name="Layer 1" xmlns="http://www.w3.org/2000/svg" xmlns:xlink="http://www.w3.org/1999/xlink" viewBox="0 0 436.78 365.76">
  <defs>
    <style>
      .cls-1 {
        fill: #ea5959;
      }

      .cls-2 {
        fill: #ffb583;
        stroke: #f4aa73;
        stroke-width: 5.97px;
      }

      .cls-2, .cls-3 {
        stroke-miterlimit: 10;
      }

      .cls-4 {
        fill: #bababa;
      }

      .cls-5 {
        fill: #fce5b4;
      }

      .cls-6 {
        fill: #8dc4a4;
      }

      .cls-7 {
        clip-path: url(#clippath-1);
      }

      .cls-8 {
        fill: #728df2;
      }

      .cls-9 {
        fill: #83a9ed;
      }

      .cls-10 {
        clip-path: url(#clippath);
      }

      .cls-11 {
        fill: none;
      }

      .cls-12 {
        fill: #b0e1ff;
      }

      .cls-13 {
        fill: #ffc69c;
      }

      .cls-14 {
        fill: #ffe771;
      }

      .cls-3 {
        fill: #9db6fc;
        stroke: #83a3e5;
        stroke-width: 5.04px;
      }
    </style>
    <clipPath id="clippath">
      <rect class="cls-11" x="27.07" y="89.67" width="382.64" height="249.33" rx="15.5" ry="15.5"/>
    </clipPath>
    <clipPath id="clippath-1">
      <ellipse class="cls-11" cx="292.93" cy="212.7" rx="83.26" ry="47.72" transform="translate(-35.36 60.13) rotate(-11.06)"/>
    </clipPath>
  </defs>
  <g id="Layer_2" data-name="Layer 2">
    <g id="box2">
      <path class="cls-2" d="m135.2,19.59v45.83h34.07v-26.42c0-5.77,4.67-10.44,10.44-10.44h77.36c5.77,0,10.44,4.67,10.44,10.44v26.42h34.07V19.59c0-9.17-7.43-16.6-16.6-16.6h-133.19c-9.17,0-16.6,7.43-16.6,16.6Z"/>
      <rect class="cls-3" x="2.52" y="65.42" width="431.74" height="297.82" rx="46.51" ry="46.51"/>
      <rect class="cls-9" x="27.07" y="89.67" width="382.64" height="249.33" rx="15.5" ry="15.5"/>
      <g class="cls-10">
        <g>
          <path class="cls-6" d="m107.34,319.19c3.76-4.68,6.19-10.29,7.04-16.23,1.44-11.52-5.05-15.73-3.91-28.54.86-9.66,4.77-9.78,4.89-18.96.13-9.86-4.36-11.52-6.06-22.29-2.46-15.63,4.61-27.39,2.74-28.15-1.39-.57-6.74,5.34-9.19,13.49-4.65,15.44,6.08,22.35,3.32,40.47-1.7,11.17-6.07,10.43-6.13,20.3-.07,11.36,5.67,16.75,3.58,26.62-1.12,4.81-3.56,9.21-7.04,12.71l10.75.59Z"/>
          <path class="cls-6" d="m72.78,318.91c2.52-4.98,4.07-10.39,4.57-15.94,1.03-12.15-4.1-15.69-4.02-26.91.1-13.81,8.1-14.51,7.97-27.75-.11-10.82-5.38-11.24-6.87-24.72-1.25-11.32,2.51-10.62,2.47-26.65-.03-12.76-2.37-18.09,1.1-27.2,2.26-5.93,5.97-10.56,6.87-10.16,1.11.49-3.04,8.3-3.57,19.78-.39,8.4,1.61,9.21,2.47,19.78,1.28,15.67-2.83,17.15-.82,28.02,2.3,12.49,7.94,11.69,9.34,22.25,1.9,14.34-8.39,16.42-7.14,31.59.91,10.99,6.74,15.2,5.57,27.9-.35,3.71-1.21,7.35-2.55,10.83l-15.38-.82Z"/>
          <path class="cls-6" d="m70.96,313.64c-3.03-4.15-4.72-9.12-4.83-14.26.03-5.94,2.58-7.39,2.11-12.85-.66-7.68-6-8.2-6.67-15.28-.68-7.21,4.63-8.99,3.97-16.51-.66-7.52-6.64-13.39-7.84-12.85-.92.41,1.45,4.28.83,10.47-.7,6.88-4.19,7.62-4.81,13.26-.78,7.12,4.53,8.14,5.24,16.96.58,7.24-2.8,8.98-2.8,16.42,0,4.67,1.34,10.38,5.82,16.91l8.99-2.27Z"/>
          <path class="cls-5" d="m-69.87,299.31c59.6-1.06,119.21.98,178.6,6.09,29.27,2.52,57.28,5.7,83.96,9.34,37.12-7.56,74.75-12.31,112.58-14.21,64.96-3.26,130.06,1.79,193.74,15.02-.59,34.98-1.19,69.96-1.78,104.94-191.32-3.25-382.64-6.5-573.96-9.74,2.29-37.14,4.58-74.29,6.87-111.43Z"/>
        </g>
      </g>
      <rect class="cls-14" x="273.69" y="129.72" width="6.98" height="48.82" transform="translate(-24.42 56.02) rotate(-11.06)"/>
      <ellipse class="cls-14" cx="287.1" cy="127.32" rx="3.75" ry="8.1" transform="translate(-19.09 57.43) rotate(-11.06)"/>
      <path class="cls-14" d="m269.98,135.49c6.23-.07,12.45-.14,18.68-.21l-3.11-15.9c-5.86,1.94-11.72,3.89-17.58,5.83l2.01,10.28Z"/>
      <ellipse class="cls-12" cx="287.1" cy="127.32" rx="2.82" ry="6.09" transform="translate(-19.09 57.43) rotate(-11.06)"/>
      <path class="cls-1" d="m318.88,170.37l-74.21,14.5h0l-1.58-8.07c-1.5-7.66,3.5-15.08,11.16-16.58l46.48-9.08c7.66-1.5,15.08,3.5,16.58,11.16l1.58,8.07h0Z"/>
      <path class="cls-1" d="m197.37,230.29c1.4-4.61,5.09-18.42-.45-27.82-.42-.71-3.55-6.02-6.03-5.36-2.22.59-2.7,5.66-2.85,7.27-1,10.54,5.63,20.89,9.33,25.91Z"/>
      <path class="cls-1" d="m198.55,236.32c3.03,3.74,11.65,15.14,10.05,25.94-.12.82-1.02,6.91-3.57,7.23-2.28.28-4.63-4.23-5.38-5.66-4.89-9.39-2.65-21.47-1.11-27.51Z"/>
      <path class="cls-14" d="m197.45,238.24l19.29-3.77-1.82-9.32-19.29,3.77c-2.57.5-4.25,3-3.75,5.57s3,4.25,5.57,3.75h0Z"/>
      <path class="cls-1" d="m223.02,248.76l-7.66-39.21c-3.13.97-5.92,2.82-8.03,5.32-7.24,8.96-3.83,26.4,6.25,31.97,2.9,1.53,6.18,2.19,9.44,1.91Z"/>
      <ellipse class="cls-14" cx="292.93" cy="212.7" rx="83.26" ry="47.72" transform="translate(-35.36 60.13) rotate(-11.06)"/>
      <g class="cls-7">
        <path class="cls-1" d="m354.57,168.25c-9.39,21.49-4.4,46.55,12.52,62.79,17-5.13,28.02-19.97,26.7-34.69-1.51-16.81-18.79-29.95-39.21-28.11Z"/>
      </g>
      <circle class="cls-1" cx="322.41" cy="206.83" r="15.46"/>
      <circle class="cls-12" cx="322.41" cy="206.83" r="12.56"/>
      <circle class="cls-1" cx="282.94" cy="214.54" r="15.46"/>
      <circle class="cls-12" cx="282.94" cy="214.54" r="12.56"/>
      <circle class="cls-1" cx="242.76" cy="222.39" r="15.46"/>
      <circle class="cls-12" cx="242.76" cy="222.39" r="12.56"/>
      <path class="cls-8" d="m144.51,146.49c22.28-18.09,28.89-20.49,30.54-18.94,1.82,1.71-3.36,7.35-3.53,18.04-.18,11.49,5.6,17.8,3.64,19.64-1.68,1.58-8.32-.77-30.65-18.75Z"/>
      <path class="cls-8" d="m125.17,161.51c1.51,1.85,3.36,3.39,5.45,4.55,4.57,2.52,11.17,3.58,12.49,1.38.33-.55.85-2.16-2.68-6.59l-15.25.66Z"/>
      <path class="cls-8" d="m115.79,133.12c3.39-3.55,12.3-11.82,23.93-11.32,4.26.19,12.59,1.71,13.18,5.73.55,3.69-5.75,7.36-6.48,7.79-9.85-3.34-20.4-4.1-30.63-2.2Z"/>
      <path class="cls-12" d="m159.91,145.48c.16,3.63-2.58,6.73-6.2,7.02-2.08,2.76-4.69,5.07-7.68,6.81-16.59,9.48-44.05-1.12-45.14-11.54-.88-8.41,15-20.45,30.78-19.62,12.62.66,20.8,9.33,22.88,11.68,2.82.53,4.98,2.81,5.35,5.66Z"/>
      <path class="cls-13" d="m159.87,289.81l1.34,11.97c.06.54.38,1.02.87,1.28l10.62,5.68c.81.43,1.11,1.44.68,2.25-.17.32-.45.58-.78.73l-10.97,4.97c-.5.23-.85.68-.95,1.22l-2.12,11.85c-.16.9-1.02,1.5-1.93,1.34-.36-.06-.69-.25-.93-.52l-8.12-8.9c-.37-.4-.91-.6-1.45-.53l-11.93,1.64c-.91.13-1.75-.51-1.87-1.42-.05-.36.02-.73.2-1.05l5.95-10.47c.27-.48.29-1.05.05-1.54l-5.25-10.84c-.4-.83-.05-1.82.77-2.22.33-.16.7-.21,1.06-.13l11.79,2.43c.54.11,1.09-.05,1.48-.43l8.69-8.34c.66-.64,1.71-.61,2.35.05.25.26.41.6.45.97Z"/>
      <g>
        <circle class="cls-4" cx="83.1" cy="122.04" r="6.04"/>
        <circle class="cls-4" cx="68.73" cy="135.74" r="8.34"/>
      </g>
      <g>
        <circle class="cls-4" cx="369.01" cy="276.31" r="6.04"/>
        <circle class="cls-4" cx="382.72" cy="261.93" r="8.34"/>
      </g>
    </g>
  </g>
</svg>