<svg xmlns="http://www.w3.org/2000/svg" xmlns:xlink="http://www.w3.org/1999/xlink" viewBox="0 0 575.74561 420.48565"><defs><style>.cls-1{fill:none;}.cls-2{isolation:isolate;}.cls-3{fill:#ffb583;stroke:#f4aa73;stroke-width:5.97484px;}.cls-3,.cls-4{stroke-miterlimit:10;}.cls-4{fill:#9db6fc;stroke:#83a3e5;stroke-width:5.04217px;}.cls-5{fill:#83a9ed;}.cls-6{clip-path:url(#clip-path);}.cls-7{fill:#8dc4a4;}.cls-8{fill:#fce5b4;}.cls-9{fill:#ffe771;}.cls-10{fill:#b0e1ff;}.cls-11{fill:#ea5959;}.cls-12{clip-path:url(#clip-path-2);}.cls-13{fill:#728df2;}.cls-14{fill:#ffc69c;}.cls-15{mix-blend-mode:overlay;}.cls-16{fill:#bababa;}</style><clipPath id="clip-path" transform="translate(76.73902)"><rect class="cls-1" x="27.07079" y="89.66739" width="382.64311" height="249.32862" rx="15.49537"/></clipPath><clipPath id="clip-path-2" transform="translate(76.73902)"><ellipse class="cls-1" cx="292.92778" cy="212.69556" rx="83.25505" ry="47.71792" transform="translate(-35.35528 60.12978) rotate(-11.05738)"/></clipPath></defs><g class="cls-2"><g id="Layer_2" data-name="Layer 2"><g id="box2"><path class="cls-3" d="M135.198,19.58813V65.42156H169.2689V38.9979a10.44157,10.44157,0,0,1,10.44157-10.44157h77.36375A10.44157,10.44157,0,0,1,267.51579,38.9979V65.42156h34.07092V19.58813A16.60071,16.60071,0,0,0,284.986,2.98742H151.79869A16.60071,16.60071,0,0,0,135.198,19.58813Z" transform="translate(76.73902)"/><rect class="cls-4" x="79.2601" y="65.42157" width="431.74252" height="297.82026" rx="46.50797"/><rect class="cls-5" x="103.80981" y="89.66739" width="382.64311" height="249.32862" rx="15.49537"/><g class="cls-6"><path class="cls-7" d="M107.33936,319.18868a33.52472,33.52472,0,0,0,7.03817-16.22688c1.44221-11.52048-5.04684-15.727-3.91012-28.54367.85718-9.66441,4.7693-9.78185,4.88762-18.964.12708-9.86433-4.36488-11.52379-6.06067-22.28752-2.46266-15.63138,4.60659-27.39217,2.73707-28.15267-1.38923-.56514-6.73643,5.34207-9.18871,13.48982-4.64593,15.43608,6.08487,22.347,3.32359,40.46945-1.70191,11.16986-6.065,10.42557-6.12621,20.30206-.07035,11.36006,5.67483,16.747,3.58463,26.619a26.58668,26.58668,0,0,1-7.03811,12.7078Z" transform="translate(76.73902)"/><path class="cls-7" d="M72.782,318.914a44.08145,44.08145,0,0,0,4.567-15.94248c1.02707-12.14889-4.09915-15.69311-4.0176-26.91359.10035-13.80523,8.10163-14.51427,7.96683-27.74657-.11019-10.825-5.3814-11.23752-6.86788-24.72465-1.24711-11.31591,2.50863-10.61631,2.47243-26.6477-.02883-12.75967-2.373-18.09357,1.09895-27.19712,2.26065-5.92767,5.97262-10.55908,6.86788-10.16459,1.1102.4892-3.0436,8.2959-3.57138,19.77973-.38611,8.40083,1.60775,9.20654,2.47243,19.77973,1.281,15.66621-2.83042,17.14781-.82408,28.02128,2.30405,12.48677,7.93889,11.68516,9.34048,22.2522,1.90194,14.33926-8.39408,16.41822-7.14275,31.59261.90633,10.9906,6.74468,15.20194,5.56875,27.90274a40.80664,40.80664,0,0,1-2.54677,10.83256Z" transform="translate(76.73902)"/><path class="cls-7" d="M70.95943,313.63732a25.10283,25.10283,0,0,1-4.8313-14.25551c.02888-5.94443,2.58086-7.39214,2.10955-12.851-.66276-7.67582-6.00055-8.19576-6.66862-15.28161-.67977-7.209,4.62649-8.9884,3.96788-16.5102-.65889-7.5238-6.63765-13.39177-7.84282-12.84725-.91511.41345,1.45445,4.28338.82542,10.47306-.69924,6.8799-4.1879,7.62148-4.80952,13.259-.78463,7.11588,4.53038,8.1404,5.23923,16.95546.582,7.23681-2.80495,8.97628-2.80406,16.41847.00049,4.67123,1.33553,10.378,5.82114,16.9096Z" transform="translate(76.73902)"/><path class="cls-8" d="M-69.86975,299.30989a1725.48971,1725.48971,0,0,1,178.6007,6.08923c29.272,2.52434,57.28211,5.69888,83.95752,9.33683a753.09,753.09,0,0,1,112.57959-14.20823,764.41311,764.41311,0,0,1,193.73853,15.02013q-.89045,52.46889-1.781,104.9378-286.9823-4.8714-573.9646-9.74277Q-73.30432,355.02637-69.86975,299.30989Z" transform="translate(76.73902)"/></g><rect class="cls-9" x="273.69302" y="129.72373" width="6.98448" height="48.82154" transform="translate(655.52554 252.24564) rotate(168.94261)"/><ellipse class="cls-9" cx="287.10424" cy="127.32362" rx="3.74834" ry="8.102" transform="translate(57.64928 57.42801) rotate(-11.05739)"/><path class="cls-9" d="M269.98252,135.48517q9.33772-.10506,18.6756-.21l-3.10778-15.9031q-8.78853,2.91535-17.57718,5.83087Z" transform="translate(76.73902)"/><ellipse class="cls-10" cx="287.10424" cy="127.32362" rx="2.81737" ry="6.08972" transform="translate(57.64928 57.42801) rotate(-11.05739)"/><path class="cls-11" d="M241.822,155.4763h75.61868a0,0,0,0,1,0,0v8.22141a14.12894,14.12894,0,0,1-14.12894,14.12894h-47.3608A14.12894,14.12894,0,0,1,241.822,163.6977V155.4763A0,0,0,0,1,241.822,155.4763Z" transform="translate(662.77291 276.57808) rotate(168.94261)"/><path class="cls-11" d="M197.367,230.28839c1.40358-4.6056,5.09256-18.4155-.45433-27.8166-.42046-.71254-3.55223-6.0204-6.02842-5.35685-2.21935.59472-2.6978,5.66118-2.8496,7.2684C187.039,214.92688,193.6616,225.27634,197.367,230.28839Z" transform="translate(76.73902)"/><path class="cls-11" d="M198.54581,236.32066c3.03416,3.73837,11.65067,15.14354,10.051,25.94121-.12129.81841-1.02444,6.91477-3.56827,7.23223-2.28.28455-4.63055-4.22907-5.37625-5.6609C194.76068,254.44015,196.99988,242.35892,198.54581,236.32066Z" transform="translate(76.73902)"/><path class="cls-9" d="M197.44561,238.24359l19.285-3.76866-1.8218-9.32253-19.285,3.76867a4.74943,4.74943,0,0,0,1.8218,9.32252Z" transform="translate(76.73902)"/><path class="cls-11" d="M223.01928,248.76026l-7.66235-39.20964a17.15563,17.15563,0,0,0-8.02744,5.32478c-7.23921,8.95868-3.83092,26.39954,6.24832,31.97384A17.15571,17.15571,0,0,0,223.01928,248.76026Z" transform="translate(76.73902)"/><ellipse class="cls-9" cx="292.92776" cy="212.69557" rx="83.25505" ry="47.71791" transform="translate(41.38372 60.12979) rotate(-11.05739)"/><g class="cls-12"><path class="cls-11" d="M354.5713,168.24616a55.98373,55.98373,0,0,0,12.51641,62.79492c17.00058-5.133,28.01938-19.96919,26.69818-34.68792C392.27734,179.54768,374.99646,166.40383,354.5713,168.24616Z" transform="translate(76.73902)"/></g><circle class="cls-11" cx="399.15028" cy="206.82761" r="15.46097"/><circle class="cls-10" cx="399.15028" cy="206.82761" r="12.55617"/><circle class="cls-11" cx="359.677" cy="214.54147" r="15.46097"/><circle class="cls-10" cx="359.677" cy="214.54147" r="12.55617"/><circle class="cls-11" cx="319.50329" cy="222.39222" r="15.46097"/><circle class="cls-10" cx="319.50329" cy="222.39222" r="12.55617"/><path class="cls-13" d="M144.50722,146.48939c22.27935-18.088,28.88768-20.4887,30.53812-18.937,1.82276,1.71377-3.3595,7.3485-3.52746,18.04377-.18063,11.4921,5.60124,17.7956,3.64334,19.64235C173.48463,166.81989,166.83639,164.47027,144.50722,146.48939Z" transform="translate(76.73902)"/><path class="cls-13" d="M125.17445,161.5107a18.927,18.927,0,0,0,5.44582,4.552c4.56767,2.51835,11.17067,3.58275,12.48957,1.38379.32708-.54534.8525-2.16392-2.68283-6.59282Z" transform="translate(76.73902)"/><path class="cls-13" d="M115.78667,133.11986c3.394-3.54889,12.29757-11.82452,23.92879-11.31558,4.26156.18648,12.58827,1.71406,13.18275,5.72852.5461,3.68778-5.74538,7.3635-6.4847,7.78585a60.839,60.839,0,0,0-30.62684-2.19879Z" transform="translate(76.73902)"/><path class="cls-10" d="M159.90565,145.48392a6.75443,6.75443,0,0,1-6.20111,7.02335,25.89379,25.89379,0,0,1-7.67751,6.807c-16.58668,9.48173-44.04632-1.1151-45.13571-11.5413-.87833-8.40711,14.99743-20.45165,30.78175-19.62031,12.6232.66486,20.80364,9.33379,22.88022,11.675A6.63714,6.63714,0,0,1,159.90565,145.48392Z" transform="translate(76.73902)"/><path class="cls-14" d="M159.8702,289.8101l1.33621,11.96687a1.6607,1.6607,0,0,0,.86658,1.27976l10.61554,5.68346a1.66067,1.66067,0,0,1-.09857,2.97674l-10.96825,4.96878a1.66064,1.66064,0,0,0-.94934,1.21963l-2.12491,11.85227a1.66068,1.66068,0,0,1-2.86151.82612l-8.115-8.896a1.66068,1.66068,0,0,0-1.4533-.526l-11.92881,1.64164a1.66067,1.66067,0,0,1-1.66994-2.46616l5.95293-10.46681a1.66065,1.66065,0,0,0,.05115-1.54471L133.27552,297.488a1.66067,1.66067,0,0,1,1.82942-2.35029l11.79408,2.42715a1.66069,1.66069,0,0,0,1.48492-.4287l8.68567-8.33969A1.66067,1.66067,0,0,1,159.8702,289.8101Z" transform="translate(76.73902)"/><g class="cls-15"><circle class="cls-16" cx="159.84183" cy="122.03783" r="6.03946"/><circle class="cls-16" cx="145.46644" cy="135.73998" r="8.33592"/></g><g class="cls-15"><circle class="cls-16" cx="445.75395" cy="276.30823" r="6.03946"/><circle class="cls-16" cx="459.4561" cy="261.93285" r="8.33592"/></g></g></g></g></svg>