<?xml version="1.0" encoding="utf-8"?>
<!-- Generator: Adobe Illustrator 27.4.0, SVG Export Plug-In . SVG Version: 6.00 Build 0)  -->
<svg version="1.1" id="Layer_1" xmlns="http://www.w3.org/2000/svg" xmlns:xlink="http://www.w3.org/1999/xlink" x="0px" y="0px"
	 viewBox="0 0 948.1 888.4" style="enable-background:new 0 0 948.1 888.4;" xml:space="preserve">
<style type="text/css">
	.st0{opacity:0.42;fill:#A36C6C;enable-background:new    ;}
	.st1{fill:#9DB6FC;stroke:#83A3E5;stroke-width:4.7405;stroke-miterlimit:10;}
	.st2{fill:#7874AF;stroke:#7571AD;stroke-width:5.188;stroke-miterlimit:10;}
	.st3{fill:#83A3E5;stroke:#83A3E5;stroke-width:4.8157;stroke-miterlimit:10;}
	.st4{fill:#83A3E5;}
	.st5{fill:#6F95D8;}
	.st6{opacity:0.42;fill:#766FA6;enable-background:new    ;}
	.st7{fill:#83A9ED;}
	.st8{fill:#8EADF4;}
	.st9{fill:#9DB6FC;stroke:#83A3E5;stroke-width:5.1881;stroke-miterlimit:10;}
	.st10{fill:#7F9EDE;stroke:#83A3E5;stroke-width:5.1881;stroke-miterlimit:10;}
	.st11{fill:#80A5E8;}
	.st12{fill:none;stroke:#83A3E5;stroke-width:5.1881;stroke-miterlimit:10;}
	.st13{fill:#FFB583;stroke:#F4AA73;stroke-width:6.1477;stroke-miterlimit:10;}
	.st14{fill:#6C92D3;}
	.st15{fill:#FFC69C;}
	.st16{fill:#CAD7FD;}
	.st17{fill:#728DF2;}
	.st18{fill:#B0E1FF;}
	.st19{fill:#FFFFFF;stroke:#ADADAD;stroke-width:1.1554;stroke-miterlimit:10;}
	.st20{fill:#FBD271;}
	.st21{fill:#B3C6FC;}
	.st22{fill:#87C9A2;}
	.st23{fill:#BAC987;}
	.st24{fill:#FF8CB4;}
	.st25{fill:#E1AEFC;}
	.st26{fill:#898989;}
</style>
<g>
	<g id="Layer_2_00000170247557202784457710000015151673407978797201_">
		<g id="box_2-success">
			<path class="st0" d="M802.7,614H188.5c-45.3,0-68.5,25.6-80.9,51.3l-36.3,75.3c-38.2,79.2-44.1,148.3,84.1,148.3H835
				c100.3,0,111.6-37.1,73.4-116.3L875.8,712C863.5,686.2,848,614,802.7,614z"/>
			<path class="st1" d="M4,706.4c0,0,19.5,100.9,28.5,119.6c15,31.1,52.3,52.7,104,52.7h675.4c51.7,0,89.1-21.6,104-52.7
				c9-18.7,28.5-119.6,28.5-119.6H4z"/>
			<path class="st2" d="M726.2,474.1H196.7c-39.1,0-79,14.9-89.7,34.3l-31.3,56.8c-33,59.8,34.6,116.3,156.2,116.3h459
				c121.7,0,189.2-56.5,156.3-116.3l-31.3-56.8C805.2,489,765.3,474.1,726.2,474.1z"/>
			<path class="st3" d="M118.8,778.1h710.6c87,0,135.1-56.7,109.5-119.5l-50-123c-18.4-45.3-85.3-79.4-150.1-79.4H209.4
				c-64.8,0-131.7,34.2-150.1,79.4l-50,123C-16.3,721.3,31.8,778.1,118.8,778.1z"/>
			<g>
				<path class="st4" d="M802.4,741.9H145.7c-43.4,0-78.3-14.9-95.7-40.8c-12.4-18.4-14.2-40.8-5.1-63.1l39-97.1
					c16.2-39.5,76.3-70.5,136.7-70.5h507c60.6,0,120.6,31,136.7,70.5l39,97.1c9.1,22.2,7.2,44.6-5.2,63.1
					C880.7,727,845.8,741.9,802.4,741.9z M220.6,475.2c-58.6,0-116.8,29.7-132.3,67.5l-39,97.1c-8.5,20.8-6.9,41.6,4.6,58.7
					c16.3,24.2,50.6,38.7,91.8,38.7h656.7c41.2,0,75.5-14.5,91.8-38.7c11.5-17.1,13.2-37.9,4.7-58.7l-39-97.1
					c-15.4-37.9-73.5-67.5-132.3-67.5H220.6z"/>
				<path class="st5" d="M145.7,739.5h656.7c76.8,0,120.3-47.6,98.7-100.6l-39-97.1c-16-39.3-76-69-134.5-69h-507
					c-58.5,0-118.4,29.8-134.5,69l-39,97.1C25.4,691.9,68.9,739.5,145.7,739.5z"/>
			</g>
			<path class="st6" d="M220.6,472.7c-58.5,0-118.4,29.8-134.5,69l-39,97.1c-8.2,20.1-7,39.3,1.7,55.6c1.2,2.2,2.5,4.3,3.9,6.4
				l26.9-67.6c16.4-40.6,77.5-71.3,136.9-71.3h272.1l-89.2-89.2H220.6z"/>
			<path class="st7" d="M901.1,638.9l-39-97.1c-16-39.3-76-69-134.5-69h-507c-58.5,0-118.4,29.8-134.5,69l-39,97.1
				c-8.2,20.1-7,39.3,1.7,55.6c1.2,2.2,2.5,4.3,3.9,6.4l26.9-67.6C96,592.7,157.1,562,216.5,562h515.1c59.4,0,120.4,30.7,136.9,71.3
				l26.9,67.6c1.4-2,2.8-4.2,3.9-6.4C908.1,678.2,909.3,659,901.1,638.9z"/>
			<path class="st8" d="M868.5,633.3l26.9,67.6c1.4-2,2.8-4.2,3.9-6.4c8.7-16.2,9.9-35.5,1.7-55.6l-39-97.1c-16-39.3-76-69-134.5-69
				H399.4l89.2,89.2h243C791,562,852.1,592.7,868.5,633.3z"/>
			<path class="st9" d="M856.6,84.4c-14.1-41.5-53.9-71.3-104.8-71.3H181.2c-49.8,0-89,28.5-103.9,68.5L54.6,136l17.8,2.2l34.1,4.2
				l754.2-6.3l17.8-0.1C878.6,136,867.1,107,856.6,84.4z"/>
			<path class="st10" d="M768.4,64.5H163.6c-74,0-125.9,59.4-115.7,128.8l21.8,148.8c8.7,59.6,68.4,106.4,132.9,106.4h527
				c64.5,0,124.1-46.8,132.9-106.4l21.8-148.8C894.3,123.9,842.5,64.5,768.4,64.5z"/>
			<path class="st7" d="M749.3,95H182.8c-66.3,0-112.7,53.2-103.6,115.3l17.4,122.9c7.8,53.3,61.2,95.2,119,95.2h500.9
				c57.8,0,111.2-41.9,119-95.2l17.4-122.9C862,148.1,815.5,95,749.3,95z"/>
			<path class="st11" d="M80,216.1c245.7-13.7,539.4,33.3,748.7,141c3.3-7.6,5.5-15.6,6.8-23.8l17.4-122.9
				C862,148.1,815.5,95,749.3,95H182.8c-66.3,0-112.7,53.2-103.6,115.3L80,216.1z"/>
			<path class="st12" d="M749.3,95H182.8c-66.3,0-112.7,53.2-103.6,115.3l17.4,122.9c7.8,53.3,61.2,95.2,119,95.2h500.9
				c57.8,0,111.2-41.9,119-95.2l17.4-122.9C862,148.1,815.5,95,749.3,95z"/>
			<path class="st13" d="M314.6,47.3h-97.1c-6.1,0-11-4.9-11-11c0-1.6,0.3-3.1,1-4.6l10-22.1c1.8-3.9,5.7-6.5,10.1-6.5h92.1
				c6.1,0,11,4.9,11,11c0,0.8-0.1,1.6-0.3,2.4l-5,22.1C324.2,43.7,319.7,47.3,314.6,47.3z"/>
			<rect x="581.1" y="441.8" class="st14" width="161.8" height="18.6"/>
			<rect x="197.2" y="441.8" class="st14" width="161.8" height="18.6"/>
			<path class="st8" d="M835.5,291.7c-7.8,53.3-61.2,95.2-119,95.2H215.6c-57.8,0-111.2-41.9-119-95.2L80,174.8
				c-2.3,11.7-2.6,23.7-0.9,35.5l17.4,122.9c7.8,53.3,61.2,95.2,119,95.2h500.9c57.8,0,111.2-41.9,119-95.2l17.4-122.9
				c1.8-11.8,1.5-23.8-0.9-35.5L835.5,291.7z"/>
			<path class="st13" d="M617.8,47.3h97.1c6.1,0,11-4.9,11-11c0-1.6-0.3-3.1-1-4.6l-10-22.1c-1.8-3.9-5.7-6.5-10.1-6.5h-92.1
				c-6.1,0-11,4.9-11,11c0,0.8,0.1,1.6,0.3,2.4l5,22.1C608.2,43.7,612.6,47.3,617.8,47.3z"/>
			<polygon class="st14" points="197.3,447.7 359,447.7 358.2,461 195.3,461 			"/>
			<polygon class="st14" points="581.2,447.7 743,447.7 744.8,461 581.9,461 			"/>
		</g>
	</g>
</g>
<g>
	<path class="st15" d="M787.1,801.7l2.1,19.2c0.1,0.9,0.6,1.6,1.4,2.1l17,9.1c1.3,0.7,1.8,2.3,1.1,3.6c-0.3,0.5-0.7,0.9-1.3,1.2
		l-17.6,8c-0.8,0.4-1.4,1.1-1.5,2l-3.4,19c-0.3,1.4-1.6,2.4-3.1,2.2c-0.6-0.1-1.1-0.4-1.5-0.8l-13-14.3c-0.6-0.6-1.5-1-2.3-0.8
		l-19.2,2.6c-1.5,0.2-2.8-0.8-3-2.3c-0.1-0.6,0-1.2,0.3-1.7l9.6-16.8c0.4-0.8,0.5-1.7,0.1-2.5l-8.4-17.4c-0.6-1.3-0.1-2.9,1.2-3.6
		c0.5-0.3,1.1-0.3,1.7-0.2l18.9,3.9c0.9,0.2,1.8-0.1,2.4-0.7l13.9-13.4c1.1-1,2.8-1,3.8,0.1C786.8,800.5,787.1,801.1,787.1,801.7z"
		/>
	<g>
		<circle class="st16" cx="167.6" cy="808.8" r="14.1"/>
		<circle class="st16" cx="133.9" cy="840.8" r="19.5"/>
	</g>
	<g>
		<circle class="st16" cx="663.4" cy="808.9" r="14.1"/>
		<circle class="st16" cx="697.1" cy="841" r="19.5"/>
	</g>
	<g>
		<g>
			<circle class="st16" cx="842.4" cy="815.5" r="14.1"/>
		</g>
	</g>
	<path class="st17" d="M261.9,832.1c26.2-21.3,34-24.1,35.9-22.3c2.1,2-3.9,8.6-4.1,21.2c-0.2,13.5,6.6,20.9,4.3,23.1
		C295.9,856,288.1,853.3,261.9,832.1z"/>
	<path class="st17" d="M239.2,849.8c1.8,2.2,3.9,4,6.4,5.4c5.4,3,13.1,4.2,14.7,1.6c0.4-0.6,1-2.5-3.2-7.7L239.2,849.8z"/>
	<path class="st17" d="M228.1,816.4c4-4.2,14.5-13.9,28.1-13.3c5,0.2,14.8,2,15.5,6.7c0.6,4.3-6.8,8.7-7.6,9.2
		C252.5,815.1,240.1,814.2,228.1,816.4z"/>
	<path class="st18" d="M280,831c0.4,3.9-2.8,7.8-7.3,8.3c-2.4,3.2-5.5,6-9,8c-19.5,11.1-51.8-1.3-53.1-13.6
		c-1-9.9,17.6-24,36.2-23.1c14.8,0.8,24.5,11,26.9,13.7C277,824.9,279.5,827.6,280,831z"/>
</g>
<g>
	<path class="st19" d="M94.9,137.5c0,0,286.1,10.3,420.3,10.3c71.6,0,315.5-10.7,315.5-10.7s-11.6,89.6-14.3,116.3
		c-4.9,49.2-3.6,124.3-3.6,124.3s-292.3-10.7-382.2-9.4c-84.1,1.3-308.9,6.7-308.9,6.7s-3.1-69.3-6.7-114
		C113.4,241.2,94.9,137.5,94.9,137.5z"/>
	<g>
		<polygon class="st20" points="126.9,179.6 130.9,207.3 166.4,209.3 160.5,178.6 		"/>
		<polygon class="st21" points="133.8,235.9 137.8,264.6 172.3,266.5 166.4,235.9 		"/>
		<polygon class="st22" points="173.3,293.2 139.8,293.2 140.8,323.8 175.3,324.8 		"/>
		<polygon class="st23" points="511.6,179.6 513.5,210.8 477.9,212.8 478.1,178.6 		"/>
		<polygon class="st24" points="514.6,243.1 514.4,273.5 478.6,274.4 476.8,241.3 		"/>
		<polygon class="st25" points="477.3,298.1 514.4,299.9 517.5,331.6 478.9,331.5 		"/>
		<g>
			<path class="st26" d="M190.6,193.2c0.3-2-0.5-4.5,2-6c0-0.3,0-0.7,0-1c1.7-1,2.7-3.4,4.8-3.5c0.2-1.7,1.4-1.4,2.1-2.5
				c0.3-0.1,0.9-0.1,0.9,0.2c0.6,0.2,0.3-0.6,0.7-0.7c1.5-0.7,3.1,1.2,4.3,0c2,0.1,3.3,1.1,4.6,2.4c0.6,0,0.8-0.2,1.2-0.3
				c2.4,0.3,2.2,5.1,0,4.9c-1.3-0.1-2.6-4.6-4.6-3.2c-0.7-0.1-1.5-0.4-1.5-0.7c-2.6-0.4-2.7,0-4.3,1c-0.3,0.1-0.3,0.4-0.3,0.8
				c-1.7,0.5-3.3,2.6-4.7,4.7c-1.6,2.6-3,6.2-2.7,9.4c0.4,3.6,2.1,10.6,6.7,9.9c2.2-0.3,5.6-0.7,7.6-1.8c0.6-0.3,1-1,1.5-1.3
				c0.4-0.2,0.8,0.2,1.3-0.3c0.7-0.7,1.5-1.7,2.6-2.1c0.3-0.1,0.7,0,1.1-0.1c1.1-0.5,1.7-1.4,3.1-1.1c0.5,0,0,1,0.6,1
				c0.5,1.1-2.1,2-3.4,3.6c-1.3,1.5-2.8,3-5.3,3.9c-0.2,0-0.5-0.1-0.7,0c-0.7,0.3-0.6,0.5-1.6,0.8c-2.3,0.7-4.4,1.6-6.6,1.1
				c-3.9-0.8-7.1-2.8-8.9-6.5c-1-3.3-3-8.5-1.3-11.9C189.9,193.5,190.4,193.1,190.6,193.2z"/>
			<path class="st26" d="M226.6,189.3c0.4,0.2,1.1-0.5,1.4,0.4c0-0.8,0.6-0.2,0.7-0.8c0.7,0,1.2,0.1,1.5,0.4c1.4-1,5,0.3,5.2,2.3
				c2.3,0.2,2,1.1,3.6,2c-0.1,4.2-0.9,8.2-0.2,12.5c0.2-0.3,0.3-0.6,0.6-0.9c0.5-0.1,0.1,1,0.5,1.1c0.9,0.2,0.7-1.2,0.7-1.9
				c0.4,0.2,0.6,0.3,0.5,1c0.2-0.3,0.3,0,0.5-0.7c0.6-0.6,0.3,0.2,0.4,0.7c0.5,0,0.6,1.3,0.8,2.3c-1.9,1.9-1,4.2-4.2,4.8
				c-1.1-1.3-1.4-1.9-2.6-3c-0.7-1.3-0.2-3.3-1-4.9c-0.2,1-1,2.9-1.4,2.2c-2.2,3.7-5.6,6.7-10.3,4.6c-1.5-2.3-3.2-4.4-4.1-7.4
				c0.3-2.2,0.2-3.9,0.3-6.2c0.4,0.1,0.5-0.1,0.7-0.2c-0.1-0.4,0.2-1.3-0.2-1.3c0.5-0.6,0.7-0.1,1.5-0.3c0-0.3-0.7-0.3-0.7-0.9
				c-0.2-0.6,0.7-0.3,1-0.4c-1.2-1.9,1-0.7,0.9-2.9c0.5,0.3,0.8,0,0.7-0.4c0.3-0.6,1.1,0.2,1.1-1C225.2,191,226.5,190.2,226.6,189.3
				z M231.5,203.6c0.4-1.7,1.8-3.5,2.9-4.6c0.3-1.9,0.4-2.9,0.6-4.9c-1.1,0-1.8-1.3-2.9-1.5c-0.3,0-0.7-0.3-1.1-0.3
				c-1.9,0-1.8,0.2-3.2,1.5c0,0-0.2-0.3-0.4-0.2c-0.9,0.5-2.1,1.9-2,3.2c-1.8,0.9-1.9,4.4-1.7,5.8c-0.3,0-0.3,0.5-0.6,0.5
				c0.4,1.3-0.2,2.7,0.6,3.6c0.6-0.5,1.7,1.9,2.5,1.9C228,207.2,229.2,207.3,231.5,203.6z"/>
			<path class="st26" d="M248.8,211.8c-1.9-0.4-2.9-1.8-2.5-3.2c-0.3-0.7-0.8-1.6-0.4-2.2c-0.6-2.9-1.5-8.3-2.7-11.1
				c0.2-0.8,0-1-0.3-1.9c0.7,0.2,1.2-2.3,3.6-1.9c0.5,0.1,1.1,4,1.2,4.1c1-0.2,1.8-2.7,2.1-3.6c1.8,0,2.6-2.3,4.1-1.6
				c2.1-1.1,2.7-0.7,4.5,0.4c0.8,0.7,0.6,2,0.8,2.5c-0.5,0-0.7,0.2-1.1,0.7c-2.8-0.7-6.5,0.9-8.2,7.3c-0.3,1,0.1,1.8,0.5,2.3
				c0,0.2-0.3,1-0.3,1c0,1.6,1.3,3.6,0.4,6.3C249.9,211.2,249.3,211.5,248.8,211.8z"/>
			<path class="st26" d="M262,180.8c1.3,4.4,0.1,8.7,1.4,13.1c0.5-1.2,2-1.1,2.5-2.6c0.4,0,0.6,0.3,0.7,0.5c1.9-1.2,4.2-0.3,5.9-0.6
				c1.1,1.7,3.7,0.1,4.6,2.2c1.7,0.7,1.6,4.9,2.8,6.1c1.6,4.1-2.5,8.1-5.3,10.1c-1.3,0.9-3,1.3-4.7,2c-0.7-0.3-2,0.1-2.3-0.3
				c-0.4,1.1-2.6,0.5-3.2,1.4c-0.7-0.4-0.5-0.6-1.6-0.5c-2-3.3-1.9-5.2-2.1-8.7c-0.1-0.4-0.7-2.2-1.3-2.1c0-0.4,0.6-1.4,0.7-1.7
				c-0.9-7.5-1.9-13.6-1.5-19.9C260.5,179.3,260.9,181,262,180.8z M267.9,207c0.6-0.4,1.9,0.2,2.4-0.3c0.1,0.3,0.5,0.5,1,0.5
				c0.3-0.3-0.1-0.3,0-0.9c0.6,0,1-0.6,1.4-0.2c0.4-1,0.8-1.4,2-1.9c0-0.3-0.2-0.3-0.3-0.5c1.1,0,1.8-2.1,2-3
				c-2.3-7.5-8.8-5.9-11.7-4.1c0.3,1.8,0,2.8-0.3,4.2c-0.1,1,0.5,1.9,0.5,3c-0.1,2-0.6,2.9,0.7,4.2c0.1-0.7,1.9,0.3,2.4-0.3
				c-0.3-0.2-0.4-0.2-0.4-0.3C267.6,207.3,267.9,207.1,267.9,207z"/>
			<path class="st26" d="M300.8,192.3c0.5,0.1,0.3,0.1,0.9,0c0.7,1,1.6,1.7,2.2,2.8c2,4.9-0.6,9.3-2.9,12.3c-0.3,0-0.3-0.1-0.3-0.3
				c-0.7,1.6-2.3,2.3-3.3,3.6c-1-0.1-1.4,0.3-1.5,1c-1.5,0.4-3.5,0.9-4.6,0.3c-0.2,0.1-0.2,0.4-0.5,0.3c0.3-0.6-0.6-0.1-0.5-0.5
				c-2.1,0-3.4-0.8-4.6-2.6c-3.4-1.1-3.9-5.9-3.3-10.5c0.9,0.1,0.1-1.1,1-1.5c0.8-2.9,2.9-5.7,5.9-7c0.6-0.6,1.2-1.3,2.2-1.4
				c0.5-0.2,1-0.6,2-0.4c2.5-0.3,4.5,0.7,5.9,2.5C300.2,191,300.8,191.4,300.8,192.3z M288.8,195.3c-1.6,3.4-4.3,5.9-2,11.4
				c1.1,1.8,3,1.4,5.5,1.2c0.1-0.5,1.1-0.5,1.2-1c1.8,0.3,2.7-1.7,4.2-2.3c0.3-1.5,1.4-2.2,2.4-3.1c0.4-2,0.8-2.9,0.5-5.4
				c-0.8-0.5-1.6-2-2.9-1.9c0.1-0.6,0.1-0.3,0-0.9c-2.1-0.4-3.3,0.1-5-1C291.3,193.1,290.4,194.7,288.8,195.3z"/>
			<path class="st26" d="M310.3,181.4c0,0.5-0.1,0.7-0.1,1.2c0,0.7,0.6,1.3,0.7,1.6c0.3,0.9-0.5,1-0.1,2.6c1,4.2,0.7,7.8,1,10.6
				c0.4-1.1,0.8-2.3,3-4.6c0.4-0.4,1.3-0.7,1.5-1.5c0.8,0,2.4-0.7,3.9-0.3c0.5,0.7,2.1,0.5,2.7,1.1c0.3,0.3,0.3,1,0.7,1.5
				c0.3,0.3,1.6,2.3,1.7,2.9c0.1,0.3-0.3,0.5-0.2,0.8c0.1,0.3,0.5,0.5,0.7,0.8c0.8,2.1,0.5,6.9,1,8.9c0.4,1.7,1.6,5.1-2,5
				c-2.4-2.5-1.4-8.2-2.2-12.7c-0.8-1.7-1.1-4.8-4.9-4.3c-1.4,0.5-2.9,3.1-3.9,4.7c-0.3,0.6-0.1,2-0.8,2c-0.3,1.1-0.4,2.2-0.5,3
				c-0.2,2.3-0.1,3.6,0,6c-0.5,0.6-1.1,1.1-1.8,1.5c-2.4-1-1.7-4.8-1.6-6.9c-0.2,0.3-0.4,0.1-0.4-0.1c-0.3-3.8-0.2-7.7-0.7-10.8
				c0.5-0.5-0.1-1-0.1-0.9c0.9-1.2-0.3-1.5-0.3-2.2c0.7-4.4-0.8-7.3,0-12C310,178.2,309.6,180,310.3,181.4z"/>
			<path class="st26" d="M343.4,189.1c0.7,0.1,0.7-0.3,1,0c0.6,0,0.5,0.7,1.3,0.5c0.7,1.8,1,4.2,1.6,6.2c0.9,1,1.2,2.3,1.1,3.8
				c1,2.3,0.2,4.9,2,6.6c-0.2,2.9,0.4,5.5-0.5,8.1c-1.3,3.5-5.2,6.2-9.4,6.1c-0.8,0-2-0.7-3.4-0.3c-0.6-0.6-1.9-0.6-2.2-1.5
				c-0.9,0.6-0.7,0-1.8-1.2c-1-0.9-2.1-1.1-1.8-2.6c-0.2,0.1-0.2,0.4-0.5,0.3c0-0.8,0.2-1.8-0.2-2.5c1.4-0.7,1.7-0.1,2.9-0.5
				c0.5,0.4,0.2,0.8,0.8,1c-0.1,0.3-0.4,0.7-0.6,0.7c-0.1,0.8,1.2,1.6,1.9,2.2c4.6,1.1,7.5,0.3,10.5-2.5c0.1-0.7,0.1-0.7,0-1.3
				c2-3.6-0.4-8.2-0.9-10.8c-1,0.5-1.4,1.6-1.8,2.8c-2.3,0.5-2.4,2.7-5.3,2.2c-2.2-0.4-3.4-1.8-4-2.6c-0.3-0.5-0.3-1.6-0.7-2.3
				c-0.2-0.3-0.6-0.3-0.7-0.5c-0.6-1.2-0.6-2.8-0.9-4.2c-0.3-1.3-1.3-2.5-1.3-3.8c-0.1-2.1,0.3-4,0.2-5.6c1.2,0.1,1.7,0.5,2.7,0.5
				c0.8,2,1.6,4.5,1.8,6.5c-0.4,0-0.3,0.3-0.4,0.5c0.2,1.3,0.5,2.9,0.9,4.3c0.4,1.3,0.5,3.3,2.9,3.6c-0.2-0.2,0.8-1,1.6-1.2
				c3.1-2.7,1.8-4.3,3-7.3c-0.3-2.7-0.5-3.5-0.4-5.8C343.1,188.4,343.5,188.7,343.4,189.1z"/>
			<path class="st26" d="M370.4,194.4c0.7,1.6,0.9,4.4,0.7,6.3c0.5,1.9,1.3,4.5,1.1,6.5c0.7,0.9,0.8,2.8,0.1,3.6
				c-1.5,0.2-2.1,1.1-3.3,0.5c0-0.8-0.8-1.1-0.3-1.9c-0.3,0-0.3,0-0.4-0.2c0.2-0.7,0.1-0.9,0-1.3c-0.6,1.5-2.8,2.4-3.9,3.8
				c-0.2-0.1-0.4-0.2-0.7-0.2c-9.6,3.4-12.7-3.6-11.5-8c0.1-0.3-0.3-0.3-0.3-0.5c-0.3-3.7,3.2-8,5.8-9c-0.1-1.1,0-0.9,0.3-1.6
				c0.6,0,1,0.5,1.5,0.3c0-0.3-0.1-0.5-0.1-0.8c0.5-1.2,3.5,1.3,3.9-1.1c1,0.2,2.2-0.1,3.1,0.5c-0.2-2.5,0.3-2.4-0.3-3.9
				c1.1-3.3,0-5,0.8-8c0.4-0.4,1.8-0.1,2-0.8c1.5,0.7,1.3,1.8,1.3,4c0,1.3,0.1,2.9-0.3,3.2C370.8,188.1,370.4,191.9,370.4,194.4z
				 M355.5,204.2c1,2.7,0.5,3.6,3.1,4.4c0.8-0.2,2.5,0.3,3.3-0.1c0.3-0.2,1.8-1.7,2.2-0.7c0.2-1.3,2.2-1.8,2.9-2.4
				c-0.2-1.3,0.2-3.3-0.5-4.8c1-0.4,0.2-4.4-0.2-5.5c-0.6,0-2-0.1-2.4-0.2c-4.4,1.5-7.3,4-8.4,7.8
				C356.2,202.7,355.6,204.1,355.5,204.2z"/>
			<path class="st26" d="M381.3,211.8c-1.9-0.4-2.9-1.8-2.5-3.2c-0.3-0.7-0.8-1.6-0.4-2.2c-0.6-2.9-1.5-8.3-2.7-11.1
				c0.2-0.8,0-1-0.3-1.9c0.7,0.2,1.2-2.3,3.6-1.9c0.5,0.1,1.1,4,1.2,4.1c1-0.2,1.8-2.7,2.1-3.6c1.8,0,2.6-2.3,4.1-1.6
				c2.1-1.1,2.7-0.7,4.5,0.4c0.8,0.7,0.6,2,0.8,2.5c-0.5,0-0.7,0.2-1.1,0.7c-2.8-0.7-6.5,0.9-8.2,7.3c-0.3,1,0.1,1.8,0.5,2.3
				c0,0.2-0.3,1-0.3,1c0,1.6,1.3,3.6,0.4,6.3C382.5,211.2,381.9,211.5,381.3,211.8z"/>
			<path class="st26" d="M397.7,189.3c0.4,0.2,1.1-0.5,1.4,0.4c0-0.8,0.6-0.2,0.7-0.8c0.7,0,1.2,0.1,1.5,0.4c1.4-1,5,0.3,5.2,2.3
				c2.3,0.2,2,1.1,3.6,2c-0.1,4.2-0.9,8.2-0.2,12.5c0.2-0.3,0.3-0.6,0.6-0.9c0.5-0.1,0.1,1,0.5,1.1c0.9,0.2,0.7-1.2,0.7-1.9
				c0.4,0.2,0.6,0.3,0.5,1c0.2-0.3,0.3,0,0.5-0.7c0.6-0.6,0.3,0.2,0.4,0.7c0.5,0,0.6,1.3,0.8,2.3c-1.9,1.9-1,4.2-4.2,4.8
				c-1.1-1.3-1.4-1.9-2.6-3c-0.7-1.3-0.2-3.3-1-4.9c-0.2,1-1,2.9-1.4,2.2c-2.2,3.7-5.6,6.7-10.3,4.6c-1.5-2.3-3.2-4.4-4.1-7.4
				c0.3-2.2,0.2-3.9,0.3-6.2c0.4,0.1,0.5-0.1,0.7-0.2c-0.1-0.4,0.2-1.3-0.2-1.3c0.5-0.6,0.7-0.1,1.5-0.3c0-0.3-0.7-0.3-0.7-0.9
				c-0.2-0.6,0.7-0.3,1-0.4c-1.2-1.9,1-0.7,0.9-2.9c0.5,0.3,0.8,0,0.7-0.4c0.3-0.6,1.1,0.2,1.1-1C396.3,191,397.6,190.2,397.7,189.3
				z M402.6,203.6c0.4-1.7,1.8-3.5,2.9-4.6c0.3-1.9,0.4-2.9,0.6-4.9c-1.1,0-1.8-1.3-2.9-1.5c-0.3,0-0.7-0.3-1.1-0.3
				c-1.9,0-1.8,0.2-3.2,1.5c0,0-0.2-0.3-0.4-0.2c-0.9,0.5-2.1,1.9-2,3.2c-1.8,0.9-1.9,4.4-1.7,5.8c-0.3,0-0.3,0.5-0.6,0.5
				c0.4,1.3-0.2,2.7,0.6,3.6c0.6-0.5,1.7,1.9,2.5,1.9C399.2,207.2,400.3,207.3,402.6,203.6z"/>
			<path class="st26" d="M426.8,189.9c-1.2,2.1-4.2,2.3-6.3,3.2c-0.6,4.1-0.7,9.3-0.4,14.1c0,0.3,1.4,0.7,1.4,1
				c1.8-0.9,2.9-0.4,4.3,0.2c-0.3,2.7-3.4,3.3-5.6,3.6c-0.4-0.7-1.1-0.7-1.6-0.7c-3.9-3.7-1.1-12.3-1.8-17.2
				c-0.6-0.3-1.6,0.4-2.3,0.5c-1.2-0.6-1.7-1.8-2.3-3c0.9-0.8,2.2-1.3,3.6-1.3c1.1-0.4,0.7-1.7,1-3.4c0.3-1.9,1-2.9,1.1-4.9
				c1,0,1.9,0.3,2.9,0.7c1.1,1.6-0.2,4.3-0.2,5.8C422.9,187.5,425.6,187.2,426.8,189.9z"/>
			<path class="st26" d="M450.4,207.7c-4.2,2.7-8.5,4.5-14.8,4.7c-3.1-0.9-6-2.7-6.2-6.4c-0.1-0.2-0.3-0.3-0.5-0.4
				c0.5-3.1-1.7-2.1-3.6-3.1c0-1.5,0.7-2.3,1.2-3.2c1.1,0.3,1.3-0.3,2.3,0.5c0.4,0,0.3-0.6,0.8-0.6c0.3-3.2,3.1-5.2,4.6-7.7
				c0.8-0.5,2.2-0.5,2.4-1.8c0.2,0.1,0.3,0.3,0.3,0.6c0.4-1,2.1-0.9,2.4-1.4c2,0.5,3.6-0.5,5.9,0.7c0.6,1.6,1.6,1,1.9,2.7
				c0.4,3-2,5-3.6,6.8c-0.8,0.2-1.3-0.2-1.5,0.7c-1.7,0.2-2.6,2.6-4,2.3c-0.2,0.3-0.4,0.6-0.5,1c-0.6-0.6-0.7,0-1.3-0.6
				c-0.9,1.6-4.1,0.4-4.2,2.5c0-0.3,0.3,1,0.3,1.1c1,1.9,3.8,2.5,6.7,2.2c1.3-0.1,2.7-1,4.2-1.5c1-0.3,2.1-0.4,2.8-0.6
				c0.2-0.1,0.7-0.9,0.9-0.9c0.3-0.1,0.7,0.4,0.9,0.3c1.3-0.3,0.9-1.4,1.7-1.7C450.1,204.9,450.2,206,450.4,207.7z M433,199.7
				c2.9,0,3.4-1.6,5.8-1.9c0.6-1,2-1.8,2.7-1.6c0.6-1.4,2.9-1.6,2.8-3.6c-5-1.7-7.9,1.7-10.6,4.8C433.6,197.8,432.8,199.5,433,199.7
				z"/>
		</g>
		<g>
			<path class="st26" d="M216.6,245c1.2,0.2,1.7,2.3,1.9,3.6c0.1,0.3,0.5,0.3,0.8,0.3c0,0.8,0.9,1.1,0.5,1.8
				c0.2,0.2,0.3-0.1,0.5,0.3c-0.4,1.4,0.9,2.6,0,4.3c0.7,3.3-2.6,5.2-3.9,7.6c-1.6,0.4-3.5,1.9-4.8,3.3c-0.8-0.8-1.2,1-1.8,0.3
				c-0.3,0.9-1.2,1.2-2.3,1.3c-1.3,0.7-3.3,2-4.8,2.6c0,2.1-2.4,1-2.4,0c-0.4,0.7-1-0.5-1.9-0.3c0.1-0.4-0.1-1.1-0.3-0.6
				c-0.2-1.5-1.2-3.8,1.3-4.4c0-1.6-0.2-6.6-0.7-9.5c-0.2-1.1-0.7-2.3-0.8-3.6c-0.3-2.9,0.2-6.7-0.8-8.2c-1.4,0.5-2.1,1-3.2,0.7
				c-0.7-0.8-1-2.7-0.7-4.2c2-0.7,3.9-2,6.6-1.3c0.7,0.2,0.5-0.6,1.1-0.5c0.1,0.1,0.5,0.3,0.5,0.6c0.3,0,0.5-0.4,0.7-0.6
				c0.7,0.2,0.9,0.3,1.7,0.4c0.4,0.1,1-0.6,2.1-0.3c0,0,0.4,0.5,1,0.5c0.8,0,1.6-0.2,2.1,0.2c0.7,0.5,0,0.1,0.8,0.2
				c1,0.1,2.2,1.4,2.7,2.2C214.3,242.7,215.7,243.3,216.6,245z M209.1,262.6c0.5-0.3,0.9-1,1.5-1.4c3.6-2.6,6.7-4.7,5.6-9.9
				c-1.1-2-2-3.2-3.2-5c-2.6-2-6-2.9-9-3.6c0,0.2-0.2,0.3-0.3,0.3c-1-0.1-1.8-0.4-3.1,0.2c0.3,4.1,1.3,12.6,1.4,13.3
				c1.1,4.2,0.5,5.5,0.9,7.9c1.1,0.3,1-0.1,2.3-0.1C205.7,262.9,207.9,263.4,209.1,262.6z"/>
			<path class="st26" d="M230.6,247.6c0.4,0.2,1.1-0.5,1.4,0.4c0-0.8,0.6-0.2,0.7-0.8c0.7,0,1.2,0.1,1.5,0.4c1.4-1,5,0.3,5.2,2.3
				c2.3,0.2,2,1.1,3.6,2c-0.1,4.2-0.9,8.2-0.2,12.5c0.2-0.3,0.3-0.6,0.6-0.9c0.5-0.1,0.1,1,0.5,1.1c0.9,0.2,0.7-1.2,0.7-1.9
				c0.4,0.2,0.6,0.3,0.5,1c0.2-0.3,0.3,0,0.5-0.7c0.6-0.6,0.3,0.2,0.4,0.7c0.5,0,0.6,1.3,0.8,2.3c-1.9,1.9-1,4.2-4.2,4.8
				c-1.1-1.3-1.4-1.9-2.6-3c-0.7-1.3-0.2-3.3-1-4.9c-0.2,1-1,2.9-1.4,2.2c-2.2,3.7-5.6,6.7-10.3,4.6c-1.5-2.3-3.2-4.4-4.1-7.4
				c0.3-2.2,0.2-3.9,0.3-6.2c0.4,0.1,0.5-0.1,0.7-0.2c-0.1-0.4,0.2-1.3-0.2-1.3c0.5-0.6,0.7-0.1,1.5-0.3c0-0.3-0.7-0.3-0.7-0.9
				c-0.2-0.6,0.7-0.3,1-0.4c-1.2-1.9,1-0.7,0.9-2.9c0.5,0.3,0.8,0,0.7-0.4c0.3-0.6,1.1,0.2,1.1-1
				C229.1,249.2,230.4,248.4,230.6,247.6z M235.4,261.9c0.4-1.7,1.8-3.5,2.9-4.6c0.3-1.9,0.4-2.9,0.6-4.9c-1.1,0-1.8-1.3-2.9-1.5
				c-0.3,0-0.7-0.3-1.1-0.3c-1.9,0-1.8,0.2-3.2,1.5c0,0-0.2-0.3-0.4-0.2c-0.9,0.5-2.1,1.9-2,3.2c-1.8,0.9-1.9,4.4-1.7,5.8
				c-0.3,0-0.3,0.5-0.6,0.5c0.4,1.3-0.2,2.7,0.6,3.6c0.6-0.5,1.7,1.9,2.5,1.9C232,265.4,233.1,265.5,235.4,261.9z"/>
			<path class="st26" d="M253.2,251c1.2,5.4-1.2,12.1-0.2,17c-0.3,1.3-1.2,2.1-2.3,2.6c-0.6,0.2-1.2-0.2-0.7-1c-0.8,0.3-0.7,0-1-0.4
				c-0.9-0.9-0.9-1.1-0.3-3c0.2-0.5-0.6-0.9-0.6-1.5c0.1-1.9,0.7-4.1,0.9-5.8c0.1-1.6,0-3.5,0.2-5.2c0.1-1,1-1.3,0.3-2.8
				C250.7,249.4,251.9,250.4,253.2,251z M248.6,239.5c-0.3,1.9,0.5,3.4,1.4,4.6c3.1,0.4,4.1-2.2,3.6-4.4c-0.9-0.2-0.3-1.3-1.2-1.4
				c-1,0.3-1.3-0.1-2.1-0.5C250.1,238.6,249.5,239.2,248.6,239.5z"/>
			<path class="st26" d="M262.3,270.1c-1.9-0.4-2.9-1.8-2.5-3.2c-0.3-0.7-0.8-1.6-0.4-2.2c-0.6-2.9-1.5-8.3-2.7-11.1
				c0.2-0.8,0-1-0.3-1.9c0.7,0.2,1.2-2.3,3.6-1.9c0.5,0.1,1.1,4,1.2,4.1c1-0.2,1.8-2.7,2.1-3.6c1.8,0,2.6-2.3,4.1-1.6
				c2.1-1.1,2.7-0.7,4.5,0.4c0.8,0.7,0.6,2,0.8,2.5c-0.5,0-0.7,0.2-1.1,0.7c-2.8-0.7-6.5,0.9-8.2,7.3c-0.3,1,0.1,1.8,0.5,2.3
				c0,0.2-0.3,1-0.3,1c0,1.6,1.3,3.6,0.4,6.3C263.5,269.4,262.9,269.7,262.3,270.1z"/>
			<path class="st26" d="M284.7,247.4c0.7,0.1,0.7-0.3,1,0c0.6,0,0.5,0.7,1.3,0.5c0.7,1.8,1,4.2,1.6,6.2c0.9,1,1.2,2.3,1.1,3.8
				c1,2.3,0.2,4.9,2,6.6c-0.2,2.9,0.4,5.5-0.5,8.1c-1.3,3.5-5.2,6.2-9.4,6.1c-0.8,0-2-0.7-3.4-0.3c-0.6-0.6-1.9-0.6-2.2-1.5
				c-0.9,0.6-0.7,0-1.8-1.2c-1-0.9-2.1-1.1-1.8-2.6c-0.2,0.1-0.2,0.4-0.5,0.3c0-0.8,0.2-1.8-0.2-2.5c1.4-0.7,1.7-0.1,2.9-0.5
				c0.5,0.4,0.2,0.8,0.8,1c-0.1,0.3-0.4,0.7-0.6,0.7c-0.1,0.8,1.2,1.6,1.9,2.2c4.6,1.1,7.5,0.3,10.5-2.5c0.1-0.7,0.1-0.7,0-1.3
				c2-3.6-0.4-8.2-0.9-10.8c-1,0.5-1.4,1.6-1.8,2.8c-2.3,0.5-2.4,2.7-5.3,2.2c-2.2-0.4-3.4-1.8-4-2.6c-0.3-0.5-0.3-1.6-0.7-2.3
				c-0.2-0.3-0.6-0.3-0.7-0.5c-0.6-1.2-0.6-2.8-0.9-4.2c-0.3-1.3-1.3-2.5-1.3-3.8c-0.1-2.1,0.3-4,0.2-5.6c1.2,0.1,1.7,0.5,2.7,0.5
				c0.8,2,1.6,4.5,1.8,6.5c-0.4,0-0.3,0.3-0.4,0.5c0.2,1.3,0.5,2.9,0.9,4.3c0.4,1.3,0.5,3.3,2.9,3.6c-0.2-0.2,0.8-1,1.6-1.2
				c3.1-2.7,1.8-4.3,3-7.3c-0.3-2.7-0.5-3.5-0.4-5.8C284.3,246.7,284.7,247,284.7,247.4z"/>
		</g>
		<g>
			<path class="st26" d="M222.8,301.1c-0.5,5.4-3.3,10.7-4.9,15.3c-0.7,2-0.5,3.5-1.9,5.2c0.3,0.1,0.3,0.8,0.2,1.3
				c-1.6,1.4-2,4-4,5.2c-1-0.3-2.4-0.3-3.1-1.3c-1.1-2.9-2.3-5.9-3.6-8.7c-0.5-0.9-0.8-1.8-1.2-2.7c-0.1-0.3-0.5-0.2-0.7-0.5
				c-0.3-0.3-0.2-1.2-0.5-1.8c-0.7-1.5-2.2-3.3-2.7-4.7c-0.2-0.3,0-0.8-0.2-1.1c-0.3-0.5-0.8-0.7-1-1.1c-0.7-1.1-1-2.9-1.6-4.2
				c-0.2-0.5-0.6-0.9-0.7-1.3c0-0.2,0-0.6-0.1-0.8c0-0.3-0.6-0.6-0.7-1c-0.1-0.5,0.4-1.3-0.3-1.5c0.4-0.3,0.9-0.4,0.6-1.3
				c1.3,0.4,2.1,0,3.4,0.7c0.4,1,0.7,2,1.3,2.6c-0.3,0.7,0.9,2.3,0.4,2.6c0.7,1.2,2,3.3,2.2,4.9c1.3,2.4,1.7,2.5,2.6,5.2
				c2.2,2.7,3.2,6.9,5.2,9.3c0.9-1.3,0.7-3,1.3-4.8c0.5-1.6,1.9-3.1,2.1-4.5c0.3-1.8,1.1-3.6,1.6-5.7c0.2-0.8,0.8-1.6,1.1-2.4
				c1.6-4.5,2.6-7.7,3-11.6c1,1,2.2,0.1,3.6,1C224.9,296,224,298.2,222.8,301.1z"/>
			<path class="st26" d="M247,322.2c-4.2,2.7-8.5,4.5-14.8,4.7c-3.1-0.9-6-2.7-6.2-6.4c-0.1-0.2-0.3-0.3-0.5-0.4
				c0.5-3.1-1.7-2.1-3.6-3.1c0-1.5,0.7-2.3,1.2-3.2c1.1,0.3,1.3-0.3,2.3,0.5c0.4,0,0.3-0.6,0.8-0.6c0.3-3.2,3.1-5.2,4.6-7.7
				c0.8-0.5,2.2-0.5,2.4-1.8c0.2,0.1,0.3,0.3,0.3,0.6c0.4-1,2.1-0.9,2.4-1.4c2,0.5,3.6-0.5,5.9,0.7c0.6,1.6,1.6,1,1.9,2.7
				c0.4,3-2,5-3.6,6.8c-0.8,0.2-1.3-0.2-1.5,0.7c-1.7,0.2-2.6,2.6-4,2.3c-0.2,0.3-0.4,0.6-0.5,1c-0.6-0.6-0.7,0-1.3-0.6
				c-0.9,1.6-4.1,0.4-4.2,2.5c0-0.3,0.3,1,0.3,1.1c1,1.9,3.8,2.5,6.7,2.2c1.3-0.1,2.7-1,4.2-1.5c1-0.3,2.1-0.4,2.8-0.6
				c0.2-0.1,0.7-0.9,0.9-0.9c0.3-0.1,0.7,0.4,0.9,0.3c1.3-0.3,0.9-1.4,1.7-1.7C246.7,319.4,246.8,320.5,247,322.2z M229.6,314.2
				c2.9,0,3.4-1.6,5.8-1.9c0.6-1,2-1.8,2.7-1.6c0.6-1.4,2.9-1.6,2.8-3.6c-5-1.7-7.9,1.7-10.6,4.8C230.2,312.3,229.4,314,229.6,314.2
				z"/>
			<path class="st26" d="M261.2,305.6c-4.3-0.1-5.8,3.2-7.9,5.6c-0.3,3.1-1.2,4.9,2,6.4c3.8,0.7,6.3-1.6,7.9-2.3
				c0.2-2.1,0-3.4-0.3-4.9c0.6-0.5,1-1.3,1.8-1.4c3-0.3,2.5,2.5,2.3,5.4c-0.1,1,0.3,2.6,0.4,3.5c0.1,0.6,0.6,0.9,0.7,1.4
				c0.2,0.7,0,1.6,0,2.3c0,0.6,0.1,1.3,0.1,1.8c0,0.3-0.4,0.3-0.4,0.3c0.1,1.2,0.6,3.4,0.5,4.2c0.3,5.3-5.2,6.9-9.2,6.9
				c-1,0-3.9,0-3.2-0.8c-0.5-0.1-1.9-0.3-2.4-0.6c-0.6-0.3-2-0.4-1.5-1.2c-0.9-0.1-1.2-0.7-1.7-0.5c-0.7,0.3-0.7-1-1.1-1.5
				c-1.5-1.9-2-3.8,0.9-5.4c0,0.2,0.8,0.3,1.1,0.3c0.5,4.9,8.1,7.4,12.5,4.3c1.9-3.3,0.3-7.4-0.2-10.8c-0.2,0.1-1.1,1.7-1.3,0.4
				c-2.6,1.7-8.8,3.3-11.8-0.3c-1.2-1.5-1.9-5.4-1-8.2c0.9-2.6,3.7-6,6.8-7.2c1-0.4,4.1-1.3,5-1.5c0.9,0.2,1.3,0.8,2.3,0.9
				c1,2,3.3,1.6,0.4,3.7C262.7,305.9,262.5,306.9,261.2,305.6z"/>
			<path class="st26" d="M295.2,322.2c-4.2,2.7-8.5,4.5-14.8,4.7c-3.1-0.9-6-2.7-6.2-6.4c-0.1-0.2-0.3-0.3-0.5-0.4
				c0.5-3.1-1.7-2.1-3.6-3.1c0-1.5,0.7-2.3,1.2-3.2c1.1,0.3,1.3-0.3,2.3,0.5c0.4,0,0.3-0.6,0.8-0.6c0.3-3.2,3.1-5.2,4.6-7.7
				c0.8-0.5,2.2-0.5,2.4-1.8c0.2,0.1,0.3,0.3,0.3,0.6c0.4-1,2.1-0.9,2.4-1.4c2,0.5,3.6-0.5,5.9,0.7c0.6,1.6,1.6,1,1.9,2.7
				c0.4,3-2,5-3.6,6.8c-0.8,0.2-1.3-0.2-1.5,0.7c-1.7,0.2-2.6,2.6-4,2.3c-0.2,0.3-0.4,0.6-0.5,1c-0.6-0.6-0.7,0-1.3-0.6
				c-0.9,1.6-4.1,0.4-4.2,2.5c0-0.3,0.3,1,0.3,1.1c1,1.9,3.8,2.5,6.7,2.2c1.3-0.1,2.7-1,4.2-1.5c1-0.3,2.1-0.4,2.8-0.6
				c0.2-0.1,0.7-0.9,0.9-0.9c0.3-0.1,0.7,0.4,0.9,0.3c1.3-0.3,0.9-1.4,1.7-1.7C294.9,319.4,295,320.5,295.2,322.2z M277.8,314.2
				c2.9,0,3.4-1.6,5.8-1.9c0.6-1,2-1.8,2.7-1.6c0.6-1.4,2.9-1.6,2.8-3.6c-5-1.7-7.9,1.7-10.6,4.8C278.5,312.3,277.6,314,277.8,314.2
				z"/>
			<path class="st26" d="M307.8,304.4c-1.2,2.1-4.2,2.3-6.3,3.2c-0.6,4.1-0.7,9.3-0.4,14.1c0,0.3,1.4,0.7,1.4,1
				c1.8-0.9,2.9-0.4,4.3,0.2c-0.3,2.7-3.4,3.3-5.6,3.6c-0.4-0.7-1.1-0.7-1.6-0.7c-3.9-3.7-1.1-12.3-1.8-17.2
				c-0.6-0.3-1.6,0.4-2.3,0.5c-1.2-0.6-1.7-1.8-2.3-3c0.9-0.8,2.2-1.3,3.6-1.3c1.1-0.4,0.7-1.7,1-3.4c0.3-1.9,1-2.9,1.1-4.9
				c1,0,1.9,0.3,2.9,0.7c1.1,1.6-0.2,4.3-0.2,5.8C303.9,302,306.6,301.7,307.8,304.4z"/>
			<path class="st26" d="M314.9,303.8c0.4,0.2,1.1-0.5,1.4,0.4c0-0.8,0.6-0.2,0.7-0.8c0.7,0,1.2,0.1,1.5,0.4c1.4-1,5,0.3,5.2,2.3
				c2.3,0.2,2,1.1,3.6,2c-0.1,4.2-0.9,8.2-0.2,12.5c0.2-0.3,0.3-0.6,0.6-0.9c0.5-0.1,0.1,1,0.5,1.1c0.9,0.2,0.7-1.2,0.7-1.9
				c0.4,0.2,0.6,0.3,0.5,1c0.2-0.3,0.3,0,0.5-0.7c0.6-0.6,0.3,0.2,0.4,0.7c0.5,0,0.6,1.3,0.8,2.3c-1.9,1.9-1,4.2-4.2,4.8
				c-1.1-1.3-1.4-1.9-2.6-3c-0.7-1.3-0.2-3.3-1-4.9c-0.2,1-1,2.9-1.4,2.2c-2.2,3.7-5.6,6.7-10.3,4.6c-1.5-2.3-3.2-4.4-4.1-7.4
				c0.3-2.2,0.2-3.9,0.3-6.2c0.4,0.1,0.5-0.1,0.7-0.2c-0.1-0.4,0.2-1.3-0.2-1.3c0.5-0.6,0.7-0.1,1.5-0.3c0-0.3-0.7-0.3-0.7-0.9
				c-0.2-0.6,0.7-0.3,1-0.4c-1.2-1.9,1-0.7,0.9-2.9c0.5,0.3,0.8,0,0.7-0.4c0.3-0.6,1.1,0.2,1.1-1
				C313.5,305.5,314.8,304.7,314.9,303.8z M319.7,318.1c0.4-1.7,1.8-3.5,2.9-4.6c0.3-1.9,0.4-2.9,0.6-4.9c-1.1,0-1.8-1.3-2.9-1.5
				c-0.3,0-0.7-0.3-1.1-0.3c-1.9,0-1.8,0.2-3.2,1.5c0,0-0.2-0.3-0.4-0.2c-0.9,0.5-2.1,1.9-2,3.2c-1.8,0.9-1.9,4.4-1.7,5.8
				c-0.3,0-0.3,0.5-0.6,0.5c0.4,1.3-0.2,2.7,0.6,3.6c0.6-0.5,1.7,1.9,2.5,1.9C316.3,321.7,317.4,321.8,319.7,318.1z"/>
			<path class="st26" d="M335.8,295.3c1.3,4.4,0.1,8.7,1.4,13.1c0.5-1.2,2-1.1,2.5-2.6c0.4,0,0.6,0.3,0.7,0.5
				c1.9-1.2,4.2-0.3,5.9-0.6c1.1,1.7,3.7,0.1,4.6,2.2c1.7,0.7,1.6,4.9,2.8,6.1c1.6,4.1-2.5,8.1-5.3,10.1c-1.3,0.9-3,1.3-4.7,2
				c-0.7-0.3-2,0.1-2.3-0.3c-0.4,1.1-2.6,0.5-3.2,1.4c-0.7-0.4-0.5-0.6-1.6-0.5c-2-3.3-1.9-5.2-2.1-8.7c-0.1-0.4-0.7-2.2-1.3-2.1
				c0-0.4,0.6-1.4,0.7-1.7c-0.9-7.5-1.9-13.6-1.5-19.9C334.3,293.8,334.7,295.5,335.8,295.3z M341.7,321.5c0.6-0.4,1.9,0.2,2.4-0.3
				c0.1,0.3,0.5,0.5,1,0.5c0.3-0.3-0.1-0.3,0-0.9c0.6,0,1-0.6,1.4-0.2c0.4-1,0.8-1.4,2-1.9c0-0.3-0.2-0.3-0.3-0.5c1.1,0,1.8-2.1,2-3
				c-2.3-7.5-8.8-5.9-11.7-4.1c0.3,1.8,0,2.8-0.3,4.2c-0.1,1,0.5,1.9,0.5,3c-0.1,2-0.6,2.9,0.7,4.2c0.1-0.7,1.9,0.3,2.4-0.3
				c-0.3-0.2-0.4-0.2-0.4-0.3C341.4,321.8,341.7,321.6,341.7,321.5z"/>
			<path class="st26" d="M361.5,325.5c-0.3,1-1,0.3-0.9,1.4c-4.6,0.3-3.2-4.2-3.2-7.9c0-1.9,0.6-3.7,0.5-5.6
				c-0.2-4.2-0.4-8.8-0.3-13.3c0-1.9-0.4-5.5-0.2-6.9c0.9-0.3,1.8,1.7,3.1,1.5C361.9,304.9,361.9,315.3,361.5,325.5z"/>
			<path class="st26" d="M389.2,322.2c-4.2,2.7-8.5,4.5-14.8,4.7c-3.1-0.9-6-2.7-6.2-6.4c-0.1-0.2-0.3-0.3-0.5-0.4
				c0.5-3.1-1.7-2.1-3.6-3.1c0-1.5,0.7-2.3,1.2-3.2c1.1,0.3,1.3-0.3,2.3,0.5c0.4,0,0.3-0.6,0.8-0.6c0.3-3.2,3.1-5.2,4.6-7.7
				c0.8-0.5,2.2-0.5,2.4-1.8c0.2,0.1,0.3,0.3,0.3,0.6c0.4-1,2.1-0.9,2.4-1.4c2,0.5,3.6-0.5,5.9,0.7c0.6,1.6,1.6,1,1.9,2.7
				c0.4,3-2,5-3.6,6.8c-0.8,0.2-1.3-0.2-1.5,0.7c-1.7,0.2-2.6,2.6-4,2.3c-0.2,0.3-0.4,0.6-0.5,1c-0.6-0.6-0.7,0-1.3-0.6
				c-0.9,1.6-4.1,0.4-4.2,2.5c0-0.3,0.3,1,0.3,1.1c1,1.9,3.8,2.5,6.7,2.2c1.3-0.1,2.7-1,4.2-1.5c1-0.3,2.1-0.4,2.8-0.6
				c0.2-0.1,0.7-0.9,0.9-0.9c0.3-0.1,0.7,0.4,0.9,0.3c1.3-0.3,0.9-1.4,1.7-1.7C389,319.4,389,320.5,389.2,322.2z M371.8,314.2
				c2.9,0,3.4-1.6,5.8-1.9c0.6-1,2-1.8,2.7-1.6c0.6-1.4,2.9-1.6,2.8-3.6c-5-1.7-7.9,1.7-10.6,4.8C372.5,312.3,371.6,314,371.8,314.2
				z"/>
			<path class="st26" d="M405.3,309.5c0-0.2-0.3-0.8-0.3-1c-3.5-3.1-9.5-2.4-12.1,1c2.6,3.8,5.4,2.3,9.5,3.5c-0.1,0.5,0.8,0.7,0.8,1
				c2.5,0.2,5.2,1.8,6.7,4.2c0.5,6.2-4,8.3-9.7,8.3c-2-0.1-6.5,0-8.4-2.1c-0.7,0.1-0.9-0.3-1.3-0.5c0.2-1-0.5-1.5-0.5-1.9
				c0.9-1.1,0.6-2.8,2.1-2.8c0.3,0.1,0.3,0.3,0.2,0.5c0.8-0.4,1.1-0.1,1.9,0.2c-0.2,0.6-0.6,1.6-1,1.4c1.2,2.2,4.5,1.1,6.9,1.8
				c0.1-0.1,0.3-0.3,0.3-0.5c1.9,0.2,3.3-0.8,4.6-1.8c0-0.5,0.3-1.2-0.3-1.1c-0.2-0.3,0.3-0.6,0.3-0.6c0,0-1-1.5-1.4-1.7
				c-0.1,0-0.4,0.3-0.7,0.2c-0.5-0.3-0.5-0.4-1.3-0.7c-1.2-0.5-2.6-1-3.8-1.3c-1.2-0.3-2.6,0.3-3.7,0.1c-0.1,0-0.3-0.5-0.5-0.5
				c-1.1-0.3-1.3-1.1-2-2.1c-0.4-0.1-0.3,0.3-0.8,0.2c-1-1.1-2.2-4.9,0.3-5.6c-0.1-0.5,0.2-0.6,0.2-1c1.2-0.3,1-0.3,1.3-1.6
				c0.7-0.3,0.4,0,0.7-0.4c0.5,0.3,1.7,0.2,1.8-0.7c0.6,0.6,2.3-1.6,2.8,0.3c0.6-0.1,0-0.6,0.3-0.9c0.7,0.3,1,0.4,1.6,0
				c0.1,0.8,0.2,0.3,0.7,0.2c0.3,0.3,0,0.2,0,0.7c0.6,0.2,0.3-0.6,0.7-0.7c1,0.3,1.6,0.5,2.1,1.4c0.3,0,0.2-0.4,0.2-0.7
				c1.9,0.7,2.2,1.3,3.9,2.6C407.7,308.2,406.6,309,405.3,309.5z"/>
		</g>
		<g>
			<path class="st26" d="M555.4,181.9c0,1-1.4-0.1-0.7,1c0.4,0.7-1,1.1-2.5,1.1c-0.5,0.1-0.4-0.4-0.8-0.5c-0.7,0.4-1.3,0.1-2.1,0
				c-0.4,0-0.8,0.5-1.3,0.5c-1,0.1-1.7-0.2-2.7,0c-1.7,0.4-4.2,0.4-4.9,0.8c-0.5,0.3-0.5,1-1,1.1c-0.3,3.2-0.6,6.4,0.5,9.4
				c0.4,0.1,1.3,0.3,1.4-0.2c1.7-0.3,3.3-0.5,4.9-0.9c0.4-0.1,0.4-0.8,1.2-0.7c1,0.1,2.1-0.2,3.3-0.3c-0.1,0.7,0.9,0.8,1.4,1.3
				c-1.4,4.3-8.4,3.4-11.7,5.5c0.6,2.9,0.5,7.6,2.6,10.3c-0.3,0.9-0.1,1.6-1,1.9c0,0-1.1-0.1-0.8,0c-2.6-0.9-3.5-8.5-4-10.8
				c-0.1-0.1-0.7,0-0.8,0c-0.3-0.1-0.2-0.3-0.4-0.5c-0.5-0.5-0.7,0.1-0.7,0.1c-1.5-0.9-0.8-1.3-1-1.7c-0.6-0.9-0.7-1.2-0.3-2.9
				c0.9,0,1.9,0,2.4-0.8c-0.7-3.9,0-6.2-0.8-10c-2,0.9-2.3-0.2-2.3-0.2c-0.3,0.1-1.3,0.9-1,0.1c-1.3,0.1-1-2.1-0.4-3.4
				c1.1-0.2,0.9-0.4,2.5-0.9c1.7,0.3,2.8-0.4,4-1.1c0.2,0.9,1.9,0.8,2.4,0.1c0.3,0,0.6,0.1,0.9,0.6c1.2-0.9,2.5,0.1,3.6-1
				c2.2,0.4,4.7,0,7.1,0.1c1.3-0.4,3.4,0.3,2,1.4C554.5,181.8,554.8,181.8,555.4,181.9z"/>
			<path class="st26" d="M562,211.8c-1.9-0.4-2.9-1.8-2.5-3.2c-0.3-0.7-0.8-1.6-0.4-2.2c-0.6-2.9-1.5-8.3-2.7-11.1
				c0.2-0.8,0-1-0.3-1.9c0.7,0.2,1.2-2.3,3.6-1.9c0.5,0.1,1.1,4,1.2,4.1c1-0.2,1.8-2.7,2.1-3.6c1.8,0,2.6-2.3,4.1-1.6
				c2.1-1.1,2.7-0.7,4.5,0.4c0.8,0.7,0.6,2,0.8,2.5c-0.5,0-0.7,0.2-1.1,0.7c-2.8-0.7-6.5,0.9-8.2,7.3c-0.3,1,0.1,1.8,0.5,2.3
				c0,0.2-0.3,1-0.3,1c0,1.6,1.3,3.6,0.4,6.3C563.2,211.2,562.6,211.5,562,211.8z"/>
			<path class="st26" d="M586.9,189.6c1.5-0.7,2.5,0,3.6,0.7c1.3,3.9-0.1,6.7,0.2,9.8c0.2,1.6,0.2,3.2,0.4,4.6
				c0.3,2.1,1.4,4.1,1.6,6.5c-0.9,1-2,0.3-3.4,0.4c0.4-0.8-1-0.7-1.3-1.5c0.1-2,0-4.3-0.7-5.6c-0.5,1.4-2.4,2.4-2.8,3.8
				c-2.3,1.3-3.9,4.4-8,3.1c-0.7-0.2-1.4-1-1.8-1.3c-2.9-6.2-3-12-2.7-19.3c0.7-0.5,0.5-1.8,0.9-2.5c1.5-0.3,2.9,0.8,3.6,1.8
				c-0.4,1.2,0.1,1.2,0,2.2c0,0.4-0.5,0.8-0.5,1.3c-0.1,0.8,0.4,0.8,0.3,1.8c0,0.5-0.4,0.4-0.5,0.9c-0.1,0.5,0.1,2.1,0.2,2.9
				c0.1,1.4,0.4,3.7,0.5,3.8c0,1.5,0.7,2.9,1.5,4.9C583.6,204.7,587.4,199.7,586.9,189.6z"/>
			<path class="st26" d="M601,192.7c1.2,5.4-1.2,12.1-0.2,17c-0.3,1.3-1.2,2.1-2.3,2.6c-0.6,0.2-1.2-0.2-0.7-1c-0.8,0.3-0.7,0-1-0.4
				c-0.9-0.9-0.9-1.1-0.3-3c0.2-0.5-0.6-0.9-0.6-1.5c0.1-1.9,0.7-4.1,0.9-5.8c0.1-1.6,0-3.5,0.2-5.2c0.1-1,1-1.3,0.3-2.8
				C598.6,191.2,599.7,192.2,601,192.7z M596.5,181.2c-0.3,1.9,0.5,3.4,1.4,4.6c3.1,0.4,4.1-2.2,3.6-4.4c-0.9-0.2-0.3-1.3-1.2-1.4
				c-1,0.3-1.3-0.1-2.1-0.5C597.9,180.4,597.4,181,596.5,181.2z"/>
			<path class="st26" d="M617.2,189.9c-1.2,2.1-4.2,2.3-6.3,3.2c-0.6,4.1-0.7,9.3-0.4,14.1c0,0.3,1.4,0.7,1.4,1
				c1.8-0.9,2.9-0.4,4.3,0.2c-0.3,2.7-3.4,3.3-5.6,3.6c-0.4-0.7-1.1-0.7-1.6-0.7c-3.9-3.7-1.1-12.3-1.8-17.2
				c-0.6-0.3-1.6,0.4-2.3,0.5c-1.2-0.6-1.7-1.8-2.3-3c0.9-0.8,2.2-1.3,3.6-1.3c1.1-0.4,0.7-1.7,1-3.4c0.3-1.9,1-2.9,1.1-4.9
				c1,0,1.9,0.3,2.9,0.7c1.1,1.6-0.2,4.3-0.2,5.8C613.3,187.5,615.9,187.2,617.2,189.9z"/>
		</g>
		<g>
			<path class="st26" d="M555.9,253.6c-0.6,2.9-3.6,4.1-5.5,5.7c-1.4,2.4-4.7,1.6-6.4,3c-0.3,0.9-2.1,1.4-2.9,1.9
				c-0.1,2.8,1.3,5.5,1.8,8.1c0.3,1.7-0.5,3-2.6,3c-1.8-2.5-1.6-7.2-2.7-10c-1-1-2.3-1.3-2.6-2.7c-0.2-0.9,0.4-1.8,1.4-2.6
				c0,0,0,0.6,0.5-0.2c0.5-0.9,0.3-1.6-0.4-2.3c0-1.1,0.1-1.2,0.7-1.7c-1.3-2.3,0.2-7.3-0.3-9.5c-1,0.2-3,0.7-3.1,1.8
				c-0.2,0.2-0.3,0.3-0.3,0.6c0,0.3,0.4,0.5,0.7,0.6c0,0.1-0.1,0.2-0.2,0.3c-0.2,0-0.4,0.1-0.6,0.3c-1.6,0-0.7,0.2-2.3-0.8
				c0.3-0.3-0.4-0.6-0.5-1c0.1-0.3,0.9-1.4,0.3-1.6c0.4-0.4,2-1,2.2-2.3c2.4-1.7,2.9-1.7,5.9-2c0.3,0,0.3-0.1,0.3-0.3
				c0.3-0.1,1.3-0.3,1.7,0c4.1-1.3,8.6-0.3,12.2,1.3C556.4,244.8,559.2,250.2,555.9,253.6z M546.1,244.7c-2-0.5-4.6-0.4-6,0.7
				c0.8,1.7-0.4,4.4-0.3,6.5c0.1,2.5,0.4,3.7,0.1,6.6c0.9,0.5-0.2,1.4,0.8,2c1-0.4,1.7-0.5,2.9-1.3c0.5-0.3,1.2-0.5,1.6-0.8
				c0.3-0.2,0.2-0.6,0.6-1c0.7-0.7,1.5-0.2,2.3-1c0.7-0.6,1.5-1,2-1.4c0.7-0.7,1.1-1.6,1.6-2.5c0.4-0.7,1-1.6,1.1-2
				C554.3,246.1,549.3,244.2,546.1,244.7z"/>
			<path class="st26" d="M565.7,274.1c-1.9-0.4-2.9-1.8-2.5-3.2c-0.3-0.7-0.8-1.6-0.4-2.2c-0.6-2.9-1.5-8.3-2.7-11.1
				c0.2-0.8,0-1-0.3-1.9c0.7,0.2,1.2-2.3,3.6-1.9c0.5,0.1,1.1,4,1.2,4.1c1-0.2,1.8-2.7,2.1-3.6c1.8,0,2.6-2.3,4.1-1.6
				c2.1-1.1,2.7-0.7,4.5,0.4c0.8,0.7,0.6,2,0.8,2.5c-0.5,0-0.7,0.2-1.1,0.7c-2.8-0.7-6.5,0.9-8.2,7.3c-0.3,1,0.1,1.8,0.5,2.3
				c0,0.2-0.3,1-0.3,1c0,1.6,1.3,3.6,0.4,6.3C566.9,273.5,566.3,273.8,565.7,274.1z"/>
			<path class="st26" d="M593.6,254.6c0.5,0.1,0.3,0.1,0.9,0c0.7,1,1.6,1.7,2.2,2.8c2,4.9-0.6,9.3-2.9,12.3c-0.3,0-0.3-0.1-0.3-0.3
				c-0.7,1.6-2.3,2.3-3.3,3.6c-1-0.1-1.4,0.3-1.5,1c-1.5,0.4-3.5,0.9-4.6,0.3c-0.2,0.1-0.2,0.4-0.5,0.3c0.3-0.6-0.6-0.1-0.5-0.5
				c-2.1,0-3.4-0.8-4.6-2.6c-3.4-1.1-3.9-5.9-3.3-10.5c0.9,0.1,0.1-1.1,1-1.5c0.8-2.9,2.9-5.7,5.9-7c0.6-0.6,1.2-1.3,2.2-1.4
				c0.5-0.2,1-0.6,2-0.4c2.5-0.3,4.5,0.7,5.9,2.5C593.1,253.2,593.6,253.6,593.6,254.6z M581.7,257.6c-1.6,3.4-4.3,5.9-2,11.4
				c1.1,1.8,3,1.4,5.5,1.2c0.1-0.5,1.1-0.5,1.2-1c1.8,0.3,2.7-1.7,4.2-2.3c0.3-1.5,1.4-2.2,2.4-3.1c0.4-2,0.8-2.9,0.5-5.4
				c-0.8-0.5-1.6-2-2.9-1.9c0.1-0.6,0.1-0.3,0-0.9c-2.1-0.4-3.3,0.1-5-1C584.2,255.4,583.3,257,581.7,257.6z"/>
			<path class="st26" d="M611.2,252.2c-1.2,2.1-4.2,2.3-6.3,3.2c-0.6,4.1-0.7,9.3-0.4,14.1c0,0.3,1.4,0.7,1.4,1
				c1.8-0.9,2.9-0.4,4.3,0.2c-0.3,2.7-3.4,3.3-5.6,3.6c-0.4-0.7-1.1-0.7-1.6-0.7c-3.9-3.7-1.1-12.3-1.8-17.2
				c-0.6-0.3-1.6,0.4-2.3,0.5c-1.2-0.6-1.7-1.8-2.3-3c0.9-0.8,2.2-1.3,3.6-1.3c1.1-0.4,0.7-1.7,1-3.4c0.3-1.9,1-2.9,1.1-4.9
				c1,0,1.9,0.3,2.9,0.7c1.1,1.6-0.2,4.3-0.2,5.8C607.3,249.8,610,249.5,611.2,252.2z"/>
			<path class="st26" d="M634.8,269.9c-4.2,2.7-8.5,4.5-14.8,4.7c-3.1-0.9-6-2.7-6.2-6.4c-0.1-0.2-0.3-0.3-0.5-0.4
				c0.5-3.1-1.7-2.1-3.6-3.1c0-1.5,0.7-2.3,1.2-3.2c1.1,0.3,1.3-0.3,2.3,0.5c0.4,0,0.3-0.6,0.8-0.6c0.3-3.2,3.1-5.2,4.6-7.7
				c0.8-0.5,2.2-0.5,2.4-1.8c0.2,0.1,0.3,0.3,0.3,0.6c0.4-1,2.1-0.9,2.4-1.4c2,0.5,3.6-0.5,5.9,0.7c0.6,1.6,1.6,1,1.9,2.7
				c0.4,3-2,5-3.6,6.8c-0.8,0.2-1.3-0.2-1.5,0.7c-1.7,0.2-2.6,2.6-4,2.3c-0.2,0.3-0.4,0.6-0.5,1c-0.6-0.6-0.7,0-1.3-0.6
				c-0.9,1.6-4.1,0.4-4.2,2.5c0-0.3,0.3,1,0.3,1.1c1,1.9,3.8,2.5,6.7,2.2c1.3-0.1,2.7-1,4.2-1.5c1-0.3,2.1-0.4,2.8-0.6
				c0.2-0.1,0.7-0.9,0.9-0.9c0.3-0.1,0.7,0.4,0.9,0.3c1.3-0.3,0.9-1.4,1.7-1.7C634.5,267.2,634.6,268.2,634.8,269.9z M617.4,262
				c2.9,0,3.4-1.6,5.8-1.9c0.6-1,2-1.8,2.7-1.6c0.6-1.4,2.9-1.6,2.8-3.6c-5-1.7-7.9,1.7-10.6,4.8C618,260.1,617.2,261.7,617.4,262z"
				/>
			<path class="st26" d="M640.9,255c1.2,5.4-1.2,12.1-0.2,17c-0.3,1.3-1.2,2.1-2.3,2.6c-0.6,0.2-1.2-0.2-0.7-1c-0.8,0.3-0.7,0-1-0.4
				c-0.9-0.9-0.9-1.1-0.3-3c0.2-0.5-0.6-0.9-0.6-1.5c0.1-1.9,0.7-4.1,0.9-5.8c0.1-1.6,0-3.5,0.2-5.2c0.1-1,1-1.3,0.3-2.8
				C638.4,253.5,639.6,254.5,640.9,255z M636.3,243.5c-0.3,1.9,0.5,3.4,1.4,4.6c3.1,0.4,4.1-2.2,3.6-4.4c-0.9-0.2-0.3-1.3-1.2-1.4
				c-1,0.3-1.3-0.1-2.1-0.5C637.8,242.7,637.2,243.3,636.3,243.5z"/>
			<path class="st26" d="M664.4,273.6c-0.6,0.3-1.1-1.2-2-1.3c0.1-4,0.3-9-1-12.7c-0.9-2.5-3.9-7.2-6.2-3.8c-0.7,1-1.2,3.3-1.8,4.6
				c-0.7,1.5-1.3,3.1-1.9,4.7c0,0-0.4,0.1-0.5,0.2c-1.2,3.2-0.3,6.2-1.5,9c-1.7,1-2.9-0.7-3.6-2c-0.2-6.9-0.3-12.7-0.7-20.8
				c0.7,0.3,0.6-0.4,1-0.5c1,0.5,1.6,0.3,2.3,1.3c-0.4,2.8,0.2,5,0.7,8.8c0-0.3,0.4-1.8,0.8-1.6c0.3-0.8,0.1-3.6,1.3-3.9
				c0.1-2,1.5-2.4,2.1-3.9c1.3-0.3,2.2-1.1,3.7-1.1c1.7,0.8,4.2,1.1,5.5,2.4c2.6,6.2,4.9,13.8,3,20.5
				C665.1,273.8,664.2,273.2,664.4,273.6z"/>
		</g>
		<g>
			<path class="st26" d="M547.4,317.2c-0.2-0.2-0.4-0.3-0.7-0.5c-1,0.4-1.6,0.4-2.7,0.5c-0.9,1.6,0.1,6.3,0,8.2
				c0.1,0.3,0.7,0.2,1,0.3c0.5,0.1-0.1,2.1,0.4,2.3c-0.3,2.2-1.6,2.6-3.2,4.6c-0.6-0.1-0.7,0-1.3-0.3c0-0.3-0.4-1.6-0.1-2.1
				c-0.2-0.2-0.7-1-0.8-1.3c-0.6-10.6-1.4-17.6-1.5-27.2c0.5,0.1,0.5-0.3,0.8-0.3c1.3,0.6,2.6,1.4,3.3,2.7c-0.4,1.1-0.8,3.2,0.1,4
				c-0.6,1.3,0.3,3.8,0.2,5.5c1.5,1,4.8-1.5,6.2-0.5c1.3-0.9,2.3,0,4.1-0.3c1.4-0.3,2.9-1.1,4.7-1c0.3-5-0.9-8.3,0.4-15
				c0.8,0,2.4,0.7,3.1,1.1c0.6,4.6-0.3,9.1,1.3,13.8c0.2,0.5,0.6,0,1,0.5c0.8,1.4-0.7,2.3-0.7,3.9c0,1.4,1.4,3.3,1.8,5
				c0.2,1.2,0.8,3.3,0.7,4.2c0,1.2-1,1.9-1.3,2.8c-0.5-0.4-1.2-0.9-1.9-0.6c-1.8-2.2-2-8-2.7-9.5c-0.4-0.3,0.1-0.9-0.3-1.8
				C555.9,316.1,550.3,316.7,547.4,317.2z"/>
			<path class="st26" d="M591.9,326.2c-4.2,2.7-8.5,4.5-14.8,4.7c-3.1-0.9-6-2.7-6.2-6.4c-0.1-0.2-0.3-0.3-0.5-0.4
				c0.5-3.1-1.7-2.1-3.6-3.1c0-1.5,0.7-2.3,1.2-3.2c1.1,0.3,1.3-0.3,2.3,0.5c0.4,0,0.3-0.6,0.8-0.6c0.3-3.2,3.1-5.2,4.6-7.7
				c0.8-0.5,2.2-0.5,2.4-1.8c0.2,0.1,0.3,0.3,0.3,0.6c0.4-1,2.1-0.9,2.4-1.4c2,0.5,3.6-0.5,5.9,0.7c0.6,1.6,1.6,1,1.9,2.7
				c0.4,3-2,5-3.6,6.8c-0.8,0.2-1.3-0.2-1.5,0.7c-1.7,0.2-2.6,2.6-4,2.3c-0.2,0.3-0.4,0.6-0.5,1c-0.6-0.6-0.7,0-1.3-0.6
				c-0.9,1.6-4.1,0.4-4.2,2.5c0-0.3,0.3,1,0.3,1.1c1,1.9,3.8,2.5,6.7,2.2c1.3-0.1,2.7-1,4.2-1.5c1-0.3,2.1-0.4,2.8-0.6
				c0.2-0.1,0.7-0.9,0.9-0.9c0.3-0.1,0.7,0.4,0.9,0.3c1.3-0.3,0.9-1.4,1.7-1.7C591.7,323.5,591.7,324.5,591.9,326.2z M574.5,318.2
				c2.9,0,3.4-1.6,5.8-1.9c0.6-1,2-1.8,2.7-1.6c0.6-1.4,2.9-1.6,2.8-3.6c-5-1.7-7.9,1.7-10.6,4.8C575.2,316.3,574.4,318,574.5,318.2
				z"/>
			<path class="st26" d="M599.6,307.9c0.4,0.2,1.1-0.5,1.4,0.4c0-0.8,0.6-0.2,0.7-0.8c0.7,0,1.2,0.1,1.5,0.4c1.4-1,5,0.3,5.2,2.3
				c2.3,0.2,2,1.1,3.6,2c-0.1,4.2-0.9,8.2-0.2,12.5c0.2-0.3,0.3-0.6,0.6-0.9c0.5-0.1,0.1,1,0.5,1.1c0.9,0.2,0.7-1.2,0.7-1.9
				c0.4,0.2,0.6,0.3,0.5,1c0.2-0.3,0.3,0,0.5-0.7c0.6-0.6,0.3,0.2,0.4,0.7c0.5,0,0.6,1.3,0.8,2.3c-1.9,1.9-1,4.2-4.2,4.8
				c-1.1-1.3-1.4-1.9-2.6-3c-0.7-1.3-0.2-3.3-1-4.9c-0.2,1-1,2.9-1.4,2.2c-2.2,3.7-5.6,6.7-10.3,4.6c-1.5-2.3-3.2-4.4-4.1-7.4
				c0.3-2.2,0.2-3.9,0.3-6.2c0.4,0.1,0.5-0.1,0.7-0.2c-0.1-0.4,0.2-1.3-0.2-1.3c0.5-0.6,0.7-0.1,1.5-0.3c0-0.3-0.7-0.3-0.7-0.9
				c-0.2-0.6,0.7-0.3,1-0.4c-1.2-1.9,1-0.7,0.9-2.9c0.5,0.3,0.8,0,0.7-0.4c0.3-0.6,1.1,0.2,1.1-1
				C598.1,309.5,599.4,308.7,599.6,307.9z M604.4,322.2c0.4-1.7,1.8-3.5,2.9-4.6c0.3-1.9,0.4-2.9,0.6-4.9c-1.1,0-1.8-1.3-2.9-1.5
				c-0.3,0-0.7-0.3-1.1-0.3c-1.9,0-1.8,0.2-3.2,1.5c0,0-0.2-0.3-0.4-0.2c-0.9,0.5-2.1,1.9-2,3.2c-1.8,0.9-1.9,4.4-1.7,5.8
				c-0.3,0-0.3,0.5-0.6,0.5c0.4,1.3-0.2,2.7,0.6,3.6c0.6-0.5,1.7,1.9,2.5,1.9C601,325.7,602.1,325.8,604.4,322.2z"/>
			<path class="st26" d="M622,329.5c-0.3,1-1,0.3-0.9,1.4c-4.6,0.3-3.2-4.2-3.2-7.9c0-1.9,0.6-3.7,0.5-5.6
				c-0.2-4.2-0.4-8.8-0.3-13.3c0-1.9-0.4-5.5-0.2-6.9c0.9-0.3,1.8,1.7,3.1,1.5C622.4,308.9,622.5,319.3,622,329.5z"/>
			<path class="st26" d="M638.3,308.4c-1.2,2.1-4.2,2.3-6.3,3.2c-0.6,4.1-0.7,9.3-0.4,14.1c0,0.3,1.4,0.7,1.4,1
				c1.8-0.9,2.9-0.4,4.3,0.2c-0.3,2.7-3.4,3.3-5.6,3.6c-0.4-0.7-1.1-0.7-1.6-0.7c-3.9-3.7-1.1-12.3-1.8-17.2
				c-0.6-0.3-1.6,0.4-2.3,0.5c-1.2-0.6-1.7-1.8-2.3-3c0.9-0.8,2.2-1.3,3.6-1.3c1.1-0.4,0.7-1.7,1-3.4c0.3-1.9,1-2.9,1.1-4.9
				c1,0,1.9,0.3,2.9,0.7c1.1,1.6-0.2,4.3-0.2,5.8C634.4,306.1,637,305.7,638.3,308.4z"/>
			<path class="st26" d="M642.3,299.9c0,0.5-0.1,0.7-0.1,1.2c0,0.7,0.6,1.3,0.7,1.6c0.3,0.9-0.5,1-0.1,2.6c1,4.2,0.7,7.8,1,10.6
				c0.4-1.1,0.8-2.3,3-4.6c0.4-0.4,1.3-0.7,1.5-1.5c0.8,0,2.4-0.7,3.9-0.3c0.5,0.7,2.1,0.5,2.7,1.1c0.3,0.3,0.3,1,0.7,1.5
				c0.3,0.3,1.6,2.3,1.7,2.9c0.1,0.3-0.3,0.5-0.2,0.8c0.1,0.3,0.5,0.5,0.7,0.8c0.8,2.1,0.5,6.9,1,8.9c0.4,1.7,1.6,5.1-2,5
				c-2.4-2.5-1.4-8.2-2.2-12.7c-0.8-1.7-1.1-4.8-4.9-4.3c-1.4,0.5-2.9,3.1-3.9,4.7c-0.3,0.6-0.1,2-0.8,2c-0.3,1.1-0.4,2.2-0.5,3
				c-0.2,2.3-0.1,3.6,0,6c-0.5,0.6-1.1,1.1-1.8,1.5c-2.4-1-1.7-4.8-1.6-6.9c-0.2,0.3-0.4,0.1-0.4-0.1c-0.3-3.8-0.2-7.7-0.7-10.8
				c0.5-0.5-0.1-1-0.1-0.9c0.9-1.2-0.3-1.5-0.3-2.2c0.7-4.4-0.8-7.3,0-12C641.9,296.7,641.6,298.6,642.3,299.9z"/>
			<path class="st26" d="M675.4,307.6c0.7,0.1,0.7-0.3,1,0c0.6,0,0.5,0.7,1.3,0.5c0.7,1.8,1,4.2,1.6,6.2c0.9,1,1.2,2.3,1.1,3.8
				c1,2.3,0.2,4.9,2,6.6c-0.2,2.9,0.4,5.5-0.5,8.1c-1.3,3.5-5.2,6.2-9.4,6.1c-0.8,0-2-0.7-3.4-0.3c-0.6-0.6-1.9-0.6-2.2-1.5
				c-0.9,0.6-0.7,0-1.8-1.2c-1-0.9-2.1-1.1-1.8-2.6c-0.2,0.1-0.2,0.4-0.5,0.3c0-0.8,0.2-1.8-0.2-2.5c1.4-0.7,1.7-0.1,2.9-0.5
				c0.5,0.4,0.2,0.8,0.8,1c-0.1,0.3-0.4,0.7-0.6,0.7c-0.1,0.8,1.2,1.6,1.9,2.2c4.6,1.1,7.5,0.3,10.5-2.5c0.1-0.7,0.1-0.7,0-1.3
				c2-3.6-0.4-8.2-0.9-10.8c-1,0.5-1.4,1.6-1.8,2.8c-2.3,0.5-2.4,2.7-5.3,2.2c-2.2-0.4-3.4-1.8-4-2.6c-0.3-0.5-0.3-1.6-0.7-2.3
				c-0.2-0.3-0.6-0.3-0.7-0.5c-0.6-1.2-0.6-2.8-0.9-4.2c-0.3-1.3-1.3-2.5-1.3-3.8c-0.1-2.1,0.3-4,0.2-5.6c1.2,0.1,1.7,0.5,2.7,0.5
				c0.8,2,1.6,4.5,1.8,6.5c-0.4,0-0.3,0.3-0.4,0.5c0.2,1.3,0.5,2.9,0.9,4.3c0.4,1.3,0.5,3.3,2.9,3.6c-0.2-0.2,0.8-1,1.6-1.2
				c3.1-2.7,1.8-4.3,3-7.3c-0.3-2.7-0.5-3.5-0.4-5.8C675,307,675.4,307.2,675.4,307.6z"/>
			<path class="st26" d="M719.7,326.2c-4.2,2.7-8.5,4.5-14.8,4.7c-3.1-0.9-6-2.7-6.2-6.4c-0.1-0.2-0.3-0.3-0.5-0.4
				c0.5-3.1-1.7-2.1-3.6-3.1c0-1.5,0.7-2.3,1.2-3.2c1.1,0.3,1.3-0.3,2.3,0.5c0.4,0,0.3-0.6,0.8-0.6c0.3-3.2,3.1-5.2,4.6-7.7
				c0.8-0.5,2.2-0.5,2.4-1.8c0.2,0.1,0.3,0.3,0.3,0.6c0.4-1,2.1-0.9,2.4-1.4c2,0.5,3.6-0.5,5.9,0.7c0.6,1.6,1.6,1,1.9,2.7
				c0.4,3-2,5-3.6,6.8c-0.8,0.2-1.3-0.2-1.5,0.7c-1.7,0.2-2.6,2.6-4,2.3c-0.2,0.3-0.4,0.6-0.5,1c-0.6-0.6-0.7,0-1.3-0.6
				c-0.9,1.6-4.1,0.4-4.2,2.5c0-0.3,0.3,1,0.3,1.1c1,1.9,3.8,2.5,6.7,2.2c1.3-0.1,2.7-1,4.2-1.5c1-0.3,2.1-0.4,2.8-0.6
				c0.2-0.1,0.7-0.9,0.9-0.9c0.3-0.1,0.7,0.4,0.9,0.3c1.3-0.3,0.9-1.4,1.7-1.7C719.4,323.5,719.5,324.5,719.7,326.2z M702.3,318.2
				c2.9,0,3.4-1.6,5.8-1.9c0.6-1,2-1.8,2.7-1.6c0.6-1.4,2.9-1.6,2.8-3.6c-5-1.7-7.9,1.7-10.6,4.8C702.9,316.3,702.1,318,702.3,318.2
				z"/>
			<path class="st26" d="M733.5,314.7c0,2.1,0.3,2-1.1,3.4c2.9,3.7,5.7,6,8.5,9.8c-0.3,0.6-1.1,2.5-2.2,2.2c-3-0.9-5.9-7.8-8.9-8.5
				c-1.8,0.9-2.9,3.2-3.8,4.9c-1,1.7-1.9,4.6-3.6,5c0.2,0-1.2-0.1-0.8,0c-1.3-0.4-1-1.6-1.6-2.4c1.3-1.3,0.2-2.9,1.8-3.7
				c0.2-0.5-0.3-0.4-0.2-0.8c0.6-0.2,0.9-0.6,1.4-1c0-0.2-0.4-0.1-0.6-0.2c1.5-1.5,1.7-4.1,3.8-5.2c-1.4-3.3-5.2-5.6-6.4-8.8
				c-0.7-0.3-1.3-1.3-0.6-2c4-0.4,4.5,2.2,5.2,3.7c1.6,1.5,2.9,3.2,4.6,4.7c0.2-0.5,0.6-1.3,0.6-1.7c2.9,0,0.7-4.2,3.2-4.2
				c-0.3-0.4,0.9-3.6,2.1-4.1c1.3,0.3,3.6,0.9,3.3,2C735.5,309.9,736.4,312,733.5,314.7z"/>
			<path class="st26" d="M754,308.4c-1.2,2.1-4.2,2.3-6.3,3.2c-0.6,4.1-0.7,9.3-0.4,14.1c0,0.3,1.4,0.7,1.4,1
				c1.8-0.9,2.9-0.4,4.3,0.2c-0.3,2.7-3.4,3.3-5.6,3.6c-0.4-0.7-1.1-0.7-1.6-0.7c-3.9-3.7-1.1-12.3-1.8-17.2
				c-0.6-0.3-1.6,0.4-2.3,0.5c-1.2-0.6-1.7-1.8-2.3-3c0.9-0.8,2.2-1.3,3.6-1.3c1.1-0.4,0.7-1.7,1-3.4c0.3-1.9,1-2.9,1.1-4.9
				c1,0,1.9,0.3,2.9,0.7c1.1,1.6-0.2,4.3-0.2,5.8C750.1,306.1,752.7,305.7,754,308.4z"/>
			<path class="st26" d="M759.1,330.4c-1.9-0.4-2.9-1.8-2.5-3.2c-0.3-0.7-0.8-1.6-0.4-2.2c-0.6-2.9-1.5-8.3-2.7-11.1
				c0.2-0.8,0-1-0.3-1.9c0.7,0.2,1.2-2.3,3.6-1.9c0.5,0.1,1.1,4,1.2,4.1c1-0.2,1.8-2.7,2.1-3.6c1.8,0,2.6-2.3,4.1-1.6
				c2.1-1.1,2.7-0.7,4.5,0.4c0.8,0.7,0.6,2,0.8,2.5c-0.5,0-0.7,0.2-1.1,0.7c-2.8-0.7-6.5,0.9-8.2,7.3c-0.3,1,0.1,1.8,0.5,2.3
				c0,0.2-0.3,1-0.3,1c0,1.6,1.3,3.6,0.4,6.3C760.2,329.7,759.6,330,759.1,330.4z"/>
			<path class="st26" d="M775.5,307.9c0.4,0.2,1.1-0.5,1.4,0.4c0-0.8,0.6-0.2,0.7-0.8c0.7,0,1.2,0.1,1.5,0.4c1.4-1,5,0.3,5.2,2.3
				c2.3,0.2,2,1.1,3.6,2c-0.1,4.2-0.9,8.2-0.2,12.5c0.2-0.3,0.3-0.6,0.6-0.9c0.5-0.1,0.1,1,0.5,1.1c0.9,0.2,0.7-1.2,0.7-1.9
				c0.4,0.2,0.6,0.3,0.5,1c0.2-0.3,0.3,0,0.5-0.7c0.6-0.6,0.3,0.2,0.4,0.7c0.5,0,0.6,1.3,0.8,2.3c-1.9,1.9-1,4.2-4.2,4.8
				c-1.1-1.3-1.4-1.9-2.6-3c-0.7-1.3-0.2-3.3-1-4.9c-0.2,1-1,2.9-1.4,2.2c-2.2,3.7-5.6,6.7-10.3,4.6c-1.5-2.3-3.2-4.4-4.1-7.4
				c0.3-2.2,0.2-3.9,0.3-6.2c0.4,0.1,0.5-0.1,0.7-0.2c-0.1-0.4,0.2-1.3-0.2-1.3c0.5-0.6,0.7-0.1,1.5-0.3c0-0.3-0.7-0.3-0.7-0.9
				c-0.2-0.6,0.7-0.3,1-0.4c-1.2-1.9,1-0.7,0.9-2.9c0.5,0.3,0.8,0,0.7-0.4c0.3-0.6,1.1,0.2,1.1-1
				C774.1,309.5,775.4,308.7,775.5,307.9z M780.3,322.2c0.4-1.7,1.8-3.5,2.9-4.6c0.3-1.9,0.4-2.9,0.6-4.9c-1.1,0-1.8-1.3-2.9-1.5
				c-0.3,0-0.7-0.3-1.1-0.3c-1.9,0-1.8,0.2-3.2,1.5c0,0-0.2-0.3-0.4-0.2c-0.9,0.5-2.1,1.9-2,3.2c-1.8,0.9-1.9,4.4-1.7,5.8
				c-0.3,0-0.3,0.5-0.6,0.5c0.4,1.3-0.2,2.7,0.6,3.6c0.6-0.5,1.7,1.9,2.5,1.9C776.9,325.7,778,325.8,780.3,322.2z"/>
		</g>
	</g>
</g>
</svg>
