<svg xmlns="http://www.w3.org/2000/svg" viewBox="0 0 948.13946 888.3933"><defs><style>.cls-1{isolation:isolate;}.cls-2{fill:#a36c6c;opacity:0.42;}.cls-11,.cls-3{fill:#9db6fc;}.cls-11,.cls-12,.cls-13,.cls-14,.cls-15,.cls-3,.cls-4,.cls-7{stroke:#83a3e5;}.cls-11,.cls-12,.cls-13,.cls-14,.cls-15,.cls-3,.cls-4,.cls-7,.cls-8{stroke-miterlimit:10;}.cls-3,.cls-4,.cls-7{stroke-width:5.18807px;}.cls-12,.cls-4{fill:#83a3e5;}.cls-5{fill:#83a9ed;}.cls-6{fill:#595959;opacity:0.4;}.cls-17,.cls-6{mix-blend-mode:overlay;}.cls-13,.cls-15,.cls-7{fill:none;}.cls-8{fill:#ffb583;stroke:#f4aa73;stroke-width:6.14767px;}.cls-9{fill:#6c92d3;}.cls-10{fill:#8eadf4;}.cls-11{stroke-width:4.74047px;}.cls-12,.cls-13,.cls-14{stroke-width:4.81569px;}.cls-14{fill:#6f95d8;}.cls-15{stroke-width:4.8157px;}.cls-16{fill:#ffc69c;}.cls-18{fill:#bababa;}.cls-19{fill:#728df2;}.cls-20{fill:#b0e1ff;}</style></defs><g class="cls-1"><g id="Layer_2" data-name="Layer 2"><g id="box_2-success"><path class="cls-2" d="M802.74179,613.49907H188.617c-45.32969,0-68.492,25.61135-80.9028,51.34586L71.40345,740.13734c-38.207,79.22469-44.12621,148.256,84.10661,148.256H835.144c100.25475,0,111.64952-37.07441,73.44244-116.2991l-32.64108-60.61915C863.53447,685.74054,848.07147,613.49907,802.74179,613.49907Z"/><path class="cls-3" d="M856.60958,84.384c-14.12634-41.5033-53.92591-71.26659-104.83913-71.26659h-570.618c-49.79407,0-88.95723,28.46952-103.8704,68.54707l-22.64957,54.359,17.8448,2.20761,34.10241,4.21885,754.16752-6.27818,17.811-.14828S867.09626,107.01185,856.60958,84.384Z"/><path class="cls-4" d="M768.43282,64.52914H163.64057c-74.03174,0-125.90933,59.36639-115.74216,128.79365l21.793,148.81527c8.72188,59.558,68.3548,106.37207,132.86039,106.37207H729.52155c64.5056,0,124.13852-46.81407,132.8604-106.37207l21.793-148.81527C894.34215,123.89553,842.46456,64.52914,768.43282,64.52914Z"/><path class="cls-5" d="M749.25348,94.98854H182.81991c-66.28783,0-112.7389,53.15652-103.63524,115.32151l17.43809,122.8721c7.80955,53.32809,61.20471,95.24529,118.96286,95.24529H716.48777c57.75814,0,111.15331-41.9172,118.96286-95.24529l17.43809-122.8721C861.99238,148.14506,815.54131,94.98854,749.25348,94.98854Z"/><path class="cls-6" d="M80.002,216.06906C325.71655,202.41115,619.40014,249.39631,828.6912,357.0278a96.20068,96.20068,0,0,0,6.75944-23.84567L852.88874,210.31c9.10362-62.165-37.3474-115.32152-103.63529-115.32152H182.81989c-66.28782,0-112.73884,53.15651-103.63522,115.32152Z"/><path class="cls-7" d="M749.25348,94.98854H182.81991c-66.28783,0-112.7389,53.15652-103.63524,115.32151l17.43809,122.8721c7.80955,53.32809,61.20471,95.24529,118.96286,95.24529H716.48777c57.75814,0,111.15331-41.9172,118.96286-95.24529l17.43809-122.8721C861.99238,148.14506,815.54131,94.98854,749.25348,94.98854Z"/><path class="cls-8" d="M314.5622,47.258H217.44062a11.04412,11.04412,0,0,1-10.05468-15.61315l10.04081-22.096a11.04412,11.04412,0,0,1,10.05468-6.47508h92.10118a11.04412,11.04412,0,0,1,10.76963,13.49108l-5.02041,22.096A11.04411,11.04411,0,0,1,314.5622,47.258Z"/><rect class="cls-9" x="581.06938" y="441.81861" width="161.76842" height="18.62207"/><rect class="cls-9" x="197.15534" y="441.81861" width="161.76842" height="18.62207"/><path class="cls-10" d="M835.45064,291.67528c-7.80959,53.32814-61.20473,95.24534-118.96289,95.24534H215.58565c-57.75816,0-111.1533-41.9172-118.96289-95.24534L80.03728,174.81084A103.302,103.302,0,0,0,79.18467,210.31L96.62276,333.18216c7.80959,53.32807,61.20473,95.24527,118.96289,95.24527h500.9021c57.75816,0,111.1533-41.9172,118.96289-95.24527L852.88874,210.31a103.302,103.302,0,0,0-.85262-35.49917Z"/><path class="cls-8" d="M617.77894,47.258h97.12158A11.04412,11.04412,0,0,0,724.9552,31.64488l-10.04081-22.096a11.04412,11.04412,0,0,0-10.05468-6.47508H612.75853A11.04412,11.04412,0,0,0,601.9889,16.56492l5.0204,22.096A11.04413,11.04413,0,0,0,617.77894,47.258Z"/><path class="cls-11" d="M3.96221,706.42344S23.4521,807.34046,32.423,826.00652c14.95152,31.11006,52.33866,52.67154,104.00194,52.67154H811.87343c51.66328,0,89.05042-21.56148,104.00195-52.67154,8.97092-18.66606,28.46081-119.58308,28.46081-119.58308Z"/><path class="cls-12" d="M118.78041,778.05574l710.57867,0c86.98089,0,135.07136-56.71233,109.53787-119.46506L888.86723,535.63449c-18.41832-45.266-85.329-79.41668-150.1253-79.41668l-529.34443,0c-64.79628,0-131.707,34.15064-150.12529,79.41667L9.24251,658.59068C-16.291,721.3434,31.79951,778.05574,118.78041,778.05574Z"/><path class="cls-13" d="M145.7329,748.5914l656.67368,0c76.84833,0,120.30343-49.58813,98.67851-104.80415L862.04952,542.62544C846.01408,501.7121,786.03429,470.719,727.5724,470.719l-507.00537,0c-58.46189,0-118.44168,30.99311-134.47711,71.90646L47.05437,643.78724C25.42945,699.00327,68.88457,748.5914,145.7329,748.5914Z"/><polygon class="cls-9" points="197.269 447.707 359.037 447.707 358.226 461.025 195.317 461.025 197.269 447.707"/><polygon class="cls-9" points="581.183 447.707 742.951 447.707 744.847 461.025 581.938 461.025 581.183 447.707"/><path class="cls-10" d="M901.08505,638.89327l-39.03553-97.12761c-16.03545-39.28172-76.01524-69.03889-134.47713-69.03889H220.567c-58.46189,0-118.44168,29.7571-134.47706,69.03889L47.05435,638.8932c-8.18177,20.0578-7.04093,39.33938,1.69325,55.56427a64.23085,64.23085,0,0,0,3.94326,6.38473L79.6241,633.28139c16.43266-40.588,77.47352-71.31616,136.87388-71.31616H731.64143c59.40036,0,120.44122,30.72811,136.87388,71.31616l26.93324,67.56087a64.2122,64.2122,0,0,0,3.94332-6.38473C908.12605,678.23264,909.26683,658.951,901.08505,638.89327Z"/><path class="cls-14" d="M145.73289,739.51788l656.67369,0c76.84833,0,120.30342-47.6106,98.6785-100.62465l-39.03557-97.12757c-16.03543-39.28176-76.01522-69.03889-134.47712-69.03889l-507.00536,0c-58.4619,0-118.44169,29.75713-134.47711,69.03888L47.05436,638.89323C25.42945,691.90728,68.88456,739.51788,145.73289,739.51788Z"/><path class="cls-5" d="M220.567,472.72677c-58.46189,0-118.44168,29.7571-134.47706,69.03889L47.05435,638.8932c-8.18177,20.0578-7.04093,39.33938,1.69325,55.56427a64.23085,64.23085,0,0,0,3.94326,6.38473L79.6241,633.28139c16.43266-40.588,77.47352-71.31616,136.87388-71.31616H488.622L399.3835,472.72677Z"/><path class="cls-10" d="M868.51526,633.28143l26.93335,67.5608a64.21907,64.21907,0,0,0,3.94323-6.38467c8.73414-16.22494,9.875-35.50659,1.69325-55.56427l-39.03564-97.12766c-16.03533-39.28168-76.01517-69.03887-134.47709-69.03887H399.38347L488.622,561.96522H731.64142C791.04173,561.96522,852.08263,592.69336,868.51526,633.28143Z"/><path class="cls-15" d="M145.7329,748.5914l656.67368,0c76.84833,0,120.30343-49.58813,98.67851-104.80415L862.04952,542.62544C846.01408,501.7121,786.03429,470.719,727.5724,470.719l-507.00537,0c-58.46189,0-118.44168,30.99311-134.47711,71.90646L47.05437,643.78724C25.42945,699.00327,68.88457,748.5914,145.7329,748.5914Z"/><path class="cls-16" d="M790.13216,798.65337l2.146,19.21955A2.66711,2.66711,0,0,0,793.67,819.9283l17.04922,9.128a2.66715,2.66715,0,0,1-.1583,4.78083l-17.61571,7.98017a2.66713,2.66713,0,0,0-1.5247,1.95881l-3.41274,19.03548a2.66714,2.66714,0,0,1-4.59576,1.3268l-13.03315-14.28753a2.66715,2.66715,0,0,0-2.3341-.84477l-19.15841,2.63658a2.66714,2.66714,0,0,1-2.682-3.96082l9.56078-16.81035a2.66713,2.66713,0,0,0,.08215-2.48091l-8.42781-17.406a2.66715,2.66715,0,0,1,2.93817-3.77473l18.942,3.89816a2.66711,2.66711,0,0,0,2.38486-.68851l13.94975-13.39407A2.66714,2.66714,0,0,1,790.13216,798.65337Z"/><g class="cls-17"><circle class="cls-18" cx="167.55456" cy="808.75647" r="14.14"/><circle class="cls-18" cx="133.89793" cy="840.83688" r="19.51663"/></g><g class="cls-17"><circle class="cls-18" cx="663.42375" cy="808.92218" r="14.14"/><circle class="cls-18" cx="697.08038" cy="841.00258" r="19.51663"/></g><g class="cls-17"><circle class="cls-18" cx="845.38293" cy="812.49987" r="14.14"/></g><path class="cls-19" d="M261.87577,832.148c26.18759-21.261,33.95515-24.08283,35.8951-22.25888,2.14251,2.0144-3.94882,8.63758-4.14624,21.209-.21231,13.508,6.58381,20.9173,4.28246,23.088C295.93639,856.04481,288.12191,853.283,261.87577,832.148Z"/><path class="cls-19" d="M239.15165,849.80429a22.2469,22.2469,0,0,0,6.40113,5.35055c5.36892,2.96012,13.13021,4.21124,14.68048,1.62654.38445-.641,1.002-2.54351-3.15345-7.74933Z"/><path class="cls-19" d="M228.11707,816.43314c3.98939-4.17144,14.45481-13.89878,28.12637-13.30056,5.00912.21919,14.7965,2.01474,15.49526,6.73342.6419,4.33468-6.75323,8.6552-7.62224,9.15163a71.51142,71.51142,0,0,0-35.99939-2.58449Z"/><path class="cls-20" d="M279.97539,830.96609c.36081,3.88919-2.78144,7.78041-7.28891,8.25539a30.43619,30.43619,0,0,1-9.02429,8.00107c-19.49631,11.145-51.77292-1.31071-53.05341-13.56587-1.0324-9.88188,17.62827-24.03927,36.18147-23.0621,14.83756.78149,24.453,10.97112,26.89386,13.72307A7.80143,7.80143,0,0,1,279.97539,830.96609Z"/></g></g></g></svg>