<?xml version="1.0" encoding="utf-8"?>
<!-- Generator: Adobe Illustrator 27.3.0, SVG Export Plug-In . SVG Version: 6.00 Build 0)  -->
<svg version="1.1" id="Layer_1" xmlns="http://www.w3.org/2000/svg" xmlns:xlink="http://www.w3.org/1999/xlink" x="0px" y="0px"
	 viewBox="0 0 948.1 888.9" style="enable-background:new 0 0 948.1 888.9;" xml:space="preserve">
<style type="text/css">
	.st0{opacity:0.42;fill:#A36C6C;enable-background:new    ;}
	.st1{fill:#FFA1A1;stroke:#F4848D;stroke-width:4.7404;stroke-miterlimit:10;}
	.st2{fill:#FFA1A1;stroke:#F4848D;stroke-width:5.1881;stroke-miterlimit:10;}
	.st3{fill:#F4848D;stroke:#F4848D;stroke-width:5.1881;stroke-miterlimit:10;}
	.st4{fill:#F99B9B;}
	.st5{fill:#F88F8F;}
	.st6{fill:none;stroke:#F4848D;stroke-width:5.1881;stroke-miterlimit:10;}
	.st7{fill:#FFB583;stroke:#F4AA73;stroke-width:6.1477;stroke-miterlimit:10;}
	.st8{fill:#E2717F;}
	.st9{fill:#FFA1A1;}
	.st10{fill:#FCF2EB;}
	.st11{fill:#FFC69C;}
	.st12{fill:#EA5959;}
	.st13{fill:#FCE5B4;}
	.st14{fill:#7874AF;stroke:#7571AD;stroke-width:5.188;stroke-miterlimit:10;}
	.st15{fill:#F4848D;stroke:#F27A88;stroke-width:4.8157;stroke-miterlimit:10;}
	.st16{fill:#E0707E;}
	.st17{opacity:0.42;fill:#766FA6;enable-background:new    ;}
	.st18{fill:#F29191;}
</style>
<g id="Layer_1_00000173843122304515659660000004915526539785627570_">
	<g>
		<g id="Layer_2_00000081627815614547506540000018217450786073256333_">
			<g id="box_3-success">
				<path class="st0" d="M802.7,614H188.5c-45.3,0-68.5,25.6-80.9,51.3l-36.3,75.3c-38.2,79.2-44.1,148.3,84.1,148.3H835
					c100.3,0,111.6-37.1,73.4-116.3L875.8,712C863.5,686.2,848,614,802.7,614z"/>
				<path class="st1" d="M4,706.4c0,0,19.5,100.9,28.5,119.6c15,31.1,52.3,52.7,104,52.7h675.4c51.7,0,89.1-21.6,104-52.7
					c9-18.7,28.5-119.6,28.5-119.6H4z"/>
				<path class="st2" d="M856.6,84.4c-14.1-41.5-53.9-71.3-104.8-71.3H181.2c-49.8,0-89,28.5-103.9,68.5L54.6,136l17.8,2.2l34.1,4.2
					l754.2-6.3l17.8-0.1C878.6,136,867.1,107,856.6,84.4z"/>
				<path class="st3" d="M768.4,64.5H163.6c-74,0-125.9,59.4-115.7,128.8l21.8,148.8c8.7,59.6,68.4,106.4,132.9,106.4h527
					c64.5,0,124.1-46.8,132.9-106.4l21.8-148.8C894.3,123.9,842.5,64.5,768.4,64.5z"/>
				<path class="st4" d="M749.3,95H182.8c-66.3,0-112.7,53.2-103.6,115.3l17.4,122.9c7.8,53.3,61.2,95.2,119,95.2h500.9
					c57.8,0,111.2-41.9,119-95.2l17.4-122.9C862,148.1,815.5,95,749.3,95z"/>
				<path class="st5" d="M80,216.1c245.7-13.7,539.4,33.3,748.7,141c3.3-7.6,5.5-15.6,6.8-23.8l17.4-122.9
					C862,148.1,815.5,95,749.3,95H182.8c-66.3,0-112.7,53.2-103.6,115.3L80,216.1z"/>
				<path class="st6" d="M749.3,95H182.8c-66.3,0-112.7,53.2-103.6,115.3l17.4,122.9c7.8,53.3,61.2,95.2,119,95.2h500.9
					c57.8,0,111.2-41.9,119-95.2l17.4-122.9C862,148.1,815.5,95,749.3,95z"/>
				<path class="st7" d="M314.6,47.3h-97.1c-6.1,0-11-4.9-11-11c0-1.6,0.3-3.1,1-4.6l10-22.1c1.8-3.9,5.7-6.5,10.1-6.5h92.1
					c6.1,0,11,4.9,11,11c0,0.8-0.1,1.6-0.3,2.4l-5,22.1C324.2,43.7,319.7,47.3,314.6,47.3z"/>
				<rect x="581.1" y="441.8" class="st8" width="161.8" height="18.6"/>
				<rect x="197.2" y="441.8" class="st8" width="161.8" height="18.6"/>
				<path class="st9" d="M835.5,291.7c-7.8,53.3-61.2,95.2-119,95.2H215.6c-57.8,0-111.2-41.9-119-95.2L80,174.8
					c-2.3,11.7-2.6,23.7-0.9,35.5l17.4,122.9c7.8,53.3,61.2,95.2,119,95.2h500.9c57.8,0,111.2-41.9,119-95.2l17.4-122.9
					c1.8-11.8,1.5-23.8-0.9-35.5L835.5,291.7z"/>
				<path class="st7" d="M617.8,47.3h97.1c6.1,0,11-4.9,11-11c0-1.6-0.3-3.1-1-4.6l-10-22.1c-1.8-3.9-5.7-6.5-10.1-6.5h-92.1
					c-6.1,0-11,4.9-11,11c0,0.8,0.1,1.6,0.3,2.4l5,22.1C608.2,43.7,612.6,47.3,617.8,47.3z"/>
				<polygon class="st8" points="197.3,447.7 359,447.7 358.2,461 195.3,461 				"/>
				<polygon class="st8" points="581.2,447.7 743,447.7 744.8,461 581.9,461 				"/>
				
					<ellipse transform="matrix(0.9959 -9.046985e-02 9.046985e-02 0.9959 -73.0652 17.0735)" class="st10" cx="151.8" cy="814.5" rx="7.2" ry="17.8"/>
				
					<ellipse transform="matrix(0.9959 -9.046895e-02 9.046895e-02 0.9959 -76.1366 17.4939)" class="st10" cx="154.9" cy="848.6" rx="7.2" ry="17.8"/>
				
					<ellipse transform="matrix(0.9959 -9.046895e-02 9.046895e-02 0.9959 -74.3902 18.8197)" class="st10" cx="170.4" cy="830" rx="17.8" ry="7.2"/>
				
					<ellipse transform="matrix(0.9959 -9.046895e-02 9.046895e-02 0.9959 -74.8108 15.7475)" class="st10" cx="136.3" cy="833.1" rx="17.8" ry="7.2"/>
				
					<ellipse transform="matrix(0.4063 -0.9137 0.9137 0.4063 -650.3477 630.8169)" class="st10" cx="160.3" cy="815.9" rx="17.8" ry="7.2"/>
				
					<ellipse transform="matrix(0.4063 -0.9137 0.9137 0.4063 -687.1689 636.613)" class="st10" cx="146.3" cy="847.1" rx="17.8" ry="7.2"/>
				
					<ellipse transform="matrix(0.4063 -0.9137 0.9137 0.4063 -665.7979 652.1707)" class="st10" cx="169" cy="838.4" rx="7.2" ry="17.8"/>
				
					<ellipse transform="matrix(0.4063 -0.9137 0.9137 0.4063 -671.7045 615.3708)" class="st10" cx="137.7" cy="824.6" rx="7.2" ry="17.8"/>
				
					<ellipse transform="matrix(0.8352 -0.5499 0.5499 0.8352 -424.4841 227.6111)" class="st10" cx="167.6" cy="822.1" rx="17.8" ry="7.2"/>
				
					<ellipse transform="matrix(0.8352 -0.5499 0.5499 0.8352 -439.5012 215.0202)" class="st10" cx="139" cy="840.9" rx="17.8" ry="7.2"/>
				
					<ellipse transform="matrix(0.8352 -0.5499 0.5499 0.8352 -438.327 228.8279)" class="st10" cx="162.7" cy="845.8" rx="7.2" ry="17.8"/>
				
					<ellipse transform="matrix(0.8352 -0.5499 0.5499 0.8352 -425.7008 213.7666)" class="st10" cx="143.8" cy="817.2" rx="7.2" ry="17.8"/>
				<circle class="st11" cx="153.3" cy="831.5" r="14.1"/>
				
					<ellipse transform="matrix(0.3107 -0.9505 0.9505 0.3107 -611.7667 767.0695)" class="st12" cx="223" cy="805.3" rx="11.8" ry="10.5"/>
				
					<ellipse transform="matrix(0.3107 -0.9505 0.9505 0.3107 -640.2528 776.2896)" class="st12" cx="215.1" cy="829.6" rx="11.8" ry="10.5"/>
				
					<ellipse transform="matrix(0.3107 -0.9505 0.9505 0.3107 -630.6172 757.439)" class="st12" cx="206.9" cy="813.5" rx="10.5" ry="11.8"/>
				
					<ellipse transform="matrix(0.3107 -0.9505 0.9505 0.3107 -621.4023 785.9257)" class="st12" cx="231.2" cy="821.4" rx="10.5" ry="11.8"/>
				<circle class="st11" cx="219" cy="817.4" r="12.8"/>
				
					<ellipse transform="matrix(0.4063 -0.9137 0.9137 0.4063 -611.0248 739.754)" class="st13" cx="263.8" cy="840.1" rx="10" ry="4.1"/>
				
					<ellipse transform="matrix(0.4063 -0.9137 0.9137 0.4063 -632.4201 743.1278)" class="st13" cx="255.7" cy="858.2" rx="10" ry="4.1"/>
				
					<ellipse transform="matrix(0.4063 -0.9137 0.9137 0.4063 -623.4095 730.7435)" class="st13" cx="250.6" cy="845.1" rx="4.1" ry="10"/>
				
					<ellipse transform="matrix(0.4063 -0.9137 0.9137 0.4063 -620.0355 752.1385)" class="st13" cx="268.8" cy="853.2" rx="4.1" ry="10"/>
				
					<ellipse transform="matrix(9.046895e-02 -0.9959 0.9959 9.046895e-02 -64.8099 1552.762)" class="st10" cx="817.7" cy="811.9" rx="17.8" ry="7.2"/>
				
					<ellipse transform="matrix(9.046895e-02 -0.9959 0.9959 9.046895e-02 -101.6096 1580.5978)" class="st10" cx="814.5" cy="845.9" rx="17.8" ry="7.2"/>
				
					<ellipse transform="matrix(9.046895e-02 -0.9959 0.9959 9.046895e-02 -97.1406 1548.3745)" class="st10" cx="799.1" cy="827.4" rx="7.2" ry="17.8"/>
				
					<ellipse transform="matrix(9.046895e-02 -0.9959 0.9959 9.046895e-02 -69.1973 1585.0925)" class="st10" cx="833.2" cy="830.4" rx="7.2" ry="17.8"/>
				
					<ellipse transform="matrix(0.9137 -0.4063 0.4063 0.9137 -260.6396 398.935)" class="st10" cx="809.2" cy="813.3" rx="7.2" ry="17.8"/>
				
					<ellipse transform="matrix(0.9137 -0.4063 0.4063 0.9137 -272.1207 407.2651)" class="st10" cx="823" cy="844.5" rx="7.2" ry="17.8"/>
				
					<ellipse transform="matrix(0.9137 -0.4063 0.4063 0.9137 -270.5742 397.3549)" class="st10" cx="800.5" cy="835.9" rx="17.8" ry="7.2"/>
				
					<ellipse transform="matrix(0.9137 -0.4063 0.4063 0.9137 -262.2197 408.8696)" class="st10" cx="831.8" cy="822" rx="17.8" ry="7.2"/>
				
					<ellipse transform="matrix(0.5499 -0.8352 0.8352 0.5499 -323.6042 1038.5125)" class="st10" cx="801.8" cy="819.5" rx="7.2" ry="17.8"/>
				
					<ellipse transform="matrix(0.5499 -0.8352 0.8352 0.5499 -326.4267 1070.8309)" class="st10" cx="830.4" cy="838.3" rx="7.2" ry="17.8"/>
				
					<ellipse transform="matrix(0.5499 -0.8352 0.8352 0.5499 -341.1747 1053.2605)" class="st10" cx="806.7" cy="843.2" rx="17.8" ry="7.2"/>
				
					<ellipse transform="matrix(0.5499 -0.8352 0.8352 0.5499 -308.8561 1056.083)" class="st10" cx="825.5" cy="814.6" rx="17.8" ry="7.2"/>
				<circle class="st11" cx="816.1" cy="828.9" r="14.1"/>
				
					<ellipse transform="matrix(0.9137 -0.4063 0.4063 0.9137 -266.4342 367.0446)" class="st13" cx="731.2" cy="811" rx="6.1" ry="15"/>
				
					<ellipse transform="matrix(0.9137 -0.4063 0.4063 0.9137 -276.4015 374.2877)" class="st13" cx="743.2" cy="838.1" rx="6.1" ry="15"/>
				
					<ellipse transform="matrix(0.9137 -0.4063 0.4063 0.9137 -267.7963 375.6498)" class="st13" cx="750.8" cy="818.5" rx="15" ry="6.1"/>
				
					<ellipse transform="matrix(0.9137 -0.4063 0.4063 0.9137 -275.0638 365.6489)" class="st13" cx="723.6" cy="830.6" rx="15" ry="6.1"/>
				<path class="st14" d="M726.2,474.1H196.7c-39.1,0-79,14.9-89.7,34.3l-31.3,56.8c-33,59.8,34.6,116.3,156.2,116.3h459
					c121.7,0,189.2-56.5,156.3-116.3l-31.3-56.8C805.2,489,765.3,474.1,726.2,474.1z"/>
				<path class="st15" d="M118.8,778.1h710.6c87,0,135.1-56.7,109.5-119.5l-50-123c-18.4-45.3-85.3-79.4-150.1-79.4H209.4
					c-64.8,0-131.7,34.2-150.1,79.4l-50,123C-16.3,721.3,31.8,778.1,118.8,778.1z"/>
				<g>
					<path class="st8" d="M802.4,741.9H145.7c-43.4,0-78.3-14.9-95.7-40.8c-12.4-18.4-14.2-40.8-5.1-63.1l39-97.1
						c16.2-39.5,76.3-70.5,136.7-70.5h507c60.6,0,120.6,31,136.7,70.5l39,97.1c9.1,22.2,7.2,44.6-5.2,63.1
						C880.7,727,845.8,741.9,802.4,741.9z M220.6,475.2c-58.6,0-116.8,29.7-132.3,67.5l-39,97.1c-8.5,20.8-6.9,41.6,4.6,58.7
						c16.3,24.2,50.6,38.7,91.8,38.7h656.7c41.2,0,75.5-14.5,91.8-38.7c11.5-17.1,13.2-37.9,4.7-58.7l-39-97.1
						c-15.4-37.9-73.5-67.5-132.3-67.5H220.6z"/>
					<path class="st16" d="M145.7,739.5h656.7c76.8,0,120.3-47.6,98.7-100.6l-39-97.1c-16-39.3-76-69-134.5-69h-507
						c-58.5,0-118.4,29.8-134.5,69l-39,97.1C25.4,691.9,68.9,739.5,145.7,739.5z"/>
				</g>
				<path class="st17" d="M220.6,472.7c-58.5,0-118.4,29.8-134.5,69l-39,97.1c-8.2,20.1-7,39.3,1.7,55.6c1.2,2.2,2.5,4.3,3.9,6.4
					l26.9-67.6c16.4-40.6,77.5-71.3,136.9-71.3h272.1l-89.2-89.2H220.6z"/>
				<path class="st18" d="M901.1,638.9l-39-97.1c-16-39.3-76-69-134.5-69h-507c-58.5,0-118.4,29.8-134.5,69l-39,97.1
					c-8.2,20.1-7,39.3,1.7,55.6c1.2,2.2,2.5,4.3,3.9,6.4l26.9-67.6C96,592.7,157.1,562,216.5,562h515.1
					c59.4,0,120.4,30.7,136.9,71.3l26.9,67.6c1.4-2,2.8-4.2,3.9-6.4C908.1,678.2,909.3,659,901.1,638.9z"/>
				<path class="st4" d="M868.5,633.3l26.9,67.6c1.4-2,2.8-4.2,3.9-6.4c8.7-16.2,9.9-35.5,1.7-55.6l-39-97.1
					c-16-39.3-76-69-134.5-69H399.4l89.2,89.2h243C791,562,852.1,592.7,868.5,633.3z"/>
			</g>
		</g>
	</g>
</g>
<g id="Layer_2_00000129194159998827540070000004278240666240733079_">
</g>
</svg>
