<svg xmlns="http://www.w3.org/2000/svg" viewBox="0 0 948.13946 888.86087"><defs><style>.cls-1{isolation:isolate;}.cls-2{fill:#a36c6c;opacity:0.42;}.cls-10,.cls-11,.cls-3{fill:#ffa1a1;}.cls-11,.cls-12,.cls-13,.cls-14,.cls-16,.cls-3,.cls-4,.cls-7{stroke:#f4848d;}.cls-11,.cls-12,.cls-13,.cls-14,.cls-16,.cls-3,.cls-4,.cls-7,.cls-8{stroke-miterlimit:10;}.cls-3,.cls-4,.cls-7{stroke-width:5.18807px;}.cls-12,.cls-4{fill:#f4848d;}.cls-5{fill:#f99b9b;}.cls-6{fill:#595959;mix-blend-mode:overlay;opacity:0.4;}.cls-13,.cls-16,.cls-7{fill:none;}.cls-8{fill:#ffb583;stroke:#f4aa73;stroke-width:6.14767px;}.cls-9{fill:#e2717f;}.cls-11{stroke-width:4.74047px;}.cls-12,.cls-13,.cls-14{stroke-width:4.81569px;}.cls-14{fill:#e0707e;}.cls-15{fill:#f29191;}.cls-16{stroke-width:4.8157px;}.cls-17{fill:#fcf2eb;}.cls-18{fill:#ffc69c;}.cls-19{fill:#ea5959;}.cls-20{fill:#fce5b4;}</style></defs><g class="cls-1"><g id="Layer_2" data-name="Layer 2"><g id="box_3-success"><path class="cls-2" d="M802.66232,613.96664H188.53751c-45.32968,0-68.492,25.61135-80.90279,51.34586L71.324,740.60491c-38.207,79.22469-44.12621,148.256,84.10661,148.256H835.06453c100.25475,0,111.64952-37.07441,73.44244-116.2991l-32.64109-60.61915C863.455,686.20811,847.992,613.96664,802.66232,613.96664Z"/><path class="cls-3" d="M856.60958,84.384c-14.12634-41.5033-53.92591-71.26659-104.83913-71.26659h-570.618c-49.79407,0-88.95723,28.46952-103.8704,68.54707l-22.64957,54.359,17.8448,2.20761,34.10241,4.21885,754.16752-6.27818,17.811-.14828S867.09626,107.01185,856.60958,84.384Z"/><path class="cls-4" d="M768.43282,64.52914H163.64057c-74.03174,0-125.90933,59.36639-115.74216,128.79365l21.793,148.81527c8.72188,59.558,68.3548,106.37207,132.86039,106.37207H729.52155c64.5056,0,124.13852-46.81407,132.8604-106.37207l21.793-148.81527C894.34215,123.89553,842.46456,64.52914,768.43282,64.52914Z"/><path class="cls-5" d="M749.25348,94.98854H182.81991c-66.28783,0-112.7389,53.15652-103.63524,115.32151l17.43809,122.8721c7.80955,53.32809,61.20471,95.24529,118.96286,95.24529H716.48777c57.75814,0,111.15331-41.9172,118.96286-95.24529l17.43809-122.8721C861.99238,148.14506,815.54131,94.98854,749.25348,94.98854Z"/><path class="cls-6" d="M80.002,216.06906C325.71655,202.41115,619.40014,249.39631,828.6912,357.0278a96.20068,96.20068,0,0,0,6.75944-23.84567L852.88874,210.31c9.10362-62.165-37.3474-115.32152-103.63529-115.32152H182.81989c-66.28782,0-112.73884,53.15651-103.63522,115.32152Z"/><path class="cls-7" d="M749.25348,94.98854H182.81991c-66.28783,0-112.7389,53.15652-103.63524,115.32151l17.43809,122.8721c7.80955,53.32809,61.20471,95.24529,118.96286,95.24529H716.48777c57.75814,0,111.15331-41.9172,118.96286-95.24529l17.43809-122.8721C861.99238,148.14506,815.54131,94.98854,749.25348,94.98854Z"/><path class="cls-8" d="M314.5622,47.258H217.44062a11.04412,11.04412,0,0,1-10.05468-15.61315l10.04081-22.096a11.04412,11.04412,0,0,1,10.05468-6.47508h92.10118a11.04412,11.04412,0,0,1,10.76963,13.49108l-5.02041,22.096A11.04411,11.04411,0,0,1,314.5622,47.258Z"/><rect class="cls-9" x="581.06938" y="441.81861" width="161.76842" height="18.62207"/><rect class="cls-9" x="197.15534" y="441.81861" width="161.76842" height="18.62207"/><path class="cls-10" d="M835.45064,291.67528c-7.80959,53.32814-61.20473,95.24534-118.96289,95.24534H215.58565c-57.75816,0-111.1533-41.9172-118.96289-95.24534L80.03728,174.81084A103.302,103.302,0,0,0,79.18467,210.31L96.62276,333.18216c7.80959,53.32807,61.20473,95.24527,118.96289,95.24527h500.9021c57.75816,0,111.1533-41.9172,118.96289-95.24527L852.88874,210.31a103.302,103.302,0,0,0-.85262-35.49917Z"/><path class="cls-8" d="M617.77894,47.258h97.12158A11.04412,11.04412,0,0,0,724.9552,31.64488l-10.04081-22.096a11.04412,11.04412,0,0,0-10.05468-6.47508H612.75853A11.04412,11.04412,0,0,0,601.9889,16.56492l5.0204,22.096A11.04413,11.04413,0,0,0,617.77894,47.258Z"/><path class="cls-11" d="M3.96221,706.42344S23.4521,807.34046,32.423,826.00652c14.95152,31.11006,52.33866,52.67154,104.00194,52.67154H811.87343c51.66328,0,89.05042-21.56148,104.00195-52.67154,8.97092-18.66606,28.46081-119.58308,28.46081-119.58308Z"/><path class="cls-12" d="M118.78041,778.05574l710.57867,0c86.98089,0,135.07136-56.71233,109.53787-119.46506L888.86723,535.63449c-18.41832-45.266-85.329-79.41668-150.1253-79.41668l-529.34443,0c-64.79628,0-131.707,34.15064-150.12529,79.41667L9.24251,658.59068C-16.291,721.3434,31.79951,778.05574,118.78041,778.05574Z"/><path class="cls-13" d="M145.7329,748.5914l656.67368,0c76.84833,0,120.30343-49.58813,98.67851-104.80415L862.04952,542.62544C846.01408,501.7121,786.03429,470.719,727.5724,470.719l-507.00537,0c-58.46189,0-118.44168,30.99311-134.47711,71.90646L47.05437,643.78724C25.42945,699.00327,68.88457,748.5914,145.7329,748.5914Z"/><polygon class="cls-9" points="197.269 447.707 359.037 447.707 358.226 461.025 195.317 461.025 197.269 447.707"/><polygon class="cls-9" points="581.183 447.707 742.951 447.707 744.847 461.025 581.938 461.025 581.183 447.707"/><path class="cls-14" d="M145.73289,739.51788l656.67369,0c76.84833,0,120.30342-47.6106,98.6785-100.62465l-39.03557-97.12757c-16.03543-39.28176-76.01522-69.03889-134.47712-69.03889l-507.00536,0c-58.4619,0-118.44169,29.75713-134.47711,69.03888L47.05436,638.89323C25.42945,691.90728,68.88456,739.51788,145.73289,739.51788Z"/><path class="cls-15" d="M220.567,472.72677c-58.46189,0-118.44168,29.7571-134.47706,69.03889L47.05435,638.8932c-8.18177,20.0578-7.04093,39.33938,1.69325,55.56427a64.23085,64.23085,0,0,0,3.94326,6.38473L79.6241,633.28139c16.43266-40.588,77.47352-71.31616,136.87388-71.31616H488.622L399.3835,472.72677Z"/><path class="cls-5" d="M868.51526,633.28143l26.93335,67.5608a64.21907,64.21907,0,0,0,3.94323-6.38467c8.73414-16.22494,9.875-35.50659,1.69325-55.56427l-39.03564-97.12766c-16.03533-39.28168-76.01517-69.03887-134.47709-69.03887H399.38347L488.622,561.96522H731.64142C791.04173,561.96522,852.08263,592.69336,868.51526,633.28143Z"/><path class="cls-16" d="M145.7329,748.5914l656.67368,0c76.84833,0,120.30343-49.58813,98.67851-104.80415L862.04952,542.62544C846.01408,501.7121,786.03429,470.719,727.5724,470.719l-507.00537,0c-58.46189,0-118.44168,30.99311-134.47711,71.90646L47.05437,643.78724C25.42945,699.00327,68.88457,748.5914,145.7329,748.5914Z"/><ellipse class="cls-17" cx="151.78781" cy="814.48704" rx="7.24685" ry="17.83839" transform="matrix(0.9959, -0.09047, 0.09047, 0.9959, -73.0634, 17.07209)"/><ellipse class="cls-17" cx="154.88237" cy="848.55251" rx="7.24685" ry="17.83839" transform="translate(-76.13258 17.49174) rotate(-5.19059)"/><ellipse class="cls-17" cx="170.36782" cy="829.97249" rx="17.83839" ry="7.24685" transform="translate(-74.38817 18.8165) rotate(-5.19059)"/><ellipse class="cls-17" cx="136.30235" cy="833.06705" rx="17.83839" ry="7.24685" transform="translate(-74.80782 15.74732) rotate(-5.19059)"/><ellipse class="cls-17" cx="160.28414" cy="815.89227" rx="17.83839" ry="7.24685" transform="translate(-650.35066 630.84517) rotate(-66.02681)"/><ellipse class="cls-17" cx="146.38603" cy="847.14728" rx="17.83839" ry="7.24685" transform="translate(-687.16065 636.70179) rotate(-66.02681)"/><ellipse class="cls-17" cx="168.96259" cy="838.46882" rx="7.24685" ry="17.83839" transform="translate(-665.82734 652.17848) rotate(-66.02681)"/><ellipse class="cls-17" cx="137.70758" cy="824.57072" rx="7.24685" ry="17.83839" transform="matrix(0.40631, -0.91374, 0.91374, 0.40631, -671.68396, 615.36848)"/><ellipse class="cls-17" cx="167.61944" cy="822.11417" rx="17.83839" ry="7.24685" transform="translate(-424.49254 227.66367) rotate(-33.36309)"/><ellipse class="cls-17" cx="139.05073" cy="840.92538" rx="17.83839" ry="7.24685" transform="translate(-439.54568 215.05256) rotate(-33.36309)"/><ellipse class="cls-17" cx="162.74069" cy="845.80413" rx="7.24685" ry="17.83839" transform="matrix(0.8352, -0.54994, 0.54994, 0.8352, -438.32467, 228.88469)"/><ellipse class="cls-17" cx="143.92948" cy="817.23542" rx="7.24685" ry="17.83839" transform="translate(-425.71355 213.83154) rotate(-33.36309)"/><circle class="cls-18" cx="153.33393" cy="831.50707" r="14.07852"/><ellipse class="cls-19" cx="222.99841" cy="805.29454" rx="11.7759" ry="10.50998" transform="matrix(0.31066, -0.95052, 0.95052, 0.31066, -611.72788, 767.08957)"/><ellipse class="cls-19" cx="215.06775" cy="829.56075" rx="11.7759" ry="10.50998" transform="translate(-640.26039 776.27906) rotate(-71.90121)"/><ellipse class="cls-19" cx="206.89998" cy="813.46232" rx="10.50998" ry="11.7759" transform="translate(-630.5889 757.41835) rotate(-71.90123)"/><ellipse class="cls-19" cx="231.16618" cy="821.39297" rx="10.50998" ry="11.7759" transform="translate(-621.3994 785.95087) rotate(-71.90123)"/><circle class="cls-18" cx="219.03308" cy="817.42765" r="12.76464"/><ellipse class="cls-20" cx="263.78518" cy="840.09827" rx="10.01435" ry="4.06833" transform="translate(-611.02092 739.78865) rotate(-66.02681)"/><ellipse class="cls-20" cx="255.72494" cy="858.22469" rx="10.01435" ry="4.06833" transform="translate(-632.36896 743.18521) rotate(-66.02681)"/><ellipse class="cls-20" cx="250.69186" cy="845.13136" rx="4.06833" ry="10.01435" transform="translate(-623.39322 730.81291) rotate(-66.02681)"/><ellipse class="cls-20" cx="268.81827" cy="853.1916" rx="4.06833" ry="10.01435" transform="translate(-619.99666 752.16095) rotate(-66.02681)"/><ellipse class="cls-17" cx="817.67998" cy="811.88195" rx="17.83839" ry="7.24685" transform="translate(-64.84737 1552.75869) rotate(-84.80941)"/><ellipse class="cls-17" cx="814.58542" cy="845.94743" rx="17.83839" ry="7.24685" transform="translate(-101.58775 1580.66042) rotate(-84.80941)"/><ellipse class="cls-17" cx="799.09997" cy="827.36741" rx="7.24685" ry="17.83839" transform="translate(-97.16842 1548.33936) rotate(-84.80941)"/><ellipse class="cls-17" cx="833.16544" cy="830.46197" rx="7.24685" ry="17.83839" transform="translate(-69.26669 1585.07974) rotate(-84.80941)"/><ellipse class="cls-17" cx="809.18365" cy="813.28719" rx="7.24685" ry="17.83839" transform="translate(-260.64231 398.93632) rotate(-23.97319)"/><ellipse class="cls-17" cx="823.08175" cy="844.54219" rx="7.24685" ry="17.83839" transform="translate(-272.14259 407.27943) rotate(-23.97319)"/><ellipse class="cls-17" cx="800.5052" cy="835.86374" rx="17.83839" ry="7.24685" transform="translate(-270.56401 397.35773) rotate(-23.97319)"/><ellipse class="cls-17" cx="831.76021" cy="821.96564" rx="17.83839" ry="7.24685" transform="translate(-262.22089 408.85802) rotate(-23.97319)"/><ellipse class="cls-17" cx="801.84835" cy="819.50909" rx="7.24685" ry="17.83839" transform="translate(-323.57829 1038.53145) rotate(-56.63691)"/><ellipse class="cls-17" cx="830.41706" cy="838.32029" rx="7.24685" ry="17.83839" transform="translate(-326.4319 1070.85822) rotate(-56.63691)"/><ellipse class="cls-17" cx="806.7271" cy="843.19905" rx="17.83839" ry="7.24685" transform="translate(-341.16848 1053.26803) rotate(-56.63691)"/><ellipse class="cls-17" cx="825.5383" cy="814.63033" rx="17.83839" ry="7.24685" transform="translate(-308.84171 1056.12164) rotate(-56.63691)"/><circle class="cls-18" cx="816.13386" cy="828.90199" r="14.07852"/><ellipse class="cls-20" cx="731.18734" cy="810.9919" rx="6.09532" ry="15.00387" transform="translate(-266.43801 367.04771) rotate(-23.97319)"/><ellipse class="cls-20" cx="743.26348" cy="838.14954" rx="6.09532" ry="15.00387" transform="translate(-276.43067 374.29709) rotate(-23.97319)"/><ellipse class="cls-20" cx="750.80424" cy="818.53265" rx="15.00387" ry="6.09532" transform="translate(-267.80965 375.66873) rotate(-23.97319)"/><ellipse class="cls-20" cx="723.64659" cy="830.60879" rx="15.00387" ry="6.09532" transform="translate(-275.05903 365.67607) rotate(-23.97319)"/></g></g></g></svg>