<svg xmlns="http://www.w3.org/2000/svg" viewBox="0 0 436.78472 365.76293"><defs><style>.cls-1{fill:#ffb583;stroke:#f4aa73;stroke-width:5.97484px;}.cls-1,.cls-2{stroke-miterlimit:10;}.cls-2{fill:#ffa1a1;stroke:#fc8b8b;stroke-width:5.0422px;}.cls-3{fill:#f4848d;}.cls-4{fill:#fcf2eb;}.cls-5{fill:#ffc69c;}.cls-6{fill:#ea5959;}.cls-7{fill:#fce5b4;}</style></defs><g id="Layer_2" data-name="Layer 2"><g id="box3"><path class="cls-1" d="M135.198,19.58813V65.42156h34.07092V38.9979a10.44158,10.44158,0,0,1,10.44158-10.44157h77.36374A10.44157,10.44157,0,0,1,267.5158,38.9979V65.42156h34.07093V19.58813A16.60072,16.60072,0,0,0,284.986,2.98742H151.79871A16.60072,16.60072,0,0,0,135.198,19.58813Z"/><rect class="cls-2" x="2.5211" y="65.42157" width="431.74252" height="297.82026" rx="46.50797"/><rect class="cls-3" x="27.0708" y="89.66739" width="382.64311" height="249.32862" rx="15.49537"/><ellipse class="cls-4" cx="79.01047" cy="122.3284" rx="7.70431" ry="18.96445" transform="translate(-10.74293 7.64964) rotate(-5.19059)"/><ellipse class="cls-4" cx="82.30037" cy="158.54426" rx="7.70431" ry="18.96445" transform="translate(-14.00585 8.09578) rotate(-5.19059)"/><ellipse class="cls-4" cx="98.76335" cy="138.79137" rx="18.96445" ry="7.70431" transform="translate(-12.15132 9.50417) rotate(-5.19059)"/><ellipse class="cls-4" cx="62.54749" cy="142.08128" rx="18.96445" ry="7.70431" transform="translate(-12.59746 6.24125) rotate(-5.19059)"/><ellipse class="cls-4" cx="88.04313" cy="123.82233" rx="18.96445" ry="7.70431" transform="translate(-60.87048 153.96035) rotate(-66.02681)"/><ellipse class="cls-4" cx="73.26771" cy="157.05032" rx="18.96445" ry="7.70431" transform="translate(-100.00411 160.18667) rotate(-66.02681)"/><ellipse class="cls-4" cx="97.26942" cy="147.82404" rx="7.70431" ry="18.96445" transform="translate(-77.32413 176.64033) rotate(-66.02681)"/><ellipse class="cls-4" cx="64.04143" cy="133.04861" rx="7.70431" ry="18.96445" transform="translate(-83.55045 137.50669) rotate(-66.02681)"/><ellipse class="cls-4" cx="95.84148" cy="130.43699" rx="18.96445" ry="7.70431" transform="translate(-55.93844 74.20306) rotate(-33.36309)"/><ellipse class="cls-4" cx="65.46936" cy="150.43566" rx="18.96445" ry="7.70431" transform="translate(-71.94182 60.79587) rotate(-33.36309)"/><ellipse class="cls-4" cx="90.65476" cy="155.62239" rx="7.70431" ry="18.96445" transform="translate(-70.64373 75.50115) rotate(-33.36309)"/><ellipse class="cls-4" cx="70.65609" cy="125.25027" rx="7.70431" ry="18.96445" transform="translate(-57.23653 59.49777) rotate(-33.36309)"/><circle class="cls-5" cx="80.6542" cy="140.42282" r="14.96723"/><ellipse class="cls-4" cx="355.33831" cy="255.16137" rx="7.70431" ry="18.96445" transform="translate(-21.62705 33.19346) rotate(-5.19059)"/><ellipse class="cls-4" cx="358.62821" cy="291.37723" rx="7.70431" ry="18.96445" transform="translate(-24.88997 33.6396) rotate(-5.19059)"/><ellipse class="cls-4" cx="375.09119" cy="271.62435" rx="18.96445" ry="7.70431" transform="translate(-23.03544 35.04799) rotate(-5.19059)"/><ellipse class="cls-4" cx="338.87533" cy="274.91425" rx="18.96445" ry="7.70431" transform="translate(-23.48159 31.78507) rotate(-5.19059)"/><ellipse class="cls-4" cx="364.37097" cy="256.65531" rx="18.96445" ry="7.70431" transform="translate(-18.19138 485.31269) rotate(-66.02681)"/><ellipse class="cls-4" cx="349.59555" cy="289.88329" rx="18.96445" ry="7.70431" transform="translate(-57.32501 491.53901) rotate(-66.02681)"/><ellipse class="cls-4" cx="373.59725" cy="280.65701" rx="7.70431" ry="18.96445" transform="translate(-34.64503 507.99267) rotate(-66.02681)"/><ellipse class="cls-4" cx="340.36927" cy="265.88159" rx="7.70431" ry="18.96445" transform="translate(-40.87136 468.85903) rotate(-66.02681)"/><ellipse class="cls-4" cx="372.16932" cy="263.26997" rx="18.96445" ry="7.70431" transform="translate(-83.45078 248.05817) rotate(-33.36309)"/><ellipse class="cls-4" cx="341.7972" cy="283.26863" rx="18.96445" ry="7.70431" transform="matrix(0.8352, -0.54994, 0.54994, 0.8352, -99.45416, 234.65097)"/><ellipse class="cls-4" cx="366.98259" cy="288.45536" rx="7.70431" ry="18.96445" transform="translate(-98.15607 249.35626) rotate(-33.36309)"/><ellipse class="cls-4" cx="346.98393" cy="258.08324" rx="7.70431" ry="18.96445" transform="translate(-84.74888 233.35288) rotate(-33.36309)"/><circle class="cls-5" cx="356.98203" cy="273.2558" r="14.96723"/><ellipse class="cls-4" cx="207.05192" cy="188.23313" rx="7.70431" ry="18.96445" transform="translate(-16.1802 19.50368) rotate(-5.19059)"/><ellipse class="cls-4" cx="210.34182" cy="224.449" rx="7.70431" ry="18.96445" transform="translate(-19.44313 19.94982) rotate(-5.19059)"/><ellipse class="cls-4" cx="226.8048" cy="204.69611" rx="18.96445" ry="7.70431" transform="translate(-17.58859 21.35821) rotate(-5.19059)"/><ellipse class="cls-4" cx="190.58894" cy="207.98602" rx="18.96445" ry="7.70431" transform="translate(-18.03474 18.09529) rotate(-5.19059)"/><ellipse class="cls-4" cx="216.08458" cy="189.72707" rx="18.96445" ry="7.70431" transform="translate(-45.07295 310.08344) rotate(-66.02681)"/><ellipse class="cls-4" cx="201.30916" cy="222.95506" rx="18.96445" ry="7.70431" transform="translate(-84.20658 316.30976) rotate(-66.02681)"/><ellipse class="cls-4" cx="225.31086" cy="213.72878" rx="7.70431" ry="18.96445" transform="translate(-61.5266 332.76341) rotate(-66.02681)"/><ellipse class="cls-4" cx="192.08288" cy="198.95335" rx="7.70431" ry="18.96445" transform="translate(-67.75292 293.62978) rotate(-66.02681)"/><ellipse class="cls-4" cx="223.88293" cy="196.34173" rx="18.96445" ry="7.70431" transform="translate(-71.08134 155.4795) rotate(-33.36309)"/><ellipse class="cls-4" cx="193.51081" cy="216.3404" rx="18.96445" ry="7.70431" transform="matrix(0.8352, -0.54994, 0.54994, 0.8352, -87.08472, 142.0723)"/><ellipse class="cls-4" cx="218.6962" cy="221.52712" rx="7.70431" ry="18.96445" transform="translate(-85.78663 156.77759) rotate(-33.36309)"/><ellipse class="cls-4" cx="198.69754" cy="191.15501" rx="7.70431" ry="18.96445" transform="translate(-72.37943 140.77421) rotate(-33.36309)"/><circle class="cls-5" cx="208.69564" cy="206.32756" r="14.96723"/><ellipse class="cls-4" cx="184.14017" cy="283.57649" rx="13.37324" ry="5.43288" transform="matrix(0.20654, -0.97844, 0.97844, 0.20654, -131.35463, 405.17527)"/><ellipse class="cls-4" cx="178.84364" cy="308.6672" rx="13.37324" ry="5.43288" transform="translate(-160.10688 419.90134) rotate(-78.08014)"/><ellipse class="cls-4" cx="194.03726" cy="298.77011" rx="5.43288" ry="13.37324" transform="translate(-138.36772 426.91444) rotate(-78.08014)"/><ellipse class="cls-4" cx="168.94655" cy="293.47359" rx="5.43288" ry="13.37324" transform="translate(-153.09379 398.16218) rotate(-78.08014)"/><ellipse class="cls-4" cx="189.9179" cy="286.45738" rx="13.37324" ry="5.43288" transform="translate(-150.80612 241.35985) rotate(-48.91636)"/><ellipse class="cls-4" cx="173.06591" cy="305.78631" rx="13.37324" ry="5.43288" transform="translate(-171.15285 235.28438) rotate(-48.91636)"/><ellipse class="cls-4" cx="191.15637" cy="304.54784" rx="5.43288" ry="13.37324" transform="translate(-164.01722 248.49548) rotate(-48.91636)"/><ellipse class="cls-4" cx="171.82744" cy="287.69586" rx="5.43288" ry="13.37324" transform="translate(-157.94175 228.14875) rotate(-48.91636)"/><ellipse class="cls-4" cx="193.80133" cy="292.53336" rx="13.37324" ry="5.43288" transform="translate(-74.12738 65.93034) rotate(-16.25264)"/><ellipse class="cls-4" cx="169.18248" cy="299.71034" rx="13.37324" ry="5.43288" transform="translate(-77.11986 59.32699) rotate(-16.25264)"/><ellipse class="cls-4" cx="185.08039" cy="308.43128" rx="5.43288" ry="13.37324" transform="matrix(0.96004, -0.27987, 0.27987, 0.96004, -78.92529, 64.12491)"/><ellipse class="cls-4" cx="177.90342" cy="283.81242" rx="5.43288" ry="13.37324" transform="translate(-72.32195 61.13242) rotate(-16.25264)"/><circle class="cls-5" cx="181.49388" cy="296.1125" r="10.55451"/><ellipse class="cls-6" cx="76.17927" cy="219.39433" rx="16.40226" ry="14.639" transform="translate(-156.02551 223.64816) rotate(-71.90121)"/><ellipse class="cls-6" cx="65.13291" cy="253.19392" rx="16.40226" ry="14.639" transform="matrix(0.31066, -0.95052, 0.95052, 0.31066, -195.76751, 236.44789)"/><ellipse class="cls-6" cx="53.75629" cy="230.77096" rx="14.639" ry="16.40226" transform="translate(-182.29639 210.17711) rotate(-71.90123)"/><ellipse class="cls-6" cx="87.55589" cy="241.8173" rx="14.639" ry="16.40226" transform="translate(-169.49664 249.91911) rotate(-71.90123)"/><circle class="cls-5" cx="70.65609" cy="236.29413" r="17.77944"/><ellipse class="cls-6" cx="349.40576" cy="123.52303" rx="14.639" ry="16.40226" transform="translate(-21.08542 114.65678) rotate(-18.09879)"/><ellipse class="cls-6" cx="360.45211" cy="157.32262" rx="14.639" ry="16.40226" transform="translate(-31.03893 119.76073) rotate(-18.09879)"/><ellipse class="cls-6" cx="371.82873" cy="134.89965" rx="16.40226" ry="14.639" transform="translate(-23.5102 122.18537) rotate(-18.09877)"/><ellipse class="cls-6" cx="338.02913" cy="145.946" rx="16.40226" ry="14.639" transform="matrix(0.95052, -0.31066, 0.31066, 0.95052, -28.61414, 112.23187)"/><circle class="cls-5" cx="354.92893" cy="140.42282" r="17.77944"/><ellipse class="cls-6" cx="183.40114" cy="123.19063" rx="8.53921" ry="9.56776" transform="translate(-29.19569 63.06993) rotate(-18.09879)"/><ellipse class="cls-6" cx="189.84469" cy="142.9066" rx="8.53921" ry="9.56776" transform="translate(-35.00177 66.04717) rotate(-18.09879)"/><ellipse class="cls-6" cx="196.4809" cy="129.82684" rx="9.56776" ry="8.53921" transform="translate(-30.61009 67.46151) rotate(-18.09877)"/><ellipse class="cls-6" cx="176.76493" cy="136.27039" rx="9.56776" ry="8.53921" transform="translate(-33.58732 61.65544) rotate(-18.09877)"/><circle class="cls-5" cx="186.62291" cy="133.04861" r="10.3711"/><ellipse class="cls-6" cx="276.71494" cy="243.25857" rx="9.56776" ry="8.53921" transform="translate(-88.89686 288.79863) rotate(-48.41863)"/><ellipse class="cls-6" cx="262.94859" cy="258.77392" rx="9.56776" ry="8.53921" transform="translate(-105.13242 283.71929) rotate(-48.41863)"/><ellipse class="cls-6" cx="277.58944" cy="257.89942" rx="8.53921" ry="9.56776" transform="translate(-99.55433 294.37661) rotate(-48.41861)"/><ellipse class="cls-6" cx="262.07409" cy="244.13306" rx="8.53921" ry="9.56776" transform="translate(-94.47498 278.14106) rotate(-48.41861)"/><circle class="cls-5" cx="269.83176" cy="251.01624" r="10.3711"/><ellipse class="cls-7" cx="141.626" cy="178.40958" rx="8.51981" ry="3.46117" transform="translate(-78.93714 235.32888) rotate(-66.02681)"/><ellipse class="cls-7" cx="134.76867" cy="193.83081" rx="8.51981" ry="3.46117" transform="translate(-97.0992 238.21854) rotate(-66.02681)"/><ellipse class="cls-7" cx="130.48672" cy="182.69153" rx="3.46117" ry="8.51981" transform="translate(-89.463 227.69268) rotate(-66.02681)"/><ellipse class="cls-7" cx="145.90795" cy="189.54886" rx="3.46117" ry="8.51981" transform="translate(-86.57334 245.85474) rotate(-66.02681)"/><ellipse class="cls-7" cx="312.20185" cy="197.64309" rx="3.46117" ry="8.51981" transform="translate(-53.37231 143.89999) rotate(-23.97319)"/><ellipse class="cls-7" cx="319.05918" cy="213.06431" rx="3.46117" ry="8.51981" transform="translate(-59.04655 148.01649) rotate(-23.97319)"/><ellipse class="cls-7" cx="323.34113" cy="201.92504" rx="8.51981" ry="3.46117" transform="translate(-54.15118 148.79536) rotate(-23.97319)"/><ellipse class="cls-7" cx="307.9199" cy="208.78236" rx="8.51981" ry="3.46117" transform="translate(-58.26768 143.12112) rotate(-23.97319)"/><ellipse class="cls-7" cx="285.4759" cy="302.39957" rx="8.51981" ry="3.46117" transform="translate(-106.82883 440.3814) rotate(-66.02681)"/><ellipse class="cls-7" cx="278.61857" cy="317.8208" rx="8.51981" ry="3.46117" transform="translate(-124.99089 443.27106) rotate(-66.02681)"/><ellipse class="cls-7" cx="274.33662" cy="306.68152" rx="3.46117" ry="8.51981" transform="translate(-117.35469 432.7452) rotate(-66.02681)"/><ellipse class="cls-7" cx="289.75785" cy="313.53885" rx="3.46117" ry="8.51981" transform="translate(-114.46503 450.90726) rotate(-66.02681)"/><ellipse class="cls-7" cx="92.58402" cy="291.86339" rx="5.91075" ry="14.54954" transform="translate(-171.65895 137.16467) rotate(-42.05363)"/><ellipse class="cls-7" cx="111.88944" cy="313.26392" rx="5.91075" ry="14.54954" transform="translate(-181.02278 155.60619) rotate(-42.05363)"/><ellipse class="cls-7" cx="91.53646" cy="312.21637" rx="14.54954" ry="5.91075" transform="translate(-185.56163 141.70351) rotate(-42.05363)"/><ellipse class="cls-7" cx="112.93699" cy="292.91094" rx="14.54954" ry="5.91075" transform="translate(-167.12011 151.06735) rotate(-42.05363)"/><ellipse class="cls-7" cx="264.61701" cy="122.22534" rx="5.91075" ry="14.54954" transform="translate(-13.73564 208.71811) rotate(-42.05363)"/><ellipse class="cls-7" cx="283.92243" cy="143.62587" rx="5.91075" ry="14.54954" transform="translate(-23.09947 227.15963) rotate(-42.05363)"/><ellipse class="cls-7" cx="263.56945" cy="142.57832" rx="14.54954" ry="5.91075" transform="translate(-27.63831 213.25696) rotate(-42.05363)"/><ellipse class="cls-7" cx="284.96999" cy="123.27289" rx="14.54954" ry="5.91075" transform="translate(-9.19679 222.62079) rotate(-42.05363)"/></g></g></svg>