<?xml version="1.0" encoding="UTF-8"?>
<svg id="Layer_2" data-name="Layer 2" xmlns="http://www.w3.org/2000/svg" xmlns:xlink="http://www.w3.org/1999/xlink" viewBox="0 0 948.12 197.1">
  <defs>
    <style>
      .cls-1 {
        clip-path: url(#clippath-1);
      }

      .cls-2 {
        fill: #8dc4a4;
        stroke: #83a3e5;
        stroke-miterlimit: 10;
        stroke-width: 4.74px;
      }

      .cls-3 {
        fill: #83a3e5;
      }

      .cls-4 {
        clip-path: url(#clippath);
      }

      .cls-5 {
        fill: none;
      }

      .cls-6 {
        fill: #c1dfcd;
      }

      .cls-7 {
        fill: #f7e8e7;
      }

      .cls-8 {
        fill: #68ab77;
      }

      .cls-9 {
        fill: #76b28e;
      }
    </style>
    <clipPath id="clippath">
      <path class="cls-5" d="m120.46,155.43c2.29,18.04,14.23,25.3,27.62,23.61,13.38-1.7,23.14-11.71,20.85-29.75s-15.75-37.27-29.13-35.57c-13.38,1.7-21.62,23.68-19.34,41.71Z"/>
    </clipPath>
    <clipPath id="clippath-1">
      <path class="cls-5" d="m837.31,156.32c-2.89,22.79-17.98,31.97-34.89,29.83-16.91-2.14-29.23-14.8-26.34-37.58s19.89-47.08,36.8-44.94c16.91,2.14,27.32,29.91,24.43,52.7Z"/>
    </clipPath>
  </defs>
  <g id="box_1-success" data-name="box 1-success">
    <path class="cls-2" d="m891.04,32.48c-17.39,20.03-48.46,33.08-88.66,33.08H145.68c-40.2,0-71.27-13.05-88.64-33.08L3.95,22.48s19.49,100.92,28.46,119.58c14.95,31.11,52.34,52.67,104,52.67h675.45c51.66,0,89.05-21.56,104-52.67,8.97-18.67,28.46-119.58,28.46-119.58l-53.28,10h0Z"/>
    <path class="cls-9" d="m893,20.11c-1.29,1.62-2.65,3.21-4.11,4.74h52.55c-3.23,16.46-19.81,99.74-27.72,116.19-15.45,32.14-53.53,51.33-101.87,51.33H136.41c-48.34,0-86.42-19.19-101.87-51.33C26.64,124.58,10.06,41.3,6.82,24.85h52.36c-1.46-1.54-2.82-3.12-4.11-4.74H1.08l.54,2.82c.8,4.13,19.65,101.43,28.65,120.16,16.26,33.82,55.93,54.01,106.14,54.01h675.45c50.21,0,89.88-20.19,106.14-54.01,9-18.73,27.85-116.03,28.65-120.16l.54-2.82s-54.19,0-54.19,0Z"/>
    <path class="cls-9" d="m945.32.02h-41.51c-10.2,32.19-47.65,55.53-101.43,55.53H145.68C91.9,55.55,54.46,32.21,44.29.02H2.79C-2.36,51.9,43.73,94.11,118.76,94.11h710.58c75.04,0,121.12-42.21,115.97-94.09h0Z"/>
    <path class="cls-9" d="m942.88.02c1.75,17.17-2.22,33.61-11.79,47.83-18.75,27.87-55.83,43.85-101.75,43.85H118.76c-45.92,0-83-15.98-101.75-43.85C7.45,33.63,3.48,17.19,5.23.02H.38c-1.74,18.1,2.5,35.46,12.64,50.52,19.66,29.22,58.2,45.97,105.75,45.97h710.58c47.55,0,86.09-16.76,105.75-45.97,10.13-15.06,14.38-32.42,12.64-50.52h-4.86Z"/>
    <path class="cls-3" d="m145.68,57.91h656.7c43.42,0,78.3-14.85,95.71-40.75,3.64-5.41,6.35-11.16,8.17-17.14h-2.46c-10.2,32.19-47.65,55.53-101.43,55.53H145.68C91.9,55.55,54.46,32.21,44.29.02h-2.45c1.8,5.98,4.51,11.72,8.14,17.12,17.39,25.91,52.27,40.77,95.71,40.77h-.01Z"/>
  </g>
  <path class="cls-9" d="m145.68,57.89h656.7c43.42,0,78.3-14.85,95.71-40.75,3.64-5.41,6.35-11.16,8.17-17.14h-2.46c-10.2,32.19-47.65,55.53-101.43,55.53H145.68c-53.78,0-91.22-23.34-101.39-55.53h-2.45c1.8,5.98,4.51,11.72,8.14,17.12,17.39,25.91,52.27,40.77,95.71,40.77h0Z"/>
  <g>
    <path class="cls-7" d="m120.46,155.43c2.29,18.04,14.23,25.3,27.62,23.61,13.38-1.7,23.14-11.71,20.85-29.75s-15.75-37.27-29.13-35.57c-13.38,1.7-21.62,23.68-19.34,41.71Z"/>
    <g class="cls-4">
      <g>
        <path class="cls-8" d="m160.96,114.84c-6.6-1.91-14.21,2.13-15.44,7.25-.83,3.45,1.41,6.62,4.82,11.42,3.09,4.36,4.88,6.88,7.65,7.21,5.44.65,13.17-7.33,12-15.48-.77-4.91-4.27-8.95-9.02-10.41Z"/>
        <path class="cls-8" d="m131.74,121.67c2.64-2.05,7.09-1.67,8.53.84,1.41,2.46-.54,6.1-3.13,7.62-1.89,1.11-5.03,1.62-6.75-.11-2.04-2.04-1.24-6.34,1.35-8.35Z"/>
        <path class="cls-8" d="m135.18,141.2c3.45-1.17,8.49-.54,11.2,2.91,3.14,3.99,1.46,9.6-.33,12.56-4.01,6.58-14.13,9-17.82,5.63-4.46-4.09-1.23-18.33,6.95-21.09Z"/>
        <path class="cls-8" d="m172.89,150.14c-2.02-2.59-5.75-3.05-8.33-1.03-2.59,2.02-3.05,5.75-1.03,8.33,2.02,2.59,5.75,3.05,8.33,1.03.13-.1.25-.2.36-.31,2.18-2.14,2.47-5.56.67-8.03Z"/>
        <path class="cls-8" d="m155.59,161.72c1.57-.14,4.72-.39,6.69,1.56,2.98,2.95,1.73,9.38-.51,13.06-5.99,9.81-25.55,10.64-28.18,5.5-2.6-5.09,9.93-19.01,22-20.11Z"/>
        <path class="cls-8" d="m118.5,136.82c1.98-1.37,5.06-.29,6.25,1.85,1.3,2.34.25,5.73-2.06,6.52-1.94.66-4.17-.72-5.13-2.48-1-1.84-.9-4.63.94-5.89Z"/>
      </g>
    </g>
    <path class="cls-7" d="m837.31,156.32c-2.89,22.79-17.98,31.97-34.89,29.83-16.91-2.14-29.23-14.8-26.34-37.58s19.89-47.08,36.8-44.94c16.91,2.14,27.32,29.91,24.43,52.7Z"/>
    <g class="cls-1">
      <g>
        <path class="cls-8" d="m786.15,105.04c8.34-2.41,17.95,2.69,19.51,9.16,1.05,4.36-1.78,8.36-6.08,14.43-3.9,5.51-6.16,8.69-9.67,9.11-6.88.82-16.64-9.27-15.15-19.55.97-6.2,5.39-11.31,11.39-13.15Z"/>
        <path class="cls-8" d="m823.06,113.67c-3.33-2.59-8.95-2.11-10.78,1.07-1.78,3.1.69,7.7,3.95,9.62,2.39,1.4,6.35,2.04,8.53-.14,2.57-2.58,1.56-8.02-1.7-10.55Z"/>
        <path class="cls-8" d="m818.71,138.35c-4.36-1.47-10.72-.68-14.15,3.68-3.96,5.04-1.85,12.13.42,15.86,5.06,8.32,17.86,11.37,22.51,7.11,5.64-5.17,1.56-23.15-8.78-26.65Z"/>
        <path class="cls-8" d="m771.07,149.64c2.55-3.27,7.26-3.85,10.53-1.3s3.85,7.26,1.3,10.53-7.26,3.85-10.53,1.3c-.16-.12-.31-.25-.46-.39-2.76-2.7-3.12-7.02-.84-10.14Z"/>
        <path class="cls-8" d="m792.93,164.27c-1.99-.18-5.97-.49-8.46,1.97-3.77,3.72-2.19,11.85.65,16.5,7.56,12.4,32.28,13.44,35.6,6.94,3.29-6.44-12.54-24.01-27.79-25.41Z"/>
        <path class="cls-8" d="m839.78,132.81c-2.51-1.72-6.39-.36-7.9,2.34-1.64,2.95-.32,7.24,2.6,8.23,2.46.84,5.27-.91,6.48-3.13,1.26-2.32,1.13-5.85-1.18-7.45Z"/>
      </g>
    </g>
    <path class="cls-6" d="m719.16,170.76c7.8-2.38,22.43-8.96,21.8-15.96-.55-6.11-12.47-9.68-22.09-12.56-1.65-.49-13.16-3.94-14.12-1.82-.27.6-.1,2.54,10.92,9.72-1.37.11-22.08,1.86-22.24,5.48-.15,3.62,20.36,7.09,21.71,7.32-12.86,5.83-14.61,8.04-14.33,9,.57,1.95,10.25,1.29,18.35-1.17Z"/>
    <path class="cls-6" d="m675.14,113.45c7.63,2.88,21.8,10.39,20.72,17.34-.94,6.06-13.07,8.85-22.86,11.1-1.67.39-13.38,3.08-14.2.91-.23-.62.06-2.54,11.52-9-1.36-.2-21.92-3.28-21.84-6.9.08-3.62,20.78-5.76,22.14-5.9-12.46-6.65-14.06-8.96-13.72-9.91.69-1.91,10.31-.63,18.23,2.36Z"/>
    <path class="cls-6" d="m247.93,180.85c8.15-.27,23.99-2.83,25.2-9.75,1.06-6.04-9.53-12.58-18.08-17.86-1.46-.9-11.68-7.22-13.16-5.42-.42.51-.75,2.42,8.02,12.22-1.35-.25-21.81-3.94-22.89-.49-1.09,3.45,17.82,12.14,19.07,12.7-13.93,2.29-16.2,3.97-16.18,4.97.04,2.03,9.56,3.91,18.02,3.63Z"/>
    <path class="cls-6" d="m220.31,114.06c6.62,4.76,18.36,15.7,15.51,22.12-2.49,5.61-14.92,5.15-24.96,4.79-1.72-.06-13.73-.5-13.95-2.81-.06-.65.72-2.43,13.47-5.69-1.26-.54-20.31-8.86-19.29-12.33,1.02-3.47,21.56-.17,22.91.05-10.3-9.65-11.25-12.31-10.68-13.13,1.17-1.66,10.12,2.07,16.99,7.01Z"/>
    <path class="cls-6" d="m635.71,177.43c7.8-2.38,22.43-8.96,21.8-15.96-.55-6.11-12.47-9.68-22.09-12.56-1.65-.49-13.16-3.94-14.12-1.82-.27.6-.1,2.54,10.92,9.72-1.37.11-22.08,1.86-22.24,5.48-.15,3.62,20.36,7.09,21.71,7.32-12.86,5.83-14.61,8.04-14.33,9,.57,1.95,10.25,1.29,18.35-1.17Z"/>
    <path class="cls-6" d="m591.69,120.11c7.63,2.88,21.8,10.39,20.72,17.34-.94,6.06-13.07,8.85-22.86,11.1-1.67.39-13.38,3.08-14.2.91-.23-.62.06-2.54,11.52-9-1.36-.2-21.92-3.28-21.84-6.9.08-3.62,20.78-5.76,22.14-5.9-12.46-6.65-14.06-8.96-13.72-9.91.69-1.91,10.31-.63,18.23,2.36Z"/>
  </g>
</svg>