<?xml version="1.0" encoding="utf-8"?>
<!-- Generator: Adobe Illustrator 27.3.0, SVG Export Plug-In . SVG Version: 6.00 Build 0)  -->
<svg version="1.1" id="Layer_1" xmlns="http://www.w3.org/2000/svg" xmlns:xlink="http://www.w3.org/1999/xlink" x="0px" y="0px"
	 viewBox="0 0 948.1 888.9" style="enable-background:new 0 0 948.1 888.9;" xml:space="preserve">
<style type="text/css">
	.st0{opacity:0.42;fill:#A36C6C;enable-background:new    ;}
	.st1{fill:#8DC4A4;stroke:#76B28E;stroke-width:4.7405;stroke-miterlimit:10;}
	.st2{fill:#7874AF;stroke:#7571AD;stroke-width:5.188;stroke-miterlimit:10;}
	.st3{fill:#76B28E;stroke:#76B28E;stroke-width:4.8157;stroke-miterlimit:10;}
	.st4{fill:#76B28E;}
	.st5{fill:#66A37F;}
	.st6{opacity:0.42;fill:#766FA6;enable-background:new    ;}
	.st7{fill:#7DBA96;}
	.st8{fill:#87C19F;}
	.st9{fill:#8DC4A4;stroke:#76B28E;stroke-width:5.1881;stroke-miterlimit:10;}
	.st10{fill:#76B28E;stroke:#76B28E;stroke-width:5.1881;stroke-miterlimit:10;}
	.st11{fill:#6BB087;}
	.st12{fill:none;stroke:#76B28E;stroke-width:5.1881;stroke-miterlimit:10;}
	.st13{fill:#FFB583;stroke:#F4AA73;stroke-width:6.1477;stroke-miterlimit:10;}
	.st14{fill:#5C9974;}
	.st15{fill:#8DC4A4;}
	.st16{fill:#F7E8E7;}
	.st17{clip-path:url(#SVGID_00000079481217481553965230000001627545982579572621_);}
	.st18{fill:#68AB77;}
	.st19{clip-path:url(#SVGID_00000041981836329433897350000000939599637154155921_);}
	.st20{fill:#C1DFCD;}
</style>
<g>
	<g id="Layer_2_00000089543802222047630080000010707374351010027678_">
		<g id="box_4-success">
			<path class="st0" d="M802.7,614H188.5c-45.3,0-68.5,25.6-80.9,51.3l-36.3,75.3c-38.2,79.2-44.1,148.3,84.1,148.3H835
				c100.3,0,111.6-37.1,73.4-116.3L875.8,712C863.5,686.2,848,614,802.7,614z"/>
			<path class="st1" d="M4,706.4c0,0,19.5,100.9,28.5,119.6c15,31.1,52.3,52.7,104,52.7h675.4c51.7,0,89.1-21.6,104-52.7
				c9-18.7,28.5-119.6,28.5-119.6H4z"/>
			<path class="st2" d="M726.2,474.1H196.7c-39.1,0-79,14.9-89.7,34.3l-31.3,56.8c-33,59.8,34.6,116.3,156.2,116.3h459
				c121.7,0,189.2-56.5,156.3-116.3l-31.3-56.8C805.2,489,765.3,474.1,726.2,474.1z"/>
			<path class="st3" d="M118.8,778.1h710.6c87,0,135.1-56.7,109.5-119.5l-50-123c-18.4-45.3-85.3-79.4-150.1-79.4H209.4
				c-64.8,0-131.7,34.2-150.1,79.4l-50,123C-16.3,721.3,31.8,778.1,118.8,778.1z"/>
			<g>
				<path class="st4" d="M802.4,741.9H145.7c-43.4,0-78.3-14.9-95.7-40.8c-12.4-18.4-14.2-40.8-5.1-63.1l39-97.1
					c16.2-39.5,76.3-70.5,136.7-70.5h507c60.6,0,120.6,31,136.7,70.5l39,97.1c9.1,22.2,7.2,44.6-5.2,63.1
					C880.7,727,845.8,741.9,802.4,741.9z M220.6,475.2c-58.6,0-116.8,29.7-132.3,67.5l-39,97.1c-8.5,20.8-6.9,41.6,4.6,58.7
					c16.3,24.2,50.6,38.7,91.8,38.7h656.7c41.2,0,75.5-14.5,91.8-38.7c11.5-17.1,13.2-37.9,4.7-58.7l-39-97.1
					c-15.4-37.9-73.5-67.5-132.3-67.5H220.6z"/>
				<path class="st5" d="M145.7,739.5h656.7c76.8,0,120.3-47.6,98.7-100.6l-39-97.1c-16-39.3-76-69-134.5-69h-507
					c-58.5,0-118.4,29.8-134.5,69l-39,97.1C25.4,691.9,68.9,739.5,145.7,739.5z"/>
			</g>
			<path class="st6" d="M220.6,472.7c-58.5,0-118.4,29.8-134.5,69l-39,97.1c-8.2,20.1-7,39.3,1.7,55.6c1.2,2.2,2.5,4.3,3.9,6.4
				l26.9-67.6c16.4-40.6,77.5-71.3,136.9-71.3h272.1l-89.2-89.2H220.6z"/>
			<path class="st7" d="M901.1,638.9l-39-97.1c-16-39.3-76-69-134.5-69h-507c-58.5,0-118.4,29.8-134.5,69l-39,97.1
				c-8.2,20.1-7,39.3,1.7,55.6c1.2,2.2,2.5,4.3,3.9,6.4l26.9-67.6C96,592.7,157.1,562,216.5,562h515.1c59.4,0,120.4,30.7,136.9,71.3
				l26.9,67.6c1.4-2,2.8-4.2,3.9-6.4C908.1,678.2,909.3,659,901.1,638.9z"/>
			<path class="st8" d="M868.5,633.3l26.9,67.6c1.4-2,2.8-4.2,3.9-6.4c8.7-16.2,9.9-35.5,1.7-55.6l-39-97.1c-16-39.3-76-69-134.5-69
				H399.4l89.2,89.2h243C791,562,852.1,592.7,868.5,633.3z"/>
			<path class="st9" d="M856.6,84.4c-14.1-41.5-53.9-71.3-104.8-71.3H181.2c-49.8,0-89,28.5-103.9,68.5L54.6,136l17.8,2.2l34.1,4.2
				l754.2-6.3l17.8-0.1C878.6,136,867.1,107,856.6,84.4z"/>
			<path class="st10" d="M768.4,64.5H163.6c-74,0-125.9,59.4-115.7,128.8l21.8,148.8c8.7,59.6,68.4,106.4,132.9,106.4h527
				c64.5,0,124.1-46.8,132.9-106.4l21.8-148.8C894.3,123.9,842.5,64.5,768.4,64.5z"/>
			<path class="st7" d="M749.3,95H182.8c-66.3,0-112.7,53.2-103.6,115.3l17.4,122.9c7.8,53.3,61.2,95.2,119,95.2h500.9
				c57.8,0,111.2-41.9,119-95.2l17.4-122.9C862,148.1,815.5,95,749.3,95z"/>
			<path class="st11" d="M80,216.1c245.7-13.7,539.4,33.3,748.7,141c3.3-7.6,5.5-15.6,6.8-23.8l17.4-122.9
				C862,148.1,815.5,95,749.3,95H182.8c-66.3,0-112.7,53.2-103.6,115.3L80,216.1z"/>
			<path class="st12" d="M749.3,95H182.8c-66.3,0-112.7,53.2-103.6,115.3l17.4,122.9c7.8,53.3,61.2,95.2,119,95.2h500.9
				c57.8,0,111.2-41.9,119-95.2l17.4-122.9C862,148.1,815.5,95,749.3,95z"/>
			<path class="st13" d="M314.6,47.3h-97.1c-6.1,0-11-4.9-11-11c0-1.6,0.3-3.1,1-4.6l10-22.1c1.8-3.9,5.7-6.5,10.1-6.5h92.1
				c6.1,0,11,4.9,11,11c0,0.8-0.1,1.6-0.3,2.4l-5,22.1C324.2,43.7,319.7,47.3,314.6,47.3z"/>
			<rect x="581.1" y="441.8" class="st14" width="161.8" height="18.6"/>
			<rect x="197.2" y="441.8" class="st14" width="161.8" height="18.6"/>
			<path class="st15" d="M835.5,291.7c-7.8,53.3-61.2,95.2-119,95.2H215.6c-57.8,0-111.2-41.9-119-95.2L80,174.8
				c-2.3,11.7-2.6,23.7-0.9,35.5l17.4,122.9c7.8,53.3,61.2,95.2,119,95.2h500.9c57.8,0,111.2-41.9,119-95.2l17.4-122.9
				c1.8-11.8,1.5-23.8-0.9-35.5L835.5,291.7z"/>
			<path class="st13" d="M617.8,47.3h97.1c6.1,0,11-4.9,11-11c0-1.6-0.3-3.1-1-4.6l-10-22.1c-1.8-3.9-5.7-6.5-10.1-6.5h-92.1
				c-6.1,0-11,4.9-11,11c0,0.8,0.1,1.6,0.3,2.4l5,22.1C608.2,43.7,612.6,47.3,617.8,47.3z"/>
			<polygon class="st14" points="197.3,447.7 359,447.7 358.2,461 195.3,461 			"/>
			<polygon class="st14" points="581.2,447.7 743,447.7 744.8,461 581.9,461 			"/>
			<path class="st16" d="M120.5,839.4c2.3,18,14.2,25.3,27.6,23.6c13.4-1.7,23.1-11.7,20.9-29.8s-15.7-37.3-29.1-35.6
				C126.4,799.3,118.2,821.3,120.5,839.4z"/>
			<g>
				<defs>
					<path id="SVGID_1_" d="M120.5,839.4c2.3,18,14.2,25.3,27.6,23.6c13.4-1.7,23.1-11.7,20.9-29.8s-15.7-37.3-29.1-35.6
						C126.4,799.3,118.2,821.3,120.5,839.4z"/>
				</defs>
				<clipPath id="SVGID_00000167390158147175408040000015691360964835129476_">
					<use xlink:href="#SVGID_1_"  style="overflow:visible;"/>
				</clipPath>
				<g style="clip-path:url(#SVGID_00000167390158147175408040000015691360964835129476_);">
					<path class="st18" d="M161,798.8c-6.6-1.9-14.2,2.1-15.4,7.3c-0.8,3.4,1.4,6.6,4.8,11.4c3.1,4.4,4.9,6.9,7.7,7.2
						c5.4,0.6,13.2-7.3,12-15.5C169.2,804.3,165.7,800.2,161,798.8z"/>
					<path class="st18" d="M131.7,805.6c2.6-2,7.1-1.7,8.5,0.8c1.4,2.5-0.5,6.1-3.1,7.6c-1.9,1.1-5,1.6-6.8-0.1
						C128.4,811.9,129.2,807.6,131.7,805.6z"/>
					<path class="st18" d="M135.2,825.1c3.4-1.2,8.5-0.5,11.2,2.9c3.1,4,1.5,9.6-0.3,12.6c-4,6.6-14.1,9-17.8,5.6
						C123.8,842.1,127,827.9,135.2,825.1z"/>
					<path class="st18" d="M172.9,834.1c-2-2.6-5.7-3-8.3-1c-2.6,2-3,5.7-1,8.3c2,2.6,5.7,3,8.3,1c0.1-0.1,0.2-0.2,0.4-0.3
						C174.4,840,174.7,836.5,172.9,834.1z"/>
					<path class="st18" d="M155.6,845.7c1.6-0.1,4.7-0.4,6.7,1.6c3,2.9,1.7,9.4-0.5,13.1c-6,9.8-25.6,10.6-28.2,5.5
						C131,860.7,143.5,846.8,155.6,845.7z"/>
					<path class="st18" d="M118.5,820.8c2-1.4,5.1-0.3,6.3,1.9c1.3,2.3,0.3,5.7-2.1,6.5c-1.9,0.7-4.2-0.7-5.1-2.5
						C116.6,824.8,116.7,822,118.5,820.8z"/>
				</g>
			</g>
			<path class="st16" d="M837.3,840.3c-2.9,22.8-18,32-34.9,29.8c-16.9-2.1-29.2-14.8-26.3-37.6s19.9-47.1,36.8-44.9
				C829.8,789.7,840.2,817.5,837.3,840.3z"/>
			<g>
				<defs>
					<path id="SVGID_00000084513366714425603330000018278547327514660788_" d="M837.3,840.3c-2.9,22.8-18,32-34.9,29.8
						c-16.9-2.1-29.2-14.8-26.3-37.6s19.9-47.1,36.8-44.9C829.8,789.7,840.2,817.5,837.3,840.3z"/>
				</defs>
				<clipPath id="SVGID_00000088134606769182193680000007737164012574325407_">
					<use xlink:href="#SVGID_00000084513366714425603330000018278547327514660788_"  style="overflow:visible;"/>
				</clipPath>
				<g style="clip-path:url(#SVGID_00000088134606769182193680000007737164012574325407_);">
					<path class="st18" d="M786.1,789c8.3-2.4,17.9,2.7,19.5,9.2c1.1,4.4-1.8,8.4-6.1,14.4c-3.9,5.5-6.2,8.7-9.7,9.1
						c-6.9,0.8-16.6-9.3-15.2-19.6C775.7,795.9,780.1,790.8,786.1,789z"/>
					<path class="st18" d="M823.1,797.6c-3.3-2.6-9-2.1-10.8,1.1c-1.8,3.1,0.7,7.7,3.9,9.6c2.4,1.4,6.4,2,8.5-0.1
						C827.3,805.6,826.3,800.1,823.1,797.6z"/>
					<path class="st18" d="M818.7,822.3c-4.4-1.5-10.7-0.7-14.1,3.7c-4,5-1.9,12.1,0.4,15.9c5.1,8.3,17.9,11.4,22.5,7.1
						C833.1,843.8,829.1,825.8,818.7,822.3z"/>
					<path class="st18" d="M771.1,833.6c2.5-3.3,7.3-3.8,10.5-1.3s3.8,7.3,1.3,10.5s-7.3,3.8-10.5,1.3c-0.2-0.1-0.3-0.3-0.5-0.4
						C769.2,841,768.8,836.7,771.1,833.6z"/>
					<path class="st18" d="M792.9,848.2c-2-0.2-6-0.5-8.5,2c-3.8,3.7-2.2,11.9,0.6,16.5c7.6,12.4,32.3,13.4,35.6,6.9
						C824,867.2,808.2,849.6,792.9,848.2z"/>
					<path class="st18" d="M839.8,816.7c-2.5-1.7-6.4-0.4-7.9,2.3c-1.6,3-0.3,7.2,2.6,8.2c2.5,0.8,5.3-0.9,6.5-3.1
						C842.2,821.9,842.1,818.3,839.8,816.7z"/>
				</g>
			</g>
			<path class="st20" d="M719.2,854.7c7.8-2.4,22.4-9,21.8-16c-0.5-6.1-12.5-9.7-22.1-12.6c-1.6-0.5-13.2-3.9-14.1-1.8
				c-0.3,0.6-0.1,2.5,10.9,9.7c-1.4,0.1-22.1,1.9-22.2,5.5c-0.2,3.6,20.4,7.1,21.7,7.3c-12.9,5.8-14.6,8-14.3,9
				C701.4,857.8,711.1,857.2,719.2,854.7z"/>
			<path class="st20" d="M675.1,797.4c7.6,2.9,21.8,10.4,20.7,17.3c-0.9,6.1-13.1,8.9-22.9,11.1c-1.7,0.4-13.4,3.1-14.2,0.9
				c-0.2-0.6,0.1-2.5,11.5-9c-1.4-0.2-21.9-3.3-21.8-6.9c0.1-3.6,20.8-5.8,22.1-5.9c-12.5-6.6-14.1-9-13.7-9.9
				C657.6,793.1,667.2,794.4,675.1,797.4z"/>
			<path class="st20" d="M247.9,864.8c8.2-0.3,24-2.8,25.2-9.8c1.1-6-9.5-12.6-18.1-17.9c-1.5-0.9-11.7-7.2-13.2-5.4
				c-0.4,0.5-0.8,2.4,8,12.2c-1.3-0.2-21.8-3.9-22.9-0.5c-1.1,3.5,17.8,12.1,19.1,12.7c-13.9,2.3-16.2,4-16.2,5
				C230,863.2,239.5,865.1,247.9,864.8z"/>
			<path class="st20" d="M220.3,798c6.6,4.8,18.4,15.7,15.5,22.1c-2.5,5.6-14.9,5.2-25,4.8c-1.7-0.1-13.7-0.5-14-2.8
				c-0.1-0.7,0.7-2.4,13.5-5.7c-1.3-0.5-20.3-8.9-19.3-12.3c1-3.5,21.6-0.2,22.9,0.1c-10.3-9.7-11.3-12.3-10.7-13.1
				C204.5,789.3,213.4,793.1,220.3,798z"/>
			<path class="st20" d="M635.7,861.4c7.8-2.4,22.4-9,21.8-16c-0.5-6.1-12.5-9.7-22.1-12.6c-1.6-0.5-13.2-3.9-14.1-1.8
				c-0.3,0.6-0.1,2.5,10.9,9.7c-1.4,0.1-22.1,1.9-22.2,5.5c-0.2,3.6,20.4,7.1,21.7,7.3c-12.9,5.8-14.6,8-14.3,9
				C617.9,864.5,627.6,863.8,635.7,861.4z"/>
			<path class="st20" d="M591.7,804c7.6,2.9,21.8,10.4,20.7,17.3c-0.9,6.1-13.1,8.9-22.9,11.1c-1.7,0.4-13.4,3.1-14.2,0.9
				c-0.2-0.6,0.1-2.5,11.5-9c-1.4-0.2-21.9-3.3-21.8-6.9c0.1-3.6,20.8-5.8,22.1-5.9c-12.5-6.6-14.1-9-13.7-9.9
				C574.1,799.8,583.8,801.1,591.7,804z"/>
		</g>
	</g>
</g>
</svg>
