<svg xmlns="http://www.w3.org/2000/svg" xmlns:xlink="http://www.w3.org/1999/xlink" viewBox="0 0 436.78472 365.76293"><defs><style>.cls-1{fill:none;}.cls-2{isolation:isolate;}.cls-3{fill:#ffb583;stroke:#f4aa73;stroke-width:5.97484px;}.cls-3,.cls-4{stroke-miterlimit:10;}.cls-4{fill:#8dc4a4;stroke:#76b28e;stroke-width:5.0422px;}.cls-5{fill:#76b28e;}.cls-6{fill:#ffa188;}.cls-7{fill:#ffc69c;}.cls-8{fill:#b0e1ff;}.cls-9{fill:#f7e8e7;}.cls-10{clip-path:url(#clip-path);}.cls-11{fill:#68ab77;}.cls-12{clip-path:url(#clip-path-2);}.cls-13{fill:#bababa;mix-blend-mode:overlay;}</style><clipPath id="clip-path"><path class="cls-1" d="M387.43793,295.13087c-2.587,20.41508-16.106,28.63894-31.25384,26.71943-15.14788-1.91953-26.18835-13.25555-23.60137-33.67062,2.587-20.41512,17.82176-42.1785,32.96964-40.259C380.70016,249.84021,390.02491,274.71575,387.43793,295.13087Z"/></clipPath><clipPath id="clip-path-2"><path class="cls-1" d="M50.10713,152.27837c2.24421,17.7101,13.972,24.84431,27.11274,23.17913,13.14081-1.66518,22.71842-11.49919,20.47422-29.2093s-15.4604-36.58989-28.60121-34.92471C55.95215,112.98867,47.86292,134.56823,50.10713,152.27837Z"/></clipPath></defs><g class="cls-2"><g id="Layer_2" data-name="Layer 2"><g id="box4"><path class="cls-3" d="M135.198,19.58813V65.42156h34.07092V38.9979a10.44158,10.44158,0,0,1,10.44158-10.44157h77.36374A10.44157,10.44157,0,0,1,267.5158,38.9979V65.42156h34.07093V19.58813A16.60072,16.60072,0,0,0,284.986,2.98742H151.79871A16.60072,16.60072,0,0,0,135.198,19.58813Z"/><rect class="cls-4" x="2.5211" y="65.42157" width="431.74252" height="297.82026" rx="46.50797"/><rect class="cls-5" x="27.0708" y="89.66739" width="382.64311" height="249.32862" rx="15.49537"/><path class="cls-6" d="M187.297,212.24736l-2.95177-2.95177a6.9065,6.9065,0,0,0-7.92048-1.31937l-12.89663,6.31387a6.9065,6.9065,0,0,0-3.16617,3.16617l-6.31388,12.89664a6.9065,6.9065,0,0,0,1.31938,7.92047l2.95177,2.95177a6.9065,6.9065,0,0,0,7.92047,1.31938l12.89664-6.31388a6.9065,6.9065,0,0,0,3.16617-3.16617l6.31387-12.89664A6.90649,6.90649,0,0,0,187.297,212.24736Z"/><path class="cls-6" d="M204.38362,229.334l-2.95177-2.95177a6.9065,6.9065,0,0,0-7.92047-1.31938l-12.89664,6.31388a6.9065,6.9065,0,0,0-3.16617,3.16617l-6.31387,12.89664a6.90649,6.90649,0,0,0,1.31937,7.92047l2.95177,2.95177a6.90649,6.90649,0,0,0,7.92047,1.31937l12.89664-6.31387a6.9065,6.9065,0,0,0,3.16617-3.16617l6.31388-12.89664A6.9065,6.9065,0,0,0,204.38362,229.334Z"/><path class="cls-6" d="M113.33127,212.24736l2.95177-2.95177a6.90649,6.90649,0,0,1,7.92047-1.31937l12.89664,6.31387a6.90659,6.90659,0,0,1,3.16617,3.16617l6.31387,12.89664a6.90649,6.90649,0,0,1-1.31937,7.92047l-2.95177,2.95177a6.90652,6.90652,0,0,1-7.92048,1.31938l-12.89663-6.31388a6.9064,6.9064,0,0,1-3.16617-3.16617l-6.31388-12.89664A6.9065,6.9065,0,0,1,113.33127,212.24736Z"/><path class="cls-6" d="M97.40013,228.17851l2.95177-2.95177a6.9065,6.9065,0,0,1,7.92047-1.31938l12.89664,6.31388a6.9065,6.9065,0,0,1,3.16617,3.16617l6.31387,12.89664a6.90649,6.90649,0,0,1-1.31937,7.92047l-2.95178,2.95177a6.90648,6.90648,0,0,1-7.92047,1.31937l-12.89663-6.31387a6.9065,6.9065,0,0,1-3.16617-3.16617L96.08075,236.099A6.9065,6.9065,0,0,1,97.40013,228.17851Z"/><path class="cls-6" d="M151.94771,200.21075h-4.17443a6.9065,6.9065,0,0,0-6.53356,4.66768L136.585,218.46231a6.90652,6.90652,0,0,0,0,4.47764l4.65472,13.58389a6.9065,6.9065,0,0,0,6.53356,4.66767h4.17443a6.9065,6.9065,0,0,0,6.53356-4.66767L163.136,222.94a6.90652,6.90652,0,0,0,0-4.47764l-4.65472-13.58388A6.9065,6.9065,0,0,0,151.94771,200.21075Z"/><ellipse class="cls-7" cx="72.90322" cy="209.59211" rx="23.6228" ry="12.93624"/><path class="cls-7" d="M219.889,264.14936A69.43087,69.43087,0,0,1,202.9903,252.8989a.98474.98474,0,0,1-.13979-.15617,136.1458,136.1458,0,0,0-12.325-14.76422c-9.5852-9.949-18.23577-18.71006-31.4224-21.72871a43.02817,43.02817,0,0,0-12.506-.96252q-.8498.04386-1.70086.11676a52.86213,52.86213,0,0,0-38.24581,22.14741c-6.4143,8.94828-25.74573,5.33647-31.44435-2.40408-4.53081-6.15423-1.24686-15.771.26573-19.47663a.97387.97387,0,0,0-.6543-1.30777q-12.26361-3.28935-24.52721-6.57866a.97331.97331,0,0,0-1.18724.652c-1.73512,5.6826-4.74995,18.8552.92743,32.84027,5.28,13.0061,16.5666,22.99205,30.71845,27.98466a29.59615,29.59615,0,0,1,19.52677,27.99354v19.99989a9.13869,9.13869,0,0,0,9.13869,9.1387h6.4702a9.13869,9.13869,0,0,0,9.13869-9.1387v-8.72a11.38856,11.38856,0,0,1,11.38856-11.38856H162.578a11.38847,11.38847,0,0,1,11.38846,11.38847v8.72a9.13869,9.13869,0,0,0,9.1387,9.1387h6.47019a9.1387,9.1387,0,0,0,9.1387-9.1387V281.4686a.98223.98223,0,0,1,1.30638-.9299,72.71031,72.71031,0,0,0,16.86894,3.85867c24.14631,2.54224,43.13175-7.80483,52.107-13.88236a.97662.97662,0,0,0-.75589-1.76259C257.90878,271.02672,239.09548,273.17254,219.889,264.14936Z"/><ellipse class="cls-8" cx="369.3128" cy="119.04299" rx="15.86754" ry="9.38651"/><path class="cls-8" d="M270.58175,158.6296a46.58573,46.58573,0,0,0,11.351-8.16331.69951.69951,0,0,0,.0939-.11331,97.37912,97.37912,0,0,1,8.27875-10.71288c6.43843-7.219,12.24906-13.576,21.10658-15.76631a26.812,26.812,0,0,1,8.40035-.6984q.57082.03183,1.14248.08473c10.30525.95367,19.64289,6.95751,25.68989,16.0701,4.30852,6.49285,17.29352,3.87213,21.12132-1.74439,3.04336-4.4655.83751-11.44343-.17849-14.1322a.71912.71912,0,0,1,.43949-.94891q8.23752-2.38676,16.475-4.77347a.64777.64777,0,0,1,.79747.47308c1.16549,4.12328,3.19057,13.68129-.623,23.82882a35.11941,35.11941,0,0,1-20.63373,20.30561c-7.91867,3.01775-13.11622,11.24133-13.11622,20.312v14.51188a6.399,6.399,0,0,1-6.1385,6.631H340.442a6.399,6.399,0,0,1-6.13851-6.631V190.8355c0-4.56381-3.42491-8.26351-7.64974-8.26351h-17.576c-4.22481,0-7.64968,3.69967-7.64968,8.26344v6.32725a6.399,6.399,0,0,1-6.13851,6.631h-4.34606a6.399,6.399,0,0,1-6.13851-6.631V171.19641a.66887.66887,0,0,0-.8775-.67474,45.81085,45.81085,0,0,1-11.331,2.79985c-16.21918,1.84464-28.97179-5.66317-35.00051-10.073a.70883.70883,0,0,1,.50774-1.27893C245.04371,163.6198,257.68069,165.1768,270.58175,158.6296Z"/><path class="cls-9" d="M387.43793,295.13087c-2.587,20.41508-16.106,28.63894-31.25384,26.71943-15.14788-1.91953-26.18835-13.25555-23.60137-33.67062,2.587-20.41512,17.82176-42.1785,32.96964-40.259C380.70016,249.84021,390.02491,274.71575,387.43793,295.13087Z"/><g class="cls-10"><path class="cls-11" d="M341.60081,249.19251c7.472-2.1619,16.07961,2.41353,17.47957,8.20662.9434,3.90382-1.597,7.48849-5.45088,12.92651-3.49512,4.93175-5.52017,7.78928-8.66,8.16237-6.15969.7319-14.904-8.30028-13.57637-17.51641A14.68543,14.68543,0,0,1,341.60081,249.19251Z"/><path class="cls-11" d="M374.66444,256.92282c-2.98561-2.31943-8.0199-1.887-9.65319.9555-1.59808,2.78109.61518,6.90232,3.53774,8.61868,2.14022,1.25691,5.692,1.8296,7.641-.12116C378.49642,264.06725,377.58907,259.19484,374.66444,256.92282Z"/><path class="cls-11" d="M370.773,279.03433c-3.904-1.31947-9.606-.60592-12.67321,3.29629-3.54905,4.51521-1.6574,10.86568.37809,14.20988,4.53445,7.4498,15.996,10.18849,20.16362,6.368C383.69319,298.27749,380.03915,282.16608,370.773,279.03433Z"/><path class="cls-11" d="M328.09479,289.1499a6.71968,6.71968,0,1,1,.75534,9.0831A6.96809,6.96809,0,0,1,328.09479,289.1499Z"/><path class="cls-11" d="M347.6773,302.25282c-1.7785-.1633-5.34388-.44144-7.57674,1.76336-3.37617,3.33376-1.95946,10.61981.57817,14.77992,6.77464,11.10624,28.92075,12.03634,31.89321,6.22022C375.5186,319.2506,361.33414,303.50667,347.6773,302.25282Z"/><path class="cls-11" d="M389.64892,274.073c-2.24514-1.54532-5.72352-.32533-7.07467,2.0993-1.47347,2.64413-.2841,6.48229,2.33336,7.37665,2.2013.75215,4.72371-.81321,5.80242-2.80521C391.8363,278.66379,391.72323,275.50073,389.64892,274.073Z"/></g><path class="cls-9" d="M50.10713,152.27837c2.24421,17.7101,13.972,24.84431,27.11274,23.17913,13.14081-1.66518,22.71842-11.49919,20.47422-29.2093s-15.4604-36.58989-28.60121-34.92471C55.95215,112.98867,47.86292,134.56823,50.10713,152.27837Z"/><g class="cls-12"><path class="cls-11" d="M89.87089,112.42679c-6.482-1.87545-13.94908,2.09374-15.16355,7.11925-.81841,3.38657,1.38538,6.49628,4.72864,11.21377,3.032,4.27829,4.78875,6.7572,7.51258,7.08086,5.34354.63492,12.92923-7.2005,11.77752-15.19551A12.73965,12.73965,0,0,0,89.87089,112.42679Z"/><path class="cls-11" d="M61.18814,119.13284c2.59-2.01211,6.95728-1.637,8.37416.8289,1.38633,2.4126-.53367,5.98777-3.069,7.47672-1.85663,1.09037-4.93779,1.58718-6.62854-.10511C57.8639,125.33065,58.651,121.10382,61.18814,119.13284Z"/><path class="cls-11" d="M64.56394,138.31461c3.38675-1.14465,8.33318-.52565,10.994,2.85953,3.07881,3.917,1.4378,9.426-.328,12.32709-3.93364,6.46271-13.87656,8.83852-17.492,5.52421C53.35569,155.00807,56.52558,141.0314,64.56394,138.31461Z"/><path class="cls-11" d="M101.58737,147.08987a5.82934,5.82934,0,1,0-.65526,7.87961A6.04483,6.04483,0,0,0,101.58737,147.08987Z"/><path class="cls-11" d="M84.59952,158.45667c1.54285-.14166,4.63583-.38295,6.57283,1.52972,2.92883,2.892,1.69983,9.2127-.50156,12.8216-5.877,9.63467-25.08878,10.44153-27.6674,5.396C60.44716,173.20226,72.75219,159.54438,84.59952,158.45667Z"/><path class="cls-11" d="M48.18909,134.01063c1.94767-1.34057,4.96516-.28223,6.13728,1.82114,1.27825,2.29378.24646,5.62339-2.02419,6.39925-1.90963.65249-4.09782-.70545-5.0336-2.43352C46.29154,137.99316,46.38963,135.2492,48.18909,134.01063Z"/></g><path class="cls-13" d="M145.57905,180.2868c6.22505,3.06293,19.13664,7.4865,22.8177,2.776,3.21342-4.112-2.11021-13.26172-6.40843-20.649-.73506-1.26339-5.87623-10.09944-7.7021-9.343-.51695.21419-1.53691,1.51575,1.12105,12.38731-.91243-.72639-14.79-11.69479-16.98752-9.53863-2.19843,2.157,8.51428,16.25077,9.22076,17.17346-11.37189-3.86469-13.74639-3.51268-14.13176-2.75213C132.72706,171.88353,139.11619,177.10685,145.57905,180.2868Z"/><path class="cls-13" d="M151.60392,119.0971c3.06293,6.225,7.48649,19.13664,2.776,22.8177-4.112,3.21342-13.26172-2.11021-20.64906-6.40843-1.26338-.73506-10.09944-5.87623-9.343-7.7021.21418-.51694,1.51574-1.53691,12.38731,1.121-.72639-.91243-11.6948-14.79-9.53864-16.98752,2.15706-2.19843,16.25078,8.51428,17.17347,9.22076-3.8647-11.37189-3.51268-13.74639-2.75213-14.13176C143.20065,106.24511,148.424,112.63424,151.60392,119.0971Z"/><path class="cls-13" d="M243.66344,219.4273c3.06294,6.22505,7.4865,19.13664,2.776,22.8177-4.11205,3.21342-13.26172-2.11021-20.64906-6.40843-1.26338-.73506-10.09944-5.87623-9.343-7.7021.21418-.51695,1.51574-1.53691,12.38731,1.121-.7264-.91243-11.6948-14.79-9.53864-16.98753,2.157-2.19842,16.25077,8.51429,17.17346,9.22077-3.86469-11.3719-3.51268-13.74639-2.75212-14.13176C235.26018,206.57531,240.48349,212.96444,243.66344,219.4273Z"/><path class="cls-13" d="M198.776,185.88686c6.22505,3.06293,19.13664,7.48649,22.8177,2.776,3.21342-4.112-2.11021-13.26172-6.40843-20.64906-.73506-1.26338-5.87623-10.09944-7.7021-9.343-.51694.21418-1.53691,1.51574,1.121,12.38731-.91243-.72639-14.79-11.69479-16.98752-9.53863-2.19843,2.157,8.51428,16.25077,9.22076,17.17346-11.37189-3.86469-13.74639-3.51268-14.13176-2.75213C185.924,177.48359,192.31317,182.7069,198.776,185.88686Z"/><path class="cls-13" d="M291.36388,290.15319c6.22505,3.06293,19.13663,7.4865,22.81769,2.776,3.21342-4.112-2.11021-13.26172-6.40842-20.649-.73507-1.26339-5.87623-10.09944-7.70211-9.343-.51694.21419-1.5369,1.51574,1.12105,12.38731-.91242-.72639-14.79-11.69479-16.98752-9.53863-2.19843,2.157,8.51428,16.25077,9.22076,17.17346-11.37189-3.86469-13.74639-3.51268-14.13176-2.75213C278.51189,281.74992,284.901,286.97324,291.36388,290.15319Z"/><path class="cls-13" d="M297.38874,228.96349c3.06294,6.225,7.4865,19.13664,2.776,22.8177-4.11205,3.21342-13.26172-2.11021-20.64906-6.40843-1.26338-.73506-10.09944-5.87623-9.343-7.7021.21418-.51694,1.51574-1.53691,12.38731,1.121-.7264-.91243-11.6948-14.79-9.53864-16.98752,2.157-2.19843,16.25077,8.51428,17.17346,9.22076-3.86469-11.37189-3.51268-13.74639-2.75212-14.13176C288.98548,216.1115,294.20879,222.50063,297.38874,228.96349Z"/></g></g></g></svg>