<svg xmlns="http://www.w3.org/2000/svg" xmlns:xlink="http://www.w3.org/1999/xlink" viewBox="0 0 948.13946 888.86087"><defs><style>.cls-1,.cls-14,.cls-17,.cls-8{fill:none;}.cls-2{isolation:isolate;}.cls-3{fill:#a36c6c;opacity:0.42;}.cls-11,.cls-12,.cls-4{fill:#8dc4a4;}.cls-12,.cls-13,.cls-14,.cls-15,.cls-17,.cls-4,.cls-5,.cls-8{stroke:#76b28e;}.cls-12,.cls-13,.cls-14,.cls-15,.cls-17,.cls-4,.cls-5,.cls-8,.cls-9{stroke-miterlimit:10;}.cls-4,.cls-5,.cls-8{stroke-width:5.18807px;}.cls-13,.cls-5{fill:#76b28e;}.cls-6{fill:#7dba96;}.cls-7{fill:#595959;opacity:0.5;}.cls-22,.cls-7{mix-blend-mode:overlay;}.cls-9{fill:#ffb583;stroke:#f4aa73;stroke-width:6.14767px;}.cls-10{fill:#5c9974;}.cls-12{stroke-width:4.74047px;}.cls-13,.cls-14,.cls-15{stroke-width:4.81569px;}.cls-15{fill:#66a37f;}.cls-16{fill:#87c19f;}.cls-17{stroke-width:4.8157px;}.cls-18{fill:#f7e8e7;}.cls-19{clip-path:url(#clip-path);}.cls-20{fill:#68ab77;}.cls-21{clip-path:url(#clip-path-2);}.cls-22{fill:#bababa;}</style><clipPath id="clip-path"><path class="cls-1" d="M120.45742,839.3616c2.28579,18.03829,14.23093,25.3047,27.61516,23.60867,13.38432-1.69605,23.13941-11.71229,20.85362-29.75058S153.17931,795.95175,139.795,797.6478C126.41075,799.34384,118.17162,821.32328,120.45742,839.3616Z"/></clipPath><clipPath id="clip-path-2"><path class="cls-1" d="M837.31336,840.25321c-2.88767,22.788-17.97812,31.96777-34.8866,29.82514-16.90859-2.14263-29.23233-14.79629-26.34466-37.5843S795.97537,785.413,812.884,787.55561C829.79244,789.69823,840.201,817.46516,837.31336,840.25321Z"/></clipPath></defs><g class="cls-2"><g id="Layer_2" data-name="Layer 2"><g id="box_4-success"><path class="cls-3" d="M802.66232,613.96664H188.53751c-45.32968,0-68.492,25.61135-80.90279,51.34586L71.324,740.60491c-38.207,79.22469-44.12621,148.256,84.10661,148.256H835.06453c100.25475,0,111.64952-37.07441,73.44244-116.2991l-32.64109-60.61915C863.455,686.20811,847.992,613.96664,802.66232,613.96664Z"/><path class="cls-4" d="M856.60958,84.384c-14.12634-41.5033-53.92591-71.26659-104.83913-71.26659h-570.618c-49.79407,0-88.95723,28.46952-103.8704,68.54707l-22.64957,54.359,17.8448,2.20761,34.10241,4.21885,754.16752-6.27818,17.811-.14828S867.09626,107.01185,856.60958,84.384Z"/><path class="cls-5" d="M768.43282,64.52914H163.64057c-74.03174,0-125.90933,59.36639-115.74216,128.79365l21.793,148.81527c8.72188,59.558,68.3548,106.37207,132.86039,106.37207H729.52155c64.5056,0,124.13852-46.81407,132.8604-106.37207l21.793-148.81527C894.34215,123.89553,842.46456,64.52914,768.43282,64.52914Z"/><path class="cls-6" d="M749.25348,94.98854H182.81991c-66.28783,0-112.7389,53.15652-103.63524,115.32151l17.43809,122.8721c7.80955,53.32809,61.20471,95.24529,118.96286,95.24529H716.48777c57.75814,0,111.15331-41.9172,118.96286-95.24529l17.43809-122.8721C861.99238,148.14506,815.54131,94.98854,749.25348,94.98854Z"/><path class="cls-7" d="M80.002,216.06906C325.71655,202.41115,619.40014,249.39631,828.6912,357.0278a96.20068,96.20068,0,0,0,6.75944-23.84567L852.88874,210.31c9.10362-62.165-37.3474-115.32152-103.63529-115.32152H182.81989c-66.28782,0-112.73884,53.15651-103.63522,115.32152Z"/><path class="cls-8" d="M749.25348,94.98854H182.81991c-66.28783,0-112.7389,53.15652-103.63524,115.32151l17.43809,122.8721c7.80955,53.32809,61.20471,95.24529,118.96286,95.24529H716.48777c57.75814,0,111.15331-41.9172,118.96286-95.24529l17.43809-122.8721C861.99238,148.14506,815.54131,94.98854,749.25348,94.98854Z"/><path class="cls-9" d="M314.5622,47.258H217.44062a11.04412,11.04412,0,0,1-10.05468-15.61315l10.04081-22.096a11.04412,11.04412,0,0,1,10.05468-6.47508h92.10118a11.04412,11.04412,0,0,1,10.76963,13.49108l-5.02041,22.096A11.04411,11.04411,0,0,1,314.5622,47.258Z"/><rect class="cls-10" x="581.06938" y="441.81861" width="161.76842" height="18.62207"/><rect class="cls-10" x="197.15534" y="441.81861" width="161.76842" height="18.62207"/><path class="cls-11" d="M835.45064,291.67528c-7.80959,53.32814-61.20473,95.24534-118.96289,95.24534H215.58565c-57.75816,0-111.1533-41.9172-118.96289-95.24534L80.03728,174.81084A103.302,103.302,0,0,0,79.18467,210.31L96.62276,333.18216c7.80959,53.32807,61.20473,95.24527,118.96289,95.24527h500.9021c57.75816,0,111.1533-41.9172,118.96289-95.24527L852.88874,210.31a103.302,103.302,0,0,0-.85262-35.49917Z"/><path class="cls-9" d="M617.77894,47.258h97.12158A11.04412,11.04412,0,0,0,724.9552,31.64488l-10.04081-22.096a11.04412,11.04412,0,0,0-10.05468-6.47508H612.75853A11.04412,11.04412,0,0,0,601.9889,16.56492l5.0204,22.096A11.04413,11.04413,0,0,0,617.77894,47.258Z"/><path class="cls-12" d="M3.96221,706.42344S23.4521,807.34046,32.423,826.00652c14.95152,31.11006,52.33866,52.67154,104.00194,52.67154H811.87343c51.66328,0,89.05042-21.56148,104.00195-52.67154,8.97092-18.66606,28.46081-119.58308,28.46081-119.58308Z"/><path class="cls-13" d="M118.78041,778.05574l710.57867,0c86.98089,0,135.07136-56.71233,109.53787-119.46506L888.86723,535.63449c-18.41832-45.266-85.329-79.41668-150.1253-79.41668l-529.34443,0c-64.79628,0-131.707,34.15064-150.12529,79.41667L9.24251,658.59068C-16.291,721.3434,31.79951,778.05574,118.78041,778.05574Z"/><path class="cls-14" d="M145.7329,748.5914l656.67368,0c76.84833,0,120.30343-49.58813,98.67851-104.80415L862.04952,542.62544C846.01408,501.7121,786.03429,470.719,727.5724,470.719l-507.00537,0c-58.46189,0-118.44168,30.99311-134.47711,71.90646L47.05437,643.78724C25.42945,699.00327,68.88457,748.5914,145.7329,748.5914Z"/><polygon class="cls-10" points="197.269 447.707 359.037 447.707 358.226 461.025 195.317 461.025 197.269 447.707"/><polygon class="cls-10" points="581.183 447.707 742.951 447.707 744.847 461.025 581.938 461.025 581.183 447.707"/><path class="cls-15" d="M145.73289,739.51788l656.67369,0c76.84833,0,120.30342-47.6106,98.6785-100.62465l-39.03557-97.12757c-16.03543-39.28176-76.01522-69.03889-134.47712-69.03889l-507.00536,0c-58.4619,0-118.44169,29.75713-134.47711,69.03888L47.05436,638.89323C25.42945,691.90728,68.88456,739.51788,145.73289,739.51788Z"/><path class="cls-6" d="M220.567,472.72677c-58.46189,0-118.44168,29.7571-134.47706,69.03889L47.05435,638.8932c-8.18177,20.0578-7.04093,39.33938,1.69325,55.56427a64.23085,64.23085,0,0,0,3.94326,6.38473L79.6241,633.28139c16.43266-40.588,77.47352-71.31616,136.87388-71.31616H488.622L399.3835,472.72677Z"/><path class="cls-16" d="M868.51526,633.28143l26.93335,67.5608a64.21907,64.21907,0,0,0,3.94323-6.38467c8.73414-16.22494,9.875-35.50659,1.69325-55.56427l-39.03564-97.12766c-16.03533-39.28168-76.01517-69.03887-134.47709-69.03887H399.38347L488.622,561.96522H731.64142C791.04173,561.96522,852.08263,592.69336,868.51526,633.28143Z"/><path class="cls-17" d="M145.7329,748.5914l656.67368,0c76.84833,0,120.30343-49.58813,98.67851-104.80415L862.04952,542.62544C846.01408,501.7121,786.03429,470.719,727.5724,470.719l-507.00537,0c-58.46189,0-118.44168,30.99311-134.47711,71.90646L47.05437,643.78724C25.42945,699.00327,68.88457,748.5914,145.7329,748.5914Z"/><path class="cls-18" d="M120.45742,839.3616c2.28579,18.03829,14.23093,25.3047,27.61516,23.60867,13.38432-1.69605,23.13941-11.71229,20.85362-29.75058S153.17931,795.95175,139.795,797.6478C126.41075,799.34384,118.17162,821.32328,120.45742,839.3616Z"/><g class="cls-19"><path class="cls-20" d="M160.958,798.77154c-6.60209-1.9102-14.20757,2.13254-15.44454,7.25118-.83357,3.44933,1.41105,6.61665,4.81627,11.42157,3.08821,4.35757,4.87748,6.88242,7.65179,7.21207,5.44256.64669,13.16882-7.33393,11.99576-15.47709A12.9757,12.9757,0,0,0,160.958,798.77154Z"/><path class="cls-20" d="M131.74377,805.60186c2.638-2.04939,7.0862-1.6673,8.52934.84426,1.412,2.45731-.54356,6.09873-3.12587,7.61526-1.891,1.11058-5.02929,1.6166-6.75138-.107C128.35793,811.91451,129.15964,807.60937,131.74377,805.60186Z"/><path class="cls-20" d="M135.18213,825.13908c3.4495-1.16586,8.48759-.53538,11.19775,2.91252,3.13586,3.98953,1.46443,9.60066-.33407,12.55552-4.00654,6.58247-14.13371,9.00231-17.81611,5.62658C123.76618,842.14189,126.99481,827.90622,135.18213,825.13908Z"/><path class="cls-20" d="M172.89163,834.077a5.93736,5.93736,0,1,0-.6674,8.02562A6.15683,6.15683,0,0,0,172.89163,834.077Z"/><path class="cls-20" d="M155.589,845.65439c1.57144-.14428,4.72173-.39,6.69463,1.55807,2.98311,2.94562,1.73133,9.38341-.51086,13.05919-5.98591,9.81322-25.55369,10.635-28.1801,5.496C130.98906,860.67323,143.52211,846.76226,155.589,845.65439Z"/><path class="cls-20" d="M118.50384,820.75534c1.98375-1.3654,5.05717-.28745,6.251,1.8549,1.30193,2.33629.251,5.72759-2.0617,6.51783-1.945.66458-4.17377-.71853-5.12689-2.47862C116.57112,824.81167,116.671,822.01687,118.50384,820.75534Z"/></g><path class="cls-18" d="M837.31336,840.25321c-2.88767,22.788-17.97812,31.96777-34.8866,29.82514-16.90859-2.14263-29.23233-14.79629-26.34466-37.5843S795.97537,785.413,812.884,787.55561C829.79244,789.69823,840.201,817.46516,837.31336,840.25321Z"/><g class="cls-21"><path class="cls-20" d="M786.1484,788.97524c8.3405-2.41319,17.94861,2.69407,19.5113,9.16052,1.05306,4.35757-1.78261,8.3589-6.08446,14.429-3.90138,5.505-6.1618,8.69466-9.66661,9.11111-6.87566.817-16.63636-9.265-15.15441-19.55242A16.39239,16.39239,0,0,1,786.1484,788.97524Z"/><path class="cls-20" d="M823.05517,797.60408c-3.33265-2.589-8.95209-2.10632-10.77523,1.06656-1.78383,3.10435.68669,7.70461,3.94895,9.62047,2.389,1.403,6.35357,2.04226,8.5291-.13525C827.33255,805.57894,826.31974,800.14018,823.05517,797.60408Z"/><path class="cls-20" d="M818.71144,822.28571c-4.35781-1.47285-10.72249-.67636-14.14626,3.67942-3.96158,5.04-1.85005,12.12865.422,15.86156,5.06151,8.31572,17.8553,11.37274,22.50733,7.10814C833.13336,843.76558,829.0546,825.78148,818.71144,822.28571Z"/><path class="cls-20" d="M771.07252,833.57705a7.50075,7.50075,0,1,1,.84314,10.13887A7.778,7.778,0,0,1,771.07252,833.57705Z"/><path class="cls-20" d="M792.93119,848.203c-1.98522-.18228-5.965-.49275-8.45742,1.96832-3.76859,3.72125-2.18721,11.8542.64538,16.49786,7.56208,12.39716,32.28232,13.43537,35.6003,6.94322C824.0086,867.17648,808.17543,849.60256,792.93119,848.203Z"/><path class="cls-20" d="M839.78135,816.74767c-2.5061-1.72493-6.38879-.36314-7.897,2.34332-1.64475,2.95146-.31713,7.23575,2.60457,8.23406,2.45716.83958,5.27277-.90772,6.47686-3.13127C842.223,821.87209,842.09676,818.34138,839.78135,816.74767Z"/></g><path class="cls-22" d="M719.15759,854.69887c7.80056-2.37743,22.429-8.9631,21.79917-15.96169-.54981-6.10949-12.47025-9.67644-22.09465-12.55638-1.646-.49253-13.15782-3.93722-14.11551-1.82074-.27114.59923-.09955,2.53531,10.91908,9.72173-1.36639.11054-22.08439,1.86012-22.23564,5.47567-.15132,3.617,20.36494,7.09175,21.71251,7.3151-12.85881,5.82723-14.61212,8.03787-14.33122,8.99988C701.38112,857.82378,711.059,857.16712,719.15759,854.69887Z"/><path class="cls-22" d="M675.13613,797.38166c7.63075,2.87619,21.80339,10.39275,20.72294,17.33607-.94319,6.06123-13.06909,8.851-22.85938,11.10339-1.67432.38522-13.3846,3.07933-14.20362.90542-.23188-.61548.06438-2.53644,11.52407-8.99633-1.35639-.19855-21.91817-3.28235-21.83563-6.90012.08257-3.61926,20.78039-5.76186,22.13957-5.89773-12.45567-6.64543-14.06258-8.96468-13.72013-9.90654C657.59855,793.11534,667.21385,794.39559,675.13613,797.38166Z"/><path class="cls-22" d="M247.933,864.78183c8.15034-.26992,23.98721-2.83038,25.19664-9.75238,1.05578-6.04264-9.52922-12.58312-18.0754-17.86383-1.46155-.90312-11.68375-7.21941-13.15827-5.42428-.41746.50824-.75458,2.42245,8.01951,12.224-1.3482-.24812-21.80967-3.93937-22.89474-.48717-1.08552,3.45363,17.82429,12.13749,19.0676,12.70316-13.931,2.28764-16.19826,3.96706-16.17684,4.969C229.9549,863.18269,239.47126,865.06206,247.933,864.78183Z"/><path class="cls-22" d="M220.30826,797.9984c6.62191,4.75932,18.35605,15.6988,15.50939,22.12325-2.485,5.60828-14.91936,5.153-24.95868,4.78545-1.71692-.06285-13.72506-.50252-13.95138-2.81455-.06407-.65458.72092-2.43268,13.46511-5.69464-1.25829-.544-20.31358-8.86221-19.29428-12.33439,1.01972-3.47363,21.56376-.16717,22.91158.05463-10.30233-9.65233-11.25175-12.30933-10.67644-13.12993C204.48051,789.3237,213.43336,793.05726,220.30826,797.9984Z"/><path class="cls-22" d="M635.70665,861.36647c7.80055-2.37743,22.429-8.9631,21.79917-15.96169-.54981-6.10949-12.47026-9.67644-22.09466-12.55637-1.64595-.49254-13.15781-3.93722-14.11551-1.82074-.27114.59922-.09954,2.5353,10.91908,9.72173-1.36639.11054-22.08439,1.86012-22.23564,5.47566-.15131,3.61705,20.36494,7.09175,21.71251,7.3151-12.8588,5.82723-14.61212,8.03788-14.33121,8.99988C617.93017,864.49139,627.60808,863.83472,635.70665,861.36647Z"/><path class="cls-22" d="M591.68518,804.04926c7.63075,2.87619,21.80339,10.39276,20.72294,17.33607-.94319,6.06123-13.06909,8.851-22.85937,11.10339-1.67433.38523-13.3846,3.07933-14.20363.90543-.23188-.61549.06438-2.53645,11.52408-8.99634-1.3564-.19854-21.91818-3.28234-21.83564-6.90011.08257-3.61927,20.78039-5.76187,22.13957-5.89774-12.45567-6.64543-14.06257-8.96468-13.72013-9.90654C574.1476,799.783,583.76291,801.06319,591.68518,804.04926Z"/></g></g></g></svg>