<?xml version="1.0" encoding="utf-8"?>
<!-- Generator: Adobe Illustrator 27.3.1, SVG Export Plug-In . SVG Version: 6.00 Build 0)  -->
<svg version="1.1" id="Layer_1" xmlns="http://www.w3.org/2000/svg" xmlns:xlink="http://www.w3.org/1999/xlink" x="0px" y="0px"
	 viewBox="0 0 504.4 628" style="enable-background:new 0 0 504.4 628;" xml:space="preserve">
<style type="text/css">
	.st0{opacity:0.42;fill:#A36C6C;enable-background:new    ;}
	.st1{clip-path:url(#SVGID_00000013157541573397490760000012035768037122894472_);}
	.st2{fill:#B0E1FF;}
	.st3{fill:none;stroke:#D1D1D1;stroke-width:22;stroke-linecap:round;stroke-miterlimit:10;}
	.st4{opacity:0.8;fill:#B8E7E8;enable-background:new    ;}
	.st5{fill:#DEF0EE;}
	.st6{opacity:0.5;fill:#A0DEE8;}
	.st7{fill:#86A7EF;}
	.st8{fill:#7B9FED;}
	.st9{fill:#9DB6FC;}
	.st10{fill:#94AFFB;}
	.st11{fill:#8199DB;}
	.st12{fill:#8CA6E0;}
	.st13{fill:#A4DDDD;}
</style>
<g>
	<g id="Layer_1_00000011723096913151172610000005297001023188627620_">
		<ellipse class="st0" cx="282" cy="528.1" rx="108.9" ry="35.6"/>
		<g>
			<g>
				<defs>
					<path id="SVGID_1_" d="M391,184.5c0-22.1-49.9-39.9-111.4-39.9s-111.4,17.9-111.4,39.9v331h0.2c-0.1,0.7-0.2,1.5-0.2,2.2
						c0,22,49.9,39.9,111.4,39.9S391,539.7,391,517.6c0-0.7-0.1-1.5-0.2-2.2h0.2V184.5z"/>
				</defs>
				<clipPath id="SVGID_00000023277869524293896700000017227025712983709092_">
					<use xlink:href="#SVGID_1_"  style="overflow:visible;"/>
				</clipPath>
				<g style="clip-path:url(#SVGID_00000023277869524293896700000017227025712983709092_);">
					<path class="st2" d="M168.1,275.6c74.3,0.7,148.6,1.4,222.8,2c37.8,99.7,75.6,199.5,113.4,299.2
						c-39.4,19.2-111.3,47.9-205.6,50.9c-101,3.2-179-24.7-219.8-42.7C108.7,481.9,138.4,378.8,168.1,275.6L168.1,275.6z"/>
				</g>
			</g>
			<path class="st3" d="M267.3,504.4c16.1-62.5,30.5-137.2,37.4-222.1c5.2-63.5,5.3-121.7,2.6-173.3"/>
			<path class="st4" d="M391,184.5c0-22.1-49.9-39.9-111.4-39.9s-111.4,17.9-111.4,39.9v331h0.2c-0.1,0.7-0.2,1.5-0.2,2.2
				c0,22,49.9,39.9,111.4,39.9S391,539.7,391,517.6c0-0.7-0.1-1.5-0.2-2.2h0.2V184.5z"/>
			<path class="st5" d="M372.4,194.7c-12.3-9.3-34.3-7.6-42.2,2.9c-8,10.7,2.7,25,10.2,52.4c17.6,64.6-7.9,111.2,13.1,122.3
				c5.6,2.9,12.6,2.4,17.5,0c15.6-7.8,9.9-36.1,10.2-102C381.3,219.8,384.8,204,372.4,194.7L372.4,194.7z"/>
		</g>
	</g>
	<path class="st6" d="M197.1,269.5c0.9-35.1,4.9-78.7,35.6-114c2.7-3.1,5.5-5.9,8.2-8.5c-42.4,5.6-72.7,20.3-72.7,37.4v331h0.2
		c-0.1,0.7-0.2,1.5-0.2,2.2c0,22,49.9,39.9,111.4,39.9c5.5,0,10.9-0.1,16.2-0.4c-17.6-4.8-29.9-11.7-37.6-16.9
		C191,495.3,193.6,400.7,197.1,269.5z"/>
	<g>
		<path class="st7" d="M302.7,7.6c-29.1-11.3-62.9-8.2-64.2-2c-0.4,2.1,2.8,4.6,6,6.6c-27.4,13.1-46.3,41.1-46.3,73.4
			c0,44.9,36.4,81.4,81.4,81.4s81.4-36.4,81.4-81.4c0-11.2-2.4-20.1-3.6-24C345.8,25.7,310.9,10.8,302.7,7.6L302.7,7.6z"/>
		<path class="st8" d="M234.7,44.6c-5.4-5.6-9.4-11.4-12.4-16.9c-12.8,12.7-21.5,29.6-23.6,48.5c34.8-1.8,69.6-3.6,104.5-5.4
			C295.6,71,260.2,71.2,234.7,44.6z"/>
		<g>
			<g>
				<path class="st9" d="M374.4,157.5l-26.5,2.9c-45.4,5.1-91.1,5.1-136.6,0l-26.5-2.9V85.7c0-13.5,8.8-24.5,19.6-24.5h150.3
					c10.9,0,19.6,10.9,19.6,24.5L374.4,157.5L374.4,157.5z"/>
				<path class="st10" d="M218.3,122.4c1.4-24.2,7-44.9,13.3-61.1h-27.2c-10.9,0-19.6,11-19.6,24.5v71.7l26.5,2.9
					c2.9,0.3,5.7,0.6,8.6,0.9C218.3,149.7,217.5,136.7,218.3,122.4z"/>
				<g>
					<path class="st11" d="M207.5,79.9L207.5,79.9c2.5,0,4.6,2,4.6,4.6v47.6c0,2.5-2,4.6-4.6,4.6l0,0c-2.5,0-4.6-2-4.6-4.6V84.5
						C202.9,82,205,79.9,207.5,79.9z"/>
					<path class="st12" d="M231.3,79.9L231.3,79.9c2.5,0,4.6,2,4.6,4.6v47.6c0,2.5-2,4.6-4.6,4.6l0,0c-2.5,0-4.6-2-4.6-4.6V84.5
						C226.7,82,228.8,79.9,231.3,79.9z"/>
					<path class="st12" d="M255.1,79.9L255.1,79.9c2.5,0,4.6,2,4.6,4.6v47.6c0,2.5-2,4.6-4.6,4.6l0,0c-2.5,0-4.6-2-4.6-4.6V84.5
						C250.6,82,252.6,79.9,255.1,79.9z"/>
					<path class="st12" d="M279,79.9L279,79.9c2.5,0,4.6,2,4.6,4.6v47.6c0,2.5-2,4.6-4.6,4.6l0,0c-2.5,0-4.6-2-4.6-4.6V84.5
						C274.4,82,276.4,79.9,279,79.9z"/>
					<path class="st12" d="M302.8,79.9L302.8,79.9c2.5,0,4.6,2,4.6,4.6v47.6c0,2.5-2,4.6-4.6,4.6l0,0c-2.5,0-4.6-2-4.6-4.6V84.5
						C298.2,82,300.3,79.9,302.8,79.9z"/>
					<path class="st12" d="M326.6,79.9L326.6,79.9c2.5,0,4.6,2,4.6,4.6v47.6c0,2.5-2,4.6-4.6,4.6l0,0c-2.5,0-4.6-2-4.6-4.6V84.5
						C322,82,324.1,79.9,326.6,79.9z"/>
					<path class="st12" d="M351.6,79.9L351.6,79.9c2.5,0,4.6,2,4.6,4.6v47.6c0,2.5-2,4.6-4.6,4.6l0,0c-2.5,0-4.6-2-4.6-4.6V84.5
						C347.1,82,349.1,79.9,351.6,79.9z"/>
				</g>
			</g>
			<path class="st13" d="M372.8,170.2l-10.6,0.9c-55,4.7-110.3,4.7-165.3,0l-10.6-0.9c-4.8,0-8.7-3.9-8.7-8.7s3.9-8.7,8.7-8.7
				c28.7,2.2,59.6,3.6,92.4,3.6c33.5,0,65-1.3,94.1-3.6c4.8,0,8.7,3.9,8.7,8.7S377.6,170.2,372.8,170.2L372.8,170.2z"/>
		</g>
	</g>
</g>
</svg>
