<?xml version="1.0" encoding="utf-8"?>
<!-- Generator: Adobe Illustrator 27.4.0, SVG Export Plug-In . SVG Version: 6.00 Build 0)  -->
<svg version="1.1" id="Layer_1" xmlns="http://www.w3.org/2000/svg" xmlns:xlink="http://www.w3.org/1999/xlink" x="0px" y="0px"
	 viewBox="0 0 504.4 628" style="enable-background:new 0 0 504.4 628;" xml:space="preserve">
<style type="text/css">
	.st0{opacity:0.42;fill:#A36C6C;enable-background:new    ;}
	.st1{fill:#86A7EF;}
	.st2{fill:#89DBED;}
	.st3{fill:#95DDED;}
	.st4{fill:#9ADEED;}
	.st5{fill:#5DCEE8;}
	.st6{fill:#779AE6;}
</style>
<g>
	<ellipse class="st0" cx="279.8" cy="540.7" rx="75.6" ry="28.9"/>
	<path class="st1" d="M315.8,97.5c0-9.3,0-49.9,0-49.9h-34.3h-4h-34.3c0,0,0,40.6,0,49.9c0,36-37.2,94.1-37.2,160.3s0,254.5,0,269.6
		c0,15.1,17.4,34.6,69.7,34.6c1.3,0,6.3,0,7.6,0c52.3,0,69.7-19.5,69.7-34.6c0-15.1,0-203.4,0-269.6S315.8,133.5,315.8,97.5z"/>
	<g>
		<path class="st2" d="M353,257.8c0-17.1-2.5-33.7-6.2-49.5v334.5c4.3-5,6.2-10.4,6.2-15.4C353,512.3,353,324,353,257.8z"/>
		<path class="st2" d="M206.1,257.8c0,66.2,0,254.5,0,269.6c0,4.9,1.8,10.2,6.1,15.2V208.7C208.5,224.4,206.1,240.8,206.1,257.8z"/>
		<path class="st3" d="M222,550.8V174.3c-3.6,10.9-7.1,22.4-9.8,34.4v333.9C214.6,545.5,217.8,548.3,222,550.8z"/>
		<path class="st3" d="M337,174v376.8c4.1-2.5,7.4-5.2,9.8-8.1V208.3C344,196.4,340.6,184.9,337,174z"/>
		<path class="st4" d="M243.2,47.6c0,0,0,40.6,0,49.9c0,19.7-11.2,46.1-21.3,76.8v376.4c9.7,5.8,24.4,10.2,45.6,11.1V47.6H243.2z"/>
		<path class="st4" d="M315.8,47.6h-24.4v514.3c21.1-0.9,35.8-5.2,45.6-11V174c-10.1-30.6-21.2-56.8-21.2-76.5
			C315.8,88.2,315.8,47.6,315.8,47.6z"/>
		<path class="st3" d="M281.6,47.6h-4h-10v514.3c0.9,0,1.8,0.1,2.7,0.1V53.8h18.6V562c0.9,0,1.8-0.1,2.7-0.1V47.6H281.6z"/>
		<path class="st2" d="M283.3,562c1.9,0,3.7,0,5.4-0.1V53.8h-18.6V562c1.8,0.1,3.6,0.1,5.5,0.1C277,562,282,562,283.3,562z"/>
	</g>
	<g>
		<path class="st5" d="M280.3,493.2C280.2,493.2,280.2,493.2,280.3,493.2c-5.7,0-12.1-3.3-14-10.8c-2.8-11.3,12.5-26.7,13.2-27.3
			c0.5-0.5,1.2-0.5,1.7,0c0.7,0.6,16,16,13.2,27.3l0,0C292.5,489.8,286,493.2,280.3,493.2z M280.2,490.8
			C280.2,490.8,280.3,490.8,280.2,490.8c4.8,0,10.2-2.8,11.8-9l0,0c2.1-8.5-8.5-20.7-11.7-24.1c-3.1,3.4-13.8,15.6-11.7,24.1
			C270.3,488.4,275.9,490.8,280.2,490.8C280.2,490.8,280.2,490.8,280.2,490.8z M303.2,500.7c6.8-2.2,10.5-5.2,10.5-8.6
			c0-4.3-6-8-16.4-10.1l-0.5,2.4c8.8,1.8,14.5,4.8,14.5,7.8c0,4.4-13,9.3-31.6,9.3c-18.7,0-31.6-4.9-31.6-9.3c0-2.6,4.9-6.1,16-8
			l-0.4-2.4c-11.4,2-17.9,5.8-17.9,10.4c0,3.4,3.6,6.4,10.5,8.6c6.3,2,14.7,3.1,23.6,3.1C288.5,503.8,296.8,502.7,303.2,500.7z
			 M303.6,491.2c0-2.1-2.6-3.8-7.6-5.1l-0.6,2.3c4.8,1.1,5.7,2.4,5.7,2.7c0,1.3-7.3,4.3-21.6,4.3c-14.2,0-21.6-3-21.6-4.3
			c0-0.4,1.3-1.9,7.7-3.1l-0.5-2.4c-6.4,1.2-9.7,3.1-9.7,5.5c0,5.3,15.7,6.7,24,6.7C287.9,497.9,303.6,496.5,303.6,491.2z"/>
		<path class="st5" d="M280.3,489.3l-0.1-1.8c4.6-0.2,8.2-3.8,8.7-8.7l1.8,0.2C290.2,484.7,285.8,489,280.3,489.3z"/>
	</g>
	<path class="st1" d="M315.9,63.8h-71.8c-4.2,0-7.6-3.4-7.6-7.6V30.1c0-16,13-29,29-29h29.2c16,0,29,13,29,29v26.1
		C323.5,60.4,320.1,63.8,315.9,63.8z"/>
	<path class="st6" d="M236.8,25.2c-0.3,1.6-0.4,3.2-0.4,4.9v26.1c0,4.2,3.4,7.6,7.6,7.6h71.8c3.2,0,5.9-2,7.1-4.8
		C280.4,56.7,253.7,44,236.8,25.2z"/>
</g>
</svg>
