<?xml version="1.0" encoding="UTF-8"?>
<svg xmlns="http://www.w3.org/2000/svg" xmlns:xlink="http://www.w3.org/1999/xlink" viewBox="0 0 504.4 628.01">
  <defs>
    <style>
      .cls-1 {
        fill: #9db6fc;
      }

      .cls-2 {
        fill: #86a7ef;
      }

      .cls-3 {
        fill: #8ca6e0;
      }

      .cls-4 {
        clip-path: url(#clippath-2);
      }

      .cls-5, .cls-6 {
        isolation: isolate;
      }

      .cls-7 {
        stroke: #d1d1d1;
        stroke-linecap: round;
        stroke-miterlimit: 10;
        stroke-width: 22px;
      }

      .cls-7, .cls-8 {
        fill: none;
      }

      .cls-9 {
        fill: #a4dddd;
      }

      .cls-10 {
        clip-path: url(#clippath-1);
      }

      .cls-11 {
        fill: #bababa;
      }

      .cls-11, .cls-12 {
        mix-blend-mode: overlay;
      }

      .cls-13 {
        clip-path: url(#clippath);
      }

      .cls-14 {
        fill: #b0e1ff;
      }

      .cls-15 {
        clip-path: url(#clippath-3);
      }

      .cls-6 {
        fill: #a36c6c;
        opacity: .42;
      }

      .cls-16 {
        fill: #b8e7e8;
        opacity: .8;
      }

      .cls-12 {
        fill: #595959;
      }
    </style>
    <clipPath id="clippath">
      <path class="cls-8" d="m302.69,7.59c-29.09-11.34-62.94-8.21-64.25-2.03-.44,2.07,2.76,4.58,6.04,6.6-27.39,13.1-46.31,41.06-46.31,73.45,0,44.94,36.43,81.37,81.37,81.37s81.37-36.43,81.37-81.37c0-11.18-2.35-20.1-3.58-23.95-11.54-35.98-46.47-50.88-54.65-54.07Z"/>
    </clipPath>
    <clipPath id="clippath-1">
      <path class="cls-8" d="m390.96,184.51c0-22.05-49.88-39.92-111.41-39.92s-111.41,17.87-111.41,39.92v330.96h.17c-.11.72-.17,1.45-.17,2.18,0,22.05,49.88,39.92,111.41,39.92s111.41-17.87,111.41-39.92c0-.73-.06-1.46-.17-2.18h.17V184.51Z"/>
    </clipPath>
    <clipPath id="clippath-2">
      <path class="cls-8" d="m390.96,184.51c0-22.05-49.88-39.92-111.41-39.92s-111.41,17.87-111.41,39.92v330.96h.17c-.11.72-.17,1.45-.17,2.18,0,22.05,49.88,39.92,111.41,39.92s111.41-17.87,111.41-39.92c0-.73-.06-1.46-.17-2.18h.17V184.51Z"/>
    </clipPath>
    <clipPath id="clippath-3">
      <path class="cls-8" d="m374.36,157.46l-26.51,2.95c-45.44,5.05-91.15,5.05-136.59,0l-26.51-2.95v-71.72c0-13.51,8.79-24.47,19.64-24.47h150.34c10.85,0,19.64,10.95,19.64,24.47v71.72Z"/>
    </clipPath>
  </defs>
  <g class="cls-5">
    <g id="Layer_1" data-name="Layer 1">
      <ellipse class="cls-6" cx="282" cy="528.11" rx="108.9" ry="35.63"/>
      <g>
        <path class="cls-2" d="m302.69,7.59c-29.09-11.34-62.94-8.21-64.25-2.03-.44,2.07,2.76,4.58,6.04,6.6-27.39,13.1-46.31,41.06-46.31,73.45,0,44.94,36.43,81.37,81.37,81.37s81.37-36.43,81.37-81.37c0-11.18-2.35-20.1-3.58-23.95-11.54-35.98-46.47-50.88-54.65-54.07Z"/>
        <g class="cls-13">
          <path class="cls-12" d="m216.91,15.88c2.92,7.93,8.17,18.7,17.81,28.75,25.52,26.61,60.91,26.41,68.44,26.2-43.93,2.29-87.86,4.58-131.79,6.87,15.18-20.61,30.36-41.22,45.54-61.82Z"/>
        </g>
        <g class="cls-10">
          <path class="cls-14" d="m168.14,275.64c74.27.68,148.55,1.36,222.82,2.04,37.81,99.73,75.63,199.46,113.44,299.19-39.43,19.21-111.33,47.92-205.57,50.88-100.99,3.18-178.96-24.74-219.82-42.74,29.71-103.12,59.41-206.25,89.12-309.37Z"/>
        </g>
        <path class="cls-7" d="m267.28,504.36c16.12-62.55,30.5-137.25,37.4-222.11,5.17-63.54,5.26-121.74,2.65-173.26"/>
        <path class="cls-16" d="m390.96,184.51c0-22.05-49.88-39.92-111.41-39.92s-111.41,17.87-111.41,39.92v330.96h.17c-.11.72-.17,1.45-.17,2.18,0,22.05,49.88,39.92,111.41,39.92s111.41-17.87,111.41-39.92c0-.73-.06-1.46-.17-2.18h.17V184.51Z"/>
        <g class="cls-4">
          <path class="cls-12" d="m259.69,132.09c-7.2,4.72-17.25,12.27-27.04,23.5-30.71,35.21-34.64,78.83-35.58,113.95-3.51,131.17-6.04,225.75,61.06,270.7,14.23,9.53,43.49,24.81,93.63,22.39-23.72,14.66-138.24,82.41-231.01,39.02C-28.06,532.05-39.81,220.41,88.17,139.28c57.73-36.6,133.03-19.32,171.51-7.18Z"/>
        </g>
        <g>
          <g>
            <path class="cls-1" d="m374.36,157.46l-26.51,2.95c-45.44,5.05-91.15,5.05-136.59,0l-26.51-2.95v-71.72c0-13.51,8.79-24.47,19.64-24.47h150.34c10.85,0,19.64,10.95,19.64,24.47v71.72Z"/>
            <g>
              <rect class="cls-3" x="202.92" y="79.92" width="9.12" height="56.73" rx="4.56" ry="4.56"/>
              <rect class="cls-3" x="226.74" y="79.92" width="9.12" height="56.73" rx="4.56" ry="4.56"/>
              <rect class="cls-3" x="250.57" y="79.92" width="9.12" height="56.73" rx="4.56" ry="4.56"/>
              <rect class="cls-3" x="274.39" y="79.92" width="9.12" height="56.73" rx="4.56" ry="4.56"/>
              <rect class="cls-3" x="298.22" y="79.92" width="9.12" height="56.73" rx="4.56" ry="4.56"/>
              <rect class="cls-3" x="322.04" y="79.92" width="9.12" height="56.73" rx="4.56" ry="4.56"/>
              <rect class="cls-3" x="347.06" y="79.92" width="9.12" height="56.73" rx="4.56" ry="4.56"/>
            </g>
            <g class="cls-15">
              <path class="cls-12" d="m228.75,198.92c-5.55-16.39-12.33-43.23-10.42-76.53,2.45-42.48,17.82-73.99,27.17-90.12h-112.3c-39.97,37.51-44.52,97.51-14.49,135.85,24.5,31.29,68.79,44.03,110.04,30.79Z"/>
            </g>
          </g>
          <path class="cls-9" d="m372.84,170.24l-10.63.91c-55.01,4.7-110.32,4.7-165.32,0l-10.63-.91c-4.77,0-8.67-3.9-8.67-8.67s3.9-8.67,8.67-8.67c28.7,2.22,59.6,3.58,92.45,3.6,33.48.02,64.95-1.34,94.14-3.6,4.76,0,8.67,3.91,8.67,8.67s-3.9,8.67-8.67,8.67Z"/>
        </g>
        <path class="cls-11" d="m372.39,194.7c-12.31-9.26-34.32-7.61-42.23,2.91-8.05,10.7,2.72,24.96,10.19,52.43,17.57,64.58-7.89,111.25,13.11,122.33,5.57,2.94,12.62,2.44,17.48,0,15.59-7.81,9.94-36.12,10.19-101.95.19-50.58,3.65-66.42-8.74-75.73Z"/>
      </g>
    </g>
  </g>
</svg>