<?xml version="1.0" encoding="UTF-8"?>
<svg id="Layer_1" data-name="Layer 1" xmlns="http://www.w3.org/2000/svg" viewBox="0 0 34.84 29.81">
  <defs>
    <style>
      .cls-1 {
        fill: #797979;
      }
    </style>
  </defs>
  <path class="cls-1" d="m3.59,18.99c0,.17.12.32.24.48-.02-.19-.09-.33-.24-.48Z"/>
  <polygon class="cls-1" points="3.83 19.48 3.83 19.48 3.83 19.47 3.83 19.48"/>
  <path class="cls-1" d="m29.91,2.01s-.07.07-.11.12c.04-.03.08-.07.11-.12Z"/>
  <path class="cls-1" d="m12.41,27.07v-.29c.63-.61.24.09.81-.54.14-.52.98-.92,1.12-1.27,0,.02.29-.24.32-.15,0-.22.27-.32.43-.53.04-.1-.08.01-.15.02l.37-.44c.19-.12.29-.1.13.09.3-.27,1.16-1.05,2.02-1.83.83-.77,1.66-1.55,1.93-1.87-.16,0-.29.23-.48.17.09-.23.26-.2.25-.35.25.13.39-.29.7-.22l-.06-.15h.14c.58-.8.1-.22.74-.8.34-.37.36-.68.61-.82-.03.03-.17.04-.11-.08.11.08.18-.31.32-.26.08-.1.38-.37.16-.41.11.02.4-.21.3,0,.09-.08.2-.15.23-.24l-.15.07c.28-.31.54-.37.62-.68l-.16.06c.17-.18.31-.34.5-.28l-.14.22c.29-.29.46-.47.64-.78l-.09.08c.19-.43,1.72-2.15,1.85-2.59l-.23.03.17-.33s.2.44.14.43c.52-.53,3.21-3.32,3.77-3.73.25-.14.19.12.2.14.2-.27,0-.21.21-.4.07-.04.06.09.05.13.08-.1.2-.15.16-.2-.15.07-.22-.1-.35-.13l.27-.25.06.09c.06-.06-.06-.36.24-.57.47-.39.92-.89,1.37-1.3.04.05-.03.17-.09.29.06-.06.14-.16.23-.17-.19.02.13-.24.01-.19.14-.51.72-.74.88-1.15-.14-.2-2.27-3.54-2.47-3.74.09-.08.18-.17.23-.17-.07-.03-.27.12-.33.24l.09.12c-.17.25-.11-.02-.31.19-.1-.08.07-.28.23-.46-.16.14-.38.22-.34.38-.18.1-.09-.12-.3,0-.1.15-.17.39-.36.47v-.02c-.44.24-.4.65-.8.86v-.06c-.16.06-.3.34-.56.48.07-.04.19-.02.08.11-.28.17-.38.38-.62.47l-.07.24c-.81.76-3.82,3.95-4.6,4.75l.02-.04c-1.17,1.23-3.67,3.67-4.8,5.02-.28.1-.53.39-.75.56.15-.07.17.02.08.11-.63.59.02.1-.57.75-.64.78-3.48,3.39-4.19,3.94-.05.3-.16.22-.21.43v-.05c-.03.07-.16.17-.28.26-.15-.2-.28-.4-.35-.42v.04c-.16,0,0-.13-.05-.26-.11.17-.49-.07-.61-.18l.04-.02c-.2-.16-.71-.47-1.01-.75l.09-.06c-.32-.18-.73-.69-.9-.86-.35-.45-.81-1.23-1.43-1.69l-.11-.57-.07-.03s-3.3,1.96-3.2,3.24l-.09.06.15.14c.12.21.29.21.2.27l-.21-.25c.14.2-.02.11-.12.09.06.08.12.16.15.24.06,0,0-.06,0-.1.12.07.31.13.38.28.16.19-.12.13.07.35.97,1.18,1.84,2.31,2.94,3.46.02.09-.05,0-.1-.02.62.61,1.17,1.23,1.74,1.78.13.21.15.33.18.43-.03-.12,1.22,1.2,2.15,2.21.29-.29.55-.54.75-.73.19-.19.32-.3.33-.31Z"/>
</svg>