<?xml version="1.0" encoding="utf-8"?>
<!-- Generator: Adobe Illustrator 27.4.0, SVG Export Plug-In . SVG Version: 6.00 Build 0)  -->
<svg version="1.1" id="Layer_1" xmlns="http://www.w3.org/2000/svg" xmlns:xlink="http://www.w3.org/1999/xlink" x="0px" y="0px"
	 viewBox="0 0 1762.9 1762.9" style="enable-background:new 0 0 1762.9 1762.9;" xml:space="preserve">
<style type="text/css">
	.st0{fill:#FCF2EB;}
	.st1{fill:#E1AEFC;}
	.st2{fill:#C2A1FC;}
	.st3{fill:#FF8CB4;}
	.st4{fill:#BAC987;}
	.st5{fill:#87C9A2;}
	.st6{fill:#B3C6FC;}
	.st7{fill:#FBD271;}
</style>
<circle class="st0" cx="881.5" cy="881.5" r="881.5"/>
<path class="st1" d="M117.1,442.1l231.3,133.1L883,882.8l-0.9-616.8L881.8,0c-0.1,0-0.2,0-0.3,0C554.6,0,269.4,177.9,117.1,442.1z"
	/>
<path class="st2" d="M881.8,0c-0.1,0-0.2,0-0.3,0C720.7,0,569.9,43.1,440.2,118.3L883,882.8L881.8,0z"/>
<path class="st3" d="M883,882.8L1416.4,576l230.2-132.5C1494.8,178.9,1209.8,0.6,883,0l-0.4,266.9L883,882.8L883,882.8z"/>
<path class="st4" d="M883,882.8l533.3,309.2l227.8,131.5c75.5-130,118.7-281,118.7-442.1s-42.5-309.6-116.8-438.8l-229.7,132.6
	L883,882.8L883,882.8z"/>
<path class="st5" d="M1416.3,1191.3L883,882.8l-0.4,617.6l0.4,262.5c325.4-0.6,609.4-177.4,761.7-440.2L1416.3,1191.3L1416.3,1191.3
	z"/>
<path class="st6" d="M881.5,1762.9c0.1,0,0.2,0,0.3,0l0.4-263.3l0.9-616.8l-534.6,307.6l-230.1,132.4
	C270.8,1586,555.5,1762.9,881.5,1762.9L881.5,1762.9z"/>
<path class="st7" d="M118.9,1323.8l229.6-132.6L883,882.8L348.4,574.4L117.7,441.2C42.8,570.8,0,721.1,0,881.5
	S43.3,1193.8,118.9,1323.8L118.9,1323.8z"/>
</svg>
