<?xml version="1.0" encoding="UTF-8"?>
<svg id="Layer_1" data-name="Layer 1" xmlns="http://www.w3.org/2000/svg" viewBox="0 0 1762.92 1762.92">
  <defs>
    <style>
      .cls-1 {
        fill: #fcf2eb;
      }

      .cls-2 {
        fill: #87c9a2;
      }

      .cls-3 {
        fill: #ffe885;
      }

      .cls-4 {
        fill: #ff7d84;
      }

      .cls-5 {
        fill: #ffefd1;
      }

      .cls-6 {
        fill: #a5ccf2;
      }

      .cls-7 {
        fill: #adacdd;
      }
    </style>
  </defs>
  <circle class="cls-1" cx="881.46" cy="881.46" r="881.46"/>
  <path class="cls-5" d="m117.14,442.09l231.3,133.11,534.57,307.64-.86-616.77L881.78,0c-.11,0-.21,0-.32,0C554.64,0,269.36,177.87,117.14,442.09Z"/>
  <path class="cls-1" d="m881.78,0c-.11,0-.21,0-.32,0C720.67,0,569.94,43.06,440.16,118.27l442.85,764.57L881.78,0Z"/>
  <path class="cls-4" d="m883.01,882.84l533.34-306.82,230.24-132.5C1494.83,178.93,1209.78.58,883.02,0l-.37,266.88.37,615.95Z"/>
  <path class="cls-2" d="m883.01,882.84l533.34,309.2,227.82,131.53c75.5-129.97,118.74-280.99,118.74-442.12s-42.51-309.61-116.83-438.83l-229.74,132.64-533.34,307.57Z"/>
  <path class="cls-3" d="m1416.35,1191.3l-533.34-308.46-.37,617.59.37,262.48c325.4-.56,609.43-177.44,761.67-440.21l-228.33-131.4Z"/>
  <path class="cls-7" d="m881.46,1762.92c.11,0,.22,0,.32,0l.37-263.31.86-616.77-534.57,307.64-230.1,132.42c152.51,263.07,437.14,440.02,763.11,440.02Z"/>
  <path class="cls-6" d="m118.86,1323.77l229.58-132.55,534.57-308.38-534.57-308.39-230.79-133.25C42.83,570.75,0,721.1,0,881.46s43.29,312.3,118.86,442.32Z"/>
</svg>